<?xml version="1.0" encoding="UTF-8" standalone="no"?>
<!-- Created with Inkscape ("http://www.inkscape.org/") -->
<svg
   xmlns:dc="http://purl.org/dc/elements/1.1/"
   xmlns:cc="http://web.resource.org/cc/"
   xmlns:rdf="http://www.w3.org/1999/02/22-rdf-syntax-ns#"
   xmlns:svg="http://www.w3.org/2000/svg"
   xmlns="http://www.w3.org/2000/svg"
   xmlns:xlink="http://www.w3.org/1999/xlink"
   xmlns:sodipodi="http://sodipodi.sourceforge.net/DTD/sodipodi-0.dtd"
   xmlns:inkscape="http://www.inkscape.org/namespaces/inkscape"
   id="svg1"
   sodipodi:version="0.32"
   inkscape:version="0.44"
   width="1275.59"
   height="970"
   sodipodi:docbase="C:\freeciv\wonders-sources"
   sodipodi:docname="js_bachs_cathedral.svg"
   version="1.0"
   inkscape:export-filename="C:\freeciv\wonders-sources\js_bachs_cathedral.png"
   inkscape:export-xdpi="4.0824742"
   inkscape:export-ydpi="4.0824742">
  <metadata
     id="metadata1958">
    <rdf:RDF>
      <cc:Work
         rdf:about="">
        <dc:format>image/svg+xml</dc:format>
        <dc:type
           rdf:resource="http://purl.org/dc/dcmitype/StillImage" />
      </cc:Work>
    </rdf:RDF>
  </metadata>
  <defs
     id="defs564">
    <linearGradient
       id="linearGradient591">
      <stop
         style="stop-color:#733200;stop-opacity:1;"
         offset="0.000000"
         id="stop592" />
      <stop
         style="stop-color:#a77737;stop-opacity:1;"
         offset="1.000000"
         id="stop593" />
    </linearGradient>
    <linearGradient
       xlink:href="#linearGradient591"
       id="linearGradient594"
       x1="408.82211"
       y1="17.816711"
       x2="408.82211"
       y2="912.32874"
       gradientTransform="matrix(1.333405,0,0,1.028077,0.252324,-2.902665)"
       gradientUnits="userSpaceOnUse" />
    <linearGradient
       xlink:href="#linearGradient591"
       id="linearGradient602"
       x1="479.82126"
       y1="915.09412"
       x2="479.82126"
       y2="72.930779"
       gradientTransform="matrix(1.333405,0,0,1.028077,0.252324,-2.902665)"
       gradientUnits="userSpaceOnUse" />
  </defs>
  <sodipodi:namedview
     id="base"
     snaptogrid="true"
     showgrid="true"
     height="970px"
     width="1275.59px"
     inkscape:zoom="0.41479166"
     inkscape:cx="637.79529"
     inkscape:cy="417.96384"
     inkscape:window-width="924"
     inkscape:window-height="813"
     inkscape:window-x="22"
     inkscape:window-y="29"
     inkscape:current-layer="svg1" />
  <path
     style="fill:#00a200;fill-opacity:1;fill-rule:evenodd;stroke:black;stroke-width:1.17083025pt;stroke-linecap:butt;stroke-linejoin:miter;stroke-opacity:1"
     d="M 97.412171,847.46521 L 380.76472,847.46521 L 380.76472,337.24502 C 380.76472,245.61858 286.31412,142.87433 239.0888,142.87433 C 191.86348,142.87433 97.412171,245.61858 97.412171,337.24502 L 97.412171,847.46521 z "
     id="path569"
     sodipodi:nodetypes="ccsssc" />
  <path
     style="fill:#c50000;fill-opacity:1;fill-rule:evenodd;stroke:black;stroke-width:1.17083025pt;stroke-linecap:butt;stroke-linejoin:miter;stroke-opacity:1"
     d="M 423.5188,484.25764 C 394.85815,511.05865 408.01693,508.5545 387.81194,508.5545 C 231.66774,508.5545 -15.686368,589.54171 7.9263265,605.73915 C 54.222964,649.62215 30.530341,630.44879 78.763751,663.80503 C 127.69087,697.64125 103.86432,676.96074 149.60322,727.21932 C 196.36671,772.67528 243.30612,816.81061 291.27915,859.75969 C 291.27915,875.34275 290.58142,862.87686 308.98813,888.33664 C 320.46059,888.33664 314.31102,886.52366 326.69713,897.29317 C 326.69713,877.97857 326.69713,858.66259 326.69713,839.34798 C 340.21677,788.96051 334.41607,813.5042 344.40713,765.86498 C 367.00918,703.34622 354.99392,732.2619 379.82709,678.62699 C 416.98539,615.96422 401.7904,648.68138 426.49563,581.44231 C 446.45473,541.03577 452.8332,403.57213 405.66587,435.66531 C 367.64992,471.4105 388.17879,451.3622 344.40713,496.42732 C 293.1624,531.86669 320.46359,511.91577 262.83439,557.14684 C 205.02929,590.27541 234.76551,574.01763 173.56373,605.73915 C 119.00932,622.96789 144.62117,610.09743 96.474742,643.39332 C 31.224066,656.82742 -18.46027,599.18394 25.635277,678.62699 C 72.935057,743.51824 52.370697,707.65648 87.269384,786.2767 C 104.669,810.14706 141.28751,860.38367 158.68563,884.25402 C 202.83215,930.41214 432.95507,933.59239 432.95507,863.84231 C 456.16789,780.30568 438.27796,378.03829 387.81194,378.03829 C 338.38351,356.91207 364.57114,362.77612 308.98813,362.77612 C 245.1664,350.00988 278.38225,353.54395 209.2726,353.54395 C 183.47982,353.54395 157.68602,353.54395 131.89322,353.54395 C 66.987912,335.14131 184.88425,175.92472 220.44017,192.70364 C 226.34385,192.70364 232.24752,192.70364 238.15117,192.70364 C 238.15117,213.65844 238.15117,234.6132 238.15117,255.56663 C 216.77963,314.68709 220.44017,286.32818 220.44017,338.48064 C 195.40308,394.40715 202.73118,362.56493 202.73118,435.66531 C 179.74229,498.74498 185.0222,466.14849 185.0222,532.84997 C 162.03329,595.92964 167.31322,563.33316 167.31322,630.03465 C 146.96327,685.87201 149.60322,660.51782 149.60322,702.92384 C 137.79688,735.31871 125.99056,767.71361 114.18323,800.1085 C 114.18323,866.80999 119.46314,834.21351 96.474742,897.29317 C 96.474742,950.09427 1.2959506,605.73915 78.763751,605.73915 C 156.36354,570.25316 113.22662,581.44231 209.2726,581.44231 C 290.64239,550.69446 251.33895,557.14684 326.69713,557.14684 C 396.62845,525.16747 442.02449,332.26004 397.53708,362.77612 C 373.56957,416.5811 390.96369,399.75418 344.40713,411.36984 C 299.65483,472.7668 323.92222,449.71789 273.56915,484.25764 C 182.01739,547.06029 294.28496,470.0487 202.73118,532.84997 C 157.97789,594.24832 182.24729,571.19806 131.89322,605.73915 C 81.300746,605.73915 107.34993,599.43764 54.537839,630.03465 C 5.5442693,630.03465 3.3701299,426.76913 61.05426,459.96216 C 125.16589,518.59853 95.147266,495.49615 149.60322,532.84997 C 195.15019,595.33719 171.25865,568.47449 220.44017,614.81637 C 263.73904,674.70344 247.01467,644.2669 273.56915,702.92384 C 318.02357,746.05393 301.27518,720.50774 326.69713,775.81301 C 368.92041,817.48671 351.87516,796.60461 379.82709,835.26536 C 399.0175,876.15187 397.53708,858.03859 397.53708,884.25402 C 409.29444,890.15921 403.28182,886.10677 415.24608,897.29317 C 415.24608,912.53201 412.46317,908.74835 423.5188,908.74835 C 425.13117,915.38449 374.41024,265.59145 355.07989,265.59145 C 343.80036,278.00936 346.65624,280.06095 334.24913,280.06095 C 324.96482,292.14286 326.69713,294.64701 326.69713,280.06095 C 320.79546,280.06095 314.89179,280.06095 308.98813,280.06095 C 308.98813,267.8803 309.98074,275.97971 291.27915,275.97971 C 244.31373,262.2055 267.93339,265.59145 220.44017,265.59145 C 168.01492,244.71073 197.31634,251.48537 131.89322,251.48537 C 82.376321,237.23941 43.345268,344.66697 43.345268,435.66531 C 69.917752,508.57781 61.05426,466.14849 61.05426,565.8277 C 61.05426,651.0772 55.050636,610.28119 78.763751,688.29938 C 78.763751,733.66758 78.763751,779.03715 78.763751,824.40537 C 104.3951,894.72868 231.34485,956.7839 283.66416,872.99769 C 309.92776,801.51555 297.30575,841.59981 319.37103,751.51617 C 344.04526,654.63732 367.32205,557.37722 390.78676,459.96216 C 390.78676,385.91415 388.19479,421.34255 397.53708,353.54395 C 397.53708,290.61103 335.29173,276.66403 308.98813,289.8883 C 285.5964,295.79075 261.51493,305.60988 238.15117,314.18379 C 201.96849,348.12286 222.24446,334.26364 176.53956,353.54395 C 128.58054,365.94403 152.39711,357.83365 105.12382,378.03829 C 69.24202,390.33687 87.132439,382.31701 51.562017,402.53262 C 36.913814,418.28572 46.824892,411.36984 18.829971,411.36984 C 2.3125483,430.96557 1.8117465,476.46268 36.683905,520.92166 C 78.268947,562.7174 52.694568,537.70743 114.18323,594.40466 C 158.91453,656.27201 134.63313,633.04074 185.0222,667.88765 C 227.64234,707.62082 268.3832,747.0331 308.98813,790.35931 C 374.65115,820.6313 345.4337,803.31618 397.53708,839.34798 C 443.13304,882.66733 444.37455,484.25764 423.5188,484.25764 z "
     id="path565"
     sodipodi:nodetypes="cccccccccccccccccccccccccccccccccccccccccccccccccccccccccccccccccccccccccccccccc" />
  <path
     style="opacity:0.7;fill:#0000b6;fill-opacity:1;fill-rule:evenodd;stroke:black;stroke-width:1.17083025pt;stroke-linecap:butt;stroke-linejoin:miter;stroke-opacity:1"
     d="M 128.47158,185.72329 C 128.47158,202.05238 128.47158,218.38148 128.47158,234.71193 C 105.21778,285.13645 117.0491,260.66133 93.052096,308.19494 C 73.926666,361.09893 101.80114,653.63895 137.2661,686.15041 C 170.34801,746.52705 151.54944,723.6112 190.8279,759.03959 C 219.08671,797.49463 203.7158,774.07135 234.72853,831.92741 C 260.17944,866.84427 245.40731,850.04754 280.09757,880.51974 C 291.99986,896.71718 413.73968,513.44759 394.11443,540.37341 C 376.40546,564.66889 358.69547,588.96574 340.98547,613.26123 C 340.98547,634.03772 342.57384,620.34168 323.27648,647.03161 C 309.92976,669.82405 295.31954,689.73246 280.09757,710.44587 C 274.14592,710.44587 268.19528,710.44587 262.24364,710.44587 C 245.72817,727.40582 255.31237,716.53895 234.72853,745.00892 C 220.41518,750.24078 226.14092,745.16665 217.01952,759.03959 C 189.51143,766.00486 180.42002,769.50326 155.12002,769.50326 C 146.23755,769.50326 137.35406,769.50326 128.47158,769.50326 C 117.20704,756.49155 123.3596,759.03959 110.76259,759.03959 C 89.318574,700.20163 66.0083,430.38272 93.052096,467.48422 C 118.22964,536.56506 101.42827,503.27191 146.18157,564.66889 C 170.32002,630.9041 153.05185,602.92645 199.30954,647.03161 C 231.81568,699.46793 214.13468,674.93383 252.43852,720.51462 C 278.40424,745.3367 304.60687,769.38258 330.68354,793.99761 C 366.56336,811.46083 351.68924,798.01987 376.40546,831.92741 C 388.21178,831.92741 400.0171,831.92741 411.82443,831.92741 C 433.26695,773.09219 414.60034,426.82672 394.11443,455.15958 C 361.48735,471.40912 375.59778,459.00494 351.51329,491.78106 C 314.77484,507.87292 332.62077,499.74745 297.9515,516.07656 C 253.26419,516.07656 208.57787,516.07656 163.89056,516.07656 C 116.0115,483.23322 100.20128,353.24774 146.18157,321.70721 C 192.16038,290.1667 168.40076,297.41036 217.01952,297.41036 C 240.63219,281.21292 264.24483,265.01548 287.85749,248.81803 C 336.47626,248.81803 312.71665,256.06169 358.69547,224.52254 C 382.30812,208.3251 371.39343,172.03821 351.51329,210.21761 C 351.51329,241.4194 352.50291,219.95172 340.98547,273.11489 C 330.38066,323.89321 333.65937,296.02938 333.65937,357.18361 C 333.65937,381.67657 333.65937,406.17227 333.65937,430.66523 C 321.14632,475.03782 323.27648,454.3244 323.27648,491.78106 C 323.27648,499.8791 323.27648,507.97851 323.27648,516.07656 C 333.89428,516.07656 329.92085,512.85516 333.65937,528.64255 C 342.35893,542.57036 340.98547,535.22385 340.98547,549.05428 C 344.39813,570.22164 333.80031,564.66889 351.51329,564.66889 C 362.03814,617.13676 346.76719,613.26123 369.36723,613.26123 C 379.03642,626.00551 376.40546,618.07479 376.40546,637.55807 C 376.40546,651.80951 378.61159,646.13197 366.39141,651.11423 C 355.15386,651.11423 360.42977,648.52093 351.51329,661.85355 C 312.58471,661.85355 273.6571,661.85355 234.72853,661.85355 C 198.83873,628.37664 219.18069,637.55807 172.97397,637.55807 C 139.21633,606.94598 153.75157,623.6481 128.47158,588.96574 C 84.703401,588.96574 57.590631,320.30153 93.052096,297.41036 C 116.66526,297.41036 140.2779,297.41036 163.89056,297.41036 C 175.24907,285.37096 169.14749,287.78187 181.60056,287.78187 C 181.60056,270.73142 181.83745,277.01099 172.97397,263.28753 C 155.92471,255.62558 166.13468,262.30835 146.18157,234.71193 C 126.76126,207.85197 128.47158,221.71807 128.47158,200.2257 C 115.57468,200.2257 121.68126,202.96025 110.76259,189.80589 C 110.76259,180.39681 111.54627,186.55709 101.55823,175.93021 C 92.819188,175.93021 103.72537,224.97785 128.47158,259.20628 C 128.47158,281.94934 125.3738,271.26214 146.18157,283.70062 C 168.38677,331.35629 156.14062,311.07485 181.60056,346.00269 C 226.83765,408.06478 171.78245,332.53432 217.01952,394.5964 C 239.41167,440.20323 227.28747,420.37435 252.43852,455.15958 C 276.08315,504.0536 264.26683,479.5387 287.85749,528.64255 C 287.85749,579.55117 283.09438,554.59468 305.56649,602.12556 C 323.29347,638.24651 340.81853,674.46893 358.69547,710.44587 C 384.27634,745.54241 371.9782,725.03195 394.11443,773.58588 C 413.45878,800.34026 411.82443,786.57977 411.82443,807.63192 C 424.72133,820.24594 425.34308,847.06888 411.82443,847.06888 C 411.82443,860.67166 414.04855,856.22426 402.09929,856.22426 C 373.22571,868.87394 385.39589,867.4806 366.39141,867.4806 C 339.85791,879.71748 315.17968,892.36715 287.85749,896.05754 C 246.53486,896.05754 163.08888,868.2856 199.30954,831.92741 C 224.86443,777.19537 208.13505,802.76624 252.43852,759.03959 C 274.61974,710.78873 262.35459,731.2937 287.85749,696.02028 C 310.40556,652.5199 298.36334,671.73576 323.27648,637.55807 C 345.37674,588.24713 333.04861,609.02089 358.69547,573.54861 C 384.20436,525.76265 371.93721,552.63359 394.11443,491.78106 C 429.53343,443.18873 429.53343,214.30023 411.82443,214.30023 C 391.26857,197.96428 400.93674,200.2257 384.24535,200.2257 C 378.29372,200.2257 372.34305,200.2257 366.39141,200.2257 C 354.36617,181.8162 358.69547,182.95172 358.69547,189.80589 C 358.69547,253.76325 358.69547,317.7206 358.69547,381.67657 C 355.22484,365.18153 365.98358,370.29955 348.53748,370.29955 C 340.11681,370.29955 331.69715,370.29955 323.27648,370.29955 C 309.22604,391.69729 319.33105,380.04736 287.85749,394.5964 C 241.02403,415.30022 264.65167,407.27488 217.01952,418.89188 C 171.04073,450.4324 194.80031,443.18873 146.18157,443.18873 C 1.3689218,443.18873 148.48766,147.19418 128.47158,185.72329 z "
     id="path566"
     sodipodi:nodetypes="ccccccccccccccccccccccccccccccccccccccccccccccccccccccccccccccccccccccccccccccccccccccc" />
  <path
     style="fill:#00a200;fill-opacity:1;fill-rule:evenodd;stroke:black;stroke-width:1.17083025pt;stroke-linecap:butt;stroke-linejoin:miter;stroke-opacity:1"
     d="M 522.44165,847.46521 L 805.7955,847.46521 L 805.7955,337.24502 C 805.7955,245.61858 711.34289,142.87433 664.11758,142.87433 C 616.89228,142.87433 522.44165,245.61858 522.44165,337.24502 L 522.44165,847.46521 z "
     id="path584"
     sodipodi:nodetypes="ccsssc" />
  <path
     style="font-size:12px;fill:#0000b6;fill-opacity:1;fill-rule:evenodd;stroke:black;stroke-width:1.09262819pt"
     d="M 782.00493,185.72329 C 782.00493,202.05238 782.00493,218.38148 782.00493,234.71193 C 802.25691,285.13645 791.95099,260.66133 812.84273,308.19494 C 829.50611,361.09893 805.22573,653.63895 774.33797,686.15041 C 745.52937,746.52705 761.90288,723.6112 727.69641,759.03959 C 703.08615,797.49463 716.47085,774.07135 689.46156,831.92741 C 667.29633,866.84427 680.16523,850.04754 649.95319,880.51974 C 639.58728,896.71718 533.56126,513.44759 550.64949,540.37341 C 566.07539,564.66889 581.50127,588.96574 596.91817,613.26123 C 596.91817,634.03772 595.53474,620.34168 612.34407,647.03161 C 623.96548,669.82405 636.69343,689.73246 649.95319,710.44587 C 655.13114,710.44587 660.30909,710.44587 665.49704,710.44587 C 679.88534,727.40582 671.53465,716.53895 689.46156,745.00892 C 701.92662,750.24078 696.94859,745.16665 704.88544,759.03959 C 728.84596,766.00486 736.76282,769.50326 758.79411,769.50326 C 766.53105,769.50326 774.26799,769.50326 782.00493,769.50326 C 791.81104,756.49155 786.45317,759.03959 797.42882,759.03959 C 816.10144,700.20163 836.4034,430.38272 812.84273,467.48422 C 790.92139,536.56506 805.5556,503.27191 766.58102,564.66889 C 745.55936,630.9041 760.59339,602.92645 720.30934,647.03161 C 692.00055,699.46793 707.40446,674.93383 674.04365,720.51462 C 651.42261,745.3367 628.60564,769.38258 605.89362,793.99761 C 574.64999,811.46083 587.60387,798.01987 566.07539,831.92741 C 555.79446,831.92741 545.51353,831.92741 535.2326,831.92741 C 516.55997,773.09219 532.81256,426.82672 550.64949,455.15958 C 579.06425,471.40912 566.7801,459.00494 587.75181,491.78106 C 619.74415,507.87292 604.20531,499.74745 634.39535,516.07656 C 673.31394,516.07656 712.24254,516.07656 751.15713,516.07656 C 792.85063,483.23322 806.62519,353.24774 766.58102,321.70721 C 726.53688,290.1667 747.22868,297.41036 704.88544,297.41036 C 684.32359,281.21292 663.74773,265.01548 643.18587,248.81803 C 600.84461,248.81803 621.53744,256.06169 581.50127,224.52254 C 560.93043,208.3251 570.43666,172.03821 587.75181,210.21761 C 587.75181,241.4194 586.89015,219.95172 596.91817,273.11489 C 606.15452,323.89321 603.29966,296.02938 603.29966,357.18361 C 603.29966,381.67657 603.29966,406.17227 603.29966,430.66523 C 614.19835,475.03782 612.34407,454.3244 612.34407,491.78106 C 612.34407,499.8791 612.34407,507.97851 612.34407,516.07656 C 603.09873,516.07656 606.55536,512.85516 603.29966,528.64255 C 595.72565,542.57036 596.91817,535.22385 596.91817,549.05428 C 593.95034,570.22164 603.1777,564.66889 587.75181,564.66889 C 578.58544,617.13676 591.88717,613.26123 572.20396,613.26123 C 563.78629,626.00551 566.07539,618.07479 566.07539,637.55807 C 566.07539,651.80951 564.15114,646.13197 574.79793,651.11423 C 584.58306,651.11423 579.98689,648.52093 587.75181,661.85355 C 621.65939,661.85355 655.56097,661.85355 689.46156,661.85355 C 720.71918,628.37664 703.00619,637.55807 743.25025,637.55807 C 772.64862,606.94598 759.98364,623.6481 782.00493,588.96574 C 820.11984,588.96574 843.73049,320.30153 812.84273,297.41036 C 792.28086,297.41036 771.719,297.41036 751.15713,297.41036 C 741.26104,285.37096 746.57896,287.78187 735.73324,287.78187 C 735.73324,270.73142 735.52332,277.01099 743.25025,263.28753 C 758.09438,255.62558 749.19791,262.30835 766.58102,234.71193 C 783.49434,207.85197 782.00493,221.71807 782.00493,200.2257 C 793.23049,200.2257 787.91259,202.96025 797.42882,189.80589 C 797.42882,180.39681 796.7391,186.55709 805.43565,175.93021 C 813.05264,175.93021 803.55639,224.97785 782.00493,259.20628 C 782.00493,281.94934 784.70387,271.26214 766.58102,283.70062 C 747.23867,331.35629 757.90447,311.07485 735.73324,346.00269 C 696.33884,408.06478 744.27985,332.53432 704.88544,394.5964 C 685.38316,440.20323 695.94899,420.37435 674.04365,455.15958 C 653.4418,504.0536 663.72774,479.5387 643.18587,528.64255 C 643.18587,579.55117 647.34423,554.59468 627.76997,602.12556 C 612.32708,638.24651 597.06612,674.46893 581.50127,710.44587 C 559.2241,745.54241 569.93186,725.03195 550.64949,773.58588 C 533.80516,800.34026 535.2326,786.57977 535.2326,807.63192 C 523.99403,820.24594 523.45426,847.06888 535.2326,847.06888 C 535.2326,860.67166 533.29135,856.22426 543.70325,856.22426 C 568.84329,868.87394 558.24948,867.4806 574.79793,867.4806 C 597.90178,879.71748 619.39528,892.36715 643.18587,896.05754 C 679.17563,896.05754 751.85685,868.2856 720.30934,831.92741 C 698.05814,777.19537 712.62239,802.76624 674.04365,759.03959 C 654.7213,710.78873 665.40706,731.2937 643.18587,696.02028 C 623.55664,652.5199 634.0375,671.73576 612.34407,637.55807 C 593.09669,588.24713 603.83043,609.02089 581.50127,573.54861 C 559.28506,525.76265 569.96685,552.63359 550.64949,491.78106 C 519.8067,443.18873 519.8067,214.30023 535.2326,214.30023 C 553.13052,197.96428 544.71285,200.2257 559.25007,200.2257 C 564.43003,200.2257 569.60999,200.2257 574.79793,200.2257 C 585.27078,181.8162 581.50127,182.95172 581.50127,189.80589 C 581.50127,253.76325 581.50127,317.7206 581.50127,381.67657 C 584.52208,365.18153 575.1548,370.29955 590.34578,370.29955 C 597.67588,370.29955 605.01398,370.29955 612.34407,370.29955 C 624.58424,391.69729 615.78271,380.04736 643.18587,394.5964 C 683.97372,415.30022 663.39787,407.27488 704.88544,418.89188 C 744.9296,450.4324 724.23779,443.18873 766.58102,443.18873 C 892.69112,443.18873 764.57181,147.19418 782.00493,185.72329 z "
     id="path586"
     sodipodi:nodetypes="ccccccccccccccccccccccccccccccccccccccccccccccccccccccccccccccccccccccccccccccccccccccc" />
  <path
     style="font-size:12px;opacity:0.7;fill:#c50000;fill-opacity:1;fill-rule:evenodd;stroke:black;stroke-width:1.17501011pt"
     d="M 854.18636,625.4693 C 825.52769,598.47493 838.6825,600.99554 818.4805,600.99554 C 662.32829,600.99554 414.97719,519.43097 438.58985,503.11558 C 484.88651,458.91854 461.1939,478.22902 509.42681,444.63693 C 558.35345,410.55797 534.52687,431.38522 580.26576,380.77008 C 627.02926,334.98772 673.97368,290.53699 721.9487,247.27933 C 721.9487,231.58519 721.24897,244.14298 739.6517,218.49941 C 751.12715,218.49941 744.97958,220.32611 757.36468,209.47982 C 757.36468,228.92881 757.36468,248.38741 757.36468,267.83642 C 770.88933,318.58593 765.08162,293.8667 775.07766,341.84602 C 797.67873,404.81048 785.66348,375.68772 810.49366,429.70937 C 847.64894,492.82058 832.45496,459.86617 857.16517,527.58935 C 877.12727,568.28112 883.50475,706.7308 836.33343,674.4086 C 798.31846,638.40696 818.85035,658.59925 775.07766,613.20911 C 723.82795,577.51741 751.12715,597.61234 693.49996,552.05487 C 635.68783,518.69178 665.42706,535.06478 604.22628,503.11558 C 549.67189,485.76618 575.28374,498.72852 527.1378,465.19262 C 461.88762,451.66253 491.258,460.82614 438.58985,440.52276 C 408.02393,430.53495 412.20329,509.72154 456.29883,429.70937 C 503.59812,364.35186 483.03425,400.4728 517.93244,321.29031 C 535.33156,297.24854 571.95005,246.65123 589.34817,222.60946 C 633.4947,176.12083 863.62262,172.91864 863.62262,243.17066 C 886.83344,327.30385 868.95052,732.44703 818.4805,732.44703 C 769.05005,753.72547 795.23968,747.8189 739.6517,747.8189 C 675.83694,760.67429 709.05379,757.1169 639.93715,757.1169 C 614.14236,757.1169 588.34857,757.1169 562.55578,757.1169 C 497.65147,775.6512 615.5468,936.00465 651.10273,919.10918 C 657.0104,919.10918 662.90805,919.10918 668.81571,919.10918 C 668.81571,898.0008 668.81571,876.89654 668.81571,855.79364 C 647.44418,796.25215 651.10273,824.81127 651.10273,772.28855 C 626.06564,715.95886 633.39375,748.03147 633.39375,674.4086 C 610.40484,610.87775 615.68476,643.70462 615.68476,576.53001 C 592.69585,512.99778 597.97575,545.82603 597.97575,478.65004 C 577.6258,422.40949 580.26576,447.94608 580.26576,405.23561 C 568.45945,372.61169 556.65311,339.98368 544.84579,307.35976 C 544.84579,240.17966 550.12571,273.00792 527.1378,209.47982 C 527.1378,156.30019 431.95948,503.11558 509.42681,503.11558 C 587.02609,538.85666 543.88916,527.58935 639.93715,527.58935 C 721.30895,558.55524 682.00451,552.05487 757.36468,552.05487 C 827.29699,584.26599 872.68902,778.55168 828.20664,747.8189 C 804.23612,693.62994 821.62924,710.5748 775.07766,698.87551 C 730.32537,637.03833 754.58578,660.25451 704.23571,625.4693 C 612.67995,562.21548 724.95751,639.77972 633.39375,576.53001 C 588.64046,514.6887 612.90984,537.90491 562.55578,503.11558 C 511.9638,503.11558 538.0125,509.46372 485.20141,478.65004 C 436.20778,478.65004 434.03365,683.36787 491.71781,649.93484 C 555.82843,590.8802 525.81032,614.14988 580.26576,576.53001 C 625.81274,513.59435 601.9212,540.64906 651.10273,493.97665 C 694.40959,433.66034 677.68622,464.31494 704.23571,405.23561 C 748.6881,361.79833 731.94473,387.52691 757.36468,331.8253 C 799.58797,289.85539 782.54471,310.88559 810.49366,271.95056 C 829.68606,230.77196 828.20664,249.01139 828.20664,222.60946 C 839.96199,216.66175 833.95436,220.743 845.90962,209.47982 C 845.90962,194.13263 843.13074,197.93959 854.18636,197.93959 C 855.79571,191.25682 805.0758,845.69888 785.74344,845.69888 C 774.4679,833.19046 777.32678,831.12241 764.92169,831.12241 C 755.63536,818.95684 757.36468,816.43348 757.36468,831.12241 C 751.467,831.12241 745.55936,831.12241 739.6517,831.12241 C 739.6517,843.39082 740.65129,835.23656 721.9487,835.23656 C 674.97729,849.10951 698.59794,845.69888 651.10273,845.69888 C 598.67748,866.72908 627.97889,859.90231 562.55578,859.90231 C 513.03938,874.25388 474.00881,766.05561 474.00881,674.4086 C 500.58131,600.97497 491.71781,643.70462 491.71781,543.31366 C 491.71781,457.45526 485.71419,498.54475 509.42681,419.96705 C 509.42681,374.27382 509.42681,328.57786 509.42681,282.88602 C 535.05765,212.06213 662.00841,149.56393 714.33171,233.94535 C 740.59132,305.94176 727.97631,265.56951 750.03758,356.29632 C 774.71781,453.86909 797.9886,551.82722 821.45932,649.93484 C 821.45932,724.51356 818.86035,688.83421 828.20664,757.1169 C 828.20664,820.49828 765.96128,834.54676 739.6517,821.22922 C 716.26095,815.28152 692.18046,805.3952 668.81571,796.75821 C 632.63105,762.57503 652.91202,776.533 607.20212,757.1169 C 559.24307,744.62905 583.05965,752.79431 535.78638,732.44703 C 499.90558,720.06068 517.79549,728.13678 482.22557,707.77717 C 467.57737,691.91023 477.48844,698.87551 449.49353,698.87551 C 432.97607,679.13987 432.47526,633.31637 467.34746,588.53925 C 508.932,546.4459 483.35813,571.63552 544.84579,514.53374 C 589.57707,452.22344 565.29568,475.61791 615.68476,440.52276 C 658.30988,400.5057 699.04776,360.81367 739.6517,317.17617 C 805.3157,286.68886 776.09725,304.12877 828.20664,267.83642 C 873.7986,224.20712 875.03811,625.4693 854.18636,625.4693 z "
     id="path585"
     sodipodi:nodetypes="ccccccccccccccccccccccccccccccccccccccccccccccccccccccccccccccccccccccccccccccccc" />
  <path
     style="fill:#00a200;fill-opacity:1;fill-rule:evenodd;stroke:black;stroke-width:1.17083025pt;stroke-linecap:butt;stroke-linejoin:miter;stroke-opacity:1"
     d="M 929.76044,847.46521 L 1213.1223,847.46521 L 1213.1223,337.24502 C 1213.1223,245.61858 1118.6697,142.87433 1071.4484,142.87433 C 1024.217,142.87433 929.76044,245.61858 929.76044,337.24502 L 929.76044,847.46521 z "
     id="path595"
     sodipodi:nodetypes="ccsssc" />
  <path
     style="fill:#c50000;fill-opacity:1;fill-rule:evenodd;stroke:black;stroke-width:1.17083025pt;stroke-linecap:butt;stroke-linejoin:miter;stroke-opacity:1"
     d="M 1255.8753,484.25764 C 1227.2068,511.05865 1240.3715,508.5545 1220.1595,508.5545 C 1064.0213,508.5545 816.6622,589.54171 840.27486,605.73915 C 886.57154,649.62215 862.87891,630.44879 911.11184,663.80503 C 960.03846,697.64125 936.21189,676.96074 981.9498,727.21932 C 1028.7153,772.67528 1075.6567,816.81061 1123.6278,859.75969 C 1123.6278,875.34275 1122.938,862.87686 1141.3407,888.33664 C 1152.8162,888.33664 1146.6585,886.52366 1159.0538,897.29317 C 1159.0538,877.97857 1159.0538,858.66259 1159.0538,839.34798 C 1172.5683,788.96051 1166.7707,813.5042 1176.7566,765.86498 C 1199.3578,703.34622 1187.3426,732.2619 1212.1826,678.62699 C 1249.338,615.96422 1234.1439,648.68138 1258.8443,581.44231 C 1278.8063,541.03577 1285.1836,403.57213 1238.0224,435.66531 C 1199.9975,471.4105 1220.5294,451.3622 1176.7566,496.42732 C 1125.517,531.86669 1152.8162,511.91577 1095.1889,557.14684 C 1037.3819,590.27541 1067.1201,574.01763 1005.9143,605.73915 C 951.3569,622.96789 976.97175,610.09743 928.82281,643.39332 C 863.57264,656.82742 892.94303,647.72963 840.27486,667.88765 C 809.70896,677.8069 813.88831,599.18394 857.98385,678.62699 C 905.28314,743.51824 884.71928,707.65648 919.61747,786.2767 C 937.01658,810.14706 973.63308,860.38367 991.03621,884.25402 C 1035.1827,930.41214 1265.3116,933.59239 1265.3116,863.84231 C 1288.5225,780.30568 1270.6295,378.03829 1220.1595,378.03829 C 1170.7392,356.91207 1196.9187,362.77612 1141.3407,362.77612 C 1077.5159,350.00988 1110.7329,353.54395 1041.6202,353.54395 C 1015.8305,353.54395 990.03658,353.54395 964.2408,353.54395 C 899.33649,335.14131 1017.2398,175.92472 1052.7956,192.70364 C 1058.6934,192.70364 1064.601,192.70364 1070.4988,192.70364 C 1070.4988,213.65844 1070.4988,234.6132 1070.4988,255.56663 C 1049.1272,314.68709 1052.7956,286.32818 1052.7956,338.48064 C 1027.7557,394.40715 1035.0827,362.56493 1035.0827,435.66531 C 1012.0919,498.74498 1017.3697,466.14849 1017.3697,532.84997 C 994.38487,595.92964 999.66278,563.33316 999.66278,630.03465 C 979.31084,685.87201 981.9498,660.51782 981.9498,702.92384 C 970.14446,735.31871 958.33814,767.71361 946.53081,800.1085 C 946.53081,866.80999 951.81072,834.21351 928.82281,897.29317 C 928.82281,950.09427 833.64449,605.73915 911.11184,605.73915 C 988.70711,570.25316 945.57419,581.44231 1041.6202,581.44231 C 1122.9979,550.69446 1083.6935,557.14684 1159.0538,557.14684 C 1228.976,525.16747 1274.378,332.26004 1229.8856,362.77612 C 1205.9251,416.5811 1223.3183,399.75418 1176.7566,411.36984 C 1132.0044,472.7668 1156.2748,449.71789 1105.9248,484.25764 C 1014.371,547.06029 1126.6365,470.0487 1035.0827,532.84997 C 990.32648,594.24832 1014.6009,571.19806 964.2408,605.73915 C 913.64883,605.73915 939.69752,599.43764 886.88642,630.03465 C 837.89282,630.03465 835.71868,426.76913 893.40284,459.96216 C 957.51346,518.59853 927.49535,495.49615 981.9498,532.84997 C 1027.5057,595.33719 1003.6152,568.47449 1052.7956,614.81637 C 1096.0887,674.70344 1079.3652,644.2669 1105.9248,702.92384 C 1150.3772,746.05393 1133.6237,720.50774 1159.0538,775.81301 C 1201.277,817.48671 1184.2237,796.60461 1212.1826,835.26536 C 1231.3651,876.15187 1229.8856,858.03859 1229.8856,884.25402 C 1241.651,890.15921 1235.6334,886.10677 1247.5987,897.29317 C 1247.5987,912.53201 1244.8198,908.74835 1255.8753,908.74835 C 1257.4848,915.38449 1206.7648,265.59145 1187.4324,265.59145 C 1176.157,278.00936 1179.0059,280.06095 1166.6007,280.06095 C 1157.3144,292.14286 1159.0538,294.64701 1159.0538,280.06095 C 1153.146,280.06095 1147.2482,280.06095 1141.3407,280.06095 C 1141.3407,267.8803 1142.3303,275.97971 1123.6278,275.97971 C 1076.6663,262.2055 1100.287,265.59145 1052.7956,265.59145 C 1000.3664,244.71073 1029.6649,251.48537 964.2408,251.48537 C 914.7244,237.23941 875.69383,344.66697 875.69383,435.66531 C 902.26633,508.57781 893.40284,466.14849 893.40284,565.8277 C 893.40284,651.0772 887.39921,610.28119 911.11184,688.29938 C 911.11184,733.66758 911.11184,779.03715 911.11184,824.40537 C 936.74268,894.72868 1063.7015,956.7839 1116.0209,872.99769 C 1142.2803,801.51555 1129.6553,841.59981 1151.7265,751.51617 C 1176.3968,654.63732 1199.6776,557.37722 1223.1384,459.96216 C 1223.1384,385.91415 1220.5494,421.34255 1229.8856,353.54395 C 1229.8856,290.61103 1167.6403,276.66403 1141.3407,289.8883 C 1117.9499,295.79075 1093.8695,305.60988 1070.4988,314.18379 C 1034.3229,348.12286 1054.595,334.26364 1008.8931,353.54395 C 960.92811,365.94403 984.74867,357.83365 937.47139,378.03829 C 901.5906,390.33687 919.48051,382.31701 883.91059,402.53262 C 869.26238,418.28572 879.17346,411.36984 851.17855,411.36984 C 834.66108,430.96557 834.16028,476.46268 869.03248,520.92166 C 910.61702,562.7174 885.04315,537.70743 946.53081,594.40466 C 991.26609,656.27201 966.98072,633.04074 1017.3697,667.88765 C 1059.9929,707.62082 1100.7368,747.0331 1141.3407,790.35931 C 1207.0047,820.6313 1177.7862,803.31618 1229.8856,839.34798 C 1275.4876,882.66733 1276.7271,484.25764 1255.8753,484.25764 z "
     id="path596"
     sodipodi:nodetypes="ccccccccccccccccccccccccccccccccccccccccccccccccccccccccccccccccccccccccccccccccc" />
  <path
     style="opacity:0.7;fill:#0000b6;fill-opacity:1;fill-rule:evenodd;stroke:black;stroke-width:1.17083025pt;stroke-linecap:butt;stroke-linejoin:miter;stroke-opacity:1"
     d="M 960.81915,185.72329 C 960.81915,202.05238 960.81915,218.38148 960.81915,234.71193 C 937.56536,285.13645 949.39668,260.66133 925.40018,308.19494 C 906.27475,361.09893 934.1487,653.63895 969.61367,686.15041 C 1002.6956,746.52705 983.89902,723.6112 1023.1774,759.03959 C 1051.4363,797.49463 1036.0725,774.07135 1067.0801,831.92741 C 1092.5301,866.84427 1077.7558,850.04754 1112.4522,880.51974 C 1124.3475,896.71718 1246.0891,513.44759 1226.467,540.37341 C 1208.7541,564.66889 1191.051,588.96574 1173.3379,613.26123 C 1173.3379,634.03772 1174.9275,620.34168 1155.625,647.03161 C 1142.2803,669.82405 1127.6761,689.73246 1112.4522,710.44587 C 1106.4946,710.44587 1100.547,710.44587 1094.5992,710.44587 C 1078.0758,727.40582 1087.6619,716.53895 1067.0801,745.00892 C 1052.7657,750.24078 1058.4935,745.16665 1049.3671,759.03959 C 1021.8681,766.00486 1012.7715,769.50326 987.4676,769.50326 C 978.58113,769.50326 969.70164,769.50326 960.81915,769.50326 C 949.55461,756.49155 955.70719,759.03959 943.11016,759.03959 C 921.66665,700.20163 898.35688,430.38272 925.40018,467.48422 C 950.5772,536.56506 933.77585,503.27191 978.53115,564.66889 C 1002.6756,630.9041 985.39842,602.92645 1031.6642,647.03161 C 1064.1712,699.46793 1046.4883,674.93383 1084.7931,720.51462 C 1110.7528,745.3367 1136.9625,769.38258 1163.0322,793.99761 C 1198.9179,811.46083 1184.0438,798.01987 1208.7541,831.92741 C 1220.5594,831.92741 1232.3647,831.92741 1244.18,831.92741 C 1265.6215,773.09219 1246.9489,426.82672 1226.467,455.15958 C 1193.84,471.40912 1207.9543,459.00494 1183.8638,491.78106 C 1147.1283,507.87292 1164.9715,499.74745 1130.3051,516.07656 C 1085.6129,516.07656 1040.9305,516.07656 996.23414,516.07656 C 948.35909,483.23322 932.54935,353.24774 978.53115,321.70721 C 1024.517,290.1667 1000.7563,297.41036 1049.3671,297.41036 C 1072.9877,281.21292 1096.5984,265.01548 1120.2091,248.81803 C 1168.8298,248.81803 1145.0692,256.06169 1191.051,224.52254 C 1214.6617,208.3251 1203.7459,172.03821 1183.8638,210.21761 C 1183.8638,241.4194 1184.8536,219.95172 1173.3379,273.11489 C 1162.7323,323.89321 1166.011,296.02938 1166.011,357.18361 C 1166.011,381.67657 1166.011,406.17227 1166.011,430.66523 C 1153.4959,475.03782 1155.625,454.3244 1155.625,491.78106 C 1155.625,499.8791 1155.625,507.97851 1155.625,516.07656 C 1166.2508,516.07656 1162.2724,512.85516 1166.011,528.64255 C 1174.7076,542.57036 1173.3379,535.22385 1173.3379,549.05428 C 1176.7466,570.22164 1166.1508,564.66889 1183.8638,564.66889 C 1194.3897,617.13676 1179.1158,613.26123 1201.7168,613.26123 C 1211.3929,626.00551 1208.7541,618.07479 1208.7541,637.55807 C 1208.7541,651.80951 1210.9631,646.13197 1198.748,651.11423 C 1187.5024,651.11423 1192.7804,648.52093 1183.8638,661.85355 C 1144.9394,661.85355 1106.0047,661.85355 1067.0801,661.85355 C 1031.1943,628.37664 1051.5363,637.55807 1005.3246,637.55807 C 971.56391,606.94598 986.09815,623.6481 960.81915,588.96574 C 917.05148,588.96574 889.93921,320.30153 925.40018,297.41036 C 949.01284,297.41036 972.62348,297.41036 996.23414,297.41036 C 1007.6036,285.37096 1001.4961,287.78187 1013.9511,287.78187 C 1013.9511,270.73142 1014.191,277.01099 1005.3246,263.28753 C 988.27728,255.62558 998.48326,262.30835 978.53115,234.71193 C 959.10884,207.85197 960.81915,221.71807 960.81915,200.2257 C 947.92227,200.2257 954.02883,202.96025 943.11016,189.80589 C 943.11016,180.39681 943.89385,186.55709 933.90581,175.93021 C 925.16726,175.93021 936.07295,224.97785 960.81915,259.20628 C 960.81915,281.94934 957.72138,271.26214 978.53115,283.70062 C 1000.7363,331.35629 988.4872,311.07485 1013.9511,346.00269 C 1059.1933,408.06478 1004.1349,332.53432 1049.3671,394.5964 C 1071.7683,440.20323 1059.6432,420.37435 1084.7931,455.15958 C 1108.4338,504.0536 1096.6184,479.5387 1120.2091,528.64255 C 1120.2091,579.55117 1115.451,554.59468 1137.922,602.12556 C 1155.645,638.24651 1173.1681,674.46893 1191.051,710.44587 C 1216.6309,745.54241 1204.3258,725.03195 1226.467,773.58588 C 1245.8094,800.34026 1244.18,786.57977 1244.18,807.63192 C 1257.0749,820.24594 1257.6947,847.06888 1244.18,847.06888 C 1244.18,860.67166 1246.3991,856.22426 1234.4539,856.22426 C 1205.5753,868.87394 1217.7504,867.4806 1198.748,867.4806 C 1172.2086,879.71748 1147.5282,892.36715 1120.2091,896.05754 C 1078.8853,896.05754 995.43446,868.2856 1031.6642,831.92741 C 1057.2139,777.19537 1040.4906,802.76624 1084.7931,759.03959 C 1106.9743,710.78873 1094.7091,731.2937 1120.2091,696.02028 C 1142.7601,652.5199 1130.715,671.73576 1155.625,637.55807 C 1177.7262,588.24713 1165.4011,609.02089 1191.051,573.54861 C 1216.5609,525.76265 1204.2858,552.63359 1226.467,491.78106 C 1261.8831,443.18873 1261.8831,214.30023 1244.18,214.30023 C 1223.6182,197.96428 1233.2843,200.2257 1216.6009,200.2257 C 1210.6433,200.2257 1204.6957,200.2257 1198.748,200.2257 C 1186.7227,181.8162 1191.051,182.95172 1191.051,189.80589 C 1191.051,253.76325 1191.051,317.7206 1191.051,381.67657 C 1187.5723,365.18153 1198.3382,370.29955 1180.8852,370.29955 C 1172.4684,370.29955 1164.0517,370.29955 1155.625,370.29955 C 1141.5806,391.69729 1151.6865,380.04736 1120.2091,394.5964 C 1073.3776,415.30022 1097.0082,407.27488 1049.3671,418.89188 C 1003.3954,450.4324 1027.1558,443.18873 978.53115,443.18873 C 833.71746,443.18873 980.84022,147.19418 960.81915,185.72329 z "
     id="path597"
     sodipodi:nodetypes="ccccccccccccccccccccccccccccccccccccccccccccccccccccccccccccccccccccccccccccccccccccccc" />
  <path
     style="font-size:12px;fill:url(#linearGradient594);fill-rule:evenodd;stroke:url(#linearGradient602);stroke-width:21.95306969;stroke-dasharray:none"
     d="M 929.78643,847.46385 L 1213.1423,847.46385 L 1213.1423,337.24365 C 1213.1423,245.61721 1118.6897,142.87295 1071.4684,142.87295 C 1024.237,142.87295 929.78643,245.61721 929.78643,337.24365 L 929.78643,847.46385 z M 97.438459,847.46246 L 380.79072,847.46246 L 380.79072,337.24228 C 380.79072,245.61583 286.34011,142.87295 239.11479,142.87295 C 191.88948,142.87295 97.438459,245.61583 97.438459,337.24228 L 97.438459,847.46246 z M 0.2523237,-2.9027905 L 0.2523237,968.94537 L 1275.3377,968.94537 L 1275.3377,-2.9023637 L 0.2523237,-2.9027905 z M 522.46764,847.46246 L 805.8215,847.46246 L 805.8215,337.24228 C 805.8215,245.61583 711.36888,142.87157 664.14357,142.87157 C 616.91827,142.87157 522.46764,245.61583 522.46764,337.24228 L 522.46764,847.46246 z "
     id="path601"
     sodipodi:nodetypes="ccccccccccccccccccccccc" />
  <image
     y="57.873158"
     x="-25.527353"
     id="image1909"
     height="1776.4486"
     width="1456.1053"
     sodipodi:absref="C:\freeciv\wonders-sources\js_bachs_cathedral-raster.png"
     xlink:href="js_bachs_cathedral-raster.png" />
</svg>
