<?xml version="1.0" encoding="UTF-8" standalone="no"?>
<svg
   xmlns:dc="http://purl.org/dc/elements/1.1/"
   xmlns:cc="http://web.resource.org/cc/"
   xmlns:rdf="http://www.w3.org/1999/02/22-rdf-syntax-ns#"
   xmlns:svg="http://www.w3.org/2000/svg"
   xmlns="http://www.w3.org/2000/svg"
   xmlns:sodipodi="http://inkscape.sourceforge.net/DTD/sodipodi-0.dtd"
   xmlns:inkscape="http://www.inkscape.org/namespaces/inkscape"
   version="1.0"
   width="585.00000px"
   height="390.00000px"
   viewBox="0 0 468 323"
   preserveAspectRatio="xMidYMid meet"
   id="svg18299"
   sodipodi:version="0.32"
   inkscape:version="0.42"
   sodipodi:docname="assyria.svg"
   sodipodi:docbase="/home/daniel/ancientflags"
   inkscape:export-filename="/Users/daniel/Desktop/assyr.png"
   inkscape:export-xdpi="16.860001"
   inkscape:export-ydpi="16.860001">
  <defs
     id="defs18320" />
  <sodipodi:namedview
     inkscape:window-height="920"
     inkscape:window-width="1280"
     inkscape:pageshadow="2"
     inkscape:pageopacity="0.0"
     borderopacity="1.0"
     bordercolor="#666666"
     pagecolor="#ffffff"
     id="base"
     inkscape:zoom="2.3840127"
     inkscape:cx="473.36224"
     inkscape:cy="338.71523"
     inkscape:window-x="0"
     inkscape:window-y="27"
     inkscape:current-layer="svg18299"
     showguides="true"
     inkscape:guide-bbox="true" />
  <metadata
     id="metadata18301">
Created by potrace 1.7, written by Peter Selinger 2001-2005
<rdf:RDF>
  <cc:Work
     rdf:about="">
    <dc:format>image/svg+xml</dc:format>
    <dc:type
       rdf:resource="http://purl.org/dc/dcmitype/StillImage" />
    <dc:title>Assyria flag</dc:title>
    <dc:date>9/22/2005</dc:date>
    <dc:creator>
      <cc:Agent>
        <dc:title>Daniel Markstedt &lt;himasaram@spray.se&gt;</dc:title>
      </cc:Agent>
    </dc:creator>
    <dc:rights>
      <cc:Agent>
        <dc:title />
      </cc:Agent>
    </dc:rights>
    <cc:license
       rdf:resource="http://creativecommons.org/licenses/GPL/2.0/" />
    <dc:publisher>
      <cc:Agent>
        <dc:title>Freeciv</dc:title>
      </cc:Agent>
    </dc:publisher>
    <dc:description>Generated using potrace from a public domain image, then hand-edited.  See PR#14078.</dc:description>
  </cc:Work>
  <cc:License
     rdf:about="http://creativecommons.org/licenses/GPL/2.0/">
    <cc:permits
       rdf:resource="http://web.resource.org/cc/Reproduction" />
    <cc:permits
       rdf:resource="http://web.resource.org/cc/Distribution" />
    <cc:requires
       rdf:resource="http://web.resource.org/cc/Notice" />
    <cc:permits
       rdf:resource="http://web.resource.org/cc/DerivativeWorks" />
    <cc:requires
       rdf:resource="http://web.resource.org/cc/ShareAlike" />
    <cc:requires
       rdf:resource="http://web.resource.org/cc/SourceCode" />
  </cc:License>
</rdf:RDF>
</metadata>
  <rect
     style="fill:#ffffff;fill-opacity:1.0000000;stroke:none;stroke-width:0.0000000;stroke-miterlimit:4.0000000;stroke-dasharray:none;stroke-opacity:1.0000000"
     id="rect1658"
     width="484.50000"
     height="323.00000"
     x="-8.2500000"
     y="1.4210855e-14" />
  <path
     style="fill:#000077;fill-opacity:1.0000000;stroke:none"
     d="M 212.92607,175.70904 C 206.93612,178.11394 195.48796,189.38788 193.86570,192.15353 C 192.24338,194.91916 186.22645,201.07708 180.13874,203.45659 C 174.16212,205.79265 165.47781,212.08891 162.55358,216.94312 C 159.68652,221.70241 150.07448,225.25256 142.58706,228.37894 C 134.10128,231.98629 124.48208,241.21373 116.49551,249.14992 C 107.26099,258.28856 100.52230,262.61739 92.785254,264.54132 C 75.564154,268.62966 67.827085,273.68001 52.602640,290.03339 C 37.378195,306.38677 13.862912,318.88039 -1.6111345,321.52578 C -21.827231,325.13316 -1.0573423,323.87643 30.639488,323.87643 C 62.585899,323.87643 63.139040,324.89163 65.884456,318.87938 C 71.624824,306.85484 90.788620,286.90701 104.76515,281.37572 C 115.99635,277.04689 120.86314,272.71800 130.97119,259.73150 C 141.07924,246.74495 145.94607,242.65667 154.43186,239.53029 C 162.91765,236.40386 168.28364,231.23331 173.40007,223.65785 C 178.51648,216.08240 182.69891,211.89917 188.12533,209.22835 C 193.46632,206.59963 197.60947,202.37437 200.60442,197.20383 C 203.59942,192.03328 210.55138,180.71363 214.29506,178.78971"
     id="path1660"
     sodipodi:nodetypes="czzzccczcscczzzzzc" />
  <path
     style="fill:#ff0000;fill-opacity:1.0000000;stroke:none"
     d="M 213.41342,136.71986 C 209.70623,134.34176 201.19087,128.29790 197.85439,123.30393 C 194.51788,118.30994 190.96726,114.53007 185.99123,112.60248 C 181.08604,110.70233 176.84676,106.06275 172.15094,99.285217 C 167.45511,92.507674 165.84866,87.751446 157.32201,84.778841 C 148.79537,81.806236 141.75165,79.190403 132.36000,65.991976 C 122.96834,52.793608 116.29534,46.016009 104.92651,42.448883 C 93.557686,38.881756 80.242558,25.594167 69.337107,12.484963 C 58.431657,-0.62424044 60.192598,-0.59455883 60.192598,-0.59455883 L -8.2022303,-0.44508432 C -5.4836190,1.4573830 3.9092610,5.3299160 11.998631,6.5396938 C 20.117581,7.7539148 44.134447,23.424565 54.775778,34.382178 C 65.418712,45.341390 73.784853,52.977446 83.918884,55.290538 C 93.213694,57.412033 113.41302,66.095121 119.75544,75.266505 C 126.20111,84.587185 133.34858,86.919176 143.23453,90.961920 C 153.12048,95.004721 160.80884,100.13632 163.99502,104.27919 C 167.18119,108.42206 173.11356,114.89958 179.81253,117.35865 C 186.81927,119.93070 190.73967,125.98191 195.87718,130.43817 C 201.13862,135.00197 205.70467,136.85873 212.08967,138.83020"
     id="path1662"
     sodipodi:nodetypes="czzzzzzzcczzzzzzzzc" />
  <path
     style="fill:#000077;fill-opacity:1.0000000;stroke:none"
     id="path1664"
     d="M 94.138756,-1.4161057 C 94.138756,4.2913556 101.71359,15.576473 114.31817,21.759492 C 126.92275,27.942511 139.28014,41.497650 144.22312,51.009986 C 149.16609,60.522322 151.41780,63.372115 160.28777,69.559102 C 169.30479,75.848643 173.28987,80.607597 176.10528,87.632541 C 178.84510,94.468852 184.31136,101.50784 193.74765,107.85502 C 201.83658,113.29589 207.40642,124.88169 215.66934,135.55190 L 217.63792,133.52372 C 214.97914,125.49445 204.43733,107.04302 199.83157,103.56577 C 195.44663,100.25523 191.30492,92.870725 187.72131,84.904144 C 184.13768,76.937562 178.32964,67.062173 174.12811,64.089509 C 169.92658,61.116844 165.47789,54.814980 160.53492,42.448883 C 155.59195,30.082846 153.58141,26.033674 138.29156,12.722772 C 123.00171,-0.58813035 135.50973,-0.22878175 122.76539,-0.59455883 L 94.138756,-1.4161057 z "
     sodipodi:nodetypes="czzzzscczzzzzsc" />
  <path
     style="fill:#000077;fill-opacity:1.0000000;stroke:none"
     id="path1666"
     d="M 338.38471,13.611325 C 335.61833,20.685621 329.14971,22.544217 323.04833,28.906291 C 316.94932,35.265895 316.87305,40.329224 313.65872,47.784226 C 310.69073,54.667894 306.91583,59.290591 300.59435,62.714090 C 293.96013,66.306956 287.80514,72.645969 284.59518,83.960494 C 281.32836,95.475421 281.01274,97.474333 274.39138,102.27788 C 267.65328,107.16611 265.53237,114.17621 263.13728,120.00901 C 260.68902,125.97129 255.81986,133.15334 253.58911,135.25976 L 255.46957,136.54632 C 257.32850,134.20585 266.07515,130.37992 269.93576,123.01436 C 274.07264,115.12170 280.06886,107.89806 287.62618,104.00447 C 295.06205,100.17345 298.29363,89.632058 301.53608,83.991081 C 306.06037,76.120067 312.76658,73.002655 319.50085,70.485328 C 326.54085,67.853717 331.43347,62.739839 333.52606,54.206117 C 335.28934,47.015338 336.89060,42.146508 345.27369,37.308160 C 353.30564,32.672475 360.06415,32.092384 367.23245,21.840854 C 374.23853,11.821316 379.73939,8.2126005 382.66238,-0.019771029 L 346.78620,-0.31077835 C 342.78842,3.1837467 341.19465,6.4256184 338.38471,13.611325 z "
     sodipodi:nodetypes="czszzzzccszszszzccz" />
  <path
     style="fill:#ff0000;fill-opacity:1.0000000;stroke:none"
     d="M 258.71896,138.74094 C 263.92403,136.63452 280.25962,129.23742 283.35788,125.49270 C 286.45610,121.74798 293.14839,116.71606 298.22948,114.25851 C 303.31055,111.80103 308.87912,106.73062 313.10102,101.24420 C 317.42830,95.620802 325.24618,92.141199 334.16909,88.279389 C 343.09206,84.417637 350.89966,80.321780 359.45079,71.662092 C 368.00197,63.002404 382.10912,57.052258 392.91188,53.172431 C 403.78456,49.267471 405.42873,49.076632 422.65502,32.108267 C 439.88130,15.139959 445.78221,10.175207 465.88982,4.0037262 C 486.05970,-2.1868794 476.93632,-0.65817798 446.94529,-0.65817798 L 416.45853,-0.65817798 C 416.45853,-0.65817798 421.01294,-3.9640286 411.74920,7.5334769 C 407.11732,13.282230 401.39864,22.416306 393.40049,28.955123 C 385.40235,35.493998 375.12479,39.437615 371.10023,41.704195 C 362.62384,46.478108 357.00130,51.637198 347.05782,61.598131 C 337.33763,71.335396 331.72760,78.090870 326.48546,80.321780 C 320.39533,82.913570 307.95006,92.645150 303.18663,99.279533 C 298.49703,105.81106 295.29378,107.62302 292.52866,109.34349 C 287.80078,112.28521 283.92776,116.06953 280.70561,120.04837 C 273.51765,129.17615 263.33480,132.71955 256.39475,137.16641"
     id="path1668"
     sodipodi:nodetypes="czzzzzzzzcczszzzzscc" />
  <path
     style="fill:#000077;fill-opacity:1.0000000;stroke:none"
     d="M 258.32411,180.18873 C 262.02897,181.84659 275.50817,193.24177 278.10158,197.86012 C 280.69498,202.47846 286.49928,208.16254 290.94512,210.64937 C 295.39096,213.13620 301.44223,218.82035 305.51758,225.09655 C 309.59293,231.37276 314.90321,236.22791 323.79487,239.78051 C 332.68653,243.33310 337.99685,247.35935 347.01202,259.43811 C 356.02719,271.51687 360.34950,275.42475 375.16895,282.41147 C 389.98840,289.39819 406.83041,307.64157 416.95703,323.98339 L 453.59596,324.18345 C 488.53496,325.21825 472.22291,320.39529 457.71727,314.45510 C 443.21163,308.51491 445.31432,309.05577 429.01294,293.06918 C 412.71156,277.08259 397.67095,267.00098 390.23538,265.35907 C 382.79981,263.71716 364.79536,254.22770 358.37359,246.64886 C 351.95182,239.07002 345.28308,235.16216 337.87336,232.20169 C 330.46364,229.24122 324.91772,224.24266 313.31428,215.20541 C 301.71085,206.16816 292.70947,203.62553 286.40353,195.59930 C 280.09759,187.57306 262.48013,178.89626 259.88670,178.18574"
     id="path1670"
     sodipodi:nodetypes="czzzzzzcczzzzzzzc" />
  <path
     style="fill:#ff0000;fill-opacity:1.0000000;stroke:none"
     id="path1672"
     d="M 216.35833,180.59386 C 213.05977,186.51128 203.19033,203.12314 195.11363,212.11431 C 187.39777,220.70379 182.88412,227.02473 179.39001,233.27748 C 175.89586,239.53029 167.90924,248.54870 161.91928,253.47875 C 155.92931,258.40880 148.19234,267.42720 144.94777,273.68002 C 137.95950,287.14749 127.01954,293.45141 115.99635,301.09601 C 104.97316,308.74060 99.681880,312.73860 95.530672,323.87643 L 109.75677,323.87643 C 123.23419,323.87643 123.90873,323.62097 137.88527,311.71666 C 151.86182,299.81234 157.05244,290.75485 160.92097,280.65424 C 164.78950,270.55364 170.40506,262.37690 175.39669,257.56709 C 180.38832,252.75728 186.75265,242.89712 190.12201,235.68238 C 193.49138,228.46763 198.88741,222.30791 203.56470,215.42538 C 208.24200,208.54285 214.37595,193.19098 218.59104,182.95736 L 216.35833,180.59386 z "
     sodipodi:nodetypes="czszszcczzzzzcc" />
  <path
     style="fill:#ff0000;fill-opacity:1.0000000;stroke:none"
     id="path1674"
     d="M 267.48098,200.46534 C 270.92106,208.36265 275.28165,214.49783 279.83055,219.17560 C 284.05891,223.52376 286.99327,230.07011 290.45115,237.64897 C 293.90903,245.22782 300.08379,254.58295 305.02360,258.96445 C 309.96341,263.34595 315.02670,270.56955 319.10204,281.22727 C 323.17737,291.88498 327.76679,299.17903 341.59826,310.90254 C 355.42973,322.62605 356.15064,323.79299 369.73515,323.79299 L 385.42155,323.79299 C 385.42155,323.79299 374.05750,306.68742 363.56039,301.35856 C 353.06329,296.02966 339.97276,283.95091 334.90944,274.35897 C 329.84613,264.76703 324.28886,259.67495 318.36108,254.93819 C 312.43330,250.20143 304.40614,240.96469 300.57777,234.33322 C 296.74940,227.70175 289.58664,218.58354 284.27634,213.96517 C 278.96604,209.34680 277.38915,207.73055 274.64374,202.83372 C 271.89832,197.93689 260.98751,184.75391 257.03565,180.96444 L 255.55283,182.36274 C 259.52887,188.39692 264.04090,192.56803 267.48098,200.46534 z "
     sodipodi:nodetypes="czzzzzcczzzzzzccz" />
  <g
     id="g1693"
     transform="matrix(8.757543,0.000000,0.000000,8.757543,-3013.481,-1354.496)">
    <path
       sodipodi:nodetypes="ccccccccccccc"
       id="path1676"
       d="M 369.26063,175.28919 L 368.55832,174.60089 L 360.77731,172.69227 L 368.77396,170.68177 L 369.29823,170.14027 L 371.08312,162.37527 L 372.85334,170.10582 L 373.47015,170.64974 L 380.86466,172.68208 L 373.56767,174.68168 L 373.06071,175.24139 L 371.17300,183.83972 L 369.26063,175.28919 z "
       style="fill:#0099ff;fill-opacity:1.0000000;stroke:none" />
    <path
       sodipodi:type="arc"
       style="fill:#ffffff;fill-opacity:1.0000000;stroke:none;stroke-width:0.0000000;stroke-linecap:butt;stroke-linejoin:miter;stroke-miterlimit:4.0000000;stroke-dasharray:none;stroke-opacity:1.0000000"
       id="path6895"
       sodipodi:cx="241.70859"
       sodipodi:cy="165.95969"
       sodipodi:rx="14.404146"
       sodipodi:ry="14.404146"
       d="M 227.34458,164.88512 A 14.404146,14.404146 0 1 1 227.34436,164.88801"
       sodipodi:start="3.2162633"
       sodipodi:end="9.4992472"
       sodipodi:open="true"
       transform="matrix(0.190366,0.000000,0.000000,0.194243,325.1091,140.5417)" />
    <path
       transform="matrix(0.174821,0.000000,0.000000,0.178381,328.8535,143.1741)"
       sodipodi:open="true"
       sodipodi:end="9.4992472"
       sodipodi:start="3.2162633"
       d="M 227.34458,164.88512 A 14.404146,14.404146 0 1 1 227.34436,164.88801"
       sodipodi:ry="14.404146"
       sodipodi:rx="14.404146"
       sodipodi:cy="165.95969"
       sodipodi:cx="241.70859"
       id="path1679"
       style="fill:#ff6633;fill-opacity:1.0000000;stroke:none;stroke-width:0.0000000;stroke-linecap:butt;stroke-linejoin:miter;stroke-miterlimit:4.0000000;stroke-dasharray:none;stroke-opacity:1.0000000"
       sodipodi:type="arc" />
  </g>
</svg>
