<?xml version="1.0" encoding="UTF-8" standalone="no"?>
<!-- Created with Sodipodi ("http://www.sodipodi.com/") -->
<!-- /Creative Commons Public Domain -->
<!--
<rdf:RDF xmlns="http://web.resource.org/cc/"
     xmlns:dc="http://purl.org/dc/elements/1.1/"
     xmlns:rdf="http://www.w3.org/1999/02/22-rdf-syntax-ns#">
<Work rdf:about="">
    <dc:title>New Zealand, Australia, United Kingdom, United States, 
Bosnia and Herzegovina, Azerbaijan, Armenia, Bahamas, Belgium, Benin, 
Bulgaria, Estonia, Finland, Gabon, Gambia, Germany, Greece, Greenland, 
Guinea, Honduras, Israel, Jamaica, Jordan, and Romania Flags</dc:title>
    <dc:rights><Agent>
       <dc:title>Daniel McRae</dc:title>
    </Agent></dc:rights>
    <license rdf:resource="http://web.resource.org/cc/PublicDomain" />
</Work>

<License rdf:about="http://web.resource.org/cc/PublicDomain">
    <permits rdf:resource="http://web.resource.org/cc/Reproduction" />
    <permits rdf:resource="http://web.resource.org/cc/Distribution" />
    <permits rdf:resource="http://web.resource.org/cc/DerivativeWorks" />
</License>
</rdf:RDF>
-->
<svg
   xmlns:dc="http://purl.org/dc/elements/1.1/"
   xmlns:cc="http://web.resource.org/cc/"
   xmlns:rdf="http://www.w3.org/1999/02/22-rdf-syntax-ns#"
   xmlns:svg="http://www.w3.org/2000/svg"
   xmlns="http://www.w3.org/2000/svg"
   xmlns:sodipodi="http://inkscape.sourceforge.net/DTD/sodipodi-0.dtd"
   xmlns:inkscape="http://www.inkscape.org/namespaces/inkscape"
   version="1.0"
   x="0"
   y="0"
   width="750.00000px"
   height="500"
   id="svg618"
   sodipodi:version="0.32"
   inkscape:version="0.42"
   sodipodi:docname="azerbaijan.svg"
   sodipodi:docbase="/Users/daniel/Desktop">
  <metadata
     id="metadata5326">
    <rdf:RDF>
      <cc:Work
         rdf:about="">
        <dc:format>image/svg+xml</dc:format>
        <dc:type
           rdf:resource="http://purl.org/dc/dcmitype/StillImage" />
      </cc:Work>
    </rdf:RDF>
  </metadata>
  <sodipodi:namedview
     inkscape:window-height="507"
     inkscape:window-width="701"
     inkscape:pageshadow="2"
     inkscape:pageopacity="0.0"
     borderopacity="1.0"
     bordercolor="#666666"
     pagecolor="#ffffff"
     id="base"
     inkscape:zoom="0.60700000"
     inkscape:cx="500.00000"
     inkscape:cy="239.71109"
     inkscape:window-x="56"
     inkscape:window-y="140"
     inkscape:current-layer="svg618" />
  <defs
     id="defs620" />
  <g
     style="font-size:12.000000px"
     id="g646"
     transform="scale(6.250000,8.333333)">
    <rect
       id="rect622"
       style="fill:#cc3333;fill-rule:evenodd;stroke-width:1.0000000pt"
       y="20.000000"
       x="0.0000000"
       height="20.000000"
       width="120.00000" />
    <rect
       id="rect621"
       style="fill:#0099cc;fill-rule:evenodd;stroke-width:1.0000000pt"
       y="0.0000000"
       x="0.0000000"
       height="20.000000"
       width="120.00000" />
    <rect
       id="rect623"
       style="fill:#009933;fill-rule:evenodd;stroke-width:1.0000000pt"
       y="40.000000"
       x="0.0000000"
       height="20.000000"
       width="120.00000" />
  </g>
  <g
     style="font-size:12.000000px"
     id="g575"
     transform="matrix(8.333333,0.000000,0.000000,8.333333,-124.9998,0.000000)">
    <g
       id="g638">
      <path
         id="path637"
         style="fill:#ffffff;stroke-width:1.0000000pt"
         d="M 66.000000,30.000000 C 66.004000,34.968000 61.975200,39.000000 57.007200,39.000000 C 52.039200,39.007900 48.004000,34.982300 48.000000,30.014300 C 47.988100,25.046300 52.010500,21.007900 56.978500,21.000000 C 61.946500,20.984200 65.988100,25.003300 66.000000,29.971300 C 66.000000,29.981400 66.000000,29.989900 66.000000,30.000000 z " />
      <path
         id="path636"
         style="fill:#cc3333;stroke-width:1.0000000pt"
         d="M 66.500000,30.000000 C 66.503300,34.084800 63.190700,37.400000 59.105900,37.400000 C 55.021100,37.406500 51.703300,34.096600 51.700000,30.011800 C 51.690200,25.927000 54.997500,22.606500 59.082300,22.600000 C 63.167100,22.587000 66.490200,25.891600 66.500000,29.976400 C 66.500000,29.984700 66.500000,29.991700 66.500000,30.000000 z " />
    </g>
    <polygon
       id="polygon574"
       style="fill:#ffffff;fill-rule:evenodd;stroke-width:1.0000000pt"
       points="67.000000,25.000000 67.956700,27.690300 70.535500,26.464500 69.309700,29.043300 72.000000,30.000000 69.309700,30.956700 70.535500,33.535500 67.956700,32.309700 67.000000,35.000000 66.043300,32.309700 63.464500,33.535500 64.690300,30.956700 62.000000,30.000000 64.690300,29.043300 63.464500,26.464500 66.043300,27.690300 67.000000,25.000000 " />
  </g>
</svg>
