<?xml version="1.0" encoding="UTF-8" standalone="no"?>
<!-- Created with Sodipodi ("http://www.sodipodi.com/") -->
<!-- /Creative Commons Public Domain -->
<!--
<rdf:RDF xmlns="http://web.resource.org/cc/"
     xmlns:dc="http://purl.org/dc/elements/1.1/"
     xmlns:rdf="http://www.w3.org/1999/02/22-rdf-syntax-ns#">
<Work rdf:about="">
    <dc:title>New Zealand, Australia, United Kingdom, United States, 
Bosnia and Herzegovina, Azerbaijan, Armenia, Bahamas, Belgium, Benin, 
Bulgaria, Estonia, Finland, Gabon, Gambia, Germany, Greece, Greenland, 
Guinea, Honduras, Israel, Jamaica, Jordan, and Romania Flags</dc:title>
    <dc:rights><Agent>
       <dc:title>Daniel McRae</dc:title>
    </Agent></dc:rights>
    <license rdf:resource="http://web.resource.org/cc/PublicDomain" />
</Work>

<License rdf:about="http://web.resource.org/cc/PublicDomain">
    <permits rdf:resource="http://web.resource.org/cc/Reproduction" />
    <permits rdf:resource="http://web.resource.org/cc/Distribution" />
    <permits rdf:resource="http://web.resource.org/cc/DerivativeWorks" />
</License>
</rdf:RDF>
-->
<svg
   xmlns:dc="http://purl.org/dc/elements/1.1/"
   xmlns:cc="http://web.resource.org/cc/"
   xmlns:rdf="http://www.w3.org/1999/02/22-rdf-syntax-ns#"
   xmlns:svg="http://www.w3.org/2000/svg"
   xmlns="http://www.w3.org/2000/svg"
   xmlns:sodipodi="http://inkscape.sourceforge.net/DTD/sodipodi-0.dtd"
   xmlns:inkscape="http://www.inkscape.org/namespaces/inkscape"
   version="1.0"
   x="0"
   y="0"
   width="600.00000pt"
   height="500"
   id="svg609"
   sodipodi:version="0.32"
   inkscape:version="0.42"
   sodipodi:docname="bosnia.svg"
   sodipodi:docbase="/Users/daniel/flags">
  <metadata
     id="metadata3073">
    <rdf:RDF>
      <cc:Work
         rdf:about="">
        <dc:format>image/svg+xml</dc:format>
        <dc:type
           rdf:resource="http://purl.org/dc/dcmitype/StillImage" />
      </cc:Work>
    </rdf:RDF>
  </metadata>
  <sodipodi:namedview
     inkscape:window-height="507"
     inkscape:window-width="701"
     inkscape:pageshadow="2"
     inkscape:pageopacity="0.0"
     borderopacity="1.0"
     bordercolor="#666666"
     pagecolor="#ffffff"
     id="base"
     inkscape:zoom="0.60700000"
     inkscape:cx="498.84679"
     inkscape:cy="244.85554"
     inkscape:window-x="24"
     inkscape:window-y="88"
     inkscape:current-layer="svg609" />
  <defs
     id="defs611" />
  <rect
     width="750.00000"
     height="500.00000"
     x="0.0000000"
     y="0.0000000"
     style="font-size:12.000000px;fill:#000099;fill-rule:evenodd;stroke-width:1.0000000pt"
     id="rect614" />
  <path
     d="M 167.44612,0.0000000 L 667.44612,500.00000 L 667.44612,0.0000000 L 167.44612,0.0000000 z "
     style="font-size:12.000000px;fill:#ffcc00;fill-rule:evenodd;stroke-width:1.0000000pt"
     id="path615" />
  <g
     style="font-size:12.000000px"
     id="g629"
     transform="matrix(0.500000,0.000000,0.000000,0.500000,-89.82500,1.380768)">
    <polygon
       id="polygon621"
       style="fill:#ffffff;fill-rule:evenodd;stroke-width:1.0000000pt"
       points="326.00000,-109.00000 347.32900,-43.356600 416.35000,-43.356600 360.51100,-2.7867700 381.84000,62.856600 326.00000,22.286800 270.16000,62.856600 291.48900,-2.7867700 235.65000,-43.356600 304.67100,-43.356600 326.00000,-109.00000 " />
    <polygon
       id="polygon622"
       style="fill:#ffffff;fill-rule:evenodd;stroke-width:1.0000000pt"
       transform="translate(125.0000,125.0000)"
       points="326.00000,-109.00000 347.32900,-43.356600 416.35000,-43.356600 360.51100,-2.7867700 381.84000,62.856600 326.00000,22.286800 270.16000,62.856600 291.48900,-2.7867700 235.65000,-43.356600 304.67100,-43.356600 326.00000,-109.00000 " />
    <polygon
       id="polygon616"
       style="fill:#ffffff;fill-rule:evenodd;stroke-width:1.0000000pt"
       transform="translate(250.0000,250.0000)"
       points="326.00000,-109.00000 347.32900,-43.356600 416.35000,-43.356600 360.51100,-2.7867700 381.84000,62.856600 326.00000,22.286800 270.16000,62.856600 291.48900,-2.7867700 235.65000,-43.356600 304.67100,-43.356600 326.00000,-109.00000 " />
    <polygon
       id="polygon623"
       style="fill:#ffffff;fill-rule:evenodd;stroke-width:1.0000000pt"
       transform="translate(375.0000,375.0000)"
       points="326.00000,-109.00000 347.32900,-43.356600 416.35000,-43.356600 360.51100,-2.7867700 381.84000,62.856600 326.00000,22.286800 270.16000,62.856600 291.48900,-2.7867700 235.65000,-43.356600 304.67100,-43.356600 326.00000,-109.00000 " />
    <polygon
       id="polygon624"
       style="fill:#ffffff;fill-rule:evenodd;stroke-width:1.0000000pt"
       transform="translate(500.0000,500.0000)"
       points="326.00000,-109.00000 347.32900,-43.356600 416.35000,-43.356600 360.51100,-2.7867700 381.84000,62.856600 326.00000,22.286800 270.16000,62.856600 291.48900,-2.7867700 235.65000,-43.356600 304.67100,-43.356600 326.00000,-109.00000 " />
    <polygon
       id="polygon625"
       style="fill:#ffffff;fill-rule:evenodd;stroke-width:1.0000000pt"
       transform="translate(625.0000,625.0000)"
       points="326.00000,-109.00000 347.32900,-43.356600 416.35000,-43.356600 360.51100,-2.7867700 381.84000,62.856600 326.00000,22.286800 270.16000,62.856600 291.48900,-2.7867700 235.65000,-43.356600 304.67100,-43.356600 326.00000,-109.00000 " />
    <polygon
       id="polygon626"
       style="fill:#ffffff;fill-rule:evenodd;stroke-width:1.0000000pt"
       transform="translate(750.0000,750.0000)"
       points="326.00000,-109.00000 347.32900,-43.356600 416.35000,-43.356600 360.51100,-2.7867700 381.84000,62.856600 326.00000,22.286800 270.16000,62.856600 291.48900,-2.7867700 235.65000,-43.356600 304.67100,-43.356600 326.00000,-109.00000 " />
    <polygon
       id="polygon627"
       style="fill:#ffffff;fill-rule:evenodd;stroke-width:1.0000000pt"
       transform="translate(875.0000,875.0000)"
       points="326.00000,-109.00000 347.32900,-43.356600 416.35000,-43.356600 360.51100,-2.7867700 381.84000,62.856600 326.00000,22.286800 270.16000,62.856600 291.48900,-2.7867700 235.65000,-43.356600 304.67100,-43.356600 326.00000,-109.00000 " />
    <polygon
       id="polygon628"
       style="fill:#ffffff;fill-rule:evenodd;stroke-width:1.0000000pt"
       transform="translate(1000.000,1000.000)"
       points="326.00000,-109.00000 347.32900,-43.356600 416.35000,-43.356600 360.51100,-2.7867700 381.84000,62.856600 326.00000,22.286800 270.16000,62.856600 291.48900,-2.7867700 235.65000,-43.356600 304.67100,-43.356600 326.00000,-109.00000 " />
  </g>
</svg>
