<?xml version="1.0" encoding="UTF-8" standalone="no"?>
<!-- Created with Inkscape (http://www.inkscape.org/) -->
<svg
   xmlns:dc="http://purl.org/dc/elements/1.1/"
   xmlns:cc="http://web.resource.org/cc/"
   xmlns:rdf="http://www.w3.org/1999/02/22-rdf-syntax-ns#"
   xmlns:svg="http://www.w3.org/2000/svg"
   xmlns="http://www.w3.org/2000/svg"
   xmlns:sodipodi="http://sodipodi.sourceforge.net/DTD/sodipodi-0.dtd"
   xmlns:inkscape="http://www.inkscape.org/namespaces/inkscape"
   version="1.0"
   width="900"
   height="600"
   id="svg14595"
   sodipodi:version="0.32"
   inkscape:version="0.44"
   sodipodi:docname="Flag of Brittany (traditional).svg"
   sodipodi:docbase="C:\Documents and Settings\Owner\Desktop\SVG work\Flags">
  <metadata
     id="metadata60">
    <rdf:RDF>
      <cc:Work
         rdf:about="">
        <dc:format>image/svg+xml</dc:format>
        <dc:type
           rdf:resource="http://purl.org/dc/dcmitype/StillImage" />
      </cc:Work>
    </rdf:RDF>
  </metadata>
  <sodipodi:namedview
     inkscape:window-height="689"
     inkscape:window-width="1015"
     inkscape:pageshadow="2"
     inkscape:pageopacity="0.0"
     guidetolerance="10.0"
     gridtolerance="10.0"
     objecttolerance="10.0"
     borderopacity="1.0"
     bordercolor="#666666"
     pagecolor="#ffffff"
     id="base"
     inkscape:zoom="0.35355339"
     inkscape:cx="803.05497"
     inkscape:cy="497.98486"
     inkscape:window-x="96"
     inkscape:window-y="-13"
     inkscape:current-layer="svg14595" />
  <defs
     id="defs14597" />
  <rect
     style="fill:white;fill-opacity:1;fill-rule:evenodd;stroke:none;stroke-width:1px;stroke-linecap:butt;stroke-linejoin:miter;stroke-opacity:1"
     id="rect1924"
     width="900"
     height="600"
     x="3.0456544e-005"
     y="0" />
  <rect
     id="rect595"
     style="font-size:12px;fill-rule:evenodd;stroke-width:1pt"
     y="4.3505861e-005"
     x="408"
     height="66.666656"
     width="492.00003" />
  <rect
     id="rect596"
     style="font-size:12px;fill-rule:evenodd;stroke-width:1pt"
     y="133.33336"
     x="407.99994"
     height="66.666656"
     width="491.99991" />
  <rect
     id="rect597"
     style="font-size:12px;fill-rule:evenodd;stroke-width:1pt"
     y="266.66669"
     x="0"
     height="66.666656"
     width="899.99976" />
  <rect
     id="rect598"
     style="font-size:12px;fill-rule:evenodd;stroke-width:1pt"
     y="400"
     x="0"
     height="66.666656"
     width="899.99976" />
  <rect
     id="rect599"
     style="font-size:12px;fill-rule:evenodd;stroke-width:1pt"
     y="533.33337"
     x="0"
     height="66.666656"
     width="899.99976" />
  <path
     id="path630"
     style="font-size:12px;fill:black;fill-opacity:1;fill-rule:evenodd;stroke:black;stroke-width:0"
     d="M 255.00012,260.61292 C 252.87882,258.49163 248.99979,243.53311 248.99979,243.53311 C 248.99979,243.53311 239.17947,248.74733 238.15992,247.45318 C 237.14037,246.15902 241.54077,242.05816 244.92161,238.35648 C 246.61203,236.50564 247.03245,236.77148 247.03027,235.80668 C 247.02809,234.84188 246.6033,232.64646 246.6033,232.64646 C 246.6033,232.64646 232.40708,240.32559 231.34002,238.15974 C 230.27296,235.99389 238.11335,233.07974 244.02837,222.28972 C 249.94339,211.49969 255.00012,194.99965 255.00012,194.99965 C 255.00012,194.99965 260.05683,211.49969 265.97185,222.28972 C 271.88688,233.07974 279.72727,235.99389 278.66021,238.15974 C 277.59315,240.32559 263.39693,232.64646 263.39693,232.64646 C 263.39693,232.64646 262.97214,234.84188 262.96996,235.80668 C 262.96778,236.77148 263.3882,236.50564 265.07862,238.35648 C 268.45946,242.05817 272.86007,246.15902 271.84031,247.45318 C 270.82055,248.74733 260.99959,243.53311 260.99959,243.53311 C 260.99959,243.53311 257.1214,258.49163 255.00012,260.61292 z " />
  <path
     id="rect2012"
     style="fill:black;fill-opacity:1;fill-rule:evenodd;stroke:none;stroke-width:1px;stroke-linecap:butt;stroke-linejoin:miter;stroke-opacity:1"
     d="M 255.0033,195.00198 C 255.0033,195.00198 259.99161,189.68484 264.97992,189.68484 C 269.96823,189.68484 274.95655,195.00199 274.95655,195.00199 C 274.95655,195.00199 269.96823,200.31914 264.97993,200.31914 C 259.99161,200.31914 255.0033,195.00198 255.0033,195.00198 z " />
  <path
     id="path2902"
     style="fill:black;fill-opacity:1;fill-rule:evenodd;stroke:none;stroke-width:1px;stroke-linecap:butt;stroke-linejoin:miter;stroke-opacity:1"
     d="M 254.99837,175.04161 C 254.99837,175.04161 260.31551,180.02991 260.31551,185.01823 C 260.31551,190.00654 254.99836,194.99485 254.99836,194.99485 C 254.99836,194.99485 249.68122,190.00654 249.68122,185.01824 C 249.68122,180.02991 254.99837,175.04161 254.99837,175.04161 z " />
  <path
     id="path2906"
     style="fill:black;fill-opacity:1;fill-rule:evenodd;stroke:none;stroke-width:1px;stroke-linecap:butt;stroke-linejoin:miter;stroke-opacity:1"
     d="M 235.04198,195.00102 C 235.04198,195.00102 240.03028,189.68388 245.01859,189.68388 C 250.00691,189.68388 254.99522,195.00102 254.99522,195.00102 C 254.99522,195.00102 250.00691,200.31816 245.0186,200.31816 C 240.03028,200.31816 235.04198,195.00102 235.04198,195.00102 z " />
  <path
     id="path4703"
     style="font-size:12px;fill:black;fill-opacity:1;fill-rule:evenodd;stroke:black;stroke-width:0"
     d="M 153.24664,260.51578 C 151.12535,258.3945 147.24631,243.43598 147.24631,243.43598 C 147.24631,243.43598 137.42599,248.6502 136.40644,247.35604 C 135.38689,246.06189 139.78729,241.96103 143.16813,238.25936 C 144.85855,236.40851 145.27897,236.67434 145.2768,235.70955 C 145.27461,234.74475 144.84982,232.54933 144.84982,232.54933 C 144.84982,232.54933 130.6536,240.22847 129.58654,238.06262 C 128.51948,235.89677 136.35987,232.98261 142.27489,222.19259 C 148.18992,211.40256 153.24664,194.90252 153.24664,194.90252 C 153.24664,194.90252 158.30335,211.40256 164.21838,222.19259 C 170.1334,232.98261 177.97379,235.89677 176.90673,238.06262 C 175.83967,240.22847 161.64345,232.54933 161.64345,232.54933 C 161.64345,232.54933 161.21866,234.74475 161.21648,235.70955 C 161.2143,236.67434 161.63472,236.40851 163.32514,238.25936 C 166.70598,241.96104 171.10659,246.06189 170.08683,247.35604 C 169.06707,248.6502 159.24611,243.43598 159.24611,243.43598 C 159.24611,243.43598 155.36792,258.3945 153.24664,260.51578 z " />
  <path
     id="path4705"
     style="fill:black;fill-opacity:1;fill-rule:evenodd;stroke:none;stroke-width:1px;stroke-linecap:butt;stroke-linejoin:miter;stroke-opacity:1"
     d="M 153.24982,194.90485 C 153.24982,194.90485 158.23813,189.58772 163.22644,189.58772 C 168.21475,189.58772 173.20307,194.90486 173.20307,194.90486 C 173.20307,194.90486 168.21475,200.22201 163.22645,200.22201 C 158.23813,200.22201 153.24982,194.90485 153.24982,194.90485 z " />
  <path
     id="path4707"
     style="fill:black;fill-opacity:1;fill-rule:evenodd;stroke:none;stroke-width:1px;stroke-linecap:butt;stroke-linejoin:miter;stroke-opacity:1"
     d="M 153.24489,174.94448 C 153.24489,174.94448 158.56203,179.93279 158.56203,184.9211 C 158.56203,189.90941 153.24488,194.89772 153.24488,194.89772 C 153.24488,194.89772 147.92775,189.90941 147.92775,184.92111 C 147.92775,179.93279 153.24489,174.94448 153.24489,174.94448 z " />
  <path
     id="path4709"
     style="fill:black;fill-opacity:1;fill-rule:evenodd;stroke:none;stroke-width:1px;stroke-linecap:butt;stroke-linejoin:miter;stroke-opacity:1"
     d="M 133.2885,194.90389 C 133.2885,194.90389 138.2768,189.58675 143.26512,189.58675 C 148.25343,189.58675 153.24174,194.90389 153.24174,194.90389 C 153.24174,194.90389 148.25343,200.22104 143.26512,200.22104 C 138.2768,200.22104 133.2885,194.90389 133.2885,194.90389 z " />
  <path
     id="path4713"
     style="font-size:12px;fill:black;fill-opacity:1;fill-rule:evenodd;stroke:black;stroke-width:0"
     d="M 51.22332,260.51578 C 49.10203,258.3945 45.22299,243.43598 45.22299,243.43598 C 45.22299,243.43598 35.40267,248.6502 34.38312,247.35604 C 33.36358,246.06189 37.76397,241.96103 41.14481,238.25936 C 42.83524,236.40851 43.25566,236.67434 43.25348,235.70955 C 43.2513,234.74475 42.82651,232.54933 42.82651,232.54933 C 42.82651,232.54933 28.63029,240.22847 27.56323,238.06262 C 26.49616,235.89677 34.33656,232.98261 40.25158,222.19259 C 46.16661,211.40256 51.22332,194.90252 51.22332,194.90252 C 51.22332,194.90252 56.28003,211.40256 62.19506,222.19259 C 68.11008,232.98261 75.95048,235.89677 74.88342,238.06262 C 73.81635,240.22847 59.62014,232.54933 59.62014,232.54933 C 59.62014,232.54933 59.19535,234.74475 59.19317,235.70955 C 59.19098,236.67434 59.61141,236.40851 61.30183,238.25936 C 64.68267,241.96104 69.08328,246.06189 68.06352,247.35604 C 67.04376,248.6502 57.2228,243.43598 57.2228,243.43598 C 57.2228,243.43598 53.34461,258.3945 51.22332,260.51578 z " />
  <path
     id="path4715"
     style="fill:black;fill-opacity:1;fill-rule:evenodd;stroke:none;stroke-width:1px;stroke-linecap:butt;stroke-linejoin:miter;stroke-opacity:1"
     d="M 51.22652,194.90485 C 51.22652,194.90485 56.21482,189.58772 61.20313,189.58772 C 66.19145,189.58772 71.17976,194.90486 71.17976,194.90486 C 71.17976,194.90486 66.19145,200.22201 61.20314,200.22201 C 56.21482,200.22201 51.22652,194.90485 51.22652,194.90485 z " />
  <path
     id="path4717"
     style="fill:black;fill-opacity:1;fill-rule:evenodd;stroke:none;stroke-width:1px;stroke-linecap:butt;stroke-linejoin:miter;stroke-opacity:1"
     d="M 51.22157,174.94448 C 51.22157,174.94448 56.53872,179.93279 56.53872,184.9211 C 56.53872,189.90941 51.22157,194.89772 51.22157,194.89772 C 51.22157,194.89772 45.90444,189.90941 45.90444,184.92111 C 45.90444,179.93279 51.22157,174.94448 51.22157,174.94448 z " />
  <path
     id="path4719"
     style="fill:black;fill-opacity:1;fill-rule:evenodd;stroke:none;stroke-width:1px;stroke-linecap:butt;stroke-linejoin:miter;stroke-opacity:1"
     d="M 31.26518,194.90389 C 31.26518,194.90389 36.25349,189.58675 41.2418,189.58675 C 46.23011,189.58675 51.21842,194.90389 51.21842,194.90389 C 51.21842,194.90389 46.23011,200.22104 41.24181,200.22104 C 36.25349,200.22104 31.26518,194.90389 31.26518,194.90389 z " />
  <path
     id="path4723"
     style="font-size:12px;fill:black;fill-opacity:1;fill-rule:evenodd;stroke:black;stroke-width:0"
     d="M 356.99455,260.34266 C 354.87326,258.22136 350.99422,243.26285 350.99422,243.26285 C 350.99422,243.26285 341.1739,248.47707 340.15435,247.18292 C 339.13481,245.88876 343.5352,241.7879 346.91605,238.08622 C 348.60647,236.23539 349.02689,236.50121 349.02471,235.53642 C 349.02252,234.57162 348.59774,232.37621 348.59774,232.37621 C 348.59774,232.37621 334.40152,240.05533 333.33446,237.88948 C 332.26739,235.72363 340.10779,232.80949 346.02281,222.01947 C 351.93784,211.22944 356.99455,194.72939 356.99455,194.72939 C 356.99455,194.72939 362.05126,211.22944 367.96629,222.01947 C 373.88131,232.80949 381.72171,235.72363 380.65464,237.88948 C 379.58758,240.05533 365.39137,232.37621 365.39137,232.37621 C 365.39137,232.37621 364.96658,234.57162 364.9644,235.53642 C 364.96222,236.50121 365.38264,236.23539 367.07306,238.08622 C 370.4539,241.78791 374.85451,245.88876 373.83475,247.18292 C 372.81499,248.47707 362.99403,243.26285 362.99403,243.26285 C 362.99403,243.26285 359.11584,258.22136 356.99455,260.34266 z " />
  <path
     id="path4725"
     style="fill:black;fill-opacity:1;fill-rule:evenodd;stroke:none;stroke-width:1px;stroke-linecap:butt;stroke-linejoin:miter;stroke-opacity:1"
     d="M 356.99775,194.73173 C 356.99775,194.73173 361.98605,189.41459 366.97436,189.41459 C 371.96268,189.41459 376.95099,194.73174 376.95099,194.73174 C 376.95099,194.73174 371.96268,200.04887 366.97437,200.04887 C 361.98605,200.04887 356.99775,194.73173 356.99775,194.73173 z " />
  <path
     id="path4727"
     style="fill:black;fill-opacity:1;fill-rule:evenodd;stroke:none;stroke-width:1px;stroke-linecap:butt;stroke-linejoin:miter;stroke-opacity:1"
     d="M 356.99281,174.77136 C 356.99281,174.77136 362.30995,179.75966 362.30995,184.74797 C 362.30995,189.73629 356.9928,194.7246 356.9928,194.7246 C 356.9928,194.7246 351.67567,189.73629 351.67567,184.74798 C 351.67567,179.75966 356.99281,174.77136 356.99281,174.77136 z " />
  <path
     id="path4729"
     style="fill:black;fill-opacity:1;fill-rule:evenodd;stroke:none;stroke-width:1px;stroke-linecap:butt;stroke-linejoin:miter;stroke-opacity:1"
     d="M 337.03641,194.73077 C 337.03641,194.73077 342.02472,189.41362 347.01303,189.41362 C 352.00134,189.41362 356.98966,194.73077 356.98966,194.73077 C 356.98966,194.73077 352.00134,200.0479 347.01304,200.0479 C 342.02472,200.0479 337.03641,194.73077 337.03641,194.73077 z " />
  <path
     id="path4743"
     style="font-size:12px;fill:black;fill-opacity:1;fill-rule:evenodd;stroke:black;stroke-width:0"
     d="M 306.19454,179.48601 C 304.07325,177.36472 300.19421,162.4062 300.19421,162.4062 C 300.19421,162.4062 290.37389,167.62042 289.35434,166.32627 C 288.33479,165.03211 292.73519,160.93126 296.11603,157.22957 C 297.80646,155.37874 298.22687,155.64457 298.2247,154.67977 C 298.22251,153.71497 297.79773,151.51956 297.79773,151.51956 C 297.79773,151.51956 283.6015,159.19868 282.53445,157.03283 C 281.46738,154.86698 289.30777,151.95284 295.2228,141.16282 C 301.13782,130.37279 306.19454,113.87274 306.19454,113.87274 C 306.19454,113.87274 311.25125,130.37279 317.16628,141.16282 C 323.0813,151.95284 330.9217,154.86698 329.85463,157.03283 C 328.78757,159.19868 314.59135,151.51956 314.59135,151.51956 C 314.59135,151.51956 314.16657,153.71497 314.16439,154.67977 C 314.1622,155.64457 314.58263,155.37874 316.27304,157.22957 C 319.65388,160.93126 324.0545,165.03211 323.03473,166.32627 C 322.01497,167.62042 312.19402,162.4062 312.19402,162.4062 C 312.19402,162.4062 308.31583,177.36472 306.19454,179.48601 z " />
  <path
     id="path4745"
     style="fill:black;fill-opacity:1;fill-rule:evenodd;stroke:none;stroke-width:1px;stroke-linecap:butt;stroke-linejoin:miter;stroke-opacity:1"
     d="M 306.19773,113.87508 C 306.19773,113.87508 311.18604,108.55793 316.17435,108.55793 C 321.16266,108.55793 326.15098,113.87509 326.15098,113.87509 C 326.15098,113.87509 321.16266,119.19223 316.17436,119.19223 C 311.18604,119.19223 306.19773,113.87508 306.19773,113.87508 z " />
  <path
     id="path4747"
     style="fill:black;fill-opacity:1;fill-rule:evenodd;stroke:none;stroke-width:1px;stroke-linecap:butt;stroke-linejoin:miter;stroke-opacity:1"
     d="M 306.19279,93.91471 C 306.19279,93.91471 311.50994,98.90301 311.50994,103.89133 C 311.50994,108.87964 306.19278,113.86795 306.19278,113.86795 C 306.19278,113.86795 300.87565,108.87964 300.87565,103.89133 C 300.87565,98.90301 306.19279,93.91471 306.19279,93.91471 z " />
  <path
     id="path4749"
     style="fill:black;fill-opacity:1;fill-rule:evenodd;stroke:none;stroke-width:1px;stroke-linecap:butt;stroke-linejoin:miter;stroke-opacity:1"
     d="M 286.2364,113.87412 C 286.2364,113.87412 291.2247,108.55697 296.21302,108.55697 C 301.20133,108.55697 306.18964,113.87412 306.18964,113.87412 C 306.18964,113.87412 301.20133,119.19125 296.21302,119.19125 C 291.2247,119.19125 286.2364,113.87412 286.2364,113.87412 z " />
  <path
     id="path4753"
     style="font-size:12px;fill:black;fill-opacity:1;fill-rule:evenodd;stroke:black;stroke-width:0"
     d="M 204.04662,179.65913 C 201.92533,177.53785 198.0463,162.57934 198.0463,162.57934 C 198.0463,162.57934 188.22597,167.79355 187.20643,166.49939 C 186.18688,165.20524 190.58728,161.10438 193.96812,157.40271 C 195.65853,155.55187 196.07896,155.81769 196.07678,154.8529 C 196.0746,153.8881 195.6498,151.69268 195.6498,151.69268 C 195.6498,151.69268 181.45359,159.37181 180.38652,157.20597 C 179.31947,155.04012 187.15986,152.12596 193.07489,141.33594 C 198.98991,130.54591 204.04662,114.04587 204.04662,114.04587 C 204.04662,114.04587 209.10334,130.54591 215.01836,141.33594 C 220.93339,152.12596 228.77378,155.04012 227.70672,157.20597 C 226.63966,159.37181 212.44344,151.69268 212.44344,151.69268 C 212.44344,151.69268 212.01864,153.8881 212.01648,154.8529 C 212.01429,155.81769 212.43471,155.55187 214.12513,157.40271 C 217.50597,161.10439 221.90658,165.20524 220.88682,166.49939 C 219.86706,167.79355 210.04611,162.57934 210.04611,162.57934 C 210.04611,162.57934 206.16792,177.53785 204.04662,179.65913 z " />
  <path
     id="path4755"
     style="fill:black;fill-opacity:1;fill-rule:evenodd;stroke:none;stroke-width:1px;stroke-linecap:butt;stroke-linejoin:miter;stroke-opacity:1"
     d="M 204.04981,114.0482 C 204.04981,114.0482 209.03812,108.73107 214.02644,108.73107 C 219.01475,108.73107 224.00306,114.04821 224.00306,114.04821 C 224.00306,114.04821 219.01475,119.36536 214.02645,119.36536 C 209.03812,119.36536 204.04981,114.0482 204.04981,114.0482 z " />
  <path
     id="path4757"
     style="fill:black;fill-opacity:1;fill-rule:evenodd;stroke:none;stroke-width:1px;stroke-linecap:butt;stroke-linejoin:miter;stroke-opacity:1"
     d="M 204.04488,94.08783 C 204.04488,94.08783 209.36202,99.07614 209.36202,104.06445 C 209.36202,109.05276 204.04487,114.04108 204.04487,114.04108 C 204.04487,114.04108 198.72773,109.05276 198.72773,104.06446 C 198.72773,99.07614 204.04488,94.08783 204.04488,94.08783 z " />
  <path
     id="path4759"
     style="fill:black;fill-opacity:1;fill-rule:evenodd;stroke:none;stroke-width:1px;stroke-linecap:butt;stroke-linejoin:miter;stroke-opacity:1"
     d="M 184.08849,114.04724 C 184.08849,114.04724 189.07679,108.73009 194.0651,108.73009 C 199.05342,108.73009 204.04173,114.04724 204.04173,114.04724 C 204.04173,114.04724 199.05342,119.36438 194.06511,119.36438 C 189.07679,119.36438 184.08849,114.04724 184.08849,114.04724 z " />
  <path
     id="path4763"
     style="font-size:12px;fill:black;fill-opacity:1;fill-rule:evenodd;stroke:black;stroke-width:0"
     d="M 102.02331,179.65913 C 99.90203,177.53785 96.02299,162.57934 96.02299,162.57934 C 96.02299,162.57934 86.20267,167.79355 85.18311,166.49939 C 84.16356,165.20524 88.56396,161.10438 91.9448,157.40271 C 93.63523,155.55187 94.05564,155.81769 94.05347,154.8529 C 94.05129,153.8881 93.6265,151.69268 93.6265,151.69268 C 93.6265,151.69268 79.43027,159.37181 78.36322,157.20597 C 77.29616,155.04012 85.13654,152.12596 91.05157,141.33594 C 96.96659,130.54591 102.02331,114.04587 102.02331,114.04587 C 102.02331,114.04587 107.08003,130.54591 112.99505,141.33594 C 118.91007,152.12596 126.75047,155.04012 125.68341,157.20597 C 124.61634,159.37181 110.42013,151.69268 110.42013,151.69268 C 110.42013,151.69268 109.99534,153.8881 109.99316,154.8529 C 109.99098,155.81769 110.4114,155.55187 112.10181,157.40271 C 115.48265,161.10439 119.88327,165.20524 118.8635,166.49939 C 117.84375,167.79355 108.02279,162.57934 108.02279,162.57934 C 108.02279,162.57934 104.1446,177.53785 102.02331,179.65913 z " />
  <path
     id="path4765"
     style="fill:black;fill-opacity:1;fill-rule:evenodd;stroke:none;stroke-width:1px;stroke-linecap:butt;stroke-linejoin:miter;stroke-opacity:1"
     d="M 102.0265,114.0482 C 102.0265,114.0482 107.01481,108.73107 112.00312,108.73107 C 116.99143,108.73107 121.97975,114.04821 121.97975,114.04821 C 121.97975,114.04821 116.99143,119.36536 112.00313,119.36536 C 107.01481,119.36536 102.0265,114.0482 102.0265,114.0482 z " />
  <path
     id="path4767"
     style="fill:black;fill-opacity:1;fill-rule:evenodd;stroke:none;stroke-width:1px;stroke-linecap:butt;stroke-linejoin:miter;stroke-opacity:1"
     d="M 102.02157,94.08783 C 102.02157,94.08783 107.33871,99.07614 107.33871,104.06445 C 107.33871,109.05276 102.02156,114.04108 102.02156,114.04108 C 102.02156,114.04108 96.70442,109.05276 96.70442,104.06446 C 96.70442,99.07614 102.02157,94.08783 102.02157,94.08783 z " />
  <path
     id="path4769"
     style="fill:black;fill-opacity:1;fill-rule:evenodd;stroke:none;stroke-width:1px;stroke-linecap:butt;stroke-linejoin:miter;stroke-opacity:1"
     d="M 82.06517,114.04724 C 82.06517,114.04724 87.05348,108.73009 92.04179,108.73009 C 97.03011,108.73009 102.01842,114.04724 102.01842,114.04724 C 102.01842,114.04724 97.03011,119.36438 92.0418,119.36438 C 87.05348,119.36438 82.06517,114.04724 82.06517,114.04724 z " />
  <path
     id="path4773"
     style="font-size:12px;fill:black;fill-opacity:1;fill-rule:evenodd;stroke:black;stroke-width:0"
     d="M 51.22332,92.45251 C 49.10203,90.33121 45.22299,75.3727 45.22299,75.3727 C 45.22299,75.3727 35.40267,80.58692 34.38312,79.29277 C 33.36358,77.99861 37.76397,73.89775 41.14481,70.19607 C 42.83524,68.34523 43.25566,68.61106 43.25348,67.64626 C 43.2513,66.68146 42.82651,64.48605 42.82651,64.48605 C 42.82651,64.48605 28.63029,72.16518 27.56323,69.99933 C 26.49616,67.83348 34.33656,64.91934 40.25158,54.12932 C 46.16661,43.33929 51.22332,26.83924 51.22332,26.83924 C 51.22332,26.83924 56.28003,43.33929 62.19506,54.12932 C 68.11008,64.91934 75.95048,67.83348 74.88342,69.99933 C 73.81635,72.16518 59.62014,64.48605 59.62014,64.48605 C 59.62014,64.48605 59.19535,66.68146 59.19317,67.64626 C 59.19098,68.61106 59.61141,68.34523 61.30183,70.19607 C 64.68267,73.89775 69.08328,77.99861 68.06352,79.29277 C 67.04376,80.58692 57.2228,75.3727 57.2228,75.3727 C 57.2228,75.3727 53.34461,90.33121 51.22332,92.45251 z " />
  <path
     id="path4775"
     style="fill:black;fill-opacity:1;fill-rule:evenodd;stroke:none;stroke-width:1px;stroke-linecap:butt;stroke-linejoin:miter;stroke-opacity:1"
     d="M 51.22652,26.84158 C 51.22652,26.84158 56.21482,21.52443 61.20313,21.52443 C 66.19145,21.52443 71.17976,26.84159 71.17976,26.84159 C 71.17976,26.84159 66.19145,32.15872 61.20314,32.15872 C 56.21482,32.15872 51.22652,26.84158 51.22652,26.84158 z " />
  <path
     id="path4777"
     style="fill:black;fill-opacity:1;fill-rule:evenodd;stroke:none;stroke-width:1px;stroke-linecap:butt;stroke-linejoin:miter;stroke-opacity:1"
     d="M 51.22157,6.8812 C 51.22157,6.8812 56.53872,11.8695 56.53872,16.85781 C 56.53872,21.84613 51.22157,26.83445 51.22157,26.83445 C 51.22157,26.83445 45.90444,21.84613 45.90444,16.85782 C 45.90444,11.8695 51.22157,6.8812 51.22157,6.8812 z " />
  <path
     id="path4779"
     style="fill:black;fill-opacity:1;fill-rule:evenodd;stroke:none;stroke-width:1px;stroke-linecap:butt;stroke-linejoin:miter;stroke-opacity:1"
     d="M 31.26518,26.84061 C 31.26518,26.84061 36.25349,21.52347 41.2418,21.52347 C 46.23011,21.52347 51.21842,26.84061 51.21842,26.84061 C 51.21842,26.84061 46.23011,32.15775 41.24181,32.15775 C 36.25349,32.15775 31.26518,26.84061 31.26518,26.84061 z " />
  <path
     id="path4783"
     style="font-size:12px;fill:black;fill-opacity:1;fill-rule:evenodd;stroke:black;stroke-width:0"
     d="M 153.24664,92.45251 C 151.12535,90.33121 147.24631,75.3727 147.24631,75.3727 C 147.24631,75.3727 137.42599,80.58692 136.40644,79.29277 C 135.38689,77.99861 139.78729,73.89775 143.16813,70.19607 C 144.85855,68.34523 145.27897,68.61106 145.2768,67.64626 C 145.27461,66.68146 144.84982,64.48605 144.84982,64.48605 C 144.84982,64.48605 130.6536,72.16518 129.58654,69.99933 C 128.51948,67.83348 136.35987,64.91934 142.27489,54.12932 C 148.18992,43.33929 153.24664,26.83924 153.24664,26.83924 C 153.24664,26.83924 158.30335,43.33929 164.21838,54.12932 C 170.1334,64.91934 177.97379,67.83348 176.90673,69.99933 C 175.83967,72.16518 161.64345,64.48605 161.64345,64.48605 C 161.64345,64.48605 161.21866,66.68146 161.21648,67.64626 C 161.2143,68.61106 161.63472,68.34523 163.32514,70.19607 C 166.70598,73.89775 171.10659,77.99861 170.08683,79.29277 C 169.06707,80.58692 159.24611,75.3727 159.24611,75.3727 C 159.24611,75.3727 155.36792,90.33121 153.24664,92.45251 z " />
  <path
     id="path4785"
     style="fill:black;fill-opacity:1;fill-rule:evenodd;stroke:none;stroke-width:1px;stroke-linecap:butt;stroke-linejoin:miter;stroke-opacity:1"
     d="M 153.24982,26.84158 C 153.24982,26.84158 158.23813,21.52443 163.22644,21.52443 C 168.21475,21.52443 173.20307,26.84159 173.20307,26.84159 C 173.20307,26.84159 168.21475,32.15872 163.22645,32.15872 C 158.23813,32.15872 153.24982,26.84158 153.24982,26.84158 z " />
  <path
     id="path4787"
     style="fill:black;fill-opacity:1;fill-rule:evenodd;stroke:none;stroke-width:1px;stroke-linecap:butt;stroke-linejoin:miter;stroke-opacity:1"
     d="M 153.24489,6.8812 C 153.24489,6.8812 158.56203,11.8695 158.56203,16.85781 C 158.56203,21.84613 153.24488,26.83445 153.24488,26.83445 C 153.24488,26.83445 147.92775,21.84613 147.92775,16.85782 C 147.92775,11.8695 153.24489,6.8812 153.24489,6.8812 z " />
  <path
     id="path4789"
     style="fill:black;fill-opacity:1;fill-rule:evenodd;stroke:none;stroke-width:1px;stroke-linecap:butt;stroke-linejoin:miter;stroke-opacity:1"
     d="M 133.2885,26.84061 C 133.2885,26.84061 138.2768,21.52347 143.26512,21.52347 C 148.25343,21.52347 153.24174,26.84061 153.24174,26.84061 C 153.24174,26.84061 148.25343,32.15775 143.26512,32.15775 C 138.2768,32.15775 133.2885,26.84061 133.2885,26.84061 z " />
  <path
     id="path4793"
     style="font-size:12px;fill:black;fill-opacity:1;fill-rule:evenodd;stroke:black;stroke-width:0"
     d="M 258.23328,94.14584 C 256.11198,92.02455 252.23295,77.06603 252.23295,77.06603 C 252.23295,77.06603 242.41263,82.28026 241.39308,80.9861 C 240.37353,79.69195 244.77393,75.59108 248.15477,71.8894 C 249.84519,70.03856 250.26561,70.3044 250.26343,69.33961 C 250.26126,68.3748 249.83646,66.17938 249.83646,66.17938 C 249.83646,66.17938 235.64024,73.85851 234.57318,71.69266 C 233.50612,69.52681 241.34651,66.61267 247.26154,55.82265 C 253.17656,45.03262 258.23328,28.53257 258.23328,28.53257 C 258.23328,28.53257 263.28999,45.03262 269.20501,55.82265 C 275.12004,66.61267 282.96043,69.52681 281.89338,71.69266 C 280.82631,73.85851 266.6301,66.17938 266.6301,66.17938 C 266.6301,66.17938 266.2053,68.3748 266.20313,69.33961 C 266.20094,70.3044 266.62137,70.03856 268.31178,71.8894 C 271.69262,75.59109 276.09324,79.69195 275.07347,80.9861 C 274.05372,82.28026 264.23276,77.06603 264.23276,77.06603 C 264.23276,77.06603 260.35457,92.02455 258.23328,94.14584 z " />
  <path
     id="path4795"
     style="fill:black;fill-opacity:1;fill-rule:evenodd;stroke:none;stroke-width:1px;stroke-linecap:butt;stroke-linejoin:miter;stroke-opacity:1"
     d="M 258.23647,28.53491 C 258.23647,28.53491 263.22477,23.21776 268.21309,23.21776 C 273.2014,23.21776 278.18971,28.53492 278.18971,28.53492 C 278.18971,28.53492 273.2014,33.85206 268.2131,33.85206 C 263.22477,33.85206 258.23647,28.53491 258.23647,28.53491 z " />
  <path
     id="path4797"
     style="fill:black;fill-opacity:1;fill-rule:evenodd;stroke:none;stroke-width:1px;stroke-linecap:butt;stroke-linejoin:miter;stroke-opacity:1"
     d="M 258.23153,8.57453 C 258.23153,8.57453 263.54868,13.56284 263.54868,18.55116 C 263.54868,23.53947 258.23152,28.52778 258.23152,28.52778 C 258.23152,28.52778 252.91439,23.53947 252.91439,18.55116 C 252.91439,13.56284 258.23153,8.57453 258.23153,8.57453 z " />
  <path
     id="path4799"
     style="fill:black;fill-opacity:1;fill-rule:evenodd;stroke:none;stroke-width:1px;stroke-linecap:butt;stroke-linejoin:miter;stroke-opacity:1"
     d="M 238.27514,28.53394 C 238.27514,28.53394 243.26344,23.2168 248.25175,23.2168 C 253.24007,23.2168 258.22838,28.53394 258.22838,28.53394 C 258.22838,28.53394 253.24007,33.85108 248.25176,33.85108 C 243.26344,33.85108 238.27514,28.53394 238.27514,28.53394 z " />
  <path
     id="path4803"
     style="font-size:12px;fill:black;fill-opacity:1;fill-rule:evenodd;stroke:black;stroke-width:0"
     d="M 357.29325,92.45251 C 355.17197,90.33121 351.29293,75.3727 351.29293,75.3727 C 351.29293,75.3727 341.47261,80.58692 340.45306,79.29277 C 339.43351,77.99861 343.83391,73.89775 347.21475,70.19607 C 348.90517,68.34523 349.32559,68.61106 349.32342,67.64626 C 349.32123,66.68146 348.89644,64.48605 348.89644,64.48605 C 348.89644,64.48605 334.70022,72.16518 333.63316,69.99933 C 332.5661,67.83348 340.40649,64.91934 346.32151,54.12932 C 352.23654,43.33929 357.29325,26.83924 357.29325,26.83924 C 357.29325,26.83924 362.34997,43.33929 368.265,54.12932 C 374.18002,64.91934 382.02041,67.83348 380.95335,69.99933 C 379.88629,72.16518 365.69007,64.48605 365.69007,64.48605 C 365.69007,64.48605 365.26528,66.68146 365.2631,67.64626 C 365.26093,68.61106 365.68134,68.34523 367.37176,70.19607 C 370.7526,73.89775 375.15321,77.99861 374.13345,79.29277 C 373.1137,80.58692 363.29273,75.3727 363.29273,75.3727 C 363.29273,75.3727 359.41454,90.33121 357.29325,92.45251 z " />
  <path
     id="path4805"
     style="fill:black;fill-opacity:1;fill-rule:evenodd;stroke:none;stroke-width:1px;stroke-linecap:butt;stroke-linejoin:miter;stroke-opacity:1"
     d="M 357.29645,26.84158 C 357.29645,26.84158 362.28475,21.52443 367.27306,21.52443 C 372.26138,21.52443 377.24969,26.84159 377.24969,26.84159 C 377.24969,26.84159 372.26138,32.15872 367.27307,32.15872 C 362.28475,32.15872 357.29645,26.84158 357.29645,26.84158 z " />
  <path
     id="path4807"
     style="fill:black;fill-opacity:1;fill-rule:evenodd;stroke:none;stroke-width:1px;stroke-linecap:butt;stroke-linejoin:miter;stroke-opacity:1"
     d="M 357.29152,6.8812 C 357.29152,6.8812 362.60865,11.8695 362.60865,16.85781 C 362.60865,21.84613 357.29151,26.83445 357.29151,26.83445 C 357.29151,26.83445 351.97437,21.84613 351.97437,16.85782 C 351.97437,11.8695 357.29152,6.8812 357.29152,6.8812 z " />
  <path
     id="path4809"
     style="fill:black;fill-opacity:1;fill-rule:evenodd;stroke:none;stroke-width:1px;stroke-linecap:butt;stroke-linejoin:miter;stroke-opacity:1"
     d="M 337.33511,26.84061 C 337.33511,26.84061 342.32343,21.52347 347.31174,21.52347 C 352.30005,21.52347 357.28837,26.84061 357.28837,26.84061 C 357.28837,26.84061 352.30005,32.15775 347.31175,32.15775 C 342.32343,32.15775 337.33511,26.84061 337.33511,26.84061 z " />
</svg>
