<?xml version="1.0" encoding="UTF-8" standalone="no"?>
<!-- Created with Sodipodi ("http://www.sodipodi.com/") -->
<svg
   xmlns:dc="http://purl.org/dc/elements/1.1/"
   xmlns:cc="http://web.resource.org/cc/"
   xmlns:rdf="http://www.w3.org/1999/02/22-rdf-syntax-ns#"
   xmlns:svg="http://www.w3.org/2000/svg"
   xmlns="http://www.w3.org/2000/svg"
   xmlns:sodipodi="http://inkscape.sourceforge.net/DTD/sodipodi-0.dtd"
   xmlns:inkscape="http://www.inkscape.org/namespaces/inkscape"
   version="1.0"
   x="0"
   y="0"
   width="999.000000"
   height="666.000000"
   id="svg585"
   sodipodi:version="0.32"
   inkscape:version="0.42"
   sodipodi:docname="egypt_ancient.svg"
   sodipodi:docbase="/home/daniel/ancientflags">
  <metadata
     id="metadata1333">
    <rdf:RDF>
      <cc:Work
         rdf:about="">
        <dc:format>image/svg+xml</dc:format>
        <dc:type
           rdf:resource="http://purl.org/dc/dcmitype/StillImage" />
      </cc:Work>
    </rdf:RDF>
  </metadata>
  <sodipodi:namedview
     inkscape:window-height="645"
     inkscape:window-width="822"
     inkscape:pageshadow="2"
     inkscape:pageopacity="0.0"
     borderopacity="1.0"
     bordercolor="#666666"
     pagecolor="#ffffff"
     id="base"
     inkscape:zoom="0.71392316"
     inkscape:cx="500.98262"
     inkscape:cy="332.00000"
     inkscape:window-x="423"
     inkscape:window-y="309"
     inkscape:current-layer="svg585" />
  <defs
     id="defs587" />
  <rect
     width="1000"
     height="666.666687"
     x="0"
     y="0"
     style="font-size:12;fill:#ff2700;fill-rule:evenodd;stroke-width:1pt;fill-opacity:1.0000000"
     id="rect568" />
  <g
     id="g1343"
     transform="matrix(-0.684428,0.000000,0.000000,-0.684428,-832.1529,1336.908)"
     style="fill:#ffffff;fill-opacity:1.0000000;stroke:none">
    <path
       id="path1345"
       d="M -1603.5597,1886.4539 C -1619.3765,1870.6370 -1617.6818,1856.5149 -1595.6512,1810.7591 C -1582.6589,1784.7743 -1570.7962,1745.2323 -1561.1932,1700.0413 C -1523.9107,1518.7128 -1503.0099,1454.8806 -1462.3380,1391.0484 C -1436.3533,1350.9415 -1422.7960,1346.4224 -1396.8112,1369.0179 C -1380.9944,1382.0103 -1380.9944,1382.5751 -1391.1624,1397.8271 C -1405.2845,1419.2928 -1399.6356,1428.8958 -1373.0860,1428.8958 C -1353.8798,1428.8958 -1349.9256,1431.1554 -1343.7119,1445.2776 C -1339.7577,1455.4455 -1327.3302,1466.7432 -1311.5134,1475.2165 C -1288.3530,1487.0792 -1286.6584,1489.3387 -1289.4828,1506.8502 C -1293.4370,1533.9647 -1339.7577,1628.3008 -1369.1318,1668.9726 C -1391.7272,1701.1711 -1421.1013,1729.4154 -1497.9259,1791.5529 C -1515.4374,1806.2400 -1528.9946,1824.8812 -1540.8573,1849.1714 C -1563.4527,1897.1867 -1582.0940,1907.9195 -1603.5597,1886.4539 z "
       style="fill:#ffffff;fill-opacity:1.0000000" />
  </g>
  <path
     style="fill:#670000;fill-opacity:1.0000000;stroke:none"
     d="M 955.85358,313.96941 C 964.88749,320.22365 967.31970,309.79991 921.80270,456.42719 C 902.69251,517.57980 880.80266,588.46123 872.81112,613.47821 C 859.26026,657.25792 857.87043,659.69012 849.53144,659.69012 C 830.42125,659.34267 819.30259,640.92739 826.94667,623.20703 C 836.67549,600.62226 827.98904,584.63920 814.78564,600.96972 L 808.53139,608.96126 L 797.06528,599.57989 C 786.98900,590.89344 783.51442,590.19852 761.97202,590.89344 C 743.55675,591.24090 736.60759,590.19852 732.09063,586.02903 C 726.53130,580.12224 719.92960,549.19848 723.05672,543.98661 C 724.09910,542.24932 730.35334,541.90186 736.60759,543.29169 C 751.20082,545.72390 751.20082,542.94424 737.99742,527.65608 C 732.43809,521.05438 727.92114,514.45268 727.57368,513.06285 C 727.57368,509.58827 744.25166,507.50352 790.81103,504.72386 C 813.39580,503.68148 831.81108,501.59673 831.81108,500.55436 C 831.46362,499.16453 822.77717,492.56283 812.00597,485.96112 C 785.25171,468.93568 741.12454,421.33394 727.92114,395.27459 C 713.32790,365.74066 708.71909,347.83337 726.00285,333.56577 C 743.28661,319.29817 765.37725,330.49413 770.25553,343.26685 C 775.13381,356.03957 768.22626,371.64744 752.59065,376.85931 L 741.47200,380.33389 L 752.59065,397.70679 C 774.82797,432.10513 840.84499,485.96112 860.30263,485.96112 C 865.86196,485.96112 879.41282,455.38482 916.93829,359.13895 C 938.13323,305.28296 939.87052,302.85075 955.85358,313.96941 z "
     id="path1387"
     sodipodi:nodetypes="ccccccccccsccccccczzcccscc" />
  <path
     style="fill:#000000;fill-opacity:1.0000000;fill-rule:evenodd;stroke:none;stroke-width:1.0000000px;stroke-linecap:butt;stroke-linejoin:miter;stroke-opacity:1.0000000"
     d="M 1002.0348,-0.069562700 L 684.31304,-0.069562700 L -0.069565200,668.06957 L 318.45217,668.06957 L 1002.0348,-0.069562700 z "
     id="path1359"
     sodipodi:nodetypes="ccccc" />
  <path
     sodipodi:nodetypes="ccccc"
     id="path2091"
     d="M 902.03478,-0.069562700 L 788.31304,-0.069562700 L 103.93044,668.06957 L 218.45217,668.06957 L 902.03478,-0.069562700 z "
     style="fill:#ffffff;fill-opacity:1.0000000;fill-rule:evenodd;stroke:none;stroke-width:1.0000000px;stroke-linecap:butt;stroke-linejoin:miter;stroke-opacity:1.0000000" />
  <path
     sodipodi:type="arc"
     style="opacity:1.0000000;fill:#ff2700;fill-opacity:1.0000000;fill-rule:nonzero;stroke:none;stroke-width:16.025000;stroke-miterlimit:4.0000000;stroke-dasharray:none;stroke-opacity:1.0000000"
     id="path2096"
     sodipodi:cx="744.61768"
     sodipodi:cy="359.71243"
     sodipodi:rx="14.387202"
     sodipodi:ry="14.387202"
     d="M 759.00488 359.71243 A 14.387202 14.387202 0 1 1  730.23047,359.71243 A 14.387202 14.387202 0 1 1  759.00488 359.71243 z"
     transform="translate(-1.598578,-5.754881)" />
</svg>
