<?xml version="1.0" encoding="UTF-8" standalone="no"?>
<!-- Created with Inkscape (http://www.inkscape.org/) -->
<svg
   xmlns:dc="http://purl.org/dc/elements/1.1/"
   xmlns:cc="http://web.resource.org/cc/"
   xmlns:rdf="http://www.w3.org/1999/02/22-rdf-syntax-ns#"
   xmlns:svg="http://www.w3.org/2000/svg"
   xmlns="http://www.w3.org/2000/svg"
   xmlns:sodipodi="http://inkscape.sourceforge.net/DTD/sodipodi-0.dtd"
   xmlns:inkscape="http://www.inkscape.org/namespaces/inkscape"
   width="800.00000pt"
   height="600.00000pt"
   id="svg2"
   sodipodi:version="0.32"
   inkscape:version="0.43"
   sodipodi:docbase="/Users/daniel/Desktop/fr.23713.0.amerind_nations"
   sodipodi:docname="cherokee.svg">
  <defs
     id="defs4" />
  <sodipodi:namedview
     id="base"
     pagecolor="#ffffff"
     bordercolor="#666666"
     borderopacity="1.0"
     inkscape:pageopacity="0.0"
     inkscape:pageshadow="2"
     inkscape:zoom="0.35"
     inkscape:cx="375"
     inkscape:cy="520"
     inkscape:document-units="px"
     inkscape:current-layer="layer1"
     showguides="true"
     inkscape:guide-bbox="true"
     inkscape:window-width="755"
     inkscape:window-height="543"
     inkscape:window-x="0"
     inkscape:window-y="25">
    <sodipodi:guide
       orientation="vertical"
       position="885.71429"
       id="guide2650" />
    <sodipodi:guide
       orientation="vertical"
       position="108.57143"
       id="guide2652" />
    <sodipodi:guide
       orientation="horizontal"
       position="725.71429"
       id="guide2656" />
    <sodipodi:guide
       orientation="horizontal"
       position="31.428571"
       id="guide2658" />
  </sodipodi:namedview>
  <metadata
     id="metadata7">
    <rdf:RDF>
      <cc:Work
         rdf:about="">
        <dc:format>image/svg+xml</dc:format>
        <dc:type
           rdf:resource="http://purl.org/dc/dcmitype/StillImage" />
      </cc:Work>
    </rdf:RDF>
  </metadata>
  <g
     inkscape:label="Layer 1"
     inkscape:groupmode="layer"
     id="layer1">
    <rect
       style="opacity:1.0000000;fill:#ffffff;fill-opacity:1.0000000;fill-rule:nonzero;stroke:none;stroke-width:7.3112502;stroke-miterlimit:4.0000000;stroke-dasharray:none;stroke-opacity:1.0000000"
       id="rect3808"
       width="1000.0000"
       height="750.00000"
       x="0.0000000"
       y="0.0000000" />
    <path
       sodipodi:type="arc"
       style="fill:#008b54;fill-opacity:1;fill-rule:nonzero;stroke:none;stroke-width:7.31125021;stroke-miterlimit:4;stroke-dasharray:none;stroke-opacity:1"
       id="path1312"
       sodipodi:cx="550"
       sodipodi:cy="422.85715"
       sodipodi:rx="290"
       sodipodi:ry="290"
       d="M 840 422.85715 A 290 290 0 1 1  260,422.85715 A 290 290 0 1 1  840 422.85715 z"
       transform="matrix(1.157635,0,0,1.157635,-137.5567,-108.6836)" />
    <path
       sodipodi:type="arc"
       style="fill:#ea874e;fill-opacity:1;fill-rule:nonzero;stroke:none;stroke-width:7.31125021;stroke-miterlimit:4;stroke-dasharray:none;stroke-opacity:1"
       id="path2044"
       sodipodi:cx="495.71429"
       sodipodi:cy="394.28571"
       sodipodi:rx="241.42857"
       sodipodi:ry="241.42857"
       d="M 737.14287 394.28571 A 241.42857 241.42857 0 1 1  254.28572,394.28571 A 241.42857 241.42857 0 1 1  737.14287 394.28571 z"
       transform="matrix(1.199055,0,0,1.199055,-95.24613,-91.93956)" />
    <path
       sodipodi:type="arc"
       style="fill:#f2de00;fill-opacity:1;fill-rule:nonzero;stroke:none;stroke-width:7.31125021;stroke-miterlimit:4;stroke-dasharray:none;stroke-opacity:1"
       id="path1314"
       sodipodi:cx="448.57144"
       sodipodi:cy="352.85715"
       sodipodi:rx="197.14285"
       sodipodi:ry="197.14285"
       d="M 645.71429 352.85715 A 197.14285 197.14285 0 1 1  251.42859,352.85715 A 197.14285 197.14285 0 1 1  645.71429 352.85715 z"
       transform="matrix(1.222852,0,0,1.222852,-49.39392,-50.66138)" />
    <path
       sodipodi:type="arc"
       style="fill:#8ac4da;fill-opacity:1;fill-rule:nonzero;stroke:none;stroke-width:7.31125021;stroke-miterlimit:4;stroke-dasharray:none;stroke-opacity:1"
       id="path2046"
       sodipodi:cx="500"
       sodipodi:cy="398.57144"
       sodipodi:rx="165.71428"
       sodipodi:ry="165.71428"
       d="M 665.71428 398.57144 A 165.71428 165.71428 0 1 1  334.28572,398.57144 A 165.71428 165.71428 0 1 1  665.71428 398.57144 z"
       transform="matrix(1.157635,0,0,1.157635,-79.67494,-80.56957)" />
    <path
       sodipodi:type="star"
       style="fill:#f2de00;fill-opacity:1;fill-rule:nonzero;stroke:none;stroke-width:7.31125021;stroke-miterlimit:4;stroke-dasharray:none;stroke-opacity:1"
       id="path2626"
       sodipodi:sides="7"
       sodipodi:cx="334.28571"
       sodipodi:cy="218.57143"
       sodipodi:r1="273.71964"
       sodipodi:r2="104.55159"
       sodipodi:arg1="0.24244702"
       sodipodi:arg2="0.69124597"
       inkscape:flatsided="false"
       inkscape:rounded="0"
       inkscape:randomized="0"
       d="M 599.99997,284.28571 L 414.83772,285.22282 L 448.57835,467.28739 L 332.39891,323.10599 L 211.09203,463.00088 L 251.38089,282.2725 L 66.373065,274.65401 L 232.79189,193.47081 L 123.39778,44.075806 L 290.6298,123.57039 L 339.2254,-55.103633 L 381.3415,125.20769 L 551.33333,51.79983 L 436.61922,197.14979 L 599.99997,284.28571 z "
       transform="matrix(0.480411,0,0,0.480411,343.7532,280.7712)" />
    <path
       sodipodi:type="star"
       style="fill:#000000;fill-opacity:1;fill-rule:nonzero;stroke:none;stroke-width:7.31125021;stroke-miterlimit:4;stroke-dasharray:none;stroke-opacity:1"
       id="path2646"
       sodipodi:sides="7"
       sodipodi:cx="334.28571"
       sodipodi:cy="218.57143"
       sodipodi:r1="273.71964"
       sodipodi:r2="104.55159"
       sodipodi:arg1="0.24244702"
       sodipodi:arg2="0.69124597"
       inkscape:flatsided="false"
       inkscape:rounded="0"
       inkscape:randomized="0"
       d="M 599.99997,284.28571 L 414.83772,285.22282 L 448.57835,467.28739 L 332.39891,323.10599 L 211.09203,463.00088 L 251.38089,282.2725 L 66.373065,274.65401 L 232.79189,193.47081 L 123.39778,44.075806 L 290.6298,123.57039 L 339.2254,-55.103633 L 381.3415,125.20769 L 551.33333,51.79983 L 436.61922,197.14979 L 599.99997,284.28571 z "
       transform="matrix(0.196004,0,0,0.196004,771.1488,633.2931)" />
    <path
       sodipodi:type="star"
       style="fill:#000000;fill-opacity:1;fill-rule:nonzero;stroke:none;stroke-width:7.31125021;stroke-miterlimit:4;stroke-dasharray:none;stroke-opacity:1"
       id="path2648"
       sodipodi:sides="7"
       sodipodi:cx="334.28571"
       sodipodi:cy="218.57143"
       sodipodi:r1="273.71964"
       sodipodi:r2="104.55159"
       sodipodi:arg1="0.24244702"
       sodipodi:arg2="0.69124597"
       inkscape:flatsided="false"
       inkscape:rounded="0"
       inkscape:randomized="0"
       d="M 599.99997,284.28571 L 414.83772,285.22282 L 448.57835,467.28739 L 332.39891,323.10599 L 211.09203,463.00088 L 251.38089,282.2725 L 66.373065,274.65401 L 232.79189,193.47081 L 123.39778,44.075806 L 290.6298,123.57039 L 339.2254,-55.103633 L 381.3415,125.20769 L 551.33333,51.79983 L 436.61922,197.14979 L 599.99997,284.28571 z "
       transform="matrix(0.196004,0,0,0.196004,774.1227,39.00756)" />
    <path
       sodipodi:type="star"
       style="fill:#000000;fill-opacity:1;fill-rule:nonzero;stroke:none;stroke-width:7.31125021;stroke-miterlimit:4;stroke-dasharray:none;stroke-opacity:1"
       id="path2654"
       sodipodi:sides="7"
       sodipodi:cx="334.28571"
       sodipodi:cy="218.57143"
       sodipodi:r1="273.71964"
       sodipodi:r2="104.55159"
       sodipodi:arg1="0.24244702"
       sodipodi:arg2="0.69124597"
       inkscape:flatsided="false"
       inkscape:rounded="0"
       inkscape:randomized="0"
       d="M 599.99997,284.28571 L 414.83772,285.22282 L 448.57835,467.28739 L 332.39891,323.10599 L 211.09203,463.00088 L 251.38089,282.2725 L 66.373065,274.65401 L 232.79189,193.47081 L 123.39778,44.075806 L 290.6298,123.57039 L 339.2254,-55.103633 L 381.3415,125.20769 L 551.33333,51.79983 L 436.61922,197.14979 L 599.99997,284.28571 z "
       transform="matrix(0.196004,0,0,0.196004,95.26552,35.91719)" />
    <path
       sodipodi:type="star"
       style="fill:#000000;fill-opacity:1;fill-rule:nonzero;stroke:none;stroke-width:7.31125021;stroke-miterlimit:4;stroke-dasharray:none;stroke-opacity:1"
       id="path2660"
       sodipodi:sides="7"
       sodipodi:cx="334.28571"
       sodipodi:cy="218.57143"
       sodipodi:r1="273.71964"
       sodipodi:r2="104.55159"
       sodipodi:arg1="0.24244702"
       sodipodi:arg2="0.69124597"
       inkscape:flatsided="false"
       inkscape:rounded="0"
       inkscape:randomized="0"
       d="M 599.99997,284.28571 L 414.83772,285.22282 L 448.57835,467.28739 L 332.39891,323.10599 L 211.09203,463.00088 L 251.38089,282.2725 L 66.373065,274.65401 L 232.79189,193.47081 L 123.39778,44.075806 L 290.6298,123.57039 L 339.2254,-55.103633 L 381.3415,125.20769 L 551.33333,51.79983 L 436.61922,197.14979 L 599.99997,284.28571 z "
       transform="matrix(0.196004,0,0,0.196004,95.26551,627.8121)" />
  </g>
</svg>
