<?xml version="1.0" encoding="UTF-8" standalone="no"?>
<!-- Created with Inkscape (http://www.inkscape.org/) -->
<svg
   xmlns:dc="http://purl.org/dc/elements/1.1/"
   xmlns:cc="http://web.resource.org/cc/"
   xmlns:rdf="http://www.w3.org/1999/02/22-rdf-syntax-ns#"
   xmlns:svg="http://www.w3.org/2000/svg"
   xmlns="http://www.w3.org/2000/svg"
   xmlns:sodipodi="http://sodipodi.sourceforge.net/DTD/sodipodi-0.dtd"
   xmlns:inkscape="http://www.inkscape.org/namespaces/inkscape"
   width="600"
   height="400"
   id="svg3853"
   sodipodi:version="0.32"
   inkscape:version="0.44"
   version="1.0"
   sodipodi:docbase="C:\freeciv"
   sodipodi:docname="nuu-chah-nulth.svg">
  <defs
     id="defs3855" />
  <sodipodi:namedview
     id="base"
     pagecolor="#ffffff"
     bordercolor="#666666"
     borderopacity="1.0"
     gridtolerance="10000"
     guidetolerance="10"
     objecttolerance="10"
     inkscape:pageopacity="0.0"
     inkscape:pageshadow="2"
     inkscape:zoom="1.415"
     inkscape:cx="300"
     inkscape:cy="200"
     inkscape:document-units="px"
     inkscape:current-layer="layer1"
     height="400px"
     width="600px"
     inkscape:window-width="1056"
     inkscape:window-height="768"
     inkscape:window-x="127"
     inkscape:window-y="99" />
  <metadata
     id="metadata3858">
    <rdf:RDF>
      <cc:Work
         rdf:about="">
        <dc:format>image/svg+xml</dc:format>
        <dc:type
           rdf:resource="http://purl.org/dc/dcmitype/StillImage" />
      </cc:Work>
    </rdf:RDF>
  </metadata>
  <g
     inkscape:label="Layer 1"
     inkscape:groupmode="layer"
     id="layer1">
    <rect
       style="opacity:1;fill:white;fill-opacity:1;stroke:none;stroke-width:7.5;stroke-linecap:butt;stroke-linejoin:round;stroke-miterlimit:4;stroke-dasharray:none;stroke-opacity:1"
       id="rect4805"
       width="600"
       height="400"
       x="0"
       y="1.9539925e-014" />
    <g
       id="g1965"
       transform="matrix(1.744355,0,0,1.279605,-247.6893,-69.70969)">
      <path
         id="path3845"
         d="M 267.43112,364.96183 C 235.87361,357.49406 193.74489,327.03682 175.0034,298.14063 C 167.77772,286.99987 166.67653,283.78536 167.85951,277.28658 C 170.96729,260.21341 181.4332,252.85317 202.7778,252.73002 C 226.25387,252.5946 241.08473,263.42822 249.98372,287.21291 C 252.49221,293.91743 254.57958,300.60062 254.62237,302.0645 C 254.66516,303.5284 255.89992,306.88642 257.36632,309.52677 C 259.58434,313.52047 259.90676,311.116 259.28446,295.22258 C 258.62863,278.47325 259.23759,274.53221 264.22358,263.25804 C 270.91851,248.11958 271.95489,228.49799 266.47293,220.67141 C 264.58213,217.97191 259.32999,213.87303 254.80148,211.56275 C 240.72016,204.379 240.68104,204.24045 240.0088,159.16688 C 239.30472,111.95814 240.80244,87.946331 244.3768,89.137786 C 245.70729,89.581268 247.73501,93.218762 248.88285,97.221077 C 250.21331,101.86018 253.61243,106.05715 258.2599,108.79925 C 267.09177,114.01016 268.9683,120.30557 269.71328,147.22318 C 269.94755,155.68802 272.64193,156.21616 279.6811,149.17698 C 285.41851,143.43956 286.78377,134.29291 288.14422,92.477877 C 288.93088,68.298684 291.01697,62.160637 298.44785,62.160637 C 306.50335,62.160637 308.29763,68.323007 309.09015,98.711284 C 309.51042,114.82476 310.61133,127.5406 311.53666,126.96871 C 312.462,126.39682 312.80186,112.3219 312.2919,95.69115 C 311.25636,61.919168 313.11663,54.477568 322.59464,54.477568 C 331.39002,54.477568 333.48489,62.143404 333.69238,95.088075 C 333.87135,123.50439 335.90984,137.80796 338.69791,130.21069 C 339.36252,128.39967 340.33261,113.16566 340.85365,96.357339 C 341.66891,70.057493 342.35583,65.391037 345.78059,62.886775 C 349.09304,60.464653 350.51915,60.479779 354.28749,62.977084 C 360.38022,67.014713 361.54265,73.723854 361.84786,106.61268 C 362.0058,123.63498 362.96766,134.60101 364.30273,134.60101 C 365.63769,134.60101 366.4979,124.80384 366.4979,109.59982 C 366.4979,88.73363 367.15579,83.786176 370.47567,79.686265 C 375.38796,73.619869 382.28074,75.170137 385.92122,83.160153 C 387.59457,86.832755 388.44953,105.77107 388.44953,139.16512 C 388.44953,198.32127 387.57648,202.12795 372.30796,209.54597 C 366.91396,212.16658 361.42443,216.67286 360.10898,219.55998 C 355.95938,228.66733 357.29386,248.02856 363.07851,262.64363 C 366.02719,270.09359 369.08416,278.8513 369.87173,282.10523 C 371.17143,287.47507 369.03146,302.2833 365.33306,313.51167 C 364.16048,317.07158 364.33776,317.27727 366.27475,314.60435 C 367.58715,312.79333 371.10277,303.38068 374.08727,293.68732 C 380.59582,272.54821 390.08947,260.3873 406.44702,252.23598 C 427.75659,241.61698 448.56375,247.2516 458.14594,266.23615 C 466.81036,283.40239 463.5976,293.84121 443.30748,314.4488 C 405.93488,352.40617 344.93056,376.23808 321.36455,362.08693 C 314.78629,358.13674 314.46737,358.14887 306.03094,362.67055 C 296.88183,367.57415 282.16269,368.44789 267.43112,364.96183 z "
         style="fill:#fe0000;fill-opacity:1" />
      <path
         id="path3843"
         d="M 326.20744,292.65272 C 329.82685,265.31761 328.08544,241.73355 321.50863,229.01537 C 316.53315,219.39387 314.27196,219.25882 310.46336,228.3557 C 301.7591,249.1459 301.96579,293.99623 310.92918,329.42616 L 314.67666,344.23904 L 318.77077,331.06807 C 321.02253,323.82404 324.36904,306.53712 326.20744,292.65272 z "
         style="fill:white" />
      <path
         id="path3841"
         d="M 304.18942,215.54173 C 307.79604,211.55645 307.35522,211.4317 289.66719,211.4317 C 272.11579,211.4317 271.56332,211.58403 275.06836,215.45705 C 277.07195,217.67101 280.24049,224.83273 282.10953,231.37199 C 283.97858,237.91124 286.01086,244.73641 286.62574,246.53898 C 287.27972,248.45627 290.38436,243.55721 294.10676,234.73407 C 297.60649,226.4388 302.14368,217.80225 304.18942,215.54173 z "
         style="fill:white" />
      <path
         id="path3839"
         d="M 350.26494,217.84435 C 351.94902,215.93826 353.32692,213.71566 353.32692,212.90522 C 353.32692,212.0948 345.84224,211.4317 336.69436,211.4317 L 320.06175,211.4317 L 326.73003,218.09997 C 330.47608,221.84601 335.08503,230.11917 337.24727,236.97858 L 341.09624,249.18896 L 344.14958,235.24943 C 345.82892,227.58269 348.58082,219.75042 350.26494,217.84435 z "
         style="fill:white" />
      <path
         id="path3837"
         d="M 371.30199,198.29466 C 376.17533,192.27655 375.85368,178.99935 370.6836,172.76982 C 362.0787,162.40153 335.51361,155.49522 310.77072,157.19386 C 274.69479,159.67055 254.5446,171.10634 254.5446,189.10375 C 254.5446,203.83086 254.21286,203.74864 313.62332,203.74864 L 366.88545,203.74864 L 371.30199,198.29466 z "
         style="fill:white" />
      <path
         id="path3835"
         d="M 263.33597,193.00305 C 262.12272,191.7898 261.13008,187.9841 261.13008,184.54589 C 261.13008,170.07275 283.73196,160.24822 317.10673,160.21407 C 340.11757,160.19054 352.68615,163.23043 362.00775,171.07404 C 369.70071,177.54724 370.56005,184.45309 364.48412,190.97483 C 360.47824,195.27464 357.99009,195.48574 312.9085,195.35074 C 284.30184,195.26509 264.66816,194.33525 263.33597,193.00305 z "
         style="fill:#fe0000;fill-opacity:1" />
      <path
         id="path3833"
         d="M 332.29735,180.3639 C 327.13254,177.08849 321.76237,172.27017 320.36358,169.65656 L 317.82038,164.90454 L 314.39807,169.79057 C 312.51581,172.47788 305.28255,177.26651 298.32418,180.43196 L 285.67258,186.18733 L 313.68022,186.25327 L 341.68788,186.31919 L 332.29735,180.3639 z "
         style="fill:white" />
      <path
         id="path3831"
         d="M 254.00323,123.60643 C 254.30912,120.59839 252.60241,115.66772 250.21048,112.64938 L 245.86156,107.16147 L 245.81274,118.84703 C 245.77116,128.80437 246.33208,130.42483 249.60549,129.80407 C 251.83662,129.38095 253.68019,126.78289 254.00323,123.60643 z "
         style="fill:white" />
      <path
         id="path3829"
         d="M 380.76646,88.502596 C 380.76646,85.23874 379.34505,82.801076 377.20113,82.388184 C 373.11273,81.600824 370.40645,86.888047 372.3309,91.903097 C 374.38398,97.253277 380.76646,94.680398 380.76646,88.502596 z "
         style="fill:white" />
      <path
         id="path3827"
         d="M 302.83818,76.558752 C 302.83818,69.781013 298.97587,67.277298 294.86378,71.389386 C 290.85205,75.401134 293.2157,81.917105 298.68271,81.917105 C 301.62498,81.917105 302.83818,80.352718 302.83818,76.558752 z "
         style="fill:white" />
      <path
         id="path3825"
         d="M 354.4245,73.13645 C 354.4245,66.958647 348.04202,64.385763 345.98895,69.735946 C 344.0645,74.750971 346.77077,80.038192 350.85918,79.250857 C 353.00309,78.837968 354.4245,76.400307 354.4245,73.13645 z "
         style="fill:white" />
      <path
         id="path3823"
         d="M 326.58197,64.90459 C 326.16847,61.310778 324.55489,58.867892 322.59464,58.867892 C 320.63438,58.867892 319.0208,61.310778 318.60729,64.90459 C 318.04168,69.820283 318.78212,70.941288 322.59464,70.941288 C 326.40715,70.941288 327.14759,69.820283 326.58197,64.90459 z "
         style="fill:white" />
      <path
         id="path3851"
         d="M 226.42131,232.46946 C 228.57149,228.99037 225.8388,226.35754 218.16427,224.5141 L 211.05518,222.80649 L 218.51091,221.60126 C 225.18495,220.5224 232.26889,214.40173 229.6364,211.98859 C 227.58812,210.11096 193.69548,217.19422 192.00966,219.85225 C 187.9915,226.18763 194.65595,229.65798 211.60397,230.05548 C 216.73516,230.17582 220.9334,231.26212 220.9334,232.46946 C 220.9334,233.67681 221.86292,234.66462 222.99901,234.66462 C 224.13509,234.66462 225.67513,233.67681 226.42131,232.46946 z "
         style="fill:#fe0000;fill-opacity:1" />
      <path
         id="path3883"
         d="M 213.87466,200.55204 C 215.34628,198.17089 233.21596,197.16314 233.21596,197.16314 L 231.9631,189.04344 C 228.72274,168.04299 218.65977,158.71658 199.32684,158.796 C 172.25028,158.90725 154.4594,177.24099 165.76497,193.38196 C 168.42439,197.17881 171.34515,198.26073 178.93595,198.26073 C 190.49765,198.26073 192.05986,202.6004 182.65302,208.58644 C 174.59475,213.71428 173.25114,215.97529 175.62558,220.41196 C 183.84472,228.01953 197.52046,231.78865 208.6552,232.15655 C 212.06134,230.05144 212.55474,235.00391 209.38911,239.52344 C 204.61378,246.3412 193.16351,247.66043 176.05804,243.36369 C 167.95989,241.32949 160.08045,238.62467 158.5482,237.35302 C 156.64117,235.77035 155.76227,235.7605 155.76227,237.32178 C 155.76227,238.57624 158.28983,241.44384 161.37906,243.69418 C 166.33761,247.30623 166.72348,248.50205 164.6718,253.8984 C 163.39358,257.26037 162.34776,263.40415 162.34776,267.55125 C 162.34776,271.69834 161.57318,275.09141 160.62647,275.09141 C 159.67975,275.09141 156.32816,268.42361 153.17848,260.27407 C 144.94403,238.96815 141.88694,222.01225 141.99766,198.26073 C 142.13979,167.77454 151.25956,141.91492 165.94176,130.3659 C 176.84997,121.7855 217.02384,112.3941 227.96523,115.86676 C 232.23189,117.22096 232.59297,118.91692 232.59297,137.60265 C 232.59297,149.69211 231.59622,158.86649 230.12264,160.34003 C 228.29234,162.17036 228.86107,165.30725 232.31781,172.44795 C 239.99508,188.30704 237.40531,207.57616 228.25478,202.67895 C 221.75826,199.20211 218.78748,199.98762 220.05805,204.84621 C 220.68947,207.26088 220.43175,209.23654 219.48526,209.23654 C 216.47529,209.23654 212.40303,202.93319 213.87466,200.55204 z "
         style="fill:black" />
      <path
         id="path3821"
         d="M 227.82386,192.22402 C 234.33249,198.18589 215.52462,196.25475 210.90043,198.26073 C 206.04478,200.36712 203.56951,195.49681 205.38116,190.77574 C 207.45638,185.36783 221.31523,186.26216 227.82386,192.22402 z "
         style="fill:#fe0000;fill-opacity:1" />
      <path
         id="path3819"
         d="M 202.95826,237.77365 C 202.2121,236.56631 199.62307,235.57849 197.20488,235.57849 C 187.81951,235.57849 168.82421,224.34378 162.78831,215.22292 C 157.72212,207.56737 156.85985,203.95986 156.85985,190.41965 C 156.85985,173.16749 159.16125,168.70687 172.226,160.63687 C 175.84801,158.39956 177.44633,156.56534 175.77783,156.56085 C 174.10934,156.55631 169.41718,158.60884 165.35081,161.12199 L 157.95744,165.69135 L 157.95744,160.20396 C 157.95744,157.18587 158.59397,153.05778 159.37193,151.03039 C 161.27848,146.06203 178.35094,138.99133 188.4407,138.99133 C 199.45662,138.99133 219.42199,149.0203 219.42199,154.55383 C 219.42199,159.54029 222.25134,159.98093 225.9161,155.56516 C 227.60878,153.52559 228.29661,146.62704 227.83124,136.35749 L 227.10506,120.33246 L 215.03167,120.96773 C 199.54962,121.7824 175.71328,128.79667 168.1143,134.77401 C 146.70792,151.61227 138.86508,218.50181 156.91079,230.32579 C 159.83732,232.24336 166.45612,235.13139 171.61921,236.74368 C 182.867,240.25606 204.94083,240.98151 202.95826,237.77365 z "
         style="fill:white" />
      <path
         id="path3885"
         d="M 400.31236,186.18121 C 393.36489,191.62537 412.26554,191.14503 416.72195,193.50037 C 421.40139,195.97362 424.24355,191.3079 422.79999,186.46158 C 421.14643,180.91021 407.25982,180.73706 400.31236,186.18121 z "
         style="fill:#fe0000;fill-opacity:1" />
      <path
         sodipodi:nodetypes="cscccsssssssccssssssssssssc"
         id="path3817"
         d="M 465.28022,263.14249 C 465.28022,257.48227 464.25124,250.9285 462.99358,248.57855 C 461.11757,245.07319 461.80742,243.34493 466.83512,238.95454 L 472.96329,233.60315 L 459.04795,237.88356 C 442.26385,243.0464 428.4615,243.36684 421.86542,238.74674 C 414.52195,233.60322 415.86152,229.72197 425.42284,228.43954 C 438.48016,226.68816 454.30897,218.93108 454.27723,214.29909 C 454.26228,212.11834 450.8049,208.10243 446.59417,205.37483 C 436.46502,198.81342 436.21243,193.16009 446.13153,195.02093 C 461.84641,197.96905 471.24309,180.09141 460.89398,166.93462 C 455.88365,160.56504 439.69097,154.35747 428.08595,154.35747 C 411.10117,154.35747 397.23017,168.35941 397.23017,185.5045 L 397.23017,193.67084 C 403.35351,192.48036 419.10212,196.45992 410.94845,204.25867 C 409.12135,204.89382 408.6927,203.93693 409.66698,201.39798 C 410.96084,198.0263 410.07982,197.75098 402.08671,199.02914 C 393.18517,200.45255 393.02071,200.3595 391.66484,193.13207 C 390.14016,185.00499 393.39332,170.86311 398.24506,164.52672 C 400.97923,160.95589 400.94452,159.75681 397.97572,155.22586 C 395.41451,151.31697 394.76408,145.69641 395.35843,132.60902 C 395.7934,123.03059 396.85248,114.49052 397.71193,113.63108 C 400.02163,111.32135 422.21774,112.2559 434.09185,115.1628 C 452.2035,119.59672 464.16819,126.9613 471.67691,138.29735 C 482.83827,155.14796 486.14434,169.28778 485.95374,199.35832 C 485.80323,223.10373 485.0751,227.80465 478.56672,247.04968 C 469.83083,272.88146 465.28022,278.39322 465.28022,263.14249 z "
         style="fill:black" />
      <path
         id="path3815"
         d="M 466.98869,229.00277 C 479.21955,222.12865 481.4693,214.80026 480.18863,186.00502 C 479.30471,166.13057 478.33199,161.67177 472.13328,149.08037 C 468.25576,141.20399 462.41103,132.89624 459.14502,130.61867 C 450.33409,124.47435 433.31693,119.35511 416.51077,117.79316 L 401.6205,116.40926 L 401.47234,126.05392 C 401.39085,131.35849 400.91142,138.85291 400.40689,142.7082 C 399.82266,147.17268 400.73774,150.96594 402.92719,153.15539 C 406.85583,157.08403 410.81095,155.66138 409.91058,150.64341 C 409.13097,146.29846 430.9945,134.70563 440.03585,134.66991 C 443.65787,134.65559 451.70891,137.01272 457.92706,139.90796 C 467.12381,144.19004 469.51734,146.46755 470.75816,152.11689 C 471.59708,155.93654 471.68452,159.6607 470.95245,160.39277 C 470.22039,161.12483 465.61625,159.47275 460.72103,156.72149 C 455.82581,153.97021 451.31722,152.2226 450.70192,152.83788 C 450.08664,153.45319 451.57249,154.58796 454.00378,155.35963 C 456.4351,156.13129 461.44865,160.20715 465.14501,164.41711 C 471.17149,171.28085 471.86571,173.54879 471.86571,186.37271 C 471.86571,209.51023 462.14658,221.92473 437.3181,230.50132 L 422.47455,235.62878 L 440.14317,234.89464 C 453.67091,234.33253 459.96252,232.95169 466.98869,229.00277 z "
         style="fill:white" />
      <path
         id="path3813"
         d="M 402.71808,228.993 C 400.5679,225.51393 403.30059,222.88111 410.97513,221.03767 L 418.08422,219.33006 L 410.62848,218.12482 C 403.95444,217.04597 396.8705,210.92529 399.50299,208.51215 C 401.55128,206.63452 435.44392,213.71778 437.12973,216.3758 C 441.14789,222.71119 434.48344,226.18152 417.53543,226.57902 C 412.40424,226.69936 408.20599,227.78566 408.20599,228.993 C 408.20599,230.20034 407.27647,231.18817 406.14038,231.18817 C 405.0043,231.18817 403.46426,230.20034 402.71808,228.993 z "
         style="fill:#fe0000;fill-opacity:1" />
      <path
         transform="matrix(1.128282,0,0,1.128282,-29.52161,-9.594923)"
         sodipodi:end="6.280069"
         sodipodi:start="0"
         d="M 418.90676,158.18869 A 10.272358,10.272358 0 1 1 418.90671,158.15668 L 408.6344,158.18869 z"
         sodipodi:ry="10.272358"
         sodipodi:rx="10.272358"
         sodipodi:cy="158.18869"
         sodipodi:cx="408.6344"
         id="path3887"
         style="fill:black;fill-opacity:1;stroke:none;stroke-width:7.5;stroke-linecap:butt;stroke-linejoin:round;stroke-miterlimit:4;stroke-dasharray:none;stroke-opacity:1"
         sodipodi:type="arc" />
      <path
         transform="matrix(1.128282,0,0,1.128282,-263.7757,-4.914295)"
         sodipodi:end="6.280069"
         sodipodi:start="0"
         d="M 418.90676,158.18869 A 10.272358,10.272358 0 1 1 418.90671,158.15668 L 408.6344,158.18869 z"
         sodipodi:ry="10.272358"
         sodipodi:rx="10.272358"
         sodipodi:cy="158.18869"
         sodipodi:cx="408.6344"
         id="path3891"
         style="fill:black;fill-opacity:1;stroke:none;stroke-width:7.5;stroke-linecap:butt;stroke-linejoin:round;stroke-miterlimit:4;stroke-dasharray:none;stroke-opacity:1"
         sodipodi:type="arc" />
    </g>
  </g>
</svg>
