<?xml version="1.0" encoding="UTF-8" standalone="no"?>
<!DOCTYPE svg PUBLIC "-//W3C//DTD SVG 1.0//EN"
"http://www.w3.org/TR/2001/REC-SVG-20010904/DTD/svg10.dtd">
<!-- Created with Inkscape (http://www.inkscape.org/) --><svg height="496.06299" id="svg557" version="1.0" width="744.09448" x="0.0000000" xmlns="http://www.w3.org/2000/svg" xmlns:xlink="http://www.w3.org/1999/xlink" y="0.0000000">
  <metadata>
    <rdf:RDF xmlns:cc="http://web.resource.org/cc/" xmlns:dc="http://purl.org/dc/elements/1.1/" xmlns:rdf="http://www.w3.org/1999/02/22-rdf-syntax-ns#">
      <cc:Work rdf:about="">
        <dc:title></dc:title>
        <dc:description></dc:description>
        <dc:subject>
          <rdf:Bag>
            <rdf:li></rdf:li>
            <rdf:li>pirate</rdf:li>
            <rdf:li>flag</rdf:li>
            <rdf:li>historic</rdf:li>
            <rdf:li>sign</rdf:li>
          </rdf:Bag>
        </dc:subject>
        <dc:publisher>
          <cc:Agent rdf:about="http://www.openclipart.org">
            <dc:title></dc:title>
          </cc:Agent>
        </dc:publisher>
        <dc:creator>
          <cc:Agent>
            <dc:title></dc:title>
          </cc:Agent>
        </dc:creator>
        <dc:rights>
          <cc:Agent>
            <dc:title></dc:title>
          </cc:Agent>
        </dc:rights>
        <dc:date></dc:date>
        <dc:format>image/svg+xml</dc:format>
        <dc:type rdf:resource="http://purl.org/dc/dcmitype/StillImage"/>
        <cc:license rdf:resource=""/>
        <dc:language>en</dc:language>
      </cc:Work>
    </rdf:RDF>
  </metadata>
  <defs id="defs559">
    <linearGradient id="linearGradient668">
      <stop id="stop669" offset="0.0000000" style="stop-color:#000000;stop-opacity:1.0000000;"/>
      <stop id="stop670" offset="1.0000000" style="stop-color:#ffffff;stop-opacity:1.0000000;"/>
    </linearGradient>
    <linearGradient id="linearGradient671" x1="0.20604900" x2="1.1384610" xlink:href="#linearGradient668" y1="0.22585200" y2="1.2903240"/>
  </defs>
  <rect height="496.06299" id="rect657" style="font-size:12.000000;fill:#000000;fill-opacity:1.0000000;fill-rule:evenodd;stroke-width:1.0000000pt;" width="744.09448" x="0.0000000" y="-1.5000000e-05"/>
  <path d="M 540.20800,225.70100 C 536.84900,227.94000 533.49100,230.17900 532.37100,234.65800 C 530.13200,241.37500 539.08800,239.13600 542.44700,236.89700 C 548.04500,234.65800 549.16400,224.58200 540.20800,225.70100 z M 511.09900,189.87500 C 508.86000,196.59200 503.26200,205.54900 498.78400,212.26600 C 497.66500,214.50500 494.30600,218.98400 495.42500,221.22300 C 497.66500,224.58200 502.14300,221.22300 503.26200,220.10300 C 509.98000,213.38600 515.57800,204.42900 522.29500,198.83200 C 522.29500,198.83200 512.21900,216.74500 512.21900,216.74500 C 511.09900,218.98400 509.98000,223.46200 513.33800,224.58200 C 518.93600,226.82100 527.89300,213.38600 532.37100,210.02700 C 532.37100,210.02700 525.65400,223.46200 525.65400,223.46200 C 524.53400,226.82100 525.65400,229.06000 529.01200,227.94000 C 535.73000,227.94000 543.56700,215.62500 542.44700,208.90800 C 541.32800,204.42900 539.08800,202.19000 535.73000,199.95100 C 531.25100,195.47300 515.57800,180.91900 509.98000,178.67900 C 507.74100,178.67900 504.38200,178.67900 502.14300,180.91900 C 498.78400,183.15800 489.82800,199.95100 489.82800,204.42900 C 489.82800,213.38600 494.30600,210.02700 498.78400,205.54900 C 498.78400,205.54900 503.26200,198.83200 503.26200,198.83200 C 503.26200,198.83200 511.09900,189.87500 511.09900,189.87500 z M 470.79500,245.85300 C 476.39300,235.77700 483.11000,231.29900 484.23000,218.98400 C 485.34900,210.02700 480.87100,207.78800 483.11000,201.07100 C 484.23000,195.47300 488.70800,190.99500 490.94700,186.51600 C 493.18600,182.03800 492.06700,177.56000 490.94700,173.08200 C 480.87100,175.32100 477.51200,184.27700 471.91500,192.11400 C 467.43600,198.83200 459.59900,208.90800 456.24100,215.62500 C 456.24100,215.62500 451.76200,231.29900 451.76200,231.29900 C 451.76200,231.29900 450.64300,240.25500 450.64300,240.25500 C 448.40400,250.33100 441.68600,258.16800 433.84900,263.76600 C 433.84900,263.76600 403.62100,283.91800 403.62100,283.91800 C 403.62100,283.91800 394.66500,289.51600 394.66500,289.51600 C 394.66500,289.51600 372.27300,302.95100 372.27300,302.95100 C 372.27300,302.95100 358.83900,313.02700 358.83900,313.02700 C 356.59900,315.26600 354.36000,317.50500 351.00200,317.50500 C 348.76300,316.38600 345.40400,313.02700 344.28400,311.90700 C 344.28400,311.90700 331.96900,297.35300 331.96900,297.35300 C 325.25200,290.63600 317.41500,283.91800 309.57800,279.44000 C 309.57800,279.44000 298.38200,271.60300 298.38200,271.60300 C 295.02300,269.36400 282.70800,259.28800 280.46900,258.16800 C 273.75200,255.92900 275.99100,266.00500 277.11000,269.36400 C 280.46900,282.79900 287.18700,295.11400 277.11000,308.54900 C 269.27300,319.74400 259.19700,320.86400 251.36000,328.70100 C 249.12100,332.06000 244.64300,336.53800 248.00200,341.01600 C 249.12100,343.25500 259.19700,349.97300 262.55600,352.21200 C 279.35000,362.28800 284.94700,365.64700 303.98000,371.24400 C 303.98000,371.24400 318.53400,375.72300 318.53400,375.72300 C 325.25200,377.96200 326.37100,375.72300 339.80600,381.32000 C 347.64300,384.67900 355.48000,390.27700 364.43600,390.27700 C 373.39300,389.15700 387.94700,377.96200 395.78400,372.36400 C 403.62100,366.76600 406.98000,364.52700 414.81700,357.81000 C 414.81700,357.81000 424.89300,344.37500 424.89300,344.37500 C 424.89300,344.37500 466.31700,290.63600 466.31700,290.63600 C 466.31700,290.63600 486.46900,268.24500 486.46900,268.24500 C 489.82800,264.88600 496.54500,263.76600 501.02300,261.52700 C 505.50100,259.28800 515.57800,245.85300 518.93600,241.37500 C 525.65400,229.06000 508.86000,233.53800 503.26200,232.41800 C 498.78400,232.41800 495.42500,230.17900 490.94700,230.17900 C 485.34900,232.41800 476.39300,242.49500 470.79500,245.85300 z M 483.11000,124.94000 C 467.43600,130.53800 481.99100,147.33200 475.27300,159.64700 C 475.27300,159.64700 458.48000,184.27700 458.48000,184.27700 C 455.12100,188.75500 451.76200,195.47300 446.16500,198.83200 C 438.32800,204.42900 429.37100,198.83200 424.89300,204.42900 C 419.29500,210.02700 421.53400,224.58200 436.08900,221.22300 C 442.80600,220.10300 451.76200,214.50500 455.12100,208.90800 C 455.12100,208.90800 460.71900,199.95100 460.71900,199.95100 C 460.71900,199.95100 493.18600,150.69000 493.18600,150.69000 C 498.78400,140.61400 496.54500,123.82100 483.11000,124.94000 z M 230.08900,66.723000 C 236.80600,74.560000 241.28400,76.799100 248.00200,82.396900 C 259.19700,91.353400 269.27300,100.31000 279.35000,110.38600 C 283.82800,114.86400 296.14300,131.65800 299.50200,132.77700 C 299.50200,132.77700 335.32800,139.49500 335.32800,139.49500 C 335.32800,139.49500 399.14300,156.28800 399.14300,156.28800 C 406.98000,158.52700 426.01200,168.60300 432.73000,173.08200 C 434.96900,175.32100 446.16500,182.03800 448.40400,183.15800 C 452.88200,183.15800 455.12100,178.67900 456.24100,175.32100 C 456.24100,175.32100 440.56700,163.00600 440.56700,163.00600 C 424.89300,152.92900 408.09900,142.85300 391.30600,133.89700 C 391.30600,133.89700 362.19700,121.58200 362.19700,121.58200 C 355.48000,118.22300 345.40400,114.86400 340.92600,110.38600 C 352.12100,111.50600 367.79500,118.22300 377.87100,123.82100 C 377.87100,123.82100 386.82800,127.17900 386.82800,127.17900 C 386.82800,127.17900 395.78400,131.65800 395.78400,131.65800 C 395.78400,131.65800 412.57800,138.37500 412.57800,138.37500 C 417.05600,140.61400 419.29500,142.85300 422.65400,145.09200 C 422.65400,145.09200 434.96900,152.92900 434.96900,152.92900 C 442.80600,156.28800 445.04500,158.52700 451.76200,163.00600 C 454.00200,165.24500 457.36000,167.48400 460.71900,167.48400 C 464.07800,167.48400 466.31700,163.00600 467.43600,160.76600 C 467.43600,160.76600 454.00200,149.57100 454.00200,149.57100 C 438.32800,136.13600 421.53400,126.06000 403.62100,115.98400 C 386.82800,105.90800 367.79500,98.070800 349.88200,91.353400 C 349.88200,91.353400 338.68600,86.875200 338.68600,86.875200 C 338.68600,86.875200 309.57800,80.157800 309.57800,80.157800 C 309.57800,80.157800 284.94700,73.440400 284.94700,73.440400 C 284.94700,73.440400 245.76300,66.723000 230.08900,66.723000 z " id="selection_to_path" style="font-size:12.000000;fill:#ffffff;stroke:#000000;stroke-width:1.1195600;"/>
</svg>
