<?xml version="1.0" encoding="UTF-8" standalone="no"?>
<!-- Created with Inkscape (http://www.inkscape.org/) -->
<svg
   xmlns:dc="http://purl.org/dc/elements/1.1/"
   xmlns:cc="http://creativecommons.org/ns#"
   xmlns:rdf="http://www.w3.org/1999/02/22-rdf-syntax-ns#"
   xmlns:svg="http://www.w3.org/2000/svg"
   xmlns="http://www.w3.org/2000/svg"
   xmlns:sodipodi="http://sodipodi.sourceforge.net/DTD/sodipodi-0.dtd"
   xmlns:inkscape="http://www.inkscape.org/namespaces/inkscape"
   version="1.0"
   width="556"
   height="370"
   id="svg2"
   sodipodi:version="0.32"
   inkscape:version="0.46"
   sodipodi:docname="saxony.svg"
   inkscape:output_extension="org.inkscape.output.svg.inkscape">
  <metadata
     id="metadata7">
    <rdf:RDF>
      <cc:Work
         rdf:about="">
        <dc:format>image/svg+xml</dc:format>
        <dc:type
           rdf:resource="http://purl.org/dc/dcmitype/StillImage" />
      </cc:Work>
    </rdf:RDF>
  </metadata>
  <sodipodi:namedview
     inkscape:window-height="720"
     inkscape:window-width="1024"
     inkscape:pageshadow="2"
     inkscape:pageopacity="0.0"
     guidetolerance="10.0"
     gridtolerance="10.0"
     objecttolerance="10.0"
     borderopacity="1.0"
     bordercolor="#666666"
     pagecolor="#ffffff"
     id="base"
     showgrid="false"
     inkscape:showpageshadow="false"
     showborder="true"
     inkscape:zoom="0.93884028"
     inkscape:cx="230.22662"
     inkscape:cy="112.16611"
     inkscape:window-x="0"
     inkscape:window-y="22"
     inkscape:current-layer="svg2" />
  <defs
     id="defs4">
    <inkscape:perspective
       sodipodi:type="inkscape:persp3d"
       inkscape:vp_x="0 : 526.18109 : 1"
       inkscape:vp_y="0 : 1000 : 0"
       inkscape:vp_z="744.09448 : 526.18109 : 1"
       inkscape:persp3d-origin="372.04724 : 350.78739 : 1"
       id="perspective9" />
    <inkscape:perspective
       id="perspective2461"
       inkscape:persp3d-origin="372.04724 : 350.78739 : 1"
       inkscape:vp_z="744.09448 : 526.18109 : 1"
       inkscape:vp_y="0 : 1000 : 0"
       inkscape:vp_x="0 : 526.18109 : 1"
       sodipodi:type="inkscape:persp3d" />
    <inkscape:perspective
       id="perspective3466"
       inkscape:persp3d-origin="259.5 : 193.66667 : 1"
       inkscape:vp_z="519 : 290.5 : 1"
       inkscape:vp_y="0 : 1000 : 0"
       inkscape:vp_x="0 : 290.5 : 1"
       sodipodi:type="inkscape:persp3d" />
  </defs>
  <rect
     style="fill:#000000;fill-opacity:1;fill-rule:evenodd;stroke:none;stroke-width:0.99278414px;stroke-linecap:butt;stroke-linejoin:miter;stroke-opacity:1"
     id="rect2504"
     width="555.47974"
     height="184.80969"
     x="0.52896404"
     y="0.39145738" />
  <rect
     style="fill:#fffd00;fill-opacity:1;fill-rule:evenodd;stroke:none;stroke-width:0.99278414px;stroke-linecap:butt;stroke-linejoin:miter;stroke-opacity:1"
     id="rect3276"
     width="556.01227"
     height="184.80969"
     x="0.12932713"
     y="185.34535" />
  <path
     style="fill:none;fill-opacity:0.75000000000000000;fill-rule:evenodd;stroke:#000000;stroke-width:11;stroke-linecap:butt;stroke-linejoin:miter;stroke-opacity:1;stroke-miterlimit:4;stroke-dasharray:none"
     d="M 109.70982,181.46953 C 108.99972,286.91878 181.06533,368.22849 275.87227,367.86971 C 371.74434,367.5069 447.71549,288.69401 445.23015,184.66496 L 109.70982,181.46953 z"
     id="path3310"
     sodipodi:nodetypes="czcc" />
  <polygon
     style="fill:#f9da16;fill-rule:evenodd"
     clip-rule="evenodd"
     points="251.56787,157.82422 251.42334,164.30469 250.91943,170.56836 250.12842,176.83203 249.04834,182.95117 247.60889,189.07227 246.0249,194.97656 244.07959,200.73633 241.77686,206.35156 239.32764,211.96875 236.521,217.29492 233.56787,222.55273 230.32764,227.51953 226.80029,232.48828 223.05615,237.16797 219.16748,241.70312 214.9917,246.02344 210.67139,250.12695 206.13623,254.08789 201.45654,257.75977 196.48779,261.28711 191.37646,264.52734 186.19287,267.48047 180.79248,270.21484 175.24756,272.73633 169.63232,274.96875 163.80029,276.98438 157.82373,278.56836 151.77686,280.00781 145.65576,281.08789 139.39209,281.87891 132.98389,282.45508 126.57568,282.52734 120.09619,282.45508 113.83203,281.87891 107.49609,281.08789 101.3042,280.00781 95.328125,278.56836 89.352051,276.98438 83.592285,274.96875 77.832031,272.73633 72.360352,270.21484 66.888184,267.48047 61.704102,264.52734 56.592285,261.28711 51.768066,257.75977 46.944336,254.08789 42.479981,250.12695 38.088379,246.02344 33.984375,241.70312 30.024414,237.16797 26.352051,232.48828 22.824219,227.51953 19.65625,222.55273 16.560059,217.29492 13.895996,211.96875 11.375977,206.35156 9.144043,200.73633 7.1279297,194.97656 5.472168,189.07227 4.1040039,182.95117 3.0244141,176.83203 2.2324219,170.56836 1.800293,164.30469 1.5839844,157.82422 1.5839844,1.2236328 251.56787,1.2236328 251.56787,157.82422 "
     id="polygon3409"
     transform="matrix(1.2868563,0,0,1.2868563,114.85757,3.0161064)" />
  <polygon
     style="fill:none;stroke:#ffe600;stroke-width:0.02438;stroke-miterlimit:2.61310005"
     stroke-miterlimit="2.6131001"
     points="251.56787,157.82422 251.42334,164.30469 250.91943,170.56836 250.12842,176.83203 249.04834,182.95117 247.60889,189.07227 246.0249,194.97656 244.07959,200.73633 241.77686,206.35156 239.32764,211.96875 236.521,217.29492 233.56787,222.55273 230.32764,227.51953 226.80029,232.48828 223.05615,237.16797 219.16748,241.70312 214.9917,246.02344 210.67139,250.12695 206.13623,254.08789 201.45654,257.75977 196.48779,261.28711 191.37646,264.52734 186.19287,267.48047 180.79248,270.21484 175.24756,272.73633 169.63232,274.96875 163.80029,276.98438 157.82373,278.56836 151.77686,280.00781 145.65576,281.08789 139.39209,281.87891 132.98389,282.45508 126.57568,282.52734 120.09619,282.45508 113.83203,281.87891 107.49609,281.08789 101.3042,280.00781 95.328125,278.56836 89.352051,276.98438 83.592285,274.96875 77.832031,272.73633 72.360352,270.21484 66.888184,267.48047 61.704102,264.52734 56.592285,261.28711 51.768066,257.75977 46.944336,254.08789 42.479981,250.12695 38.088379,246.02344 33.984375,241.70312 30.024414,237.16797 26.352051,232.48828 22.824219,227.51953 19.65625,222.55273 16.560059,217.29492 13.895996,211.96875 11.375977,206.35156 9.144043,200.73633 7.1279297,194.97656 5.472168,189.07227 4.1040039,182.95117 3.0244141,176.83203 2.2324219,170.56836 1.800293,164.30469 1.5839844,157.82422 1.5839844,1.2236328 251.56787,1.2236328 251.56787,157.82422 "
     id="polygon3411"
     transform="matrix(1.2868563,0,0,1.2868563,114.85757,3.0161064)" />
  <path
     style="fill-rule:evenodd"
     clip-rule="evenodd"
     d="M 124.957,252.80949 C 121.43637,241.13479 119.02729,229.3696 118.10047,217.32293 L 436.27443,217.32293 C 435.25399,230.01806 433.02965,241.87623 429.41791,252.80949 L 124.957,252.80949 L 124.957,252.80949 z"
     id="path3413" />
  <path
     style="fill-rule:evenodd"
     clip-rule="evenodd"
     d="M 170.35702,323.22717 C 156.82995,311.18301 147.19361,299.4153 140.89379,288.11007 L 413.57349,288.11007 C 405.69651,300.89821 396.0627,312.5729 384.66446,323.22717 L 170.35702,323.22717 L 170.35702,323.22717 z"
     id="path3415" />
  <polygon
     style="fill-rule:evenodd"
     clip-rule="evenodd"
     points="2.5200195,139.03125 2.5200195,111.59961 249.76904,111.59961 249.76904,139.03125 2.5200195,139.03125 "
     id="polygon3417"
     transform="matrix(1.2868563,0,0,1.2868563,114.85757,3.0161064)" />
  <polygon
     style="fill-rule:evenodd"
     clip-rule="evenodd"
     points="2.5200195,84.023926 2.5200195,56.519531 249.76904,56.519531 249.76904,84.023926 2.5200195,84.023926 "
     id="polygon3419"
     transform="matrix(1.2868563,0,0,1.2868563,114.85757,3.0161064)" />
  <polygon
     style="fill-rule:evenodd"
     clip-rule="evenodd"
     points="2.2324219,29.015625 2.2324219,2.159668 249.76904,2.159668 249.76904,29.015625 2.2324219,29.015625 "
     id="polygon3421"
     transform="matrix(1.2868563,0,0,1.2868563,114.85757,3.0161064)" />
  <path
     style="fill:#138f34;fill-rule:evenodd"
     clip-rule="evenodd"
     d="M 415.89083,276.99335 C 414.03595,275.69643 412.73904,274.676 410.4242,275.32445 C 408.10686,275.97291 406.90294,278.75271 406.25449,280.79108 L 405.51305,280.79108 C 402.73323,277.64179 400.41589,275.97291 396.33916,278.19725 C 393.83834,280.04963 393.09689,283.10842 394.76578,285.79524 C 389.94761,287.6476 384.29499,287.18515 379.75581,284.7748 C 376.23454,282.64344 374.47266,279.0317 373.08275,275.32445 C 371.59985,269.02338 373.45474,263.92873 378.54938,260.03801 C 382.81209,258.46211 383.83253,262.16684 383.27456,265.59511 C 382.90509,267.264 382.16363,268.65391 381.23619,270.13681 C 384.57147,274.76899 388.83418,273.93454 393.09689,270.78527 C 398.00805,272.54465 401.06433,273.1001 404.5856,268.8399 C 406.62396,265.03965 406.62396,263.09429 405.14105,259.20356 C 407.6444,255.03384 408.38585,251.05012 403.93715,247.71484 C 409.21778,244.19359 409.77324,240.11687 407.82787,234.27826 C 409.40377,229.92506 409.12479,226.5898 406.25449,222.78954 C 402.45424,220.84418 400.32288,220.28872 396.24616,221.58564 L 394.94926,220.65819 C 389.85462,218.34335 386.14736,218.99181 382.34963,223.16153 C 379.84629,218.43635 375.2141,218.43635 370.86091,220.47471 C 368.72956,218.34335 366.04274,218.61983 363.35593,219.1778 C 357.42433,221.30665 356.77587,225.10689 358.16578,230.84999 C 354.55404,234.83623 352.88514,238.81995 357.33133,242.71068 C 360.8526,241.41378 363.8184,240.67233 367.06067,243.08266 C 369.28502,247.62185 361.50104,250.77113 358.16578,251.23611 C 351.58823,251.69858 345.47316,247.71484 342.32136,242.06224 C 340.46898,237.43006 341.30343,231.68444 343.52779,227.42425 C 346.39809,229.09062 348.71543,228.72115 351.30924,226.68279 C 353.81258,222.97553 352.60615,220.47471 349.73587,217.32293 L 350.10534,216.58147 C 354.18205,215.84254 357.42433,213.61818 356.03443,209.16948 C 355.29298,207.22412 355.38597,207.22412 353.62659,206.1132 C 348.80842,203.88884 346.39809,206.94765 344.63871,211.20784 L 344.26924,211.57983 C 342.04488,208.986 339.72754,206.76165 336.11579,208.24455 C 333.33598,209.72494 331.57409,213.1532 333.14999,216.212 C 328.61081,218.06437 322.7722,217.97137 318.60249,215.47055 C 313.13586,211.67282 309.24513,203.88884 312.02494,197.4043 C 313.22886,194.43849 317.11958,188.13742 320.82683,191.10323 C 323.14418,194.06651 321.28931,198.05275 319.71592,200.83256 C 323.14418,205.64822 327.2209,204.35131 331.57409,201.5715 C 335.8368,202.87093 338.24464,203.60986 342.13788,200.73957 C 344.7317,197.58778 346.21461,193.51105 343.52779,189.98979 C 346.30759,185.82259 346.58407,181.37389 342.32136,178.13161 C 347.51151,174.61035 348.43644,170.25464 345.84263,164.60454 C 347.60451,160.99029 347.23252,158.39583 345.84263,154.68984 C 342.78634,151.6323 338.80261,150.79848 334.72589,151.91003 C 329.35226,149.22321 324.90356,148.94548 320.82683,153.85602 C 317.77055,149.22321 314.0633,149.03785 309.33813,151.16921 C 305.90985,148.57476 302.10961,149.22321 298.49787,151.35457 C 295.1626,154.68984 295.34608,157.28429 296.18053,161.54637 C 292.65926,165.90145 291.36236,169.51571 295.81106,173.49943 C 298.49787,171.92354 303.03705,171.46107 305.4474,173.8689 C 306.18884,175.3518 305.81687,176.36973 305.07542,177.75964 C 299.4228,182.57781 293.77269,183.41224 287.28563,179.61451 C 284.59882,177.66914 282.28398,175.72127 280.70809,172.75799 C 278.9462,168.0328 279.41118,162.47319 282.00499,158.1181 C 285.61926,160.89792 290.25144,158.1181 290.99289,153.94839 C 290.99289,152.00303 290.52791,151.07621 289.60298,149.31621 C 288.95452,148.66712 288.12008,148.38939 288.12008,147.37022 C 293.6797,146.16568 297.66342,142.7374 293.86569,137.82688 C 291.82734,135.23242 288.67554,134.02788 285.34027,136.2516 C 284.41283,136.99306 282.65345,138.56832 281.63552,140.97741 C 279.41118,138.47532 277.92827,137.27079 274.59238,137.27079 C 270.70102,138.38295 268.94102,142.18132 270.42329,145.88795 C 265.14203,147.9263 257.91477,147.37022 253.56032,143.47887 C 248.64978,137.17842 246.61143,131.34107 250.59515,124.11444 C 252.26341,121.89071 255.04259,118.09172 258.19313,120.40781 C 260.32386,123.27999 258.65622,127.26434 257.35931,130.13652 C 260.50922,134.95469 264.67894,134.02788 268.94102,130.87797 C 274.40764,133.00869 278.39074,133.00869 281.35655,127.44971 C 282.28398,125.04062 282.65345,121.98308 281.17056,119.66699 C 283.4879,115.77563 284.41283,111.04983 279.96664,107.71456 C 285.34027,104.10093 285.71225,100.02421 283.4879,94.186859 C 285.0638,90.851589 285.34027,86.404144 282.74644,83.438969 C 279.22519,81.493606 276.72373,80.659787 272.73938,81.956698 C 268.29256,79.36225 264.02985,78.621427 260.04613,82.327423 L 258.84158,83.438969 C 256.06178,78.899157 251.79968,79.084519 247.35224,80.752155 C 243.27552,78.528431 240.40335,78.713794 236.51199,81.12288 C 233.26908,84.643512 233.54744,86.96023 234.65899,91.500043 C 230.58227,95.206039 229.56309,99.653485 233.82517,103.45248 C 236.78972,101.96958 241.51552,100.95102 243.73924,104.00856 C 244.2947,109.38219 237.25344,111.69828 232.80599,111.97664 C 227.6171,111.60592 223.63337,108.9191 220.2051,105.12011 C 216.77684,100.20957 217.05457,93.167679 220.01974,88.071778 C 221.13129,88.905595 222.42883,89.090958 223.81873,89.090958 C 229.19236,87.701053 230.21154,83.902691 227.6171,79.269882 C 225.94946,77.416885 225.57873,77.694614 227.98782,76.860797 C 233.08372,75.193161 235.12208,71.764896 231.97217,67.59518 C 230.11918,65.186723 227.33937,63.796817 224.28183,66.390637 C 222.33583,67.965904 221.31665,69.355811 220.48283,71.579533 C 218.53747,69.170448 216.77684,67.409818 213.53394,67.780543 C 209.92031,68.799723 207.51122,72.691081 209.54958,76.212342 C 204.36132,77.78761 199.72851,77.602247 194.72497,75.100166 C 191.29734,72.784076 189.44371,69.448806 188.05443,65.556819 C 186.47917,59.071013 188.51753,54.531201 193.42806,50.362113 C 194.81797,49.806025 196.11488,49.71303 197.31942,50.639842 C 199.54314,53.512021 197.87551,57.681736 196.20788,60.368552 C 199.54315,65.186723 203.61987,64.352277 208.06731,61.202369 C 212.60712,62.406912 214.73848,63.51846 218.62984,60.553915 C 221.13129,57.774104 222.33583,53.975113 220.57583,50.45448 C 222.98492,46.285392 223.9111,42.115677 219.27829,38.038956 C 224.55956,34.610691 225.02328,30.719333 223.07728,24.881981 C 224.55956,21.175986 224.83791,17.562358 222.33583,14.227088 C 218.62984,11.63264 215.94302,10.798822 211.58794,11.910369 C 206.7704,9.501284 203.06378,8.852829 198.89469,12.559453 L 197.69015,13.856363 C 194.72497,8.9458244 191.01898,9.2235541 186.20144,11.076552 C 182.77317,8.4821037 178.78882,9.1311869 175.26818,11.261914 C 171.83992,14.504817 172.30301,17.284628 173.13683,21.453716 C 170.91311,23.955796 169.1531,27.013337 170.26465,30.348607 C 170.91311,31.645517 171.65456,32.479963 172.67374,33.499143 C 175.45355,31.830879 179.808,31.367787 182.21708,33.776872 C 184.99689,37.945961 176.28736,41.467222 173.32219,41.930314 C 167.39247,42.301039 162.94503,39.428861 159.05367,35.073783 C 155.44004,29.977882 155.99613,23.306713 158.77531,18.02545 C 161.27739,19.879077 164.0572,19.137626 166.2803,17.191633 C 169.24547,12.744187 169.24547,8.7604619 164.61266,5.7952886 L 118.10047,5.7952886 L 118.10047,43.876307 L 374.0102,333.60496 L 379.47682,329.06327 L 384.85046,324.61708 L 389.66863,319.9849 L 394.02433,315.35021 L 398.19153,310.81102 L 401.89878,306.36484 L 405.23406,302.10213 L 408.10686,298.0254 L 410.79367,294.22515 L 413.01803,290.61341 L 416.35329,284.8678 L 418.29866,281.07007 L 418.94712,279.68016 L 415.89083,276.99335 L 415.89083,276.99335 z"
     id="path3423" />
  <path
     style="fill:none;stroke:#2e8e4e;stroke-width:0.02006209;stroke-miterlimit:2.61310005"
     stroke-miterlimit="2.6131001"
     d="M 415.89083,276.99335 C 414.03595,275.69643 412.73904,274.676 410.4242,275.32445 C 408.10686,275.97291 406.90294,278.75271 406.25449,280.79108 L 405.51305,280.79108 C 402.73323,277.64179 400.41589,275.97291 396.33916,278.19725 C 393.83834,280.04963 393.09689,283.10842 394.76578,285.79524 C 389.94761,287.6476 384.29499,287.18515 379.75581,284.7748 C 376.23454,282.64344 374.47266,279.0317 373.08275,275.32445 C 371.59985,269.02338 373.45474,263.92873 378.54938,260.03801 C 382.81209,258.46211 383.83253,262.16684 383.27456,265.59511 C 382.90509,267.264 382.16363,268.65391 381.23619,270.13681 C 384.57147,274.76899 388.83418,273.93454 393.09689,270.78527 C 398.00805,272.54465 401.06433,273.1001 404.5856,268.8399 C 406.62396,265.03965 406.62396,263.09429 405.14105,259.20356 C 407.6444,255.03384 408.38585,251.05012 403.93715,247.71484 C 409.21778,244.19359 409.77324,240.11687 407.82787,234.27826 C 409.40377,229.92506 409.12479,226.5898 406.25449,222.78954 C 402.45424,220.84418 400.32288,220.28872 396.24616,221.58564 L 394.94926,220.65819 C 389.85462,218.34335 386.14736,218.99181 382.34963,223.16153 C 379.84629,218.43635 375.2141,218.43635 370.86091,220.47471 C 368.72956,218.34335 366.04274,218.61983 363.35593,219.1778 C 357.42433,221.30665 356.77587,225.10689 358.16578,230.84999 C 354.55404,234.83623 352.88514,238.81995 357.33133,242.71068 C 360.8526,241.41378 363.8184,240.67233 367.06067,243.08266 C 369.28502,247.62185 361.50104,250.77113 358.16578,251.23611 C 351.58823,251.69858 345.47316,247.71484 342.32136,242.06224 C 340.46898,237.43006 341.30343,231.68444 343.52779,227.42425 C 346.39809,229.09062 348.71543,228.72115 351.30924,226.68279 C 353.81258,222.97553 352.60615,220.47471 349.73587,217.32293 L 350.10534,216.58147 C 354.18205,215.84254 357.42433,213.61818 356.03443,209.16948 C 355.29298,207.22412 355.38597,207.22412 353.62659,206.1132 C 348.80842,203.88884 346.39809,206.94765 344.63871,211.20784 L 344.26924,211.57983 C 342.04488,208.986 339.72754,206.76165 336.11579,208.24455 C 333.33598,209.72494 331.57409,213.1532 333.14999,216.212 C 328.61081,218.06437 322.7722,217.97137 318.60249,215.47055 C 313.13586,211.67282 309.24513,203.88884 312.02494,197.4043 C 313.22886,194.43849 317.11958,188.13742 320.82683,191.10323 C 323.14418,194.06651 321.28931,198.05275 319.71592,200.83256 C 323.14418,205.64822 327.2209,204.35131 331.57409,201.5715 C 335.8368,202.87093 338.24464,203.60986 342.13788,200.73957 C 344.7317,197.58778 346.21461,193.51105 343.52779,189.98979 C 346.30759,185.82259 346.58407,181.37389 342.32136,178.13161 C 347.51151,174.61035 348.43644,170.25464 345.84263,164.60454 C 347.60451,160.99029 347.23252,158.39583 345.84263,154.68984 C 342.78634,151.6323 338.80261,150.79848 334.72589,151.91003 C 329.35226,149.22321 324.90356,148.94548 320.82683,153.85602 C 317.77055,149.22321 314.0633,149.03785 309.33813,151.16921 C 305.90985,148.57476 302.10961,149.22321 298.49787,151.35457 C 295.1626,154.68984 295.34608,157.28429 296.18053,161.54637 C 292.65926,165.90145 291.36236,169.51571 295.81106,173.49943 C 298.49787,171.92354 303.03705,171.46107 305.4474,173.8689 C 306.18884,175.3518 305.81687,176.36973 305.07542,177.75964 C 299.4228,182.57781 293.77269,183.41224 287.28563,179.61451 C 284.59882,177.66914 282.28398,175.72127 280.70809,172.75799 C 278.9462,168.0328 279.41118,162.47319 282.00499,158.1181 C 285.61926,160.89792 290.25144,158.1181 290.99289,153.94839 C 290.99289,152.00303 290.52791,151.07621 289.60298,149.31621 C 288.95452,148.66712 288.12008,148.38939 288.12008,147.37022 C 293.6797,146.16568 297.66342,142.7374 293.86569,137.82688 C 291.82734,135.23242 288.67554,134.02788 285.34027,136.2516 C 284.41283,136.99306 282.65345,138.56832 281.63552,140.97741 C 279.41118,138.47532 277.92827,137.27079 274.59238,137.27079 C 270.70102,138.38295 268.94102,142.18132 270.42329,145.88795 C 265.14203,147.9263 257.91477,147.37022 253.56032,143.47887 C 248.64978,137.17842 246.61143,131.34107 250.59515,124.11444 C 252.26341,121.89071 255.04259,118.09172 258.19313,120.40781 C 260.32386,123.27999 258.65622,127.26434 257.35931,130.13652 C 260.50922,134.95469 264.67894,134.02788 268.94102,130.87797 C 274.40764,133.00869 278.39074,133.00869 281.35655,127.44971 C 282.28398,125.04062 282.65345,121.98308 281.17056,119.66699 C 283.4879,115.77563 284.41283,111.04983 279.96664,107.71456 C 285.34027,104.10093 285.71225,100.02421 283.4879,94.186859 C 285.0638,90.851589 285.34027,86.404144 282.74644,83.438969 C 279.22519,81.493606 276.72373,80.659787 272.73938,81.956698 C 268.29256,79.36225 264.02985,78.621427 260.04613,82.327423 L 258.84158,83.438969 C 256.06178,78.899157 251.79968,79.084519 247.35224,80.752155 C 243.27552,78.528431 240.40335,78.713794 236.51199,81.12288 C 233.26908,84.643512 233.54744,86.96023 234.65899,91.500043 C 230.58227,95.206039 229.56309,99.653485 233.82517,103.45248 C 236.78972,101.96958 241.51552,100.95102 243.73924,104.00856 C 244.2947,109.38219 237.25344,111.69828 232.80599,111.97664 C 227.6171,111.60592 223.63337,108.9191 220.2051,105.12011 C 216.77684,100.20957 217.05457,93.167679 220.01974,88.071778 C 221.13129,88.905595 222.42883,89.090958 223.81873,89.090958 C 229.19236,87.701053 230.21154,83.902691 227.6171,79.269882 C 225.94946,77.416885 225.57873,77.694614 227.98782,76.860797 C 233.08372,75.193161 235.12208,71.764896 231.97217,67.59518 C 230.11918,65.186723 227.33937,63.796817 224.28183,66.390637 C 222.33583,67.965904 221.31665,69.355811 220.48283,71.579533 C 218.53747,69.170448 216.77684,67.409818 213.53394,67.780543 C 209.92031,68.799723 207.51122,72.691081 209.54958,76.212342 C 204.36132,77.78761 199.72851,77.602247 194.72497,75.100166 C 191.29734,72.784076 189.44371,69.448806 188.05443,65.556819 C 186.47917,59.071013 188.51753,54.531201 193.42806,50.362113 C 194.81797,49.806025 196.11488,49.71303 197.31942,50.639842 C 199.54314,53.512021 197.87551,57.681736 196.20788,60.368552 C 199.54315,65.186723 203.61987,64.352277 208.06731,61.202369 C 212.60712,62.406912 214.73848,63.51846 218.62984,60.553915 C 221.13129,57.774104 222.33583,53.975113 220.57583,50.45448 C 222.98492,46.285392 223.9111,42.115677 219.27829,38.038956 C 224.55956,34.610691 225.02328,30.719333 223.07728,24.881981 C 224.55956,21.175986 224.83791,17.562358 222.33583,14.227088 C 218.62984,11.63264 215.94302,10.798822 211.58794,11.910369 C 206.7704,9.501284 203.06378,8.852829 198.89469,12.559453 L 197.69015,13.856363 C 194.72497,8.9458244 191.01898,9.2235541 186.20144,11.076552 C 182.77317,8.4821037 178.78882,9.1311869 175.26818,11.261914 C 171.83992,14.504817 172.30301,17.284628 173.13683,21.453716 C 170.91311,23.955796 169.1531,27.013337 170.26465,30.348607 C 170.91311,31.645517 171.65456,32.479963 172.67374,33.499143 C 175.45355,31.830879 179.808,31.367787 182.21708,33.776872 C 184.99689,37.945961 176.28736,41.467222 173.32219,41.930314 C 167.39247,42.301039 162.94503,39.428861 159.05367,35.073783 C 155.44004,29.977882 155.99613,23.306713 158.77531,18.02545 C 161.27739,19.879077 164.0572,19.137626 166.2803,17.191633 C 169.24547,12.744187 169.24547,8.7604619 164.61266,5.7952886 L 118.10047,5.7952886 L 118.10047,43.876307 L 374.0102,333.60496 L 379.47682,329.06327 L 384.85046,324.61708 L 389.66863,319.9849 L 394.02433,315.35021 L 398.19153,310.81102 L 401.89878,306.36484 L 405.23406,302.10213 L 408.10686,298.0254 L 410.79367,294.22515 L 413.01803,290.61341 L 416.35329,284.8678 L 418.29866,281.07007 L 418.94712,279.68016 L 415.89083,276.99335 L 415.89083,276.99335 z"
     id="path3425" />
  <path
     style="fill-rule:evenodd"
     clip-rule="evenodd"
     d="M 280.4291,367.79211 L 285.61926,367.60863 L 293.95617,367.05317 L 302.01913,366.03274 L 309.98658,364.64284 L 317.86103,362.79046 L 325.64501,360.56612 L 333.14999,358.06529 L 340.46898,355.19249 L 347.78798,351.9502 L 354.64452,348.24295 L 361.50104,344.44522 L 368.08111,340.18251 L 374.47266,335.64333 L 380.58775,330.82516 L 386.51934,325.728 L 392.07645,320.35437 L 397.54308,314.61127 L 402.54724,308.77266 L 407.45841,302.65758 L 411.90459,296.26352 L 416.2603,289.68597 L 420.15104,282.92243 L 423.67229,275.87991 L 426.91457,268.7469 L 429.88037,261.33492 L 432.47419,253.82993 L 434.60555,246.04596 L 436.45791,238.26449 L 437.94082,230.20154 L 438.96125,222.0481 L 439.51671,213.80166 L 439.79319,205.46474 L 439.79319,4.9614713 L 439.79319,4.9614713 L 439.70271,3.0161064 L 118.84192,3.0161064 L 118.84192,3.0161064 L 114.85757,3.0161064 L 114.85757,205.46474 L 115.04293,213.80166 L 115.78438,222.0481 L 116.80356,230.20154 L 118.19347,238.26449 L 120.04647,246.04596 L 122.17719,253.82993 L 124.77164,261.33492 L 127.64382,268.7469 L 130.97972,275.87991 L 134.59272,282.92243 L 138.4847,289.68597 L 142.65379,296.26352 L 147.19361,302.65758 L 152.01178,308.77266 L 157.20067,314.61127 L 162.48194,320.35437 L 168.13392,325.728 L 174.06364,330.82516 L 180.17872,335.64333 L 186.47917,340.18251 L 193.05734,344.44522 L 199.91387,348.24295 L 206.95576,351.9502 L 214.09003,355.19249 L 221.50202,358.06529 L 229.1,360.56612 L 236.69735,362.79046 L 244.57306,364.64284 L 252.63351,366.03274 L 260.69459,367.05317 L 269.03339,367.60863 L 274.22228,367.79211 L 277.37219,367.79211 L 280.4291,367.79211 L 280.4291,367.79211 z M 395.41424,296.17303 C 393.28288,299.04332 392.07645,306.5483 393.09689,311.64547 L 378.73537,295.24559 C 383.73953,297.28396 389.48263,297.74641 395.04226,295.80105 L 395.41424,296.17303 L 395.41424,296.17303 z M 396.80414,309.32812 C 396.43216,304.69594 397.72907,297.19095 401.99178,293.02124 L 399.39796,290.05795 C 388.27872,296.17303 376.69701,292.1868 370.76793,284.49833 C 364.92932,276.99335 364.83632,265.31864 371.23038,257.99964 L 369.00604,255.40331 C 359.09322,260.59347 347.13953,258.5551 340.46898,249.93669 C 334.07744,241.69277 335.00237,230.66652 340.56199,222.97553 L 338.06116,219.91925 C 325.08955,227.60771 309.89359,219.91925 306.27932,209.07648 C 304.15049,202.68494 304.05749,195.45642 309.89359,187.86094 L 307.57624,185.45061 C 296.36651,190.73124 286.08171,188.69288 278.9462,179.98398 C 273.2031,173.03445 271.53483,161.26802 278.66973,152.37374 L 276.63073,150.05703 C 267.55111,154.22675 257.63704,155.15293 248.55679,145.05413 C 240.95943,135.97387 241.23716,126.43053 247.44524,116.70182 L 245.22152,114.10737 C 237.25344,117.99873 225.94946,120.50081 216.9622,109.93828 L 216.9622,110.03065 C 215.20157,107.4362 214.09003,105.21311 213.16321,102.06257 C 211.03248,94.835313 213.53394,87.052598 217.33293,82.234427 L 215.20157,79.82597 C 204.63905,84.643512 194.35488,84.458151 186.20144,74.451712 C 180.91955,67.873538 179.90036,57.403379 186.38617,46.933848 L 184.34781,44.61713 C 173.87828,49.620663 163.50112,48.693849 155.71777,39.614224 C 148.76887,31.367787 149.88105,19.415355 155.53304,11.725007 L 153.21632,8.9458245 C 143.20988,14.69018 134.22262,12.281095 128.47764,8.0190116 L 164.4273,8.112007 C 168.13392,9.6866466 166.37329,21.268354 157.84913,15.338635 C 153.58704,22.751255 153.03096,30.997062 158.59058,37.668231 C 165.07638,45.35858 176.28736,46.285392 183.42162,39.243498 C 184.71854,37.945961 185.27462,34.88842 184.53317,33.31378 C 182.77317,30.348607 175.54591,28.958702 173.13683,31.090058 C 170.26465,28.032517 173.04446,24.325893 175.63891,22.009804 C 170.54238,12.188728 182.12409,8.4821041 185.55235,13.763367 C 188.70289,11.91037 193.98415,10.057372 196.20788,14.96791 C 193.89116,17.655354 192.31652,21.361348 193.79879,24.604252 C 195.0957,27.383434 199.08005,28.032518 200.93305,25.623432 C 203.4345,22.195167 203.06378,18.02545 201.02542,13.393271 C 204.82441,10.242735 208.16031,11.91037 211.58794,14.69018 C 216.77684,9.4089172 226.41255,18.766901 220.39047,24.974977 C 223.07728,28.032518 222.70656,32.572331 219.74201,35.352141 C 217.70303,34.054603 215.94302,32.85006 212.97785,33.406148 C 210.75413,33.776874 207.69659,34.88842 207.51122,37.390501 C 206.95576,44.61713 215.29457,43.412587 219.37129,40.725772 C 221.50202,43.505582 220.39047,46.470127 218.16675,49.71303 C 222.42883,58.330192 214.64548,63.333097 207.60422,58.607922 C 205.75122,61.573095 201.11841,62.870005 198.70933,60.275556 C 200.2846,57.032654 201.39614,53.882746 199.54314,50.269118 C 194.63261,44.339399 189.25898,50.73221 187.22062,54.808931 C 183.51399,62.49928 185.64535,67.59518 190.18516,73.710261 C 194.81797,79.918338 205.84359,80.752155 212.23703,77.323889 C 207.97494,71.950259 214.36775,65.742182 218.8152,72.691081 L 218.8152,72.691081 L 219.83438,74.173981 L 223.16965,72.413351 C 222.98492,69.170448 226.96864,65.27909 229.93381,68.799723 C 234.01054,73.525526 225.67173,75.378525 225.20801,75.285529 L 223.72574,78.065339 C 230.39691,82.790515 225.94946,90.573231 219.46366,85.107233 C 214.83085,90.666226 214.36775,99.097397 217.98138,105.30547 C 222.24347,111.32819 230.58227,116.23873 238.08726,112.90283 C 247.35224,108.9191 246.05534,104.10093 245.31389,102.52566 C 243.83161,99.653485 237.34581,99.097397 234.1959,101.04339 C 231.41609,97.98585 234.38126,94.465217 236.88271,92.148499 C 232.62063,81.956698 242.81243,78.713795 247.07451,83.068245 C 250.40979,81.40061 255.22796,80.196067 257.35931,84.828876 C 254.95023,87.51569 253.83805,91.314682 255.13559,94.649952 C 256.61787,97.2444 259.95313,97.522758 262.26985,95.576764 C 265.32739,90.758594 264.58594,87.794049 262.36221,83.438971 C 266.06822,80.196067 269.68184,81.864331 273.01774,84.643513 C 278.9462,80.196067 286.45118,86.49651 281.26354,94.186859 C 283.11591,97.522758 283.67389,101.87721 280.5221,104.84238 C 278.57673,103.45248 277.27919,102.89639 274.31465,102.98938 C 272.09092,103.08175 267.18038,104.00856 268.19957,108.9191 C 269.12638,113.55128 275.98229,112.71746 280.05963,110.12365 C 282.28398,112.99582 281.819,116.05336 279.31818,120.31545 C 282.46746,126.70826 276.353,133.19407 268.38493,128.19116 C 266.71729,130.69261 261.89912,132.73096 259.6754,129.95116 C 260.97232,126.33753 261.99149,123.37299 260.23149,119.85235 C 256.24714,113.92201 250.03969,120.13008 248.00133,124.2068 C 244.3877,131.43406 246.88916,137.36378 251.24422,143.57122 C 255.69168,149.96466 267.08802,150.05703 273.48083,146.62877 C 269.31174,140.42132 276.07527,135.23242 280.80109,142.92278 L 284.04336,141.4405 C 283.85737,138.10461 288.76853,135.23242 291.73433,138.66069 C 295.81106,143.47887 287.65761,145.42422 287.19263,145.33186 L 285.98873,148.38939 C 292.75226,153.94839 286.82316,160.34183 281.44953,155.43129 C 276.07527,162.47319 276.44601,171.36808 281.54254,177.57616 C 291.64133,186.93351 299.70179,184.89515 306.46533,179.33553 C 307.76223,178.03861 308.31769,175.07282 307.48575,173.40643 C 305.72386,170.34764 300.44324,169.60619 296.27351,171.08909 C 293.49371,169.05073 295.62507,164.88101 298.59087,162.1942 C 293.86569,152.18839 305.4474,148.66712 308.59668,153.85602 C 312.5804,151.44694 316.10167,150.42776 319.34394,155.15293 C 317.0291,157.84037 315.36022,161.54637 316.9361,164.78802 C 318.14002,167.56782 321.75429,168.21628 323.88564,165.99445 C 327.49738,162.2872 326.38645,158.02512 324.16211,153.67066 C 328.05284,150.98385 331.20464,151.81767 334.5399,154.59747 C 340.00653,150.79848 348.80842,156.17212 343.62078,164.69754 C 345.65915,168.0328 345.93561,172.85097 342.78634,175.4448 C 338.70962,172.66498 328.51781,172.94147 331.01863,179.98398 C 332.59453,184.70916 339.17208,183.22625 342.60034,181.00442 C 344.9177,183.9677 343.43479,186.09906 341.39644,189.89931 C 345.84263,198.42222 338.52363,203.51937 331.11164,198.88468 C 328.88728,202.12948 323.97612,203.33338 322.12374,200.64657 C 323.69964,197.31131 324.71757,194.06651 322.95819,190.54777 C 321.28931,188.13742 317.86103,187.58197 315.7322,189.15786 C 306.00286,196.75584 308.41068,207.4101 313.78432,213.89465 C 319.34394,220.56771 329.16627,220.84418 335.65081,217.41591 C 332.22255,209.91093 339.35807,206.66866 343.52779,213.89465 L 346.49107,212.69075 C 346.30759,209.35547 350.6608,205.27875 353.71959,208.70701 C 357.05486,213.06272 349.73587,215.10108 349.27089,215.00809 L 347.78798,218.06437 C 355.29298,224.9209 346.58407,228.99762 343.2488,224.45844 C 337.5057,230.94299 338.61662,243.17315 343.3418,246.9734 C 347.60451,250.49466 356.59239,258.5551 368.1741,248.3633 C 369.47101,247.0664 369.84048,244.37958 369.00604,242.80368 C 367.43265,238.91295 359.83467,238.63396 357.51732,240.67233 C 355.0165,237.79953 357.61032,234.09478 360.01815,231.68444 C 356.3134,220.75119 367.52313,218.25036 370.86091,223.06853 C 374.56566,220.65819 379.01436,220.19573 381.05271,224.55143 C 378.64238,227.23824 376.79,231.77744 379.01436,234.55724 C 380.77374,236.6886 384.48099,237.52304 386.14736,234.92671 C 389.38964,229.73907 388.09273,227.14526 385.7779,222.69656 C 389.29916,219.73326 393.00389,221.49264 395.96969,223.99597 C 403.38169,220.19573 409.68276,226.4968 405.69651,234.55724 C 407.4584,237.70652 407.17942,242.71068 404.49261,244.84204 C 402.54724,243.54513 399.95342,242.80368 396.98762,242.98967 C 394.76578,243.63813 391.70698,245.30451 392.35544,248.4563 C 393.46636,254.29239 400.69488,252.53301 403.93715,250.40166 C 404.21613,250.86413 404.6786,251.88457 404.95759,252.53301 C 406.06851,254.57138 404.30913,257.07221 402.73323,259.38955 C 406.90294,265.9671 401.25033,273.47208 392.72742,268.56091 C 390.22409,270.78527 385.87088,273.00961 383.73953,269.95082 C 385.31292,266.61554 386.33335,263.46627 384.57147,259.94501 C 382.81209,257.3512 379.10484,256.9792 377.34546,258.36911 C 367.52313,266.15309 369.65449,276.1589 375.12112,283.38489 C 379.47682,289.96496 390.77955,290.05795 397.3596,286.53669 C 392.44843,280.79108 400.60188,274.95498 404.6786,283.2919 L 408.47633,282.27397 C 407.92087,277.08633 412.92503,275.13846 416.72276,280.51461 L 412.73904,287.6476 L 408.75532,294.13467 L 404.21613,300.24975 L 399.58144,306.27184 L 396.80414,309.32812 L 396.80414,309.32812 z M 133.66653,15.894722 C 138.39171,17.191633 143.67297,16.636173 148.86187,15.153273 L 149.1396,15.431631 C 147.37897,18.674534 145.89669,24.881981 147.56433,31.738513 L 133.66653,15.894722 L 133.66653,15.894722 z M 163.59348,50.083756 C 168.59702,51.936753 174.06364,52.122116 179.90036,50.639842 L 180.17872,50.825206 C 177.76964,56.013474 177.30654,61.665462 178.41809,66.946726 L 163.59348,50.083756 L 163.59348,50.083756 z M 194.72497,85.47733 C 199.8215,87.330328 205.3805,87.51569 210.56876,85.570325 L 210.75413,85.848056 C 208.34567,91.129319 207.78958,96.225219 208.90113,101.69184 L 194.72497,85.47733 L 194.72497,85.47733 z M 225.48637,120.50081 C 230.39691,122.07545 235.77054,121.98308 240.86644,120.03709 L 241.0518,120.40781 C 238.55035,125.41135 238.27262,131.2487 239.56953,136.62233 L 225.48637,120.50081 L 225.48637,120.50081 z M 255.87641,155.15293 C 260.69458,157.1913 266.34656,157.74739 272.09092,155.70902 L 272.36928,155.98675 C 269.77484,160.71256 269.40411,166.6429 270.70102,172.10953 L 255.87641,155.15293 L 255.87641,155.15293 z M 287.10215,190.82424 C 292.1968,192.58613 297.84941,192.76961 303.13005,191.19622 L 303.31604,191.3797 C 301.18469,196.29087 300.44324,202.03648 301.55415,207.31712 L 287.10215,190.82424 L 287.10215,190.82424 z M 317.21258,225.10689 C 322.95819,227.33125 329.16627,227.51473 333.79845,226.03434 L 334.16792,226.5898 C 331.85308,231.12898 331.29762,237.05806 332.68753,242.80368 L 317.21258,225.10689 L 317.21258,225.10689 z M 348.43644,260.68646 C 353.5336,262.63182 359.09322,262.81781 364.46685,261.14893 L 364.55985,261.24192 C 362.1495,266.33657 361.96602,272.26816 363.26293,277.64179 L 348.43644,260.68646 L 348.43644,260.68646 z M 121.99183,8.0190116 L 118.84192,8.0190116 L 118.84192,10.242734 L 388.64819,318.13001 L 389.29916,317.57455 L 391.33751,315.4432 L 121.99183,8.0190116 L 121.99183,8.0190116 z M 168.96774,6.9074644 C 173.32219,13.300275 167.6702,22.843622 159.79449,20.712894 C 156.82995,27.105705 159.42439,33.035423 161.55512,34.796054 L 161.55512,34.88842 C 162.75966,36.092963 163.77884,37.019776 165.35411,37.945961 C 174.80446,43.227225 181.38327,36.834413 180.64181,35.073783 C 180.45645,34.425328 176.47273,32.757692 172.48837,36.000596 C 169.5232,33.962236 164.4273,29.144065 171.0061,21.082991 C 167.85557,10.242734 178.88118,4.7761085 186.7569,8.7604619 C 190.92661,6.8144689 195.92952,7.8336489 197.87551,10.61346 C 202.13759,7.1851941 207.41886,7.3705567 211.95867,9.6866467 C 223.35501,7.9266445 228.54391,16.172453 225.30101,24.974977 C 227.24637,29.885515 226.50555,34.703686 222.42883,38.316686 C 225.30101,42.02331 224.65255,45.729306 222.79955,49.898393 C 226.04246,58.978647 217.51829,68.151268 207.88195,63.148362 C 203.06378,67.59518 196.5786,66.020541 193.61343,59.997827 C 195.92952,57.959467 197.31942,53.234291 196.02251,52.122116 C 194.35488,51.19593 191.20434,54.438834 189.9998,58.14483 C 188.33216,63.333097 189.9998,67.409818 193.3357,71.208808 C 196.5786,74.914804 201.39614,76.119346 206.86277,74.914804 C 205.84359,67.502814 214.18239,62.22155 220.20511,68.151268 C 223.26265,62.962372 227.98782,61.387732 232.713,65.927545 C 237.53117,70.560353 234.75136,76.583067 229.65546,78.528433 C 233.82517,85.199601 227.98782,92.982316 220.94656,90.758594 C 217.70303,99.28276 221.03892,104.65702 226.78328,107.99229 C 234.65899,112.6251 243.18316,106.69538 241.79325,104.56402 C 240.86644,103.26711 236.0489,103.26711 233.82517,106.32465 C 233.82517,106.41702 224.09646,99.746481 232.3429,90.943957 C 229.37773,81.308243 238.45798,74.359345 247.6306,78.528433 C 253.00423,76.304709 256.34014,77.78761 259.11931,80.474426 C 263.3814,77.046159 268.4773,77.32389 273.01774,79.732975 C 284.13635,77.231522 289.04752,85.384964 285.80274,94.465217 C 287.84109,100.39494 287.00917,103.73021 283.20891,107.80693 C 285.80274,111.51355 285.61926,115.59027 283.58089,119.48163 C 286.73017,129.58043 278.02127,136.99306 269.40411,133.19407 C 261.15768,136.90006 258.84158,135.69614 254.85723,130.04415 C 256.5255,127.9128 258.74922,123.27999 256.24714,121.70535 C 255.0426,120.87091 251.33659,125.04062 250.68815,128.83961 C 249.66896,135.60315 251.61432,136.62233 254.30177,141.06978 C 258.37849,145.05413 262.45521,145.42422 268.1072,144.40504 C 266.43893,137.91986 274.22228,131.71179 281.44953,137.54915 C 284.41283,132.45262 289.50998,131.71179 294.51415,135.97387 C 298.96034,139.86523 297.20096,146.72177 291.26935,148.38939 C 292.28979,149.87167 293.12424,151.81767 293.12424,153.85602 C 293.12424,156.91357 291.64135,158.30348 289.50999,159.87874 C 288.02708,160.99029 284.87781,161.54637 282.93244,160.89792 C 280.89408,166.36392 281.26354,170.07117 284.41283,174.97982 C 295.1626,185.35761 304.24097,176.9277 303.8715,175.25881 C 303.31604,173.22044 296.36651,173.96189 295.62507,176.18625 C 295.62507,176.18625 287.75061,168.40227 293.95617,161.08328 C 291.36236,149.50157 302.66758,145.05413 309.7076,148.94548 C 317.11958,145.88795 320.91984,150.70549 321.1963,150.52075 C 325.45902,146.9995 330.55618,147.46259 335.09536,149.87167 C 345.28717,146.62877 351.9577,156.63584 347.88098,165.52947 C 350.6608,170.07117 349.36388,173.8689 345.65915,178.3176 C 348.15997,182.20834 347.97398,186.00607 345.93561,189.89931 C 349.64287,198.60821 341.95189,207.87258 331.94608,203.79585 C 325.27303,207.03813 321.93775,207.59609 317.11958,200.64657 C 318.69548,199.07067 321.28931,193.79004 319.06747,192.30713 C 317.86104,191.56569 314.80476,194.71748 313.60084,198.42222 C 311.83895,203.60986 314.1563,207.03813 316.75011,211.39383 C 320.91984,215.47055 325.27303,216.305 330.55618,214.91509 C 330.1842,211.9493 331.85308,208.33754 334.90937,206.66866 C 337.78217,205.09276 341.21045,205.09276 343.89726,208.15155 C 346.67706,202.77792 352.79215,201.29503 356.96186,206.0202 C 360.29714,209.81794 357.8893,216.305 353.16413,218.15736 C 357.51732,224.45844 351.58823,232.42588 344.54571,230.01806 C 342.78634,233.90879 342.87933,240.76532 346.02862,244.00759 C 349.45688,247.62185 355.29298,251.14312 361.68704,248.08431 C 361.78003,247.89832 363.91139,246.88041 365.02231,245.95296 C 365.48478,245.4905 365.48478,244.56306 365.67077,244.65605 C 363.6324,242.89667 360.48313,243.63813 360.48313,243.63813 C 359.92767,243.8216 359.36969,243.8216 358.44476,245.21151 C 358.44476,245.21151 353.99606,244.10059 352.97814,240.11687 C 352.32968,237.61605 351.9577,234.65024 355.94142,230.29453 C 353.71959,220.28872 362.1495,213.98765 371.1374,218.15736 C 374.56566,216.86046 379.47682,216.11901 382.6261,220.00974 C 387.63026,215.93302 391.89297,216.86046 396.52515,219.26829 C 407.92087,217.13945 412.83204,225.29289 410.05223,234.09478 C 411.62812,239.93088 410.97966,243.73112 407.36541,247.99132 C 410.14523,252.90248 409.49677,255.21984 407.45841,259.20356 C 410.70069,267.91246 403.1957,277.36282 393.46636,273.1001 C 387.72326,276.62135 382.6261,276.62135 378.64238,269.85783 C 380.31127,268.28444 382.81209,263.09429 380.86672,261.70439 C 379.19784,260.77946 375.95557,264.85618 374.75165,268.46792 C 373.82421,274.583 375.4931,276.71436 378.27291,280.88407 C 382.5331,285.14678 385.59191,285.23978 392.07645,284.68181 C 391.24453,281.62553 392.8179,277.64179 395.87671,276.0659 C 398.74951,274.49 402.54724,274.76899 405.42005,277.73479 C 407.82787,272.54465 412.18358,270.78527 418.76113,276.80736 L 420.15104,274.12054 L 423.30283,267.07802 L 426.17311,259.94501 L 428.58346,252.53301 L 430.71481,245.02803 L 432.47419,237.43006 L 433.8641,229.55308 L 434.88454,221.58564 L 435.62599,213.52518 L 435.71646,205.46474 L 435.71646,6.9074644 L 168.96774,6.9074644 L 168.96774,6.9074644 z M 386.05436,320.54036 L 118.84192,15.70936 L 118.84192,29.977882 L 379.75581,326.19298 L 383.73953,322.76471 L 386.05436,320.54036 L 386.05436,320.54036 z M 377.25247,328.32182 L 118.84192,35.259145 L 118.84192,41.652585 L 374.19619,330.73216 L 377.25247,328.32182 L 377.25247,328.32182 z M 118.84192,47.767665 L 371.04439,333.23298 L 365.85676,336.84725 L 359.46269,340.92396 L 352.88514,344.81469 L 346.02862,348.24295 L 338.98609,351.48524 L 331.85308,354.26504 L 324.4411,356.76837 L 316.9361,358.89973 L 309.24513,360.75211 L 301.46115,362.04901 L 293.49371,362.97645 L 285.52626,363.71539 L 277.37219,363.80839 L 269.12638,363.71539 L 261.06531,362.97645 L 253.18959,362.04901 L 245.40688,360.75211 L 237.71653,358.89973 L 230.21155,356.76837 L 222.89192,354.26504 L 215.75766,351.48524 L 208.71577,348.24295 L 201.85986,344.81469 L 195.18869,340.92396 L 188.79526,336.84725 L 182.58781,332.39853 L 176.56509,327.67336 L 170.82074,322.76471 L 165.35411,317.57455 L 160.07285,312.01493 L 155.06932,306.27184 L 150.34414,300.24975 L 145.98969,294.13467 L 141.81997,287.6476 L 138.02098,280.97707 L 134.59272,274.12054 L 131.35044,267.07802 L 128.57063,259.94501 L 126.06855,252.53301 L 123.93782,245.02803 L 122.08483,237.43006 L 120.69492,229.55308 L 119.67574,221.58564 L 119.11965,213.52518 L 118.84192,205.46474 L 118.84192,47.767665 L 118.84192,47.767665 z"
     id="path3427" />
  <polygon
     style="fill-rule:evenodd"
     clip-rule="evenodd"
     points="78.120117,12.023926 70.056152,19.151855 71.855957,20.95166 79.632324,14.039551 78.120117,12.023926 "
     id="polygon3429"
     transform="matrix(1.2868563,0,0,1.2868563,114.85757,3.0161064)" />
  <polygon
     style="fill-rule:evenodd"
     clip-rule="evenodd"
     points="77.832031,40.104004 70.632324,32.255859 68.832031,33.767578 76.032227,41.903809 77.832031,40.104004 "
     id="polygon3431"
     transform="matrix(1.2868563,0,0,1.2868563,114.85757,3.0161064)" />
  <polygon
     style="fill-rule:evenodd"
     clip-rule="evenodd"
     points="59.256348,18.791992 52.056152,11.087891 50.328125,12.527832 57.240234,20.591797 59.256348,18.791992 "
     id="polygon3433"
     transform="matrix(1.2868563,0,0,1.2868563,114.85757,3.0161064)" />
  <path
     style="fill-rule:evenodd"
     clip-rule="evenodd"
     d="M 191.11197,36.92678 L 191.3897,35.815233 L 191.66743,34.703686 L 192.13115,33.776874 L 192.96497,33.035423 L 193.79879,32.2946 L 194.72497,31.830881 L 195.74415,31.645518 L 196.85633,31.460783 L 198.06087,31.645518 L 199.17242,31.830881 L 200.09923,32.2946 L 200.93305,33.035423 L 201.6745,33.776874 L 202.22996,34.703686 L 202.50832,35.815233 L 202.69368,36.92678 L 202.50832,38.038956 L 202.22996,39.243498 L 201.6745,40.169684 L 200.93305,41.00413 L 200.09923,41.652585 L 199.17242,42.208045 L 198.06087,42.578769 L 196.85633,42.671765 L 195.74415,42.578769 L 194.72497,42.208043 L 193.79879,41.652585 L 192.96497,41.00413 L 192.13115,40.169684 L 191.66743,39.243498 L 191.3897,38.038956 L 191.11197,36.92678 L 191.11197,36.92678 z M 196.85633,39.891954 L 198.06087,39.706592 L 199.08005,38.965141 L 199.63614,38.038956 L 200.00624,36.92678 L 199.63614,35.9076 L 199.08005,34.981416 L 198.06087,34.425328 L 196.85633,34.147599 L 195.83715,34.425328 L 195.0957,34.981416 L 194.44724,35.9076 L 194.26188,36.92678 L 194.44724,38.038956 L 195.0957,38.965141 L 195.83715,39.706592 L 196.85633,39.891954 L 196.85633,39.891954 z"
     id="path3435" />
  <polygon
     style="fill-rule:evenodd"
     clip-rule="evenodd"
     points="125.35205,94.535645 118.44043,86.47168 116.42432,88.271973 123.55225,95.975586 125.35205,94.535645 "
     id="polygon3437"
     transform="matrix(1.2868563,0,0,1.2868563,114.85757,3.0161064)" />
  <polygon
     style="fill-rule:evenodd"
     clip-rule="evenodd"
     points="125.35205,66.743652 117.57617,73.511719 119.08838,75.312012 127.15186,68.543945 125.35205,66.743652 "
     id="polygon3439"
     transform="matrix(1.2868563,0,0,1.2868563,114.85757,3.0161064)" />
  <polygon
     style="fill-rule:evenodd"
     clip-rule="evenodd"
     points="106.77637,73.295898 99.648438,65.159668 97.848145,66.959961 104.76025,74.807617 106.77637,73.295898 "
     id="polygon3441"
     transform="matrix(1.2868563,0,0,1.2868563,114.85757,3.0161064)" />
  <path
     style="fill-rule:evenodd"
     clip-rule="evenodd"
     d="M 252.26341,106.88074 L 252.54114,105.76857 L 252.91186,104.65702 L 253.46732,103.63784 L 254.11641,102.80402 L 254.95023,102.15494 L 255.87641,101.59948 L 257.08095,101.32112 L 258.10013,101.13576 L 259.21231,101.32112 L 260.41685,101.59948 L 261.34303,102.15494 L 262.26985,102.80402 L 262.9183,103.63784 L 263.3814,104.65702 L 263.75212,105.76857 L 263.84512,106.88074 L 263.75212,107.99229 L 263.3814,109.10446 L 262.9183,110.12365 L 262.26985,110.95746 L 261.34303,111.60592 L 260.41685,112.162 L 259.21231,112.53273 L 258.10013,112.6251 L 257.08095,112.53273 L 255.87641,112.162 L 254.95023,111.60592 L 254.11641,110.95746 L 253.46732,110.12365 L 252.91186,109.10446 L 252.54114,107.99229 L 252.26341,106.88074 L 252.26341,106.88074 z M 258.10013,109.65992 L 259.30468,109.38219 L 260.23149,108.82611 L 260.87995,107.89992 L 261.15768,106.88074 L 260.87995,105.76857 L 260.23149,104.84238 L 259.30468,104.10093 L 258.10013,103.91557 L 257.08095,104.10093 L 256.24714,104.84238 L 255.69168,105.76857 L 255.41332,106.88074 L 255.69168,107.89992 L 256.24714,108.82611 L 257.08095,109.38219 L 258.10013,109.65992 L 258.10013,109.65992 z"
     id="path3443" />
  <polygon
     style="fill-rule:evenodd"
     clip-rule="evenodd"
     points="173.521,149.25586 166.39209,141.19141 164.59131,142.99219 171.72021,150.69531 173.521,149.25586 "
     id="polygon3445"
     transform="matrix(1.2868563,0,0,1.2868563,114.85757,3.0161064)" />
  <polygon
     style="fill-rule:evenodd"
     clip-rule="evenodd"
     points="173.15967,121.67969 165.45654,128.5918 166.896,130.39258 174.96045,123.48047 173.15967,121.67969 "
     id="polygon3447"
     transform="matrix(1.2868563,0,0,1.2868563,114.85757,3.0161064)" />
  <polygon
     style="fill-rule:evenodd"
     clip-rule="evenodd"
     points="154.94482,128.23242 147.81592,120.16797 146.01709,121.67969 152.92725,129.74414 154.94482,128.23242 "
     id="polygon3449"
     transform="matrix(1.2868563,0,0,1.2868563,114.85757,3.0161064)" />
  <path
     style="fill-rule:evenodd"
     clip-rule="evenodd"
     d="M 314.61876,177.29717 L 314.71176,176.27924 L 314.99075,175.16581 L 315.54621,174.33136 L 316.10167,173.49943 L 317.0291,172.75799 L 317.95403,172.29301 L 318.88147,172.01652 L 320.08539,172.01652 L 321.1963,172.01652 L 322.40273,172.29301 L 323.32766,172.75799 L 324.2551,173.49943 L 324.90356,174.33136 L 325.36603,175.16581 L 325.73801,176.27924 L 325.83099,177.29717 L 325.73801,178.59407 L 325.36603,179.61451 L 324.90356,180.63244 L 324.2551,181.46689 L 323.32766,182.11534 L 322.40273,182.67079 L 321.1963,183.04277 L 320.08539,183.04277 L 318.88147,183.04277 L 317.95403,182.67079 L 317.0291,182.11534 L 316.10167,181.46689 L 315.54621,180.63244 L 314.99075,179.61451 L 314.71176,178.59407 L 314.61876,177.29717 L 314.61876,177.29717 z M 320.36438,180.44645 L 321.47529,180.16997 L 322.21674,179.52152 L 322.95819,178.59407 L 323.14418,177.29717 L 322.95819,176.27924 L 322.21674,175.4448 L 321.47529,174.88934 L 320.36438,174.61035 L 319.25094,174.88934 L 318.23302,175.4448 L 317.67756,176.27924 L 317.39857,177.29717 L 317.67756,178.59407 L 318.23302,179.52152 L 319.25094,180.16997 L 320.36438,180.44645 L 320.36438,180.44645 z"
     id="path3451" />
  <polygon
     style="fill-rule:evenodd"
     clip-rule="evenodd"
     points="202.24756,181.79883 195.04834,173.73633 193.24756,175.53516 200.0874,183.3125 202.24756,181.79883 "
     id="polygon3453"
     transform="matrix(1.2868563,0,0,1.2868563,114.85757,3.0161064)" />
  <polygon
     style="fill-rule:evenodd"
     clip-rule="evenodd"
     points="220.75146,203.03906 213.91162,194.97656 211.75146,196.41602 218.66357,204.48047 220.75146,203.03906 "
     id="polygon3455"
     transform="matrix(1.2868563,0,0,1.2868563,114.85757,3.0161064)" />
  <polygon
     style="fill-rule:evenodd"
     clip-rule="evenodd"
     points="220.75146,175.24805 212.68896,182.08789 214.41553,183.88867 222.26514,177.04688 220.75146,175.24805 "
     id="polygon3457"
     transform="matrix(1.2868563,0,0,1.2868563,114.85757,3.0161064)" />
  <path
     style="fill-rule:evenodd"
     clip-rule="evenodd"
     d="M 375.4931,246.50842 L 375.5861,245.3975 L 375.76956,244.19359 L 376.41802,243.35914 L 377.06648,242.43171 L 377.90092,241.69277 L 378.92136,241.22779 L 379.93929,240.85832 L 381.23619,240.76532 L 382.25663,240.85832 L 383.27456,241.22779 L 384.202,241.69277 L 385.03645,242.43171 L 385.7779,243.35914 L 386.24035,244.19359 L 386.51934,245.3975 L 386.70282,246.50842 L 386.51934,247.71484 L 386.24035,248.73277 L 385.7779,249.66021 L 385.03645,250.49466 L 384.202,251.14312 L 383.27456,251.60558 L 382.25663,251.88457 L 381.23619,251.97505 L 379.93929,251.88457 L 378.92136,251.60558 L 377.90092,251.14312 L 377.06648,250.49466 L 376.41802,249.66021 L 375.76956,248.73277 L 375.5861,247.71484 L 375.4931,246.50842 L 375.4931,246.50842 z M 381.23619,249.28823 L 382.25663,249.01176 L 383.09108,248.3633 L 383.64654,247.43587 L 383.92301,246.23195 L 383.64654,245.12103 L 383.09108,244.37958 L 382.25663,243.8216 L 381.23619,243.54513 L 380.12528,243.8216 L 379.01436,244.37958 L 378.45639,245.12103 L 378.08692,246.23195 L 378.45639,247.43587 L 379.01436,248.3633 L 380.12528,249.01176 L 381.23619,249.28823 L 381.23619,249.28823 z"
     id="path3459" />
</svg>
