<?xml version="1.0" encoding="UTF-8" standalone="no"?>
<svg
   xmlns:dc="http://purl.org/dc/elements/1.1/"
   xmlns:cc="http://web.resource.org/cc/"
   xmlns:rdf="http://www.w3.org/1999/02/22-rdf-syntax-ns#"
   xmlns:svg="http://www.w3.org/2000/svg"
   xmlns="http://www.w3.org/2000/svg"
   xmlns:sodipodi="http://inkscape.sourceforge.net/DTD/sodipodi-0.dtd"
   xmlns:inkscape="http://www.inkscape.org/namespaces/inkscape"
   width="300.00000pt"
   height="250.00000px"
   id="svg1"
   sodipodi:version="0.32"
   inkscape:version="0.42"
   sodipodi:docname="sumeria.svg"
   inkscape:export-filename="/home/jdorje/sumeria.png"
   inkscape:export-xdpi="72.000000"
   inkscape:export-ydpi="72.000000"
   sodipodi:docbase="/home/daniel">
  <defs
     id="defs11" />
  <sodipodi:namedview
     id="base"
     pagecolor="#ffffff"
     bordercolor="#666666"
     borderopacity="1.0"
     inkscape:pageopacity="0.0"
     inkscape:pageshadow="2"
     inkscape:zoom="1.2173913"
     inkscape:cx="177.14101"
     inkscape:cy="102.79362"
     inkscape:window-width="753"
     inkscape:window-height="579"
     inkscape:window-x="4"
     inkscape:window-y="26"
     inkscape:current-layer="svg1" />
  <rect
     style="fill:#32cbfe;fill-opacity:1.0000000;fill-rule:evenodd;stroke:#000000;stroke-width:0.0000000;stroke-linecap:butt;stroke-linejoin:miter;stroke-miterlimit:4.0000000;stroke-opacity:1.0000000"
     id="rect1554"
     width="375.00000"
     height="250.00000"
     x="0.0000000"
     y="-6.2172489e-15" />
  <path
     style="fill:#a0a0a0; stroke:none;"
     d="M10 2L11 3L10 2z"
     id="path4" />
  <path
     style="fill:#a0a0a0; stroke:none;"
     d="M16 2L17 3L16 2M8 3L9 4L8 3M18 3L19 4L18 3z"
     id="path6" />
  <path
     style="fill:#a0a0a0; stroke:none;"
     d="M5 6L6 7L5 6M21 6L22 7L21 6M4 8L5 9L4 8M22 8L23 9L22 8z"
     id="path8" />
  <metadata
     id="metadata12">
    <rdf:RDF>
      <cc:Work
         rdf:about="">
        <dc:format>image/svg+xml</dc:format>
        <dc:type
           rdf:resource="http://purl.org/dc/dcmitype/StillImage" />
      </cc:Work>
    </rdf:RDF>
  </metadata>
  <path
     sodipodi:type="arc"
     style="fill:#ee1212;fill-opacity:1.0000000;fill-rule:evenodd;stroke:#000000;stroke-width:0.0000000;stroke-linecap:butt;stroke-linejoin:miter;stroke-miterlimit:4.0000000;stroke-opacity:1.0000000;"
     id="path2181"
     sodipodi:cx="40.210842"
     sodipodi:cy="33.584339"
     sodipodi:rx="18.072289"
     sodipodi:ry="18.524096"
     d="M 58.283131 33.584339 A 18.072289 18.524096 0 1 0 22.138554,33.584339 A 18.072289 18.524096 0 1 0 58.283131 33.584339 z"
     transform="matrix(6.916667,0.000000,0.000000,7.422765,-90.62500,-99.28867)" />
  <path
     style="fill:#ffb012;fill-opacity:1.0000000;fill-rule:evenodd;stroke:#000000;stroke-width:0.0000000;stroke-linecap:butt;stroke-linejoin:miter;stroke-miterlimit:4.0000000;stroke-opacity:1.0000000"
     d="M 112.50000 90.718750 L 112.50000 130.53125 L 87.500000 130.53125 L 87.500000 170.34375 L 62.500000 170.34375 L 62.500000 210.18750 L 37.500000 210.18750 L 37.500000 250.00000 L 62.500000 250.00000 L 312.50000 250.00000 L 337.50000 250.00000 L 337.50000 210.18750 L 312.50000 210.18750 L 312.50000 170.34375 L 287.50000 170.34375 L 287.50000 130.53125 L 262.50000 130.53125 L 262.50000 90.718750 L 112.50000 90.718750 z "
     id="rect4049" />
</svg>
