<?xml version="1.0" encoding="UTF-8" standalone="no"?>
<!-- Created with Inkscape (http://www.inkscape.org/) -->
<svg
   xmlns:dc="http://purl.org/dc/elements/1.1/"
   xmlns:cc="http://web.resource.org/cc/"
   xmlns:rdf="http://www.w3.org/1999/02/22-rdf-syntax-ns#"
   xmlns:svg="http://www.w3.org/2000/svg"
   xmlns="http://www.w3.org/2000/svg"
   xmlns:sodipodi="http://inkscape.sourceforge.net/DTD/sodipodi-0.dtd"
   xmlns:inkscape="http://www.inkscape.org/namespaces/inkscape"
   width="702.00000pt"
   height="468.00000pt"
   id="svg2820"
   sodipodi:version="0.32"
   inkscape:version="0.42"
   sodipodi:docbase="/home/daniel/ancientflags"
   sodipodi:docname="viking.svg"
   inkscape:export-filename="/home/daniel/Desktop/viking.png"
   inkscape:export-xdpi="90.000000"
   inkscape:export-ydpi="90.000000">
  <defs
     id="defs2822" />
  <sodipodi:namedview
     id="base"
     pagecolor="#ffffff"
     bordercolor="#666666"
     borderopacity="1.0"
     inkscape:pageopacity="0.0"
     inkscape:pageshadow="2"
     inkscape:zoom="2.1734824"
     inkscape:cx="239.76826"
     inkscape:cy="417.92953"
     inkscape:document-units="px"
     inkscape:current-layer="layer1"
     inkscape:window-width="830"
     inkscape:window-height="707"
     inkscape:window-x="35"
     inkscape:window-y="51" />
  <metadata
     id="metadata2825">
    <rdf:RDF>
      <cc:Work
         rdf:about="">
        <dc:format>image/svg+xml</dc:format>
        <dc:type
           rdf:resource="http://purl.org/dc/dcmitype/StillImage" />
      </cc:Work>
    </rdf:RDF>
  </metadata>
  <g
     inkscape:label="Layer 1"
     inkscape:groupmode="layer"
     id="layer1">
    <rect
       style="fill:#ffffff;fill-opacity:1.0000000;stroke:none;stroke-width:4.5682597;stroke-miterlimit:4.0000000;stroke-dasharray:none;stroke-opacity:1.0000000"
       id="rect1313"
       width="877.50000"
       height="585.00000"
       x="0.0000000"
       y="-1.7763568e-15" />
    <path
       id="path2271"
       style="fill:#000000;stroke:none"
       d="M 381.36084,167.10819 C 393.60503,156.28189 392.21918,130.08745 380.61991,121.38798 C 369.02064,112.68851 369.12141,111.72433 362.25218,94.796473 C 356.93583,64.831652 335.54304,41.381611 305.57822,44.764736 C 275.13010,48.147861 273.19688,54.724091 239.36563,51.340966 C 218.10028,49.407752 209.88412,50.857663 196.83492,59.073823 C 180.40260,69.223200 166.87010,93.871680 166.87010,113.68713 C 166.87010,131.56936 170.73653,131.56936 188.61876,113.68713 C 207.57873,97.169181 212.37099,99.676443 227.28305,115.13704 C 251.36971,140.86734 275.63017,166.44271 300.58515,194.30280 C 331.83985,220.94851 341.47235,204.51620 352.10501,197.26665 C 362.73767,190.01710 375.07793,174.35772 381.36084,167.10819 z M 323.94376,73.089630 C 338.29807,88.005762 354.13898,119.41338 325.39367,149.45159 C 316.69421,158.15105 308.47804,165.40061 307.02813,165.40061 C 305.57822,165.40061 289.62921,151.38482 272.23028,133.98588 C 254.34805,116.58695 242.74876,102.57114 246.13188,102.57114 C 249.99831,102.57114 257.73117,107.88748 264.01412,114.65373 C 276.58001,127.21963 295.35362,129.43412 306.06153,120.93668 C 319.78775,110.04400 315.73983,91.455160 306.06153,84.205610 C 297.85586,78.059138 283.90478,79.317561 274.64680,83.722310 C 268.50312,86.645339 264.01412,87.105430 249.99831,82.755700 C 225.78421,69.500552 189.60917,96.745994 181.33251,104.58998 C 184.35911,94.490577 191.02883,82.367212 202.15126,75.506140 C 220.45051,63.671323 241.55885,63.762068 262.26239,70.268318 C 274.34498,76.551268 307.51145,56.657305 323.94376,73.089630 z "
       sodipodi:nodetypes="csccccscccscccscscsssccccc" />
    <path
       style="fill:#ffffff;stroke:none;fill-opacity:1.0000000"
       d="M 298.57644,108.47376 C 292.70696,121.31800 272.24507,111.36747 278.50099,99.254298 C 284.35212,87.950710 304.44592,95.629518 298.57644,108.47376 z "
       id="path2275" />
    <path
       style="fill:#ffffff;stroke:none;fill-opacity:1.0000000"
       d="M 347.75922,172.78373 C 315.37785,201.78195 307.51145,194.88214 337.47626,163.95070 C 377.39873,125.72590 395.54198,130.42028 347.75922,172.78373 z "
       id="path2273"
       sodipodi:nodetypes="ccc" />
    <path
       style="fill:#000000;stroke:none"
       d="M 394.98938,104.98766 C 392.08956,138.81891 394.02278,143.65192 394.02278,167.33381 C 394.02278,191.01570 353.98709,215.96599 332.64322,211.79777 C 314.03807,212.04961 299.07605,208.25353 275.61340,206.48141 C 222.45001,206.48141 186.20224,250.46205 186.20224,315.22471 C 186.20224,372.25453 205.05108,397.86962 299.29528,472.78169 C 352.45867,514.34578 363.31700,516.14937 375.88289,547.95138 C 378.33142,572.79510 391.51024,585.71627 389.18974,559.29301 C 389.18974,525.94508 372.75742,501.77989 322.01054,460.69909 C 237.43242,392.06996 213.26724,359.68864 213.26724,315.22471 C 212.78394,282.84337 226.31644,254.32846 249.03171,238.86275 C 264.49742,228.23007 268.36385,228.23007 317.17753,231.12989 L 368.89099,234.51302 C 392.28374,231.16297 404.94618,220.65938 410.45510,195.84873 L 413.35492,150.41820 C 416.73804,100.63793 423.98760,81.789090 446.70285,62.456948 C 472.80126,40.708288 510.98224,41.191591 547.23001,63.423560 C 567.04545,75.506140 594.59376,111.27061 626.49179,164.43400 C 663.70617,227.26346 684.48824,246.59561 721.70259,254.81177 C 741.51804,258.67820 742.00134,251.91195 722.18588,243.21250 C 695.12090,231.12989 674.33884,204.54820 645.34063,144.13525 C 626.97510,105.95427 610.54277,78.889270 597.49359,65.840070 C 551.57976,19.926234 489.71688,3.4939130 447.18617,26.209181 C 416.73804,42.641502 397.88920,71.156410 394.98938,104.98766 z "
       id="path2269" />
    <path
       style="fill:#000000;stroke:none"
       id="path2779"
       d="M 457.49867,74.388588 C 437.19385,91.536732 427.85403,111.75391 423.50429,165.88393 C 419.15456,218.08070 411.90501,234.51302 387.25654,246.59561 C 377.10715,251.91195 368.89099,251.91195 347.14233,247.56221 C 241.29885,225.33025 191.51858,310.39168 264.01412,389.65346 C 277.06331,404.15257 301.71180,424.93462 318.62742,435.56729 C 353.87657,455.86605 381.58490,482.50857 394.98938,515.79569 C 400.78901,506.12962 395.95597,478.58132 386.28992,459.24918 C 382.42349,451.51632 358.74162,429.28436 333.12653,408.98559 C 279.47983,366.45489 258.69778,340.35650 258.69778,316.67462 C 258.69778,278.01034 280.92974,264.96116 336.02635,269.79419 C 369.37429,272.69400 376.62385,271.72739 396.43929,262.06132 C 428.33733,246.59561 440.41992,225.33025 444.76965,177.48320 C 448.63608,130.60275 461.20197,101.12123 481.01742,92.905070 C 510.98224,80.339180 535.63072,101.60454 580.57797,177.96650 C 595.56036,203.58157 613.92590,231.12989 621.65876,239.82934 C 636.64117,257.22829 662.73956,266.89436 691.73779,266.89436 L 710.58661,266.41105 L 686.90475,254.32846 C 652.59018,236.44623 622.62536,202.61498 592.66054,148.96830 C 578.16145,122.86989 557.05921,94.756719 547.31157,82.761791 C 529.27228,61.510886 481.67382,57.319695 457.49867,74.388588 z "
       sodipodi:nodetypes="cccccccscscccccccccccc" />
    <path
       style="fill:#000000;stroke:none"
       id="path2781"
       d="M 468.62074,130.85354 C 456.43929,147.94211 459.26876,168.78373 477.15099,152.35141 C 496.23234,133.11301 509.53233,148.96830 536.59733,189.56579 C 553.02963,214.21428 568.01206,230.16327 583.96108,239.82934 C 596.52697,247.56221 608.12626,252.39525 609.57617,250.94534 C 611.50938,249.01212 606.19303,240.31266 597.97688,231.12989 C 589.76072,221.94713 574.29501,197.29864 563.66234,176.51659 C 541.91367,134.95248 513.74896,113.05436 497.69444,113.46679 C 482.05647,113.86852 477.10517,118.95128 468.62074,130.85354 z "
       sodipodi:nodetypes="ccscssczs" />
    <path
       style="fill:#000000;stroke:none"
       id="path2783"
       d="M 462.16251,177.23850 C 450.07992,194.63742 452.49642,200.43707 469.41204,197.05394 C 482.94453,194.63742 486.81097,196.57064 507.59303,219.28591 C 525.95856,239.10135 533.20812,243.93439 545.77399,243.93439 L 561.23972,243.93439 L 528.85837,205.27010 C 502.75999,173.37205 496.95426,164.19539 485.83828,164.19539 C 477.13881,164.19539 466.51222,170.47225 462.16251,177.23850 z "
       sodipodi:nodetypes="ccccccsc" />
    <path
       style="fill:#000000;stroke:none"
       id="path2785"
       d="M 454.43907,220.96478 C 454.43907,247.58049 409.31928,287.76345 382.17126,284.03727 C 365.13721,281.37569 355.88797,288.56867 370.26045,293.89179 C 391.55305,301.87652 425.08882,297.08569 441.05822,283.24553 C 460.75386,266.74380 472.46475,234.27262 463.94774,219.36783 C 460.76733,212.46125 454.97140,212.90710 454.43907,220.96478 z "
       sodipodi:nodetypes="cccccc" />
    <path
       style="fill:#000000;stroke:none"
       id="path2787"
       d="M 472.27088,266.01954 C 466.07490,276.65071 465.44615,280.94863 448.86052,294.80580 C 435.73671,301.47018 418.76370,306.52722 409.25558,306.27840 C 374.09339,305.35822 391.90454,320.96814 421.49546,324.13860 C 451.73331,321.71963 463.18963,316.11323 481.34238,293.71508 C 493.03571,272.98860 498.23979,240.83044 488.21171,240.34571 C 478.33085,239.86810 478.55459,255.23787 472.27088,266.01954 z "
       sodipodi:nodetypes="ccsccsz" />
    <path
       style="fill:#000000;stroke:none"
       id="path2789"
       d="M 549.28561,355.91603 C 559.91829,363.64887 611.50938,403.18596 602.80992,414.78526 C 598.46018,421.06818 593.14385,426.38453 591.69393,426.38453 C 590.24404,426.38453 577.19481,411.88543 562.69572,394.00319 C 548.19663,376.12095 477.59146,311.16333 471.49695,317.37718 C 465.18803,323.80963 538.53054,412.78526 548.67992,424.86785 C 567.52874,447.09980 567.52874,449.09980 558.34599,457.79927 C 546.74672,468.43194 509.53233,401.51584 501.02047,389.43325 C 492.50861,377.35066 460.11765,321.63597 455.09902,328.36961 C 451.22059,333.57341 469.00161,369.83802 487.36713,409.46891 C 520.71510,481.48112 519.19838,481.96444 508.56572,487.76409 C 502.76608,490.66391 497.44974,492.59712 496.96644,492.11384 C 495.99985,491.63052 488.20019,469.39855 481.43394,442.81684 C 469.35135,394.96980 448.63608,334.55686 442.83645,334.55686 C 427.85403,335.04018 428.82063,344.70625 451.53588,431.21757 C 471.83465,509.51275 476.18438,520.62873 483.91726,519.17882 C 488.75029,518.69553 511.46554,509.02944 534.18081,497.91346 C 576.71152,477.13141 605.22643,452.48293 644.37402,403.18596 C 662.25626,380.47069 679.17188,342.28973 673.85554,337.45669 C 669.02249,332.62364 504.69929,252.39525 500.34956,252.39525 C 496.96644,252.39525 495.99985,258.67820 497.93304,268.82755 C 499.86623,278.97690 570.94048,312.53083 580.60655,318.18976 C 590.27262,323.84868 639.54099,356.30552 635.19124,364.52168 C 630.35822,373.70446 629.87492,373.70446 617.30902,365.48828 C 574.77831,337.93998 499.08437,282.02150 489.52324,289.35196 C 480.73410,299.10674 538.65293,348.18319 549.28561,355.91603 z "
       sodipodi:nodetypes="ccsczcczzccccccccccsczcccc" />
    <path
       style="fill:#000000;stroke:none"
       id="path2791"
       d="M 286.72938,294.44266 C 275.61340,307.97516 273.19688,318.12455 278.51322,336.00677 C 285.27947,361.13855 299.29528,375.63766 345.69242,407.05239 C 369.37429,423.00141 389.18974,438.46712 390.63965,441.85025 C 392.08958,445.23336 393.53947,441.85025 393.53947,434.60069 C 394.02278,423.96802 385.32331,412.85203 351.00878,378.53750 C 302.19510,330.69043 294.94555,316.19132 312.34447,297.82577 C 312.34447,297.82577 323.78673,288.65525 321.76277,285.01212 C 318.90046,279.85996 297.47727,279.97314 286.72938,294.44266 z "
       sodipodi:nodetypes="cccsccccc" />
    <path
       style="fill:#000000;stroke:none"
       d="M 393.53947,375.15436 C 397.88920,378.53750 397.88921,372.25454 401.27233,345.67284 C 404.65545,319.09114 395.95597,314.25811 386.28992,336.97337 C 376.62387,359.68863 389.18974,371.77122 393.53947,375.15436 z "
       id="path2793"
       sodipodi:nodetypes="ccsc" />
    <path
       style="fill:#000000;stroke:none"
       d="M 403.68885,350.02257 C 403.63995,373.82885 407.62162,380.29182 418.18795,385.30373 C 432.00702,391.85851 434.13697,388.20357 428.33733,380.95400 C 424.47090,376.60427 421.57108,364.03839 422.05438,353.88900 C 423.02099,329.72382 403.73775,326.65270 403.68885,350.02257 z "
       id="path1314"
       sodipodi:nodetypes="csccz" />
    <path
       style="fill:#000000;stroke:none"
       d="M 387.35032,376.20047 C 382.75179,366.64249 383.48389,363.61628 367.44108,344.22293 C 350.52546,328.75721 343.75922,308.94177 350.52546,296.37589 C 354.87517,287.19311 354.39188,286.22650 344.24251,286.22650 C 337.95955,286.22650 329.26010,290.09293 324.91037,294.92596 C 307.51145,313.77480 318.15840,331.04733 368.90527,376.96118 C 394.03707,399.67643 389.76684,389.24967 387.35032,376.20047 z "
       id="path1342"
       sodipodi:nodetypes="cccsccc" />
  </g>
</svg>
