<?xml version="1.0" encoding="UTF-8" standalone="no"?>
<!-- Created with Sodipodi ("http://www.sodipodi.com/") -->
<svg
   xmlns:dc="http://purl.org/dc/elements/1.1/"
   xmlns:cc="http://web.resource.org/cc/"
   xmlns:rdf="http://www.w3.org/1999/02/22-rdf-syntax-ns#"
   xmlns:svg="http://www.w3.org/2000/svg"
   xmlns="http://www.w3.org/2000/svg"
   xmlns:sodipodi="http://inkscape.sourceforge.net/DTD/sodipodi-0.dtd"
   xmlns:inkscape="http://www.inkscape.org/namespaces/inkscape"
   height="496.06299px"
   id="svg548"
   sodipodi:docbase="/Users/daniel/Desktop"
   sodipodi:docname="zulu.svg"
   sodipodi:version="0.32"
   width="744.09448px"
   inkscape:version="0.42">
  <metadata
     id="metadata3">
    <rdf:RDF>
      <cc:Work
         rdf:about="">
        <dc:title> swaziland</dc:title>
        <dc:description />
        <dc:subject>
          <rdf:Bag>
            <rdf:li />
            <rdf:li>united_nations_member</rdf:li>
            <rdf:li>flag</rdf:li>
            <rdf:li>africa</rdf:li>
            <rdf:li>sign</rdf:li>
          </rdf:Bag>
        </dc:subject>
        <dc:publisher>
          <cc:Agent
             rdf:about="http://www.openclipart.org">
            <dc:title> Caleb Moore</dc:title>
          </cc:Agent>
        </dc:publisher>
        <dc:creator>
          <cc:Agent>
            <dc:title>Caleb Moore</dc:title>
          </cc:Agent>
        </dc:creator>
        <dc:rights>
          <cc:Agent>
            <dc:title> Caleb Moore</dc:title>
          </cc:Agent>
        </dc:rights>
        <dc:date />
        <dc:format>image/svg+xml</dc:format>
        <dc:type
           rdf:resource="http://purl.org/dc/dcmitype/StillImage" />
        <cc:license
           rdf:resource="http://web.resource.org/cc/PublicDomain" />
        <dc:language>en</dc:language>
      </cc:Work>
      <cc:License
         rdf:about="http://web.resource.org/cc/PublicDomain">
        <cc:permits
           rdf:resource="http://web.resource.org/cc/Reproduction" />
        <cc:permits
           rdf:resource="http://web.resource.org/cc/Distribution" />
        <cc:permits
           rdf:resource="http://web.resource.org/cc/DerivativeWorks" />
      </cc:License>
    </rdf:RDF>
  </metadata>
  <defs
     id="defs550" />
  <sodipodi:namedview
     gridspacingx="1mm"
     gridspacingy="1mm"
     id="base"
     showgrid="true"
     snaptogrid="true"
     inkscape:zoom="0.69346032"
     inkscape:cx="372.04724"
     inkscape:cy="244.70037"
     inkscape:window-width="701"
     inkscape:window-height="507"
     inkscape:window-x="5"
     inkscape:window-y="22"
     inkscape:current-layer="svg548" />
  <rect
     height="496.063000"
     id="rect585"
     style="font-size:12;fill:#ffffff;fill-rule:evenodd;stroke-width:1pt;stroke:none;stroke-opacity:1;fill-opacity:1.0000000"
     width="744.094482"
     x="0.000000"
     y="-0.000123" />
  <rect
     y="220.47299"
     x="0.0000000"
     width="744.09448"
     style="font-size:12.000000px;fill:#008900;fill-opacity:1.0000000;fill-rule:evenodd;stroke:none;stroke-width:1.0000000pt;stroke-opacity:1.0000000"
     id="rect2700"
     height="55.119999" />
  <rect
     height="55.119999"
     id="rect966"
     style="font-size:12.000000px;fill:#ffd900;fill-opacity:1.0000000;fill-rule:evenodd;stroke:none;stroke-width:1.0000000pt;stroke-opacity:1.0000000"
     width="744.09448"
     x="0.0000000"
     y="275.59299" />
  <rect
     height="55.119999"
     id="rect2774"
     style="font-size:12.000000px;fill:#000000;fill-opacity:1.0000000;fill-rule:evenodd;stroke:none;stroke-width:1.0000000pt;stroke-opacity:1.0000000"
     width="744.09448"
     x="0.0000000"
     y="165.35300" />
  <rect
     height="496.06000"
     id="rect967"
     style="font-size:12.000000px;fill:#b10c0c;fill-opacity:1.0000000;fill-rule:evenodd;stroke:none;stroke-width:1.0000000pt;stroke-opacity:1.0000000"
     width="248.03000"
     x="0.0000000"
     y="0.0029907227" />
  <g
     id="g2659"
     transform="translate(-4.245350,0.000000)">
    <rect
       transform="matrix(0.000000,-1.000000,1.000000,0.000000,0.000000,0.000000)"
       y="124.98671"
       x="-459.55972"
       width="412.42630"
       style="font-size:12.000000px;fill:#ffffff;fill-opacity:1.0000000;fill-rule:evenodd;stroke:#000000;stroke-width:0.94359082"
       ry="5.3149610"
       rx="5.2379346"
       id="rect969"
       height="7.7097650" />
    <g
       style="fill:#ffffff;fill-opacity:1.0000000"
       transform="matrix(0.311402,-0.655037,0.655037,0.311402,-333.9858,845.6664)"
       id="g984">
      <path
         transform="matrix(0.340001,0.000000,0.000000,0.300002,1256.811,136.4168)"
         style="font-size:12.000000px;fill:#ffffff;fill-opacity:1.0000000;fill-rule:evenodd;stroke:#000000;stroke-width:3.9138801;stroke-dasharray:none;stroke-opacity:1.0000000"
         sodipodi:nodetypes="ccccc"
         id="path985"
         d="M -106.29900,265.74800 L -194.88200,301.18100 L -106.29900,336.61400 L -17.716500,301.18100 L -106.29900,265.74800 z " />
      <rect
         y="223.22833"
         x="761.81091"
         width="442.91345"
         style="font-size:12.000000px;fill:#ffffff;fill-opacity:1.0000000;fill-rule:evenodd;stroke:#000000;stroke-width:1.2500000;stroke-dasharray:none"
         ry="4.8853593"
         rx="5.3101912"
         id="rect986"
         height="7.0865941" />
      <path
         transform="matrix(-0.500011,0.000000,0.000000,0.500001,1806.328,90.35433)"
         style="font-size:12.000000px;fill:#ffffff;fill-opacity:1.0000000;fill-rule:evenodd;stroke:#000000;stroke-width:2.4999700;stroke-dasharray:none;stroke-opacity:1.0000000"
         sodipodi:nodetypes="ccc"
         id="path987"
         d="M 1224.4400,279.92100 C 1220.9000,279.92100 1217.3500,276.37700 1217.3500,272.83400 C 1217.3500,269.29100 1220.9000,265.74700 1224.4400,265.74700" />
      <path
         transform="matrix(-0.500011,0.000000,0.000000,0.500001,1802.785,90.35418)"
         style="font-size:12.000000px;fill:#ffffff;fill-opacity:1.0000000;fill-rule:evenodd;stroke:#000000;stroke-width:2.4999700;stroke-dasharray:none;stroke-opacity:1.0000000"
         sodipodi:nodetypes="ccc"
         id="path988"
         d="M 1224.4400,279.92100 C 1220.9000,279.92100 1217.3500,276.37700 1217.3500,272.83400 C 1217.3500,269.29100 1220.9000,265.74700 1224.4400,265.74700" />
      <path
         transform="matrix(-0.500011,0.000000,0.000000,0.500001,1799.241,90.35460)"
         style="font-size:12.000000px;fill:#ffffff;fill-opacity:1.0000000;fill-rule:evenodd;stroke:#000000;stroke-width:2.4999700;stroke-dasharray:none;stroke-opacity:1.0000000"
         sodipodi:nodetypes="ccc"
         id="path989"
         d="M 1224.4400,279.92100 C 1220.9000,279.92100 1217.3500,276.37700 1217.3500,272.83400 C 1217.3500,269.29100 1220.9000,265.74700 1224.4400,265.74700" />
    </g>
    <g
       style="fill:#ffffff;fill-opacity:1.0000000"
       id="g2641"
       transform="matrix(-0.311402,-0.655037,-0.655037,0.311402,588.6302,845.6664)">
      <path
         d="M -106.29900,265.74800 L -194.88200,301.18100 L -106.29900,336.61400 L -17.716500,301.18100 L -106.29900,265.74800 z "
         id="path2643"
         sodipodi:nodetypes="ccccc"
         style="font-size:12.000000px;fill:#ffffff;fill-opacity:1.0000000;fill-rule:evenodd;stroke:#000000;stroke-width:3.9138801;stroke-dasharray:none;stroke-opacity:1.0000000"
         transform="matrix(0.340001,0.000000,0.000000,0.300002,1256.811,136.4168)" />
      <rect
         height="7.0865941"
         id="rect2645"
         rx="5.3101912"
         ry="4.8853593"
         style="font-size:12.000000px;fill:#ffffff;fill-opacity:1.0000000;fill-rule:evenodd;stroke:#000000;stroke-width:1.2500000;stroke-dasharray:none"
         width="442.91345"
         x="761.81091"
         y="223.22833" />
      <path
         d="M 1224.4400,279.92100 C 1220.9000,279.92100 1217.3500,276.37700 1217.3500,272.83400 C 1217.3500,269.29100 1220.9000,265.74700 1224.4400,265.74700"
         id="path2647"
         sodipodi:nodetypes="ccc"
         style="font-size:12.000000px;fill:#ffffff;fill-opacity:1.0000000;fill-rule:evenodd;stroke:#000000;stroke-width:2.4999700;stroke-dasharray:none;stroke-opacity:1.0000000"
         transform="matrix(-0.500011,0.000000,0.000000,0.500001,1806.328,90.35433)" />
      <path
         d="M 1224.4400,279.92100 C 1220.9000,279.92100 1217.3500,276.37700 1217.3500,272.83400 C 1217.3500,269.29100 1220.9000,265.74700 1224.4400,265.74700"
         id="path2649"
         sodipodi:nodetypes="ccc"
         style="font-size:12.000000px;fill:#ffffff;fill-opacity:1.0000000;fill-rule:evenodd;stroke:#000000;stroke-width:2.4999700;stroke-dasharray:none;stroke-opacity:1.0000000"
         transform="matrix(-0.500011,0.000000,0.000000,0.500001,1802.785,90.35418)" />
      <path
         d="M 1224.4400,279.92100 C 1220.9000,279.92100 1217.3500,276.37700 1217.3500,272.83400 C 1217.3500,269.29100 1220.9000,265.74700 1224.4400,265.74700"
         id="path2651"
         sodipodi:nodetypes="ccc"
         style="font-size:12.000000px;fill:#ffffff;fill-opacity:1.0000000;fill-rule:evenodd;stroke:#000000;stroke-width:2.4999700;stroke-dasharray:none;stroke-opacity:1.0000000"
         transform="matrix(-0.500011,0.000000,0.000000,0.500001,1799.241,90.35460)" />
    </g>
    <path
       d="M 128.84169,114.99494 C 154.54086,140.69388 205.93919,174.95993 205.93919,243.49107 C 205.93919,303.45606 154.54086,346.28778 128.84169,371.98720 C 103.14253,346.28778 51.744022,303.45606 51.744022,243.49107 C 51.744022,174.95993 103.14253,140.69388 128.84169,114.99494 z "
       id="path552"
       sodipodi:nodetypes="ccccc"
       style="font-size:12.000000px;fill:#ffffff;fill-rule:evenodd;stroke:#000000;stroke-width:0.90660989;stroke-dasharray:none;stroke-opacity:1.0000000" />
    <g
       transform="matrix(0.000000,-0.944457,0.725289,0.000000,-51.05290,570.5410)"
       id="g2296">
      <rect
         height="28.346430"
         id="rect557"
         style="font-size:12.000000px;fill:#000000;fill-opacity:1.0000000;fill-rule:evenodd;stroke-width:1.0000000pt"
         width="8.5898457"
         x="261.02380"
         y="210.23622" />
      <rect
         height="28.346434"
         id="rect558"
         style="font-size:12.000000px;fill:#000000;fill-opacity:1.0000000;fill-rule:evenodd;stroke-width:1.0000000pt"
         width="8.5898457"
         x="261.02380"
         y="257.48032" />
      <rect
         height="28.346430"
         id="rect559"
         style="font-size:12.000000px;fill:#000000;fill-opacity:1.0000000;fill-rule:evenodd;stroke-width:1.0000000pt"
         width="8.5898457"
         x="278.20349"
         y="210.23625" />
      <rect
         height="28.346434"
         id="rect560"
         style="font-size:12.000000px;fill:#000000;fill-opacity:1.0000000;fill-rule:evenodd;stroke-width:1.0000000pt"
         width="8.5898457"
         x="278.20349"
         y="257.48035" />
      <rect
         height="28.346430"
         id="rect561"
         style="font-size:12.000000px;fill:#000000;fill-opacity:1.0000000;fill-rule:evenodd;stroke-width:1.0000000pt"
         width="8.5898457"
         x="295.38318"
         y="210.23619" />
      <rect
         height="28.346434"
         id="rect562"
         style="font-size:12.000000px;fill:#000000;fill-opacity:1.0000000;fill-rule:evenodd;stroke-width:1.0000000pt"
         width="8.5898457"
         x="295.38318"
         y="257.48029" />
    </g>
    <g
       id="g2346"
       transform="matrix(0.000000,-0.944457,0.725289,0.000000,-51.05290,509.6167)">
      <rect
         y="210.23622"
         x="261.02380"
         width="8.5898457"
         style="font-size:12.000000px;fill:#000000;fill-opacity:1.0000000;fill-rule:evenodd;stroke-width:1.0000000pt"
         id="rect2348"
         height="28.346430" />
      <rect
         y="257.48032"
         x="261.02380"
         width="8.5898457"
         style="font-size:12.000000px;fill:#000000;fill-opacity:1.0000000;fill-rule:evenodd;stroke-width:1.0000000pt"
         id="rect2350"
         height="28.346434" />
      <rect
         y="210.23625"
         x="278.20349"
         width="8.5898457"
         style="font-size:12.000000px;fill:#000000;fill-opacity:1.0000000;fill-rule:evenodd;stroke-width:1.0000000pt"
         id="rect2352"
         height="28.346430" />
      <rect
         y="257.48035"
         x="278.20349"
         width="8.5898457"
         style="font-size:12.000000px;fill:#000000;fill-opacity:1.0000000;fill-rule:evenodd;stroke-width:1.0000000pt"
         id="rect2354"
         height="28.346434" />
      <rect
         y="210.23619"
         x="295.38318"
         width="8.5898457"
         style="font-size:12.000000px;fill:#000000;fill-opacity:1.0000000;fill-rule:evenodd;stroke-width:1.0000000pt"
         id="rect2356"
         height="28.346430" />
      <rect
         y="257.48029"
         x="295.38318"
         width="8.5898457"
         style="font-size:12.000000px;fill:#000000;fill-opacity:1.0000000;fill-rule:evenodd;stroke-width:1.0000000pt"
         id="rect2358"
         height="28.346434" />
    </g>
    <g
       transform="matrix(0.000000,-0.944457,0.725289,0.000000,-51.05290,448.6925)"
       id="g2360">
      <rect
         height="28.346430"
         id="rect2362"
         style="font-size:12.000000px;fill:#000000;fill-opacity:1.0000000;fill-rule:evenodd;stroke-width:1.0000000pt"
         width="8.5898457"
         x="261.02380"
         y="210.23622" />
      <rect
         height="28.346434"
         id="rect2364"
         style="font-size:12.000000px;fill:#000000;fill-opacity:1.0000000;fill-rule:evenodd;stroke-width:1.0000000pt"
         width="8.5898457"
         x="261.02380"
         y="257.48032" />
      <rect
         height="28.346430"
         id="rect2366"
         style="font-size:12.000000px;fill:#000000;fill-opacity:1.0000000;fill-rule:evenodd;stroke-width:1.0000000pt"
         width="8.5898457"
         x="278.20349"
         y="210.23625" />
      <rect
         height="28.346434"
         id="rect2368"
         style="font-size:12.000000px;fill:#000000;fill-opacity:1.0000000;fill-rule:evenodd;stroke-width:1.0000000pt"
         width="8.5898457"
         x="278.20349"
         y="257.48035" />
      <rect
         height="28.346430"
         id="rect2370"
         style="font-size:12.000000px;fill:#000000;fill-opacity:1.0000000;fill-rule:evenodd;stroke-width:1.0000000pt"
         width="8.5898457"
         x="295.38318"
         y="210.23619" />
      <rect
         height="28.346434"
         id="rect2372"
         style="font-size:12.000000px;fill:#000000;fill-opacity:1.0000000;fill-rule:evenodd;stroke-width:1.0000000pt"
         width="8.5898457"
         x="295.38318"
         y="257.48029" />
    </g>
    <path
       d="M 119.06322,69.463868 C 118.84108,67.457248 119.26984,67.217348 118.03582,65.703658 C 119.83254,66.455418 119.90115,68.453738 122.08579,67.035328 C 122.88860,66.619948 123.23814,66.606758 122.26302,64.377728 C 124.54158,64.483318 132.00369,67.042328 133.19851,67.101798 C 136.33623,67.245758 142.06369,63.805588 146.03934,68.035808 C 149.85492,71.892938 148.58088,75.896588 148.58088,81.237858 C 147.04795,80.503137 147.78624,80.141354 146.15939,78.231217 C 147.37953,82.900475 146.09406,91.318556 146.09406,96.270608 C 145.46766,95.076423 145.55994,95.595054 144.94742,94.358436 C 143.32058,98.878383 141.37032,99.808541 141.37032,105.14989 C 140.78312,103.05509 141.34990,103.49797 140.69655,102.39612 C 139.11543,105.82725 128.50743,108.76025 132.59497,112.21897 C 128.90516,110.05589 127.28730,110.28275 125.61390,108.33734 C 124.89358,108.80246 124.32026,109.68287 123.65057,110.89002 C 117.16360,107.90562 119.48300,101.46807 114.40073,97.167829 C 113.52116,98.970864 113.92215,98.709023 112.97152,101.64361 C 111.94249,97.567825 111.66155,94.977687 110.50430,91.981523 C 109.50549,93.642558 109.59532,93.005820 107.78227,95.515914 C 107.03255,90.550974 105.81159,89.379175 106.29426,86.093811 C 104.36768,87.453435 105.62865,86.902772 103.70290,88.576168 C 105.52738,75.853478 113.40845,66.452778 119.06322,69.463868 z "
       id="path926"
       sodipodi:nodetypes="ccscsscccccccccccccccc"
       style="fill:#ffffff;fill-opacity:1.0000000;fill-rule:evenodd;stroke:#000000;stroke-width:0.78457088pt;stroke-linecap:butt;stroke-linejoin:miter;stroke-opacity:1.0000000" />
    <path
       id="path2653"
       d="M 128.34188,272.83464 L 128.34188,197.55997"
       style="fill:none;fill-opacity:0.75000000;fill-rule:evenodd;stroke:#000000;stroke-width:4.1250000;stroke-linecap:butt;stroke-linejoin:miter;stroke-miterlimit:4.0000000;stroke-dasharray:none;stroke-opacity:1.0000000" />
    <path
       sodipodi:nodetypes="ccccc"
       id="path2655"
       d="M 128.34188,194.88189 L 118.24757,214.86449 L 128.34188,210.53836 L 137.55210,214.86449 L 128.34188,194.88189 z "
       style="fill:#000000;fill-opacity:1.0000000;fill-rule:evenodd;stroke:#000000;stroke-width:1.0000000px;stroke-linecap:butt;stroke-linejoin:miter;stroke-opacity:1.0000000" />
    <path
       transform="translate(-4.000000,-4.000000)"
       d="M 145.64641 347.53250 A 12.978393 7.2102180 0 1 1  119.68962,347.53250 A 12.978393 7.2102180 0 1 1  145.64641 347.53250 z"
       sodipodi:ry="7.2102180"
       sodipodi:rx="12.978393"
       sodipodi:cy="347.53250"
       sodipodi:cx="132.66801"
       id="path2657"
       style="fill:#000000;fill-opacity:1.0000000;fill-rule:nonzero;stroke:none;stroke-width:4.1250000;stroke-linecap:butt;stroke-linejoin:miter;stroke-miterlimit:4.0000000;stroke-dasharray:none;stroke-opacity:1.0000000"
       sodipodi:type="arc" />
  </g>
</svg>
