<?xml version="1.0" encoding="UTF-8" standalone="no"?>
<!-- Created with Inkscape (http://www.inkscape.org/) -->
<svg
   xmlns:dc="http://purl.org/dc/elements/1.1/"
   xmlns:cc="http://web.resource.org/cc/"
   xmlns:rdf="http://www.w3.org/1999/02/22-rdf-syntax-ns#"
   xmlns:svg="http://www.w3.org/2000/svg"
   xmlns="http://www.w3.org/2000/svg"
   xmlns:xlink="http://www.w3.org/1999/xlink"
   xmlns:sodipodi="http://inkscape.sourceforge.net/DTD/sodipodi-0.dtd"
   xmlns:inkscape="http://www.inkscape.org/namespaces/inkscape"
   height="774.85000px"
   id="svg578"
   version="1.0"
   width="774.85000px"
   x="0.00000000"
   y="0.00000000"
   sodipodi:version="0.32"
   inkscape:version="0.42"
   sodipodi:docname="france_st_pierre_and_miquelon.svg"
   sodipodi:docbase="/home/daniel/Desktop"
   inkscape:export-filename="/home/daniel/Desktop/france_st_pierre_and_miquelon.png"
   inkscape:export-xdpi="5.5671158"
   inkscape:export-ydpi="5.5671158">
  <sodipodi:namedview
     inkscape:window-height="577"
     inkscape:window-width="790"
     inkscape:pageshadow="2"
     inkscape:pageopacity="0.0"
     borderopacity="1.0"
     bordercolor="#666666"
     pagecolor="#ffffff"
     id="base"
     inkscape:zoom="0.48683336"
     inkscape:cx="531.49377"
     inkscape:cy="367.88756"
     inkscape:window-x="0"
     inkscape:window-y="26"
     inkscape:current-layer="svg578" />
  <metadata
     id="metadata3">
    <rdf:RDF>
      <cc:Work
         rdf:about="">
        <dc:title>France - St.Pierre and Miquelon</dc:title>
        <dc:description />
        <dc:subject>
          <rdf:Bag>
            <rdf:li />
            <rdf:li>flags</rdf:li>
            <rdf:li>europe</rdf:li>
            <rdf:li>signs_and_symbols</rdf:li>
            <rdf:li>france</rdf:li>
            <rdf:li>sign</rdf:li>
          </rdf:Bag>
        </dc:subject>
        <dc:publisher>
          <cc:Agent
             rdf:about="http://www.openclipart.org">
            <dc:title>Patricia Fidi</dc:title>
          </cc:Agent>
        </dc:publisher>
        <dc:creator>
          <cc:Agent>
            <dc:title>Patricia Fidi</dc:title>
          </cc:Agent>
        </dc:creator>
        <dc:rights>
          <cc:Agent>
            <dc:title>Patricia Fidi</dc:title>
          </cc:Agent>
        </dc:rights>
        <dc:date />
        <dc:format>image/svg+xml</dc:format>
        <dc:type
           rdf:resource="http://purl.org/dc/dcmitype/StillImage" />
        <cc:license
           rdf:resource="http://web.resource.org/cc/PublicDomain" />
        <dc:language>en</dc:language>
      </cc:Work>
      <cc:License
         rdf:about="http://web.resource.org/cc/PublicDomain">
        <cc:permits
           rdf:resource="http://web.resource.org/cc/Reproduction" />
        <cc:permits
           rdf:resource="http://web.resource.org/cc/Distribution" />
        <cc:permits
           rdf:resource="http://web.resource.org/cc/DerivativeWorks" />
      </cc:License>
    </rdf:RDF>
  </metadata>
  <defs
     id="defs580">
    <linearGradient
       id="linearGradient689">
      <stop
         id="stop690"
         offset="0.00000000"
         style="stop-color:#000000;stop-opacity:1.0000000" />
      <stop
         id="stop691"
         offset="1.0000000"
         style="stop-color:#ffffff;stop-opacity:1.0000000" />
    </linearGradient>
    <defs
       id="defs564" />
    <radialGradient
       id="radialGradient692"
       xlink:href="#linearGradient689" />
    <defs
       id="defs561" />
  </defs>
  <rect
     height="774.84998"
     id="rect825"
     style="font-size:12.000000px;fill:#000092;fill-opacity:1.0000000;fill-rule:evenodd;stroke-width:1.0000000"
     width="774.84998"
     x="1.1352893"
     y="0.0000000" />
  <path
     d="M 738.69780,289.86759 L 706.77620,416.70499"
     id="path680"
     style="font-size:12.000000px;fill:none;fill-rule:evenodd;stroke:#000000;stroke-width:7.5000000;stroke-linecap:round;stroke-dasharray:none" />
  <path
     d="M 245.49050,118.39433 L 148.16210,598.78509"
     id="path673"
     style="font-size:12.000000px;fill:none;fill-rule:evenodd;stroke:#000000;stroke-width:7.5049582;stroke-linecap:round;stroke-opacity:1.0000000" />
  <path
     d="M 434.60710,101.25968 L 337.27870,586.31919"
     id="path672"
     style="font-size:12.000000px;fill:none;fill-rule:evenodd;stroke:#000000;stroke-width:7.5413389;stroke-linecap:round" />
  <path
     d="M 611.66600,101.89431 L 514.33760,581.65059"
     id="path697"
     style="font-size:12.000000px;fill:none;fill-rule:evenodd;stroke:#000000;stroke-width:7.5000000;stroke-linecap:round;stroke-opacity:1.0000000" />
  <path
     d="M 221.06330,472.76419 C 311.85420,693.13829 574.32240,577.58649 596.60730,493.39849 C 600.73420,494.22389 673.36700,495.04919 677.49370,495.04929 C 665.11310,531.36559 648.60590,551.17449 633.74910,569.33269 C 634.57440,578.41179 632.92380,599.87139 633.74910,606.47439 C 648.60580,618.85499 672.54150,636.18779 675.01760,652.69519 C 677.49370,676.63099 673.36700,669.20269 665.11330,682.40859 C 651.08190,674.98019 628.01590,671.58969 613.11480,672.50409 C 601.55960,670.85339 598.25800,658.47279 598.25800,658.47279 C 598.25800,658.47279 591.65510,668.37729 580.92530,681.58319 C 568.54480,705.51899 519.84770,701.39209 498.38810,684.88469 C 476.10310,663.42509 452.16730,674.15489 434.00930,684.88469 C 408.42270,711.29659 364.67800,708.82049 344.04370,690.66229 C 321.75860,672.50409 290.39460,666.72659 266.45880,680.75779 C 246.64990,689.01149 235.65270,705.47439 204.57820,665.87889 C 191.37230,641.11779 95.722700,556.01609 86.643600,551.06389 C 86.651100,552.23639 86.641000,554.49129 86.648600,555.66129 C 81.477600,553.43199 64.698100,545.98579 61.882400,544.33759 C 61.882400,541.86149 61.884900,535.72649 61.885000,528.29809 C 94.889600,524.28959 69.516900,501.51109 51.273400,489.05029 C 51.265800,488.16459 50.964900,484.49279 51.128100,483.62679 C 52.000200,483.69769 69.440600,483.84889 69.904700,483.84889 C 92.189800,516.86369 126.97100,532.19089 155.85900,534.66709 C 156.14860,528.28689 157.50980,471.93889 157.50980,471.93889 L 221.06330,472.76419 L 221.06330,472.76419 L 221.06330,472.76419 L 221.06330,472.76419 L 221.06330,472.76419 z "
     id="path674"
     style="fill:#ffcf00;fill-opacity:1.0000000;fill-rule:evenodd;stroke:#000000;stroke-width:2.5000000;stroke-linecap:butt;stroke-linejoin:miter;stroke-dasharray:none;stroke-opacity:1.0000000" />
  <path
     d="M 325.08150,184.35419 C 223.41270,233.37299 202.53440,303.27029 193.00280,409.47789 C 172.12450,350.01989 149.43050,350.92759 126.28270,407.20849 C 127.19040,336.85729 134.90650,275.58379 156.69260,243.81229 C 182.56370,234.28079 263.35400,204.32479 325.08150,184.35419 L 325.08150,184.35419 z "
     id="path631"
     style="fill:#ffcf00;fill-opacity:1.0000000;fill-rule:evenodd;stroke:#000000;stroke-width:3.7500000;stroke-linecap:butt;stroke-linejoin:miter;stroke-dasharray:none;stroke-opacity:1.0000000" />
  <path
     d="M 483.33130,202.43099 C 401.54850,299.46389 396.37000,437.15629 441.35890,575.72779 C 395.68040,499.95179 336.84480,447.39679 248.78260,515.24019 C 229.73600,413.87339 264.09020,299.45719 301.97220,271.38029 C 329.14470,258.83209 410.24890,231.89529 475.08130,205.60409 L 475.08130,205.60409 L 483.33130,202.43099 L 483.33130,202.43099 z "
     id="path636"
     style="font-size:12.000000px;fill:#ffcf00;fill-rule:evenodd;stroke:#000000;stroke-width:4.4095821;stroke-opacity:1.0000000" />
  <path
     d="M 646.33090,204.35409 C 580.06280,295.98479 542.78630,381.65179 582.67870,498.22739 C 507.17480,431.97959 472.50460,451.51679 478.16850,574.84109 C 447.52950,489.56459 441.74200,327.05979 489.08250,258.43949 C 513.17680,247.88309 587.59300,226.47199 646.33090,204.35409 L 646.33090,204.35409 L 646.33090,204.35409 L 646.33090,204.35409 z "
     id="path641"
     style="font-size:12.000000px;fill:#ffcf00;fill-rule:evenodd;stroke:#000000;stroke-width:3.8085270;stroke-opacity:1.0000000" />
  <rect
     height="43.750000"
     id="rect642"
     style="font-size:12.000000px;fill:#ffcf00;fill-opacity:1.0000000;fill-rule:evenodd;stroke:#000000;stroke-width:2.5000000;stroke-opacity:1.0000000"
     width="107.50000"
     x="123.48380"
     y="433.60016" />
  <path
     d="M 156.72130,456.09962 C 156.72130,461.11161 152.47360,465.17462 147.23380,465.17462 C 141.99400,465.17462 137.74630,461.11161 137.74630,456.09962 C 137.74630,451.08764 141.99400,447.02462 147.23380,447.02462 C 152.47360,447.02462 156.72130,451.08764 156.72130,456.09962 L 156.72130,456.09962 z "
     id="path646"
     style="font-size:12.000000px;fill-rule:evenodd;stroke:#000000;stroke-width:0.16500001;stroke-opacity:1.0000000" />
  <path
     d="M 186.72130,456.09912 C 186.72130,461.11111 182.47360,465.17412 177.23380,465.17412 C 171.99400,465.17412 167.74630,461.11111 167.74630,456.09912 C 167.74630,451.08714 171.99400,447.02412 177.23380,447.02412 C 182.47360,447.02412 186.72130,451.08714 186.72130,456.09912 L 186.72130,456.09912 z "
     id="path651"
     style="font-size:12.000000px;fill-rule:evenodd;stroke:#000000;stroke-width:0.16500001;stroke-opacity:1.0000000" />
  <path
     d="M 219.22130,456.09892 C 219.22130,461.11091 214.97360,465.17392 209.73380,465.17392 C 204.49400,465.17392 200.24630,461.11091 200.24630,456.09892 C 200.24630,451.08694 204.49400,447.02392 209.73380,447.02392 C 214.97360,447.02392 219.22130,451.08694 219.22130,456.09892 L 219.22130,456.09892 z "
     id="path656"
     style="font-size:12.000000px;fill-rule:evenodd;stroke:#000000;stroke-width:0.16500001;stroke-opacity:1.0000000" />
  <rect
     height="43.750000"
     id="rect643"
     style="font-size:12.000000px;fill:#ffcf00;fill-opacity:1.0000000;fill-rule:evenodd;stroke:#000000;stroke-width:2.5000000"
     width="107.50000"
     x="611.74658"
     y="414.50604" />
  <path
     d="M 644.98410,437.00552 C 644.98410,442.01751 640.73640,446.08052 635.49660,446.08052 C 630.25680,446.08052 626.00910,442.01751 626.00910,437.00552 C 626.00910,431.99354 630.25680,427.93052 635.49660,427.93052 C 640.73640,427.93052 644.98410,431.99354 644.98410,437.00552 L 644.98410,437.00552 z "
     id="path661"
     style="font-size:12.000000px;fill-rule:evenodd;stroke:#000000;stroke-width:0.16500001" />
  <path
     d="M 674.98410,437.00502 C 674.98410,442.01701 670.73640,446.08002 665.49660,446.08002 C 660.25680,446.08002 656.00910,442.01701 656.00910,437.00502 C 656.00910,431.99304 660.25680,427.93002 665.49660,427.93002 C 670.73640,427.93002 674.98410,431.99304 674.98410,437.00502 L 674.98410,437.00502 z "
     id="path666"
     style="font-size:12.000000px;fill-rule:evenodd;stroke:#000000;stroke-width:0.16500001" />
  <path
     d="M 707.48410,437.00482 C 707.48410,442.01681 703.23640,446.07982 697.99660,446.07982 C 692.75680,446.07982 688.50910,442.01681 688.50910,437.00482 C 688.50910,431.99284 692.75680,427.92982 697.99660,427.92982 C 703.23640,427.92982 707.48410,431.99284 707.48410,437.00482 L 707.48410,437.00482 z "
     id="path671"
     style="font-size:12.000000px;fill-rule:evenodd;stroke:#000000;stroke-width:0.16500001" />
  <path
     d="M 86.029200,550.78669 C 86.029200,546.77119 85.226000,541.14959 86.029200,538.74029 C 93.257000,538.74029 117.34990,538.74029 120.56220,538.74029 C 310.89570,718.63349 555.93040,657.42019 633.83060,569.07979"
     id="path675"
     style="fill:none;fill-opacity:1.0000000;fill-rule:evenodd;stroke:#000000;stroke-width:2.5000000;stroke-linecap:butt;stroke-linejoin:miter;stroke-dasharray:none;stroke-opacity:1.0000000" />
  <path
     d="M 633.20560,607.53759 L 597.60060,660.00759"
     id="path676"
     style="fill:none;fill-opacity:1.0000000;fill-rule:evenodd;stroke:#000000;stroke-width:2.5000000;stroke-linecap:butt;stroke-linejoin:miter;stroke-dasharray:none;stroke-opacity:1.0000000" />
  <path
     d="M 286.82270,600.65662 C 286.82270,605.66861 282.57500,609.73162 277.33520,609.73162 C 272.09540,609.73162 267.84770,605.66861 267.84770,600.65662 C 267.84770,595.64464 272.09540,591.58162 277.33520,591.58162 C 282.57500,591.58162 286.82270,595.64464 286.82270,600.65662 L 286.82270,600.65662 z "
     id="path681"
     style="font-size:12.000000px;fill-rule:evenodd;stroke:#000000;stroke-width:0.16500001;stroke-opacity:1.0000000" />
  <path
     d="M 412.10540,622.34002 C 412.10540,627.35201 407.85770,631.41502 402.61790,631.41502 C 397.37810,631.41502 393.13040,627.35201 393.13040,622.34002 C 393.13040,617.32804 397.37810,613.26502 402.61790,613.26502 C 407.85770,613.26502 412.10540,617.32804 412.10540,622.34002 L 412.10540,622.34002 z "
     id="path682"
     style="font-size:12.000000px;fill-rule:evenodd;stroke:#000000;stroke-width:0.16500001;stroke-opacity:1.0000000" />
  <path
     d="M 528.55410,601.45942 C 528.55410,606.47141 524.30640,610.53442 519.06660,610.53442 C 513.82680,610.53442 509.57910,606.47141 509.57910,601.45942 C 509.57910,596.44744 513.82680,592.38442 519.06660,592.38442 C 524.30640,592.38442 528.55410,596.44744 528.55410,601.45942 L 528.55410,601.45942 z "
     id="path683"
     style="font-size:12.000000px;fill-rule:evenodd;stroke:#000000;stroke-width:0.16500001;stroke-opacity:1.0000000" />
  <path
     d="M 1.8750000,672.54549 C 5.8239000,672.81639 15.879700,676.93989 19.706200,680.85399 C 41.617500,698.02999 75.960700,702.03129 97.138100,686.26179 C 119.52110,669.48769 145.63450,669.48769 166.41870,683.99039 C 200.06300,703.31559 222.14020,701.43719 249.32830,688.80419 C 276.91820,670.14299 316.07520,667.47829 332.90180,685.92989 C 368.21490,716.23679 410.66560,704.98419 432.05260,687.53739 C 449.62170,672.09989 476.46900,667.15499 498.52010,685.86869 C 522.17860,702.77389 566.65620,704.25029 592.39400,686.06089 C 611.70180,674.70339 636.05030,662.92669 666.40980,683.99899 C 685.71760,694.22079 714.07680,700.31009 744.51480,680.58309 C 751.84380,675.52469 766.80980,666.30769 773.84280,666.10669"
     id="path684"
     style="fill:none;fill-opacity:1.0000000;fill-rule:evenodd;stroke:#000000;stroke-width:3.7500000;stroke-linecap:butt;stroke-linejoin:miter;stroke-dasharray:none;stroke-opacity:1.0000000" />
  <path
     d="M 1.8750000,702.23619 C 5.8239000,702.50709 15.879700,706.63059 19.706200,710.54469 C 41.617500,727.72069 75.960700,731.72199 97.138100,715.95249 C 119.52110,699.17839 145.63450,699.17839 166.41870,713.68109 C 200.06300,733.00629 222.14020,731.12789 249.32830,718.49489 C 276.91820,699.83369 316.07520,697.16899 332.90180,715.62059 C 368.21490,745.92749 410.66560,734.67489 432.05260,717.22809 C 449.62170,701.79059 476.46900,696.84569 498.52010,715.55939 C 522.17860,732.46459 566.65590,733.94099 592.39370,715.75159 C 611.70150,704.39409 636.05000,692.61739 666.40950,713.68969 C 685.71730,723.91149 714.07680,730.00079 744.51480,710.27379 C 751.84380,705.21539 766.80980,695.99839 773.84280,695.79739"
     id="path685"
     style="font-size:12.000000px;fill:none;fill-rule:evenodd;stroke:#000000;stroke-width:3.7500000;stroke-opacity:1.0000000" />
  <path
     d="M 1.8750000,731.92669 C 5.8239000,732.19759 15.879700,736.32109 19.706200,740.23519 C 41.617500,757.41119 75.960700,761.41249 97.138100,745.64299 C 119.52110,728.86889 145.63450,728.86889 166.41870,743.37159 C 200.06300,762.69679 222.14020,760.81839 249.32830,748.18539 C 276.91820,729.52419 316.07520,726.85949 332.90180,745.31109 C 368.21490,775.61799 410.66560,764.36539 432.05260,746.91859 C 449.62170,731.48109 476.46900,726.53619 498.52010,745.24989 C 522.17860,762.15509 566.65540,763.63149 592.39320,745.44209 C 611.70100,734.08459 636.04950,722.30789 666.40900,743.38019 C 685.71680,753.60199 714.07680,759.69129 744.51480,739.96429 C 751.84380,734.90589 766.80980,725.68889 773.84280,725.48789"
     id="path686"
     style="font-size:12.000000px;fill:none;fill-rule:evenodd;stroke:#000000;stroke-width:3.7499990;stroke-opacity:1.0000000" />
  <path
     d="M 24.612300,479.77509 C 27.373800,482.20559 36.156700,488.02319 41.530900,489.80779 C 47.129500,489.10799 59.058700,479.92479 63.145500,478.72789 C 38.246100,439.81599 22.961400,464.19679 24.377200,479.77509 L 24.612300,479.77509 L 24.612300,479.77509 L 24.612300,479.77509 z "
     id="path687"
     style="fill:#ffcf00;fill-opacity:1.0000000;fill-rule:evenodd;stroke:#000000;stroke-width:2.5000000;stroke-linecap:butt;stroke-linejoin:miter;stroke-dasharray:none;stroke-opacity:1.0000000" />
  <path
     d="M 614.92670,458.53799 L 704.71980,457.76229 L 691.72600,494.22249 C 691.72600,494.22249 593.59360,494.80439 593.78750,494.80439 C 593.98150,494.80439 614.92670,458.53799 614.92670,458.53799 z "
     id="path688"
     style="fill:#ffcf00;fill-opacity:1.0000000;fill-rule:evenodd;stroke:#000000;stroke-width:2.5000000;stroke-linecap:butt;stroke-linejoin:miter;stroke-dasharray:none;stroke-opacity:1.0000000" />
  <path
     d="M 662.71770,298.40699 C 682.88170,300.71149 705.35020,303.59209 737.03580,296.67879 C 738.18780,306.47259 730.12280,336.43039 726.66580,345.07189 C 722.05780,345.64809 652.34780,345.64819 648.31500,345.07199 C 659.26130,331.82149 664.44600,312.80979 662.71770,298.40699 L 662.71770,298.40699 z "
     id="path693"
     style="fill:#ffcf00;fill-opacity:1.0000000;fill-rule:evenodd;stroke:#000000;stroke-width:2.5000000;stroke-linecap:butt;stroke-linejoin:miter;stroke-dasharray:none;stroke-opacity:1.0000000" />
  <path
     d="M 507.07020,119.89080 C 536.08950,118.34005 561.52030,116.10281 606.86820,108.54749 C 610.46530,113.77851 605.16900,136.16949 602.31410,141.41061 C 596.22410,142.37215 502.95730,149.39401 497.40190,149.64067 C 509.38810,137.40785 509.68080,130.30431 507.07020,119.89080 L 507.07020,119.89080 L 507.07020,119.89080 z "
     id="path694"
     style="font-size:12.000000px;fill:#ffcf00;fill-rule:evenodd;stroke:#000000;stroke-width:2.1954260;stroke-opacity:1.0000000" />
  <path
     d="M 334.61030,113.09789 C 362.82240,111.94181 399.37300,110.20612 431.79130,106.24242 C 434.84990,111.04147 429.49390,125.97402 427.45780,131.25059 C 395.40190,131.22854 364.15160,134.12367 332.59630,137.56803 C 343.59820,130.06689 348.68980,124.24108 333.92900,112.41651 L 334.61030,113.09789 L 334.61030,113.09789 z "
     id="path695"
     style="font-size:12.000000px;fill:#ffcf00;fill-rule:evenodd;stroke:#000000;stroke-width:1.9660389;stroke-opacity:1.0000000" />
  <path
     d="M 153.89540,130.92484 L 241.11490,122.74804 L 232.25670,158.86235 L 143.67430,160.22515 L 153.89540,130.92484 z "
     id="path696"
     style="fill:#ffcf00;fill-opacity:1.0000000;fill-rule:evenodd;stroke:#000000;stroke-width:2.5000000;stroke-linecap:butt;stroke-linejoin:miter;stroke-dasharray:none;stroke-opacity:1.0000000" />
</svg>
