<?xml version="1.0" encoding="UTF-8"?>
<svg xmlns="http://www.w3.org/2000/svg" width="450" height="300">
	<rect fill="#008000" width="450" height="300"/>
	<g transform="matrix(1.8867174,0,0,1.8867174,-233.77139,-72.880491)" fill="#ffffff">
		<path d="m 232.86806,65.451547 c -0.57674,0.322297 -1.42489,0.356223 -1.84896,0.08481 -0.10178,-0.06785 -0.25445,-0.01696 -0.3223,0.08482 -0.0848,0.152667 -0.23748,0.152667 -0.59371,-0.01696 -0.37318,-0.16963 -0.49192,-0.16963 -0.55977,0 -0.0339,0.101778 -0.1866,0.203556 -0.35623,0.203556 -0.15266,0 -0.39015,0.101778 -0.49192,0.203556 -0.16963,0.16963 -0.28838,0.16963 -0.54282,0 -0.458,-0.271408 -0.93297,-0.254445 -3.22297,0.118741 -1.91682,0.322297 -3.05334,0.712446 -3.05334,1.068669 0,0.08482 -0.11874,0.135704 -0.25445,0.08482 -0.1357,-0.06785 -0.28837,-0.03393 -0.33926,0.05089 -0.0678,0.101778 -0.22051,0.16963 -0.35622,0.16963 -0.1357,0 -0.44104,0.186593 -0.67852,0.424075 -0.23748,0.237482 -0.50889,0.424075 -0.62763,0.441038 -0.42407,0.03393 -1.05171,-0.05089 -1.18741,-0.16963 -0.0678,-0.06785 -0.55978,-0.06785 -1.10259,0 -1.06867,0.152667 -1.6963,-0.101778 -1.84897,-0.712446 -0.10178,-0.33926 -0.33926,-0.407112 -0.66156,-0.186593 -0.10178,0.06785 -0.37318,0.542816 -0.5937,1.051706 -0.57675,1.374003 -0.96689,1.832004 -2.0186,2.323931 -1.01778,0.491927 -2.03556,1.390966 -2.03556,1.815041 0,0.152667 -0.16963,0.525853 -0.37319,0.797261 -0.30533,0.407112 -0.39015,0.746372 -0.39015,1.594522 0,0.644594 -0.0848,1.170447 -0.20355,1.289188 -0.11874,0.118741 -0.22052,0.305334 -0.22052,0.407112 0,0.08482 -0.27141,0.407112 -0.61067,0.67852 -0.33926,0.288371 -0.76333,0.644594 -0.94993,0.814224 -0.39015,0.356223 -1.35704,0.797261 -1.74719,0.797261 -0.37318,0 -0.61066,0.271408 -1.0517,1.221336 -0.22052,0.458001 -0.458,0.814224 -0.52585,0.814224 -0.45801,0 -1.39097,1.390966 -1.39097,2.086449 0,0.407112 -0.44104,1.085632 -1.11956,1.730226 -0.20355,0.186593 -0.54281,0.797261 -0.76333,1.35704 -0.20356,0.559779 -0.50889,1.119558 -0.67852,1.221336 -0.15267,0.118741 -0.33926,0.491927 -0.40712,0.84815 -0.0509,0.356223 -0.15266,0.831187 -0.20355,1.051706 -0.0679,0.288371 -0.0339,0.373186 0.1357,0.322297 0.11874,-0.03393 0.40711,0.118741 0.61067,0.33926 0.39015,0.424075 0.50889,0.882076 0.23748,0.882076 -0.28837,0 -0.37318,0.84815 -0.10178,1.238299 0.35623,0.50889 0.3223,1.967708 -0.0848,3.002451 -0.18659,0.474964 -0.33926,1.051706 -0.33926,1.306151 0,0.50889 -0.83119,1.916819 -1.13652,1.916819 -0.11874,0 -0.22052,0.06785 -0.22052,0.16963 0,0.08482 0.11874,0.16963 0.25444,0.16963 0.15267,0 0.33926,0.203556 0.44104,0.458001 0.10178,0.271408 0.25445,0.610668 0.33926,0.763335 0.0848,0.16963 0.0848,0.322295 -0.017,0.390155 -0.10178,0.0509 -0.16963,0.458 -0.16963,0.89903 0.017,0.66156 0.10178,0.88208 0.50889,1.28919 0.55978,0.54282 0.66156,0.83119 0.23748,0.66156 -0.22052,-0.0848 -0.25444,-0.0339 -0.15267,0.30533 0.1866,0.59371 0.30534,0.66156 0.67852,0.37319 0.23749,-0.18659 0.27141,-0.28837 0.13571,-0.33926 -0.25445,-0.0848 -0.30534,-0.55978 -0.0678,-0.55978 0.0848,0 0.23748,0.22052 0.33926,0.50889 0.0848,0.27141 0.25444,0.50889 0.33926,0.50889 0.10177,0 0.18659,0.11874 0.18659,0.25445 0,0.1357 0.11874,0.25444 0.25444,0.25444 0.13571,0 0.25445,0.0509 0.25445,0.1357 0,0.0679 0.39015,0.52586 0.84815,1.03475 0.54282,0.5937 0.84815,1.06867 0.86511,1.35704 0.017,0.71244 0.11874,1.08563 0.33926,1.20437 0.10178,0.0678 0.13571,0.22052 0.0848,0.3223 -0.0678,0.10178 -0.0509,0.18659 0.0509,0.18659 0.10177,0 0.1357,0.10178 0.10177,0.20356 -0.0509,0.1357 0.20356,0.33926 0.62764,0.52585 0.71244,0.28837 1.30615,0.76333 3.34171,2.59534 2.05252,1.84897 2.56141,2.00163 4.10504,1.25526 1.62845,-0.7803 4.18986,-0.84815 5.61476,-0.15267 0.18659,0.0848 0.47496,0.0509 0.76333,-0.10177 1.5606,-0.7803 2.73104,-1.27223 3.0703,-1.27223 0.20356,0 0.42408,-0.11874 0.47497,-0.23748 0.11874,-0.3223 1.49274,-0.61067 3.0703,-0.6446 1.00082,-0.0339 1.27223,0.017 1.57756,0.28838 0.42407,0.39014 1.01778,1.47578 1.01778,1.84896 0,0.13571 0.16963,0.42408 0.39015,0.61067 0.28837,0.28837 0.50889,0.33926 0.96689,0.25445 0.3223,-0.0509 0.89904,-0.13571 1.27222,-0.16963 0.37319,-0.0509 0.91601,-0.10178 1.22134,-0.13571 0.44104,-0.0679 0.55978,0 0.62763,0.3223 0.0509,0.20355 0.25445,0.44104 0.44104,0.49193 0.18659,0.0509 0.33926,0.20355 0.33926,0.32229 0,0.13571 0.10178,0.3223 0.23748,0.42408 0.3223,0.27141 0.16963,1.91682 -0.25444,2.76497 -0.22052,0.42407 -0.25445,0.64459 -0.11874,0.67852 0.11874,0.0509 0.15266,0.18659 0.0509,0.40711 -0.0679,0.16963 -0.16963,0.66156 -0.20355,1.08563 -0.0848,0.72941 -0.30534,1.08563 -0.59371,0.916 -0.22052,-0.1357 -0.15266,0.33926 0.10178,0.88208 0.13571,0.27141 0.37319,0.79726 0.54282,1.17045 0.16963,0.37318 0.5937,0.94992 0.916,1.27222 1.20437,1.17045 2.71408,3.40956 2.71408,4.03719 0,0.20356 0.0848,0.40712 0.16963,0.458 0.10178,0.0679 0.1357,0.16963 0.0848,0.25445 -0.0509,0.0848 0.0848,0.55978 0.3223,1.05171 0.22052,0.49192 0.54282,1.30615 0.72941,1.79807 0.30533,0.88208 0.30533,0.91601 -0.017,1.13652 -0.30534,0.23749 -0.30534,0.28838 0.23748,1.64542 0.37319,0.94992 0.54282,1.66237 0.52585,2.17126 -0.0339,0.88208 -0.30533,1.6963 -0.5937,1.6963 -0.3223,0.017 -1.1026,1.42489 -1.22134,2.22215 -0.1357,1.01778 -0.57674,2.52749 -0.71244,2.52749 -0.22052,0 -0.11875,3.12119 0.11874,3.68097 0.11874,0.30533 0.28837,0.55978 0.33926,0.55978 0.16963,0 0.89904,1.50971 1.62844,3.30778 0.15267,0.37319 0.47497,1.01778 0.72941,1.44186 0.35623,0.61067 0.458,1.00082 0.47497,1.95074 0.017,0.6446 0.10178,1.5606 0.20355,2.03556 0.10178,0.45801 0.30534,1.52667 0.458,2.35786 0.3223,1.74719 0.55978,2.29001 1.44186,3.2569 0.40711,0.44104 0.76333,1.10259 1.01778,1.86593 0.40711,1.25526 0.96689,2.4766 1.20437,2.62926 0.0848,0.0509 0.20356,0.44104 0.25445,0.88208 0.10178,0.66156 0.0678,0.79726 -0.15267,0.79726 -0.1357,0 -0.28837,0.10178 -0.33926,0.20356 -0.0679,0.23748 0.20356,0.81422 0.458,1.00081 0.0848,0.0678 0.11874,0.30534 0.0678,0.54282 -0.11874,0.57674 0.13571,0.98385 0.37319,0.62763 0.10178,-0.16963 0.16963,-0.18659 0.16963,-0.0509 0,0.11874 0.10178,0.22052 0.22052,0.22052 0.1357,0 0.37318,0.15267 0.54281,0.33926 0.37319,0.42408 0.71245,0.42408 1.13653,0.0509 0.20355,-0.18659 0.57674,-0.28837 1.01778,-0.27141 0.39014,0.017 0.86511,-0.0848 1.10259,-0.23748 0.49193,-0.3223 1.71326,-0.40711 2.64623,-0.18659 0.44104,0.10177 0.72941,0.10177 0.88207,-0.0339 0.13571,-0.10178 0.40712,-0.16963 0.62764,-0.1357 0.22051,0.0339 0.37318,-0.0339 0.35622,-0.13571 -0.017,-0.11874 0.28837,-0.23748 0.69548,-0.27141 0.89904,-0.10177 2.6123,-1.22133 3.57919,-2.30696 0.1866,-0.22052 0.62764,-0.67852 1.00082,-1.01778 0.62763,-0.61067 1.79808,-2.27305 1.79808,-2.56142 0,-0.22052 1.13652,-1.374 1.35704,-1.374 0.18659,0 0.49193,-0.62763 0.916,-1.95075 0.30534,-0.94992 0.37319,-2.20518 0.10178,-2.03556 -0.30533,0.1866 -0.16963,-0.22051 0.22052,-0.67852 0.20355,-0.23748 0.916,-0.64459 1.56059,-0.916 0.86512,-0.33926 1.28919,-0.62763 1.57756,-1.03474 0.23749,-0.35622 0.3223,-0.62763 0.22052,-0.72941 -0.10178,-0.10178 -0.10178,-0.3223 0.017,-0.61067 0.22051,-0.54281 0.18659,-1.89985 -0.0339,-2.12037 -0.10178,-0.10178 -0.16963,-0.25445 -0.16963,-0.33926 0,-0.10178 0.0848,-0.0678 0.16963,0.0678 0.1357,0.20356 0.16963,0.18659 0.16963,-0.1357 0,-0.20356 -0.0848,-0.35623 -0.20356,-0.33926 -0.11874,0.0339 -0.20355,-0.1866 -0.22052,-0.54282 -0.017,-0.3223 -0.11874,-0.61067 -0.23748,-0.64459 -0.10178,-0.0339 -0.18659,-0.23749 -0.18659,-0.44104 0,-0.44104 1.52667,-2.13734 1.93378,-2.13734 0.15267,0 0.27141,-0.0678 0.27141,-0.1357 0,-0.0679 0.1357,-0.3223 0.30533,-0.54282 0.61067,-0.83119 1.2383,-1.32311 2.18823,-1.71326 0.54282,-0.20356 1.01778,-0.44104 1.06867,-0.49193 0.0509,-0.0678 0.20356,-0.18659 0.35622,-0.27141 0.44104,-0.23748 1.57756,-1.78111 1.81504,-2.4766 0.16963,-0.49192 0.16963,-0.79726 0.0339,-1.35704 -0.11874,-0.40711 -0.18659,-1.67933 -0.16963,-2.9346 0.0509,-2.83282 0.0679,-2.71407 -0.39015,-2.91763 -0.3223,-0.15267 -0.47496,-0.44104 -0.67852,-1.35704 -0.37319,-1.47578 -0.35622,-1.6963 0.0509,-1.79808 0.18659,-0.0509 0.33926,-0.18659 0.33926,-0.28837 0,-0.11874 -0.11874,-0.16963 -0.25445,-0.10178 -0.33926,0.11874 -0.54281,-0.35622 -0.30533,-0.72941 0.1357,-0.22052 0.0678,-0.42407 -0.30533,-0.88207 -0.27141,-0.30534 -0.49193,-0.69549 -0.49193,-0.83119 0,-0.35622 0.55978,-1.93378 0.72941,-2.05252 0.16963,-0.11874 0.94993,-1.91682 1.08563,-2.49356 0.0509,-0.20356 0.25445,-0.458 0.44104,-0.55978 0.52585,-0.28837 1.40793,-1.2383 1.74719,-1.86593 0.72941,-1.44186 3.01941,-3.90149 4.41038,-4.78357 0.916,-0.57674 3.61312,-3.5283 3.63008,-3.96934 0,-0.0678 0.27141,-0.55978 0.5937,-1.06867 0.3223,-0.50889 0.59371,-1.05171 0.59371,-1.22134 0,-0.33926 1.03474,-2.56141 1.2383,-2.64622 0.0679,-0.0339 0.11874,-0.13571 0.11874,-0.23749 0,-0.0848 0.18659,-0.54281 0.42407,-1.01778 0.23749,-0.458 0.42408,-1.10259 0.42408,-1.44185 0,-0.44104 0.0848,-0.61067 0.33926,-0.67852 0.35622,-0.10178 0.458,-0.3223 0.16963,-0.42408 -0.15267,-0.0509 -0.23748,-0.94992 -0.1357,-1.56059 0.0848,-0.47497 -0.62764,-0.67852 -1.00082,-0.28837 -0.37319,0.37318 -1.83201,0.88207 -2.18823,0.74637 -0.1357,-0.0509 -0.44104,0 -0.66156,0.11874 -0.22051,0.11874 -0.57674,0.16963 -0.78029,0.11874 -0.22052,-0.0679 -0.54282,0.0339 -0.83119,0.25445 -0.33926,0.23748 -0.64459,0.32229 -1.03474,0.2714 -0.37319,-0.0509 -0.74638,0.017 -1.08564,0.22052 -0.88207,0.54282 -1.52667,0.3223 -2.20519,-0.74637 -0.16963,-0.25444 -0.47496,-0.50889 -0.71244,-0.55978 l -0.40711,-0.10178 0.39015,-0.20355 c 0.64459,-0.3223 0.57674,-0.81423 -0.23749,-1.66238 -0.40711,-0.42407 -0.84815,-0.93296 -0.98385,-1.136518 -0.1357,-0.186593 -0.3223,-0.356223 -0.42408,-0.356223 -0.0848,0 -0.30533,-0.237482 -0.458,-0.50889 -0.16963,-0.288371 -0.42407,-0.559779 -0.5937,-0.627631 -0.16963,-0.06785 -0.40711,-0.220519 -0.52585,-0.33926 -0.11875,-0.101778 -0.3223,-0.16963 -0.44104,-0.118741 -0.15267,0.05089 -0.25445,-0.06785 -0.30534,-0.33926 -0.0679,-0.305334 -0.017,-0.441038 0.15267,-0.441038 0.20356,0 0.20356,-0.03393 -0.017,-0.254445 -0.3223,-0.33926 -0.39015,-0.322297 -0.50889,0.118741 -0.10178,0.390149 -0.11874,0.390149 -0.35623,0.05089 -0.15266,-0.186593 -0.33926,-0.644594 -0.42407,-1.01778 -0.47496,-1.950745 -0.71245,-2.442672 -1.54363,-3.087266 -0.94993,-0.746372 -1.18741,-1.289188 -1.2383,-2.934599 -0.0339,-0.644594 -0.15267,-1.289188 -0.25445,-1.424892 -0.11874,-0.152667 -0.23748,-0.458001 -0.25444,-0.695483 0,-0.237482 -0.0509,-0.424075 -0.10178,-0.424075 -0.0509,0 -0.40711,-0.288371 -0.81422,-0.644594 -0.79727,-0.712446 -1.27223,-1.899856 -0.74638,-1.899856 0.1866,0 0.13571,-0.118741 -0.18659,-0.407112 -0.23748,-0.220519 -0.64459,-0.84815 -0.93296,-1.390966 -0.27141,-0.559779 -0.66156,-1.289188 -0.86512,-1.645411 -0.18659,-0.356223 -0.35622,-0.729409 -0.35622,-0.84815 0,-0.118741 -0.1357,-0.407112 -0.28837,-0.627631 -0.16963,-0.237482 -0.3223,-0.559779 -0.33926,-0.729409 -0.0339,-0.186593 -0.3223,-0.627631 -0.6446,-1.01778 -0.32229,-0.373186 -0.5937,-0.865113 -0.5937,-1.068669 0,-0.220519 -0.0679,-0.424075 -0.15267,-0.491927 -0.10178,-0.05089 -0.22052,-0.627631 -0.28837,-1.272225 -0.0509,-0.644594 -0.20355,-1.306151 -0.3223,-1.475781 -0.44103,-0.593705 -2.45963,-0.390149 -3.206,0.322297 -0.20356,0.186593 -0.49193,0.288371 -0.69549,0.237482 -0.18659,-0.03393 -0.67852,-0.16963 -1.10259,-0.254445 -0.42408,-0.101778 -0.916,-0.254445 -1.1026,-0.33926 -0.61066,-0.271408 -1.74718,-0.491927 -2.17126,-0.407112 -0.3223,0.06785 -0.458,0 -0.54282,-0.271408 -0.0848,-0.271408 -0.25444,-0.356223 -0.64459,-0.356223 -0.916,0 -1.76415,-0.322297 -1.86593,-0.67852 -0.0509,-0.203556 -0.23748,-0.33926 -0.42407,-0.33926 -0.20356,0 -0.40712,-0.08482 -0.45801,-0.16963 -0.25444,-0.407112 -1.86593,-0.03393 -2.62926,0.610668 -0.52585,0.458001 -0.67852,1.221336 -0.35622,1.747189 0.2714,0.441038 -0.40712,1.35704 -1.01778,1.374003 -0.13571,0 -0.55978,-0.220519 -0.93297,-0.474964 -0.69548,-0.50889 -1.76415,-0.882076 -2.45963,-0.882076 -0.59371,0 -1.11956,-0.424075 -1.25527,-1.034743 -0.0848,-0.33926 -0.2714,-0.576742 -0.55977,-0.695483 -0.25445,-0.101778 -0.67852,-0.288371 -0.94993,-0.441038 -0.30534,-0.152667 -0.88208,-0.254445 -1.39097,-0.237482 -0.55978,0.01696 -1.11956,-0.101778 -1.57756,-0.305334 -0.67852,-0.33926 -1.13652,-0.865113 -0.916,-1.085632 0.0509,-0.05089 -0.017,-0.101778 -0.16963,-0.101778 -0.15267,0 -0.28837,0.06785 -0.28837,0.16963 0,0.288371 -0.49193,0.186593 -0.67852,-0.152667 -0.1357,-0.271408 -0.0678,-0.407112 0.33926,-0.763335 0.28837,-0.237482 0.62763,-0.390149 0.76333,-0.33926 0.13571,0.06785 0.25445,0.01696 0.25445,-0.101778 0,-0.101778 -0.0848,-0.135704 -0.16963,-0.08481 -0.11874,0.06785 -0.1357,-0.118741 -0.0678,-0.559779 0.0848,-0.576742 0.0509,-0.712446 -0.25445,-0.865113 -0.42407,-0.237482 -0.458,-0.610668 -0.0848,-0.983854 0.1357,-0.152667 0.22052,-0.373186 0.16963,-0.50889 -0.0509,-0.135704 -0.017,-0.186593 0.0679,-0.135704 0.10178,0.05089 0.16963,0.03393 0.16963,-0.05089 0,-0.322297 -0.23748,-0.356223 -0.54282,-0.08481 -0.30533,0.271408 -0.32229,0.271408 -0.40711,-0.06785 -0.0848,-0.288371 -0.49193,-0.542816 -0.916,-0.559779 -0.0509,0 -0.37319,0.152667 -0.71245,0.322297 l -4e-5,-10e-7 z"
		      fill="#ffffff"/>
		<path
		     d="m 284.29988,137.93445 c -0.1357,0.22051 -0.25445,0.64459 -0.28837,0.96689 -0.0509,0.71244 -0.15267,0.81422 -0.55978,0.55978 -0.27141,-0.16963 -0.33926,-0.16963 -0.33926,0.0339 0,0.13571 0.10178,0.28837 0.22052,0.33926 0.10178,0.0509 0.0339,0.0509 -0.16963,0 -0.39015,-0.0848 -0.458,0.017 -0.40711,0.6446 0.017,0.15266 -0.0509,0.32229 -0.15267,0.39014 -0.0848,0.0509 -0.16963,0.25445 -0.16963,0.42408 0,0.22052 -0.0848,0.28837 -0.25445,0.23748 -0.15266,-0.0678 -0.25444,0 -0.25444,0.15267 0,0.33926 -1.20437,1.18741 -2.12038,1.49274 -0.37318,0.11874 -0.74637,0.28837 -0.83118,0.35623 -0.10178,0.0678 -0.33926,0.1357 -0.55978,0.1357 -0.30534,0 -0.39015,0.0848 -0.39015,0.458 0,0.27141 -0.15267,0.69548 -0.3223,0.96689 -0.33926,0.50889 -0.33926,0.916 0,2.86675 0.20356,1.13652 0.20356,1.17045 -0.28837,2.12037 -0.27141,0.52586 -0.55978,1.01778 -0.62763,1.06867 -0.5937,0.42408 -0.81422,1.96771 -0.39015,2.76497 0.13571,0.27141 0.20356,0.74637 0.15267,1.18741 -0.0509,0.44104 -0.017,0.7803 0.10178,0.84815 0.10177,0.0678 0.18659,0.25445 0.18659,0.42408 0,0.37318 0.50889,0.86511 0.89904,0.86511 0.15267,0 0.28837,0.0678 0.28837,0.16963 0,0.25444 0.88208,0.18659 1.25526,-0.0848 0.18659,-0.1357 0.54282,-0.25444 0.79726,-0.25444 0.50889,0 1.17045,-0.67852 1.17045,-1.17045 0,-0.15266 0.10178,-0.42407 0.23748,-0.61067 0.11874,-0.18659 0.3223,-0.76333 0.44104,-1.27222 0.1357,-0.50889 0.37319,-1.20437 0.52585,-1.54363 0.16963,-0.33926 0.40711,-0.98386 0.50889,-1.44186 0.11874,-0.458 0.49193,-1.56059 0.84815,-2.4766 0.35623,-0.89904 0.69549,-1.93378 0.74637,-2.29 0.20356,-1.22134 0.25445,-1.40793 0.47497,-1.35704 0.20355,0.0339 0.22052,-0.11874 0.017,-1.40793 l -0.11874,-0.76333 0.33926,0.40711 0.33926,0.42407 0.28837,-0.54281 c 0.20356,-0.40712 0.23748,-0.62764 0.10178,-0.86512 -0.0848,-0.18659 -0.16963,-0.67852 -0.16963,-1.08563 0,-0.40711 -0.0848,-1.00082 -0.18659,-1.32311 -0.23749,-0.74638 -0.89904,-2.17127 -1.00082,-2.18823 -0.0509,0 -0.20356,0.16963 -0.33926,0.37319 z"
		     fill="#ffffff"/>
	</g>
</svg>
 
