<?xml version="1.0" encoding="UTF-8"?>
<!-- Generator: Adobe Illustrator 13.0.1, SVG Export Plug-In . SVG Version: 6.00 Build 14948)  -->
<!DOCTYPE svg PUBLIC "-//W3C//DTD SVG 1.1//EN" "http://www.w3.org/Graphics/SVG/1.1/DTD/svg11.dtd">
<svg version="1.1" id="Layer_1" xmlns="http://www.w3.org/2000/svg" xmlns:xlink="http://www.w3.org/1999/xlink" x="0px" y="0px" width="900px" height="600px" viewBox="0 0 900 600" enable-background="new 0 0 900 600" xml:space="preserve">
<g id="Layer_3">
	<rect fill="#FFFFFF" width="900" height="600"/>
</g>
<g id="Layer_2">
	<g>
		<polygon points="452.701,299.93 490.114,248.043 415.532,248.063"/>
		<path d="M698.866,291.93l-140.334-86.333h-51.347c-2.01-4.655-14.037-32.253-22.486-45.276c-1.875-2.89-1.482-3.569-4.499-5.349    c-5.314-3.135-50.731-1.488-55.206-1.325c-1.466,0.2-8.233,1.613-9.813,9.236c-0.975,4.71,0.154,8.875,3.667,11.667    c-0.084-2.583,0.822-7.255,4.697-6.677c2.672,0.328,4.552,3.261,4.552,6.177c0,4.887-6.064,15.966-6.064,15.966    s-3.789,8.469-7.413,15.581h-69.422L201.134,292.63l23.328,30.331l42.005-0.034l-13.627-18.905l5.17-3.453l15.886,22.125    l35.566-0.064l-26.704-38.576l5.019-3.35l29.686,41.592l35.666-0.031l-41.095-57.75l5.353-3.573l42.813,61.092l30.202,0.032    l3.665-4.586l-50.41-74.075l5.251-3.504l55.607,77.127l-59.609,81.134l40.599,0.134l39.105-53.398l9.335,12.947l-65.777,89.088    l161.69-0.032l-59.333-88.302l10.263-14.855l35.517,51.896l39.11-0.164l-56.175-78.445l53.225-77.053l4.942,3.253l-49.356,74.191    l3.18,4.588l29.327-0.039l43.223-61.385l4.041,2.66l-40.548,58.124l36.164,0.032l29.726-41.479l4.38,2.883l-27.002,38.731    l35.667,0.064l16.207-22.428l5.129,3.375l-14.008,19.087l42.005,0.034l0.775-1.104L698.866,291.93z M455.782,164.632    c2.862,0,5.185,2.321,5.185,5.185c0,2.864-2.32,5.185-5.185,5.185c-2.865,0-5.188-2.321-5.188-5.185    C450.596,166.953,452.918,164.632,455.782,164.632z M467.683,423.056L452.93,400.64l-16.932,23.647l-11.764-0.071l28.854-39.168    l25.123,37.839L467.683,423.056z M452.831,332.264l-63.633-99.333l125.668-0.167L452.831,332.264z"/>
		<path d="M424.832,153.651c-0.318,0.014-0.24,0.011,0.162-0.004c0.021-0.003,0.041-0.005,0.061-0.008    C424.993,153.643,424.921,153.647,424.832,153.651z"/>
		<path d="M425.055,153.639C425.367,153.619,425.331,153.604,425.055,153.639L425.055,153.639z"/>
	</g>
</g>
</svg>