<?xml version="1.0" encoding="UTF-8" standalone="no"?>
<!-- Created with Inkscape (http://www.inkscape.org/) -->
<svg
   xmlns:dc="http://purl.org/dc/elements/1.1/"
   xmlns:cc="http://web.resource.org/cc/"
   xmlns:rdf="http://www.w3.org/1999/02/22-rdf-syntax-ns#"
   xmlns:svg="http://www.w3.org/2000/svg"
   xmlns="http://www.w3.org/2000/svg"
   xmlns:sodipodi="http://sodipodi.sourceforge.net/DTD/sodipodi-0.dtd"
   xmlns:inkscape="http://www.inkscape.org/namespaces/inkscape"
   width="600"
   height="400"
   id="svg4805"
   sodipodi:version="0.32"
   inkscape:version="0.44"
   version="1.0"
   sodipodi:docbase="C:\flags"
   sodipodi:docname="Flag of Ashanti.svg">
  <g
     inkscape:label="Layer 1"
     inkscape:groupmode="layer"
     id="layer1">
    <rect
       style="fill:#090;fill-opacity:1;stroke:none;stroke-width:30;stroke-miterlimit:4;stroke-dasharray:none;stroke-opacity:1"
       id="rect4823"
       width="600"
       height="120"
       x="0"
       y="280" />
    <rect
       style="fill:white;fill-opacity:1;stroke:none;stroke-width:30;stroke-miterlimit:4;stroke-dasharray:none;stroke-opacity:1"
       id="rect4827"
       width="600"
       height="20"
       x="0"
       y="260" />
    <rect
       style="fill:black;fill-opacity:1;stroke:none;stroke-width:30;stroke-miterlimit:4;stroke-dasharray:none;stroke-opacity:1"
       id="rect4829"
       width="600"
       height="120"
       x="0"
       y="140" />
    <rect
       style="fill:yellow;fill-opacity:1;stroke:none;stroke-width:30;stroke-miterlimit:4;stroke-dasharray:none;stroke-opacity:1"
       id="rect4831"
       width="600"
       height="120"
       x="5.6843419e-014"
       y="0" />
    <rect
       style="fill:white;fill-opacity:1;stroke:none;stroke-width:30;stroke-miterlimit:4;stroke-dasharray:none;stroke-opacity:1"
       id="rect4833"
       width="600"
       height="20"
       x="0"
       y="120" />
    <path
       style="fill:yellow"
       d="M 284.79411,188.63938 C 298.46867,189.5062 304.17482,189.5062 317.41597,188.63938 L 335.73057,250 L 352.94467,250 L 333.17971,187.08322 C 339.39178,186.24662 344.96442,185.20808 351.21548,181.97297 L 350.46065,151.1923 C 318.57572,154.8934 282.26754,154.73152 250.17098,150 L 250.17098,182.36442 C 256.10597,183.67529 260.74073,184.98616 267.97595,186.29704 L 250,250 L 266.59673,250 L 284.79411,188.63938 z "
       id="path4797"
       sodipodi:nodetypes="ccccccccccccc" />
  </g>
</svg>
