<?xml version="1.0" encoding="UTF-8" standalone="no"?>
<!-- Created with Sodipodi ("http://www.sodipodi.com/") -->
<svg
   xmlns:dc="http://purl.org/dc/elements/1.1/"
   xmlns:cc="http://web.resource.org/cc/"
   xmlns:rdf="http://www.w3.org/1999/02/22-rdf-syntax-ns#"
   xmlns:svg="http://www.w3.org/2000/svg"
   xmlns="http://www.w3.org/2000/svg"
   xmlns:sodipodi="http://inkscape.sourceforge.net/DTD/sodipodi-0.dtd"
   xmlns:inkscape="http://www.inkscape.org/namespaces/inkscape"
   version="1"
   x="0.00000000"
   y="0.00000000"
   width="1000.00000"
   height="533.33000pt"
   id="svg1"
   sodipodi:version="0.32"
   inkscape:version="0.42"
   sodipodi:docname="australia.svg"
   sodipodi:docbase="/Users/daniel/Desktop/updated flags">
  <metadata
     id="metadata3668">
    <rdf:RDF>
      <cc:Work
         rdf:about="">
        <dc:format>image/svg+xml</dc:format>
        <dc:type
           rdf:resource="http://purl.org/dc/dcmitype/StillImage" />
      </cc:Work>
    </rdf:RDF>
  </metadata>
  <sodipodi:namedview
     inkscape:window-height="507"
     inkscape:window-width="701"
     inkscape:pageshadow="2"
     inkscape:pageopacity="0.0"
     borderopacity="1.0"
     bordercolor="#666666"
     pagecolor="#ffffff"
     id="base"
     inkscape:zoom="0.42921382"
     inkscape:cx="497.61162"
     inkscape:cy="312.61491"
     inkscape:window-x="64"
     inkscape:window-y="138"
     inkscape:current-layer="svg1" />
  <defs
     id="defs3" />
  <rect
     id="rect124"
     style="font-size:12.000000px;fill:#000066;stroke-width:1.0000000pt"
     y="6.1035156e-05"
     x="0.0000000"
     height="666.66248"
     width="999.99994" />
  <g
     style="font-size:12.000000px"
     id="g584"
     transform="matrix(8.333333,0.000000,0.000000,11.11104,0.000000,9.765625e-5)">
    <path
       id="path146"
       style="fill:#ffffff;stroke-width:1.0000000pt"
       d="M 0.0000000,0.0000000 L 0.0000000,3.3541000 L 53.291800,30.000000 L 60.000000,30.000000 L 60.000000,26.645900 L 6.7082000,0.0000000 L 0.0000000,0.0000000 z M 60.000000,0.0000000 L 60.000000,3.3540500 L 6.7082000,30.000000 L 0.0000000,30.000000 L 0.0000000,26.645800 L 53.291800,0.0000000 L 60.000000,0.0000000 z " />
    <path
       id="path136"
       style="fill:#ffffff;stroke-width:1.0000000pt"
       d="M 25.000000,0.0000000 L 25.000000,30.000000 L 35.000000,30.000000 L 35.000000,0.0000000 L 25.000000,0.0000000 z M 0.0000000,10.000000 L 0.0000000,20.000000 L 60.000000,20.000000 L 60.000000,10.000000 L 0.0000000,10.000000 z " />
    <path
       id="path141"
       style="fill:#cc0000;stroke-width:1.0000000pt"
       d="M 0.0000000,12.000000 L 0.0000000,18.000000 L 60.000000,18.000000 L 60.000000,12.000000 L 0.0000000,12.000000 z M 27.000000,0.0000000 L 27.000000,30.000000 L 33.000000,30.000000 L 33.000000,0.0000000 L 27.000000,0.0000000 z " />
    <path
       id="path150"
       style="fill:#cc0000;stroke-width:1.0000000pt"
       d="M 0.0000000,30.000000 L 20.000000,20.000000 L 24.472100,20.000000 L 4.4721400,30.000000 L 0.0000000,30.000000 z M 0.0000000,0.0000000 L 20.000000,10.000000 L 15.527900,10.000000 L 0.0000000,2.2360700 L 0.0000000,0.0000000 z M 35.527900,10.000000 L 55.527900,0.0000000 L 60.000000,0.0000000 L 40.000000,10.000000 L 35.527900,10.000000 z M 60.000000,30.000000 L 40.000000,20.000000 L 44.472100,20.000000 L 60.000000,27.763900 L 60.000000,30.000000 z " />
  </g>
  <polygon
     id="polygon589"
     style="font-size:12.000000px;fill:#ffffff;fill-rule:evenodd;stroke-width:1.0000000pt"
     points="30.000000,36.000000 31.735500,41.396100 37.036500,39.388600 33.899700,44.109900 38.774400,47.002700 33.127300,47.494000 33.905000,53.108700 30.000000,49.000000 26.095000,53.108700 26.872700,47.494000 21.225600,47.002700 26.100300,44.109900 22.963500,39.388600 28.264500,41.396100 30.000000,36.000000 "
     transform="matrix(9.829732,0.000000,0.000000,9.829732,-41.76197,44.61827)" />
  <g
     style="font-size:12.000000px"
     id="g596"
     transform="matrix(8.960134,0.000000,0.000000,8.960134,-54.39111,66.80807)">
    <polygon
       id="polygon590"
       style="fill:#ffffff;fill-rule:evenodd;stroke-width:1.0000000pt"
       points="90.000000,45.714300 90.826400,48.283900 93.350700,47.327900 91.857000,49.576100 94.178300,50.953700 91.489200,51.187600 91.859500,53.861300 90.000000,51.904800 88.140500,53.861300 88.510800,51.187600 85.821700,50.953700 88.143000,49.576100 86.649300,47.327900 89.173600,48.283900 90.000000,45.714300 " />
    <polygon
       id="polygon592"
       style="fill:#ffffff;fill-rule:evenodd;stroke-width:1.0000000pt"
       points="90.000000,5.7142900 90.826400,8.2838700 93.350700,7.3279000 91.857000,9.5761500 94.178300,10.953700 91.489200,11.187600 91.859500,13.861300 90.000000,11.904800 88.140500,13.861300 88.510800,11.187600 85.821700,10.953700 88.143000,9.5761500 86.649300,7.3279000 89.173600,8.2838700 90.000000,5.7142900 " />
    <polygon
       id="polygon593"
       style="fill:#ffffff;fill-rule:evenodd;stroke-width:1.0000000pt"
       points="75.000000,21.964300 75.826400,24.533900 78.350700,23.577900 76.857000,25.826200 79.178300,27.203700 76.489200,27.437600 76.859500,30.111300 75.000000,28.154800 73.140500,30.111300 73.510800,27.437600 70.821700,27.203700 73.143000,25.826200 71.649300,23.577900 74.173600,24.533900 75.000000,21.964300 " />
    <polygon
       id="polygon594"
       style="fill:#ffffff;fill-rule:evenodd;stroke-width:1.0000000pt"
       points="103.33300,17.964300 104.16000,20.533900 106.68400,19.577900 105.19000,21.826200 107.51200,23.203700 104.82300,23.437600 105.19300,26.111300 103.33300,24.154800 101.47400,26.111300 101.84400,23.437600 99.155100,23.203700 101.47600,21.826200 99.982600,19.577900 102.50700,20.533900 103.33300,17.964300 " />
    <polygon
       id="polygon595"
       style="fill:#ffffff;fill-rule:evenodd;stroke-width:1.0000000pt"
       points="96.000000,30.000000 96.653100,31.601100 98.377600,31.727500 97.056700,32.843400 97.469500,34.522500 96.000000,33.611100 94.530500,34.522500 94.943300,32.843400 93.622400,31.727500 95.346900,31.601100 96.000000,30.000000 " />
  </g>
</svg>
