<?xml version="1.0" encoding="UTF-8" standalone="no"?>
<!-- Created with Inkscape (http://www.inkscape.org/) -->
<svg
   xmlns:dc="http://purl.org/dc/elements/1.1/"
   xmlns:cc="http://web.resource.org/cc/"
   xmlns:rdf="http://www.w3.org/1999/02/22-rdf-syntax-ns#"
   xmlns:svg="http://www.w3.org/2000/svg"
   xmlns="http://www.w3.org/2000/svg"
   xmlns:sodipodi="http://inkscape.sourceforge.net/DTD/sodipodi-0.dtd"
   xmlns:inkscape="http://www.inkscape.org/namespaces/inkscape"
   width="900.00000pt"
   height="600.00000pt"
   id="svg2"
   sodipodi:version="0.32"
   inkscape:version="0.42"
   sodipodi:docbase="/home/daniel/ancientflags"
   sodipodi:docname="babylon.svg">
  <defs
     id="defs4" />
  <sodipodi:namedview
     id="base"
     pagecolor="#ffffff"
     bordercolor="#666666"
     borderopacity="1.0"
     inkscape:pageopacity="0.0"
     inkscape:pageshadow="2"
     inkscape:zoom="0.73200000"
     inkscape:cx="564.38679"
     inkscape:cy="375.00000"
     inkscape:document-units="px"
     inkscape:current-layer="layer1"
     inkscape:window-width="1040"
     inkscape:window-height="717"
     inkscape:window-x="-16"
     inkscape:window-y="26" />
  <metadata
     id="metadata7">
    <rdf:RDF>
      <cc:Work
         rdf:about="">
        <dc:format>image/svg+xml</dc:format>
        <dc:type
           rdf:resource="http://purl.org/dc/dcmitype/StillImage" />
      </cc:Work>
    </rdf:RDF>
  </metadata>
  <g
     inkscape:label="Layer 1"
     inkscape:groupmode="layer"
     id="layer1">
    <rect
       style="fill:#125dd3;fill-opacity:1.0000000;stroke:none;stroke-width:2.0999999;stroke-miterlimit:4.0000000;stroke-dasharray:none;stroke-opacity:1.0000000"
       id="rect3116"
       width="1125.0000"
       height="750.00000"
       x="0.0000000"
       y="0.0000000" />
    <path
       style="fill:#eea831;fill-opacity:1.0000000;fill-rule:evenodd;stroke:#000000;stroke-width:3.3674610;stroke-linecap:butt;stroke-linejoin:miter;stroke-miterlimit:4.0000000;stroke-dasharray:none;stroke-opacity:1.0000000"
       d="M 629.14209,233.82713 C 711.84554,232.86028 846.24315,252.67777 846.24315,252.67777 C 953.08484,252.41472 1062.6278,149.57935 1037.7040,80.037534 C 1025.5964,69.846780 1014.8781,85.465782 995.97859,101.08477 C 987.99999,104.31165 971.81695,100.73109 966.55509,91.732321 C 965.53317,78.831929 981.54189,47.016128 998.82332,42.102194 C 1050.1670,27.502644 1072.9070,81.508387 1072.9070,81.508387 C 1093.3973,214.28287 924.48702,295.48582 859.30499,303.21742 L 898.69529,475.67410 C 918.78387,502.83687 948.38129,521.84919 971.18672,528.63584 L 997.66757,656.62671 L 986.63387,672.07390 L 902.77775,669.86716 C 913.52687,644.28831 931.06805,630.93511 951.32602,625.73238 L 896.15754,559.53019 L 792.44079,493.32801 C 765.44446,535.08962 761.54107,556.47511 772.58014,586.01106 C 745.64826,630.15123 703.77391,649.84006 675.48361,665.45367 L 593.83426,665.45367 C 598.81149,646.04403 611.93919,633.42642 629.14209,623.52564 L 688.72404,616.90542 C 693.02478,605.02877 714.98480,564.62557 697.55100,524.22237 L 704.17122,444.77975 C 652.73432,459.83497 625.74876,458.41025 578.38708,451.73098 C 549.53305,459.37376 498.94448,458.86610 459.22317,462.43365 C 493.06522,528.63583 517.39841,604.34686 507.77143,661.04019 L 421.70860,663.24693 C 426.91134,641.63056 441.62293,630.88141 465.84338,614.69867 C 463.42191,576.28209 405.30572,513.41418 344.47272,466.84715 C 344.47272,466.84715 215.28167,622.46021 207.72195,633.22245 C 200.81451,643.05611 202.73672,663.75701 202.73672,663.75701 L 99.524656,663.24693 C 98.617266,648.76084 107.21872,636.99158 117.17858,627.93912 L 175.54683,621.31890 L 247.37619,446.98649 L 227.51554,317.68321 C 227.51554,317.68321 167.59132,328.98563 155.90685,321.43467 C 144.41524,314.00834 141.45272,302.23605 141.45272,302.23605 C 141.45272,302.23605 199.60777,281.08287 185.58750,251.48105 C 171.80610,222.38355 128.21227,238.24061 128.21227,238.24061 L 108.35162,244.86083 C 108.35162,244.86083 76.441406,220.10189 79.664016,207.34625 C 82.513016,196.06932 145.86620,165.41821 145.86620,165.41821 L 190.00098,136.73061 C 190.00098,136.73061 192.61840,113.62081 240.75597,97.009290 C 290.10556,79.979520 452.60294,231.62039 452.60294,231.62039 C 518.24137,243.22323 546.43864,234.79398 629.14209,233.82713 z "
       id="path1349"
       sodipodi:nodetypes="cccccsccccccccccccccccccccccczccccccsczccscczcz" />
    <path
       style="fill:none;fill-opacity:0.75000000;fill-rule:evenodd;stroke:#000000;stroke-width:2.6646373;stroke-linecap:butt;stroke-linejoin:miter;stroke-miterlimit:4.0000000;stroke-dasharray:none;stroke-opacity:1.0000000"
       d="M 866.35353,367.67221 C 862.95751,437.63019 814.05484,466.15673 798.43316,489.92886"
       id="path1351"
       sodipodi:nodetypes="cz" />
    <path
       style="fill:none;fill-opacity:0.75000000;fill-rule:evenodd;stroke:#000000;stroke-width:2.6646373;stroke-linecap:butt;stroke-linejoin:miter;stroke-miterlimit:4.0000000;stroke-dasharray:none;stroke-opacity:1.0000000"
       d="M 1021.1966,48.438794 C 998.10356,47.759591 983.16112,65.418879 977.72750,78.323744"
       id="path1353"
       sodipodi:nodetypes="cz" />
    <path
       style="fill:none;fill-opacity:0.75000000;fill-rule:evenodd;stroke:#000000;stroke-width:2.6646373;stroke-linecap:butt;stroke-linejoin:miter;stroke-miterlimit:4.0000000;stroke-dasharray:none;stroke-opacity:1.0000000"
       d="M 1028.0117,56.427401 C 1004.9188,55.748198 989.97630,73.407486 984.54267,86.312351"
       id="path1355"
       sodipodi:nodetypes="cz" />
    <path
       style="fill:none;fill-opacity:0.75000000;fill-rule:evenodd;stroke:#000000;stroke-width:2.6646373;stroke-linecap:butt;stroke-linejoin:miter;stroke-miterlimit:4.0000000;stroke-dasharray:none;stroke-opacity:1.0000000"
       d="M 1031.3624,62.860749 C 1006.9111,68.973579 996.04380,81.199241 987.89336,92.745699"
       id="path1357"
       sodipodi:nodetypes="cz" />
    <path
       style="fill:none;fill-opacity:0.75000000;fill-rule:evenodd;stroke:#000000;stroke-width:2.6646373;stroke-linecap:butt;stroke-linejoin:miter;stroke-miterlimit:4.0000000;stroke-dasharray:none;stroke-opacity:1.0000000"
       d="M 680.25173,364.95540 C 657.61161,427.44214 620.02900,435.59258 600.10570,446.45983"
       id="path1359"
       sodipodi:nodetypes="cc" />
    <path
       style="fill:none;fill-opacity:0.75000000;fill-rule:evenodd;stroke:#000000;stroke-width:2.6646373;stroke-linecap:butt;stroke-linejoin:miter;stroke-miterlimit:4.0000000;stroke-dasharray:none;stroke-opacity:1.0000000"
       d="M 665.30925,364.95540 C 644.93314,411.14124 604.18092,436.95098 589.23845,446.45983"
       id="path1361"
       sodipodi:nodetypes="cz" />
    <path
       style="fill:none;fill-opacity:0.75000000;fill-rule:evenodd;stroke:#000000;stroke-width:2.6646373;stroke-linecap:butt;stroke-linejoin:miter;stroke-miterlimit:4.0000000;stroke-dasharray:none;stroke-opacity:1.0000000"
       d="M 647.64995,366.31380 C 618.44419,410.46204 581.79033,437.59934 545.79254,450.50420"
       id="path1363"
       sodipodi:nodetypes="cz" />
    <path
       style="fill:none;fill-opacity:0.75000000;fill-rule:evenodd;stroke:#000000;stroke-width:2.6646373;stroke-linecap:butt;stroke-linejoin:miter;stroke-miterlimit:4.0000000;stroke-dasharray:none;stroke-opacity:1.0000000"
       d="M 615.04817,374.46425 C 588.55923,423.36690 532.86454,450.53505 492.79152,455.96868"
       id="path1365"
       sodipodi:nodetypes="cz" />
    <path
       style="fill:none;fill-opacity:0.75000000;fill-rule:evenodd;stroke:#000000;stroke-width:2.6646373;stroke-linecap:butt;stroke-linejoin:miter;stroke-miterlimit:4.0000000;stroke-dasharray:none;stroke-opacity:1.0000000"
       d="M 596.03048,381.25628 C 565.80592,420.98969 508.07361,448.83704 475.13223,453.25187"
       id="path1367"
       sodipodi:nodetypes="cz" />
    <path
       style="fill:none;fill-opacity:0.75000000;fill-rule:evenodd;stroke:#000000;stroke-width:2.6646373;stroke-linecap:butt;stroke-linejoin:miter;stroke-miterlimit:4.0000000;stroke-dasharray:none;stroke-opacity:1.0000000"
       d="M 577.01277,382.61469 C 532.86454,428.12133 470.37781,445.78063 443.88886,455.96868"
       id="path1369"
       sodipodi:nodetypes="cz" />
    <path
       style="fill:none;fill-opacity:0.75000000;fill-rule:evenodd;stroke:#000000;stroke-width:2.6646373;stroke-linecap:butt;stroke-linejoin:miter;stroke-miterlimit:4.0000000;stroke-dasharray:none;stroke-opacity:1.0000000"
       d="M 548.48623,379.89787 C 502.97959,437.29059 414.68311,444.76182 361.02602,451.89346"
       id="path1371"
       sodipodi:nodetypes="cz" />
    <path
       style="fill:none;fill-opacity:0.75000000;fill-rule:evenodd;stroke:#000000;stroke-width:2.6646373;stroke-linecap:butt;stroke-linejoin:miter;stroke-miterlimit:4.0000000;stroke-dasharray:none;stroke-opacity:1.0000000"
       d="M 524.03489,381.25628 C 494.48953,422.34810 406.87227,428.46094 362.38443,436.95098"
       id="path1373"
       sodipodi:nodetypes="cs" />
    <path
       style="fill:none;fill-opacity:0.75000000;fill-rule:evenodd;stroke:#000000;stroke-width:2.6646373;stroke-linecap:butt;stroke-linejoin:miter;stroke-miterlimit:4.0000000;stroke-dasharray:none;stroke-opacity:1.0000000"
       d="M 505.01718,379.89787 C 472.07581,409.78284 400.75944,417.93328 362.38443,423.36690"
       id="path1375"
       sodipodi:nodetypes="cs" />
    <path
       style="fill:none;fill-opacity:0.75000000;fill-rule:evenodd;stroke:#000000;stroke-width:2.6646373;stroke-linecap:butt;stroke-linejoin:miter;stroke-miterlimit:4.0000000;stroke-dasharray:none;stroke-opacity:1.0000000"
       d="M 481.92427,374.46425 C 454.07692,393.14235 398.38222,404.68881 365.10124,405.70761"
       id="path1377"
       sodipodi:nodetypes="cz" />
    <path
       style="fill:none;fill-opacity:0.75000000;fill-rule:evenodd;stroke:#000000;stroke-width:2.6646373;stroke-linecap:butt;stroke-linejoin:miter;stroke-miterlimit:4.0000000;stroke-dasharray:none;stroke-opacity:1.0000000"
       d="M 466.98178,363.59699 C 443.54926,383.63350 389.89218,389.74633 362.38443,389.40673"
       id="path1379"
       sodipodi:nodetypes="cs" />
    <path
       style="fill:none;fill-opacity:0.75000000;fill-rule:evenodd;stroke:#000000;stroke-width:2.6646373;stroke-linecap:butt;stroke-linejoin:miter;stroke-miterlimit:4.0000000;stroke-dasharray:none;stroke-opacity:1.0000000"
       d="M 278.08795,436.23417 C 264.50388,440.30939 254.99502,424.00850 245.48617,409.06602"
       id="path1381"
       sodipodi:nodetypes="cz" />
    <path
       style="fill:none;fill-opacity:0.75000000;fill-rule:evenodd;stroke:#000000;stroke-width:2.6646373;stroke-linecap:butt;stroke-linejoin:miter;stroke-miterlimit:4.0000000;stroke-dasharray:none;stroke-opacity:1.0000000"
       d="M 242.05255,375.10584 C 250.54259,398.19877 271.59791,424.00851 286.87998,429.44214"
       id="path1383"
       sodipodi:nodetypes="cz" />
    <path
       style="fill:none;fill-opacity:0.75000000;fill-rule:evenodd;stroke:#000000;stroke-width:2.6646373;stroke-linecap:butt;stroke-linejoin:miter;stroke-miterlimit:4.0000000;stroke-dasharray:none;stroke-opacity:1.0000000"
       d="M 239.33573,349.29610 C 252.58020,375.78504 276.35233,408.38682 292.31362,417.21646"
       id="path1385"
       sodipodi:nodetypes="cs" />
    <path
       style="fill:none;fill-opacity:0.75000000;fill-rule:evenodd;stroke:#000000;stroke-width:2.6646373;stroke-linecap:butt;stroke-linejoin:miter;stroke-miterlimit:4.0000000;stroke-dasharray:none;stroke-opacity:1.0000000"
       d="M 248.84458,338.42884 C 259.71183,361.52177 282.80476,395.48195 297.74725,403.63239"
       id="path1387"
       sodipodi:nodetypes="cz" />
    <path
       style="fill:none;fill-opacity:0.75000000;fill-rule:evenodd;stroke:#000000;stroke-width:2.6646373;stroke-linecap:butt;stroke-linejoin:miter;stroke-miterlimit:4.0000000;stroke-dasharray:none;stroke-opacity:1.0000000"
       d="M 255.63663,326.20318 C 269.89990,349.97530 292.99283,382.57708 307.25610,388.68991"
       id="path1389"
       sodipodi:nodetypes="cz" />
    <path
       style="fill:none;fill-opacity:0.75000000;fill-rule:evenodd;stroke:#000000;stroke-width:2.6646373;stroke-linecap:butt;stroke-linejoin:miter;stroke-miterlimit:4.0000000;stroke-dasharray:none;stroke-opacity:1.0000000"
       d="M 265.14547,311.26069 C 277.37114,335.71203 300.46406,371.03062 319.48176,376.46425"
       id="path1391"
       sodipodi:nodetypes="cz" />
    <path
       style="fill:none;fill-opacity:0.75000000;fill-rule:evenodd;stroke:#000000;stroke-width:2.6646373;stroke-linecap:butt;stroke-linejoin:miter;stroke-miterlimit:4.0000000;stroke-dasharray:none;stroke-opacity:1.0000000"
       d="M 274.08795,303.82707 C 302.61450,375.48305 393.62779,382.95429 453.39771,351.37132"
       id="path1393"
       sodipodi:nodetypes="cz" />
    <path
       style="fill:none;fill-opacity:0.75000000;fill-rule:evenodd;stroke:#000000;stroke-width:2.6646373;stroke-linecap:butt;stroke-linejoin:miter;stroke-miterlimit:4.0000000;stroke-dasharray:none;stroke-opacity:1.0000000"
       d="M 276.80476,292.95981 C 329.10345,359.52177 409.24948,351.37133 442.53046,336.42884"
       id="path1395"
       sodipodi:nodetypes="cz" />
    <path
       style="fill:none;fill-opacity:0.75000000;fill-rule:evenodd;stroke:#000000;stroke-width:2.6646373;stroke-linecap:butt;stroke-linejoin:miter;stroke-miterlimit:4.0000000;stroke-dasharray:none;stroke-opacity:1.0000000"
       d="M 279.52158,278.01734 C 347.78154,336.08924 405.51386,335.41004 438.45524,325.56159"
       id="path1397"
       sodipodi:nodetypes="cz" />
    <path
       style="fill:none;fill-opacity:0.75000000;fill-rule:evenodd;stroke:#000000;stroke-width:2.6646373;stroke-linecap:butt;stroke-linejoin:miter;stroke-miterlimit:4.0000000;stroke-dasharray:none;stroke-opacity:1.0000000"
       d="M 278.16317,256.28281 C 329.10345,298.05384 398.38222,316.39234 433.02161,314.69433"
       id="path1399"
       sodipodi:nodetypes="cz" />
    <path
       style="fill:none;fill-opacity:0.75000000;fill-rule:evenodd;stroke:#000000;stroke-width:2.6646373;stroke-linecap:butt;stroke-linejoin:miter;stroke-miterlimit:4.0000000;stroke-dasharray:none;stroke-opacity:1.0000000"
       d="M 257.78707,226.39785 C 321.63221,266.81047 412.64550,308.24189 431.66319,295.67662"
       id="path2130"
       sodipodi:nodetypes="cz" />
    <path
       style="fill:none;fill-opacity:0.75000000;fill-rule:evenodd;stroke:#000000;stroke-width:2.6646373;stroke-linecap:butt;stroke-linejoin:miter;stroke-miterlimit:4.0000000;stroke-dasharray:none;stroke-opacity:1.0000000"
       d="M 255.07025,207.38016 C 324.68863,248.13237 404.15544,279.37576 430.30478,278.01734"
       id="path2132"
       sodipodi:nodetypes="cz" />
    <path
       style="fill:none;fill-opacity:0.75000000;fill-rule:evenodd;stroke:#000000;stroke-width:2.6646373;stroke-linecap:butt;stroke-linejoin:miter;stroke-miterlimit:4.0000000;stroke-dasharray:none;stroke-opacity:1.0000000"
       d="M 196.64331,169.30619 C 264.22409,173.04181 403.47625,276.99853 434.38002,264.43325"
       id="path2134"
       sodipodi:nodetypes="cz" />
    <path
       style="fill:none;fill-opacity:0.75000000;fill-rule:evenodd;stroke:#000000;stroke-width:2.6646373;stroke-linecap:butt;stroke-linejoin:miter;stroke-miterlimit:4.0000000;stroke-dasharray:none;stroke-opacity:1.0000000"
       d="M 197.95545,154.35600 C 242.10368,147.56395 391.59018,250.84919 416.72072,242.69875"
       id="path2136"
       sodipodi:nodetypes="cz" />
    <path
       style="fill:none;fill-opacity:0.75000000;fill-rule:evenodd;stroke:#000000;stroke-width:2.6646373;stroke-linecap:butt;stroke-linejoin:miter;stroke-miterlimit:4.0000000;stroke-dasharray:none;stroke-opacity:1.0000000"
       d="M 208.80728,142.13804 C 254.65352,142.13804 358.73365,207.48812 411.37965,229.13782"
       id="path2138"
       sodipodi:nodetypes="cz" />
    <path
       style="fill:none;fill-opacity:0.75000000;fill-rule:evenodd;stroke:#000000;stroke-width:2.6646373;stroke-linecap:butt;stroke-linejoin:miter;stroke-miterlimit:4.0000000;stroke-dasharray:none;stroke-opacity:1.0000000"
       d="M 206.24282,182.02175 C 219.82688,228.20759 218.46848,285.20671 211.67644,308.29963"
       id="path2140"
       sodipodi:nodetypes="cz" />
    <path
       style="fill:none;fill-opacity:0.75000000;fill-rule:evenodd;stroke:#000000;stroke-width:2.6646373;stroke-linecap:butt;stroke-linejoin:miter;stroke-miterlimit:4.0000000;stroke-dasharray:none;stroke-opacity:1.0000000"
       d="M 222.46848,189.30494 C 236.39215,233.79277 231.62230,280.56526 226.52827,307.39381"
       id="path2142"
       sodipodi:nodetypes="cz" />
    <path
       style="fill:none;fill-opacity:0.75000000;fill-rule:evenodd;stroke:#000000;stroke-width:2.6646373;stroke-linecap:butt;stroke-linejoin:miter;stroke-miterlimit:4.0000000;stroke-dasharray:none;stroke-opacity:1.0000000"
       d="M 236.69414,197.30494 C 249.25941,238.39675 244.48185,267.55623 244.82145,304.57283"
       id="path2144"
       sodipodi:nodetypes="cz" />
    <path
       style="fill:none;fill-opacity:0.75000000;fill-rule:evenodd;stroke:#000000;stroke-width:2.6646373;stroke-linecap:butt;stroke-linejoin:miter;stroke-miterlimit:4.0000000;stroke-dasharray:none;stroke-opacity:1.0000000"
       d="M 255.07025,238.62353 C 259.14547,266.13128 260.50388,277.67773 260.50388,299.75184"
       id="path2146"
       sodipodi:nodetypes="cz" />
    <path
       style="fill:none;fill-opacity:0.75000000;fill-rule:evenodd;stroke:#000000;stroke-width:2.6646373;stroke-linecap:butt;stroke-linejoin:miter;stroke-miterlimit:4.0000000;stroke-dasharray:none;stroke-opacity:1.0000000"
       d="M 267.29591,249.49078 L 271.37114,284.80937"
       id="path2148" />
    <path
       style="fill:none;fill-opacity:0.75000000;fill-rule:evenodd;stroke:#000000;stroke-width:2.6646373;stroke-linecap:butt;stroke-linejoin:miter;stroke-miterlimit:4.0000000;stroke-dasharray:none;stroke-opacity:1.0000000"
       d="M 223.71120,123.08949 C 242.72889,125.46670 376.41585,197.09930 391.37375,202.17790"
       id="path2150"
       sodipodi:nodetypes="cz" />
    <path
       style="fill:none;fill-opacity:0.75000000;fill-rule:evenodd;stroke:#000000;stroke-width:2.6646373;stroke-linecap:butt;stroke-linejoin:miter;stroke-miterlimit:4.0000000;stroke-dasharray:none;stroke-opacity:1.0000000"
       d="M 86.627744,204.54829 L 108.36227,216.77397 L 93.419778,226.28281"
       id="path2164" />
    <path
       style="fill:none;fill-opacity:0.75000000;fill-rule:evenodd;stroke:#000000;stroke-width:2.6646373;stroke-linecap:butt;stroke-linejoin:miter;stroke-miterlimit:4.0000000;stroke-dasharray:none;stroke-opacity:1.0000000"
       d="M 102.92864,196.39785 L 138.24723,207.26511"
       id="path2166" />
    <path
       style="fill:none;fill-opacity:0.75000000;fill-rule:evenodd;stroke:#000000;stroke-width:2.6646373;stroke-linecap:butt;stroke-linejoin:miter;stroke-miterlimit:4.0000000;stroke-dasharray:none;stroke-opacity:1.0000000"
       d="M 105.64545,207.26511 L 134.17201,216.77397"
       id="path2168" />
    <path
       style="fill:none;fill-opacity:0.75000000;fill-rule:evenodd;stroke:#000000;stroke-width:2.6646373;stroke-linecap:butt;stroke-linejoin:miter;stroke-miterlimit:4.0000000;stroke-dasharray:none;stroke-opacity:1.0000000"
       d="M 104.28705,235.79166 L 117.87111,218.13237"
       id="path2170" />
    <path
       style="fill:none;fill-opacity:0.75000000;fill-rule:evenodd;stroke:#000000;stroke-width:2.6646373;stroke-linecap:butt;stroke-linejoin:miter;stroke-miterlimit:4.0000000;stroke-dasharray:none;stroke-opacity:1.0000000"
       d="M 115.15430,234.43325 L 126.02155,223.56600"
       id="path2172" />
    <path
       style="fill:none;fill-opacity:0.75000000;fill-rule:evenodd;stroke:#000000;stroke-width:2.6646373;stroke-linecap:butt;stroke-linejoin:miter;stroke-miterlimit:4.0000000;stroke-dasharray:none;stroke-opacity:1.0000000"
       d="M 111.07908,188.24741 L 132.81360,193.68104"
       id="path2174" />
    <path
       style="fill:none;fill-opacity:0.75000000;fill-rule:evenodd;stroke:#000000;stroke-width:2.6646373;stroke-linecap:butt;stroke-linejoin:miter;stroke-miterlimit:4.0000000;stroke-dasharray:none;stroke-opacity:1.0000000"
       d="M 123.30474,182.81378 L 132.81360,186.88900"
       id="path2176" />
    <path
       style="fill:none;fill-opacity:0.75000000;fill-rule:evenodd;stroke:#000000;stroke-width:2.6646373;stroke-linecap:butt;stroke-linejoin:miter;stroke-miterlimit:4.0000000;stroke-dasharray:none;stroke-opacity:1.0000000"
       d="M 139.60564,200.47307 C 150.13329,214.05714 167.11337,211.34033 176.28263,200.47307"
       id="path2178"
       sodipodi:nodetypes="cz" />
    <path
       style="fill:none;fill-opacity:0.75000000;fill-rule:evenodd;stroke:#000000;stroke-width:2.6646373;stroke-linecap:butt;stroke-linejoin:miter;stroke-miterlimit:4.0000000;stroke-dasharray:none;stroke-opacity:1.0000000"
       d="M 139.60564,208.62353 C 152.85010,235.11247 175.26383,218.81158 176.28263,211.34034"
       id="path2180"
       sodipodi:nodetypes="cz" />
    <path
       style="fill:none;fill-opacity:0.75000000;fill-rule:evenodd;stroke:#000000;stroke-width:2.6646373;stroke-linecap:butt;stroke-linejoin:miter;stroke-miterlimit:4.0000000;stroke-dasharray:none;stroke-opacity:1.0000000"
       d="M 351.51716,457.32709 L 450.68090,461.40231"
       id="path2183" />
    <path
       sodipodi:type="arc"
       style="fill:#d1ab00;fill-opacity:1.0000000;stroke:#000000;stroke-width:2.4042542;stroke-miterlimit:4.0000000;stroke-dasharray:none;stroke-opacity:1.0000000"
       id="path1401"
       sodipodi:cx="59.951382"
       sodipodi:cy="397.17923"
       sodipodi:rx="19.270086"
       sodipodi:ry="9.6350431"
       d="M 79.221468 397.17923 A 19.270086 9.6350431 0 1 1  40.681295,397.17923 A 19.270086 9.6350431 0 1 1  79.221468 397.17923 z"
       transform="matrix(0.968047,0.000000,0.000000,1.268875,99.90827,-315.7234)" />
    <path
       style="fill:#d1ab00;fill-opacity:1.0000000;fill-rule:evenodd;stroke:#000000;stroke-width:2.6646376;stroke-linecap:butt;stroke-linejoin:miter;stroke-miterlimit:4.0000000;stroke-dasharray:none;stroke-opacity:1.0000000"
       d="M 124.66318,239.68790 L 135.53044,262.78084 L 139.60567,235.61268 L 124.66318,239.68790 z "
       id="path2152" />
    <path
       style="fill:#d1ab00;fill-opacity:1.0000000;fill-rule:evenodd;stroke:#000000;stroke-width:2.6646376;stroke-linecap:butt;stroke-linejoin:miter;stroke-miterlimit:4.0000000;stroke-dasharray:none;stroke-opacity:1.0000000"
       d="M 143.44913,234.80889 L 151.83133,250.01742 L 157.49671,234.43334 L 143.44913,234.80889 z "
       id="path2154"
       sodipodi:nodetypes="cccc" />
    <path
       style="fill:#d1ab00;fill-opacity:1.0000000;fill-rule:evenodd;stroke:#000000;stroke-width:2.6646376;stroke-linecap:butt;stroke-linejoin:miter;stroke-miterlimit:4.0000000;stroke-dasharray:none;stroke-opacity:1.0000000"
       d="M 164.05699,236.43334 L 168.13221,248.65901 L 176.28266,240.50856 L 164.05699,236.43334 z "
       id="path2156" />
    <path
       style="fill:#d1ab00;fill-opacity:1.0000000;fill-rule:evenodd;stroke:#000000;stroke-width:2.6646376;stroke-linecap:butt;stroke-linejoin:miter;stroke-miterlimit:4.0000000;stroke-dasharray:none;stroke-opacity:1.0000000"
       d="M 156.47858,295.32992 L 144.86023,284.69442 L 143.35802,301.22706 L 156.47858,295.32992 z "
       id="path2158"
       sodipodi:nodetypes="cccc" />
    <path
       style="fill:#d1ab00;fill-opacity:1.0000000;fill-rule:evenodd;stroke:#000000;stroke-width:2.6646376;stroke-linecap:butt;stroke-linejoin:miter;stroke-miterlimit:4.0000000;stroke-dasharray:none;stroke-opacity:1.0000000"
       d="M 170.32869,286.16233 L 155.01066,274.54396 L 157.72748,293.56168 L 170.32869,286.16233 z "
       id="path2160"
       sodipodi:nodetypes="cccc" />
    <path
       style="fill:#d1ab00;fill-opacity:1.0000000;fill-rule:evenodd;stroke:#000000;stroke-width:2.6646376;stroke-linecap:butt;stroke-linejoin:miter;stroke-miterlimit:4.0000000;stroke-dasharray:none;stroke-opacity:1.0000000"
       d="M 182.89564,248.65901 C 165.68914,248.20620 159.34991,268.12951 163.87792,275.82715 C 175.19799,269.94072 173.02193,253.00797 187.05881,260.70561 L 182.89564,248.65901 z "
       id="path2162"
       sodipodi:nodetypes="cccc" />
    <path
       style="fill:none;fill-opacity:0.75000000;fill-rule:evenodd;stroke:#000000;stroke-width:2.6600000;stroke-linecap:butt;stroke-linejoin:miter;stroke-opacity:1.0000000;stroke-miterlimit:4.0000000;stroke-dasharray:none"
       d="M 244.53552,109.28962 C 275.95629,117.48634 326.50274,155.73771 348.36066,163.93443"
       id="path1405"
       sodipodi:nodetypes="cs" />
  </g>
</svg>
