<?xml version="1.0" encoding="UTF-8" standalone="no"?>
<!DOCTYPE svg PUBLIC "-//W3C//DTD SVG 20010904//EN"
"http://www.w3.org/TR/2001/REC-SVG-20010904/DTD/svg10.dtd"
[
 <!ATTLIST svg
  xmlns:xlink CDATA #FIXED "http://www.w3.org/1999/xlink">
]>
<!-- Created with Sodipodi ("http://www.sodipodi.com/") -->
<svg
   id="svg548"
   sodipodi:version="0.32"
   xmlns="http://www.w3.org/2000/svg"
   xmlns:sodipodi="http://sodipodi.sourceforge.net/DTD/sodipodi-0.dtd"
   xmlns:xlink="http://www.w3.org/1999/xlink"
   width="210mm"
   height="140mm"
   sodipodi:docbase="/home/scarlet/flags"
   sodipodi:docname="/home/scarlet/flags/south_africa_historical.svg">
  <defs
     id="defs550" />
  <sodipodi:namedview
     id="base"
     snaptogrid="false"
     showgrid="false" />
  <rect
     style="font-size:12;fill:#ffffff;fill-rule:evenodd;stroke-width:1pt;fill-opacity:1;"
     id="rect808"
     width="744.094482"
     height="496.062988"
     x="0.00000000"
     y="-0.00001526" />
  <rect
     style="font-size:12;fill:#00009c;fill-rule:evenodd;stroke-width:1pt;fill-opacity:1;"
     id="rect809"
     width="744.094482"
     height="166.535423"
     x="0.000000"
     y="329.527510" />
  <rect
     style="font-size:12;fill:#e67000;fill-rule:evenodd;stroke-width:1pt;fill-opacity:1;"
     id="rect810"
     width="744.094482"
     height="166.535416"
     x="0.000000"
     y="-0.000008" />
  <g
     id="g931"
     transform="matrix(1.200000,0.000000,0.000000,1.250001,-74.40947,-61.12226)">
    <g
       id="g794"
       transform="matrix(0.624999,0.000000,0.000000,0.666666,139.5181,-59.05481)"
       style="font-size:12;">
      <rect
         style="font-size:12;fill:#00009c;fill-rule:evenodd;stroke-width:1pt;fill-opacity:1;"
         id="rect683"
         width="106.299353"
         height="70.866075"
         x="230.314957"
         y="425.196917" />
      <g
         id="g584"
         transform="matrix(1.771656,0.000000,0.000000,2.362202,230.3148,425.1969)"
         style="font-size:12;">
        <path
           style="font-size:12;fill:#ffffff;stroke-width:1pt;"
           d="M 0 0 L 0 3.3541 L 53.2918 30 L 60 30 L 60 26.6459 L 6.7082 0 L 0 0 z M 60 0 L 60 3.35405 L 6.7082 30 L 0 30 L 0 26.6458 L 53.2918 0 L 60 0 z "
           id="path146" />
        <path
           style="font-size:12;fill:#ffffff;stroke-width:1pt;"
           d="M 25 0 L 25 30 L 35 30 L 35 0 L 25 0 z M 0 10 L 0 20 L 60 20 L 60 10 L 0 10 z "
           id="path136" />
        <path
           style="font-size:12;fill:#cc0000;stroke-width:1pt;"
           d="M 0 12 L 0 18 L 60 18 L 60 12 L 0 12 z M 27 0 L 27 30 L 33 30 L 33 0 L 27 0 z "
           id="path141" />
        <path
           style="font-size:12;fill:#cc0000;stroke-width:1pt;"
           d="M 0 30 L 20 20 L 24.4721 20 L 4.47214 30 L 0 30 z M 0 0 L 20 10 L 15.5279 10 L 0 2.23607 L 0 0 z M 35.5279 10 L 55.5279 0 L 60 0 L 40 10 L 35.5279 10 z M 60 30 L 40 20 L 44.4721 20 L 60 27.7639 L 60 30 z "
           id="path150" />
      </g>
      <rect
         style="font-size:12;fill:none;fill-rule:evenodd;stroke:#000000;stroke-width:0.534522pt;"
         id="rect754"
         width="106.299210"
         height="70.866130"
         x="212.598419"
         y="425.196854"
         transform="translate(17.71656,-1.525879e-5)" />
    </g>
    <g
       id="g802"
       transform="matrix(0.624999,0.000000,0.000000,0.666666,139.5181,-59.05481)"
       style="font-size:12;">
      <rect
         style="font-size:12;fill:#ffffff;fill-rule:evenodd;stroke-width:1pt;"
         id="rect554"
         width="106.299514"
         height="70.866066"
         x="407.480000"
         y="425.196897" />
      <rect
         style="font-size:12;fill:#00009c;fill-rule:evenodd;stroke-width:1pt;fill-opacity:1;stroke:none;stroke-opacity:1;"
         id="rect552"
         width="106.299515"
         height="24.127186"
         x="407.480316"
         y="471.935776" />
      <rect
         style="font-size:12;fill:#cc0000;fill-rule:evenodd;stroke-width:1pt;fill-opacity:1;"
         id="rect553"
         width="106.299514"
         height="25.309318"
         x="407.480011"
         y="425.196896" />
      <rect
         style="font-size:12;fill:#3b8800;fill-rule:evenodd;stroke-width:1pt;"
         id="rect551"
         width="27.840348"
         height="70.866079"
         x="407.480011"
         y="425.196893" />
      <rect
         style="font-size:12;fill:none;fill-rule:evenodd;stroke:#000000;stroke-width:0.534522pt;"
         id="rect755"
         width="106.299210"
         height="70.866127"
         x="407.480278"
         y="425.196854" />
    </g>
    <g
       id="g923">
      <rect
         style="font-size:12;fill:#ffffff;fill-rule:evenodd;stroke-width:1pt;"
         id="rect738"
         width="212.598419"
         height="124.015811"
         x="194.881897"
         y="230.314896"
         transform="matrix(-2.186792e-17,0.333333,0.357142,2.041008e-17,267.6466,147.6379)" />
      <rect
         style="font-size:12;fill:#cc0000;fill-rule:evenodd;stroke-width:1pt;"
         id="rect731"
         width="53.149602"
         height="17.716522"
         x="194.881901"
         y="230.314926"
         transform="matrix(-2.186792e-17,0.333333,0.357142,2.041008e-17,267.6466,147.6379)" />
      <rect
         style="font-size:12;fill:#00009c;fill-rule:evenodd;stroke-width:1pt;"
         id="rect733"
         width="53.149602"
         height="17.716553"
         x="194.881901"
         y="265.747971"
         transform="matrix(-2.186792e-17,0.333333,0.357142,2.041008e-17,267.6466,147.6379)" />
      <rect
         style="font-size:12;fill:#e67000;fill-rule:evenodd;stroke-width:1pt;fill-opacity:1;"
         id="rect734"
         width="212.598419"
         height="17.716522"
         x="194.881897"
         y="283.464561"
         transform="matrix(-2.186792e-17,0.333333,0.357142,2.041008e-17,267.6466,147.6379)" />
      <rect
         style="font-size:12;fill:#e67000;fill-rule:evenodd;stroke-width:1pt;fill-opacity:1;"
         id="rect735"
         width="53.149552"
         height="6.327315"
         x="230.314957"
         y="356.229073"
         transform="matrix(-6.560383e-17,1.000000,1.000000,5.714835e-17,0.000000,0.000000)" />
      <rect
         style="font-size:12;fill:#e67000;fill-rule:evenodd;stroke-width:1pt;fill-opacity:1;"
         id="rect737"
         width="212.598419"
         height="17.716522"
         x="194.881897"
         y="318.897636"
         transform="matrix(-2.186792e-17,0.333333,0.357142,2.041008e-17,267.6466,147.6379)" />
      <rect
         style="font-size:12;fill:none;fill-rule:evenodd;stroke:#000000;stroke-width:0.534523pt;"
         id="rect756"
         width="70.866165"
         height="106.299252"
         x="336.614166"
         y="407.480254"
         transform="matrix(-0.624999,0.000000,0.000000,0.666666,604.5765,-59.05481)" />
    </g>
  </g>
</svg>
