<?xml version="1.0" encoding="UTF-8" standalone="no"?>
<svg
   xmlns:dc="http://purl.org/dc/elements/1.1/"
   xmlns:cc="http://creativecommons.org/ns#"
   xmlns:rdf="http://www.w3.org/1999/02/22-rdf-syntax-ns#"
   xmlns:svg="http://www.w3.org/2000/svg"
   xmlns="http://www.w3.org/2000/svg"
   xmlns:sodipodi="http://sodipodi.sourceforge.net/DTD/sodipodi-0.dtd"
   xmlns:inkscape="http://www.inkscape.org/namespaces/inkscape"
   width="750"
   height="500">
  <rect
     fill="#100df6"
     width="750"
     height="500"/>
  <path
     style="fill:#fee422;stroke:#fee422;stroke-width:0.11718749"
     inkscape:connector-curvature="0"
     id="path90"
     d="m 404.87497,91.322062 c 4.17501,-1.512494 8.77502,0.112495 12.90001,-1.712499 2.86248,1.500002 5.69999,-0.725002 8.7,-0.275001 6.67499,0.412502 13.55,-0.912494 20.05,1.200001 5.6875,0.437501 11.41249,-0.337492 17.08749,0.250003 2.83751,1.074993 5.8375,1.149996 8.83749,0.962497 l 0.012,1.075 c -2.3125,-0.03753 -4.62501,-0.250002 -6.9375,-0.275001 l -0.012,1.075 c 4.59999,-0.787492 8.81248,1.437498 13.375,1.350001 5.18749,0.750001 10.16249,2.512504 15.3125,3.524994 1.63749,0.137507 2.84999,1.225006 4.1125,2.162513 1,0.0375 1.98749,-0.0625 2.98749,-0.28751 3.5625,3.075 8.51251,2.7 12.5625,4.7625 4.075,1.61251 8.01251,3.7625 12.4625,4.16251 4.45,0.5375 7.73751,3.7375 11.15002,6.28749 3.72498,1.475 6.89998,4.025 10.64998,5.4625 1.8625,3.30001 5.4125,4.97501 8.78749,6.36251 9.37501,5.2125 16.375,13.475 23.91251,20.9375 3.1,4.3375 6.775,8.22499 9.79999,12.63749 2.33752,5.67501 5.25001,11.1875 6.35001,17.30001 l 0.74999,0.2875 c -0.0375,-0.725 -0.1125,-2.1875 -0.13755,-2.925 l 0.85001,0.025 c 2.1125,6.52501 2.31251,14.11251 -1.525,20.05001 -2.8875,4.15 -5.7875,8.3125 -8.25001,12.725 -1.94998,-0.3625 -3.41249,-1.9875 -3.83748,-3.875 -1.57502,-6.95 -3.68751,-13.9375 -7.7875,-19.85001 -3.075,-4.52499 -3.425,-11.01249 -8.31249,-14.175 -6.9875,-3.7375 -9.21252,-12.6 -16.36252,-16.0875 -2.775,-0.82499 -4.63749,-3.33749 -7.53748,-3.83749 -0.37502,-0.61249 -1.1,-1.82499 -1.46252,-2.4375 -6.97499,-1.875 -11.31249,-8.30001 -17.9625,-10.825 -1.2125,-0.6375 -2.75,-0.85 -3.625,-1.975 0.42501,-0.1 1.27499,-0.3125 1.70001,-0.41251 -0.84999,-1.6875 -3.63751,-1.58749 -5.12499,-2.77499 -3.52502,-2.3625 -8.00002,-1.75 -11.70001,-3.6 -3.63749,-1.85001 -7.7125,-2.6125 -11.30001,-4.55001 -2.87499,-1.4375 -5.74999,-3.2375 -9.04998,-3.34999 -5.66252,-0.1125 -10.85001,-3.3125 -16.58751,-2.51251 -4.775,-1.18749 -9.775,-0.57499 -14.48749,-2.1125 -12.08752,-0.16249 -24.18751,0.0375 -36.28751,-0.0875 -2.2625,-0.175 -4.42498,0.4875 -6.5625,1.1125 -5.74999,0.8125 -11.675,-0.8125 -17.32501,0.725 -2.93748,0.7 -6.08748,-0.2125 -8.92499,1.025 -3.23749,1.125 -6.81248,-0.13751 -10,1.24999 -2.86248,1.02501 -5.95,0.10001 -8.86248,0.77501 -1.35001,2.3375 -4.21251,0.625 -6.30001,0.6875 -0.012,0.56249 -0.025,1.6875 -0.0375,2.24999 -2.83748,0.32502 -6.09999,-0.81249 -8.59999,0.88751 -2.10001,1.93749 -5.2125,1.01249 -7.7,2.09999 -9.4375,0.92501 -18.69999,3.38751 -28.125,4.63751 -5.375,0.45 -10.48749,2.28749 -15.7875,3.125 -0.3,0.63749 -0.8875,1.9 -1.175,2.52499 -6.17499,0.36251 -11.96249,2.86251 -17.77501,4.70001 -2.56249,0.17499 -4.42499,2.2125 -6.79998,2.95 -3.23751,1.0125 -6.5625,1.6875 -9.76251,2.79999 -0.61249,-0.33749 -1.825,-1.01249 -2.4375,-1.34999 -2.425,1.45 1.36251,2.94999 2.4375,1.34999 -4.19999,2.26251 -9.36251,3.53751 -13.17499,6.85 -5.97501,0.71251 -10.59999,5 -16.4375,6.21251 -2.7625,1.1125 -6.5625,1.33749 -7.96251,4.4 -1.56249,3.22501 -5.87498,3.1375 -8.02499,5.8375 -0.95001,1.2875 -2.475,1.53749 -3.9625,1.57499 0.0626,-0.42499 0.2,-1.26249 0.26251,-1.68749 7.04998,-8.0125 15.48749,-14.5 23.71249,-21.175 3.18749,-3.16251 7.2375,-5.225 10.8875,-7.775 3.96251,-1.775 8.5125,-2.61251 11.59999,-5.9375 4.82501,-3.4625 10.425,-5.98751 16.22499,-7.33751 7.70001,-3.81249 15.52501,-7.08749 23.5125,-10.2875 4.73751,-2.12499 10.18752,-1.8375 14.81251,-4.32499 0.73751,-0.0875 2.225,-0.25 2.96249,-0.3375 0.72501,-2.45 -3.07498,-1.56251 -2.96249,0.3375 -0.91249,0.075 -2.7375,0.225 -3.65,0.31249 0.96251,-2.64999 4.65002,-1.94999 6.83751,-2.9 5.8375,-2.375 12.77499,-1.69999 17.63749,-6.2875 7.1125,-1.175 14.1,-3.4875 21.2375,-4.79999 -1.10001,3.275 -7.29999,0.7 -8.21249,3.62499 4.93748,0.21251 9.29999,-2.43749 14.04998,-3.31249 4.61251,-2.212505 9.725,-2.850004 14.58751,-4.325006 5.42501,0.162499 10.48749,-2.225004 15.95,-1.275005 l -0.1875,-1.049994 c -2.75,-0.07499 -5.4875,0.212497 -8.23751,0.249995 l 0.13755,-1.087492 c 2.26248,-0.100005 4.62499,0.362497 6.81248,-0.437508 3.58752,-1.524994 7.5875,-0.149994 11.2625,-1.274998 m -7.81248,1.600004 c 1.34998,1.812501 5.47499,1.124997 7.61248,0.425001 -1.3125,-1.925009 -5.53748,-1.287503 -7.61248,-0.425001 m -51.38751,11.162494 c 0.35001,1.6125 1.29999,1.85 2.82501,0.72501 -0.36251,-1.625 -1.30001,-1.8625 -2.82501,-0.72501 m -6.47501,1.18751 c -0.84999,0.1125 -3.36248,1.77499 -1.47499,2.32501 1.9625,-0.10002 3.975,-0.80001 5.675,-1.76251 -0.22501,-1.7 -3.08749,-0.9125 -4.20001,-0.5625 m 75.05001,8.97499 0.0499,1.06251 c 14.3875,-0.0375 28.7625,-0.0625 43.14999,0.0125 l 0.012,-1.06251 c -14.41249,0.15001 -28.8125,0.1625 -43.2125,-0.0125 m -143.61249,28.8125 c -0.875,0.125 -3.5125,1.63751 -1.66249,2.36251 1.98749,-0.05 4.04999,-0.7875 5.71249,-1.875 -0.34999,-1.57501 -2.9375,-0.81251 -4.05,-0.48751 z" />
  <path
     style="fill:#fee422;stroke:#fee422;stroke-width:0.11718749"
     inkscape:connector-curvature="0"
     id="path94"
     d="m 424.74997,123.35956 c 3.66251,-1.975 8.81251,-2.67499 12.15,0.25 6.75001,0.8375 13.78751,-0.525 20.31249,2.11251 0.36251,1.46249 -1.16248,2.29999 -1.88749,3.3 -2.86251,2.825 -4.07499,6.69999 -6.02499,10.1 0.71251,2.73751 -2.1125,4.60001 -1.98751,7.2625 -0.0499,3.70001 -0.325,7.45001 0.28751,11.11251 0.5,0.425 1.5,1.3 1.99999,1.725 -2.7375,3.8375 1.7375,6.475 2.65,9.9875 1.925,6.975 5.23751,13.5375 9.38751,19.4375 0.57498,5.65001 4.375,10.15 5.51251,15.63751 0.32498,4.32499 0.13754,8.68749 0.12495,13.02498 -1.3,0.0625 -2.60001,0.025 -3.875,-0.125 -1.18751,-3.70001 -1.65,-7.8625 -4.33751,-10.8625 -7.625,-6.3 -20.53749,-5.9375 -26.87499,2.0625 -2.4375,2.6375 -5.95,5.2125 -5.30001,9.3 0.45,6 -1.4875,13.07501 2.75002,18.1 3.13749,2.31248 3.97499,6.82501 7.82499,8.2625 4.30001,2.025 10.85002,0.7125 13.73749,4.89999 -2.57499,3.55001 -6.07499,6.3375 -9.7625,8.66251 -1.76249,0.9875 -2.76248,2.71251 -3.33748,4.5625 -0.85,0.0125 -1.68751,0.025 -2.51252,0.025 -0.52499,0.9875 -1.03749,1.9875 -1.54999,2.975 -4.79999,2.67499 -10.3875,4.23749 -13.825,8.78749 -4.7375,3.03752 -8.6125,7.16251 -12.37501,11.30001 -1.99998,3.31249 -4.61248,6.18749 -7.51249,8.7375 -5.01251,4.225 -7.41251,10.9875 -12.9625,14.5375 -2.67501,6.1125 -7.02499,11.25001 -10.5125,16.9 -1.225,2.175 -1.41249,4.83751 -3,6.85 -2.575,-1.2875 -5.36249,-2.4625 -7.41249,-4.5375 -2.0375,-3.9125 -2.8625,-8.675 -1.28751,-12.91251 0.98751,-3.025 0.3125,-6.22498 0.37501,-9.32499 l 1.03749,-0.075 c -0.12495,3.15 -0.42499,6.3 -0.2625,9.46251 l 1.10001,0.0375 c -0.675,-4.97501 0.56249,-9.68751 1.46249,-14.50001 -2.42499,-0.54999 0.10005,3.8125 -2.3,3.16251 1.75001,-10.60001 4.18751,-21.4125 10.49999,-30.35001 4.11251,-4.45 10.11253,-6.0375 15.48751,-8.3875 1.72501,-0.64999 2.2875,-2.575 3.3375,-3.9125 1.99999,-3.3125 5.80002,-5.2375 7.41249,-8.77499 0.46251,-4.1875 0.51251,-8.51251 -0.0375,-12.68751 -2.275,-4.1875 -5.78751,-7.56249 -8.05,-11.7625 -1.11249,-2.28749 -3.92499,-2.1625 -6.01251,-2.8 -3.8625,-0.775 -7.38748,-3.175 -11.46249,-2.74999 -7.89999,0.4625 -14.14999,5.73749 -20.04999,10.32499 -1.925,5.0375 -2.65001,10.6 -1.77501,15.95001 0.63751,1.9125 4.525,4.71249 1.3375,6.1125 -5.8875,0.22499 -12.1,1.01249 -17.66248,-1.43751 -4.07502,-1.1 -8.12501,-3.26249 -10.16251,-7.125 -7.8625,-2.3875 -11.125,-11.0875 -15.56252,-17.0125 -2.27499,-5.3875 -4.84999,-10.88751 -5.23748,-16.79999 -0.475,-0.0375 -1.43749,-0.11251 -1.92501,-0.13751 0.53751,-3.72501 1.10001,-7.52501 0.38751,-11.26249 -0.83751,-1.22501 -3.47499,-2.12501 -2.375,-3.95002 l 0.825,-0.0625 c 0.1125,0.0875 0.3125,0.25 0.425,0.33752 -0.1125,-0.0875 -0.3125,-0.25 -0.425,-0.33752 3.73749,-3.59999 -0.56251,-9.26249 3.4125,-12.88749 0.87499,1.26249 1.63749,2.62501 2.625,3.81249 1.5875,0.38751 3.48749,0.43752 3.76248,2.45002 2.78752,-0.975 5.65002,-0.85 8.47501,-0.0875 5.03751,-3.18749 11.82501,-6.075 11.925,-13.09999 l 0.8375,-0.15001 c -0.0375,0.73751 -0.11249,2.22501 -0.15001,2.975 l 0.81252,-0.14999 c 1.31249,-5.6875 3.65,-14.11251 -2.175,-17.96251 1.98749,4.2 3.63749,8.52501 2.76249,13.2875 l -1.09999,0.12501 c 0.3125,-3.36251 0.3875,-6.7625 -1.51251,-9.71251 -1.31248,-4.79999 -4.51249,-9.22501 -9.49998,-10.5875 0.47499,-0.5625 0.98748,-1.09999 1.51249,-1.62501 -1.5375,-0.57499 -3.0875,-1.09999 -4.575,-1.76249 -0.1125,-1.98752 2.68751,-2.85 2.22499,-4.9875 0.0875,-2.8 -3.05,-4.75 -2.325,-7.60001 6.44999,0.4625 12.23751,-3.225 18.63751,-2.68751 l -0.025,-1.03749 c -1.90001,0.05 -3.775,0.22501 -5.65001,0.275 l 0.05,-1.05001 c 6.19998,0.16251 12.03751,-2.51249 18.23749,-2.72499 4.12501,-1.8875 8.675,-0.0625 12.875,-1.55 2.58749,-0.66251 5.36251,0.125 7.92501,-0.7375 3.87498,-1.525 8.19998,-0.05 12.03749,-1.825 2.78749,-1.0875 7.25001,1.4125 8.78751,-1.875 3.73749,0.225 7.72499,1.2375 11.29999,-0.3125 5.59999,-2.97501 12.2,-0.11251 18.02499,-1.92501 m -54.33744,166.01249 c -1.15,1.52499 -0.9125,2.4625 0.71252,2.825 1.12499,-1.525 0.8875,-2.46251 -0.71252,-2.825 m -1.17499,5.01249 c -1.01251,0.90001 -1.34999,4.11251 0.47499,4.05001 0.96251,-0.925 1.27501,-4.03749 -0.47499,-4.05001 z" />
  <path
     style="fill:#fee422;stroke:#fee422;stroke-width:0.11718749"
     inkscape:connector-curvature="0"
     id="path96"
     d="m 465.39998,130.24707 c 5.8375,-4.1875 14.9,-1.4875 16.9,5.6 0.59999,0.26249 1.79999,0.78749 2.38748,1.05 -0.58749,0.9625 -1.59998,1.54999 -2.36249,2.3625 0.6625,3.37501 -1.3375,6.01251 -4.02501,7.81251 -3.78748,1.25 -6.68749,-2.7875 -10.51247,-2.35 0.82498,-0.8125 1.91249,-1.1375 3.27498,-0.98751 l -0.05,-0.875 c -1.28748,0.0125 -2.55,0.15001 -3.79999,0.41251 -1.59999,3.025 -4.61249,7.11248 -0.675,9.7125 0.27501,5.41249 2.56251,10.33749 4.52499,15.3 4.96251,2.28751 3.5125,8.56249 6.18751,12.51251 3.51251,5.06249 3.37499,11.57499 7.1125,16.52498 3.325,3.85001 0.50001,9.225 2.5375,13.55001 1.62499,3.54999 -1.55,6.91249 -0.825,10.57499 0.8875,5.775 -4.98749,9.50001 -5.43751,15.075 -0.38749,4.28752 -3.76249,7.32501 -5.16249,11.21252 -5.45,10.12498 -15.73749,16.04998 -24.2125,23.39998 -2.96249,2.3625 -6.49999,3.675 -9.9125,5.21252 -2.24999,3.96248 -6.20001,6.61248 -10.36249,8.19999 -3.74999,4.6125 -9.8625,7.625 -11.61252,13.54999 -1.34999,1.15001 -2.99998,1.98751 -4.13748,3.38751 -4.56252,7.6875 -10.13751,14.8 -16.125,21.425 -3.00001,5.0625 -7.95001,8.43751 -12.85,11.48751 -2.35001,-0.43752 -4.7375,-0.92501 -6.92502,-1.87501 1.36252,-3.275 4.3375,-5.475 6.0125,-8.575 2.93752,-4.90001 7.32501,-8.88751 9.52501,-14.20001 1.75001,-2.74999 3.85,-5.325 6.725,-6.96249 5.1,-7.175 10.4125,-14.58751 17.86251,-19.55 3.42499,-2.33751 5.34999,-6.675 9.5125,-7.88751 2.3375,-1 4.35,-2.6375 6.76249,-3.4875 0.4875,-1.12499 0.975,-2.25 1.46252,-3.3625 8.56248,-3.225 15.13749,-9.87499 21.09998,-16.56249 1.6375,-2.45 4.5625,-4.8375 3.35,-8.1375 -4.81251,-0.17499 -9.525,-1.19999 -14.2,-2.20001 -4.725,-3.37498 -9.73751,-7.59999 -11.11249,-13.53749 -1.17501,-4.3125 -1.21251,-9.3 0.99999,-13.28749 2.7875,-2.1125 5.8625,-3.9625 9.15001,-5.20002 3.19998,0.76252 6.86248,1.20002 8.71249,4.33751 3.46251,3.2 0.45,9.22501 5.24999,11.475 4.71251,1.025 10.08751,-0.375 12.8875,-4.5125 4.06251,-8.2625 3.225,-17.95 -0.18749,-26.30001 -4.15001,-2.17501 -4.71251,-7.22499 -5.7875,-11.28749 -3.3,-4.80001 -6.02501,-9.9875 -8.27499,-15.3625 1.61249,0.6 2.43749,2.1625 3.49999,3.4 0.225,-3.1125 -2.67501,-4.925 -3.275,-7.8 -3.69999,-5.71249 -3.6625,-12.925 -3.11251,-19.48751 1.2375,-5.4875 4.81251,-10.3625 9.20001,-13.7875 m -4.62501,96.33752 c 0.5625,0.99999 1.62501,1.36248 3.21251,1.08749 0.75,0.21249 4.73749,-0.27501 2.57499,-1.46251 -1.86248,-0.39999 -4.125,-0.72499 -5.7875,0.37502 m -22.75006,42.33749 c 0.32502,4.1 3.7125,-2.0625 0,0 z" />
  <path
     style="fill:#fee422;stroke:#fee422;stroke-width:0.11718749"
     inkscape:connector-curvature="0"
     id="path98"
     d="m 487.91248,129.29706 c 4.92499,1.78751 10.16249,2.63751 15.02498,4.57501 7.53751,5.52499 17.06251,7.33751 24.725,12.67501 2.175,1.975 4.7125,3.45 7.1125,5.1375 -4.14999,5.05 -5.96249,11.85 -6.2875,18.3 -2.72499,10.1 -0.71248,21.07499 3.7875,30.37499 -0.025,0.41252 -0.0499,1.25 -0.075,1.67501 -5.43751,2.4125 -12.7625,0.61251 -16.7625,5.73749 -2.675,2.8875 -6.85,4.10001 -8.8125,7.65002 -1.57499,2.575 -3.9625,4.59999 -5.1125,7.45 -2.31249,5.01249 -5.59999,9.92499 -5.43751,15.67499 l -0.94999,0 c 0.075,-1.4125 0.1625,-2.82499 0.26251,-4.23749 l -0.9625,0.0125 c -0.33751,5.7375 -2.6125,11.175 -2.73751,16.95 -0.9,3.38749 -2.6125,6.6125 -2.225,10.2375 -2.9875,7.37501 -10.82501,11.4625 -18.0875,13.8 -3.42499,0.45 -6.25,2.9625 -9.78751,2.78749 -3.0375,-0.1 -5.82498,2.00001 -8.86249,0.97501 l -0.075,-1.1375 c 5.17501,-3.1625 10.05,-6.8125 14.575,-10.825 4.20001,-2.7375 8.58751,-5.925 10.56249,-10.6875 7.91251,-3.825 10.9,-12.70002 13.88752,-20.31249 -0.26249,-2.28752 1.59998,-3.87502 1.97499,-6.02501 1.29999,-3.925 1.3375,-8.07501 1.3875,-12.175 l -1.04998,0.0125 c -0.012,2.76248 0.18748,5.52499 0.075,8.28749 l -1.0875,0.075 c -0.075,-4.2 0.12495,-8.4 1.4375,-12.41249 -1.2125,-7 -2.4375,-14.11251 -3.5875,-21.15 0.5125,-5.05001 -3.05,-9.18751 -4.525,-13.775 -1.58751,-5.46251 -6.54999,-9.2125 -7.60001,-14.8875 -0.47499,-3.05001 -3.52498,-5.62501 -2.31249,-8.83751 0.9125,-0.0875 2.725,-0.275 3.625,-0.375 l -0.16251,-1.025 c -1.84999,0.025 -3.68749,0.2 -5.525,0.22499 l 0.05,-0.98749 c 4.375,-0.34999 9.04999,-1.0875 12.78749,-3.475 2.45002,-3.7875 3.90001,-8.5125 3.4375,-13.075 -0.80001,-2.45 -2.55,-4.5625 -2.68749,-7.2125 m 3.76249,7.61251 c -0.9875,1.28749 -1.42499,4.83749 0.47501,5.26249 0.79999,-1.34999 1.28749,-4.7375 -0.47501,-5.26249 m 1.22501,58.7875 c -0.98751,1.32499 -1.22501,4.82499 0.59999,5.29999 0.7375,-1.4 1.22501,-4.81249 -0.59999,-5.29999 m 1.32501,7.4875 c -1.05003,1.49999 -0.97503,3.82499 0.0626,5.325 1.66252,-0.425 1.63751,-4.95 -0.0626,-5.325 m 1.13749,7.54999 c -1.0375,1.42501 -1.0375,3.725 0.012,5.15001 1.74999,-0.27501 1.74999,-4.8875 -0.012,-5.15001 z" />
  <path
     style="fill:#fee422;stroke:#fee422;stroke-width:0.11718749"
     inkscape:connector-curvature="0"
     id="path102"
     d="m 296.86249,143.05957 c 5.66249,0.64999 10.8625,-3.275 16.45,-2.225 3.5125,1.56249 3.3125,5.97499 1.2625,8.6375 -4.37501,1.075 -8.90002,1.52499 -13.18751,2.91249 -4.47499,2.575 -8.89999,5.2375 -12.9,8.55001 -3.94999,5.45001 -8.69998,10.675 -10.31248,17.4 -0.98751,2.2625 -0.72502,5.975 -3.72501,6.575 -1.4375,5.7875 -2.76251,11.65 -2.73751,17.6375 -1.97499,4.4125 -0.44998,9.2875 -1.27499,13.9 -0.3375,5.2875 -1.81251,10.4 -2.25,15.675 -0.46251,4.525 -5.0625,6.5875 -6.375,10.73751 -1.29999,3.37499 -5.60002,4.61249 -6.225,8.32498 -1.82501,-0.0375 -3.71251,-0.27499 -5.31249,-1.18749 -1.57501,-1.6375 -2.62501,-4.20001 -5.26252,-4.2875 -5.15,-0.25 -11.025,-1.05 -15.08749,2.8875 -3.28749,1.525 -3.625,5.32499 -5.66251,7.925 -1.01249,1.70002 -3.09999,3.375 -2.18749,5.60001 0.81249,0.7625 1.62502,1.525 2.4375,2.31249 -0.6375,3.8375 2.10001,6.9 3.85,10.0375 3.36251,4.9875 9.33749,6.875 15.0125,7.675 1.65,0.325 1.52501,2.3125 1.4625,3.5875 -3.78751,0.2125 -7.4875,2.23751 -10.41249,4.35 0.44999,0.0625 1.36249,0.21251 1.81251,0.2875 -1.93751,1.8625 -5.08752,2.1375 -7.62501,2.91251 -5.4125,0.34999 -10.52501,2.26248 -15.83751,3.16249 -6.24999,0.925 -10.79999,5.7375 -16.02501,8.8 -3.49998,1.2875 -6.96249,2.87499 -9.63749,5.5375 -4.46251,4.4625 -10.7,6.63751 -15.02501,11.2625 -2.89998,0.44999 -5.9125,0.4375 -8.8,-0.05 -5.31248,-2.69999 -9.64999,-6.86248 -13.64998,-11.18749 -0.025,-5.06251 -2.97501,-10.1625 0.0875,-14.9 2.94998,-2.0125 6.48748,-2.775 9.7875,-4.0375 3.44999,-3.2 7.74999,-6.1125 12.625,-6.2375 4.1125,-2.55 5.52499,-7.6125 9.34999,-10.45 2.4125,-1.95 3.2875,-5.0875 4.50001,-7.81251 2.7625,-6.69999 1.28751,-14.15 3.33748,-20.975 1.3375,-7.57499 -1.94999,-14.7625 -1.13748,-22.28749 1.79999,-6.20001 0.8375,-12.875 3.44999,-18.93751 2,-1.3875 3.525,-3.19999 5,-5.1 5.95,-0.22499 13.2375,-1.2 16.35,-7.025 2.51249,-2.96249 1.71249,-7.12499 3.1625,-10.54999 0.21249,-2.1 3.09999,-1.9375 3.56249,-3.85001 1.0125,-3.84999 5.75,-3.58749 8.4875,-5.5875 4.63751,-3.56249 10.62501,-4.77499 15.16252,-8.48749 6.38748,-5.03751 14.88748,-6.22501 21.33748,-11.10001 7.13751,-1.6125 14.00001,-4.6 21.38751,-4.9 l -0.0375,-0.9 c -1.40001,0.0875 -2.7875,0.17501 -4.175,0.25 l -0.0251,-0.98749 c 4.6125,0.12499 8.53751,-2.78751 13.1,-2.93751 -0.4875,2.9875 -6.40001,0.7625 -6.8125,3.625 4.9625,-0.18749 9.20001,-3.72499 14.3125,-2.81249 l -0.0499,-1.06251 c -1.87499,0.05 -3.725,0.2375 -5.58749,0.31249 l 0.05,-0.99999 m 7.5875,-0.33749 c 0.3375,1.6125 1.27501,1.86249 2.81251,0.7375 -0.35001,-1.62501 -1.2875,-1.875 -2.81251,-0.7375 m -38.875,11.26249 c 0.36251,1.58751 1.3375,1.8375 2.9125,0.775 -0.3625,-1.5875 -1.3375,-1.84999 -2.9125,-0.775 m -72.61249,51.56251 c 0.675,0.575 0.675,0.575 0,0 m -42.6875,100.1125 c -1.08751,1.55 -0.81252,2.475 0.82497,2.78749 1.08752,-1.55001 0.81251,-2.47501 -0.82497,-2.78749 z" />
  <path
     style="fill:#fee422;stroke:#fee422;stroke-width:0.11718749"
     inkscape:connector-curvature="0"
     id="path104"
     d="m 310.44998,155.53458 c 0.85,0.73749 1.71249,1.45 2.6,2.15 1.52501,-0.05 3.1875,-0.9 4.5375,0.2375 4.7875,2.2875 9.75,5.23749 11.95,10.33751 0.8875,3.86249 0.67501,8.44998 -2.38749,11.33748 -2.8375,3.01251 -7.37501,3.175 -11.175,2.4125 -0.71251,-1.075 -1.6625,-1.83749 -2.85,-2.2875 -1.85001,-0.60001 -1.72499,-3.2375 -3.4625,-3.975 -1.46251,-0.1375 -3.475,-0.7125 -4.56251,0.59999 -3.73751,5.07501 -7.23749,10.98751 -6.5625,17.56251 0.375,5.96252 -0.83749,12.1125 1.02499,17.91251 0.92501,4.93749 0.21252,10.43749 3.10001,14.8375 1.80001,2.77499 4.0125,5.375 4.98749,8.61249 1.70001,6.6125 7.47501,10.8 11.97501,15.5125 5.49999,5.225 13.6625,5.65001 19.31249,10.63751 8.87501,3.0375 19.1125,3.19999 27.6625,-1.13751 2.22502,-1.55 1.68751,-4.6875 -0.012,-6.3875 -4.14998,-6.15 -2.01249,-13.9375 1.1125,-20.0125 5.0875,-3.1625 10.81251,-5.875 16.975,-4.3375 0.17501,0.425 0.5375,1.3 0.71249,1.725 1.0375,-0.1875 2.08751,-0.35 3.15001,-0.475 3.26249,2.4 4.15,6.475 6.2,9.75001 2.62501,5.07499 0.775,11.24999 -2.25001,15.69999 -1.4875,2.975 -5.73749,2.175 -7.43748,5.05 -2.08751,3.50002 -6.80001,2.7625 -9.25,5.7125 -1.82501,1.975 -4.0625,3.63749 -5.4875,5.93751 -1.025,2.97499 -1.57501,6.18749 -3.65002,8.67499 0.16251,1.05 0.33752,2.1 0.52502,3.15 -1.35001,1.86251 -4.12501,1.5 -5.87501,0.4875 -4.94999,-2.7375 -10.59999,-3.975 -15.28749,-7.2 -3.175,-2.325 -7.10001,-3.13749 -10.775,-4.3125 -3.9375,0.72502 -7.31251,2.9 -10.88751,4.5125 -2.54999,-2.78749 -6.67497,-2.84998 -9.58749,-5.225 -3.5625,-0.4875 -3.9375,-6.325 -7.925,-4.9375 -1.1375,-3.425 -4.70001,-4.16249 -7.28751,-6.03749 -5.42499,-7.21252 -16.09999,-6.1625 -23.43748,-2.7375 -0.96252,4.28751 -6.0625,5.04999 -8.88751,7.8125 -5.96249,6.1 -14.7375,9.26249 -23.21248,8.9125 -3.66252,0.18749 -6.60002,-2.33751 -9.82502,-3.67499 -4.24999,-2.68752 -5.76249,-8.08752 -4.60001,-12.86252 1.7,-2.13749 3.67501,-4.05 5.86252,-5.67499 2.98748,-1.1125 5.95,0.51249 8.925,0.73749 2.45,0.025 3.86249,2.47502 6.1,3.125 6.91249,1.98751 14.62499,-1.57498 18.2125,-7.6625 1.98749,-4.02499 4.08749,-8.09999 4.81249,-12.575 0.05,-1.61249 1.11248,-2.73749 2.10001,-3.87498 -0.075,-0.5125 -0.21252,-1.52501 -0.28751,-2.03751 3.675,-4.6125 2.3875,-11.3125 4.26252,-16.75 0.39998,-7.65001 1.9,-15.16249 2.77499,-22.7375 1.14999,-6.025 1.71249,-12.3125 4.44999,-17.9 3.52499,-4.675 6.95001,-9.575 11.67499,-13.13751 3.775,-1.89999 7.1375,-5.6125 11.69999,-3.53749 0.0626,-0.4875 0.20001,-1.4625 0.26251,-1.95 m 17.77501,13.825 c -0.8125,1.6125 -0.8125,3.78751 0.012,5.38751 1.83749,-0.31251 1.825,-5.06251 -0.012,-5.38751 m -42.82499,11.2875 c -0.4875,3.5 -1.67501,6.90001 -1.70001,10.45 l 1.05,-0.0375 c 0.13755,-3.6125 1.75001,-6.98749 1.61251,-10.62501 l -0.9625,0.21252 m 11.37498,8.53749 c 0.22501,6.9 0.13756,13.81251 0.0375,20.72501 l 1.07499,0 c -0.0626,-6.90002 0.0251,-13.81251 -0.0499,-20.7 l -1.06251,-0.025 m -13.81249,5.2375 c -1.07499,1.2625 -1.425,4.88751 0.48749,5.28751 0.7,-1.4 1.25002,-4.72501 -0.48749,-5.28751 m 86.17498,60 c -1.02499,0.90001 -1.18748,4.0625 0.6,4.01252 0.96252,-0.95 1.17501,-4.02502 -0.6,-4.01252 z" />
  <path
     style="fill:#fee422;stroke:#fee422;stroke-width:0.11718749"
     inkscape:connector-curvature="0"
     id="path106"
     d="m 536.68746,155.53458 c 3.18752,1.61249 2.35,6.57498 5.26251,8.76249 -0.0375,1.13749 -1.21251,2.95001 0.4375,3.53751 1.86251,1.05 0.72499,3.8625 2.20001,5.32499 3.49999,5.9375 7.32499,11.79999 12.52498,16.425 4.35001,3.6375 9.15,6.6875 13.7375,10 3.00001,3.1875 6.51251,5.975 9.10001,9.525 2.66248,5.4 1.28749,12.56251 -3.60002,16.275 -3.54998,0.125 -8.07498,1.27501 -10.64998,-1.9 -2.8875,-3.6375 -3.67502,-8.525 -6.63749,-12.1125 -2.11252,-1.81249 -5.78751,-2.4875 -5.83752,-5.825 -0.9,0.15 -1.78749,0.2875 -2.6625,0.41251 -1.69999,-2.5125 -4.475,-2.77501 -7.25,-2.77501 -2.66249,-2.61248 -5.78749,-5.025 -7.68749,-8.2625 -1.6375,-6.02501 -2.9625,-12.225 -2.5,-18.5125 -0.5875,-4.97499 1.61249,-9.62499 1.41248,-14.58749 l 1.05002,-0.475 c -0.61251,2.025 -1.08749,4.175 -0.67499,6.2875 1.12499,2.3875 2.04998,-1.425 1.69999,-2.4125 -0.05,-1.375 -0.38751,-2.6625 -1.025,-3.875 -0.20002,-1.97502 -0.13755,-4.15 1.09999,-5.8125 m -2.7375,14.93749 c -0.0875,4.3875 -0.075,8.77501 -0.05,13.15001 l 1.05,0.025 c -0.1625,-4.4375 -0.18749,-8.88749 0.0625,-13.33749 l -1.0625,0.1625 m 1.01251,16.3125 c 0.4125,2.71249 0.975,5.41251 1.7375,8.0625 l 0.975,-0.11249 c -0.725,-2.5125 -0.31252,-6.8375 -2.7125,-7.95001 z" />
  <path
     style="fill:#fee422;stroke:#fee422;stroke-width:0.11718749"
     inkscape:connector-curvature="0"
     id="path108"
     d="m 544.39996,159.17208 c 3.92501,-0.825 6.20001,2.23749 7.66249,5.37501 5.4875,0.69999 6.86253,6.32499 10.68752,9.38749 2.46251,1.92499 2.6625,5.59999 5.22499,7.38749 3.425,1.91251 3.72501,6.2625 5.2,9.5125 0.3375,1.85001 3.17499,2.70001 2.45001,4.7625 -2.30001,0.66251 -3.07501,-2.6625 -5.0625,-3.31249 -6.56252,-3.55001 -11.28751,-9.4625 -16.46251,-14.66251 -3.925,-5.72499 -7.8125,-11.7375 -9.7,-18.44999 z" />
  <path
     style="fill:#fee422;stroke:#fee422;stroke-width:0.11718749"
     inkscape:connector-curvature="0"
     id="path110"
     d="m 173.1375,182.05958 c 1.74999,-7.2375 8.16249,-12.35 14.72499,-15.1625 2.76249,0.28749 5.56249,0.17498 8.31251,0.45 3.12499,1.525 6.34998,3.0375 8.99998,5.31251 1.025,3.01247 3.8375,5.38749 3.4125,8.78748 -0.3375,3.5875 1.3625,8.6125 -2.78749,10.52502 -2.775,2.27499 -6.7625,1.84998 -9.31251,-0.52502 -1.83749,-2.78749 -2.56249,-6.92498 -6.26249,-7.91249 -9.51251,5.475 -12.175,17.53749 -12.28749,27.73751 -1.65002,3.78748 -0.33752,8.07498 -2.07502,11.82498 -1.46249,5.11252 -5.54999,9.55 -10.61249,11.22502 -4.01249,-1.28752 -8.11249,-4.63752 -8.75,-8.93752 2.475,-4.25 7.66249,-6.575 8.92501,-11.575 0.26249,-2.5125 1,-4.925 1.4625,-7.38749 -0.25001,-7.93751 1.76249,-15.61249 3.84999,-23.2 l 0.84999,-0.2375 c -0.05,0.775 -0.15,2.3375 -0.21249,3.1125 1.78751,-0.20002 1.01249,-2.83751 1.76251,-4.0375 m -2.85,5.87499 c -2.17502,3.63751 4.08748,0.475 0,0 z" />
  <path
     style="fill:#fee422;stroke:#fee422;stroke-width:0.11718749"
     inkscape:connector-curvature="0"
     id="path114"
     d="m 213.33749,185.68457 c 1.88751,-0.21249 1.6875,4.275 -0.12495,4.075 -0.84999,-1.3875 -0.81249,-2.75 0.12495,-4.075 z" />
  <path
     style="fill:#fee422;stroke:#fee422;stroke-width:0.11718749"
     inkscape:connector-curvature="0"
     id="path116"
     d="m 196.98749,198.27207 c 0.9375,-0.9625 4.05001,-1.1625 3.9875,0.6125 -0.91251,1.0125 -4.08752,1.18749 -3.9875,-0.6125 z" />
  <path
     style="fill:#fee422;stroke:#fee422;stroke-width:0.11718749"
     inkscape:connector-curvature="0"
     id="path118"
     d="m 517.93746,214.23458 c 7.11251,-2.675 14.66251,-4.925 22.35002,-4.5375 5.79998,-0.27501 10.96248,2.86249 15.52497,6.0875 3.25003,1.825 2.20001,6.2 3.08752,9.3 -1.0375,3.2875 -3.97501,5.48751 -6.40001,7.76249 -7.51249,2.675 -14.075,-5.15 -14.18749,-12.14999 -0.5625,-0.0875 -1.7,-0.25 -2.26251,-0.33751 -0.0874,0.50001 -0.24998,1.5 -0.33749,2.00001 -1.9625,0.10001 -4.11251,-0.13751 -5.73752,1.21249 -6.32498,4.05 -13.08748,9.10002 -14.73748,16.8875 -1.26251,9.35001 -0.55,18.99999 2.83749,27.8875 0.45001,5.8625 4.85,9.95001 6.92501,15.15001 3.075,3.15 4.21251,7.64999 7.7625,10.39999 3.1,4.3625 6.79999,8.23752 10.78751,11.8 4.94998,4.01251 10.88749,6.5375 15.76248,10.58751 7.92499,3.475 17.11251,6.03749 25.525,2.80001 0.64999,1.87499 -2.4875,1.6125 -3.56249,2.13748 -5.325,1.1125 -10.52501,-0.4375 -15.7,-1.36249 l 0.2,1 c 4.6125,1.8625 9.6125,1.45001 14.46248,1.42501 5.2,0.5375 8.35001,-4.33752 11.63751,-7.50001 0.425,-3.7 1.025,-7.40002 1.86249,-11.01249 1.08752,-1.43751 2.55002,0.43748 3.7125,0.82497 0.28751,-0.34998 0.87502,-1.03749 1.17502,-1.38749 3.33748,7.3 3.19999,15.7 0.12494,23.0375 -2.4625,2.1125 -5.62499,3.525 -7.08749,6.625 -1.3125,2.86251 -4.97499,2.51251 -7.525,3.4625 -7.23751,2.3875 -14.83749,0.13749 -21.7375,-2.2375 -1.6625,-0.3375 -2.26251,-1.8375 -2.98749,-3.13749 -4.96251,-1.63751 -9.61252,-4.15001 -13.56252,-7.58751 -5.625,-5.05 -14.22499,-6.42501 -18.72499,-12.575 -1.34999,-0.37501 -2.92501,0.025 -3.94999,-1.1625 -5.11251,-4.08751 -11.80001,-4.675 -17.9375,-6.075 -7.5875,-0.45 -15.26251,0.6 -22.78751,-0.45 -0.1625,-0.9125 -0.325,-1.8375 -0.46251,-2.75 -2.59998,0.0125 -5.16248,0.625 -7.74997,0.4625 -4.45003,-2.18749 -9.57502,-2.25 -14.37502,-2.97501 -4.9625,-1.67499 -10.22499,-1.96249 -15.175,-3.59999 -3.36248,-1.2125 -6.9625,-0.6 -10.4375,-0.69999 0.48751,-2.62502 2.9875,-4.17501 4.1875,-6.46251 6.1375,0.225 11.91251,-2.0125 18.06251,-1.47499 2.01248,0.16249 3.5375,-1.375 5.29998,-2.075 6.72502,0.7625 12.55001,-4.72501 19.38751,-4.53751 6.9625,-3.6625 13.6625,-9.0875 16.55,-16.6375 1.325,-8.2375 2.0375,-16.55 4,-24.7125 0.27501,-5.525 4.6375,-9.425 6.82501,-14.2125 2.82499,-3.3 5.87499,-6.6 9.37499,-9.2 m -15.01246,21.32499 c -0.93749,0.95001 -1.27499,4.13751 0.53751,4.12501 0.91249,-0.9625 1.225,-4.12501 -0.53751,-4.12501 m -1.26249,6.28751 c -1.02499,0.925 -1.2875,4.175 0.5625,4.0875 0.8625,-0.97499 1.17499,-4.0625 -0.5625,-4.0875 m 11.325,-0.1125 c 0.22501,5.6375 0.2375,11.2875 0,16.93751 l 1.03749,-0.0625 c -0.0625,-5.65 -0.075,-11.2875 0.012,-16.92499 l -1.05,0.05 z" />
  <path
     style="fill:#fee422;stroke:#fee422;stroke-width:0.11718749"
     inkscape:connector-curvature="0"
     id="path120"
     d="m 586.84996,212.92208 c 2.15001,0.0375 4.3375,0.075 6.48751,0.39999 3.28751,3.375 7.22499,6.3625 9.15,10.8125 1.33749,1.97502 0.4625,4.45 1.12499,6.62501 1.67501,4.975 0.2875,10.2625 0.92499,15.36251 3.05002,7.4125 -0.98748,15.92499 2.51251,23.17498 1.175,3.83751 4.675,7.8125 1.76249,11.8125 -3.22499,-2.3375 -5.63748,-5.72499 -7.7125,-9.0875 -0.49998,-3.9625 -1.74999,-7.8375 -1.29998,-11.875 -0.0625,-2.87499 0.68749,-7.48749 -2.9,-8.5 -2.08752,-0.7375 -3.22502,-2.7375 -3.73751,-4.7625 -4.00001,0.7125 -7.6625,-1.4875 -11.525,-2.1375 -6.4125,-1.26251 -13.14998,-3.3625 -17.73749,-8.2625 -2,-1.92499 0.2125,-4.35 1.5875,-5.85 2.75,3.2625 7.82499,3.3625 11.2625,1.1375 2.17498,-1.375 4.59999,-2.2125 7.07501,-2.925 0.42498,-1.7125 0.69999,-3.575 2.77498,-3.8875 0.0875,-4.1125 2.41251,-8.0875 0.25,-12.0375 z" />
  <path
     style="fill:#fee422;stroke:#fee422;stroke-width:0.11718749"
     inkscape:connector-curvature="0"
     id="path130"
     d="m 530.38748,231.20956 c 4.73748,0.15002 8.2,4.60002 10.69998,8.25001 0.66251,0.175 1.975,0.53749 2.63752,0.7125 -0.66252,-0.8625 -1.36252,-1.675 -2.11251,-2.44999 4.17499,1.69999 8.63751,1.58749 13.06248,1.77499 3.65002,3.3125 4.97501,8.35 7.27502,12.5875 2.34999,4.175 3.4375,8.9625 6.075,13.01249 0.97499,1.42501 2.91249,1.96252 3.4,3.78752 2.575,5.7875 7.425,10.0125 11.87499,14.32499 1.66252,0.3875 4.1625,-0.7125 5.0625,1.28751 0.325,1.7875 0.41251,3.59999 0.48751,5.42498 -2.78752,0.35002 0.625,-4.82499 -2.1875,-4.49998 -0.0626,4.52499 2.075,8.69999 1.6375,13.27499 1.43749,6.42501 -2.42501,14.08751 -9.325,14.94999 -1.71251,-0.88749 -3.975,-1.76249 -5.7375,-0.57498 0.17499,2.55 4.16248,1.04998 5.7375,0.57498 -0.41251,2.1375 -3.325,0.98753 -4.83749,1.1875 -7.57501,-1.12498 -13.37501,-6.39999 -19.725,-10.17498 -4.20002,-2.28751 -6.93751,-6.41251 -11.08751,-8.8125 -4.4125,-4.56251 -6.92499,-10.57501 -10.68751,-15.63751 -2.66251,-4.2875 -6.24999,-8.32499 -7.16249,-13.4 -3.4375,-3 -3.35,-7.9 -4.625,-11.96251 -0.35001,-3.83749 -0.4625,-7.77499 0.11251,-11.58749 2.14998,-4.725 7.04999,-7.39999 9.42499,-12.05001 m 15.44999,9.16252 c 1.1,1.88749 6.26249,1.6625 7.58751,0.18751 -2.2875,-0.92501 -5.32502,-1.23751 -7.58751,-0.18751 z" />
  <path
     style="fill:#fee422;stroke:#fee422;stroke-width:0.11718749"
     inkscape:connector-curvature="0"
     id="path134"
     d="m 566.44997,244.39708 c 2.96249,1.34999 7.77499,1.46249 8.43749,5.3875 6.0875,1.3125 14.075,0.76251 17.77501,6.7875 1.6875,2.25 2.6,5.4625 0.87499,7.9625 -2.32498,3.1625 -1.41249,7.17501 -1.81251,10.81249 -4.72498,-0.925 -8.64999,-4.2 -11.59998,-7.875 -1.43749,-3.63748 0.8625,-7.1125 0.9125,-10.64999 -2.33751,-0.45001 -4.50001,0.34999 -6,2.16249 -2.35002,0.15001 -3.55002,-2.775 -4.1375,-4.6875 -0.78752,-3.62501 -3.8125,-6.26249 -4.45,-9.89999 z" />
  <path
     style="fill:#fee422;stroke:#fee422;stroke-width:0.11718749"
     inkscape:connector-curvature="0"
     id="path138"
     d="m 264.52498,275.72208 c 6.83752,-2.16251 11.4875,-8.53751 18.27501,-10.875 3.72498,-0.33751 7.78749,-0.61249 11.04999,1.59999 4.7,3.1375 10.9375,3.38752 14.5875,8.125 0.28751,1.62502 0.28751,3.33751 -0.0375,4.96251 -1.88751,2.25001 -4.67499,3.81251 -5.72499,6.68749 -1.78751,4.05001 -2.9,8.47502 -5.7625,11.97502 -2.425,3.99999 -6.43751,7.2125 -6.88752,12.14999 -0.24998,4.9 -2.11249,9.5625 -1.33748,14.52501 l -1.0875,0.075 c 0.05,-2.7625 0.32499,-5.51252 0.29999,-8.26252 l -1.09999,0 c -0.325,2.83751 1.19999,6.57501 -1.51251,8.58749 -5.57498,4.33753 -12.9375,5.43753 -19.8125,5.43753 -1.23749,0.39999 -3.525,0.41249 -3.59999,2.125 1.48748,-0.325 2.97501,-0.75001 4.475,-1.07502 -0.0625,0.45001 -0.175,1.37501 -0.22499,1.83751 -3.11251,0.22501 -6.16251,-0.59999 -9.17502,-1.225 0,-1.6875 2.8625,0.15 2.91253,-1.64999 -2.48753,-0.28752 -4.68754,-1.38751 -6.85003,-2.5375 -0.13755,0.38749 -0.39999,1.15 -0.53747,1.53749 -2.53752,-1.96249 -2.10003,-6.68749 -0.87502,-9.575 0.7375,-3.4125 3.33748,-5.75 5.34999,-8.4 2.0375,-5.73751 3.91251,-12.3125 1.3375,-18.19999 -1.78749,-3.6375 -1.3375,-8.18751 -4.28749,-11.2 l 0.05,-0.9375 c 1.7375,-0.375 3.5625,-0.42501 5.25,-1.05001 1.45001,-0.86251 2.3875,-3.05 4.4,-2.18751 0.2,-0.61249 0.6125,-1.83748 0.825,-2.44999 z" />
  <path
     style="fill:#fee422;stroke:#fee422;stroke-width:0.11718749"
     inkscape:connector-curvature="0"
     id="path144"
     d="m 595.79997,278.19707 c 0.6875,-1.4875 2.42499,-1.5625 3.8125,-1.22498 2,2.34999 1.51249,6.48749 4.60001,7.86248 2.87498,1.3875 3.13749,5.11251 5.37497,7.21251 5.03752,6.29999 2.42503,14.76251 4.82502,21.875 -0.11249,5.95 -0.58752,12.4625 3.6125,17.31251 2.0125,4.07499 6.62499,5.075 10.7875,4.99999 3.58749,1.4875 7.43749,0.9875 11.19999,0.72501 -0.275,4.17499 0.16251,8.39999 -0.42501,12.55 -3.275,3.11249 -10.36249,3.11249 -10.16249,8.77499 -3.60001,1.71251 -7.075,3.71251 -10.7375,5.22501 -3.77499,0.9125 -5.24999,-3.4625 -7.86251,-5.21251 -3.525,-3.22499 -8.48748,-2.13749 -12.79999,-2.175 l -0.0499,-1.07501 c 3.14999,0.025 6.29999,0.32501 9.4625,0.25001 l 0.0499,-1.075 c -6.30001,1.06249 -12.1375,-1.72502 -18.4,-1.28751 -5.30001,-1.65 -10.45,-3.84998 -15.50001,-6.1375 -1.49999,-2.1 -3.3,-4.05 -4.325,-6.45 5.225,1.075 10.45001,1.82499 15.82501,1.8875 4.66248,-2.4125 9.275,-5.0375 14.37501,-6.4 1.72498,-4.68749 4.33748,-9.025 5.2125,-14.0125 3.28747,-6.67499 -1.27502,-13.625 -1.98752,-20.35 -0.13755,-4.0875 -3.40001,-6.79999 -4.99999,-10.275 -0.8875,-3.975 -0.175,-8.07499 -0.15,-12.08749 l -1.05001,0.0625 c -0.0875,4.02499 0.17502,8.0375 0.13756,12.075 l -1.05001,-0.12501 c 0.0874,-4.31249 -0.11251,-8.62499 0.225,-12.92499 m 42.51249,61.3125 c -0.9,2.31251 -0.9,5.2875 0,7.59999 1.74999,-1.1625 1.74999,-6.44999 0,-7.59999 z" />
  <path
     style="fill:#fee422;stroke:#fee422;stroke-width:0.11718749"
     inkscape:connector-curvature="0"
     id="path152"
     d="m 431.83749,297.75959 c 5.18748,2.36248 10.91248,0.79998 16.21249,2.54998 1.27499,0.18752 2.575,0.25 3.88749,0.18752 0.21251,0.81248 0.43751,1.6375 0.6625,2.46248 3.775,-0.0625 6.54999,2.91252 10.30001,2.975 4.65,0.4 8.775,3.325 13.58749,2.55 3.9875,-0.9125 5.91249,3.6375 9.70001,3.7125 -0.85,5.425 1.79999,11.96252 -2.45001,16.33751 -2.39999,3.13751 -3.075,7.78751 -6.9375,9.6 -5,2.85 -10.68749,0.45001 -15.96248,0.0125 -2.50002,-1.975 -4.56251,-4.46251 -6.81252,-6.70001 -2.14999,-1.9625 -1.41249,-5.725 -4.1875,-7.10001 -1.8125,-8.04999 -9.3625,-12.47499 -12.975,-19.4875 -1.3125,-2.6375 -4.38749,-4.13749 -5.02498,-7.09999 z" />
  <path
     style="fill:#fee422;stroke:#fee422;stroke-width:0.11718749"
     inkscape:connector-curvature="0"
     id="path154"
     d="m 148.24999,316.94708 c 2.3125,-0.3125 3.36249,2.80001 5.15,3.875 4.375,2.3375 8.325,5.51251 13.21251,6.75001 0.22499,0.33749 0.67499,1.0125 0.89998,1.35 -1.36249,1.63749 -2.51249,3.4 -3.06249,5.475 -2.4875,1.2125 -2.4,4.32498 -3.68749,6.47499 -2.18751,4.33751 -4.85001,8.46249 -7.36251,12.6 -3.7375,1.0875 -5.97499,-2.6875 -9.21249,-3.65001 -3.5875,-1.3125 -6.65,-3.8875 -8.6875,-7.1 1.7625,-3.15 4.5625,-5.66248 5.875,-9.0625 1.99999,-5.7 5.37499,-10.8125 6.87499,-16.71251 m 14.8375,14.91252 c -1.99999,3.76249 4.08751,0.2625 0,0 z" />
  <path
     style="fill:#fee422;stroke:#fee422;stroke-width:0.11718749"
     inkscape:connector-curvature="0"
     id="path156"
     d="m 254.47498,330.32209 c 0.60001,0.69999 0.60001,0.69999 0,0 z" />
  <path
     style="fill:#fee422;stroke:#fee422;stroke-width:0.11718749"
     inkscape:connector-curvature="0"
     id="path158"
     d="m 288.08748,331.75957 c 3.75,-1.91249 0.19999,4.12502 0,0 z" />
  <path
     style="fill:#fee422;stroke:#fee422;stroke-width:0.11718749"
     inkscape:connector-curvature="0"
     id="path160"
     d="m 279.64999,336.85957 c 3.57501,-0.40001 6.59999,-4.2 10.24999,-2.9 2.97501,3.91251 6.03751,7.7625 9.23751,11.5 1.03748,2.47501 -1.88751,4.1 -3.6125,5.2125 -4.86251,1.70001 -10.03751,3.1125 -15.23751,2.31252 -5,-1.55001 -6.05,-7.48751 -10.2875,-10 -1.46249,-1.15002 -3.5375,-2.06251 -3.5375,-4.22501 4.46251,-0.25 8.725,-1.6625 13.18751,-1.9 z" />
  <path
     style="fill:#fee422;stroke:#fee422;stroke-width:0.11718749"
     inkscape:connector-curvature="0"
     id="path162"
     d="m 364.08748,335.37208 c 3.075,0.20001 6.19999,0.56249 8.925,2.15001 3.675,2.06248 7.9,1.96249 11.97499,1.79999 -2.13749,4.01249 -2.94999,8.4875 -4,12.8625 l -0.8875,0.10001 c 0.0625,-1.41251 0.12494,-2.81251 0.18752,-4.21251 l -0.98751,-0.1 c 0.19999,2.4375 -0.325,4.7625 -1.4875,6.91249 0.575,-0.1625 1.725,-0.48748 2.3,-0.64998 -0.61251,1.7625 -1.2125,3.525 -1.91251,5.25 -1.99999,2.38749 -5.175,-0.31251 -7.67499,1.13749 -5.2,-2.2375 -9.83751,-5.43749 -13.4125,-9.85 -0.3125,-1.55 -0.41251,-3.125 -0.37501,-4.7 0.83751,-0.25 1.66252,-0.52499 2.47502,-0.8125 1.68749,-3.2625 2.99999,-6.725 4.87499,-9.88749 z" />
  <path
     style="fill:#fee422;stroke:#fee422;stroke-width:0.11718749"
     inkscape:connector-curvature="0"
     id="path164"
     d="m 478.67497,344.24709 c 1.51251,-1.40001 2.85,-3.17502 5.025,-3.55 3.9125,4.52499 5.56249,10.59999 8.5875,15.73749 -3.46251,6.31251 -11.15,8.38749 -17.925,8.52499 l 0,-1.06249 c 1.3375,-0.51251 4.07498,1.01249 4.4125,-0.88751 -0.82499,-0.10001 -2.4875,-0.275 -3.325,-0.3625 -1.33751,-2.18749 -1.8375,-5.25 -4.66251,-5.9875 -1.54999,-3.4125 -3.63747,-6.5 -5.97499,-9.425 -0.012,-0.325 -0.025,-0.9625 -0.025,-1.2875 2.96252,-0.25 5.93751,0.2875 8.9,0.0125 1.65001,-0.6125 3.18751,-1.56249 4.9875,-1.71249 z" />
  <path
     style="fill:#fee422;stroke:#fee422;stroke-width:0.11718749"
     inkscape:connector-curvature="0"
     id="path166"
     d="m 130.64999,351.87209 c 0.675,-1.78751 2.5625,-2.6 4.3625,-1.9125 2.16251,1.69999 3.7125,4.0625 5.90001,5.75 3.58749,1.61249 7.6,1.6875 11.4625,2.05 -1.23751,2.0875 -2.3875,4.27499 -2.5625,6.74999 -4.55,0.16251 -9.28751,-0.99999 -13.6875,0.60001 -2.625,0.9125 -5.4375,0.3125 -8.15,0.425 l 0.05,1.11249 c 2.73752,0.0875 5.46251,-0.18749 8.18752,-0.2875 l -0.0375,1.0375 c -7.47499,-1.11251 -14.37499,2.4625 -21.1375,5.06249 -1.5625,-0.81248 -3.175,-1.52499 -4.87499,-1.98747 3.58749,-2.73751 7.04998,-5.63751 10.03749,-9.05001 3.05,-3.675 7.97501,-5.32501 10.45,-9.55 z" />
  <path
     style="fill:#fee422;stroke:#fee422;stroke-width:0.11718749"
     inkscape:connector-curvature="0"
     id="path170"
     d="m 301.62498,352.44708 c 3.74999,-0.20001 5.95,4.09999 8.38751,6.4875 -1.44999,2.63751 -4.525,3.6 -6.67501,5.56249 -2.98749,1.98751 -5.45001,4.97502 -9.0875,5.7875 -2.725,2.4375 -5.16249,5.28752 -8.74999,6.53752 -2.6625,0.8375 -3.775,4.7625 -6.6125,4.6125 2.51249,-6.78752 -1.78751,-15.61251 3.92499,-21.175 1.9875,0.29999 4.13751,0.925 5.95,-0.35001 4.375,-2.525 10.6625,-2.0875 12.8625,-7.4625 z" />
  <path
     style="fill:#fee422;stroke:#fee422;stroke-width:0.11718749"
     inkscape:connector-curvature="0"
     id="path182"
     d="m 341.54998,372.67208 c 3.67499,-5.36251 6.49999,-12.2 12.4625,-15.4125 4.6125,2.65 8.325,8.9375 14.7125,7.81251 -0.5375,-2.55 -5.4875,0.0625 -5.98749,-3.45 5.17499,1.675 10.43749,3.31249 15.94999,2.72499 0.012,0.71251 0.0375,2.11251 0.0375,2.82501 l -0.78752,0.1 c -0.86249,-3.13749 -4.96249,-1.63749 -7.38748,-2.19999 l -0.012,1.04999 c 2,0.025 4.0125,-0.0875 6.0125,0.16249 0.05,3.72501 -5.37499,3.76251 -7.825,5.65001 -0.325,0.73749 -0.62499,1.4875 -0.93749,2.23751 -5.73749,1.36249 -11.3125,3.31248 -16.91251,5.17498 -5.1375,0.28752 -10.04999,2.3375 -15.26249,1.65 -0.6125,-3.98749 3.9,-5.6 5.93749,-8.325 z" />
  <path
     style="fill:#fee422;stroke:#fee422;stroke-width:0.11718749"
     inkscape:connector-curvature="0"
     id="path184"
     d="m 305.16248,367.69707 c 2.3125,-2.27498 4.87501,-4.24998 7.62499,-5.94999 3.55001,2.28749 6.33752,6.16251 6.01251,10.55001 -1.06251,-0.3375 -1.46251,-1.30001 -1.20001,-2.88752 l -0.82499,-0.025 c -0.31251,2.48751 -0.0375,5.7875 -2.93749,6.8 -4.92501,2.20001 -10.61251,0.6625 -15.85,1.0375 -1.6875,0.32499 -2.07501,-1.625 -2.61251,-2.725 0.89999,0.1125 1.8,0.225 2.70001,0.3375 0.63749,-3.7125 4.6125,-4.91251 7.08749,-7.1375 z" />
  <path
     style="fill:#fee422;stroke:#fee422;stroke-width:0.11718749"
     inkscape:connector-curvature="0"
     id="path186"
     d="m 490.14998,366.12208 c 1.64999,-0.8625 2.975,-2.38751 4.83749,-2.85 1.2375,1.25 2.99999,2.9375 1.75,4.8 -2.6375,6.7 -8.05001,12.04999 -14.1125,15.75 -1.28749,0.67501 -1.53749,2.20001 -2.17499,3.36251 -6.55001,3.16248 -13.87501,6.2625 -21.23751,5.62499 -0.34999,-0.34999 -1.04999,-1.05 -1.39999,-1.4 5.2,-5.82501 13.2125,-10.85 12.92498,-19.65001 l 0.98752,0.12502 c -0.0375,1.35 -0.0626,2.7125 -0.10006,4.07499 l 0.8625,0.1375 c -0.012,-2.76249 0.53749,-5.46249 1.06248,-8.16249 4.73751,-0.43751 10.88751,2.1125 14.475,-1.95001 0.52501,0.0375 1.58752,0.10001 2.12502,0.1375 z" />
  <path
     style="fill:#fee422;stroke:#fee422;stroke-width:0.11718749"
     inkscape:connector-curvature="0"
     id="path188"
     d="m 141.375,370.42209 c 2.2,-0.7125 5.31249,-2.21251 7.03749,0.18748 -0.2625,2.60001 -1.3375,5.09999 -1.18749,7.77502 -6.23751,0.3875 -12.25,1.99999 -18.3,3.3625 -3.07501,-0.3125 -5.17501,2.7375 -8.2625,1.82498 -0.1625,-3.35 -0.6625,-8.1875 3.08749,-9.7625 5.4,-2.73751 11.6625,-3.14999 17.62501,-3.38748 z" />
  <path
     style="fill:#fee422;stroke:#fee422;stroke-width:0.11718749"
     inkscape:connector-curvature="0"
     id="path192"
     d="m 379.89997,371.77207 c 1.16251,-0.12499 2.33751,-0.16249 3.52501,-0.1125 l 0.0375,0.7875 c -0.41252,0.12501 -1.22501,0.3875 -1.63751,0.51251 1.275,1.28749 4.69999,2.07499 3.39999,4.45 -3.01249,2.02499 -5.9875,4.83749 -9.9,4.45 -2.41248,-0.40001 -4.71249,1.91249 -6.97498,0.5 -1.22502,-0.7375 -3.9375,-1.45002 -3.11251,-3.38751 4.3625,-1.4875 8.96251,-2.425 13.11251,-4.5 1.13749,-0.43751 1.18749,-1.73749 1.54998,-2.70002 z" />
  <path
     style="fill:#fee422;stroke:#fee422;stroke-width:0.11718749"
     inkscape:connector-curvature="0"
     id="path194"
     d="m 495.29998,380.19707 c 2.575,-2.19999 2.5375,-6.4875 4.98749,-8.41251 3.11249,2.40001 5.86251,5.42502 8.475,8.40003 -1.85,3.8 -6.575,3.7125 -9.17499,6.64998 -3.70001,1.23752 -7.60001,2.02502 -11.51251,1.75001 0.6,-3.81251 5.16249,-5.32501 7.22501,-8.38751 z" />
  <path
     style="fill:#fee422;stroke:#fee422;stroke-width:0.11718749"
     inkscape:connector-curvature="0"
     id="path196"
     d="m 310.23748,381.80959 c 5.07501,-0.85001 9.73751,-3.36251 13.96252,-6.22502 2.87499,-0.125 3.91248,3.33751 6.27499,4.43752 4.22499,2.22498 6.47499,7.0375 11.16249,8.5625 1.65,1.02499 4.275,0.875 5.20001,2.79999 -2.78752,2.17501 -6.58751,1.8625 -9.67501,3.4125 -10.2125,3.7 -20.55,-4.17499 -30.6625,-0.58749 -1.56251,0.1 -3.075,0.69999 -3.54998,2.325 1.9,-0.62501 3.77498,-1.36251 5.76248,-1.65 -0.22501,1.74999 -2.48749,1.66249 -3.7125,2.3625 -4.475,1.82499 -9.43748,1.475 -14.13751,1.02499 -2.76248,-2.59999 -6.31248,-5.34999 -6.5375,-9.44999 -0.36249,-3.525 2.2,-6.45 4.61252,-8.68751 1.36249,-1.62499 3.41251,-0.26249 4.98749,0.2125 5.1,2.41251 10.87499,1.375 16.3125,1.46251 m -24.79999,5.16249 c -1.125,1.475 -0.075,5.21251 1.925,5.08751 0.69999,-1.60001 -0.05,-4.8375 -1.925,-5.08751 z" />
  <path
     style="fill:#fee422;stroke:#fee422;stroke-width:0.11718749"
     inkscape:connector-curvature="0"
     id="path198"
     d="m 384.36249,384.40958 c 2.78749,-1.71251 5.72498,-3.2 8.36249,-5.15001 8.75,6.575 18.98749,11.06252 29.525,13.96252 -0.25,3.2 -3.93751,4.71248 -6.3375,6.2625 -2.71251,1.875 -6.05,1.32499 -9.1125,1.8375 -2.2375,3.11249 -7.11251,3.0875 -9.39999,0.0375 -7.17502,-0.20001 -13.80002,-3.475 -20.92501,-4.12501 -4.2375,0.5625 -8.4375,1.63749 -12.62501,2.58749 -3.06249,-0.2125 -6.0125,-1.39999 -9.11248,-1.63749 -1.45001,-1.9625 -3.01252,-3.85001 -4.5875,-5.71251 -0.66251,-3.46248 -1.15,-7.96249 2.09999,-10.325 2.4625,-0.5375 4.9125,-1.58749 7.4625,-1.46249 1.675,3.40001 5.03749,4.92499 7.4875,7.6375 5.8625,0.76251 12.4875,-0.0125 17.16251,-3.9125 m -11.11251,11.31251 c 0.73749,1.725 5.7125,1.82498 6.4625,0.0625 -1.925,-0.98751 -4.525,-0.96249 -6.4625,-0.0625 z" />
  <path
     style="fill:#fee422;stroke:#fee422;stroke-width:0.11718749"
     inkscape:connector-curvature="0"
     id="path200"
     d="m 139.675,383.40956 c 3.6,-0.67498 7.3625,-0.23749 11.025,-0.44999 1.81249,6.225 9.1125,8.07501 14.175,10.975 3.825,-0.025 6.61249,3.3625 10.52499,3.30001 2.2875,0.67499 5.96251,-0.5375 7.33751,1.66249 -2.92501,2.1 -6.01252,3.9625 -8.98751,5.975 -2.47499,1.9875 -5.6875,0.6 -8.52499,0.68751 -3.7875,-0.475 -7.27501,2.2625 -11.07499,1.08749 -5.73752,-1.84999 -12.28752,-1.74999 -17.65002,1.20001 -2.28749,0.54999 -3.78749,3.06249 -6.2875,2.81249 -1.7125,0.20001 -2.8375,-1.225 -4.09999,-2.08749 -0.525,0.05 -1.56251,0.14999 -2.08751,0.2 -5.22499,-2.55001 -5.22499,-9.5375 -3.26249,-14.1625 3.53749,-7.33751 12.7625,-7.2375 18.9125,-11.20002 z" />
  <path
     style="fill:#fee422;stroke:#fee422;stroke-width:0.11718749"
     inkscape:connector-curvature="0"
     id="path202"
     d="m 503.74997,390.13457 c 4.1,-1.075 5.64999,-5.6875 9.425,-7.29999 0.51251,4.09999 5.05,5.37501 7.6625,7.92499 1.42499,1.4625 4.14999,1.50001 4.6375,3.7875 3.87499,-1.3375 7.9,0.24999 11.7,1.18751 l 0.26251,0.83749 c -0.77501,-0.0375 -2.3,-0.13749 -3.07501,-0.175 1.41251,2.275 5.79998,1.3875 8.3125,2.58751 0.98749,1.9 -1.925,2.475 -3.01251,3.325 -4.76248,2.2875 -10.1125,3.62499 -15.41249,3.2 l 0.0375,1.08748 c 4.06251,0.30003 8.025,-0.62499 11.9,-1.67497 -2.07501,3.7375 -7.35001,1.71249 -10.8125,2.53749 -4.73749,1.85 -9.88751,0.77501 -14.8125,1.24999 l 0.012,-1 c 3.97501,0.025 7.95,0.28751 11.93751,0.0375 l 0.0626,-1.08749 c -4.32499,0.0125 -8.81251,0.89999 -12.98749,-0.60001 -2.11252,-0.67499 -4.33749,-0.6375 -6.51251,-0.58749 l 0,1.07499 c 1.7875,0.525 5.11251,-1.3 5.85001,0.87501 -3.71252,-0.6375 -7.16251,0.57499 -10.53753,1.9625 -4.63749,0.84999 -9.41247,0.15 -14.1,0.5375 l 0.0626,-1.01251 c 4.325,0.12501 8.6625,0.4 12.9875,0.0125 l 0.21251,-1.0125 c -6.55002,0.25 -13.85,1.2875 -19.37501,-3.1 -4.625,-2.375 -4.63749,-10.6 0.52499,-12.28749 4.17502,-2.125 8.50002,0.78749 12.77502,0.63749 4.3125,0.25001 8.225,-1.8875 12.275,-3.025 m -15.45001,4 c 1.37502,1.8 5.48751,1.1125 7.62501,0.43751 -1.2875,-1.9625 -5.53751,-1.27501 -7.62501,-0.43751 m 39.92501,1.20001 c -0.05,1.77498 3.0375,1.6 4.03749,0.7 0.0499,-1.75001 -3.09999,-1.72501 -4.03749,-0.7 z" />
  <path
     style="fill:#fee422;stroke:#fee422;stroke-width:0.11718749"
     inkscape:connector-curvature="0"
     id="path204"
     d="m 311.8,393.89709 c 3.69999,-2.00001 0.28747,4.12499 0,0 z" />
  <path
     style="fill:#fee422;stroke:#fee422;stroke-width:0.11718749"
     inkscape:connector-curvature="0"
     id="path208"
     d="m 118.04999,395.48458 1.03751,-0.025 c -0.05,3.15001 -0.05,6.3 0.0125,9.46251 l -1.0375,-0.025 c 0.05,-3.13751 0.05,-6.275 -0.0125,-9.41251 z" />
  <path
     style="fill:#fee422;stroke:#fee422;stroke-width:0.11718749"
     inkscape:connector-curvature="0"
     id="path210"
     d="m 174.39999,395.69708 c 1.58751,-0.82499 3.76251,-0.84999 5.3125,0.0375 -0.26249,1.88748 -5.025,1.76249 -5.3125,-0.0375 z" />
  <path
     style="fill:#fee422;stroke:#fee422;stroke-width:0.11718749"
     inkscape:connector-curvature="0"
     id="path212"
     d="m 316.97498,395.24708 c 0.9375,-0.98751 4.06249,-1.09999 3.99999,0.675 -0.94998,0.95001 -4.06248,1.1 -3.99999,-0.675 z" />
  <path
     style="fill:#fee422;stroke:#fee422;stroke-width:0.11718749"
     inkscape:connector-curvature="0"
     id="path214"
     d="m 337.97499,395.19707 c 3.64999,-2.16249 0.4625,4.07501 0,0 z" />
  <path
     style="fill:#fee422;stroke:#fee422;stroke-width:0.11718749"
     inkscape:connector-curvature="0"
     id="path216"
     d="m 322.99998,396.33458 c 4.425,0.0625 8.8625,0.12501 13.30001,-0.0375 l -0.13755,1.05 c -4.38751,-0.1 -8.7625,-0.1 -13.15001,0.05 l -0.012,-1.06251 z" />
  <path
     style="fill:#fee422;stroke:#fee422;stroke-width:0.11718749"
     inkscape:connector-curvature="0"
     id="path218"
     d="m 141.75,406.43459 c 3.16249,-0.075 6.3125,-0.075 9.47499,-0.0125 l 0.075,1.03748 c -3.19999,-0.18748 -6.4125,-0.18748 -9.625,0.0125 l 0.075,-1.03749 z" />
  <path
     style="fill:#fee422;stroke:#fee422;stroke-width:0.11718749"
     inkscape:connector-curvature="0"
     id="path220"
     d="m 153.27499,407.90958 c 1.90001,-0.94999 4.52501,-0.975 6.42501,-0.025 -0.75,1.7875 -5.65001,1.74999 -6.42501,0.025 z" />
</svg>
