<?xml version="1.0" encoding="UTF-8" standalone="no"?>
<!-- Created with Inkscape (http://www.inkscape.org/) -->
<svg
    xmlns:svg="http://www.w3.org/2000/svg"
    xmlns="http://www.w3.org/2000/svg"
    version="1.0"
    width="972"
    height="648"
    id="svg2">
	<defs
	     id="defs4" />
	<g
	  id="layer1">
		<g
		  id="g8061">
			<rect
			     width="972"
			     height="648"
			     x="0"
			     y="0"
			     style="opacity:1;fill:#000099;fill-opacity:1;fill-rule:evenodd;stroke:none;stroke-width:80;stroke-linecap:round;stroke-linejoin:miter;stroke-miterlimit:4;stroke-dasharray:none;stroke-opacity:1"
			     id="rect2218" />
			<path
			     d="M 0,599.98699 L 0,648 L 80.99437,647.99781 L 971.99606,56.99928 L 971.99996,2.8421709e-014 L 902.99216,2.8421709e-014 L 0,599.98699 z "
			     style="fill:#ff7800;fill-opacity:1;fill-rule:evenodd;stroke:none;stroke-width:1px;stroke-linecap:butt;stroke-linejoin:miter;stroke-opacity:1"
			     id="path4169" />
			<path
			     d="M -175.36249 264.74814 A 137.17871 137.17871 0 1 1  -449.71991,264.74814 A 137.17871 137.17871 0 1 1  -175.36249 264.74814 z"
			     transform="matrix(0.8857059,0,0,0.8857059,494.31958,-16.988982)"
			     style="opacity:1;fill:#ffffff;fill-opacity:1;fill-rule:evenodd;stroke:none;stroke-width:80;stroke-linecap:round;stroke-linejoin:miter;stroke-miterlimit:4;stroke-dasharray:none;stroke-opacity:1"
			     id="path5140" />
			<path
			     d="M 223.65806,324.00301 C 222.66893,322.40258 223.55555,320.40942 225.62833,319.57376 C 227.70112,318.7381 226.35952,317.9478 222.64703,317.81753 C 213.51765,317.49721 214.08708,312.68543 223.535,310.31416 C 233.2714,307.87048 236.17035,309.74733 235.74096,318.21662 C 235.38858,325.16665 226.89196,329.2356 223.65806,324.00301 z M 193.77611,307.1248 C 187.38462,303.33512 181.30963,298.97642 180.27613,297.4388 C 177.15721,292.79846 168.36197,290.68617 167.16101,294.28903 C 166.44983,296.42254 163.90053,296.75312 160.21719,295.18947 C 157.01614,293.83055 151.69711,292.57518 148.39711,292.39975 C 143.78162,292.15438 142.63574,290.35017 143.43119,284.5808 C 145.51847,269.44233 144.54362,262.82721 140.58593,265.27319 C 138.76479,266.39872 139.2792,264.1159 141.72905,260.20026 C 144.17888,256.28462 147.05849,249.31321 148.12817,244.70824 C 150.30088,235.35456 154.85437,236.44777 158.98611,247.31505 C 160.80066,252.08766 163.25922,253.8699 166.37762,252.67326 C 169.80752,251.35709 170.19869,249.85419 167.84846,247.02232 C 165.53541,244.23528 165.72234,242.71939 168.52187,241.56115 C 171.37181,240.38206 170.8676,238.72566 166.61609,235.30043 C 163.43655,232.73883 161.85942,229.61866 163.11138,228.36671 C 164.36334,227.11476 167.11361,228.4508 169.22309,231.3357 C 173.43212,237.09185 179.89708,238.38783 179.89708,233.47542 C 179.89708,231.36988 181.82911,231.40387 185.89707,233.58097 C 190.83432,236.2233 191.89707,235.86244 191.89707,231.54368 C 191.89707,226.70789 192.27876,226.67696 196.75202,231.15024 C 202.4707,236.86891 199.95617,242.58094 191.72001,242.58094 C 188.51739,242.58094 185.89707,243.77349 185.89707,245.23104 C 185.89707,249.43282 196.52198,251.08896 202.3945,247.80255 C 207.04683,245.19897 207.54762,245.83665 206.2366,252.69482 C 204.84769,259.96046 206.83275,262.08429 213.87003,260.86182 C 215.23017,260.62554 215.4744,261.83769 214.41273,263.55548 C 213.35109,265.27327 211.22574,265.90205 209.68974,264.95276 C 208.15377,264.00347 206.89704,264.53006 206.89704,266.12296 C 206.89704,267.71586 204.19705,268.31307 200.89706,267.45011 C 194.59016,265.80082 192.57291,270.79033 198.15245,274.23867 C 202.234,276.76122 221.89703,266.43137 221.89703,261.76459 C 221.89703,259.86606 218.85953,256.18255 215.14704,253.57901 C 209.36481,249.52398 209.04222,248.3964 212.89704,245.71438 C 215.37204,243.99238 222.38414,242.84239 228.47947,243.15884 L 239.56191,243.73422 L 232.22947,251.06664 C 222.09866,261.19743 223.04474,265.9615 235.65717,268.3276 C 243.73322,269.84267 247.66205,269.08505 251.40715,265.29042 C 256.07725,260.5586 255.85582,260.43796 247.9517,263.40774 C 235.60968,268.04498 230.89879,266.82357 241.39701,261.70828 C 250.35521,257.34338 250.35899,257.33077 242.20923,258.99349 L 234.02145,260.66396 L 241.45923,249.70382 C 245.54999,243.67574 248.897,237.5024 248.897,235.98527 C 248.897,234.46816 250.103,233.97222 251.57698,234.88319 C 253.05097,235.79416 255.13249,233.0511 256.20259,228.78749 C 257.49952,223.62005 259.60666,221.59514 262.52259,222.71409 C 264.9285,223.63733 267.00357,222.74757 267.13383,220.73686 C 267.3123,217.9821 267.74514,218.00991 268.89006,220.84971 C 269.7257,222.92248 271.35485,224.03409 272.51033,223.31996 C 273.66584,222.60582 274.61126,224.71311 274.61126,228.00282 C 274.61126,233.4251 274.27121,233.51909 270.97292,229.00841 C 267.7302,224.57372 266.81313,225.04109 262.53876,233.30683 C 259.90105,238.40759 256.20259,242.58094 254.31994,242.58094 C 252.43732,242.58094 251.54851,243.23246 252.34483,244.02877 C 254.32456,246.00852 273.86975,238.79855 276.60104,235.08097 C 283.14358,226.17575 273.74792,208.33345 264.3651,211.84506 C 260.1432,213.42515 259.98211,212.98428 263.29266,208.90983 C 265.8153,205.80509 266.11422,203.45141 264.14076,202.23175 C 262.46463,201.19584 259.45846,202.96594 257.4604,206.16532 C 255.46237,209.3647 252.04321,211.29764 249.86231,210.46075 C 247.6814,209.62386 245.897,210.43355 245.897,212.26008 C 245.897,214.08661 247.922,215.58104 250.397,215.58104 C 252.87199,215.58104 254.89699,216.88866 254.89699,218.48687 C 254.89699,220.08508 252.85669,220.60977 250.36298,219.65285 C 246.94637,218.34177 246.34544,219.28915 247.92467,223.49699 C 249.77276,228.42122 249.42233,228.59451 244.95869,224.96367 C 241.66158,222.2817 239.89701,222.02024 239.89701,224.21367 C 239.89701,226.0657 238.38171,227.58099 236.52966,227.58099 C 234.34062,227.58099 234.60306,225.83567 237.27966,222.59315 C 240.48957,218.70458 240.57054,217.32714 237.64701,216.34317 C 235.58451,215.649 233.89701,211.89822 233.89701,208.00811 C 233.89701,204.118 232.54702,200.10084 230.89702,199.08109 C 229.24702,198.06134 228.00361,195.61917 228.13387,193.65406 C 228.30484,191.07466 228.76195,191.03533 229.77769,193.51264 C 231.76132,198.35048 242.897,194.82902 242.897,189.36389 C 242.897,185.68855 242.05818,185.54264 238.39701,188.58113 C 235.60032,190.90217 233.89701,191.11773 233.89701,189.15062 C 233.89701,187.40978 231.17743,185.1223 227.85346,184.06731 C 224.52949,183.01233 222.5978,180.87435 223.56077,179.31623 C 224.52373,177.75812 226.56832,177.25999 228.10432,178.20928 C 229.64029,179.15857 230.89702,177.73416 230.89702,175.04393 C 230.89702,168.48419 237.46449,162.27038 242.59136,163.97933 C 245.09861,164.81507 245.90582,164.02254 244.63754,161.97041 C 243.48548,160.10636 244.05224,158.58123 245.897,158.58123 C 247.74176,158.58123 248.30852,157.05609 247.15646,155.19204 C 245.90783,153.17171 246.66932,152.33869 249.0419,153.12955 C 251.23096,153.85923 253.61899,156.24727 254.34868,158.43632 C 255.13954,160.80888 254.30653,161.57039 252.28618,160.32176 C 250.42214,159.16971 248.897,159.60421 248.897,161.2873 C 248.897,162.9704 246.41315,166.76256 243.3773,169.71432 C 235.71528,177.16421 232.40149,186.79696 238.27617,184.54263 C 240.72213,183.60403 244.4633,184.57601 246.58988,186.70259 C 248.71649,188.82918 254.15554,191.49753 258.67669,192.63226 C 263.19786,193.767 266.89698,196.01969 266.89698,197.63825 C 266.89698,199.25681 267.90948,200.58118 269.14697,200.5813 C 272.16299,200.5816 271.51943,183.14207 268.39908,180.31422 C 267.04386,179.08603 266.90613,179.76866 268.09305,181.83115 C 269.27996,183.89364 268.82142,185.58114 267.07404,185.58114 C 265.32666,185.58114 263.89698,184.23114 263.89698,182.58115 C 263.89698,180.93115 261.87198,179.58116 259.39699,179.58116 C 256.92199,179.58116 254.89699,178.23116 254.89699,176.58117 C 254.89699,172.47596 258.87802,172.81494 263.7051,177.33116 C 266.99061,180.40507 267.41985,179.86421 266.08596,174.33117 C 265.19097,170.61869 265.68231,167.5812 267.17784,167.5812 C 268.67337,167.5812 269.89697,169.49369 269.89697,171.83118 C 269.89697,179.4378 277.02788,178.6975 284.04106,170.36282 C 292.14996,160.72598 292.84473,153.14037 285.86383,150.46156 C 282.56869,149.19709 279.34606,150.76618 276.53117,155.00566 C 272.23631,161.47404 272.22443,161.47055 265.72146,151.82082 C 258.4693,141.05935 246.51065,135.49714 237.99804,138.9261 C 232.89343,140.98228 233.06173,141.46761 239.89701,144.40206 L 247.397,147.62188 L 240.23628,148.86405 C 236.29788,149.54723 232.19959,148.68886 231.12895,146.95654 C 228.57307,142.82106 216.76259,145.99852 214.69872,151.37688 C 212.7306,156.5057 216.40535,156.87292 221.24702,152.03125 C 223.19954,150.07875 225.65524,149.33947 226.70416,150.3884 C 230.46202,154.14624 219.27632,161.43764 207.94431,162.617 C 201.59333,163.27796 198.75956,163.22141 201.64706,162.49133 C 206.7435,161.20273 208.1331,158.10723 207.11586,150.30895 C 206.8452,148.23419 210.06027,145.23011 214.26042,143.63322 C 223.70861,140.04103 224.23358,137.64392 215.14704,139.58481 C 208.45617,141.01398 208.4496,140.98196 214.39704,135.92904 C 220.29761,130.91595 220.27274,130.86187 212.89704,132.66543 C 208.77204,133.6741 203.70955,134.51781 201.64706,134.54034 C 199.58456,134.56287 197.89706,136.01097 197.89706,137.75835 C 197.89706,139.50572 199.24706,140.10104 200.89706,139.08129 C 202.54705,138.06154 203.89705,138.5496 203.89705,140.16587 C 203.89705,142.56562 197.47142,144.9809 182.89708,148.05936 C 182.07208,148.23362 178.10722,149.49341 174.08627,150.85888 C 167.08304,153.23711 167.01251,153.51491 172.40966,157.46139 C 175.50847,159.72729 177.44833,161.69372 176.72047,161.83121 C 165.92142,163.87125 161.95044,163.05638 162.63045,158.93985 C 163.59894,153.07685 152.95258,150.63742 149.65837,155.96754 C 145.79447,162.21943 155.35285,171.08357 162.07749,167.48466 C 170.33393,163.06596 171.71747,163.9041 169.66517,172.08118 C 168.4376,176.97218 169.03988,179.58116 171.39659,179.58116 C 177.29179,179.58116 188.59545,167.2859 186.85941,162.76185 C 185.97705,160.46251 186.97458,158.58123 189.07611,158.58123 C 191.17764,158.58123 192.00879,159.46951 190.92309,160.55519 C 189.83742,161.64087 190.37457,164.24672 192.11679,166.34596 C 194.45408,169.1622 193.67885,171.02206 189.15954,173.44071 C 180.15034,178.26228 175.18837,188.65394 180.33736,191.9167 C 188.00103,196.77295 192.40446,195.13472 188.96448,188.70709 C 186.46995,184.04603 186.93852,182.23488 191.23362,179.93623 C 194.21066,178.34297 199.29029,177.27379 202.52173,177.56028 C 206.83851,177.94299 208.14453,176.48956 207.44511,172.08118 C 206.59266,166.70828 207.02628,166.82079 211.5939,173.15766 C 214.58826,177.31186 215.51042,181.02844 213.82701,182.15763 C 212.24982,183.21556 210.0549,186.5292 208.9494,189.52127 C 207.8439,192.51334 205.5799,194.12116 203.91823,193.09421 C 202.25659,192.06725 200.89706,192.54418 200.89706,194.15406 C 200.89706,195.76393 202.40806,197.58476 204.25483,198.20036 C 206.10163,198.81595 208.03791,204.05909 208.55769,209.85179 C 209.26347,217.71705 208.02018,221.30985 203.64772,224.0405 C 198.54185,227.22915 197.42498,226.72994 194.91911,220.13904 C 193.18682,215.58279 189.69231,212.58105 186.12039,212.58105 C 182.86156,212.58105 178.81918,210.21855 177.13738,207.33106 C 174.40652,202.64247 174.0698,202.80287 173.98832,208.83106 C 173.92571,213.46385 172.08413,215.58104 168.11705,215.58104 C 164.93805,215.58104 161.65062,217.94353 160.81164,220.83102 C 159.55302,225.16273 159.31263,225.03155 159.43713,220.08102 C 159.76716,206.95819 159.04764,204.69785 156.04912,209.43782 C 154.53325,211.83403 154.00603,214.94825 154.8775,216.3583 C 155.74894,217.76835 155.44087,222.5578 154.19284,227.0015 L 151.9237,235.08097 L 149.9866,226.081 C 148.92118,221.13102 149.14021,213.03996 150.47329,208.10087 C 154.47685,193.26778 153.37228,171.7102 148.39711,167.5812 C 137.7507,158.74546 147.78515,144.99295 162.88119,147.73038 C 167.37701,148.54563 175.03849,145.74055 183.69397,140.11025 C 202.9282,127.59857 223.08329,125.94014 252.01075,134.48892 C 264.32316,138.12754 278.43289,142.05182 283.36573,143.20953 C 289.23732,144.58757 293.26806,147.96913 295.038,153.00187 C 297.34118,159.55096 295.93518,162.97444 285.54274,176.12183 L 273.34397,191.55438 L 281.06383,214.06768 C 288.6813,236.28239 288.927,236.58733 299.59031,237.06107 L 310.39693,237.54118 L 300.64694,238.75115 C 290.46564,240.01463 287.03205,245.40658 296.14694,245.81777 C 299.28326,245.95926 299.88716,246.66382 297.64694,247.56777 C 291.76812,249.93992 293.25708,254.5809 299.89694,254.5809 C 303.19694,254.5809 305.89693,255.88853 305.89693,257.48674 C 305.89693,259.08495 303.65858,259.53364 300.92279,258.48383 C 296.69936,256.86315 296.20607,258.16131 297.65426,267.08541 C 298.59233,272.86609 298.46819,278.98489 297.37841,280.68274 C 292.95591,287.57272 239.83944,314.10737 239.95092,309.37098 C 240.04188,305.50543 269.9483,287.25841 273.05051,289.17568 C 274.65257,290.16581 280.33591,286.57777 285.68017,281.20225 C 292.44021,274.40265 293.57118,272.18363 289.39695,273.90989 C 286.09696,275.2746 278.96608,278.00722 273.55058,279.98237 C 268.13511,281.95752 262.12761,285.15019 260.20062,287.07717 C 258.27361,289.00416 255.54538,290.58078 254.13784,290.58078 C 252.7303,290.58078 246.61193,293.95577 240.54144,298.08076 C 230.08741,305.18445 206.89704,308.79097 206.89704,303.31308 C 206.89704,302.06587 202.78186,299.22386 197.75219,296.99752 C 192.72252,294.77118 184.8099,289.75429 180.16855,285.84888 C 175.52722,281.94347 170.90255,279.57537 169.89146,280.58644 C 168.25034,282.22756 186.88188,295.73001 202.16014,303.97184 C 208.10175,307.17703 212.33694,314.80014 207.89703,314.29792 C 206.52205,314.14238 200.16764,310.91448 193.77611,307.1248 z M 227.53138,296.87024 C 229.80526,295.42998 230.80534,292.8595 229.75378,291.15805 C 228.70222,289.4566 229.87927,286.02711 232.36945,283.53695 C 238.95435,276.95206 238.04547,275.57542 227.14702,275.62677 C 213.37353,275.69167 208.77267,279.31215 211.50873,287.93273 C 213.52038,294.27079 213.23253,294.59388 208.82979,290.93992 C 206.11678,288.68834 203.89705,288.15513 203.89705,289.75501 C 203.89705,292.68887 214.84092,299.04082 220.39703,299.33178 C 222.04703,299.41818 225.25747,298.31049 227.53138,296.87024 z M 193.57172,279.99045 C 188.71776,276.11156 183.57133,273.66413 182.13517,274.55173 C 180.69898,275.43933 183.89871,279.39315 189.24567,283.338 C 201.56732,292.4286 205.41277,289.45292 193.57172,279.99045 z M 156.96892,283.04679 C 155.72395,279.80246 156.60409,279.04042 160.06308,280.36776 C 162.7218,281.388 164.8971,280.72832 164.8971,278.90179 C 164.8971,277.07526 167.86709,275.58083 171.49709,275.58083 C 176.54395,275.58083 177.26944,274.75319 174.58001,272.06378 C 169.37897,266.86276 148.80856,278.15441 153.40186,283.68901 C 157.69611,288.86325 159.10368,288.60983 156.96892,283.04679 z M 241.88385,277.83083 C 241.05162,275.76833 240.37068,277.45583 240.37068,281.58081 C 240.37068,285.7058 241.05162,287.3933 241.88385,285.3308 C 242.71607,283.26831 242.71607,279.89332 241.88385,277.83083 z M 263.89698,277.99554 C 269.67197,274.38597 276.42197,271.35353 278.89696,271.25678 C 281.37196,271.16002 283.83478,267.99431 284.36989,264.22188 C 285.2461,258.04494 284.25361,257.43627 274.38899,258.10062 C 267.6573,258.55397 262.36779,260.83265 260.66604,264.01236 C 256.08025,272.58103 257.4829,273.34204 265.80156,266.7986 C 274.22402,260.17351 281.89696,258.63957 281.89696,263.58087 C 281.89696,265.23087 280.20946,266.58665 278.14696,266.59371 C 276.08447,266.60077 268.32198,270.64498 260.89698,275.58083 C 245.44307,285.85402 248.01368,287.92312 263.89698,277.99554 z M 164.8971,266.9482 C 164.8971,262.17351 156.74689,257.44311 151.79458,259.34348 C 149.11993,260.36984 147.64205,262.35917 148.51042,263.76421 C 149.37877,265.16925 152.07103,265.55835 154.4932,264.62888 C 156.91534,263.69942 158.8971,264.43337 158.8971,266.2599 C 158.8971,268.08642 160.2471,269.58085 161.8971,269.58085 C 163.5471,269.58085 164.8971,268.39616 164.8971,266.9482 z M 183.81562,264.47634 C 181.84579,263.77063 180.97774,261.25546 181.88659,258.88707 C 183.08956,255.75216 181.20775,254.61025 174.96805,254.68879 L 166.39709,254.79668 L 175.27984,262.05601 C 180.16537,266.04864 184.89036,268.51526 185.77983,267.53739 C 186.6693,266.55952 185.78541,265.18204 183.81562,264.47634 z M 202.39705,254.5809 C 204.59005,251.03257 201.6545,251.03257 193.39706,254.5809 C 187.61235,257.06667 187.63293,257.16675 193.97,257.37004 C 197.58512,257.48601 201.3773,256.2309 202.39705,254.5809 z M 283.39696,251.58091 C 284.41672,249.93092 283.90105,248.58092 282.25105,248.58092 C 280.60105,248.58092 278.41672,249.93092 277.39697,251.58091 C 276.37721,253.23091 276.89288,254.5809 278.54287,254.5809 C 280.19287,254.5809 282.3772,253.23091 283.39696,251.58091 z M 266.89698,248.58092 C 266.89698,246.93093 264.87198,245.58093 262.39698,245.58093 C 259.92199,245.58093 257.89699,246.93093 257.89699,248.58092 C 257.89699,250.23092 259.92199,251.58091 262.39698,251.58091 C 264.87198,251.58091 266.89698,250.23092 266.89698,248.58092 z M 274.39697,245.58093 C 272.02115,241.73679 269.89697,241.73679 269.89697,245.58093 C 269.89697,247.23093 271.32665,248.58092 273.07403,248.58092 C 274.82141,248.58092 275.41673,247.23093 274.39697,245.58093 z M 194.89706,207.3027 C 194.89706,206.04961 192.19707,203.33818 188.89707,201.2773 C 181.70329,196.78472 181.12996,198.38539 187.61136,204.86678 C 192.80771,210.06313 194.89706,210.76169 194.89706,207.3027 z M 201.26933,202.78108 C 198.30647,199.84029 197.96189,200.18488 199.58993,204.46046 C 200.71652,207.41911 202.39402,209.0841 203.31766,208.16044 C 204.24133,207.23679 203.31958,204.81607 201.26933,202.78108 z M 251.67532,202.34816 C 254.07685,199.45451 254.19307,197.50016 252.04267,196.17113 C 250.31255,195.10186 248.897,196.49697 248.897,199.27137 C 248.897,203.41511 248.09357,203.64895 244.397,200.58109 C 240.05142,196.97459 237.83568,200.51976 241.89702,204.58107 C 244.96094,207.64501 247.82144,206.99181 251.67532,202.34816 z M 176.89708,195.75132 C 176.89708,193.91995 173.65043,189.98342 169.6823,187.00348 C 165.52788,183.88365 163.07889,179.56966 163.90881,176.8333 C 165.15375,172.72867 164.95743,172.69432 162.46791,176.58117 C 160.88271,179.05616 158.72262,185.13114 157.66776,190.08112 C 155.8222,198.74152 156.14878,199.08109 166.32344,199.08109 C 172.13894,199.08109 176.89708,197.58269 176.89708,195.75132 z M 202.36681,182.53221 C 201.33041,180.8553 199.22576,180.25998 197.68976,181.20927 C 193.52864,183.78098 194.30453,185.58114 199.57412,185.58114 C 202.14649,185.58114 203.40319,184.20912 202.36681,182.53221 z M 230.89702,134.58131 C 230.89702,132.93131 229.54702,131.58132 227.89702,131.58132 C 226.24702,131.58132 224.89702,132.93131 224.89702,134.58131 C 224.89702,136.2313 226.24702,137.5813 227.89702,137.5813 C 229.54702,137.5813 230.89702,136.2313 230.89702,134.58131 z M 203.89705,230.75804 C 203.89705,229.20542 205.24705,227.10075 206.89704,226.081 C 208.54704,225.06125 209.89704,226.33157 209.89704,228.90394 C 209.89704,231.47631 208.54704,233.58097 206.89704,233.58097 C 205.24705,233.58097 203.89705,232.31065 203.89705,230.75804 z M 180.64708,228.46379 C 176.93458,227.74874 173.89709,225.76315 173.89709,224.05139 C 173.89709,222.33962 176.09362,221.78197 178.77826,222.81216 C 181.68334,223.92694 185.28825,222.53874 187.68282,219.38314 C 191.49561,214.35861 191.71125,214.35588 191.80167,219.33102 C 191.85414,222.21851 190.46739,224.581 188.72001,224.581 C 186.97263,224.581 186.37731,225.931 187.39707,227.58099 C 188.41683,229.23099 188.83401,230.39714 188.32413,230.17244 C 187.81425,229.94774 184.35957,229.17885 180.64708,228.46379 z M 221.89703,205.25812 C 221.89703,204.5305 223.24703,203.10083 224.89702,202.08108 C 226.54702,201.06133 227.89702,201.65665 227.89702,203.40402 C 227.89702,205.1514 226.54702,206.58107 224.89702,206.58107 C 223.24703,206.58107 221.89703,205.98574 221.89703,205.25812 z M 213.2961,198.51715 C 210.27582,195.25145 210.07818,193.19997 212.5461,190.73206 C 215.01402,188.26415 215.89703,188.65917 215.89703,192.23111 C 215.89703,194.8986 217.51805,197.62143 219.49928,198.28184 C 221.5574,198.96788 221.87888,200.22602 220.24928,201.21695 C 218.68055,202.17085 215.55161,200.95594 213.2961,198.51715 z M 246.69044,182.65804 C 241.51293,178.43649 240.94995,176.81905 244.22111,175.56379 C 248.85452,173.78578 256.08661,180.64921 254.43061,185.25286 C 253.86211,186.83326 250.37906,185.66559 246.69044,182.65804 z M 197.89706,172.25823 C 197.89706,171.53061 199.24706,170.10094 200.89706,169.08119 C 202.54705,168.06144 203.89705,168.65676 203.89705,170.40414 C 203.89705,172.15151 202.54705,173.58118 200.89706,173.58118 C 199.24706,173.58118 197.89706,172.98585 197.89706,172.25823 z M 218.98391,170.69837 C 216.5567,169.16335 215.47992,166.99832 216.59105,165.88718 C 217.70219,164.77604 220.79702,166.05263 223.46846,168.72405 C 228.74698,174.00257 226.07128,175.18055 218.98391,170.69837 z M 226.39702,161.58122 C 225.37726,159.93122 225.89293,158.58123 227.54293,158.58123 C 229.19293,158.58123 231.37726,159.93122 232.39702,161.58122 C 233.41677,163.23121 232.90111,164.58121 231.25111,164.58121 C 229.60111,164.58121 227.41678,163.23121 226.39702,161.58122 z M 259.97854,162.66277 C 258.92341,161.60763 258.79168,159.56062 259.68583,158.11385 C 261.60339,155.01121 266.89698,157.68652 266.89698,161.75827 C 266.89698,164.98353 262.8309,165.51512 259.97854,162.66277 z M 193.91813,154.35731 C 192.23013,149.95843 194.17532,146.58127 198.39707,146.58127 C 201.74734,146.58127 201.59942,154.79306 198.2114,156.88695 C 196.73432,157.79985 194.80232,156.66151 193.91813,154.35731 z M 248.897,145.08127 C 246.81371,142.57106 246.48884,140.58129 248.16233,140.58129 C 249.81233,140.58129 252.84292,142.60628 254.89699,145.08127 C 256.98028,147.59148 257.30515,149.58126 255.63166,149.58126 C 253.98166,149.58126 250.95107,147.55626 248.897,145.08127 z "
			     style="fill:#000000"
			     id="path6121" />
			
		</g>
	</g>
</svg>
 
