<?xml version="1.0" encoding="UTF-8" standalone="no"?>
<!-- Created with Inkscape (http://www.inkscape.org/) -->
<svg xmlns:dc="http://purl.org/dc/elements/1.1/" xmlns:cc="http://creativecommons.org/ns#" xmlns:rdf="http://www.w3.org/1999/02/22-rdf-syntax-ns#" xmlns:svg="http://www.w3.org/2000/svg" xmlns="http://www.w3.org/2000/svg" xmlns:sodipodi="http://sodipodi.sourceforge.net/DTD/sodipodi-0.dtd" xmlns:inkscape="http://www.inkscape.org/namespaces/inkscape" id="svg2397" sodipodi:version="0.32" inkscape:version="0.46" width="900" height="600">
  <rect fill="#ffffff" width="900" height="600"/>
  <rect fill="#e60000" width="900" height="300"/>
  <g id="g3794" transform="matrix(0.946113, 0, 0, 0.945904, 282.501, 100)">
    <text id="text3" transform="translate(90.4146, 14.4214)">
      <tspan id="tspan5" style="font-size: 7.8309px; font-family: Myriad-Roman;" y="0" x="0">Wappen des Landes Brandenburg</tspan>
      <tspan id="tspan7" style="font-size: 7.8309px; font-family: Myriad-Roman;" y="9.397" x="0">David Liuzzo 2006</tspan>
    </text>
    <path id="Schildflaeche" style="fill: rgb(255, 255, 255); fill-rule: evenodd;" d="M 0.573,0.979 C 0.573,50.833 0.573,100.366 0.573,150.419 C 0.573,200.194 -3.011,252.737 7.752,293.007 C 17.934,331.104 40.027,361.341 67.136,383.391 C 80.758,394.47 95.832,403.817 114.449,410.798 C 132.76,417.665 153.649,423.076 177.423,422.87 C 224.933,422.458 260.976,404.929 287.708,383.391 C 314.838,361.532 336.668,330.519 346.441,292.356 C 356.796,251.914 353.622,199.754 353.619,149.767 C 353.615,99.658 353.622,49.975 353.619,0 C 236.045,0 118.472,0 0.899,0 C 0.519,0.055 0.545,0.516 0.573,0.979 z"/>
    <path id="Schildrahmen" style="fill-rule: evenodd;" d="M 0.899,0 C 118.472,0 236.045,0 353.618,0 C 353.621,49.975 353.614,99.658 353.618,149.767 C 353.621,199.754 356.796,251.913 346.44,292.356 C 336.667,330.519 314.836,361.532 287.707,383.391 C 260.975,404.929 224.932,422.458 177.422,422.87 C 153.649,423.076 132.759,417.665 114.448,410.798 C 95.832,403.817 80.758,394.47 67.135,383.391 C 40.026,361.341 17.932,331.104 7.751,293.007 C -3.012,252.737 0.572,200.194 0.572,150.419 C 0.572,100.365 0.572,50.833 0.572,0.979 C 0.545,0.516 0.519,0.055 0.899,0 z M 4.162,5.221 C 4.162,54.201 4.162,102.905 4.162,152.051 C 4.162,188.716 2.928,227.221 5.793,260.38 C 6.731,271.233 9.252,281.117 11.993,291.05 C 17.388,310.605 24.979,326.987 34.181,342.279 C 38.777,349.917 44.654,355.622 50.822,362.182 C 56.874,368.619 62.815,374.957 69.42,380.453 C 82.341,391.208 98.347,400.391 116.08,407.209 C 133.927,414.073 154.672,419.282 177.422,419.282 C 200.379,419.284 220.771,413.847 238.439,406.884 C 266.131,395.966 285.567,381.231 303.696,362.182 C 309.912,355.651 315.688,349.569 320.338,341.952 C 329.523,326.903 337.25,309.884 342.526,290.726 C 353.292,251.628 350.03,200.27 350.03,151.399 C 350.03,102.179 350.03,53.294 350.03,4.242 C 234.85,4.242 119.67,4.242 4.49,4.242 C 4.108,4.297 4.134,4.758 4.162,5.221 z"/>
    <path id="Corpus" style="fill: rgb(223, 60, 41); fill-rule: evenodd;" d="M 254.427,69.5 C 256.218,71.581 256.626,75.242 256.384,78.31 C 255.367,91.159 247.352,101.996 233.87,102.782 C 232.703,101.491 231.71,99.359 232.891,97.887 C 234.067,96.423 237.466,96.867 238.764,96.582 C 249.334,94.259 255.773,83.55 254.427,69.5 z M 99.112,96.255 C 103.862,99.208 108.572,105.38 116.405,103.107 C 119.343,96.394 112.08,98.28 107.595,97.233 C 103.637,96.31 98.99,91.32 96.828,86.792 C 94.561,82.047 93.917,77.487 93.565,71.457 C 90.61,80.812 95.2,90.561 99.112,96.255 z M 197.326,25.125 C 198.755,28.481 203.344,28.678 206.462,30.345 C 207.887,31.726 211.327,35.685 212.335,35.24 C 211.175,28.245 204.438,20.111 197.326,25.125 z M 189.82,19.904 C 182.695,21.914 173.628,21.983 171.222,28.714 C 168.229,28.63 167.103,26.148 167.633,23.494 C 169.008,16.603 183.216,17.785 189.82,19.904 z M 327.188,161.84 C 319.213,153.938 312.267,143.638 305.653,131.495 C 301.457,123.789 295.737,115.247 291.297,107.023 C 288.989,102.749 286.866,96.222 282.487,100.824 C 288.919,103.657 289.847,113.738 280.529,113.222 C 281.795,115.994 284.804,118.349 283.792,122.358 C 293.62,134.912 304.739,150.71 316.095,162.817 C 323.184,170.377 329.504,179.253 343.178,178.153 C 341.607,174.224 338.725,170.841 336.325,167.386 C 318.69,141.987 303.934,113.348 288.686,85.814 C 287.979,87.282 286.465,87.943 284.771,88.424 C 287.189,90.069 290.663,93.264 288.36,97.56 C 300.964,119.977 314.591,143.112 328.494,163.144 C 328.495,162.817 328.229,162.756 328.167,162.492 C 327.782,162.333 327.428,162.145 327.188,161.84 z M 200.914,20.556 C 196.458,27.258 181.435,21.554 176.769,27.734 C 178.633,28.964 179.508,31.197 181.99,31.65 C 185.514,32.294 189.28,29.621 192.43,29.04 C 192.286,27.444 189.313,28.679 189.167,27.082 C 195.39,23.448 199.202,32.121 205.808,32.303 C 213.978,37.185 214.487,49.728 219.839,57.428 C 215.753,57.271 215.568,53.216 212.986,51.554 C 217.889,64.132 207.885,77.557 212.007,88.425 C 203.492,87.605 207.908,76.026 209.723,71.132 C 207.552,71.249 206.769,75.571 205.481,77.658 C 206.338,87.949 198.882,94.234 200.587,105.393 C 197.425,107.76 195.125,111.489 196.671,116.813 C 195.359,116.589 194.808,117.126 193.734,117.139 C 195.563,111.363 197.808,102.151 194.386,96.583 C 194.921,105.935 192.744,114.793 189.165,121.055 C 198.056,116.577 206.519,120.649 209.069,128.233 C 210.44,132.311 210.486,139.186 210.7,143.896 C 211.562,162.886 207.664,183.092 205.805,200.669 C 205.279,205.653 204.898,210.209 205.153,214.374 C 206.057,229.154 216.183,235.533 219.509,248.309 C 217.372,248.655 216.352,247.062 214.615,247.982 C 212.572,253.444 211.897,260.273 210.047,265.927 C 208.734,266.921 208.526,264.556 206.783,264.949 C 205.355,265.477 205.76,267.84 204.5,268.538 C 200.248,265.834 200.702,258.9 199.932,252.876 C 199.507,249.55 198.55,246.336 198.3,243.414 C 190.248,238.167 189.051,251.111 188.838,259.401 C 188.425,275.504 194.47,284.436 208.415,285.83 C 214.436,286.433 219.598,284.975 222.119,288.441 C 222.839,289.429 222.674,290.974 223.098,292.031 C 224.132,294.605 226.346,296.485 226.361,298.883 C 222.768,298.756 219.669,297.615 215.92,297.576 C 212.82,297.547 210.218,298.849 207.437,299.21 C 198.679,300.34 190.416,294.153 189.165,286.483 C 194.64,290.627 205.381,295.805 213.964,291.704 C 216.189,291.98 216.563,294.107 219.185,293.989 C 218.119,291.301 212.219,286.235 209.07,291.051 C 195.157,291.369 188.711,284.22 185.251,274.084 C 184.857,291.881 191.986,304.98 198.955,316.502 C 212.25,331.905 251.381,323.625 263.233,341.301 C 266.233,345.773 268.464,353.933 267.149,361.856 C 265.325,372.841 258.206,379.227 245.614,380.128 C 253.46,375.031 262.4,370.984 261.602,357.288 C 260.844,344.286 248.847,337.811 236.804,335.1 C 236.573,343.683 249.493,348.306 252.14,355.657 C 253.174,358.532 253.08,362.088 249.855,362.836 C 246.589,360.934 244.311,357.76 241.372,355.33 C 232.494,347.991 220.977,342.744 210.049,337.059 C 195.032,329.246 185.775,317.927 182.967,297.904 C 182.1,313.854 185.395,330.402 192.756,339.995 C 198.471,347.445 209.859,346.852 217.88,352.722 C 219.35,353.796 220.895,355.375 220.49,357.943 C 219.716,359.017 217.316,358.467 215.595,358.594 C 218.09,364.149 224.502,365.783 228.321,370.014 C 203.222,365.965 190.714,349.325 180.682,330.207 C 180.613,346.289 179.652,362.875 185.25,373.603 C 186.953,376.866 189.459,379.256 191.45,383.066 C 192.666,385.396 192.763,390.462 191.123,392.528 C 188.986,393.635 185.984,394.177 182.966,393.507 C 182.262,398.241 179.859,403.015 177.419,404.927 C 176.115,404.402 174.963,402.629 174.156,401.338 C 172.772,399.125 171.654,397.176 171.546,393.507 C 164.666,395.289 160.079,391.27 162.41,384.697 C 163.338,382.081 165.907,380.123 167.304,377.518 C 173.7,365.602 174.396,347.008 173.504,328.247 C 164.129,347.368 150.588,362.323 127.497,367.728 C 131.23,364.392 136.01,362.101 138.917,357.94 C 136.642,356.768 133.537,357.222 133.696,353.698 C 134.004,346.901 150.877,347.883 156.21,344.887 C 164.179,340.412 168.503,324.732 169.588,313.891 C 170.082,308.953 169.802,304.912 169.914,299.208 C 167.849,304.252 167.448,309.26 165.672,313.563 C 155.206,338.926 119.742,340.148 104.004,360.876 C 101.116,359.094 102.444,353.194 103.351,351.414 C 106.452,345.32 117.545,340.752 119.013,332.489 C 108.983,333.596 99.846,338.67 96.173,346.518 C 92.77,353.789 94.715,363.118 99.436,368.379 C 102.605,371.91 107.004,373.529 110.204,376.537 C 95.522,376.725 85.77,367.297 87.364,351.738 C 88.105,344.505 92.768,336.105 98.458,332.488 C 103.836,329.068 111.758,327.784 118.361,326.614 C 126.323,325.204 135.11,326.105 143.159,323.35 C 156.293,318.855 162.311,304.605 165.999,290.723 C 167.355,285.618 168.741,280.871 168.609,274.08 C 163.93,283.476 155.315,291.755 140.875,288.437 C 139.15,289.866 138.049,291.918 136.959,293.985 C 138.89,293.848 139.159,292.051 140.548,291.374 C 151.181,295.769 159.993,287.744 165.02,283.543 C 163.334,294.298 156.24,300.828 144.79,299.206 C 143.709,299.052 142.495,298.24 141.201,298.226 C 136.726,298.179 133.891,302.022 129.781,301.489 C 129.736,299.112 131.552,298.49 132.391,296.595 C 134.077,292.794 133.594,287.565 138.265,286.154 C 141.302,285.237 144.534,286.021 147.075,285.827 C 153.562,285.337 160.458,283.313 163.39,278.323 C 168.597,269.457 167.047,254.253 164.042,242.431 C 163.484,242.445 163.197,242.188 163.063,241.779 C 150.337,240.377 157.489,265.585 148.38,268.209 C 147.234,267.831 148.142,265.401 147.075,264.946 C 145.081,264.8 146.279,267.846 144.465,267.882 C 141.534,265.025 145.538,258.904 140.876,258.42 C 137.892,258.109 137.194,262.275 133.045,260.378 C 131.663,250.962 138.723,245.444 142.834,238.842 C 145.781,234.111 148.533,229.221 149.034,221.875 C 150.826,195.584 138.029,171.697 139.898,141.608 C 140.314,134.913 141.959,130.195 143.814,123.988 C 147.032,121.985 150.423,120.156 156.213,120.725 C 157.293,117.128 157.486,112.645 158.823,109.305 C 161.25,108.034 166.045,109.131 168.285,107.674 C 165.558,106.267 160.178,107.515 156.865,106.695 C 160.315,104.381 165.419,103.719 170.242,102.779 C 168.838,100.921 164.329,102.166 161.432,101.8 C 166.163,94.568 170.154,86.594 179.378,83.854 C 174.569,82.354 166.996,83.62 161.106,83.202 C 165.863,75.343 182.042,78.904 184.599,68.845 C 185.074,67.145 183.932,63.827 186.23,63.95 C 186.712,65.988 184.491,70.888 183.946,74.065 C 188.466,72.928 187.711,63.691 192.429,61.667 C 193.22,63.486 192.73,66.587 193.408,68.519 C 194.94,63.624 195.903,56.453 199.607,54.814 C 200.651,57.555 198.899,59.854 198.955,62.646 C 204.615,57.718 200.921,44.579 197.649,41.111 C 199.393,40.57 201.883,40.777 203.522,40.132 C 195.085,39.468 188.656,33.513 180.682,32.301 C 177.396,31.801 175.771,31.541 173.504,29.691 C 174.972,23.564 182.979,24.181 188.839,22.513 C 190.167,22.135 191.442,20.824 192.755,20.555 C 195.527,19.99 198.443,20.99 200.914,20.556 z M 24.392,24.798 C 36.916,27.558 51.283,28.432 67.136,27.735 C 79.145,27.207 90.959,27.488 99.765,31.651 C 104.605,36.208 108.901,46.641 105.311,55.47 C 104.802,51.65 105.669,44.226 101.396,42.419 C 103.167,48.406 103.167,56.673 100.091,61.67 C 96.689,67.197 88.555,68.789 83.45,72.111 C 83.258,73.391 85.242,72.495 84.755,74.069 C 86.741,107.867 104.718,125.673 138.92,127.255 C 139.15,129.007 138.662,130.042 138.267,131.17 C 119.002,131.345 104.924,125.398 95.197,114.203 C 85.458,102.995 79.717,84.417 82.798,65.912 C 94.277,69.323 95.824,52.896 85.408,53.839 C 90.086,44.682 75.562,40.533 73.335,48.293 C 73.74,50.172 74.162,52.034 74.64,53.839 C 64.311,51.607 66.321,68.624 75.619,65.912 C 75.19,112.565 96.452,137.528 137.288,142.916 C 139.763,156.944 140.334,174.287 138.919,191.208 C 138.174,200.11 137.794,209.102 136.961,216.005 C 136.229,222.073 133.647,232.246 126.193,229.057 C 121.193,221.803 120.698,210.478 119.667,199.691 C 118.615,188.691 117.285,177.811 114.121,169.346 C 115.068,206.832 109.644,248.24 90.954,267.231 C 87.704,270.534 82.791,272.954 76.924,273.105 C 83.353,236.158 87.919,195.906 86.386,152.052 C 91.406,155.537 96.437,151.603 98.785,147.81 C 100.615,159.628 97.589,170.688 96.501,182.071 C 94.317,204.918 93.994,228.838 89.322,249.613 C 91.997,247.412 91.918,243.485 92.586,240.151 C 97.267,216.761 97.4,185.759 101.069,160.862 C 103.652,162.499 106.606,162.554 109.226,161.514 C 111.808,160.49 112.834,157.919 114.447,157.599 C 115.055,163.57 117.376,169.016 124.888,167.061 C 128.804,179.599 124.774,202.156 126.193,217.636 C 128.831,203.147 130.536,181.073 126.519,166.735 C 130.157,162.07 136.033,156.285 134.024,148.136 C 130.342,154.435 130.015,167.287 119.015,164.124 C 118.05,161.964 116.984,160.075 116.731,157.272 C 116.281,152.279 120.04,146.275 116.405,144.22 C 114.455,147.965 114.105,155.058 110.858,157.924 C 104.345,163.675 100.809,156.197 101.396,148.462 C 101.706,144.375 104.226,139.414 101.396,138.021 C 97.822,141.831 97.216,151.586 89.976,150.747 C 87.275,150.434 85.898,147.766 86.387,143.895 C 87.038,138.743 92.06,133.544 91.282,130.517 C 88.64,130.872 87.509,134.469 85.083,136.39 C 83.008,138.033 80.294,139.297 76.6,138.347 C 74.27,134.761 76.803,131.701 78.558,129.211 C 80.389,126.614 83.252,124.273 83.452,121.707 C 79.653,120.575 73.597,129.143 68.769,123.991 C 68.839,116.992 75.162,116.244 77.906,111.919 C 76.343,109.532 66.247,116.952 64.528,111.266 C 62.976,106.134 71.451,104.369 73.991,101.477 C 69.61,100.435 62.666,101.134 62.244,97.235 C 61.734,92.516 69.044,93.881 72.033,91.362 C 71.342,88.933 67.848,90.368 65.833,89.731 C 63.895,89.118 62.049,87.441 62.244,85.816 C 62.641,82.501 68.125,83.984 70.727,82.227 C 69.019,79.527 64.352,81.038 62.57,82.227 C 61,83.275 61.081,84.483 59.96,86.143 C 56.739,90.914 51.403,96.657 45.929,101.805 C 37.601,109.636 27.628,118.655 13.627,111.92 C 26.814,96.719 43.448,84.967 55.718,68.85 C 42.494,73.798 14.269,80.741 11.995,61.346 C 30.386,57.332 48.384,52.925 64.527,46.662 C 45.085,45.435 25.335,44.52 24.392,24.798 z M 62.568,32.303 C 64.07,33.41 66.333,33.759 67.136,35.566 C 54.31,36.463 40.828,33.945 31.244,31.65 C 41.591,36.135 58.517,38.386 72.683,35.892 C 70.904,35.169 69.086,34.485 68.115,32.955 C 70.42,31.562 74.583,32.027 77.251,30.997 C 72.98,30.807 66.909,31.49 62.568,32.303 z M 60.937,56.448 C 60.9,56.051 60.84,55.676 60.284,55.796 C 47.091,60.439 33.467,64.653 16.561,65.585 C 34.839,67.281 47.676,60.843 60.937,56.448 z M 49.19,84.835 C 43.982,91.008 37.563,97.026 31.57,102.128 C 29.489,103.899 27.107,105.269 25.696,107.348 C 37.448,99.414 47.584,89.864 56.041,78.635 C 53.086,80.03 52.473,83.768 49.19,84.835 z M 11.34,182.722 C 23.289,181.878 30.148,172.441 36.465,165.102 C 44.621,155.625 53.089,145.798 58.979,134.757 C 62.919,132.371 64.674,127.266 66.484,122.684 C 67.591,119.88 69.398,117.291 69.094,115.505 C 59.841,116.146 61.162,106.168 67.136,103.106 C 65.798,102.704 64.862,101.9 63.22,101.801 C 49.54,123.469 40.113,151.129 22.76,168.038 C 37.033,146.745 49.549,123.695 60.936,99.517 C 60.606,98.433 59.954,97.671 59.957,96.254 C 60.952,94.095 62.558,92.546 64.525,91.359 C 62.627,90.865 61.528,89.571 59.957,88.749 C 45.169,121.492 28.134,151.985 11.34,182.722 z M 279.551,143.894 C 285.915,165.993 292.887,188.472 300.76,209.151 C 303.945,217.518 308.739,225.377 309.896,234.602 C 302.185,220.407 296.612,204.591 290.97,188.596 C 285.27,172.429 280.443,155.449 276.614,137.694 C 273.747,139.336 268.9,138.62 266.174,137.368 C 266.178,149.518 269.796,160.278 273.679,170.323 C 283.067,194.615 290.492,221.527 302.392,243.087 C 308.484,254.124 315.599,264.843 330.126,265.275 C 321.602,244.049 309.978,221.03 305.002,195.122 C 303.3,186.258 302.273,176.985 300.108,168.04 C 298.894,163.03 296.691,157.614 294.886,152.378 C 291.152,141.542 286.93,132.482 280.856,124.969 C 279.026,126.615 275.33,124.681 273.678,125.296 C 277.809,129.575 277.633,137.234 279.551,143.894 z M 69.42,127.906 C 69.401,127.707 69.371,127.519 69.094,127.579 C 62.519,137.721 57.851,147.641 54.738,160.534 C 50.513,178.03 49.118,201.21 43.97,218.614 C 38.902,235.747 30.733,253.362 25.698,269.842 C 28.252,269.568 30.192,268.679 32.877,268.537 C 42.63,264.072 47.752,254.969 52.128,245.369 C 65.393,216.278 75.788,182.279 85.083,150.093 C 83.486,147.51 84.116,142.461 84.756,139.325 C 81.855,140.989 78.443,141.641 74.641,140.304 C 68.499,170.971 59.743,200.55 49.517,227.097 C 48.063,230.871 47.376,235.264 44.296,238.192 C 52.085,213.459 60.694,187.818 67.463,162.492 C 68.656,158.029 69.521,153.534 70.726,149.115 C 72.015,144.388 72.41,140.015 73.336,135.084 C 73.907,132.046 76.107,129.007 75.946,127.58 C 73.792,127.949 71.686,128.518 69.42,127.906 z M 323.273,20.883 C 322.551,39.746 303.375,42.961 283.139,43.397 C 299.294,50.191 318.49,53.945 338.935,56.448 C 337.139,74.764 307.519,71.963 292.927,65.911 C 305.656,80.808 322.611,94.308 338.609,107.023 C 334.6,111.058 326.102,111.203 321.315,109.96 C 315.899,108.553 310.67,103.96 305.98,99.845 C 299.628,94.276 294.349,90.17 289.992,83.857 C 287.841,80.742 283.843,76.348 278.571,79.289 C 279.698,81.868 286.295,79.504 287.054,82.878 C 288.269,88.269 279.497,85.541 277.592,89.404 C 280.958,91.258 288.101,89.337 287.054,95.603 C 284.917,98.143 280.12,98.022 276.287,98.866 C 277.421,102.967 286.243,102.168 285.423,109.307 C 282.285,113.343 275.245,108.602 272.371,109.633 C 274.958,113.802 284.474,116.476 280.528,123.011 C 275.332,124.12 271.109,119.867 267.476,119.422 C 266.252,122.405 271.833,125.126 274.002,128.885 C 275.308,131.149 276.506,135.191 274.002,136.715 C 266.079,137.56 264.303,130.547 259.646,129.211 C 258.926,130.881 260.795,133.044 261.929,135.084 C 263.833,138.508 266.506,143.091 263.887,148.462 C 255.028,151.138 253.743,141.131 249.856,136.715 C 246.981,137.609 249.338,140.841 249.856,143.568 C 250.825,148.661 250.597,155.062 248.225,158.251 C 238.278,160.026 237.905,149.736 235.174,143.242 C 232.033,145.443 235.107,150.832 235.174,155.314 C 235.228,158.97 234.415,161.521 232.564,163.798 C 221.728,165.554 221.685,153.832 217.554,147.81 C 216.059,156.81 221.575,161.625 225.711,166.082 C 222.139,181.964 224.648,202.048 227.669,216.982 C 228.149,201.283 224.763,183.482 227.016,167.06 C 234.255,167.338 237.532,163.654 237.131,156.292 C 239.563,159.708 246.86,162.537 250.835,159.555 C 255.033,180.278 255.553,204.647 259.646,225.139 C 261.234,233.097 261.503,241.423 265.519,247.654 C 259.609,217.019 255.741,181.515 252.467,147.157 C 254.26,146.806 256.342,151.422 259.971,151.725 C 261.94,151.888 263.494,150.881 264.866,150.419 C 265.885,194.32 270.813,234.311 279.222,270.819 C 271.121,271.851 266.633,266.443 261.929,262.989 C 245.459,240.087 237.116,209.057 239.089,167.713 C 237.592,169.731 237.454,172.649 236.805,175.217 C 234.019,186.232 232.549,198.545 231.91,213.067 C 231.683,218.221 231.389,223.462 229.626,227.75 C 228.25,228.812 225.385,229.603 223.101,228.728 C 216.049,220.491 216.274,207.938 214.944,194.469 C 214.369,188.644 212.944,182.468 212.66,176.197 C 212.146,164.878 212.597,153.011 213.966,143.241 C 251.956,135.987 274.37,113.155 272.697,66.237 C 282.095,67.933 283.839,51.173 272.697,53.511 C 279.988,41.308 254.707,41.042 261.603,53.511 C 250.666,53.154 255.116,70.28 265.519,65.91 C 266.744,70.45 267.588,74.77 267.15,80.267 C 264.702,110.957 244.527,130.653 212.334,131.168 C 211.963,130.016 211.974,128.482 211.682,127.253 C 245.074,124.971 262.786,107.008 263.888,72.436 C 263.751,71.321 263.986,70.577 265.193,70.805 C 255.107,65.678 243.694,61.839 245.29,45.681 C 245.448,44.074 245.789,42.671 246.595,41.113 C 243.108,41.446 241.381,50.053 243.659,54.164 C 243.579,55.005 243.097,53.716 242.353,54.164 C 238.089,37.719 245.611,26.823 260.952,25.777 C 270.015,25.159 280.905,25.581 291.297,25.125 C 303.528,24.586 314.798,22.217 323.273,20.883 z M 313.158,29.04 C 314.12,28.587 316.792,27.178 314.789,27.735 C 305.664,31.342 292.064,33.931 280.203,32.63 C 280.885,30.702 283.552,30.758 284.444,29.041 C 280.382,28.317 275.009,28.905 270.414,28.715 C 269.985,28.672 268.054,28.666 269.108,29.041 C 269.979,29.041 270.849,29.041 271.718,29.041 C 274.111,29.477 276.866,29.549 279.223,30.02 C 278.045,31.779 275.934,32.603 274.656,34.262 C 289.376,34.596 303.823,33.443 313.158,29.04 z M 288.36,53.185 C 287.805,53.112 287.552,53.553 288.36,53.511 C 300.406,57.906 315.731,63.817 332.083,60.69 C 315.563,61.3 301.696,56.807 288.36,53.185 z M 324.252,102.781 C 312.583,95.091 302.314,84.26 292.603,75.699 C 301.43,86.232 312.06,96.701 324.252,102.781 z"/>
    <path id="Rechte_Kralle" style="fill: rgb(253, 228, 74); fill-rule: evenodd;" d="M 219.513,253.528 C 229.087,269.622 239.502,284.876 248.879,301.165 C 254.574,301.754 258.409,301.26 260.952,297.575 C 262.622,295.158 262.353,291.375 263.889,289.094 C 266.512,285.192 274.743,285.971 279.224,288.115 C 279.254,291.243 272.743,291.601 271.394,289.42 C 269.732,289.717 268.682,290.625 267.152,291.051 C 267.456,292.655 268.829,293.214 268.131,294.967 C 267.236,295.488 266.158,295.823 264.867,295.946 C 264.539,298.989 262.888,300.711 261.278,302.473 C 268.743,307.822 275.758,299.881 282.487,299.862 C 288.071,299.846 290.803,305.65 297.822,303.778 C 297.719,304.872 297.487,305.834 296.843,306.387 C 297.896,309.36 301.54,309.739 302.39,312.912 C 299.167,316.568 295.704,311.215 294.885,308.345 C 291.261,308.815 290.125,306.797 287.706,306.061 C 287.587,310.043 281.973,310.15 282.16,305.736 C 273.659,306.244 263.447,312.215 256.709,307.041 C 256.812,309.533 259.846,310.383 261.93,311.608 C 263.952,312.799 266.687,314.126 268.455,315.524 C 269.566,316.403 270.178,317.778 271.393,318.461 C 273.222,319.489 275.759,319.259 276.613,321.397 C 275.182,324.149 277.956,327.312 276.613,328.903 C 271.892,329.687 272.826,322.048 267.477,322.378 C 266.283,316.502 258.648,317.068 255.731,312.914 C 252.843,312.648 249.394,312.944 248.552,310.632 C 246.053,311.063 244.24,311.948 241.7,312.263 C 239.231,312.569 236.433,311.545 234.195,311.937 C 230.78,312.533 227.293,318.558 223.754,314.221 C 225.436,311.552 229.609,311.376 230.607,308.021 C 234.989,307.835 239.033,307.311 243.005,306.716 C 245.195,304.965 242.466,301.702 240.721,298.885 C 232.829,286.135 221.733,273.506 213.966,261.688 C 214.231,257.38 215.03,253.612 219.513,253.528 z M 274.004,284.198 C 274.562,284.728 275.191,285.186 276.288,285.177 C 276.792,284.052 279.392,282.274 277.919,281.261 C 276.774,282.402 274.117,282.028 274.004,284.198 z M 299.128,306.712 C 299.494,306.781 299.636,307.073 299.78,307.365 C 302.061,306.71 304.325,306.035 305.327,304.101 C 303.229,301.739 299.043,303.249 299.128,306.712 z M 227.996,308.67 C 228.448,308.142 229.151,307.866 228.975,306.712 C 228.721,306.64 228.596,306.44 228.648,306.059 C 224.273,304.214 224.127,308.527 227.996,308.67 z M 278.571,324.658 C 279.998,325.082 281.615,325.312 283.466,325.311 C 283.916,322.255 278.18,320.279 278.571,324.658 z"/>
    <path id="Linke_Kralle" style="fill: rgb(253, 228, 74); fill-rule: evenodd;" d="M 140.551,265.925 C 133.296,277.27 121.524,289.252 112.164,300.839 C 111.366,301.826 108.539,305.031 108.901,306.385 C 109.909,310.163 118.459,306.644 121.627,307.69 C 122.55,309.159 123.212,310.892 124.237,312.259 C 125.238,312.78 127.202,312.338 127.174,313.891 C 125.228,317.099 120.46,313.987 119.017,312.586 C 117.402,312.819 115.767,313.032 113.796,312.91 C 111.24,309.784 104.868,312.079 100.744,312.259 C 99.577,315.333 97.065,317.063 93.24,317.48 C 90.777,321.87 87.702,325.646 81.82,326.616 C 80.063,330.226 80.731,337.873 75.621,337.057 C 75.804,334.002 78.943,329.359 74.969,326.942 C 80.959,320.75 89.552,317.163 93.894,309.324 C 89.287,308.057 82.809,308.662 78.884,306.713 C 77.633,308.891 74.046,310.718 73.011,307.039 C 69.81,307.537 68.089,309.513 64.854,309.976 C 63.126,311.729 62.97,315.053 60.938,316.501 C 53.231,317.615 56.307,311.119 59.633,309.648 C 60.151,307.872 58.5,307.105 59.307,306.059 C 60.832,304.901 61.926,305.703 63.222,305.408 C 67.225,304.492 69.967,300.365 73.664,300.186 C 76.403,300.053 80.625,301.924 83.779,302.796 C 86.936,303.669 90.031,305.271 93.894,304.427 C 90.474,302.409 92.151,295.294 87.041,294.965 C 86.462,294.022 86.92,292.039 86.062,291.376 C 83.724,291.033 79.35,292.619 77.579,290.397 C 75.777,290.776 73.236,293.354 71.706,291.048 C 72.18,287.824 75.919,287.865 77.579,285.827 C 82.151,287.782 88.442,288.015 92.262,290.723 C 94.3,295.997 98.2,308.86 104.335,301.489 C 106.785,298.547 108.845,294.819 111.513,291.375 C 118.33,282.575 127.67,270.507 134.027,262.661 C 133.967,262.384 134.154,262.353 134.353,262.335 C 135.603,261.861 137.47,263.261 139.248,263.314 C 139.499,264.368 139.928,265.245 140.551,265.925 z M 74.314,286.156 C 74.878,285.634 75.502,285.169 75.293,283.873 C 73.665,283.216 71.98,282.617 69.746,282.566 C 70.347,284.686 71.948,285.804 74.314,286.156 z M 128.152,306.385 C 127.831,307.913 126.697,308.629 124.889,308.67 C 123.333,306.591 126.525,305.282 128.152,306.385 z M 57.347,307.039 C 58.86,309.956 55.12,310.864 52.779,309.976 C 53.078,307.585 54.923,306.401 57.347,307.039 z M 74.641,328.9 C 74.588,329.932 75.508,329.99 75.294,331.185 C 73.502,332.003 71.885,332.996 70.073,333.794 C 69.759,330.327 71.593,329.006 74.641,328.9 z"/>
    <path id="Rechter_Kleestengel" style="fill: rgb(253, 228, 74); fill-rule: evenodd;" d="M 271.719,46.986 C 273.159,49.824 271.718,52.579 270.74,54.817 C 282.161,51.654 281.404,67.974 270.74,64.932 C 273.917,109.375 253.099,135.355 213.639,139.326 C 213.297,137.601 212.814,136.019 212.66,134.105 C 228.533,131.938 242.499,127.566 252.468,118.117 C 264.134,107.057 272.275,85.093 266.172,64.28 C 261.77,66.253 253.944,63.597 256.709,56.448 C 258.118,55.246 259.937,54.456 262.909,54.817 C 258.676,49.283 265.351,42.341 271.719,46.986 z"/>
    <path id="Linker_Kleestengel" style="fill: rgb(253, 228, 74); fill-rule: evenodd;" d="M 81.167,63.953 C 76.311,104.729 97.846,132.453 137.289,133.453 C 137.717,134.983 137.624,137.034 137.615,139 C 118.615,139.663 102.712,130.732 93.24,120.075 C 83.926,109.597 79.228,94.616 77.578,78.637 C 77.108,74.08 77.324,69.309 77.578,64.607 C 69.037,68.352 65.409,53.876 75.947,54.818 C 75.763,53.569 74.23,50.287 75.295,47.64 C 80.401,42.096 89.013,49.922 83.126,55.144 C 94.819,52.579 91.7,69.729 81.167,63.953 z"/>
    <path id="Rachen" style="fill: rgb(223, 60, 41); fill-rule: evenodd;" d="M 192.105,52.533 C 191.982,55.021 189.88,55.529 187.863,56.122 C 188.318,53.967 188.831,51.869 192.105,52.533 z M 189.168,47.964 C 190.332,48.432 191.869,48.526 193.084,48.943 C 192.662,44.035 190.413,40.954 186.231,39.807 C 187.404,42.332 188.935,44.5 189.168,47.964 z"/>
    <path id="Schnabel" style="fill: rgb(253, 228, 74); fill-rule: evenodd;" d="M 165.349,58.406 C 173.728,54.396 189.764,62.91 194.062,54.164 C 195.463,51.313 194.839,46.744 194.062,44.702 C 191.285,37.395 177.44,33.08 169.916,38.503 C 164.426,33.353 150.482,33.633 149.034,42.092 C 145.764,34.473 152.369,28.833 159.149,28.062 C 160.674,26.565 161.756,21.434 165.348,24.146 C 166.884,33.488 178.306,32.5 186.883,35.893 C 191.774,37.827 198.077,42.533 198.956,46.987 C 199.924,51.892 196.746,56.958 194.061,59.06 C 186.829,64.722 172.698,61.133 165.349,58.406 z"/>
    <path id="Zunge" style="fill: rgb(223, 60, 41); fill-rule: evenodd;" d="M 190.8,50.249 C 178.417,49.028 162.046,49.492 150.992,52.533 C 160.139,46.397 178.979,46.697 190.8,50.249 z"/>
    <path id="Kontur" style="fill-rule: evenodd;" d="M 204.177,21.535 C 217.644,26.451 212.277,51.938 223.429,58.079 C 221.796,58.948 218.743,58.397 216.903,59.058 C 217.023,66.541 211.308,74.766 212.336,82.225 C 212.723,85.04 214.985,86.414 215.273,88.751 C 212.854,91.027 209.081,89.198 206.463,88.098 C 203.156,92.598 199.875,103.151 204.831,108.328 C 201.312,107.964 199.18,108.985 197.979,110.938 C 196.651,117.047 201.631,116.441 204.831,118.769 C 207.513,120.72 208.094,122.834 210.052,124.643 C 241.943,125.279 262.401,105.027 261.28,72.436 C 260.576,71.182 258.808,70.992 257.364,70.478 C 257.782,79.255 256.743,87.678 252.47,93.971 C 249.975,97.645 244.106,101.898 241.05,103.107 C 236.331,104.974 228.884,104.551 231.261,97.233 C 237.156,95.188 244.083,94.176 247.902,90.055 C 248.833,86.967 251.11,84.644 252.144,80.919 C 252.956,77.995 254.174,72.273 253.123,68.846 C 252.682,67.41 247.001,63.149 245.618,61.668 C 241.94,57.726 238.117,52.955 238.765,44.375 C 239.191,38.75 241.14,33.125 244.638,29.692 C 251.556,22.902 265.799,24.054 278.573,23.492 C 295.557,22.745 311.223,22.251 324.906,18.272 C 325.035,37.651 310.049,41.916 293.582,44.701 C 296.134,46.866 299.962,47.639 303.372,48.617 C 314.754,51.883 328.125,53.48 341.874,55.142 C 339.02,71.761 318.567,75.421 300.109,70.152 C 311.311,83.857 326.53,96.372 341.874,107.023 C 338.586,110.452 334.054,112.524 328.169,112.57 C 314.223,112.678 305.794,101.078 296.846,95.603 C 311.245,124.818 327.387,152.291 345.137,178.154 C 332.263,182.533 323.438,172.628 316.75,165.429 C 312.721,161.093 308.632,156.785 305.003,152.378 C 297.061,142.73 290.212,132.354 283.142,124.644 C 288.906,134.334 295.347,144.165 298.804,156.62 C 302.246,169.023 304.315,182.747 306.96,196.428 C 312.064,222.813 324.576,244.45 332.411,267.231 C 325.577,266.531 317.873,265.722 313.486,262.012 C 310.834,259.768 307.778,255.093 305.329,251.571 C 288.106,226.796 279.241,189.262 267.479,159.556 C 266.655,164.289 267.573,169.458 267.805,174.565 C 268.166,182.504 267.899,190.752 268.784,198.384 C 271.854,224.852 276.222,250.873 281.182,273.758 C 261.111,272.247 252.742,255.088 246.595,238.193 C 240.218,220.66 236.128,202.324 237.459,179.786 C 232.045,193.189 235.276,215.236 230.28,229.056 C 228.39,230.102 225.936,230.584 222.775,230.361 C 212.146,219.891 214.718,196.218 211.029,178.807 C 206.168,198.818 205.913,222.868 215.597,235.908 C 216.958,237.742 218.907,239.662 219.839,241.782 C 222.363,247.52 221.615,254.234 224.733,259.401 C 233.287,273.577 241.701,285.456 249.532,298.882 C 255.467,301.106 259.419,298.151 260.952,293.988 C 261.564,292.325 261.073,290 261.931,288.44 C 263.133,286.255 267.357,286.045 270.414,284.198 C 271.688,283.429 273.189,281.206 274.656,280.61 C 278.172,279.181 282.932,280.708 286.076,281.915 C 283.365,282.575 279.631,282.212 278.571,284.524 C 278.943,286.882 281.332,286.14 281.509,288.114 C 281.899,292.477 273.826,293.005 270.74,291.377 C 269.267,292.026 270.674,294.152 270.74,295.293 C 268.923,297.282 265.514,297.679 265.52,301.491 C 269.399,303.26 273.589,301.404 277.592,299.533 C 279.167,298.798 281.09,297.098 282.813,297.251 C 284.642,297.411 286.734,300.461 288.686,301.165 C 296.031,303.814 307.36,299.029 308.59,307.039 C 306.463,305.961 302.786,306.188 302.064,308.344 C 302.165,310.705 304.357,310.742 304.022,312.911 C 303.672,315.166 300.661,316.182 297.822,315.196 C 295.548,314.406 293.325,309.3 289.665,309.324 C 286.757,311.801 282.095,311.059 280.855,307.69 C 276.073,308.673 271.76,310.125 267.477,311.606 C 269.42,317.176 277.856,319.059 283.139,322.375 C 284.156,324.076 284.538,326.413 284.771,328.9 C 282.512,328.874 282.963,326.14 280.529,326.289 C 278.145,327.41 279.089,330.36 276.94,331.185 C 272.61,332.844 270.505,323.039 265.845,322.701 C 265.591,321.431 264.633,320.867 264.214,319.763 C 261.063,318.02 257.486,316.702 254.751,314.542 C 247.361,312.985 241.743,312.991 233.869,314.217 C 232.106,316.739 223.266,319.345 222.122,314.868 C 221.432,312.165 223.484,311.813 224.406,309.647 C 223.988,306.131 220.317,309.37 219.839,308.669 C 223.277,300.065 234.349,309.558 242.353,305.406 C 233.772,290.602 223.663,277.328 212.661,264.946 C 211.769,266.774 210.54,268.262 207.44,267.882 C 206.601,268.675 206.871,270.575 205.482,270.819 C 197.757,269.946 199.688,257.703 197.978,250.589 C 197.685,249.373 196.808,245.271 195.04,245.044 C 191.543,244.593 190.473,256.097 190.473,258.421 C 190.473,266.352 192.601,278.902 200.913,282.24 C 209.191,285.562 219.627,281.29 223.754,287.46 C 224.848,289.095 225.542,292.956 226.691,294.965 C 228.173,297.559 232.608,301.456 226.365,302.144 C 223.969,302.408 222.823,300.626 220.492,300.186 C 213.782,298.916 203.456,302.026 196.999,299.533 C 194.627,298.618 193.766,296.976 191.778,295.619 C 192.318,301.231 194.937,306.762 197.651,310.955 C 200.318,315.072 204.094,319.288 209.072,321.394 C 216.93,324.722 226.634,325.214 235.501,326.942 C 253.162,330.384 268.827,335.709 269.436,356.309 C 269.957,373.94 254.105,387.413 236.481,378.822 C 248.688,378.572 259.432,372.007 259.973,359.896 C 260.496,348.194 250.897,340.455 240.722,338.688 C 242.385,345.246 253.125,348.889 254.427,356.96 C 254.898,359.882 253.574,365.337 249.858,364.792 C 247.218,364.404 244.738,360.099 242.354,357.939 C 234.919,351.206 224.708,346.368 215.598,341.95 C 208.821,338.665 202.256,335.451 197.652,331.509 C 192.414,327.026 189.302,320.246 185.579,315.196 C 187.577,326.634 189.326,337.137 198.632,343.256 C 203.442,346.42 213.114,347.627 217.883,350.762 C 221.325,353.026 224.552,357.349 220.493,361.203 C 224.913,365.919 230.635,369.332 237.134,371.97 C 208.249,372.686 194.775,355.163 182.644,338.035 C 180.634,352.383 182.816,366.473 188.191,375.559 C 190.007,378.629 193.194,381.412 194.064,384.042 C 195.826,389.369 192.437,397.192 185.58,395.462 C 182.717,400.103 179.845,404.734 177.424,409.819 C 173.86,405.442 171.509,399.854 167.962,395.462 C 162.712,395.996 159.287,392.262 160.131,386.326 C 160.988,380.301 167.567,376.053 169.593,368.706 C 172.624,357.722 171.749,347.303 172.53,335.425 C 170.19,337.029 169.171,339.806 167.636,341.95 C 157.117,356.65 142.208,369.05 117.714,370.338 C 123.713,367.092 130.213,364.347 134.355,359.244 C 132.422,356.739 130.751,352.982 133.376,350.107 C 142.514,344.71 156.483,346.191 161.437,337.056 C 164.5,331.407 166.342,323.468 167.637,315.195 C 164.487,319.933 160.29,325.82 155.238,330.204 C 145.549,338.611 130.698,342.412 119.346,350.434 C 117.099,352.021 114.394,354.16 111.515,356.632 C 108.708,359.046 102.37,367.779 100.747,359.243 C 98.41,346.945 112.303,343.263 115.43,335.097 C 104.731,335.507 93.616,347.02 96.505,359.57 C 98.656,368.911 106.985,375.161 118.366,375.883 C 106.494,381.927 92.916,375.097 88.021,366.421 C 82.059,353.51 87.779,338.553 95.526,332.487 C 109.853,321.266 139.727,328.092 152.952,314.866 C 157.353,310.467 159.119,305.024 161.436,297.899 C 157.489,299.33 150.892,301.801 144.143,301.488 C 141.887,301.384 139.46,300.241 137.291,300.51 C 133.49,300.98 130.443,305.212 127.176,302.468 C 129.014,299.939 129.798,297.773 130.765,295.289 C 132.223,291.546 132.602,286.937 136.312,285.174 C 143.335,281.836 156.533,285.265 161.11,277.995 C 163.578,274.075 164.684,264.513 164.373,257.438 C 164.167,252.753 164.052,244.635 161.11,244.387 C 159.826,244.279 158.342,245.958 157.847,246.996 C 155.864,251.156 156.31,257.427 154.584,262.332 C 153.353,265.828 151.331,268.459 149.037,270.49 C 146.631,269.849 143.745,269.69 142.511,267.879 C 131.731,280.592 120.782,293.136 110.208,306.055 C 116.861,309.162 126.748,302.421 131.743,307.362 C 130.547,308.993 128.077,309.351 126.522,310.625 C 126.839,313.044 129.075,312.443 128.48,314.865 C 127.666,318.184 120.056,317.04 118.692,314.539 C 112.678,315.359 108.134,312.001 102.704,313.888 C 99.349,315.053 97.373,319.273 93.568,319.76 C 92.159,325.426 84.342,325.302 81.821,329.875 C 80.446,332.371 81.476,335.632 79.211,338.031 C 77.527,338.398 76.127,339.34 74.317,338.684 C 73.006,338.146 73.621,335.682 73.012,334.444 C 70.337,334.595 69.662,336.748 69.096,339.011 C 67.386,336.152 68.353,331.406 69.748,328.896 C 70.648,328.382 71.665,327.986 72.685,327.591 C 76.475,320.286 86.943,319.661 89.325,310.95 C 86.173,310.394 82.339,308 78.884,308.666 C 77.362,308.959 77.009,310.494 75.621,310.624 C 73.844,310.788 72.949,309.096 71.379,308.992 C 69.824,308.889 66.543,310.412 65.505,311.275 C 63.801,312.693 63.883,315.608 61.916,317.149 C 59.88,318.099 56.529,317.863 54.738,316.822 C 53.415,315.358 55.135,312.857 53.759,311.601 C 52.098,310.195 50.751,313.268 49.843,312.581 C 49.669,304.729 59.13,306.137 66.157,302.791 C 68.07,301.881 70.302,299.271 72.357,298.876 C 78.178,297.757 83.968,302.925 89.323,303.443 C 91.744,298.497 85.891,296.532 84.429,293.329 C 78.931,292.098 75.473,293.561 70.399,293.002 C 68.886,290.871 70.377,288.326 71.378,286.804 C 70.302,284.94 67.337,283.602 64.525,284.519 C 66.211,282.636 68.679,280.811 71.051,280.93 C 72.7,281.013 73.978,282.762 75.619,283.54 C 80.513,285.863 87.602,287.172 92.586,288.435 C 95.066,290.18 95.69,302.159 100.09,302.139 C 102.319,302.129 107.589,294.349 108.9,292.676 C 116.674,282.764 124.948,270.622 131.74,261.679 C 128.195,254.405 133.942,249.778 136.961,245.691 C 141.994,238.876 146.273,230.063 147.076,218.284 C 147.508,211.956 145.945,205.672 144.792,199.685 C 143.058,190.678 143.24,183.483 141.203,173.908 C 137.66,191.682 141.339,216.679 133.046,229.704 C 121.645,236.35 119.91,218.519 119.016,208.495 C 118.051,197.678 117.697,187.745 115.1,181.087 C 116.517,206.242 112.359,226.779 104.985,246.345 C 99.452,261.026 92.619,274.588 74.314,276.036 C 80.208,240.599 85.14,202.462 84.429,161.509 C 81.479,167.768 79.458,174.811 77.251,181.739 C 71.258,200.552 65.89,219.963 58,237.539 C 57.501,238.65 57.323,240.864 55.716,241.129 C 52.187,250.68 45.56,263.687 36.139,268.864 C 32.939,270.621 28.482,271.863 22.761,271.473 C 29.696,248.939 42.046,227.687 45.928,201.321 C 47.997,187.271 49.417,173.737 52.454,161.187 C 55.461,148.761 59.939,138.363 66.158,128.559 C 54.71,142.21 44.611,161.163 30.593,174.24 C 25.515,178.977 17.635,185.759 9.058,183.702 C 23.045,155.053 39.263,128.637 52.128,98.867 C 42.479,106.664 25.507,124.78 10.363,112.245 C 22.406,98.62 37.546,88.092 48.211,73.089 C 32.146,78.76 10.923,77.876 9.383,59.385 C 25.473,57.094 40.313,53.553 53.432,48.291 C 51.824,46.668 49.21,46.963 47.232,46.659 C 33.594,44.561 22.027,38.8 22.108,22.514 C 40.584,27.982 65.613,24.068 87.04,25.777 C 101.674,26.944 109.145,36.528 108.248,49.923 C 107.542,60.476 100.794,63.733 94.871,70.153 C 94.328,80.652 98.429,90.592 104.66,94.298 C 108.218,96.415 113.523,95.442 117.712,97.887 C 119.336,100.865 117.683,104.046 115.754,105.392 C 98.747,103.49 89.28,90.876 91.281,72.11 C 89.017,71.912 87.845,72.807 86.713,73.741 C 85.085,104.174 109.139,126.68 137.941,125.295 C 143.273,125.038 146.009,116.529 154.255,119.095 C 155.935,116.859 154.852,111.861 156.54,109.633 C 154.873,107.82 151.026,108.185 148.382,107.349 C 157.864,106.839 159.188,100.679 164.044,94.297 C 166.44,91.15 169.526,88.868 171.875,85.487 C 165.847,81.723 156.964,86.154 154.582,89.076 C 156.743,81.931 162.648,79.872 170.57,76.677 C 175.539,74.673 184.827,71.735 181.011,65.257 C 175.513,62.053 167.456,61.41 161.434,58.732 C 164.744,50.995 186.262,61.648 187.211,52.532 C 182.464,50.818 175.078,50.986 169.591,51.227 C 163.035,51.515 156.785,52.358 151.319,53.837 C 143.015,56.084 136.836,61.604 128.805,62.974 C 144.123,54.07 162.556,41.694 187.537,47.638 C 188.508,38.284 175.949,34.774 170.57,40.46 C 163.769,34.95 151.863,34.897 149.361,44.049 C 148.844,45.67 150.618,46.686 150.013,47.312 C 144.771,43.778 145.91,33.661 150.34,30.019 C 152.246,28.452 155.132,28.302 157.519,26.756 C 160.297,24.957 161.063,20.459 166.002,22.84 C 168.065,21.787 168.091,20.001 169.591,18.924 C 179.964,11.481 199.99,24.779 210.703,16.314 C 211.334,17.009 208.969,17.783 207.766,18.598 C 206.426,19.508 204.945,20.667 204.177,21.535 z M 167.633,23.493 C 167.103,26.147 168.229,28.629 171.222,28.713 C 173.628,21.983 182.695,21.913 189.82,19.903 C 183.216,17.785 169.008,16.603 167.633,23.493 z M 192.758,20.556 C 191.445,20.825 190.17,22.136 188.842,22.514 C 182.982,24.182 174.975,23.565 173.507,29.692 C 175.775,31.543 177.399,31.802 180.685,32.302 C 188.659,33.514 195.088,39.469 203.525,40.133 C 201.886,40.778 199.396,40.571 197.652,41.112 C 200.923,44.58 204.618,57.719 198.958,62.647 C 198.902,59.855 200.654,57.557 199.61,54.815 C 195.906,56.454 194.943,63.625 193.411,68.52 C 192.732,66.588 193.223,63.487 192.432,61.668 C 187.713,63.693 188.468,72.929 183.949,74.066 C 184.494,70.889 186.716,65.989 186.233,63.951 C 183.935,63.828 185.077,67.146 184.602,68.846 C 182.044,78.905 165.866,75.344 161.109,83.203 C 166.999,83.621 174.573,82.355 179.381,83.855 C 170.156,86.595 166.166,94.568 161.435,101.801 C 164.332,102.167 168.84,100.922 170.245,102.78 C 165.421,103.72 160.318,104.382 156.868,106.696 C 160.181,107.516 165.561,106.268 168.288,107.675 C 166.048,109.133 161.252,108.035 158.826,109.306 C 157.489,112.646 157.296,117.129 156.216,120.726 C 150.426,120.157 147.035,121.986 143.817,123.989 C 141.963,130.197 140.317,134.914 139.901,141.609 C 138.032,171.697 150.83,195.585 149.037,221.876 C 148.536,229.222 145.784,234.111 142.837,238.843 C 138.727,245.446 131.666,250.963 133.048,260.379 C 137.197,262.276 137.895,258.11 140.879,258.421 C 145.541,258.905 141.538,265.025 144.468,267.883 C 146.281,267.848 145.084,264.802 147.078,264.947 C 148.145,265.402 147.238,267.832 148.383,268.21 C 157.492,265.586 150.34,240.378 163.066,241.78 C 163.2,242.189 163.487,242.446 164.045,242.432 C 167.049,254.253 168.599,269.457 163.393,278.324 C 160.461,283.314 153.565,285.338 147.078,285.828 C 144.537,286.022 141.306,285.238 138.268,286.155 C 133.597,287.566 134.08,292.796 132.394,296.596 C 131.555,298.491 129.738,299.113 129.784,301.49 C 133.894,302.023 136.729,298.18 141.204,298.227 C 142.498,298.242 143.712,299.053 144.793,299.207 C 156.243,300.829 163.337,294.299 165.023,283.544 C 159.997,287.745 151.184,295.77 140.551,291.375 C 139.162,292.053 138.893,293.85 136.962,293.986 C 138.051,291.92 139.153,289.867 140.878,288.438 C 155.318,291.755 163.933,283.476 168.612,274.081 C 168.743,280.872 167.358,285.618 166.002,290.724 C 162.314,304.606 156.296,318.856 143.162,323.351 C 135.113,326.106 126.326,325.205 118.364,326.615 C 111.76,327.785 103.839,329.069 98.461,332.489 C 92.771,336.106 88.108,344.506 87.367,351.739 C 85.773,367.298 95.526,376.726 110.207,376.538 C 107.007,373.53 102.608,371.911 99.439,368.38 C 94.718,363.118 92.773,353.789 96.176,346.519 C 99.85,338.67 108.987,333.597 119.016,332.49 C 117.548,340.753 106.454,345.321 103.354,351.415 C 102.447,353.195 101.119,359.095 104.007,360.877 C 119.746,340.149 155.209,338.928 165.675,313.564 C 167.451,309.26 167.852,304.252 169.917,299.209 C 169.805,304.913 170.085,308.953 169.591,313.892 C 168.507,324.733 164.182,340.413 156.213,344.888 C 150.88,347.883 134.007,346.902 133.699,353.699 C 133.539,357.223 136.645,356.769 138.92,357.941 C 136.012,362.102 131.232,364.393 127.5,367.729 C 150.591,362.324 164.132,347.369 173.507,328.248 C 174.4,347.009 173.703,365.602 167.307,377.519 C 165.91,380.123 163.341,382.082 162.413,384.698 C 160.082,391.27 164.669,395.29 171.549,393.508 C 171.657,397.177 172.776,399.126 174.159,401.339 C 174.967,402.63 176.118,404.402 177.422,404.928 C 179.861,403.016 182.265,398.242 182.969,393.508 C 185.988,394.178 188.99,393.636 191.126,392.529 C 192.767,390.463 192.669,385.397 191.453,383.067 C 189.462,379.257 186.956,376.867 185.253,373.604 C 179.654,362.875 180.615,346.29 180.685,330.208 C 190.716,349.325 203.225,365.966 228.324,370.015 C 224.506,365.785 218.094,364.15 215.598,358.595 C 217.319,358.468 219.718,359.018 220.493,357.944 C 220.897,355.377 219.352,353.798 217.883,352.723 C 209.862,346.854 198.474,347.447 192.759,339.996 C 185.398,330.403 182.103,313.855 182.97,297.905 C 185.778,317.928 195.035,329.247 210.052,337.06 C 220.981,342.746 232.497,347.993 241.375,355.331 C 244.314,357.761 246.593,360.935 249.858,362.837 C 253.084,362.089 253.177,358.533 252.143,355.658 C 249.497,348.307 236.576,343.684 236.807,335.101 C 248.85,337.812 260.847,344.287 261.605,357.289 C 262.403,370.985 253.462,375.032 245.617,380.129 C 258.209,379.228 265.328,372.842 267.152,361.857 C 268.467,353.934 266.236,345.774 263.236,341.302 C 251.383,323.626 212.253,331.906 198.958,316.503 C 191.989,304.982 184.86,291.882 185.254,274.085 C 188.714,284.221 195.16,291.37 209.073,291.052 C 212.222,286.237 218.122,291.302 219.188,293.99 C 216.566,294.108 216.192,291.981 213.967,291.705 C 205.384,295.807 194.643,290.628 189.168,286.484 C 190.42,294.154 198.683,300.34 207.44,299.211 C 210.221,298.851 212.824,297.548 215.923,297.577 C 219.672,297.616 222.772,298.757 226.364,298.884 C 226.349,296.487 224.135,294.607 223.101,292.032 C 222.676,290.975 222.841,289.43 222.122,288.442 C 219.601,284.975 214.438,286.433 208.418,285.831 C 194.473,284.437 188.428,275.505 188.841,259.402 C 189.054,251.112 190.251,238.168 198.303,243.415 C 198.553,246.337 199.51,249.551 199.935,252.877 C 200.706,258.901 200.251,265.835 204.503,268.539 C 205.763,267.841 205.358,265.478 206.786,264.95 C 208.528,264.556 208.737,266.922 210.05,265.928 C 211.901,260.274 212.575,253.445 214.618,247.983 C 216.354,247.063 217.375,248.656 219.512,248.31 C 216.186,235.535 206.06,229.156 205.156,214.375 C 204.901,210.21 205.282,205.654 205.808,200.67 C 207.666,183.092 211.565,162.886 210.703,143.897 C 210.489,139.188 210.443,132.312 209.072,128.234 C 206.521,120.65 198.058,116.578 189.168,121.056 C 192.747,114.795 194.924,105.936 194.389,96.584 C 197.811,102.152 195.566,111.364 193.737,117.14 C 194.81,117.127 195.362,116.59 196.674,116.814 C 195.128,111.49 197.428,107.761 200.59,105.394 C 198.885,94.235 206.341,87.95 205.484,77.659 C 206.772,75.573 207.555,71.25 209.726,71.133 C 207.912,76.027 203.496,87.606 212.01,88.426 C 207.888,77.558 217.892,64.134 212.989,51.555 C 215.57,53.216 215.756,57.272 219.842,57.429 C 214.489,49.729 213.981,37.187 205.811,32.304 C 199.206,32.122 195.393,23.449 189.17,27.083 C 189.316,28.679 192.289,27.445 192.433,29.041 C 189.283,29.622 185.517,32.295 181.993,31.651 C 179.511,31.198 178.636,28.965 176.772,27.735 C 181.438,21.554 196.461,27.258 200.917,20.557 C 198.443,20.99 195.527,19.99 192.758,20.556 z M 291.297,25.125 C 280.905,25.582 270.016,25.16 260.952,25.777 C 245.611,26.823 238.09,37.719 242.353,54.164 C 243.097,53.716 243.579,55.005 243.659,54.164 C 241.381,50.053 243.107,41.446 246.595,41.113 C 245.789,42.671 245.449,44.074 245.29,45.681 C 243.694,61.839 255.107,65.678 265.193,70.805 C 263.986,70.577 263.752,71.321 263.888,72.436 C 262.786,107.008 245.074,124.971 211.682,127.253 C 211.974,128.482 211.963,130.016 212.334,131.168 C 244.527,130.653 264.702,110.957 267.15,80.267 C 267.588,74.77 266.744,70.45 265.519,65.91 C 255.116,70.279 250.666,53.153 261.603,53.511 C 254.707,41.042 279.988,41.308 272.697,53.511 C 283.839,51.173 282.095,67.932 272.697,66.237 C 274.37,113.155 251.956,135.987 213.966,143.241 C 212.597,153.011 212.147,164.877 212.66,176.197 C 212.944,182.468 214.369,188.644 214.944,194.469 C 216.274,207.938 216.049,220.491 223.101,228.728 C 225.385,229.603 228.25,228.812 229.626,227.75 C 231.39,223.462 231.684,218.222 231.91,213.067 C 232.549,198.545 234.018,186.232 236.805,175.217 C 237.454,172.649 237.592,169.731 239.089,167.713 C 237.115,209.058 245.459,240.087 261.929,262.989 C 266.633,266.443 271.121,271.851 279.222,270.819 C 270.813,234.31 265.884,194.319 264.866,150.419 C 263.495,150.881 261.94,151.888 259.971,151.725 C 256.342,151.422 254.26,146.806 252.467,147.157 C 255.74,181.515 259.609,217.019 265.519,247.654 C 261.503,241.424 261.234,233.097 259.646,225.139 C 255.553,204.647 255.034,180.278 250.835,159.555 C 246.859,162.537 239.563,159.708 237.131,156.292 C 237.531,163.653 234.255,167.338 227.016,167.06 C 224.763,183.482 228.15,201.283 227.669,216.982 C 224.648,202.047 222.139,181.963 225.711,166.082 C 221.575,161.625 216.059,156.81 217.554,147.81 C 221.685,153.832 221.728,165.554 232.564,163.798 C 234.416,161.521 235.228,158.97 235.174,155.314 C 235.107,150.832 232.033,145.443 235.174,143.242 C 237.904,149.736 238.278,160.027 248.225,158.251 C 250.597,155.062 250.825,148.661 249.856,143.568 C 249.338,140.842 246.981,137.609 249.856,136.715 C 253.744,141.131 255.028,151.137 263.887,148.462 C 266.506,143.091 263.833,138.508 261.929,135.084 C 260.795,133.044 258.926,130.881 259.646,129.211 C 264.303,130.547 266.08,137.56 274.002,136.715 C 276.506,135.191 275.308,131.149 274.002,128.885 C 271.833,125.126 266.252,122.406 267.476,119.422 C 271.109,119.867 275.331,124.121 280.528,123.011 C 284.473,116.476 274.958,113.803 272.371,109.633 C 275.245,108.602 282.285,113.342 285.423,109.307 C 286.243,102.167 277.421,102.966 276.287,98.866 C 280.12,98.022 284.917,98.142 287.054,95.603 C 288.101,89.336 280.958,91.257 277.592,89.404 C 279.497,85.541 288.269,88.269 287.054,82.878 C 286.294,79.504 279.698,81.868 278.571,79.289 C 283.842,76.348 287.841,80.742 289.992,83.857 C 294.349,90.17 299.629,94.276 305.98,99.845 C 310.67,103.96 315.899,108.553 321.315,109.96 C 326.102,111.204 334.6,111.059 338.609,107.023 C 322.611,94.308 305.657,80.808 292.927,65.911 C 307.519,71.963 337.139,74.765 338.935,56.448 C 318.49,53.945 299.294,50.191 283.139,43.397 C 303.374,42.961 322.551,39.747 323.273,20.883 C 314.798,22.217 303.528,24.586 291.297,25.125 z M 197.326,25.125 C 198.755,28.481 203.344,28.678 206.462,30.345 C 207.887,31.726 211.327,35.685 212.335,35.24 C 211.175,28.245 204.438,20.111 197.326,25.125 z M 194.063,59.059 C 196.748,56.957 199.925,51.892 198.958,46.986 C 198.079,42.532 191.775,37.826 186.885,35.892 C 178.308,32.499 166.886,33.488 165.35,24.145 C 161.758,21.433 160.676,26.563 159.151,28.061 C 152.371,28.832 145.766,34.472 149.036,42.091 C 150.484,33.632 164.428,33.352 169.918,38.502 C 177.441,33.079 191.286,37.394 194.064,44.701 C 194.841,46.743 195.465,51.312 194.064,54.163 C 189.765,62.909 173.73,54.394 165.351,58.405 C 172.698,61.133 186.829,64.722 194.063,59.059 z M 64.525,46.659 C 48.382,52.921 30.384,57.328 11.993,61.343 C 14.267,80.738 42.492,73.796 55.716,68.847 C 43.445,84.964 26.812,96.717 13.625,111.917 C 27.626,118.651 37.6,109.633 45.927,101.802 C 51.401,96.655 56.737,90.911 59.958,86.14 C 61.079,84.48 60.999,83.273 62.568,82.224 C 64.35,81.035 69.017,79.524 70.725,82.224 C 68.122,83.982 62.639,82.498 62.242,85.813 C 62.047,87.438 63.893,89.115 65.831,89.728 C 67.846,90.365 71.34,88.931 72.031,91.359 C 69.042,93.878 61.732,92.513 62.242,97.232 C 62.663,101.131 69.608,100.432 73.989,101.474 C 71.449,104.366 62.974,106.13 64.526,111.263 C 66.246,116.949 76.341,109.529 77.904,111.916 C 75.16,116.242 68.838,116.989 68.767,123.988 C 73.595,129.14 79.651,120.572 83.45,121.704 C 83.25,124.27 80.387,126.612 78.556,129.208 C 76.802,131.698 74.268,134.757 76.598,138.344 C 80.292,139.294 83.006,138.03 85.081,136.387 C 87.507,134.466 88.639,130.869 91.28,130.514 C 92.059,133.541 87.037,138.74 86.385,143.892 C 85.896,147.763 87.274,150.431 89.974,150.744 C 97.214,151.584 97.82,141.828 101.394,138.018 C 104.224,139.411 101.704,144.372 101.394,148.459 C 100.807,156.195 104.343,163.672 110.856,157.921 C 114.103,155.055 114.453,147.962 116.403,144.217 C 120.038,146.272 116.279,152.276 116.729,157.269 C 116.982,160.072 118.048,161.961 119.013,164.121 C 130.013,167.285 130.341,154.433 134.022,148.133 C 136.031,156.282 130.155,162.067 126.517,166.732 C 130.534,181.07 128.829,203.144 126.191,217.633 C 124.772,202.153 128.801,179.595 124.886,167.058 C 117.374,169.013 115.053,163.567 114.445,157.596 C 112.832,157.916 111.806,160.487 109.224,161.511 C 106.604,162.551 103.65,162.495 101.067,160.859 C 97.398,185.756 97.265,216.758 92.584,240.148 C 91.916,243.482 91.995,247.409 89.32,249.61 C 93.991,228.835 94.315,204.915 96.499,182.068 C 97.587,170.685 100.613,159.625 98.783,147.807 C 96.434,151.6 91.404,155.534 86.384,152.049 C 87.917,195.903 83.351,236.155 76.922,273.102 C 82.79,272.951 87.703,270.531 90.952,267.228 C 109.642,248.237 115.066,206.829 114.119,169.343 C 117.283,177.808 118.614,188.688 119.665,199.688 C 120.696,210.475 121.191,221.8 126.191,229.054 C 133.644,232.243 136.227,222.071 136.959,216.002 C 137.792,209.099 138.172,200.106 138.917,191.205 C 140.332,174.285 139.76,156.941 137.286,142.913 C 96.45,137.525 75.188,112.562 75.617,65.909 C 66.319,68.62 64.309,51.604 74.638,53.836 C 74.159,52.03 73.738,50.169 73.333,48.29 C 75.56,40.53 90.084,44.679 85.406,53.836 C 95.822,52.894 94.274,69.32 82.796,65.909 C 79.715,84.413 85.457,102.992 95.195,114.2 C 104.922,125.395 119,131.343 138.265,131.167 C 138.66,130.039 139.148,129.004 138.918,127.252 C 104.717,125.669 86.739,107.864 84.753,74.066 C 85.239,72.492 83.255,73.389 83.448,72.108 C 88.553,68.786 96.687,67.194 100.089,61.667 C 103.165,56.67 103.165,48.403 101.394,42.416 C 105.667,44.223 104.8,51.647 105.309,55.467 C 108.899,46.637 104.602,36.204 99.763,31.648 C 90.957,27.486 79.143,27.205 67.134,27.732 C 51.281,28.429 36.914,27.555 24.39,24.795 C 25.335,44.52 45.085,45.435 64.525,46.659 z M 186.558,27.082 C 184.745,27.118 184.136,28.358 182.643,28.713 C 181.382,28.67 181.356,27.39 180.359,27.082 C 179.594,31.188 188.058,30.097 186.558,27.082 z M 189.168,47.964 C 190.332,48.432 191.869,48.526 193.084,48.943 C 192.662,44.035 190.413,40.954 186.231,39.807 C 187.404,42.332 188.935,44.5 189.168,47.964 z M 262.91,54.816 C 259.937,54.456 258.119,55.245 256.71,56.447 C 253.945,63.596 261.771,66.252 266.173,64.279 C 272.276,85.092 264.135,107.057 252.469,118.116 C 242.5,127.565 228.534,131.936 212.661,134.104 C 212.814,136.018 213.298,137.6 213.64,139.325 C 253.1,135.355 273.917,109.374 270.741,64.931 C 281.405,67.973 282.162,51.653 270.741,54.816 C 271.719,52.578 273.16,49.824 271.72,46.985 C 265.351,42.341 258.676,49.283 262.91,54.816 z M 83.124,55.143 C 89.011,49.92 80.399,42.095 75.293,47.639 C 74.228,50.286 75.761,53.568 75.945,54.817 C 65.407,53.875 69.035,68.351 77.576,64.606 C 77.322,69.309 77.106,74.079 77.576,78.636 C 79.226,94.615 83.924,109.596 93.238,120.074 C 102.711,130.732 118.614,139.662 137.613,138.999 C 137.622,137.032 137.715,134.982 137.287,133.452 C 97.844,132.453 76.309,104.728 81.165,63.952 C 91.7,69.729 94.819,52.579 83.124,55.143 z M 150.992,52.533 C 162.045,49.491 178.417,49.028 190.8,50.249 C 178.979,46.697 160.139,46.397 150.992,52.533 z M 187.863,56.122 C 189.881,55.529 191.982,55.021 192.105,52.533 C 188.831,51.869 188.318,53.967 187.863,56.122 z M 238.764,96.582 C 237.466,96.867 234.067,96.423 232.891,97.887 C 231.71,99.359 232.703,101.491 233.87,102.782 C 247.351,101.996 255.367,91.159 256.384,78.31 C 256.626,75.243 256.218,71.581 254.427,69.5 C 255.773,83.55 249.334,94.259 238.764,96.582 z M 99.112,96.255 C 103.862,99.208 108.572,105.38 116.405,103.107 C 119.343,96.394 112.08,98.28 107.595,97.233 C 103.637,96.31 98.99,91.32 96.828,86.792 C 94.561,82.047 93.917,77.487 93.565,71.457 C 90.61,80.812 95.2,90.561 99.112,96.255 z M 327.188,161.84 C 319.213,153.938 312.267,143.638 305.653,131.495 C 301.457,123.789 295.737,115.247 291.297,107.023 C 288.989,102.749 286.866,96.222 282.487,100.824 C 288.919,103.657 289.847,113.738 280.529,113.222 C 281.795,115.994 284.804,118.349 283.792,122.358 C 293.62,134.912 304.739,150.71 316.095,162.817 C 323.184,170.377 329.504,179.253 343.178,178.153 C 341.607,174.224 338.725,170.841 336.325,167.386 C 318.69,141.987 303.934,113.348 288.686,85.814 C 287.979,87.282 286.465,87.943 284.771,88.424 C 287.189,90.069 290.663,93.264 288.36,97.56 C 300.964,119.977 314.591,143.112 328.494,163.144 C 328.495,162.817 328.229,162.756 328.167,162.492 C 327.782,162.333 327.428,162.145 327.188,161.84 z M 11.34,182.722 C 23.289,181.878 30.148,172.441 36.465,165.102 C 44.621,155.625 53.089,145.798 58.979,134.757 C 62.919,132.371 64.674,127.266 66.484,122.684 C 67.591,119.88 69.398,117.291 69.094,115.505 C 59.841,116.146 61.162,106.168 67.136,103.106 C 65.798,102.704 64.862,101.9 63.22,101.801 C 49.54,123.469 40.113,151.129 22.76,168.038 C 37.033,146.745 49.549,123.695 60.936,99.517 C 60.606,98.433 59.954,97.671 59.957,96.254 C 60.952,94.095 62.558,92.546 64.525,91.359 C 62.627,90.865 61.528,89.571 59.957,88.749 C 45.169,121.492 28.134,151.985 11.34,182.722 z M 279.551,143.894 C 285.915,165.993 292.887,188.472 300.76,209.151 C 303.945,217.518 308.739,225.377 309.896,234.602 C 302.185,220.407 296.612,204.591 290.97,188.596 C 285.27,172.429 280.443,155.449 276.614,137.694 C 273.747,139.336 268.9,138.62 266.174,137.368 C 266.178,149.518 269.796,160.278 273.679,170.323 C 283.067,194.615 290.492,221.527 302.392,243.087 C 308.484,254.124 315.599,264.843 330.126,265.275 C 321.602,244.049 309.978,221.03 305.002,195.122 C 303.3,186.258 302.273,176.985 300.108,168.04 C 298.894,163.03 296.691,157.614 294.886,152.378 C 291.152,141.542 286.93,132.482 280.856,124.969 C 279.026,126.615 275.33,124.681 273.678,125.296 C 277.809,129.575 277.633,137.234 279.551,143.894 z M 69.42,127.906 C 69.401,127.707 69.371,127.519 69.094,127.579 C 62.519,137.721 57.851,147.641 54.738,160.534 C 50.513,178.03 49.118,201.21 43.97,218.614 C 38.902,235.747 30.733,253.362 25.698,269.842 C 28.252,269.568 30.192,268.679 32.877,268.537 C 42.63,264.072 47.752,254.969 52.128,245.369 C 65.393,216.278 75.788,182.279 85.083,150.093 C 83.486,147.51 84.116,142.461 84.756,139.325 C 81.855,140.989 78.443,141.641 74.641,140.304 C 68.499,170.971 59.743,200.55 49.517,227.097 C 48.063,230.871 47.376,235.264 44.296,238.192 C 52.085,213.459 60.694,187.818 67.463,162.492 C 68.656,158.029 69.521,153.534 70.726,149.115 C 72.015,144.388 72.41,140.015 73.336,135.084 C 73.907,132.046 76.107,129.007 75.946,127.58 C 73.792,127.949 71.686,128.518 69.42,127.906 z M 213.967,261.684 C 221.734,273.502 232.83,286.131 240.722,298.881 C 242.467,301.698 245.197,304.961 243.006,306.712 C 239.033,307.307 234.989,307.831 230.608,308.017 C 229.611,311.372 225.437,311.548 223.755,314.217 C 227.294,318.554 230.781,312.529 234.196,311.933 C 236.434,311.541 239.232,312.565 241.701,312.259 C 244.241,311.945 246.054,311.059 248.553,310.628 C 249.395,312.941 252.844,312.645 255.732,312.91 C 258.649,317.064 266.284,316.498 267.478,322.374 C 272.827,322.044 271.893,329.684 276.614,328.899 C 277.957,327.308 275.183,324.145 276.614,321.393 C 275.76,319.255 273.223,319.486 271.394,318.457 C 270.179,317.774 269.568,316.399 268.456,315.52 C 266.687,314.122 263.953,312.795 261.931,311.604 C 259.847,310.378 256.813,309.529 256.71,307.037 C 263.448,312.211 273.66,306.24 282.161,305.732 C 281.973,310.146 287.588,310.04 287.707,306.057 C 290.126,306.793 291.262,308.811 294.886,308.341 C 295.705,311.211 299.168,316.565 302.391,312.908 C 301.541,309.734 297.897,309.355 296.844,306.383 C 297.488,305.829 297.72,304.867 297.823,303.774 C 290.804,305.646 288.072,299.842 282.488,299.858 C 275.759,299.878 268.744,307.818 261.279,302.469 C 262.889,300.706 264.54,298.985 264.868,295.942 C 266.159,295.82 267.237,295.484 268.132,294.963 C 268.829,293.21 267.456,292.65 267.153,291.047 C 268.683,290.621 269.733,289.713 271.395,289.416 C 272.744,291.598 279.255,291.239 279.225,288.111 C 274.744,285.967 266.513,285.188 263.89,289.09 C 262.355,291.371 262.623,295.154 260.953,297.571 C 258.41,301.256 254.575,301.75 248.88,301.161 C 239.503,284.872 229.088,269.618 219.514,253.524 C 215.03,253.612 214.231,257.38 213.967,261.684 z M 139.246,263.316 C 137.469,263.262 135.602,261.863 134.351,262.337 C 134.152,262.356 133.965,262.386 134.025,262.663 C 127.668,270.509 118.328,282.577 111.511,291.377 C 108.843,294.821 106.782,298.549 104.333,301.491 C 98.198,308.862 94.298,296 92.26,290.725 C 88.44,288.017 82.149,287.784 77.577,285.829 C 75.917,287.867 72.178,287.826 71.704,291.05 C 73.234,293.356 75.775,290.778 77.577,290.399 C 79.348,292.621 83.723,291.035 86.06,291.378 C 86.918,292.041 86.46,294.024 87.039,294.967 C 92.148,295.296 90.471,302.411 93.892,304.429 C 90.029,305.273 86.934,303.671 83.777,302.798 C 80.623,301.926 76.402,300.055 73.662,300.188 C 69.965,300.367 67.224,304.494 63.22,305.41 C 61.924,305.705 60.83,304.903 59.305,306.061 C 58.498,307.107 60.149,307.874 59.631,309.65 C 56.305,311.121 53.23,317.617 60.936,316.503 C 62.968,315.055 63.124,311.731 64.852,309.978 C 68.087,309.515 69.809,307.54 73.009,307.041 C 74.044,310.72 77.631,308.893 78.882,306.715 C 82.807,308.664 89.284,308.06 93.892,309.326 C 89.55,317.165 80.957,320.752 74.967,326.944 C 78.942,329.361 75.802,334.005 75.619,337.059 C 80.729,337.874 80.061,330.228 81.818,326.618 C 87.701,325.648 90.776,321.872 93.238,317.482 C 97.063,317.065 99.575,315.336 100.742,312.261 C 104.866,312.081 111.238,309.786 113.794,312.912 C 115.765,313.034 117.4,312.821 119.015,312.588 C 120.458,313.988 125.226,317.101 127.172,313.893 C 127.201,312.34 125.237,312.782 124.235,312.261 C 123.21,310.894 122.548,309.16 121.625,307.692 C 118.457,306.646 109.908,310.166 108.899,306.387 C 108.538,305.033 111.364,301.828 112.162,300.841 C 121.522,289.254 133.294,277.272 140.549,265.927 C 139.928,265.245 139.499,264.368 139.246,263.316 z M 274.004,284.198 C 274.562,284.728 275.191,285.186 276.288,285.177 C 276.792,284.052 279.392,282.274 277.919,281.261 C 276.774,282.402 274.117,282.028 274.004,284.198 z M 74.314,286.156 C 74.878,285.634 75.502,285.169 75.293,283.873 C 73.665,283.216 71.98,282.617 69.746,282.566 C 70.347,284.686 71.948,285.804 74.314,286.156 z M 299.128,306.712 C 299.494,306.781 299.636,307.073 299.78,307.365 C 302.061,306.71 304.325,306.035 305.327,304.101 C 303.229,301.739 299.043,303.249 299.128,306.712 z M 227.996,308.67 C 228.448,308.142 229.151,307.866 228.975,306.712 C 228.721,306.64 228.596,306.44 228.648,306.059 C 224.273,304.214 224.127,308.527 227.996,308.67 z M 124.889,308.67 C 126.697,308.629 127.831,307.913 128.152,306.385 C 126.525,305.282 123.333,306.591 124.889,308.67 z M 52.779,309.975 C 55.12,310.864 58.86,309.955 57.347,307.038 C 54.923,306.401 53.078,307.585 52.779,309.975 z M 278.571,324.658 C 279.998,325.082 281.615,325.312 283.466,325.311 C 283.916,322.255 278.18,320.279 278.571,324.658 z M 70.072,333.794 C 71.885,332.995 73.502,332.003 75.293,331.185 C 75.507,329.99 74.587,329.932 74.64,328.9 C 71.593,329.006 69.759,330.327 70.072,333.794 z M 274.656,34.26 C 275.934,32.602 278.046,31.777 279.223,30.018 C 276.867,29.547 274.111,29.475 271.718,29.039 C 270.849,29.039 269.979,29.039 269.108,29.039 C 268.053,28.664 269.985,28.67 270.414,28.713 C 275.01,28.903 280.383,28.315 284.444,29.039 C 283.551,30.757 280.884,30.7 280.203,32.628 C 292.064,33.93 305.664,31.341 314.789,27.733 C 316.792,27.176 314.12,28.585 313.158,29.038 C 303.823,33.443 289.376,34.596 274.656,34.26 z M 288.36,53.185 C 287.805,53.112 287.552,53.553 288.36,53.511 C 300.406,57.906 315.731,63.817 332.083,60.69 C 315.563,61.3 301.696,56.807 288.36,53.185 z M 324.252,102.781 C 312.583,95.091 302.314,84.26 292.603,75.699 C 301.43,86.232 312.06,96.701 324.252,102.781 z M 77.251,30.998 C 74.583,32.028 70.42,31.563 68.115,32.956 C 69.086,34.486 70.904,35.17 72.683,35.893 C 58.517,38.387 41.591,36.136 31.244,31.651 C 40.828,33.945 54.309,36.464 67.136,35.567 C 66.333,33.76 64.071,33.412 62.568,32.304 C 66.909,31.49 72.98,30.807 77.251,30.998 z M 60.937,56.448 C 60.9,56.051 60.84,55.676 60.284,55.796 C 47.091,60.439 33.467,64.653 16.561,65.585 C 34.839,67.281 47.676,60.843 60.937,56.448 z M 56.042,78.636 C 47.585,89.865 37.449,99.415 25.697,107.349 C 27.108,105.269 29.489,103.9 31.571,102.129 C 37.563,97.026 43.983,91.008 49.191,84.836 C 52.473,83.768 53.086,80.03 56.042,78.636 z"/>
    <path id="Gefieder" style="fill-rule: evenodd;" d="M 283.792,83.204 C 283.354,84.596 279.865,84.373 278.571,83.856 C 278.81,81.734 282.542,82.623 283.792,83.204 z M 276.94,94.297 C 279.01,94.084 281.938,94.727 283.465,93.971 C 281.605,93.735 277.797,91.625 276.94,94.297 z M 274.982,105.718 C 277.42,106.117 279.448,108.267 282.161,107.349 C 280.473,105.556 277.246,105.304 274.982,104.086 C 274.982,104.63 274.982,105.174 274.982,105.718 z M 270.414,116.485 C 273.557,117.15 275.397,119.115 278.571,119.748 C 276.559,117.41 273.291,116.328 270.414,114.854 C 270.414,115.398 270.414,115.942 270.414,116.485 z M 263.889,126.927 C 266.791,128.051 268.574,132.028 271.719,131.821 C 269.406,129.023 267.162,126.155 263.889,124.317 C 263.118,125.082 263.941,125.919 263.889,126.927 z M 260.625,144.22 C 258.982,140.208 257.851,135.684 254.427,133.452 C 255.895,137.64 257.362,141.828 260.625,144.22 z M 245.29,153.682 C 245.013,149.826 243.643,144.238 241.374,141.283 C 241.377,145.468 243.451,150.26 245.29,153.682 z M 228.976,158.576 C 228.693,154.074 227.274,150.707 226.692,146.504 C 226.148,146.504 225.604,146.504 225.061,146.504 C 225.86,151.033 226.278,155.944 228.976,158.576 z M 70.399,86.467 C 69.236,85.455 65.314,87.202 65.178,85.162 C 66.802,84.89 70.346,84.227 70.399,86.467 z M 65.831,97.234 C 68.218,97.011 71.105,97.288 72.357,95.929 C 70.43,94.182 66.955,96.053 65.831,97.234 z M 67.462,109.959 C 70.537,109.227 74.698,109.581 75.294,106.37 C 72.787,107.67 68.914,107.604 67.462,109.959 z M 71.704,121.706 C 74.918,121.952 78.913,120.237 79.861,117.138 C 76.692,118.211 74.213,119.974 71.704,121.706 z M 79.208,134.104 C 82.354,133.517 86.7,129.666 86.713,125.947 C 83.568,128.022 81.516,131.192 79.208,134.104 z M 90.629,145.852 C 92.779,145.493 93.138,142.6 93.892,140.956 C 94.792,138.994 95.834,136.989 96.502,135.083 C 96.085,135.065 96.05,134.665 95.523,134.757 C 93.676,138.24 91.805,141.698 90.629,145.852 z M 106.617,154.988 C 107.632,150.984 109.919,146.565 109.88,142.589 C 109.553,142.589 109.227,142.589 108.901,142.589 C 108.021,146.186 106.019,152.082 106.617,154.988 z M 123.258,159.229 C 124.961,155.929 125.938,151.903 125.868,146.83 C 125.541,146.83 125.215,146.83 124.889,146.83 C 124.07,150.472 122.768,155.366 123.258,159.229 z M 176.443,233.949 C 177.258,238.939 177.846,245.39 177.096,250.917 C 175.47,246.513 175.452,239.096 176.443,233.949 z M 176.116,289.093 C 174.162,272.665 172.518,255.929 170.243,239.822 C 169.685,252.133 171.334,262.961 173.18,275.061 C 174.611,284.439 175.528,294.383 176.117,304.101 C 177.228,322.427 176.147,341.386 177.096,359.895 C 177.202,361.963 177.345,364.207 178.401,366.422 C 174.741,322.305 181.943,279.705 184.274,239.495 C 182.724,257.198 182.302,276.027 176.116,289.093 z M 196.673,83.856 C 197.536,83.872 196.362,88.728 197.652,89.403 C 198.228,89.496 198.663,87.866 198.958,88.751 C 198.659,90.41 197.815,91.523 197.652,93.319 C 194.947,91.722 196.57,87.084 196.673,83.856 z M 189.168,110.612 C 189.338,107.949 191.368,105.421 191.126,103.434 C 190.214,103.936 190.234,105.37 189.168,105.718 C 188.27,104.659 189.434,101.537 188.516,100.498 C 187.395,102.999 185.948,109.269 189.168,110.612 z M 172.854,136.063 C 173.182,134.107 174.273,132.915 173.833,130.19 C 172.169,129.831 174.192,133.159 172.528,132.8 C 168.808,129.677 171.752,119.58 170.57,115.507 C 170.164,122.196 167.734,132.686 172.854,136.063 z M 167.633,127.253 C 167.445,125.067 165.201,125.695 164.044,124.643 C 161.941,122.73 162.42,120.02 161.76,116.485 C 160.72,121.927 161.819,127.623 167.633,127.253 z M 181.663,133.126 C 181.736,132.871 181.936,132.746 182.315,132.799 C 182.572,131.569 182.886,130.035 182.315,128.884 C 180.943,128.381 182.264,130.572 181.337,130.515 C 178.429,128.963 178.527,124.406 177.421,121.052 C 177.782,126.132 177.157,132.195 181.663,133.126 z M 174.812,165.429 C 180.078,164.812 180.676,153.787 180.685,147.809 C 179.138,151.749 179.34,164.073 174.159,163.797 C 169.259,163.536 169.231,152.139 167.96,147.809 C 168.352,154.688 168.634,166.152 174.812,165.429 z M 185.905,174.239 C 186.711,180.679 184.062,190.134 186.884,195.774 C 191.858,196.665 194.113,190.441 195.694,186.965 C 197.551,182.879 198.949,178.901 199.61,175.544 C 199.889,184.416 195.599,191.545 191.454,197.08 C 187.754,199.205 185.253,196.371 183.948,194.143 C 181.185,197.375 180.342,203.134 175.465,203.279 C 169.944,203.444 168.733,196.313 166.655,191.533 C 164.331,193.917 165.485,198.281 161.108,198.385 C 154.309,198.548 151.783,182.948 150.014,177.503 C 151.788,180.688 152.747,184.194 154.582,188.271 C 155.779,190.929 158.131,196.819 161.108,196.754 C 166.729,196.632 164.796,180.769 164.697,175.219 C 166.521,185.358 168.294,195.55 174.485,201.322 C 183.887,197.889 183.561,184.728 185.905,174.239 z M 183.947,204.583 C 185.819,208.955 180.926,218.204 186.231,220.571 C 192.46,218.753 192.575,210.818 195.041,205.235 C 195.124,213.273 191.49,225.225 182.315,221.876 C 181.144,223.858 180.064,225.934 178.4,227.423 C 176.314,227.802 175.433,227.481 173.179,227.423 C 171.572,225.659 170.291,223.569 169.264,221.225 C 163.03,228.581 157.65,214.711 156.865,207.846 C 159.165,212.103 159.885,221.894 165.348,221.225 C 170.848,220.55 166.511,210.865 167.306,205.236 C 168.885,211.229 169.452,225.911 176.768,225.139 C 182.757,224.508 181.949,209.583 183.947,204.583 z M 183.295,111.917 C 183.011,117.751 183.472,125.362 187.537,127.905 C 189.382,128.576 189.157,126.1 190.147,126.926 C 190.964,127.982 189.824,129.26 189.168,129.862 C 182.854,128.417 182.533,119.365 183.295,111.917 z M 150.666,143.567 C 152.403,148.683 153.578,156.815 155.887,161.186 C 156.395,162.148 158.026,164.623 159.476,164.449 C 162.827,164.049 163.83,152.681 164.044,148.461 C 164.108,147.186 163.997,145.579 164.044,144.219 C 166.364,151.386 165.997,163.143 170.57,168.038 C 172.333,169.925 174.42,170.359 176.769,168.69 C 182.318,164.748 183.662,153.523 184.601,144.545 C 185.625,148.922 183.856,160.672 187.864,164.122 C 194.552,161.999 194.889,153.528 196.021,145.851 C 197.485,149.824 196.146,156.601 198.958,159.228 C 204.3,156.63 205.031,149.422 206.463,142.913 C 207.146,146.379 204.593,162.424 199.284,161.512 C 197.055,161.129 197.667,157.581 195.694,156.291 C 194.802,163.022 187.249,172.082 183.948,161.512 C 180.352,165.203 180.355,172.492 172.528,171.954 C 168.255,168.939 166.916,162.992 164.371,158.249 C 163.02,160.705 162.165,163.657 161.108,166.406 C 155.438,167.675 154.548,161.77 152.95,157.922 C 151.086,158.45 150.804,160.562 149.361,161.511 C 143.246,159.033 143.722,149.965 143.162,141.934 C 144.657,148.705 144.461,157.166 149.687,160.205 C 152.896,156.957 150.708,148.572 150.666,143.567 z M 168.612,183.701 C 171.181,187.331 171.395,193.318 174.812,196.1 C 179.216,194.412 179.429,188.535 181.011,184.027 C 181.009,189.51 179.969,198.366 173.507,197.405 C 171.143,193.569 169.709,188.803 168.612,183.701 z M 181.663,207.194 C 181.469,205.582 182.62,207.533 181.663,207.52 C 181.165,212.778 180.19,220.393 176.116,220.898 C 171.54,221.464 171.097,213.004 169.917,208.499 C 171.935,211.919 172.198,217.093 175.79,218.94 C 178.997,216.273 179.898,211.301 181.663,207.194 z"/>
    <path id="Auge" style="fill: rgb(255, 255, 255); fill-rule: evenodd;" d="M 180.358,27.082 C 181.355,27.39 181.381,28.67 182.642,28.713 C 184.135,28.358 184.745,27.118 186.557,27.082 C 188.058,30.097 179.594,31.188 180.358,27.082 z"/>
  </g>
</svg>