<?xml version="1.0" encoding="UTF-8" standalone="no"?>
<!-- Created with Sodipodi ("http://www.sodipodi.com/") -->

<svg
   xmlns:dc="http://purl.org/dc/elements/1.1/"
   xmlns:cc="http://creativecommons.org/ns#"
   xmlns:rdf="http://www.w3.org/1999/02/22-rdf-syntax-ns#"
   xmlns:svg="http://www.w3.org/2000/svg"
   xmlns="http://www.w3.org/2000/svg"
   xmlns:sodipodi="http://sodipodi.sourceforge.net/DTD/sodipodi-0.dtd"
   xmlns:inkscape="http://www.inkscape.org/namespaces/inkscape"
   height="500"
   width="750">
  <rect
     height="201.14197"
     id="rect808"
     style="fill:#ffffff;fill-opacity:1;fill-rule:evenodd;stroke-width:1pt"
     width="750"
     x="0"
     y="227.58875" />
  <rect
     height="250.62852"
     id="rect200"
     style="fill:#081873;fill-rule:evenodd;stroke-width:1pt"
     width="750"
     x="0"
     y="0" />
  <rect
     height="123.17834"
     id="rect648"
     style="fill:#081873;fill-rule:evenodd;stroke-width:1pt"
     width="750"
     x="0"
     y="376.82166" />
  <rect
     height="38.720173"
     id="rect728"
     style="fill:#de3929;fill-rule:evenodd;stroke-width:1pt"
     width="750"
     x="0"
     y="295.46243" />
  <polygon
     id="polygon723"
     points="0,-4.004 0.898954,-1.2373 3.80803,-1.2373 1.45454,0.472608 2.35349,3.2393 0,1.52939 -2.35349,3.2393 -1.45454,0.472608 -3.80803,-1.2373 -0.898954,-1.2373 0,-4.004"
     sodipodi:arg1="-1.570796"
     sodipodi:arg2="-0.9424778"
     sodipodi:cx="0"
     sodipodi:cy="0"
     sodipodi:r1="4.0040002"
     sodipodi:r2="1.5293919"
     sodipodi:sides="5"
     sodipodi:type="star"
     style="fill:#ffce08;fill-rule:evenodd;stroke-width:0.125"
     transform="matrix(7.18365,0,0,7.2246612,220.79256,418.73777)"
     inkscape:flatsided="false"
     inkscape:rounded="0"
     inkscape:randomized="0"
     d="M 1.3084868e-6,-4.0040002 0.89895399,-1.237304 3.8080309,-1.2373029 1.4545381,0.47260808 2.3534912,3.239305 0,1.5293919 -2.3534933,3.2393034 -1.4545381,0.47260809 -3.8080301,-1.2373053 -0.898954,-1.237304 1.3084868e-6,-4.0040002 z" />
  <polygon
     id="polygon730"
     points="0,-4.004 0.898954,-1.2373 3.80803,-1.2373 1.45454,0.472608 2.35349,3.2393 0,1.52939 -2.35349,3.2393 -1.45454,0.472608 -3.80803,-1.2373 -0.898954,-1.2373 0,-4.004"
     sodipodi:arg1="-1.570796"
     sodipodi:arg2="-0.9424778"
     sodipodi:cx="0"
     sodipodi:cy="0"
     sodipodi:r1="4.0040002"
     sodipodi:r2="1.5293919"
     sodipodi:sides="5"
     sodipodi:type="star"
     style="fill:#ffce08;fill-rule:evenodd;stroke-width:0.125"
     transform="matrix(7.18365,0,0,7.2246612,401.39856,273.55664)"
     inkscape:flatsided="false"
     inkscape:rounded="0"
     inkscape:randomized="0"
     d="M 1.3084868e-6,-4.0040002 0.89895399,-1.237304 3.8080309,-1.2373029 1.4545381,0.47260808 2.3534912,3.239305 0,1.5293919 -2.3534933,3.2393034 -1.4545381,0.47260809 -3.8080301,-1.2373053 -0.898954,-1.237304 1.3084868e-6,-4.0040002 z" />
  <polygon
     id="polygon731"
     points="0,-4.004 0.898954,-1.2373 3.80803,-1.2373 1.45454,0.472608 2.35349,3.2393 0,1.52939 -2.35349,3.2393 -1.45454,0.472608 -3.80803,-1.2373 -0.898954,-1.2373 0,-4.004"
     sodipodi:arg1="-1.570796"
     sodipodi:arg2="-0.9424778"
     sodipodi:cx="0"
     sodipodi:cy="0"
     sodipodi:r1="4.0040002"
     sodipodi:r2="1.5293919"
     sodipodi:sides="5"
     sodipodi:type="star"
     style="fill:#ffce08;fill-rule:evenodd;stroke-width:0.125"
     transform="matrix(7.18365,0,0,7.2246612,179.38256,356.51757)"
     inkscape:flatsided="false"
     inkscape:rounded="0"
     inkscape:randomized="0"
     d="M 1.3084868e-6,-4.0040002 0.89895399,-1.237304 3.8080309,-1.2373029 1.4545381,0.47260808 2.3534912,3.239305 0,1.5293919 -2.3534933,3.2393034 -1.4545381,0.47260809 -3.8080301,-1.2373053 -0.898954,-1.237304 1.3084868e-6,-4.0040002 z" />
  <polygon
     id="polygon732"
     points="0,-4.004 0.898954,-1.2373 3.80803,-1.2373 1.45454,0.472608 2.35349,3.2393 0,1.52939 -2.35349,3.2393 -1.45454,0.472608 -3.80803,-1.2373 -0.898954,-1.2373 0,-4.004"
     sodipodi:arg1="-1.570796"
     sodipodi:arg2="-0.9424778"
     sodipodi:cx="0"
     sodipodi:cy="0"
     sodipodi:r1="4.0040002"
     sodipodi:r2="1.5293919"
     sodipodi:sides="5"
     sodipodi:type="star"
     style="fill:#ffce08;fill-rule:evenodd;stroke-width:0.125"
     transform="matrix(7.18365,0,0,7.2246612,401.39856,350.66435)"
     inkscape:flatsided="false"
     inkscape:rounded="0"
     inkscape:randomized="0"
     d="M 1.3084868e-6,-4.0040002 0.89895399,-1.237304 3.8080309,-1.2373029 1.4545381,0.47260808 2.3534912,3.239305 0,1.5293919 -2.3534933,3.2393034 -1.4545381,0.47260809 -3.8080301,-1.2373053 -0.898954,-1.237304 1.3084868e-6,-4.0040002 z" />
  <polygon
     id="polygon733"
     points="0,-4.004 0.898954,-1.2373 3.80803,-1.2373 1.45454,0.472608 2.35349,3.2393 0,1.52939 -2.35349,3.2393 -1.45454,0.472608 -3.80803,-1.2373 -0.898954,-1.2373 0,-4.004"
     sodipodi:arg1="-1.570796"
     sodipodi:arg2="-0.9424778"
     sodipodi:cx="0"
     sodipodi:cy="0"
     sodipodi:r1="4.0040002"
     sodipodi:r2="1.5293919"
     sodipodi:sides="5"
     sodipodi:type="star"
     style="fill:#ffce08;fill-rule:evenodd;stroke-width:0.125"
     transform="matrix(7.18365,0,0,7.2246612,355.66956,212.70018)"
     inkscape:flatsided="false"
     inkscape:rounded="0"
     inkscape:randomized="0"
     d="M 1.3084868e-6,-4.0040002 0.89895399,-1.237304 3.8080309,-1.2373029 1.4545381,0.47260808 2.3534912,3.239305 0,1.5293919 -2.3534933,3.2393034 -1.4545381,0.47260809 -3.8080301,-1.2373053 -0.898954,-1.237304 1.3084868e-6,-4.0040002 z" />
  <polygon
     id="polygon734"
     points="0,-4.004 0.898954,-1.2373 3.80803,-1.2373 1.45454,0.472608 2.35349,3.2393 0,1.52939 -2.35349,3.2393 -1.45454,0.472608 -3.80803,-1.2373 -0.898954,-1.2373 0,-4.004"
     sodipodi:arg1="-1.570796"
     sodipodi:arg2="-0.9424778"
     sodipodi:cx="0"
     sodipodi:cy="0"
     sodipodi:r1="4.0040002"
     sodipodi:r2="1.5293919"
     sodipodi:sides="5"
     sodipodi:type="star"
     style="fill:#ffce08;fill-rule:evenodd;stroke-width:0.125"
     transform="matrix(7.18365,0,0,7.2246612,286.64556,188.52596)"
     inkscape:flatsided="false"
     inkscape:rounded="0"
     inkscape:randomized="0"
     d="M 1.3084868e-6,-4.0040002 0.89895399,-1.237304 3.8080309,-1.2373029 1.4545381,0.47260808 2.3534912,3.239305 0,1.5293919 -2.3534933,3.2393034 -1.4545381,0.47260809 -3.8080301,-1.2373053 -0.898954,-1.237304 1.3084868e-6,-4.0040002 z" />
  <polygon
     id="polygon735"
     points="0,-4.004 0.898954,-1.2373 3.80803,-1.2373 1.45454,0.472608 2.35349,3.2393 0,1.52939 -2.35349,3.2393 -1.45454,0.472608 -3.80803,-1.2373 -0.898954,-1.2373 0,-4.004"
     sodipodi:arg1="-1.570796"
     sodipodi:arg2="-0.9424778"
     sodipodi:cx="0"
     sodipodi:cy="0"
     sodipodi:r1="4.0040002"
     sodipodi:r2="1.5293919"
     sodipodi:sides="5"
     sodipodi:type="star"
     style="fill:#ffce08;fill-rule:evenodd;stroke-width:0.125"
     transform="matrix(7.18365,0,0,7.2246612,217.62356,211.33544)"
     inkscape:flatsided="false"
     inkscape:rounded="0"
     inkscape:randomized="0"
     d="M 1.3084868e-6,-4.0040002 0.89895399,-1.237304 3.8080309,-1.2373029 1.4545381,0.47260808 2.3534912,3.239305 0,1.5293919 -2.3534933,3.2393034 -1.4545381,0.47260809 -3.8080301,-1.2373053 -0.898954,-1.237304 1.3084868e-6,-4.0040002 z" />
  <polygon
     id="polygon736"
     points="0,-4.004 0.898954,-1.2373 3.80803,-1.2373 1.45454,0.472608 2.35349,3.2393 0,1.52939 -2.35349,3.2393 -1.45454,0.472608 -3.80803,-1.2373 -0.898954,-1.2373 0,-4.004"
     sodipodi:arg1="-1.570796"
     sodipodi:arg2="-0.9424778"
     sodipodi:cx="0"
     sodipodi:cy="0"
     sodipodi:r1="4.0040002"
     sodipodi:r2="1.5293919"
     sodipodi:sides="5"
     sodipodi:type="star"
     style="fill:#ffce08;fill-rule:evenodd;stroke-width:0.125"
     transform="matrix(7.18365,0,0,7.2246612,177.35556,273.55664)"
     inkscape:flatsided="false"
     inkscape:rounded="0"
     inkscape:randomized="0"
     d="M 1.3084868e-6,-4.0040002 0.89895399,-1.237304 3.8080309,-1.2373029 1.4545381,0.47260808 2.3534912,3.239305 0,1.5293919 -2.3534933,3.2393034 -1.4545381,0.47260809 -3.8080301,-1.2373053 -0.898954,-1.237304 1.3084868e-6,-4.0040002 z" />
  <polygon
     id="polygon737"
     points="0,-4.004 0.898954,-1.2373 3.80803,-1.2373 1.45454,0.472608 2.35349,3.2393 0,1.52939 -2.35349,3.2393 -1.45454,0.472608 -3.80803,-1.2373 -0.898954,-1.2373 0,-4.004"
     sodipodi:arg1="-1.570796"
     sodipodi:arg2="-0.9424778"
     sodipodi:cx="0"
     sodipodi:cy="0"
     sodipodi:r1="4.0040002"
     sodipodi:r2="1.5293919"
     sodipodi:sides="5"
     sodipodi:type="star"
     style="fill:#ffce08;fill-rule:evenodd;stroke-width:0.125"
     transform="matrix(7.18365,0,0,7.2246612,286.64656,439.47851)"
     inkscape:flatsided="false"
     inkscape:rounded="0"
     inkscape:randomized="0"
     d="M 1.3084868e-6,-4.0040002 0.89895399,-1.237304 3.8080309,-1.2373029 1.4545381,0.47260808 2.3534912,3.239305 0,1.5293919 -2.3534933,3.2393034 -1.4545381,0.47260809 -3.8080301,-1.2373053 -0.898954,-1.237304 1.3084868e-6,-4.0040002 z" />
  <polygon
     id="polygon738"
     points="0,-4.004 0.898954,-1.2373 3.80803,-1.2373 1.45454,0.472608 2.35349,3.2393 0,1.52939 -2.35349,3.2393 -1.45454,0.472608 -3.80803,-1.2373 -0.898954,-1.2373 0,-4.004"
     sodipodi:arg1="-1.570796"
     sodipodi:arg2="-0.9424778"
     sodipodi:cx="0"
     sodipodi:cy="0"
     sodipodi:r1="4.0040002"
     sodipodi:r2="1.5293919"
     sodipodi:sides="5"
     sodipodi:type="star"
     style="fill:#ffce08;fill-rule:evenodd;stroke-width:0.125"
     transform="matrix(7.18365,0,0,7.2246612,359.98456,418.73777)"
     inkscape:flatsided="false"
     inkscape:rounded="0"
     inkscape:randomized="0"
     d="M 1.3084868e-6,-4.0040002 0.89895399,-1.237304 3.8080309,-1.2373029 1.4545381,0.47260808 2.3534912,3.239305 0,1.5293919 -2.3534933,3.2393034 -1.4545381,0.47260809 -3.8080301,-1.2373053 -0.898954,-1.237304 1.3084868e-6,-4.0040002 z" />
</svg>
