<?xml version="1.0" encoding="UTF-8" standalone="no"?>
<!-- Created with Inkscape (http://www.inkscape.org/) -->
<svg
   xmlns:dc="http://purl.org/dc/elements/1.1/"
   xmlns:cc="http://creativecommons.org/ns#"
   xmlns:rdf="http://www.w3.org/1999/02/22-rdf-syntax-ns#"
   xmlns:svg="http://www.w3.org/2000/svg"
   xmlns="http://www.w3.org/2000/svg"
   xmlns:sodipodi="http://sodipodi.sourceforge.net/DTD/sodipodi-0.dtd"
   xmlns:inkscape="http://www.inkscape.org/namespaces/inkscape"
   id="svg2496"
   sodipodi:version="0.32"
   inkscape:version="0.46"
   width="1125"
   height="750"
   version="1.0"
   sodipodi:docname="castile.svg"
   inkscape:output_extension="org.inkscape.output.svg.inkscape">
  <metadata
     id="metadata2501">
    <rdf:RDF>
      <cc:Work
         rdf:about="">
        <dc:format>image/svg+xml</dc:format>
        <dc:type
           rdf:resource="http://purl.org/dc/dcmitype/StillImage" />
      </cc:Work>
    </rdf:RDF>
  </metadata>
  <defs
     id="defs2499">
    <inkscape:perspective
       sodipodi:type="inkscape:persp3d"
       inkscape:vp_x="0 : 526.18109 : 1"
       inkscape:vp_y="0 : 1000 : 0"
       inkscape:vp_z="744.09448 : 526.18109 : 1"
       inkscape:persp3d-origin="372.04724 : 350.78739 : 1"
       id="perspective2503" />
  </defs>
  <sodipodi:namedview
     inkscape:window-height="729"
     inkscape:window-width="1280"
     inkscape:pageshadow="2"
     inkscape:pageopacity="0.0"
     guidetolerance="10.0"
     gridtolerance="10.0"
     objecttolerance="10.0"
     borderopacity="1.0"
     bordercolor="#666666"
     pagecolor="#ffffff"
     id="base"
     showgrid="false"
     inkscape:zoom="0.661017"
     inkscape:cx="541.47439"
     inkscape:cy="383.67023"
     inkscape:window-x="0"
     inkscape:window-y="0"
     inkscape:current-layer="g2472"
     showguides="true"
     inkscape:guide-bbox="true" />
  <g
     id="g2472"
     transform="matrix(1.1038764,0,0,0.9702954,-34.309696,-489.47442)">
    <rect
       style="fill:#cc0000;fill-opacity:1"
       id="rect2443"
       width="1019.1359"
       height="773.33038"
       x="32.45155"
       y="504.08929"
       ry="0" />
  </g>
  <g
     style="stroke:#000000;stroke-width:3;stroke-miterlimit:4;stroke-dasharray:none;stroke-opacity:1"
     id="g20220"
     transform="matrix(0.881687,0,0,0.881687,117.72788,-409.52674)">
    <path
       d="M 239.46929,1171.9041 L 239.46929,1111.9263 L 248.87633,1089.5767 L 248.87633,896.03571 L 241.60714,879.78571 L 241.60714,834.60714 L 255.26786,831.48214 L 255.26786,701.30357 L 247.94643,687.91071 L 247.94643,657.73214 L 255.08929,654.78571 L 255.08929,670.85714 L 261.875,667.10714 L 261.875,651.39286 L 269.19643,648.26786 L 287.23214,648.26786 L 287.23214,667.91071 L 303.30357,667.91071 L 303.30357,648.08928 L 321.07143,648.08928 L 321.07143,667.28571 L 336.07143,667.28571 L 336.07143,647.64286 L 351.78572,647.64286 L 359.55357,652.73214 L 359.55357,669.16071 L 364.01786,671.75 L 364.01786,655.58928 L 371.07143,659.25 L 371.07143,688.80357 L 364.19643,702.01786 L 364.19643,887.375 L 379.375,887.375 L 379.375,880.41071 L 428.57143,880.41071 L 428.57143,643.22321 L 418.52679,626.66071 L 418.52679,588.71428 L 427.67857,584.60714 L 427.67857,604.78571 L 437.05357,599.78571 L 437.05357,580.32143 L 446.96429,576.03571 L 470.71429,576.03571 L 470.71429,600.5 L 491.25,600.5 L 491.25,575.58928 L 514.82143,575.58928 L 514.82143,600.05357 L 534.73214,600.05357 L 534.73214,575.67857 L 555.08929,575.67857 L 564.82143,581.48214 L 564.82143,602.46428 L 571.16072,605.32143 L 571.16072,585.23214 L 580.71429,589.78571 L 580.71429,627.24107 L 571.91964,644.33928 L 571.91964,880.76786 L 625.625,880.76786 L 625.625,887.64286 L 634.46429,887.64286 L 634.46429,698.80357 L 627.14286,686.66071 L 627.14286,655.52678 L 633.99699,652.74886 L 633.99699,669.35324 L 641.38373,664.80756 L 641.38373,649.27646 L 648.32853,646.0566 L 666.70068,646.0566 L 666.70068,666.07025 L 682.29491,666.07025 L 682.29491,645.61466 L 700.09885,645.61466 L 700.09885,665.31263 L 715.37741,665.31263 L 715.37741,645.55152 L 730.97164,645.55152 L 738.16897,650.34975 L 738.16897,667.39607 L 743.53541,669.98459 L 743.53541,653.69588 L 750.41707,657.04201 L 750.41707,686.77232 L 743.53541,700.57327 L 743.53541,835.72321 L 755.44643,836.61607 L 755.44643,879.42857 L 747.05357,898.89286 L 747.05357,1089.6964 L 756.78572,1113.2679 L 756.78572,1172.6429 L 640.75239,1223.2325 L 353.30085,1223.2325 L 239.46929,1171.9041 z"
       style="fill:#cab549;fill-opacity:1;fill-rule:evenodd;stroke:#000000;stroke-width:3;stroke-linecap:butt;stroke-linejoin:miter;stroke-miterlimit:4;stroke-dasharray:none;stroke-opacity:1"
       id="path2638" />
    <path
       d="M 363.79464,818.84821 L 379.0625,818.84821 L 379.0625,837.73214 L 398.83929,833.44643 L 398.83929,811.125 L 416.42857,811.125 L 416.42857,829.20536 L 428.39286,829.20536 L 428.39286,874.16071 C 401.38666,855.68848 388.80096,858.90894 364.28572,875.14286 L 363.79464,818.84821 z"
       style="fill:#cab549;fill-opacity:1;fill-rule:evenodd;stroke:#000000;stroke-width:3;stroke-linecap:butt;stroke-linejoin:miter;stroke-miterlimit:4;stroke-dasharray:none;stroke-opacity:1"
       id="path3609" />
    <path
       d="M 634.3658,818.01101 L 619.64947,818.01101 L 619.64947,836.91428 L 600.58709,832.62419 L 600.58709,810.27989 L 583.6332,810.27989 L 583.6332,828.37877 L 572.10111,828.37877 L 572.10111,873.38017 C 598.13174,854.88902 610.2628,858.11278 633.89246,874.36333 L 634.3658,818.01101 z"
       style="fill:#cab549;fill-opacity:1;fill-rule:evenodd;stroke:#000000;stroke-width:3;stroke-linecap:butt;stroke-linejoin:miter;stroke-miterlimit:4;stroke-dasharray:none;stroke-opacity:1"
       id="path3611" />
    <path
       d="M 298.37054,762.24107 L 317.76786,762.24107 L 317.76786,740.1875 C 325.44095,729.53229 323.8143,715.37756 308.14733,707.28571 C 291.1453,716.76907 291.74134,730.11923 298.14732,739.76339 L 298.37054,762.24107 z"
       style="fill:#3864ae;fill-opacity:1;fill-rule:evenodd;stroke:#000000;stroke-width:3;stroke-linecap:butt;stroke-linejoin:miter;stroke-miterlimit:4;stroke-dasharray:none;stroke-opacity:1"
       id="path4582" />
    <path
       d="M 487.76623,719.33534 L 511.65162,719.33534 L 511.65162,692.17911 C 521.10007,679.05854 519.09706,661.62875 499.80513,651.66465 C 478.86924,663.34222 479.60319,679.78129 487.49136,691.65687 L 487.76623,719.33534 z"
       style="fill:#3864ae;fill-opacity:1;fill-rule:evenodd;stroke:#000000;stroke-width:3;stroke-linecap:butt;stroke-linejoin:miter;stroke-miterlimit:4;stroke-dasharray:none;stroke-opacity:1"
       id="path5553" />
    <path
       d="M 680.94783,762.11204 L 700.34515,762.11204 L 700.34515,740.05847 C 708.01824,729.40326 706.39159,715.24853 690.72462,707.15668 C 673.72259,716.64004 674.31863,729.9902 680.72461,739.63436 L 680.94783,762.11204 z"
       style="fill:#3864ae;fill-opacity:1;fill-rule:evenodd;stroke:#000000;stroke-width:3;stroke-linecap:butt;stroke-linejoin:miter;stroke-miterlimit:4;stroke-dasharray:none;stroke-opacity:1"
       id="path5555" />
    <path
       d="M 488.59064,865.41079 L 512.8622,865.41079 L 512.8622,830.68072 C 522.46342,813.90084 520.42802,791.60991 500.82419,778.86683 C 479.54982,793.80127 480.29563,814.82516 488.31134,830.01283 L 488.59064,865.41079 z"
       style="fill:#3864ae;fill-opacity:1;fill-rule:evenodd;stroke:#000000;stroke-width:3;stroke-linecap:butt;stroke-linejoin:miter;stroke-miterlimit:4;stroke-dasharray:none;stroke-opacity:1"
       id="path5557" />
    <path
       d="M 242.32143,880.23214 L 359.0625,931.08036 L 641.42857,931.08036 L 754.80492,880.66453"
       style="fill:none;fill-rule:evenodd;stroke:#000000;stroke-width:3;stroke-linecap:butt;stroke-linejoin:miter;stroke-miterlimit:4;stroke-dasharray:none;stroke-opacity:1"
       id="path6532" />
    <path
       d="M 249.76022,897.64772 L 366.3697,950.17565 L 632.98684,950.17565 L 747.00893,897.24107"
       style="fill:none;fill-rule:evenodd;stroke:#000000;stroke-width:3;stroke-linecap:butt;stroke-linejoin:miter;stroke-miterlimit:4;stroke-dasharray:none;stroke-opacity:1"
       id="path7521" />
    <path
       d="M 250.08929,942.01786 L 366.51786,994.49553"
       style="fill:none;fill-rule:evenodd;stroke:#000000;stroke-width:3;stroke-linecap:butt;stroke-linejoin:miter;stroke-miterlimit:4;stroke-dasharray:none;stroke-opacity:1"
       id="path7523" />
    <path
       d="M 367.65625,993.04464 L 631.47322,993.04464"
       style="fill:none;fill-rule:evenodd;stroke:#000000;stroke-width:3;stroke-linecap:butt;stroke-linejoin:miter;stroke-miterlimit:4;stroke-dasharray:none;stroke-opacity:1"
       id="path7525" />
    <path
       d="M 632.43304,994.83036 L 746.91965,942.15178"
       style="fill:none;fill-rule:evenodd;stroke:#000000;stroke-width:3;stroke-linecap:butt;stroke-linejoin:miter;stroke-miterlimit:4;stroke-dasharray:none;stroke-opacity:1"
       id="path7527" />
    <path
       d="M 249.91072,995.00893 L 366.52754,1047.4028"
       style="fill:none;fill-rule:evenodd;stroke:#000000;stroke-width:3;stroke-linecap:butt;stroke-linejoin:miter;stroke-miterlimit:4;stroke-dasharray:none;stroke-opacity:1"
       id="path8498" />
    <path
       d="M 248.86055,1042.4468 C 248.92369,1042.4468 366.81164,1096.6162 366.81164,1096.6162"
       style="fill:none;fill-rule:evenodd;stroke:#000000;stroke-width:3;stroke-linecap:butt;stroke-linejoin:miter;stroke-miterlimit:4;stroke-dasharray:none;stroke-opacity:1"
       id="path8500" />
    <path
       d="M 367.5,1048.1786 L 631.96429,1048.1786 L 746.96429,994.96428"
       style="fill:none;fill-rule:evenodd;stroke:#000000;stroke-width:3;stroke-linecap:butt;stroke-linejoin:miter;stroke-miterlimit:4;stroke-dasharray:none;stroke-opacity:1"
       id="path8502" />
    <path
       d="M 366.68537,1097.4054 L 630.96653,1097.4054 L 747.32143,1043.2679"
       style="fill:none;fill-rule:evenodd;stroke:#000000;stroke-width:3;stroke-linecap:butt;stroke-linejoin:miter;stroke-miterlimit:4;stroke-dasharray:none;stroke-opacity:1"
       id="path8504" />
    <path
       d="M 471.10989,1142.4834 L 528.66072,1142.4834 L 528.66072,1092.3862 C 548.36939,1053.7747 533.07089,1019.0682 499.24107,992.95536 C 458.62973,1017.6739 451.71719,1058.0638 470.53572,1094.2946 L 471.10989,1142.4834 z"
       style="fill:#3864ae;fill-opacity:1;fill-rule:evenodd;stroke:#000000;stroke-width:3;stroke-linecap:butt;stroke-linejoin:miter;stroke-miterlimit:4;stroke-dasharray:none;stroke-opacity:1"
       id="path5559" />
    <path
       d="M 249.28571,1089.0714 L 367.32143,1143.5357 L 632.10296,1143.5357 L 747.38662,1088.8822"
       style="fill:none;fill-rule:evenodd;stroke:#000000;stroke-width:3;stroke-linecap:butt;stroke-linejoin:miter;stroke-miterlimit:4;stroke-dasharray:none;stroke-opacity:1"
       id="path9475" />
    <path
       d="M 240.00593,1113.189 L 353.57143,1166.0357 L 640.58036,1166.0357 L 757.10933,1113.2522"
       style="fill:none;fill-rule:evenodd;stroke:#000000;stroke-width:3;stroke-linecap:butt;stroke-linejoin:miter;stroke-miterlimit:4;stroke-dasharray:none;stroke-opacity:1"
       id="path10446" />
    <path
       d="M 358.57143,887.64286 L 358.57143,931.30357 L 367.09822,950.72321 L 367.09822,1142.6205 L 353.36399,1165.3381 L 353.36399,1223.2956"
       style="fill:none;fill-rule:evenodd;stroke:#000000;stroke-width:3;stroke-linecap:butt;stroke-linejoin:miter;stroke-miterlimit:4;stroke-dasharray:none;stroke-opacity:1"
       id="path11417" />
    <path
       d="M 640.56298,887.29366 L 640.56298,934.01321 L 631.85042,950.55446 L 631.85042,1142.957 L 640.89286,1168 L 640.89286,1222.8661"
       style="fill:none;fill-rule:evenodd;stroke:#000000;stroke-width:3;stroke-linecap:butt;stroke-linejoin:miter;stroke-miterlimit:4;stroke-dasharray:none;stroke-opacity:1"
       id="path12388" />
    <path
       d="M 247.99245,688.04107 L 269.07938,680.59119 L 352.03816,680.59119 L 370.72598,688.35674"
       style="fill:none;fill-rule:evenodd;stroke:#000000;stroke-width:3;stroke-linecap:butt;stroke-linejoin:miter;stroke-miterlimit:4;stroke-dasharray:none;stroke-opacity:1"
       id="path13363" />
    <path
       d="M 254.62158,701.42559 L 275.26657,694.29139 L 343.48343,694.29139 L 364.28626,702.1832"
       style="fill:none;fill-rule:evenodd;stroke:#000000;stroke-width:3;stroke-linecap:butt;stroke-linejoin:miter;stroke-miterlimit:4;stroke-dasharray:none;stroke-opacity:1"
       id="path14334" />
    <path
       d="M 364.85447,783.68989 L 342.94643,775.41071 L 275.02232,775.41071 L 254.87411,782.806 C 251.25043,785.13903 250.73345,790.39998 254.87411,792.84439 L 275.3297,786.53094 L 343.57814,786.53094 L 365.20171,793.98081 C 367.64784,790.96972 367.31063,786.98318 364.85447,783.68989 z"
       style="fill:#cab549;fill-opacity:1;fill-rule:evenodd;stroke:#000000;stroke-width:3;stroke-linecap:butt;stroke-linejoin:miter;stroke-miterlimit:4;stroke-dasharray:none;stroke-opacity:1"
       id="path15305" />
    <path
       d="M 254.49531,792.90753 C 250.06726,795.48132 251.21993,802.05769 254.49531,803.451 L 275.3297,795.68545 L 343.515,795.68545 L 364.03372,803.451 C 366.6127,801.49713 367.90186,798.86184 364.22313,793.60201 L 343.38873,786.46781 L 275.25079,786.46781 L 254.49531,792.90753 z"
       style="fill:#cab549;fill-opacity:1;fill-rule:evenodd;stroke:#000000;stroke-width:3;stroke-linecap:butt;stroke-linejoin:miter;stroke-miterlimit:4;stroke-dasharray:none;stroke-opacity:1"
       id="path16276" />
    <path
       d="M 269.71073,648.64512 L 269.71073,681.09627 L 275.51911,692.55519 L 275.51911,875.61377"
       style="fill:none;fill-rule:evenodd;stroke:#000000;stroke-width:3;stroke-linecap:butt;stroke-linejoin:miter;stroke-miterlimit:4;stroke-dasharray:none;stroke-opacity:1"
       id="path13359" />
    <path
       d="M 351.40682,648.20318 L 351.40682,681.1594 L 343.64127,694.73333 L 343.64127,908.19119"
       style="fill:none;fill-rule:evenodd;stroke:#000000;stroke-width:3;stroke-linecap:butt;stroke-linejoin:miter;stroke-miterlimit:4;stroke-dasharray:none;stroke-opacity:1"
       id="path13361" />
    <path
       d="M 634.43894,782.04839 L 656.34698,773.76921 L 724.27109,773.76921 L 744.4193,781.1645 C 748.04298,783.49753 748.55996,788.75848 744.4193,791.20289 L 723.96371,784.88944 L 655.71527,784.88944 L 634.0917,792.33931 C 631.64557,789.32822 631.98278,785.34168 634.43894,782.04839 z"
       style="fill:#cab549;fill-opacity:1;fill-rule:evenodd;stroke:#000000;stroke-width:3;stroke-linecap:butt;stroke-linejoin:miter;stroke-miterlimit:4;stroke-dasharray:none;stroke-opacity:1"
       id="path17247" />
    <path
       d="M 744.7981,791.26603 C 749.22615,793.83982 748.07348,800.41619 744.7981,801.8095 L 723.96371,794.04395 L 655.77841,794.04395 L 635.25969,801.8095 C 632.68071,799.85563 631.39155,797.22034 635.07028,791.96051 L 655.90468,784.82631 L 724.04262,784.82631 L 744.7981,791.26603 z"
       style="fill:#cab549;fill-opacity:1;fill-rule:evenodd;stroke:#000000;stroke-width:3;stroke-linecap:butt;stroke-linejoin:miter;stroke-miterlimit:4;stroke-dasharray:none;stroke-opacity:1"
       id="path17249" />
    <path
       d="M 729.58268,647.00362 L 729.58268,679.45477 L 723.7743,690.91369 L 723.7743,873.97227"
       style="fill:none;fill-rule:evenodd;stroke:#000000;stroke-width:3;stroke-linecap:butt;stroke-linejoin:miter;stroke-miterlimit:4;stroke-dasharray:none;stroke-opacity:1"
       id="path17251" />
    <path
       d="M 647.88659,646.56168 L 647.88659,679.5179 L 655.65214,693.09183 L 655.65214,906.54969"
       style="fill:none;fill-rule:evenodd;stroke:#000000;stroke-width:3;stroke-linecap:butt;stroke-linejoin:miter;stroke-miterlimit:4;stroke-dasharray:none;stroke-opacity:1"
       id="path17253" />
    <path
       d="M 241.74213,836.59663 L 263.20787,845.75113 L 263.20787,870.87868 L 282.84271,877.129 L 282.84271,854.58997 L 302.16188,862.73432 L 302.16188,887.925 L 319.0188,894.36472 L 319.0188,870.12106 L 340.625,879.60714 L 340.625,907.46514 L 351.51786,911.48214 L 351.51786,884.16071 L 358.48214,887.6875 L 384.23678,887.54619 L 384.23678,914.31524 L 403.80848,914.31524 L 403.80848,887.41993 L 426.91572,887.41993 L 426.91572,913.05255 L 445.41414,913.05255 L 445.41414,887.16739 L 468.52138,887.16739 L 468.52138,912.4212 L 487.65114,912.4212 L 487.65114,887.29366 L 515.55661,887.29366 L 515.55661,913.49449 L 534.5601,913.49449 L 534.5601,887.29366 L 556.53092,887.29366 L 556.53092,911.66359 L 576.73397,911.66359 L 576.73397,887.41964 L 599.19643,887.41964 L 599.19643,911.48214 L 619.50893,911.48214 L 619.50893,887.24107 L 640.44643,887.24107 L 647.67857,883.53571 L 647.67857,911.08036 L 656.02679,907.50893 L 656.02679,880.1875 L 678.4375,870.58928 L 678.4375,895.58928 L 695.42411,888.35714 L 695.42411,862.64286 L 714.46429,854.69643 L 714.46429,878 L 733.39286,870.76786 L 733.39286,845.58928 L 755,836.66071"
       style="fill:none;fill-rule:evenodd;stroke:#000000;stroke-width:3;stroke-linecap:butt;stroke-linejoin:miter;stroke-miterlimit:4;stroke-dasharray:none;stroke-opacity:1"
       id="path6530" />
    <path
       d="M 427.20837,746.33954 L 455.78265,735.54115 L 544.37494,735.54115 L 570.65393,745.1867 C 575.38025,748.22963 576.05452,755.0914 570.65393,758.27961 L 543.97403,750.04507 L 454.95873,750.04507 L 426.75546,759.76182 C 423.56501,755.8345 424.00483,750.63493 427.20837,746.33954 z"
       style="fill:#cab549;fill-opacity:1;fill-rule:evenodd;stroke:#000000;stroke-width:3;stroke-linecap:butt;stroke-linejoin:miter;stroke-miterlimit:4;stroke-dasharray:none;stroke-opacity:1"
       id="path17255" />
    <path
       d="M 571.148,758.36196 C 576.92342,761.71892 575.42002,770.29636 571.148,772.11363 L 543.97403,761.98514 L 455.04108,761.98514 L 428.27885,772.11363 C 424.91513,769.56523 423.2337,766.12806 428.03181,759.26776 L 455.20577,749.96275 L 544.07696,749.96275 L 571.148,758.36196 z"
       style="fill:#cab549;fill-opacity:1;fill-rule:evenodd;stroke:#000000;stroke-width:3;stroke-linecap:butt;stroke-linejoin:miter;stroke-miterlimit:4;stroke-dasharray:none;stroke-opacity:1"
       id="path17257" />
    <path
       d="M 627.23214,685.85714 L 649.55357,679.07143 L 730.49107,679.07143 L 750.15625,686.16964"
       style="fill:none;fill-rule:evenodd;stroke:#000000;stroke-width:3;stroke-linecap:butt;stroke-linejoin:miter;stroke-miterlimit:4;stroke-dasharray:none;stroke-opacity:1"
       id="path18228" />
    <path
       d="M 634.01786,699.47321 L 654.91072,692.24107 L 721.38393,692.24107 L 743.34822,700.14286"
       style="fill:none;fill-rule:evenodd;stroke:#000000;stroke-width:3;stroke-linecap:butt;stroke-linejoin:miter;stroke-miterlimit:4;stroke-dasharray:none;stroke-opacity:1"
       id="path19199" />
    <path
       d="M 447.05564,576.41921 L 447.05564,616.57143 L 455.08929,632.10714 L 455.08929,887.375"
       style="fill:none;fill-rule:evenodd;stroke:#000000;stroke-width:3;stroke-linecap:butt;stroke-linejoin:miter;stroke-miterlimit:4;stroke-dasharray:none;stroke-opacity:1"
       id="path19201" />
    <path
       d="M 554.64286,576.66071 L 554.64286,617.28571 L 545,633.53571 L 545,886.92857"
       style="fill:none;fill-rule:evenodd;stroke:#000000;stroke-width:3;stroke-linecap:butt;stroke-linejoin:miter;stroke-miterlimit:4;stroke-dasharray:none;stroke-opacity:1"
       id="path19203" />
    <path
       d="M 419.08704,626.29549 L 446.36116,617.83546 L 554.19494,617.83546 L 580.20637,626.6743"
       style="fill:none;fill-rule:evenodd;stroke:#000000;stroke-width:3;stroke-linecap:butt;stroke-linejoin:miter;stroke-miterlimit:4;stroke-dasharray:none;stroke-opacity:1"
       id="path19205" />
    <path
       d="M 427.48393,643.59435 L 455.64193,634.12417 L 543.30357,634.12417 L 571.90418,644.25727"
       style="fill:none;fill-rule:evenodd;stroke:#000000;stroke-width:3;stroke-linecap:butt;stroke-linejoin:miter;stroke-miterlimit:4;stroke-dasharray:none;stroke-opacity:1"
       id="path19207" />
    <path
       d="M 255.44233,831.23019 L 255.44233,842.84694"
       style="fill:none;fill-rule:evenodd;stroke:#000000;stroke-width:3;stroke-linecap:butt;stroke-linejoin:miter;stroke-miterlimit:4;stroke-dasharray:none;stroke-opacity:1"
       id="path19209" />
    <path
       d="M 743.48214,835.58928 L 743.48214,841.03571"
       style="fill:none;fill-rule:evenodd;stroke:#000000;stroke-width:3;stroke-linecap:butt;stroke-linejoin:miter;stroke-miterlimit:4;stroke-dasharray:none;stroke-opacity:1"
       id="path19211" />
    <path
       d="M 286.25,913.71428 L 286.07143,958"
       style="fill:none;fill-rule:evenodd;stroke:#000000;stroke-width:3;stroke-linecap:butt;stroke-linejoin:miter;stroke-miterlimit:4;stroke-dasharray:none;stroke-opacity:1"
       id="path19213" />
    <path
       d="M 313.92857,970.5 L 313.92857,1023.1786"
       style="fill:none;fill-rule:evenodd;stroke:#000000;stroke-width:3;stroke-linecap:butt;stroke-linejoin:miter;stroke-miterlimit:4;stroke-dasharray:none;stroke-opacity:1"
       id="path19215" />
    <path
       d="M 283.75,1010.2321 L 283.75,1058.5357"
       style="fill:none;fill-rule:evenodd;stroke:#000000;stroke-width:3;stroke-linecap:butt;stroke-linejoin:miter;stroke-miterlimit:4;stroke-dasharray:none;stroke-opacity:1"
       id="path19217" />
    <path
       d="M 312.85714,1071.5714 L 312.85714,1117.8214"
       style="fill:none;fill-rule:evenodd;stroke:#000000;stroke-width:3;stroke-linecap:butt;stroke-linejoin:miter;stroke-miterlimit:4;stroke-dasharray:none;stroke-opacity:1"
       id="path19219" />
    <path
       d="M 399.76787,950.30192 L 399.76787,992.98087"
       style="fill:none;fill-rule:evenodd;stroke:#000000;stroke-width:3;stroke-linecap:butt;stroke-linejoin:miter;stroke-miterlimit:4;stroke-dasharray:none;stroke-opacity:1"
       id="path19221" />
    <path
       d="M 500.08865,991.46564 L 500.08865,950.55446"
       style="fill:none;fill-rule:evenodd;stroke:#000000;stroke-width:3;stroke-linecap:butt;stroke-linejoin:miter;stroke-miterlimit:4;stroke-dasharray:none;stroke-opacity:1"
       id="path19223" />
    <path
       d="M 599.02046,950.42819 L 599.02046,992.34952"
       style="fill:none;fill-rule:evenodd;stroke:#000000;stroke-width:3;stroke-linecap:butt;stroke-linejoin:miter;stroke-miterlimit:4;stroke-dasharray:none;stroke-opacity:1"
       id="path19225" />
    <path
       d="M 446.42429,992.41266 L 446.42429,1048.2867"
       style="fill:none;fill-rule:evenodd;stroke:#000000;stroke-width:3;stroke-linecap:butt;stroke-linejoin:miter;stroke-miterlimit:4;stroke-dasharray:none;stroke-opacity:1"
       id="path19227" />
    <path
       d="M 550.78568,992.34952 L 550.78568,1048.413"
       style="fill:none;fill-rule:evenodd;stroke:#000000;stroke-width:3;stroke-linecap:butt;stroke-linejoin:miter;stroke-miterlimit:4;stroke-dasharray:none;stroke-opacity:1"
       id="path19229" />
    <path
       d="M 598.76792,1048.2867 L 598.76792,1097.5317"
       style="fill:none;fill-rule:evenodd;stroke:#000000;stroke-width:3;stroke-linecap:butt;stroke-linejoin:miter;stroke-miterlimit:4;stroke-dasharray:none;stroke-opacity:1"
       id="path19231" />
    <path
       d="M 399.38906,1048.2867 L 399.38906,1097.4054"
       style="fill:none;fill-rule:evenodd;stroke:#000000;stroke-width:3;stroke-linecap:butt;stroke-linejoin:miter;stroke-miterlimit:4;stroke-dasharray:none;stroke-opacity:1"
       id="path19233" />
    <path
       d="M 446.73996,1097.4054 L 446.73996,1143.3673"
       style="fill:none;fill-rule:evenodd;stroke:#000000;stroke-width:3;stroke-linecap:butt;stroke-linejoin:miter;stroke-miterlimit:4;stroke-dasharray:none;stroke-opacity:1"
       id="path19235" />
    <path
       d="M 550.2806,1097.7842 L 550.2806,1143.4936"
       style="fill:none;fill-rule:evenodd;stroke:#000000;stroke-width:3;stroke-linecap:butt;stroke-linejoin:miter;stroke-miterlimit:4;stroke-dasharray:none;stroke-opacity:1"
       id="path19237" />
    <path
       d="M 710.89485,914.31524 C 711.02112,914.82031 710.89485,958.25687 710.89485,958.25687"
       style="fill:none;fill-rule:evenodd;stroke:#000000;stroke-width:3;stroke-linecap:butt;stroke-linejoin:miter;stroke-miterlimit:4;stroke-dasharray:none;stroke-opacity:1"
       id="path19239" />
    <path
       d="M 683.74701,1023.0329 L 683.74701,970.88378"
       style="fill:none;fill-rule:evenodd;stroke:#000000;stroke-width:3;stroke-linecap:butt;stroke-linejoin:miter;stroke-miterlimit:4;stroke-dasharray:none;stroke-opacity:1"
       id="path19241" />
    <path
       d="M 713.1677,1010.6585 L 713.1677,1058.7671"
       style="fill:none;fill-rule:evenodd;stroke:#000000;stroke-width:3;stroke-linecap:butt;stroke-linejoin:miter;stroke-miterlimit:4;stroke-dasharray:none;stroke-opacity:1"
       id="path19243" />
    <path
       d="M 684.37835,1072.1516 L 684.37835,1118.4923"
       style="fill:none;fill-rule:evenodd;stroke:#000000;stroke-width:3;stroke-linecap:butt;stroke-linejoin:miter;stroke-miterlimit:4;stroke-dasharray:none;stroke-opacity:1"
       id="path19245" />
    <path
       d="M 428.75,879.51786 L 428.75,913.08928"
       style="fill:none;fill-rule:evenodd;stroke:#000000;stroke-width:3;stroke-linecap:butt;stroke-linejoin:miter;stroke-miterlimit:4;stroke-dasharray:none;stroke-opacity:1"
       id="path19247" />
    <path
       d="M 572.14286,880.23214 L 572.14286,911.57143"
       style="fill:none;fill-rule:evenodd;stroke:#000000;stroke-width:3;stroke-linecap:butt;stroke-linejoin:miter;stroke-miterlimit:4;stroke-dasharray:none;stroke-opacity:1"
       id="path19249" />
  </g>
</svg>
