<?xml version="1.0" encoding="UTF-8"?>
<svg xmlns="http://www.w3.org/2000/svg" width="450" height="300">
  <rect
     fill="#fffe00"
     height="300"
     width="450" />
  <rect
     fill="#fffe00"
     y="235.2"
     height="4.8"
     width="450" />
  <g
     fill="#cb0000"
     transform="matrix(0.23445504,0,0,0.24,224.97625,-39.9269)">
    <path
       fill="#cb0000"
       d="m 229.4387,345.06799 0.93549,57.4965 -57.43044,-0.94277 57.01784,57.09152 -56.98103,56.95154 57.40811,-0.84709 -0.89856,57.51885 57.04732,-57.06206 57.06207,57.00316 -0.95758,-57.4744 57.45253,0.87648 -56.99577,-56.98108 57.04732,-57.06203 -57.49649,0.93549 0.98693,-57.56304 -57.1136,57.12834 -57.08414,-57.06941 z m 20.79969,49.07494 36.2881,36.27874 36.25664,-36.266 -0.48242,28.72628 28.79243,-0.46775 -36.30083,36.31019 36.26599,36.21245 -28.77046,-0.43823 0.48987,28.68199 -36.24393,-36.19039 -36.27874,36.2881 0.46033,-28.74837 -28.68196,0.40145 36.19036,-36.1997 -36.22181,-36.30084 28.68208,0.48243 -0.44565,-28.77035 z" />
    <path
       fill="#cb0000"
       d="m -242.71875,572.5625 -84.71875,85.9375 71.21875,70.1875 56.5625,-0.40625 49.09375,-49.78125 -56.96875,-56.21875 -35.0625,35.5625 21.40625,21.09375 14.0625,-14.25 14.25,14.03125 -28.125,28.5 -49.875,-49.15625 63.15625,-64.09375 171.8125,169.46875 0,-42.25 -150.8125,-148.625 -56,0 z m 429.4375,0 -150.8125,148.625 0,42.25 171.8125,-169.46875 63.15625,64.09375 -49.875,49.15625 -28.125,-28.5 14.25,-14.03125 14.0625,14.25 21.40625,-21.09375 -35.0625,-35.5625 -56.96875,56.21875 49.09375,49.78125 56.5625,0.40625 71.21875,-70.1875 -84.71875,-85.9375 -56,0 z m -323.03125,119.96875 -70.15625,71.15625 0.375,56.53125 42.75,42.1875 63.15625,-64.09375 -35.625,-35.125 -21,21.375 14.25,14.09375 L -156.625,812.875 -185.09375,784.75 -136,734.90625 -65.90625,804 l -0.02444,304.9977 30.174498,2.2966 -0.15006,-319.7318 -100.406248,-99.03125 z m 272.625,0 -100.40625,99.03125 -1.57e-4,319.5854 30.081472,-0.43 L 65.90625,804 136,734.90625 185.09375,784.75 156.625,812.875 l -14.0625,-14.21875 14.25,-14.09375 -21,-21.375 -35.625,35.125 63.15625,64.09375 42.75,-42.1875 0.375,-56.53125 -70.15625,-71.15625 z M 0,686.375 151.5,537 88.34375,472.9375 38.5,522.0625 l 28.0625,28.53125 14.28125,-14 -14.0625,-14.3125 21.375,-21.0625 35.0625,35.59375 -57,56.125 L 17.125,543.125 17.53125,486.5625 88.75,416.375 l 83.875,85.09375 0,56.875 -156.6875,154.46875 0,5.5625 -0.03125,0 c 0,0 -0.262228,448.8222 -0.262228,448.8222 0,0 -31.141305,0.4301 -31.141305,0.4301 0,0 -0.408967,-449.2523 -0.408967,-449.2523 l -0.03125,0 0,-5.5625 -156.6875,-154.46875 0,-56.875 83.875,-85.09375 71.21875,70.1875 0.40625,56.5625 -49.09375,49.8125 -57,-56.125 35.0625,-35.59375 21.375,21.0625 -14.0625,14.3125 14.28125,14 L -38.5,522.0625 -88.34375,472.9375 -151.5,537" />
    <path
       fill="#cb0000"
       d="m -229.4387,345.06799 -0.93549,57.4965 57.43044,-0.94277 -57.01784,57.09152 56.98103,56.95154 -57.40811,-0.84709 0.89856,57.51885 -57.04732,-57.06206 -57.06207,57.00316 0.95758,-57.4744 -57.45253,0.87648 56.99577,-56.98108 -57.04732,-57.06203 57.49649,0.93549 -0.98693,-57.56304 57.1136,57.12834 57.08414,-57.06941 z m -20.79969,49.07494 -36.2881,36.27874 -36.25664,-36.266 0.48242,28.72628 -28.79243,-0.46775 36.30083,36.31019 -36.26599,36.21245 28.77046,-0.43823 -0.48987,28.68199 36.24393,-36.19039 36.27874,36.2881 -0.46033,-28.74837 28.68196,0.40145 -36.19036,-36.1997 36.22181,-36.30084 -28.68208,0.48243 0.44565,-28.77035 z" />
    <path
       fill="#cb0000"
       d="m -57.10505,219.92063 0.93549,57.4965 -57.43044,-0.94277 57.01784,57.09152 -56.98103,56.95154 57.40811,-0.84709 -0.89856,57.51885 57.04732,-57.06206 57.06207,57.00316 -0.95758,-57.4744 57.45253,0.87648 -56.99577,-56.98108 57.04732,-57.06203 -57.49649,0.93549 0.98693,-57.56304 -57.1136,57.12834 -57.08414,-57.06941 z m 20.79969,49.07494 36.2881,36.27874 36.25664,-36.266 -0.48242,28.72628 28.79243,-0.46775 -36.30083,36.31019 36.26599,36.21245 -28.77046,-0.43823 0.48987,28.68199 -36.24393,-36.19039 -36.27874,36.2881 0.46033,-28.74837 -28.68196,0.40145 36.19036,-36.1997 -36.22181,-36.30084 28.68208,0.48243 -0.44565,-28.77035 z" />
  </g>
  <rect
     fill="#cb0000"
     y="240"
     height="60"
     width="450" />
  <path
     fill="#cb0000"
     d="m 233.373,225.6044 216.627,-0.004 0,7.2 -216.627,0.004 m -16.746,-0.004 -216.627,0 0,-7.2 216.627,-0.004"
     sodipodi:nodetypes="cccccccc" />
</svg>
