<?xml version="1.0" encoding="UTF-8" standalone="no"?>
<!-- Created with Inkscape (http://www.inkscape.org/) -->
<svg
   xmlns:dc="http://purl.org/dc/elements/1.1/"
   xmlns:cc="http://web.resource.org/cc/"
   xmlns:rdf="http://www.w3.org/1999/02/22-rdf-syntax-ns#"
   xmlns:svg="http://www.w3.org/2000/svg"
   xmlns="http://www.w3.org/2000/svg"
   xmlns:sodipodi="http://sodipodi.sourceforge.net/DTD/sodipodi-0.dtd"
   xmlns:inkscape="http://www.inkscape.org/namespaces/inkscape"
   version="1.0"
   width="324"
   height="216"
   id="svg2"
   sodipodi:version="0.32"
   inkscape:version="0.44"
   sodipodi:docname="us-comn.svg"
   sodipodi:docbase="C:\Documents and Settings\Zachary\Desktop\My Pictures\SVG">
  <metadata
     id="metadata1880">
    <rdf:RDF>
      <cc:Work
         rdf:about="">
        <dc:format>image/svg+xml</dc:format>
        <dc:type
           rdf:resource="http://purl.org/dc/dcmitype/StillImage" />
      </cc:Work>
    </rdf:RDF>
  </metadata>
  <sodipodi:namedview
     inkscape:window-height="712"
     inkscape:window-width="1024"
     inkscape:pageshadow="2"
     inkscape:pageopacity="0.0"
     guidetolerance="10.0"
     gridtolerance="10.0"
     objecttolerance="10.0"
     borderopacity="1.0"
     bordercolor="#666666"
     pagecolor="#ffffff"
     id="base"
     inkscape:zoom="1.4176812"
     inkscape:cx="204.4874"
     inkscape:cy="211.96479"
     inkscape:window-x="-4"
     inkscape:window-y="-4"
     inkscape:current-layer="svg2" />
  <defs
     id="defs5" />
  <rect
     width="162"
     height="216"
     x="0"
     y="-3.8146973e-006"
     style="opacity:1;fill:blue;fill-opacity:1;fill-rule:nonzero;stroke:none;stroke-width:2;stroke-linecap:round;stroke-linejoin:miter;stroke-miterlimit:4;stroke-dasharray:none;stroke-opacity:1"
     id="rect1873" />
  <rect
     width="162"
     height="216"
     x="162"
     y="5.7220459e-006"
     style="opacity:1;fill:#c80000;fill-opacity:1;fill-rule:nonzero;stroke:none;stroke-width:2;stroke-linecap:round;stroke-linejoin:miter;stroke-miterlimit:4;stroke-dasharray:none;stroke-opacity:1"
     id="rect2760" />
  <path
     d="M 237.99987,108 C 238.04947,135.13567 223.57482,160.23127 200.04002,173.81341 C 176.5052,187.39554 147.49479,187.39554 123.95998,173.81341 C 100.42517,160.23127 85.950532,135.13567 86.000125,108 C 85.950532,80.864334 100.42517,55.76874 123.95998,42.186599 C 147.49479,28.604457 176.5052,28.604457 200.04002,42.186599 C 223.57482,55.76874 238.04947,80.864334 237.99987,108 L 237.99987,108 z "
     style="opacity:1;fill:none;fill-opacity:1;fill-rule:nonzero;stroke:#e9c320;stroke-width:20.00000191;stroke-linecap:round;stroke-linejoin:miter;stroke-miterlimit:4;stroke-dasharray:none;stroke-opacity:1"
     id="path5417" />
  <path
     d="M 158.70557,36.668435 C 158.70557,36.668435 166.87003,48.700265 166.15385,62.7374 C 165.43767,76.774535 159.13528,79.496021 159.27851,96.254642 C 159.42175,113.01326 166.15384,112.01061 166.15384,127.76658 C 166.15384,143.52255 159.27851,145.52785 159.27851,159.27851 C 159.27851,173.02917 168.44562,182.76923 168.44562,182.76923"
     style="fill:none;fill-opacity:0.75;fill-rule:evenodd;stroke:#e9c320;stroke-width:8;stroke-linecap:butt;stroke-linejoin:miter;stroke-opacity:1;stroke-miterlimit:4;stroke-dasharray:none"
     id="path7189"
     sodipodi:nodetypes="cssssc" />
  <path
     d="M 92.380069,85.730619 L 93.648841,84.51284 C 94.647038,85.558065 95.211865,86.669296 95.343352,87.846566 C 95.474807,89.023832 95.185037,90.181428 94.473981,91.319322 C 93.7381,92.496993 92.899844,93.304943 91.959261,93.743224 C 91.018648,94.181487 89.973378,94.30908 88.823395,94.12595 C 87.673416,93.942831 86.576686,93.52525 85.533191,92.873202 C 84.395293,92.162161 83.538575,91.32455 82.963033,90.360353 C 82.387505,89.396164 82.130591,88.375423 82.192275,87.298125 C 82.253983,86.220846 82.586018,85.200203 83.188378,84.236198 C 83.871484,83.143026 84.724169,82.397634 85.746451,82.000024 C 86.768731,81.602447 87.875826,81.572221 89.067737,81.909346 L 88.513571,83.54257 C 87.560164,83.299196 86.751504,83.305169 86.087576,83.560487 C 85.423655,83.815833 84.863477,84.308723 84.407037,85.03916 C 83.882297,85.878934 83.644969,86.706562 83.695031,87.522044 C 83.745116,88.33754 84.037872,89.071487 84.573319,89.723899 C 85.108751,90.376295 85.736727,90.927617 86.457229,91.377827 C 87.386457,91.958475 88.282256,92.329963 89.144671,92.492306 C 90.007059,92.654627 90.788237,92.557205 91.488164,92.2 C 92.188115,91.842821 92.746099,91.331285 93.162189,90.66544 C 93.668298,89.855498 93.86322,89.023817 93.74701,88.170451 C 93.630787,87.317089 93.175134,86.503813 92.380069,85.730619 L 92.380069,85.730619 z "
     id="path1925" />
  <path
     d="M 90.747175,78.850902 C 89.016962,77.593835 87.999928,76.145148 87.696074,74.504841 C 87.392234,72.864551 87.774137,71.309651 88.841782,69.840136 C 89.540928,68.877863 90.401093,68.177418 91.422279,67.738801 C 92.443476,67.30021 93.512523,67.177036 94.629436,67.369261 C 95.746345,67.561521 96.826238,68.036484 97.869121,68.794156 C 98.926203,69.562193 99.716923,70.462595 100.24126,71.495359 C 100.76559,72.52816 100.95812,73.591469 100.81886,74.685295 C 100.67959,75.779142 100.28105,76.778765 99.623246,77.684163 C 98.910327,78.665416 98.036162,79.370174 97.000751,79.79844 C 95.965343,80.226717 94.892944,80.342033 93.78357,80.144401 C 92.674194,79.946772 91.662068,79.515609 90.747175,78.850902 L 90.747175,78.850902 z "
     id="path1923" />
  <path
     style="fill:#e9c320;fill-opacity:1"
     d="M 91.801721,77.444302 C 93.057913,78.356978 94.292842,78.738171 95.506516,78.587884 C 96.720195,78.43761 97.697269,77.852886 98.437741,76.83371 C 99.191981,75.795583 99.447764,74.675949 99.205085,73.474798 C 98.962402,72.27367 98.170307,71.185771 96.828793,70.211095 C 95.980274,69.594625 95.135416,69.199882 94.294215,69.026889 C 93.453018,68.853908 92.657597,68.916969 91.907949,69.216068 C 91.158308,69.515193 90.533792,70.008423 90.034402,70.695758 C 89.324935,71.672278 89.049858,72.756168 89.209169,73.947428 C 89.368494,75.138708 90.232672,76.304328 91.801721,77.444302 L 91.801721,77.444302 z "
     id="path1921" />
  <path
     d="M 102.84205,69.217052 L 92.418042,61.643581 L 93.926541,59.56732 L 103.09985,62.462363 C 103.9525,62.734235 104.58739,62.941996 105.00446,63.085679 C 104.71132,62.69165 104.28865,62.102102 103.73647,61.317023 L 98.297042,53.551836 L 99.645405,51.695966 L 110.06937,59.269476 L 109.10334,60.599135 L 100.37872,54.260357 L 106.90258,63.628199 L 105.9985,64.872552 L 94.93419,61.440127 L 103.80807,67.887395 L 102.84205,69.217052 z "
     id="path1919" />
  <path
     d="M 111.64058,58.441268 L 107.83816,45.173129 L 109.30518,44.067641 L 121.27098,51.184216 L 119.71973,52.353171 L 116.17095,50.141117 L 111.86815,53.383515 L 113.08655,57.35165 L 111.64058,58.441268 z "
     id="path1917" />
  <path
     style="fill:#e9c320;fill-opacity:1"
     d="M 111.4255,51.978274 L 114.91407,49.34944 L 111.69263,47.308906 C 110.71271,46.690046 109.93338,46.162131 109.35465,45.72515 C 109.72083,46.483707 110.02967,47.278121 110.28116,48.108403 L 111.4255,51.978274 z "
     id="path1915" />
  <path
     d="M 123.34752,49.931214 L 117.10088,38.661943 L 118.63058,37.814011 L 129.4541,43.380856 L 124.54967,34.533012 L 125.97949,33.740463 L 132.22613,45.009734 L 130.69642,45.857672 L 119.86864,40.283135 L 124.77734,49.138665 L 123.34752,49.931214 z "
     id="path1913" />
  <path
     d="M 142.10581,36.675388 L 143.86175,36.772796 C 143.77808,38.21566 143.35059,39.386614 142.57926,40.285658 C 141.80792,41.184704 140.76368,41.762245 139.44653,42.018272 C 138.08339,42.283245 136.9208,42.221216 135.95876,41.832213 C 134.99676,41.443195 134.19057,40.765726 133.54022,39.799805 C 132.88986,38.833892 132.44727,37.746999 132.21249,36.539136 C 131.95647,35.221998 131.9848,34.024176 132.29745,32.945675 C 132.61009,31.867192 133.18141,30.98315 134.01136,30.29355 C 134.84132,29.603975 135.8142,29.150736 136.93004,28.933826 C 138.19541,28.687873 139.32209,28.803135 140.31006,29.279613 C 141.29805,29.756114 142.07519,30.545177 142.6415,31.646801 L 141.0691,32.355358 C 140.59688,31.492111 140.04099,30.90477 139.40148,30.593329 C 138.76193,30.281914 138.01941,30.208376 137.17392,30.372712 C 136.20187,30.56167 135.43472,30.952534 134.87247,31.545306 C 134.31019,32.138103 133.97311,32.852763 133.86112,33.689295 C 133.74918,34.525836 133.77422,35.361111 133.93634,36.195101 C 134.14541,37.270679 134.48465,38.179179 134.9541,38.920608 C 135.42352,39.662048 136.02754,40.166913 136.76612,40.435204 C 137.50473,40.703502 138.25936,40.762748 139.0301,40.612933 C 139.96765,40.430694 140.70882,40.006079 141.25368,39.339069 C 141.79852,38.672075 142.08256,37.784181 142.10581,36.675388 L 142.10581,36.675388 z "
     id="path1911" />
  <path
     d="M 146.87726,38.507356 L 146.20293,25.640252 L 147.90567,25.551015 L 148.18258,30.834777 L 154.87066,30.484269 L 154.59375,25.200508 L 156.2965,25.111271 L 156.97083,37.978375 L 155.26809,38.067612 L 154.95024,32.002697 L 148.26216,32.353202 L 148.58001,38.418119 L 146.87726,38.507356 z "
     id="path1909" />
  <path
     d="M 161.24224,37.678751 L 161.24224,24.793988 L 170.55865,24.793988 L 170.55865,26.314496 L 162.94732,26.314496 L 162.94732,30.260781 L 170.07525,30.260781 L 170.07525,31.772501 L 162.94732,31.772501 L 162.94732,36.158251 L 170.85748,36.158251 L 170.85748,37.678751 L 161.24224,37.678751 z "
     id="path1907" />
  <path
     d="M 184.5412,42.307223 L 189.15868,30.278258 L 190.79156,30.905054 L 193.48428,42.774631 L 197.10962,33.330333 L 198.63581,33.91618 L 194.01833,45.945145 L 192.38546,45.318352 L 189.69585,33.440567 L 186.06739,42.89307 L 184.5412,42.307223 z "
     id="path1905" />
  <path
     d="M 196.00371,47.647283 L 206.88132,39.151439 L 208.45586,40.097517 L 206.33993,53.85792 L 204.67499,52.85752 L 205.39658,48.738501 L 200.77843,45.963631 L 197.55565,48.579785 L 196.00371,47.647283 z "
     id="path1903" />
  <path
     style="fill:#e9c320;fill-opacity:1"
     d="M 201.91554,45.026807 L 205.65977,47.276575 L 206.34497,43.525316 C 206.55167,42.384915 206.74922,41.464581 206.93758,40.764294 C 206.37142,41.387966 205.75055,41.97191 205.07494,42.516119 L 201.91554,45.026807 z "
     id="path1901" />
  <path
     d="M 210.23159,57.044145 L 217.83574,48.598848 L 214.68101,45.758312 L 215.69842,44.628352 L 223.28804,51.462105 L 222.27064,52.592071 L 219.10287,49.739779 L 211.49868,58.185062 L 210.23159,57.044145 z "
     id="path1899" />
  <path
     d="M 215.64672,62.225694 L 225.51703,53.94353 L 226.61305,55.249697 L 216.74274,63.531861 L 215.64672,62.225694 z "
     id="path1897" />
  <path
     d="M 222.57186,63.045375 C 224.08413,61.53312 225.67408,60.75524 227.34173,60.711735 C 229.00935,60.668238 230.48536,61.288683 231.76976,62.57307 C 232.61081,63.414148 233.16807,64.373295 233.44153,65.450526 C 233.71497,66.52776 233.66939,67.602914 233.3048,68.676003 C 232.94018,69.749083 232.30213,70.741377 231.39064,71.65289 C 230.46669,72.576807 229.45368,73.216933 228.3516,73.573248 C 227.24949,73.929556 226.16916,73.953376 225.11058,73.644716 C 224.05199,73.336033 223.12702,72.786024 222.33568,71.994679 C 221.47804,71.137036 220.91871,70.163379 220.6577,69.073722 C 220.39667,67.984064 220.45054,66.906832 220.81928,65.842031 C 221.18803,64.777229 221.77222,63.845018 222.57186,63.045375 L 222.57186,63.045375 z "
     id="path1895" />
  <path
     style="fill:#e9c320;fill-opacity:1"
     d="M 223.79617,64.306982 C 222.69822,65.40493 222.12853,66.56502 222.0871,67.787259 C 222.04566,69.009505 222.47033,70.066021 223.36112,70.956813 C 224.26848,71.864173 225.33431,72.29196 226.55863,72.240174 C 227.78294,72.188381 228.98135,71.576228 230.15389,70.403708 C 230.89551,69.662076 231.41757,68.889374 231.72002,68.085593 C 232.02247,67.281813 232.08462,66.486323 231.90648,65.699113 C 231.72831,64.911905 231.33885,64.217921 230.7381,63.617155 C 229.88459,62.763656 228.85708,62.322407 227.65557,62.293399 C 226.45403,62.2644 225.16757,62.935589 223.79617,64.306982 L 223.79617,64.306982 z "
     id="path1893" />
  <path
     d="M 226.49987,78.802833 L 238.60759,74.395977 L 239.2058,76.039534 L 232.01427,85.858902 L 241.52047,82.398988 L 242.0796,83.935156 L 229.97188,88.342012 L 229.37368,86.698464 L 236.57339,76.87605 L 227.05901,80.339014 L 226.49987,78.802833 z "
     id="flowRoot1882" />
  <path
     d="M 91.592505,123.6008 L 91.836537,124.65802 L 84.912749,126.25648 L 85.791116,130.06116 L 84.901429,130.26655 L 83.779,125.40471 L 91.592505,123.6008 z "
     id="path1962" />
  <path
     d="M 94.385144,133.78825 C 94.676134,134.87428 94.544721,135.83996 93.990897,136.68529 C 93.437059,137.5306 92.547953,138.11729 91.323579,138.44537 C 90.102649,138.77251 89.041042,138.7085 88.138759,138.25335 C 87.236472,137.79819 86.63982,137.0276 86.348821,135.94157 C 86.056892,134.85207 86.18675,133.88403 86.738385,133.03745 C 87.290018,132.19086 88.178032,131.60353 89.402419,131.27546 C 90.626795,130.94739 91.690362,131.0118 92.59312,131.46868 C 93.495868,131.92557 94.093206,132.69876 94.385144,133.78825 L 94.385144,133.78825 z "
     id="path1958" />
  <path
     style="fill:#e9c320;fill-opacity:1"
     d="M 93.5343,134.01623 C 93.330404,133.25532 92.884839,132.7269 92.197606,132.43098 C 91.510352,132.13507 90.677325,132.11825 89.698516,132.38052 C 88.723155,132.64186 88.011872,133.07248 87.564658,133.67237 C 87.117442,134.27226 86.995778,134.95266 87.199664,135.71358 C 87.403549,136.4745 87.84865,137.00118 88.534969,137.29364 C 89.221284,137.58609 90.052118,137.60165 91.027481,137.34031 C 92.006289,137.07804 92.719764,136.64868 93.167917,136.05226 C 93.616047,135.45582 93.738175,134.77715 93.5343,134.01623 L 93.5343,134.01623 z "
     id="path1960" />
  <path
     d="M 94.822594,144.94952 C 94.823879,145.19523 94.738492,145.46416 94.566424,145.75631 C 94.394344,146.04846 94.131153,146.37293 93.776843,146.72974 L 92.063308,148.48426 L 91.683853,147.38224 L 93.294905,145.74253 C 93.716484,145.31712 93.969709,144.95821 94.054591,144.66579 C 94.13946,144.37336 94.111955,144.02401 93.972074,143.61773 L 93.587373,142.50047 L 90.382865,143.60386 L 90.02964,142.57801 L 97.611778,139.96729 L 98.409158,142.28307 C 98.707582,143.1498 98.749109,143.85882 98.533741,144.41015 C 98.318359,144.96147 97.845019,145.36304 97.11373,145.61485 C 96.636346,145.77921 96.202052,145.80473 95.81083,145.69139 C 95.419604,145.57804 95.090189,145.33075 94.822594,144.94952 L 94.822594,144.94952 z "
     id="path1956" />
  <path
     style="fill:#e9c320;fill-opacity:1"
     d="M 97.121981,141.28342 L 94.430396,142.2102 L 94.874551,143.50013 C 95.044741,143.99443 95.287532,144.32835 95.602923,144.50189 C 95.918293,144.67543 96.297745,144.68584 96.741269,144.53313 C 97.184781,144.38042 97.475682,144.13918 97.613991,143.80943 C 97.752277,143.47968 97.736325,143.06765 97.566135,142.57335 L 97.121981,141.28342 z "
     id="path1954" />
  <path
     d="M 100.60845,146.73526 L 101.85489,148.58319 C 102.72388,149.87154 103.09371,150.99773 102.96436,151.96177 C 102.835,152.9258 102.20035,153.79226 101.06043,154.56115 C 99.914565,155.33403 98.868738,155.5989 97.922964,155.35573 C 96.977183,155.11256 96.0718,154.34977 95.206806,153.06735 L 93.960369,151.21943 L 100.60845,146.73526 z "
     id="path1950" />
  <path
     style="fill:#e9c320;fill-opacity:1"
     d="M 100.47598,148.13331 L 95.306238,151.62033 L 96.039082,152.70682 C 96.657793,153.6241 97.318613,154.15557 98.021543,154.30124 C 98.724467,154.4469 99.524183,154.21739 100.4207,153.6127 C 101.31126,153.012 101.81993,152.359 101.94672,151.65369 C 102.07349,150.94838 101.82753,150.13708 101.20883,149.2198 L 100.47598,148.13331 z "
     id="path1952" />
  <path
     d="M 109.36785,157.82947 L 108.63287,158.59062 C 108.47346,158.16285 108.29598,157.78738 108.10044,157.46413 C 107.90484,157.14089 107.68472,156.86108 107.43999,156.62482 C 107.01502,156.21434 106.60766,155.98027 106.21792,155.92249 C 105.8282,155.86473 105.4866,155.98785 105.19307,156.29169 C 104.94682,156.54678 104.83752,156.81331 104.86515,157.09137 C 104.89282,157.36946 105.08188,157.75486 105.43234,158.24762 L 105.81044,158.79936 C 106.28559,159.47232 106.52669,160.08215 106.53367,160.62906 C 106.54071,161.17596 106.31784,161.68371 105.86513,162.15247 C 105.3254,162.71149 104.72884,162.95421 104.07548,162.88079 C 103.42211,162.80739 102.73351,162.42122 102.00974,161.72221 C 101.7367,161.45857 101.47618,161.1472 101.22806,160.78812 C 100.97994,160.42906 100.74949,160.02981 100.53675,159.59038 L 101.31279,158.78677 C 101.45796,159.27044 101.63901,159.70402 101.85589,160.08769 C 102.07273,160.47139 102.32796,160.805 102.62159,161.08858 C 103.06724,161.51891 103.49569,161.76339 103.90697,161.82204 C 104.31817,161.88068 104.6806,161.7478 104.99395,161.42323 C 105.26753,161.13989 105.39458,160.8344 105.3749,160.50683 C 105.35528,160.17923 105.18564,159.784 104.86611,159.32106 L 104.48043,158.76943 C 104.01024,158.09135 103.76447,157.50312 103.74312,157.0046 C 103.72169,156.50611 103.92373,156.0366 104.34908,155.59614 C 104.84153,155.08624 105.40927,154.85784 106.05215,154.91119 C 106.69503,154.96455 107.332,155.29593 107.96307,155.90533 C 108.23352,156.16648 108.4855,156.45715 108.71899,156.77717 C 108.95244,157.09729 109.1688,157.44802 109.36785,157.82947 L 109.36785,157.82947 z "
     id="path1948" />
  <path
     d="M 115.85759,163.25875 C 116.77859,163.90365 117.29865,164.72787 117.41776,165.73142 C 117.53685,166.73497 117.23288,167.75592 116.50583,168.79425 C 115.78082,169.82965 114.92644,170.46301 113.94269,170.69432 C 112.95892,170.92563 112.00653,170.71884 111.08552,170.07394 C 110.16157,169.42699 109.63881,168.60195 109.51721,167.59885 C 109.39561,166.59574 109.69834,165.57501 110.4254,164.53667 C 111.15244,163.49834 112.00859,162.86403 112.99382,162.63374 C 113.97905,162.40346 114.93363,162.6118 115.85759,163.25875 L 115.85759,163.25875 z "
     id="path1944" />
  <path
     style="fill:#e9c320;fill-opacity:1"
     d="M 115.35234,163.9803 C 114.70704,163.52847 114.02606,163.41008 113.3094,163.62514 C 112.59272,163.84022 111.94377,164.36279 111.36254,165.19287 C 110.78336,166.02002 110.51528,166.8071 110.5583,167.55411 C 110.60131,168.30112 110.94547,168.90054 111.59076,169.35239 C 112.23605,169.80422 112.91557,169.92158 113.62931,169.70446 C 114.34305,169.48734 114.9895,168.96521 115.56869,168.13805 C 116.14991,167.30797 116.42048,166.52046 116.38041,165.7755 C 116.34032,165.03055 115.99763,164.43215 115.35234,163.9803 L 115.35234,163.9803 z "
     id="path1946" />
  <path
     d="M 121.74973,167.03838 L 125.61467,169.54826 L 125.11737,170.31405 L 122.16237,168.39508 L 120.87526,170.3771 L 123.54198,172.10889 L 123.04465,172.87465 L 120.37796,171.14285 L 118.29222,174.3546 L 117.38231,173.76372 L 121.74973,167.03838 z "
     id="path1942" />
  <path
     d="M 129.61642,172.02193 L 136.03052,174.23045 L 135.73327,175.09383 L 133.04165,174.16704 L 130.72817,180.88585 L 129.69728,180.53085 L 132.01073,173.81208 L 129.31914,172.88527 L 129.61642,172.02193 z "
     id="path1940" />
  <path
     d="M 137.22145,175.69525 L 138.2827,175.92083 L 137.59926,179.13612 L 141.45551,179.95577 L 142.13893,176.74048 L 143.20021,176.96609 L 141.53294,184.80989 L 140.47168,184.58431 L 141.26566,180.84892 L 137.40943,180.02925 L 136.61546,183.76466 L 135.55418,183.53905 L 137.22145,175.69525 z "
     id="path1938" />
  <path
     d="M 145.17563,177.93371 L 150.1966,178.63935 L 150.0695,179.54355 L 146.12295,178.98891 L 145.79255,181.33983 L 149.57424,181.8713 L 149.44717,182.77551 L 145.66549,182.24403 L 145.26108,185.12152 L 149.30338,185.68961 L 149.17629,186.59383 L 144.05961,185.8747 L 145.17563,177.93371 z "
     id="path1936" />
  <path
     d="M 160.09926,180.04069 L 160.19146,181.09476 C 159.76407,180.93445 159.36426,180.82209 158.99199,180.75758 C 158.61971,180.69311 158.26414,180.67571 157.92525,180.70533 C 157.33669,180.75684 156.89275,180.9107 156.59348,181.16691 C 156.2942,181.42316 156.16297,181.76172 156.19981,182.18263 C 156.23068,182.53577 156.36014,182.79314 156.58815,182.95471 C 156.81615,183.11628 157.23107,183.22645 157.83288,183.28522 L 158.49735,183.36188 C 159.31693,183.44474 159.93539,183.66291 160.35272,184.01638 C 160.77003,184.36987 161.00709,184.87122 161.06389,185.52043 C 161.13162,186.29448 160.92345,186.90398 160.43939,187.3489 C 159.95533,187.79383 159.21213,188.06013 158.20977,188.14785 C 157.83166,188.18091 157.42572,188.1733 156.99196,188.12497 C 156.55819,188.07665 156.10568,187.98866 155.63444,187.86093 L 155.53707,186.74799 C 155.99736,186.95576 156.44341,187.10363 156.87527,187.19165 C 157.30711,187.27967 157.72634,187.3059 158.13299,187.27034 C 158.75009,187.21634 159.21569,187.05339 159.52978,186.78148 C 159.84386,186.50959 159.98125,186.14893 159.94193,185.69946 C 159.90761,185.30708 159.76038,185.01084 159.50026,184.81074 C 159.24012,184.61066 158.83056,184.47935 158.27154,184.41682 L 157.60218,184.34598 C 156.78198,184.25601 156.17675,184.05554 155.78652,183.74462 C 155.39627,183.4337 155.17447,182.97326 155.1211,182.36327 C 155.0593,181.65699 155.25944,181.07876 155.72145,180.62857 C 156.18349,180.17839 156.85149,179.91506 157.72544,179.8386 C 158.09997,179.80584 158.48461,179.80633 158.87936,179.84009 C 159.2741,179.87385 159.68074,179.94072 160.09926,180.04069 L 160.09926,180.04069 z "
     id="path1934" />
  <path
     d="M 166.75224,179.84351 C 167.87043,179.72599 168.80365,180.00685 169.55194,180.68609 C 170.30022,181.36535 170.7406,182.33529 170.87311,183.59592 C 171.00523,184.853 170.77594,185.89152 170.18524,186.7115 C 169.59454,187.53148 168.74008,188.00024 167.62189,188.11777 C 166.50015,188.23567 165.56434,187.95598 164.81447,187.2787 C 164.0646,186.60142 163.6234,185.63246 163.49092,184.37182 C 163.35841,183.11119 163.5884,182.07079 164.18089,181.25062 C 164.77337,180.43045 165.63048,179.96142 166.75224,179.84351 L 166.75224,179.84351 z "
     id="path1930" />
  <path
     d="M 166.8443,180.71954 C 166.06087,180.8019 165.46926,181.15931 165.06947,181.7918 C 164.66969,182.4243 164.52276,183.24444 164.62869,184.25223 C 164.73424,185.25647 165.04828,186.02637 165.57083,186.56192 C 166.09339,187.09747 166.74638,187.32408 167.52983,187.24173 C 168.31327,187.15939 168.9031,186.80216 169.29933,186.17004 C 169.69555,185.53792 169.84088,184.71974 169.73533,183.7155 C 169.6294,182.70771 169.31695,181.93585 168.79797,181.39992 C 168.27897,180.864 167.62776,180.63721 166.8443,180.71954 L 166.8443,180.71954 z "
     id="path1932"
     style="fill:#e9c320;fill-opacity:1" />
  <path
     d="M 172.73438,179.74647 L 173.8047,179.53844 L 174.73425,184.32052 C 174.89821,185.16409 175.1692,185.74156 175.54701,186.05297 C 175.92487,186.36434 176.45658,186.45339 177.14199,186.32017 C 177.82389,186.18764 178.28166,185.90623 178.51537,185.47598 C 178.7491,185.04571 178.78399,184.40876 178.62,183.56519 L 177.69049,178.78313 L 178.76076,178.57507 L 179.71594,183.48897 C 179.91543,184.51531 179.81211,185.3397 179.40602,185.96219 C 178.99988,186.58462 178.30127,186.9922 177.31001,187.18488 C 176.31532,187.37824 175.51311,187.26239 174.90337,186.83741 C 174.29366,186.41243 173.88907,185.68672 173.68958,184.66037 L 172.73438,179.74647 z "
     id="path1928" />
  <path
     d="M 179.85639,178.24819 L 186.0536,175.48905 L 186.42498,176.3232 L 183.82441,177.48106 L 186.71465,183.97264 L 185.71859,184.41614 L 182.82834,177.92453 L 180.22775,179.08238 L 179.85639,178.24819 z "
     id="path1926" />
  <path
     d="M 187.54833,174.68157 L 188.5395,174.24022 L 189.87651,177.24318 L 193.47807,175.63967 L 192.14103,172.63674 L 193.13222,172.19544 L 196.39388,179.52119 L 195.40269,179.96254 L 193.84943,176.47382 L 190.24791,178.07733 L 191.80118,181.56602 L 190.80999,182.00732 L 187.54833,174.68157 z "
     id="path1924" />
  <path
     d="M 195.60061,171.93857 L 199.70254,168.95831 L 200.23926,169.69701 L 197.01505,172.03955 L 198.41047,173.96017 L 201.49997,171.71548 L 202.03668,172.45423 L 198.94718,174.69888 L 200.65515,177.04967 L 203.95755,174.6503 L 204.49427,175.38902 L 200.31404,178.42609 L 195.60061,171.93857 z "
     id="path1922" />
  <path
     d="M 207.38695,169.20736 C 207.62278,169.13839 207.90483,169.14635 208.23309,169.23122 C 208.56137,169.3161 208.94582,169.47966 209.38646,169.7219 L 211.54535,170.88543 L 210.5906,171.55395 L 208.57034,170.45728 C 208.0452,170.16929 207.63039,170.02481 207.32591,170.02382 C 207.02141,170.02284 206.69318,170.14558 206.3412,170.39202 L 205.37326,171.06978 L 207.3172,173.84601 L 206.42845,174.46833 L 201.8289,167.89953 L 203.83519,166.49471 C 204.58609,165.96894 205.25619,165.73359 205.84553,165.78865 C 206.43487,165.84371 206.95135,166.18803 207.39498,166.82158 C 207.68456,167.23517 207.82879,167.64561 207.82769,168.05291 C 207.82657,168.46023 207.67964,168.84505 207.38695,169.20736 L 207.38695,169.20736 z "
     id="path1920" />
  <path
     d="M 203.22906,168.00757 L 204.86185,170.33943 L 205.97938,169.55693 C 206.40763,169.25707 206.66169,168.93165 206.74158,168.58064 C 206.82147,168.22965 206.72688,167.86203 206.45784,167.47778 C 206.18877,167.09354 205.87671,166.88041 205.5216,166.83835 C 205.16651,166.79631 204.77484,166.92522 204.34659,167.22507 L 203.22906,168.00757 z "
     id="path1918"
     style="fill:#e9c320;fill-opacity:1" />
  <path
     d="M 208.041,164.44291 L 208.99939,163.3403 L 216.39509,165.058 L 211.33212,160.65681 L 212.02275,159.86228 L 218.07478,165.12325 L 217.11639,166.22586 L 209.72068,164.50817 L 214.78366,168.90935 L 214.09303,169.70388 L 208.041,164.44291 z "
     id="path1916" />
  <path
     d="M 215.63794,155.73042 L 217.04275,153.72413 C 217.55826,152.98792 218.11443,152.54791 218.71125,152.40409 C 219.30808,152.2603 219.92768,152.41329 220.57004,152.86307 C 221.21827,153.31697 221.57615,153.84841 221.64368,154.45739 C 221.7112,155.06639 221.48722,155.739 220.97172,156.47522 L 220.18922,157.59275 L 222.82906,159.44118 L 222.20675,160.32993 L 215.63794,155.73042 z "
     id="path1912" />
  <path
     d="M 216.9906,155.35307 L 219.45886,157.08135 L 220.24136,155.96382 C 220.53095,155.55024 220.64775,155.15556 220.59178,154.77978 C 220.5358,154.40401 220.30982,154.07748 219.91383,153.80021 C 219.52081,153.52501 219.13815,153.42536 218.76588,153.50128 C 218.39363,153.57721 218.0627,153.82196 217.7731,154.23553 L 216.9906,155.35307 z "
     id="path1914"
     style="fill:#e9c320;fill-opacity:1" />
  <path
     d="M 220.36329,149.68165 L 220.92211,148.75168 L 227.01303,152.41149 L 229.02414,149.06445 L 229.80682,149.5347 L 227.23689,153.81177 L 220.36329,149.68165 z "
     id="path1910" />
  <path
     d="M 224.94757,141.87883 L 225.34801,140.71586 L 233.92513,140.43694 L 233.5579,141.50341 L 231.37505,141.52436 L 230.19821,144.94216 L 231.90545,146.30256 L 231.53299,147.38426 L 224.94757,141.87883 z "
     id="path1906" />
  <path
     d="M 226.15754,141.64786 L 229.4517,144.33859 L 230.41171,141.55052 L 226.15754,141.64786 z "
     id="path1908"
     style="fill:#e9c320;fill-opacity:1" />
  <path
     d="M 227.97424,136.69804 L 228.27321,135.6551 L 235.98166,137.86546 L 235.68269,138.9084 L 227.97424,136.69804 z "
     id="path1904" />
  <path
     d="M 229.93861,133.2404 L 230.29194,131.82284 L 237.66137,129.99574 L 231.15213,128.37276 L 231.40677,127.35133 L 239.18759,129.29128 L 238.83426,130.70884 L 231.46483,132.53595 L 237.97407,134.15892 L 237.71943,135.18035 L 229.93861,133.2404 z "
     id="path1902" />
  <path
     d="M 233.8849,119.52447 L 234.88533,119.86892 C 234.5651,120.19419 234.2998,120.5137 234.08942,120.82756 C 233.87915,121.14141 233.71862,121.45923 233.60785,121.78083 C 233.41547,122.3395 233.37545,122.8076 233.48786,123.18516 C 233.60019,123.56287 233.85607,123.82044 234.2556,123.95796 C 234.59075,124.07341 234.87852,124.05981 235.11892,123.91723 C 235.3592,123.77468 235.62864,123.44046 235.92708,122.91461 L 236.2674,122.33875 C 236.67644,121.62365 237.12729,121.14743 237.62,120.90997 C 238.11263,120.67251 238.66704,120.65988 239.28323,120.87203 C 240.0179,121.12502 240.49007,121.56307 240.69962,122.18624 C 240.90917,122.80945 240.85021,123.59667 240.5226,124.54804 C 240.39905,124.90693 240.22698,125.27468 240.0064,125.65133 C 239.7858,126.02786 239.52136,126.40548 239.21305,126.78404 L 238.15673,126.42031 C 238.53372,126.08432 238.85022,125.73698 239.10631,125.37829 C 239.36239,125.01958 239.55683,124.64726 239.68978,124.26129 C 239.89142,123.67557 239.9319,123.18393 239.81127,122.78644 C 239.69062,122.38889 239.41704,122.11669 238.99047,121.96983 C 238.61805,121.8416 238.28748,121.85556 237.99893,122.01186 C 237.71032,122.16806 237.4238,122.48879 237.13926,122.97408 L 236.80233,123.55676 C 236.38651,124.26947 235.95722,124.74085 235.51446,124.97086 C 235.07172,125.20091 234.56083,125.21625 233.98188,125.01692 C 233.31153,124.78607 232.86465,124.36805 232.64135,123.76287 C 232.41799,123.15765 232.44917,122.44029 232.73475,121.61082 C 232.85719,121.25539 233.01407,120.90419 233.20544,120.55731 C 233.39689,120.21041 233.62335,119.8661 233.8849,119.52447 L 233.8849,119.52447 z "
     id="flowRoot1891" />
  <path
     style="fill:#e9c320;fill-opacity:1;fill-rule:evenodd;stroke:#e9c320;stroke-width:1px;stroke-linecap:butt;stroke-linejoin:miter;stroke-opacity:1"
     d="M 186.29971,48.945019 L 186.83429,61.774842 L 187.36887,70.328057 L 188.17073,75.13924 L 189.23988,87.701775 L 189.77446,89.305503 L 189.23988,93.047534 L 187.10158,90.641943 L 184.96327,88.503639 L 183.09226,86.632623 L 178.81565,86.098047 L 176.94464,84.761607 L 175.34091,84.761607 L 172.66803,88.236351 L 172.40074,91.443807 L 168.65871,98.92787 L 168.39142,101.33346 L 172.66803,101.06617 L 176.67735,99.462446 L 178.01379,98.126006 L 178.01379,99.997022 L 181.22124,105.34278 L 183.62683,108.55024 L 183.62683,114.96515 L 185.23056,118.70718 L 185.23056,120.31091 L 179.08294,127.10985 L 174.00447,141.96123 L 177.47921,140.89208 L 179.8848,132.33887 L 184.4287,124.32023 L 186.29971,124.32023 L 176.41006,145.43598 L 180.41938,145.43598 C 182.88297,134.32587 188.05021,128.62308 192.71463,121.91463 L 194.05107,121.91463 L 191.64547,126.45853 L 191.64547,128.32955 L 198.59496,124.8548 L 199.66411,121.91463 L 205.81174,121.11277 L 208.7519,124.58751 C 210.37984,129.77929 207.71203,130.67532 206.07902,132.60615 L 203.40614,142.22852 L 207.41546,141.15937 L 209.28648,132.60615 L 214.89953,126.72582 L 214.36495,131.537 L 210.08834,136.88276 L 207.68275,143.29767 L 210.35563,143.03038 L 215.96868,132.60615 L 220.24529,128.06226 L 220.51257,124.05294 L 218.37427,124.05294 L 219.44342,120.04362 L 224.25461,114.16328 L 226.6602,113.09413 L 227.99664,113.09413 L 226.6602,112.02498 C 222.47269,107.56174 218.28517,105.82583 214.09766,104.8082 L 213.83038,103.47177 L 225.32376,101.60075 L 213.56309,101.06617 L 213.56309,99.729734 L 225.32376,98.393294 L 215.16681,97.59143 L 223.45274,97.324142 L 223.45274,95.185838 L 214.36495,94.383974 L 213.2958,91.978382 L 213.56309,84.227031 L 216.50325,85.563471 L 221.31444,85.563471 L 215.16681,81.82144 L 213.02851,78.613984 C 206.03552,78.960017 204.56126,83.445089 203.13886,87.969063 L 203.67343,90.641943 L 199.12954,93.849398 L 196.18937,93.314822 L 192.71463,88.236351 L 191.1109,79.683136 L 201.00055,79.950424 L 203.94072,78.346696 L 196.72395,75.941104 L 190.30903,77.010256 L 189.77446,73.000937 L 202.87157,73.802801 L 197.25852,70.862633 L 189.50717,70.595345 L 189.50717,67.120601 L 202.0697,67.922465 L 201.53513,65.784161 L 192.18005,64.982298 L 189.77446,66.051449 L 189.77446,62.843994 L 202.33699,63.111282 L 194.85293,59.36925 L 192.71463,59.36925 L 189.50717,60.972978 L 186.29971,48.945019 z "
     id="path9940"
     sodipodi:nodetypes="ccccccccccccccccccccccccccccccccccccccccccccccccccccccccccccccccccccccccccccccccccccccccccccccccccccc" />
  <path
     style="fill:#c80000;fill-opacity:1;fill-rule:evenodd;stroke:none;stroke-width:1px;stroke-linecap:butt;stroke-linejoin:miter;stroke-opacity:1"
     d="M 191.91276,94.91855 L 192.98191,99.729734 L 197.7931,102.93719 L 201.00055,99.462446 L 199.66411,97.324142 L 197.52581,98.393294 L 195.38751,96.789566 L 194.58564,94.383974 L 191.91276,94.91855 z "
     id="path9942" />
  <path
     style="fill:none;fill-opacity:1;fill-rule:evenodd;stroke:#e9c320;stroke-width:1px;stroke-linecap:butt;stroke-linejoin:miter;stroke-opacity:1"
     d="M 181.75582,103.47177 C 180.02273,104.45593 171.79607,101.97619 173.03912,100.79889"
     id="path9944"
     sodipodi:nodetypes="cc" />
</svg>
