<?xml version="1.0" encoding="UTF-8" ?>
<!DOCTYPE svg PUBLIC "-//W3C//DTD SVG 1.1//EN" "http://www.w3.org/Graphics/SVG/1.1/DTD/svg11.dtd">
<svg width="310pt" height="210pt" viewBox="0 0 310 210" version="1.1" xmlns="http://www.w3.org/2000/svg">
<g id="#e7daaeff">
<path fill="#e7daae" opacity="1.00" d=" M 0.00 0.00 L 310.00 0.00 L 310.00 210.00 L 0.00 210.00 L 0.00 0.00 M 239.33 82.48 C 238.67 83.52 237.94 84.51 237.20 85.49 C 237.00 86.89 236.86 88.32 236.23 89.62 C 236.13 90.07 235.94 90.97 235.84 91.42 C 235.55 92.06 234.96 93.33 234.67 93.96 C 232.97 94.08 231.09 93.63 229.65 94.78 C 228.70 94.42 227.72 94.12 226.73 93.91 C 225.54 95.35 223.69 95.29 222.37 94.11 C 220.75 94.03 219.13 93.99 217.52 93.94 C 215.62 92.29 213.48 90.98 211.45 89.51 C 210.10 89.15 208.70 89.01 207.31 88.87 C 206.92 88.46 206.13 87.63 205.74 87.21 C 204.17 87.00 202.73 86.38 201.36 85.64 C 200.13 85.20 198.85 84.98 197.58 84.74 C 196.83 84.47 195.32 83.92 194.57 83.64 C 195.28 85.29 196.86 86.05 198.41 86.70 C 199.94 87.60 201.39 88.64 203.01 89.38 L 202.99 89.63 C 202.41 89.95 201.26 90.59 200.68 90.91 C 199.29 90.26 197.85 89.74 196.43 89.18 C 195.98 89.07 195.08 88.87 194.62 88.76 C 193.05 87.92 191.25 87.98 189.54 87.85 C 190.33 89.13 191.56 89.92 192.99 90.37 L 193.01 91.03 C 191.22 91.01 189.42 90.98 187.63 90.89 C 185.99 88.83 183.69 92.37 182.27 89.89 C 181.27 90.13 180.30 90.45 179.35 90.86 C 177.45 90.97 175.55 91.02 173.65 91.14 C 171.58 92.71 168.62 91.19 166.66 92.87 C 165.57 92.14 164.41 91.55 163.37 92.91 C 159.80 93.04 156.22 93.09 152.65 92.87 C 150.71 91.80 148.39 92.13 146.38 91.26 C 145.94 91.14 145.06 90.88 144.62 90.75 C 142.90 89.76 140.88 90.03 138.99 89.92 L 138.97 90.71 C 139.60 90.94 140.87 91.40 141.50 91.63 C 142.60 92.23 143.58 92.99 144.43 93.92 C 142.23 93.94 139.74 93.71 138.54 96.01 C 141.03 96.02 143.53 95.99 146.03 95.99 L 145.99 96.93 C 144.09 97.04 142.04 96.71 140.36 97.83 C 139.77 97.89 138.59 98.01 137.99 98.07 L 138.00 98.99 C 138.50 99.00 139.50 99.00 140.00 99.01 L 140.00 99.94 C 138.88 100.00 137.77 100.07 136.65 100.15 C 135.39 100.81 133.97 101.01 132.60 101.31 C 130.74 102.18 128.64 101.98 126.65 102.16 C 126.23 102.35 125.40 102.71 124.98 102.89 C 120.20 102.90 115.25 103.57 110.57 102.44 C 108.47 101.33 105.96 98.75 103.79 101.22 C 103.86 100.74 104.00 99.77 104.07 99.29 C 103.43 99.06 102.16 98.60 101.52 98.37 C 100.16 97.48 98.85 96.53 97.46 95.69 C 96.09 95.05 94.75 94.35 93.43 93.61 C 92.30 93.28 91.15 93.00 89.99 92.75 L 90.01 93.61 C 91.89 94.16 93.22 95.59 94.45 97.02 C 92.96 97.01 91.46 97.00 89.97 96.98 L 90.04 97.54 C 91.32 98.16 92.47 99.01 93.56 99.92 C 94.17 99.95 95.40 100.01 96.01 100.04 L 96.00 101.01 C 93.45 100.84 90.61 101.63 88.35 100.11 C 83.90 99.92 79.45 100.00 75.00 99.98 C 73.59 99.85 72.24 100.19 71.12 101.07 L 70.89 100.19 C 67.96 101.43 64.73 100.90 61.64 101.10 C 60.17 102.23 58.28 101.95 56.56 102.13 C 56.09 102.37 55.17 102.86 54.71 103.10 C 53.82 101.49 52.32 102.04 51.32 102.94 C 51.00 102.72 50.35 102.29 50.02 102.07 C 45.35 101.84 40.67 102.08 36.00 102.00 L 35.99 103.00 C 36.74 103.00 38.25 103.00 39.00 103.00 C 39.00 103.50 39.00 104.50 39.00 105.00 C 38.25 105.00 36.75 105.00 36.00 105.00 L 35.99 106.00 C 36.75 106.00 38.27 106.00 39.02 106.00 L 38.96 106.54 C 37.67 107.15 36.52 108.01 35.45 108.96 C 33.84 108.99 32.23 108.97 30.62 108.89 C 28.53 107.48 25.85 108.40 23.63 107.36 C 21.54 106.06 18.19 106.21 17.70 103.25 C 16.62 102.75 15.54 102.25 14.46 101.76 C 16.10 104.41 17.15 108.55 21.01 108.19 L 20.99 108.63 C 19.16 109.22 17.75 110.53 16.56 112.00 C 14.38 112.01 12.19 112.00 10.01 111.99 C 10.01 112.50 10.00 113.51 9.99 114.01 C 9.15 114.00 7.47 113.98 6.63 113.97 C 7.24 114.66 7.85 115.36 8.46 116.06 C 10.16 114.80 12.42 114.93 14.23 113.87 C 14.16 114.32 14.04 115.23 13.98 115.69 C 13.35 115.95 12.09 116.48 11.47 116.75 C 10.47 117.01 9.48 117.28 8.49 117.56 C 7.12 118.46 5.88 119.54 4.68 120.66 C 5.36 120.99 6.73 121.65 7.42 121.99 C 8.11 120.73 8.71 120.74 9.21 122.01 C 10.23 121.48 11.27 120.98 12.32 120.52 C 11.44 122.16 10.56 123.80 9.70 125.46 C 10.93 124.93 12.15 124.38 13.36 123.81 C 13.19 125.13 12.77 126.35 12.11 127.48 C 13.06 128.58 13.97 129.74 14.46 131.13 C 15.76 130.98 17.11 130.93 18.33 130.37 C 20.48 128.86 23.15 129.13 25.54 128.35 C 26.53 128.03 27.51 127.71 28.49 127.39 C 31.34 126.09 32.60 122.79 35.61 121.77 C 37.17 120.41 38.55 118.88 40.11 117.54 C 40.05 118.23 39.92 119.62 39.86 120.31 C 40.75 119.72 41.64 119.14 42.54 118.57 C 43.78 118.24 45.02 117.94 46.27 117.68 C 45.76 118.65 45.25 119.62 44.75 120.60 C 43.43 120.93 42.47 121.90 41.74 122.99 C 43.09 122.76 44.36 122.23 45.65 121.79 C 46.94 120.31 48.57 119.25 50.22 118.23 C 51.25 115.81 53.54 114.61 55.55 113.11 C 56.49 113.02 57.42 112.93 58.36 112.84 C 63.76 110.35 70.41 113.73 75.69 111.05 C 77.77 113.05 81.17 111.19 83.61 112.69 C 84.87 112.97 86.14 113.23 87.37 113.63 C 88.69 114.30 90.03 114.93 91.45 115.38 C 92.63 115.70 93.81 115.98 95.01 116.25 L 95.00 117.00 C 94.25 117.00 92.75 117.00 92.00 116.99 L 92.00 117.86 C 93.57 118.03 95.27 117.89 96.65 118.86 C 99.51 118.93 102.42 118.92 105.06 120.19 L 105.06 120.81 C 103.27 121.44 101.47 122.01 99.59 122.28 C 97.92 122.84 96.19 123.16 94.48 123.58 C 93.24 124.22 92.22 125.13 91.58 126.39 C 92.34 126.07 93.87 125.43 94.63 125.11 C 96.87 124.91 99.28 125.36 101.37 124.35 C 102.69 123.69 104.04 123.08 105.47 122.68 C 107.58 121.91 109.90 121.47 111.65 119.96 C 112.51 121.24 113.51 121.26 114.64 120.04 C 116.35 120.07 118.24 119.65 119.64 120.95 C 121.34 120.95 123.21 121.30 124.64 120.10 C 127.88 119.94 131.12 120.06 134.36 119.89 C 136.94 118.27 140.14 119.21 143.01 119.01 L 143.00 119.99 C 142.50 120.00 141.51 120.00 141.01 120.01 L 140.99 121.28 C 142.23 121.02 143.44 120.65 144.63 120.18 C 145.87 120.05 147.13 119.95 148.38 119.83 C 149.89 118.81 151.74 119.03 153.45 118.85 C 152.70 119.97 151.69 120.82 150.44 121.31 C 147.32 123.03 144.02 124.34 140.58 125.26 C 142.34 128.05 145.49 125.22 148.05 125.92 C 147.99 125.39 147.87 124.33 147.81 123.80 C 148.90 124.56 150.13 125.33 151.45 124.49 C 152.78 123.52 154.10 122.51 155.56 121.73 C 157.34 120.85 158.95 119.69 160.55 118.52 C 164.93 117.44 169.52 118.20 174.00 117.99 C 175.71 117.76 177.21 118.53 178.63 119.36 C 179.85 119.80 181.13 120.03 182.40 120.29 C 184.96 121.74 188.23 120.12 190.64 121.93 C 192.25 121.91 194.07 122.44 195.36 121.16 C 196.35 121.56 197.35 121.96 198.35 122.34 C 196.71 123.53 195.02 124.64 193.47 125.94 C 192.85 125.96 191.62 126.01 191.00 126.03 C 190.99 126.58 190.98 127.67 190.97 128.22 C 192.73 127.54 194.54 126.98 196.41 126.71 C 197.69 126.22 199.04 125.97 200.38 125.69 C 203.06 124.57 206.23 125.53 208.64 123.64 C 209.87 123.23 211.13 122.96 212.40 122.68 C 214.52 121.85 216.98 122.28 218.93 120.95 C 218.85 122.91 220.20 123.99 222.00 124.34 C 222.00 126.89 222.00 129.45 222.00 132.00 C 223.66 132.00 225.33 132.00 227.00 132.00 C 227.00 129.34 227.00 126.67 227.00 124.01 C 227.51 124.01 228.54 124.00 229.05 123.99 C 228.99 123.46 228.86 122.38 228.80 121.84 C 230.90 122.99 234.06 123.02 234.35 125.99 C 236.77 126.09 239.38 125.54 241.62 126.76 C 242.06 126.88 242.94 127.12 243.38 127.25 C 246.57 128.49 250.37 128.41 253.60 127.31 C 254.96 127.02 256.35 126.77 257.64 126.21 C 258.54 126.07 259.45 125.94 260.37 125.81 C 261.92 124.64 263.90 124.85 265.58 125.61 C 266.59 125.99 267.59 126.39 268.59 126.81 C 269.04 126.91 269.94 127.12 270.38 127.23 C 272.58 128.39 275.48 128.48 277.64 127.17 C 279.55 128.70 282.14 127.85 284.37 127.87 C 285.98 127.08 287.79 126.86 289.52 126.43 C 290.76 125.74 291.75 124.74 292.51 123.54 C 292.62 123.04 292.84 122.03 292.95 121.53 C 292.07 118.37 288.42 122.42 287.57 119.04 C 288.27 118.99 289.66 118.89 290.35 118.84 C 291.61 118.18 293.03 117.99 294.41 117.71 C 296.28 116.63 298.52 116.85 300.50 117.49 C 301.73 118.40 302.91 119.37 304.10 120.35 C 304.07 119.62 304.01 118.15 303.98 117.42 C 303.17 116.62 302.37 115.82 301.58 115.00 C 298.97 115.28 295.90 114.16 293.64 115.86 C 292.57 115.08 291.41 114.61 290.37 115.91 C 288.03 115.91 285.43 116.56 283.36 115.13 C 282.24 115.06 281.11 115.00 280.00 114.95 C 279.99 114.53 279.99 113.69 279.99 113.28 C 281.21 112.81 282.42 112.29 283.65 111.81 C 284.15 113.03 284.32 115.22 286.17 115.01 C 289.00 115.51 288.91 111.55 291.03 110.56 C 291.02 111.42 291.00 113.14 290.99 114.00 C 291.49 114.00 292.49 114.00 292.99 114.00 C 293.00 113.50 293.00 112.50 293.01 112.00 C 293.43 112.01 294.29 112.02 294.72 112.03 C 294.94 111.40 295.39 110.13 295.62 109.50 C 296.45 108.04 297.58 106.79 298.80 105.64 C 299.01 104.30 299.47 103.03 300.17 101.86 C 295.61 101.64 290.60 103.03 286.35 101.11 C 280.47 100.78 274.25 101.42 268.59 100.39 C 268.17 99.36 267.92 98.28 267.83 97.17 C 263.97 94.76 259.00 97.42 255.35 94.60 C 253.38 93.98 251.24 94.07 249.35 93.18 C 248.78 93.12 247.64 92.99 247.07 92.93 C 247.00 92.36 246.88 91.22 246.82 90.64 C 245.78 88.67 246.23 86.30 245.14 84.34 C 245.07 83.32 245.02 82.29 244.98 81.27 C 244.44 80.88 243.37 80.11 242.84 79.72 C 243.23 79.19 244.00 78.14 244.39 77.61 C 241.77 77.96 240.07 80.09 239.33 82.48 M 14.27 108.09 C 14.41 111.38 17.33 106.58 14.27 108.09 Z" />
</g>
<g id="#000000ff">
<path fill="#000000" opacity="1.00" d=" M 239.33 82.48 C 240.07 80.09 241.77 77.96 244.39 77.61 C 244.00 78.14 243.23 79.19 242.84 79.72 C 243.37 80.11 244.44 80.88 244.98 81.27 C 245.02 82.29 245.07 83.32 245.14 84.34 C 246.23 86.30 245.78 88.67 246.82 90.64 C 246.88 91.22 247.00 92.36 247.07 92.93 C 247.64 92.99 248.78 93.12 249.35 93.18 C 251.24 94.07 253.38 93.98 255.35 94.60 C 259.00 97.42 263.97 94.76 267.83 97.17 C 267.92 98.28 268.17 99.36 268.59 100.39 C 274.25 101.42 280.47 100.78 286.35 101.11 C 290.60 103.03 295.61 101.64 300.17 101.86 C 299.47 103.03 299.01 104.30 298.80 105.64 C 297.58 106.79 296.45 108.04 295.62 109.50 C 295.39 110.13 294.94 111.40 294.72 112.03 C 294.29 112.02 293.43 112.01 293.01 112.00 C 293.00 112.50 293.00 113.50 292.99 114.00 C 292.49 114.00 291.49 114.00 290.99 114.00 C 291.00 113.14 291.02 111.42 291.03 110.56 C 288.91 111.55 289.00 115.51 286.17 115.01 C 284.32 115.22 284.15 113.03 283.65 111.81 C 282.42 112.29 281.21 112.81 279.99 113.28 C 279.99 113.69 279.99 114.53 280.00 114.95 C 281.11 115.00 282.24 115.06 283.36 115.13 C 285.43 116.56 288.03 115.91 290.37 115.91 C 291.41 114.61 292.57 115.08 293.64 115.86 C 295.90 114.16 298.97 115.28 301.58 115.00 C 302.37 115.82 303.17 116.62 303.98 117.42 C 304.01 118.15 304.07 119.62 304.10 120.35 C 302.91 119.37 301.73 118.40 300.50 117.49 C 298.52 116.85 296.28 116.63 294.41 117.71 C 293.03 117.99 291.61 118.18 290.35 118.84 C 289.66 118.89 288.27 118.99 287.57 119.04 C 288.42 122.42 292.07 118.37 292.95 121.53 C 292.84 122.03 292.62 123.04 292.51 123.54 C 291.75 124.74 290.76 125.74 289.52 126.43 C 287.79 126.86 285.98 127.08 284.37 127.87 C 282.14 127.85 279.55 128.70 277.64 127.17 C 275.48 128.48 272.58 128.39 270.38 127.23 C 269.94 127.12 269.04 126.91 268.59 126.81 C 267.59 126.39 266.59 125.99 265.58 125.61 C 263.90 124.85 261.92 124.64 260.37 125.81 C 259.45 125.94 258.54 126.07 257.64 126.21 C 256.35 126.77 254.96 127.02 253.60 127.31 C 250.37 128.41 246.57 128.49 243.38 127.25 C 242.94 127.12 242.06 126.88 241.62 126.76 C 239.38 125.54 236.77 126.09 234.35 125.99 C 234.06 123.02 230.90 122.99 228.80 121.84 C 228.86 122.38 228.99 123.46 229.05 123.99 C 228.54 124.00 227.51 124.01 227.00 124.01 C 227.00 126.67 227.00 129.34 227.00 132.00 C 225.33 132.00 223.66 132.00 222.00 132.00 C 222.00 129.45 222.00 126.89 222.00 124.34 C 220.20 123.99 218.85 122.91 218.93 120.95 C 216.98 122.28 214.52 121.85 212.40 122.68 C 211.13 122.96 209.87 123.23 208.64 123.64 C 206.23 125.53 203.06 124.57 200.38 125.69 C 199.04 125.97 197.69 126.22 196.41 126.71 C 194.54 126.98 192.73 127.54 190.97 128.22 C 190.98 127.67 190.99 126.58 191.00 126.03 C 191.62 126.01 192.85 125.96 193.47 125.94 C 195.02 124.64 196.71 123.53 198.35 122.34 C 197.35 121.96 196.35 121.56 195.36 121.16 C 194.07 122.44 192.25 121.91 190.64 121.93 C 188.23 120.12 184.96 121.74 182.40 120.29 C 181.13 120.03 179.85 119.80 178.63 119.36 C 177.21 118.53 175.71 117.76 174.00 117.99 C 169.52 118.20 164.93 117.44 160.55 118.52 C 158.95 119.69 157.34 120.85 155.56 121.73 C 154.10 122.51 152.78 123.52 151.45 124.49 C 150.13 125.33 148.90 124.56 147.81 123.80 C 147.87 124.33 147.99 125.39 148.05 125.92 C 145.49 125.22 142.34 128.05 140.58 125.26 C 144.02 124.34 147.32 123.03 150.44 121.31 C 151.69 120.82 152.70 119.97 153.45 118.85 C 151.74 119.03 149.89 118.81 148.38 119.83 C 147.13 119.95 145.87 120.05 144.63 120.18 C 143.44 120.65 142.23 121.02 140.99 121.28 L 141.01 120.01 C 141.51 120.00 142.50 120.00 143.00 119.99 L 143.01 119.01 C 140.14 119.21 136.94 118.27 134.36 119.89 C 131.12 120.06 127.88 119.94 124.64 120.10 C 123.21 121.30 121.34 120.95 119.64 120.95 C 118.24 119.65 116.35 120.07 114.64 120.04 C 113.51 121.26 112.51 121.24 111.65 119.96 C 109.90 121.47 107.58 121.91 105.47 122.68 C 104.04 123.08 102.69 123.69 101.37 124.35 C 99.28 125.36 96.87 124.91 94.63 125.11 C 93.87 125.43 92.34 126.07 91.58 126.39 C 92.22 125.13 93.24 124.22 94.48 123.58 C 96.19 123.16 97.92 122.84 99.59 122.28 C 101.47 122.01 103.27 121.44 105.06 120.81 L 105.06 120.19 C 102.42 118.92 99.51 118.93 96.65 118.86 C 95.27 117.89 93.57 118.03 92.00 117.86 L 92.00 116.99 C 92.75 117.00 94.25 117.00 95.00 117.00 L 95.01 116.25 C 93.81 115.98 92.63 115.70 91.45 115.38 C 90.03 114.93 88.69 114.30 87.37 113.63 C 86.14 113.23 84.87 112.97 83.61 112.69 C 81.17 111.19 77.77 113.05 75.69 111.05 C 70.41 113.73 63.76 110.35 58.36 112.84 C 57.42 112.93 56.49 113.02 55.55 113.11 C 53.54 114.61 51.25 115.81 50.22 118.23 C 48.57 119.25 46.94 120.31 45.65 121.79 C 44.36 122.23 43.09 122.76 41.74 122.99 C 42.47 121.90 43.43 120.93 44.75 120.60 C 45.25 119.62 45.76 118.65 46.27 117.68 C 45.02 117.94 43.78 118.24 42.54 118.57 C 41.64 119.14 40.75 119.72 39.86 120.31 C 39.92 119.62 40.05 118.23 40.11 117.54 C 38.55 118.88 37.17 120.41 35.61 121.77 C 32.60 122.79 31.34 126.09 28.49 127.39 C 27.51 127.71 26.53 128.03 25.54 128.35 C 23.15 129.13 20.48 128.86 18.33 130.37 C 17.11 130.93 15.76 130.98 14.46 131.13 C 13.97 129.74 13.06 128.58 12.11 127.48 C 12.77 126.35 13.19 125.13 13.36 123.81 C 12.15 124.38 10.93 124.93 9.70 125.46 C 10.56 123.80 11.44 122.16 12.32 120.52 C 11.27 120.98 10.23 121.48 9.21 122.01 C 8.71 120.74 8.11 120.73 7.42 121.99 C 6.73 121.65 5.36 120.99 4.68 120.66 C 5.88 119.54 7.12 118.46 8.49 117.56 C 9.48 117.28 10.47 117.01 11.47 116.75 C 12.09 116.48 13.35 115.95 13.98 115.69 C 14.04 115.23 14.16 114.32 14.23 113.87 C 12.42 114.93 10.16 114.80 8.46 116.06 C 7.85 115.36 7.24 114.66 6.63 113.97 C 7.47 113.98 9.15 114.00 9.99 114.01 C 10.00 113.51 10.01 112.50 10.01 111.99 C 12.19 112.00 14.38 112.01 16.56 112.00 C 17.75 110.53 19.16 109.22 20.99 108.63 L 21.01 108.19 C 17.15 108.55 16.10 104.41 14.46 101.76 C 15.54 102.25 16.62 102.75 17.70 103.25 C 18.19 106.21 21.54 106.06 23.63 107.36 C 25.85 108.40 28.53 107.48 30.62 108.89 C 32.23 108.97 33.84 108.99 35.45 108.96 C 36.52 108.01 37.67 107.15 38.96 106.54 L 39.02 106.00 C 38.27 106.00 36.75 106.00 35.99 106.00 L 36.00 105.00 C 36.75 105.00 38.25 105.00 39.00 105.00 C 39.00 104.50 39.00 103.50 39.00 103.00 C 38.25 103.00 36.74 103.00 35.99 103.00 L 36.00 102.00 C 40.67 102.08 45.35 101.84 50.02 102.07 C 50.35 102.29 51.00 102.72 51.32 102.94 C 52.32 102.04 53.82 101.49 54.71 103.10 C 55.17 102.86 56.09 102.37 56.56 102.13 C 58.28 101.95 60.17 102.23 61.64 101.10 C 64.73 100.90 67.96 101.43 70.89 100.19 L 71.12 101.07 C 72.24 100.19 73.59 99.85 75.00 99.98 C 79.45 100.00 83.90 99.92 88.35 100.11 C 90.61 101.63 93.45 100.84 96.00 101.01 L 96.01 100.04 C 95.40 100.01 94.17 99.95 93.56 99.92 C 92.47 99.01 91.32 98.16 90.04 97.54 L 89.97 96.98 C 91.46 97.00 92.96 97.01 94.45 97.02 C 93.22 95.59 91.89 94.16 90.01 93.61 L 89.99 92.75 C 91.15 93.00 92.30 93.28 93.43 93.61 C 94.75 94.35 96.09 95.05 97.46 95.69 C 98.85 96.53 100.16 97.48 101.52 98.37 C 102.16 98.60 103.43 99.06 104.07 99.29 C 104.00 99.77 103.86 100.74 103.79 101.22 C 105.96 98.75 108.47 101.33 110.57 102.44 C 115.25 103.57 120.20 102.90 124.98 102.89 C 125.40 102.71 126.23 102.35 126.65 102.16 C 128.64 101.98 130.74 102.18 132.60 101.31 C 133.97 101.01 135.39 100.81 136.65 100.15 C 137.77 100.07 138.88 100.00 140.00 99.94 L 140.00 99.01 C 139.50 99.00 138.50 99.00 138.00 98.99 L 137.99 98.07 C 138.59 98.01 139.77 97.89 140.36 97.83 C 142.04 96.71 144.09 97.04 145.99 96.93 L 146.03 95.99 C 143.53 95.99 141.03 96.02 138.54 96.01 C 139.74 93.71 142.23 93.94 144.43 93.92 C 143.58 92.99 142.60 92.23 141.50 91.63 C 140.87 91.40 139.60 90.94 138.97 90.71 L 138.99 89.92 C 140.88 90.03 142.90 89.76 144.62 90.75 C 145.06 90.88 145.94 91.14 146.38 91.26 C 148.39 92.13 150.71 91.80 152.65 92.87 C 156.22 93.09 159.80 93.04 163.37 92.91 C 164.41 91.55 165.57 92.14 166.66 92.87 C 168.62 91.19 171.58 92.71 173.65 91.14 C 175.55 91.02 177.45 90.97 179.35 90.86 C 180.30 90.45 181.27 90.13 182.27 89.89 C 183.69 92.37 185.99 88.83 187.63 90.89 C 189.42 90.98 191.22 91.01 193.01 91.03 L 192.99 90.37 C 191.56 89.92 190.33 89.13 189.54 87.85 C 191.25 87.98 193.05 87.92 194.62 88.76 C 195.08 88.87 195.98 89.07 196.43 89.18 C 197.85 89.74 199.29 90.26 200.68 90.91 C 201.26 90.59 202.41 89.95 202.99 89.63 L 203.01 89.38 C 201.39 88.64 199.94 87.60 198.41 86.70 C 196.86 86.05 195.28 85.29 194.57 83.64 C 195.32 83.92 196.83 84.47 197.58 84.74 C 198.85 84.98 200.13 85.20 201.36 85.64 C 202.73 86.38 204.17 87.00 205.74 87.21 C 206.13 87.63 206.92 88.46 207.31 88.87 C 208.70 89.01 210.10 89.15 211.45 89.51 C 213.48 90.98 215.62 92.29 217.52 93.94 C 219.13 93.99 220.75 94.03 222.37 94.11 C 223.69 95.29 225.54 95.35 226.73 93.91 C 227.72 94.12 228.70 94.42 229.65 94.78 C 231.09 93.63 232.97 94.08 234.67 93.96 C 234.96 93.33 235.55 92.06 235.84 91.42 C 235.94 90.97 236.13 90.07 236.23 89.62 C 236.86 88.32 237.00 86.89 237.20 85.49 C 237.94 84.51 238.67 83.52 239.33 82.48 Z" />
<path fill="#000000" opacity="1.00" d=" M 14.27 108.09 C 17.33 106.58 14.41 111.38 14.27 108.09 Z" />
</g>
</svg>
