<?xml version="1.0" encoding="UTF-8" standalone="no"?>
<!-- Created with Inkscape (http://www.inkscape.org/) -->
<svg
   xmlns:dc="http://purl.org/dc/elements/1.1/"
   xmlns:cc="http://web.resource.org/cc/"
   xmlns:rdf="http://www.w3.org/1999/02/22-rdf-syntax-ns#"
   xmlns:svg="http://www.w3.org/2000/svg"
   xmlns="http://www.w3.org/2000/svg"
   xmlns:sodipodi="http://sodipodi.sourceforge.net/DTD/sodipodi-0.dtd"
   xmlns:inkscape="http://www.inkscape.org/namespaces/inkscape"
   width="360"
   height="240"
   id="svg2"
   sodipodi:version="0.32"
   inkscape:version="0.45.1"
   version="1.0"
   sodipodi:docbase="C:\Users\alex\Documents"
   sodipodi:docname="dgbelgiens.svg"
   inkscape:output_extension="org.inkscape.output.svg.inkscape">
  <defs
     id="defs4" />
  <sodipodi:namedview
     id="base"
     pagecolor="#ffffff"
     bordercolor="#666666"
     borderopacity="1.0"
     inkscape:pageopacity="0.0"
     inkscape:pageshadow="2"
     inkscape:zoom="1.4"
     inkscape:cx="349.41905"
     inkscape:cy="131.31806"
     inkscape:document-units="px"
     inkscape:current-layer="layer1"
     inkscape:window-width="1440"
     inkscape:window-height="820"
     inkscape:window-x="-8"
     inkscape:window-y="-8" />
  <metadata
     id="metadata7">
    <rdf:RDF>
      <cc:Work
         rdf:about="">
        <dc:format>image/svg+xml</dc:format>
        <dc:type
           rdf:resource="http://purl.org/dc/dcmitype/StillImage" />
      </cc:Work>
    </rdf:RDF>
  </metadata>
  <g
     inkscape:label="Calque 1"
     inkscape:groupmode="layer"
     id="layer1">
    <g
       id="g4263"
       transform="translate(-137.88582,-268.39502)">
      <rect
         y="268.39502"
         x="137.88582"
         height="240"
         width="360"
         id="rect4261"
         style="fill:#ffffff;fill-opacity:1;stroke:none;stroke-width:0.5;stroke-miterlimit:4;stroke-dasharray:none;stroke-opacity:1" />
      <g
         transform="translate(-8.4238965,8.0259345)"
         id="g4242">
        <path
           style="fill:#d40000;fill-rule:evenodd;stroke:none;stroke-width:1px;stroke-linecap:butt;stroke-linejoin:miter;stroke-opacity:1"
           d="M 357.15625,312.71875 C 357.15625,312.71875 357.28423,313.43338 357.28125,314.53125 C 358.0786,313.55024 357.15625,312.71875 357.15625,312.71875 z M 357.28125,314.53125 C 356.18676,315.87784 351.82616,317.51213 337.15625,317.71875 C 311.7991,318.0759 326.43751,336.65626 326.4375,336.65625 C 339.29464,325.22767 331.43751,347.71874 331.4375,347.71875 C 312.86607,333.43304 298.21875,352 298.21875,352 C 294.29017,353.07143 292.5,349.875 292.5,349.875 C 292.85714,330.58929 275.34374,342 275.34375,342 C 265.34375,352 277.5,357.375 277.5,357.375 C 281.07143,365.94643 286.06249,362 286.0625,362 C 288.91964,366.28571 298.21875,364.15626 298.21875,364.15625 C 296.43303,367.37053 279.65626,378.06249 279.65625,378.0625 C 261.7991,378.77678 265.71875,388.43749 265.71875,388.4375 C 265.3616,403.08036 277.15626,399.875 277.15625,399.875 C 281.44196,398.80357 291.06249,390.93749 291.0625,390.9375 C 290.34821,388.4375 291.06249,387 291.0625,387 C 292.13393,389.85714 293.56249,389.15626 293.5625,389.15625 L 300.71875,384.875 C 300.3616,382.73214 300.71875,380.93749 300.71875,380.9375 C 300.71875,382.00893 302.84374,383.78126 302.84375,383.78125 C 305.7009,382.35268 309.28125,380.93749 309.28125,380.9375 C 309.28125,377.00893 311.43751,377.375 311.4375,377.375 C 311.4375,379.875 312.15626,379.5 312.15625,379.5 C 315.72768,377.71428 320,378.78126 320,378.78125 C 321.07143,373.42411 322.84374,374.875 322.84375,374.875 C 322.48661,376.66072 324.28125,378.06249 324.28125,378.0625 C 327.49554,378.0625 331.43751,377 331.4375,377 C 332.86607,373.78571 332.15626,372.71874 332.15625,372.71875 C 334.2991,374.14733 333.56249,376.28126 333.5625,376.28125 C 336.77678,376.99554 342.84374,375.56249 342.84375,375.5625 C 343.91518,372.70535 342.15626,369.5 342.15625,369.5 C 346.7991,371.28571 346.78125,374.15626 346.78125,374.15625 C 347.1384,359.15625 353.21875,338.78126 353.21875,338.78125 C 350.71875,340.92411 350.34374,338.06249 350.34375,338.0625 C 356.41518,332.70535 354.65626,325.93749 354.65625,325.9375 C 352.51339,327.36607 352.15626,325.93749 352.15625,325.9375 C 356.58545,321.5083 357.27464,316.96336 357.28125,314.53125 z M 337.15625,320.9375 C 343.94196,320.9375 342.5,326.28126 342.5,326.28125 C 337.85714,325.20982 337.15626,320.93749 337.15625,320.9375 z "
           id="path2221" />
        <path
           style="fill:#d40000;fill-rule:evenodd;stroke:none;stroke-width:1px;stroke-linecap:butt;stroke-linejoin:miter;stroke-opacity:1"
           d="M 331.07143,345.21932 C 327.5,336.6479 321.07143,335.57647 315.35714,331.29075 C 309.64286,327.00504 303.92857,318.07647 316.42857,317.71932 C 316.42857,317.71932 305,303.43361 299.64286,323.43361 C 298.57143,338.07647 324.64286,335.93361 331.07143,345.21932 z "
           id="path2229" />
        <path
           style="fill:#d40000;fill-opacity:1;fill-rule:evenodd;stroke:none;stroke-width:1px;stroke-linecap:butt;stroke-linejoin:miter;stroke-opacity:1"
           d="M 264.28571,398.07647 C 264.28571,398.07647 261.42857,386.29075 265,380.21932 L 257.85714,377.00504 L 260.35714,384.1479 L 255.35714,388.43361 L 260.71429,393.07647 L 256.78571,399.1479 L 264.28571,398.07647 z "
           id="path2231" />
        <path
           style="fill:#d40000;fill-opacity:1;fill-rule:evenodd;stroke:none;stroke-width:1px;stroke-linecap:butt;stroke-linejoin:miter;stroke-opacity:1"
           d="M 269.28571,345.93361 C 269.28571,345.93361 272.14286,336.6479 287.5,335.57647 L 286.07143,326.6479 L 280.71429,332.36218 L 276.07143,328.07647 L 273.21429,337.36218 L 268.21429,335.21932 L 269.28571,345.93361 z "
           id="path2233" />
        <path
           style="fill:#d40000;fill-opacity:1;fill-rule:evenodd;stroke:none;stroke-width:1px;stroke-linecap:butt;stroke-linejoin:miter;stroke-opacity:1"
           d="M 343.57143,377.71932 L 343.21429,388.43361 L 346.42857,391.6479 L 346.42857,391.6479 C 351.42857,385.57647 382.14286,371.29075 385.71429,365.21932 C 389.28571,359.1479 396.42857,345.93361 386.42857,341.29075 C 376.42857,336.6479 375.35714,355.21932 387.5,352.36218 C 387.5,352.36218 379.28571,368.43361 376.07143,358.07647 C 376.07143,358.07647 373.57143,360.93361 376.07143,365.21932 C 376.07143,365.21932 364.64286,379.86218 365.71429,365.93361 C 365.71429,365.93361 363.21429,366.29075 362.85714,372.36218 C 362.85714,372.36218 357.14286,380.93361 350.35714,382.36218 C 356.07143,374.1479 358.57143,335.57647 378.57143,333.43361 C 398.57143,331.29075 407.14286,354.50504 383.57143,376.29075 C 375,381.29075 356.42857,387.71932 352.5,398.43361 C 352.5,398.43361 362.85714,411.29075 381.78571,385.57647 L 382.14286,403.43361 C 382.14286,403.43361 380.71429,406.29075 377.14286,408.43361 C 377.14286,408.43361 377.5,413.07647 383.57143,407.00504 C 383.57143,407.00504 385,415.93361 376.78571,420.21932 L 380.35714,420.93361 C 380.35714,420.93361 378.92857,427.00504 375.35714,430.93361 C 375.35714,430.93361 371.42857,431.29075 370,431.29075 C 370,431.29075 378.21429,431.29075 367.85714,441.6479 C 367.85714,441.6479 352.5,454.86218 343.92857,444.1479 C 343.92857,444.1479 340.71429,429.86218 352.85714,429.50504 L 352.14286,423.07647 C 352.14286,423.07647 335.71429,434.50504 331.42857,414.50504 C 331.42857,414.50504 328.92857,387.71932 319.28571,381.6479 L 343.57143,377.71932 z "
           id="path2235" />
        <path
           style="fill:#d40000;fill-opacity:1;fill-rule:evenodd;stroke:none;stroke-width:1px;stroke-linecap:butt;stroke-linejoin:miter;stroke-opacity:1"
           d="M 327.85714,410.21932 C 327.85714,410.21932 328.21429,397.00504 320.35714,388.79075 C 320.35714,388.79075 321.42857,394.50504 322.14286,399.86218 C 322.14286,399.86218 292.5,380.93361 283.57143,408.43361 C 283.57143,408.43361 281.07143,422.71932 297.5,423.79075 L 297.85714,427.36218 C 297.85714,427.36218 275.35714,432.71932 292.5,445.57647 C 292.5,445.57647 306.78571,447.00504 312.85714,439.86218 C 312.85714,439.86218 313.92857,438.07647 311.78571,437.00504 C 311.78571,437.00504 313.57143,435.93361 315.71429,438.07647 C 315.71429,438.07647 320.35714,437.00504 322.14286,433.79075 C 322.14286,433.79075 322.14286,431.6479 318.57143,429.1479 C 318.57143,429.1479 326.78571,432.36218 327.14286,414.86218 C 327.14286,414.86218 321.42857,427.71932 314.64286,419.50504 C 314.64286,419.50504 309.64286,410.57647 327.85714,410.21932 z "
           id="path2237" />
        <path
           style="fill:#d40000;fill-opacity:1;fill-rule:evenodd;stroke:none;stroke-width:1px;stroke-linecap:butt;stroke-linejoin:miter;stroke-opacity:1"
           d="M 350.71429,450.93361 C 350.71429,450.93361 342.14286,451.29075 340.35714,435.57647 L 333.92857,437.36218 L 339.64286,443.43361 L 336.42857,448.07647 L 343.92857,449.50504 L 343.92857,456.29075 L 350.71429,450.93361 z "
           id="path2239" />
        <path
           style="fill:#d40000;fill-opacity:1;fill-rule:evenodd;stroke:none;stroke-width:1px;stroke-linecap:butt;stroke-linejoin:miter;stroke-opacity:1"
           d="M 285,442.00504 C 285,442.00504 282.14286,430.21932 291.42857,426.6479 L 284.64286,423.43361 L 285,428.07647 L 278.57143,428.43361 L 282.14286,433.43361 L 276.42857,438.07647 L 285,442.00504 z "
           id="path2241" />
        <path
           style="fill:#318ecc;fill-opacity:1;stroke:none;stroke-width:0.5;stroke-miterlimit:4;stroke-dasharray:none;stroke-opacity:1"
           d="M 325.45983,274.44643 C 322.82592,276.49315 323.07368,276.36817 321.64733,277.19643 C 317.01432,279.7138 320.75526,281.40095 322.74108,284.91518 C 321.69843,285.36905 320.78877,286.04041 320.08483,286.91518 C 317.32768,283.94332 316.86217,279.89856 313.02233,283.54018 L 309.14733,286.50893 C 310.27994,289.64639 310.26912,289.33394 310.61608,290.94643 C 311.60571,296.27686 314.47916,292.94768 318.61608,292.25893 C 318.75876,293.28536 319.1387,294.23817 319.67858,295.07143 C 316.0184,296.73536 312.07161,295.97897 314.33483,300.72768 L 315.95983,305.32143 C 319.29373,305.21377 319.00655,305.15312 320.64733,305.32143 C 326.00903,306.02564 323.75895,302.26874 324.36608,298.13393 C 324.7424,298.19699 325.12829,298.25893 325.52233,298.25893 C 326.25349,298.25893 326.95354,298.15593 327.61608,297.94643 C 328.44355,302.23097 325.89699,306.23545 331.42858,305.50893 L 336.27233,305.38393 C 337.20017,302.17995 337.07398,302.42365 337.74108,300.91518 C 340.18409,295.78923 335.35032,297.12201 331.49108,294.85268 C 331.92631,294.12431 332.22088,293.31456 332.36608,292.44643 C 336.53387,293.10778 339.43414,296.45902 340.42858,291.10268 L 341.80358,286.44643 C 339.04313,284.57391 339.25082,284.79702 338.02233,283.69643 C 334.21044,280.08128 333.72456,284.06873 331.02233,287.04018 C 330.33465,286.14866 329.43156,285.45261 328.39733,284.97768 C 330.36843,281.42195 334.11951,279.72829 329.45983,277.19643 L 325.45983,274.44643 z M 325.52233,288.07143 C 327.29663,288.07144 328.74108,289.51589 328.74108,291.29018 C 328.74109,293.06447 327.29662,294.50893 325.52233,294.50893 C 323.74806,294.50893 322.30358,293.06447 322.30358,291.29018 C 322.30358,289.5159 323.74804,288.07143 325.52233,288.07143 z "
           id="path2249" />
        <path
           id="path3257"
           d="M 256.35869,300.82856 C 255.65661,304.08949 255.76607,303.83449 255.20581,305.38581 C 253.27486,310.29227 257.22506,309.18007 261.00519,310.59567 C 260.49822,311.61356 260.23292,312.71257 260.25596,313.83516 C 256.23359,313.33085 253.27706,310.53161 252.67636,315.78945 L 251.61622,320.55445 C 254.50057,322.22985 254.29144,321.99746 255.59372,323.00968 C 259.77815,326.4569 259.83938,322.05958 262.56573,318.87281 C 263.33481,319.56739 264.23831,320.05306 265.18749,320.34435 C 263.45319,323.97171 259.94357,325.92923 264.72971,328.11218 L 268.92734,330.58667 C 271.41205,328.36121 271.15307,328.49934 272.51817,327.5736 C 277.07813,324.66662 272.93958,323.23499 270.74686,319.67729 C 271.07567,319.4837 271.4111,319.28311 271.71295,319.02982 C 272.27305,318.55984 272.74311,318.03096 273.11598,317.4446 C 276.50391,320.19486 277.12716,324.89936 280.89761,320.78718 L 284.52779,317.57792 C 283.17908,314.52713 283.23906,314.79493 282.78046,313.21057 C 281.35702,307.71353 278.51083,311.84158 274.09578,312.58385 C 273.961,311.74612 273.66616,310.93647 273.21936,310.17811 C 276.83718,308.00573 281.21305,308.70867 278.53185,303.96626 L 276.59218,299.51554 C 273.27392,299.85549 273.57643,299.8929 271.92791,299.83946 C 266.68406,299.52033 268.87494,302.88721 268.71492,306.90043 C 267.61507,306.65952 266.47585,306.70681 265.3783,307.00778 C 264.60268,303.01693 266.38751,299.30837 261.19054,300.36404 L 256.35869,300.82856 z M 265.16455,311.22574 C 266.52375,310.08525 268.55874,310.26329 269.69923,311.62248 C 270.83973,312.98166 270.66168,315.01666 269.3025,316.15716 C 267.94333,317.29763 265.90831,317.11961 264.76782,315.76042 C 263.62733,314.40125 263.80537,312.36624 265.16455,311.22574 z "
           style="fill:#318ecc;fill-opacity:1;stroke:none;stroke-width:0.5;stroke-miterlimit:4;stroke-dasharray:none;stroke-opacity:1" />
        <path
           style="fill:#318ecc;fill-opacity:1;stroke:none;stroke-width:0.5;stroke-miterlimit:4;stroke-dasharray:none;stroke-opacity:1"
           d="M 219.14736,365.72834 C 220.70562,368.67764 220.62556,368.41194 221.19355,369.96045 C 222.86816,374.96021 225.17928,371.56907 228.98496,370.22366 C 229.25089,371.32929 229.75409,372.34171 230.49332,373.18685 C 227.08784,375.38606 223.02369,375.14214 225.94321,379.556 L 228.19397,383.88765 C 231.48044,383.31705 231.17086,383.27346 232.81911,383.21177 C 238.2404,383.1628 235.46076,379.7549 235.50085,375.56123 C 236.53647,375.59895 237.54077,375.39024 238.45512,375.00326 C 239.45819,378.89676 238.02794,382.65225 243.09751,381.24801 L 247.90365,380.4454 C 248.37655,377.14346 248.26695,377.41574 248.71762,375.82911 C 250.34218,370.67115 246.25163,372.23467 242.28507,370.91876 C 242.41251,370.55911 242.54053,370.18984 242.60895,369.80178 C 242.73591,369.08173 242.75604,368.37444 242.66477,367.68558 C 247.02791,367.61469 250.52934,370.81792 250.77442,365.24421 L 251.49242,360.45234 C 248.49824,358.98224 248.71633,359.14883 247.34661,358.22992 C 242.72276,354.93391 243.19592,359.92568 240.29091,363.33223 C 239.64918,362.77713 238.90289,362.34642 238.07316,362.05268 C 239.44819,358.06305 243.25214,355.78878 238.14986,353.87932 L 233.80312,351.71667 C 231.4797,354.11002 231.73548,353.94423 230.43829,354.96294 C 226.21614,358.08915 230.05864,359.26006 232.5157,362.43723 C 231.51832,362.95965 230.67602,363.72815 230.02871,364.6642 C 226.86928,362.10559 225.85272,358.1174 222.55018,362.26664 L 219.14736,365.72834 z M 232.57622,368.03274 C 232.88433,366.2854 234.55767,365.11372 236.305,365.42183 C 238.05234,365.72992 239.22402,367.40327 238.91593,369.15061 C 238.60782,370.89791 236.93448,372.06963 235.18714,371.76152 C 233.43982,371.45343 232.26813,369.78008 232.57622,368.03274 z "
           id="path3259" />
        <path
           id="path3261"
           d="M 231.69952,438.22833 C 234.78899,439.486 234.55687,439.33392 235.98734,440.15505 C 240.48395,442.90867 240.07459,438.82535 242.12509,435.34846 C 243.03949,436.02449 244.07574,436.47659 245.18526,436.64884 C 243.99014,440.52253 240.72003,442.94807 245.79369,444.45265 L 250.3022,446.32412 C 252.45301,443.77452 252.18784,443.94012 253.41082,442.83339 C 257.53229,439.31114 253.21241,438.48725 250.54748,435.24894 C 251.36505,434.61216 252.00024,433.80672 252.45192,432.92255 C 255.72301,435.26038 257.04136,439.0566 260.02225,434.72223 L 263.18806,431.01807 C 261.42787,428.18466 261.51893,428.46369 260.8443,426.95858 C 258.77331,421.9631 256.64478,425.79018 252.76037,427.33179 C 252.62682,426.97437 252.48752,426.6092 252.29049,426.26795 C 251.92491,425.63475 251.4857,425.08 250.97299,424.61097 C 254.26978,421.75209 259.01103,421.95523 255.61606,417.52799 L 253.08592,413.39568 C 249.84729,414.19414 250.12144,414.18157 248.4815,414.35808 C 242.8208,414.80535 246.39191,418.32512 246.35623,422.80199 C 245.50782,422.78926 244.65928,422.93902 243.83485,423.24734 C 242.3237,419.30726 243.77582,415.11993 238.63987,416.93689 L 233.91995,418.07423 C 233.67853,421.40111 233.7679,421.10969 233.42901,422.72389 C 232.20414,427.83265 235.90031,426.25971 239.82478,427.11419 C 239.39654,428.15549 239.24529,429.28562 239.3511,430.41876 C 235.28619,430.48959 231.9439,428.08789 232.08109,433.38923 L 231.69952,438.22833 z M 243.46786,431.3617 C 242.58072,429.82511 243.10943,427.85195 244.64601,426.96481 C 246.18259,426.07766 248.15576,426.60638 249.04291,428.14295 C 249.93003,429.67951 249.40134,431.6527 247.86476,432.53985 C 246.32819,433.42699 244.35502,432.89828 243.46786,431.3617 z "
           style="fill:#318ecc;fill-opacity:1;stroke:none;stroke-width:0.5;stroke-miterlimit:4;stroke-dasharray:none;stroke-opacity:1" />
        <path
           style="fill:#318ecc;fill-opacity:1;stroke:none;stroke-width:0.5;stroke-miterlimit:4;stroke-dasharray:none;stroke-opacity:1"
           d="M 289.7545,486.29174 C 292.92959,485.2693 292.65402,485.302 294.27763,485.01154 C 299.49223,484.23057 296.55394,481.36569 295.88981,477.38421 C 297.02482,477.31431 298.10924,476.99455 299.0699,476.41331 C 300.64435,480.14894 299.6984,484.109 304.55218,482.00029 L 309.20886,480.5359 C 309.21762,477.20028 309.12093,477.49759 309.3464,475.86367 C 310.23957,470.51624 306.40076,472.66187 302.27776,471.89416 C 302.49474,470.88084 302.4636,469.85554 302.24127,468.88789 C 306.2498,468.57616 309.69988,470.63681 309.19729,465.40041 L 309.24146,460.52792 C 306.07179,459.48883 306.32091,459.64405 304.83664,458.92471 C 300.03914,456.42916 300.86859,460.72906 298.88389,464.40685 C 298.55184,464.2189 298.2104,464.0287 297.84012,463.89394 C 297.15305,463.64387 296.46001,463.50122 295.76577,463.47149 C 296.4536,459.16233 300.21619,456.27032 294.76971,455.0611 L 290.17532,453.52191 C 288.20762,456.21532 288.40955,456.02947 287.26674,457.21882 C 283.2179,461.20008 288.21599,461.60091 291.06633,465.05333 C 290.40823,465.58892 289.85448,466.24908 289.42111,467.0152 C 285.73087,464.96827 284.15169,460.82718 281.38525,465.52038 L 278.50064,469.42554 C 280.45418,472.12926 280.33532,471.84857 281.11331,473.30296 C 283.45885,478.00382 285.27921,474.42303 288.83478,472.555 C 289.17607,473.62795 289.78663,474.5909 290.59606,475.39092 C 287.52769,478.05806 283.42356,478.36663 286.93629,482.33951 L 289.7545,486.29174 z M 294.35579,473.46705 C 292.6885,472.8602 291.82519,471.00882 292.43204,469.34154 C 293.03888,467.67425 294.89027,466.81094 296.55755,467.41778 C 298.22481,468.02462 299.08815,469.87601 298.48131,471.5433 C 297.87447,473.21057 296.02309,474.07389 294.35579,473.46705 z "
           id="path3263" />
        <path
           id="path3265"
           d="M 421.14192,438.94457 C 420.68636,435.64018 420.67071,435.91724 420.66661,434.26786 C 420.80301,428.99686 417.47142,431.39303 413.4351,431.35569 C 413.56336,430.2258 413.43677,429.10233 413.03117,428.05533 C 416.98345,427.15348 420.71909,428.77272 419.48526,423.6265 L 418.85174,418.78628 C 415.56831,418.19843 415.84432,418.34528 414.27437,417.8395 C 409.16328,416.03134 410.60971,420.18441 409.13771,424.11146 C 408.17747,423.72182 407.16234,423.57444 406.17078,423.62536 C 406.55985,419.6236 409.1883,416.58376 403.94418,416.16943 L 399.15339,415.27982 C 397.57968,418.22091 397.7758,418.00252 396.80965,419.33934 C 393.51893,423.6306 397.89754,423.56042 401.17481,426.15361 C 400.93206,426.44798 400.68545,426.7512 400.48844,427.09246 C 400.12287,427.72567 399.86204,428.38341 399.7122,429.06193 C 395.58796,427.63628 393.39325,423.42866 391.25663,428.58242 L 388.94301,432.83973 C 391.25382,435.24524 391.10585,435.0141 392.07869,436.34608 C 395.29639,441.02475 396.55904,436.17219 400.45397,433.96467 C 400.86715,434.70577 401.42111,435.36574 402.10034,435.92557 C 399.4437,439.2043 395.09131,440.04039 399.23282,443.57976 L 402.57774,447.09868 C 405.57962,445.64431 405.28255,445.71263 406.84994,445.19901 C 411.88669,443.7054 408.6764,441.29089 407.45416,437.46497 C 408.57008,437.31517 409.62442,436.88111 410.55285,436.22289 C 412.64665,439.70779 412.23785,443.80315 416.76036,441.03368 L 421.14192,438.94457 z M 409.31107,432.1862 C 408.42392,433.72279 406.45075,434.2515 404.91418,433.36434 C 403.3776,432.47721 402.8489,430.50402 403.73604,428.96745 C 404.62317,427.4309 406.59636,426.90217 408.13294,427.7893 C 409.6695,428.67645 410.19821,430.64961 409.31107,432.1862 z "
           style="fill:#318ecc;fill-opacity:1;stroke:none;stroke-width:0.5;stroke-miterlimit:4;stroke-dasharray:none;stroke-opacity:1" />
        <path
           style="fill:#318ecc;fill-opacity:1;stroke:none;stroke-width:0.5;stroke-miterlimit:4;stroke-dasharray:none;stroke-opacity:1"
           d="M 363.90661,486.19027 C 365.68165,483.36613 365.49157,483.56831 366.54863,482.30217 C 370.04125,478.35203 365.94888,478.0461 362.88088,475.423 C 363.70541,474.63989 364.33059,473.69789 364.69288,472.63513 C 368.3002,474.48475 370.12104,478.12638 372.4838,473.39106 L 375.10973,469.27602 C 372.97234,466.71515 373.08938,467.00506 372.21184,465.60847 C 369.45878,460.93799 367.89727,465.04917 364.24539,467.11129 C 363.76026,466.19557 363.07736,465.43016 362.28505,464.83181 C 365.15538,462.01637 369.12286,461.37725 365.37196,457.689 L 362.27382,453.92806 C 359.1778,455.1695 359.46841,455.12827 357.86901,455.5313 C 352.5898,456.70337 355.98912,459.46412 356.83279,463.55721 C 356.45761,463.62667 356.07379,463.70044 355.70352,463.83522 C 355.01645,464.0853 354.39386,464.4215 353.84293,464.84497 C 351.59997,461.10184 352.62333,456.46788 347.67381,459.0425 L 343.16493,460.81663 C 343.38888,464.14471 343.4241,463.87254 343.31316,465.51822 C 342.77067,471.17059 346.85708,468.26493 351.25974,469.07748 C 351.09988,469.91078 351.10002,470.77243 351.26049,471.63788 C 347.11786,472.44188 343.2463,470.2847 344.14382,475.65813 L 344.44426,480.50385 C 347.67868,481.31931 347.4072,481.18069 348.93804,481.79474 C 353.75649,483.88812 352.84928,479.97497 354.37225,476.2585 C 355.32338,476.86105 356.41006,477.20625 357.54437,477.29881 C 356.90826,481.31427 353.96266,484.18873 359.20729,484.9742 L 363.90661,486.19027 z M 359.18785,473.40833 C 357.52055,474.01517 355.66917,473.15186 355.06234,471.48457 C 354.45549,469.81729 355.31882,467.9659 356.9861,467.35906 C 358.65336,466.75223 360.50477,467.61554 361.11162,469.28282 C 361.71845,470.9501 360.85514,472.80148 359.18785,473.40833 z "
           id="path3267" />
        <path
           style="fill:#318ecc;fill-opacity:1;stroke:none;stroke-width:0.5;stroke-miterlimit:4;stroke-dasharray:none;stroke-opacity:1"
           d="M 433.47207,366.17249 C 430.99907,363.93401 431.16517,364.15631 430.10183,362.89545 C 426.81818,358.76995 425.80626,362.74703 422.69026,365.31292 C 422.06224,364.36493 421.24311,363.58567 420.2594,363.04434 C 422.70733,359.813 426.60982,358.65219 422.35673,355.50305 L 418.76019,352.20244 C 415.86707,353.86267 416.1729,353.79775 414.64514,354.41944 C 409.56756,356.31966 413.34513,358.57135 414.74177,362.52583 C 413.75573,362.84457 412.88336,363.38419 412.15651,364.06056 C 409.88227,360.74494 409.94181,356.72675 405.65826,359.78021 L 401.41647,362.17819 C 402.10143,365.44276 402.11129,365.1494 402.23047,366.79449 C 402.468,372.19702 405.7771,369.32875 409.9545,369.20866 C 409.95776,369.59019 409.96375,369.98099 410.03219,370.36905 C 410.15917,371.0891 410.38215,371.76061 410.70351,372.37671 C 406.62777,373.93561 402.24192,372.12311 403.91794,377.44452 L 404.88216,382.19297 C 408.19857,382.55034 407.93664,382.46839 409.53806,382.86341 C 415.01036,384.37919 412.85844,379.85029 414.42316,375.65562 C 415.21604,375.95775 416.06462,376.10724 416.94479,376.09949 C 417.01722,380.3188 414.22052,383.75695 419.66817,383.80615 L 424.49244,384.35173 C 425.85716,381.30804 425.67351,381.55133 426.54405,380.15038 C 429.44235,375.76864 425.43111,375.98256 422.03557,373.83737 C 422.79412,373.00532 423.32278,371.99509 423.61091,370.89408 C 427.4549,372.2178 429.77419,375.6178 431.45845,370.58925 L 433.47207,366.17249 z M 420.06491,368.6 C 420.37302,370.34735 419.20133,372.02069 417.45399,372.32878 C 415.70667,372.63689 414.03332,371.46518 413.72522,369.71786 C 413.41713,367.97055 414.58882,366.29718 416.33614,365.98907 C 418.08346,365.68098 419.7568,366.85266 420.06491,368.6 z "
           id="path3269" />
        <path
           id="path3271"
           d="M 397.05474,300.80401 C 393.72144,300.67885 393.99158,300.74237 392.36655,300.46 C 387.1993,299.41037 388.98055,303.10744 388.24287,307.07596 C 387.15243,306.75344 386.02404,306.68302 384.92251,306.90065 C 384.72067,302.8518 386.964,299.4541 381.68171,299.77555 L 376.80501,299.55895 C 375.65593,302.69042 375.84848,302.4441 375.07776,303.90237 C 372.40955,308.62183 376.75069,307.91855 380.36247,310.05011 C 379.812,310.92809 379.49059,311.90222 379.36855,312.88756 C 375.49514,311.8095 372.95791,308.69311 371.63925,313.78561 L 369.93124,318.34914 C 372.55437,320.40966 372.37336,320.1786 373.5221,321.3622 C 377.17674,325.3481 377.86797,321.02383 380.99085,318.24665 C 381.23859,318.53683 381.49438,318.83235 381.79625,319.08563 C 382.35636,319.5556 382.95881,319.92667 383.60101,320.19207 C 381.48085,324.00609 376.95604,325.4368 381.66048,328.43591 L 385.45136,331.45365 C 388.22159,329.59566 387.96827,329.70125 389.44894,328.97448 C 394.61529,326.61811 390.0557,324.532 388.55807,320.31291 C 389.35965,320.0347 390.10579,319.60376 390.77506,319.03206 C 393.54267,322.21769 393.61027,326.64915 397.81504,323.18515 L 401.86133,320.50211 C 400.95032,317.29328 400.96602,317.5977 400.73238,315.96494 C 400.13608,310.74534 397.2008,313.48759 393.22076,314.02689 C 393.26701,312.90192 393.02263,311.78822 392.53563,310.75959 C 396.33117,309.30275 400.29333,310.41649 398.35126,305.48177 L 397.05474,300.80401 z M 388.34463,311.28155 C 389.70383,312.42205 389.88187,314.45705 388.74137,315.81623 C 387.60089,317.17541 385.56587,317.35343 384.20669,316.21295 C 382.84753,315.07247 382.66948,313.03745 383.80996,311.67827 C 384.95044,310.3191 386.98544,310.14106 388.34463,311.28155 z "
           style="fill:#318ecc;fill-opacity:1;stroke:none;stroke-width:0.5;stroke-miterlimit:4;stroke-dasharray:none;stroke-opacity:1" />
      </g>
    </g>
  </g>
</svg>
