<?xml version="1.0" encoding="UTF-8" standalone="no"?>
<svg xmlns:dc="http://purl.org/dc/elements/1.1/" xmlns:cc="http://creativecommons.org/ns#" xmlns:rdf="http://www.w3.org/1999/02/22-rdf-syntax-ns#" xmlns:svg="http://www.w3.org/2000/svg" xmlns="http://www.w3.org/2000/svg" xmlns:sodipodi="http://sodipodi.sourceforge.net/DTD/sodipodi-0.dtd" xmlns:inkscape="http://www.inkscape.org/namespaces/inkscape" version="1" width="1000" height="666.32">
  <rect style="opacity: 1; fill: rgb(81, 181, 224); fill-opacity: 1; stroke: none; stroke-opacity: 1;" id="rect2392" width="1000" height="666.321" x="0" y="0"/>
  <rect id="rect124" style="font-size: 12px; fill: rgb(0, 0, 102); stroke-width: 1pt;" y="0" x="0" height="333.33099" width="500"/>
  <g style="font-size: 12px;" id="g584" transform="matrix(8.33333, 0, 0, 11.111, 0, 9.76563e-05)">
    <path id="path146" style="fill: rgb(255, 255, 255); stroke-width: 1pt;" d="M 0.0000000,0.0000000 L 0.0000000,3.3541000 L 53.291800,30.000000 L 60.000000,30.000000 L 60.000000,26.645900 L 6.7082000,0.0000000 L 0.0000000,0.0000000 z M 60.000000,0.0000000 L 60.000000,3.3540500 L 6.7082000,30.000000 L 0.0000000,30.000000 L 0.0000000,26.645800 L 53.291800,0.0000000 L 60.000000,0.0000000 z "/>
    <path id="path136" style="fill: rgb(255, 255, 255); stroke-width: 1pt;" d="M 25.000000,0.0000000 L 25.000000,30.000000 L 35.000000,30.000000 L 35.000000,0.0000000 L 25.000000,0.0000000 z M 0.0000000,10.000000 L 0.0000000,20.000000 L 60.000000,20.000000 L 60.000000,10.000000 L 0.0000000,10.000000 z "/>
    <path id="path141" style="fill: rgb(204, 0, 0); stroke-width: 1pt;" d="M 0.0000000,12.000000 L 0.0000000,18.000000 L 60.000000,18.000000 L 60.000000,12.000000 L 0.0000000,12.000000 z M 27.000000,0.0000000 L 27.000000,30.000000 L 33.000000,30.000000 L 33.000000,0.0000000 L 27.000000,0.0000000 z "/>
    <path id="path150" style="fill: rgb(204, 0, 0); stroke-width: 1pt;" d="M 0.0000000,30.000000 L 20.000000,20.000000 L 24.472100,20.000000 L 4.4721400,30.000000 L 0.0000000,30.000000 z M 0.0000000,0.0000000 L 20.000000,10.000000 L 15.527900,10.000000 L 0.0000000,2.2360700 L 0.0000000,0.0000000 z M 35.527900,10.000000 L 55.527900,0.0000000 L 60.000000,0.0000000 L 40.000000,10.000000 L 35.527900,10.000000 z M 60.000000,30.000000 L 40.000000,20.000000 L 44.472100,20.000000 L 60.000000,27.763900 L 60.000000,30.000000 z "/>
  </g>
  <g id="g3863" transform="matrix(1.32294, 0, 0, 1.32205, -1604.06, -44.9714)">
    <path style="font-size: 12px; fill: rgb(255, 255, 255); fill-opacity: 1; fill-rule: evenodd; stroke: rgb(0, 0, 0); stroke-width: 2; stroke-miterlimit: 4; stroke-dasharray: none; stroke-opacity: 1;" id="path5001" d="M 1685.9251,161.08146 L 1685.9251,284.97591 C 1688.438,361.38272 1726.8073,388.74052 1780.3578,411.21402 C 1841.7219,384.09148 1872.8985,350.81582 1872.8985,284.97591 L 1872.8985,161.08146 L 1685.9251,161.08146 z"/>
    <path style="font-size: 12px; fill: rgb(210, 16, 52); fill-rule: evenodd; stroke-width: 1pt;" id="path693" d="M 1685.8949,282.87739 C 1685.8949,282.87739 1686.087,298.82721 1690.3033,318.87739 L 1868.985,318.77695 C 1872.9691,300.91915 1873.4289,282.87739 1873.4289,282.87739 L 1685.8949,282.87739 z"/>
    <path style="font-size: 12px; fill: rgb(210, 16, 52); fill-rule: evenodd; stroke-width: 1pt;" id="path694" d="M 1761.4118,220.68367 L 1761.4693,401.79337 C 1770.3124,406.19369 1781.5935,411.23741 1781.5935,411.23741 C 1781.5935,411.23741 1789.1238,406.35803 1797.4118,402.21467 L 1797.3543,220.68367 L 1761.4118,220.68367 z"/>
    <rect style="font-size: 12px; fill: rgb(210, 16, 52); fill-rule: evenodd; stroke-width: 1pt;" id="rect566" y="160.54774" x="1685.6617" height="66.812706" width="187.49997"/>
    <rect style="font-size: 12px; fill: rgb(246, 239, 236); fill-opacity: 1; fill-rule: evenodd; stroke: rgb(0, 0, 0); stroke-width: 0.209996; stroke-dasharray: none; stroke-opacity: 1;" id="rect909" y="191.89496" x="1689.9199" ry="7.730577" rx="5.9354806" height="15.58386" width="11.965175"/>
    <path style="font-size: 12px; fill: rgb(255, 209, 0); fill-opacity: 1; fill-rule: evenodd; stroke: rgb(0, 0, 0); stroke-width: 0.191956; stroke-linecap: butt; stroke-linejoin: miter; stroke-dasharray: none; stroke-opacity: 1;" id="path908" d="M 1833.0967,187.75023 C 1833.0967,187.75023 1843.8932,187.05617 1847.6719,183.35426 C 1851.4508,179.65256 1845.1079,172.94302 1849.1565,172.24894 C 1850.7759,172.13317 1853.0702,172.59609 1854.8245,174.44675 C 1854.5546,173.05879 1853.475,172.24894 1853.0702,171.43948 C 1851.5856,170.28231 1850.101,170.39808 1847.9418,170.39808 C 1846.4572,170.62964 1846.1873,170.16654 1843.7583,167.73739 C 1842.5436,166.5806 1842.5436,163.68874 1843.4882,161.7221 C 1840.6543,163.57297 1841.1941,166.1177 1841.464,166.69619 C 1842.1387,169.24131 1842.8135,169.93538 1842.8135,171.09235 C 1842.0038,170.74521 1840.5192,167.73739 1832.8268,167.27468 C 1825.1341,166.81196 1805.7003,171.902 1796.9282,171.902 C 1788.1559,171.902 1775.47,168.77859 1775.47,168.77859 C 1775.47,168.77859 1778.7089,166.5806 1774.7951,165.65519 C 1770.8816,164.72974 1762.2444,168.89436 1759.815,166.5806 C 1758.0607,164.38263 1758.7353,164.84533 1758.4654,163.80432 C 1757.7908,164.15127 1757.3858,165.5396 1758.3306,167.39044 C 1759.2751,169.24131 1759.815,168.66282 1759.6801,168.66282 C 1759.5451,168.66282 1756.5761,168.66282 1756.3062,169.58844 C 1756.0363,170.28231 1755.6313,171.09217 1757.1159,173.63709 C 1757.6557,171.09217 1755.6315,170.74521 1760.0849,170.51387 C 1764.5387,170.28251 1767.6425,172.01778 1771.4212,172.59609 C 1775.2001,173.17456 1775.2001,171.20794 1775.335,171.32353 C 1775.47,171.4393 1786.9412,174.09999 1797.4678,173.5215 C 1807.9944,172.9432 1824.9992,167.96875 1832.8265,169.00995 C 1840.6541,170.05097 1845.7825,174.90965 1845.9174,179.4212 C 1845.7825,182.19749 1842.4086,183.58562 1839.7095,184.04834 C 1836.4706,184.51105 1828.913,185.20533 1828.913,185.20533 L 1833.0967,187.75023 z"/>
    <path style="font-size: 12px; fill: rgb(255, 209, 0); fill-opacity: 1; fill-rule: evenodd; stroke: rgb(0, 0, 0); stroke-width: 0.129423; stroke-linecap: butt; stroke-linejoin: miter; stroke-dasharray: none; stroke-opacity: 1;" id="path900" d="M 1821.0144,190.40303 C 1820.8832,190.40303 1813.8037,190.56894 1811.7061,194.38178 C 1809.6086,198.19489 1808.6908,201.84238 1808.822,201.84238 C 1808.953,201.84238 1813.5415,198.69239 1813.5415,198.69239 C 1813.5415,198.69239 1810.133,204.99208 1811.9683,210.62894 C 1813.8037,216.26551 1807.1229,215.93396 1803.271,216.0996 C 1801.5666,214.44178 1796.1221,211.62335 1794.1806,211.12615 C 1792.9683,210.54597 1790.5876,210.47109 1788.1011,214.00666 C 1786.6364,216.18673 1790.2779,211.95492 1793.8898,212.28676 C 1794.2804,212.78397 1794.5318,213.28172 1794.6013,214.44178 C 1792.6768,214.27614 1790.6739,211.45772 1788.3142,217.2602 C 1790.6739,215.27083 1790.9689,215.31232 1792.1652,215.18786 C 1793.7588,215.03864 1793.5541,216.09987 1793.4885,216.09987 C 1793.2263,216.09987 1792.576,216.26551 1791.5915,217.42613 C 1791.0671,218.25489 1789.7561,220.07864 1790.0183,220.07864 C 1790.2805,220.07864 1791.0645,219.08395 1792.2918,218.25489 C 1793.0588,217.59177 1793.7872,217.59177 1796.1052,218.42082 C 1808.822,222.23365 1815.6391,219.4155 1816.4257,217.92334 C 1816.8191,217.26049 1809.084,198.52646 1829.6669,193.55302 C 1829.4047,193.38709 1821.0144,190.56894 1821.0144,190.40303 z"/>
    <path style="font-size: 12px; fill: rgb(255, 209, 0); fill-opacity: 1; fill-rule: evenodd; stroke: rgb(0, 0, 0); stroke-width: 0.174997; stroke-linecap: butt; stroke-linejoin: miter; stroke-dasharray: none; stroke-opacity: 1;" id="path899" d="M 1732.8717,211.12613 C 1741.3086,218.75236 1798.22,203.0027 1805.4297,197.53177 C 1809.5716,194.38178 1816.7813,192.06083 1816.7813,202.83679 C 1818.622,195.5421 1818.6223,193.71866 1818.6223,193.8843 C 1818.7756,194.05021 1821.5367,196.70299 1823.9913,205.65548 C 1824.6049,197.69741 1822.9174,193.05552 1823.8378,193.71866 C 1824.4514,193.05552 1824.4514,197.69741 1829.36,204.16303 C 1828.2864,199.02395 1827.9796,196.70272 1827.9796,196.70272 C 1827.9796,196.70272 1837.1836,206.31833 1842.3991,207.64459 C 1847.6148,208.97084 1855.1313,204.99207 1857.4324,207.31302 C 1859.7332,209.63425 1863.7223,213.77864 1863.5677,217.09456 C 1863.4158,220.41019 1854.9778,217.59177 1854.0574,220.24426 C 1853.1371,222.89706 1854.671,222.89706 1854.671,222.89706 C 1854.671,222.89706 1855.4379,224.88644 1856.0517,226.54424 C 1856.5118,225.38364 1855.5914,222.89677 1857.2789,222.73113 C 1858.506,222.89677 1858.506,225.05208 1858.8128,226.21269 C 1859.1706,224.88644 1858.7616,222.23392 1859.8867,222.23392 C 1861.1139,221.95749 1861.2672,224.33382 1862.1876,225.88085 L 1862.1876,222.23392 C 1865.716,221.07331 1868.7829,220.90767 1869.244,218.42082 C 1869.7025,215.93394 1863.8743,210.29737 1862.4936,206.6499 C 1861.1139,203.0027 1863.5677,201.51052 1860.9604,199.52114 C 1858.3528,197.53177 1848.3817,202.67113 1843.7798,200.68176 C 1839.1776,198.69238 1841.0184,184.4346 1823.6842,181.2849 C 1806.3501,178.1349 1759.4099,197.86334 1751.1262,198.69238 C 1742.8426,199.52114 1732.7185,195.87394 1732.7185,195.87394 L 1732.8717,211.12613 z"/>
    <path style="font-size: 12px; fill: rgb(255, 209, 0); fill-opacity: 1; fill-rule: evenodd; stroke: rgb(0, 0, 0); stroke-width: 0.157572; stroke-linecap: butt; stroke-linejoin: miter; stroke-dasharray: none; stroke-opacity: 1;" id="path892" d="M 1722.0124,205.64027 C 1722.0124,205.64027 1713.0377,216.85291 1706.987,216.62604 C 1700.9638,216.19236 1696.0253,208.77112 1694.7081,209.29678 C 1693.3908,209.82277 1693.0756,208.67636 1692.5681,206.62887 C 1692.0606,204.58107 1693.1311,203.56736 1693.1034,203.77375 C 1693.4052,203.84897 1693.7479,207.13651 1694.0226,207.41823 C 1694.2969,207.70024 1693.0076,203.32259 1694.8737,203.361 C 1695.5049,203.30462 1695.3947,206.47935 1695.9846,207.90747 C 1696.1628,207.73825 1695.3538,203.267 1696.136,203.2486 C 1696.9179,203.2298 1697.2469,207.79471 1698.4677,209.1664 C 1700.1825,211.51472 1702.9674,212.84956 1706.5897,213.75178 C 1710.404,213.20776 1719.3921,203.06633 1720.1193,203.46119 L 1722.0124,205.64027 z"/>
    <path style="font-size: 12px; fill: rgb(255, 209, 0); fill-opacity: 1; fill-rule: evenodd; stroke: rgb(0, 0, 0); stroke-width: 0.148746; stroke-linecap: butt; stroke-linejoin: miter; stroke-dasharray: none; stroke-opacity: 1;" id="path891" d="M 1722.2872,199.35019 C 1722.2872,199.35019 1714.9239,187.55946 1708.9414,186.43658 C 1702.9588,185.50099 1697.1295,190.92841 1695.9023,190.17982 C 1694.6752,189.43093 1694.2151,190.36712 1693.448,192.05131 C 1692.6809,193.73577 1693.6015,194.85834 1693.6013,194.67136 C 1693.908,194.67136 1694.6752,191.86399 1694.9822,191.67699 C 1695.289,191.48971 1693.448,195.04597 1695.289,195.41994 C 1695.9026,195.60724 1696.2094,192.79989 1696.9765,191.67669 C 1697.1297,191.86399 1695.7491,195.60724 1696.5162,195.79424 C 1697.283,195.98154 1698.2036,192.05131 1699.5841,191.11541 C 1701.5784,189.43124 1704.4928,188.86933 1708.1745,188.86964 C 1711.856,190.17982 1719.3726,201.03436 1720.1397,200.84706 L 1722.2872,199.35019 z"/>
    <path style="font-size: 12px; fill: rgb(255, 209, 0); fill-opacity: 1; fill-rule: evenodd; stroke: rgb(0, 0, 0); stroke-width: 0.139998; stroke-linecap: butt; stroke-linejoin: miter; stroke-dasharray: none; stroke-opacity: 1;" id="path887" d="M 1718.6055,195.70803 L 1710.4754,200.01835 L 1716.458,201.67645 L 1712.1626,206.98174 L 1718.2987,204.82644 L 1717.8387,211.95519 L 1721.3669,207.31331 L 1723.6677,213.77891 L 1726.122,208.97111 L 1729.0367,214.27614 L 1730.2639,209.13677 L 1733.7921,214.27614 L 1735.0193,207.31331 L 1739.3146,211.62363 L 1738.701,204.32896 L 1743.9165,206.15269 L 1740.6951,200.51583 C 1740.6951,200.51583 1746.3708,200.18428 1746.064,200.18428 C 1745.7573,200.18428 1741.769,196.53708 1738.2407,195.54239 L 1718.6055,195.70803 z"/>
    <path style="font-size: 12px; fill: rgb(255, 209, 0); fill-opacity: 1; fill-rule: evenodd; stroke: rgb(0, 0, 0); stroke-width: 0.125998; stroke-linecap: butt; stroke-linejoin: miter; stroke-dasharray: none; stroke-opacity: 1;" id="path888" d="M 1722.9039,193.81255 L 1718.4522,196.25378 L 1721.728,197.19288 L 1719.376,200.19765 L 1722.7359,198.97695 L 1722.484,203.01446 L 1724.416,200.38543 L 1725.6758,204.04737 L 1727.0197,201.32437 L 1728.6157,204.32898 L 1729.2876,201.41818 L 1731.2196,204.32898 L 1731.8915,200.38543 L 1734.2435,202.82668 L 1733.9075,198.69518 L 1736.7633,199.72809 L 1734.9994,196.53555 C 1734.9994,196.53555 1738.1072,196.34776 1737.9393,196.34776 C 1737.7713,196.34776 1735.5874,194.2821 1733.6555,193.71873 L 1722.9039,193.81255 z"/>
    <path style="font-size: 12px; fill: rgb(255, 209, 0); fill-opacity: 1; fill-rule: evenodd; stroke: rgb(0, 0, 0); stroke-width: 0.139998; stroke-linecap: butt; stroke-linejoin: miter; stroke-dasharray: none; stroke-opacity: 1;" id="path901" d="M 1725.2017,182.11365 C 1725.2017,182.11365 1722.9009,180.12428 1721.9805,182.11365 C 1721.0599,184.10332 1723.9745,183.27427 1723.9745,183.60584 C 1723.9745,183.93739 1721.9805,186.25835 1721.9805,188.91113 C 1721.9805,191.56363 1723.5145,196.03987 1723.5145,196.70299 C 1723.5145,197.36613 1724.128,199.18959 1726.2756,199.85271 C 1728.4231,200.51583 1729.1902,197.69768 1729.6503,197.36613 C 1730.1106,197.03456 1733.0253,197.86334 1734.0989,195.04519 C 1735.1728,192.22676 1735.1728,187.08738 1735.1728,187.08738 C 1735.1728,187.08738 1737.0136,188.57929 1737.0136,185.59521 C 1737.0136,182.61115 1735.0193,185.59521 1735.0193,185.59521 C 1735.0193,185.59521 1735.3261,182.44549 1730.5707,180.95333 C 1725.8153,179.46116 1725.3552,182.44549 1725.2017,182.11365 z"/>
    <path style="font-size: 12px; fill: rgb(255, 209, 0); fill-opacity: 1; fill-rule: evenodd; stroke: rgb(0, 0, 0); stroke-width: 0.174692; stroke-linecap: butt; stroke-linejoin: miter; stroke-dasharray: none; stroke-opacity: 1;" id="path893" d="M 1724.5887,181.58974 C 1723.97,179.69725 1722.1717,172.43593 1722.1717,172.43593 L 1726.1621,175.10122 C 1724.8089,174.58411 1723.657,174.28769 1723.8016,174.28505 C 1723.9459,174.28242 1725.6116,177.77517 1725.6116,177.77517 C 1727.1732,177.59906 1728.7567,178.41724 1730.6976,179.06363 C 1730.6976,179.06363 1732.224,176.16197 1732.0796,176.16462 C 1731.9351,176.16726 1731.2027,175.71053 1731.2027,175.71053 L 1734.7556,172.95162 L 1733.6789,176.60505 L 1732.9566,176.61829 L 1731.5694,179.28233 C 1733.2052,179.74971 1734.0083,180.12192 1735.6332,181.74986 C 1737.0346,181.39288 1738.2005,180.18394 1738.9393,179.27193 C 1737.6632,178.72854 1737.0757,178.29717 1737.2201,178.29453 C 1737.3646,178.29188 1742.5384,178.63923 1742.5384,178.63923 C 1742.5384,178.63923 1737.582,183.82427 1734.6622,185.74491 C 1731.896,184.51533 1724.8929,182.28899 1724.5887,181.58974 z"/>
    <rect style="font-size: 12px; fill: rgb(0, 0, 0); fill-opacity: 1; fill-rule: evenodd; stroke-width: 1pt;" id="rect903" transform="matrix(0.890737, 0.454519, -0.993207, -0.116359, 0, 0)" y="-1778.312" x="-45.779846" ry="0.78706193" rx="1.7811848" height="1.5866165" width="3.5906429"/>
    <rect style="font-size: 12px; fill: rgb(0, 0, 0); fill-opacity: 1; fill-rule: evenodd; stroke-width: 1pt;" id="rect904" transform="matrix(0.890737, 0.454519, -0.993207, -0.116359, 0, 0)" y="-1779.2312" x="-41.638229" ry="0.78706211" rx="1.7811849" height="1.5866171" width="3.5906434"/>
    <rect style="font-size: 12px; fill: rgb(0, 0, 0); fill-opacity: 1; fill-rule: evenodd; stroke-width: 1pt;" id="rect905" transform="matrix(0.938434, 0.345459, -0.996447, -0.0842181, 0, 0)" y="-1563.8972" x="178.24022" ry="1.5264376" rx="3.2895722" height="3.0771039" width="6.631362"/>
    <rect style="font-size: 12px; fill: rgb(0, 0, 0); fill-opacity: 1; fill-rule: evenodd; stroke-width: 1pt;" id="rect906" transform="matrix(0.925753, 0.378129, -0.995632, -0.0933689, 0, 0)" y="-1641.1771" x="100.46827" ry="0.68388975" rx="1.4927924" height="1.3786347" width="3.0092807"/>
    <rect style="font-size: 12px; fill: rgb(0, 0, 0); fill-opacity: 1; fill-rule: evenodd; stroke-width: 1pt;" id="rect907" transform="matrix(0.306889, -0.951745, 0.126422, 0.991976, 0, 0)" y="4009.4497" x="3975.3577" ry="0.56444961" rx="1.3512193" height="1.1378585" width="2.7238867"/>
    <path style="font-size: 12px; fill: rgb(0, 117, 0); fill-opacity: 1; fill-rule: evenodd; stroke: rgb(0, 0, 0); stroke-width: 0.132422; stroke-dasharray: none; stroke-opacity: 1;" id="path4960" d="M 1699.8563,328.47559 L 1696.1618,321.98732 L 1701.426,328.33393 L 1701.6641,330.90063 L 1699.8563,328.47559 z"/>
    <path style="font-size: 12px; fill: rgb(0, 117, 0); fill-opacity: 1; fill-rule: evenodd; stroke: rgb(0, 0, 0); stroke-width: 0.132422; stroke-dasharray: none; stroke-opacity: 1;" id="path4962" d="M 1700.8978,329.16877 L 1701.4881,324.4633 L 1703.1001,330.16784 L 1701.6571,331.05617 L 1700.8978,329.16877 z"/>
    <path style="font-size: 12px; fill: rgb(0, 117, 0); fill-opacity: 1; fill-rule: evenodd; stroke: rgb(0, 0, 0); stroke-width: 0.132422; stroke-dasharray: none; stroke-opacity: 1;" id="path4964" d="M 1699.5497,330.75979 L 1693.3458,327.51808 L 1698.4878,329.12047 L 1701.8436,331.01439 L 1699.5497,330.75979 z"/>
    <path style="font-size: 12px; fill: rgb(0, 117, 0); fill-opacity: 1; fill-rule: evenodd; stroke: rgb(0, 0, 0); stroke-width: 0.132422; stroke-dasharray: none; stroke-opacity: 1;" id="path4966" d="M 1701.3999,332.77067 L 1691.9671,330.06092 L 1699.3576,330.3422 L 1701.855,330.7543 L 1701.3999,332.77067 z"/>
    <path style="font-size: 12px; fill: rgb(0, 117, 0); fill-opacity: 1; fill-rule: evenodd; stroke: rgb(0, 0, 0); stroke-width: 0.132423; stroke-dasharray: none; stroke-opacity: 1;" id="path4968" d="M 1701.9361,329.66577 L 1707.706,328.74764 L 1705.6804,332.3986 L 1701.3059,330.84526 L 1701.9361,329.66577 z"/>
    <path style="font-size: 12px; fill: rgb(0, 117, 0); fill-opacity: 1; fill-rule: evenodd; stroke: rgb(0, 0, 0); stroke-width: 0.132422; stroke-dasharray: none; stroke-opacity: 1;" id="path4970" d="M 1705.1855,331.5712 L 1712.5309,334.60227 L 1706.3788,333.69806 L 1701.1725,330.66524 L 1705.1855,331.5712 z"/>
    <path style="font-size: 12px; fill: rgb(0, 117, 0); fill-opacity: 1; fill-rule: evenodd; stroke: rgb(0, 0, 0); stroke-width: 0.132422; stroke-dasharray: none; stroke-opacity: 1;" id="path4972" d="M 1706.2124,333.20405 L 1714.0414,337.63515 L 1707.0687,335.08652 L 1701.2899,330.61883 L 1706.2124,333.20405 z"/>
    <path style="font-size: 12px; fill: rgb(0, 117, 0); fill-opacity: 1; fill-rule: evenodd; stroke: rgb(0, 0, 0); stroke-width: 0.132422; stroke-dasharray: none; stroke-opacity: 1;" id="path4974" d="M 1706.2594,334.73075 L 1710.7895,341.43625 L 1703.7277,333.86936 L 1701.5227,330.70201 L 1706.2594,334.73075 z"/>
    <path style="font-size: 12px; fill: rgb(0, 117, 0); fill-opacity: 1; fill-rule: evenodd; stroke: rgb(0, 0, 0); stroke-width: 0.132422; stroke-dasharray: none; stroke-opacity: 1;" id="path4976" d="M 1705.101,334.87817 L 1705.2186,339.20577 L 1701.7905,332.86461 L 1701.4939,330.65972 L 1705.101,334.87817 z"/>
    <path style="font-size: 12px; fill: rgb(0, 117, 0); fill-opacity: 1; fill-rule: evenodd; stroke: rgb(0, 0, 0); stroke-width: 0.132422; stroke-dasharray: none; stroke-opacity: 1;" id="path4978" d="M 1703.349,333.53897 L 1699.9449,336.15605 L 1700.1159,331.4468 L 1701.6461,331.01102 L 1703.349,333.53897 z"/>
    <path style="font-size: 12px; fill: rgb(0, 117, 0); fill-opacity: 1; fill-rule: evenodd; stroke: rgb(0, 0, 0); stroke-width: 0.132422; stroke-dasharray: none; stroke-opacity: 1;" id="path4980" d="M 1699.0143,328.37831 L 1696.5221,324.70635 L 1699.9322,328.33716 L 1701.5706,330.85262 L 1699.0143,328.37831 z"/>
    <path style="font-size: 12px; fill: rgb(0, 117, 0); fill-opacity: 1; fill-rule: evenodd; stroke: rgb(0, 0, 0); stroke-width: 0.0880874; stroke-dasharray: none; stroke-opacity: 1;" id="path4982" d="M 1700.8202,329.92825 L 1698.3399,325.30428 L 1701.9462,330.31518 L 1702.4462,331.71733 L 1700.8202,329.92825 z"/>
    <path style="font-size: 12px; fill: rgb(0, 117, 0); fill-opacity: 1; fill-rule: evenodd; stroke: rgb(0, 0, 0); stroke-width: 0.0942537; stroke-dasharray: none; stroke-opacity: 1;" id="path4984" d="M 1701.0107,331.35384 L 1694.4729,328.49382 L 1699.9891,330.16323 L 1702.4023,331.423 L 1701.0107,331.35384 z"/>
    <path style="font-size: 12px; fill: rgb(0, 117, 0); fill-opacity: 1; fill-rule: evenodd; stroke: rgb(0, 0, 0); stroke-width: 0.08176; stroke-dasharray: none; stroke-opacity: 1;" id="path4986" d="M 1702.737,330.98537 L 1708.7286,332.77371 L 1704.2116,332.03614 L 1701.8523,331.16432 L 1702.737,330.98537 z"/>
    <path style="font-size: 12px; fill: rgb(0, 117, 0); fill-opacity: 1; fill-rule: evenodd; stroke: rgb(0, 0, 0); stroke-width: 0.0811496; stroke-dasharray: none; stroke-opacity: 1;" id="path4988" d="M 1703.0001,332.49437 L 1701.1935,333.66976 L 1702.1356,331.9083 L 1702.0303,331.05755 L 1703.0001,332.49437 z"/>
    <path style="font-size: 12px; fill: rgb(0, 117, 0); fill-opacity: 1; fill-rule: evenodd; stroke: rgb(0, 0, 0); stroke-width: 0.132422; stroke-dasharray: none; stroke-opacity: 1;" id="path4990" d="M 1705.5547,333.64326 L 1709.3927,338.45682 L 1706.1486,335.00277 L 1702.1938,331.22123 L 1705.5547,333.64326 z"/>
    <path style="font-size: 12px; fill: rgb(0, 117, 0); fill-opacity: 1; fill-rule: evenodd; stroke: rgb(0, 0, 0); stroke-width: 0.132422; stroke-dasharray: none; stroke-opacity: 1;" id="path4992" d="M 1704.5392,331.96098 L 1705.6243,330.68881 L 1705.9832,333.12694 L 1702.3278,331.5005 L 1704.5392,331.96098 z"/>
    <path style="font-size: 12px; fill: rgb(0, 117, 0); fill-opacity: 1; fill-rule: evenodd; stroke: rgb(0, 0, 0); stroke-width: 0.0926548; stroke-dasharray: none; stroke-opacity: 1;" id="path4994" d="M 1700.4074,329.20275 L 1698.7804,324.37453 L 1701.4395,329.37754 L 1701.6869,330.90457 L 1700.4074,329.20275 z"/>
    <path style="font-size: 12px; fill: rgb(255, 255, 255); fill-rule: evenodd; stroke: rgb(0, 0, 0); stroke-width: 0.330659;" id="path4997" d="M 1718.7122,340.05553 C 1719.6009,339.39878 1726.1794,324.51997 1757.4729,326.70731 C 1739.6925,334.14742 1728.6681,349.90145 1726.0019,350.55683 C 1724.0458,351.2136 1719.7785,342.46137 1718.7122,340.05553 z"/>
    <path style="font-size: 12px; fill: rgb(255, 255, 255); fill-rule: evenodd; stroke: rgb(0, 0, 0); stroke-width: 0.452313;" id="path4999" d="M 1760.6275,332.71589 C 1755.772,334.83623 1753.3914,335.8447 1750.9359,336.26041 C 1752.1876,336.97051 1754.9685,336.53886 1758.142,337.67464 C 1755.3148,337.75619 1750.0859,340.61847 1747.9107,340.68806 C 1749.4143,341.88548 1754.7766,340.73182 1755.763,341.04413 C 1752.8952,341.28082 1748.281,344.2286 1745.4073,344.2286 C 1744.091,345.56329 1752.0932,343.31564 1755.3043,345.83378 C 1751.9838,345.60702 1745.5332,348.1411 1742.0373,347.53044 C 1744.7027,349.60306 1749.4623,347.30767 1753.4319,349.55334 C 1752.2821,349.72042 1743.0717,351.08889 1739.8111,350.43849 C 1741.76,351.73336 1747.6334,351.51853 1749.077,352.66821 C 1746.6455,352.24653 1740.1904,354.03868 1737.9448,353.32658 C 1739.9671,355.25995 1746.0609,354.16996 1747.1807,355.33356 C 1743.1976,357.17543 1737.1623,355.70551 1734.386,356.20477 C 1736.2478,357.36042 1737.7844,358.52799 1739.4319,359.61005 C 1741.8364,361.84974 1749.3409,368.14911 1753.8232,370.04073 C 1748.8612,369.17945 1747.1297,369.06608 1743.9232,368.71799 L 1751.2192,378.97958 C 1748.1746,376.80354 1742.8078,372.69214 1739.2445,370.56982 C 1731.3533,365.442 1725.6657,366.32914 1720.2,361.98897 C 1712.5217,352.11127 1708.2583,340.33801 1707.8745,337.19725 C 1707.4893,334.05851 1707.1535,328.43142 1700.1497,331.36332 C 1706.9121,330.20767 1702.0861,322.90139 1709.1479,322.90139 C 1713.3956,322.90139 1712.8461,326.9975 1714.4352,329.72251 C 1715.4935,331.67777 1722.7965,338.55978 1724.2881,338.9158 C 1737.6959,328.34591 1748.5703,327.04706 1760.6275,332.71589 z"/>
    <path style="font-size: 12px; fill: rgb(0, 96, 0); fill-rule: evenodd; stroke: rgb(0, 0, 0); stroke-width: 0.25;" id="path5003" d="M 1802.1593,387.76004 C 1801.9019,386.14106 1801.734,385.32396 1802.4597,383.20117 C 1803.5189,381.7064 1804.0743,380.38135 1806.0064,378.83414 C 1808.1016,378.05705 1808.809,378.7582 1811.5576,375.88871 C 1812.4415,373.99784 1813.7876,372.56926 1814.5551,370.53069 C 1816.3462,367.52594 1816.9469,366.04215 1818.3789,363.73028 C 1820.2815,361.32732 1821.8128,359.17273 1822.926,357.3315 C 1824.1139,354.97134 1825.1805,353.51238 1826.9043,351.57178 C 1827.6018,349.35789 1829.0975,347.71547 1830.8825,345.81349 C 1832.2469,343.00747 1834.8632,339.79435 1835.9984,337.49485 C 1838.0102,334.90001 1838.7972,333.77242 1840.5443,331.09611 C 1842.0828,329.95326 1844.6782,327.44678 1846.7967,326.61726 C 1849.6888,325.25221 1851.2358,323.89955 1853.1387,325.97681 C 1854.3976,327.39434 1856.6608,329.67584 1855.0879,331.35972 C 1854.2604,332.3922 1852.9056,332.52051 1851.3438,331.73649 C 1849.739,330.5661 1848.9581,327.16107 1846.7967,329.81663 C 1845.2348,331.82488 1844.4342,333.42737 1842.2496,335.57496 C 1841.1635,337.37475 1840.38,338.72053 1839.4079,341.33465 C 1838.123,343.00332 1837.0613,344.87908 1835.9984,347.73339 C 1834.6204,349.0143 1833.4325,351.55661 1832.5878,353.49172 C 1831.2245,355.10102 1830.24,356.75455 1829.1771,359.25142 C 1827.0305,361.56603 1826.2287,363.5232 1824.63,365.00973 C 1823.5745,367.52175 1821.9121,369.9206 1820.6518,371.40848 C 1819.6563,373.23039 1818.6682,375.12818 1817.8101,377.16819 C 1816.0017,379.24547 1815.922,379.69401 1813.2629,382.92647 C 1811.0488,386.17696 1811.7942,385.78493 1808.3272,389.55301 C 1806.4294,390.25689 1804.523,390.49708 1802.1593,387.76004 z"/>
    <rect style="font-size: 12px; fill: rgb(255, 209, 0); fill-rule: evenodd; stroke: rgb(0, 0, 0); stroke-width: 0.25;" id="rect5006" transform="matrix(0.710965, 0.703227, -0.703227, 0.710965, 0, 0)" y="-1028.6334" x="1553.8932" ry="8.7742119" rx="2.1935194" height="17.687704" width="4.4218602"/>
    <rect style="font-size: 12px; fill: rgb(255, 209, 0); fill-rule: evenodd; stroke: rgb(0, 0, 0); stroke-width: 0.25;" id="rect5008" transform="matrix(0.926078, 0.377331, -0.377331, 0.926078, 0, 0)" y="-358.90576" x="1807.1823" ry="8.7741985" rx="2.193522" height="17.687668" width="4.4218612"/>
    <rect style="font-size: 12px; fill: rgb(255, 209, 0); fill-rule: evenodd; stroke: rgb(0, 0, 0); stroke-width: 0.25;" id="rect5010" transform="matrix(0.913307, 0.407271, -0.407271, 0.913307, 0, 0)" y="-416.88757" x="1798.1659" ry="8.7742271" rx="2.1935201" height="17.687725" width="4.421855"/>
    <rect style="font-size: 12px; fill: rgb(255, 209, 0); fill-rule: evenodd; stroke: rgb(0, 0, 0); stroke-width: 0.25;" id="rect5012" transform="matrix(0.810575, 0.585635, -0.585634, 0.810575, 0, 0)" y="-776.65356" x="1683.0917" ry="8.7742157" rx="2.1935253" height="17.687698" width="4.4218664"/>
    <rect style="font-size: 12px; fill: rgb(255, 209, 0); fill-rule: evenodd; stroke: rgb(0, 0, 0); stroke-width: 0.25;" id="rect5014" transform="matrix(0.6491, 0.760703, -0.760703, 0.6491, 0, 0)" y="-1158.0757" x="1467.6771" ry="8.7742214" rx="2.1935294" height="17.687719" width="4.421874"/>
    <rect style="font-size: 12px; fill: rgb(255, 209, 0); fill-rule: evenodd; stroke: rgb(0, 0, 0); stroke-width: 0.25;" id="rect5016" transform="matrix(0.701424, 0.712744, -0.712744, 0.701424, 0, 0)" y="-1050.1962" x="1543.2981" ry="8.7742224" rx="2.1935217" height="17.68771" width="4.4218602"/>
    <rect style="font-size: 12px; fill: rgb(255, 209, 0); fill-rule: evenodd; stroke: rgb(0, 0, 0); stroke-width: 0.25;" id="rect5018" transform="matrix(0.810575, 0.585635, -0.585634, 0.810575, 0, 0)" y="-776.1991" x="1688.9343" ry="8.7742062" rx="2.1935256" height="17.687681" width="4.4218664"/>
    <rect style="font-size: 12px; fill: rgb(255, 209, 0); fill-rule: evenodd; stroke: rgb(0, 0, 0); stroke-width: 0.25;" id="rect5020" transform="matrix(0.810575, 0.585635, -0.585634, 0.810575, 0, 0)" y="-776.81342" x="1685.9636" ry="8.7742157" rx="2.1935251" height="17.687698" width="4.4218664"/>
    <rect style="font-size: 12px; fill: rgb(255, 209, 0); fill-rule: evenodd; stroke: rgb(0, 0, 0); stroke-width: 0.25;" id="rect5022" transform="matrix(0.810575, 0.585635, -0.585635, 0.810575, 0, 0)" y="-804.0921" x="1671.2344" ry="8.77423" rx="2.1935275" height="17.687733" width="4.4218726"/>
    <rect style="font-size: 12px; fill: rgb(255, 209, 0); fill-rule: evenodd; stroke: rgb(0, 0, 0); stroke-width: 0.25;" id="rect5024" transform="matrix(0.810575, 0.585635, -0.585635, 0.810575, 0, 0)" y="-804.26495" x="1674.5067" ry="8.774231" rx="2.1935279" height="17.687735" width="4.4218726"/>
    <rect style="font-size: 12px; fill: rgb(255, 209, 0); fill-rule: evenodd; stroke: rgb(0, 0, 0); stroke-width: 0.25;" id="rect5026" transform="matrix(0.810575, 0.585635, -0.585635, 0.810575, 0, 0)" y="-804.24298" x="1677.9196" ry="8.774231" rx="2.1935279" height="17.687735" width="4.4218726"/>
    <rect style="font-size: 12px; fill: rgb(255, 209, 0); fill-rule: evenodd; stroke: rgb(0, 0, 0); stroke-width: 0.25;" id="rect5028" transform="matrix(0.810575, 0.585635, -0.585635, 0.810575, 0, 0)" y="-804.29266" x="1681.585" ry="8.774231" rx="2.1935279" height="17.687735" width="4.4218726"/>
    <rect style="font-size: 12px; fill: rgb(255, 209, 0); fill-rule: evenodd; stroke: rgb(0, 0, 0); stroke-width: 0.25;" id="rect5030" transform="matrix(0.810575, 0.585635, -0.585635, 0.810575, 0, 0)" y="-804.0415" x="1684.5244" ry="8.774231" rx="2.1935279" height="17.687735" width="4.4218726"/>
    <rect style="font-size: 12px; fill: rgb(255, 209, 0); fill-rule: evenodd; stroke: rgb(0, 0, 0); stroke-width: 0.25;" id="rect5032" transform="matrix(0.810575, 0.585635, -0.585635, 0.810575, 0, 0)" y="-805.97418" x="1701.5139" ry="8.774231" rx="2.1935277" height="17.687733" width="4.4218726"/>
    <rect style="font-size: 12px; fill: rgb(255, 209, 0); fill-rule: evenodd; stroke: rgb(0, 0, 0); stroke-width: 0.25;" id="rect5034" transform="matrix(0.810575, 0.585635, -0.585635, 0.810575, 0, 0)" y="-805.28296" x="1699.1788" ry="8.774231" rx="2.1935277" height="17.687733" width="4.4218726"/>
    <rect style="font-size: 12px; fill: rgb(255, 209, 0); fill-rule: evenodd; stroke: rgb(0, 0, 0); stroke-width: 0.25;" id="rect5036" transform="matrix(0.810575, 0.585635, -0.585635, 0.810575, 0, 0)" y="-804.93872" x="1696.8998" ry="8.7742319" rx="2.1935282" height="17.687737" width="4.4218726"/>
    <rect style="font-size: 12px; fill: rgb(255, 209, 0); fill-rule: evenodd; stroke: rgb(0, 0, 0); stroke-width: 0.25;" id="rect5038" transform="matrix(0.810575, 0.585635, -0.585635, 0.810575, 0, 0)" y="-804.81219" x="1693.5437" ry="8.774231" rx="2.1935279" height="17.687735" width="4.4218726"/>
    <rect style="font-size: 12px; fill: rgb(255, 209, 0); fill-rule: evenodd; stroke: rgb(0, 0, 0); stroke-width: 0.25;" id="rect5040" transform="matrix(0.810575, 0.585635, -0.585635, 0.810575, 0, 0)" y="-804.27454" x="1690.2546" ry="8.774231" rx="2.1935277" height="17.687733" width="4.4218726"/>
    <rect style="font-size: 12px; fill: rgb(255, 209, 0); fill-rule: evenodd; stroke: rgb(0, 0, 0); stroke-width: 0.25;" id="rect5042" transform="matrix(0.810575, 0.585635, -0.585635, 0.810575, 0, 0)" y="-804.20135" x="1687.3965" ry="8.774231" rx="2.1935277" height="17.687733" width="4.4218726"/>
    <rect style="font-size: 12px; fill: rgb(255, 209, 0); fill-rule: evenodd; stroke: rgb(0, 0, 0); stroke-width: 0.25;" id="rect5044" transform="matrix(0.879036, 0.476756, -0.476757, 0.879035, 0, 0)" y="-554.33105" x="1764.2727" ry="8.77425" rx="2.1935322" height="17.687771" width="4.4218845"/>
    <rect style="font-size: 12px; fill: rgb(255, 209, 0); fill-rule: evenodd; stroke: rgb(0, 0, 0); stroke-width: 0.25;" id="rect5046" transform="matrix(0.810575, 0.585635, -0.585635, 0.810575, 0, 0)" y="-789.9765" x="1670.3739" ry="8.77423" rx="2.1935275" height="17.687733" width="4.4218726"/>
    <rect style="font-size: 12px; fill: rgb(255, 209, 0); fill-rule: evenodd; stroke: rgb(0, 0, 0); stroke-width: 0.25;" id="rect5048" transform="matrix(0.810575, 0.585635, -0.585635, 0.810575, 0, 0)" y="-790.14935" x="1673.6464" ry="8.774231" rx="2.1935279" height="17.687735" width="4.4218726"/>
    <rect style="font-size: 12px; fill: rgb(255, 209, 0); fill-rule: evenodd; stroke: rgb(0, 0, 0); stroke-width: 0.25;" id="rect5050" transform="matrix(0.810575, 0.585635, -0.585635, 0.810575, 0, 0)" y="-790.12738" x="1677.0591" ry="8.774231" rx="2.1935279" height="17.687735" width="4.4218726"/>
    <rect style="font-size: 12px; fill: rgb(255, 209, 0); fill-rule: evenodd; stroke: rgb(0, 0, 0); stroke-width: 0.25;" id="rect5052" transform="matrix(0.810575, 0.585635, -0.585635, 0.810575, 0, 0)" y="-790.17712" x="1680.7246" ry="8.774231" rx="2.1935279" height="17.687735" width="4.4218726"/>
    <rect style="font-size: 12px; fill: rgb(255, 209, 0); fill-rule: evenodd; stroke: rgb(0, 0, 0); stroke-width: 0.25;" id="rect5054" transform="matrix(0.810575, 0.585635, -0.585635, 0.810575, 0, 0)" y="-789.92596" x="1683.6639" ry="8.774231" rx="2.1935279" height="17.687735" width="4.4218726"/>
    <rect style="font-size: 12px; fill: rgb(255, 209, 0); fill-rule: evenodd; stroke: rgb(0, 0, 0); stroke-width: 0.25;" id="rect5056" transform="matrix(0.810575, 0.585635, -0.585635, 0.810575, 0, 0)" y="-791.85858" x="1700.6534" ry="8.774231" rx="2.1935277" height="17.687733" width="4.4218726"/>
    <rect style="font-size: 12px; fill: rgb(255, 209, 0); fill-rule: evenodd; stroke: rgb(0, 0, 0); stroke-width: 0.25;" id="rect5058" transform="matrix(0.810575, 0.585635, -0.585635, 0.810575, 0, 0)" y="-791.16736" x="1698.3185" ry="8.774231" rx="2.1935277" height="17.687733" width="4.4218726"/>
    <rect style="font-size: 12px; fill: rgb(255, 209, 0); fill-rule: evenodd; stroke: rgb(0, 0, 0); stroke-width: 0.25;" id="rect5060" transform="matrix(0.810575, 0.585635, -0.585635, 0.810575, 0, 0)" y="-790.82312" x="1696.0393" ry="8.7742319" rx="2.1935282" height="17.687737" width="4.4218726"/>
    <rect style="font-size: 12px; fill: rgb(255, 209, 0); fill-rule: evenodd; stroke: rgb(0, 0, 0); stroke-width: 0.25;" id="rect5062" transform="matrix(0.810575, 0.585635, -0.585635, 0.810575, 0, 0)" y="-790.69659" x="1692.6832" ry="8.774231" rx="2.1935279" height="17.687735" width="4.4218726"/>
    <rect style="font-size: 12px; fill: rgb(255, 209, 0); fill-rule: evenodd; stroke: rgb(0, 0, 0); stroke-width: 0.25;" id="rect5064" transform="matrix(0.810575, 0.585635, -0.585635, 0.810575, 0, 0)" y="-790.159" x="1689.3943" ry="8.774231" rx="2.1935277" height="17.687733" width="4.4218726"/>
    <rect style="font-size: 12px; fill: rgb(255, 209, 0); fill-rule: evenodd; stroke: rgb(0, 0, 0); stroke-width: 0.25;" id="rect5066" transform="matrix(0.810575, 0.585635, -0.585635, 0.810575, 0, 0)" y="-790.08575" x="1686.536" ry="8.774231" rx="2.1935277" height="17.687733" width="4.4218726"/>
    <rect style="font-size: 12px; fill: rgb(178, 128, 46); fill-rule: evenodd; stroke: rgb(0, 0, 0); stroke-width: 0.172298;" id="rect5068" y="244.95587" x="1830.4026" ry="1.0419263" rx="2.9909897" height="37.457203" width="6.0294547"/>
    <path style="font-size: 12px; fill: rgb(0, 117, 0); fill-opacity: 1; fill-rule: evenodd; stroke: rgb(0, 0, 0); stroke-width: 0.350406; stroke-dasharray: none; stroke-opacity: 1;" id="path5071" d="M 1827.1307,259.12676 L 1809.8252,270.80773 L 1820.9537,256.64634 L 1832.0984,254.05318 L 1827.1307,259.12676 z"/>
    <path style="font-size: 12px; fill: rgb(0, 117, 0); fill-opacity: 1; fill-rule: evenodd; stroke: rgb(0, 0, 0); stroke-width: 0.350406; stroke-dasharray: none; stroke-opacity: 1;" id="path5073" d="M 1826.7093,256.80656 L 1802.6695,259.85852 L 1823.6344,252.30052 L 1832.8515,253.93131 L 1826.7093,256.80656 z"/>
    <path style="font-size: 12px; fill: rgb(0, 117, 0); fill-opacity: 1; fill-rule: evenodd; stroke: rgb(0, 0, 0); stroke-width: 0.350406; stroke-dasharray: none; stroke-opacity: 1;" id="path5075" d="M 1838.8725,257.6793 L 1845.5394,270.7385 L 1834.9515,260.8435 L 1832.0006,253.65922 L 1838.8725,257.6793 z"/>
    <path style="font-size: 12px; fill: rgb(0, 117, 0); fill-opacity: 1; fill-rule: evenodd; stroke: rgb(0, 0, 0); stroke-width: 0.350406; stroke-dasharray: none; stroke-opacity: 1;" id="path5077" d="M 1841.762,252.8883 L 1862.2583,270.84373 L 1837.602,258.35332 L 1830.7501,253.86102 L 1841.762,252.8883 z"/>
    <path style="font-size: 12px; fill: rgb(0, 117, 0); fill-opacity: 1; fill-rule: evenodd; stroke: rgb(0, 0, 0); stroke-width: 0.350406; stroke-dasharray: none; stroke-opacity: 1;" id="path5079" d="M 1825.3827,254.66028 L 1800.8221,245.88331 L 1824.9826,246.11343 L 1833.1031,254.69453 L 1825.3827,254.66028 z"/>
    <path style="font-size: 12px; fill: rgb(0, 117, 0); fill-opacity: 1; fill-rule: evenodd; stroke: rgb(0, 0, 0); stroke-width: 0.350405; stroke-dasharray: none; stroke-opacity: 1;" id="path5081" d="M 1822.8594,247.64265 L 1811.1981,232.87187 L 1828.5947,243.8431 L 1832.7315,255.06997 L 1822.8594,247.64265 z"/>
    <path style="font-size: 12px; fill: rgb(0, 117, 0); fill-opacity: 1; fill-rule: evenodd; stroke: rgb(0, 0, 0); stroke-width: 0.350406; stroke-dasharray: none; stroke-opacity: 1;" id="path5083" d="M 1826.8725,244.54152 L 1820.0473,227.76997 L 1832.6512,241.50986 L 1832.1018,254.91474 L 1826.8725,244.54152 z"/>
    <path style="font-size: 12px; fill: rgb(0, 117, 0); fill-opacity: 1; fill-rule: evenodd; stroke: rgb(0, 0, 0); stroke-width: 0.350406; stroke-dasharray: none; stroke-opacity: 1;" id="path5085" d="M 1833.8326,243.15634 L 1849.216,229.90434 L 1838.7075,248.09033 L 1831.6702,254.45792 L 1833.8326,243.15634 z"/>
    <path style="font-size: 12px; fill: rgb(0, 117, 0); fill-opacity: 1; fill-rule: evenodd; stroke: rgb(0, 0, 0); stroke-width: 0.350406; stroke-dasharray: none; stroke-opacity: 1;" id="path5087" d="M 1838.5911,244.9491 L 1858.3792,241.04739 L 1840.8244,252.16084 L 1831.574,254.54104 L 1838.5911,244.9491 z"/>
    <path style="font-size: 12px; fill: rgb(0, 117, 0); fill-opacity: 1; fill-rule: evenodd; stroke: rgb(0, 0, 0); stroke-width: 0.350406; stroke-dasharray: none; stroke-opacity: 1;" id="path5089" d="M 1838.4975,248.9998 L 1862.6755,252.40022 L 1840.0917,256.15042 L 1832.6806,253.9875 L 1838.4975,248.9998 z"/>
    <path style="font-size: 12px; fill: rgb(0, 117, 0); fill-opacity: 1; fill-rule: evenodd; stroke: rgb(0, 0, 0); stroke-width: 0.350406; stroke-dasharray: none; stroke-opacity: 1;" id="path5091" d="M 1829.6377,260.60555 L 1821.2541,267.8814 L 1826.2204,259.11944 L 1832.2055,254.24923 L 1829.6377,260.60555 z"/>
    <path style="font-size: 12px; fill: rgb(0, 117, 0); fill-opacity: 1; fill-rule: evenodd; stroke: rgb(0, 0, 0); stroke-width: 0.23309; stroke-dasharray: none; stroke-opacity: 1;" id="path5093" d="M 1830.5279,256.28463 L 1817.6584,264.35616 L 1828.3775,254.08686 L 1833.166,252.05717 L 1830.5279,256.28463 z"/>
    <path style="font-size: 12px; fill: rgb(0, 117, 0); fill-opacity: 1; fill-rule: evenodd; stroke: rgb(0, 0, 0); stroke-width: 0.249407; stroke-dasharray: none; stroke-opacity: 1;" id="path5095" d="M 1836.5153,254.74682 L 1846.1376,268.03262 L 1834.547,257.45979 L 1831.9485,252.3811 L 1836.5153,254.74682 z"/>
    <path style="font-size: 12px; fill: rgb(0, 117, 0); fill-opacity: 1; fill-rule: evenodd; stroke: rgb(0, 0, 0); stroke-width: 0.216347; stroke-dasharray: none; stroke-opacity: 1;" id="path5097" d="M 1828.7274,252.20259 L 1816.0217,240.73994 L 1828.4508,248.85841 L 1832.6714,253.51565 L 1828.7274,252.20259 z"/>
    <path style="font-size: 12px; fill: rgb(0, 117, 0); fill-opacity: 1; fill-rule: evenodd; stroke: rgb(0, 0, 0); stroke-width: 0.214732; stroke-dasharray: none; stroke-opacity: 1;" id="path5099" d="M 1834.8453,250.47321 L 1846.6802,252.4608 L 1835.1476,252.40821 L 1831.5462,253.31146 L 1834.8453,250.47321 z"/>
    <path style="font-size: 12px; fill: rgb(0, 117, 0); fill-opacity: 1; fill-rule: evenodd; stroke: rgb(0, 0, 0); stroke-width: 0.350406; stroke-dasharray: none; stroke-opacity: 1;" id="path5101" d="M 1831.2345,245.25581 L 1840.2185,234.77159 L 1835.494,243.10701 L 1831.7381,252.90094 L 1831.2345,245.25581 z"/>
    <path style="font-size: 12px; fill: rgb(0, 117, 0); fill-opacity: 1; fill-rule: evenodd; stroke: rgb(0, 0, 0); stroke-width: 0.350406; stroke-dasharray: none; stroke-opacity: 1;" id="path5103" d="M 1826.9471,248.37921 L 1817.1955,247.67035 L 1827.3159,244.98719 L 1832.5678,252.43878 L 1826.9471,248.37921 z"/>
    <path style="font-size: 12px; fill: rgb(0, 117, 0); fill-opacity: 1; fill-rule: evenodd; stroke: rgb(0, 0, 0); stroke-width: 0.245176; stroke-dasharray: none; stroke-opacity: 1;" id="path5105" d="M 1828.591,257.58916 L 1811.7696,264.42145 L 1825.7803,255.72882 L 1832.0392,254.01076 L 1828.591,257.58916 z"/>
    <rect style="font-size: 12px; fill: rgb(178, 128, 46); fill-rule: evenodd; stroke: rgb(0, 0, 0); stroke-width: 0.161178;" id="rect5107" transform="matrix(0.93621, 0.351442, -0.295439, 0.955362, 0, 0)" y="-374.96793" x="1739.8599" ry="0.80434901" rx="1.5727836" height="28.916304" width="3.1705315"/>
    <rect style="font-size: 12px; fill: rgb(178, 128, 46); fill-rule: evenodd; stroke: rgb(0, 0, 0); stroke-width: 0.161036;" id="rect5109" y="251.32817" x="1723.1107" ry="0.81182313" rx="1.5555681" height="29.185007" width="3.1358273"/>
    <path style="font-size: 12px; fill: rgb(0, 69, 0); fill-opacity: 1; fill-rule: evenodd; stroke: rgb(0, 0, 0); stroke-width: 0.166829; stroke-linecap: butt; stroke-linejoin: miter; stroke-dasharray: none; stroke-opacity: 1;" id="path5111" d="M 1715.077,236.42548 C 1718.9131,235.28487 1721.8293,237.64411 1723.0735,242.76839 C 1723.0906,243.23323 1723.9821,243.30924 1723.9696,243.1791 C 1723.3129,234.47715 1731.9548,227.31714 1737.4472,239.62236 C 1737.9944,241.5727 1734.825,238.64792 1732.8152,236.40832 C 1730.2927,233.30136 1726.8716,237.07076 1726.6416,245.15692 C 1726.4097,246.98994 1726.1,251.00275 1726.1,251.00275 C 1726.1,251.00275 1723.2635,250.63254 1723.1936,250.52344 C 1723.1242,250.41512 1720.8447,240.49406 1716.6752,239.46931 C 1713.5631,238.99775 1714.3909,240.92181 1710.6984,241.73931 C 1707.2528,242.06291 1707.3501,241.55696 1709.918,240.41172 C 1712.1422,240.29473 1713.5971,236.96789 1715.077,236.42548 z"/>
    <path style="font-size: 12px; fill: rgb(0, 69, 0); fill-opacity: 1; fill-rule: evenodd; stroke: rgb(0, 0, 0); stroke-width: 0.166829; stroke-linecap: butt; stroke-linejoin: miter; stroke-dasharray: none; stroke-opacity: 1;" id="path5113" d="M 1715.853,241.45515 C 1719.7454,240.57659 1722.5245,243.1289 1723.4804,248.32777 C 1723.4715,248.79289 1724.3571,248.92915 1724.3519,248.79838 C 1724.182,240.06842 1736.4815,239.81338 1741.2768,252.46738 C 1741.7141,254.45108 1740.8588,254.29372 1738.9777,251.92219 C 1736.6334,248.65024 1727.5892,242.89821 1726.9084,250.95349 C 1726.5747,252.76734 1726.0417,256.7516 1726.0417,256.7516 C 1726.0417,256.7516 1723.2311,256.18993 1723.1675,256.0763 C 1723.1043,255.96346 1721.3827,245.90677 1717.2783,244.60152 C 1714.1983,243.92001 1713.2677,246.73757 1709.5366,247.3034 C 1706.0794,247.39297 1706.2048,246.89459 1708.8317,245.92546 C 1709.327,245.84593 1714.3455,241.8963 1715.853,241.45515 z"/>
    <path style="font-size: 12px; fill: rgb(0, 69, 0); fill-opacity: 1; fill-rule: evenodd; stroke: rgb(0, 0, 0); stroke-width: 0.166829; stroke-linecap: butt; stroke-linejoin: miter; stroke-dasharray: none; stroke-opacity: 1;" id="path5115" d="M 1716.8607,247.48696 C 1720.8047,246.95619 1723.3885,249.74653 1723.9617,255.01328 C 1723.9189,255.47607 1724.7917,255.69038 1724.796,255.55959 C 1725.264,246.84285 1733.1677,251.61467 1736.2996,263.57319 C 1736.7227,264.85393 1733.8403,262.2627 1732.1385,259.73217 C 1730.0406,256.26306 1728.4536,249.9654 1727.1869,257.93423 C 1726.7219,259.71265 1725.8997,263.63677 1725.8997,263.63677 C 1725.8997,263.63677 1723.1393,262.82783 1723.0842,262.70896 C 1723.0294,262.59087 1722.0476,252.4142 1718.0518,250.74944 C 1715.0315,249.79721 1713.245,257.79431 1709.4847,258.02767 C 1706.0321,257.81059 1706.1935,257.32493 1708.8827,256.59175 C 1709.3821,256.55638 1715.326,247.79309 1716.8607,247.48696 z"/>
    <rect style="font-size: 12px; fill: rgb(178, 128, 46); fill-rule: evenodd; stroke: rgb(0, 0, 0); stroke-width: 0.161036;" id="rect5117" transform="matrix(0.945519, -0.325568, 0.325568, 0.945519, 0, 0)" y="791.9342" x="1526.0615" ry="0.81182355" rx="1.5555691" height="29.185022" width="3.1358292"/>
    <path style="font-size: 12px; fill: rgb(0, 69, 0); fill-opacity: 1; fill-rule: evenodd; stroke: rgb(0, 0, 0); stroke-width: 0.166829; stroke-linecap: butt; stroke-linejoin: miter; stroke-dasharray: none; stroke-opacity: 1;" id="path5120" d="M 1704.8673,234.74917 C 1700.885,235.16364 1699.0966,238.45767 1699.9148,243.66501 C 1700.0775,244.10077 1699.283,244.51202 1699.2446,244.38707 C 1696.5097,236.10113 1687.591,236.32317 1687.2418,249.78611 C 1687.4852,251.79625 1689.2958,247.94664 1690.2927,245.10983 C 1691.4302,241.27609 1694.2177,239.85733 1697.5354,247.23546 C 1698.4535,248.83922 1700.2806,252.42588 1700.2806,252.42588 C 1700.2806,252.42588 1702.7592,250.99885 1702.7819,250.8714 C 1702.8044,250.7448 1701.1007,240.7124 1704.5595,238.17106 C 1707.2538,236.545 1707.3638,236.60417 1711.0893,235.94635 C 1714.3971,234.9269 1714.1129,234.49698 1711.3006,234.42197 C 1710.8046,234.50515 1706.4429,234.68378 1704.8673,234.74917 z"/>
    <path style="font-size: 12px; fill: rgb(0, 69, 0); fill-opacity: 1; fill-rule: evenodd; stroke: rgb(0, 0, 0); stroke-width: 0.166829; stroke-linecap: butt; stroke-linejoin: miter; stroke-dasharray: none; stroke-opacity: 1;" id="path5122" d="M 1706.0823,239.69023 C 1702.1485,240.36822 1700.561,243.78805 1701.6743,248.95398 C 1701.8611,249.38004 1701.0952,249.84465 1701.0498,249.72195 C 1697.8543,241.59638 1689.0036,242.40686 1689.4324,255.92516 C 1689.7901,257.9241 1691.3677,253.94588 1692.1949,251.03656 C 1693.1044,247.11858 1695.793,245.51268 1699.5153,252.68984 C 1700.5202,254.23694 1702.5427,257.71177 1702.5427,257.71177 C 1702.5427,257.71177 1704.9237,256.11793 1704.9389,255.98868 C 1704.954,255.86028 1702.6827,245.91609 1705.9736,243.14067 C 1708.5576,241.33308 1708.6703,241.38515 1712.3348,240.48016 C 1715.5634,239.2402 1715.2562,238.82801 1712.4569,238.9382 C 1711.9688,239.05424 1707.6444,239.52085 1706.0823,239.69023 z"/>
    <path style="font-size: 12px; fill: rgb(0, 69, 0); fill-opacity: 1; fill-rule: evenodd; stroke: rgb(0, 0, 0); stroke-width: 0.166829; stroke-linecap: butt; stroke-linejoin: miter; stroke-dasharray: none; stroke-opacity: 1;" id="path5124" d="M 1707.4671,245.64519 C 1703.6193,246.66399 1702.3036,250.22886 1703.7965,255.31106 C 1704.0138,255.72201 1703.2897,256.25378 1703.2354,256.13468 C 1699.4557,248.2654 1690.7444,249.84103 1692.1885,263.35447 C 1692.6938,265.32731 1693.9575,261.2036 1694.5581,258.216 C 1695.1642,254.21033 1697.7079,252.36876 1701.9383,259.24196 C 1703.0509,260.70608 1705.3174,264.01477 1705.3174,264.01477 C 1705.3174,264.01477 1707.5572,262.21179 1707.5625,262.08094 C 1707.5678,261.95094 1704.5669,252.17899 1707.6195,249.11316 C 1710.0443,247.07848 1710.1599,247.12093 1713.7238,245.89776 C 1716.8304,244.37648 1716.4948,243.98976 1713.7286,244.34163 C 1713.2535,244.50005 1709.0026,245.34067 1707.4671,245.64519 z"/>
    <path style="font-size: 12px; fill: rgb(0, 69, 0); fill-opacity: 1; fill-rule: evenodd; stroke: rgb(0, 0, 0); stroke-width: 0.166829; stroke-linecap: butt; stroke-linejoin: miter; stroke-dasharray: none; stroke-opacity: 1;" id="path5126" d="M 1738.0599,232.85474 C 1742.0199,233.21154 1744.0396,236.51878 1743.6367,241.80466 C 1743.51,242.24842 1744.3256,242.65231 1744.3538,242.52521 C 1746.4083,234.09172 1756.7394,230.57578 1758.1287,244.20276 C 1758.0447,246.24203 1755.9605,242.30822 1754.757,239.45144 C 1753.3375,235.58738 1748.9605,237.85901 1746.2607,245.38247 C 1745.4796,247.02094 1743.9558,250.6816 1743.9558,250.6816 C 1743.9558,250.6816 1741.4003,249.27576 1741.368,249.14704 C 1741.336,249.01921 1742.2378,238.83357 1738.629,236.31486 C 1735.8452,234.71089 1736.0333,236.83006 1732.3076,236.22278 C 1728.9658,235.24275 1729.2128,234.80293 1731.9809,234.68257 C 1734.1099,235.40166 1736.5006,232.81342 1738.0599,232.85474 z"/>
    <path style="font-size: 12px; fill: rgb(0, 69, 0); fill-opacity: 1; fill-rule: evenodd; stroke: rgb(0, 0, 0); stroke-width: 0.166829; stroke-linecap: butt; stroke-linejoin: miter; stroke-dasharray: none; stroke-opacity: 1;" id="path5128" d="M 1737.2455,237.87698 C 1741.1781,238.50135 1743.0094,241.93919 1742.3122,247.18775 C 1742.1611,247.6221 1742.9526,248.08047 1742.9878,247.95551 C 1745.5091,239.67714 1757.1614,244.02245 1757.7876,257.71774 C 1757.5899,259.74748 1756.8334,259.28049 1755.7916,256.34758 C 1754.5904,252.39466 1747.8462,243.61021 1744.7317,250.93651 C 1743.8606,252.51898 1742.1354,256.06952 1742.1354,256.06952 C 1742.1354,256.06952 1739.6632,254.49322 1739.6382,254.36257 C 1739.6133,254.2328 1741.0819,244.1275 1737.6204,241.36912 C 1734.9314,239.57959 1733.1904,241.88401 1729.5056,241.02549 C 1726.2248,239.82096 1726.4959,239.39871 1729.2655,239.46607 C 1729.7559,239.57587 1735.6914,237.73012 1737.2455,237.87698 z"/>
    <path style="font-size: 12px; fill: rgb(0, 69, 0); fill-opacity: 1; fill-rule: evenodd; stroke: rgb(0, 0, 0); stroke-width: 0.166829; stroke-linecap: butt; stroke-linejoin: miter; stroke-dasharray: none; stroke-opacity: 1;" id="path5130" d="M 1736.3413,243.92872 C 1740.2157,244.89959 1741.7901,248.48854 1740.712,253.65832 C 1740.5296,254.07788 1741.2851,254.60492 1741.3293,254.48347 C 1744.4468,246.45537 1750.4187,253.89224 1749.6933,266.31295 C 1749.6981,267.67586 1747.7816,264.16292 1746.9573,261.14722 C 1746.0485,257.10066 1746.4892,250.58281 1742.8499,257.60938 C 1741.8661,259.10951 1739.8873,262.49563 1739.8873,262.49563 C 1739.8873,262.49563 1737.5382,260.70537 1737.5228,260.57292 C 1737.5075,260.44139 1739.709,250.49899 1736.4601,247.44277 C 1733.9105,245.42075 1729.7733,252.28012 1726.1632,251.09785 C 1722.9809,249.60645 1723.282,249.20959 1726.0377,249.5222 C 1726.5185,249.6751 1734.8031,243.64463 1736.3413,243.92872 z"/>
    <path style="font-size: 12px; fill: none; fill-opacity: 1; fill-rule: evenodd; stroke: rgb(0, 0, 0); stroke-width: 2; stroke-miterlimit: 4; stroke-dasharray: none; stroke-opacity: 1;" id="path5239" d="M 1685.9251,161.08146 L 1685.9251,284.97591 C 1688.438,361.38272 1726.8073,388.74052 1780.3578,411.21402 C 1841.7219,384.09148 1872.8985,350.81582 1872.8985,284.97591 L 1872.8985,161.08146 L 1685.9251,161.08146 z"/>
  </g>
</svg>