<?xml version="1.0" encoding="UTF-8" standalone="no"?>
<svg
   xmlns:dc="http://purl.org/dc/elements/1.1/"
   xmlns:cc="http://creativecommons.org/ns#"
   xmlns:rdf="http://www.w3.org/1999/02/22-rdf-syntax-ns#"
   xmlns:svg="http://www.w3.org/2000/svg"
   xmlns="http://www.w3.org/2000/svg"
   xmlns:sodipodi="http://sodipodi.sourceforge.net/DTD/sodipodi-0.dtd"
   xmlns:inkscape="http://www.inkscape.org/namespaces/inkscape"
   width="540"
   height="360"
   viewBox="0 0 432 288"
   version="1.1"
   id="svg2263"
   sodipodi:version="0.32"
   inkscape:version="0.47 r22583"
   sodipodi:docname="florence.svg"
   inkscape:output_extension="org.inkscape.output.svg.inkscape"
   sodipodi:modified="true">
  <metadata
     id="metadata2280">
    <rdf:RDF>
      <cc:Work
         rdf:about="">
        <dc:format>image/svg+xml</dc:format>
        <dc:type
           rdf:resource="http://purl.org/dc/dcmitype/StillImage" />
      </cc:Work>
    </rdf:RDF>
  </metadata>
  <sodipodi:namedview
     inkscape:window-height="695"
     inkscape:window-width="1024"
     inkscape:pageshadow="2"
     inkscape:pageopacity="0.0"
     guidetolerance="10.0"
     gridtolerance="10.0"
     objecttolerance="10.0"
     borderopacity="1.0"
     bordercolor="#666666"
     pagecolor="#ffffff"
     id="base"
     inkscape:zoom="1.0710526"
     inkscape:cx="283.74999"
     inkscape:cy="189.99999"
     inkscape:window-x="-3"
     inkscape:window-y="0"
     inkscape:current-layer="svg2263"
     showgrid="false"
     inkscape:window-maximized="1" />
  <defs
     id="defs2265">
    <inkscape:perspective
       sodipodi:type="inkscape:persp3d"
       inkscape:vp_x="0 : 190 : 1"
       inkscape:vp_y="0 : 1000 : 0"
       inkscape:vp_z="567.5 : 190 : 1"
       inkscape:persp3d-origin="283.75 : 126.66667 : 1"
       id="perspective16" />
    <clipPath
       id="clip0">
      <rect
         width="454"
         height="304"
         id="rect2268"
         x="0"
         y="0" />
    </clipPath>
  </defs>
  <rect
     style="fill:#f9f9f9;fill-opacity:1;stroke:none"
     id="rect2822"
     width="432"
     height="288"
     x="0"
     y="3.375078e-14" />
  <g
     transform="matrix(1.521558,0,0,1.4472802,125.5624,28.036674)"
     id="g6039">
    <path
       id="path3130"
       d="m 59.4375,1 c -3.2495,9.444881 -20.15625,12.114395 -20.15625,27.21875 0,14.823243 17.67282,18.11087 18.0625,74.6875 l -1.5,0 C 56.00309,96.6279 55.62285,75.56896 44.15625,59.09375 42.48294,55.024876 41.19813,50.619496 42.03125,45.5 c -1.899971,1.456649 -2.94988,3.860685 -3.1875,7.1875 -1.35745,-1.431081 -2.63655,-2.764337 -3.875,-4.03125 -2.336061,-6.098797 2.00416,-14.362885 -5.90625,-17.3125 3.46528,6.204924 1.19815,9.084017 1.5,12.875 -3.510491,-3.450007 -6.324511,-6.001992 -8.6875,-8.0625 -0.300421,-0.792541 -0.48147,-1.677869 -0.46875,-2.75 -1.999681,0.557242 -3.92649,-0.662048 -4.125,-2.09375 -0.47193,-3.403917 4.687509,-2.40625 4.6875,-2.40625 0.575979,-1.188268 -0.97381,-5.821486 -4.8125,-4.78125 -3.834161,1.039011 -2.999991,4.1875 -3,4.1875 -1.25898,-3.717036 -3.55891,-4.763315 -6.0625,-4.71875 -1.137991,0.02026 -2.384481,0.39508 -3.53125,0.71875 -0.24917,3.804826 0.29939,7.896842 5.96875,8.5625 0,0 -3.28187,-0.153963 -3.5,3.8125 -0.21837,3.971133 4.645159,4.52946 5.6875,3.71875 0,0 -2.021321,-4.878027 1.40625,-5.125 1.44166,-0.103879 3.003789,1.521865 2.875,3.59375 1.297219,-0.292222 2.41337,-0.240354 3.40625,0 2.272619,1.995656 4.93235,4.461284 8.25,7.71875 -4.370221,-0.425878 -6.87847,2.823515 -13.9375,-0.25 3.727349,7.607466 11.56431,2.410045 17.875,4.1875 1.53432,1.563863 3.15352,3.206043 4.875,5.03125 0.08696,0.0922 0.16402,0.188435 0.25,0.28125 -4.421041,-0.51574 -7.61461,0.289871 -9.5625,2.40625 5.653929,-0.404609 10.24557,1.627871 14.4375,3.90625 9.963989,15.471062 10.35871,35.01797 10.25,40.75 l -2.5,0 C 50.82705,84.099251 39.201499,59.84375 18.6875,59.84375 8.502339,59.843748 1.000009,67.025953 1,77.1875 c -1.1e-5,22.39243 29.312509,11.20544 29.3125,24.90625 9e-6,7.43504 -8.633271,6.24407 -8.8125,6.21875 0.228009,-3.04782 2.343759,-2.27814 2.34375,-4.59375 9e-6,-2.29906 -2.14336,-2.37397 -3.78125,-4.09375 -1.637881,1.71978 -3.74998,1.79469 -3.75,4.09375 0,2.20404 1.930189,1.6208 2.3125,4.1875 -3.088171,-0.21446 -2.33193,-2.34375 -4.65625,-2.34375 -2.29906,-1e-5 -2.37397,2.14337 -4.09375,3.78125 1.71978,1.63788 1.79469,3.74999 4.09375,3.75 2.32432,0 1.568079,-2.12928 4.65625,-2.34375 -0.386581,2.55274 -2.312491,1.98693 -2.3125,4.1875 9e-6,2.29906 2.11213,2.37397 3.75,4.09375 1.637879,-1.71978 3.78127,-1.79469 3.78125,-4.09375 0,-2.28542 -2.070511,-1.58882 -2.34375,-4.5 0.180699,0.0191 11.750009,1.19569 11.75,-9.34375 -1.1e-5,-11.1082 -9.812491,-11.20286 -9.8125,-19.3125 0,-3.914735 2.661699,-5.5625 6.71875,-5.5625 10.086949,3e-6 17.259239,14.81117 17.375,26.6875 l -0.875,0 c -3.31196,0 -5.96875,2.65679 -5.96875,5.96875 0,3.31196 2.65679,6 5.96875,6 l 6.46875,0 c -2.33162,6.09124 -8.9751,8.34375 -14.84375,8.34375 -10.101211,0 -15.888581,3.73101 -16.78125,10.40625 3.12081,-4.95634 6.743489,-3.1682 10,-4.28125 3.26504,-1.11596 5.134459,-4.15625 9.75,-4.15625 -3.29784,1.72384 -4.946061,3.65192 -4.75,5.8125 1.801669,-1.67888 4.536319,-1.22905 6.375,-2.3125 1.868989,-1.10131 2.880659,-4.43187 5.75,-5.71875 -1.22429,1.5214 -2.648211,3.63429 -3.03125,5.25 1.990669,-1.86471 3.976299,-1.70542 5.46875,-2.875 1.5377,-1.20505 1.67084,-3.54175 4.1875,-4.25 -0.552141,3.44887 -2.58918,8.7923 -9.84375,10.875 -7.4501,2.13885 -11.823461,6.72542 -12.03125,13.6875 3.32226,-4.51817 4.71761,-3.82326 7.21875,-5.65625 2.540749,-1.86201 2.293369,-3.66684 5,-5.3125 -0.855451,1.7816 -1.625371,3.60107 -1.40625,5.8125 1.33878,-1.94768 3.962649,-2.23377 6.625,-4.6875 1.763509,-1.62534 1.710619,-4.53125 3.4375,-4.53125 1.174539,0 2.0625,0.94195 2.0625,2.5 0,2.48977 -2.949751,4.96063 -4.34375,8.4375 -1.38721,3.45996 -0.25,8.6875 -0.25,8.6875 2.236139,-0.46072 4.168099,-2.26706 5.96875,-4.6875 1e-5,2.66808 -1.9375,4.38339 -1.9375,6.0625 0,3.48737 2.509729,4.59382 3.65625,6.96875 1.146519,-2.37493 3.6875,-3.48138 3.6875,-6.96875 0,-1.67911 -1.96874,-3.39442 -1.96875,-6.0625 1.80065,2.42044 3.763849,4.22678 6.000001,4.6875 0,0 1.13721,-5.22754 -0.25,-8.6875 -1.394002,-3.47687 -4.343762,-5.94773 -4.343751,-8.4375 0,-1.55805 0.88795,-2.5 2.0625,-2.5 1.726882,0 1.673981,2.90591 3.437501,4.53125 2.662351,2.45373 5.28622,2.73982 6.625,4.6875 0.219121,-2.21143 -0.55081,-4.0309 -1.40625,-5.8125 2.706631,1.64566 2.459271,3.45049 5,5.3125 2.501139,1.83299 3.896479,1.13808 7.218749,5.65625 -0.2078,-6.96208 -4.58115,-11.54865 -12.031249,-13.6875 -7.25457,-2.0827 -9.291602,-7.42613 -9.843751,-10.875 2.516661,0.70825 2.649791,3.04495 4.187501,4.25 1.492451,1.16958 3.47807,1.01029 5.46875,2.875 -0.383039,-1.61571 -1.80695,-3.7286 -3.03125,-5.25 2.869341,1.28688 3.881,4.61744 5.75,5.71875 1.83868,1.08345 4.573319,0.63362 6.374999,2.3125 0.19605,-2.16058 -1.45216,-4.08866 -4.749999,-5.8125 4.615539,0 6.484969,3.04029 9.749999,4.15625 3.2565,1.11305 6.87918,-0.67509 10,4.28125 -0.89268,-6.67524 -6.68003,-10.40625 -16.78125,-10.40625 -5.870919,0 -12.514559,-2.24717 -14.84375,-8.34375 l 6.500001,0 c 3.31196,0 5.96875,-2.68804 5.96875,-6 0,-3.31196 -2.6568,-5.96875 -5.96875,-5.96875 l -0.875,0 c 0.115761,-11.87633 7.28805,-26.687497 17.374999,-26.6875 4.05706,0 6.71875,1.647765 6.71875,5.5625 0,8.10964 -9.81249,8.2043 -9.8125,19.3125 0,10.53944 11.5693,9.36282 11.75,9.34375 -0.27323,2.91118 -2.34375,2.21458 -2.34375,4.5 -1e-5,2.29906 2.14337,2.37397 3.78125,4.09375 1.63788,-1.71978 3.74999,-1.79469 3.75,-4.09375 0,-2.20057 -1.92592,-1.63476 -2.3125,-4.1875 3.08818,0.21447 2.33193,2.34375 4.65625,2.34375 2.29907,-1e-5 2.37397,-2.11212 4.09375,-3.75 -1.71977,-1.63788 -1.79469,-3.78126 -4.09375,-3.78125 -2.32431,0 -1.56808,2.12929 -4.65625,2.34375 0.38232,-2.5667 2.3125,-1.98346 2.3125,-4.1875 -1e-5,-2.29906 -2.11212,-2.37397 -3.75,-4.09375 -1.63788,1.71978 -3.78126,1.79469 -3.78125,4.09375 0,2.31561 2.11574,1.54593 2.34375,4.59375 -0.17922,0.0253 -8.81251,1.21629 -8.8125,-6.21875 0,-13.70081 29.31251,-2.51382 29.3125,-24.90625 0,-10.161547 -7.50234,-17.343752 -17.6875,-17.34375 -20.513998,0 -32.170799,24.255501 -31.687499,43.0625 l -2.46875,0 c -0.108712,-5.73203 0.286011,-25.278938 10.25,-40.75 4.191939,-2.278379 8.783569,-4.310859 14.437499,-3.90625 -1.94788,-2.116379 -5.14146,-2.92199 -9.5625,-2.40625 0.08599,-0.09282 0.16304,-0.18905 0.25,-0.28125 1.72149,-1.825207 3.34068,-3.467387 4.875,-5.03125 6.3107,-1.777455 14.14765,3.419966 17.875,-4.1875 -7.05902,3.073515 -9.56728,-0.175878 -13.9375,0.25 3.31766,-3.257466 5.97738,-5.723094 8.25,-7.71875 0.99289,-0.240354 2.10903,-0.292222 3.40625,0 -0.12878,-2.071885 1.43334,-3.697629 2.875,-3.59375 3.42758,0.246973 1.40625,5.125 1.40625,5.125 1.04235,0.81071 5.90587,0.252383 5.6875,-3.71875 -0.21812,-3.966463 -3.5,-3.8125 -3.5,-3.8125 5.66937,-0.665658 6.21792,-4.757674 5.96875,-8.5625 -1.14676,-0.32367 -2.39326,-0.698493 -3.53125,-0.71875 -2.50358,-0.04456 -4.80352,1.001714 -6.0625,4.71875 0,0 0.83416,-3.148489 -3,-4.1875 -3.83868,-1.040236 -5.38848,3.592982 -4.8125,4.78125 0,0 5.15943,-0.997667 4.6875,2.40625 -0.1985,1.431702 -2.12532,2.650992 -4.125,2.09375 0.01273,1.072131 -0.16833,1.957459 -0.46875,2.75 -2.36298,2.060508 -5.17701,4.612493 -8.6875,8.0625 0.30186,-3.790983 -1.96528,-6.670076 1.5,-12.875 -7.9104,2.949615 -3.57019,11.213703 -5.90625,17.3125 -1.23844,1.266913 -2.51755,2.600169 -3.875,4.03125 -0.237609,-3.326815 -1.287529,-5.730851 -3.187499,-7.1875 0.83313,5.119496 -0.45169,9.524876 -2.125,13.59375 C 63.25215,75.56896 62.87191,96.6279 63.03125,102.90625 l -1.5,0 C 61.920969,46.329788 79.562501,43.041978 79.562501,28.21875 79.562501,13.114395 62.686979,10.444881 59.4375,1 z"
       style="fill:none;stroke:#ffffff;stroke-width:2;stroke-linecap:butt;stroke-linejoin:miter;stroke-miterlimit:2;stroke-opacity:1;stroke-dasharray:none" />
    <path
       style="fill:#e40000;fill-opacity:1;fill-rule:evenodd;stroke:none"
       d="m 59.4375,1 c -3.2495,9.444881 -20.15625,12.114395 -20.15625,27.21875 0,14.823243 17.67282,18.11087 18.0625,74.6875 l -1.5,0 C 56.00309,96.6279 55.62285,75.56896 44.15625,59.09375 42.48294,55.024876 41.19813,50.619496 42.03125,45.5 c -1.899971,1.456649 -2.94988,3.860685 -3.1875,7.1875 -1.35745,-1.431081 -2.63655,-2.764337 -3.875,-4.03125 -2.336061,-6.098797 2.00416,-14.362885 -5.90625,-17.3125 3.46528,6.204924 1.19815,9.084017 1.5,12.875 -3.510491,-3.450007 -6.324511,-6.001992 -8.6875,-8.0625 -0.300421,-0.792541 -0.48147,-1.677869 -0.46875,-2.75 -1.999681,0.557242 -3.92649,-0.662048 -4.125,-2.09375 -0.47193,-3.403917 4.687509,-2.40625 4.6875,-2.40625 0.575979,-1.188268 -0.97381,-5.821486 -4.8125,-4.78125 -3.834161,1.039011 -2.999991,4.1875 -3,4.1875 -1.25898,-3.717036 -3.55891,-4.763315 -6.0625,-4.71875 -1.137991,0.02026 -2.384481,0.39508 -3.53125,0.71875 -0.24917,3.804826 0.29939,7.896842 5.96875,8.5625 0,0 -3.28187,-0.153963 -3.5,3.8125 -0.21837,3.971133 4.645159,4.52946 5.6875,3.71875 0,0 -2.021321,-4.878027 1.40625,-5.125 1.44166,-0.103879 3.003789,1.521865 2.875,3.59375 1.297219,-0.292222 2.41337,-0.240354 3.40625,0 2.272619,1.995656 4.93235,4.461284 8.25,7.71875 -4.370221,-0.425878 -6.87847,2.823515 -13.9375,-0.25 3.727349,7.607466 11.56431,2.410045 17.875,4.1875 1.53432,1.563863 3.15352,3.206043 4.875,5.03125 0.08696,0.0922 0.16402,0.188435 0.25,0.28125 -4.421041,-0.51574 -7.61461,0.289871 -9.5625,2.40625 5.653929,-0.404609 10.24557,1.627871 14.4375,3.90625 9.963989,15.471062 10.35871,35.01797 10.25,40.75 l -2.5,0 C 50.82705,84.099251 39.201499,59.84375 18.6875,59.84375 8.502339,59.843748 1.000009,67.025953 1,77.1875 c -1.1e-5,22.39243 29.312509,11.20544 29.3125,24.90625 9e-6,7.43504 -8.633271,6.24407 -8.8125,6.21875 0.228009,-3.04782 2.343759,-2.27814 2.34375,-4.59375 9e-6,-2.29906 -2.14336,-2.37397 -3.78125,-4.09375 -1.637881,1.71978 -3.74998,1.79469 -3.75,4.09375 0,2.20404 1.930189,1.6208 2.3125,4.1875 -3.088171,-0.21446 -2.33193,-2.34375 -4.65625,-2.34375 -2.29906,-1e-5 -2.37397,2.14337 -4.09375,3.78125 1.71978,1.63788 1.79469,3.74999 4.09375,3.75 2.32432,0 1.568079,-2.12928 4.65625,-2.34375 -0.386581,2.55274 -2.312491,1.98693 -2.3125,4.1875 9e-6,2.29906 2.11213,2.37397 3.75,4.09375 1.637879,-1.71978 3.78127,-1.79469 3.78125,-4.09375 0,-2.28542 -2.070511,-1.58882 -2.34375,-4.5 0.180699,0.0191 11.750009,1.19569 11.75,-9.34375 -1.1e-5,-11.1082 -9.812491,-11.20286 -9.8125,-19.3125 0,-3.914735 2.661699,-5.5625 6.71875,-5.5625 10.086949,3e-6 17.259239,14.81117 17.375,26.6875 l -0.875,0 c -3.31196,0 -5.96875,2.65679 -5.96875,5.96875 0,3.31196 2.65679,6 5.96875,6 l 6.46875,0 c -2.33162,6.09124 -8.9751,8.34375 -14.84375,8.34375 -10.101211,0 -15.888581,3.73101 -16.78125,10.40625 3.12081,-4.95634 6.743489,-3.1682 10,-4.28125 3.26504,-1.11596 5.134459,-4.15625 9.75,-4.15625 -3.29784,1.72384 -4.946061,3.65192 -4.75,5.8125 1.801669,-1.67888 4.536319,-1.22905 6.375,-2.3125 1.868989,-1.10131 2.880659,-4.43187 5.75,-5.71875 -1.22429,1.5214 -2.648211,3.63429 -3.03125,5.25 1.990669,-1.86471 3.976299,-1.70542 5.46875,-2.875 1.5377,-1.20505 1.67084,-3.54175 4.1875,-4.25 -0.552141,3.44887 -2.58918,8.7923 -9.84375,10.875 -7.4501,2.13885 -11.823461,6.72542 -12.03125,13.6875 3.32226,-4.51817 4.71761,-3.82326 7.21875,-5.65625 2.540749,-1.86201 2.293369,-3.66684 5,-5.3125 -0.855451,1.7816 -1.625371,3.60107 -1.40625,5.8125 1.33878,-1.94768 3.962649,-2.23377 6.625,-4.6875 1.763509,-1.62534 1.710619,-4.53125 3.4375,-4.53125 1.174539,0 2.0625,0.94195 2.0625,2.5 0,2.48977 -2.949751,4.96063 -4.34375,8.4375 -1.38721,3.45996 -0.25,8.6875 -0.25,8.6875 2.236139,-0.46072 4.168099,-2.26706 5.96875,-4.6875 1e-5,2.66808 -1.9375,4.38339 -1.9375,6.0625 0,3.48737 2.509729,4.59382 3.65625,6.96875 1.146519,-2.37493 3.6875,-3.48138 3.6875,-6.96875 0,-1.67911 -1.96874,-3.39442 -1.96875,-6.0625 1.80065,2.42044 3.763849,4.22678 6.000001,4.6875 0,0 1.13721,-5.22754 -0.25,-8.6875 -1.394002,-3.47687 -4.343762,-5.94773 -4.343751,-8.4375 0,-1.55805 0.88795,-2.5 2.0625,-2.5 1.726882,0 1.673981,2.90591 3.437501,4.53125 2.662351,2.45373 5.28622,2.73982 6.625,4.6875 0.219121,-2.21143 -0.55081,-4.0309 -1.40625,-5.8125 2.706631,1.64566 2.459271,3.45049 5,5.3125 2.501139,1.83299 3.896479,1.13808 7.218749,5.65625 -0.2078,-6.96208 -4.58115,-11.54865 -12.031249,-13.6875 -7.25457,-2.0827 -9.291602,-7.42613 -9.843751,-10.875 2.516661,0.70825 2.649791,3.04495 4.187501,4.25 1.492451,1.16958 3.47807,1.01029 5.46875,2.875 -0.383039,-1.61571 -1.80695,-3.7286 -3.03125,-5.25 2.869341,1.28688 3.881,4.61744 5.75,5.71875 1.83868,1.08345 4.573319,0.63362 6.374999,2.3125 0.19605,-2.16058 -1.45216,-4.08866 -4.749999,-5.8125 4.615539,0 6.484969,3.04029 9.749999,4.15625 3.2565,1.11305 6.87918,-0.67509 10,4.28125 -0.89268,-6.67524 -6.68003,-10.40625 -16.78125,-10.40625 -5.870919,0 -12.514559,-2.24717 -14.84375,-8.34375 l 6.500001,0 c 3.31196,0 5.96875,-2.68804 5.96875,-6 0,-3.31196 -2.6568,-5.96875 -5.96875,-5.96875 l -0.875,0 c 0.115761,-11.87633 7.28805,-26.687497 17.374999,-26.6875 4.05706,0 6.71875,1.647765 6.71875,5.5625 0,8.10964 -9.81249,8.2043 -9.8125,19.3125 0,10.53944 11.5693,9.36282 11.75,9.34375 -0.27323,2.91118 -2.34375,2.21458 -2.34375,4.5 -1e-5,2.29906 2.14337,2.37397 3.78125,4.09375 1.63788,-1.71978 3.74999,-1.79469 3.75,-4.09375 0,-2.20057 -1.92592,-1.63476 -2.3125,-4.1875 3.08818,0.21447 2.33193,2.34375 4.65625,2.34375 2.29907,-1e-5 2.37397,-2.11212 4.09375,-3.75 -1.71977,-1.63788 -1.79469,-3.78126 -4.09375,-3.78125 -2.32431,0 -1.56808,2.12929 -4.65625,2.34375 0.38232,-2.5667 2.3125,-1.98346 2.3125,-4.1875 -1e-5,-2.29906 -2.11212,-2.37397 -3.75,-4.09375 -1.63788,1.71978 -3.78126,1.79469 -3.78125,4.09375 0,2.31561 2.11574,1.54593 2.34375,4.59375 -0.17922,0.0253 -8.81251,1.21629 -8.8125,-6.21875 0,-13.70081 29.31251,-2.51382 29.3125,-24.90625 0,-10.161547 -7.50234,-17.343752 -17.6875,-17.34375 -20.513998,0 -32.170799,24.255501 -31.687499,43.0625 l -2.46875,0 c -0.108712,-5.73203 0.286011,-25.278938 10.25,-40.75 4.191939,-2.278379 8.783569,-4.310859 14.437499,-3.90625 -1.94788,-2.116379 -5.14146,-2.92199 -9.5625,-2.40625 0.08599,-0.09282 0.16304,-0.18905 0.25,-0.28125 1.72149,-1.825207 3.34068,-3.467387 4.875,-5.03125 6.3107,-1.777455 14.14765,3.419966 17.875,-4.1875 -7.05902,3.073515 -9.56728,-0.175878 -13.9375,0.25 3.31766,-3.257466 5.97738,-5.723094 8.25,-7.71875 0.99289,-0.240354 2.10903,-0.292222 3.40625,0 -0.12878,-2.071885 1.43334,-3.697629 2.875,-3.59375 3.42758,0.246973 1.40625,5.125 1.40625,5.125 1.04235,0.81071 5.90587,0.252383 5.6875,-3.71875 -0.21812,-3.966463 -3.5,-3.8125 -3.5,-3.8125 5.66937,-0.665658 6.21792,-4.757674 5.96875,-8.5625 -1.14676,-0.32367 -2.39326,-0.698493 -3.53125,-0.71875 -2.50358,-0.04456 -4.80352,1.001714 -6.0625,4.71875 0,0 0.83416,-3.148489 -3,-4.1875 -3.83868,-1.040236 -5.38848,3.592982 -4.8125,4.78125 0,0 5.15943,-0.997667 4.6875,2.40625 -0.1985,1.431702 -2.12532,2.650992 -4.125,2.09375 0.01273,1.072131 -0.16833,1.957459 -0.46875,2.75 -2.36298,2.060508 -5.17701,4.612493 -8.6875,8.0625 0.30186,-3.790983 -1.96528,-6.670076 1.5,-12.875 -7.9104,2.949615 -3.57019,11.213703 -5.90625,17.3125 -1.23844,1.266913 -2.51755,2.600169 -3.875,4.03125 -0.237609,-3.326815 -1.287529,-5.730851 -3.187499,-7.1875 0.83313,5.119496 -0.45169,9.524876 -2.125,13.59375 C 63.25215,75.56896 62.87191,96.6279 63.03125,102.90625 l -1.5,0 C 61.920969,46.329788 79.562501,43.041978 79.562501,28.21875 79.562501,13.114395 62.686979,10.444881 59.4375,1 z"
       id="path3145" />
  </g>
</svg>
