<?xml version="1.0" encoding="UTF-8" standalone="no"?>
<svg
   xmlns:dc="http://purl.org/dc/elements/1.1/"
   xmlns:cc="http://creativecommons.org/ns#"
   xmlns:rdf="http://www.w3.org/1999/02/22-rdf-syntax-ns#"
   xmlns:svg="http://www.w3.org/2000/svg"
   xmlns="http://www.w3.org/2000/svg"
   xmlns:sodipodi="http://sodipodi.sourceforge.net/DTD/sodipodi-0.dtd"
   xmlns:inkscape="http://www.inkscape.org/namespaces/inkscape"
   height="240"
   width="360"
   id="svg1350"
   version="1.1"
   inkscape:version="0.47 r22583"
   sodipodi:docname="france_old.svg">
  <metadata
     id="metadata27">
    <rdf:RDF>
      <cc:Work
         rdf:about="">
        <dc:format>image/svg+xml</dc:format>
        <dc:type
           rdf:resource="http://purl.org/dc/dcmitype/StillImage" />
      </cc:Work>
    </rdf:RDF>
  </metadata>
  <defs
     id="defs1352">
    <inkscape:perspective
       sodipodi:type="inkscape:persp3d"
       inkscape:vp_x="0 : 108.07086 : 1"
       inkscape:vp_y="0 : 1000 : 0"
       inkscape:vp_z="359.64566 : 108.07086 : 1"
       inkscape:persp3d-origin="179.82283 : 72.047241 : 1"
       id="perspective29" />
    <defs
       id="defs5117" />
    <sodipodi:namedview
       id="namedview5116" />
  </defs>
  <sodipodi:namedview
     bordercolor="#000000"
     borderlayer="top"
     borderopacity="1"
     id="base"
     showgrid="false"
     inkscape:zoom="1.0918762"
     inkscape:cx="178.90698"
     inkscape:cy="108.07086"
     inkscape:window-width="884"
     inkscape:window-height="590"
     inkscape:window-x="2021"
     inkscape:window-y="42"
     inkscape:window-maximized="0"
     inkscape:current-layer="svg1350" />
  <rect
     y="-1.4446777e-14"
     x="0"
     width="360"
     style="font-size:12px;fill:#000099;fill-rule:evenodd"
     id="rect625"
     height="240" />
  <g
     transform="translate(-15.92385,9.538828)"
     id="g897">
    <path
       transform="translate(-1.875,-6.09e-6)"
       style="font-size:12px;fill:#ffd700;fill-rule:evenodd;stroke:#000000;stroke-width:1.28750002"
       sodipodi:nodetypes="cssccssccccc"
       id="path628"
       d="m 128.2868,96.94299 c 11.1976,-4.43201 16.7101,-11.14046 17.302,-20.61109 0.3796,-5.69344 -5.3032,-12.37133 -11.3869,-12.52561 -19.0054,-0.51402 -25.3594,30.47215 -25.2448,38.03531 0.8024,-0.002 4.7559,-0.0812 5.7367,-0.0432 0.8662,-4.77644 0.1223,-10.62782 6.1953,-15.56215 6.073,-4.93433 8.758,-1.17438 9.5172,1.86214 0.7592,3.03649 -2.8031,9.15334 -2.1195,8.84462 l 0,0 0,0 0,-1e-5 0,0 0,-1e-5 z" />
    <path
       transform="translate(-1.875,-6.09e-6)"
       style="font-size:12px;fill:#ffd700;fill-rule:evenodd;stroke:#000000;stroke-width:1.28750002"
       sodipodi:nodetypes="cssccssccccc"
       id="path629"
       d="m 77.52559,96.94296 c -11.1976,-4.43201 -16.7101,-11.14046 -17.302,-20.61109 -0.3796,-5.69344 5.3032,-12.37133 11.3869,-12.52561 19.00532,-0.51402 25.35939,30.47215 25.24476,38.03534 -0.80239,-0.002 -4.75592,-0.0813 -5.7367,-0.0433 -0.86617,-4.77637 -0.12229,-10.62775 -6.19528,-15.56208 -6.07298,-4.93433 -8.75798,-1.17438 -9.51718,1.86214 -0.7592,3.03649 2.8031,9.15334 2.1195,8.84462 l 0,0 0,0 0,-1e-5 0,0 0,-1e-5 z" />
    <path
       transform="translate(-1.875,-6.09e-6)"
       style="font-size:12px;fill:#ffd700;fill-rule:evenodd;stroke:#000000;stroke-width:1.28750002"
       sodipodi:nodetypes="cccccccc"
       id="path630"
       d="m 103.0642,27.66385 c 12.9141,13.42836 16.3819,27.08588 7.7716,48.96379 -2.9536,7.3074 -4.2036,16.07569 -4.0823,25.18966 -1.25,0.0289 -6.5716,-0.0318 -7.83219,-0.1213 C 99.03205,92.69272 97.53937,83.21757 94.59638,75.78884 84.62527,53.44678 91.81132,38.29173 102.7214,27.66385 l 0.1714,0 0.1714,0 0,0 z" />
    <path
       transform="translate(-1.875,-6.09e-6)"
       style="font-size:12px;fill:#ffd700;fill-rule:evenodd;stroke:#000000;stroke-width:1.28750002"
       sodipodi:nodetypes="cccccccccccccc"
       id="path631"
       d="m 109.8489,106.9771 c 2.644,7.0568 7.3107,9.7239 11.1253,11.5928 -5.8141,2.7527 -12.534,-0.2369 -13.7986,-1.6602 0.1538,1.9898 0.3113,7.3668 -0.415,10.9984 -0.4919,2.9284 -1.737,4.6154 -3.8391,6.9518 -2.1789,-2.2827 -3.52651,-4.1222 -4.25282,-6.7162 -0.88256,-3.7658 0.05127,-9.1075 -0.02685,-11.1021 -1.00827,1.2402 -9.05014,4.2248 -14.34181,1.6308 4.92667,-2.1472 9.70077,-4.6472 11.25469,-11.8272 0.57619,0.0355 12.84159,0.0281 14.29419,0.0281 l 0,0.1038 0,0 0,0 0,0 0,0 z" />
    <rect
       y="102.02856"
       x="87.443443"
       width="30.599674"
       transform="translate(-1.875,-6.09e-6)"
       style="font-size:12px;fill:#ffd700;fill-rule:evenodd;stroke:#000000;stroke-width:1.17855096"
       id="rect639"
       height="4.5517688" />
  </g>
  <g
     transform="translate(12.82616,9.806085)"
     id="g903">
    <path
       transform="translate(-1.875,-6.09e-6)"
       style="font-size:12px;fill:#ffd700;fill-rule:evenodd;stroke:#000000;stroke-width:1.28750002"
       sodipodi:nodetypes="cssccssccccc"
       id="path614"
       d="m 289.3221,96.94298 c 11.1976,-4.43201 16.7101,-11.14046 17.302,-20.61109 0.3796,-5.69344 -5.3032,-12.37133 -11.3869,-12.52561 -19.0054,-0.51402 -25.3594,30.47215 -25.2448,38.03532 0.8024,-0.002 4.7559,-0.0812 5.7367,-0.0432 0.8662,-4.77645 0.1223,-10.62783 6.1953,-15.56216 6.073,-4.93433 8.758,-1.17438 9.5172,1.86214 0.7592,3.03649 -2.8031,9.15334 -2.1195,8.84462 l 0,0 0,0 0,-1e-5 0,0 0,-10e-6 z" />
    <path
       transform="translate(-1.875,-6.09e-6)"
       style="font-size:12px;fill:#ffd700;fill-rule:evenodd;stroke:#000000;stroke-width:1.28750002"
       sodipodi:nodetypes="cssccssccccc"
       id="path615"
       d="m 238.5609,96.94295 c -11.1976,-4.43201 -16.7101,-11.14046 -17.302,-20.61109 -0.3796,-5.69344 5.3032,-12.37133 11.3869,-12.52561 19.0054,-0.51402 25.3594,30.47215 25.2448,38.03535 -0.8024,-0.002 -4.7559,-0.0813 -5.7367,-0.0433 -0.8662,-4.77638 -0.1223,-10.62776 -6.1953,-15.56209 -6.073,-4.93433 -8.758,-1.17438 -9.5172,1.86214 -0.7592,3.03649 2.8031,9.15334 2.1195,8.84462 l 0,0 0,0 0,-1e-5 0,0 0,-1e-5 z" />
    <path
       transform="translate(-1.875,-6.09e-6)"
       style="font-size:12px;fill:#ffd700;fill-rule:evenodd;stroke:#000000;stroke-width:1.28750002"
       sodipodi:nodetypes="cccccccc"
       id="path616"
       d="m 264.0995,27.66384 c 12.9141,13.42836 16.3819,27.08588 7.7716,48.96379 -2.9536,7.3074 -4.2036,16.07569 -4.0823,25.18967 -1.25,0.0289 -6.5716,-0.0318 -7.8321,-0.1213 0.1107,-9.00329 -1.382,-18.47844 -4.325,-25.90717 -9.9711,-22.34206 -2.785,-37.49711 8.125,-48.12499 l 0.1714,0 0.1714,0 0,0 z" />
    <path
       transform="translate(-1.875,-6.09e-6)"
       style="font-size:12px;fill:#ffd700;fill-rule:evenodd;stroke:#000000;stroke-width:1.28750002"
       sodipodi:nodetypes="cccccccccccccc"
       id="path617"
       d="m 270.8842,106.9771 c 2.644,7.0568 7.3107,9.7239 11.1253,11.5928 -5.8141,2.7527 -12.534,-0.2369 -13.7986,-1.6602 0.1538,1.9898 0.3113,7.3668 -0.415,10.9984 -0.4919,2.9284 -1.737,4.6154 -3.8391,6.9518 -2.1789,-2.2827 -3.5265,-4.1222 -4.2528,-6.7162 -0.8825,-3.7658 0.0513,-9.1075 -0.0268,-11.1021 -1.0083,1.2402 -9.0502,4.2248 -14.3418,1.6308 4.9266,-2.1472 9.7007,-4.6472 11.2547,-11.8272 0.5761,0.0355 12.8415,0.0281 14.2941,0.0281 l 0,0.1038 0,0 0,0 0,0 0,0 z" />
    <rect
       y="102.02855"
       x="248.47879"
       width="30.599672"
       transform="translate(-1.875,-6.09e-6)"
       style="font-size:12px;fill:#ffd700;fill-rule:evenodd;stroke:#000000;stroke-width:1.17855096"
       id="rect618"
       height="4.5517683" />
  </g>
  <g
     transform="translate(-1.30317,25.185434)"
     id="g909">
    <path
       transform="translate(-1.875,-6.09e-6)"
       style="font-size:12px;fill:#ffd700;fill-rule:evenodd;stroke:#000000;stroke-width:1.28750002"
       sodipodi:nodetypes="cssccssccccc"
       id="path619"
       d="m 208.8044,151.695 c 11.1976,-4.432 16.7101,-11.1405 17.302,-20.6111 0.3796,-5.6934 -5.3032,-12.3713 -11.3869,-12.5256 -19.0054,-0.514 -25.3594,30.4721 -25.2448,38.0353 0.8024,-0.002 4.7559,-0.0812 5.7367,-0.0432 0.8662,-4.7764 0.1223,-10.6278 6.1953,-15.5622 6.073,-4.9343 8.758,-1.1743 9.5172,1.8622 0.7592,3.0365 -2.8031,9.1533 -2.1195,8.8446 l 0,0 0,0 0,0 0,0 0,0 z" />
    <path
       transform="translate(-1.875,-6.09e-6)"
       style="font-size:12px;fill:#ffd700;fill-rule:evenodd;stroke:#000000;stroke-width:1.28750002"
       sodipodi:nodetypes="cssccssccccc"
       id="path620"
       d="m 158.0432,151.695 c -11.1976,-4.4321 -16.7101,-11.1405 -17.302,-20.6111 -0.3796,-5.6935 5.3032,-12.3714 11.3869,-12.5256 19.0054,-0.5141 25.3594,30.4721 25.2448,38.0353 -0.8024,-0.002 -4.7559,-0.0813 -5.7367,-0.0433 -0.8662,-4.7764 -0.1223,-10.6278 -6.1953,-15.5621 -6.073,-4.9343 -8.758,-1.1744 -9.5172,1.8622 -0.7592,3.0364 2.8031,9.1533 2.1195,8.8446 l 0,0 0,0 0,0 0,0 0,0 z" />
    <path
       transform="translate(-1.875,-6.09e-6)"
       style="font-size:12px;fill:#ffd700;fill-rule:evenodd;stroke:#000000;stroke-width:1.28750002"
       sodipodi:nodetypes="cccccccc"
       id="path621"
       d="m 183.5818,82.41585 c 12.9141,13.42836 16.3819,27.08585 7.7716,48.96375 -2.9536,7.3074 -4.2036,16.0757 -4.0823,25.1897 -1.25,0.0289 -6.5716,-0.0318 -7.8321,-0.1213 0.1107,-9.0033 -1.382,-18.4784 -4.325,-25.9072 -9.9711,-22.342 -2.785,-37.49707 8.125,-48.12495 l 0.1714,0 0.1714,0 0,0 z" />
    <path
       transform="translate(-1.875,-6.09e-6)"
       style="font-size:12px;fill:#ffd700;fill-rule:evenodd;stroke:#000000;stroke-width:1.28750002"
       sodipodi:nodetypes="cccccccccccccc"
       id="path622"
       d="m 190.3665,161.7291 c 2.644,7.0568 7.3107,9.7239 11.1253,11.5928 -5.8141,2.7527 -12.534,-0.2369 -13.7986,-1.6602 0.1538,1.9898 0.3113,7.3668 -0.415,10.9984 -0.4919,2.9284 -1.737,4.6154 -3.8391,6.9518 -2.1789,-2.2827 -3.5265,-4.1222 -4.2528,-6.7162 -0.8825,-3.7658 0.0513,-9.1075 -0.0268,-11.1021 -1.0083,1.2402 -9.0502,4.2248 -14.3418,1.6308 4.9266,-2.1472 9.7007,-4.6472 11.2547,-11.8272 0.5761,0.0355 12.8415,0.0281 14.2941,0.0281 l 0,0.1038 0,0 0,0 0,0 0,0 z" />
    <rect
       y="156.78056"
       x="167.96109"
       width="30.59967"
       transform="translate(-1.875,-6.09e-6)"
       style="font-size:12px;fill:#ffd700;fill-rule:evenodd;stroke:#000000;stroke-width:1.17855096"
       id="rect623"
       height="4.5517678" />
  </g>
</svg>
