<?xml version="1.0" encoding="UTF-8" ?>
<!DOCTYPE svg PUBLIC "-//W3C//DTD SVG 1.1//EN" "http://www.w3.org/Graphics/SVG/1.1/DTD/svg11.dtd">
<svg width="310pt" height="210pt" viewBox="0 0 310 210" version="1.1" xmlns="http://www.w3.org/2000/svg">
<g id="#93b1afff">
<path fill="#93b1af" opacity="1.00" d=" M 0.00 0.00 L 310.00 0.00 L 310.00 210.00 L 0.00 210.00 L 0.00 0.00 M 147.38 11.32 C 126.07 12.93 105.40 22.13 90.20 37.19 C 75.17 51.60 65.20 71.28 62.88 92.01 C 60.91 104.42 62.46 117.18 65.72 129.24 C 72.77 154.16 91.02 175.50 114.28 186.77 C 126.29 192.70 139.63 195.49 152.95 196.04 C 172.91 196.13 192.99 190.10 209.04 178.12 C 228.76 163.65 242.68 141.21 245.87 116.87 C 248.48 101.26 246.29 85.02 240.76 70.25 C 232.03 47.39 213.74 28.40 191.31 18.66 C 177.55 12.78 162.30 10.07 147.38 11.32 Z" />
<path fill="#93b1af" opacity="1.00" d=" M 143.39 28.50 C 158.63 26.34 174.61 28.57 188.34 35.67 C 203.64 43.23 216.19 56.15 223.28 71.68 C 230.40 86.75 231.99 104.19 228.40 120.41 C 223.94 140.02 211.39 157.69 194.15 168.10 C 180.47 176.67 164.01 180.45 147.95 179.01 C 132.88 177.92 118.37 171.76 106.65 162.31 C 94.46 152.47 85.59 138.68 81.39 123.61 C 76.38 105.06 78.48 84.59 87.71 67.68 C 98.69 46.81 120.02 31.74 143.39 28.50 M 147.35 58.42 C 130.29 61.06 115.37 74.15 110.73 90.81 C 106.02 105.92 110.40 123.25 121.28 134.64 C 129.16 143.15 140.38 148.39 151.94 149.08 C 164.97 149.85 178.20 144.61 187.21 135.17 C 196.01 126.21 200.79 113.47 200.07 100.93 C 199.38 89.62 194.38 78.62 186.17 70.79 C 176.12 60.90 161.28 56.09 147.35 58.42 Z" />
<path fill="#93b1af" opacity="1.00" d=" M 151.41 82.50 C 157.25 81.58 163.42 83.38 168.01 87.09 C 174.54 92.37 177.38 101.79 174.74 109.79 C 172.81 116.40 167.40 121.82 160.79 123.75 C 153.45 126.18 144.91 123.97 139.46 118.53 C 133.82 112.90 131.72 103.96 134.50 96.45 C 136.91 89.08 143.76 83.58 151.41 82.50 Z" />
</g>
<g id="#9b2922ff">
<path fill="#9b2922" opacity="1.00" d=" M 147.38 11.32 C 162.30 10.07 177.55 12.78 191.31 18.66 C 213.74 28.40 232.03 47.39 240.76 70.25 C 246.29 85.02 248.48 101.26 245.87 116.87 C 242.68 141.21 228.76 163.65 209.04 178.12 C 192.99 190.10 172.91 196.13 152.95 196.04 C 139.63 195.49 126.29 192.70 114.28 186.77 C 91.02 175.50 72.77 154.16 65.72 129.24 C 62.46 117.18 60.91 104.42 62.88 92.01 C 65.20 71.28 75.17 51.60 90.20 37.19 C 105.40 22.13 126.07 12.93 147.38 11.32 M 143.39 28.50 C 120.02 31.74 98.69 46.81 87.71 67.68 C 78.48 84.59 76.38 105.06 81.39 123.61 C 85.59 138.68 94.46 152.47 106.65 162.31 C 118.37 171.76 132.88 177.92 147.95 179.01 C 164.01 180.45 180.47 176.67 194.15 168.10 C 211.39 157.69 223.94 140.02 228.40 120.41 C 231.99 104.19 230.40 86.75 223.28 71.68 C 216.19 56.15 203.64 43.23 188.34 35.67 C 174.61 28.57 158.63 26.34 143.39 28.50 Z" />
<path fill="#9b2922" opacity="1.00" d=" M 147.35 58.42 C 161.28 56.09 176.12 60.90 186.17 70.79 C 194.38 78.62 199.38 89.62 200.07 100.93 C 200.79 113.47 196.01 126.21 187.21 135.17 C 178.20 144.61 164.97 149.85 151.94 149.08 C 140.38 148.39 129.16 143.15 121.28 134.64 C 110.40 123.25 106.02 105.92 110.73 90.81 C 115.37 74.15 130.29 61.06 147.35 58.42 M 151.41 82.50 C 143.76 83.58 136.91 89.08 134.50 96.45 C 131.72 103.96 133.82 112.90 139.46 118.53 C 144.91 123.97 153.45 126.18 160.79 123.75 C 167.40 121.82 172.81 116.40 174.74 109.79 C 177.38 101.79 174.54 92.37 168.01 87.09 C 163.42 83.38 157.25 81.58 151.41 82.50 Z" />
</g>
</svg>
