<?xml version="1.0" encoding="UTF-8" standalone="no"?>
<svg
   xmlns:dc="http://purl.org/dc/elements/1.1/"
   xmlns:cc="http://creativecommons.org/ns#"
   xmlns:rdf="http://www.w3.org/1999/02/22-rdf-syntax-ns#"
   xmlns:svg="http://www.w3.org/2000/svg"
   xmlns="http://www.w3.org/2000/svg"
   xmlns:sodipodi="http://sodipodi.sourceforge.net/DTD/sodipodi-0.dtd"
   xmlns:inkscape="http://www.inkscape.org/namespaces/inkscape"
   width="450"
   height="300"
   viewBox="0 0 360 240"
   version="1.1"
   id="svg2"
   inkscape:version="0.48.2 r9819"
   sodipodi:docname="germanic.svg">
  <metadata
     id="metadata293">
    <rdf:RDF>
      <cc:Work
         rdf:about="">
        <dc:format>image/svg+xml</dc:format>
        <dc:type
           rdf:resource="http://purl.org/dc/dcmitype/StillImage" />
      </cc:Work>
    </rdf:RDF>
  </metadata>
  <defs
     id="defs291" />
  <sodipodi:namedview
     pagecolor="#ffffff"
     bordercolor="#666666"
     borderopacity="1"
     objecttolerance="10"
     gridtolerance="10"
     guidetolerance="10"
     inkscape:pageopacity="0"
     inkscape:pageshadow="2"
     inkscape:window-width="1366"
     inkscape:window-height="695"
     id="namedview289"
     showgrid="false"
     inkscape:zoom="0.83354839"
     inkscape:cx="193.75"
     inkscape:cy="131.25"
     inkscape:window-x="-3"
     inkscape:window-y="0"
     inkscape:window-maximized="1"
     inkscape:current-layer="svg2" />
  <rect
     style="fill:#c8a867;fill-opacity:1;stroke:none"
     id="rect3270"
     width="360"
     height="240"
     x="0"
     y="-3.8146973e-06" />
  <g
     id="#010101ff"
     transform="matrix(1.1445576,0,0,1.1445576,2.6985704,-1.7694806)">
    <path
       d="m 127.27,49.22 c 6.64,-12.09 16.3,-22.49 27.73,-30.2 11.62,7.85 21.44,18.46 28.07,30.84 2.21,3.98 3.36,9.05 7.73,11.32 21.52,12.07 35.12,36.33 35.16,60.88 -0.32,4.07 2.51,7.2 4.65,10.32 7.97,11.85 12.19,25.89 13.84,39.99 0.54,2.75 -2.89,3.43 -4.74,4.36 -12.59,4.84 -26.17,7.43 -39.68,6.33 -2.79,-0.1 -5.78,-0.76 -8.38,0.57 -4.76,2.29 -9.27,5.18 -14.42,6.56 -7.52,2.1 -15.3,3.56 -23.13,3.57 -7.71,-0.36 -15.41,-1.69 -22.75,-4.09 -6.96,-1.84 -12.68,-8.32 -20.36,-6.69 -14.34,1.32 -28.84,-1.44 -42.13,-6.84 -1.51,-0.72 -3.91,-1.64 -3.33,-3.77 1.79,-15.3 6.69,-30.5 15.92,-42.98 1.91,-2.35 2.45,-5.37 2.44,-8.32 0.65,-23.92 13.73,-47.52 34.71,-59.44 4.93,-2.4 6.2,-8.01 8.67,-12.41 m 26.93,-24.04 -0.9,-0.27 c -0.33,0.56 -1,1.67 -1.33,2.23 -1.18,-1.24 -3.55,0.75 -2.58,2.13 -4.3,2.14 -7,6.35 -10.03,9.91 -0.05,0.07 -0.16,0.22 -0.22,0.29 -0.79,1.07 -1.56,2.17 -2.26,3.31 -3.66,2.92 -5.62,7.26 -7.78,11.28 -2.7,5.41 -5.4,11 -5.87,17.12 l -0.2,0.77 c -1.86,2.72 -2.13,6.05 -1.9,9.25 l -0.14,0.81 c -2.07,4.94 -1.19,10.39 -1.13,15.59 2.46,-0.66 4.91,-1.34 7.31,-2.2 l 0.85,-0.05 c 2,-3.05 1.23,-6.74 0.64,-10.08 0.04,-0.44 0.13,-1.33 0.17,-1.77 1.78,0.14 2.27,-2.97 0.76,-3.67 l 0.16,-0.92 c 1.75,0.06 2.31,-3.02 0.74,-3.7 l 0.25,-0.78 c 2.47,-3.41 3.43,-7.57 3.93,-11.68 l 0.3,-0.65 c 2.58,-2.5 4.24,-5.76 5.08,-9.24 0.16,-0.3 0.47,-0.92 0.63,-1.23 l 0.92,0.06 0.66,-0.85 -0.29,-0.87 c 0.19,-0.32 0.56,-0.95 0.75,-1.27 1.54,1.01 3.4,-1.72 1.91,-2.8 0.22,-0.25 0.64,-0.76 0.85,-1.01 3.11,-2.04 5.69,-4.79 7.74,-7.89 0.44,-0.31 1.33,-0.93 1.78,-1.24 0.45,0.31 1.34,0.93 1.79,1.24 2.04,3.1 4.61,5.85 7.73,7.89 0.23,0.25 0.67,0.75 0.9,1 -1.34,0.99 0.18,3.67 1.7,2.85 0.04,0.4 0.13,1.19 0.18,1.58 1.64,3.18 5.23,3.47 8.4,3.67 0.47,0.17 1.42,0.51 1.89,0.67 0.14,0.05 0.41,0.14 0.55,0.19 l 0.97,0.31 0.18,0.68 c 0.95,0.33 1.9,0.65 2.85,0.97 -2.48,-4.97 -4.6,-10.42 -9.01,-14.03 -0.72,-1.14 -1.49,-2.24 -2.29,-3.32 -0.05,-0.07 -0.15,-0.21 -0.21,-0.28 -3.01,-3.57 -5.73,-7.76 -10.02,-9.91 0.96,-1.39 -1.41,-3.37 -2.58,-2.13 -0.34,-0.56 -1,-1.68 -1.33,-2.24 l -0.9,0.28 c -0.54,-1.53 -1.07,-1.53 -1.6,0 m -7.47,26.44 c 5.51,0.07 11.03,0.07 16.55,0 -2.19,-3.72 -5.03,-7.01 -8.28,-9.85 -3.25,2.84 -6.09,6.12 -8.27,9.85 m -4.39,6 c -0.52,1.35 -1.06,2.69 -1.45,4.08 -0.98,1.67 -1.78,3.44 -2.52,5.23 6.84,-1.1 13.73,-2.26 20.69,-1.71 6.23,0.1 12.07,2.52 18.17,3.42 l 0.67,0.3 c 1.62,1.84 3.89,2.73 6.28,3.08 0.41,0.25 1.24,0.76 1.66,1.01 1.42,1.78 3.24,3.16 5.3,4.12 1.42,1.25 2.88,2.44 4.46,3.48 -1.23,1.45 1.26,4 2.75,2.82 0.75,1.21 1.59,2.37 2.52,3.46 1.57,3.43 3.64,6.59 5.45,9.89 2.56,4.51 3.21,9.8 5.78,14.3 0.87,0.67 1.75,1.34 2.63,2 1.9,2.76 4.35,5.08 7.05,7.05 0.07,-6.69 -1.15,-13.36 -3.42,-19.65 -2.06,-5.53 -4.25,-11.26 -8.55,-15.47 -0.23,-0.25 -0.68,-0.75 -0.91,-1.01 l 0.38,-0.83 -0.58,-0.9 -0.91,-0.01 c -0.18,-0.27 -0.53,-0.8 -0.71,-1.07 -1.44,-3 -3.74,-5.51 -6.71,-7.03 -0.23,-0.21 -0.68,-0.63 -0.9,-0.84 1.16,-1.45 -1.41,-3.6 -2.62,-2.17 -0.28,-0.22 -0.85,-0.65 -1.14,-0.86 1.04,-1.49 -1.56,-3.52 -2.72,-2.09 -0.24,-0.21 -0.73,-0.63 -0.98,-0.84 -2.28,-2.9 -5.66,-4.53 -9.22,-5.25 -0.84,-0.49 -1.72,-0.9 -2.63,-1.22 -4.03,-2.78 -8.95,-3.97 -13.8,-3.65 l -0.86,-0.08 c -0.15,-2.12 -4.17,-2.17 -5.3,-0.67 -3.2,-0.75 -6.54,-0.96 -9.77,-0.3 -2.78,-0.3 -5.7,-0.2 -8.09,1.41 m -28.4,12.41 c -0.23,0.22 -0.69,0.67 -0.91,0.89 -4.25,2.41 -7.67,6.04 -10.16,10.21 -0.16,0.29 -0.49,0.86 -0.65,1.14 l -0.92,0.01 -0.58,0.91 0.38,0.83 c -0.23,0.26 -0.68,0.76 -0.91,1.02 -1.3,1.41 -2.58,2.86 -3.61,4.5 -8.7,15.08 -10.72,33.6 -6.43,50.4 1.47,5.45 3.33,10.97 6.9,15.45 0.28,0.55 0.85,1.64 1.13,2.19 0.05,0.08 0.16,0.23 0.22,0.31 0.47,0.49 1.41,1.48 1.88,1.97 -1.19,1.05 0.32,3.57 1.8,2.91 0.04,0.51 0.13,1.55 0.18,2.06 4.23,1.64 8.78,0.91 13.09,0.08 -1.35,-1.76 -2.81,-3.45 -4.59,-4.79 -0.52,-0.71 -1.07,-1.38 -1.66,-2.02 -2.33,-5 -5.95,-9.36 -7.59,-14.68 -1.07,-3.27 -2,-6.6 -3.41,-9.75 -0.14,-0.66 -0.43,-1.97 -0.57,-2.62 l 0.59,-0.7 -0.29,-1.04 -0.86,-0.3 c 0.54,-3.77 0.27,-7.59 -0.04,-11.36 1.73,0.02 1.99,-3.03 0.52,-3.64 0.1,-0.51 0.32,-1.54 0.43,-2.05 1.64,-0.66 1.83,-1.62 0.56,-2.89 l 0.25,-0.81 c 1.5,-2.79 2.58,-5.77 3.78,-8.7 1.81,-4.43 4.68,-8.3 6.66,-12.64 0.92,-1.09 1.79,-2.24 2.53,-3.46 1.48,1.13 3.9,-1.38 2.72,-2.82 0.52,-0.28 1.58,-0.83 2.11,-1.11 0.22,-1.41 0.45,-2.83 0.63,-4.25 1.32,-3.05 2.18,-6.28 2.68,-9.56 -2.15,1.15 -4.18,2.53 -5.86,4.31 m 26.97,0.76 c -1.84,0.59 -4.38,0.93 -4.95,3.13 -2.37,6.12 -2.71,12.78 -2.88,19.28 14.46,-2.78 29.38,-2.77 43.84,-0.01 -0.27,-6.94 -0.39,-14.27 -3.58,-20.59 -10.08,-4.51 -21.83,-4.46 -32.43,-1.81 m 37.8,4.27 c 0.36,1.23 0.73,2.46 1.13,3.68 l 0.17,0.83 c 0.96,9.22 0.66,18.46 0.26,27.7 l -0.14,0.8 c -2.62,5.02 -3.77,10.63 -4.87,16.14 l -0.3,0.65 c -4.06,4.94 -6.85,10.76 -10.15,16.21 -0.97,1.08 -1.84,2.24 -2.57,3.49 -2.02,-0.9 -4.75,3.24 -2.69,4.32 1.12,0.84 2.16,1.89 3.54,2.27 -0.96,1.96 3.38,3.27 3.45,1.01 0.37,-0.57 1.11,-1.71 1.48,-2.29 1.61,1.24 3.93,-1.62 2.65,-3.07 0.22,-0.29 0.68,-0.87 0.91,-1.15 1.51,0.98 3.49,-1.59 2.15,-2.8 0.22,-0.32 0.65,-0.94 0.87,-1.26 1.77,0.99 3.79,-2.13 2.25,-3.4 0.2,-0.27 0.6,-0.82 0.8,-1.1 5.17,-5.85 7.93,-13.64 9.13,-21.27 l 0.22,-0.77 c 2.33,-4.66 2.69,-9.93 3.11,-15.03 0.39,-6.16 0.58,-12.43 -0.89,-18.48 -0.93,-0.64 -1.85,-1.29 -2.83,-1.85 -1.97,-2.39 -4.8,-3.69 -7.68,-4.63 m -74.56,31.21 c 4,-1.85 7.8,-4.11 11.52,-6.47 -0.01,-4.36 0.05,-8.72 -0.17,-13.08 -5.51,5.31 -9.14,12.28 -11.35,19.55 m 90.36,-19.55 c -0.14,4.27 -0.52,8.58 0.05,12.82 3.11,3.14 7.47,4.64 11.3,6.73 C 203.64,99 200.01,92.04 194.51,86.72 m -60.66,11.35 -0.81,0.2 -0.76,-0.5 -1,0.41 -0.19,0.88 c -1.18,-0.06 -2.18,0.32 -3,1.15 l -0.77,-0.5 -0.99,0.43 -0.17,0.89 -0.76,0.03 c -7.69,1.43 -15.04,5.36 -20.58,10.87 -0.44,0.23 -1.32,0.69 -1.76,0.92 -2.24,3.97 -1.78,8.58 -1.27,12.91 1.46,-1.27 2.92,-2.55 4.33,-3.87 0.9,-0.43 1.56,-1.09 2.01,-1.98 l 0.86,0.29 0.88,-0.64 0,-0.91 c 0.38,-0.19 1.14,-0.58 1.52,-0.77 0.09,-0.05 0.26,-0.16 0.35,-0.22 1.22,-0.85 2.34,-1.82 3.45,-2.81 1.18,1.41 4.29,-0.26 3.52,-2.02 1.43,-0.49 2.8,-1.12 4.14,-1.82 5.87,-1.34 11.44,-3.74 17.33,-4.99 11.8,-2.65 23.94,-1.26 35.67,1.01 0.46,-3.17 0.76,-6.36 0.95,-9.55 -8.5,-1.79 -17.19,-2.75 -25.88,-2.31 -5.76,0.35 -11.72,0.49 -17.07,2.9 m 59.46,6.88 0.86,0.63 0.12,1.31 c -0.32,0.31 -0.97,0.93 -1.3,1.25 l 0.43,0.78 c -0.15,0.78 -0.46,2.33 -0.62,3.11 -2.31,0.65 0.34,4.45 1.98,2.86 1.03,1.06 2.24,1.93 3.43,2.8 0.09,0.07 0.28,0.2 0.37,0.27 0.61,0.41 1.82,1.24 2.43,1.65 0.09,0.06 0.27,0.18 0.37,0.25 0.89,0.58 1.78,1.17 2.68,1.75 2.48,3.32 5.46,6.25 8.82,8.66 0.93,1.31 1.8,2.73 3.1,3.71 l -0.28,0.87 0.67,0.84 0.92,-0.08 c 0.19,0.29 0.58,0.87 0.77,1.16 2.68,5.59 5.18,11.37 8.98,16.31 l 0.26,0.67 c 0.18,3.66 0.66,7.49 3.05,10.45 l 0.14,0.83 c -6.93,3.48 -14.75,3.78 -22.2,5.29 -3.74,2.12 -6.35,5.72 -9.36,8.71 5.33,0.41 10.69,0.44 16,-0.2 5.68,-0.71 11.57,-1.23 16.68,-4.05 l 0.71,-0.21 c 0.09,-0.04 0.27,-0.1 0.36,-0.14 l 0.61,-0.26 c 2.25,-0.68 5.08,-0.59 6.81,-2.37 0.19,-4.69 -1.06,-9.3 -2.26,-13.8 -1.5,-4.9 -2.9,-9.96 -5.86,-14.24 -0.81,-2.55 -2.2,-4.94 -4.1,-6.84 1.38,-1.03 -0.24,-3.76 -1.79,-2.93 -0.41,-1.17 -0.85,-2.51 -2.1,-3.02 l 0.34,-0.85 -0.6,-0.89 -0.91,0 c -0.26,-1 -0.89,-1.76 -1.89,-2.27 1.25,-1.24 -0.88,-3.6 -2.25,-2.53 -1.94,-3.57 -4.92,-6.7 -8.62,-8.44 0.32,-1.75 -0.38,-2.37 -2.09,-1.86 -0.65,-0.99 -1.67,-1.65 -2.66,-2.23 -3.29,-3.31 -7.23,-6.34 -12,-6.95 m -57.59,6.1 c 2.65,13.03 9.81,24.92 19.28,34.15 9.47,-9.22 16.62,-21.12 19.29,-34.15 -12.52,-3.6 -26.05,-3.59 -38.57,0 m -12.7,4.45 c 1.44,7.69 4.05,15.62 9.3,21.58 0.21,0.28 0.61,0.83 0.82,1.11 -1.53,1.27 0.48,4.39 2.26,3.4 0.22,0.31 0.68,0.93 0.91,1.24 -1.23,1.08 0.38,3.66 1.88,2.84 0.08,0.46 0.25,1.37 0.33,1.83 0.39,0.11 1.16,0.33 1.55,0.45 -0.4,1.64 0.24,2.31 1.9,2 0.92,2.66 3.23,4.43 5.59,5.76 -1.13,1.7 1.82,4.32 3.41,3.05 0.57,0.74 1.25,1.39 2.02,1.93 2.03,2.69 4.87,4.68 8.17,5.46 0.29,0.16 0.86,0.49 1.14,0.66 l 0,0.91 0.89,0.6 0.84,-0.37 c 0.79,1.51 2.71,1.57 4.15,2.05 -0.64,1.92 2.85,3.13 3.83,1.49 0.37,0.15 1.11,0.44 1.48,0.59 2.88,-0.16 5.68,-1.13 7.49,-3.48 0.37,-0.21 1.12,-0.64 1.49,-0.85 0.4,-0.1 1.2,-0.3 1.6,-0.4 -6.42,-2.85 -12.66,-6.2 -19.32,-8.44 -0.3,-0.16 -0.89,-0.47 -1.19,-0.63 1.07,-1.46 -1.49,-3.45 -2.65,-2.09 -0.28,-0.25 -0.84,-0.75 -1.12,-0.99 l -0.01,-0.91 -0.91,-0.6 -0.84,0.35 c -1.3,-1.98 -3.41,-3.19 -5.23,-4.64 -1.36,-2.1 -3.12,-3.91 -5.21,-5.27 -0.79,-1.02 -1.59,-2.03 -2.44,-2.99 -2.39,-4.72 -5.19,-9.25 -8.46,-13.41 -0.26,-0.55 -0.77,-1.66 -1.02,-2.21 -0.04,-0.08 -0.12,-0.24 -0.16,-0.32 l -0.3,-0.59 c -0.97,-4 -2.24,-7.91 -3.51,-11.82 -2.92,0.81 -5.81,1.72 -8.68,2.71 m -20.75,15.75 c 2.03,11.98 7.89,23.36 17.17,31.32 0.88,0.76 1.94,1.45 3.16,0.98 6.37,-1.5 12.46,-4.17 18.11,-7.48 -3.26,-4.02 -6.71,-7.89 -9.6,-12.2 -5.25,-7.83 -9.05,-16.52 -12.12,-25.4 -6.43,3.02 -11.7,7.85 -16.72,12.78 m 76.62,12.62 c -2.89,4.31 -6.34,8.18 -9.59,12.2 6.02,3.67 12.68,6.16 19.51,7.88 3.11,-2.93 6.34,-5.79 8.94,-9.21 5.35,-6.74 8.47,-14.99 10.09,-23.38 -5.05,-4.97 -10.36,-9.84 -16.83,-12.9 -3.06,8.89 -6.87,17.58 -12.12,25.41 M 81.6,137.15 c -0.34,0.5 -1,1.49 -1.34,1.99 -0.04,0.08 -0.13,0.23 -0.18,0.31 -0.77,1.41 -1.48,2.87 -2.02,4.39 -2.93,3.95 -4.2,8.76 -5.67,13.37 -1.35,4.76 -2.61,9.65 -2.54,14.64 1.9,1.6 4.54,1.72 6.86,2.32 l 0.61,0.27 c 0.09,0.03 0.27,0.1 0.36,0.13 l 0.71,0.21 c 2.28,1.14 4.66,2.12 7.17,2.62 9.61,1.88 19.5,2.54 29.24,1.33 5.38,-0.74 11.06,-1.1 15.83,-3.98 l 0.68,-0.23 c 0.09,-0.04 0.26,-0.11 0.35,-0.15 l 0.61,-0.28 c 3.62,-0.53 7.21,-1.63 10.03,-4.07 1.27,-0.46 2.63,-0.85 3.67,-1.77 2.35,-0.64 4.35,-2.06 5.25,-4.4 -0.4,0.21 -1.2,0.62 -1.6,0.83 -1.23,-1.41 -2.44,-2.82 -3.63,-4.26 -1.76,-1.24 -3.8,-0.95 -5.55,0.17 -18.37,10 -41.42,12.76 -60.94,4.44 l 0.14,-0.84 c 2.4,-2.94 2.83,-6.78 3.14,-10.42 l 0.27,-0.67 c 2.06,-2.58 4.27,-5.55 4.06,-9.02 -0.45,-3.92 -1.62,-7.71 -2.69,-11.5 -1.06,1.44 -2.06,2.94 -2.82,4.57 m 129.9,-1.65 -0.21,1.09 c -2.15,4.24 -3.19,8.97 -5.63,13.08 -1.64,2.79 -3.39,5.53 -4.71,8.5 -0.69,0.82 -1.33,1.67 -1.96,2.53 -3.07,2.03 -5.83,4.57 -7.79,7.7 -0.25,0.19 -0.74,0.56 -0.99,0.75 -3.18,0.93 -6.05,2.68 -8.34,5.07 -1.24,0.57 -2.47,1.17 -3.68,1.79 -6.7,1.42 -13.23,3.84 -20.14,4.03 -6.14,0.47 -12.23,-0.63 -18.2,-1.91 -4.32,-1.12 -8.59,0.76 -12.26,2.88 -0.54,0.16 -1.62,0.46 -2.17,0.62 -0.42,-0.15 -1.25,-0.46 -1.67,-0.61 4.43,4.7 11.41,5.85 17.55,6.74 0.62,0.12 1.86,0.37 2.49,0.49 7.18,2.23 15.24,2.22 22.43,0.01 0.62,-0.13 1.86,-0.37 2.49,-0.5 7.24,-0.73 14.59,-3.21 20.28,-7.85 0.26,-0.19 0.79,-0.56 1.05,-0.75 4.06,-1.31 7.34,-4.15 9.92,-7.46 1.09,-0.73 2.02,-1.67 2.78,-2.73 3.31,-2.34 6.04,-5.46 7.43,-9.31 0.37,-0.45 1.11,-1.37 1.48,-1.83 0.05,-0.07 0.14,-0.2 0.18,-0.27 0.28,-0.54 0.84,-1.62 1.12,-2.16 2.59,-3.28 4.9,-7.18 4.45,-11.52 -0.4,-0.27 -1.2,-0.79 -1.61,-1.05 0.98,-1.63 -1.13,-4.95 -3.05,-4.27 -0.41,-1.03 -0.83,-2.05 -1.24,-3.06 M 85.71,163.28 c 3.78,1.48 7.89,1.79 11.87,2.37 -2.42,-5.09 -5.39,-9.89 -8.09,-14.82 -1.88,3.81 -4.6,8.14 -3.78,12.45 m 126.7,2.37 c 4.01,-0.85 8.93,-0.47 12.23,-2.97 -0.24,-4.22 -2.21,-8.08 -3.87,-11.89 -3.02,4.82 -5.9,9.73 -8.36,14.86 m -68.77,9.15 c 7.4,1.85 15.42,2.22 22.73,-0.22 -3.72,-2.32 -7.59,-4.4 -11.4,-6.57 -3.85,2.14 -7.72,4.26 -11.33,6.79 z"
       id="path268"
       inkscape:connector-curvature="0"
       style="fill:#010101" />
  </g>
  <g
     id="#e00003ff"
     transform="matrix(1.1445576,0,0,1.1445576,2.6985704,-1.7694806)">
    <path
       d="m 153.3,24.91 0.9,0.27 c 0.4,0 1.2,0 1.6,0 l 0.9,-0.28 c 0.33,0.56 0.99,1.68 1.33,2.24 0.43,1.13 1.49,1.76 2.58,2.13 4.29,2.15 7.01,6.34 10.02,9.91 0.06,0.07 0.16,0.21 0.21,0.28 0.8,1.08 1.57,2.18 2.29,3.32 2.35,3.93 5.04,7.81 5.98,12.38 l -0.97,-0.31 c -0.14,-0.05 -0.41,-0.14 -0.55,-0.19 -0.47,-0.16 -1.42,-0.5 -1.89,-0.67 -2.83,-1.14 -5.61,-2.43 -8.4,-3.67 -0.05,-0.39 -0.14,-1.18 -0.18,-1.58 0.07,-1.23 -0.86,-2.11 -1.7,-2.85 -0.23,-0.25 -0.67,-0.75 -0.9,-1 -2.14,-3.03 -4.57,-5.89 -7.73,-7.89 -0.45,-0.31 -1.34,-0.93 -1.79,-1.24 -0.45,0.31 -1.34,0.93 -1.78,1.24 -3.16,2.01 -5.62,4.85 -7.74,7.89 -0.21,0.25 -0.63,0.76 -0.85,1.01 -0.85,0.77 -1.51,1.72 -1.91,2.8 -0.19,0.32 -0.56,0.95 -0.75,1.27 -0.32,0.42 -0.97,1.24 -1.29,1.66 -0.16,0.31 -0.47,0.93 -0.63,1.23 -1.88,2.98 -3.67,6.01 -5.08,9.24 l -0.3,0.65 c -1.82,3.7 -2.94,7.69 -3.93,11.68 l -0.25,0.78 c -0.51,1.17 -0.74,2.43 -0.74,3.7 l -0.16,0.92 c -0.51,1.16 -0.79,2.4 -0.76,3.67 -0.04,0.44 -0.13,1.33 -0.17,1.77 -0.48,3.34 -0.67,6.71 -0.64,10.08 l -0.85,0.05 c -2.03,0.13 -4.06,0.27 -6.09,0.41 -0.01,-4.6 -0.2,-9.2 -0.09,-13.8 l 0.14,-0.81 c 0.7,-3.07 1.33,-6.15 1.9,-9.25 l 0.2,-0.77 c 3.48,-9.95 8.03,-19.48 13.65,-28.4 0.7,-1.14 1.47,-2.24 2.26,-3.31 0.06,-0.07 0.17,-0.22 0.22,-0.29 3.03,-3.56 5.73,-7.77 10.03,-9.91 1.09,-0.37 2.15,-1 2.58,-2.13 0.33,-0.56 1,-1.67 1.33,-2.23 z"
       id="path271"
       inkscape:connector-curvature="0"
       style="fill:#e00003" />
    <path
       d="m 150.43,56.21 c 3.23,-0.66 6.57,-0.45 9.77,0.3 1.73,0.45 3.51,0.64 5.3,0.67 l 0.86,0.08 c 4.59,1.23 9.19,2.47 13.8,3.65 0.91,0.32 1.79,0.73 2.63,1.22 3.01,1.86 6.11,3.57 9.22,5.25 0.25,0.21 0.74,0.63 0.98,0.84 0.73,0.9 1.66,1.6 2.72,2.09 0.29,0.21 0.86,0.64 1.14,0.86 0.72,0.89 1.62,1.62 2.62,2.17 0.22,0.21 0.67,0.63 0.9,0.84 2.09,2.48 4.34,4.82 6.71,7.03 0.18,0.27 0.53,0.8 0.71,1.07 0.27,0.44 0.83,1.31 1.11,1.74 0.23,0.26 0.68,0.76 0.91,1.01 2.22,4.21 4.44,8.44 6.3,12.83 2.73,6.4 3.69,13.35 4.96,20.14 -2.09,-1.66 -4.19,-3.31 -6.34,-4.9 -0.88,-0.66 -1.76,-1.33 -2.63,-2 -1.38,-8.89 -4.98,-17.61 -11.23,-24.19 -0.93,-1.09 -1.77,-2.25 -2.52,-3.46 -0.61,-1.21 -1.57,-2.18 -2.75,-2.82 -1.58,-1.04 -3.04,-2.23 -4.46,-3.48 -1.67,-1.49 -3.41,-2.91 -5.3,-4.12 -0.42,-0.25 -1.25,-0.76 -1.66,-1.01 -2.03,-1.16 -4.15,-2.15 -6.28,-3.08 l -0.67,-0.3 c -11.48,-5.82 -25.06,-5.91 -37.35,-2.9 0.33,-1.35 0.65,-2.7 1.01,-4.04 0.39,-1.39 0.93,-2.73 1.45,-4.08 2.71,-0.38 5.4,-0.88 8.09,-1.41 z"
       id="path273"
       inkscape:connector-curvature="0"
       style="fill:#e00003" />
    <path
       d="m 113.94,70.03 c 1.34,-0.68 2.71,-1.3 4.07,-1.95 -0.3,2.4 -0.6,4.8 -0.89,7.2 -0.18,1.42 -0.41,2.84 -0.63,4.25 -0.53,0.28 -1.59,0.83 -2.11,1.11 -1.31,0.47 -2.08,1.66 -2.72,2.82 -0.74,1.22 -1.61,2.37 -2.53,3.46 -5.57,5.86 -9.04,13.42 -10.44,21.34 l -0.25,0.81 c -0.59,0.88 -0.77,1.85 -0.56,2.89 -0.11,0.51 -0.33,1.54 -0.43,2.05 -0.52,1.14 -0.8,2.39 -0.52,3.64 0.31,3.77 0.58,7.59 0.04,11.36 0.14,0.51 0.42,1.53 0.56,2.04 0.14,0.65 0.43,1.96 0.57,2.62 0.9,9.04 4.65,17.86 11,24.43 0.59,0.64 1.14,1.31 1.66,2.02 0.78,1.36 1.51,2.75 2.24,4.15 -3.57,0.33 -7.16,0.53 -10.74,0.56 -0.05,-0.51 -0.14,-1.55 -0.18,-2.06 0.13,-1.29 -0.87,-2.21 -1.8,-2.91 -0.47,-0.49 -1.41,-1.48 -1.88,-1.97 -0.06,-0.08 -0.17,-0.23 -0.22,-0.31 -0.28,-0.55 -0.85,-1.64 -1.13,-2.19 -5.13,-11.71 -9,-24.4 -7.87,-37.32 0.9,-7.63 2.34,-15.31 5.62,-22.31 1.69,-3.63 3.5,-7.2 5.39,-10.72 0.23,-0.26 0.68,-0.76 0.91,-1.02 0.28,-0.44 0.84,-1.31 1.12,-1.75 0.16,-0.28 0.49,-0.85 0.65,-1.14 3.73,-3.05 7.13,-6.47 10.16,-10.21 0.22,-0.22 0.68,-0.67 0.91,-0.89 z"
       id="path275"
       inkscape:connector-curvature="0"
       style="fill:#e00003" />
    <path
       d="m 180.37,77.16 c 2.06,0.72 4.06,1.57 6.02,2.53 0.98,0.56 1.9,1.21 2.83,1.85 -0.45,11.19 0.3,22.49 -2.22,33.51 l -0.22,0.77 c -2.9,7.15 -5.71,14.35 -9.13,21.27 -0.2,0.28 -0.6,0.83 -0.8,1.1 -0.91,1.02 -1.65,2.18 -2.25,3.4 -0.22,0.32 -0.65,0.94 -0.87,1.26 -0.9,0.78 -1.64,1.72 -2.15,2.8 -0.23,0.28 -0.69,0.86 -0.91,1.15 -1.02,0.9 -2,1.87 -2.65,3.07 -0.37,0.58 -1.11,1.72 -1.48,2.29 -1.12,-0.44 -2.29,-0.73 -3.45,-1.01 -1.38,-0.38 -2.42,-1.43 -3.54,-2.27 1.01,-1.37 1.86,-2.84 2.69,-4.32 0.73,-1.25 1.6,-2.41 2.57,-3.49 4.66,-4.5 7.78,-10.24 10.15,-16.21 l 0.3,-0.65 c 2.66,-5.02 4.13,-10.54 4.87,-16.14 l 0.14,-0.8 c 2.16,-9.09 2.83,-18.74 -0.26,-27.7 l -0.17,-0.83 c 0.13,-0.39 0.4,-1.19 0.53,-1.58 z"
       id="path277"
       inkscape:connector-curvature="0"
       style="fill:#e00003" />
    <path
       d="m 133.85,98.07 c 7.71,-0.82 15.39,-2.37 23.18,-2.08 6.26,0.14 12.41,1.32 18.59,2.21 -0.33,2.56 -0.62,5.14 -0.87,7.71 -17.17,-4.25 -36.12,-3.34 -51.9,5.1 -1.34,0.7 -2.71,1.33 -4.14,1.82 -1.33,0.36 -2.58,1 -3.52,2.02 -1.11,0.99 -2.23,1.96 -3.45,2.81 -0.09,0.06 -0.26,0.17 -0.35,0.22 -0.38,0.19 -1.14,0.58 -1.52,0.77 -0.44,0.32 -1.31,0.95 -1.74,1.26 -0.45,0.89 -1.11,1.55 -2.01,1.98 -1.38,0.69 -2.78,1.33 -4.17,1.98 0.58,-3.65 1,-7.32 1.11,-11.02 0.44,-0.23 1.32,-0.69 1.76,-0.92 6.78,-3.76 13.36,-7.94 20.58,-10.87 l 0.76,-0.03 c 0.48,-0.21 1.45,-0.62 1.93,-0.82 0.82,-0.83 1.82,-1.21 3,-1.15 0.49,-0.19 1.46,-0.59 1.95,-0.79 l 0.81,-0.2 z"
       id="path279"
       inkscape:connector-curvature="0"
       style="fill:#e00003" />
    <path
       d="m 194.17,105.58 c 3.5,2.46 7.38,4.3 11.14,6.32 0.99,0.58 2.01,1.24 2.66,2.23 0.4,0.95 1.1,1.57 2.09,1.86 3.7,1.74 6.68,4.87 8.62,8.44 0.41,1.1 1.22,1.96 2.25,2.53 1,0.51 1.63,1.27 1.89,2.27 0.29,0.44 0.88,1.31 1.17,1.74 1.25,0.51 1.69,1.85 2.1,3.02 0.26,1.15 0.87,2.18 1.79,2.93 1.9,1.9 3.29,4.29 4.1,6.84 2.78,9.09 6.62,17.98 6.99,27.62 -1.9,0.92 -3.78,1.87 -5.68,2.79 l -0.61,0.26 c -0.09,0.04 -0.27,0.1 -0.36,0.14 l -0.71,0.21 c -9.82,2 -19.78,3.82 -29.85,3.13 2.63,-2.76 5.11,-6.3 9.18,-6.85 6.62,-1.35 13.57,-1.67 19.73,-4.71 -0.05,-0.33 -0.13,-0.99 -0.18,-1.32 l -0.14,-0.83 c -0.57,-3.6 -1.63,-7.1 -3.05,-10.45 l -0.26,-0.67 c -1.94,-5.95 -4.87,-11.56 -8.98,-16.31 -0.19,-0.29 -0.58,-0.87 -0.77,-1.16 -0.33,-0.41 -0.98,-1.22 -1.31,-1.63 -1.3,-0.98 -2.17,-2.4 -3.1,-3.71 -2.2,-3.55 -5.23,-6.53 -8.82,-8.66 -0.9,-0.58 -1.79,-1.17 -2.68,-1.75 -0.1,-0.07 -0.28,-0.19 -0.37,-0.25 -0.61,-0.41 -1.82,-1.24 -2.43,-1.65 -0.09,-0.07 -0.28,-0.2 -0.37,-0.27 -1.19,-0.87 -2.4,-1.74 -3.43,-2.8 -0.65,-0.96 -1.31,-1.91 -1.98,-2.86 0.16,-0.78 0.47,-2.33 0.62,-3.11 0.22,-0.51 0.66,-1.53 0.87,-2.03 l -0.12,-1.31 z"
       id="path281"
       inkscape:connector-curvature="0"
       style="fill:#e00003" />
    <path
       d="m 123.91,116.35 c 2.22,-0.76 4.44,-1.52 6.66,-2.29 1.31,3.61 2.79,7.17 4.64,10.55 l 0.3,0.59 c 0.04,0.08 0.12,0.24 0.16,0.32 0.25,0.55 0.76,1.66 1.02,2.21 1.81,5.04 4.68,9.61 8.46,13.41 0.85,0.96 1.65,1.97 2.44,2.99 1.46,2.01 3.17,3.84 5.21,5.27 1.82,1.45 3.93,2.66 5.23,4.64 0.44,0.29 1.32,0.87 1.76,1.16 0.28,0.24 0.84,0.74 1.12,0.99 0.68,0.93 1.56,1.69 2.65,2.09 0.3,0.16 0.89,0.47 1.19,0.63 5.63,3.45 11.49,6.61 17.72,8.84 -0.37,0.21 -1.12,0.64 -1.49,0.85 -2.45,1.26 -4.95,2.42 -7.49,3.48 -0.37,-0.15 -1.11,-0.44 -1.48,-0.59 -1.2,-0.67 -2.46,-1.25 -3.83,-1.49 -1.44,-0.48 -3.36,-0.54 -4.15,-2.05 -0.43,-0.28 -1.3,-0.86 -1.73,-1.14 -0.28,-0.17 -0.85,-0.5 -1.14,-0.66 -2.64,-1.94 -5.38,-3.75 -8.17,-5.46 -0.77,-0.54 -1.45,-1.19 -2.02,-1.93 -0.92,-1.25 -2.02,-2.35 -3.41,-3.05 -2.36,-1.33 -4.67,-3.1 -5.59,-5.76 -0.21,-1.11 -0.85,-1.78 -1.9,-2 -0.39,-0.12 -1.16,-0.34 -1.55,-0.45 -0.08,-0.46 -0.25,-1.37 -0.33,-1.83 -0.01,-1.25 -1.01,-2.1 -1.88,-2.84 -0.23,-0.31 -0.69,-0.93 -0.91,-1.24 -0.61,-1.23 -1.35,-2.38 -2.26,-3.4 -0.21,-0.28 -0.61,-0.83 -0.82,-1.11 -3.19,-6.74 -6.4,-13.52 -8.41,-20.73 z"
       id="path283"
       inkscape:connector-curvature="0"
       style="fill:#e00003" />
    <path
       d="m 81.6,137.15 c 0.77,-0.77 1.55,-1.54 2.35,-2.3 0.75,3.04 1.71,6.08 1.76,9.24 -0.2,3.16 -1.57,6.08 -2.66,9.01 l -0.27,0.67 c -1.53,3.31 -2.58,6.82 -3.14,10.42 l -0.14,0.84 c -0.04,0.33 -0.13,0.99 -0.17,1.32 19.25,7.85 41.87,5.68 60.06,-4.01 2.12,-0.91 4.38,-1.37 6.6,-1.92 1.19,1.44 2.4,2.85 3.63,4.26 -1.28,1.13 -2.44,2.38 -3.65,3.57 -1.04,0.92 -2.4,1.31 -3.67,1.77 -3.47,1.03 -6.82,2.4 -10.03,4.07 l -0.61,0.28 c -0.09,0.04 -0.26,0.11 -0.35,0.15 l -0.68,0.23 c -8.75,1.85 -17.64,3.49 -26.63,3.26 -8.65,0.2 -17.16,-1.59 -25.61,-3.23 l -0.71,-0.21 c -0.09,-0.03 -0.27,-0.1 -0.36,-0.13 l -0.61,-0.27 c -1.9,-0.92 -3.78,-1.88 -5.68,-2.8 0.41,-9.6 4.11,-18.51 7.03,-27.53 0.54,-1.52 1.25,-2.98 2.02,-4.39 0.05,-0.08 0.14,-0.23 0.18,-0.31 0.34,-0.5 1,-1.49 1.34,-1.99 z"
       id="path285"
       inkscape:connector-curvature="0"
       style="fill:#e00003" />
    <path
       d="m 211.5,135.5 c 0.41,1.01 0.83,2.03 1.24,3.06 0.62,1.65 1.43,3.39 3.05,4.27 0.41,0.26 1.21,0.78 1.61,1.05 -1.6,3.79 -3.04,7.65 -4.45,11.52 -0.28,0.54 -0.84,1.62 -1.12,2.16 -0.04,0.07 -0.13,0.2 -0.18,0.27 -0.37,0.46 -1.11,1.38 -1.48,1.83 -2.72,2.9 -5.19,6.02 -7.43,9.31 -0.76,1.06 -1.69,2 -2.78,2.73 -3.49,2.23 -6.8,4.73 -9.92,7.46 -0.26,0.19 -0.79,0.56 -1.05,0.75 -6.7,2.76 -13.44,5.45 -20.28,7.85 -0.63,0.13 -1.87,0.37 -2.49,0.5 -7.46,0.77 -14.98,0.78 -22.43,-0.01 -0.63,-0.12 -1.87,-0.37 -2.49,-0.49 -5.41,-1.74 -10.61,-4.03 -15.88,-6.13 0.55,-0.16 1.63,-0.46 2.17,-0.62 4.49,-1.19 9.18,-2.3 13.83,-1.37 12.18,2.46 25.58,2.38 36.77,-3.63 1.21,-0.62 2.44,-1.22 3.68,-1.79 3,-1.3 5.79,-3.03 8.34,-5.07 0.25,-0.19 0.74,-0.56 0.99,-0.75 3.03,-2.08 5.74,-4.63 7.79,-7.7 0.63,-0.86 1.27,-1.71 1.96,-2.53 5.5,-5.97 9.3,-13.49 10.34,-21.58 l 0.21,-1.09 z"
       id="path287"
       inkscape:connector-curvature="0"
       style="fill:#e00003" />
  </g>
</svg>
