<?xml version="1.0" encoding="UTF-8" standalone="no"?>
<svg
   xmlns:dc="http://purl.org/dc/elements/1.1/"
   xmlns:cc="http://creativecommons.org/ns#"
   xmlns:rdf="http://www.w3.org/1999/02/22-rdf-syntax-ns#"
   xmlns:svg="http://www.w3.org/2000/svg"
   xmlns="http://www.w3.org/2000/svg"
   xmlns:sodipodi="http://sodipodi.sourceforge.net/DTD/sodipodi-0.dtd"
   xmlns:inkscape="http://www.inkscape.org/namespaces/inkscape"
   width="324"
   height="216">
  <rect
     width="324"
     height="216"
     id="rect4"
     style="fill:#33c1ff;fill-opacity:1"
     fill="#3399ff" />
  <path
     style="fill:#003900;fill-opacity:1;stroke:none"
     d="M 160.24562,49.000002 L 147.50878,77.23243 L 122.86433,89.84386 L 81.883041,120.16351 L 62,138.83082 C 73.630176,144.66982 86.82479,143.40403 98.25614,149.69568 C 107.92514,155.01787 121.16491,171.64124 133.34503,168.64065 C 144.85381,165.80457 150.1731,150.3595 161.4152,145.84112 C 170.87836,142.03906 183.71696,152.50027 190.65498,142.33072 C 207.12982,146.45127 226.76257,141.26442 239.77778,131.83102 C 237.05146,123.44292 228.26082,127.97296 221.73801,128.38828 C 208.39299,129.23992 185.37895,130.49172 174.2807,122.49794 L 231.59065,121.33131 L 246.79532,122.49794 L 262,106.16507 L 259.66083,97.998632 L 218.72515,94.070226 L 196.50293,79.289322 L 177.79298,73.14641 L 171.94152,50.166636 L 170.77193,50.166636 L 164.92398,58.333075 L 163.75438,49.000002 L 160.24562,49.000002 z"
     id="path6" />
</svg>
