<?xml version="1.0" encoding="UTF-8" standalone="no"?>
<svg
   xmlns:dc="http://purl.org/dc/elements/1.1/"
   xmlns:cc="http://creativecommons.org/ns#"
   xmlns:rdf="http://www.w3.org/1999/02/22-rdf-syntax-ns#"
   xmlns:svg="http://www.w3.org/2000/svg"
   xmlns="http://www.w3.org/2000/svg"
   xmlns:sodipodi="http://sodipodi.sourceforge.net/DTD/sodipodi-0.dtd"
   xmlns:inkscape="http://www.inkscape.org/namespaces/inkscape"
   width="390"
   height="260">
  <rect
     style="fill:#a0522d;fill-opacity:1;stroke:none"
     id="rect2988"
     width="390"
     height="260"
     x="0"
     y="0" />
  <g
     id="#a06a00ff"
     style="fill:#ffd700"
     transform="matrix(1.25,0,0,1.25,0,-1.25)">
    <path
       d="m 170.23,14.17 c 1.9,-0.55 3.8,-1.08 5.71,-1.59 0.63,3.75 2.87,8.85 -1.08,11.51 1.06,0.76 2.12,1.53 3.17,2.32 -0.02,1.72 -0.03,3.44 -0.04,5.16 1.01,0.52 2.02,1.05 3.03,1.58 -0.01,1.5 -0.01,3.01 -0.01,4.52 0.87,0.88 1.75,1.75 2.63,2.63 -0.22,1.23 -0.43,2.45 -0.63,3.68 2.61,1.4 1.58,4.19 1.55,6.52 -0.27,2.32 1.67,4.47 0.63,6.76 -1.02,2.67 -0.64,5.5 -0.61,8.27 -1.18,1.89 -2.93,3.33 -4.49,4.89 0.72,1.25 1.45,2.51 2.18,3.76 -2.05,2.75 -4.54,5.1 -7.31,7.11 1.15,0.86 2.32,1.7 3.4,2.65 -2.22,2.38 -4.87,4.29 -7.3,6.45 0.27,1.37 0.85,2.71 0.78,4.13 -2.3,2.69 -6.34,4.2 -6.25,8.34 -2.17,1.83 -4.4,3.58 -6.6,5.38 0,1.16 0.01,2.32 0.01,3.48 -5.68,4.92 -11.29,10.38 -18.69,12.56 -1,3.28 -2.07,6.54 -3.23,9.78 0.68,-0.02 2.04,-0.06 2.72,-0.08 0.23,2.02 0.49,4.03 0.76,6.05 2.73,-0.01 5.46,-0.02 8.2,-0.03 1.32,-3.9 2.49,-7.96 4.97,-11.32 2.08,-2.73 3,-6.05 3.61,-9.37 0.65,-0.75 1.31,-1.5 1.97,-2.25 0.58,-0.03 1.75,-0.09 2.33,-0.12 0.82,-2.66 1.67,-5.31 2.55,-7.96 1.54,0.01 3.09,0.02 4.63,0.03 0.34,-3.06 0.38,-6.44 2.41,-8.96 1.41,0.14 2.79,0.45 4.17,0.73 0.35,-0.22 1.05,-0.66 1.4,-0.88 0.32,-2.55 0.39,-5.23 1.57,-7.58 1.17,-1.12 2.57,-1.95 3.91,-2.84 0.72,1.34 1.43,2.68 2.16,4.02 2.24,-2.99 4.06,-6.25 5.76,-9.57 0.6,0.02 1.8,0.07 2.4,0.1 0.68,0.72 1.37,1.45 2.05,2.18 1.93,-2.4 3.63,-5.01 5.87,-7.14 1.76,-0.22 3.14,1.16 4.62,1.87 2.04,-1.11 4.06,-2.26 6.11,-3.36 0.74,1.21 1.5,2.42 2.26,3.62 1.38,-0.52 2.77,-1.03 4.17,-1.52 0.53,0.91 1.06,1.83 1.59,2.74 1.56,-0.2 3.11,-0.38 4.67,-0.57 0.02,0.76 0.05,2.27 0.06,3.02 5.42,-0.44 11.04,0.67 16.07,-2.06 0.3,0.3 0.91,0.91 1.22,1.21 1.43,-0.49 2.87,-0.94 4.32,-1.37 -1.46,4.27 -4.01,8.01 -6.17,11.95 -0.22,0.38 -0.65,1.15 -0.87,1.53 0.21,2.14 0.83,4.61 -1.54,5.85 0.41,0.77 0.84,1.55 1.27,2.33 -1.02,0.65 -2.03,1.29 -3.05,1.94 0.36,1.45 0.7,2.91 1.02,4.38 -1.95,1.42 -3.92,2.79 -5.87,4.2 0.79,0.12 2.36,0.37 3.15,0.49 -1.17,1.44 -2.35,2.87 -3.54,4.3 0.82,0.8 1.63,1.61 2.45,2.41 -0.91,0.84 -1.81,1.67 -2.72,2.5 -2.05,0.8 -4.08,1.67 -6.1,2.56 0.77,0.79 1.56,1.59 2.34,2.38 0.03,0.65 0.1,1.93 0.13,2.58 -2.95,0.63 -5.95,0.96 -8.96,1.09 -0.73,2.05 -1.48,4.1 -2.24,6.14 -3.16,-0.28 -6.31,-0.72 -9.42,-1.32 -0.46,1.7 -0.68,3.55 -1.73,5.03 -4.15,-0.21 -8.17,-1.42 -12.23,-2.2 -0.47,1.82 -0.78,3.72 -1.77,5.36 -3.12,-0.63 -5.91,-2.25 -8.99,-2.99 -1.97,-0.74 -2.6,1.88 -3.71,2.9 -2.95,-1.13 -6.4,-3.12 -8.95,-0.09 -7.82,-0.81 -15.95,-0.83 -23.28,-4.06 -0.42,0.23 -1.26,0.69 -1.68,0.92 -3.4,0.27 -6.79,0.74 -10.16,1.26 -2.43,4.85 -4.45,9.9 -6.81,14.78 2.25,6.56 -3.15,12.5 -2.22,19.11 0.7,6.32 1.43,12.65 1.02,19.02 -1.66,0 -3.32,0 -4.98,0 0.18,-7.49 -0.53,-15.03 0.61,-22.47 0.6,-4.52 0.07,-9.18 1.37,-13.6 1.52,-5.42 3.25,-10.99 6.95,-15.37 2.15,-6.13 -0.3,-12.41 -1.1,-18.54 -7.28,-4.22 -15.44,-6.5 -23.03,-10.06 0.37,-0.5 1.1,-1.5 1.47,-2 -0.39,-0.49 -1.17,-1.49 -1.56,-1.98 -2.16,0.01 -4.32,0.03 -6.47,0.05 -0.76,-1.35 -1.52,-2.7 -2.29,-4.04 0.47,-0.94 0.94,-1.88 1.4,-2.82 -3.58,-1.38 -7.33,-0.84 -11.02,-0.41 -0.72,-0.97 -1.29,-2.03 -1.89,-3.06 0.99,-0.85 1.99,-1.69 2.98,-2.53 -4.12,-1.13 -8.14,-2.71 -11.57,-5.29 0.04,-0.61 0.14,-1.82 0.19,-2.43 0.82,-0.83 1.63,-1.67 2.45,-2.5 -3.32,-0.98 -7.42,-0.86 -9.77,-3.8 1.65,-2.25 3.7,-4.16 5.65,-6.13 -0.38,-0.42 -1.14,-1.25 -1.53,-1.66 -1.99,-1.11 -3.92,-2.35 -5.73,-3.74 0.81,-0.19 2.42,-0.56 3.23,-0.74 -1.16,-1.02 -2.36,-2 -3.45,-3.09 0.49,-0.32 1.46,-0.95 1.95,-1.26 -2,-2.1 -3.45,-4.61 -4.42,-7.33 0.91,-0.07 2.75,-0.23 3.67,-0.31 -0.07,-0.56 -0.21,-1.69 -0.27,-2.26 -0.62,-1.01 -1.29,-1.99 -1.81,-3.06 0.93,-0.82 1.89,-1.6 2.89,-2.35 0.05,-0.95 0.11,-1.91 0.16,-2.86 0.42,-0.38 1.27,-1.15 1.7,-1.53 -0.6,-1.43 -1.25,-2.83 -1.67,-4.32 0.89,-0.76 1.81,-1.48 2.76,-2.15 -0.7,-1.16 -1.4,-2.33 -2.1,-3.49 0.74,-0.76 1.48,-1.52 2.22,-2.27 -0.71,-1.29 -1.42,-2.57 -2.13,-3.85 0.75,-0.76 1.5,-1.51 2.25,-2.26 -0.7,-0.63 -1.39,-1.25 -2.09,-1.88 0,-1.76 -0.01,-3.51 -0.01,-5.27 0.52,-0.44 1.57,-1.34 2.1,-1.78 1.16,1.03 2.31,2.07 3.45,3.12 1.06,-0.32 2.12,-0.64 3.18,-0.96 0.43,1.38 0.86,2.76 1.29,4.14 2.58,-1.52 4.73,0.17 6.62,1.91 0.42,-0.33 1.27,-0.99 1.69,-1.33 1.11,1.83 2.18,3.67 3.24,5.52 1.02,0.03 2.04,0.06 3.06,0.08 0.37,0.4 1.13,1.21 1.5,1.61 1.28,-0.21 2.57,-0.41 3.86,-0.59 1.98,1.69 4.47,1.52 6.88,1.46 1.03,1.25 1.74,2.73 2.55,4.12 1.37,-0.31 2.75,-0.59 4.14,-0.85 0.67,2.17 1.05,4.5 2.26,6.46 1.95,1.12 4.21,1.51 6.35,2.1 0.54,2.22 0.64,4.5 0.24,6.75 2.29,-0.07 4.58,-0.13 6.87,-0.19 0.72,3.52 0.19,7.09 -0.44,10.59 1.76,0.47 3.69,0.64 5.21,1.77 -0.11,1.81 -0.51,3.58 -0.85,5.35 0.92,-1.09 1.85,-2.17 2.79,-3.25 -0.79,-2.65 -1.73,-5.3 -1.97,-8.07 1.25,-0.76 2.6,-1.33 3.92,-1.94 -0.48,-2.76 -0.87,-5.53 -1.18,-8.31 1.41,-0.03 2.83,-0.06 4.26,-0.09 -0.01,-2.25 -0.02,-4.51 -0.03,-6.77 1.63,-0.5 3.26,-0.99 4.9,-1.47 -0.43,-2.22 -0.81,-4.46 -1.17,-6.69 1.65,-0.01 3.31,-0.02 4.96,-0.03 0.41,-2.36 0.85,-4.71 1.33,-7.06 1.52,0.03 3.04,0.05 4.57,0.07 0.92,-0.98 1.85,-1.96 2.78,-2.94 0.66,-0.04 1.97,-0.12 2.63,-0.16 0.02,-1.08 0.04,-2.16 0.07,-3.24 2.89,-1.55 5.37,-3.68 7.67,-6 0.5,-1.17 1.01,-2.33 1.51,-3.5 m -36.88,61.32 c -1.05,0.62 -1.44,2.37 -0.65,3.33 1.63,0.48 2.31,-3.16 0.65,-3.33 m 0.9,11.78 c 0.53,0.5 0.53,0.5 0,0 m -0.84,21.24 c -0.54,4.12 -1.72,8.09 -2.84,12.08 -1.21,3.97 -0.22,8.1 0.58,12.05 0.78,0.83 1.57,1.67 2.35,2.5 0.3,-0.35 0.89,-1.07 1.18,-1.42 1.29,-5.35 3.03,-10.58 4.33,-15.92 -1.7,-3.2 -3.59,-6.28 -5.6,-9.29 z"
       id="path14"
       style="fill:#ffd700"
       inkscape:connector-curvature="0" />
  </g>
</svg>
