<?xml version="1.0" encoding="UTF-8" standalone="no"?>
<svg
   xmlns:dc="http://purl.org/dc/elements/1.1/"
   xmlns:cc="http://creativecommons.org/ns#"
   xmlns:rdf="http://www.w3.org/1999/02/22-rdf-syntax-ns#"
   xmlns:svg="http://www.w3.org/2000/svg"
   xmlns="http://www.w3.org/2000/svg"
   xmlns:sodipodi="http://sodipodi.sourceforge.net/DTD/sodipodi-0.dtd"
   xmlns:inkscape="http://www.inkscape.org/namespaces/inkscape"
   width="600"
   height="400"
   id="svg2"
   sodipodi:version="0.32"
   inkscape:version="0.46"
   sodipodi:docname="greater_poland.svg"
   inkscape:output_extension="org.inkscape.output.svg.inkscape"
   version="1.0">
  <metadata
     id="metadata13">
    <rdf:RDF>
      <cc:Work
         rdf:about="">
        <dc:format>image/svg+xml</dc:format>
        <dc:type
           rdf:resource="http://purl.org/dc/dcmitype/StillImage" />
      </cc:Work>
    </rdf:RDF>
  </metadata>
  <defs
     id="defs11">
    <inkscape:perspective
       sodipodi:type="inkscape:persp3d"
       inkscape:vp_x="0 : 150 : 1"
       inkscape:vp_y="0 : 1000 : 0"
       inkscape:vp_z="450 : 150 : 1"
       inkscape:persp3d-origin="225 : 100 : 1"
       id="perspective15" />
    <inkscape:perspective
       id="perspective2560"
       inkscape:persp3d-origin="188 : 132.66667 : 1"
       inkscape:vp_z="376 : 199 : 1"
       inkscape:vp_y="0 : 1000 : 0"
       inkscape:vp_x="0 : 199 : 1"
       sodipodi:type="inkscape:persp3d" />
  </defs>
  <sodipodi:namedview
     inkscape:window-height="729"
     inkscape:window-width="1280"
     inkscape:pageshadow="2"
     inkscape:pageopacity="0.0"
     guidetolerance="10.0"
     gridtolerance="10.0"
     objecttolerance="10.0"
     borderopacity="1.0"
     bordercolor="#666666"
     pagecolor="#ffffff"
     id="base"
     showgrid="false"
     inkscape:zoom="0.9175"
     inkscape:cx="82.618004"
     inkscape:cy="249.26471"
     inkscape:window-x="0"
     inkscape:window-y="0"
     inkscape:current-layer="svg2" />
  <rect
     width="600"
     height="400"
     id="rect4"
     x="0"
     y="6.8389738e-14"
     style="fill:#ffffff" />
  <rect
     width="300"
     height="400"
     y="6.8389738e-14"
     id="rect8"
     x="300"
     style="fill:#ff0000" />
  <g
     id="g2623"
     transform="matrix(1.0008532,0,0,1.0003281,136.04169,114.84678)">
    <path
       id="path2499"
       d="M -87.72794,132.37132 C -77.45294,129.40432 -65.97694,120.20932 -61.72794,110.37132 L -60.72794,110.37132 L -59.72794,116.37132 L -37.72794,107.37132 C -41.17194,112.85332 -41.51294,128.34732 -47.00694,131.25032 C -56.23994,136.12832 -76.38494,117.34532 -78.72794,138.37132 L -65.72794,138.37132 L -65.72794,140.37132 C -76.81894,140.40332 -79.08694,145.37832 -72.72794,154.37132 L -62.72794,149.37132 L -61.72794,150.37132 C -64.69594,157.37632 -65.26394,165.11632 -56.72794,167.37132 L -36.71294,148.22932 L -17.72794,150.37132 L -17.72794,156.37132 C -10.89894,153.77832 -10.04294,151.34732 -8.72794,144.37132 C -17.61194,140.16132 -34.24594,139.42232 -22.77094,128.50932 C -21.48994,127.29032 -20.16694,126.38532 -18.72794,125.37132 L -17.72794,129.37132 L -4.72794,114.37132 C -3.93994,118.17832 -1.21894,123.54232 -2.26994,127.37132 C -3.39794,131.48432 -7.34994,133.78432 -7.57494,138.37132 C -7.85094,143.98732 -2.18194,146.59132 -1.85094,151.65632 C -1.15194,162.33832 -10.92294,179.14232 -21.72794,181.04132 C -28.58394,182.24632 -35.19994,178.88132 -41.72794,177.37132 C -40.43394,184.23632 -39.32294,193.62832 -32.72794,197.37132 L -33.72794,199.37132 L -14.72794,201.37132 C -16.31094,203.70132 -19.73494,207.22432 -19.56094,210.22432 C -19.11394,217.93432 -5.54194,212.75132 -2.72794,210.37132 C -1.81594,218.76832 6.95406,234.47132 17.17906,228.91432 C 23.80006,225.31632 25.99006,217.14932 27.27206,210.37132 L 28.27206,210.37132 C 30.32406,215.60032 40.42906,217.97932 42.56406,211.18232 C 43.59806,207.89032 40.83006,204.05332 39.27206,201.37132 C 54.68006,204.23232 69.30206,194.34632 65.27206,177.37132 C 58.33206,179.26532 51.70706,182.63132 44.27206,181.09232 C 34.29206,179.02832 24.78106,161.12532 25.10706,151.37132 C 25.27006,146.48432 30.37806,143.63232 30.11906,138.37132 C 29.87706,133.44032 25.03106,130.93932 24.40306,126.37132 C 23.80106,121.98932 27.52006,116.74032 28.27206,112.37132 L 34.27206,112.37132 C 34.42906,119.95732 36.20206,126.61532 43.27206,130.37132 L 44.27206,126.37132 C 45.71206,127.38532 47.03306,128.29032 48.31506,129.50932 C 59.79006,140.42232 43.15606,141.16132 34.27206,145.37132 C 35.58706,152.34732 36.44306,154.77832 43.27206,157.37132 L 43.27206,151.37132 L 62.25706,149.22932 L 82.27206,168.37132 C 90.80806,166.11632 90.24006,158.37632 87.27206,151.37132 L 88.27206,150.37132 L 98.27206,155.37132 C 104.63106,146.37832 102.36206,141.40332 91.27206,141.37132 L 91.27206,139.37132 L 104.27206,139.37132 C 101.92906,118.34532 81.78406,137.12832 72.55106,132.25032 C 67.07306,129.35632 67.11506,114.81232 65.27206,109.37132 L 104.08806,121.65032 L 114.27206,132.37132 C 118.38406,117.98832 126.05306,104.33232 131.46106,90.37132 C 142.91506,60.80232 151.19306,31.26732 150.25806,-0.62868 C 149.53706,-25.23228 128.97706,-48.52708 103.27206,-40.58858 C 80.08206,-33.42678 97.67906,-15.12808 95.04006,0.37132 C 92.94506,12.67632 66.19606,27.02332 54.27606,24.05232 C 48.36806,22.58032 45.94506,15.54332 44.30106,10.37132 C 39.81406,-3.74068 43.35206,-18.59218 39.22906,-32.62868 C 33.88306,-50.82978 19.24106,-49.26408 4.27206,-54.29608 C -2.62194,-56.61368 -13.42194,-62.47898 -20.61994,-58.44968 C -31.42594,-52.40058 -23.36594,-38.74578 -18.01294,-32.62868 C -12.32394,-26.12918 -0.32394,-18.04598 2.19806,-9.62868 C 3.26306,-6.07268 -0.22294,-2.34768 -2.07194,0.37132 C -7.45894,8.29432 -14.85094,21.83832 -24.72794,24.62532 C -29.04994,25.84432 -33.79094,22.89432 -37.72794,21.42132 C -47.41994,17.79632 -65.46294,13.69632 -67.40894,1.37132 C -68.86694,-7.86078 -60.44594,-15.52678 -63.36594,-25.62868 C -68.44294,-43.19388 -92.73684,-44.09828 -105.72714,-35.52068 C -122.15934,-24.67028 -123.57364,-1.22868 -121.89774,16.37132 C -118.09304,56.32432 -106.72794,96.73132 -87.72794,132.37132 z"
       style="fill:#000000;stroke:none" />
    <path
       id="path2501"
       d="M -20.72794,-47.62868 C -7.48994,-44.48298 1.62206,-32.29948 5.27206,-19.62868 L 4.27206,-19.62868 C 0.24006,-27.40128 -9.75994,-38.90288 -17.72794,-42.62868 C -10.33894,-31.31478 -4.17494,-17.62748 9.27206,-12.62868 C 11.72806,-21.19808 5.16506,-28.29168 4.37606,-36.62868 C 3.99406,-40.66498 5.58406,-46.68378 2.66906,-49.99138 C -4.12094,-57.69328 -19.99294,-61.04168 -20.72794,-47.62868 z"
       style="fill:#ebbd39;stroke:none" />
    <path
       id="path2503"
       d="M 6.27206,-47.62868 C 10.16406,-42.39048 20.95906,-39.55608 22.09606,-32.67188 C 22.75806,-28.66448 17.39406,-26.90338 14.45706,-28.55618 C 10.13906,-30.98618 8.69006,-37.28028 7.27206,-41.62868 L 6.27206,-41.62868 L 11.83806,-14.66808 L 0.27206,3.37132 L 14.27206,-1.62868 C 16.80306,8.89932 23.18206,10.86532 27.27206,0.37132 L 29.27206,0.37132 C 31.01806,4.32532 33.04406,5.13732 37.27206,5.37132 C 37.09806,-15.66248 36.85206,-54.90918 6.27206,-47.62868 M 49.27206,29.37132 C 52.98306,34.62432 63.76506,32.55232 69.27206,31.24132 C 84.54806,27.60432 108.37806,23.90532 114.04706,6.37132 C 115.27906,2.56332 116.34406,-7.84598 113.63306,-11.10478 C 111.36206,-13.83478 104.74106,-13.41708 104.42006,-17.83938 C 103.44506,-31.28048 118.90606,-34.06238 124.53806,-22.62868 C 129.58906,-12.37518 124.57506,4.67932 128.27206,16.37132 L 122.27206,13.37132 C 119.88206,20.91232 118.23406,31.60032 123.27206,38.37132 C 126.33706,33.82932 128.50006,29.28132 134.27206,28.37132 L 137.27206,45.37132 C 141.79006,39.89732 143.19606,32.23232 144.35106,25.37132 C 148.56806,0.34332 141.22806,-48.55908 105.27206,-36.42268 C 81.19806,-28.29708 104.30706,-10.16228 97.85106,4.37132 C 90.38106,21.18432 65.45106,26.02332 49.27206,29.37132 M -113.72794,47.37132 C -105.57324,43.47432 -105.73324,34.38032 -105.72794,26.37132 L -100.72794,40.37132 C -93.17574,39.13832 -93.51004,29.55232 -94.48254,23.37132 C -95.67684,15.78132 -98.52544,8.06932 -98.67394,0.37132 C -98.75984,-4.08168 -96.28144,-8.32108 -96.52274,-12.62868 C -96.88584,-19.11268 -104.10404,-23.99178 -93.72794,-27.05078 C -89.06104,-28.42658 -78.93494,-24.32868 -79.10494,-18.60088 C -79.25094,-13.64898 -84.43244,-13.45748 -86.70014,-10.13028 C -88.60094,-7.34128 -87.92944,-1.80968 -87.54354,1.37132 C -84.14594,29.37332 -43.43394,33.65832 -21.72794,35.37132 C -29.41594,19.23732 -55.65594,21.40132 -67.61994,9.26732 C -79.44994,-2.73068 -59.95194,-18.96988 -72.06794,-31.29918 C -83.94884,-43.38908 -105.87324,-34.27788 -113.19864,-21.62868 C -126.02064,0.51232 -114.72524,24.14432 -113.72794,47.37132 M 13.27206,-36.62868 L 15.27206,-30.62868 L 19.27206,-31.62868 L 13.27206,-36.62868 z"
       style="fill:#ffffff;stroke:none" />
    <path
       id="path2505"
       d="M 110.27206,-28.62868 C 109.55806,-25.64798 106.57706,-20.88268 107.72506,-17.90338 C 108.95606,-14.70798 113.56406,-14.55048 115.66906,-12.12948 C 118.70906,-8.63188 119.09106,2.25232 117.33406,6.37132 C 109.26006,25.31132 88.78906,28.12532 71.27206,32.49832 C 63.02006,34.55732 54.82406,35.19932 49.27206,42.37132 C 73.73006,41.86632 100.91606,33.45732 116.03206,13.37132 C 124.36606,2.29732 130.63706,-28.55678 110.27206,-28.62868 M -98.72794,-22.62868 C -94.55634,-11.23088 -96.98984,1.44832 -91.74334,12.37132 C -79.88204,37.06532 -45.11594,42.37132 -20.72794,42.37132 L -20.72794,37.37132 C -42.33294,35.66632 -75.74394,32.81232 -86.92774,10.28132 C -90.47454,3.13632 -89.72794,-4.91368 -89.72794,-12.62868 C -73.79894,-15.16068 -86.84124,-29.84988 -98.72794,-22.62868 z"
       style="fill:#ebbd39;stroke:none" />
    <path
       id="path2507"
       d="M 4.27206,24.37132 C 11.81206,20.82632 10.89606,13.08732 14.27206,6.37132 C 2.50806,6.38032 0.35306,14.34332 4.27206,24.37132 M 0.27206,7.37132 C -6.12894,10.50132 -10.60194,13.80632 -13.72794,20.37132 C -8.23394,18.08432 0.53206,14.43732 0.27206,7.37132 M 15.27206,11.37132 C 16.26406,19.51532 17.91406,23.45832 26.27206,23.37132 L 27.27206,22.37132 L 25.27206,13.37132 L 19.27206,15.37132 L 17.27206,11.37132 L 15.27206,11.37132 M 30.27206,11.37132 L 29.27206,12.37132 C 31.77906,20.22232 35.59206,22.10932 43.27206,21.37132 C 41.43306,13.72732 37.72306,11.97232 30.27206,11.37132 M -4.72794,20.37132 C -5.61294,22.66832 -6.65694,24.96232 -7.19894,27.37332 C -7.82594,30.15732 -7.20494,42.06732 -1.45194,38.28532 C 4.06106,34.66132 0.53806,22.03432 -4.72794,20.37132 M -14.72794,23.37132 L -18.72794,36.37132 C -13.38894,34.25132 -8.66694,27.65432 -14.72794,23.37132 M 38.27206,25.37132 L 44.27206,39.37132 L 46.27206,39.37132 C 46.66706,33.33332 43.71706,28.03332 38.27206,25.37132 M 14.27206,42.37132 C 15.47506,40.45932 16.97206,38.53332 17.68706,36.36632 C 23.75306,18.00032 -8.62494,30.86232 8.32206,40.45932 C 10.22706,41.53832 12.15706,41.95732 14.27206,42.37132 M 106.27206,42.37132 L 113.27206,42.37132 L 115.27206,26.37132 C 105.23906,26.92132 106.27206,34.30732 106.27206,42.37132 M -88.72794,27.37132 L -83.72794,44.37132 L -81.72794,44.37132 C -78.68394,36.00232 -82.86084,33.02932 -88.72794,27.37132 M 24.80106,28.39932 C 19.61006,32.24932 26.33806,41.08532 31.83806,37.34232 C 38.27306,32.96432 31.02506,23.78232 24.80106,28.39932 M 99.27206,33.37132 C 94.06506,37.75432 93.04706,40.74732 94.27206,47.37132 C 99.69406,44.69832 102.51206,38.88932 99.27206,33.37132 M -74.72794,35.37132 L -67.72794,47.37132 C -64.31494,39.76932 -66.97994,36.37832 -74.72794,35.37132 M -14.72794,37.37132 C -19.32194,46.36332 -20.31594,54.67232 -9.72794,59.37132 C -7.68794,50.44832 -6.50794,43.47932 -14.72794,37.37132 M 21.27206,39.37132 L 20.27206,43.37132 C 15.04406,44.34432 9.26106,54.22032 17.31706,55.84332 C 29.06106,58.21032 30.07106,44.04932 21.27206,39.37132 M 80.27206,40.37132 L 87.27206,49.37132 L 89.27206,39.37132 L 80.27206,40.37132 M -62.72794,40.37132 C -61.91494,44.93032 -60.38394,49.78132 -55.72794,51.37132 L -54.72794,40.37132 L -62.72794,40.37132 M 130.27206,42.37132 L 123.84806,75.37132 L 118.27206,87.37132 C 124.34706,73.25132 128.27206,55.65632 128.27206,40.37132 C 125.64306,40.37332 121.16506,39.62632 119.30006,41.97432 C 116.71506,45.22832 116.86606,54.20232 115.92206,58.37132 C 112.59706,73.06832 108.83306,87.42932 106.84806,102.37132 C 106.25706,106.81632 104.76606,122.81232 110.64806,124.61932 C 115.89706,126.23332 120.85906,109.85432 122.49206,106.37132 C 129.13406,92.20432 137.46506,74.47832 136.09806,58.37132 C 135.64906,53.07532 134.91006,45.54532 130.27206,42.37132 M 67.27206,42.37132 L 70.27206,51.37132 L 74.27206,51.37132 L 74.27206,41.37132 L 67.27206,42.37132 M -93.72794,88.37132 C -103.11444,77.57932 -98.30144,56.68832 -105.72794,44.37132 C -115.18564,65.73932 -102.87054,87.67532 -94.92854,107.37132 C -92.01464,114.59832 -90.81044,127.06932 -81.72794,127.37132 C -85.32574,107.99232 -86.03994,87.92932 -88.44324,68.37132 C -89.28364,61.53232 -88.25114,50.86632 -91.33054,44.68932 C -93.05914,41.22132 -101.51214,41.26132 -102.23644,45.51932 C -103.38614,52.27832 -98.88664,62.70632 -97.37844,69.37132 C -95.96074,75.63632 -94.23824,81.95832 -93.72794,88.37132 M -50.72794,42.37132 L -50.72794,51.37132 L -43.72794,51.37132 L -43.72794,42.37132 L -50.72794,42.37132 M 2.25806,43.18332 C -6.49994,43.08032 -5.21394,58.20632 2.28706,57.99432 C 10.99106,57.74932 10.43006,43.28032 2.25806,43.18332 z"
       style="fill:#ffffff;stroke:none" />
    <path
       id="path2509"
       d="M -104.72794,43.37132 L -97.93854,76.37132 L -93.72794,88.37132 L -102.72794,43.37132 L -104.72794,43.37132 z"
       style="fill:#808080;stroke:none" />
    <path
       id="path2511"
       d="M 34.27206,43.37132 C 33.19106,56.44432 44.26206,56.47632 44.27206,43.37132 L 34.27206,43.37132 M 59.27206,53.37132 L 63.27206,53.37132 L 63.27206,43.37132 C 57.49006,44.63432 58.88906,48.47332 59.27206,53.37132 z"
       style="fill:#ffffff;stroke:none" />
    <path
       id="path2513"
       d="M 128.27206,43.37132 C 128.26206,57.87432 122.67406,73.60332 118.27206,87.37132 C 122.46106,86.47832 122.48306,81.09332 123.57806,77.37132 C 126.85306,66.23032 130.27206,55.01832 130.27206,43.37132 L 128.27206,43.37132 z"
       style="fill:#808080;stroke:none" />
    <path
       id="path2515"
       d="M -34.72794,44.37132 L -35.72794,47.37132 L -39.72794,45.37132 C -38.63994,49.50632 -38.33994,52.57032 -33.72794,53.37132 L -32.72794,44.37132 L -34.72794,44.37132 M -28.72794,44.37132 L -26.72794,57.37132 L -21.72794,47.37132 L -28.72794,44.37132 M 49.27206,44.37132 L 50.27206,54.37132 L 51.27206,54.37132 L 54.27206,44.37132 L 49.27206,44.37132 M 104.27206,44.37132 C 104.27106,52.77632 103.67506,77.59032 96.27206,82.37132 C 99.21706,73.67232 107.72606,47.70932 93.27206,49.37132 C 92.02506,65.16832 88.89506,80.43932 89.28706,96.37132 C 89.48006,104.25932 91.68706,113.66232 99.27206,117.37132 L 113.27206,44.37132 L 104.27206,44.37132 M -85.72794,46.37132 L -72.72794,119.37132 C -57.94694,107.95432 -62.96894,83.31232 -64.88294,67.37132 C -65.89294,58.95932 -64.79894,49.74832 -74.72794,48.37132 L -72.72794,76.37132 L -74.72794,76.37132 C -74.80794,66.68332 -74.75594,49.24532 -85.72794,46.37132 z"
       style="fill:#ffffff;stroke:none" />
    <path
       id="path2517"
       d="M -77.72794,49.37132 L -74.72794,76.37132 L -72.72794,76.37132 L -74.72794,49.37132 L -77.72794,49.37132 z"
       style="fill:#808080;stroke:none" />
    <path
       id="path2519"
       d="M 78.27206,81.37132 L 76.27206,81.37132 C 76.27206,73.85632 79.68706,57.46532 71.27206,54.37132 C 68.38206,69.93732 65.45206,103.97232 84.27206,110.37132 L 87.27206,51.37132 C 73.93306,51.53032 78.27206,71.79232 78.27206,81.37132 z"
       style="fill:#ffffff;stroke:none" />
    <path
       id="path2521"
       d="M 102.27206,52.37132 L 96.27206,82.37132 C 101.77706,81.19132 103.67206,58.08432 104.27206,52.37132 L 102.27206,52.37132 z"
       style="fill:#808080;stroke:none" />
    <path
       id="path2523"
       d="M -59.72794,53.37132 L -57.72794,110.37132 C -44.37694,104.59832 -41.57794,85.24632 -41.73194,72.37132 C -41.81794,65.15332 -43.22394,57.04632 -50.72794,54.37132 L -50.72794,83.37132 L -52.72794,83.37132 L -52.72794,53.37132 L -59.72794,53.37132 z"
       style="fill:#ffffff;stroke:none" />
    <path
       id="path2525"
       d="M -52.72794,54.37132 L -52.72794,83.37132 L -50.72794,83.37132 L -50.72794,54.37132 L -52.72794,54.37132 z"
       style="fill:#808080;stroke:none" />
    <path
       id="path2527"
       d="M -39.72794,57.37132 L -39.72794,103.37132 C -21.26994,97.88932 -24.62494,74.38532 -22.72794,59.37132 L -30.72794,58.37132 L -30.72794,85.37132 L -32.72794,85.37132 C -32.72794,76.93732 -28.47094,57.99532 -39.72794,57.37132 M 44.27206,57.37132 C 36.86306,63.75432 38.27206,71.31532 38.27206,80.37132 C 45.28406,76.15032 47.36606,64.74432 44.27206,57.37132 M 50.27206,57.37132 C 50.27206,73.57932 47.87306,95.06932 65.27206,103.37132 L 65.27206,57.37132 C 55.35706,61.57732 58.27206,72.10232 58.27206,81.37132 L 56.27206,81.37132 C 56.27206,73.01832 59.17306,61.41832 50.27206,57.37132 z"
       style="fill:#ffffff;stroke:none" />
    <path
       id="path2529"
       d="M -32.72794,58.37132 L -32.72794,85.37132 L -30.72794,85.37132 L -30.72794,58.37132 L -32.72794,58.37132 M 76.27206,58.37132 L 76.27206,81.37132 L 78.27206,81.37132 L 78.27206,58.37132 L 76.27206,58.37132 z"
       style="fill:#808080;stroke:none" />
    <path
       id="path2531"
       d="M -19.72794,59.37132 C -19.72794,67.45932 -21.45894,79.57232 -11.72794,82.37132 C -11.72794,73.31732 -8.29894,60.95632 -19.72794,59.37132 M 7.27206,60.37132 C 6.14606,62.67232 5.32106,64.81832 4.90506,67.37332 C 4.63206,69.04532 4.52606,70.68732 4.78006,72.37032 C 7.43006,89.95532 29.82506,67.04332 13.25806,60.73432 C 11.45406,60.04732 9.16206,60.38232 7.27206,60.37132 M 34.27206,59.37132 C 31.78706,59.62632 29.55706,60.00632 27.31406,61.21132 C 13.91806,68.40332 31.88706,87.58932 34.09806,67.37132 C 34.38806,64.72632 34.27206,62.02732 34.27206,59.37132 M -9.72794,61.37132 L -4.72794,82.37132 C 7.03706,76.74932 1.93206,62.57332 -9.72794,61.37132 z"
       style="fill:#ffffff;stroke:none" />
    <path
       id="path2533"
       d="M 56.27206,61.37132 L 56.27206,81.37132 L 58.27206,81.37132 L 58.27206,61.37132 L 56.27206,61.37132 z"
       style="fill:#808080;stroke:none" />
    <path
       id="path2535"
       d="M 6.27206,84.37132 C 6.27206,88.99432 4.79206,97.10632 8.28106,100.76732 C 16.64406,109.54132 19.24006,87.26932 19.27206,83.37132 L 6.27206,84.37132 M 21.27206,83.37132 L 21.27206,105.37132 C 30.24106,104.67432 30.26706,91.49032 32.27206,84.37132 L 29.27206,88.37132 L 26.27206,88.37132 L 25.27206,83.37132 L 21.27206,83.37132 M -6.72794,85.37132 C -5.74594,89.35832 -5.21894,104.07932 1.16806,103.19532 C 6.40706,102.47032 4.27206,88.12632 4.27206,84.37132 L -6.72794,85.37132 M -24.72794,99.37132 C -19.88594,97.08132 -10.80394,93.49432 -11.72794,87.37132 L -24.72794,99.37132 M 39.27206,89.37132 C 40.87206,96.24432 43.86606,98.70132 50.27206,101.37132 C 48.53406,95.35332 45.70506,90.67332 39.27206,89.37132 M 36.27206,91.37132 C 33.97806,97.32832 31.72606,103.45232 35.27206,109.37132 C 38.11706,103.70932 40.88206,96.67832 36.27206,91.37132 M -10.72794,93.37132 L -11.72794,104.37132 C -8.15394,101.03232 -7.59394,97.25732 -10.72794,93.37132 M -37.72794,115.37132 C -29.62594,112.73632 -21.18894,110.34632 -15.72794,103.37132 C -24.89094,105.09732 -32.70494,106.75832 -37.72794,115.37132 M 41.27206,103.37132 C 41.95606,111.20532 45.55006,115.50132 52.27206,119.37132 C 52.03206,111.98632 47.06306,107.45132 41.27206,103.37132 M 46.27206,104.37132 C 50.78106,110.76732 55.95306,113.98532 63.27206,116.37132 C 59.41906,109.72332 53.87306,105.68432 46.27206,104.37132 M -2.72794,107.37132 L 2.27206,124.37132 L 3.27206,124.37132 L 3.27206,107.37132 L -2.72794,107.37132 M 5.27206,107.37132 L 5.27206,124.37132 L 10.27206,124.37132 L 10.27206,107.37132 L 5.27206,107.37132 M 12.27206,107.37132 L 12.27206,124.37132 L 17.27206,124.37132 L 17.27206,107.37132 L 12.27206,107.37132 M 19.27206,107.37132 L 19.27206,124.37132 L 20.27206,124.37132 L 26.27206,107.37132 L 19.27206,107.37132 M 39.27206,107.37132 C 36.99306,114.56332 37.12206,120.23832 43.27206,125.37132 L 39.27206,107.37132 M -26.72794,118.37132 L -16.72794,108.37132 C -21.81594,110.29732 -26.26794,112.58232 -26.72794,118.37132 M -17.72794,124.37132 C -13.55894,120.89232 -11.38194,116.77132 -12.72794,111.37132 C -18.14294,114.40932 -17.72694,118.70032 -17.72794,124.37132 z"
       style="fill:#ffffff;stroke:none" />
    <path
       id="path2537"
       d="M -67.72794,130.37132 C -64.09194,138.41132 -56.94794,139.71732 -48.72794,140.37132 L -48.72794,141.37132 C -53.42794,141.37132 -59.60894,140.27432 -62.72794,144.37132 L -47.72794,143.37132 L -57.72794,149.37132 L -57.72794,151.37132 L -48.72794,157.37132 C -43.83694,137.02532 -25.81294,153.58132 -17.72794,142.37132 C -34.39494,137.07732 -31.89994,135.04732 -25.72794,120.37132 C -36.36394,118.51732 -37.38094,130.73532 -46.72794,133.83332 C -53.60394,136.11332 -60.75594,130.53532 -67.72794,130.37132 M 51.27206,121.37132 C 57.44406,136.04732 59.93906,138.07732 43.27206,143.37132 C 51.36806,154.59632 69.37706,138.00832 74.27206,158.37132 L 83.27206,152.37132 L 83.27206,150.37132 L 73.27206,144.37132 L 88.27206,145.37132 C 85.15306,141.27432 78.97206,142.37132 74.27206,142.37132 L 74.27206,141.37132 C 82.49206,140.71732 89.63606,139.41132 93.27206,131.37132 C 86.30006,131.53532 79.14806,137.11332 72.27206,134.83332 C 62.92506,131.73532 61.90806,119.51732 51.27206,121.37132 M 6.27206,128.90032 C -14.17194,133.62532 0.58406,152.46732 16.27206,148.84232 C 36.71606,144.11732 21.96006,125.27532 6.27206,128.90032 M -72.72794,131.37132 L -74.72794,136.37132 L -68.72794,136.37132 L -72.72794,131.37132 M 97.27206,132.37132 L 94.27206,137.37132 L 100.27206,137.37132 L 97.27206,132.37132 M -74.72794,148.37132 C -70.43294,148.28832 -67.13894,146.54332 -65.72794,142.37132 C -70.58594,142.53032 -72.88994,143.78032 -74.72794,148.37132 M -16.72794,153.37132 C -7.34994,148.91032 -17.80794,139.04232 -16.72794,153.37132 M 91.27206,143.37132 C 92.68306,147.54332 95.97706,149.28832 100.27206,149.37132 C 98.43406,144.78032 96.13006,143.53032 91.27206,143.37132 M 42.27206,154.37132 C 43.35206,140.04232 32.89406,149.91032 42.27206,154.37132 z"
       style="fill:#ebbd39;stroke:none" />
    <path
       id="path2539"
       d="M 20.27206,150.37132 L 21.27206,171.37132 C 25.54306,172.36132 26.41306,178.00432 29.01306,181.23232 C 34.34506,187.85232 44.02506,192.05132 52.27206,189.37132 C 44.46106,201.41832 27.01106,180.77032 23.27206,174.37132 L 22.27206,174.37132 C 23.35606,182.75732 26.71206,191.89632 34.27606,196.62932 C 45.75206,203.80932 60.18506,194.72432 61.27206,182.37132 C 57.57306,183.05832 54.03606,183.36732 50.27206,183.37132 C 29.00206,183.39632 30.52806,163.07732 20.27206,150.37132 M 2.27206,151.37132 C -0.86894,174.69932 -15.12094,185.22832 -37.72794,182.37132 C -35.45194,197.49232 -18.87994,203.42132 -7.01394,193.73432 C -0.44094,188.36732 1.20506,181.46432 1.27206,173.37132 L 0.27206,173.37132 C -3.97594,182.47032 -13.19594,196.51632 -24.72794,190.37132 C -5.22994,189.11332 4.12106,169.60932 4.27206,151.37132 L 2.27206,151.37132 M 16.27206,151.37132 L 13.27206,152.37132 L 13.27206,209.37132 L 11.27206,209.37132 L 11.27206,152.37132 L 6.27206,152.37132 C 5.48006,170.82532 0.04706,188.81032 0.27606,207.37132 C 0.35206,213.56832 3.84406,225.17032 10.45706,227.58532 C 18.97906,230.69632 22.91706,216.06732 23.83206,210.37132 C 25.94206,197.24132 21.49706,182.31732 19.35206,169.37132 C 18.41306,163.70032 18.47006,156.59832 16.27206,151.37132 z"
       style="fill:#ffffff;stroke:none" />
    <path
       id="path2541"
       d="M 11.27206,152.37132 L 11.27206,209.37132 L 13.27206,209.37132 L 13.27206,152.37132 L 11.27206,152.37132 z"
       style="fill:#808080;stroke:none" />
    <path
       id="path2543"
       d="M -61.72794,163.37132 L -56.72794,156.37132 C -61.08994,157.09932 -61.59094,159.19532 -61.72794,163.37132 M 82.27206,157.37132 L 87.27206,164.37132 C 87.13506,160.19532 86.63406,158.09932 82.27206,157.37132 z"
       style="fill:#ebbd39;stroke:none" />
    <path
       id="path2545"
       d="M 1.27206,167.37132 C -4.21994,180.11632 -10.70894,188.79032 -24.72794,190.37132 C -14.13794,198.39432 4.89806,177.85032 1.27206,167.37132 M 22.27206,170.37132 C 21.32906,179.00132 32.41106,189.23232 40.27206,191.34332 C 44.09706,192.37032 51.21906,194.28332 52.27206,189.37132 C 36.18206,193.06932 31.47606,179.47732 22.27206,170.37132 z"
       style="fill:#808080;stroke:none" />
    <path
       id="path2547"
       d="M 1.27206,171.37132 L 2.27206,172.37132 L 1.27206,171.37132 z"
       style="fill:#ffffff;stroke:none" />
    <path
       id="path2549"
       d="M -1.72794,190.37132 L -9.72794,205.37132 C -4.94194,203.73632 -0.12694,195.29232 -1.72794,190.37132 z"
       style="fill:#808080;stroke:none" />
    <path
       id="path2551"
       d="M -3.72794,192.37132 L -2.72794,193.37132 L -3.72794,192.37132 M -4.39494,194.03832 L -4.06094,194.70432 L -4.39494,194.03832 M -5.72794,195.37132 L -15.72794,211.37132 C -5.11194,213.77332 -1.84494,204.14832 -1.72794,195.37132 L -2.72794,195.37132 L -9.72794,205.37132 L -5.72794,195.37132 M 25.27206,195.37132 C 26.37306,203.50532 30.51106,213.63532 40.27206,212.37132 C 38.44106,206.01732 35.44806,199.32132 29.27206,196.37132 L 36.27206,208.37132 L 25.27206,195.37132 z"
       style="fill:#ffffff;stroke:none" />
    <path
       id="path2553"
       d="M 26.27206,195.37132 L 36.27206,208.37132 C 34.55506,203.19432 31.12506,197.98632 26.27206,195.37132 z"
       style="fill:#808080;stroke:none" />
  </g>
</svg>
