<?xml version="1.0" encoding="UTF-8" standalone="no"?>
<!-- Created with Inkscape (http://www.inkscape.org/) -->
<svg
   xmlns:svg="http://www.w3.org/2000/svg"
   xmlns="http://www.w3.org/2000/svg"
   version="1.0"
   width="750"
   height="499.99997"
   id="svg2398">
  <defs
     id="defs2400" />
  <g
     transform="translate(309.28571,-219.50505)"
     id="layer1">
    <g
       transform="translate(-309.28571,219.50505)"
       id="g2388">
      <rect
         width="750"
         height="499.99997"
         x="2.0152306e-08"
         y="3.2235622e-08"
         id="rect559"
         style="font-size:12px;fill:#0f47af;fill-opacity:1;fill-rule:evenodd;stroke-width:1pt" />
      <path
         d="M 176.88037,-98.47492 L 203.00085,-16.055639 L 289.45791,-16.682545 L 219.14419,33.628459 L 246.45712,115.66029 L 176.88037,64.334921 L 107.30362,115.66029 L 134.61655,33.62846 L 64.30283,-16.682551 L 150.75989,-16.055639 L 176.88037,-98.47492 z"
         transform="matrix(0.4067668,0,0,0.4067668,36.844938,135.24808)"
         id="path2423"
         style="fill:#ffffff;fill-opacity:1;fill-rule:evenodd;stroke:none;stroke-width:1;stroke-linecap:butt;stroke-linejoin:miter;marker:none;marker-start:none;marker-mid:none;marker-end:none;stroke-miterlimit:2.61310005;stroke-dasharray:none;stroke-dashoffset:0;stroke-opacity:1;visibility:visible;display:inline;overflow:visible;enable-background:accumulate" />
      <path
         d="M 176.88037,-98.47492 L 203.00085,-16.055639 L 289.45791,-16.682545 L 219.14419,33.628459 L 246.45712,115.66029 L 176.88037,64.334921 L 107.30362,115.66029 L 134.61655,33.62846 L 64.30283,-16.682551 L 150.75989,-16.055639 L 176.88037,-98.47492 z"
         transform="matrix(0.4067668,0,0,0.4067668,36.844938,384.73109)"
         id="path3204"
         style="fill:#ffffff;fill-opacity:1;fill-rule:evenodd;stroke:none;stroke-width:1;stroke-linecap:butt;stroke-linejoin:miter;marker:none;marker-start:none;marker-mid:none;marker-end:none;stroke-miterlimit:2.61310005;stroke-dasharray:none;stroke-dashoffset:0;stroke-opacity:1;visibility:visible;display:inline;overflow:visible;enable-background:accumulate" />
      <path
         d="M 176.88037,-98.47492 L 203.00085,-16.055639 L 289.45791,-16.682545 L 219.14419,33.628459 L 246.45712,115.66029 L 176.88037,64.334921 L 107.30362,115.66029 L 134.61655,33.62846 L 64.30283,-16.682551 L 150.75989,-16.055639 L 176.88037,-98.47492 z"
         transform="matrix(0.4067668,0,0,0.4067668,125.21238,259.98959)"
         id="path3206"
         style="fill:#ffffff;fill-opacity:1;fill-rule:evenodd;stroke:none;stroke-width:1;stroke-linecap:butt;stroke-linejoin:miter;marker:none;marker-start:none;marker-mid:none;marker-end:none;stroke-miterlimit:2.61310005;stroke-dasharray:none;stroke-dashoffset:0;stroke-opacity:1;visibility:visible;display:inline;overflow:visible;enable-background:accumulate" />
      <path
         d="M 176.88037,-98.47492 L 203.00085,-16.055639 L 289.45791,-16.682545 L 219.14419,33.628459 L 246.45712,115.66029 L 176.88037,64.334921 L 107.30362,115.66029 L 134.61655,33.62846 L 64.30283,-16.682551 L 150.75989,-16.055639 L 176.88037,-98.47492 z"
         transform="matrix(0.4067668,0,0,0.4067668,272.33833,216.52883)"
         id="path3208"
         style="fill:#ffffff;fill-opacity:1;fill-rule:evenodd;stroke:none;stroke-width:1;stroke-linecap:butt;stroke-linejoin:miter;marker:none;marker-start:none;marker-mid:none;marker-end:none;stroke-miterlimit:2.61310005;stroke-dasharray:none;stroke-dashoffset:0;stroke-opacity:1;visibility:visible;display:inline;overflow:visible;enable-background:accumulate" />
      <path
         d="M 176.88037,-98.47492 L 203.00085,-16.055639 L 289.45791,-16.682545 L 219.14419,33.628459 L 246.45712,115.66029 L 176.88037,64.334921 L 107.30362,115.66029 L 134.61655,33.62846 L 64.30283,-16.682551 L 150.75989,-16.055639 L 176.88037,-98.47492 z"
         transform="matrix(0.4067668,0,0,0.4067668,392.70578,311.82218)"
         id="path3210"
         style="fill:#ffffff;fill-opacity:1;fill-rule:evenodd;stroke:none;stroke-width:1;stroke-linecap:butt;stroke-linejoin:miter;marker:none;marker-start:none;marker-mid:none;marker-end:none;stroke-miterlimit:2.61310005;stroke-dasharray:none;stroke-dashoffset:0;stroke-opacity:1;visibility:visible;display:inline;overflow:visible;enable-background:accumulate" />
      <path
         d="M 176.88037,-98.47492 L 203.00085,-16.055639 L 289.45791,-16.682545 L 219.14419,33.628459 L 246.45712,115.66029 L 176.88037,64.334921 L 107.30362,115.66029 L 134.61655,33.62846 L 64.30283,-16.682551 L 150.75989,-16.055639 L 176.88037,-98.47492 z"
         transform="matrix(0.4067668,0,0,0.4067668,480.98133,210.0503)"
         id="path3212"
         style="fill:#ffffff;fill-opacity:1;fill-rule:evenodd;stroke:none;stroke-width:1;stroke-linecap:butt;stroke-linejoin:miter;marker:none;marker-start:none;marker-mid:none;marker-end:none;stroke-miterlimit:2.61310005;stroke-dasharray:none;stroke-dashoffset:0;stroke-opacity:1;visibility:visible;display:inline;overflow:visible;enable-background:accumulate" />
      <path
         d="M 176.88037,-98.47492 L 203.00085,-16.055639 L 289.45791,-16.682545 L 219.14419,33.628459 L 246.45712,115.66029 L 176.88037,64.334921 L 107.30362,115.66029 L 134.61655,33.62846 L 64.30283,-16.682551 L 150.75989,-16.055639 L 176.88037,-98.47492 z"
         transform="matrix(0.4067668,0,0,0.4067668,569.25694,108.27844)"
         id="path3214"
         style="fill:#ffffff;fill-opacity:1;fill-rule:evenodd;stroke:none;stroke-width:1;stroke-linecap:butt;stroke-linejoin:miter;marker:none;marker-start:none;marker-mid:none;marker-end:none;stroke-miterlimit:2.61310005;stroke-dasharray:none;stroke-dashoffset:0;stroke-opacity:1;visibility:visible;display:inline;overflow:visible;enable-background:accumulate" />
    </g>
  </g>
</svg>
