<?xml version="1.0" encoding="UTF-8" standalone="no"?>
<!-- Created with Inkscape (http://www.inkscape.org/) -->
<svg
   xmlns:dc="http://purl.org/dc/elements/1.1/"
   xmlns:cc="http://web.resource.org/cc/"
   xmlns:rdf="http://www.w3.org/1999/02/22-rdf-syntax-ns#"
   xmlns:svg="http://www.w3.org/2000/svg"
   xmlns="http://www.w3.org/2000/svg"
   xmlns:xlink="http://www.w3.org/1999/xlink"
   xmlns:sodipodi="http://sodipodi.sourceforge.net/DTD/sodipodi-0.dtd"
   xmlns:inkscape="http://www.inkscape.org/namespaces/inkscape"
   width="900"
   height="600"
   id="svg2263"
   sodipodi:version="0.32"
   inkscape:version="0.45.1"
   version="1.0"
   sodipodi:docbase="C:\Users\Daniel\Documents\freeciv"
   sodipodi:docname="aba.svg"
   inkscape:output_extension="org.inkscape.output.svg.inkscape">
  <defs
     id="defs2265" />
  <sodipodi:namedview
     id="base"
     pagecolor="#ffffff"
     bordercolor="#666666"
     borderopacity="1.0"
     gridtolerance="10000"
     guidetolerance="10"
     objecttolerance="10"
     inkscape:pageopacity="0.0"
     inkscape:pageshadow="2"
     inkscape:zoom="1.1566667"
     inkscape:cx="450"
     inkscape:cy="300"
     inkscape:document-units="px"
     inkscape:current-layer="layer1"
     width="900px"
     height="600px"
     inkscape:window-width="1242"
     inkscape:window-height="894"
     inkscape:window-x="18"
     inkscape:window-y="58"
     showguides="true"
     inkscape:guide-bbox="true">
    <sodipodi:guide
       orientation="vertical"
       position="320.74928"
       id="guide3386" />
    <sodipodi:guide
       orientation="vertical"
       position="583.57349"
       id="guide3388" />
    <sodipodi:guide
       orientation="horizontal"
       position="429.683"
       id="guide3390" />
    <sodipodi:guide
       orientation="horizontal"
       position="167.72334"
       id="guide3392" />
  </sodipodi:namedview>
  <metadata
     id="metadata2268">
    <rdf:RDF>
      <cc:Work
         rdf:about="">
        <dc:format>image/svg+xml</dc:format>
        <dc:type
           rdf:resource="http://purl.org/dc/dcmitype/StillImage" />
      </cc:Work>
    </rdf:RDF>
  </metadata>
  <g
     inkscape:label="Layer 1"
     inkscape:groupmode="layer"
     id="layer1">
    <rect
       style="fill:#0038a8;fill-opacity:1;stroke:none"
       id="rect2319"
       width="900"
       height="200"
       x="0"
       y="400" />
    <rect
       y="200"
       x="0"
       height="200"
       width="900"
       id="rect2321"
       style="fill:#ffffff;fill-opacity:1;stroke:none" />
    <rect
       y="0"
       x="0"
       height="200"
       width="900"
       id="rect2325"
       style="fill:#ce1126;fill-opacity:1;stroke:none" />
    <path
       sodipodi:type="arc"
       style="fill:none;fill-opacity:1;stroke:#000000;stroke-width:16;stroke-miterlimit:4;stroke-dasharray:none;stroke-opacity:1"
       id="path2327"
       sodipodi:cx="472.91068"
       sodipodi:cy="338.90491"
       sodipodi:rx="197.98271"
       sodipodi:ry="197.98271"
       d="M 670.89339 338.90491 A 197.98271 197.98271 0 1 1  274.92796,338.90491 A 197.98271 197.98271 0 1 1  670.89339 338.90491 z"
       transform="translate(-22.910675,-38.904907)" />
    <path
       sodipodi:type="arc"
       style="fill:none;fill-opacity:1;stroke:#000000;stroke-width:16;stroke-miterlimit:4;stroke-dasharray:none;stroke-opacity:1"
       id="path3298"
       sodipodi:cx="513.54468"
       sodipodi:cy="349.27954"
       sodipodi:rx="62.247837"
       sodipodi:ry="62.247837"
       d="M 575.79251 349.27954 A 62.247837 62.247837 0 1 1  451.29684,349.27954 A 62.247837 62.247837 0 1 1  575.79251 349.27954 z"
       transform="translate(-63.544678,-49.279541)" />
    <path
       sodipodi:type="arc"
       style="fill:#000000;fill-opacity:1;stroke:#000000;stroke-width:10;stroke-miterlimit:4;stroke-dasharray:none;stroke-opacity:1"
       id="path3300"
       sodipodi:cx="482.42075"
       sodipodi:cy="357.06052"
       sodipodi:rx="26.801153"
       sodipodi:ry="26.801153"
       d="M 509.2219 357.06052 A 26.801153 26.801153 0 1 1  455.61959,357.06052 A 26.801153 26.801153 0 1 1  509.2219 357.06052 z"
       transform="translate(-32.420746,-57.060516)" />
    <g
       id="g3306"
       transform="translate(-28.377002,-28.530267)">
      <rect
         y="320.7493"
         x="341.49857"
         height="15.561959"
         width="67.435158"
         id="rect3302"
         style="fill:#000000;fill-opacity:1;stroke:#000000;stroke-width:10;stroke-miterlimit:4;stroke-dasharray:none;stroke-opacity:1" />
      <path
         sodipodi:type="arc"
         style="fill:#000000;fill-opacity:1;stroke:#000000;stroke-width:10;stroke-miterlimit:4;stroke-dasharray:none;stroke-opacity:1"
         id="path3304"
         sodipodi:cx="482.42075"
         sodipodi:cy="357.06052"
         sodipodi:rx="26.801153"
         sodipodi:ry="26.801153"
         d="M 509.2219 357.06052 A 26.801153 26.801153 0 1 1  455.61959,357.06052 A 26.801153 26.801153 0 1 1  509.2219 357.06052 z"
         transform="translate(-144.43226,-28.530249)" />
    </g>
    <use
       x="0"
       y="0"
       xlink:href="#g3306"
       id="use3310"
       transform="matrix(-1,0,0,1,900,-3.5742187e-7)"
       width="900"
       height="600" />
    <use
       x="0"
       y="0"
       xlink:href="#g3306"
       id="use3314"
       transform="matrix(0,-1,1,0,150,751.46745)"
       width="900"
       height="600" />
    <use
       x="0"
       y="0"
       xlink:href="#g3306"
       id="use3316"
       transform="matrix(0,1,-1,0,750,-151.46744)"
       width="900"
       height="600" />
    <use
       x="0"
       y="0"
       xlink:href="#g3306"
       id="use3318"
       transform="matrix(0.7071068,0.7071068,-0.7071068,0.7071068,344.92997,-228.94631)"
       width="900"
       height="600" />
    <use
       x="0"
       y="0"
       xlink:href="#g3306"
       id="use3320"
       transform="matrix(-0.7071068,0.7071068,-0.7071068,-0.7071068,982.83679,196.61589)"
       width="900"
       height="600" />
    <use
       x="0"
       y="0"
       xlink:href="#g3306"
       id="use3322"
       transform="matrix(-0.7071068,-0.7071068,0.7071068,-0.7071068,559.02107,831.94875)"
       width="900"
       height="600" />
    <use
       x="0"
       y="0"
       xlink:href="#g3306"
       id="use3324"
       transform="matrix(0.7071068,-0.7071068,0.7071068,0.7071068,-78.514025,406.72868)"
       width="900"
       height="600" />
  </g>
</svg>
