<?xml version="1.0" encoding="UTF-8" standalone="no"?>
<!-- Created with Sodipodi ("http://www.sodipodi.com/") -->
<svg
   xmlns:dc="http://purl.org/dc/elements/1.1/"
   xmlns:cc="http://web.resource.org/cc/"
   xmlns:rdf="http://www.w3.org/1999/02/22-rdf-syntax-ns#"
   xmlns:svg="http://www.w3.org/2000/svg"
   xmlns="http://www.w3.org/2000/svg"
   xmlns:sodipodi="http://sodipodi.sourceforge.net/DTD/sodipodi-0.dtd"
   xmlns:inkscape="http://www.inkscape.org/namespaces/inkscape"
   height="500"
   id="svg548"
   sodipodi:docbase="C:\freeciv"
   sodipodi:docname="hawaii.svg"
   sodipodi:version="0.32"
   width="750"
   inkscape:version="0.44"
   version="1.0">
  <metadata
     id="metadata3">
    <rdf:RDF>
      <cc:Work
         rdf:about="">
        <dc:title>Clipart by Rob Adams - United States - Hawaii</dc:title>
        <dc:description />
        <dc:subject>
          <rdf:Bag>
            <rdf:li />
            <rdf:li>0xa0e994c</rdf:li>
            <rdf:li>america</rdf:li>
            <rdf:li>flag</rdf:li>
            <rdf:li>unitedstates</rdf:li>
            <rdf:li>north_america</rdf:li>
            <rdf:li>sign</rdf:li>
          </rdf:Bag>
        </dc:subject>
        <dc:publisher>
          <cc:Agent
             rdf:about="http://www.openclipart.org">
            <dc:title>Rob Adams</dc:title>
          </cc:Agent>
        </dc:publisher>
        <dc:creator>
          <cc:Agent>
            <dc:title>Rob Adams</dc:title>
          </cc:Agent>
        </dc:creator>
        <dc:rights>
          <cc:Agent>
            <dc:title>Rob Adams</dc:title>
          </cc:Agent>
        </dc:rights>
        <dc:date />
        <dc:format>image/svg+xml</dc:format>
        <dc:type
           rdf:resource="http://purl.org/dc/dcmitype/StillImage" />
        <cc:license
           rdf:resource="http://web.resource.org/cc/PublicDomain" />
        <dc:language>en</dc:language>
      </cc:Work>
      <cc:License
         rdf:about="http://web.resource.org/cc/PublicDomain">
        <cc:permits
           rdf:resource="http://web.resource.org/cc/Reproduction" />
        <cc:permits
           rdf:resource="http://web.resource.org/cc/Distribution" />
        <cc:permits
           rdf:resource="http://web.resource.org/cc/DerivativeWorks" />
      </cc:License>
    </rdf:RDF>
  </metadata>
  <defs
     id="defs550" />
  <sodipodi:namedview
     id="base"
     width="750px"
     inkscape:zoom="1.34"
     inkscape:cx="375"
     inkscape:cy="321.06708"
     inkscape:window-width="1284"
     inkscape:window-height="663"
     inkscape:window-x="-158"
     inkscape:window-y="299"
     inkscape:current-layer="svg548" />
  <rect
     y="0"
     x="0"
     width="750"
     style="font-size:12px;fill:white;fill-opacity:1;fill-rule:evenodd;stroke-width:1pt"
     id="rect615"
     height="500" />
  <rect
     y="62.499763"
     x="0"
     width="749.99719"
     style="font-size:12px;fill:#cf142b;fill-rule:evenodd;stroke-width:1pt;fill-opacity:1"
     id="rect551"
     height="62.499763" />
  <rect
     y="124.99959"
     x="0"
     width="749.99719"
     style="font-size:12px;fill:#00247d;fill-rule:evenodd;stroke-width:1pt;fill-opacity:1"
     id="rect552"
     height="62.499763" />
  <rect
     y="249.99905"
     x="0"
     width="749.99719"
     style="font-size:12px;fill:#cf142b;fill-rule:evenodd;stroke-width:1pt;fill-opacity:1"
     id="rect554"
     height="62.499763" />
  <rect
     y="312.49881"
     x="0"
     width="749.99719"
     style="font-size:12px;fill:#00247d;fill-rule:evenodd;stroke-width:1pt;fill-opacity:1"
     id="rect555"
     height="62.499763" />
  <rect
     y="437.49832"
     x="0"
     width="749.99719"
     style="font-size:12px;fill:#cf142b;fill-opacity:1;fill-rule:evenodd;stroke-width:1pt"
     id="rect556"
     height="62.499763" />
  <g
     id="g1906"
     transform="scale(1.138707,1)">
    <rect
       height="250.2"
       id="rect124"
       style="font-size:12px;fill:#00247d;fill-opacity:1;stroke-width:1pt"
       width="328.19064"
       x="0"
       y="0" />
    <path
       style="font-size:12px;fill:white;stroke-width:1pt"
       id="path146"
       d="M 0,0 L 0,27.973194 L 291.49783,250.2 L 328.19064,250.2 L 328.19064,222.22681 L 36.692808,0 L 0,0 z M 328.19064,0 L 328.19064,27.972777 L 36.692808,250.2 L 0,250.2 L 0,222.22597 L 291.49783,0 L 328.19064,0 z " />
    <path
       style="font-size:12px;fill:white;stroke-width:1pt"
       id="path136"
       d="M 136.7461,0 L 136.7461,250.2 L 191.44454,250.2 L 191.44454,0 L 136.7461,0 z M 0,83.4 L 0,166.8 L 328.19064,166.8 L 328.19064,83.4 L 0,83.4 z " />
    <path
       style="font-size:12px;fill:#cf142b;fill-opacity:1;stroke-width:1pt"
       id="path141"
       d="M 0,100.08 L 0,150.12 L 328.19064,150.12 L 328.19064,100.08 L 0,100.08 z M 147.68579,0 L 147.68579,250.2 L 180.50485,250.2 L 180.50485,0 L 147.68579,0 z " />
    <path
       style="font-size:12px;fill:#cf142b;fill-opacity:1;stroke-width:1pt"
       id="path150"
       d="M 0,250.2 L 109.39688,166.8 L 133.85857,166.8 L 24.461908,250.2 L 0,250.2 z M 0,0 L 109.39688,83.4 L 84.935191,83.4 L 0,18.648824 L 0,0 z M 194.33207,83.4 L 303.72895,0 L 328.19064,0 L 218.79376,83.4 L 194.33207,83.4 z M 328.19064,250.2 L 218.79376,166.8 L 243.25545,166.8 L 328.19064,231.55093 L 328.19064,250.2 z " />
  </g>
</svg>
