<?xml version="1.0" encoding="UTF-8" standalone="no"?>
<svg
   xmlns:dc="http://purl.org/dc/elements/1.1/"
   xmlns:cc="http://creativecommons.org/ns#"
   xmlns:rdf="http://www.w3.org/1999/02/22-rdf-syntax-ns#"
   xmlns:svg="http://www.w3.org/2000/svg"
   xmlns="http://www.w3.org/2000/svg"
   xmlns:sodipodi="http://sodipodi.sourceforge.net/DTD/sodipodi-0.dtd"
   xmlns:inkscape="http://www.inkscape.org/namespaces/inkscape"
   width="900"
   height="600">
  <rect
     fill="#fa000b"
     width="900"
     height="600"/>
  <g
     transform="matrix(0.10262495,0,0,-0.10133349,140.60748,697.62327)"
     fill=":#ffffff"
     id="g6">
    <path
       d="m 4674.56,2710.82 c 6.07,12.45 17.12,25.04 28.56,32.86 12.2,8.33 28.95,14.19 43.63,15.83 16.35,1.82 35.77,-0.77 51.32,-6.17 17.65,-6.13 36.41,-17.79 50.23,-30.38 15.75,-14.34 30.5,-34.6 39.97,-53.69 10.74,-21.66 18.37,-48.95 21.1,-72.98 3.07,-27.06 1.06,-58.83 -4.78,-85.44 -6.52,-29.71 -19.82,-62.6 -35.25,-88.82 -17.08,-29.03 -42.17,-59.2 -67.2,-81.74 -27.51,-24.77 -63.63,-48.24 -97.21,-63.83 -36.64,-17.01 -81.77,-30.08 -121.76,-35.8 -43.38,-6.21 -94.31,-5.82 -137.66,0.54 -46.77,6.85 -99.34,22.72 -142.31,42.42 -46.12,21.14 -95.56,53.21 -134.01,86.32 -41.09,35.39 -82.41,82.9 -112.17,128.24 -31.69,48.27 -60.14,108.95 -77.43,164.04 -18.35,58.45 -29.86,128.6 -31.64,189.83 -1.88,64.77 6.48,139.48 22.18,202.34 16.55,66.29 46.28,139.78 80.06,199.18 35.54,62.47 86.41,128.54 137.4,179.2 53.52,53.16 123.5,105.68 189.28,142.6 68.88,38.67 154.17,72.12 230.87,91.03 80.16,19.76 175.38,29.74 257.9,27.47 86.1,-2.36 184.63,-18.7 267.02,-43.82 85.8,-26.16 180.23,-69.75 256.04,-117.7 78.84,-49.86 161.55,-119.55 224.4,-188.48 65.26,-71.58 128.98,-164.05 173.03,-250.31 45.68,-89.45 84.14,-199.37 104.62,-297.7 21.22,-101.84 29.66,-222.15 23.32,-325.98 -6.57,-107.42 -30.88,-229.78 -65.46,-331.69 -35.74,-105.3 -93.21,-220.7 -155.35,-312.92 -64.15,-95.2 -152.67,-194.56 -239.56,-269.58 -89.61,-77.37 -204.58,-152.31 -311.34,-203.47 -110.01,-52.71 -244.56,-96.17 -364.53,-118.21 -123.52,-22.7 -268.91,-29.6 -394.06,-19.15 -128.73,10.74 -274.93,43.04 -396.36,87.1 -124.81,45.28 -261.17,116.63 -369.79,192.99 -111.57,78.42 -227.59,185.77 -314.77,290.63 -89.49,107.64 -175.65,245.1 -233.9,372.38 -59.75,130.55 -108.23,289.74 -131.82,431.36 -21.52,112.76 -63.32,239.1 -113.68,342.26 -48.79,99.93 -119.99,207.39 -193.33,290.99 -70.96,80.91 -164.77,163.14 -254.51,222.54 -86.76,57.41 -195.16,110.25 -293.97,142.8 -95.4,31.42 -209.82,53.08 -310.13,58.24 -96.73,4.98 -208.67,-3.97 -303.29,-24.7 -91.11,-19.96 -192.82,-56.74 -275.42,-100.09 -79.43,-41.67 -164.4,-101.66 -229.962,-162.89 -62.947,-58.78 -126.361,-135.94 -171.454,-209.33 -43.223,-70.34 -82.195,-157.79 -105.159,-237.09 -21.973,-75.87 -35.653,-166.46 -36.606,-245.45 -0.91,-75.43 9.579,-162.29 28.864,-235.22 18.376,-69.49 50.154,-146.57 86.492,-208.59 34.544,-58.96 83.324,-121.45 132.461,-168.93 46.592,-45.02 107.114,-89.62 164.134,-120.37 53.92,-29.08 120.43,-54.19 180.23,-67.52 56.35,-12.57 123.13,-18.28 180.77,-14.97 54.15,3.11 115.95,15.14 167.15,33.03 47.9,16.74 100.39,43.52 141.76,72.9 38.54,27.36 78.57,64.95 107.89,102.03 27.19,34.36 52.99,78.27 69.3,118.94 15.03,37.5 26.29,83.12 29.87,123.35 3.29,36.88 1.02,79.9 -6.67,116.11 -7,32.94 -20.59,69.76 -37.19,99.07 -14.99,26.46 -36.83,54.43 -59.3,74.93 -20.12,18.36 -46.62,35.99 -71.6,46.86 -22.17,9.65 -49.62,16.69 -73.76,18.21 -21.26,1.35 -46.18,-1.29 -66.48,-7.76 -17.8,-5.68 -37.29,-16.09 -51.42,-28.32 -12.44,-10.76 -24.4,-26.28 -31,-41.35 -5.92,-13.53 -9.22,-30.97 -8.1,-45.7 1.04,-13.82 6.42,-29.68 14.17,-41.17 7.75,-11.49 13.13,-27.35 14.18,-41.17 1.12,-14.73 -2.18,-32.17 -8.1,-45.7 -6.6,-15.07 -18.56,-30.59 -31,-41.36 -14.13,-12.22 -33.62,-22.64 -51.43,-28.31 -20.29,-6.47 -45.21,-9.11 -66.48,-7.77 -24.13,1.53 -51.58,8.57 -73.75,18.22 -24.98,10.87 -51.48,28.5 -71.6,46.86 -22.47,20.5 -44.31,48.46 -59.3,74.93 -16.6,29.31 -30.19,66.12 -37.19,99.07 -7.7,36.21 -9.96,79.23 -6.68,116.1 3.59,40.24 14.84,85.86 29.88,123.35 16.31,40.67 42.11,84.58 69.3,118.95 29.32,37.07 69.35,74.67 107.89,102.03 41.37,29.38 93.86,56.16 141.76,72.9 51.2,17.89 113,29.91 167.15,33.02 57.64,3.31 124.42,-2.39 180.77,-14.96 59.79,-13.34 126.31,-38.44 180.22,-67.52 57.03,-30.75 117.55,-75.35 164.14,-120.37 49.14,-47.49 97.92,-109.98 132.46,-168.93 36.34,-62.02 68.12,-139.1 86.5,-208.59 19.28,-72.93 29.77,-159.79 28.86,-235.22 -0.95,-78.99 -14.63,-169.58 -36.61,-245.45 -22.96,-79.31 -61.93,-166.76 -105.16,-237.1 -45.09,-73.38 -108.5,-150.54 -171.45,-209.33 -65.56,-61.22 -150.53,-121.21 -229.96,-162.89 -82.6,-43.34 -184.31,-80.12 -275.43,-100.09 -94.61,-20.73 -206.55,-29.68 -303.29,-24.7 -100.31,5.17 -214.72,26.82 -310.12,58.25 -98.809,32.55 -207.216,85.39 -293.967,142.8 -89.742,59.39 -183.554,141.63 -254.519,222.53 -73.331,83.6 -144.531,191.07 -193.323,291 -50.367,103.16 -92.161,229.49 -113.686,342.25 -22.198,116.29 -29.613,253.33 -20.536,371.37 9.353,121.62 38.987,259.88 79.886,374.8 42.105,118.31 108.825,247.68 180.444,350.84 73.67,106.1 174.738,216.57 273.611,299.7 101.626,85.45 231.593,167.87 352.03,223.76 123.7,57.4 274.68,104.21 409.09,127.28 137.95,23.68 300.08,29.56 439.43,16.37 142.94,-13.52 305.04,-51.13 439.48,-101.52 108.42,-37.74 238.73,-64.72 353.25,-72.67 110.93,-7.71 239.6,0.21 348.67,21.92 105.54,21.01 223.67,61.13 319.97,109.15 93.1,46.43 193.07,113.89 270.66,183.18 74.91,66.91 150.87,155.17 205.5,239.46 52.68,81.28 100.9,182.7 130.26,275.01 28.27,88.89 47.26,195.36 51.03,288.56 3.62,89.63 -5.84,193.21 -26.09,280.6 -19.44,83.91 -54.55,177.41 -95.55,253.15 -39.31,72.6 -95.56,150.08 -152.75,209.62 -54.73,56.97 -126.34,114.11 -194.27,154.43 -64.87,38.5 -145.34,72.85 -218.13,92.61 -69.37,18.83 -152.02,29.85 -223.9,29.39 -68.33,-0.44 -146.83,-11.44 -212.52,-30.25 -62.29,-17.84 -131.17,-47.95 -186.32,-81.96 -52.14,-32.16 -107.14,-77.21 -148.58,-122.32 -39.07,-42.52 -77.4,-97.5 -103.35,-149.07 -24.38,-48.45 -44.87,-107.99 -54.97,-161.27 -9.46,-49.85 -12.51,-108.7 -7.75,-159.22 4.42,-47.06 16.97,-100.52 34.41,-144.45 16.17,-40.73 41.3,-85.03 68.36,-119.49 24.96,-31.77 58.84,-64.32 91.89,-87.54 30.29,-21.29 68.68,-40.83 103.88,-52.27 32.04,-10.41 70.72,-17.05 104.4,-17.33 30.41,-0.26 65.55,4.68 94.54,13.89 25.96,8.24 54.48,22.38 76.38,38.57 19.45,14.38 39.27,34.63 52.66,54.77 11.79,17.74 21.96,40.64 26.51,61.46 3.99,18.25 4.71,40.34 1.19,58.69 -3.1,16.16 -10.56,34.28 -20.31,47.52 -8.76,11.9 -22.21,23.47 -35.53,29.87 -12.49,6 -28.92,9.27 -42.74,8.31 -13.83,-0.97 -30.25,2.3 -42.74,8.31 -13.32,6.4 -26.77,17.97 -35.53,29.86 -9.76,13.25 -17.22,31.37 -20.32,47.53 -3.51,18.35 -2.79,40.43 1.2,58.69 4.54,20.81 14.71,43.71 26.51,61.46 13.39,20.13 33.21,40.38 52.65,54.76 21.9,16.2 50.42,30.33 76.38,38.58 28.99,9.21 64.13,14.14 94.55,13.89 33.68,-0.28 72.36,-6.92 104.39,-17.33 35.21,-11.44 73.6,-30.99 103.88,-52.27 33.06,-23.23 66.94,-55.78 91.89,-87.55 27.07,-34.46 52.19,-78.76 68.36,-119.48 17.45,-43.94 29.99,-97.4 34.42,-144.46 4.75,-50.52 1.7,-109.36 -7.75,-159.22 -10.11,-53.28 -30.59,-112.82 -54.97,-161.26 -25.96,-51.58 -64.29,-106.55 -103.35,-149.07 -41.45,-45.12 -96.44,-90.17 -148.58,-122.32 -55.15,-34.01 -124.03,-64.13 -186.32,-81.96 -65.69,-18.82 -144.2,-29.82 -212.53,-30.25 -71.87,-0.46 -154.52,10.56 -223.89,29.39 -72.8,19.76 -153.27,54.11 -218.14,92.61 -67.93,40.32 -139.54,97.46 -194.26,154.43 -57.2,59.54 -113.45,137.01 -152.75,209.62 -41,75.74 -76.12,169.24 -95.56,253.14 -20.24,87.39 -29.7,190.97 -26.08,280.6 3.76,93.21 22.76,199.68 51.03,288.57 29.35,92.3 77.57,193.73 130.25,275.01 54.63,84.29 130.59,172.55 205.51,239.45 77.59,69.3 177.56,136.76 270.65,183.18 96.31,48.03 214.43,88.15 319.98,109.16 109.06,21.7 237.73,29.63 348.67,21.92 114.52,-7.96 244.83,-34.93 353.24,-72.67 111.81,-38.92 234.2,-101.02 331.88,-167.9 100.66,-68.91 205.57,-163.7 284.65,-256.58 81.41,-95.62 160.08,-218.09 213.61,-331.69 55.06,-116.85 100.19,-259.62 122.75,-386.81 23.18,-130.73 29.58,-284.5 17.76,-416.74 -12.14,-135.84 -47.09,-289.99 -94.31,-417.92 -48.47,-131.32 -124.44,-274.66 -205.54,-388.75 -83.18,-117.03 -196.81,-238.6 -307.66,-329.84 -86.9,-75.02 -175.41,-174.38 -239.56,-269.58 -62.15,-92.22 -119.62,-207.62 -155.35,-312.92 -34.58,-101.91 -58.9,-224.27 -65.46,-331.69 -6.35,-103.83 2.09,-224.14 23.31,-325.98 20.49,-98.33 58.94,-208.25 104.62,-297.7 44.05,-86.26 107.78,-178.73 173.04,-250.31 62.85,-68.93 145.56,-138.62 224.39,-188.48 75.81,-47.95 170.25,-91.54 256.05,-117.7 82.38,-25.12 180.91,-41.46 267.01,-43.82 82.53,-2.27 177.75,7.71 257.91,27.47 76.7,18.91 161.99,52.36 230.87,91.03 65.78,36.92 135.76,89.44 189.27,142.6 50.99,50.66 101.86,116.73 137.4,179.2 33.79,59.4 63.51,132.89 80.07,199.18 15.69,62.86 24.06,137.57 22.18,202.34 -1.78,61.23 -13.3,131.38 -31.64,189.83 -17.3,55.09 -45.74,115.78 -77.43,164.04 -29.77,45.34 -71.08,92.85 -112.18,128.24 -38.44,33.11 -87.88,65.18 -134.01,86.32 -42.96,19.7 -95.54,35.57 -142.3,42.42 -43.36,6.36 -94.29,6.75 -137.66,0.54 -39.99,-5.72 -85.12,-18.79 -121.77,-35.8 -33.57,-15.59 -69.69,-39.06 -97.2,-63.83 -25.04,-22.54 -50.12,-52.71 -67.21,-81.74 -15.43,-26.22 -28.72,-59.11 -35.24,-88.82 -5.84,-26.61 -7.86,-58.38 -4.78,-85.44 2.73,-24.03 10.35,-51.32 21.1,-72.98 9.46,-19.09 24.21,-39.35 39.97,-53.69 13.81,-12.59 32.58,-24.25 50.23,-30.38 15.54,-5.4 34.96,-7.99 51.31,-6.17 14.69,1.64 31.43,7.5 43.63,15.83 11.45,7.82 22.49,20.41 28.57,32.87 z"
       fill="#ffffff" />
  </g>
</svg>
