<?xml version="1.0" encoding="UTF-8" standalone="no"?>
<svg
   xmlns:dc="http://purl.org/dc/elements/1.1/"
   xmlns:cc="http://creativecommons.org/ns#"
   xmlns:rdf="http://www.w3.org/1999/02/22-rdf-syntax-ns#"
   xmlns:svg="http://www.w3.org/2000/svg"
   xmlns="http://www.w3.org/2000/svg"
   xmlns:sodipodi="http://sodipodi.sourceforge.net/DTD/sodipodi-0.dtd"
   xmlns:inkscape="http://www.inkscape.org/namespaces/inkscape"
   width="450"
   height="300"
   id="State service flag of Hesse"
   sodipodi:version="0.32"
   inkscape:version="0.46"
   sodipodi:docname="hesse.svg"
   inkscape:output_extension="org.inkscape.output.svg.inkscape"
   version="1.0">
  <metadata
     id="metadata138">
    <rdf:RDF>
      <cc:Work
         rdf:about="">
        <dc:format>image/svg+xml</dc:format>
        <dc:type
           rdf:resource="http://purl.org/dc/dcmitype/StillImage" />
      </cc:Work>
    </rdf:RDF>
  </metadata>
  <defs
     id="defs136">
    <inkscape:perspective
       sodipodi:type="inkscape:persp3d"
       inkscape:vp_x="0 : 150 : 1"
       inkscape:vp_y="0 : 1000 : 0"
       inkscape:vp_z="500 : 150 : 1"
       inkscape:persp3d-origin="250 : 100 : 1"
       id="perspective140" />
  </defs>
  <sodipodi:namedview
     inkscape:window-height="729"
     inkscape:window-width="1280"
     inkscape:pageshadow="2"
     inkscape:pageopacity="0.0"
     guidetolerance="10.0"
     gridtolerance="10.0"
     objecttolerance="10.0"
     borderopacity="1.0"
     bordercolor="#666666"
     pagecolor="#ffffff"
     id="base"
     showgrid="false"
     inkscape:zoom="1.088"
     inkscape:cx="250"
     inkscape:cy="150"
     inkscape:window-x="0"
     inkscape:window-y="0"
     inkscape:current-layer="State service flag of Hesse" />
  <rect
     height="150"
     width="450"
     x="0"
     y="0"
     id="rect3"
     style="fill:#e10000" />
  <rect
     height="150"
     width="450"
     x="0"
     y="150"
     id="rect5"
     style="fill:#ffffff" />
  <g
     id="g7"
     transform="translate(-24.99963,0)">
    <path
       d="M 189.39014,89.119141 C 190.17627,89.49707 191.88037,90.352539 191.88037,90.863281 C 191.88037,91.189453 191.23779,91.901367 189.29736,91.901367 C 187.61963,91.901367 186.86768,91.382812 186.86768,90.863281 C 186.86768,90.283203 187.99316,89.727539 189.39014,89.119141 M 194.12109,86.884766 C 195.22754,86.25 196.5415,85.383789 197.97852,83.943359 C 199.49854,85.432617 200.77686,86.279297 201.83105,86.884766 C 201.83105,86.884766 201.96436,86.958008 202.13232,87.053711 C 200.29199,87.887695 198.99707,88.726562 198.05957,89.682617 C 197.11377,88.712891 195.78955,87.863281 193.89063,87.007812 C 193.96191,86.967773 194.12109,86.884766 194.12109,86.884766 z M 206.7124,89.272461 C 207.63281,89.692383 209.08594,90.386719 209.08594,90.863281 C 209.08594,91.172852 209.08594,91.90625 206.646,91.90625 C 204.21045,91.90625 204.21045,91.172852 204.21045,90.863281 C 204.21045,90.397461 205.65381,89.738281 206.7124,89.272461 z M 211.46045,86.987305 C 212.50439,86.390625 213.9873,85.427734 215.31738,83.96875 C 216.646,85.427734 218.13574,86.390625 219.16992,86.987305 C 219.16992,86.987305 219.3418,87.083008 219.55322,87.198242 C 217.59814,88.123047 216.20703,89.092773 215.23486,90.193359 C 214.22559,89.136719 212.80469,88.146484 211,87.239258 C 211.21436,87.123047 211.46045,86.987305 211.46045,86.987305 z M 223.92627,89.272461 C 224.98535,89.738281 226.4292,90.397461 226.4292,90.863281 C 226.4292,91.146484 226.4292,91.901367 224.02344,91.901367 C 221.62012,91.901367 221.62012,91.146484 221.62012,90.863281 C 221.62012,90.352539 222.98633,89.702148 223.92627,89.272461 z M 228.86816,86.884766 C 229.92383,86.279297 231.20703,85.432617 232.73145,83.9375 C 234.02539,85.185547 235.19775,86.086914 236.57715,86.884766 C 236.57715,86.884766 236.70117,86.947266 236.84863,87.030273 C 234.95068,87.893555 233.62646,88.75293 232.68066,89.744141 C 231.75879,88.764648 230.44385,87.911133 228.54736,87.058594 C 228.67432,86.987305 228.86816,86.884766 228.86816,86.884766 z M 241.4292,89.255859 C 242.40479,89.702149 243.83838,90.382812 243.83838,90.863281 C 243.83838,91.728516 242.4873,91.90625 241.36084,91.90625 C 240.23047,91.90625 238.89111,91.728516 238.89111,90.863281 C 238.89111,90.392578 240.29736,89.749023 241.4292,89.255859 z M 246.14062,86.987305 C 247.17969,86.390625 248.66943,85.427734 249.99902,83.96875 C 251.32764,85.423828 252.81592,86.390625 253.84912,86.987305 C 253.84912,86.987305 253.99951,87.067383 254.18701,87.166992 C 252.21826,88.09668 250.80615,89.072266 249.82959,90.166992 C 248.81104,89.087891 247.43457,88.104492 245.71143,87.217773 C 245.9126,87.115234 246.14062,86.987305 246.14062,86.987305 z M 258.55029,89.251953 C 259.68311,89.749023 261.10693,90.392578 261.10693,90.863281 C 261.10693,91.207031 261.10693,91.90625 258.64795,91.90625 C 256.18896,91.90625 256.18896,91.207031 256.18896,90.863281 C 256.18896,90.347656 257.58936,89.6875 258.55029,89.251953 z M 263.44287,86.884766 C 264.49561,86.279297 265.77295,85.432617 267.29834,83.9375 C 268.59521,85.185547 269.76514,86.086914 271.15771,86.884766 C 271.15771,86.884766 271.32568,86.978516 271.42725,87.030273 C 269.55615,87.874023 268.24561,88.72168 267.31006,89.6875 C 266.37842,88.72168 265.06396,87.87793 263.17139,87.030273 C 263.271,86.978516 263.44287,86.884766 263.44287,86.884766 z M 276.00146,89.255859 C 276.97803,89.702149 278.40576,90.382812 278.40576,90.863281 C 278.40576,91.556641 277.56982,91.90625 275.93506,91.90625 C 274.29248,91.90625 273.4585,91.556641 273.4585,90.863281 C 273.4585,90.392578 274.87256,89.749023 276.00146,89.255859 z M 280.71436,86.987305 C 281.75146,86.390625 283.23584,85.427734 284.56592,83.96875 C 285.896,85.427734 287.38428,86.390625 288.42334,86.987305 C 288.42334,86.987305 288.66162,87.118164 288.93701,87.267578 C 287.05615,88.21875 285.60107,89.266601 284.58936,90.382812 C 283.55615,89.220703 282.11279,88.163086 280.27881,87.217773 C 280.47803,87.115234 280.71436,86.987305 280.71436,86.987305 z M 293.23193,89.298828 C 294.27295,89.753906 295.67529,90.397461 295.67529,90.863281 C 295.67529,91.12207 295.67529,91.897461 293.29053,91.897461 C 290.90967,91.897461 290.90967,91.12207 290.90967,90.863281 C 290.90967,90.392578 292.33154,89.712891 293.23193,89.298828 z M 298.16162,86.884766 C 299.21826,86.279297 300.49561,85.432617 302.021,83.943359 C 303.4624,85.383789 304.77881,86.25 305.88037,86.884766 C 305.88037,86.884766 305.97412,86.93457 306.11084,87.007812 C 304.18506,87.869141 302.85498,88.731445 301.90771,89.712891 C 300.98779,88.75293 299.68896,87.911133 297.82568,87.071289 C 297.9585,86.993164 298.16162,86.884766 298.16162,86.884766 z M 310.61084,89.119141 C 312.00537,89.727539 313.13037,90.283203 313.13037,90.863281 C 313.13037,91.172851 313.13037,91.901367 310.70068,91.901367 C 309.51904,91.901367 308.11084,91.723633 308.11084,90.863281 C 308.11084,90.352539 309.82178,89.49707 310.61084,89.119141 z M 324.21826,61.486328 C 322.81592,61.333984 321.56006,62.276367 320.79639,63.394531 C 320.41943,63.160156 320.04443,62.985352 319.79639,62.920898 C 319.48779,62.838867 318.97021,62.700195 318.56982,63.041992 C 318.23779,63.325195 318.09521,63.814453 318.09521,64.879883 C 318.09521,65.238281 318.11475,65.694336 318.14795,66.200195 C 317.85498,66.086914 317.55225,65.986328 317.31006,65.924805 C 316.91357,65.81543 316.45068,65.733398 316.09912,65.949219 C 315.78271,66.138672 315.67139,66.458984 315.59326,66.74707 C 315.35889,67.668945 315.76514,68.541016 316.12842,69.313477 C 316.43701,69.97168 316.72217,70.59668 316.59521,71.131836 C 316.55225,71.292969 316.37061,71.796875 315.67725,71.614258 C 315.05225,71.442383 314.75928,70.931641 314.45459,70.387696 L 314.35498,70.207031 C 313.86279,69.367188 312.80029,68.243164 311.39795,67.873047 C 310.70068,67.69043 310.16943,67.573242 309.72607,67.842774 C 309.24951,68.128906 309.05615,68.757813 308.81787,69.683594 C 308.68115,70.241211 308.60889,70.858399 308.60889,71.497071 C 308.60889,73.063477 309.03076,74.782227 309.76514,76.175781 C 309.03271,77.175781 308.52295,78.286133 308.35889,78.945313 C 308.24951,79.371094 308.19092,79.72168 308.19092,80.015625 C 308.19092,80.858399 308.66553,81.246094 309.84326,81.561524 C 311.54053,82.011719 313.23389,81.330078 314.60498,80.780274 C 315.39014,80.459961 316.13818,80.16211 316.50928,80.261719 C 316.90967,80.364258 316.90967,80.364258 316.90967,80.769531 C 316.90967,82.249024 314.50146,83.950196 310.48193,85.34375 C 307.40186,84.223633 304.63428,82.473633 303.25928,80.875 C 304.13428,80.414063 304.72607,79.485352 304.72607,78.411133 C 304.72607,76.886719 303.51904,75.647461 302.021,75.647461 C 300.5249,75.647461 299.31396,76.886719 299.31396,78.411133 C 299.31396,79.475586 299.896,80.397461 300.75342,80.858399 C 299.3374,82.479492 296.52686,84.253906 293.43311,85.389649 C 289.33545,83.986328 286.88428,82.264649 286.88428,80.769531 C 286.88428,80.623047 286.92529,80.139649 287.45459,80.139649 C 287.83936,80.139649 288.4917,80.623047 289.17529,81.135742 C 290.35889,82.016602 291.82764,83.119141 293.5835,83.119141 C 295.22217,83.119141 295.66553,82.654297 295.66553,80.969727 C 295.66553,80.294922 295.45068,79.086914 295.00146,77.936524 C 296.48584,76.295899 297.50732,73.861328 297.50732,71.889649 C 297.50732,69.958008 297.26904,69.467774 295.4624,69.467774 C 294.00732,69.467774 292.70459,70.278321 292.0249,70.966797 L 291.89209,71.117188 C 291.45459,71.561524 291.04834,71.991211 290.3999,71.991211 C 289.68701,71.991211 289.63037,71.451172 289.63037,71.282227 C 289.63037,70.731445 290.06396,70.202149 290.52686,69.643555 C 291.07178,68.992188 291.68115,68.249023 291.68115,67.298828 C 291.68115,66.212891 290.97607,66.05957 290.22607,66.05957 C 289.97412,66.05957 289.65576,66.074219 289.34912,66.115234 C 289.72607,64.938477 289.91553,64.173828 289.91553,63.668945 C 289.91553,63.356445 289.84326,63.129883 289.72607,62.950195 C 289.41748,62.514648 288.87646,62.514648 288.55615,62.514648 C 288.31006,62.514648 287.88623,62.586914 287.45459,62.723633 C 287.00537,61.635742 285.94092,60.40918 284.71045,60.004883 L 284.56592,59.961914 L 284.42139,60.004883 C 283.19482,60.40918 282.12842,61.635742 281.6792,62.723633 C 281.24756,62.586914 280.82764,62.514648 280.58154,62.514648 C 280.25342,62.514648 279.72217,62.514648 279.41162,62.950195 C 279.29248,63.129883 279.22412,63.356445 279.22412,63.668945 C 279.22412,64.173828 279.40771,64.938477 279.78662,66.115234 C 279.47412,66.074219 279.16357,66.05957 278.91357,66.05957 C 278.16162,66.05957 277.4585,66.212891 277.4585,67.298828 C 277.4585,68.249023 278.06787,68.992188 278.60889,69.643555 C 279.07178,70.202148 279.50342,70.731445 279.50342,71.282227 C 279.50342,71.451172 279.44678,71.991211 278.73779,71.991211 C 278.09131,71.991211 277.67725,71.561524 277.25146,71.117188 L 277.11084,70.966797 C 276.43115,70.27832 275.12646,69.467774 273.67334,69.467774 C 271.86865,69.467774 271.62646,69.958008 271.62646,71.889649 C 271.62646,73.861328 272.65186,76.295899 274.14014,77.936524 C 273.68506,79.086914 273.46826,80.294922 273.46826,80.969727 C 273.46826,82.654297 273.91553,83.119141 275.55225,83.119141 C 277.30615,83.119141 278.78076,82.016602 279.9624,81.135742 C 280.64795,80.623047 281.29834,80.139649 281.6792,80.139649 C 282.2124,80.139649 282.24951,80.623047 282.24951,80.769531 C 282.24951,82.253906 279.83545,83.959961 275.79053,85.359375 C 272.75342,84.253906 269.93506,82.473633 268.54248,80.870117 C 269.41162,80.408203 270.00537,79.480469 270.00537,78.411133 C 270.00537,76.886719 268.79248,75.647461 267.29834,75.647461 C 265.80615,75.647461 264.5874,76.886719 264.5874,78.411133 C 264.5874,79.475586 265.17725,80.397461 266.04248,80.864258 C 264.63428,82.495117 261.84717,84.253906 258.78857,85.359375 C 254.72998,83.963867 252.31006,82.253906 252.31006,80.769531 C 252.31006,80.623047 252.35107,80.139649 252.88818,80.139649 C 253.26709,80.139649 253.91748,80.623047 254.60107,81.135742 C 255.78467,82.016602 257.25732,83.119141 259.01123,83.119141 C 260.65381,83.119141 261.09912,82.654297 261.09912,80.969727 C 261.09912,80.294922 260.88428,79.086914 260.42529,77.936524 C 261.91162,76.295899 262.94092,73.861328 262.94092,71.889649 C 262.94092,69.958008 262.70068,69.467774 260.896,69.467774 C 259.44092,69.467774 258.13818,70.278321 257.45654,70.966797 L 257.31787,71.117188 C 256.88623,71.561523 256.47412,71.991211 255.82373,71.991211 C 255.11279,71.991211 255.05811,71.451172 255.05811,71.282227 C 255.05811,70.731445 255.49756,70.202148 255.95654,69.643555 C 256.49365,68.992187 257.10889,68.249023 257.10889,67.298828 C 257.10889,66.212891 256.40771,66.05957 255.65381,66.05957 C 255.3999,66.05957 255.09131,66.074219 254.78076,66.115234 C 255.15576,64.938477 255.34326,64.173828 255.34326,63.668945 C 255.34326,63.356445 255.2749,63.129883 255.14209,62.950195 C 254.84717,62.514648 254.3042,62.514648 253.98779,62.514648 C 253.7417,62.514648 253.31787,62.586914 252.88818,62.723633 C 252.43896,61.635742 251.37451,60.40918 250.13623,60.004883 L 249.99902,59.961914 L 249.85352,60.004883 C 248.62158,60.40918 247.56396,61.635742 247.10303,62.723633 C 246.67334,62.586914 246.25781,62.514648 246.00342,62.514648 C 245.68604,62.514648 245.14844,62.514648 244.84717,62.950195 C 244.72461,63.129883 244.64697,63.356445 244.64697,63.668945 C 244.64697,64.173828 244.83691,64.938477 245.2207,66.115234 C 244.90332,66.074219 244.58984,66.05957 244.34521,66.05957 C 243.58301,66.05957 242.88086,66.212891 242.88086,67.298828 C 242.88086,68.249023 243.49512,68.992187 244.03369,69.643555 C 244.49463,70.202148 244.93896,70.731445 244.93896,71.282227 C 244.93896,71.451172 244.87744,71.991211 244.16797,71.991211 C 243.51514,71.991211 243.10693,71.561523 242.67578,71.117188 L 242.53906,70.966797 C 241.85742,70.27832 240.5498,69.467774 239.10547,69.467774 C 237.30127,69.467774 237.05518,69.958008 237.05518,71.889649 C 237.05518,73.861328 238.0791,76.295899 239.56641,77.936524 C 239.1167,79.086914 238.89648,80.294922 238.89648,80.969727 C 238.89648,82.654297 239.34717,83.119141 240.97852,83.119141 C 242.73291,83.119141 244.2085,82.016602 245.39502,81.135742 C 246.07861,80.623047 246.729,80.139649 247.11328,80.139649 C 247.64014,80.139649 247.68115,80.623047 247.68115,80.769531 C 247.68115,82.253906 245.2666,83.959961 241.21875,85.359375 C 238.18066,84.253906 235.36621,82.473633 233.97021,80.870117 C 234.8335,80.408203 235.43262,79.480469 235.43262,78.411133 C 235.43262,76.886719 234.21533,75.647461 232.72705,75.647461 C 231.23144,75.647461 230.01514,76.886719 230.01514,78.411133 C 230.01514,79.475586 230.60693,80.397461 231.47168,80.864258 C 230.0498,82.50293 227.24121,84.274414 224.1626,85.378906 C 220.07373,83.983399 217.63037,82.264649 217.63037,80.769531 C 217.63037,80.623047 217.6748,80.139649 218.20801,80.139649 C 218.58643,80.139649 219.23486,80.623047 219.91992,81.135742 C 221.10254,82.016602 222.57617,83.119141 224.33057,83.119141 C 225.97363,83.119141 226.41846,82.654297 226.41846,80.969727 C 226.41846,80.294922 226.19873,79.086914 225.74853,77.936524 C 227.23144,76.295899 228.25977,73.861328 228.25977,71.889649 C 228.25977,69.958008 228.01367,69.467774 226.20703,69.467774 C 224.75977,69.467774 223.45068,70.27832 222.77393,70.966797 L 222.63769,71.117188 C 222.20312,71.561523 221.79932,71.991211 221.14844,71.991211 C 220.43262,71.991211 220.38086,71.451172 220.38086,71.282227 C 220.38086,70.731445 220.81543,70.202148 221.27588,69.643555 C 221.82031,68.992187 222.42822,68.249023 222.42822,67.298828 C 222.42822,66.212891 221.72705,66.05957 220.97119,66.05957 C 220.72412,66.05957 220.40625,66.074219 220.09521,66.115234 C 220.47266,64.938477 220.66357,64.173828 220.66357,63.668945 C 220.66357,63.356445 220.59619,63.129883 220.46435,62.950195 C 220.16699,62.514648 219.62891,62.514648 219.30762,62.514648 C 219.06299,62.514648 218.63672,62.586914 218.20801,62.723633 C 217.75342,61.635742 216.69385,60.40918 215.45605,60.004883 L 215.31738,59.961914 L 215.17187,60.004883 C 213.94482,60.40918 212.88184,61.635742 212.42627,62.723633 C 211.99658,62.586914 211.57617,62.514648 211.33154,62.514648 C 211.00537,62.514648 210.47266,62.514648 210.16455,62.950195 C 210.03809,63.129883 209.97119,63.356445 209.97119,63.668945 C 209.97119,64.173828 210.15527,64.938477 210.53906,66.115234 C 210.22559,66.074219 209.90918,66.05957 209.66406,66.05957 C 208.90234,66.05957 208.20068,66.212891 208.20068,67.298828 C 208.20068,68.249023 208.81348,68.992187 209.35644,69.643555 C 209.81738,70.202148 210.2583,70.731445 210.2583,71.282227 C 210.2583,71.451172 210.19531,71.991211 209.48633,71.991211 C 208.83545,71.991211 208.4248,71.561523 207.99609,71.117188 L 207.85693,70.966797 C 207.18213,70.27832 205.87402,69.467774 204.42432,69.467774 C 202.61963,69.467774 202.37891,69.958008 202.37891,71.889649 C 202.37891,73.861328 203.40332,76.295899 204.88525,77.936524 C 204.43506,79.086914 204.21387,80.294922 204.21387,80.969727 C 204.21387,82.654297 204.66553,83.119141 206.30273,83.119141 C 208.05664,83.119141 209.52637,82.016602 210.7124,81.135742 C 211.39697,80.623047 212.04687,80.139649 212.43115,80.139649 C 212.9585,80.139649 212.99902,80.623047 212.99902,80.769531 C 212.99902,82.257813 210.57373,83.96875 206.51172,85.368164 C 203.43799,84.232422 200.64844,82.467774 199.23779,80.858399 C 200.09668,80.391602 200.68506,79.475586 200.68506,78.411133 C 200.68506,76.886719 199.46631,75.647461 197.97461,75.647461 C 196.48535,75.647461 195.26807,76.886719 195.26807,78.411133 C 195.26807,79.485352 195.86523,80.414063 196.74121,80.875 C 195.36523,82.473633 192.5957,84.223633 189.51709,85.34375 C 185.4917,83.950196 183.0918,82.249024 183.0918,80.769531 C 183.0918,80.364258 183.0918,80.364258 183.49072,80.261719 C 183.85937,80.162109 184.60596,80.459961 185.39795,80.780274 C 186.76025,81.330078 188.4585,82.011719 190.15723,81.561524 C 190.8833,81.365234 191.38525,81.158203 191.64502,80.705078 C 191.76318,80.499024 191.81348,80.270508 191.81348,80.010742 C 191.81348,79.711914 191.74902,79.360352 191.64014,78.945313 C 191.47607,78.291992 190.96045,77.175781 190.23828,76.175781 C 190.97021,74.782227 191.38525,73.063477 191.38525,71.497071 C 191.38525,70.858399 191.31836,70.241211 191.1748,69.683594 C 190.94043,68.757813 190.75049,68.128906 190.26953,67.842774 C 189.83057,67.573242 189.30322,67.69043 188.59717,67.873047 C 187.19482,68.243164 186.12988,69.367188 185.65039,70.207031 L 185.54346,70.387696 C 185.24023,70.931641 184.94922,71.442383 184.32471,71.614258 C 183.63574,71.796875 183.45019,71.292969 183.41016,71.131836 C 183.27197,70.59668 183.55762,69.97168 183.86914,69.313477 C 184.22754,68.541016 184.63769,67.668945 184.40088,66.74707 C 184.32959,66.458984 184.21143,66.138672 183.90625,65.949219 C 183.54248,65.733398 183.08545,65.81543 182.6831,65.924805 C 182.44287,65.986328 182.15039,66.086914 181.854,66.200195 C 181.88525,65.694336 181.90918,65.238281 181.90918,64.879883 C 181.90918,63.814453 181.76172,63.325195 181.43506,63.041992 C 181.02978,62.700195 180.5083,62.838867 180.20166,62.920898 C 179.95703,62.985351 179.57861,63.160156 179.20019,63.394531 C 178.44678,62.276367 177.17725,61.333984 175.78027,61.486328 L 175.24463,61.545898 C 175.24463,61.545898 179.52685,78.270508 179.55225,78.371094 C 179.5625,82.985351 180.56885,84.782226 184.20654,86.672851 C 184.20654,86.672851 184.65332,86.892578 185.10303,87.115234 C 183.47949,87.972656 182.04346,89.198242 182.04346,91.421875 C 182.04346,93.541992 183.39844,95.21289 185.31689,95.651367 C 185.5835,106.4502 187.19092,173.12451 187.19092,173.13232 C 187.19092,192.27588 193.66162,209.50635 205.40332,221.66162 C 216.85742,233.50732 232.70508,240.0376 250.03955,240.0376 C 267.3667,240.0376 283.21826,233.50732 294.66943,221.66162 C 306.41357,209.50635 312.88623,192.27588 312.88623,173.12158 C 312.88623,173.12158 314.60498,102.24902 314.76318,95.625 C 316.64209,95.162109 317.94873,93.510742 317.94873,91.421875 C 317.94873,89.198242 316.51514,87.972656 314.896,87.115234 C 315.33935,86.892578 315.79053,86.672851 315.79053,86.672851 C 319.43115,84.782226 320.4331,82.985351 320.44482,78.371094 C 320.47217,78.270508 324.75537,61.545898 324.75537,61.545898 L 324.21826,61.486328 z"
       id="path9"
       style="fill:#231f20" />
    <path
       d="M 290.75928,161.42627 L 288.47217,160.08643 C 283.68311,157.13916 276.57178,147.75684 276.57178,140.85547 C 276.57178,140.44043 276.58936,140.02832 276.60889,139.62988 C 276.44873,139.62988 272.77881,139.62988 271.86865,139.62988 C 271.5249,140.81543 270.91553,142.28418 269.9585,143.55078 C 269.3999,144.28809 268.68506,146.18359 268.68506,148.68848 C 268.68506,149.09277 268.7085,149.50781 268.74756,149.94141 L 268.82568,150.77393 L 268.01709,150.95654 C 266.84912,151.21338 265.56787,150.95654 264.50537,150.49902 C 264.53076,151.77979 265.12061,153.18896 265.59131,153.80518 L 266.021,154.37451 L 265.60107,154.95947 C 265.23779,155.46143 264.76709,155.90479 264.22607,156.27393 C 265.23193,157.37842 266.2085,158.25732 267.09521,158.84912 C 269.35498,160.34033 271.76904,161.72217 274.10889,163.04834 C 281.04443,166.99072 287.60107,170.72217 287.60107,176.65869 C 287.60107,177.70752 287.396,178.61475 287.021,179.35107 C 287.9585,179.90967 288.90186,180.14209 290.32373,180.14209 C 295.53271,180.14209 299.31787,176.25146 299.31787,170.89111 C 299.31787,166.30518 294.96826,163.82861 290.75928,161.42627"
       id="path11"
       style="fill:#00529f" />
    <path
       d="M 249.92627,119.1543 C 249.71582,118.69434 249.2832,118.09375 248.89404,117.72949 C 248.02344,116.90625 246.94922,116.4668 246.17187,116.29395 C 246.03369,117.02051 245.69629,117.82812 245.09766,118.52539 C 244.80566,118.87598 244.58057,119.24707 244.34521,119.4209 C 245.27148,119.2002 246.2793,119.03223 247.32764,119.03223 C 248.19873,119.03223 249.13379,119.08008 249.92627,119.1543"
       id="path13"
       style="fill:#00529f" />
    <path
       d="M 304.88428,168.62939 C 304.96045,169.43311 305.05029,170.38916 305.05029,171.45361 C 305.05029,173.29248 304.77881,175.44189 303.72998,177.61182 C 304.69678,177.51807 305.65771,177.68604 306.50342,178.16455 L 307.69678,178.84033 L 306.63623,179.72998 C 305.28662,180.86572 304.54639,181.8335 303.76514,182.85986 L 303.1499,183.64795 C 301.93115,185.18408 300.34912,185.87061 298.05811,185.87061 C 297.20264,185.87061 296.35303,185.56104 295.59521,185.00928 C 294.16553,185.96533 291.97217,186.53564 289.60498,186.53564 C 286.51904,186.53564 283.82373,185.62451 282.49365,185.08643 C 279.78271,186.47217 278.45264,188.38525 278.45264,190.92334 C 278.45264,193.88916 280.8667,196.77783 283.41943,196.99072 C 284.39795,196.12256 285.84912,195.5835 287.38428,195.5835 C 290.30225,195.5835 292.66943,198.2124 292.66943,201.45068 C 292.66943,202.86572 292.41357,203.88232 292.16553,204.86963 C 291.92139,205.85107 291.69092,206.78369 291.69092,208.14404 C 291.69092,209.07959 292.2749,209.67822 292.53467,209.90283 L 293.13818,210.41943 L 292.73975,211.11279 C 291.89404,212.57275 289.88037,213.1001 287.46045,212.60107 C 287.25537,213.59619 286.85498,214.23193 286.06787,214.88721 L 285.72607,215.17139 L 285.29248,215.07959 C 284.56006,214.93604 283.95068,214.56982 283.49561,214.02393 C 282.70654,215.32764 281.57959,216.72217 280.31982,217.78174 C 280.8667,218.36475 281.20068,219.05029 281.20068,219.77197 C 281.20068,220.271 281.07178,220.7876 280.85303,221.21045 C 281.38037,221.84424 281.65186,222.51807 281.65186,223.23584 C 281.65186,224.95752 279.6499,227.10205 278.33936,227.20264 L 277.69678,227.24951 L 277.43701,226.69385 C 276.85693,225.52783 276.31396,225.0376 275.8999,224.84326 C 275.22607,225.07275 274.28857,225.04736 273.28076,224.29932 C 272.88232,225.06885 272.26514,225.78271 271.55029,226.23291 C 271.56592,226.33154 271.5874,226.43701 271.5874,226.54541 C 271.5874,227.16553 271.41162,227.82959 271.07373,228.47412 C 270.5874,229.39111 269.80029,230.19287 268.76318,230.56592 C 268.26123,232.0083 267.34521,233.40479 265.92334,234.19873 L 264.66553,234.896 L 264.5542,233.43604 C 264.4917,232.59912 264.21631,231.43506 263.52295,230.17236 C 262.91162,229.93604 262.29248,229.4624 261.896,228.97998 C 260.86279,229.60596 259.72803,229.83154 258.43701,229.63037 C 257.73389,229.91162 256.97021,230.55029 255.94092,231.89209 L 255.45654,232.5249 L 254.76514,232.13818 C 253.76904,231.57959 253.07959,230.24951 253.07959,228.90283 C 253.07959,227.35889 253.521,226.19092 254.68896,225.51221 C 254.66357,225.35303 254.63428,225.00928 254.63428,224.91357 C 254.63428,223.57764 255.13428,222.53955 256.19287,221.69287 C 255.80029,221.23877 255.51123,220.729 255.36279,220.17627 C 254.8374,220.29346 254.38818,220.55225 254.01318,220.95459 L 252.66943,222.40283 L 252.41943,220.42236 C 252.15576,218.39795 252.4917,216.7749 253.38428,215.73389 C 254.07178,214.93604 255.05811,214.52393 256.23389,214.52393 C 257.38623,214.52393 258.07568,214.86572 258.51318,215.19971 C 258.93506,215.06885 259.36865,215.00342 259.79248,215.00342 C 260.82178,215.00342 261.45654,215.36768 261.96826,215.65674 C 262.46045,215.93799 262.84326,216.16455 263.69873,216.16455 C 264.76904,216.16455 267.34912,215.11182 269.47412,212.83936 C 270.49756,211.74951 271.63818,210.10693 272.10107,207.94092 C 271.79639,208.39014 271.47803,208.90479 271.13623,209.57178 L 270.77295,210.26123 L 270.04248,210.02588 C 268.49561,209.54053 267.32178,208.09131 266.75732,206.16846 C 266.28076,206.55811 265.67139,206.88818 264.81787,207.14307 L 263.63232,207.47998 L 263.63232,206.22314 C 263.63232,203.61475 263.2124,203.17236 260.87646,200.70557 L 259.79248,199.54834 C 256.19287,195.69092 255.47607,192.46924 255.47607,188.51904 C 255.47607,188.12158 255.49756,187.70654 255.53857,187.29053 C 255.00146,187.27197 254.51709,187.25928 254.11084,187.25928 C 251.25732,187.25928 249.50195,189.91162 249.50195,191.81494 C 249.50195,192.56006 249.71582,192.95752 250.03955,193.55127 C 250.54102,194.5083 251.17529,195.69092 251.17529,198.42236 C 251.17529,203.6001 248.02881,206.49072 244.95019,208.6333 L 243.59814,209.57568 L 243.48877,207.86377 C 243.44873,207.29443 243.41894,206.81494 243.32568,206.38232 C 242.39014,207.39111 241.23486,208.23877 240.09912,208.67822 L 239.32275,208.98193 C 239.32275,208.98193 238.70801,207.76514 238.47314,207.29443 C 236.4707,208.44971 233.76904,209.46338 232.07031,209.98389 C 232.08643,210.11768 232.10791,210.26123 232.10791,210.3999 C 232.10791,211.68213 231.45215,212.82666 231.04346,213.39307 L 231.04932,213.48975 C 231.04932,215.49854 229.16602,216.72217 227.30273,216.88135 L 225.92725,217.00049 L 226.33105,215.65674 C 226.65674,214.59522 225.71728,214.02393 225.71728,214.02393 C 224.74463,213.60596 223.6958,212.8042 223.2207,211.84814 C 222.85303,211.98193 222.46338,212.0835 222.07471,212.14014 C 222.04883,213.78271 221.49658,214.8335 220.98535,215.45361 C 220.31445,216.26904 219.26758,216.83154 218.15723,217.0083 C 217.70508,217.91455 217.1792,218.66162 216.42725,219.28564 L 215.9458,219.68311 L 215.3999,219.39209 C 214.3335,218.81494 212.92627,217.2876 212.87598,215.8335 L 212.86768,215.63916 C 212.35059,215.25928 211.9248,214.60498 211.75,213.9624 C 211.66894,213.68018 211.63281,213.37158 211.63281,213.05322 C 211.63281,212.57275 211.72559,212.06299 211.89502,211.56006 C 211.77588,211.56006 211.65869,211.56689 211.52539,211.56689 C 210.80029,211.56689 210.15137,211.25342 209.62744,210.75439 C 209.08154,211.13037 208.51807,211.65381 208.18018,212.31885 L 207.54541,213.57373 L 206.646,212.50146 C 206.0376,211.771 205.33545,210.71143 205.33545,208.90479 C 205.33545,206.70947 206.87061,205.021 209.11621,204.67627 C 209.88867,203.74463 211.03027,203.18506 212.10352,203.18506 C 212.53809,203.18506 212.93799,203.22022 213.32617,203.28369 C 213.3208,203.27393 213.3208,203.25537 213.3208,203.2417 C 212.79492,203.02979 212.15527,202.94873 211.4043,202.9917 L 210.354,203.05127 L 210.4209,201.98193 C 210.53369,200.24463 212.11963,198.28857 214.07812,198.28857 C 215.3999,198.28857 216.04346,198.64795 216.66162,199.22217 C 216.98877,199.16162 217.32178,199.13428 217.65918,199.13428 C 219.21582,199.13428 220.01172,199.82568 220.65771,200.37939 C 221.16943,200.82178 221.4751,201.08838 222.14795,201.08838 C 223.51172,201.08838 227.78906,200.14307 229.59424,197.97998 C 229.07715,197.81104 228.59131,197.56885 228.19873,197.25537 L 227.39453,196.62256 L 228.08008,195.85889 C 229.18164,194.646 229.39648,194.02979 229.39648,189.60303 C 229.39648,185.74072 231.2876,182.104 234.72021,179.35986 C 238.1709,176.62061 242.81982,175.10205 247.81494,175.10205 L 250.91357,175.16943 L 254.22217,175.22803 C 254.28662,175.22803 254.73975,175.18897 255.61279,174.16162 C 248.71973,173.55615 242.73291,171.84814 236.74658,166.4917 C 236.38428,167.51514 235.74902,168.28564 234.88428,168.71729 L 234.42529,168.94287 L 233.99414,168.66943 C 232.53711,167.76025 231.2832,167.07178 229.16602,166.78662 C 228.86816,168.25342 227.76416,169.64307 226.84326,170.1626 L 226.12646,170.56006 L 225.2207,169.29346 C 224.53467,168.33838 223.88086,167.42334 223.29199,167.04346 C 223.021,167.82373 222.51953,168.50635 221.81006,169.00244 L 221.29785,169.35791 L 220.40625,168.7749 C 218.5918,167.59229 217.28174,166.73486 214.5293,166.73486 C 213.23486,166.73486 212.05811,167.12451 211.35205,167.45947 C 211.53564,167.88037 211.60889,168.34131 211.62451,168.90088 C 211.62744,168.92432 211.62744,168.94971 211.62744,168.97119 C 211.62744,169.9165 211.07471,170.80811 210.5957,171.2876 C 210.42627,171.46143 210.06836,171.72119 209.8418,171.81982 C 209.53662,172.72022 209.0957,173.87842 207.57227,174.88037 L 206.8916,175.33057 L 206.36377,174.70752 C 205.79102,174.021 205.45361,173.4165 205.1875,172.80518 C 204.56396,172.6499 203.69287,172.21338 203.18652,171.64697 C 203.00879,171.96533 202.84375,172.44971 202.84375,173.12158 C 202.84375,174.23682 201.82129,175.30225 200.79199,175.65674 C 200.53564,176.49756 200.41455,177.19873 200.43457,177.66553 L 200.47998,178.59326 L 199.57178,178.65674 C 198.69531,178.71631 197.75928,178.36865 197.01221,177.70459 C 196.31494,177.08154 195.89258,176.26123 195.84131,175.46436 L 195.83643,175.19775 C 195.05371,174.65088 194.63721,173.68311 194.63721,172.3833 C 194.63721,172.10791 194.65967,171.81299 194.69385,171.49268 C 194.54639,171.44385 194.39404,171.38721 194.24463,171.30713 C 194.17236,171.25635 194.08594,171.19385 193.98877,171.1167 C 193.40576,171.38721 192.95996,171.90479 192.65869,172.68506 L 192.16211,173.96631 L 191.08838,172.95557 C 190.3877,172.30225 189.3291,171.31397 189.3291,169.52002 C 189.3291,168.19873 190.00879,167.10303 191.22168,166.41162 C 191.21484,166.32275 191.21094,166.24463 191.21094,166.15674 C 191.21094,165.60791 191.34961,165.0249 191.72266,164.49854 C 192.12695,163.91357 192.73535,163.51318 193.51221,163.2749 C 193.09912,162.7251 192.79199,162.09131 192.68506,161.39404 C 192.0542,161.07861 191.36377,160.91357 190.62744,160.91357 L 189.23682,160.91357 L 189.76807,159.60498 C 190.3208,158.22314 191.72266,156.60498 193.83936,156.60498 C 194.271,156.60498 195.22168,156.60498 196.17334,157.04834 C 196.37793,157.00537 196.58838,156.97412 196.79199,156.97412 C 197.68164,156.97412 198.39307,157.49756 199.07813,157.99365 C 199.72412,158.45752 200.33789,158.89697 201.03418,158.89697 C 201.49756,158.89697 203.39746,158.08545 204.65527,157.54736 C 206.09326,156.93701 207.57227,156.29932 208.56982,156.04346 C 209.85303,155.71729 212.32422,154.38232 215.4248,152.34521 C 215.23975,152.02197 215.07568,151.68115 214.92822,151.32178 L 214.56982,150.44824 L 215.4248,150.08105 C 215.84522,149.90234 216.17139,149.71484 216.43701,149.50781 C 216.41113,148.74609 216.22705,147.75684 215.67041,146.62891 C 214.60596,147.61816 212.9585,148.07129 211.59814,147.85156 L 210.48291,147.66895 L 210.8667,146.58301 C 211.39697,145.11133 211.66553,143.68555 211.66553,142.21777 C 211.66553,141.38574 211.57129,140.53906 211.39697,139.66309 C 210.50293,140.43262 209.35645,140.44043 208.83545,140.44043 C 208.8291,140.44043 207.8999,140.44043 207.8999,140.44043 L 207.89404,139.49414 C 207.86719,136.92188 207.40723,133.7207 204.4751,129.44336 C 204.38428,129.48828 204.28272,129.53223 204.18506,129.57324 C 203.29346,131.09766 201.64209,132.16602 200.07324,132.16602 C 198.33203,132.16602 197.10938,131.05957 196.5459,130.02344 L 195.92676,128.88086 L 197.18018,128.62891 C 197.94824,128.47266 198.52051,128.09766 198.94092,127.69238 C 198.25586,126.81738 197.83545,125.76367 197.72217,124.75293 C 196.68018,124.5293 195.82959,124.13281 195.17578,123.59473 C 194.42334,124.00879 193.88135,124.64355 193.56397,125.47754 L 193.00586,126.96777 L 191.98779,125.75293 C 191.37891,125.02637 190.68506,123.96289 190.68506,122.16016 C 190.68506,120.09082 192.10596,118.4248 194.19287,117.98535 C 194.8999,116.9502 196.13867,116.4668 197.37012,116.4668 C 197.52979,116.4668 197.6665,116.47656 197.8208,116.48535 C 196.95068,115.92676 195.87061,115.14063 195.87061,113.49609 C 195.87061,113.07617 195.96973,112.66797 196.13867,112.28125 C 195.77344,112.08594 195.354,111.95117 194.87354,111.88672 L 194.06934,111.76758 L 194.06934,110.92285 C 194.10205,109.48242 195.7124,107.34668 197.88818,107.34668 C 199.50879,107.34668 200.79834,108.16699 201.47949,109.6084 C 201.90234,109.77246 202.29102,110.0127 202.61963,110.32715 C 203.00879,110.71289 203.2793,111.19531 203.41748,111.7207 C 203.3916,111.51172 203.37647,111.2959 203.37647,111.07031 C 203.37647,110.99121 203.37647,110.9082 203.38135,110.82813 C 203.39746,110.55859 203.44873,110.29883 203.54541,110.06348 C 203.19189,109.59766 202.67139,109.04297 201.9082,108.57129 L 201.146,108.09375 L 201.58691,107.29395 C 202.1792,106.21973 203.49463,105.59668 205.20313,105.59668 C 207.12549,105.59668 208.71143,107.2627 209.0708,108.91699 C 209.94971,109.39355 210.646,110.19238 210.646,111.34277 C 210.646,112.21777 210.41064,113.10156 210.20215,113.88281 C 210.0459,114.4707 209.89893,115.02637 209.88867,115.4209 C 209.86914,116.7334 210.93359,117.96387 212.53369,119.82324 C 213.52637,120.96387 214.75391,122.39355 216.04346,124.21973 C 216.97461,125.54492 222.85303,129.28027 227.13428,131.50195 C 227.76904,130.14746 228.71533,129.03809 229.57568,128.33789 L 230.19434,127.83984 L 230.77686,128.37891 C 232.12647,129.62305 233.16602,130.53711 236.11914,130.70117 C 236.11914,129.60352 236.11914,126.84863 236.11914,126.84863 L 237.04346,126.84863 C 237.73584,126.84863 238.44141,127.2666 239.42383,127.84766 C 240.91162,128.74121 242.95313,129.95117 245.46924,129.95117 C 246.49902,129.95117 248.23291,129.625 248.23291,128.39355 C 248.23291,127.35254 247.77832,127.22754 247.43457,127.22754 C 247.01074,127.22754 246.31006,128.37891 244.87207,128.37891 C 242.98438,128.37891 241.29932,126.99609 241.29932,125.30957 C 241.29932,124.99316 241.36084,124.71289 241.47949,124.46289 C 241.30957,124.04004 241.28076,123.75293 241.38281,123.36523 C 239.77783,123.93262 237.53027,124.5752 235.65186,124.5752 C 232.12207,124.5752 228.3208,122.66797 228.3208,118.4834 C 228.3208,115.66895 230.24023,114.15625 232.04102,114.15625 C 232.70508,114.15625 233.30908,114.35547 233.74463,114.71191 L 234.36865,115.22461 L 233.86328,115.66406 C 233.2417,116.42871 232.98193,117.28906 232.98193,118.09375 C 232.98193,119.42578 234.45557,120.85547 237.68945,120.85547 C 238.4917,120.85547 239.62207,120.72461 240.65723,120.50977 C 240.53857,120.31641 240.4668,120.12109 240.42627,119.94531 C 240.27246,119.92383 240.12305,119.88379 239.98535,119.83984 C 238.06787,119.1543 236.67676,117.53027 236.67676,115.66406 C 236.67676,115.1709 236.75195,114.52246 237.01758,113.9043 C 237.01758,113.9043 236.54785,113.5127 236.54785,112.29199 C 236.54785,109.77246 240.67188,107.03613 242.28809,106.05273 C 243.23389,104.16016 246.69482,100.2041 253.74561,100.09082 C 255.06787,99.199219 256.59131,99.068359 257.80029,99.068359 C 258.3999,99.068359 259.13037,99.141602 259.93115,99.360352 C 260.81201,98.776367 261.71436,98.484375 262.5542,98.484375 C 263.56006,98.484375 265.28857,99.829102 265.65771,101.9707 C 266.49756,102.48438 268.36865,103.16992 269.39795,103.31348 L 270.44482,103.45312 L 270.17334,104.49316 C 270.01709,105.09277 269.67725,105.66797 269.23779,106.17676 C 269.90771,106.59668 270.48193,107.03223 271.03467,107.44922 C 271.8999,108.10938 272.72412,108.73242 273.87061,109.27734 L 274.88818,109.75488 L 274.23584,110.69336 C 273.75732,111.37695 273.29053,111.85156 272.82568,112.19141 C 274.04248,113.61035 274.76904,115.86523 275.00146,116.69141 C 275.55225,118.58203 277.34131,120.81348 278.40967,121.85449 L 279.43506,122.84766 L 278.13818,123.41797 C 277.3374,123.76758 276.45654,123.99805 275.38232,124.12598 C 275.50928,124.87402 275.5835,125.79004 275.5835,126.92285 C 275.5835,129.00684 275.36279,131.73535 274.92529,135.09473 C 274.8999,135.30957 274.88818,135.51465 274.88818,135.70703 C 274.88818,136.8252 275.28467,137.68848 275.6499,138.24902 L 276.60889,139.71484 C 277.021,131.84668 281.30029,127.75488 283.92529,125.43945 C 283.87061,124.87891 283.8374,124.33496 283.8374,123.82129 C 283.8374,116.25586 289.59521,113.62109 291.88037,112.5791 L 292.13623,112.45703 C 292.70654,112.19141 293.56201,111.69629 294.32178,111.26758 L 296.59717,109.99023 L 296.91162,111.1543 C 297.10693,111.89258 297.18506,112.59082 297.18506,113.24023 C 297.18506,113.78418 297.11865,114.28027 297.01709,114.75098 C 299.63232,113.50781 302.31592,111.4043 303.45264,108.47754 L 304.3667,106.10352 L 305.19678,108.50781 C 305.80029,110.28906 306.04443,111.99805 306.04443,114.60059 C 306.04443,120.63477 302.31201,127.65137 291.83545,129.23242 C 287.85498,129.8418 285.30615,131.49707 283.5874,134.69141 C 285.3335,133.70605 286.99756,133.35059 288.9585,133.19141 L 291.91357,132.95605 L 289.62646,134.875 C 289.5542,134.93066 289.51318,134.99121 289.44092,135.04297 C 290.8667,134.65039 292.21826,134.62891 293.54443,134.61133 C 295.76709,134.58203 297.8667,134.55566 300.31592,132.66406 L 302.4292,131.0293 L 301.77881,133.65332 C 300.87061,137.36523 297.22998,138.68359 293.71826,139.95508 C 289.521,141.48047 285.56396,142.91602 285.56396,148.09668 C 285.56396,150.2334 286.51514,152.15576 288.09717,153.39307 C 288.0542,152.89111 288.04053,152.40479 288.04053,151.91943 C 288.04053,150.24121 289.82178,147.09668 294.12646,147.09668 C 295.28271,147.09668 296.41748,147.37793 297.42139,147.62598 C 298.21436,147.81836 298.96045,148.00781 299.54639,148.00781 C 300.7085,148.00781 301.4624,147.5918 302.15576,146.57813 L 303.84717,144.0625 L 303.84717,147.11719 C 303.84717,150.31738 301.10303,151.47119 298.8999,152.39697 C 296.66943,153.33447 295.30029,153.98779 295.30029,155.60596 C 295.30029,157.83936 297.44092,159.51025 299.40186,160.86768 C 299.84717,159.32764 301.15576,158.05322 302.60498,157.43604 L 303.82568,157.00537 C 304.67725,156.74951 305.33936,156.54541 306.3335,155.56299 L 307.20654,154.69092 L 307.79639,155.78857 C 308.28076,156.69678 308.32373,157.5376 308.32373,158.45752 C 308.32373,160.12549 307.41357,161.53272 306.52686,162.90088 C 305.63623,164.27979 304.79248,165.59131 304.79248,167.13525 C 304.79248,167.53564 304.83545,168.04639 304.88428,168.62939 M 186.32568,96.385742 L 188.1875,173.27686 C 188.1875,212.77002 215.35205,239.05322 250.00928,239.05322 C 284.65967,239.05322 311.82764,212.77002 311.82764,173.27686 L 313.68701,96.385742 L 186.32568,96.385742 L 186.32568,96.385742 z"
       id="path15"
       style="fill:#00529f" />
    <path
       d="M 243.83057,123.29297 C 245.35205,123.29297 245.94727,123.5332 247.1333,123.5332 C 247.94629,123.5332 249.64551,123.49023 250.19727,122.30078 C 249.17627,122.09375 248.05859,121.98828 246.86328,121.98828 C 245.36279,121.98828 244.22363,122.31934 243.19385,122.65332 C 243.26465,122.94531 243.46484,123.1543 243.62305,123.29785 C 243.6958,123.29785 243.76318,123.29297 243.83057,123.29297"
       id="path17"
       style="fill:#00529f" />
    <path
       d="M 301.37646,179.55713 C 305.24951,174.77881 303.81396,169.56592 303.81396,167.1665 C 303.81396,163.65967 307.34521,161.37354 307.34521,158.479 C 307.34521,157.68115 307.32178,156.99561 306.94092,156.26709 C 305.32959,157.86377 304.35303,157.72314 302.92139,158.33643 C 301.30029,159.03271 299.78467,160.7124 300.1792,162.60205 C 297.90186,160.99365 294.32568,158.94092 294.32568,155.62939 C 294.32568,150.87842 302.87842,152.18994 302.87842,147.1377 C 302.0249,148.40137 300.98975,148.98242 299.49756,148.98242 C 298.01514,148.98242 296.04834,148.07129 294.08545,148.07129 C 290.41943,148.07129 288.93115,150.66064 288.93115,151.94189 C 288.93115,153.2251 288.95068,154.25537 289.54248,155.30713 C 286.79248,154.30615 284.5874,151.64697 284.5874,148.11621 C 284.5874,137.61914 299.04248,140.71484 300.83936,133.44629 C 295.73389,137.38477 291.93311,133.96094 287.19287,137.12598 C 287.43115,135.8916 287.88818,135.08984 288.98975,134.16113 C 286.01514,134.40137 283.98389,135.08984 281.37451,137.47949 C 283.35303,131.24805 286.78467,129.05469 291.65967,128.31738 C 300.78662,126.93945 305.07373,121.03418 305.07373,114.62207 C 305.07373,112.21777 304.86865,110.58301 304.271,108.84863 C 302.81006,112.6416 298.95068,115.2666 295.41943,116.44141 C 296.06006,115.21973 296.51904,113.48633 295.96826,111.42578 C 295.23389,111.79687 293.4917,112.87793 292.47803,113.34375 C 290.33936,114.34668 283.71826,117.00098 284.86475,125.85937 C 282.12256,128.2627 277.46436,132.37109 277.46436,140.97461 C 277.46436,147.56152 284.36475,156.5835 288.91357,159.39111 C 293.46631,162.19873 300.21045,164.9126 300.21045,171.00439 C 300.21045,176.92627 295.97412,181.21045 290.28271,181.21045 C 288.37646,181.21045 287.1167,180.85498 285.70068,179.74072 C 286.31396,179.08545 286.63037,178.0415 286.63037,176.77979 C 286.63037,169.5542 275.79639,165.62646 266.54639,159.75635 C 265.31982,158.98193 264.41357,158.18018 263.37061,156.93701 C 262.51709,157.42334 260.87646,157.52588 259.5542,157.52588 C 258.40185,157.52588 256.59912,157.15283 254.76123,156.50635 C 251.28076,159.36182 245.88623,162.20459 238.24756,162.20459 C 234.2251,162.20459 231.64697,160.71924 228.08008,160.71924 C 226.28516,160.71924 224.3208,161.18994 223.03711,162.90869 C 220.97119,162.25342 219.89062,158.98975 220.97119,156.26318 C 219.08105,155.84521 217.35937,154.99463 215.95996,153.11475 C 213.88867,154.46729 210.78857,156.47119 208.75244,156.9917 C 206.72266,157.50537 202.1792,159.86963 200.99268,159.86963 C 199.16064,159.86963 198.05518,157.94873 196.75195,157.94873 C 195.20166,157.94873 193.53369,159.79736 193.53369,160.91357 C 193.53369,162.24561 194.66406,163.4624 195.77344,163.96338 C 192.9331,163.87158 192.01953,164.729 192.13721,166.47119 C 193.73779,166.72705 194.7456,168.88721 194.35156,170.20654 C 194.47461,170.54346 195.09424,170.88135 195.75342,170.68994 C 195.54883,171.54932 195.05762,173.37451 196.36377,174.44385 C 196.86914,173.48682 197.54004,173.1626 198.50635,173.1626 C 199.46631,173.1626 200.29687,174.08154 200.52734,174.73877 C 201.16016,174.59521 201.86768,173.98682 201.86768,173.14209 C 201.86768,171.46143 202.71143,170.33545 203.42725,170.29346 C 203.65771,171.32275 204.54785,171.65771 205.2793,171.89307 C 205.16113,170.06006 206.38525,169.47705 207.1875,169.47705 C 208.45703,169.47705 209.00439,170.02979 209.48633,170.96143 C 210.22559,170.68018 210.68652,169.86865 210.65185,168.94971 C 210.62012,168.03467 210.47266,167.65186 209.97607,167.2124 C 210.36572,166.77393 212.32422,165.80615 214.49365,165.80615 C 217.71045,165.80615 219.16992,166.89893 221.24219,168.23877 C 221.87939,167.80029 222.479,167.0542 222.55518,165.93311 C 223.9668,165.7749 225.01709,167.51514 226.35205,169.3501 C 227.1748,168.88721 228.46484,167.23389 228.25976,165.76221 C 231.11426,165.97803 232.6333,166.76221 234.43945,167.88037 C 235.63232,167.29639 236.05713,165.91162 236.12305,164.68115 C 242.60547,171.02393 248.90771,172.80518 257.09326,173.34912 C 263.33545,173.76514 266.96631,177.44092 267.50342,179.27979 C 266.52685,178.77393 265.30615,178.51318 263.74756,178.51318 C 259.65967,178.51318 256.36865,183.51709 256.36865,188.55029 C 256.36865,192.10986 256.93506,195.1665 260.41943,198.92725 C 263.66553,202.40772 264.52295,202.83447 264.52295,206.24561 C 266.30615,205.729 266.78662,204.84912 267.26904,203.68115 C 267.29443,206.31104 268.48779,208.5835 270.271,209.14697 C 271.23779,207.3042 272.0581,206.18897 273.2085,205.45752 C 273.53662,212.94189 266.24951,217.14111 263.65771,217.14111 C 261.57373,217.14111 261.42725,215.98096 259.74365,215.98096 C 258.08154,215.98096 256.13037,217.36279 256.13037,219.29736 C 256.13037,220.50439 256.89014,221.34033 257.7124,221.82178 C 255.72217,222.87061 255.47998,223.93701 255.62646,225.40381 C 258.11084,224.90381 259.13037,227.23486 258.67334,228.75147 C 260.21045,229.07764 261.32959,228.36084 262.1206,227.6499 C 262.3667,228.40283 263.07178,229.11963 263.91357,229.34619 C 264.44482,228.42529 265.27295,227.75537 266.28662,227.75537 C 267.31006,227.75537 268.15771,228.1499 268.5874,229.5708 C 269.73779,229.3208 271.11084,227.19092 270.43701,225.72217 C 271.60889,225.40381 272.77881,223.73291 272.83545,222.57764 C 273.6167,223.60205 274.64404,224.39307 275.74756,223.88916 C 275.63428,221.92529 277.28857,220.50439 278.39209,220.50439 C 279.03271,220.50439 279.56006,220.59619 279.97412,220.80908 C 280.1167,220.55225 280.22998,220.18701 280.22998,219.79346 C 280.22998,218.86377 279.44678,218.16162 278.74365,217.78174 C 280.8667,216.41943 282.896,213.65186 283.49951,211.85889 C 283.66748,213.02197 284.26318,213.93311 285.43506,214.17627 C 286.23779,213.50049 286.52295,212.94189 286.64404,211.44678 C 288.84717,212.1626 291.10889,212.01904 291.89404,210.64795 C 291.30811,210.14893 290.71631,209.29541 290.71631,208.17236 C 290.71631,205.26807 291.69482,204.11768 291.69482,201.4751 C 291.69482,198.77197 289.77881,196.56397 287.34912,196.56397 C 285.74756,196.56397 284.36475,197.19678 283.66162,197.99854 C 280.61475,197.99854 277.47803,194.63916 277.47803,190.94971 C 277.47803,187.43604 279.71631,185.34326 282.40185,184.06397 C 284.05615,184.78369 286.7417,185.61377 289.56982,185.61377 C 292.38818,185.61377 294.56006,184.78369 295.58545,183.81592 C 295.97607,184.22119 296.8335,184.94287 298.01514,184.94287 C 300.06396,184.94287 301.37061,184.34424 302.39404,183.06787 C 303.40576,181.79053 304.21631,180.52686 306.00928,179.01904 C 304.59912,178.21436 302.8335,178.45264 301.37646,179.55713"
       id="path19"
       style="fill:#ffffff" />
    <path
       d="M 218.85205,145.39258 C 220.51025,142.12402 223.50586,138.7793 226.88477,137.97559 C 226.7002,137.0293 226.51611,136.34961 226.51611,134.69141 C 226.51611,134.05176 226.71045,133.02148 226.8877,132.43164 C 222.9082,130.3623 216.50928,126.49316 215.30127,124.77441 C 211.85791,119.88379 208.93262,118.05957 208.97363,115.39746 C 208.98779,114.2959 209.72461,112.73145 209.72461,111.34277 C 209.72461,109.95312 208.02295,109.33203 206.94336,109.33203 C 205.69385,109.33203 204.38428,109.71973 204.32275,110.87598 C 204.26611,112.03223 204.72656,113.06152 204.89062,113.6582 C 205.10498,114.45996 205.00293,115.58984 204.86572,116.47656 C 203.72949,115.23535 202.62402,113.7998 202.62402,112.53223 C 202.62402,111.2334 201.49756,110.28906 200.19482,110.34766 C 198.89063,110.41113 196.81348,111.97754 196.81348,113.49609 C 196.81348,114.82031 197.80029,115.33594 198.70654,115.92188 C 199.29492,116.31055 199.94336,116.78027 200.32129,118.16797 C 199.32959,117.60547 198.57227,117.41504 197.38135,117.41504 C 196.18945,117.41504 194.54639,117.98047 194.54639,120.05957 C 194.54639,122.66797 196.46436,123.6748 198.61963,123.96289 C 198.45605,125.875 200.1333,128.82813 203.10547,128.82813 C 203.75488,128.82813 204.40479,128.50391 204.69141,128.07324 C 208.27246,132.94531 208.81104,136.61816 208.8291,139.48438 C 210.18555,139.48438 211.4043,139.12891 211.66895,137.05371 C 212.99414,140.91992 212.80469,143.9834 211.75,146.90625 C 213.17285,147.1377 215.23975,146.45801 215.75635,144.89648 C 217.07715,147.1123 217.18506,147.82715 217.22559,148.92383 C 218.08496,147.74219 217.99658,147.06934 218.85205,145.39258"
       id="path21"
       style="fill:#ffffff" />
    <path
       d="M 265.55811,177.89014 C 263.62646,175.61865 259.60303,174.37256 256.7085,174.26807 C 256.69873,174.26807 256.72021,174.24658 256.68311,174.28857 C 260.14404,175.13721 261.59131,176.45459 262.5542,177.76416 C 263.93311,177.55225 265.10498,177.68604 265.55811,177.89014"
       id="path23"
       style="fill:#ffffff" />
    <path
       d="M 256.10693,175.02295 C 255.50537,175.70947 254.8374,176.29248 254.21826,176.29248 C 251.72998,176.29248 250.09424,176.16357 247.80908,176.16357 C 237.74121,176.16357 230.3208,182.48389 230.3208,189.71436 C 230.3208,194.13623 230.1333,195.10889 228.75537,196.62256 C 229.35986,197.09424 230.2915,197.40088 231.08398,197.36865 C 229.74951,200.98096 223.61914,202.15088 222.13672,202.15088 C 220.05957,202.15088 220.00342,200.19971 217.6543,200.19971 C 216.12988,200.19971 214.20801,200.90088 214.20801,202.65771 C 214.20801,203.45654 214.39551,204.33252 214.69824,204.82861 C 213.84863,204.35596 212.89209,204.24463 212.09326,204.24463 C 210.68115,204.24463 209.11133,205.55518 209.11133,207.3501 C 209.11133,209.02295 210.20215,210.73389 211.51953,210.73389 C 212.28857,210.73389 212.89209,210.67627 213.52197,210.5083 C 212.34033,212.12939 212.08398,213.60596 213.33691,214.81201 C 213.57715,214.22217 214.40576,213.28564 216.02197,213.28564 C 217.22559,213.28564 218.52441,214.42725 218.22217,216.12842 C 219.54834,215.80811 221.45605,214.72119 221.09717,211.37646 C 222.13672,211.37646 223.24121,211.07373 223.6958,210.55713 C 223.94238,211.65381 224.60156,212.73682 225.9126,213.24463 C 226.26904,212.57275 227.21728,211.51123 228.33691,211.51123 C 229.57031,211.51123 230.14844,212.06299 230.50586,212.63623 C 231.146,211.75537 231.52344,211.00732 230.98291,209.42041 C 232.79395,208.95654 236.72705,207.51807 238.83545,206.06299 L 239.76123,207.90869 C 241.26953,207.32178 242.71289,206.01025 243.5376,204.72217 C 244.2793,205.729 244.33545,206.70557 244.41162,207.95752 C 247.34326,205.92139 250.23926,203.27002 250.23926,198.53662 C 250.23926,194.21729 248.56543,194.2583 248.56543,191.91943 C 248.56543,189.59619 250.68457,186.42236 254.09912,186.42236 C 254.86475,186.42236 255.2085,186.43115 255.61279,186.4585 C 256.18115,182.63525 258.65771,179.06592 261.46826,178.0415 C 260.33545,176.63525 258.42334,175.60791 256.10693,175.02295"
       id="path25"
       style="fill:#ffffff" />
    <path
       d="M 241.18457,119.86523 C 241.23486,120.02441 241.33691,120.24902 241.39893,120.32617 C 241.39893,120.32617 242.17578,120.12891 242.17578,120.12109 C 242.19092,120.04883 242.19531,119.87695 242.19531,119.77637 C 241.82764,119.89062 241.48975,119.87988 241.18457,119.86523"
       id="path27"
       style="fill:#ffffff" />
    <path
       d="M 242.02295,123.93262 C 242.22705,123.63184 242.49219,123.48438 242.93701,123.38965 C 242.79541,123.16504 242.70605,123.01367 242.6499,122.81445 C 242.6499,122.81055 241.99707,123.0625 241.99707,123.05566 C 241.94531,123.26465 241.88867,123.51855 242.02295,123.93262"
       id="path29"
       style="fill:#ffffff" />
    <g
       id="g31">
      <g
         id="g33">
        <g
           id="g35">
          <path
             d="M 273.9624,135.00488 C 274.88818,127.85254 274.68311,124.53906 274.15576,123.30957 C 275.51709,123.23437 276.67334,123.0459 277.72607,122.58398 C 276.55225,121.44336 274.67334,119.0752 274.07373,116.99609 C 273.57764,115.28027 272.43506,112.56152 271.02881,112.03223 C 271.96045,111.73535 272.62842,111.32617 273.43311,110.18164 C 271.02881,109.04297 269.9917,107.59766 267.57373,106.37109 C 268.34131,105.9248 269.01123,105.12305 269.23389,104.29199 C 267.97803,104.12305 266.77686,103.64355 265.58545,103.06348 C 265.39404,104.00391 265.06006,104.86914 264.04639,105.99414 L 263.35303,105.40332 C 263.98389,104.67383 264.72021,103.53027 264.72021,102.60938 C 264.72021,101.33008 263.68896,100.0752 262.97998,99.665039 C 262.21045,99.220703 261.51904,99.290039 259.90186,100.39063 C 259.36279,100.77539 258.10303,101.92773 257.38037,102.54883 L 256.87256,101.94531 C 257.57764,101.26465 258.47607,100.54492 258.90967,100.17578 C 258.43701,100.08105 258.05615,100.05957 257.75342,100.05957 C 256.39209,100.05957 255.06201,100.24121 253.99951,101.06934 C 247.20557,101.06934 243.70654,104.93066 242.96924,106.75977 C 240.35937,108.29785 237.47363,110.64258 237.47363,112.32617 C 237.47363,112.77051 237.53564,113.05176 237.63428,113.24902 C 238.33447,112.88867 239.01416,112.29199 239.62744,111.74707 L 240.04248,112.21289 C 239.521,112.74219 238.44141,113.59082 237.98535,113.88281 C 237.64746,114.3291 237.5625,115.06641 237.5625,115.7002 C 237.5625,117.57715 239.51025,119.19043 241.53027,119.19043 C 244.41162,119.19043 245.4292,116.52441 245.26123,115.29688 C 246.82568,115.1709 251.26709,116.74902 251.26709,121.2998 C 251.26709,124.13965 248.15186,124.44043 247.0625,124.44043 C 245.9668,124.44043 245.1582,124.10449 243.95166,124.10449 C 242.74365,124.10449 242.18701,124.53223 242.18701,125.34375 C 242.18701,126.44531 243.45947,127.43555 244.84131,127.43555 C 246.20117,127.43555 246.30029,126.31445 247.38867,126.31445 C 248.02881,126.31445 249.11914,126.64941 249.11914,128.43066 C 249.11914,130.19629 247.2666,130.94141 245.4248,130.94141 C 241.16797,130.94141 238.24219,127.83984 237.00342,127.83984 L 237.00342,131.7207 C 233.05859,131.7207 231.74902,130.62012 230.11133,129.11719 C 228.76123,130.2168 227.27881,132.33203 227.27881,134.72754 C 227.27881,136.38867 227.41553,137.75488 227.75293,138.70605 C 224.38232,139.18555 220.9082,142.4707 219.25635,146.31738 C 218.19775,148.7666 217.91113,150.06836 215.74609,150.9917 C 216.9585,153.98779 219.65527,155.51025 222.2124,155.60596 C 220.60156,157.43604 221.54248,161.44482 222.72998,161.62061 C 224.28906,160.18897 225.95313,159.86963 227.74854,159.86963 C 231.89111,159.86963 234.12744,161.33936 238.14502,161.33936 C 245.78906,161.33936 250.66211,158.73975 254.35693,155.49365 C 256.03857,156.29932 258.49951,156.73486 259.646,156.73486 C 261.90186,156.73486 263.83154,155.88135 264.81201,154.52197 C 264.03662,153.49561 263.08545,150.97705 263.75732,149.13867 C 264.68897,149.89746 266.4292,150.4541 267.77295,150.16113 C 267.48389,147.03906 268.271,144.29883 269.17725,143.09961 C 270.2085,141.72559 270.86475,139.95996 271.10498,138.7793 L 274.87256,138.7793 C 274.32373,137.94043 273.7417,136.6709 273.9624,135.00488 z M 248.5,109.39844 C 248.5,109.39844 248.10107,108.72363 247.68604,108.33398 C 247.50684,108.82617 246.7915,109.5459 246.06982,109.5459 C 245.03125,109.5459 244.37598,108.60254 244.37598,107.75195 C 244.37598,107.35742 244.57031,106.7334 244.87744,106.38281 C 246.11621,106.49707 247.76904,107.18262 249.04102,108.96875 C 249.0376,108.96191 248.5,109.39844 248.5,109.39844 z"
             id="path37"
             style="fill:#ffffff" />
        </g>
      </g>
    </g>
    <path
       d="M 245.03564,107.02539 L 245.03564,107.02539 M 244.84717,107.80762 C 244.84717,108.41992 245.27783,109.07422 246.06006,109.07422 C 246.6626,109.07422 247.17969,108.4082 247.30762,108.05859 C 246.87646,107.59277 245.96289,107.03223 245.07666,106.94727 C 244.91748,107.15332 244.84717,107.52441 244.84717,107.80762 z"
       id="path39"
       style="fill:#ffffff" />
    <path
       d="M 250.31445,120.00195 C 249.70166,119.91211 248.98047,119.83984 247.31348,119.83984 C 245.25049,119.83984 243.36768,120.50098 241.93457,120.91992 C 240.49805,121.33984 239.69482,121.66309 237.67432,121.66309 C 233.71777,121.66309 232.17432,119.68652 232.17432,118.09375 C 232.17432,117.04687 232.53711,116.20605 233.23242,115.34082 C 232.90576,115.07031 232.45605,114.95996 232.02441,114.95996 C 230.66357,114.95996 229.09912,116.13086 229.09912,118.4834 C 229.09912,122.09375 232.39307,123.76465 235.63721,123.76465 C 238.60937,123.76465 241.44385,122.5 242.70605,122.04492 C 243.97217,121.59375 245.74219,121.17969 246.84717,121.17969 C 248.82764,121.17969 249.54834,121.32812 250.42773,121.53809 C 250.44385,121.44336 250.46387,121.26367 250.46387,121.10937 C 250.46387,120.62598 250.39746,120.30371 250.31445,120.00195"
       id="path41"
       style="fill:#ffffff" />
    <path
       d="M 206.37891,108.55566 C 207.05078,108.55566 207.56689,108.58398 208.05664,108.72852 C 207.52881,107.3291 206.62402,106.48633 205.07568,106.48633 C 203.57178,106.48633 202.71143,107.08887 202.23926,107.84766 C 203.20166,108.38184 203.70898,108.80176 204.10352,109.45215 C 204.73779,108.80176 205.60303,108.55566 206.37891,108.55566"
       id="path43"
       style="fill:#efcf4d" />
    <path
       d="M 200.45508,109.63379 C 199.85254,108.63965 198.96094,108.23633 197.81104,108.23633 C 196.08691,108.23633 195.02197,109.70898 194.8501,111.14355 C 195.65137,111.18164 196.14697,111.34766 196.64844,111.65723 C 197.29932,110.77246 198.74072,109.53027 200.45508,109.63379"
       id="path45"
       style="fill:#efcf4d" />
    <path
       d="M 193.94678,118.89941 C 192.63281,119.16406 191.46191,120.48438 191.46191,122.26465 C 191.46191,123.69336 192.22852,124.81738 192.79199,125.49316 C 193.11328,124.12793 193.91162,123.28809 194.63721,122.9502 C 193.93799,122.00488 193.45117,120.56836 193.94678,118.89941"
       id="path47"
       style="fill:#efcf4d" />
    <path
       d="M 199.56494,128.21777 C 198.95166,128.73535 198.61426,129.06738 197.09521,129.37793 C 197.42188,129.97754 198.55273,131.33887 200.03467,131.33887 C 201.1665,131.33887 202.43555,130.74219 203.2124,129.5625 C 201.23828,129.58398 200.30322,128.88086 199.56494,128.21777"
       id="path49"
       style="fill:#efcf4d" />
    <path
       d="M 191.6875,167.146 C 190.67334,167.51514 190.18213,168.43701 190.18213,169.37939 C 190.18213,170.65576 190.89404,171.66943 191.9585,172.60107 C 192.2959,171.22803 193.07324,170.63428 193.54346,170.35693 C 193.87744,169.37939 193.2583,167.38525 191.6875,167.146"
       id="path51"
       style="fill:#efcf4d" />
    <path
       d="M 195.20166,157.56104 C 194.93457,157.49756 194.50098,157.40771 193.97803,157.40771 C 192.14307,157.40771 191.0415,158.67041 190.43896,160.08643 C 191.44189,160.03857 192.14795,160.18896 192.69971,160.47998 C 192.80225,159.62256 193.62061,158.26807 195.20166,157.56104"
       id="path53"
       style="fill:#efcf4d" />
    <path
       d="M 198.29004,173.98682 C 197.23682,173.98682 196.88965,174.88623 196.76074,175.18896 C 196.6123,176.50928 198.04102,177.94678 199.58984,177.87549 C 199.51465,177.05029 199.67236,176.1499 199.9126,175.52881 C 199.60596,174.61182 199.04785,173.98682 198.29004,173.98682"
       id="path55"
       style="fill:#efcf4d" />
    <path
       d="M 207.20801,170.14307 C 205.76074,170.14307 205.86816,171.61572 205.91455,172.46729 C 206.09326,172.99854 206.60547,173.78955 207.07959,174.32764 C 208.5542,173.28369 208.78467,172.67529 208.99316,171.75635 C 208.66553,170.69385 208.05664,170.14307 207.20801,170.14307"
       id="path57"
       style="fill:#efcf4d" />
    <path
       d="M 215.78271,199.59033 C 215.52539,199.38623 215.07568,199.14111 214.24854,199.14111 C 212.43701,199.14111 211.46436,200.72314 211.33154,202.24951 C 211.86816,202.15674 212.86182,202.13818 213.41943,202.37646 C 213.40918,200.9624 214.4165,200.11865 215.78271,199.59033"
       id="path59"
       style="fill:#efcf4d" />
    <path
       d="M 208.78467,205.60498 C 207.78271,205.78076 206.18506,206.92822 206.18506,208.87646 C 206.18506,210.31104 206.8252,211.36572 207.44434,212.12158 C 207.91846,210.92236 208.5542,210.48682 209.12207,210.07764 C 208.19434,208.76709 208.03027,206.77295 208.78467,205.60498"
       id="path61"
       style="fill:#efcf4d" />
    <path
       d="M 215.88574,214.05615 C 214.57959,214.05615 213.92578,215.13232 213.79199,215.63232 C 213.76514,216.81396 214.92822,218.0415 215.83447,218.53467 C 216.52344,218.03857 217.09131,217.09619 217.32178,216.59619 C 217.67041,215.6958 217.35303,214.05615 215.88574,214.05615"
       id="path63"
       style="fill:#efcf4d" />
    <path
       d="M 228.43994,212.24561 C 227.31934,212.24561 226.60156,213.6167 226.59863,213.60596 C 227.20703,214.22217 227.49268,214.78467 227.01709,216.10791 C 228.61768,216.06201 230.3584,214.85498 230.19434,213.60596 C 230.19434,213.60596 229.57031,212.24561 228.43994,212.24561"
       id="path65"
       style="fill:#efcf4d" />
    <path
       d="M 257.51123,215.69873 C 257.27295,215.55029 256.76123,215.43896 256.26904,215.43896 C 253.87451,215.43896 252.82178,217.55615 253.35693,220.35889 C 253.9624,219.60791 254.59326,219.34229 255.24756,219.18408 C 255.0835,217.86279 256.16748,216.22705 257.51123,215.69873"
       id="path67"
       style="fill:#efcf4d" />
    <path
       d="M 256.14014,226.08838 C 255.83936,226.08838 255.41553,226.14502 254.9917,226.3042 C 254.42334,226.76416 253.97607,227.40479 253.97607,228.84326 C 253.97607,229.979 254.58154,231.04053 255.28271,231.35693 C 256.22021,229.86963 257.22021,229.17334 257.72803,228.90283 C 258.2085,227.56201 257.62646,226.08838 256.14014,226.08838"
       id="path69"
       style="fill:#efcf4d" />
    <path
       d="M 266.25732,228.50928 C 265.48389,228.50928 264.90186,229.04639 264.3667,229.96826 C 264.94287,231.2085 265.33936,232.43311 265.39404,233.59521 C 266.78662,232.72607 267.62256,231.55908 267.87256,230.36572 C 267.78662,229.49658 267.27881,228.50928 266.25732,228.50928"
       id="path71"
       style="fill:#efcf4d" />
    <path
       d="M 276.62256,224.18213 C 277.17529,224.44287 277.66357,224.84717 278.26318,226.25342 C 279.12256,226.10986 280.63037,224.68896 280.63037,223.36279 C 280.63037,223.08447 280.51709,222.40283 280.12061,221.90381 C 279.68115,221.55908 278.91943,221.39795 278.40576,221.39795 C 277.74365,221.39795 276.48389,222.41943 276.62256,224.18213"
       id="path73"
       style="fill:#efcf4d" />
    <path
       d="M 296.39795,127.04199 C 302.27881,124.64355 305.07373,119.79785 305.07373,114.62207 C 305.07373,114.20703 305.06396,113.82129 305.05225,113.44727 L 300.83936,113.44727 C 299.19678,114.81543 297.26318,115.82617 295.41943,116.44141 C 295.84131,115.64453 296.17139,114.62695 296.20654,113.44727 C 296.22412,112.82129 296.15771,112.14551 295.96826,111.42578 C 295.23389,111.79687 293.4917,112.87793 292.47803,113.34375 C 292.41357,113.37988 292.34131,113.41211 292.25928,113.44727 C 289.9292,114.51562 283.75342,117.28906 284.86475,125.85937 C 284.45654,126.21484 284.01318,126.6084 283.54248,127.04199 L 296.39795,127.04199"
       id="path75"
       style="fill:#e10000" />
    <path
       d="M 198.61963,123.96289 C 198.54248,124.89355 198.90479,126.0791 199.63623,127.04199 L 217.93115,127.04199 C 216.66797,126.14746 215.69971,125.34375 215.30127,124.77441 C 211.85791,119.88379 208.93262,118.05957 208.97363,115.39746 C 208.98291,114.8418 209.17773,114.16113 209.36768,113.44727 L 204.82861,113.44727 C 204.85059,113.52051 204.87549,113.5957 204.89063,113.6582 C 205.10498,114.45996 205.00293,115.58984 204.86572,116.47656 C 203.99609,115.52246 203.146,114.46484 202.79248,113.44727 L 196.81592,113.44727 C 196.81348,113.46387 196.81348,113.48047 196.81348,113.49609 C 196.81348,114.82031 197.80029,115.33594 198.70654,115.92188 C 199.29492,116.31055 199.94336,116.78027 200.32129,118.16797 C 199.32959,117.60547 198.57227,117.41504 197.38135,117.41504 C 196.18945,117.41504 194.54639,117.98047 194.54639,120.05957 C 194.54639,122.66797 196.46436,123.6748 198.61963,123.96289"
       id="path77"
       style="fill:#e10000" />
    <g
       id="g79">
      <g
         id="g81">
        <g
           id="g83">
          <path
             d="M 277.72607,122.58398 C 276.55225,121.44336 274.67334,119.0752 274.07373,116.99609 C 273.771,115.94141 273.22021,114.51563 272.51904,113.44727 L 238.59082,113.44727 C 238.34961,113.63184 238.13428,113.79004 237.98535,113.88281 C 237.64746,114.3291 237.5625,115.06641 237.5625,115.7002 C 237.5625,117.57715 239.51025,119.19043 241.53027,119.19043 C 244.41162,119.19043 245.4292,116.52441 245.26123,115.29688 C 246.82568,115.1709 251.26709,116.74902 251.26709,121.2998 C 251.26709,124.13965 248.15186,124.44043 247.0625,124.44043 C 245.9668,124.44043 245.1582,124.10449 243.95166,124.10449 C 242.74365,124.10449 242.18701,124.53223 242.18701,125.34375 C 242.18701,126.02246 242.66602,126.6543 243.35742,127.04199 C 243.79199,127.28906 244.30908,127.43555 244.84131,127.43555 C 245.38867,127.43555 245.72607,127.25879 246.00781,127.04199 C 246.43213,126.71875 246.73535,126.31445 247.38867,126.31445 C 247.8042,126.31445 248.40234,126.46094 248.77686,127.04199 L 274.60107,127.04199 C 274.60498,125.10547 274.42529,123.93555 274.15576,123.30957 C 275.51709,123.23438 276.67334,123.0459 277.72607,122.58398 z"
             id="path85"
             style="fill:#e1393e" />
        </g>
      </g>
    </g>
    <path
       d="M 242.19531,119.77637 C 241.82764,119.89062 241.48975,119.87988 241.18457,119.86523 C 241.23486,120.02441 241.33691,120.24902 241.39893,120.32617 C 241.39893,120.32617 242.17578,120.12891 242.17578,120.12109 C 242.19092,120.04883 242.19531,119.87695 242.19531,119.77637"
       id="path87"
       style="fill:#e10000" />
    <path
       d="M 242.93701,123.38965 C 242.79541,123.16504 242.70605,123.01367 242.6499,122.81445 C 242.6499,122.81055 241.99707,123.0625 241.99707,123.05566 C 241.94531,123.26465 241.88867,123.51855 242.02295,123.93262 C 242.22705,123.63184 242.49219,123.48438 242.93701,123.38965"
       id="path89"
       style="fill:#e10000" />
    <path
       d="M 290.80811,140.06055 L 277.48779,140.06055 C 277.47412,140.35938 277.46436,140.66309 277.46436,140.97461 C 277.46436,144.94824 279.97412,149.81055 282.96826,153.65381 L 286.90771,153.65381 C 285.51123,152.31396 284.5874,150.39746 284.5874,148.11621 C 284.5874,143.43945 287.46045,141.45898 290.80811,140.06055"
       id="path91"
       style="fill:#e10000" />
    <path
       d="M 295.00732,153.65381 C 297.02295,151.15283 302.87842,151.32178 302.87842,147.1377 C 302.0249,148.40137 300.98975,148.98242 299.49756,148.98242 C 298.01514,148.98242 296.04834,148.07129 294.08545,148.07129 C 290.41943,148.07129 288.93115,150.66064 288.93115,151.94189 C 288.93115,152.56787 288.93311,153.12939 289.00732,153.65381 L 295.00732,153.65381"
       id="path93"
       style="fill:#e10000" />
    <path
       d="M 211.75,146.90625 C 213.17285,147.1416 215.23975,146.45801 215.75635,144.89648 C 217.07715,147.1123 217.18506,147.82715 217.22559,148.92383 C 218.08496,147.74219 217.99658,147.06934 218.85205,145.39258 C 219.82422,143.45996 221.28271,141.50195 223.00146,140.06055 L 212.43115,140.06055 C 212.8252,142.58398 212.51953,144.7793 211.75,146.90625"
       id="path95"
       style="fill:#e10000" />
    <path
       d="M 219.25635,146.31738 C 218.19775,148.7666 217.91113,150.06836 215.74609,150.9917 C 216.18262,152.07471 216.81543,152.95361 217.56299,153.65381 L 264.29639,153.65381 C 263.69092,152.43213 263.22803,150.57666 263.75732,149.13867 C 264.68896,149.89746 266.4292,150.4541 267.77295,150.16113 C 267.48389,147.03906 268.271,144.29883 269.17725,143.09961 C 269.88232,142.16504 270.40576,141.05469 270.74561,140.06055 L 224.39307,140.06055 C 222.25488,141.46387 220.35059,143.76367 219.25635,146.31738"
       id="path97"
       style="fill:#e10000" />
    <path
       d="M 301.37646,179.55713 C 305.24951,174.77881 303.81396,169.56592 303.81396,167.1665 C 303.81396,166.99854 303.82568,166.83936 303.84131,166.67529 L 298.86279,166.67529 C 299.69287,167.90869 300.21045,169.32178 300.21045,171.00439 C 300.21045,175.27393 298.00537,178.69678 294.63818,180.26807 L 304.67725,180.26807 C 305.05811,179.8667 305.4917,179.45166 306.00928,179.01904 C 304.59912,178.21436 302.8335,178.45264 301.37646,179.55713"
       id="path99"
       style="fill:#e10000" />
    <path
       d="M 278.37451,166.67529 L 238.33447,166.67529 C 244.06885,171.41162 249.8457,172.86865 257.09326,173.34912 C 263.33545,173.76514 266.96631,177.44092 267.50342,179.27979 C 266.52686,178.77393 265.30615,178.51318 263.74756,178.51318 C 262.25928,178.51318 260.87646,179.18115 259.71826,180.26807 L 286.45654,180.26807 C 286.2085,180.10889 285.95264,179.94482 285.70068,179.74072 C 286.31396,179.08545 286.63037,178.0415 286.63037,176.77979 C 286.63037,172.65967 283.10498,169.61768 278.37451,166.67529"
       id="path101"
       style="fill:#e10000" />
    <path
       d="M 210.65186,168.94971 C 210.62012,168.03467 210.47266,167.65186 209.97607,167.2124 C 210.10254,167.07178 210.38965,166.86768 210.80029,166.67529 L 192.74121,166.67529 C 193.97803,167.28955 194.68408,169.05811 194.35156,170.20654 C 194.47461,170.54346 195.09424,170.88135 195.75342,170.68994 C 195.54883,171.54932 195.05762,173.37451 196.36377,174.44385 C 196.86914,173.48682 197.54004,173.1626 198.50635,173.1626 C 199.46631,173.1626 200.29688,174.08154 200.52734,174.73877 C 201.16016,174.59521 201.86768,173.98682 201.86768,173.14209 C 201.86768,171.46143 202.71143,170.33545 203.42725,170.29346 C 203.65772,171.32275 204.54785,171.65771 205.2793,171.89307 C 205.16113,170.06006 206.38525,169.47705 207.1875,169.47705 C 208.45703,169.47705 209.00439,170.02979 209.48633,170.96143 C 210.22559,170.68018 210.68652,169.86865 210.65186,168.94971"
       id="path103"
       style="fill:#e10000" />
    <path
       d="M 234.43945,167.88037 C 234.98291,167.61279 235.36084,167.18115 235.62158,166.67529 L 232.20947,166.67529 C 232.98193,167.0083 233.68848,167.4165 234.43945,167.88037"
       id="path105"
       style="fill:#e10000" />
    <path
       d="M 222.41846,166.67529 L 218.63232,166.67529 C 219.51562,167.09326 220.3252,167.64209 221.24219,168.23877 C 221.72705,167.90186 222.18848,167.39209 222.41846,166.67529"
       id="path107"
       style="fill:#e10000" />
    <path
       d="M 226.35205,169.3501 C 227.00586,168.98193 227.95654,167.85596 228.21973,166.67529 L 224.27002,166.67529 C 224.95068,167.31787 225.60986,168.31689 226.35205,169.3501"
       id="path109"
       style="fill:#e10000" />
    <path
       d="M 262.5542,177.76416 C 263.93311,177.55225 265.10498,177.68604 265.55811,177.89014 C 263.62646,175.61865 259.60303,174.37256 256.7085,174.26807 C 256.69873,174.26807 256.72021,174.24658 256.68311,174.28857 C 260.14404,175.13721 261.59131,176.45459 262.5542,177.76416"
       id="path111"
       style="fill:#e10000" />
    <path
       d="M 261.46826,178.0415 C 260.33545,176.63525 258.42334,175.60791 256.10693,175.02295 C 255.50537,175.70947 254.8374,176.29248 254.21826,176.29248 C 251.72998,176.29248 250.09424,176.16357 247.80908,176.16357 C 242.74365,176.16357 238.35498,177.76416 235.23779,180.26807 L 258.42725,180.26807 C 259.32764,179.22705 260.37256,178.43896 261.46826,178.0415"
       id="path113"
       style="fill:#e10000" />
    <path
       d="M 287.34912,196.56396 C 285.74756,196.56396 284.36475,197.19678 283.66162,197.99854 C 281.27686,197.99854 278.84326,195.94678 277.89014,193.2876 L 256.96631,193.2876 C 257.51904,195.08936 258.54639,196.90381 260.41943,198.92725 C 263.66553,202.40771 264.52295,202.83447 264.52295,206.24561 C 266.30615,205.729 266.78662,204.84912 267.26904,203.68115 C 267.27881,204.85986 267.52881,205.96436 267.96045,206.87939 L 271.67334,206.87939 C 272.14404,206.28076 272.63428,205.81982 273.2085,205.45752 C 273.22803,205.94287 273.22021,206.41357 273.17725,206.87939 L 290.79053,206.87939 C 291.01514,204.85986 291.69482,203.68115 291.69482,201.4751 C 291.69482,198.77197 289.77881,196.56396 287.34912,196.56396"
       id="path115"
       style="fill:#e10000" />
    <path
       d="M 230.20459,193.2876 C 230.03564,194.88818 229.64258,195.64209 228.75537,196.62256 C 229.35986,197.09424 230.2915,197.40088 231.08398,197.36865 C 229.74951,200.98096 223.61914,202.15088 222.13672,202.15088 C 220.05957,202.15088 220.00342,200.19971 217.6543,200.19971 C 216.12988,200.19971 214.20801,200.90088 214.20801,202.65771 C 214.20801,203.45654 214.39551,204.33252 214.69824,204.82861 C 213.84863,204.35596 212.89209,204.24463 212.09326,204.24463 C 210.81006,204.24463 209.40332,205.33057 209.15674,206.87939 L 237.47021,206.87939 C 237.97461,206.60791 238.43555,206.3374 238.83545,206.06299 L 239.23975,206.87939 L 241.52441,206.87939 C 242.33838,206.25537 243.0498,205.48193 243.5376,204.72217 C 244.04932,205.42139 244.22705,206.10107 244.3252,206.87939 L 245.86377,206.87939 C 248.22803,204.97119 250.23926,202.4751 250.23926,198.53662 C 250.23926,195.25146 249.26709,194.49072 248.80664,193.2876 L 230.20459,193.2876"
       id="path117"
       style="fill:#e10000" />
    <path
       d="M 257.7124,221.82178 C 255.72217,222.87061 255.47998,223.93701 255.62646,225.40381 C 258.11084,224.90381 259.13037,227.23486 258.67334,228.75146 C 260.21045,229.07764 261.32959,228.36084 262.12061,227.6499 C 262.3667,228.40283 263.07178,229.11963 263.91357,229.34619 C 264.44482,228.42529 265.27295,227.75537 266.28662,227.75537 C 267.31006,227.75537 268.15771,228.1499 268.5874,229.5708 C 269.73779,229.3208 271.11084,227.19092 270.43701,225.72217 C 271.60889,225.40381 272.77881,223.73291 272.83545,222.57764 C 273.6167,223.60205 274.64404,224.39307 275.74756,223.88916 C 275.63428,221.92529 277.28857,220.50439 278.39209,220.50439 C 279.03271,220.50439 279.56006,220.59619 279.97412,220.80908 C 280.1167,220.56396 280.22022,220.19775 280.22022,219.79736 L 256.17725,219.79736 C 256.35889,220.73193 257.01123,221.41357 257.7124,221.82178"
       id="path119"
       style="fill:#e10000" />
    <path
       d="M 250.31445,120.00195 C 249.70166,119.91211 248.98047,119.83984 247.31348,119.83984 C 245.25049,119.83984 243.36768,120.50098 241.93457,120.91992 C 240.49805,121.33984 239.69482,121.66309 237.67432,121.66309 C 233.71777,121.66309 232.17432,119.68652 232.17432,118.09375 C 232.17432,117.04687 232.53711,116.20605 233.23242,115.34082 C 232.90576,115.07031 232.45605,114.95996 232.02441,114.95996 C 230.66357,114.95996 229.09912,116.13086 229.09912,118.4834 C 229.09912,122.09375 232.39307,123.76465 235.63721,123.76465 C 238.60937,123.76465 241.44385,122.5 242.70605,122.04492 C 243.97217,121.59375 245.74219,121.17969 246.84717,121.17969 C 248.82764,121.17969 249.54834,121.32812 250.42773,121.53809 C 250.44385,121.44336 250.46387,121.26367 250.46387,121.10937 C 250.46387,120.62598 250.39746,120.30371 250.31445,120.00195"
       id="path121"
       style="fill:#e10000" />
    <path
       d="M 182.25293,80.769531 C 182.25293,80.166016 182.32959,79.685547 183.27588,79.43457 C 183.91016,79.266602 184.70459,79.581055 185.70752,79.985352 C 186.9541,80.487305 188.50977,81.116211 189.94775,80.733399 C 190.53662,80.575196 190.82715,80.438477 190.92432,80.270508 C 191.02148,80.110352 190.99072,79.78418 190.83301,79.161133 C 190.69873,78.636719 190.20898,77.484375 189.41016,76.458008 L 189.24658,76.254883 L 189.37988,76.027344 C 190.42285,74.217774 190.82715,71.697266 190.37256,69.898438 C 190.20898,69.272461 190.04492,68.69336 189.84473,68.580078 C 189.68115,68.480469 189.24023,68.584961 188.80664,68.698242 C 187.65479,69.008789 186.77539,69.941406 186.36621,70.643555 L 186.27539,70.81543 C 185.92529,71.423828 185.50146,72.182617 184.53467,72.44043 C 183.46533,72.722656 182.78027,72.072266 182.59521,71.348633 C 182.38086,70.511719 182.75391,69.717773 183.11182,68.948242 C 183.44531,68.243164 183.75293,67.580078 183.59277,66.958984 C 183.53662,66.74707 183.49609,66.699219 183.47949,66.689453 C 183.45605,66.672852 183.33838,66.629883 182.89355,66.751953 C 182.49316,66.856445 181.89502,67.074219 181.51562,67.291016 L 180.90771,67.642578 L 180.95947,66.929688 C 181.02588,66.195313 181.20459,63.959961 180.8916,63.697266 C 180.86182,63.668945 180.74902,63.661133 180.41113,63.750977 C 180.20752,63.800781 179.70996,64.038086 179.2915,64.368164 L 178.94287,64.639649 L 178.73389,64.248047 C 178.36572,63.555664 177.46582,62.481445 176.31396,62.351563 C 176.54834,63.273438 180.39258,78.253906 180.39258,78.253906 L 180.39258,78.301758 C 180.39258,82.615235 181.25,84.179688 184.58691,85.907227 L 186.146,86.678711 C 187.08154,86.269531 187.7627,86.007813 188.29443,85.810547 C 184.3916,84.316406 182.25293,82.545898 182.25293,80.769531"
       id="path123"
       style="fill:#efcf4d" />
    <path
       d="M 321.26123,64.248047 L 321.05225,64.639649 L 320.71436,64.368164 C 320.29248,64.038086 319.79639,63.800781 319.58936,63.750977 C 319.24561,63.661133 319.14209,63.668945 319.10303,63.697266 C 318.80029,63.959961 318.97607,66.195313 319.03662,66.929688 L 319.08936,67.642578 L 318.47607,67.291016 C 318.11279,67.074219 317.49951,66.856445 317.10107,66.751953 C 316.66162,66.629883 316.55029,66.672852 316.51514,66.689453 C 316.50342,66.699219 316.46045,66.74707 316.40576,66.958984 C 316.24756,67.580078 316.55615,68.243164 316.88037,68.948242 C 317.24756,69.717774 317.62061,70.511719 317.40576,71.348633 C 317.21826,72.072266 316.53662,72.722656 315.4624,72.44043 C 314.49756,72.182617 314.06592,71.423828 313.72607,70.8125 L 313.62842,70.643555 C 313.22412,69.941406 312.34521,69.008789 311.18506,68.698242 C 310.75342,68.584961 310.31592,68.480469 310.1499,68.580078 C 309.94873,68.693359 309.78857,69.272461 309.63037,69.898438 C 309.17139,71.697266 309.5835,74.217774 310.61475,76.027344 L 310.74756,76.254883 L 310.5874,76.458008 C 309.78857,77.484375 309.30225,78.636719 309.16748,79.161133 C 308.86475,80.330078 308.93311,80.434571 310.05029,80.733399 C 311.48584,81.116211 313.05029,80.487305 314.29248,79.985352 C 315.29639,79.581055 316.08545,79.266602 316.71826,79.43457 C 317.66748,79.685547 317.74365,80.166016 317.74365,80.769531 C 317.74365,82.649414 315.34912,84.520508 310.99561,86.064453 C 310.88623,86.114258 309.09326,86.678711 307.33154,87.413086 C 304.90186,88.422852 303.18115,89.466797 302.18896,90.655274 L 301.90771,90.998047 L 301.61865,90.655274 C 300.68506,89.523438 299.19678,88.558594 296.81787,87.564453 C 296.16162,87.874024 295.41553,88.213867 294.15576,88.77832 C 295.63818,89.460938 296.51709,90.021484 296.51709,90.863281 C 296.51709,92.118164 295.4292,92.75 293.29053,92.75 C 291.15381,92.75 290.07764,92.118164 290.07764,90.863281 C 290.07764,89.878906 291.31787,89.237305 293.07178,88.427734 C 293.07178,88.427734 295.22217,87.46875 295.89014,87.123047 C 296.55615,86.77832 297.75928,86.138672 297.75928,86.138672 C 298.8335,85.517578 300.15381,84.663086 301.75732,83.024414 L 302.0249,82.75 L 302.28467,83.030273 C 303.78662,84.605469 305.14795,85.484375 306.29443,86.138672 L 307.13037,86.579101 C 308.05225,86.188476 308.73193,85.966797 309.25928,85.789062 C 305.90381,84.399414 303.09131,82.374023 302.01123,80.56543 C 300.88623,82.388672 298.00537,84.449219 294.61084,85.844726 C 293.75342,86.244141 291.7085,86.929687 290.11475,87.62793 C 287.98779,88.543945 285.93701,89.979492 284.88037,91.30957 L 284.5874,91.671875 L 284.29834,91.302734 C 283.23389,89.958008 281.55225,88.738281 279.32764,87.678711 C 278.73779,87.966797 278.11475,88.271484 276.97803,88.773437 C 278.37451,89.447266 279.24365,90.027344 279.24365,90.863281 C 279.24365,92.126953 278.12842,92.766602 275.93506,92.766602 C 273.73584,92.766602 272.62061,92.126953 272.62061,90.863281 C 272.62061,89.852539 273.85107,89.266602 275.86084,88.386719 C 275.86084,88.386719 277.75928,87.55957 278.42725,87.239258 C 279.09521,86.914063 280.30615,86.244141 280.30615,86.244141 C 281.37451,85.625 282.9585,84.619141 284.28467,83.043945 L 284.56592,82.709961 L 284.84717,83.043945 C 286.17139,84.619141 287.76318,85.625 288.8374,86.244141 L 289.85498,86.77832 C 290.89014,86.333008 291.64209,86.069336 292.22217,85.862305 C 288.23389,84.358398 286.04834,82.564453 286.04834,80.769531 C 286.04834,80.03125 286.53076,79.287109 287.45459,79.287109 C 288.10889,79.287109 288.79443,79.795899 289.66357,80.447266 C 290.75342,81.256836 292.10693,82.264649 293.5835,82.264649 C 294.75146,82.264649 294.83154,82.173828 294.83154,80.969727 C 294.83154,80.430664 294.64209,79.188477 294.12256,77.983399 L 294.01904,77.74707 L 294.19873,77.564453 C 295.65381,76.075195 296.67529,73.746094 296.67529,71.889649 C 296.67529,70.324219 296.67529,70.324219 295.4624,70.324219 C 294.26904,70.324219 293.18701,70.998047 292.62061,71.578125 L 292.48193,71.713867 C 292.00342,72.21582 291.396,72.844727 290.3999,72.844727 C 289.29443,72.844727 288.79053,72.036133 288.79053,71.282227 C 288.79053,70.423828 289.34912,69.747071 289.88818,69.092774 C 290.38232,68.501953 290.84326,67.933594 290.84326,67.298828 C 290.84326,66.967774 290.84326,66.914063 290.22607,66.914063 C 289.80225,66.914063 289.16162,66.97168 288.75146,67.082032 L 288.07568,67.263672 L 288.3042,66.588868 C 288.54834,65.899414 289.2749,63.78125 289.03467,63.44336 C 289.01318,63.408203 288.90967,63.370118 288.55615,63.370118 C 288.34717,63.370118 287.80811,63.464844 287.32178,63.679688 L 286.91748,63.854493 L 286.81396,63.425782 C 286.5874,62.514649 285.62061,61.276368 284.56592,60.869141 C 283.50928,61.276368 282.55029,62.514649 282.32568,63.425782 L 282.22021,63.854493 L 281.81787,63.679688 C 281.32568,63.464844 280.79053,63.370118 280.58154,63.370118 C 280.22998,63.370118 280.12451,63.408203 280.10107,63.44336 C 279.86865,63.78125 280.59131,65.899414 280.82959,66.588868 L 281.06201,67.263672 L 280.38818,67.082032 C 279.96826,66.97168 279.33154,66.914063 278.91357,66.914063 C 278.28662,66.914063 278.28662,66.967774 278.28662,67.298828 C 278.28662,67.933594 278.75537,68.501953 279.25146,69.092774 C 279.78662,69.747071 280.34326,70.423828 280.34326,71.282227 C 280.34326,72.036133 279.83936,72.844727 278.73779,72.844727 C 277.73584,72.844727 277.13428,72.215821 276.65186,71.713867 L 276.51514,71.578125 C 275.95654,70.998047 274.87256,70.324219 273.67334,70.324219 C 272.46826,70.324219 272.46826,70.324219 272.46826,71.889649 C 272.46826,73.746094 273.47998,76.075196 274.93896,77.564453 L 275.11475,77.74707 L 275.00928,77.983399 C 274.49365,79.188477 274.30225,80.430664 274.30225,80.969727 C 274.30225,82.173828 274.38428,82.264649 275.55225,82.264649 C 277.03467,82.264649 278.38623,81.256836 279.47021,80.447266 C 280.33936,79.795899 281.0249,79.287109 281.6792,79.287109 C 282.60693,79.287109 283.08545,80.03125 283.08545,80.769531 C 283.08545,82.619141 280.77686,84.463867 276.56592,85.989258 C 275.85303,86.273438 274.08936,86.873047 272.63818,87.432617 C 270.88623,88.114258 268.5874,89.457031 267.58545,90.623047 L 267.3042,90.958008 L 267.03076,90.623047 C 266.07568,89.49707 264.5835,88.538086 262.19287,87.538086 C 261.53271,87.852539 260.80615,88.177735 259.52686,88.75293 C 261.04248,89.447266 261.94482,90.006836 261.94482,90.863282 C 261.94482,92.158203 260.8999,92.761719 258.64795,92.761719 C 256.39795,92.761719 255.34912,92.158203 255.34912,90.863282 C 255.34912,89.833008 256.61084,89.188477 258.3999,88.382813 C 258.3999,88.382813 260.44092,87.508789 261.22021,87.123047 C 262.00537,86.738282 263.02686,86.138672 263.02686,86.138672 C 264.11084,85.517578 265.42725,84.663086 267.03271,83.024414 L 267.29443,82.759766 L 267.55615,83.024414 C 268.92334,84.379883 270.12646,85.311524 271.56592,86.138672 L 272.43506,86.601563 C 273.3667,86.202149 274.04639,85.989258 274.57959,85.803711 C 271.20264,84.420899 268.37451,82.383789 267.28857,80.570313 C 266.15967,82.410157 263.29639,84.46875 259.93115,85.833985 C 259.58936,85.992188 257.1499,86.802735 255.39014,87.559571 C 252.95459,88.595703 251.16162,89.791016 250.14697,91.100586 L 249.86328,91.465821 L 249.57227,91.117188 C 248.5,89.844727 246.86865,88.684571 244.74365,87.667969 C 244.1709,87.954102 243.51514,88.263672 242.38525,88.764649 C 243.79199,89.438477 244.67139,90.027344 244.67139,90.863281 C 244.67139,91.728516 244.10107,92.766602 241.36084,92.766602 C 238.62549,92.766602 238.05273,91.728516 238.05273,90.863281 C 238.05273,89.852539 239.28076,89.266602 241.28516,88.386719 C 241.28516,88.386719 243.10693,87.583985 243.96191,87.188477 C 244.81689,86.790039 245.73242,86.244141 245.73242,86.244141 C 246.80664,85.625 248.38818,84.619141 249.7124,83.043946 L 249.99902,82.709961 L 250.28027,83.043946 C 251.60498,84.619141 253.18506,85.625 254.26318,86.244141 L 255.15186,86.738281 C 256.19287,86.291016 256.97021,86.019531 257.54443,85.820313 C 253.62061,84.325196 251.47217,82.551758 251.47217,80.769531 C 251.47217,80.03125 251.96045,79.287109 252.88818,79.287109 C 253.54443,79.287109 254.22998,79.795899 255.09912,80.447266 C 256.18115,81.256836 257.53467,82.264649 259.01123,82.264649 C 260.17725,82.264649 260.25928,82.173828 260.25928,80.969727 C 260.25928,80.430664 260.07178,79.188477 259.5542,77.983399 L 259.45459,77.747071 L 259.63037,77.564453 C 261.08936,76.075196 262.10303,73.746094 262.10303,71.889649 C 262.10303,70.324219 262.10303,70.324219 260.896,70.324219 C 259.69873,70.324219 258.61279,70.998047 258.05029,71.578125 L 257.91748,71.713867 C 257.43115,72.215821 256.82764,72.844727 255.82373,72.844727 C 254.72412,72.844727 254.22217,72.036133 254.22217,71.282227 C 254.22217,70.423828 254.78076,69.747071 255.31787,69.092774 C 255.81006,68.501953 256.26904,67.933594 256.26904,67.298828 C 256.26904,66.967774 256.26904,66.914063 255.65381,66.914063 C 255.23584,66.914063 254.59717,66.97168 254.18311,67.082032 L 253.50732,67.263672 L 253.73584,66.588868 C 253.97217,65.899414 254.69482,63.78125 254.4624,63.44336 C 254.44287,63.408203 254.33936,63.370118 253.98779,63.370118 C 253.771,63.370118 253.23975,63.464844 252.74561,63.679688 L 252.35107,63.854493 L 252.24365,63.425782 C 252.01709,62.514649 251.05225,61.276368 249.99902,60.869141 C 248.9458,61.276368 247.97852,62.514649 247.75293,63.425782 L 247.646,63.854493 L 247.24658,63.679688 C 246.75879,63.464844 246.21728,63.370118 246.00342,63.370118 C 245.65527,63.370118 245.55273,63.408203 245.53223,63.44336 C 245.2959,63.78125 246.01953,65.899414 246.25781,66.588868 L 246.49463,67.263672 L 245.81299,67.082032 C 245.3999,66.97168 244.76025,66.914063 244.34521,66.914063 C 243.72168,66.914063 243.72168,66.967774 243.72168,67.298828 C 243.72168,67.933594 244.18603,68.501953 244.67139,69.092774 C 245.21484,69.747071 245.77246,70.423828 245.77246,71.282227 C 245.77246,72.036133 245.27148,72.844727 244.16797,72.844727 C 243.1626,72.844727 242.56543,72.215821 242.07373,71.713867 L 241.94531,71.578125 C 241.37744,70.998047 240.29297,70.324219 239.10547,70.324219 C 237.89307,70.324219 237.89307,70.324219 237.89307,71.889649 C 237.89307,73.746094 238.9126,76.075196 240.36377,77.564453 L 240.54346,77.747071 L 240.44141,77.983399 C 239.9248,79.188477 239.73486,80.430664 239.73486,80.969727 C 239.73486,82.173828 239.81836,82.264649 240.97852,82.264649 C 242.4624,82.264649 243.8081,81.256836 244.89795,80.447266 C 245.76807,79.795899 246.45801,79.287109 247.11328,79.287109 C 248.03467,79.287109 248.51953,80.03125 248.51953,80.769531 C 248.51953,82.714844 245.9668,84.652344 241.33203,86.222656 C 241.33203,86.222656 239.25488,86.934571 238.07324,87.432617 C 235.70361,88.422852 233.95898,89.487305 232.96582,90.6875 L 232.67578,91.032227 L 232.39307,90.6875 C 231.45654,89.532227 229.94824,88.558594 227.53369,87.547852 C 226.90381,87.863281 226.23486,88.192383 224.9126,88.783203 C 226.39209,89.466797 227.26807,90.027344 227.26807,90.863281 C 227.26807,92.136719 226.20459,92.755859 224.02344,92.755859 C 221.83936,92.755859 220.78174,92.136719 220.78174,90.863281 C 220.78174,89.838867 222.02393,89.198242 223.77344,88.40918 C 223.77344,88.40918 225.77783,87.527344 226.65674,87.109375 C 227.53369,86.683594 228.45996,86.138672 228.45996,86.138672 C 229.5376,85.517578 230.85938,84.663086 232.45898,83.024414 L 232.72705,82.759766 L 232.9873,83.024414 C 234.3584,84.379883 235.55908,85.311524 236.99219,86.138672 L 237.81738,86.604492 C 238.74365,86.214844 239.44385,85.979492 239.98535,85.793945 C 236.61426,84.40918 233.80029,82.378906 232.72119,80.56543 C 231.58057,82.419922 228.70947,84.478516 225.32764,85.850586 C 224.22314,86.306641 223.021,86.648438 220.76514,87.579102 C 218.50342,88.517578 216.5708,89.813477 215.55811,91.126953 L 215.28174,91.488281 L 214.97998,91.141602 C 213.94043,89.90625 212.26758,88.748047 210.03809,87.701172 C 209.45947,87.983399 208.81348,88.288086 207.68945,88.792969 C 209.05957,89.457031 209.9248,90.03125 209.9248,90.863281 C 209.9248,92.158203 208.88037,92.761719 206.646,92.761719 C 204.41553,92.761719 203.37158,92.158203 203.37158,90.863281 C 203.37158,89.874024 204.5791,89.27832 206.57324,88.40332 C 206.57324,88.40332 208.56396,87.543945 209.13232,87.272461 C 209.7002,86.999024 211.05078,86.244141 211.05078,86.244141 C 212.12598,85.625 213.70654,84.619141 215.03564,83.043945 L 215.31738,82.709961 L 215.59863,83.043945 C 216.92236,84.619141 218.50342,85.625 219.58301,86.244141 L 220.51562,86.751953 C 221.55322,86.301758 222.32959,86.039063 222.91406,85.839844 C 218.9541,84.34375 216.79492,82.55957 216.79492,80.769531 C 216.79492,80.03125 217.28174,79.287109 218.20801,79.287109 C 218.85645,79.287109 219.54834,79.795898 220.41748,80.447266 C 221.50146,81.256836 222.84717,82.264648 224.33057,82.264648 C 225.50342,82.264648 225.57959,82.173828 225.57959,80.969727 C 225.57959,80.430664 225.38965,79.188477 224.87256,77.983398 L 224.76562,77.74707 L 224.95068,77.564453 C 226.40869,76.075195 227.4209,73.746094 227.4209,71.889649 C 227.4209,70.324219 227.4209,70.324219 226.20703,70.324219 C 225.01709,70.324219 223.93262,70.998047 223.36914,71.578125 L 223.23486,71.713867 C 222.75,72.21582 222.14795,72.844727 221.14844,72.844727 C 220.03906,72.844727 219.54248,72.036133 219.54248,71.282227 C 219.54248,70.423828 220.1001,69.74707 220.63672,69.092774 C 221.12402,68.501953 221.59375,67.933594 221.59375,67.298828 C 221.59375,66.967774 221.59375,66.914063 220.97119,66.914063 C 220.55615,66.914063 219.9165,66.97168 219.50146,67.082032 L 218.82617,67.263672 L 219.05469,66.588867 C 219.29102,65.899414 220.01172,63.78125 219.78369,63.44336 C 219.76221,63.408203 219.66064,63.370117 219.30762,63.370117 C 219.09229,63.370117 218.55371,63.464844 218.06396,63.679688 L 217.67041,63.854492 L 217.56299,63.425782 C 217.33301,62.514649 216.37061,61.276367 215.31738,60.869141 C 214.26318,61.276368 213.30225,62.514649 213.07568,63.425782 L 212.96533,63.854492 L 212.56494,63.679688 C 212.07715,63.464844 211.5415,63.370117 211.33154,63.370117 C 210.97363,63.370117 210.87061,63.408203 210.84424,63.44336 C 210.61377,63.78125 211.34033,65.899414 211.58203,66.588867 L 211.8125,67.263672 L 211.1377,67.082032 C 210.71924,66.97168 210.07812,66.914063 209.66406,66.914063 C 209.03906,66.914063 209.03906,66.967774 209.03906,67.298828 C 209.03906,67.933594 209.50439,68.501953 209.99707,69.092774 C 210.53369,69.747071 211.09717,70.423828 211.09717,71.282227 C 211.09717,72.036133 210.58984,72.844727 209.48633,72.844727 C 208.48633,72.844727 207.8833,72.21582 207.40234,71.713867 L 207.26416,71.578125 C 206.69629,70.998047 205.61719,70.324219 204.42432,70.324219 C 203.2124,70.324219 203.2124,70.324219 203.2124,71.889649 C 203.2124,73.746094 204.23047,76.075195 205.68408,77.564453 L 205.86816,77.74707 L 205.76074,77.983398 C 205.24365,79.188477 205.05322,80.430664 205.05322,80.969727 C 205.05322,82.173828 205.13623,82.264648 206.30273,82.264648 C 207.78271,82.264648 209.13232,81.256836 210.21826,80.447266 C 211.08594,79.795898 211.77588,79.287109 212.43115,79.287109 C 213.35303,79.287109 213.83789,80.03125 213.83789,80.769531 C 213.83789,82.619141 211.53564,84.458984 207.32617,85.989258 C 206.61621,86.269531 205.85742,86.448242 203.95508,87.193359 L 203.34912,87.449219 C 200.91553,88.464844 199.3252,89.472656 198.34131,90.623047 L 198.05957,90.953125 L 197.77539,90.618164 C 196.81348,89.476563 195.29395,88.512695 192.87793,87.50293 C 192.27441,87.790039 191.58301,88.109375 190.3501,88.648438 C 191.8623,89.418945 192.71973,90.071289 192.71973,90.863281 C 192.71973,91.776367 191.64941,92.761719 189.29736,92.761719 C 186.8877,92.761719 186.0332,91.782227 186.0332,90.863281 C 186.0332,89.722656 187.30615,89.087891 189.25195,88.249024 C 189.25195,88.249024 191.47119,87.3125 191.94678,87.083008 C 192.42383,86.852539 193.71338,86.138672 193.71338,86.138672 C 194.8501,85.484375 196.20801,84.605469 197.70801,83.030274 L 197.96875,82.75 L 198.23926,83.024414 C 199.84229,84.663086 201.16016,85.517578 202.23926,86.138672 L 203.17236,86.648438 C 204.10352,86.25 204.76221,85.998047 205.30566,85.810547 C 201.94824,84.415039 199.11084,82.374024 197.98486,80.56543 C 196.854,82.462891 193.81445,84.605469 190.23828,85.989258 C 190.06152,86.05957 187.94678,86.802734 186.31006,87.46875 C 183.84375,88.582031 182.88232,89.6875 182.88232,91.421875 C 182.88232,93.688477 184.65332,94.910156 186.31982,94.910156 L 313.67139,94.910156 C 315.33936,94.910156 317.11279,93.688477 317.11279,91.421875 C 317.11279,89.722656 316.19092,88.623047 313.83154,87.538086 C 313.25146,87.81543 312.56396,88.118164 311.52295,88.591797 C 313.01904,89.27832 313.97021,89.878906 313.97021,90.863281 C 313.97021,92.158203 312.93115,92.761719 310.70068,92.761719 C 308.42529,92.761719 307.27295,92.120117 307.27295,90.863281 C 307.27295,89.942383 308.43701,89.209961 310.44482,88.253906 C 310.44482,88.253906 312.80615,87.160156 313.3667,86.898437 C 313.9292,86.632812 315.40576,85.907227 315.40576,85.907227 C 318.74756,84.179687 319.61279,82.615234 319.61279,78.301758 L 319.61279,78.253906 C 319.61279,78.253906 323.44287,63.273437 323.6792,62.351562 C 322.52881,62.481445 321.63623,63.555664 321.26123,64.248047"
       id="path125"
       style="fill:#efcf4d" />
    <path
       d="M 196.10693,78.411133 C 196.10693,79.464844 196.9458,80.324219 197.97461,80.324219 C 199.00781,80.324219 199.84619,79.464844 199.84619,78.411133 C 199.84619,77.359375 199.00781,76.506836 197.97461,76.506836 C 196.9458,76.506836 196.10693,77.359375 196.10693,78.411133"
       id="path127"
       style="fill:#00529f" />
    <path
       d="M 230.85352,78.411133 C 230.85352,79.464844 231.69189,80.324219 232.72705,80.324219 C 233.75439,80.324219 234.59277,79.464844 234.59277,78.411133 C 234.59277,77.359375 233.75439,76.506836 232.72705,76.506836 C 231.69189,76.506836 230.85352,77.359375 230.85352,78.411133"
       id="path129"
       style="fill:#00529f" />
    <path
       d="M 265.42139,78.411133 C 265.42139,79.464844 266.26514,80.324219 267.29834,80.324219 C 268.33154,80.324219 269.16943,79.464844 269.16943,78.411133 C 269.16943,77.359375 268.33154,76.506836 267.29834,76.506836 C 266.26514,76.506836 265.42139,77.359375 265.42139,78.411133"
       id="path131"
       style="fill:#00529f" />
    <path
       d="M 300.15381,78.411133 C 300.15381,79.464844 300.98779,80.324219 302.021,80.324219 C 303.0542,80.324219 303.89795,79.464844 303.89795,78.411133 C 303.89795,77.359375 303.0542,76.506836 302.021,76.506836 C 300.98779,76.506836 300.15381,77.359375 300.15381,78.411133"
       id="path133"
       style="fill:#00529f" />
  </g>
</svg>
