<?xml version="1.0" encoding="UTF-8" standalone="no"?>
<!-- Created with Inkscape (http://www.inkscape.org/) -->
<svg
   xmlns:dc="http://purl.org/dc/elements/1.1/"
   xmlns:cc="http://web.resource.org/cc/"
   xmlns:rdf="http://www.w3.org/1999/02/22-rdf-syntax-ns#"
   xmlns:svg="http://www.w3.org/2000/svg"
   xmlns="http://www.w3.org/2000/svg"
   xmlns:sodipodi="http://inkscape.sourceforge.net/DTD/sodipodi-0.dtd"
   xmlns:inkscape="http://www.inkscape.org/namespaces/inkscape"
   width="600.00000px"
   height="400.00000px"
   id="svg4618"
   sodipodi:version="0.32"
   inkscape:version="0.42"
   sodipodi:docbase="/Users/daniel/Desktop"
   sodipodi:docname="hittite.svg"
   inkscape:export-filename="/Users/daniel/Desktop/hittite.png"
   inkscape:export-xdpi="16.860001"
   inkscape:export-ydpi="16.860001">
  <defs
     id="defs4620" />
  <sodipodi:namedview
     id="base"
     pagecolor="#ffffff"
     bordercolor="#666666"
     borderopacity="1.0"
     inkscape:pageopacity="0.0"
     inkscape:pageshadow="2"
     inkscape:zoom="0.86000000"
     inkscape:cx="300.00000"
     inkscape:cy="200.00000"
     inkscape:document-units="px"
     inkscape:current-layer="layer1"
     inkscape:window-width="701"
     inkscape:window-height="507"
     inkscape:window-x="30"
     inkscape:window-y="127" />
  <metadata
     id="metadata4623">
    <rdf:RDF>
      <cc:Work
         rdf:about="">
        <dc:format>image/svg+xml</dc:format>
        <dc:type
           rdf:resource="http://purl.org/dc/dcmitype/StillImage" />
      </cc:Work>
    </rdf:RDF>
  </metadata>
  <g
     inkscape:label="Layer 1"
     inkscape:groupmode="layer"
     id="layer1">
    <rect
       style="fill:#b62dd7;fill-opacity:1.0000000;fill-rule:nonzero;stroke:#000000;stroke-width:0.0000000;stroke-linecap:butt;stroke-linejoin:miter;stroke-miterlimit:4.0000000;stroke-dasharray:none;stroke-opacity:1.0000000"
       id="rect5353"
       width="600.00000"
       height="400.00000"
       x="0.0000000"
       y="6.2172489e-15" />
    <g
       id="g5706"
       style="fill:#ffb200;fill-opacity:1.0000000;stroke-width:2.0000000;stroke-miterlimit:4.0000000;stroke-dasharray:none">
      <path
         sodipodi:nodetypes="czcczcccczczczccccczzcczccczczzzzzzzzcscczcsccszccczccczczccccczcszczcc"
         id="path5575"
         d="M 155.38963,274.66368 C 155.38963,274.66368 151.17529,334.62135 145.69514,344.02331 C 140.60685,352.75298 114.57446,352.87285 114.57446,352.87285 C 109.43546,361.50375 108.94763,371.29743 113.11096,378.76554 L 158.40791,378.43863 C 177.80836,378.29862 204.00181,290.68414 204.00181,290.68414 L 250.88976,352.68867 L 215.95049,351.70557 C 206.92436,362.15405 211.62410,374.49864 217.74035,378.85682 C 217.74035,378.85682 239.41801,383.06510 255.93300,381.09849 C 272.44799,379.13188 283.80030,370.99039 283.80030,370.99039 C 283.80030,370.99039 284.72046,360.90206 278.47445,338.29353 C 272.22844,315.68500 258.81626,280.55625 258.81626,280.55625 C 258.81626,280.55625 288.14280,285.61169 310.11568,282.27504 C 332.08856,278.93838 346.70778,267.20963 346.70778,267.20963 L 348.54140,343.11776 C 338.25096,348.62260 325.44710,345.47419 313.89995,346.65241 C 302.70079,354.90515 306.71513,372.88371 309.80575,376.84993 L 355.58356,377.80346 C 355.58356,377.80346 375.22233,357.09477 381.90108,344.18609 C 388.57983,331.27741 376.45580,333.72416 382.06761,322.66567 C 387.67942,311.60718 404.34833,299.95213 404.34833,299.95213 C 429.10659,317.66044 457.67930,334.28406 490.06647,349.82298 C 490.06647,349.82298 472.10773,347.92373 464.98151,354.04459 C 457.85530,360.16545 461.56161,374.30644 461.56161,374.30644 C 479.87690,380.90456 497.61485,378.74498 512.39093,375.86632 C 521.58804,359.99590 519.22630,345.62802 510.76760,327.19465 C 510.76760,327.19465 489.16163,323.52917 478.05073,296.30167 C 467.04184,269.32415 443.96073,227.54423 443.96073,227.54423 C 443.96073,227.54423 465.50920,249.58110 481.06953,245.15633 C 496.62987,240.73156 503.94995,243.56333 503.98779,208.06743 C 504.02564,172.57153 479.78581,124.26230 481.22089,103.17271 C 482.51951,84.088476 501.22018,110.79761 504.98413,95.183224 C 507.89661,83.101125 487.56335,77.075875 479.80784,81.737520 C 470.10586,87.569135 473.36147,79.759935 466.91043,102.51071 C 460.38168,125.53550 488.88522,191.94008 488.37403,207.79943 C 487.86612,223.55699 485.14689,228.06331 478.99420,229.95635 C 471.68464,232.20534 440.96809,206.19426 440.96809,206.19426 C 440.96809,206.19426 433.21316,184.74271 395.04406,182.85829 C 356.87496,180.97387 288.29172,198.65660 288.29172,198.65660 L 380.07926,177.69778 C 380.07926,177.69778 412.24536,143.20964 417.37523,112.81687 C 422.50508,82.424092 402.36159,53.394897 402.36159,53.394897 C 402.36159,53.394897 385.49166,74.023896 341.91010,98.245219 C 298.32854,122.46655 228.03536,150.28019 228.03536,150.28019 L 198.84920,140.38212 C 198.84920,140.38212 194.14997,127.98604 195.41562,122.52942 C 196.68126,117.07280 203.91178,118.55565 206.33189,115.83031 C 213.60260,107.64265 203.54420,91.369558 203.54420,91.369558 L 194.72612,101.88399 C 197.42950,90.666225 198.08131,77.801376 193.95061,66.073445 C 193.95061,66.073445 223.32126,39.146709 196.65687,26.252634 C 171.63527,14.152965 165.87303,48.945081 165.87303,48.945081 C 148.27269,54.737210 143.60338,65.104981 131.70927,83.772524 L 132.34682,69.397171 C 132.34682,69.397171 116.60354,77.058526 115.91342,84.624761 C 115.22330,92.190996 129.58634,99.662113 129.58634,99.662113 C 129.58634,99.662113 123.39122,107.88389 119.47128,114.54881 C 115.55134,121.21372 113.90657,126.32180 113.90657,126.32180 L 120.65217,134.00721 L 119.86778,151.58237 L 139.57861,155.05272 L 140.99166,176.48791 C 140.99166,176.48791 133.64802,173.29888 122.13085,178.93961 C 110.61368,184.58033 94.922975,199.05080 94.922975,199.05080 C 94.922975,199.05080 95.807376,217.30966 106.32512,222.59996 C 116.84287,227.89025 134.82693,216.81336 136.62808,226.68515 C 137.79489,233.08024 110.19735,238.38138 110.19735,238.38138 C 110.19735,238.38138 110.69739,251.97830 119.13151,253.67440 C 127.56564,255.37050 143.93385,245.16576 143.93385,245.16576 L 155.38963,274.66368 z "
         style="fill:#ffb200;fill-opacity:1.0000000;fill-rule:evenodd;stroke:#000000;stroke-width:2.0000000;stroke-linecap:butt;stroke-linejoin:miter;stroke-miterlimit:4.0000000;stroke-dasharray:none;stroke-opacity:1.0000000" />
      <path
         sodipodi:nodetypes="cczc"
         id="path5483"
         d="M 108.41179,241.16925 C 108.41179,241.16925 133.33648,232.73449 124.39210,231.90040 C 100.33144,220.60119 96.167904,243.84862 93.774353,253.76670 C 91.580567,262.85701 108.41179,241.16925 108.41179,241.16925 z "
         style="fill:#ffb200;fill-opacity:1.0000000;fill-rule:evenodd;stroke:#000000;stroke-width:2.0000000;stroke-linecap:butt;stroke-linejoin:miter;stroke-miterlimit:4.0000000;stroke-dasharray:none;stroke-opacity:1.0000000" />
    </g>
    <path
       style="fill:none;fill-opacity:1.0000000;fill-rule:evenodd;stroke:#000000;stroke-width:2.0000000;stroke-linecap:butt;stroke-linejoin:miter;stroke-miterlimit:4.0000000;stroke-dasharray:none;stroke-opacity:1.0000000"
       d="M 234.17642,158.30300 L 287.11703,136.11120"
       id="path5357" />
    <path
       style="fill:none;fill-opacity:1.0000000;fill-rule:evenodd;stroke:#000000;stroke-width:2.0000000;stroke-linecap:butt;stroke-linejoin:miter;stroke-miterlimit:4.0000000;stroke-dasharray:none;stroke-opacity:1.0000000"
       d="M 292.80985,134.04628 L 341.02568,113.86717"
       id="path5359" />
    <path
       style="fill:none;fill-opacity:1.0000000;fill-rule:evenodd;stroke:#000000;stroke-width:2.0000000;stroke-linecap:butt;stroke-linejoin:miter;stroke-miterlimit:4.0000000;stroke-dasharray:none;stroke-opacity:1.0000000"
       d="M 346.25664,104.79608 L 400.20962,68.487496"
       id="path5361" />
    <path
       style="fill:none;fill-opacity:1.0000000;fill-rule:evenodd;stroke:#000000;stroke-width:2.0000000;stroke-linecap:butt;stroke-linejoin:miter;stroke-miterlimit:4.0000000;stroke-dasharray:none;stroke-opacity:1.0000000"
       d="M 235.83727,168.76002 L 288.77787,146.56822"
       id="path5363" />
    <path
       style="fill:none;fill-opacity:1.0000000;fill-rule:evenodd;stroke:#000000;stroke-width:2.0000000;stroke-linecap:butt;stroke-linejoin:miter;stroke-miterlimit:4.0000000;stroke-dasharray:none;stroke-opacity:1.0000000"
       d="M 237.61357,180.96857 L 290.55418,158.77677"
       id="path5365" />
    <path
       style="fill:none;fill-opacity:1.0000000;fill-rule:evenodd;stroke:#000000;stroke-width:2.0000000;stroke-linecap:butt;stroke-linejoin:miter;stroke-miterlimit:4.0000000;stroke-dasharray:none;stroke-opacity:1.0000000"
       d="M 236.54346,194.20959 L 289.48406,172.01780"
       id="path5367" />
    <path
       style="fill:none;fill-opacity:1.0000000;fill-rule:evenodd;stroke:#000000;stroke-width:2.0000000;stroke-linecap:butt;stroke-linejoin:miter;stroke-miterlimit:4.0000000;stroke-dasharray:none;stroke-opacity:1.0000000"
       d="M 236.31814,205.66782 L 288.36403,184.36208"
       id="path5369" />
    <path
       style="fill:none;fill-opacity:1.0000000;fill-rule:evenodd;stroke:#000000;stroke-width:2.0000000;stroke-linecap:butt;stroke-linejoin:miter;stroke-miterlimit:4.0000000;stroke-dasharray:none;stroke-opacity:1.0000000"
       d="M 295.07018,146.22873 L 343.28601,126.04962"
       id="path5371" />
    <path
       style="fill:none;fill-opacity:1.0000000;fill-rule:evenodd;stroke:#000000;stroke-width:2.0000000;stroke-linecap:butt;stroke-linejoin:miter;stroke-miterlimit:4.0000000;stroke-dasharray:none;stroke-opacity:1.0000000"
       d="M 294.96812,159.41751 L 343.18394,139.23840"
       id="path5373" />
    <path
       style="fill:none;fill-opacity:1.0000000;fill-rule:evenodd;stroke:#000000;stroke-width:2.0000000;stroke-linecap:butt;stroke-linejoin:miter;stroke-miterlimit:4.0000000;stroke-dasharray:none;stroke-opacity:1.0000000"
       d="M 295.71865,170.80254 L 343.93447,150.62342"
       id="path5375" />
    <path
       style="fill:none;fill-opacity:1.0000000;fill-rule:evenodd;stroke:#000000;stroke-width:2.0000000;stroke-linecap:butt;stroke-linejoin:miter;stroke-miterlimit:4.0000000;stroke-dasharray:none;stroke-opacity:1.0000000"
       d="M 295.69882,184.93328 L 345.97495,167.14466"
       id="path5377" />
    <path
       style="fill:none;fill-opacity:1.0000000;fill-rule:evenodd;stroke:#000000;stroke-width:2.0000000;stroke-linecap:butt;stroke-linejoin:miter;stroke-miterlimit:4.0000000;stroke-dasharray:none;stroke-opacity:1.0000000"
       d="M 348.85593,114.34786 L 405.77227,79.588611"
       id="path5379" />
    <path
       style="fill:none;fill-opacity:1.0000000;fill-rule:evenodd;stroke:#000000;stroke-width:2.0000000;stroke-linecap:butt;stroke-linejoin:miter;stroke-miterlimit:4.0000000;stroke-dasharray:none;stroke-opacity:1.0000000"
       d="M 351.33409,122.19695 L 410.48798,92.444641"
       id="path5381" />
    <path
       style="fill:none;fill-opacity:1.0000000;fill-rule:evenodd;stroke:#000000;stroke-width:2.0000000;stroke-linecap:butt;stroke-linejoin:miter;stroke-miterlimit:4.0000000;stroke-dasharray:none;stroke-opacity:1.0000000"
       d="M 352.99165,132.73910 L 411.58815,108.99915"
       id="path5383" />
    <path
       style="fill:none;fill-opacity:1.0000000;fill-rule:evenodd;stroke:#000000;stroke-width:2.0000000;stroke-linecap:butt;stroke-linejoin:miter;stroke-miterlimit:4.0000000;stroke-dasharray:none;stroke-opacity:1.0000000"
       d="M 353.45026,139.83040 L 411.48937,122.10281"
       id="path5385" />
    <path
       style="fill:none;fill-opacity:1.0000000;fill-rule:evenodd;stroke:#000000;stroke-width:2.0000000;stroke-linecap:butt;stroke-linejoin:miter;stroke-miterlimit:4.0000000;stroke-dasharray:none;stroke-opacity:1.0000000"
       d="M 353.92579,147.44770 L 399.98799,138.81030"
       id="path5389" />
    <path
       style="fill:none;fill-opacity:1.0000000;fill-rule:evenodd;stroke:#000000;stroke-width:2.0000000;stroke-linecap:butt;stroke-linejoin:miter;stroke-miterlimit:4.0000000;stroke-dasharray:none;stroke-opacity:1.0000000"
       d="M 354.61858,157.95695 L 392.02607,150.66538"
       id="path5391" />
    <path
       style="fill:none;fill-opacity:1.0000000;fill-rule:evenodd;stroke:#000000;stroke-width:2.0000000;stroke-linecap:butt;stroke-linejoin:miter;stroke-miterlimit:4.0000000;stroke-dasharray:none;stroke-opacity:1.0000000"
       d="M 356.04849,164.91089 L 384.97448,161.59246"
       id="path5393" />
    <path
       style="fill:none;fill-opacity:1.0000000;fill-rule:evenodd;stroke:#000000;stroke-width:2.0000000;stroke-linecap:butt;stroke-linejoin:miter;stroke-miterlimit:4.0000000;stroke-dasharray:none;stroke-opacity:1.0000000"
       d="M 232.97441,215.03333 L 257.11575,210.26055"
       id="path5395" />
    <path
       style="fill:none;fill-opacity:1.0000000;fill-rule:evenodd;stroke:#000000;stroke-width:2.0000000;stroke-linecap:butt;stroke-linejoin:miter;stroke-miterlimit:4.0000000;stroke-dasharray:none;stroke-opacity:1.0000000"
       d="M 231.54170,224.05351 L 251.04840,220.10162"
       id="path5397" />
    <path
       style="fill:none;fill-opacity:1.0000000;fill-rule:evenodd;stroke:#000000;stroke-width:2.0000000;stroke-linecap:butt;stroke-linejoin:miter;stroke-miterlimit:4.0000000;stroke-dasharray:none;stroke-opacity:1.0000000"
       d="M 229.23512,233.27487 L 248.81681,230.46060"
       id="path5399" />
    <path
       style="fill:none;fill-opacity:1.0000000;fill-rule:evenodd;stroke:#000000;stroke-width:2.0000000;stroke-linecap:butt;stroke-linejoin:miter;stroke-miterlimit:4.0000000;stroke-dasharray:none;stroke-opacity:1.0000000"
       d="M 228.92625,243.83816 L 246.63908,241.12472"
       id="path5401" />
    <path
       style="fill:none;fill-opacity:1.0000000;fill-rule:evenodd;stroke:#000000;stroke-width:2.0000000;stroke-linecap:butt;stroke-linejoin:miter;stroke-miterlimit:4.0000000;stroke-dasharray:none;stroke-opacity:1.0000000"
       d="M 231.43299,252.64579 L 248.24887,250.55158"
       id="path5403" />
    <path
       style="fill:none;fill-opacity:1.0000000;fill-rule:evenodd;stroke:#000000;stroke-width:2.0000000;stroke-linecap:butt;stroke-linejoin:miter;stroke-miterlimit:4.0000000;stroke-dasharray:none;stroke-opacity:1.0000000"
       d="M 236.90159,262.17252 L 252.82055,260.69753"
       id="path5405" />
    <path
       style="fill:none;fill-opacity:1.0000000;fill-rule:evenodd;stroke:#000000;stroke-width:2.0000000;stroke-linecap:butt;stroke-linejoin:miter;stroke-miterlimit:4.0000000;stroke-dasharray:none;stroke-opacity:1.0000000"
       d="M 439.07903,230.74196 C 442.63165,255.15908 421.01499,280.93416 408.38603,295.67770"
       id="path5407"
       sodipodi:nodetypes="cc" />
    <path
       style="fill:none;fill-opacity:1.0000000;fill-rule:evenodd;stroke:#000000;stroke-width:2.0000000;stroke-linecap:butt;stroke-linejoin:miter;stroke-miterlimit:4.0000000;stroke-dasharray:none;stroke-opacity:1.0000000"
       d="M 198.02564,169.92120 C 167.38280,206.14397 166.18556,246.93026 205.53088,283.77138"
       id="path5409"
       sodipodi:nodetypes="cc" />
    <path
       style="fill:none;fill-opacity:1.0000000;fill-rule:evenodd;stroke:#000000;stroke-width:2.0000000;stroke-linecap:butt;stroke-linejoin:miter;stroke-miterlimit:4.0000000;stroke-dasharray:none;stroke-opacity:1.0000000"
       d="M 160.36559,276.54045 L 197.10711,288.62029"
       id="path5411" />
    <path
       style="fill:none;fill-opacity:1.0000000;fill-rule:evenodd;stroke:#000000;stroke-width:2.0000000;stroke-linecap:butt;stroke-linejoin:miter;stroke-miterlimit:4.0000000;stroke-dasharray:none;stroke-opacity:1.0000000"
       d="M 216.29488,284.94839 L 249.88792,278.74152"
       id="path5413" />
    <path
       style="fill:none;fill-opacity:1.0000000;fill-rule:evenodd;stroke:#000000;stroke-width:2.0000000;stroke-linecap:butt;stroke-linejoin:miter;stroke-miterlimit:4.0000000;stroke-dasharray:none;stroke-opacity:1.0000000"
       d="M 155.98310,346.69332 C 152.28273,369.15806 133.00904,361.70205 121.08902,362.63814"
       id="path5415"
       sodipodi:nodetypes="cc" />
    <path
       style="fill:none;fill-opacity:1.0000000;fill-rule:evenodd;stroke:#000000;stroke-width:2.0000000;stroke-linecap:butt;stroke-linejoin:miter;stroke-miterlimit:4.0000000;stroke-dasharray:none;stroke-opacity:1.0000000"
       d="M 165.14853,354.46339 C 161.44816,376.92813 142.17448,369.47212 130.25445,370.40820"
       id="path5419"
       sodipodi:nodetypes="cc" />
    <path
       style="fill:none;fill-opacity:1.0000000;fill-rule:evenodd;stroke:#000000;stroke-width:2.0000000;stroke-linecap:butt;stroke-linejoin:miter;stroke-miterlimit:4.0000000;stroke-dasharray:none;stroke-opacity:1.0000000"
       d="M 261.00037,345.28740 C 261.14053,368.31319 239.05657,366.09978 230.03622,361.89907"
       id="path5421"
       sodipodi:nodetypes="cc" />
    <path
       style="fill:none;fill-opacity:1.0000000;fill-rule:evenodd;stroke:#000000;stroke-width:2.0000000;stroke-linecap:butt;stroke-linejoin:miter;stroke-miterlimit:4.0000000;stroke-dasharray:none;stroke-opacity:1.0000000"
       d="M 272.79131,358.47117 C 264.60284,377.10695 235.18553,377.49191 226.16518,373.29120"
       id="path5425"
       sodipodi:nodetypes="cc" />
    <path
       style="fill:none;fill-opacity:1.0000000;fill-rule:evenodd;stroke:#000000;stroke-width:2.0000000;stroke-linecap:butt;stroke-linejoin:miter;stroke-miterlimit:4.0000000;stroke-dasharray:none;stroke-opacity:1.0000000"
       d="M 353.18976,346.60000 C 346.99968,365.68353 327.63423,361.74801 314.42348,362.75373"
       id="path5427"
       sodipodi:nodetypes="cc" />
    <path
       style="fill:none;fill-opacity:1.0000000;fill-rule:evenodd;stroke:#000000;stroke-width:2.0000000;stroke-linecap:butt;stroke-linejoin:miter;stroke-miterlimit:4.0000000;stroke-dasharray:none;stroke-opacity:1.0000000"
       d="M 358.90532,354.24852 C 352.71524,373.33206 333.34979,369.39653 320.13905,370.40226"
       id="path5429"
       sodipodi:nodetypes="cc" />
    <path
       style="fill:none;fill-opacity:1.0000000;fill-rule:evenodd;stroke:#000000;stroke-width:2.0000000;stroke-linecap:butt;stroke-linejoin:miter;stroke-miterlimit:4.0000000;stroke-dasharray:none;stroke-opacity:1.0000000"
       d="M 499.49395,351.40523 C 492.72656,361.73106 479.63126,364.48833 469.26693,364.46159"
       id="path5433"
       sodipodi:nodetypes="cc" />
    <path
       style="fill:none;fill-opacity:1.0000000;fill-rule:evenodd;stroke:#000000;stroke-width:2.0000000;stroke-linecap:butt;stroke-linejoin:miter;stroke-miterlimit:4.0000000;stroke-dasharray:none;stroke-opacity:1.0000000"
       d="M 506.58482,355.81081 C 499.81742,366.13664 486.72213,368.89391 476.35780,368.86717"
       id="path5435"
       sodipodi:nodetypes="cc" />
    <path
       style="fill:none;fill-opacity:1.0000000;fill-rule:evenodd;stroke:#000000;stroke-width:2.0000000;stroke-linecap:butt;stroke-linejoin:miter;stroke-miterlimit:4.0000000;stroke-dasharray:none;stroke-opacity:1.0000000"
       d="M 510.80341,360.85653 C 504.03601,371.18236 490.94072,373.93963 480.57638,373.91289"
       id="path5437"
       sodipodi:nodetypes="cc" />
    <path
       style="fill:none;fill-opacity:1.0000000;fill-rule:evenodd;stroke:#000000;stroke-width:2.0000000;stroke-linecap:butt;stroke-linejoin:miter;stroke-miterlimit:4.0000000;stroke-dasharray:none;stroke-opacity:1.0000000"
       d="M 440.65533,210.44255 C 436.48416,215.94091 436.18518,221.23035 439.75841,226.31087"
       id="path5439"
       sodipodi:nodetypes="cc" />
    <path
       style="fill:none;fill-opacity:1.0000000;fill-rule:evenodd;stroke:#000000;stroke-width:2.0000000;stroke-linecap:butt;stroke-linejoin:miter;stroke-miterlimit:4.0000000;stroke-dasharray:none;stroke-opacity:1.0000000"
       d="M 150.83149,249.80940 C 156.32293,234.86503 155.83289,217.60671 152.43870,200.50509"
       id="path5461"
       sodipodi:nodetypes="cc" />
    <path
       style="fill:none;fill-opacity:1.0000000;fill-rule:evenodd;stroke:#000000;stroke-width:2.0000000;stroke-linecap:butt;stroke-linejoin:miter;stroke-miterlimit:4.0000000;stroke-dasharray:none;stroke-opacity:1.0000000"
       d="M 134.22719,86.353658 L 188.73998,102.74800"
       id="path5463" />
    <path
       style="fill:none;fill-opacity:1.0000000;fill-rule:evenodd;stroke:#000000;stroke-width:2.0000000;stroke-linecap:butt;stroke-linejoin:miter;stroke-miterlimit:4.0000000;stroke-dasharray:none;stroke-opacity:1.0000000"
       d="M 133.27255,101.34622 L 156.05726,108.02688"
       id="path5465" />
    <path
       style="fill:none;fill-opacity:1.0000000;fill-rule:evenodd;stroke:#000000;stroke-width:2.0000000;stroke-linecap:butt;stroke-linejoin:miter;stroke-miterlimit:4.0000000;stroke-dasharray:none;stroke-opacity:1.0000000"
       d="M 179.81002,114.65531 L 193.65136,118.30295"
       id="path5467"
       sodipodi:nodetypes="cc" />
    <path
       style="fill:none;fill-opacity:1.0000000;fill-rule:evenodd;stroke:#000000;stroke-width:2.0000000;stroke-linecap:butt;stroke-linejoin:miter;stroke-miterlimit:4.0000000;stroke-dasharray:none;stroke-opacity:1.0000000"
       d="M 179.01517,117.33485 C 182.51178,185.11334 206.71883,169.15920 216.17422,150.48542"
       id="path5469"
       sodipodi:nodetypes="cc" />
    <path
       style="fill:none;fill-opacity:1.0000000;fill-rule:evenodd;stroke:#000000;stroke-width:2.0000000;stroke-linecap:butt;stroke-linejoin:miter;stroke-miterlimit:4.0000000;stroke-dasharray:none;stroke-opacity:1.0000000"
       d="M 186.05647,120.78181 C 189.64173,160.43118 199.74559,166.33121 209.20098,147.65743"
       id="path5471"
       sodipodi:nodetypes="cc" />
    <path
       style="fill:none;fill-opacity:1.0000000;fill-rule:evenodd;stroke:#000000;stroke-width:2.0000000;stroke-linecap:butt;stroke-linejoin:miter;stroke-miterlimit:4.0000000;stroke-dasharray:none;stroke-opacity:1.0000000"
       d="M 144.42316,152.59886 C 155.01843,156.12867 169.13950,154.19494 165.59136,134.75793"
       id="path5473"
       sodipodi:nodetypes="cc" />
    <path
       style="fill:none;fill-opacity:1.0000000;fill-rule:evenodd;stroke:#000000;stroke-width:2.0000000;stroke-linecap:butt;stroke-linejoin:miter;stroke-miterlimit:4.0000000;stroke-dasharray:none;stroke-opacity:1.0000000"
       d="M 159.92945,107.81796 C 176.31067,86.133852 180.89800,121.33473 168.32231,131.97393"
       id="path5475"
       sodipodi:nodetypes="cc" />
    <path
       style="fill:none;fill-opacity:1.0000000;fill-rule:evenodd;stroke:#000000;stroke-width:2.0000000;stroke-linecap:butt;stroke-linejoin:miter;stroke-miterlimit:4.0000000;stroke-dasharray:none;stroke-opacity:1.0000000"
       d="M 163.12226,112.04012 C 166.70133,102.47224 177.07013,107.47909 167.74498,123.21623"
       id="path5477"
       sodipodi:nodetypes="cc" />
    <path
       style="fill:none;fill-opacity:1.0000000;fill-rule:evenodd;stroke:#000000;stroke-width:2.0000000;stroke-linecap:butt;stroke-linejoin:miter;stroke-miterlimit:4.0000000;stroke-dasharray:none;stroke-opacity:1.0000000"
       d="M 120.08550,120.41875 C 120.07008,120.18488 139.88063,127.33070 120.73303,130.24142"
       id="path5479"
       sodipodi:nodetypes="cc" />
    <path
       style="fill:none;fill-opacity:1.0000000;fill-rule:evenodd;stroke:#000000;stroke-width:2.0000000;stroke-linecap:butt;stroke-linejoin:miter;stroke-miterlimit:4.0000000;stroke-dasharray:none;stroke-opacity:1.0000000"
       d="M 346.96803,262.95710 L 352.24332,239.82145"
       id="path5481" />
    <path
       style="fill:none;fill-opacity:1.0000000;fill-rule:evenodd;stroke:#000000;stroke-width:2.0000000;stroke-linecap:butt;stroke-linejoin:miter;stroke-miterlimit:4.0000000;stroke-dasharray:none;stroke-opacity:1.0000000"
       d="M 227.96401,152.48598 C 227.96401,152.48598 242.24722,189.38818 229.04341,213.07084 C 213.89095,240.24866 238.04040,275.86518 238.04040,275.86518"
       id="path5485"
       sodipodi:nodetypes="czc" />
    <path
       sodipodi:type="arc"
       style="fill:none;fill-opacity:1.0000000;fill-rule:nonzero;stroke:#000000;stroke-width:2.0179182;stroke-linecap:butt;stroke-linejoin:miter;stroke-miterlimit:4.0000000;stroke-dasharray:none;stroke-opacity:1.0000000"
       id="path5487"
       sodipodi:cx="36.134007"
       sodipodi:cy="187.92555"
       sodipodi:rx="12.971182"
       sodipodi:ry="6.4855909"
       d="M 49.105188 187.92555 A 12.971182 6.4855909 0 1 1  23.162825,187.92555 A 12.971182 6.4855909 0 1 1  49.105188 187.92555 z"
       transform="matrix(1.044830,-5.637199e-2,6.231174e-2,0.945233,78.25403,18.33240)" />
    <path
       sodipodi:type="arc"
       style="fill:none;fill-opacity:1.0000000;fill-rule:nonzero;stroke:#000000;stroke-width:2.0179182;stroke-linecap:butt;stroke-linejoin:miter;stroke-miterlimit:4.0000000;stroke-dasharray:none;stroke-opacity:1.0000000"
       id="path5489"
       sodipodi:cx="36.134007"
       sodipodi:cy="187.92555"
       sodipodi:rx="12.971182"
       sodipodi:ry="6.4855909"
       d="M 49.105188 187.92555 A 12.971182 6.4855909 0 1 1  23.162825,187.92555 A 12.971182 6.4855909 0 1 1  49.105188 187.92555 z"
       transform="matrix(1.044830,-5.637199e-2,6.231174e-2,0.945233,88.66850,-60.34240)" />
    <path
       style="fill:none;fill-opacity:1.0000000;fill-rule:evenodd;stroke:#000000;stroke-width:2.0000000;stroke-linecap:butt;stroke-linejoin:miter;stroke-miterlimit:4.0000000;stroke-dasharray:none;stroke-opacity:1.0000000"
       d="M 144.68091,185.98260 C 151.78577,170.95118 172.68765,173.63196 178.21621,178.89995 C 173.93852,192.60699 167.20514,198.53655 158.01606,196.68863"
       id="path5491"
       sodipodi:nodetypes="ccc" />
    <path
       style="fill:none;fill-opacity:1.0000000;fill-rule:evenodd;stroke:#000000;stroke-width:2.0000000;stroke-linecap:butt;stroke-linejoin:miter;stroke-miterlimit:4.0000000;stroke-dasharray:none;stroke-opacity:1.0000000"
       d="M 146.63041,200.81847 C 129.70589,209.34861 139.14960,219.97164 147.95826,220.96119"
       id="path5493"
       sodipodi:nodetypes="cc" />
    <path
       style="fill:#ff002e;fill-opacity:1.0000000;fill-rule:evenodd;stroke:#000000;stroke-width:2.0000000;stroke-linecap:butt;stroke-linejoin:miter;stroke-miterlimit:4.0000000;stroke-dasharray:none;stroke-opacity:1.0000000"
       d="M 100.39501,206.82856 L 112.74871,202.64650"
       id="path5495" />
    <path
       style="fill:#ff002e;fill-opacity:1.0000000;fill-rule:evenodd;stroke:#000000;stroke-width:2.0000000;stroke-linecap:butt;stroke-linejoin:miter;stroke-miterlimit:4.0000000;stroke-dasharray:none;stroke-opacity:1.0000000"
       d="M 104.18731,212.77615 L 116.54101,208.59409"
       id="path5497" />
    <path
       style="fill:#ff002e;fill-opacity:1.0000000;fill-rule:evenodd;stroke:#000000;stroke-width:2.0000000;stroke-linecap:butt;stroke-linejoin:miter;stroke-miterlimit:4.0000000;stroke-dasharray:none;stroke-opacity:1.0000000"
       d="M 107.49558,218.74986 L 119.84928,214.56780"
       id="path5499" />
    <path
       style="fill:#ff002e;fill-opacity:1.0000000;fill-rule:evenodd;stroke:#000000;stroke-width:2.0000000;stroke-linecap:butt;stroke-linejoin:miter;stroke-miterlimit:4.0000000;stroke-dasharray:none;stroke-opacity:1.0000000"
       d="M 98.538807,200.77652 L 110.89251,196.59446"
       id="path5501" />
    <path
       style="fill:none;fill-opacity:1.0000000;fill-rule:evenodd;stroke:#000000;stroke-width:2.0000000;stroke-linecap:butt;stroke-linejoin:miter;stroke-miterlimit:4.0000000;stroke-dasharray:none;stroke-opacity:1.0000000"
       d="M 121.41080,133.97306 C 121.39538,133.73919 141.20593,140.88500 122.05833,143.79572"
       id="path5503"
       sodipodi:nodetypes="cc" />
    <path
       style="fill:none;fill-opacity:1.0000000;fill-rule:evenodd;stroke:#000000;stroke-width:2.0000000;stroke-linecap:butt;stroke-linejoin:miter;stroke-miterlimit:4.0000000;stroke-dasharray:none;stroke-opacity:1.0000000"
       d="M 285.52321,200.35584 C 241.66206,207.99560 252.96216,256.60352 259.27974,273.84036"
       id="path5505"
       sodipodi:nodetypes="cc" />
  </g>
</svg>
