<?xml version="1.0" encoding="UTF-8" standalone="no"?>
<svg
   xmlns:dc="http://purl.org/dc/elements/1.1/"
   xmlns:cc="http://creativecommons.org/ns#"
   xmlns:rdf="http://www.w3.org/1999/02/22-rdf-syntax-ns#"
   xmlns:svg="http://www.w3.org/2000/svg"
   xmlns="http://www.w3.org/2000/svg"
   xmlns:sodipodi="http://sodipodi.sourceforge.net/DTD/sodipodi-0.dtd"
   xmlns:inkscape="http://www.inkscape.org/namespaces/inkscape"
   width="390"
   height="260"
   viewBox="0 0 312 208"
   version="1.1"
   id="svg2"
   inkscape:version="0.48.2 r9819"
   sodipodi:docname="hunnic.svg">
  <metadata
     id="metadata38">
    <rdf:RDF>
      <cc:Work
         rdf:about="">
        <dc:format>image/svg+xml</dc:format>
        <dc:type
           rdf:resource="http://purl.org/dc/dcmitype/StillImage" />
        <dc:title />
      </cc:Work>
    </rdf:RDF>
  </metadata>
  <defs
     id="defs36" />
  <sodipodi:namedview
     pagecolor="#ffffff"
     bordercolor="#666666"
     borderopacity="1"
     objecttolerance="10"
     gridtolerance="10"
     guidetolerance="10"
     inkscape:pageopacity="0"
     inkscape:pageshadow="2"
     inkscape:window-width="1366"
     inkscape:window-height="695"
     id="namedview34"
     showgrid="false"
     inkscape:zoom="0.9752381"
     inkscape:cx="193.75"
     inkscape:cy="131.25"
     inkscape:window-x="-3"
     inkscape:window-y="0"
     inkscape:window-maximized="1"
     inkscape:current-layer="svg2" />
  <rect
     style="fill:#f9f9f9;fill-opacity:1;stroke:none"
     id="rect2997"
     width="312"
     height="208"
     x="0"
     y="0" />
  <g
     id="#e7c03bff"
     transform="translate(1.4332487,-0.84373792)">
    <path
       d="m 134.39,14.79 c 6.57,-2.27 13.72,-2.6 20.63,-2.6 14.25,0.86 28.86,3.76 40.98,11.7 3,2.09 6.14,3.95 9.33,5.74 0.93,1.13 2.12,1.95 3.39,2.66 -0.26,0.54 -0.79,1.62 -1.05,2.15 0.47,-0.37 1.4,-1.11 1.87,-1.48 2.23,2.62 5.3,4.35 7.43,7.06 2.42,3.04 5.2,5.75 8.03,8.41 0,0.55 0.01,1.66 0.02,2.21 3.7,0.65 4.96,4.65 6.92,7.35 8.84,13.16 11.23,29.29 12.73,44.73 -0.76,7.59 -0.74,15.32 -2.99,22.69 -2.7,5.73 -3.68,12.09 -6.55,17.74 -4.09,8.41 -9,16.49 -15.27,23.45 -1.67,2.07 -3.11,4.38 -5.34,5.91 -8.54,8.24 -18.74,15 -29.92,19.13 -17.54,6.47 -37.02,6.63 -55.01,2.01 -2.04,-0.8 -4.11,-1.54 -6.17,-2.28 -3.53,-0.62 -6.55,-2.65 -9.72,-4.19 -10.78,-5.56 -20.41,-13.33 -28.01,-22.79 -8.48,-9.12 -14.36,-20.3 -18.42,-32 C 65.5,124.06 64.01,115.57 64.18,107 64.97,96.32 66.9,85.73 70.26,75.55 75.52,61.31 83.38,47.95 94.18,37.2 99.61,31.77 105.83,27 112.83,23.79 c 3.94,-1.94 7.24,-5.14 11.64,-6.11 1.79,-0.66 3.51,-1.48 5.14,-2.47 1.59,-0.13 3.18,-0.27 4.78,-0.42 m 7.58,15.55 c 0.35,3.74 7.89,6.06 4.27,10.12 1.46,1.68 1.35,3.5 -0.1,5.17 -0.06,0.99 -0.12,1.98 -0.16,2.98 -0.97,0.52 -1.93,1.05 -2.88,1.59 -0.05,0.65 -0.14,1.94 -0.19,2.59 2.79,1.82 6.1,2.7 8.7,4.83 2.22,2.01 3.99,4.45 5.96,6.7 0.46,-0.12 1.38,-0.36 1.84,-0.48 2.95,-2.29 6.67,-2.88 10.27,-3.28 2.93,0.46 5.9,0.55 8.85,0.69 0.83,-3.12 2.16,-6.09 3.69,-8.92 1.41,-2.73 4.48,-3.85 6.86,-5.53 1.02,0.49 2.04,0.98 3.07,1.47 -0.42,4.38 -2.27,8.48 -2.26,12.92 6.74,1.37 13.73,1.01 20.56,1.96 1.74,0.63 3.51,1.23 5.26,1.86 2.48,-0.28 4.6,-1.55 6.27,-3.38 -0.03,-0.55 -0.07,-1.65 -0.09,-2.2 -2.76,-2.66 -5.27,-5.6 -8.3,-7.97 -6.48,-5.19 -12.6,-10.85 -19.32,-15.74 -5.25,-3.92 -12.14,-2.92 -18.26,-3.55 -7.9,-1.79 -15.88,-3.27 -23.94,-4.09 -3.48,-0.08 -7.35,-0.28 -10.1,2.26 m -31.59,10.11 c -7.58,6.66 -15.51,13.09 -21.52,21.28 -1.36,1.91 -0.21,4.23 0.17,6.26 4.67,1.24 9.54,1.6 14.12,3.19 3.05,1.39 3.74,-2.61 4.66,-4.57 2.01,-5.89 6.69,-10.94 12.85,-12.45 2.18,-0.06 4.35,-0.06 6.53,-0.03 0.32,-1.38 0.67,-2.76 0.97,-4.15 -2.7,-1.75 -6.18,-4.7 -4.83,-8.31 1.23,-2.56 1.26,-5.35 0.69,-8.08 -5.59,-0.52 -9.47,3.94 -13.64,6.86 m 9.03,23.73 c -1.05,1.1 -2.14,2.17 -3.23,3.23 -0.52,1.7 -1.34,3.37 -1.18,5.19 2.26,2.42 5.77,2.38 8.82,2.49 0.73,-1.92 1.87,-3.78 1.97,-5.88 -0.36,-1.86 -1.32,-3.55 -2.1,-5.25 -1.43,0.08 -2.85,0.12 -4.28,0.22 m 23.92,4.38 c -1.8,2.88 -4.07,5.85 -3.46,9.49 -0.45,3.12 3.27,3.61 5.55,3.47 2.04,-4.09 5.79,-9.56 1.47,-13.54 -1.19,0.19 -2.37,0.39 -3.56,0.58 m 71.32,0.98 c 1.04,1.29 1.57,2.85 1.55,4.51 -7.87,-0.7 -14.61,3.73 -21.1,7.47 -3.06,-0.29 -6.06,-1.01 -9.01,-1.87 -1.83,4.22 -1.18,8.99 -2.9,13.23 6.52,0.88 12.62,3.9 19.16,4.89 2.26,-0.39 4.67,-0.92 6.89,-0.03 4.47,1.74 8.82,3.78 13.18,5.76 2.06,0.69 4.2,1.11 6.36,1.34 0.1,-2.07 0.17,-4.15 0.13,-6.22 -0.94,-1.96 -1.7,-4 -2.15,-6.13 -1.21,-6.18 -3.14,-12.19 -5.18,-18.14 -0.55,-0.09 -1.65,-0.28 -2.2,-0.38 0.02,-2.74 -2,-4.61 -4.73,-4.43 M 86.14,74.22 c -4.48,11.97 -8.11,24.55 -7.73,37.45 1.05,0.03 2.1,0.07 3.15,0.1 0.44,-0.39 1.33,-1.17 1.78,-1.56 0.31,0.19 0.94,0.58 1.25,0.77 0.53,-0.32 1.58,-0.97 2.1,-1.29 2.75,-5.11 4.92,-10.68 9.01,-14.93 3.96,-4.5 9.58,-7.12 15.17,-8.97 1.39,-0.46 2.38,-1.62 3.5,-2.5 -2.55,-1.98 -5.48,-3.47 -8.76,-3.6 -2.37,-0.88 -4.78,-1.61 -7.21,-2.29 -4,-1.44 -8.35,-1.48 -12.26,-3.18 m 92.76,42.77 c 2.44,2.47 5.59,3.98 8.52,5.77 7.46,4.91 13.11,12.31 16.1,20.72 0.72,3.77 1.18,7.62 2.81,11.16 2.61,0.99 5.34,1.94 8.17,1.43 1.49,-2.84 2.94,-5.69 4.19,-8.64 2.3,-5.69 4.52,-11.42 7.03,-17.02 2.18,-4.95 4.52,-9.96 5.27,-15.36 0.36,-1.69 -0.23,-3.3 -1.15,-4.7 -1.18,-0.35 -2.35,-0.76 -3.49,-1.22 -6.62,-0.26 -13.26,-0.16 -19.88,-0.57 -2.65,-0.64 -4.84,-2.28 -6.97,-3.9 -4.83,-0.92 -9.29,-3.18 -13.91,-4.8 -3.12,5.35 -2.44,12.25 -6.69,17.13 m -44.61,-10.08 c -0.6,1.05 -1.18,2.1 -1.75,3.16 -3.22,0.17 -6.43,0.44 -9.59,1.08 0.04,1.07 0.09,2.14 0.14,3.21 3.41,6.6 6.8,13.62 5.95,21.29 3.53,1.71 7.19,3.52 9.71,6.64 3.49,3.86 7.36,8.12 7.33,13.68 3.56,0.88 7.27,1.17 10.87,0.35 0.66,-0.99 1.32,-1.97 2,-2.94 -0.33,-1.42 -0.84,-2.81 -0.92,-4.27 0.79,-2.75 2.98,-5.1 2.96,-8.08 -0.16,-5.1 -1.66,-10.02 -3.25,-14.82 -0.78,-2.27 0,-4.64 0.4,-6.89 -1.52,-1.05 -3.05,-2.07 -4.64,-2.99 -6.59,-2.69 -12.65,-6.6 -19.21,-9.42 m -46.58,10.94 c -1.59,1.82 -4.21,1.03 -6.31,1.21 -1.05,1.05 -2.09,2.12 -3.13,3.19 0.34,0.55 1.01,1.67 1.35,2.22 1.12,3.03 2.79,5.84 3.63,8.98 3.22,8.45 8.13,16.16 13.57,23.35 3.81,-0.89 8.26,0.83 11.41,-2.08 -0.06,-4.32 -3.3,-7.23 -5.98,-10.18 -1.39,-3.28 -0.8,-7.13 -2.3,-10.43 -2.67,-5.2 -6.17,-10.25 -6.95,-16.18 0.69,-2.36 1.62,-4.71 -0.34,-6.81 -2.37,1.69 -2.97,4.72 -4.95,6.73 m 84.92,4.31 c -1.79,0.78 -3.69,1.24 -5.59,1.66 0.6,5.31 0.57,10.69 1.51,15.96 -0.17,0.55 -0.5,1.64 -0.66,2.19 0.21,0.36 0.63,1.08 0.84,1.45 -0.72,5.35 -3.77,10.1 -3.86,15.56 3.54,0.05 7.14,0.3 10.6,-0.64 3.02,-0.79 6.31,0.13 9.2,-1.22 0.16,0.15 0.48,0.45 0.63,0.61 3.71,-1.43 7.91,-0.2 11.56,-1.9 1.01,-1.38 0.46,-3.05 0.28,-4.57 -0.66,-0.31 -1.99,-0.94 -2.66,-1.25 0.18,-2.82 0.85,-5.76 -0.02,-8.53 -2.05,-4.89 -5.87,-8.74 -9.82,-12.15 -3.12,-2.82 -7.99,-3.35 -10.05,-7.37 -0.49,0.05 -1.47,0.15 -1.96,0.2 m -66.64,4.38 c 0.04,0.95 0.09,1.89 0.15,2.84 1.96,3.57 -0.12,8 1.75,11.64 1.46,2.18 3.67,3.75 5.05,5.99 1.05,2.14 1.63,4.48 2.72,6.61 0.01,0.55 0.03,1.63 0.04,2.18 1.01,0.75 1.78,2.18 3.21,2.12 6.07,0.51 12.15,-0.37 18.22,0.02 0.56,-1.84 1.1,-3.68 1.6,-5.53 -1.69,-1.76 -2.91,-3.89 -4.56,-5.68 -3.53,-2.98 -7.69,-5.12 -11.95,-6.85 -3.1,-5.79 -6.08,-12.23 -12.34,-15.21 -1.29,0.64 -2.59,1.26 -3.89,1.87 m 7.36,41.43 c -0.46,0.91 -0.91,1.82 -1.37,2.74 11.22,6.22 24.2,8.15 36.65,10.05 4.53,0.64 8.93,-1.12 13.46,-0.82 4.24,0.17 8.2,-1.46 12.29,-2.24 5.11,-1.72 10.54,-3.21 14.73,-6.76 0.97,-0.76 1.44,-1.78 1.41,-3.07 -4.5,-0.01 -9.05,0.38 -13.45,-0.79 -16.04,-0.19 -32.1,-0.04 -48.14,-0.07 -5.13,1.14 -10.36,0.86 -15.58,0.96 z"
       id="path32"
       inkscape:connector-curvature="0"
       style="fill:#e7c03b" />
  </g>
</svg>
