<?xml version="1.0" encoding="UTF-8" standalone="no"?>
<!-- Creator: CorelDRAW -->

<svg
   xmlns:dc="http://purl.org/dc/elements/1.1/"
   xmlns:cc="http://creativecommons.org/ns#"
   xmlns:rdf="http://www.w3.org/1999/02/22-rdf-syntax-ns#"
   xmlns:svg="http://www.w3.org/2000/svg"
   xmlns="http://www.w3.org/2000/svg"
   xmlns:sodipodi="http://sodipodi.sourceforge.net/DTD/sodipodi-0.dtd"
   xmlns:inkscape="http://www.inkscape.org/namespaces/inkscape"
   xml:space="preserve"
   width="600"
   height="400"
   shape-rendering="geometricPrecision"
   text-rendering="geometricPrecision"
   image-rendering="optimizeQuality"
   clip-rule="evenodd"
   viewBox="0 0 16933333 11288888"
   id="svg2"
   sodipodi:version="0.32"
   inkscape:version="0.47 r22583"
   sodipodi:docname="menora.svg"
   inkscape:output_extension="org.inkscape.output.svg.inkscape"
   version="1.1"
   style="fill-rule:evenodd"
   inkscape:export-filename="/home/mixcoatl/Bureaublad/New Folder/menora.png"
   inkscape:export-xdpi="4.0499997"
   inkscape:export-ydpi="4.0499997"><metadata
   id="metadata53"><rdf:RDF><cc:Work
       rdf:about=""><dc:format>image/svg+xml</dc:format><dc:type
         rdf:resource="http://purl.org/dc/dcmitype/StillImage" /><dc:title></dc:title></cc:Work></rdf:RDF></metadata><defs
   id="defs51"><inkscape:perspective
     sodipodi:type="inkscape:persp3d"
     inkscape:vp_x="0 : 256.88977 : 1"
     inkscape:vp_y="0 : 1000 : 0"
     inkscape:vp_z="418.11023 : 256.88977 : 1"
     inkscape:persp3d-origin="209.05511 : 171.25985 : 1"
     id="perspective38" /><inkscape:perspective
     id="perspective2852"
     inkscape:persp3d-origin="0.5 : 0.33333333 : 1"
     inkscape:vp_z="1 : 0.5 : 1"
     inkscape:vp_y="0 : 1000 : 0"
     inkscape:vp_x="0 : 0.5 : 1"
     sodipodi:type="inkscape:persp3d" /></defs><sodipodi:namedview
   inkscape:window-height="695"
   inkscape:window-width="1024"
   inkscape:pageshadow="2"
   inkscape:pageopacity="0.0"
   guidetolerance="10.0"
   gridtolerance="10.0"
   objecttolerance="10.0"
   borderopacity="1.0"
   bordercolor="#666666"
   pagecolor="#ffffff"
   id="base"
   inkscape:zoom="1"
   inkscape:cx="259.85205"
   inkscape:cy="213.40391"
   inkscape:window-x="-3"
   inkscape:window-y="0"
   inkscape:current-layer="Layer_x0020_1"
   showgrid="false"
   inkscape:window-maximized="1" />
	<g
   id="Layer_x0020_1"
   transform="translate(-249338.37,-2932710.1)">
		<metadata
   id="CorelCorpID_0Corel-Layer" />
		
		
		
		
		
		
		
		
		
		
		
		
		
		
		
		
		
		
		
		<rect
   style="fill:#ffffff;fill-opacity:1"
   id="rect2869"
   width="16933332"
   height="11288889"
   x="249338.38"
   y="2932710" /><g
   id="_24599736"
   style="fill:#428ece;fill-opacity:1"
   transform="matrix(1.180498,0,0,0.94369425,1249818.9,2488863.5)">
			<path
   id="_46086368"
   d="m 1742910,1297940 c 206750,357630 191540,699420 172540,1103140 0,0 96170,-302660 121630,-557230 25450,-257390 -127290,-506310 -166890,-565710 -39600,-59390 -138600,-359220 -138600,-359220 0,0 -14140,141430 -135770,367710 -124450,226280 -144250,438420 -147080,579850 -8490,217800 203650,738250 220620,766540 22630,48080 8490,687330 8490,687330 -226280,-186680 -328110,-282850 -401650,-398820 -127290,-195170 -178200,-557220 -178200,-557220 0,0 132940,149910 212140,229110 79200,79200 268710,398820 268710,398820 39600,-432770 -627940,-987160 -627940,-987160 0,0 -53740,735420 178200,1088990 155570,240430 568540,412970 568540,412970 l 0,274370 -99000,-62230 c 0,0 31120,-90520 -8480,-158400 0,0 -99000,-79200 -178200,-39600 -76370,39600 -56570,138600 -19800,198000 39600,59400 130110,39600 130110,39600 0,0 132940,118800 166880,200820 19800,48090 8490,746740 8490,746740 -226280,-186680 -299830,-308310 -373370,-424280 -127280,-195170 -206480,-520450 -206480,-520450 0,0 158400,127280 237600,206480 76370,79200 223450,364880 223450,364880 39600,-432770 -627940,-1052220 -627940,-1052220 0,0 -39590,726940 178200,1091820 178200,299830 568540,466710 568540,466710 l 0,268710 -147080,-107480 c 0,0 28280,-87690 -8490,-158400 0,0 -99000,-76370 -178200,-39600 -79200,39600 -59400,138600 -19800,198000 39600,59400 127290,39600 127290,39600 0,0 183850,192340 217790,274370 19800,48080 8490,746730 8490,746730 -226280,-186680 -299830,-308310 -373370,-421450 -127280,-198000 -206480,-520450 -206480,-520450 0,0 158400,127280 237600,203650 76370,79200 223450,364880 223450,364880 39600,-432760 -627940,-1052210 -627940,-1052210 0,0 -39590,726930 178200,1091810 178200,302660 574200,469540 574200,469540 l -5660,285680 -147080,-107480 c 0,0 28280,-87680 -8490,-158400 0,0 -99000,-76370 -178200,-36770 -79200,36770 -59400,135770 -19800,195170 39600,59400 127290,39600 127290,39600 0,0 183850,192340 217790,274370 19800,48080 8490,746730 8490,746730 -226280,-186680 -299830,-308310 -373370,-421450 -127280,-198000 -206480,-520450 -206480,-520450 0,0 158400,127280 237600,206480 76370,76370 223450,362060 223450,362060 39600,-432770 -627940,-1052220 -627940,-1052220 0,0 -39590,726930 178200,1091820 178200,302650 568540,472360 568540,472360 l 0,362060 -147080,-107490 c 0,0 28280,-87680 -8490,-158400 0,0 -99000,-76370 -178200,-39600 -79200,39600 -59400,138600 -19800,198000 39600,59400 127290,39600 127290,39600 0,0 183850,192340 217790,274370 19800,48090 8490,746740 8490,746740 -226280,-186690 -299830,-308320 -373370,-421460 -127280,-198000 -206480,-520450 -206480,-520450 0,0 158400,127290 237600,203660 76370,79190 223450,364880 223450,364880 39600,-432770 -627940,-1052220 -627940,-1052220 0,0 -39590,726940 178200,1091820 178200,302650 568540,461050 568540,461050 l 0,362050 -147080,-107480 c 0,0 28280,-87690 -8490,-155570 0,0 -99000,-79200 -178200,-39600 -79200,39600 -59400,135770 -19800,195170 39600,59400 127290,39600 127290,39600 0,0 183850,195170 217790,274370 19800,50910 8490,746730 8490,746730 -226280,-186680 -299830,-308310 -373370,-421450 -127280,-195170 -206480,-520450 -206480,-520450 0,0 158400,127280 237600,206480 76370,79200 223450,362060 223450,362060 39600,-429940 -627940,-1049390 -627940,-1049390 0,0 -39590,726930 178200,1088980 178200,302660 588340,472370 588340,472370 19800,195170 59400,452570 59400,452570 -178200,-99000 -138600,-178200 -138600,-178200 0,0 19800,-79200 -39600,-138600 -56570,-56570 -115970,-96170 -195170,-56570 -79200,39600 -39600,115970 -19800,175370 19800,59400 118800,99000 118800,99000 59400,79200 342250,294170 342250,294170 246090,698650 893820,865530 893820,865530 l -124450,-427110 c 0,0 -523280,-132940 -565710,-407310 0,0 -25460,-189510 73540,-373370 0,0 152740,-31110 166890,-90510 11310,-59400 5650,-141430 -79200,-172540 -82030,-31110 -115970,-16970 -169720,48080 -50910,65060 -22620,110320 -22620,110320 0,0 96170,124450 -70720,240420 0,0 -104650,-296990 -104650,-494990 0,0 135770,-407310 319620,-707140 76370,-124450 243260,-367710 243260,-367710 0,540250 -373370,1021110 -373370,1021110 520450,-305490 560050,-1021110 560050,-1131420 0,-107490 -62230,-398830 -62230,-398830 0,0 -356390,478030 -463880,693000 -107480,212140 -149910,325280 -229110,557220 0,0 -14140,-438420 0,-489340 25460,-84850 217800,-305480 217800,-305480 0,0 87680,11310 121620,-53740 33950,-62230 42430,-161230 -39600,-192340 -82020,-31120 -172540,56570 -172540,56570 -31110,73540 8490,158400 8490,158400 l -135770,121620 5660,-444080 c 0,0 135770,-367710 319620,-667530 76370,-124460 243260,-370540 243260,-370540 0,540250 -373370,1021100 -373370,1021100 520450,-302650 531760,-1040900 531760,-1148390 0,-107480 -33940,-379020 -33940,-379020 0,0 -376190,449740 -483680,661880 -107480,212140 -130110,316790 -209310,545910 0,0 -14140,-396000 0,-446910 25460,-84860 217800,-305490 217800,-305490 0,0 87680,8490 121620,-53740 33950,-62230 42430,-161230 -39600,-192340 -82020,-31110 -172540,56570 -172540,56570 -31110,73540 8490,158400 8490,158400 l -135770,121630 5660,-455400 c 0,0 135770,-367710 319620,-667540 76370,-124450 243260,-370530 243260,-370530 0,540250 -373370,1021100 -373370,1021100 520450,-302650 560050,-1021100 560050,-1128590 0,-107480 -62230,-398820 -62230,-398820 0,0 -356390,429930 -463880,642080 -107480,212140 -149910,336590 -229110,565700 0,0 -14140,-395990 0,-446910 25460,-84850 217800,-305480 217800,-305480 0,0 87680,8490 121620,-53740 33950,-62230 42430,-161230 -39600,-192340 -82020,-31120 -172540,56570 -172540,56570 -31110,73540 8490,158400 8490,158400 l -135770,121620 5660,-387510 c 0,0 107480,-379020 291340,-676020 76370,-124450 183850,-299820 183850,-299820 0,537420 -305480,910790 -305480,910790 520450,-302660 500650,-862710 500650,-970190 0,-110320 -14140,-469540 -14140,-469540 0,0 -362060,381850 -472370,593990 -107480,212140 -110310,345090 -189510,577030 0,0 -14140,-387510 0,-438430 25460,-84850 138600,-277200 138600,-277200 0,0 96170,33950 132940,-22620 48080,-73550 62230,-130120 -31120,-183860 -76370,-45260 -161220,28290 -161220,28290 -31120,73540 5660,138600 5660,138600 l -84860,101820 5660,-316790 c 0,0 67880,-379030 251740,-678850 76370,-124460 223450,-359230 223450,-359230 0,540250 -285680,874020 -285680,874020 452570,-325280 531760,-905130 531760,-1012620 0,-107480 -33940,-432770 -33940,-432770 0,0 -412970,435600 -523280,647740 -107480,212140 -141430,396000 -169710,625110 0,0 -14140,-435600 0,-486510 25460,-84860 107480,-237600 107480,-237600 0,0 70720,19800 104660,-42430 33940,-62220 2830,-132940 -59400,-164050 -79200,-42430 -113140,16970 -113140,16970 -31120,73540 5660,158400 5660,158400 l -65060,53740 -5660,-319630 c 0,0 104660,-356390 288510,-656220 76370,-124450 271540,-370540 271540,-370540 0,540260 -294170,854220 -294170,854220 520460,-302650 480860,-786330 480860,-893820 0,-288510 -33950,-373360 -33950,-373360 0,0 -444080,398820 -551560,613790 -107490,212140 -147090,427110 -223460,659050 -1880,-656220 -3760,-1312440 -5650,-1968670 z"
   style="fill:#428ece;fill-opacity:1" />
			<path
   id="_24599776"
   d="m 2189820,11452400 c 0,0 226280,166880 282850,178190 59400,8490 70710,0 59400,56580 -8490,59390 -19800,70710 -79200,31110 -56570,-39600 -183850,-118800 -263050,-265880 z"
   style="fill:#428ece;fill-opacity:1" />
		</g><g
   id="_24600528"
   style="fill:#428ece;fill-opacity:1"
   transform="matrix(1.1840564,0,0,0.94369425,2171074,2488863.5)">
			<path
   id="_24598960"
   d="m 10138080,10417170 c 0,0 -18726,221506 -73550,506310 178200,-99000 138600,-178200 138600,-178200 0,0 -19800,-79200 39600,-138600 59400,-56570 118800,-96170 195170,-56570 79200,39600 39600,115970 19800,175370 -19800,59400 -115970,99000 -115970,99000 -59400,79200 -345080,294170 -345080,294170 -246090,698650 -893820,865530 -893820,865530 l 127280,-427110 c 0,0 520450,-132940 562880,-407310 0,0 28290,-189510 -73540,-373370 0,0 -152740,-31110 -164060,-90510 -14140,-59400 -5650,-141430 76370,-172540 82030,-31110 115970,-16970 169720,48080 50910,65060 25450,110320 25450,110320 0,0 -96170,124450 67890,240420 81816.3,-158176 94215.4,-434396 94215.4,-434396 0,0 -382725.4,-176564 -563755.4,-479224 -214970,-362050 -175370,-1088980 -175370,-1088980 0,0 667540,619450 627940,1049390 0,0 -147080,-282860 -226280,-362060 -79200,-79200 -234770,-206480 -234770,-206480 0,0 79200,325280 206480,520450 73540,113140 147090,234770 373370,421450 0,0 8480,-695820 -11310,-746730 -31120,-79200 -214970,-274370 -214970,-274370 0,0 -87690,19800 -127290,-39600 -39600,-59400 -59400,-155570 19800,-195170 76370,-39600 175370,39600 175370,39600 39600,67880 11310,155570 11310,155570 l 147090,107480 0,-362050 c 0,0 -390340,-158400 -571370,-461050 -214970,-364880 -175370,-1091820 -175370,-1091820 0,0 667540,619450 627940,1052220 0,0 -147080,-285690 -226280,-364880 -79200,-76370 -234770,-203660 -234770,-203660 0,0 79200,322450 206480,520450 73540,113140 147090,234770 373370,421460 0,0 8480,-698650 -11310,-746740 -31120,-82030 -214970,-274370 -214970,-274370 0,0 -87690,19800 -127290,-39600 -39600,-59400 -59400,-158400 19800,-198000 76370,-36770 175370,39600 175370,39600 39600,70720 11310,158400 11310,158400 l 147090,107490 0,-362060 c 0,0 -390340,-169710 -571370,-472360 -214970,-364890 -175370,-1091820 -175370,-1091820 0,0 667540,619450 627940,1052220 0,0 -147080,-285690 -226280,-362060 -79200,-79200 -234770,-206480 -234770,-206480 0,0 79200,322450 206480,520450 73540,113140 147090,234770 373370,421450 0,0 8480,-698650 -11310,-746730 -31120,-82030 -214970,-274370 -214970,-274370 0,0 -87690,19800 -127290,-39600 -39600,-59400 -59400,-158400 19800,-195170 76370,-39600 175370,36770 175370,36770 39600,70720 11310,158400 11310,158400 l 147090,107480 5660,-285680 c 0,0 -396000,-166880 -577030,-469540 -214970,-364880 -175370,-1091810 -175370,-1091810 0,0 667540,619450 627940,1052210 0,0 -147080,-285680 -226280,-364880 -79200,-76370 -234770,-203650 -234770,-203650 0,0 79200,322450 206480,520450 73540,113140 147090,234770 373370,421450 0,0 8480,-698650 -11310,-746730 -31120,-82030 -214970,-274370 -214970,-274370 0,0 -87690,19800 -127290,-39600 -39600,-59400 -59400,-158400 19800,-198000 76370,-36770 175370,39600 175370,39600 39600,70710 11310,158400 11310,158400 l 147090,107480 0,-268710 c 0,0 -390340,-166880 -571370,-466710 -214970,-364880 -175370,-1091820 -175370,-1091820 0,0 667540,619450 627940,1052220 0,0 -147080,-285680 -226280,-364880 -79200,-79200 -234770,-206480 -234770,-206480 0,0 79200,325280 206480,520450 73540,115970 147090,237600 373370,424280 0,0 8480,-698650 -11310,-746740 -31120,-82020 -166890,-200820 -166890,-200820 0,0 -87680,19800 -127280,-39600 -39600,-59400 -59400,-158400 19800,-198000 79200,-39600 178190,39600 178190,39600 36780,67880 8490,158400 8490,158400 l 99000,62230 0,-274370 c 0,0 -412970,-172540 -571370,-412970 -229110,-353570 -175370,-1088990 -175370,-1088990 0,0 667540,554390 627940,987160 0,0 -192340,-319620 -268710,-398820 -79200,-79200 -212140,-229110 -212140,-229110 0,0 48080,362050 175370,557220 76370,115970 178200,212140 404480,398820 0,0 14140,-639250 -11310,-687330 -14150,-28290 -226290,-548740 -220630,-766540 5660,-141430 25460,-353570 147080,-579850 124460,-226280 138600,-367710 138600,-367710 0,0 99000,299830 138600,359220 36770,59400 189510,308320 166880,565710 -25450,254570 -124450,557230 -124450,557230 21320,-402830 35830,-747500 -172540,-1103140 l 0,0 c 1890,656230 3770,1312450 5650,1968670 79200,-231940 115970,-446910 226290,-659050 107480,-214970 551560,-613790 551560,-613790 0,0 33950,84850 33950,373360 0,107490 36770,591170 -483680,893820 0,0 296990,-313960 296990,-854220 0,0 -198000,246090 -274370,370540 -183850,299830 -285680,656220 -285680,656220 l 2830,319630 67880,-53740 c 0,0 -39600,-84860 -5650,-158400 0,0 33940,-59400 113140,-16970 62230,31110 90510,101830 59400,164050 -33940,62230 -104660,42430 -104660,42430 0,0 -84850,152740 -107480,237600 -14140,50910 0,486510 0,486510 28280,-229110 59400,-412970 169710,-625110 107490,-212140 520450,-647740 520450,-647740 0,0 33940,325290 33940,432770 0,107490 -76370,687340 -528930,1012620 0,0 285680,-333770 285680,-874020 0,0 -149910,234770 -223450,359230 -186690,299820 -254570,678850 -254570,678850 l -5660,316790 87680,-101820 c 0,0 -39600,-65060 -5650,-138600 0,0 84850,-73550 161220,-28290 90520,53740 76370,110310 28290,183860 -36770,56570 -130110,22620 -130110,22620 0,0 -115970,192350 -138600,277200 -14140,50920 0,438430 0,438430 76370,-231940 79200,-364890 189510,-577030 107480,-212140 472370,-593990 472370,-593990 0,0 14140,359220 14140,469540 0,107480 19800,667530 -500650,970190 0,0 305480,-373370 305480,-910790 0,0 -110310,175370 -186680,299820 -181030,297000 -291340,676020 -291340,676020 l -5660,387510 135770,-121620 c 0,0 -36770,-84860 -5660,-158400 0,0 90520,-87690 172540,-56570 82030,31110 70720,130110 39600,192340 -33940,62230 -124450,53740 -124450,53740 0,0 -192340,220630 -214970,305480 -14140,50920 0,446910 0,446910 76370,-229110 118800,-353560 229110,-565700 107480,-212150 461050,-642080 461050,-642080 0,0 65060,291340 65060,398820 0,107490 -39600,825940 -560050,1128590 0,0 373370,-480850 373370,-1021100 0,0 -166890,246080 -243260,370530 -183850,299830 -322450,667540 -322450,667540 l -5660,455400 135770,-121630 c 0,0 -36770,-84860 -5660,-158400 0,0 90520,-87680 172540,-56570 82030,31110 70720,130110 39600,192340 -33940,62230 -124450,53740 -124450,53740 0,0 -192340,220630 -214970,305490 -14140,50910 0,446910 0,446910 76370,-229120 99000,-333770 209310,-545910 107480,-212140 480850,-661880 480850,-661880 0,0 33940,271540 33940,379020 0,107490 -8480,845740 -528930,1148390 0,0 373370,-480850 373370,-1021100 0,0 -166890,246080 -243260,370540 -183850,299820 -322450,667530 -322450,667530 l -5660,444080 135770,-121620 c 0,0 -36770,-84860 -5660,-158400 0,0 90520,-87690 172540,-56570 82030,31110 70720,130110 39600,192340 -33940,65050 -124450,53740 -124450,53740 0,0 -192340,220630 -214970,305480 -14140,50920 0,489340 0,489340 76370,-231940 118800,-345080 229110,-557220 107480,-214970 461050,-693000 461050,-693000 0,0 65060,291340 65060,398830 0,110310 -39600,825930 -560050,1131420 0,0 373370,-480860 373370,-1021110 0,0 -166890,243260 -243260,367710 -183850,299830 -322450,707140 -322450,707140 z"
   sodipodi:nodetypes="cccccscccccccscccccccscccccsccccccccccccccsccccccccccccccsccccccccccccccsccccccccscccccsscccccccccccccccccccccccsccccccccccccccscccccccsccccccscccccccsccccccscccccccsccccccscccccccsccccccscccc"
   style="fill:#428ece;fill-opacity:1" />
			<path
   id="_25242176"
   d="m 9654340,11452400 c 0,0 -226280,166880 -285680,178190 -59400,8490 -67890,0 -59400,56580 11310,59390 19800,70710 79200,31110 59400,-39600 186680,-118800 265880,-265880 z"
   style="fill:#428ece;fill-opacity:1" />
			
		</g><g
   id="g2895"
   transform="matrix(1.0291484,0,0,1,-257243.46,0)"><polygon
     transform="matrix(1.1351379,0,0,1.117551,1998263.5,1563516.2)"
     style="fill:#428ece;fill-opacity:1;stroke:#428ece;stroke-width:35560;stroke-opacity:1"
     id="polygon12"
     points="7747900,8210910 4113230,8210910 4113230,9263120 3457000,9263120 3457000,10431300 8395640,10431300 8395640,9263120 7747900,9263120 " /><polygon
     transform="matrix(1.1351379,0,0,1.117551,1998263.5,1563516.2)"
     style="fill:#000080"
     id="polygon14"
     points="6500520,9175440 7660220,9175440 7660220,8318390 6500520,8318390 " /><polygon
     transform="matrix(1.1351379,0,0,1.117551,1998263.5,1563516.2)"
     style="fill:#000080"
     id="polygon16"
     points="6588200,10332300 8316440,10332300 8316440,9350810 6588200,9350810 " /><path
     style="fill:#428ece;fill-opacity:1;stroke:#ffffff;stroke-width:8582.48339844"
     id="path18"
     d="m 9390089.1,8361445.4 0,304532.7 c 0,0 -147692.9,31615.5 -147692.9,110637.6 0,75859.3 0,107474.7 -54588.7,120114.3 0,0 -44951.5,31615.6 -9626.1,110637.6 0,0 32101.8,44255.1 32101.8,107474.8 0,0 112378.6,44255 112378.6,199147.6 l 77064.6,0 0,230763.1 -144491.7,0 c 0,0 -12838.5,22127.5 -12838.5,53732 0,34766.9 -32113,164380.5 -9637.2,199147.6 22475.7,31604.3 67427.1,75859.5 89902.8,107474.4 22475.7,34767.3 276133.6,135929.9 321085.2,638533.9 12838.4,120115 80265.7,151732 247222.6,195985 l -2318179.7,0 c 144480.3,-44253 298598,-75870 311436.3,-195985 44951.6,-502604 301821.9,-603766.6 321085.3,-638533.9 22475.7,-31614.9 67427.1,-75870.1 89902.9,-107474.4 22475.6,-34767.1 -9637.3,-164380.7 -9637.3,-199147.6 0,-31604.5 -12838.5,-53732 -12838.5,-53732 l -144491.6,0 0,-230763.1 77064.5,0 c 0,-154892.6 112378.5,-199147.6 112378.5,-199147.6 0,-63219.7 35314.4,-107474.8 35314.4,-107474.8 32112.9,-79022 -12838.6,-110637.6 -12838.6,-110637.6 -54588.7,-12639.6 -54588.7,-44255 -54588.7,-120114.3 0,-79022.1 -144480.6,-110637.6 -144480.6,-110637.6 l 0,-298676.7 c -156728.3,-15500.4 -269708.6,-30073.3 -269708.6,-30073.3 -67427.2,9488 -333923.4,-97986.9 -333923.4,-97986.9 -77053.2,0 -166956.3,-66382.5 -166956.3,-66382.5 l -28900.6,-12650.8 c -282547.1,0 -234383.3,-126439.5 -234383.3,-126439.5 -160542.5,-3162.8 -288971.9,-173857.5 -288971.9,-173857.5 C 6667347,7831457.9 6574231.6,7673414 6574231.6,7673414 6423326.4,7651286.5 6371950,7464778.4 6371950,7464778.4 c -61002.1,-12639.6 -160542.4,-199136.5 -160542.4,-199136.5 -44951.5,6314.1 -144480.5,-158055.3 -144480.5,-158055.3 -144491.7,-110637.6 -205493.9,-341389.5 -205493.9,-341389.5 -128429.6,-97998 -173381.1,-350877.4 -202281.7,-388818.3 -73840.8,-101149.6 -96316.4,-173857.4 -115579.7,-202299.1 -51376.3,-66382.6 -44951.4,-297145.6 -67427.2,-385644.5 -22475.7,-82196 -16062.1,-63231 -44951.4,-262367.5 -35325.5,-230763.4 -51376.4,-410934.8 -51376.4,-410934.8 6425,-154892.7 0,-319273.2 0,-319273.2 0,0 6425,-113789.1 6425,-202299.1 0,-88510 44951.4,-230762.9 -44951.4,-363528.1 -89903.1,-129602.5 -44951.5,-275007 112378.5,-328739 150905.3,-53743 324286.1,-44254.9 410976.6,0 89903,44244 134854.5,224426.8 44951.5,312936.7 -89902.8,88510.1 -19263.2,338237.9 -38526.4,426737 -16062.3,79033.1 28889.1,325587.3 28889.1,325587.3 32113.1,44255 16062.2,97998.1 44951.6,132765.1 54588.7,63220 16062,120125.4 16062,120125.4 0,0 -16062,88510.1 -6424.8,151730 12838.4,66382.7 67427.3,142242 67427.3,142242 -12849.8,101160.8 9625.8,221275.1 9625.8,221275.1 0,0 83489.4,186496.9 134854.5,306622.5 32113,75859.4 6424.7,97987 96327.8,221275.3 0,0 32113.1,202298.9 48164,224426.4 0,0 77053,135927.6 144480.3,233925.7 0,0 89902.9,82184.9 141279.2,167532.2 0,0 150905.2,120114.3 227958.5,246565.3 0,0 176593.3,47406.4 218343.6,148567.2 16051,41092.4 237595.9,129602.5 388501.1,256042.2 22475.8,18964.8 211907.5,116951.8 250445.5,120114.3 0,0 144480.3,37940.9 202270.1,94835.4 0,0 266496.5,53743 311447.9,75859.3 0,0 132357,29447.5 212554.6,40310.2 4449.8,-103328.9 31466.1,-271062 31466.1,-271062 -8048,-11097.3 -14893.1,-36521.6 -20761.6,-70338.7 -85884.8,-10192.1 -130143.8,-21334.1 -130143.8,-21334.1 -86690.4,3162.7 -321073.6,-101149.5 -321073.6,-101149.5 -224757.4,-18964.9 -288972.2,-120114.4 -288972.2,-120114.4 -150905.3,-22127.5 -211918.9,-120125.6 -211918.9,-120125.6 -64214.7,-9476.8 -195856.6,-110637.5 -195856.6,-110637.5 -83478.3,-9476.9 -179806,-180182.8 -179806,-180182.8 -22475.8,-15802.2 -128429.4,-88498.8 -128429.4,-88498.8 -115591,-53743.1 -227958.4,-328750.2 -256859.1,-366691 -70639.5,-101149.5 -93115.3,-173857.3 -115591,-202299 -51376.3,-66382.5 -144480.4,-265530.2 -166956.2,-350877.5 -22475.7,-85347.4 -48163.9,-120125.6 -77064.5,-319262 -35314,-230763.2 -64214.8,-477317.3 -64214.8,-477317.3 6425,-154892.6 -9625.8,-243402.5 -9625.8,-243402.5 0,0 -6425,-145404.8 -6425,-233914.8 0,-88510 -54588.7,-297145.7 -144491.8,-429910.8 -89902.9,-129602.2 22475.9,-240239.9 179805.9,-293971.8 150905.3,-53743 356399.3,-12639.4 446302.2,31615.5 86690.6,44244 131642,224426.8 41739,312936.7 -86690.5,88510.1 -19263.3,338237.9 -38526.5,426737 -16050.8,79033.1 -16050.8,312947.8 -16050.8,312947.8 35314,44255 22475.7,56894.5 22475.7,101149.4 0,44255.2 28889.2,129602.5 28889.2,129602.5 0,0 16062.4,88510 3212.4,154892.7 -12838.3,79033.1 22475.7,142253.1 22475.7,142253.1 89903.1,22127.5 67427.3,297134.4 67427.3,297134.4 0,0 115591.2,142241.9 166956.2,262367.5 35325.4,75859.4 105965.1,154892.6 195868,275007 0,0 134842.9,135927.7 150905.2,158055.3 0,0 67427.3,60057.1 134854.3,161217.8 0,0 166956.1,60057.1 215120.1,142241.9 0,0 179805.9,22127.6 240808.2,82184.7 0,0 221544.9,104312.3 295385.6,135927.7 26244.4,12918.9 73295.8,28017.1 113650,38320.8 15960.1,-79267.8 46892.6,-137011.7 46892.6,-158446.3 0,-31604.3 -22475.7,-75859.3 -44951.6,-110626.4 -4960.4,-8158.2 -5005.8,-32487.3 -2565.4,-67310.2 -348089.9,-23781.5 -589465.8,-218470 -674907.6,-305694.6 -89902.9,-88510.3 -44951.4,-107475.2 -112378.6,-129602.4 -67427.1,-22127.6 -144480.3,-186508.3 -211907.6,-252890.8 -61013.7,-60057.2 -44951.5,-186496.9 -112378.6,-328738.9 -99540.3,-218112.4 -122016,-496293.3 -122016,-496293.3 -89903.1,-107474.8 -22475.8,-262367.6 -22475.8,-262367.6 0,0 -22475.7,-199136.3 -22475.7,-284483.6 0,-88510.2 -54577.4,-297145.7 -144480.4,-429910.9 -89902.9,-129602.3 22475.8,-240240 179805.9,-293971.7 150905.3,-53743 568306.8,0 654997.3,41092.4 89902.9,44254.9 112378.7,199147.6 22475.7,287657.5 -86690.4,85347.6 -199069.1,284495 -221544.8,373005.2 -22475.8,88510 -22475.8,382481.8 -22475.8,382481.8 32113,44255 22475.8,56894.4 22475.8,101149.6 0,41092.3 -32101.7,85347.3 -32101.7,85347.3 0,0 41738.9,230763.2 109166.2,275018.3 67427.3,44255 44951.4,154892.6 44951.4,154892.6 89891.7,22127.4 134843.2,230752 134843.2,230752 0,0 67427.1,22127.4 144491.7,129602.2 89902.9,129602.5 266496.2,167532.2 401350.7,186497 l 3394.1,547.6 c -8127.7,-131669.9 -16244,-229813.2 -16244,-272391.9 0,-56894.5 35325.6,-132765.1 35325.6,-132765.1 -12849.7,-44255 54577.5,-66382.5 54577.5,-66382.5 0,0 -77053.2,-75859.3 -77053.2,-142241.9 0,-66382.5 44951.5,-110637.5 44951.5,-110637.5 -35325.5,-44255.2 44951.3,-88510.3 0,-97998.1 -44951.5,-12639.7 -57801.4,-88510.1 -67427.3,-132765.2 -9637.4,-44254.8 54577.5,-120114.2 54577.5,-120114.2 0,0 35325.5,0 12849.8,-44255.2 -22475.8,-44255 -67427.3,-75870.5 -67427.3,-110637.5 0,-31615.7 77053.1,-75859.4 77053.1,-75859.4 -22475.6,-31615.5 -9625.8,-88510.1 -9625.8,-151729.9 0,-66382.5 22475.7,-123288.2 22475.7,-186508.2 0,-66382.3 -211919,-221275.1 -211919,-287657.5 0,-66382.7 -44951.4,-230752.1 67427.2,-284495 109166.3,-53732 266496.3,-199136.5 600419.9,-88498.9 333923.5,110626.2 288971.9,243391.4 247233,306611.2 -44951.5,66382.7 -170179.8,265530.1 -202281.4,331912.7 -32113.2,63219.8 -9637.4,186508.1 12838.2,240240 19263.4,53743 32113.2,218112.5 9637.5,306622.5 0,0 22475.7,88510 22475.7,154892.6 0,66382.5 22475.8,240240.1 0,275007.1 0,0 44951.5,31615.5 44951.5,75870.5 0,44255.1 -44951.5,66382.6 -44951.5,66382.6 l -44951.4,97986.8 c 0,0 44951.4,9487.9 44951.4,97998 0,88499 -12849.8,177009 -12849.8,177009 0,0 -2088.7,70092.9 4052.4,168739 34984.9,-7275.2 65236.4,-13623 85850.5,-17009 134854.5,-18964.9 179805.9,-9477.1 311447.8,-97987 61002.3,-37929.6 202281.6,-186496.9 202281.6,-186496.9 0,0 44951.5,-208635.7 134853.7,-230763.2 0,0 -22474.9,-110637.5 44951.9,-151729.8 64215.7,-44255.2 99530.1,-331912.8 99530.1,-331912.8 0,0 0,-31604.4 0,-75859.3 0,-44255.2 -44952.9,-66382.6 -12838.4,-110637.6 0,0 -22476,-249716.8 -44953,-338226.8 -22475.9,-88510.2 -131641.5,-287657.6 -221544.3,-373005.2 -89902.9,-88509.9 112378.8,-297145.5 199068.4,-341389.5 89904.8,-44254.9 330712.7,-41103.4 481616.7,12639.6 154118,53731.7 147693,142242 109165,293971.7 -32101,142253.2 -41737,385655.8 -41737,474165.8 0,85347.4 -22476,284483.9 -22476,284483.9 0,0 109166,173857.4 22476,284495 0,0 0,211798.3 -102743,429910.7 -64213,142242 -83477,256042.1 -144491,316099.3 -67427,66382.6 -144480.5,265530.4 -211905.9,287657.6 -67428.9,18964.9 -22475.9,41092.4 -109167.6,129602.6 -85111.9,83793.9 -368806,227108.6 -703944.1,276996.1 13439.9,119499.7 21125,246140.7 18650.3,373083.2 17639.9,-1553.3 34905.4,-5084.8 52772.6,-11555.4 44951.3,-15802.1 330711,-161206.7 330711,-161206.7 61002.2,-60057.4 237595.5,-91672.7 237595.5,-91672.7 51365,-82184.8 231171.8,-154892.6 231171.8,-154892.6 64213.4,-151729.9 266494.4,-256042.3 266494.4,-256042.3 16062,-22127.5 93116,-50580.2 93116,-50580.2 64214,-120114.4 118803,-180171.6 141279,-262367.5 32103,-123277.1 166956,-319262 166956,-319262 0,0 -44951,-230751.9 44952,-252879.4 0,0 -9637,-85347.5 -22475,-164380.6 -12839,-66382.7 6424,-154892.7 6424,-154892.7 0,0 25688,-85347.3 25688,-129602.5 0,-44254.9 0,-132765.1 35315,-177008.8 0,0 -12839,-158055.3 -28902,-237088.4 -19261,-88499.1 -16050,-271844.2 -105953,-360354.3 -89902,-88510.1 22477,-290820.4 112380,-335075.4 89902,-44244 166955,-120114.5 366023,-110626.5 166968,9476.8 314661,164369.4 224758,297134.6 -89902,132765.1 -112378,373005 -112378,461515 0,88510 28901,192822.4 28901,192822.4 0,0 -16051,85347.1 -12838,240239.8 0,0 -16063,290809.2 -48165,521572.4 -28900,199136.4 -57802,233914.6 -80278,319262 -22474,85347.3 -115578,395132.7 -166954,458352.3 -19264,28441.8 -41740,104312.3 -115592,205461.9 -28900,37940.8 -128429,246565.2 -247233,300308.1 0,0 -86691,88499.1 -109167,107475.2 0,0 -80265,161206.6 -163744,173857.3 0,0 -144491,66371.3 -205493,75859.3 0,0 -6425,66382.6 -157329.2,88510.2 0,0 -134855.7,135927.7 -410977.3,164369.2 0,0 -279334.9,113800.3 -369237.8,110637.6 l -11044.8,-502.9 c -442.8,50770.4 -4075.2,90264.7 -14643.5,104815.3 0,0 14370.9,111140.3 20137.6,205785.7 64453.1,-13108.9 133980.2,-31928.5 133980.2,-31928.5 44951.4,-22116.3 314660.3,-75859.3 314660.3,-75859.3 54577.4,-56894.5 244008.3,-72707.8 244008.3,-72707.8 38539.7,-3162.7 263297.2,-91661.6 285761.2,-107474.9 147704,-126439.7 359611,-192822.4 378874,-237077.4 38539,-97986.9 282548,-192822.3 282548,-192822.3 77064,-126439.6 118803,-180182.6 118803,-180182.6 48163,-82184.7 160541,-230752 160541,-230752 67429,-97986.9 189433,-214949.7 189433,-214949.7 22476,-69545.2 61002,-224437.9 61002,-224437.9 89904,-120114.3 38538,-154892.4 73853,-230751.9 51377,-120125.7 99540,-306622.5 99540,-306622.5 0,0 32102,-110637.6 22476,-208624.4 0,0 0,-110637.5 9626,-177020.2 12849,-63219.9 28900,-107474.9 28900,-107474.9 0,0 -28900,-101160.5 28901,-164380.5 28889,-34767 -22477,-199147.8 9626,-243391.5 0,0 35314,-135927.8 16050,-214960.9 -19263,-88499.1 28902,-316099.4 -61002,-404609.5 -89903,-88510 -22475,-290820.2 67426,-335064.2 89903,-44254.9 260074,-85358.5 414191,-31615.5 154118,53731.9 199070,230752 109166,360354.5 -89903,132765.2 -44951,275018.1 -44951,363528.1 0,88510 6424,202299.1 6424,202299.1 0,0 28900,154892.7 35313,306622.5 0,0 -19263,183345.5 -51362,410934.8 -28902,199147.6 -22478,183345.4 -44952,265530.1 -22476,88510.1 -51378,328750 -99541,395132.6 -19264,22127.5 -25678,167532 -105953,278169.6 -28902,41092.4 -16051,170694.6 -144482,268692.7 0,0 -61013,297134.6 -208706,407772.2 0,0 -64215,164369.4 -109166,158055.2 0,0 -134854,186496.8 -195857,199136.5 0,0 -64216,177020 -189431,195984.9 0,0 -141280,173857.4 -333925,208635.6 0,0 -73850,170694.7 -234394,177020 0,0 -6414,91661.5 -279335,91661.5 -83477,0 -73852,44255.2 -150904.2,66382.6 -77064.1,22127.6 -166968,44255.1 -234383.6,53743 -50173.2,9409.9 -210522.8,53799 -321085.1,81111.9 z" /><path
     style="fill:#000080"
     id="path29"
     d="m 8468595.4,4193102.8 c 4188.5,-2794 8399.9,-5308.5 12690.8,-7565.8 68153.8,-35940.6 149202.5,-6761.2 221692.4,-33526.6 28900.7,-12639.6 41739.1,-47417.7 77064.5,-47417.7 -6424.9,-28452.7 28889.3,-31604.3 32101.8,-53731.8 9637.3,-37940.9 -6413.6,-72707.9 -9626,-110637.4 141267.9,3162.4 269708.8,154892.4 224757.3,281332 -16062.1,44255.2 -44951.5,82184.8 -86701.7,120114.5 -48152.7,44255.1 -61002.5,116963 -77053.3,183345.5 -38526.6,151729.9 80265.6,284495 57789.8,436224.7 -9625.9,53731.9 -19263.3,104312.4 -64214.7,142242 -28889.2,22127.5 -67427.2,22127.5 -96316.4,6325.3 -64214.7,-28452.7 -154117.8,15802.2 -192655.6,-72707.9 89902.9,-18964.8 176593.4,-53731.8 208706.5,-142241.8 35314.1,-88510.1 28900.5,-183345.3 6424.9,-271855.4 -28900.8,-113789.2 16050.8,-237077.3 -48163.9,-322424.8 -51376.4,-63219.9 -166967.5,-56894.6 -253658,-91672.8 -9626,-3151.4 -35314.2,-25278.9 -22475.8,-47406.5 3212.4,-3162.6 12849.8,0 22475.8,0 l -12838.4,31604.5 z m -2664952.1,-53732 c 6424.8,-31615.5 -16050.8,-79033.2 -38526.6,-60068.3 -51376.4,53743.1 -96327.9,88510 -170179.9,113800.3 -25688.1,6325.3 -73840.8,34778.1 -44951.4,75870.5 28900.5,37929.7 89902.9,41092.3 115591,82184.7 38526.6,60057.2 80265.8,129602.4 35314.2,202310.1 -12838.5,25279.1 -32101.8,41092.5 -41739.1,69534.3 3212.5,0 6424.9,0 12849.8,0 -9637.3,0 -19263.3,-3162.7 -22475.8,0 -41738.9,116962.9 -12849.6,278169.4 -134854.2,350877.4 3212.3,123277.1 157330,79022.1 234383.2,63219.8 16062.2,-224426.5 67427.1,-445701.7 22475.7,-679616.2 -12838.5,-82196.1 9637.4,-154892.7 32113.1,-230763.1 0,3162.6 0,9487.9 0,12650.5 z m -131642,1416138.6 c 5164.9,469.4 10488.6,815.8 15846.5,1050.5 6459,279.4 13008.7,435.9 19626.6,402.2 62671,-324 129746.2,-16461.4 153958.8,-61509.9 38526.5,-79022.1 6424.8,-180183 9637.4,-271844.5 -16062.3,3151.5 -32113.2,-22127.4 -41739.2,-6325.3 -48163.8,53731.8 -19263.3,145404.6 -73852.1,186497 -48163.9,37941 -112378.5,60068.4 -141279.2,101160.8 -29910.9,44188 60094.1,19724.8 93274.3,52021.9 2406.5,2358.2 4517.8,5017.8 6265.9,8035.2 l -41739,-9487.9 z m 163743.7,698592.4 c 105965,-12639.5 141279.2,-132765.1 105965,-214949.8 -9637.2,-22127.6 -6424.7,-66382.7 -48163.8,-66382.7 6413.5,-22127.4 -16062.1,-31604.3 -25688.2,-44254.8 -19263.1,-22127.6 -54588.9,-28452.9 -86690.4,-22127.6 -6425,3162.6 -16050.9,15802.1 -9637.4,18964.7 32113.1,18964.8 77064.7,44255.3 64214.8,88510 -12838.4,47417.8 -83478.1,18965 -77053.3,101160.9 -25688.1,-15813.3 -22475.6,28441.7 -44951.4,22127.6 -9637.3,72696.6 64214.7,56894.4 112378.7,88498.8 6413.6,6325.3 9626,28452.9 9626,28452.9 z m -32101.7,287657.5 c 115591,75859.4 260071.4,-22127.4 343549.5,-110637.5 12849.7,-12639.5 22475.8,-34767 12849.7,-53743 -16062.1,-25279 -48163.8,-15802.3 -64214.7,-6314.3 -96327.8,56894.7 -195868.1,85347.5 -288972.1,139079.4 -9637.3,6325.4 6413.4,22127.5 -3212.4,31615.4 z m 301810.4,293971.9 c -32101.6,9488 -67427.2,-3151.7 -99528.9,6325.3 -25687.9,6325.3 -48163.9,25290.3 -32113,50580.4 16050.7,22127.5 54588.7,41092.3 67427.1,44255.1 102741.5,31604.3 163755.1,-79033.2 231182.4,-154892.7 9625.8,-12650.5 -9637.4,-18964.9 -9637.4,-31615.5 -35314.1,3162.6 -61002.3,25290.1 -86690.5,37940.9 -28900.6,15802.2 -41739.1,34767 -70639.7,47406.5 z m 96327.9,180182.6 c -32113,15802.2 -99540.3,37929.8 -77064.5,69545.2 19263.3,25290.3 57801.2,63220 99540.1,34767.1 38526.7,-28441.7 77053.2,-44255 99529,-85347.5 16050.9,-28452.8 32113,-63219.7 25688.1,-97986.6 -51376.3,25290.1 -99528.8,60057 -147692.7,79021.8 z m 186219.3,347715 c 25688.2,22127.4 32113.1,69545.2 73852.1,53742.9 44951.6,-18976 44951.6,-82195.8 80265.7,-101160.4 19263.2,-6314.4 48163.9,-15802.4 61013.6,-31604.6 9626,-9487.8 9626,-37940.8 0,-47417.7 -28900.7,-28452.8 -67427.3,-37929.6 -89902.9,-79022 -16062.3,-28452.8 -61013.7,-18976 -80277,3151.5 -9626,6325.3 0,34778.2 -6413.6,47417.7 -19274.6,34778.2 -67427,15802.2 -96327.8,28452.8 -16050.8,9476.9 -35314,25290.3 -22475.6,50580.4 19263.2,31604.3 44951.4,56894.5 86690.5,44243.8 -3212.5,12650.7 -12838.5,28452.9 -6425,31615.6 z m 362824.2,316099.3 c 147692.8,-9476.8 183018.3,-161206.7 263284,-262356.4 22475.6,-28452.8 -16051,-69545.2 -35325.6,-56905.6 -64214.8,44255 -105953.8,151729.9 -189431.9,120125.4 -28900.5,-12650.5 9637.3,-56905.7 -6424.7,-79033.1 -19263.3,-25290.1 -54577.6,-37929.6 -89903.1,-6314.1 -12838.5,15802.1 -12838.5,31604.3 -19263.2,47406.4 -6413.6,15813.3 -28889.3,3162.9 -32101.7,22127.7 -3212.5,18976 6413.6,41092.3 -3212.5,50580.2 -25688.1,22127.6 -41739,41092.4 -28900.6,69545.3 25688.3,53731.8 83478,97986.9 141279.3,94824.2 z m 327498.6,211798.3 c -9637.4,-132765.1 154117.7,-177020.2 163755.1,-284495 9625.9,-126439.9 -147704.2,0 -234394.5,0 -54577.5,0 -80265.7,63219.9 -93115.6,129602.3 -3201,12639.5 -16050.8,34767 -38526.5,34767 -3212.5,66382.7 77064.6,107475 134854.4,126439.8 19263.3,6325.2 70639.6,22127.5 67427.1,-6314.1 z m 109166.1,79022 c 70639.9,44255 138067,97998 215120.2,135927.6 250445.4,123277.2 523366.6,142242.1 799489,186497 115591,15802.2 227969.8,-12639.5 343549.4,-6314 -6413.5,-12650.8 22475.9,-18976.1 9637.4,-31615.7 -35314.2,-37929.7 -86690.4,-28452.8 -131641.9,-37929.7 -118803.6,-31615.4 -237595.8,0 -353186.8,-25290.1 -202281.6,-44255 -391713.5,-88510.1 -571519.2,-192822.1 -28900.7,-15813.5 -54588.9,-37929.8 -77064.7,-63220 -41739,-60068.4 -44951.5,-129602.5 -93104,-183345.5 -9637.4,-12639.3 -32113,6325.4 -38537.9,12650.7 -61002.3,47406.4 -61002.3,126439.8 -109166.2,186497 -8661.3,8526.9 431.3,13354.7 12145.9,18964.8 4858.5,2324.5 10148.3,4783.1 14824.9,7688.8 5006,3118 9274.2,6761.2 11567.1,11276.1 l -32113.2,-18964.9 z m 1672818.9,360354.5 c 8093.6,894 16187.1,1631.6 24269.3,2279.6 136386.9,10996.7 272614.7,-10359.7 405982.2,-40209.5 256858.9,-63219.8 500879.3,-113800.2 748111.8,-189659.6 99531,-28452.6 240810,-53743.1 256859,-167532 6426,-31615.7 -38527,-107475 -96328,-82195.8 -89902,34778.1 -186218,44254.9 -260069.1,113800.1 -16050.8,12650.8 -44952.1,6325.3 -64216,15802.2 -83478.4,41103.5 -154117.4,104323.3 -237595.8,129613.6 -160542.7,53731.9 -317872.6,104312.1 -488041.2,132754 -125217.1,18975.8 -250445.6,-3151.6 -366025.2,44254.9 -3212.6,0 -3212.6,15813.4 0,15813.4 48152.5,18964.8 99528.7,41092.3 154117.5,37929.6 l -77064.5,-12650.5 z M 10484963,7701855.5 c -28889,-9476.8 -44951,-47406.4 -61003,-34766.8 -22476,18964.9 12850,82184.5 -48163,72707.9 -44952,-6325.6 -41739,-50580.6 -67426,-66382.6 -9626,-3162.7 -22477,-3162.7 -32103,0 -9637,3162.6 -19264,12639.6 -12849,18964.7 64225,82184.7 89904,192822.2 192655,227589.3 51366,18976 89903,-37929.7 105955,-85347.4 19262,-53731.7 -25688,-116951.8 -77066,-132765.1 z m 359611,-72696.5 c 1453,-4626.7 2338,-9119.3 2793,-13433 3587,-33850.7 -21387,-57185.1 -41318,-65600.3 -70639,-31604.3 -160543,18976.2 -234394,-50569.1 -12839,-9488.1 -41740,-3162.9 -64215,-3162.9 70639,85347.5 109165,189659.9 195867,259204.9 16052,9488 70629,22127.5 77054,-6325.4 9636,-56894.5 48162,-97986.7 51375,-154892.5 l 12838,34778.3 z m 401352,-594280.4 c -19264,-3162.6 -41739,-18964.8 -54589,-6325.3 -32102,31615.7 16063,82196 -6413,113800.3 -28901,41092.3 -77065,-3162.6 -118805,6325.4 -6425,3162.8 -32100,15802.1 -19264,28452.9 54578,47406.5 83480,107474.8 144482,139079.4 41738,18964.6 57801,-53732 80277,-79022.3 32101,-28452.8 83478,-56905.7 86691,-91672.8 3212,-50580.2 -64215,-91672.6 -112379,-120114.3 0,3151.4 0,6314.1 0,9476.7 z m 231171,-170694.6 c -80264,-15802.2 -199070,-47417.5 -253647,18964.9 35314,22127.5 38527,72707.9 77054,82184.7 35325,9488 61013,28452.7 73851,50580.2 9638,22127.7 28902,31615.6 38528,53743 41738,-31615.3 25687,-82195.8 44951,-120125.4 19263,18964.9 22475,-12639.4 28899,-15802.2 22477,-12650.6 25689,-66382.4 -9636,-69545.2 z m 44951,-344552.1 c 6426,-6325.4 6426,-25290.2 0,-31615.6 -28890,-31604.3 -118791,-75859.3 -70628,-94824 89903,-34778.3 218331,101149.4 157319,202299.1 -41740,63230.8 -118793,79032.9 -183008,41103.3 -19262,-12650.8 -57800,-15813.3 -57800,-50580.3 0,-15802.2 -6414,-34778.2 3213,-41092.3 41739,-41092.4 105953,12639.5 150904,-25290.2 z m 12850,-436225 c 102740,-25290 195855,15802.3 263285,88510.2 35314,37929.6 25688,104312.1 12838,135927.6 -22477,56894.5 -105955,75859.3 -189432,53731.8 -48166,-15802 -86691,-60057.1 -57802,-88510 32114,-25290.1 96327,-53731.8 67428,-101149.4 -9626,-15802.2 -6414,-41092.6 -28890,-47417.8 -22475,-3162.6 -51376,15802.3 -67427,-12639.6 -3213,-6325.2 -3213,-25290 0,-28452.8 z m 333924,-331912.6 c -16063,0 -32113,-3162.7 -41739,3162.7 -41751,34778.2 -38539,104312.2 -77066,132765.1 -48163,37929.5 -125216,9487.9 -192643,22127.4 -9638,3162.7 6413,28452.8 12838,37929.8 44953,47417.5 122016,34778 179805,75870.5 22478,15802.2 54590,-6325.4 57791,-18964.8 16063,-79033.4 67426,-116962.9 99540,-177020.2 9627,-18964.8 22475,-53743 -6424,-72707.8 -6426,-6325.4 -19264,-3162.7 -32102,-3162.7 z m -22476,-306622.6 c -73851,12650.8 -141280,-31604.3 -208708,3162.8 -3212,0 -9624,12650.7 -12837,18964.8 -6425,34778.2 35313,47417.7 54576,47417.7 89905,3162.7 163758,53742.9 247234,56905.6 19263,0 28902,-37940.8 16051,-60068.1 -19262,-34767.1 -44951,-75859.6 -96316,-66382.8 z m 22476,-252879.4 c 41739,-18964.9 51365,-60057.3 70628,-97987 12850,-25290.1 44952,-9487.9 44952,0 16061,94824.3 16061,195984.9 -28889,281332.5 -12851,22127.4 -41741,-9488.3 -48165,-12650.8 -54589,-47417.8 -131641,-31604.4 -192646,-72696.8 -25687,-15813.3 -54588,-63231 -22474,-66382.5 70628,-6325.3 115580,-47417.6 189432,-53742.8 -6426,6325.2 -9627,15802 -12838,22127.4 z m 89902,-183334.3 c -44952,0 -163754,-37940.9 -122015,22127.6 25687,37929.6 99540,9476.7 154118,-3162.8 16050,-6325.4 19263,-22127.4 9636,-31615.5 -12849,-18965 -25687,9488.1 -41739,12650.7 z m -109165,-331912.6 c -41751,-94835.4 -19274,-199147.7 -51376,-281332.4 -32113,-85347.4 -160545,-129602.3 -186231,-227600.5 -38529,-164369.4 205494,-139079 324297,-120114.3 51365,6325.3 122004,53731.8 96316,123276.9 -48163,145404.7 -160532,293983.1 -102742,448864.6 35315,88510 93117,199147.5 38527,278180.7 -38527,56894.6 -122004,75859.4 -199068,28441.7 -19265,-9476.8 -16050,-34767.1 -9626,-50569.1 35314,-66382.5 128428,-110637.6 89903,-199147.6 z m -1004985,328750 c -1724,5967.7 -2554,12382.4 -2350,18584.8 545,16796.8 8424,31984.2 24827,31984.2 67427,0 134853,-9476.6 199068,-41092.3 38527,-18964.8 48166,-72696.8 44953,-94824.2 -19264,-158055.3 -44953,-309785.2 -25690,-461514.9 3213,-47417.8 -9625,-91672.8 6426,-132765.2 16051,-47417.7 57791,-85347.4 70641,-132765 9625,-41092.4 16051,-91672.8 0,-129602.4 -12850,-31604.4 -51377,-50580.4 -83491,-31604.4 -32103,18964.9 -41738,63219.9 -67417,94824.3 -16061,18964.7 -44950,18964.7 -61012,25290.1 -54578,18964.7 -118793,18964.7 -186220,31615.5 -38526,6314.1 -57801,50569.2 -19262,60057.1 48151,15802.2 109164,12639.5 147693,34767.1 96327,56905.7 89903,189659.7 57789,287657.6 -12838,34767.1 -41740,66382.5 -83478,56894.7 35313,85347.3 61002,173857.3 38526,271855.4 -3213,25290.1 -9626,53731.8 -19263,75859.3 -12838,28452.9 -61002,25290.2 -54578,66382.5 l 12838,-31604.2 z m 122017,350877.5 c 0,-12907.7 -861,-26240.3 -1781,-39639.7 -2712,-39170.2 -6153,-79133.8 8194,-112090.3 3212,-9488 3212,-28452.8 16063,-31615.5 22474,-12639.5 51365,0 61001,12639.5 86692,104323.3 67429,252890.8 -22476,341400.8 -19262,18965 -73850,15802.2 -102752,0 -100561,-55698.7 11103,-138665.8 39970,-210334.5 624,-1542.3 1238,-3073.1 1781,-4615.5 l 0,44255.2 z m -211918,341389.5 c 1021,-5029 2667,-9767.4 4381,-14360.6 3632,-9845.5 7434,-19121.3 5255,-29894.4 89902,-6325.4 186220,9476.8 256859,66382.5 -32101,85347.5 -22476,189659.6 -86690,256042.1 -28901,28453 -96329,6325.3 -131642,-22127.5 -22475,-18964.8 -38527,-60057.1 -9638,-72707.7 64227,-31604.4 109166,-75859.4 77064,-139079.5 -28899,-56905.6 -105953,15802.3 -144479,-28452.7 -9637,-9488.1 -22476,-41092.4 -3212,-60057.2 3212,-3162.7 12839,0 19263,0 l 12839,44255 z m 173380,458352.5 c 6425,-6325.5 -9626,-25290.4 -19264,-28453 -93115,-28452.7 -192643,-101149.5 -285758,-53743 -16052,9488 16050,18976.1 22475,25290.3 54589,34778.2 122016,28452.7 179806,63219.8 25688,15813.4 77052,22127.6 102741,-6314.1 z m -128430,91661.5 c -41739,-3151.5 -99528,-91661.5 -112379,-31604.4 -12837,44255.1 -80265,41092.4 -61002,82184.7 16052,31615.5 70640,28452.8 102742,63219.8 44952,50580.5 93116,-12639.5 122016,-63219.8 12838,-25290.2 -25688,-50580.3 -51377,-50580.3 z m -311448,284495 c -28889,22127.4 -64215,12650.7 -86691,25290.2 -44950,28452.8 3213,50580.3 25689,79033.1 16051,18964.8 61002,28441.7 77066,50569.3 9626,18964.8 35313,18964.8 44952,41092.3 3201,9487.9 32100,-6314.3 44939,-12639.6 22475,-15802.1 22475,-53743 41750,-69545.1 28890,-25290.2 80266,-22127.7 99530,-53731.9 19263,-25290.1 19263,-72707.8 -6426,-101160.7 -41740,-47417.8 -96317,-94824.2 -163743,-85347.5 -54588,6325.5 -3212,75870.6 -28900,97998.2 -11476,9678 -28811,16863.8 -48166,21602.3 -18536,4537.3 -38934,6839.4 -57789,6839.4 l 57789,0 z m -211907,142252.9 c -6425,6314.2 -12849,12639.7 -22476,9476.9 -6424,25290.2 28901,50580.4 -3212,63220 -22475,6325.2 -48164,12650.6 -61003,28452.7 -12849,12650.8 6425,28453 19265,37929.6 9637,6325.5 22475,0 32111,3163 48154,31615.3 80267,104312.1 144480,85347.2 9637,-3162.5 19264,-12639.5 22477,-18964.8 9625,-31604.4 -9639,-53731.9 -28900,-79022 -9627,-9488.2 0,-28453 -6414,-41092.5 -25688,-44255 -51376,-120125.6 -109177,-97998 -6415,3162.7 0,12650.6 12849,9487.9 z m -147692,360354.3 c -41750,12650.8 -93116,-37929.6 -112378,-12639.2 -38538.7,44254.8 12838,139079.1 77052,113800.1 44953,-15813.4 112378,-15813.4 131641,-60068.4 28901,-69545.3 -32100,-139079.1 -83476,-192822.2 -16052,56905.8 44949,123276.9 -44953,129602.3 l 32114,22127.4 z m -1387059.3,404620.6 c -32113.2,-3162.6 -89903,-18976 -67427.3,-31615.4 173380.9,-101149.6 378863.6,-3162.7 561881.8,-66382.7 54589,-18964.7 105953.9,-25289.8 157330.3,-47417.5 330711.2,-126439.8 378874.2,-202299.2 449515.2,-221275.2 22476,-6314.2 128429.7,113800.3 99529.1,129602.3 -147694.2,69545.3 -256859.8,120125.7 -494467,208635.7 -221533.4,82184.7 -314648.9,82184.7 -549043.5,69545.1 -22475.7,0 -73840.7,-31615.3 -157318.6,-41092.3 z M 7681956.1,7113912 c 73840.7,44255 285759.7,195984.9 658209.7,249716.8 28889.3,3162.6 122004.6,6325.3 125217,25290.1 3212.6,15802.2 -28900.5,28452.8 -41738.9,28452.8 -394925.8,-34778.2 -523355.4,-101160.4 -764163.6,-211798.2 -22475.7,-9476.8 -61013.7,-41092.4 -54588.7,-69534 6424.8,-22127.5 51376.2,-34778.2 77064.5,-22127.5 z M 7476462,7003274.4 c -35314,6314.1 -64214.6,28441.6 -51376.3,63219.8 12849.7,41092.4 54588.8,107474.9 89903,63220 64214.7,-82184.8 83477.9,-186508.1 128429.4,-281332.4 -89902.9,-6325.3 -138055.4,101149.6 -199069.1,154892.6 l 32113,0 z m -234383.2,-132765.1 c -12849.8,12639.6 -25688.2,22127.6 -32113.1,34767.1 -12838.4,41092.4 25688.1,97998 64214.7,79033.2 38526.6,-18976 67427.2,-47417.6 83478,-101160.7 3212.5,-6325.4 22475.8,-18964.9 25688.2,-25290.1 9637.4,-28441.8 41739.1,-66382.8 32113.1,-79022.2 -64214.6,-66382.5 -115591,47417.7 -173380.9,91672.7 z M 7097587.1,6598654 c -54577.6,-3162.6 -83478,50580.3 -77053.3,97997.8 3201.2,18964.9 28889.4,22127.6 35314.2,25290.2 48163.9,22127.6 179805.8,-142252.9 141279.3,-164380.4 -28900.7,-12639.5 -77064.5,18964.8 -122015.9,28452.8 6424.8,3162.7 16050.7,6325.3 22475.7,12639.6 z m -301810.5,-265519.2 c -25688.3,12639.7 -57801.3,12639.7 -73852.1,34767 -16050.9,25290.5 16050.8,47417.9 28900.6,47417.9 54577.4,3162.6 115591.2,-37940.9 134854.5,-91672.8 -28900.8,-9488.1 -61013.7,-18964.9 -89903,-9488.1 0,0 3212.3,15813.4 0,18976 z m -44951.5,-230762.9 c -44951.5,15802.1 -89903,31615.5 -131641.9,56905.6 -3212.5,6314.1 -6424.9,25279.1 0,28441.7 19263.2,12650.6 41738.9,31615.5 64214.8,22127.5 44951.3,-15802.2 128429.3,-50569.2 89902.9,-104312.2 -3212.6,-3162.6 -12849.8,-3162.6 -22475.8,-3162.6 z M 6683398,5966444.1 c -9637.4,-3151.6 -25688.3,18976 -19263.5,37940.9 9626.1,25278.8 48164,31604.2 61002.4,18964.8 25688.2,-31615.7 -9637.2,-56905.7 -41738.9,-56905.7 z m 70639.4,-477317.2 c -9637.3,-44255.2 -44951.4,-126439.9 -93115.3,-79022.3 -25688,25290.3 -16050.8,88510.2 -73852,104312.4 -28889.2,9488.1 -9626,50580.3 9637.3,56905.6 73840.8,25279.1 176593.5,6314.3 157330,-82195.7 z m -237606.9,-385644.7 c 70639.6,9487.9 144491.6,-22127.4 211918.8,15802.2 3212.4,3162.8 6425,22127.5 0,28452.9 -51376.3,53743 -125217,12650.6 -189443,28452.8 -57790.1,12639.5 -128429.7,28452.8 -176593.5,-28452.8 -3201,-6325.4 -3201,-28452.9 0,-28452.9 49923.4,-19657.7 101833.2,-18316.7 154117.7,-16729.7 14983.8,446.9 29933.6,927.5 44951.4,927.5 l -44951.4,0 z m -163743.7,-967274 c 105953.8,6314.2 154117.8,-15813.3 256859,-18964.7 12849.7,0 67427.2,28441.5 77064.6,28441.5 -22475.9,63219.8 -25688.3,151729.9 -32113.1,214949.8 -12838.4,113800.3 -9626,224437.7 9637.2,341400.6 12838.5,91661.8 -12849.7,180171.6 -9637.2,271844.4 -3212.5,0 -9626,0 -9626,3162.5 -12849.6,69545.5 0,0 -38538,63220 -9625.9,18964.8 -38526.4,22127.6 -57789.8,15802.1 -28900.7,-12639.4 -54588.8,-47406.4 -44951.4,-79022.1 38526.6,-135927.5 64214.8,-126439.6 48164,-265529.8 -6425,-50569.3 -38526.7,-101149.8 -80265.8,-132765.3 -12849.7,-9476.9 -28900.5,-22127.5 -35325.3,-37929.6 -32101.8,-69545.2 0,-151729.9 -28900.8,-221275.2 -19263.3,-41092.3 -70628.3,-56894.5 -93104,-94824.2 -19263.2,-34778.2 3201.2,-66382.5 22475.7,-91672.6 3201.2,-6325.3 16050.9,-3162.7 22475.9,-3162.7 -3212.6,3162.7 -3212.6,3162.7 -6425,6325.3 z m 3499756.2,69545.2 c 141279.1,-28453 272920,-3162.7 410976,-22127.5 51375,-6325.5 35326,31604.3 35326,37929.6 -6426,82184.8 -96329,167532.2 -51377,252879.6 70639,135927.6 28900,268692.7 61003,410934.6 9636,47417.8 -16052,91672.6 -38528,113800.3 -70640,66382.6 -183017,31615.6 -256858,-22127.7 -35325.7,-25289.9 -9638,-66382.3 38526,-75870.5 32114,-6314 64215,0 86692,-9476.8 70639,-37929.7 77063,-129602.4 61000,-189659.6 -16051,-53743 -86690,-53743 -147692,-47417.5 51377,-18964.9 125217,-88510.2 73852,-123277.2 -38537,-25290.1 -96327,-31615.5 -134853.8,-60068.3 -25688.7,-12639.4 -22476.7,-60057.2 -44951.4,-88510 -28900,-41092.4 -80265.1,-63220 -115591.8,-104312.3 -19263.7,-22127.6 -16050.5,-63219.9 22477,-72696.7 z m 401349,919856.3 c -67428,6325.3 -99540,-15802.2 -166966,-9476.8 -35315,44255 105965,66382.5 208705,104312.1 22476,3162.7 48164,-94835.3 28901,-135927.6 -28901,-53731.8 -51376,9487.9 -70640,41092.3 z m 0,284494.9 c -67428,0 -122015,-47417.6 -189430,-56894.6 -9638,-3162.6 -48164,-3162.6 -32114,-28452.7 25688,-37929.6 73852,-44255.1 105955,-69545.3 28898,-28452.8 102750,15802.2 109165,79033.3 0,3151.6 19263,15802.1 25688,25279 6426,9487.9 3212,25290.3 3212,41092.5 -12849,-3151.6 -19264,9487.8 -22476,9487.8 z m -282545.6,246565.5 c -9637.9,6314.1 -32112.5,41092.3 -12849.8,47406.4 38537.5,18976 96327.4,44255.1 122015.4,53743.1 77053,28452.9 154118,-135927.8 150905,-224437.8 0,-34767 -67428,-18964.8 -102741,-44254.9 -32114,9487.9 -25688,56905.8 -41750,91672.6 -25678,47417.8 -73841,37929.7 -115579.6,75870.6 z m -41739.4,379319.1 c -3211.8,-15802.2 -22475.6,-34767 -19263.5,-37929.7 48153.1,-41092.4 109165.5,-44255 154118.5,-91672.6 38526,63220 -3214,113800.1 -38540,161217.9 -19261,25290.2 -64213.5,25290.2 -80264.2,0 -6423.9,-6325.4 -16050.8,-18964.9 -16050.8,-31615.6 z m -359612.1,145415.9 c -3212.5,-15813.5 9637.2,-28452.9 16050.9,-31615.7 28900.6,-9487.8 70639.6,6325.5 93115.4,-6325.2 35314,-22127.5 61001.1,-60057.3 89902.4,-88510.2 38526.5,-34767 99530.1,9488.1 125218.2,60068.5 12849.6,25279.1 0,56894.6 -12838.5,72696.7 -22476,25290.2 -35326.6,63219.8 -64215.7,79033.2 -28901.3,12639.5 -54589.3,28441.6 -80277.5,41092.3 -80264.7,31604.4 -147691.8,-53742.9 -166955.2,-126439.6 z m -873329.7,369831.1 c 12917.8,-379.8 25676.8,-938.6 38345,-1609.3 l 15312.9,-927.5 c 185288.5,-11823.7 344900.3,-55452.9 517861.3,-133379.7 38526.7,-18964.9 80265.6,-53743.2 118792.2,-72708 28900.6,-15802.2 57801.3,-56894.6 96327.9,-41092.3 57789.7,25290.1 73852,107474.9 38526.5,132765.2 -128429.5,101149.4 -279334.8,135927.6 -439877.4,173857.3 -166956,37929.7 -516930.5,60057.2 -500879.7,-75870.5 29854.3,0 74487.8,7275.2 115591.3,12807.1 13360.4,1810.4 26346.3,3419.7 38345,4548.4 10624.7,983.6 20477.7,1609.3 29082.1,1609.3 l -67427.1,0 z m -802701.6,-265519.1 c 122004.6,180171.7 340348.4,167532.2 516942,259205 6413.5,3162.6 6413.5,28441.6 -9637.4,28441.6 -154117.8,6325.4 -305022.9,-44255 -443089.9,-113789.2 -105953.7,-50580.2 -224757.1,-135927.6 -157330.1,-249727.8 28900.8,-50569.2 64214.8,34778.2 93115.4,75870.4 z m -150905.2,-271855.5 c 44951.5,-37929.6 80265.6,-75859.3 131642,-37929.6 9625.8,6325.3 6424.9,31615.6 3212.4,50580.4 -16062.1,56894.5 -80277,47406.5 -115591.2,85347.3 -16050.8,18964.8 -57789.8,22127.7 -67427.2,9477 -25688,-31604.5 9637.4,-79022.1 48164,-107475.1 z m -166967.5,-56894.5 c -22475.7,6325.4 -32101.6,34767 -41738.9,31604.5 -35314.1,-12639.6 3212.5,-37929.7 -6413.7,-66382.6 19263.3,3162.6 16051,-44254.9 38526.7,-37929.6 -6424.9,-85347.3 70639.6,-148567.3 141267.8,-123277.1 25688.4,6325.4 57801.5,41092.4 44951.6,75859.4 -32101.7,69545.2 -99529,104323.3 -176593.5,120125.4 z M 7341607.6,5675635 c 3712,-4481.4 6232,-8929.4 7798.5,-13321.3 1101.1,-3051 1748.1,-6057.1 2031.9,-9074.5 2520,-26217.9 -21669.9,-50893.4 -6617.9,-75602.3 9626.1,-18964.8 35314.1,-25290.1 54577.4,-31604.2 73852.1,-25290.4 154117.7,-22127.6 231182.2,-9488.2 28900.6,6325.4 67427.2,28452.8 41739.1,44255 -89903,56905.7 -205494.1,-18964.9 -288972.2,69545.2 -2429.2,2391.6 -19535.8,10192 -31908.6,2894.5 -3973.1,-2346.9 -7491.9,-6224.9 -9830.4,-12382.5 l 0,34778.3 z m 22475.7,-262367.6 c 57789.9,3162.7 138066.9,-88510.1 147692.8,-22127.6 3212.6,47417.9 -96316.4,53731.9 -147692.8,63220.1 0,-6325.4 0,-34767.2 0,-41092.5 z m -9637.1,-331912.6 c 70639.5,9487.9 144491.7,-22127.7 208706.3,15802.1 6424.9,3162.7 6424.9,22127.5 0,28452.8 -51376.4,53743 -122004.5,12650.7 -189431.7,28452.9 -57801.4,12639.5 -125228.4,28452.8 -173392.4,-28452.9 -6413.6,-6325.3 -6413.6,-28452.8 0,-28452.8 47550.9,-19691.4 100959.2,-18305.5 154117.8,-16718.6 15063.1,447.2 30081,916.5 44951.3,916.5 l -44951.3,0 z m 51376.4,-388807.3 c -54577.5,-56894.5 -80265.8,-120114.4 -118792.4,-180182.9 -35325.5,-60056.9 16050.9,-129602.2 -25688.1,-183334 -28900.7,-37929.8 -86690.5,-47417.7 -115591.2,-82184.8 -32113,-37941 -6424.7,-88510.1 32101.8,-101160.8 99540.1,-37929.7 211919,-31604.2 321085.2,-9476.8 32101.5,3162.6 67427.1,6314.2 99528.7,15802.2 54588.8,15802.1 96327.8,63219.8 73852.2,116962.9 -32113.1,72696.7 -93115.4,129602.4 -125217.2,202299.1 -41738.9,94835.3 12838.5,199147.6 -3212.3,303459.9 -16051,97997.8 -83478,164380.4 -179806,186507.9 -32113,6314.3 -67427.1,6314.3 -83477.9,-22127.5 -64214.8,-104312 86690.3,-116962.8 125217.2,-186507.9 9637.1,-18965 12849.5,-50569.4 0,-60057.3 z M 9223132.8,10050511 c 32101.9,-15800 57789.9,-22125 93104.1,-15800 32113.1,6326 48163.9,37929 64226.2,66382 105953.8,177019 150905.2,366678 215119.8,556339 -93115.2,22126 -186230.6,22126 -279346,18963 -19263.2,-3151 -38526.5,-28440 -41739,-50566 -28889.2,-113801 -64214.7,-281334 -109166.2,-461517 -6413.4,-22127 28900.6,-101150 57801.1,-113801 z m -285759.6,499446 c -6424.8,-139078 -19263.1,-227590 -6424.8,-341389 3212.4,-28454 19263.3,-53744 51376.3,-63221 44951.5,-12651 99528.9,3163 105953.7,44255 32101.9,167533 41739.2,297136 70639.9,445702 -25688.4,6326 -80277.1,3163 -96327.9,-12638 -35314.2,-47418 -86690.4,-69546 -125217.2,-107477 l 0,34768 z m -247232.9,-145405 c -12849.8,-79022 -22475.7,-154893 6424.9,-227601 19263.2,-41092 86690.5,-53732 112367.2,-9476 67427.2,110637 16062.2,246566 28900.6,369842 -73840.7,0 -77053.1,-75872 -112378.5,-120124 -9626.1,-9478 -28889.3,15812 -35314.2,-12641 z m -99540.4,-22126 c 9637.5,-60059 35325.5,-126442 -3200.9,-183347 -22475.9,-31604 -67427.4,-34767 -105965.2,-12640 -12838.4,6326 -22475.8,18966 -22475.8,31617 3212.4,60056 -28889.2,151730 22475.8,167533 28900.6,6324 67427.2,6324 99540.1,15801 3212.5,3162 19263.5,-9477 19263.5,-18964 3212.3,-60059 -6425,-60059 -9637.5,0 z m -199069.1,-666978 c -6413.5,-28452.9 22475.6,-31615.6 35325.5,-41092.4 25688.3,-15813.3 80265.7,3151.5 80265.7,28441.6 0,44255.1 19263.3,113800.6 -28900.8,139090.6 -25676.6,12639.3 -64214.8,0 -86690.4,28453.1 -3201,6314.2 -3201,22127 0,28441.2 28900.6,34778 77064.6,37940.9 105965.1,18965.2 67427.2,-50569.4 6413.5,-161206.9 67427.2,-205462 57790,-44255 105953.9,25290.3 125217.2,88510.4 16050.8,50568.4 -25688.2,66382.2 -64214.9,56894.2 0,18965.2 0,34778 0,53743.2 38526.7,-3163 93115.5,37929.2 115591.3,-3163 22475.6,-44255.3 22475.6,-104312.5 16050.6,-161217.8 57790.1,-6314.2 112378.9,18964.8 128429.6,56905.3 22475.8,60057.2 -41739,72697.5 -93115.4,85347.3 16050.9,63220.4 118803.6,63220.4 147693,28442.4 22475.6,-31604.3 -6413.7,-97987.7 16062.1,-132765.4 9626,-22116.3 48163.8,0 67427.2,18975.7 22475.6,28442.4 -35325.6,60057.2 -16062.2,82185.4 51376.4,60057.4 154117.6,12639.1 231182.2,25290.1 -51376.3,-104323.1 -48163.8,-224438 -44951.5,-341400.9 -163755,-22127.6 -330711.1,18976 -488041.2,-22127.6 -102741.4,-28441.6 -221544.8,-63219.8 -305022.9,-6314 -38526.5,25290 -54588.8,116951.7 -9637.4,173857.4 z m 635745.4,-252890.7 c 7151.3,-1754.5 12951.9,-1128.7 17855.7,1050.5 4960.7,2201.5 8979,5990 12486.5,10460.2 l 976.3,1285.2 c 11101.7,14986.4 17242.7,36555 32896.2,34621.8 57790,-3162.7 112378.7,-34767.1 170168.5,-34767.1 35314.3,3162.8 86690.6,34767.1 99529,12639.5 48163.9,-75859.3 -44951.5,-158055.2 -125217.2,-170694.7 -48163.7,-9488 -105953.6,44255.1 -150905,15802.2 -83478.1,-47406.5 -173381.1,-82184.7 -269708.8,-56894.5 -41739.2,9488 -44951.5,56894.5 -77053.3,79022.1 -12849.6,9487.9 0,34778.2 9626.1,37940.8 41738.9,15802.2 86690.3,3151.5 128429.4,-18976 61025.1,-35493.5 112435.4,39840.6 168772.3,89560.5 4132,3643.1 8297.8,7141.1 12486.5,10460.2 3087.7,2447.4 6164,4772.1 9274,6973.7 1759.5,1262.7 3564.5,2480.9 5335.3,3643.1 l -10886,-5353.1 -34065.5,-16774.4 z m -536205,-537374.5 c -19263.4,6325.5 -57790,12650.8 -41739.2,41092.4 19263.4,31615.6 54577.4,12650.7 70639.6,-3162.5 25676.8,-22127.7 -25688,-18964.9 -28900.4,-37929.9 z m 645371.3,-132764.9 c 41738.9,-3162.8 54577.5,-53731.9 64214.7,-88510.1 16050.8,-60057.2 0,-123277.1 -35325.5,-170694.9 -9626,-12639.3 -48164.1,-28452.7 -70628.2,-12639.3 -19274.8,12639.3 -51376.3,18964.9 -44951.5,53731.8 -35325.5,0 -54588.8,25290.1 -77064.6,44254.9 -9637.3,9488.1 -16050.8,34778.3 -25688.1,37929.8 -202281.6,47417.7 -401350.9,-6314.2 -600419.9,25290.1 12849.8,34778.2 -35314.2,72707.8 3212.4,94835.5 12849.9,9487.8 57801.3,22127.5 64214.6,-15802.2 41739.2,9476.7 83489.5,37929.7 86690.6,85347.3 28900.6,-9488 44951.4,-44255.1 70639.7,-50580.3 48164,-12639.6 77064.3,28452.7 83478,72707.9 0,6314.2 3212.5,-3162.8 3212.5,-9488 0,18964.8 6424.9,44254.9 -3212.5,50580.3 -19263.3,12639.4 -57789.9,-6325.4 -70628.3,9476.7 -22475.7,18976.2 0,50580.5 28889.3,56905.8 35325.3,9476.9 80277,15802.2 93115.4,-3162.6 38526.6,-41092.3 0,-116963 35325.6,-167532.2 12838.2,-18964.9 57789.8,-22127.5 67415.7,0 22475.8,47406.6 22475.8,97986.9 -38526.5,132765.2 -3212.4,3151.4 0,18964.8 0,31604.3 99540.3,-3162.7 208706.5,18964.8 295397,-31604.3 38526.5,-25290.2 3212.4,-139090.4 70639.6,-145415.7 z M 8558498.3,7550125.7 c 166956.2,15813.3 333923.5,31615.5 500879.7,25290.2 -16050.8,94835.4 51376.3,233925.7 -57789.9,293982.9 -54588.8,31604.4 -122016.1,22127.6 -173381,3162.7 -77064.6,-28452.8 -64214.8,-135927.8 -96327.8,-208635.6 -6424.8,-22127.5 -35314.1,-31604.4 -54588.8,-41092.3 -54577.4,-25290.3 -125217.1,-25290.3 -163743.7,-82184.7 16050.8,0 28900.7,9476.8 44951.5,9476.8 z m -57801.3,-834509 c 176593.5,-47417.6 353186.9,63219.9 513729.5,-9487.9 22475.6,94835.4 25688.1,192822.4 3212.5,284494.9 -19263.3,82184.7 -147692.8,132765.1 -218332.5,79033.1 -99540.3,-75870.5 -109166.2,-221275 -221544.8,-290820.2 -25688.3,-15802.2 -64214.9,-15802.2 -96327.9,-22127.6 -16051,0 -51365,-15802.1 -32101.8,-34767 9626,-9487.9 35314.3,0 51365,-6325.3 z m 256870.3,-742847.4 c 2429.3,-8750.4 4018.5,-17634.9 5062.9,-26530.7 7276.2,-61878.7 -12645.6,-126428.3 23826.5,-178930.9 16062.2,-22127.6 64226.2,-25290.4 93115.3,-22127.6 16062.3,3151.5 28900.7,34767 28900.7,50569.2 9637.4,107474.9 61002.3,230763.1 -6425,306622.6 -67427.2,79033.2 -227958.3,44254.9 -343549.4,15802.1 -38526.7,-9476.9 -48163.9,-82184.8 -19263.4,-94824.2 70628.3,-28453 147692.9,-56905.7 218332.4,-94835.3 l 0,44254.8 z m 89903,-395132.4 c 48164,-47406.5 -28900.5,-79022.1 -3212.4,-101149.5 67427.2,-53743.1 128429.5,107474.7 93115.3,158055.3 -54588.8,79021.9 -173380.9,44254.9 -266496.2,34766.9 -28900.7,-3162.8 -51376.3,-53731.8 -22476,-63220 61002.5,-22127.5 131642.1,-3162.7 199069.3,-9487.9 0,0 -3212.4,-15802.2 0,-18964.8 z" /><path
     style="fill:#000080;fill-rule:nonzero"
     id="path31"
     d="m 7035165.8,12623226 306.6,157 33.9,0 c 1997.9,983 4109.2,2124 6186.6,3353 1850.2,1084 3939,2402 6106.9,3822 11987.1,7935 22498.5,19064 22498.5,24652 l -22.7,0 45.5,1721 0,89 c 646.9,28219 -6640.6,57979 -13871.4,87573 -14302.8,58549 -28492,116559 27799.4,150959 l 272.4,178 c 33237,21813 76905.8,18741 117350.8,15891 13871.2,-983 27424.8,-1944 40206.5,-1944 l 147.6,0 0,34 c 31829.1,-12 66235.2,-7331 98620.7,-21278 7855.1,-3386 15653.5,-7209 23281.6,-11433 38867.1,-21480 72717.1,-53184 92604.6,-93819 l 20194.2,9588 c -22021.6,45016 -59231.4,79951 -101821.8,103497 -8195.9,4527 -16664,8684 -25302.5,12406 -35155.1,15141 -72694.1,23065 -107576.8,23099 l 0,32 -147.6,0 c -12236.7,0 -25279.6,917 -38606,1867 -44032.1,3096 -91537.4,6450 -131074.5,-19355 -69992.7,-42769 -53930.5,-108503 -37709.2,-174819 6878.8,-28140 13803.2,-56459 13235.7,-81973 l -68.2,-2011 -34.1,-302 c 0,-1084 -5834.4,-1933 -12486.3,-6336 -1498.5,-962 -3201.2,-2034 -5051.5,-3119 l -45.4,-34 c -1611.9,-949 -3257.8,-1854 -4813.1,-2625 l 11.4,-10 -283.7,-146 10011.9,-19714 z m -594221.9,-66393 c 601.5,15667 2849.2,30787 6663.2,44758 6265.8,22955 16834.1,42511 31500.2,55899 14132.3,12908 32441.9,20217 54747.5,19379 7628.1,-291 15835.1,-1565 24632.4,-3889 l 578.9,-123 295.2,-56 0,-12 c 5823.3,-1240 11680.6,-2949 17458.5,-5028 5925.5,-2145 11782.8,-4695 17424.4,-7556 28707.6,-14640 53760.1,-38297 62217,-64572 l 306.4,-1184 22.7,0 c 2667.4,-10830 4654.1,-22942 6686,-35314 7696.2,-46782 15993.8,-97048 63817.4,-116439 l 442.7,-156 c 41387.1,-14807 73988.4,6013 108087.8,27839 28435.3,18194 58141.7,37202 93047.3,31694 l 3507.6,21780 c -43407.7,6841 -76792.2,-14517 -108768.9,-34979 -29195.8,-18697 -57108.9,-36544 -87905.2,-25714 -36131.3,14740 -43396.2,58603 -50104.9,99439 -2100,12818 -4177.4,25400 -7071.9,37114 l 0,79 -306.4,1195 -170.4,560 c -10136.9,32431 -39786.6,61072 -73545.6,78272 -6561.1,3330 -13269.7,6269 -19944.4,8672 -6799.4,2448 -13678.3,4459 -20443.7,5901 l -34.3,0 c -10238.8,2682 -20069.1,4180 -29445.4,4526 -28707.6,1073 -52375.3,-8449 -70798.4,-25268 -17878.4,-16339 -30580.7,-39505 -37925,-66360 -4211.4,-15423 -6697.4,-32231 -7367.2,-49686 l 22396.5,-771 z m 386480.3,50949 -90.8,123 -170.4,302 c -2644.7,3486 -5142,6996 -7321.5,10393 -2349.6,3654 -4529.2,7354 -6413.7,10985 l 45.5,34 c -8854,17131 -12906.5,35225 -2758.3,46881 l 613,682 227,347 c 6311.4,9331 14268.8,17746 22089.7,26038 16243.8,17209 32260.6,34130 37221.2,59488 908.1,3307 1702.7,6705 2361.1,10192 6549.7,33839 -1464.4,64605 -19206.5,89113 -17515.2,24206 -44554.1,42166 -76315.4,50681 -4165.9,1129 -8161.6,2034 -11930.2,2750 l -45.4,0 c -52852,9743 -103138.7,8134 -152097.2,-359 -48527.1,-8415 -95760.2,-23657 -142891.1,-41259 l -57279.1,-21391 61229.3,0 9637.4,0 0,2794 c 44066,16261 88132.1,30253 133174.3,38076 46529.4,8090 94193.7,9633 144049.1,446 l 0,-10 c 3746,-705 7208.1,-1487 10272.9,-2303 26743.9,-7175 49424,-22127 63942.4,-42222 14302.7,-19746 20738.8,-44712 15415.1,-72260 -510.8,-2705 -1214.6,-5587 -2043.3,-8605 l -170.2,-905 c -3575.6,-19389 -17560.5,-34174 -31727,-49195 -8581.7,-9085 -17299.5,-18305 -24405.6,-28799 -16493.5,-19982 -11737.2,-46290 613,-70216 l 45.4,0 c 2293.1,-4425 4790.3,-8695 7389.8,-12729 2769.7,-4302 5562.1,-8280 8275.1,-11857 l 5028.5,3688 13235.9,9097 z m 203791.5,-93148 c 26210.2,2447 52159.4,-8337 77359.5,-18820 37584.4,-15645 73795.4,-30698 113298.2,-8280 44985.3,24797 56722.7,63588 51818.9,104925 -3609.5,30376 -16482,61957 -31420.6,89886 9444.4,-1990 18877.4,-3621 28299.1,-5264 34689.7,-6079 69039.1,-12081 92388.8,-33159 l 170.3,-167 c 9217.4,-7934 18616.3,-14561 27833.6,-21065 l -22.7,-11 c 16527.5,-11656 32601.1,-22999 44111.5,-39988 l 18604.8,12272 c -13825.9,20430 -31477.5,32879 -49639.6,45686 l -34,0 c -8808.7,6201 -17776.2,12538 -26108.2,19701 l -11.4,-10 c -28230.8,25335 -65633.6,31896 -103433.7,38523 -17254.1,3005 -34644.5,6046 -50298,10750 l 11.4,22 -1203.3,369 -28106.1,8638 15142.8,-24831 c 18605.1,-30543 37232.5,-68607 41409.8,-103856 3905,-32921 -5232.9,-63721 -40490.4,-83168 l -136.2,-78 c -29910.8,-17041 -61093.1,-4067 -93489.8,9421 -27754.2,11535 -56348.2,23448 -88154.8,20453 l 2100.1,-21949 z" /><path
     style="fill:#000080;fill-rule:nonzero"
     id="path33"
     d="m 8680832.2,12596327 227,514 m 556875.9,55698 11.4,-44 m -906112.6,-184787 c 9887.1,-2604 19603.8,-4615 29014.1,-6001 12827.1,-1878 25461.2,-2694 37743.3,-2515 63272.7,962 115795.5,28721 152460.6,72015 l -8127.7,6650 c 10386.6,78 20920.5,1129 31261.6,2883 27901.7,4749 54838.6,14953 74487.8,26352 -908.1,-7767 -703.8,-15198 737.8,-22307 3836.9,-18910 15994.1,-34845 38208.8,-47619 42386,-26820 90130,-29089 130416,-13097 7877.9,3130 15483.4,6973 22691.4,11455 7253.6,4492 14121.2,9645 20432.5,15343 l 329.3,291 351.8,301 c 9603.3,9455 22736.8,24107 33157.5,40278 l -22.7,11 c 2111.2,3275 4086.3,6549 5834.4,9745 l 22.8,-11 c 1827.6,3319 3541.6,6728 5040,10158 l 0,56 68.1,168 56.7,89 c 8683.9,20529 11294.8,40221 10863.4,58582 -34,1744 -147.6,3431 -238.4,5152 11680.5,1520 23610.9,4527 34985,7353 l 45.3,0 c 20897.8,5230 39695.9,9912 43396.4,3520 l 102.2,-167 11.3,10 c 8195.7,-14225 11442.2,-34061 14700.1,-54056 6640.6,-40655 13417.3,-81994 58845.4,-96208 27538.5,-9321 56405.1,-9690 83160.3,-3119 23803.7,5845 46041,17288 64271.3,32878 18389.5,15714 32771.7,35662 40740.2,58425 7809.8,22308 9489.8,47274 2815.2,73569 l -34.1,135 c -11691.9,43183 -47437.3,59967 -80696.9,75580 -7310.2,3431 -14529.7,6795 -20523.3,9969 l -147.5,100 -45.5,22 -90.7,68 c -11771.4,7833 -23883.4,14796 -36176.9,20685 -12407.2,5957 -25359,11019 -38696.9,15054 -66768.8,20160 -140541.5,12973 -209421.5,-36555 -26267.1,30353 -61615.3,51987 -100982.1,67164 -60786.5,23447 -131176.5,31538 -191645.3,33147 l -533.3,-22060 c 58312.1,-1543 126034.2,-9276 184017.1,-31639 56325.5,-21735 103479.2,-57409 123253.3,-114973 3053.5,-13579 6118.4,-28633 6493,-44478 363.2,-15590 -1861.7,-32319 -9205.9,-49688 l 11.2,0 -22.7,-56 -11.4,10 c -1191.8,-2737 -2599.5,-5540 -4143.1,-8346 l 0,-44 c -1589.2,-2929 -3292,-5733 -5017.4,-8405 l -45.4,0 c -9330.8,-14482 -21295.2,-27804 -30092.4,-36466 l 11.2,-11 c -5369.1,-4850 -11135.8,-9197 -17151.8,-12919 -6050.2,-3755 -12475.3,-6996 -19104.3,-9632 -33997.5,-13500 -74374.4,-11511 -110233.4,11342 l -488.1,291 c -16209.7,9309 -24961.7,20318 -27515.9,32935 -2678.8,13198 919.5,29010 9376.5,47205 l 272.4,604 -20421.1,9175 -34.1,-90 0,-10 -204.2,-459 c -2769.9,-5432 -10806.8,-12137 -22214.8,-18866 -17617.4,-10403 -42193.1,-19801 -67813.1,-24160 -25052.6,-4258 -50922.3,-3665 -71661.3,5599 l -11.3,-11 c -12112.1,5442 -22600.7,13979 -30160.7,26384 l -5891.2,9657 -9660.1,-5935 c -8979.1,-5521 -16584.5,-12194 -24223.9,-18887 -14053,-12336 -28412.5,-24931 -50740.7,-26865 -20693.6,-168 -23837.9,-8795 -28128.8,-20842 l -22.7,0 c -1509.6,-4248 -3348.5,-9333 -8070.8,-13993 -9228.7,-9086 -14654.6,-17433 -19388,-24764 -7219.6,-11141 -12486.6,-19244 -35336.9,-22697 l -2497.2,-381 -2066,-1352 -227.1,-145 22.7,-22 -7946.1,-5107 -11.3,11 -8354.8,-5142 c -13735,-8292 -26913.9,-15656 -35688.6,-20014 -29649.8,-9197 -62319,-18373 -93138.1,-19122 -29649.7,-714 -58118.9,6405 -81287.2,29201 -34110.7,33583 -42227,77994 -38083.8,124787 4302.2,48502 21715.2,99932 37550.3,145124 l -21238.3,7174 c -16266.7,-46466 -34201.7,-99393 -38708.3,-150410 -4676.7,-52771 4881.2,-103238 44588.2,-142330 28196.8,-27773 62353.2,-36456 97712.7,-35595 34008.8,804 68619.1,10539 99835.4,20240 l 658.5,189 976.2,491 c 9648.5,4750 24189.9,12719 38571.9,21423 l 56.8,45 8400,5175 181.6,134 6379.5,4100 c 21329.2,3555 31443.2,10182 39026,19067 z m 582337.2,189916 c -1260,7734 -2815.2,15111 -4393,22095 l -102.2,447 -215.7,637 c -5562.1,16428 -13065.2,31234 -22112.5,44589 62421.4,44737 129087.9,51241 189363.9,33025 11930.1,-3588 23803.7,-8270 35427.5,-13846 11692,-5611 22941.2,-12049 33588.8,-19145 l 136.2,-90 488,-301 783.3,-481 c 7560,-4046 14824.8,-7477 22169.3,-10907 28730.4,-13478 59606,-27994 68641.8,-61152 5539.3,-21847 4154.6,-42567 -2304.3,-60997 -6652,-19008 -18718.5,-35738 -34167.7,-48925 -15574.1,-13310 -34621.6,-23113 -55042.9,-28130 -22748,-5588 -47233,-5263 -70571.5,2660 l -261,78 c -32396.9,10070 -38061.2,44648 -43612.1,78631 -3598.3,22028 -7185.4,43887 -17344.9,61521 l 0,34 -102.1,179 c -12168.7,20954 -38810.4,14328 -68426.2,6929 l 0,-11 c -10590.8,-2638 -21703.8,-5444 -31942.7,-6840 z m -745694.8,-3498 c 1736.7,-17232 -4495.2,-35672 -10920.1,-54782 -4370.2,-12943 -8854.1,-26194 -11430.8,-40187 l -1963.8,-10673 10783.9,-2112 c 18434.6,-3621 29922,-3464 40705.9,1095 l 56.8,0 c 10420.5,4404 18264.4,12104 30399,24050 l 158.9,224 272.4,280 45.5,33 c 16890.7,17689 41432.4,30688 65474.7,43406 39071.3,20674 77041.9,40778 87848.3,81201 l -21692.4,5621 c -8332.1,-31168 -42056.9,-49005 -76769.5,-67377 -25665.4,-13578 -51841.7,-27447 -71195.7,-47722 l 11.2,-10 -34,-23 -22.7,23 c -10318.4,-10147 -16970.4,-16695 -23372.6,-19399 l 11.5,-22 c -4143.4,-1733 -9081.2,-2247 -16164.4,-1498 2281.5,8827 5221.7,17599 8116.3,26172 7208.1,21413 14189.2,42055 11975.6,63868 l -22294,-2168 z m -137068,234072 c 39185.1,-13612 70389.9,-39753 102014.8,-66259 11169.8,-9355 22419,-18775 32839.5,-26845 l 227.2,-123 102.2,-78 33.9,-45 c 2054.7,-1498 4824.4,-3263 8082.3,-5118 3064.8,-1744 6583.7,-3554 10250.2,-5242 21193.1,-9756 50945,-16796 64407.8,-224 12021.1,14809 26425.9,20274 40660.6,25638 l 11.3,-33 c 14359.5,5420 28616.8,10829 42022.8,24016 l -15903.2,15656 c -10102.7,-9945 -22055.7,-14472 -34099.5,-19009 l 0,-56 c -17072.6,-6447 -34360.7,-13008 -50161.8,-32466 -4949.2,-6079 -23452,0 -37459.5,6450 -3178.4,1464 -6118.5,2972 -8581.8,4358 -2213.4,1252 -4154.6,2504 -5721.1,3643 l 11.5,12 c -11805.5,9130 -22067.1,17736 -32238,26239 -33282.1,27905 -66110.4,55398 -109041.5,70317 l -7457.7,-20831 z m 496350.5,-349727 c -32226.7,-34588 -76599.1,-56425 -129417.2,-57229 -10920,-157 -22384.8,603 -34258.3,2346 -6175.3,905 -12429.9,2057 -18741.2,3498 3178.2,4616 7049.2,9611 12407.1,14898 8263.7,8135 11033.5,15857 13337.7,22294 l 0,33 c 1248.8,3510 2156.8,6048 7605.6,6048 l 919.4,32 c 29933.7,2448 47199,17591 64112.6,32432 4154.7,3632 8309.2,7220 12554.5,10516 9183.4,-11376 20512.1,-19613 33214.2,-25312 l 34.2,-45 c 11828,-5297 24791.4,-8304 38231.4,-9511 z" /><path
     style="fill:#000080;fill-opacity:1;fill-rule:nonzero"
     id="path35"
     d="m 10669777,12458857 305,144 34,0 c 1998,985 4120,2147 6187,3365 1860,1084 3937,2403 6106,3822 11999,7924 22499,19065 22499,24653 l -22,0 44,1721 0,79 c 649,28228 -6629,57989 -13859,87580 -14314,58539 -28493,116562 27788,150960 l 307,224 c 32941,21625 74531,18730 115181,15892 14314,-995 28549,-1990 42342,-1990 l 158,0 0,34 c 31738,-10 66088,-7789 98268,-22139 7901,-3521 15666,-7432 23102,-11666 38446,-21860 71524,-53509 89823,-92568 l 20376,9265 c -20354,43429 -56759,78407 -98952,102400 -8219,4661 -16639,8919 -25119,12708 -34950,15578 -72537,24027 -107498,24050 l 0,44 -158,0 c -13294,0 -26984,950 -40742,1912 -44282,3083 -89561,6245 -128928,-19424 l -11,23 c -69992,-42769 -53929,-108503 -37708,-174831 6879,-28139 13801,-56447 13233,-81961 l -68,-2011 -34,-302 c 0,-1083 -5822,-1944 -12485,-6336 -1499,-973 -3201,-2046 -5053,-3129 l -44,-34 c -1601,-939 -3258,-1855 -4813,-2626 l 11,-12 -284,-133 10014,-19714 z m -816324.4,74742 c 12372.8,1106 22964.1,2224 33407.7,3319 57243.5,6012 113241.7,11902 184050.7,-6113 l 0,-23 363,-88 c 5971,-1699 11976,-3724 17833,-6059 5891,-2335 11805,-5040 17571,-8024 28573,-14862 53046,-37023 59118,-63007 l 181,-648 c 3826,-12808 6607,-27044 9365,-41237 8991,-46188 18016,-92389 64556,-111264 l 57,0 c 41989,-16908 74931,4593 109496,27168 28151,18395 57597,37617 92026,32208 l 3508,21780 c -43092,6783 -76248,-14862 -107930,-35571 -29512,-19278 -57653,-37651 -88643,-25190 l 11,11 c -35302,14317 -43181,54671 -51036,95015 -2803,14506 -5676,29066 -9820,43013 -7843,32813 -36832,59779 -70445,77258 -6390,3330 -13009,6337 -19672,8973 -6732,2672 -13463,4974 -20034,6830 l -352,100 -273,44 c -74931,19110 -132971.2,13020 -192304.4,6784 -11498.7,-1207 -23054.2,-2425 -33055.3,-3319 l 2021.3,-21960 z m 486348.4,-67757 c -9046,11879 -18093,25168 -22417,37941 -3690,10929 -3860,21701 3041,30878 l 23,-23 260,336 -22,11 c 6539,8214 14314,15980 21920,23580 18253,18204 35780,35705 40909,62627 l 12,0 c 465,2068 908,4147 1271,6158 l 0,45 c 6549,35448 -1509,67757 -20147,93214 -18470,25246 -47303,43641 -82412,51486 l 0,12 -57,0 c -2077,480 -4437,939 -7060,1408 l 0,22 c -52840,9744 -103129,8146 -152096,-357 -48529,-8416 -95762,-23659 -142892.7,-41261 l -57289.2,-21390 61240.1,0 12849.9,0 0,4011 c 42975.9,15758 86031.9,29237 129950.9,36859 46563,8091 94228,9632 144116,435 l 80,0 c 1793,-313 3871,-748 6151,-1251 l 47,0 c 29696,-6638 53896,-21928 69198,-42836 15143,-20697 21669,-47195 16290,-76419 l -12,0 c -317,-1753 -693,-3553 -1101,-5308 l -90,-481 c -3758,-20406 -19038,-35640 -34941,-51496 -7957,-7946 -16097,-16070 -23599,-25513 l -33,0 -262,-335 -91,-168 c -12237,-16071 -12385,-33730 -6481,-51162 5289,-15646 15550,-30856 25743,-44244 l 17901,13221 z m 326547,-118706 c 26640,3743 53044,-6806 78665,-17054 36937,-14764 72579,-28989 111470,-6918 l 0,-11 c 44985,24809 56733,63598 51818,104938 -3610,30363 -16538,61957 -31464,89873 9433,-1978 18921,-3621 28342,-5264 34703,-6069 69040,-12080 92390,-33146 l 182,-178 c 9205,-7924 18603,-14562 27822,-21056 l -11,-11 c 16516,-11668 32601,-22998 44100,-39985 l 18604,12270 c -13826,20416 -31477,32879 -49639,45685 l -34,0 c -8798,6192 -17777,12529 -26110,19703 l -10,-11 c -28230,25345 -65622,31895 -103434,38510 -17253,3019 -34644,6047 -50298,10752 l 22,33 -1213,369 -28118,8638 15154,-24843 c 18606,-30543 37233,-68594 41410,-103853 3928,-32925 -5243,-63734 -40479,-83157 l -148,-90 c -29400,-16752 -60105,-4481 -91934,8236 -28367,11343 -57620,23032 -90243,18451 l 3156,-21881 z" /><path
     style="fill:#000080;fill-rule:nonzero"
     id="path37"
     d="m 8532117.6,11546534 -408.6,-145 -90.7,0 c -9694.1,-3655 -19808.1,-8058 -29990.5,-13109 -10125.2,-5028 -20250.8,-10661 -29978.9,-16797 -51864.6,-32734 -94977,-80957 -84715.3,-134039 l 90.8,-436 c 2361,-10103 7015,-17646 13212.9,-22955 5936.8,-5119 13076.6,-8013 20784.3,-9097 7083.3,-983 14677.4,-447 22248.8,1263 18536.8,4225 37924.9,15836 49673.7,28990 l 488,526 c 18321.3,19657 37947.7,36195 58448.3,49784 20557.4,13613 42113.7,24420 64271.6,32567 114501.3,42166 246211.3,15098 347397.5,-46905 l 12429.9,18374 -578.9,402 -34.1,22 c -21363.4,15065 -42613.2,33058 -56824.9,53676 -13621.9,19771 -20841.2,42278 -15188.3,67299 l -21874.1,4750 c -7174,-31816 1657.1,-59957 18536.9,-84421 1203.1,-1743 2429.1,-3486 3700.5,-5195 -93013.3,37796 -199625.3,47921 -295374.3,12661 -23792.6,-8762 -46915.2,-20339 -68925.6,-34912 -22067,-14617 -43033,-32265 -62489.3,-53150 l -45.5,-45 -522.1,-581 -147.6,-167 c -8876.6,-10003 -23724.3,-18921 -37947.5,-22139 -4983.4,-1140 -9830.3,-1508 -14075.8,-928 -3609.8,503 -6788.2,1733 -9217.4,3823 -2690.3,2313 -4812.8,5956 -6050.1,11175 -7923.5,42152 29797.2,82653 74839.5,111061 9137.9,5768 18570.8,11043 27947.1,15681 9308.1,4615 18729.7,8705 27901.6,12158 l -11.3,23 329.1,133 -7809.7,20653 z m -498495.8,22484 c -1657.4,-14751 -3325.9,-32039 -1600.5,-48154 1906.9,-17880 7968.6,-34142 22305.4,-44222 8491,-6661 18763.9,-13634 29025.5,-20630 10170.9,-6929 20398.4,-13914 27822.3,-19714 l -11.4,-12 c 9603.2,-8404 10727.1,-25368 11884.9,-42957 1748.1,-26956 3621.1,-55162 31432.1,-72015 l 11.3,34 c 18627.5,-12036 42022.8,-12897 64714.2,-13735 15698.9,-559 31091.4,-1163 41909.3,-5644 14768.2,-8629 27072.9,-23190 39377.9,-37774 18298.3,-21669 36687.6,-43462 65497.5,-51564 l 124.8,0 272.4,-67 56.8,-56 c 5425.9,-1430 11135.7,-2425 17015.7,-2972 5721.2,-536 11487.6,-648 17174.6,-403 l 56.8,0 c 28980.1,1353 58856.9,12348 83285,26788 l 272.5,168 c 56904.4,35795 119268.9,68473 182473.5,83929 62046.4,15176 125160.4,13734 184914,-17893 17072.4,-9590 32476.2,-21290 47630.3,-32811 24530.4,-18608 48538.5,-36857 79539.1,-47028 l 567.5,-168 c 18344,-4917 36744.6,-9041 54327.9,-10280 18480,-1297 36335.7,526 52681.7,7676 l 783.4,347 c 43498.2,23067 54963.2,62929 67495.1,106571 l 2202.2,7645 90.8,312 c 3655.1,14416 17594.6,23177 35620.6,28430 20364.4,5935 45836.8,7433 69084.4,7433 l 0,22127 c -24893.6,0 -52431.9,-1677 -75407.1,-8381 -25268.2,-7377 -45099,-20777 -51058.5,-44233 l -2122.8,-7353 c -11169.6,-38894 -21397.3,-74419 -56427.6,-93049 -12373,-5241 -26426.1,-6515 -41341.7,-5476 -16028.2,1117 -32885,4895 -49730.6,9399 -27152.3,8962 -49639.5,26061 -72603.3,43472 -15835.1,12037 -31954.1,24275 -50332,34612 l -227,123 c -65384,34655 -133912.3,36376 -201044.1,19959 -65894.9,-16115 -130302.7,-49789 -188887.1,-86600 l 0,12 c -21635.7,-12785 -47823.3,-22519 -72853.3,-23671 l 0,-22 c -4790.2,-201 -9512.4,-111 -14064.3,313 -4415.7,413 -8888.1,1207 -13326.6,2381 l -11.3,-34 -102.1,22 11.3,34 c -22226,6248 -38367.7,25380 -54418.6,44388 -13712.4,16260 -27447.5,32523 -45768.6,43039 l -295.2,168 -805.9,357 c -14881.6,6505 -32658,7164 -50854.1,7835 -19706.2,714 -40059.2,1464 -53396.9,10225 l -352.1,257 c -17923.8,10861 -19410.6,33203 -20795.6,54559 -1464.3,22215 -2871.9,43639 -19365.6,58067 l -487.9,357 c -8581.8,6750 -19059.1,13914 -29502.3,21010 -10397.8,7097 -20841.3,14216 -28287.7,20083 l -476.7,380 c -8116.2,5711 -11726.1,16373 -13008.8,28487 -1475.7,13902 56.8,29826 1600.6,43506 l -22294.1,2413 z m 1101572,-229253 -11.4,-34 m 79017,175635 c -19558.4,-4448 -36619.6,-13143 -53124.4,-21570 -19240.7,-9812 -37720.7,-19234 -56745.6,-19234 l 0,-32 c -32499,0 -50933.7,34868 -67699.7,66606 l -45.5,0 c -4222.6,7979 -8388.4,15857 -12463.6,22731 l -19388.3,-11076 c 4132,-6994 8036.9,-14359 11998.4,-21847 l -22.7,-11 c 19751.5,-37394 41455.5,-78453 87621.4,-78453 l 0,-45 c 24371.3,0 45269.4,10651 67007.2,21748 15256.3,7789 31023.3,15814 47868.8,19647 l -5006,21536 z m -1059912.3,41773 c 19195.1,-5040 30069.7,-21267 40899,-37470 14132.3,-21145 28298.9,-42313 59435.7,-48056 l 124.9,-34 431.4,-78 45.5,0 c 8127.6,-1374 16459.4,-2124 24791.2,-2202 8411.3,-78 16652.5,492 24530.6,1677 l 0,56 c 41852.3,6370 79493.5,30230 97269.9,70250 l -20557.4,8816 c -14450.2,-32531 -45485,-52022 -80118.1,-57285 l -11.2,44 c -7015.2,-1061 -14053.1,-1564 -20932,-1508 -6924.5,66 -14030.4,714 -21147.8,1922 l 0,11 -431.3,79 0,-12 c -21726.5,4068 -33259.6,21257 -44724.4,38411 -13213.1,19757 -26448.7,39539 -53885.1,46736 l -5720.9,-21357 z" /><path
     style="fill:#000080;fill-opacity:1;fill-rule:nonzero"
     id="path39"
     d="m 10149338,11547093 c -49969,-7678 -99371,-5342 -148056,3162 -49027.3,8560 -97406.1,23402 -144969.6,40568 l -7740.7,-20732 c 48731.1,-17579 98359,-32788 148839.4,-41616 50795.9,-8862 102580.9,-11277 155343.9,-3163 l -3417,21781 z m -295975.5,-66171 919.5,78 c 4732.1,336 9613.2,313 14460.8,-78 4915.4,-380 9773.2,-1129 14439.5,-2190 23679,-5320 44486,-18496 52147.6,-35494 l 216,-469 c 4154.9,-8192 5267.9,-15211 4097.9,-21012 -1282.9,-6280 -5459.9,-11621 -11441.8,-15788 -6845.5,-4784 -15994.9,-8114 -26108.3,-9879 -19048.1,-3330 -40809.2,-1029 -57223.4,7588 l -10545.7,-19435 c 20955.9,-10996 48165,-14036 71639.4,-9935 13225.3,2303 25564,6929 35235.8,13690 10532.9,7354 18012.8,17222 20487.7,29434 2066,10248 488,21917 -5913.9,34724 l 11,0 -79,145 -137,325 -11,-12 c -10771.8,23312 -37492.3,40925 -67369.8,47653 -5834.9,1318 -11805.5,2236 -17708.3,2717 -5948.3,469 -11997.9,502 -17957.5,66 l -92.2,0 -906.3,-66 1839,-22062 z m 506566.5,132295 -637,-178 0,-12 c -12837,-3520 -26459,-6839 -40058,-10179 -70254,-17144 -140862,-34422 -180691,-98390 -2623,-3812 -5210,-7812 -7674,-11992 l -11,11 c -21195,-35783 -33306,-80765 -31433,-122616 328,-7455 1147,-14754 2384,-21961 -5585,-1330 -11363,-2872 -17163,-4570 l -56,0 c -10421,-3062 -21069,-6750 -31524,-11064 l -45,0 c -49527,-20462 -94977.4,-55108 -101844.3,-107063 -9715.9,4728 -19705.7,9243 -29842.5,13769 -47551.5,21244 -98270.4,43907 -116160,92367 l -21057.2,-7522 c 21137.2,-57230 76282.5,-81883 127988.8,-104985 15471.4,-6893 30659,-13688 43826.8,-20885 l 227,-122 17446.8,-9544 -794,19613 c -2054,50434 41238.6,84272 88902.6,103966 l -11,11 c 9649,4001 19571,7420 29309,10281 l 0,12 c 5370,1575 10773,3017 16085,4268 8310,-25636 23544,-48134 47189,-64002 2258,-1520 4676,-3018 7184,-4459 l 558,-325 453,-201 421,-178 c 5345,-2370 11203,-4549 17343,-6438 l 46,0 c 6163,-1878 12623,-3475 19128,-4682 34770,-6393 74816,-2616 100858,23021 l 123,123 -22,34 c 7980,7464 15562,15901 22498,25054 6935,9177 13270,19157 18787,29628 28616,54280 35699,122830 -1692,174337 l -18254,-12796 c 31899,-43942 25213,-103652 24,-151438 -4950,-9387 -10637,-18339 -16868,-26587 -6164,-8158 -12941,-15703 -20114,-22363 l -262,-213 -123,-123 c -19958,-19634 -52309,-22216 -80835,-16974 -5789,1073 -11397,2458 -16619,4045 l 0,11 c -5232,1609 -10228,3464 -14791,5487 l -113,56 c -1704,1005 -3405,2089 -5097,3218 -29807,20018 -43453,53656 -45097,90143 -1681,37649 9273,78183 28423,110514 l 0,34 c 2146,3620 4438,7219 6855,10695 l 307,469 c 34996,56617 101265,72809 167183,88902 13486,3297 26984,6605 40720,10360 l 55,0 625,178 -6062,21255 z m -132324,-238293 c 8571,11800 15483,22897 19865,34552 l 0,34 c 4597,12270 6459,25033 4631,39528 l -22305,-2682 c 1373,-10762 0,-20184 -3371,-29191 l -12,0 c -3643,-9654 -9603,-19176 -17061,-29457 l 18253,-12784 z" /><path
     style="fill:#000080;fill-rule:nonzero"
     id="path41"
     d="m 7309131.4,11591449 c 52273.1,-9388 103649.4,-6941 154503.6,2268 50956.3,9220 101231.7,25188 151404.7,42711 l -7457.9,20832 c -49333,-17244 -98643.5,-32913 -147999.2,-41841 -48901.8,-8851 -98144.1,-11176 -148022.1,-1978 l -3882.1,-20406 c -42942.3,46065 -104727.8,61174 -165991,76106 -13735.5,3364 -27493.3,6716 -40433.8,10270 l 0,11 -635.8,179 -6061.5,-21256 635.6,-180 45.4,0 c 13837.3,-3799 27470.4,-7129 41092,-10449 65997,-16104 132640.8,-32375 170202.7,-89068 l 11.2,10 c 1793.7,-2782 3655.2,-5889 5562.3,-9252 18548.2,-32599 29910.8,-73827 28242,-112069 -1634.3,-36911 -15619.2,-70952 -47448.6,-90879 l -34.1,-45 c -1555.1,-983 -3223.8,-1966 -4903.6,-2882 l -261.2,-157 -635.6,-379 -124.9,-79 c -3995.8,-2268 -8456.8,-4291 -13190.4,-5957 -4801.7,-1687 -10159.4,-3117 -15869.1,-4190 -28185.7,-5330 -61740.2,-1207 -81707.3,18439 l -113.5,112 -22.7,-23 c -6799.6,6705 -13292.4,14282 -19263.3,22464 -6005,8225 -11601.2,17232 -16561.7,26720 -24961.8,47820 -33225.6,107576 -1384.8,151450 l -18253.1,12796 c -37436.9,-51574 -28594.3,-120103 -283.8,-174348 5426,-10371 11589.7,-20306 18309.8,-29483 6742.7,-9241 13996.3,-17723 21556.3,-25177 l 0,-56 113.5,-112 c 25779,-25368 67393.2,-31000 101821.8,-24485 6549.7,1229 13054.1,2984 19217.9,5163 6197.9,2180 11964.5,4772 17004.3,7678 l 125,78 499.4,279 c 2032,1107 4063.9,2291 5993.5,3520 24564.5,15389 40388.3,37282 49208.3,62338 5164.9,-1029 10477.2,-2258 15744.3,-3644 9796.2,-2558 19672,-5711 29173,-9432 47528.3,-18551 90731.7,-52323 88677.1,-102771 l -738,-18640 16925,8336 11.3,-10 c 10670.4,4962 21987.6,9734 33532.2,14583 56824.8,23872 119053.1,50057 139099.6,112092 l -21340.5,6649 c -16890.8,-52336 -74215.3,-76451 -126533.8,-98433 -6504.3,-2740 -12940.5,-5478 -19217.9,-8206 -6447.6,52483 -52227.6,87383 -102173.8,106886 -10613.5,4156 -21306.5,7588 -31704.3,10302 -5301.3,1397 -10556.9,2626 -15744.5,3688 1555.2,8123 2531.3,16427 2894.6,24877 1861.7,42388 -10658.8,87918 -31068.5,123813 -1895.8,3320 -4007.2,6806 -6311.6,10371 l -45.3,78 c -5006.1,7555 -10432,14451 -16187.1,20788 z m 302185,-22050 c -45621.1,0 -88029.8,-17804 -106226.2,-53351 l -22.7,10 c -6561,-12192 -8263.7,-23447 -6300,-33426 2293.1,-11668 9478.3,-21166 19649.2,-28307 9262.7,-6493 21113.6,-11020 33906.6,-13423 l 45.4,0 c 23985.4,-4481 52273.1,-1609 73852.2,9723 l -10545.6,19434 c -16958.8,-8896 -39650.3,-11097 -59129.3,-7466 l 0,12 c -9796.3,1844 -18616.2,5129 -25131.9,9689 -5607.6,3923 -9478.4,8829 -10590.9,14495 -1032.9,5218 91,11555 4086.5,18988 l 90.7,212 c 13973.7,27514 48572.7,41283 86316,41283 l 0,22127 z m -360633.3,-114661 c -7049.1,8325 -12021.1,17411 -15199.4,27155 -3201.2,9847 -4642.9,20598 -4642.9,32188 l -22475.8,0 c 0,-13691 1793.6,-26677 5789.4,-38937 4018.4,-12360 10341.1,-23894 19308.7,-34487 l 17220,14081 z" /><g
     style="fill:#000080"
     transform="matrix(1.1351379,0,0,1.117551,1998263.5,1563516.2)"
     id="_46912696">
			<path
   style="fill:#000080;fill-rule:nonzero"
   d="m 4353650,9084930 0,-636430 0,-25450 25460,0 492170,0 0,50910 -466710,0 0,610970 -50920,0 z m -118800,79190 0,-845730 0,-25460 25460,0 707140,0 0,50920 -681680,0 0,820270 -50920,0 z"
   id="_46918952" />
			<path
   style="fill:#000080;fill-rule:nonzero"
   d="m 3694600,10272900 0,-715620 0,-25450 25460,0 924930,0 0,50910 -899470,0 0,690160 -50920,0 z m -115970,79200 0,-922100 0,-25360 25460,0 1100300,0 0,50710 -1074840,0 0,896750 -50920,0 z"
   id="_46917864" />
			<path
   style="fill:#000080;fill-rule:nonzero"
   d="m 5100390,10253100 0,-794820 0,-25450 25450,0 1080510,0 0,50910 -1055050,0 0,769360 -50910,0 z m -118800,79200 0,-1001300 0,-25460 25460,0 1298300,0 0,50920 -1272850,0 0,975840 -50910,0 z"
   id="_46916776" />
			<path
   style="fill:#000080;fill-rule:nonzero"
   d="m 5188070,9084930 0,-636430 10,-25450 25450,0 1080500,0 0,50910 -1055040,0 0,610970 -50920,0 z m -115970,79190 0,-845730 0,-25360 25460,0 1295470,0 0,50720 -1270010,0 0,820370 -50920,0 z"
   id="_46915528" />
			<path
   style="fill:#000080;fill-opacity:1;fill-rule:nonzero"
   d="m 6612240,9084930 0,-636430 0,-15550 15560,0 885340,0 15550,0 0,15550 0,636430 0,15550 -15550,0 -885340,0 -15560,0 0,-15550 z m 31120,-620870 0,605310 854220,0 0,-605310 -854220,0 z"
   id="_46914736" />
			
			<path
   style="fill:#000080;fill-opacity:1;fill-rule:nonzero"
   d="m 6745240,10190900 0,-712800 -10,-15570 15510,20 1405790,0 15490,-20 10,15570 0,712800 -10,15550 -15490,0 -1405790,0 -15510,0 10,-15550 z m 31000,-697240 0,681680 1374790,0 0,-681680 -1374790,0 z"
   id="_25245768" />
		</g></g>
	</g>
</svg>