<?xml version="1.0" encoding="UTF-8" standalone="no"?>
<svg
   xmlns:dc="http://purl.org/dc/elements/1.1/"
   xmlns:cc="http://web.resource.org/cc/"
   xmlns:rdf="http://www.w3.org/1999/02/22-rdf-syntax-ns#"
   xmlns:svg="http://www.w3.org/2000/svg"
   xmlns="http://www.w3.org/2000/svg"
   xmlns:xlink="http://www.w3.org/1999/xlink"
   xmlns:sodipodi="http://sodipodi.sourceforge.net/DTD/sodipodi-0.dtd"
   xmlns:inkscape="http://www.inkscape.org/namespaces/inkscape"
   version="1.0"
   width="1062.99"
   height="708.65997"
   viewBox="0 0 1000 500"
   id="Kazakhstan_svg"
   sodipodi:version="0.32"
   inkscape:version="0.45"
   sodipodi:docname="kazakhstan.svg"
   sodipodi:docbase="/home/divanov/rpmbuild/BUILD/freeciv-2.1.0-beta3/data/flags"
   inkscape:output_extension="org.inkscape.output.svg.inkscape"
   sodipodi:modified="true">
  <metadata
     id="metadata2617">
    <rdf:RDF>
      <cc:Work
         rdf:about="">
        <dc:format>image/svg+xml</dc:format>
        <dc:type
           rdf:resource="http://purl.org/dc/dcmitype/StillImage" />
      </cc:Work>
    </rdf:RDF>
  </metadata>
  <sodipodi:namedview
     inkscape:window-height="755"
     inkscape:window-width="1280"
     inkscape:pageshadow="2"
     inkscape:pageopacity="0.0"
     guidetolerance="10.0"
     gridtolerance="10.0"
     objecttolerance="10.0"
     borderopacity="1.0"
     bordercolor="#666666"
     pagecolor="#ffffff"
     id="base"
     width="1062.99px"
     height="708.66px"
     inkscape:grid-points="false"
     showgrid="false"
     inkscape:zoom="0.66704622"
     inkscape:cx="531.495"
     inkscape:cy="354.32999"
     inkscape:window-x="-5"
     inkscape:window-y="-5"
     inkscape:current-layer="Kazakhstan_svg" />
  <desc
     id="desc2501">Flag of the Republic of Kazakhstan</desc>
  <defs
     id="defs2503">
    <path
       id="be"
       d="M 0,-76.45 C 4,-76.5 5.5,-79 5.5,-82 C 5.5,-86 0,-105.05 0,-105.05 C 0,-105.05 -5.5,-86 -5.5,-82 C -5.5,-79 -4,-76.45 0,-76.45 L 0,-76.45 z " />
    <path
       id="orn"
       d="M -1,15 C -1,5 8,-0.14 15.072121,-0.14 C 24.6,-0.14 29.67324,5.5429809 29.67324,12.982057 C 29.67324,17.199 28.89871,19.84505 26.949517,23.881429 C 26.949517,23.881429 11.232327,56.486937 5.1137557,69.098798 C 4.3506632,70.671717 4.1044619,72.462248 4.1044619,75.087275 C 4.1044619,79.141224 8.0460365,82.454615 12.178813,82.556049 C 15.946272,82.650047 20.051305,79.052198 20.051305,74.952702 C 20.051305,69.973065 17.461945,67.753072 14.802977,67.753072 C 11.531226,67.753072 10.227511,69.094843 10.227511,71.38653 C 10.227511,72.983378 11.000593,73.674263 12.111527,73.674263 C 14.91779,73.674263 14.130114,69.906232 14.130114,69.906232 C 15.523896,70.210636 16.668963,71.631261 16.01413,73.405118 C 17.033704,73.631586 17.988792,74.165521 18.739224,75.019988 C 17.986945,75.74755 17.124043,76.309176 16.01413,76.500286 C 16.67135,78.664697 15.793133,79.722271 13.894613,80.167388 C 14.277724,79.334786 14.290906,78.568919 14.163757,77.846011 C 11.174887,78.693888 6.5940534,77.344608 6.5940534,72.193965 C 6.5940534,67.08021 10.151694,62.774364 16.821565,63.850469 C 15.234698,63.093596 14.427615,61.544954 14.264687,59.813294 C 15.475839,60.284298 16.821565,60.351584 16.821565,60.351584 C 16.041676,58.979728 14.958426,57.79719 15.004835,55.103255 C 16.241582,55.664112 17.389899,56.702686 18.974725,56.045263 C 16.487428,51.162666 19.543319,44.446508 27.318221,42.857157 C 24.472701,46.184414 23.079188,49.777263 23.079188,53.353813 C 23.079188,64.945481 26.308927,66.893455 26.308927,74.952702 C 26.308927,78.32444 24.571421,81.965678 21.127885,84.440065 L 21.127885,84.305492 C 23.404326,84.912519 24.861687,86.031471 25.7,87.55 C 20.49988,89.02142 12.941391,88.993633 8.8817862,87.40066 C 4.2161824,86.86237 0.95971684,83.290648 0,81.479469 C -0.95971684,79.66829 -2.8236958,73.114579 0,67.214782 C 3.0903362,60.75787 17.661431,29.937676 22.204465,20.248974 C 23.168066,18.19395 23.752049,16.014637 23.752049,13.65492 C 23.752049,7.7199823 18.301863,5.6478554 15.206695,5.6478554 C 11.50595,5.6478554 7.7379198,8.4603205 7.7379198,11.972764 C 7.7379198,14.198379 8.9490725,15.538935 10.698515,15.538935 C 14.881836,15.538935 14.627762,11.98893 13.793683,9.7523172 C 16.397163,10.919875 17.910448,13.004341 17.494428,15.202504 C 18.968382,15.403909 20.371469,16.101382 21.666175,17.557523 C 20.647466,18.840724 19.405016,19.810686 17.494428,19.845256 C 18.328868,23.25524 16.040174,24.697462 13.793683,25.497302 C 14.504358,22.994613 14.970869,20.114401 10.698515,20.114401 C 7.5835529,20.114401 5.1305772,19.576111 3.7007442,17.557523 C 3.6166365,20.248973 3.3643129,30.880202 3.3643129,30.880202 C 3.184883,34.875197 8.7247852,34.760959 12.2461,33.571652 C 10.917154,38.173425 8.1918319,40.661436 1.8840153,40.031134 C 3.4147776,40.670353 5.0464694,42.107348 5.0464694,44.875744 C 5.0464694,48.622585 2,52.772886 0,54 L -1,15 z " />
    <path
       id="uorn"
       d="M 0,-35.598637 C 0,-35.598637 4.7530782,-39.583055 6.3671251,-37.584572 C 8.9631893,-34.370174 -1.6148703,-18.359773 -1.6148703,-12.721308 C -1.6148703,-3.4663271 4.5753036,-0.9495749 12.219049,0.37164156 C 17.347761,1.258136 25.7,0 25.7,0 C 24.127458,-2.1078802 23.104712,-2.7289755 20.455023,-2.8975143 C 23.404894,-4.4252648 26.408867,-7.7416056 26.408867,-12.90486 C 26.408867,-20.866568 23.123385,-24.147608 23.123385,-33.123391 C 23.123385,-38.102574 27.216302,-44.441008 27.216302,-44.441008 C 19.982003,-43.718733 16.396176,-37.036315 18.436436,-31.696034 C 17.284843,-31.530555 16.239265,-31.78914 15.341267,-32.638042 C 14.811816,-31.157744 15.647621,-29.439553 16.767224,-27.959255 C 15.865491,-27.478574 15.203266,-27.766834 13.767214,-28.062576 C 13.903389,-26.537421 14.81955,-24.917108 17.060859,-23.391953 C 10.556777,-25.076417 6.5546382,-20.554385 6.5546382,-15.820438 C 6.5546382,-12.244602 9.0665766,-9.6818822 11.521697,-9.6818822 C 12.315163,-9.6818822 13.480714,-10.007886 14.138278,-10.497481 C 14.601801,-9.5133367 14.362949,-8.1961425 13.885459,-7.2119982 C 15.685071,-7.686535 16.827225,-8.7527235 16.01413,-10.971863 C 17.396346,-11.098529 18.495865,-11.564431 19.243871,-12.452148 C 18.486057,-13.420288 17.336466,-13.977953 16.01413,-13.932434 C 17.020519,-16.004247 15.898976,-17.164115 14.264687,-18.104209 C 14.264687,-18.104209 15.304002,-13.932461 12.649817,-13.932461 C 11.456315,-13.932461 10.368847,-14.320046 10.368847,-16.074657 C 10.368847,-17.602563 11.707809,-19.71908 14.802977,-19.584507 C 17.898145,-19.449935 20.407444,-17.455622 20.407444,-12.526793 C 20.407444,-7.9800039 16.731198,-5.7186754 11.886919,-5.5726384 C 7.5180943,-5.4380659 4.2207273,-7.7989729 4.2207273,-12.294502 C 4.2207273,-18.277988 12.879547,-31.9162 12.879547,-37.248961 C 12.879547,-41.249522 9.273139,-43.482674 5.7444019,-43.482674 C 1.1689361,-43.482674 -2.6914504,-38.96295 -2.6914504,-38.96295 L 0,-35.598637 z " />
  </defs>
  <rect
     height="666.66333"
     width="1001.6577"
     id="rect2508"
     x="-1.7763568e-15"
     y="-83.333321"
     style="fill:#00b0c7" />
  <g
     id="g2725"
     transform="matrix(1.35,0,0,1.35,-3.5290296,-87.527)">
    <g
       transform="translate(57.325,162.47)"
       id="g2512"
       style="fill:#ffc91c">
      <use
         xlink:href="#orn"
         id="use2514"
         x="0"
         y="0"
         width="1000"
         height="500" />
      <use
         xlink:href="#orn"
         transform="scale(-1,1)"
         id="use2516"
         x="0"
         y="0"
         width="1000"
         height="500" />
      <use
         xlink:href="#orn"
         transform="scale(-1,-1)"
         id="use2518"
         x="0"
         y="0"
         width="1000"
         height="500" />
      <use
         xlink:href="#orn"
         transform="scale(1,-1)"
         id="use2520"
         x="0"
         y="0"
         width="1000"
         height="500" />
    </g>
    <g
       transform="translate(57.325,337.57)"
       id="g2522"
       style="fill:#ffc91c">
      <use
         xlink:href="#orn"
         id="use2524"
         x="0"
         y="0"
         width="1000"
         height="500" />
      <use
         xlink:href="#orn"
         transform="scale(-1,1)"
         id="use2526"
         x="0"
         y="0"
         width="1000"
         height="500" />
      <use
         xlink:href="#orn"
         transform="scale(-1,-1)"
         id="use2528"
         x="0"
         y="0"
         width="1000"
         height="500" />
      <use
         xlink:href="#orn"
         transform="scale(1,-1)"
         id="use2530"
         x="0"
         y="0"
         width="1000"
         height="500" />
    </g>
    <g
       transform="translate(57.325,74.92)"
       id="g2532"
       style="fill:#ffc91c">
      <use
         xlink:href="#uorn"
         id="use2534"
         x="0"
         y="0"
         width="1000"
         height="500" />
      <use
         xlink:href="#uorn"
         transform="scale(-1,1)"
         id="use2536"
         x="0"
         y="0"
         width="1000"
         height="500" />
    </g>
    <g
       transform="translate(57.325,425.12)"
       id="g2538"
       style="fill:#ffc91c">
      <use
         xlink:href="#uorn"
         transform="scale(1,-1)"
         id="use2540"
         x="0"
         y="0"
         width="1000"
         height="500" />
      <use
         xlink:href="#uorn"
         transform="scale(-1,-1)"
         id="use2542"
         x="0"
         y="0"
         width="1000"
         height="500" />
    </g>
  </g>
  <g
     id="g2743"
     transform="matrix(1.35,0,0,1.35,-173.61698,-79.276054)">
    <path
       id="rwing"
       d="M 494.5,332.3 C 439.29005,329.74201 393.34838,289.00678 384.2,234.5 C 382.5,224.5 380.62027,219.57851 379.66213,220.36504 C 374.80743,224.35021 376.68191,237.79005 379.49451,248.88767 C 368.49922,237.37675 364.9809,209.95519 363.07666,211.74566 C 355.12678,219.22056 368.80369,253.72364 379.16567,267.93727 C 364.80481,256.70872 352.28802,222.20362 349.65206,225.89886 C 344.92873,232.52032 361.47743,264.91601 377.6105,279.57021 C 360.96261,275.9722 355.31763,258.98806 352.04172,260.9992 C 348.07975,263.43153 364.03326,285.34736 376.39934,292.89289 C 367.84613,291.73494 362.21129,283.44187 359.57778,285.35683 C 356.18056,287.82713 370.81458,302.38025 385.4157,306.75386 C 377.00492,306.21556 372.16031,303.52412 372.76589,305.40813 C 373.37147,307.29215 378.01422,312.40591 389.65474,314.42449 C 386.82872,315.77021 381.10938,314.22264 381.37853,316.17394 C 381.72364,318.67595 391.33689,321.08583 395.10492,321.28769 C 391.13503,322.29699 385.06583,322.26541 387.03058,324.31557 C 388.57817,325.93045 397.45995,327.74718 403.71757,328.55461 C 400.01403,329.66105 392.70059,328.14623 395.56916,330.95383 C 402.44482,337.68336 437.76441,344.74834 448.73207,340.73342 C 442.25672,338.97463 427.9082,335.97184 421.51284,334.64335 C 413.95693,333.07378 413.71581,330.86168 413.3606,330.09065 C 412.50639,328.23645 419.26109,329.27195 421.34656,327.20888 C 411.9473,326.777 407.16731,325.77298 406.54359,324.38286 C 405.71153,322.52843 411.29206,323.14961 412.13314,320.55909 C 403.95786,320.79459 399.2664,320.01895 398.60381,318.3271 C 397.90503,316.54283 402.94954,317.24095 403.89155,314.68407 C 396.22091,313.87663 391.13504,312.60776 390.52946,310.79103 C 389.77717,308.53418 395.90601,311.13888 397.6618,308.09959 C 389.53551,304.83491 383.0314,301.4606 382.45511,299.48694 C 381.85028,297.41552 387.32115,300.06609 391.06775,297.06464 C 386.68926,294.44536 381.01306,291.80667 379.49451,286.83713 C 378.6091,283.93956 384.75578,290.02737 389.18373,288.452 C 382.71131,284.72346 379.41347,276.72471 380.43652,275.26389 C 381.42002,273.85955 383.89794,278.23076 386.35771,277.95534 C 384.7803,275.52676 383.76477,272.19514 384.87741,271.765 C 386.17391,271.26378 406.54858,295.18615 414.21422,309.71445 C 427.64329,313.98459 441.51399,320.95756 454.04769,332.05349 C 468.06298,331.58516 478.5,334 489,337 C 491,336 493.5,334 494.5,332.3 z "
       style="fill:#ffc91c" />
    <path
       id="lwing"
       d="M 505.4,332.2 C 564.26107,329.43557 611.94442,283.44924 616.83913,224.72693 C 616.98362,222.5659 617.30499,219.23741 618.33816,219.9224 C 622.11628,222.42727 621.31838,237.34741 618.50578,248.44503 C 629.50107,236.93411 631.65882,210.91192 633.98163,212.11045 C 642.4698,216.49018 630.00404,251.93527 619.64206,266.1489 C 634.00292,254.92035 643.92373,222.92946 647.80994,226.26365 C 654.19333,231.74029 635.98457,265.14623 619.8515,279.80043 C 636.49939,276.20242 642.41352,259.21828 645.68943,261.22942 C 649.6514,263.66175 633.83246,284.90472 621.46638,292.45025 C 630.01959,291.2923 635.38529,283.53752 638.0188,285.45248 C 641.41602,287.92278 627.45486,302.34132 612.85374,306.71493 C 621.26452,306.17663 625.43627,303.21605 624.83069,305.10006 C 624.22511,306.98408 620.25522,312.36698 608.6147,314.38556 C 611.44072,315.73128 616.62177,314.18371 616.35262,316.13501 C 616.00751,318.63702 606.93255,321.0469 603.16452,321.24876 C 607.13441,322.25806 613.20361,322.22648 611.23886,324.27664 C 609.69127,325.89152 600.80949,327.70825 594.55187,328.51568 C 598.25541,329.62212 603.55026,328.91474 600.68169,331.72234 C 593.80603,338.45187 557.94815,345.24771 546.98049,341.23279 C 553.45584,339.474 569.15009,335.93291 575.54545,334.60442 C 583.10136,333.03485 585.36107,331.0919 585.71628,330.32087 C 586.57049,328.46667 579.81579,329.50217 577.73032,327.4391 C 587.12958,327.00722 590.96756,325.06119 591.59128,323.67107 C 592.42334,321.81664 586.84281,323.37983 586.00173,320.78931 C 594.17701,321.02481 597.79189,319.71088 598.45448,318.01903 C 599.15326,316.23476 595.3199,317.20202 594.37789,314.64514 C 602.04853,313.8377 606.32696,312.29969 606.93254,310.48296 C 607.68483,308.22611 602.36343,311.09995 600.60764,308.06066 C 608.73393,304.79598 614.83432,301.2871 615.41061,299.31344 C 616.01544,297.24202 610.27543,300.56545 606.6634,297.02571 C 611.04189,294.40643 616.85266,291.63317 618.37121,286.66363 C 619.25662,283.76606 613.10994,289.85387 608.68199,288.2785 C 615.15441,284.54996 618.18311,276.68578 617.16006,275.22496 C 616.17656,273.82062 614.23693,278.59555 611.77716,278.32013 C 612.68171,275.75698 613.15895,273.36737 612.04631,272.93723 C 610.74981,272.43601 589.43312,296.08923 584.18979,309.67552 C 570.76072,313.94566 558.10118,320.64949 545.56748,331.74542 C 531.41761,332.2191 516.15549,334.7501 505.99756,338.80454 C 489.99071,345.19352 478.40912,350.38947 473.02241,353.45052 C 465.85557,357.52314 458.72408,354.0561 470.86925,348.74048 C 475.58034,346.67856 484.75744,344.61522 488.76739,342.8193 C 494.1,340.6 497.60972,336.61223 499.5,335.1 C 500.5,334.3 503,332.2 505.4,332.2 z "
       style="fill:#ffc91c" />
    <path
       id="beak"
       d="M 477.4,352.66 C 478.22441,354.65769 477.43804,356.95691 475.56291,358.03131 C 473.68778,359.1057 471.30655,358.62144 470,356.9 C 470,356.9 468.81064,357.6 467,357.6 C 464.9869,357.6 463,355.5 461,356.5 C 458,358 458,362.5 462.2,364.6 C 462.2,364.6 461.4,361.3 464,361.3 C 465.5,361.3 466.00252,362 467,362 C 468.0028,362 468.5,361.4 469.5,361.4 C 470.5,361.4 471.86224,362.5 474,362.5 C 476.5,362.5 478.5,361 479.2,359.8 C 481.7,362 507.9,363 520,359.4 C 510,359.8 486.4,359.1 483.3,356 C 485.1,355.6 486.84676,354.49572 488,353.5 C 486.9763,353.41094 485.94653,353.29152 484.86479,352.91224 C 486.1,352.7 487.5,351.5 488,350.5 C 484.5,350.5 480.6,353.3 477.4,352.66 z "
       style="fill:#ffc91c" />
    <path
       id="tail"
       d="M 485,367.9 C 483.18019,369.35584 478.7,370.9 478.7,372.5 C 478.7,374.60569 486.09063,375.32454 492.1,372.1 C 491,377.4 498.8,378.8 502.9,373.2 C 503.8,378.4 510.4,379.4 513.6,374 C 515.6,379.5 523.3,378.9 524.3,373.2 C 527.4,378.8 534.9,378 535.8,372.4 C 540,377 548.3,375.6 548.2,369.5 C 553.8,372.7 560.4,371.4 558.3,365.3 C 565.4,369.8 576.3,365.6 570.6,360.4 C 582.5,362.7 589.1,357.8 589.1,351.8 C 589.1,348.88377 586.94537,351.11024 574.9,351.3 C 568.35373,351.40313 551.2,351.3 546.1,349.2 C 545.68077,349.02738 545.33879,349.08169 545.6,349.8 C 546,350.9 546.1,351.7 546.1,352.5 C 545.3,352.9 543.6,353 542.6,352.8 C 543,353.8 543.2,354.9 543,356.4 C 541.3,356.6 540.1,356.4 538.9,355.8 C 539.23624,357.11208 539.13025,358.41008 538.9,359.3 C 537.8,359.4 536.66951,358.96733 535.8472,358.52752 C 534.3,357.7 532.12943,358.73565 529.7,359.7 C 516.6,364.9 504.5,365.5 490,363.2 C 489,364.5 486,367.1 485,367.9 z "
       style="fill:#ffc91c" />
    <circle
       id="eye"
       r="1.9"
       cx="473.60001"
       cy="354.79999"
       sodipodi:cx="473.60001"
       sodipodi:cy="354.79999"
       sodipodi:rx="1.9"
       sodipodi:ry="1.9"
       style="fill:#ffc91c" />
    <g
       id="sun"
       transform="translate(500,215.05)"
       style="fill:#ffc91c">
      <circle
         r="68.699997"
         id="circle2550"
         cx="0"
         cy="0"
         sodipodi:cx="0"
         sodipodi:cy="0"
         sodipodi:rx="68.699997"
         sodipodi:ry="68.699997" />
      <use
         xlink:href="#be"
         id="use2552"
         x="0"
         y="0"
         width="1000"
         height="500" />
      <use
         xlink:href="#be"
         transform="matrix(0.9807853,0.1950903,-0.1950903,0.9807853,0,0)"
         id="use2554"
         x="0"
         y="0"
         width="1000"
         height="500" />
      <use
         xlink:href="#be"
         transform="matrix(0.9238795,0.3826834,-0.3826834,0.9238795,0,0)"
         id="use2556"
         x="0"
         y="0"
         width="1000"
         height="500" />
      <use
         xlink:href="#be"
         transform="matrix(0.8314696,0.5555702,-0.5555702,0.8314696,0,0)"
         id="use2558"
         x="0"
         y="0"
         width="1000"
         height="500" />
      <use
         xlink:href="#be"
         transform="matrix(0.7071068,0.7071068,-0.7071068,0.7071068,0,0)"
         id="use2560"
         x="0"
         y="0"
         width="1000"
         height="500" />
      <use
         xlink:href="#be"
         transform="matrix(0.5555702,0.8314696,-0.8314696,0.5555702,0,0)"
         id="use2562"
         x="0"
         y="0"
         width="1000"
         height="500" />
      <use
         xlink:href="#be"
         transform="matrix(0.3826834,0.9238795,-0.9238795,0.3826834,0,0)"
         id="use2564"
         x="0"
         y="0"
         width="1000"
         height="500" />
      <use
         xlink:href="#be"
         transform="matrix(0.1950903,0.9807853,-0.9807853,0.1950903,0,0)"
         id="use2566"
         x="0"
         y="0"
         width="1000"
         height="500" />
      <use
         xlink:href="#be"
         transform="matrix(0,1,-1,0,0,0)"
         id="use2568"
         x="0"
         y="0"
         width="1000"
         height="500" />
      <use
         xlink:href="#be"
         transform="matrix(-0.1950903,0.9807853,-0.9807853,-0.1950903,0,0)"
         id="use2570"
         x="0"
         y="0"
         width="1000"
         height="500" />
      <use
         xlink:href="#be"
         transform="matrix(-0.3826834,0.9238795,-0.9238795,-0.3826834,0,0)"
         id="use2572"
         x="0"
         y="0"
         width="1000"
         height="500" />
      <use
         xlink:href="#be"
         transform="matrix(-0.5555702,0.8314696,-0.8314696,-0.5555702,0,0)"
         id="use2574"
         x="0"
         y="0"
         width="1000"
         height="500" />
      <use
         xlink:href="#be"
         transform="matrix(-0.7071068,0.7071068,-0.7071068,-0.7071068,0,0)"
         id="use2576"
         x="0"
         y="0"
         width="1000"
         height="500" />
      <use
         xlink:href="#be"
         transform="matrix(-0.8314696,0.5555702,-0.5555702,-0.8314696,0,0)"
         id="use2578"
         x="0"
         y="0"
         width="1000"
         height="500" />
      <use
         xlink:href="#be"
         transform="matrix(-0.9238795,0.3826834,-0.3826834,-0.9238795,0,0)"
         id="use2580"
         x="0"
         y="0"
         width="1000"
         height="500" />
      <use
         xlink:href="#be"
         transform="matrix(-0.9807853,0.1950903,-0.1950903,-0.9807853,0,0)"
         id="use2582"
         x="0"
         y="0"
         width="1000"
         height="500" />
      <use
         xlink:href="#be"
         transform="scale(-1,-1)"
         id="use2584"
         x="0"
         y="0"
         width="1000"
         height="500" />
      <use
         xlink:href="#be"
         transform="matrix(-0.9807853,-0.1950903,0.1950903,-0.9807853,0,0)"
         id="use2586"
         x="0"
         y="0"
         width="1000"
         height="500" />
      <use
         xlink:href="#be"
         transform="matrix(-0.9238795,-0.3826834,0.3826834,-0.9238795,0,0)"
         id="use2588"
         x="0"
         y="0"
         width="1000"
         height="500" />
      <use
         xlink:href="#be"
         transform="matrix(-0.8314696,-0.5555702,0.5555702,-0.8314696,0,0)"
         id="use2590"
         x="0"
         y="0"
         width="1000"
         height="500" />
      <use
         xlink:href="#be"
         transform="matrix(-0.7071068,-0.7071068,0.7071068,-0.7071068,0,0)"
         id="use2592"
         x="0"
         y="0"
         width="1000"
         height="500" />
      <use
         xlink:href="#be"
         transform="matrix(-0.5555702,-0.8314696,0.8314696,-0.5555702,0,0)"
         id="use2594"
         x="0"
         y="0"
         width="1000"
         height="500" />
      <use
         xlink:href="#be"
         transform="matrix(-0.3826834,-0.9238795,0.9238795,-0.3826834,0,0)"
         id="use2596"
         x="0"
         y="0"
         width="1000"
         height="500" />
      <use
         xlink:href="#be"
         transform="matrix(-0.1950903,-0.9807853,0.9807853,-0.1950903,0,0)"
         id="use2598"
         x="0"
         y="0"
         width="1000"
         height="500" />
      <use
         xlink:href="#be"
         transform="matrix(0,-1,1,0,0,0)"
         id="use2600"
         x="0"
         y="0"
         width="1000"
         height="500" />
      <use
         xlink:href="#be"
         transform="matrix(0.1950903,-0.9807853,0.9807853,0.1950903,0,0)"
         id="use2602"
         x="0"
         y="0"
         width="1000"
         height="500" />
      <use
         xlink:href="#be"
         transform="matrix(0.3826834,-0.9238795,0.9238795,0.3826834,0,0)"
         id="use2604"
         x="0"
         y="0"
         width="1000"
         height="500" />
      <use
         xlink:href="#be"
         transform="matrix(0.5555702,-0.8314696,0.8314696,0.5555702,0,0)"
         id="use2606"
         x="0"
         y="0"
         width="1000"
         height="500" />
      <use
         xlink:href="#be"
         transform="matrix(0.7071068,-0.7071068,0.7071068,0.7071068,0,0)"
         id="use2608"
         x="0"
         y="0"
         width="1000"
         height="500" />
      <use
         xlink:href="#be"
         transform="matrix(0.8314696,-0.5555702,0.5555702,0.8314696,0,0)"
         id="use2610"
         x="0"
         y="0"
         width="1000"
         height="500" />
      <use
         xlink:href="#be"
         transform="matrix(0.9238795,-0.3826834,0.3826834,0.9238795,0,0)"
         id="use2612"
         x="0"
         y="0"
         width="1000"
         height="500" />
      <use
         xlink:href="#be"
         transform="matrix(0.9807853,-0.1950903,0.1950903,0.9807853,0,0)"
         id="use2614"
         x="0"
         y="0"
         width="1000"
         height="500" />
    </g>
  </g>
</svg>
