<?xml version="1.0" encoding="UTF-8" standalone="no"?>
<!-- Created with Sodipodi ("http://www.sodipodi.com/") -->
<svg
   xmlns:dc="http://purl.org/dc/elements/1.1/"
   xmlns:cc="http://creativecommons.org/ns#"
   xmlns:rdf="http://www.w3.org/1999/02/22-rdf-syntax-ns#"
   xmlns:svg="http://www.w3.org/2000/svg"
   xmlns="http://www.w3.org/2000/svg"
   xmlns:sodipodi="http://sodipodi.sourceforge.net/DTD/sodipodi-0.dtd"
   xmlns:inkscape="http://www.inkscape.org/namespaces/inkscape"
   version="1.0"
   x="0.00000000"
   y="0.00000000"
   width="600"
   height="400"
   id="svg548"
   sodipodi:version="0.32"
   inkscape:version="0.46"
   sodipodi:docname="leon.svg"
   inkscape:output_extension="org.inkscape.output.svg.inkscape">
  <metadata
     id="metadata695">
    <rdf:RDF>
      <cc:Work
         rdf:about="">
        <dc:format>image/svg+xml</dc:format>
        <dc:type
           rdf:resource="http://purl.org/dc/dcmitype/StillImage" />
      </cc:Work>
    </rdf:RDF>
  </metadata>
  <sodipodi:namedview
     inkscape:window-height="729"
     inkscape:window-width="1280"
     inkscape:pageshadow="2"
     inkscape:pageopacity="0.0"
     guidetolerance="10.0"
     gridtolerance="10.0"
     objecttolerance="10.0"
     borderopacity="1.0"
     bordercolor="#666666"
     pagecolor="#ffffff"
     id="base"
     showgrid="false"
     inkscape:zoom="0.91641039"
     inkscape:cx="249.51658"
     inkscape:cy="247.00407"
     inkscape:window-x="0"
     inkscape:window-y="0"
     inkscape:current-layer="g2669" />
  <defs
     id="defs549">
    <inkscape:perspective
       sodipodi:type="inkscape:persp3d"
       inkscape:vp_x="0 : 248.03149 : 1"
       inkscape:vp_y="0 : 1000 : 0"
       inkscape:vp_z="744.09448 : 248.03149 : 1"
       inkscape:persp3d-origin="372.04724 : 165.35433 : 1"
       id="perspective697" />
    <marker
       markerUnits="strokeWidth"
       refX="0"
       refY="5"
       markerWidth="4"
       markerHeight="3"
       orient="auto"
       viewBox="0 0 10 10"
       id="ArrowEnd">
      <path
         d="M 0,0 L 10,5 L 0,10 L 0,0 z"
         style="font-size:12px"
         id="path551" />
    </marker>
    <marker
       markerUnits="strokeWidth"
       refX="10"
       refY="5"
       markerWidth="4"
       markerHeight="3"
       orient="auto"
       viewBox="0 0 10 10"
       id="ArrowStart">
      <path
         d="M 10,0 L 0,5 L 10,10 L 10,0 z"
         style="font-size:12px"
         id="path553" />
    </marker>
  </defs>
  <g
     style="font-size:12px"
     id="g2669">
    <path
       d="M -2.7918206e-17,400 L 600,400 L 600,-4.4408921e-15 L -2.7918206e-17,-4.4408921e-15 L -2.7918206e-17,400 z"
       style="fill:#cccccc"
       id="path962"
       inkscape:export-xdpi="4.0500002"
       inkscape:export-ydpi="4.0500002" />
    <g
       id="g3070"
       transform="matrix(8.8629048,0,0,7.8422021,-2138.9113,-1775.3582)">
      <path
         id="path987"
         style="fill:#db4446"
         d="M 273.737,238.324 L 273.793,237.71 L 273.878,237.368 C 273.878,237.368 272.278,237.499 271.436,237.262 C 270.594,237.023 269.835,236.677 269.048,236.014 C 268.264,235.347 267.954,234.931 267.392,234.847 C 266.044,234.632 265.005,235.242 265.005,235.242 C 265.005,235.242 266.018,235.615 266.778,236.543 C 267.533,237.478 268.357,237.95 268.714,238.063 C 269.303,238.243 271.351,238.116 271.913,238.137 C 272.475,238.165 273.737,238.327 273.737,238.327" />
      <path
         id="path988"
         style="fill:none;stroke:#000000;stroke-width:0.387757"
         d="M 273.737,238.324 L 273.793,237.71 L 273.878,237.368 C 273.878,237.368 272.278,237.499 271.436,237.262 C 270.594,237.023 269.835,236.677 269.048,236.014 C 268.264,235.347 267.954,234.931 267.392,234.847 C 266.044,234.632 265.005,235.242 265.005,235.242 C 265.005,235.242 266.018,235.615 266.778,236.543 C 267.533,237.478 268.357,237.95 268.714,238.063 C 269.303,238.243 271.351,238.116 271.913,238.137 C 272.475,238.165 273.737,238.327 273.737,238.327 L 273.737,238.324 z" />
      <path
         id="path989"
         style="fill:#800080"
         d="M 281.219,236.074 C 281.219,236.074 281.223,236.79 281.293,237.474 C 281.36,238.13 281.081,238.705 281.189,239.068 C 281.293,239.435 281.345,239.724 281.487,239.988 C 281.621,240.253 281.695,240.923 281.695,240.923 C 281.695,240.923 281.312,240.651 280.957,240.387 C 280.608,240.119 280.357,239.953 280.357,239.953 C 280.357,239.953 280.429,240.669 280.462,240.976 C 280.5,241.283 280.679,241.861 280.969,242.203 C 281.256,242.538 281.83,243.088 282.007,243.529 C 282.191,243.974 282.154,244.954 282.154,244.954 C 282.154,244.954 281.688,244.21 281.288,244.076 C 280.895,243.938 280.031,243.459 280.031,243.459 C 280.031,243.459 280.823,244.245 280.823,244.993 C 280.823,245.74 280.5,246.59 280.5,246.59 C 280.5,246.59 280.142,245.913 279.677,245.469 C 279.208,245.028 278.56,244.584 278.56,244.584 C 278.56,244.584 279.066,245.74 279.066,246.52 C 279.066,247.306 278.925,248.974 278.925,248.974 C 278.925,248.974 278.53,248.329 278.135,248.015 C 277.737,247.712 277.272,247.44 277.126,247.239 C 276.985,247.035 277.596,247.881 277.662,248.392 C 277.732,248.904 277.975,250.727 279.569,253.055 C 280.5,254.416 281.941,256.796 285.028,256.013 C 288.119,255.234 286.972,251.08 286.324,249.14 C 285.676,247.204 285.352,245.056 285.39,244.305 C 285.423,243.561 285.963,241.35 285.892,240.937 C 285.821,240.532 285.653,238.952 286.037,237.679 C 286.432,236.353 286.76,235.838 286.972,235.291 C 287.183,234.748 287.362,234.441 287.434,233.965 C 287.505,233.489 287.505,232.6 287.505,232.6 C 287.505,232.6 288.078,233.658 288.223,234.032 C 288.365,234.409 288.365,235.527 288.365,235.527 C 288.365,235.527 288.472,234.409 289.337,233.866 C 290.201,233.316 291.206,232.741 291.458,232.434 C 291.709,232.124 291.783,231.923 291.783,231.923 C 291.783,231.923 291.709,233.831 291.172,234.582 C 290.815,235.069 289.408,236.656 289.408,236.656 C 289.408,236.656 290.13,236.381 290.632,236.353 C 291.135,236.314 291.493,236.353 291.493,236.353 C 291.493,236.353 290.882,236.829 290.092,237.985 C 289.303,239.139 289.624,239.241 289.05,240.193 C 288.472,241.145 288.007,241.18 287.288,241.759 C 286.208,242.626 286.79,246.075 286.931,246.587 C 287.076,247.095 288.942,251.319 288.979,252.339 C 289.012,253.361 289.195,255.64 287.396,257.103 C 286.238,258.052 284.343,258.059 283.911,258.33 C 283.478,258.598 282.622,259.448 282.622,261.219 C 282.622,262.993 283.263,263.261 283.766,263.705 C 284.272,264.149 284.917,263.91 285.061,264.252 C 285.207,264.59 285.277,264.795 285.494,264.999 C 285.71,265.2 285.855,265.44 285.781,265.81 C 285.71,266.188 284.883,267.038 284.596,267.655 C 284.306,268.261 283.732,269.866 283.732,270.102 C 283.732,270.342 283.665,271.09 283.911,271.467 C 283.911,271.467 284.809,272.515 284.197,272.719 C 283.803,272.853 283.416,272.472 283.23,272.515 C 282.693,272.656 282.413,272.987 282.258,272.959 C 281.9,272.892 281.9,272.716 281.863,272.211 C 281.83,271.703 281.848,271.495 281.688,271.495 C 281.472,271.495 281.363,271.672 281.327,271.94 C 281.288,272.211 281.288,272.821 281.04,272.821 C 280.787,272.821 280.429,272.38 280.213,272.282 C 279.997,272.179 279.387,272.077 279.352,271.806 C 279.316,271.534 279.711,270.956 280.105,270.853 C 280.5,270.751 280.861,270.55 280.608,270.346 C 280.355,270.141 280.105,270.141 279.856,270.346 C 279.603,270.55 279.066,270.377 279.1,270.071 C 279.137,269.764 279.208,269.393 279.17,269.221 C 279.137,269.055 278.705,268.713 279.275,268.402 C 279.852,268.099 280.101,268.678 280.675,268.575 C 281.252,268.477 281.539,268.265 281.755,267.93 C 281.971,267.591 281.933,266.875 281.539,266.435 C 281.144,265.99 280.75,265.92 280.604,265.648 C 280.459,265.377 280.247,264.731 280.247,264.731 C 280.247,264.731 280.351,265.92 280.28,266.093 C 280.21,266.262 280.247,266.974 280.247,266.974 C 280.247,266.974 279.852,266.533 279.528,266.195 C 279.208,265.853 278.884,264.834 278.884,264.834 C 278.884,264.834 278.85,265.786 278.85,266.163 C 278.85,266.533 279.278,266.875 279.137,267.013 C 278.992,267.147 278.311,266.297 278.132,266.163 C 277.949,266.026 277.376,265.585 277.123,265.105 C 276.873,264.629 276.69,263.952 276.62,263.709 C 276.548,263.472 276.43,262.411 276.548,262.143 C 276.727,261.737 277.015,261.021 277.015,261.021 C 277.015,261.021 276.37,261.021 275.614,261.021 C 274.862,261.021 274.322,260.785 274.035,261.293 C 273.749,261.804 273.89,262.827 274.248,264.153 C 274.609,265.475 274.821,266.124 274.717,266.364 C 274.612,266.6 274.144,267.147 273.965,267.246 C 273.782,267.352 273.279,267.316 273.063,267.218 C 272.851,267.115 272.494,266.942 271.808,266.942 C 271.127,266.942 270.695,266.974 270.446,266.914 C 270.193,266.844 269.582,266.537 269.291,266.604 C 269.004,266.674 268.508,266.928 268.643,267.32 C 268.863,267.933 268.431,268.071 268.141,268.036 C 267.854,268 267.608,267.898 267.243,267.799 C 266.886,267.694 266.345,267.799 266.417,267.387 C 266.487,266.978 266.633,266.946 266.811,266.643 C 266.993,266.332 267.06,266.135 266.858,266.114 C 266.606,266.089 266.353,266.061 266.156,266.223 C 265.966,266.382 265.657,266.724 265.403,266.597 C 265.149,266.463 264.953,266.17 264.953,265.528 C 264.953,264.89 264.278,264.333 264.897,264.361 C 265.515,264.389 266.301,264.841 266.442,264.495 C 266.58,264.146 266.495,263.991 266.16,263.719 C 265.823,263.455 265.403,263.296 265.853,262.95 C 266.301,262.608 266.413,262.608 266.584,262.418 C 266.752,262.234 266.993,261.635 267.307,261.783 C 267.924,262.076 267.336,262.502 267.954,263.19 C 268.573,263.881 268.964,264.125 270.003,264.015 C 271.041,263.91 271.325,263.776 271.325,263.483 C 271.325,263.19 271.238,262.661 271.208,262.446 C 271.183,262.234 271.351,261.462 271.351,261.462 C 271.351,261.462 270.874,261.758 270.733,262.047 C 270.598,262.34 270.315,262.841 270.315,262.841 C 270.315,262.841 270.2,262.245 270.233,261.758 C 270.252,261.473 270.353,260.975 270.342,260.877 C 270.315,260.612 270.118,259.946 270.118,259.946 C 270.118,259.946 269.949,260.665 269.839,260.877 C 269.727,261.088 269.671,261.942 269.671,261.942 C 269.671,261.942 269.012,261.367 269.195,260.401 C 269.332,259.656 269.082,258.673 269.306,258.352 C 269.526,258.031 270.058,256.729 271.351,256.673 C 272.643,256.624 273.652,256.729 274.103,256.705 C 274.552,256.673 276.151,256.384 276.151,256.384 C 276.151,256.384 273.204,254.871 272.531,254.416 C 271.857,253.968 270.818,252.797 270.479,252.265 C 270.143,251.732 269.835,250.699 269.835,250.699 C 269.835,250.699 269.306,250.723 268.826,250.988 C 268.349,251.249 267.873,251.655 267.593,251.968 C 267.309,252.289 266.863,253.009 266.863,253.009 C 266.863,253.009 266.945,252.078 266.945,251.785 C 266.945,251.499 266.889,250.932 266.889,250.932 C 266.889,250.932 266.554,252.208 265.88,252.684 C 265.206,253.167 264.42,253.83 264.42,253.83 C 264.42,253.83 264.506,253.118 264.506,252.956 C 264.506,252.797 264.674,251.972 264.674,251.972 C 264.674,251.972 264.197,252.684 263.467,252.825 C 262.737,252.956 261.668,252.928 261.583,253.383 C 261.501,253.83 261.78,254.444 261.613,254.761 C 261.444,255.082 261.08,255.294 261.08,255.294 C 261.08,255.294 260.66,254.945 260.294,254.92 C 259.929,254.892 259.591,255.082 259.591,255.082 C 259.591,255.082 259.282,254.68 259.393,254.416 C 259.508,254.151 260.067,253.753 259.929,253.591 C 259.788,253.432 259.338,253.647 259.058,253.778 C 258.779,253.912 258.187,254.042 258.243,253.591 C 258.299,253.139 258.44,252.875 258.299,252.554 C 258.159,252.24 258.243,252.025 258.47,251.944 C 258.693,251.87 259.591,251.968 259.676,251.764 C 259.758,251.549 259.453,251.284 258.861,251.15 C 258.272,251.02 257.99,250.671 258.299,250.378 C 258.608,250.085 258.693,250.008 258.833,249.74 C 258.973,249.472 259.028,248.995 259.564,249.235 C 260.093,249.472 259.981,250.057 260.548,250.244 C 261.103,250.434 262.425,250.166 262.703,250.008 C 262.987,249.845 263.884,249.182 264.193,249.02 C 264.503,248.865 265.791,247.906 265.791,247.906 C 265.791,247.906 265.035,247.38 264.752,247.109 C 264.473,246.844 263.97,246.209 263.721,246.075 C 263.467,245.938 262.231,245.465 261.81,245.437 C 261.389,245.409 260.097,244.961 260.097,244.961 C 260.097,244.961 260.686,244.771 260.883,244.612 C 261.08,244.453 261.523,244.051 261.754,244.079 C 261.974,244.108 262.029,244.108 262.029,244.108 C 262.029,244.108 260.827,244.051 260.573,243.977 C 260.321,243.892 259.591,243.441 259.312,243.441 C 259.028,243.441 258.47,243.55 258.47,243.55 C 258.47,243.55 259.226,243.071 259.844,242.965 C 260.462,242.863 260.939,242.884 260.939,242.884 C 260.939,242.884 259.986,242.619 259.758,242.302 C 259.535,241.981 259.312,241.508 259.14,241.293 C 258.973,241.082 258.861,240.733 258.552,240.708 C 258.243,240.68 257.709,241.082 257.401,241.053 C 257.096,241.029 256.868,240.838 256.838,240.39 C 256.817,239.936 256.838,240.094 256.731,239.858 C 256.619,239.615 256.169,239.057 256.589,238.927 C 257.014,238.793 257.911,239.005 257.993,238.846 C 258.079,238.687 257.517,238.208 257.152,238.021 C 256.787,237.837 256.198,237.516 256.507,237.252 C 256.817,236.987 257.124,236.882 257.293,236.642 C 257.461,236.402 257.658,235.739 258.023,235.95 C 258.388,236.162 258.893,237.202 259.174,237.121 C 259.457,237.04 259.478,236.296 259.427,235.979 C 259.371,235.658 259.427,235.101 259.703,235.153 C 259.986,235.206 260.209,235.577 260.66,235.608 C 261.106,235.633 261.78,235.503 261.724,235.816 C 261.668,236.134 261.414,236.529 261.106,236.878 C 260.805,237.227 260.663,237.915 260.857,238.366 C 261.053,238.821 261.561,239.541 262.008,239.83 C 262.454,240.122 263.296,240.338 263.832,240.68 C 264.364,241.029 265.601,242.009 266.022,242.115 C 266.442,242.224 266.863,242.436 266.863,242.436 C 266.863,242.436 267.339,242.224 267.988,242.224 C 268.632,242.224 270.118,242.33 270.68,242.09 C 271.242,241.847 271.972,241.452 271.748,240.944 C 271.526,240.443 270.289,239.988 270.401,239.593 C 270.513,239.195 270.963,239.167 271.718,239.139 C 272.475,239.114 273.514,239.273 273.708,238.208 C 273.905,237.146 273.961,236.532 272.9,236.296 C 271.831,236.056 271.044,236.032 270.852,235.259 C 270.653,234.49 270.457,234.304 270.68,234.088 C 270.908,233.88 271.298,233.771 272.084,233.722 C 272.87,233.665 273.767,233.665 274.021,233.475 C 274.274,233.295 274.326,232.787 274.635,232.572 C 274.943,232.364 276.154,232.173 276.154,232.173 C 276.154,232.173 277.596,232.879 278.936,233.873 C 280.135,234.769 281.219,236.092 281.219,236.092" />
      <path
         id="path990"
         style="fill:none;stroke:#000000;stroke-width:0.387757"
         d="M 281.219,236.074 C 281.219,236.074 281.223,236.79 281.293,237.474 C 281.36,238.13 281.081,238.705 281.189,239.068 C 281.293,239.435 281.345,239.724 281.487,239.988 C 281.621,240.253 281.695,240.923 281.695,240.923 C 281.695,240.923 281.312,240.651 280.957,240.387 C 280.608,240.119 280.357,239.953 280.357,239.953 C 280.357,239.953 280.429,240.669 280.462,240.976 C 280.5,241.283 280.679,241.861 280.969,242.203 C 281.256,242.538 281.83,243.088 282.007,243.529 C 282.191,243.974 282.154,244.954 282.154,244.954 C 282.154,244.954 281.688,244.21 281.288,244.076 C 280.895,243.938 280.031,243.459 280.031,243.459 C 280.031,243.459 280.823,244.245 280.823,244.993 C 280.823,245.74 280.5,246.59 280.5,246.59 C 280.5,246.59 280.142,245.913 279.677,245.469 C 279.208,245.028 278.56,244.584 278.56,244.584 C 278.56,244.584 279.066,245.74 279.066,246.52 C 279.066,247.306 278.925,248.974 278.925,248.974 C 278.925,248.974 278.53,248.329 278.135,248.015 C 277.737,247.712 277.272,247.44 277.126,247.239 C 276.985,247.035 277.596,247.881 277.662,248.392 C 277.732,248.904 277.975,250.727 279.569,253.055 C 280.5,254.416 281.941,256.796 285.028,256.013 C 288.119,255.234 286.972,251.08 286.324,249.14 C 285.676,247.204 285.352,245.056 285.39,244.305 C 285.423,243.561 285.963,241.35 285.892,240.937 C 285.821,240.532 285.653,238.952 286.037,237.679 C 286.432,236.353 286.76,235.838 286.972,235.291 C 287.183,234.748 287.362,234.441 287.434,233.965 C 287.505,233.489 287.505,232.6 287.505,232.6 C 287.505,232.6 288.078,233.658 288.223,234.032 C 288.365,234.409 288.365,235.527 288.365,235.527 C 288.365,235.527 288.472,234.409 289.337,233.866 C 290.201,233.316 291.206,232.741 291.458,232.434 C 291.709,232.124 291.783,231.923 291.783,231.923 C 291.783,231.923 291.709,233.831 291.172,234.582 C 290.815,235.069 289.408,236.656 289.408,236.656 C 289.408,236.656 290.13,236.381 290.632,236.353 C 291.135,236.314 291.493,236.353 291.493,236.353 C 291.493,236.353 290.882,236.829 290.092,237.985 C 289.303,239.139 289.624,239.241 289.05,240.193 C 288.472,241.145 288.007,241.18 287.288,241.759 C 286.208,242.626 286.79,246.075 286.931,246.587 C 287.076,247.095 288.942,251.319 288.979,252.339 C 289.012,253.361 289.195,255.64 287.396,257.103 C 286.238,258.052 284.343,258.059 283.911,258.33 C 283.478,258.598 282.622,259.448 282.622,261.219 C 282.622,262.993 283.263,263.261 283.766,263.705 C 284.272,264.149 284.917,263.91 285.061,264.252 C 285.207,264.59 285.277,264.795 285.494,264.999 C 285.71,265.2 285.855,265.44 285.781,265.81 C 285.71,266.188 284.883,267.038 284.596,267.655 C 284.306,268.261 283.732,269.866 283.732,270.102 C 283.732,270.342 283.665,271.09 283.911,271.467 C 283.911,271.467 284.809,272.515 284.197,272.719 C 283.803,272.853 283.416,272.472 283.23,272.515 C 282.693,272.656 282.413,272.987 282.258,272.959 C 281.9,272.892 281.9,272.716 281.863,272.211 C 281.83,271.703 281.848,271.495 281.688,271.495 C 281.472,271.495 281.363,271.672 281.327,271.94 C 281.288,272.211 281.288,272.821 281.04,272.821 C 280.787,272.821 280.429,272.38 280.213,272.282 C 279.997,272.179 279.387,272.077 279.352,271.806 C 279.316,271.534 279.711,270.956 280.105,270.853 C 280.5,270.751 280.861,270.55 280.608,270.346 C 280.355,270.141 280.105,270.141 279.856,270.346 C 279.603,270.55 279.066,270.377 279.1,270.071 C 279.137,269.764 279.208,269.393 279.17,269.221 C 279.137,269.055 278.705,268.713 279.275,268.402 C 279.852,268.099 280.101,268.678 280.675,268.575 C 281.252,268.477 281.539,268.265 281.755,267.93 C 281.971,267.591 281.933,266.875 281.539,266.435 C 281.144,265.99 280.75,265.92 280.604,265.648 C 280.459,265.377 280.247,264.731 280.247,264.731 C 280.247,264.731 280.351,265.92 280.28,266.093 C 280.21,266.262 280.247,266.974 280.247,266.974 C 280.247,266.974 279.852,266.533 279.528,266.195 C 279.208,265.853 278.884,264.834 278.884,264.834 C 278.884,264.834 278.85,265.786 278.85,266.163 C 278.85,266.533 279.278,266.875 279.137,267.013 C 278.992,267.147 278.311,266.297 278.132,266.163 C 277.949,266.026 277.376,265.585 277.123,265.105 C 276.873,264.629 276.69,263.952 276.62,263.709 C 276.548,263.472 276.43,262.411 276.548,262.143 C 276.727,261.737 277.015,261.021 277.015,261.021 C 277.015,261.021 276.37,261.021 275.614,261.021 C 274.862,261.021 274.322,260.785 274.035,261.293 C 273.749,261.804 273.89,262.827 274.248,264.153 C 274.609,265.475 274.821,266.124 274.717,266.364 C 274.612,266.6 274.144,267.147 273.965,267.246 C 273.782,267.352 273.279,267.316 273.063,267.218 C 272.851,267.115 272.494,266.942 271.808,266.942 C 271.127,266.942 270.695,266.974 270.446,266.914 C 270.193,266.844 269.582,266.537 269.291,266.604 C 269.004,266.674 268.508,266.928 268.643,267.32 C 268.863,267.933 268.431,268.071 268.141,268.036 C 267.854,268 267.608,267.898 267.243,267.799 C 266.886,267.694 266.345,267.799 266.417,267.387 C 266.487,266.978 266.633,266.946 266.811,266.643 C 266.993,266.332 267.06,266.135 266.858,266.114 C 266.606,266.089 266.353,266.061 266.156,266.223 C 265.966,266.382 265.657,266.724 265.403,266.597 C 265.149,266.463 264.953,266.17 264.953,265.528 C 264.953,264.89 264.278,264.333 264.897,264.361 C 265.515,264.389 266.301,264.841 266.442,264.495 C 266.58,264.146 266.495,263.991 266.16,263.719 C 265.823,263.455 265.403,263.296 265.853,262.95 C 266.301,262.608 266.413,262.608 266.584,262.418 C 266.752,262.234 266.993,261.635 267.307,261.783 C 267.924,262.076 267.336,262.502 267.954,263.19 C 268.573,263.881 268.964,264.125 270.003,264.015 C 271.041,263.91 271.325,263.776 271.325,263.483 C 271.325,263.19 271.238,262.661 271.208,262.446 C 271.183,262.234 271.351,261.462 271.351,261.462 C 271.351,261.462 270.874,261.758 270.733,262.047 C 270.598,262.34 270.315,262.841 270.315,262.841 C 270.315,262.841 270.2,262.245 270.233,261.758 C 270.252,261.473 270.353,260.975 270.342,260.877 C 270.315,260.612 270.118,259.946 270.118,259.946 C 270.118,259.946 269.949,260.665 269.839,260.877 C 269.727,261.088 269.671,261.942 269.671,261.942 C 269.671,261.942 269.012,261.367 269.195,260.401 C 269.332,259.656 269.082,258.673 269.306,258.352 C 269.526,258.031 270.058,256.729 271.351,256.673 C 272.643,256.624 273.652,256.729 274.103,256.705 C 274.552,256.673 276.151,256.384 276.151,256.384 C 276.151,256.384 273.204,254.871 272.531,254.416 C 271.857,253.968 270.818,252.797 270.479,252.265 C 270.143,251.732 269.835,250.699 269.835,250.699 C 269.835,250.699 269.306,250.723 268.826,250.988 C 268.349,251.249 267.873,251.655 267.593,251.968 C 267.309,252.289 266.863,253.009 266.863,253.009 C 266.863,253.009 266.945,252.078 266.945,251.785 C 266.945,251.499 266.889,250.932 266.889,250.932 C 266.889,250.932 266.554,252.208 265.88,252.684 C 265.206,253.167 264.42,253.83 264.42,253.83 C 264.42,253.83 264.506,253.118 264.506,252.956 C 264.506,252.797 264.674,251.972 264.674,251.972 C 264.674,251.972 264.197,252.684 263.467,252.825 C 262.737,252.956 261.668,252.928 261.583,253.383 C 261.501,253.83 261.78,254.444 261.613,254.761 C 261.444,255.082 261.08,255.294 261.08,255.294 C 261.08,255.294 260.66,254.945 260.294,254.92 C 259.929,254.892 259.591,255.082 259.591,255.082 C 259.591,255.082 259.282,254.68 259.393,254.416 C 259.508,254.151 260.067,253.753 259.929,253.591 C 259.788,253.432 259.338,253.647 259.058,253.778 C 258.779,253.912 258.187,254.042 258.243,253.591 C 258.299,253.139 258.44,252.875 258.299,252.554 C 258.159,252.24 258.243,252.025 258.47,251.944 C 258.693,251.87 259.591,251.968 259.676,251.764 C 259.758,251.549 259.453,251.284 258.861,251.15 C 258.272,251.02 257.99,250.671 258.299,250.378 C 258.608,250.085 258.693,250.008 258.833,249.74 C 258.973,249.472 259.028,248.995 259.564,249.235 C 260.093,249.472 259.981,250.057 260.548,250.244 C 261.103,250.434 262.425,250.166 262.703,250.008 C 262.987,249.845 263.884,249.182 264.193,249.02 C 264.503,248.865 265.791,247.906 265.791,247.906 C 265.791,247.906 265.035,247.38 264.752,247.109 C 264.473,246.844 263.97,246.209 263.721,246.075 C 263.467,245.938 262.231,245.465 261.81,245.437 C 261.389,245.409 260.097,244.961 260.097,244.961 C 260.097,244.961 260.686,244.771 260.883,244.612 C 261.08,244.453 261.523,244.051 261.754,244.079 C 261.974,244.108 262.029,244.108 262.029,244.108 C 262.029,244.108 260.827,244.051 260.573,243.977 C 260.321,243.892 259.591,243.441 259.312,243.441 C 259.028,243.441 258.47,243.55 258.47,243.55 C 258.47,243.55 259.226,243.071 259.844,242.965 C 260.462,242.863 260.939,242.884 260.939,242.884 C 260.939,242.884 259.986,242.619 259.758,242.302 C 259.535,241.981 259.312,241.508 259.14,241.293 C 258.973,241.082 258.861,240.733 258.552,240.708 C 258.243,240.68 257.709,241.082 257.401,241.053 C 257.096,241.029 256.868,240.838 256.838,240.39 C 256.817,239.936 256.838,240.094 256.731,239.858 C 256.619,239.615 256.169,239.057 256.589,238.927 C 257.014,238.793 257.911,239.005 257.993,238.846 C 258.079,238.687 257.517,238.208 257.152,238.021 C 256.787,237.837 256.198,237.516 256.507,237.252 C 256.817,236.987 257.124,236.882 257.293,236.642 C 257.461,236.402 257.658,235.739 258.023,235.95 C 258.388,236.162 258.893,237.202 259.174,237.121 C 259.457,237.04 259.478,236.296 259.427,235.979 C 259.371,235.658 259.427,235.101 259.703,235.153 C 259.986,235.206 260.209,235.577 260.66,235.608 C 261.106,235.633 261.78,235.503 261.724,235.816 C 261.668,236.134 261.414,236.529 261.106,236.878 C 260.805,237.227 260.663,237.915 260.857,238.366 C 261.053,238.821 261.561,239.541 262.008,239.83 C 262.454,240.122 263.296,240.338 263.832,240.68 C 264.364,241.029 265.601,242.009 266.022,242.115 C 266.442,242.224 266.863,242.436 266.863,242.436 C 266.863,242.436 267.339,242.224 267.988,242.224 C 268.632,242.224 270.118,242.33 270.68,242.09 C 271.242,241.847 271.972,241.452 271.748,240.944 C 271.526,240.443 270.289,239.988 270.401,239.593 C 270.513,239.195 270.963,239.167 271.718,239.139 C 272.475,239.114 273.514,239.273 273.708,238.208 C 273.905,237.146 273.961,236.532 272.9,236.296 C 271.831,236.056 271.044,236.032 270.852,235.259 C 270.653,234.49 270.457,234.304 270.68,234.088 C 270.908,233.88 271.298,233.771 272.084,233.722 C 272.87,233.665 273.767,233.665 274.021,233.475 C 274.274,233.295 274.326,232.787 274.635,232.572 C 274.943,232.364 276.154,232.173 276.154,232.173 C 276.154,232.173 277.596,232.879 278.936,233.873 C 280.135,234.769 281.219,236.092 281.219,236.092 L 281.219,236.074 z" />
      <path
         id="path991"
         d="M 270.874,235.326 C 270.874,235.326 270.706,234.847 270.677,234.713 C 270.651,234.582 270.564,234.42 270.564,234.42 C 270.564,234.42 271.436,234.42 271.407,234.684 C 271.38,234.952 271.127,234.952 271.071,235.055 C 271.016,235.164 270.874,235.326 270.874,235.326" />
      <path
         id="path992"
         style="fill:none;stroke:#000000;stroke-width:0.257296"
         d="M 270.874,235.326 C 270.874,235.326 270.706,234.847 270.677,234.713 C 270.651,234.582 270.564,234.42 270.564,234.42 C 270.564,234.42 271.436,234.42 271.407,234.684 C 271.38,234.952 271.127,234.952 271.071,235.055 C 271.016,235.164 270.874,235.326 270.874,235.326 z" />
      <path
         id="path993"
         d="M 274.862,233.94 L 274.803,233.514 C 274.803,233.514 275.562,233.521 275.927,233.778 C 276.49,234.177 276.851,234.79 276.825,234.815 C 276.727,234.91 276.292,234.55 275.983,234.445 C 275.983,234.445 275.759,234.498 275.533,234.498 C 275.309,234.498 275.197,234.392 275.167,234.286 C 275.142,234.177 275.197,233.993 275.197,233.993 L 274.862,233.944" />
      <path
         id="path994"
         style="fill:none;stroke:#000000;stroke-width:0.0507345"
         d="M 274.862,233.94 L 274.803,233.514 C 274.803,233.514 275.562,233.521 275.927,233.778 C 276.49,234.177 276.851,234.79 276.825,234.815 C 276.727,234.91 276.292,234.55 275.983,234.445 C 275.983,234.445 275.759,234.498 275.533,234.498 C 275.309,234.498 275.197,234.392 275.167,234.286 C 275.142,234.177 275.197,233.993 275.197,233.993 L 274.862,233.944 L 274.862,233.94 z" />
      <path
         id="path995"
         style="fill:none;stroke:#000000;stroke-width:0.257296"
         d="M 280.336,239.95 C 280.336,239.95 279.997,239.47 279.915,239.308 C 279.829,239.153 279.688,238.832 279.688,238.832" />
      <path
         id="path996"
         style="fill:#db4446"
         d="M 259.784,235.164 C 259.784,235.164 260.261,235.506 260.626,235.559 C 260.991,235.615 261.386,235.615 261.442,235.615 C 261.497,235.615 261.613,235.079 261.553,234.713 C 261.356,233.514 260.261,233.249 260.261,233.249 C 260.261,233.249 260.588,233.976 260.429,234.311 C 260.205,234.79 259.784,235.164 259.784,235.164" />
      <path
         id="path997"
         style="fill:none;stroke:#000000;stroke-width:0.387757"
         d="M 259.784,235.164 C 259.784,235.164 260.261,235.506 260.626,235.559 C 260.991,235.615 261.386,235.615 261.442,235.615 C 261.497,235.615 261.613,235.079 261.553,234.713 C 261.356,233.514 260.261,233.249 260.261,233.249 C 260.261,233.249 260.588,233.976 260.429,234.311 C 260.205,234.79 259.784,235.164 259.784,235.164 z" />
      <path
         id="path998"
         style="fill:#db4446"
         d="M 257.509,236.201 C 257.509,236.201 257.088,235.429 256.191,235.534 C 255.293,235.64 254.701,236.335 254.701,236.335 C 254.701,236.335 255.692,236.303 255.937,236.465 C 256.303,236.705 256.414,237.319 256.414,237.319 C 256.414,237.319 256.951,236.998 257.118,236.786 C 257.285,236.571 257.509,236.201 257.509,236.201" />
      <path
         id="path999"
         style="fill:none;stroke:#000000;stroke-width:0.387757"
         d="M 257.509,236.201 C 257.509,236.201 257.088,235.429 256.191,235.534 C 255.293,235.64 254.701,236.335 254.701,236.335 C 254.701,236.335 255.692,236.303 255.937,236.465 C 256.303,236.705 256.414,237.319 256.414,237.319 C 256.414,237.319 256.951,236.998 257.118,236.786 C 257.285,236.571 257.509,236.201 257.509,236.201 z" />
      <path
         id="path1000"
         style="fill:#db4446"
         d="M 256.414,239.308 C 256.414,239.308 255.658,239.417 255.238,239.897 C 254.813,240.376 254.873,241.279 254.873,241.279 C 254.873,241.279 255.375,240.75 255.826,240.75 C 256.277,240.75 256.977,240.909 256.977,240.909 C 256.977,240.909 256.753,240.345 256.753,240.108 C 256.753,239.869 256.414,239.308 256.414,239.308" />
      <path
         id="path1001"
         style="fill:none;stroke:#000000;stroke-width:0.387757"
         d="M 256.414,239.308 C 256.414,239.308 255.658,239.417 255.238,239.897 C 254.813,240.376 254.873,241.279 254.873,241.279 C 254.873,241.279 255.375,240.75 255.826,240.75 C 256.277,240.75 256.977,240.909 256.977,240.909 C 256.977,240.909 256.753,240.345 256.753,240.108 C 256.753,239.869 256.414,239.308 256.414,239.308 z" />
      <path
         id="path1002"
         d="M 270.904,239.202 L 271.238,238.673 L 271.569,239.153 L 270.904,239.202" />
      <path
         id="path1003"
         style="fill:none;stroke:#000000;stroke-width:0.257296"
         d="M 270.904,239.202 L 271.238,238.673 L 271.569,239.153 L 270.904,239.202" />
      <path
         id="path1004"
         d="M 271.715,239.177 L 272.109,238.648 L 272.531,239.124 L 271.715,239.177" />
      <path
         id="path1005"
         style="fill:none;stroke:#000000;stroke-width:0.257296"
         d="M 271.715,239.177 L 272.109,238.648 L 272.531,239.124 L 271.715,239.177" />
      <path
         id="path1006"
         d="M 271.351,235.908 L 272.166,236.201 L 271.436,236.571 L 271.351,235.908" />
      <path
         id="path1007"
         style="fill:none;stroke:#000000;stroke-width:0.257296"
         d="M 271.351,235.908 L 272.166,236.201 L 271.436,236.571 L 271.351,235.908" />
      <path
         id="path1008"
         d="M 272.333,236.176 L 273.063,236.36 L 272.475,236.811 L 272.333,236.176" />
      <path
         id="path1009"
         style="fill:none;stroke:#000000;stroke-width:0.257296"
         d="M 272.333,236.176 L 273.063,236.36 L 272.475,236.811 L 272.333,236.176" />
      <path
         id="path1010"
         style="fill:none;stroke:#000000;stroke-width:0.387757"
         d="M 266.858,242.422 C 266.858,242.422 266.059,242.655 265.764,243.085 C 265.4,243.617 265.426,244.15 265.426,244.15 C 265.426,244.15 266.1,243.593 266.971,243.829 C 267.843,244.069 267.924,244.15 268.293,244.125 C 268.658,244.097 269.556,243.776 269.556,243.776 C 269.556,243.776 268.826,244.626 268.908,245.215 C 268.993,245.797 269.101,246.061 269.078,246.358 C 269.018,247.077 268.487,247.955 268.487,247.955 C 268.487,247.955 268.796,247.765 269.526,247.606 C 270.252,247.447 270.874,247.098 271.265,246.809 C 271.656,246.513 272.162,245.797 272.162,245.797 C 272.162,245.797 271.999,246.781 272.162,247.207 C 272.33,247.634 272.386,248.858 272.386,248.858 C 272.386,248.858 272.855,248.442 273.227,248.244 C 273.424,248.135 273.931,247.87 274.129,247.553 C 274.266,247.327 274.438,246.495 274.438,246.495 C 274.438,246.495 274.549,247.391 274.828,247.825 C 275.112,248.244 275.528,249.553 275.528,249.553 C 275.528,249.553 275.812,248.703 276.121,248.354 C 276.426,248.008 276.795,247.557 276.821,247.289 C 276.847,247.024 276.739,246.442 276.739,246.442 L 277.13,247.289 M 265.791,247.899 C 265.791,247.899 266.268,247.077 266.718,246.809 C 267.169,246.541 267.787,246.065 267.954,246.012 C 268.118,245.959 268.852,245.557 268.852,245.557 M 269.835,250.692 C 269.835,250.692 270.915,250.138 271.238,249.944 C 271.913,249.549 272.389,248.83 272.389,248.83" />
      <path
         id="path1011"
         style="fill:#db4446"
         d="M 258.968,249.359 C 258.968,249.359 258.548,248.911 257.818,249.041 C 257.088,249.175 256.611,250.001 256.611,250.001 C 256.611,250.001 257.229,249.838 257.595,249.919 C 257.959,250.001 258.213,250.371 258.213,250.371 C 258.213,250.371 258.548,250.078 258.66,249.919 C 258.772,249.761 258.965,249.359 258.965,249.359" />
      <path
         id="path1012"
         style="fill:none;stroke:#000000;stroke-width:0.387757"
         d="M 258.968,249.359 C 258.968,249.359 258.548,248.911 257.818,249.041 C 257.088,249.175 256.611,250.001 256.611,250.001 C 256.611,250.001 257.229,249.838 257.595,249.919 C 257.959,250.001 258.213,250.371 258.213,250.371 C 258.213,250.371 258.548,250.078 258.66,249.919 C 258.772,249.761 258.965,249.359 258.965,249.359 L 258.968,249.359 z" />
      <path
         id="path1013"
         style="fill:#db4446"
         d="M 258.127,252.31 C 258.127,252.31 257.509,252.205 256.977,252.631 C 256.444,253.058 256.414,253.88 256.414,253.88 C 256.414,253.88 256.921,253.453 257.316,253.51 C 257.707,253.559 258.183,253.774 258.183,253.774 C 258.183,253.774 258.269,253.266 258.294,253.136 C 258.381,252.765 258.127,252.31 258.127,252.31" />
      <path
         id="path1014"
         style="fill:none;stroke:#000000;stroke-width:0.387757"
         d="M 258.127,252.31 C 258.127,252.31 257.509,252.205 256.977,252.631 C 256.444,253.058 256.414,253.88 256.414,253.88 C 256.414,253.88 256.921,253.453 257.316,253.51 C 257.707,253.559 258.183,253.774 258.183,253.774 C 258.183,253.774 258.269,253.266 258.294,253.136 C 258.381,252.765 258.127,252.31 258.127,252.31 z" />
      <path
         id="path1015"
         style="fill:#db4446"
         d="M 259.561,255.026 C 259.561,255.026 259.52,255.816 259.896,256.299 C 260.291,256.807 261.021,256.885 261.021,256.885 C 261.021,256.885 260.775,256.356 260.738,256.087 C 260.682,255.689 261.073,255.343 261.073,255.343 C 261.073,255.343 260.712,254.973 260.347,254.973 C 259.981,254.973 259.561,255.026 259.561,255.026" />
      <path
         id="path1016"
         style="fill:none;stroke:#000000;stroke-width:0.387757"
         d="M 259.561,255.026 C 259.561,255.026 259.52,255.816 259.896,256.299 C 260.291,256.807 261.021,256.885 261.021,256.885 C 261.021,256.885 260.775,256.356 260.738,256.087 C 260.682,255.689 261.073,255.343 261.073,255.343 C 261.073,255.343 260.712,254.973 260.347,254.973 C 259.981,254.973 259.561,255.026 259.561,255.026 z" />
      <path
         id="path1017"
         style="fill:none;stroke:#000000;stroke-width:0.387757"
         d="M 276.125,256.352 C 276.125,256.352 278.147,257.604 278.091,258.641 C 278.031,259.678 276.966,261.035 276.966,261.035" />
      <path
         id="path1018"
         style="fill:#db4446"
         d="M 266.858,262.019 C 266.858,262.019 266.353,261.381 265.653,261.406 C 264.949,261.434 264.218,262.093 264.218,262.093 C 264.218,262.093 265.091,262.019 265.313,262.308 C 265.541,262.605 265.764,262.971 265.764,262.971 C 265.764,262.971 266.156,262.763 266.327,262.629 C 266.495,262.499 266.858,262.019 266.858,262.019" />
      <path
         id="path1019"
         style="fill:none;stroke:#000000;stroke-width:0.387757"
         d="M 266.858,262.019 C 266.858,262.019 266.353,261.381 265.653,261.406 C 264.949,261.434 264.218,262.093 264.218,262.093 C 264.218,262.093 265.091,262.019 265.313,262.308 C 265.541,262.605 265.764,262.971 265.764,262.971 C 265.764,262.971 266.156,262.763 266.327,262.629 C 266.495,262.499 266.858,262.019 266.858,262.019 z" />
      <path
         id="path1020"
         style="fill:#db4446"
         d="M 264.696,264.809 C 264.696,264.809 263.773,264.675 263.322,265.154 C 262.871,265.631 262.901,266.509 262.901,266.509 C 262.901,266.509 263.464,265.899 263.966,265.951 C 264.473,266.004 265.035,266.272 265.035,266.272 C 265.035,266.272 264.949,265.74 264.893,265.5 C 264.837,265.26 264.696,264.809 264.696,264.809" />
      <path
         id="path1021"
         style="fill:none;stroke:#000000;stroke-width:0.387757"
         d="M 264.696,264.809 C 264.696,264.809 263.773,264.675 263.322,265.154 C 262.871,265.631 262.901,266.509 262.901,266.509 C 262.901,266.509 263.464,265.899 263.966,265.951 C 264.473,266.004 265.035,266.272 265.035,266.272 C 265.035,266.272 264.949,265.74 264.893,265.5 C 264.837,265.26 264.696,264.809 264.696,264.809 z" />
      <path
         id="path1022"
         style="fill:#db4446"
         d="M 266.692,267.761 C 266.692,267.761 266.241,268.399 266.58,268.903 C 266.915,269.411 267.616,269.651 267.616,269.651 C 267.616,269.651 267.366,269.281 267.478,268.85 C 267.567,268.512 268.152,268.053 268.152,268.053 L 266.692,267.764" />
      <path
         id="path1023"
         style="fill:none;stroke:#000000;stroke-width:0.387757"
         d="M 266.692,267.761 C 266.692,267.761 266.241,268.399 266.58,268.903 C 266.915,269.411 267.616,269.651 267.616,269.651 C 267.616,269.651 267.366,269.281 267.478,268.85 C 267.567,268.512 268.152,268.053 268.152,268.053 L 266.692,267.764 L 266.692,267.761 z" />
      <path
         id="path1024"
         style="fill:#db4446"
         d="M 279.014,268.96 C 279.014,268.96 278.203,268.769 277.752,269.037 C 277.305,269.302 276.94,270.42 276.94,270.42 C 276.94,270.42 277.67,269.81 278.203,269.884 C 278.735,269.968 279.13,270.18 279.13,270.18 C 279.13,270.18 279.211,269.725 279.155,269.411 C 279.122,269.221 279.014,268.96 279.014,268.96" />
      <path
         id="path1025"
         style="fill:none;stroke:#000000;stroke-width:0.387757"
         d="M 279.014,268.96 C 279.014,268.96 278.203,268.769 277.752,269.037 C 277.305,269.302 276.94,270.42 276.94,270.42 C 276.94,270.42 277.67,269.81 278.203,269.884 C 278.735,269.968 279.13,270.18 279.13,270.18 C 279.13,270.18 279.211,269.725 279.155,269.411 C 279.122,269.221 279.014,268.96 279.014,268.96 z" />
      <path
         id="path1026"
         style="fill:#db4446"
         d="M 279.409,271.933 C 279.409,271.933 278.791,272.571 279.014,273.103 C 279.241,273.636 279.632,274.193 279.632,274.193 C 279.632,274.193 279.61,273.4 279.86,273.185 C 280.221,272.867 280.895,272.811 280.895,272.811 C 280.895,272.811 280.362,272.335 280.191,272.282 C 280.027,272.225 279.409,271.933 279.409,271.933" />
      <path
         id="path1027"
         style="fill:none;stroke:#000000;stroke-width:0.387757"
         d="M 279.409,271.933 C 279.409,271.933 278.791,272.571 279.014,273.103 C 279.241,273.636 279.632,274.193 279.632,274.193 C 279.632,274.193 279.61,273.4 279.86,273.185 C 280.221,272.867 280.895,272.811 280.895,272.811 C 280.895,272.811 280.362,272.335 280.191,272.282 C 280.027,272.225 279.409,271.933 279.409,271.933 z" />
      <path
         id="path1028"
         style="fill:#db4446"
         d="M 282.496,272.867 C 282.496,272.867 282.187,273.636 282.779,274.14 C 283.367,274.648 283.874,274.701 283.874,274.701 C 283.874,274.701 283.423,273.9 283.565,273.477 C 283.71,273.036 284.097,272.761 284.097,272.761 C 284.097,272.761 283.367,272.518 283.255,272.546 C 283.144,272.571 282.496,272.867 282.496,272.867" />
      <path
         id="path1029"
         style="fill:none;stroke:#000000;stroke-width:0.387757"
         d="M 282.496,272.867 C 282.496,272.867 282.187,273.636 282.779,274.14 C 283.367,274.648 283.874,274.701 283.874,274.701 C 283.874,274.701 283.423,273.9 283.565,273.477 C 283.71,273.036 284.097,272.761 284.097,272.761 C 284.097,272.761 283.367,272.518 283.255,272.546 C 283.144,272.571 282.496,272.867 282.496,272.867 z" />
      <path
         id="path1168"
         style="fill:#c8b100"
         d="M 280.642,231.814 L 280.355,231.835 C 280.342,231.87 280.213,232.075 280.091,232.188 C 279.837,232.431 279.454,232.459 279.238,232.255 C 279.133,232.149 279.081,232.001 279.1,231.849 C 278.932,231.934 278.757,231.934 278.593,231.842 C 278.336,231.694 278.272,231.341 278.459,231.048 C 278.489,230.992 278.519,230.918 278.564,230.876 L 278.545,230.555 L 278.198,230.636 L 278.098,230.826 C 277.882,231.07 277.562,231.133 277.402,230.989 C 277.324,230.922 277.267,230.735 277.272,230.728 C 277.275,230.735 277.189,230.812 277.1,230.833 C 276.568,230.964 276.356,229.793 276.344,229.49 L 276.169,229.737 C 276.169,229.737 276.326,230.438 276.247,231.031 C 276.169,231.623 275.96,232.216 275.96,232.216 C 276.702,232.406 277.812,233.009 278.913,233.859 C 280.016,234.702 280.883,235.619 281.241,236.261 C 281.241,236.261 281.811,235.943 282.41,235.753 C 283.003,235.559 283.758,235.555 283.758,235.555 L 283.973,235.344 C 283.657,235.39 282.403,235.443 282.428,234.917 C 282.433,234.833 282.496,234.741 282.507,234.741 C 282.5,234.748 282.299,234.73 282.209,234.674 C 282.027,234.554 282.031,234.247 282.232,233.993 L 282.407,233.866 L 282.418,233.528 L 282.082,233.574 C 282.052,233.616 281.975,233.665 281.93,233.708 C 281.666,233.937 281.286,233.954 281.077,233.739 C 280.951,233.616 280.912,233.45 280.966,233.277 C 280.813,233.323 280.653,233.309 280.518,233.231 C 280.262,233.076 280.213,232.713 280.411,232.431 C 280.503,232.293 280.686,232.131 280.718,232.114 L 280.649,231.817" />
      <path
         id="path1169"
         style="fill:none;stroke:#000000;stroke-width:0.257296"
         d="M 280.642,231.814 L 280.355,231.835 C 280.342,231.87 280.213,232.075 280.091,232.188 C 279.837,232.431 279.454,232.459 279.238,232.255 C 279.133,232.149 279.081,232.001 279.1,231.849 C 278.932,231.934 278.757,231.934 278.593,231.842 C 278.336,231.694 278.272,231.341 278.459,231.048 C 278.489,230.992 278.519,230.918 278.564,230.876 L 278.545,230.555 L 278.198,230.636 L 278.098,230.826 C 277.882,231.07 277.562,231.133 277.402,230.989 C 277.324,230.922 277.267,230.735 277.272,230.728 C 277.275,230.735 277.189,230.812 277.1,230.833 C 276.568,230.964 276.356,229.793 276.344,229.49 L 276.169,229.737 C 276.169,229.737 276.326,230.438 276.247,231.031 C 276.169,231.623 275.96,232.216 275.96,232.216 C 276.702,232.406 277.812,233.009 278.913,233.859 C 280.016,234.702 280.883,235.619 281.241,236.261 C 281.241,236.261 281.811,235.943 282.41,235.753 C 283.003,235.559 283.758,235.555 283.758,235.555 L 283.973,235.344 C 283.657,235.39 282.403,235.443 282.428,234.917 C 282.433,234.833 282.496,234.741 282.507,234.741 C 282.5,234.748 282.299,234.73 282.209,234.674 C 282.027,234.554 282.031,234.247 282.232,233.993 L 282.407,233.866 L 282.418,233.528 L 282.082,233.574 C 282.052,233.616 281.975,233.665 281.93,233.708 C 281.666,233.937 281.286,233.954 281.077,233.739 C 280.951,233.616 280.912,233.45 280.966,233.277 C 280.813,233.323 280.653,233.309 280.518,233.231 C 280.262,233.076 280.213,232.713 280.411,232.431 C 280.503,232.293 280.686,232.131 280.718,232.114 L 280.649,231.817 L 280.642,231.814 z" />
      <path
         id="path1170"
         d="M 278.407,232.498 C 278.456,232.438 278.56,232.441 278.638,232.501 C 278.716,232.561 278.738,232.657 278.69,232.713 C 278.642,232.769 278.541,232.769 278.459,232.706 C 278.385,232.65 278.359,232.554 278.407,232.498" />
      <path
         id="path1171"
         style="fill:none;stroke:#000000;stroke-width:0.0507345"
         d="M 278.407,232.498 C 278.456,232.438 278.56,232.441 278.638,232.501 C 278.716,232.561 278.738,232.657 278.69,232.713 C 278.642,232.769 278.541,232.769 278.459,232.706 C 278.385,232.65 278.359,232.554 278.407,232.498 z" />
      <path
         id="path1172"
         d="M 279.349,233.291 L 279.025,233.041 C 278.966,232.995 278.947,232.921 278.985,232.879 C 279.022,232.84 279.1,232.84 279.16,232.882 L 279.483,233.136 L 279.815,233.387 C 279.871,233.429 279.892,233.503 279.856,233.549 C 279.815,233.588 279.737,233.584 279.677,233.542 L 279.349,233.291" />
      <path
         id="path1173"
         style="fill:none;stroke:#000000;stroke-width:0.0507345"
         d="M 279.349,233.291 L 279.025,233.041 C 278.966,232.995 278.947,232.921 278.985,232.879 C 279.022,232.84 279.1,232.84 279.16,232.882 L 279.483,233.136 L 279.815,233.387 C 279.871,233.429 279.892,233.503 279.856,233.549 C 279.815,233.588 279.737,233.584 279.677,233.542 L 279.349,233.291" />
      <path
         id="path1174"
         d="M 277.618,232.106 L 277.361,231.955 C 277.297,231.916 277.264,231.842 277.294,231.793 C 277.32,231.74 277.398,231.733 277.461,231.771 L 277.717,231.923 L 277.979,232.075 C 278.042,232.11 278.072,232.184 278.046,232.237 C 278.016,232.283 277.942,232.293 277.875,232.255 L 277.618,232.106" />
      <path
         id="path1175"
         style="fill:none;stroke:#000000;stroke-width:0.0507345"
         d="M 277.618,232.106 L 277.361,231.955 C 277.297,231.916 277.264,231.842 277.294,231.793 C 277.32,231.74 277.398,231.733 277.461,231.771 L 277.717,231.923 L 277.979,232.075 C 278.042,232.11 278.072,232.184 278.046,232.237 C 278.016,232.283 277.942,232.293 277.875,232.255 L 277.618,232.106" />
      <path
         id="path1176"
         d="M 276.593,231.398 C 276.642,231.345 276.747,231.345 276.825,231.405 C 276.903,231.465 276.925,231.56 276.877,231.616 C 276.828,231.673 276.724,231.669 276.646,231.613 C 276.568,231.549 276.545,231.458 276.593,231.398" />
      <path
         id="path1177"
         style="fill:none;stroke:#000000;stroke-width:0.0507345"
         d="M 276.593,231.398 C 276.642,231.345 276.747,231.345 276.825,231.405 C 276.903,231.465 276.925,231.56 276.877,231.616 C 276.828,231.673 276.724,231.669 276.646,231.613 C 276.568,231.549 276.545,231.458 276.593,231.398 z" />
      <path
         id="path1178"
         d="M 280.392,234.018 C 280.441,233.961 280.417,233.87 280.34,233.806 C 280.262,233.746 280.158,233.743 280.109,233.803 C 280.061,233.859 280.083,233.954 280.161,234.014 C 280.238,234.074 280.342,234.074 280.392,234.018" />
      <path
         id="path1179"
         style="fill:none;stroke:#000000;stroke-width:0.0507345"
         d="M 280.392,234.018 C 280.441,233.961 280.417,233.87 280.34,233.806 C 280.262,233.746 280.158,233.743 280.109,233.803 C 280.061,233.859 280.083,233.954 280.161,234.014 C 280.238,234.074 280.342,234.074 280.392,234.018 z" />
      <path
         id="path1180"
         d="M 280.962,234.67 L 281.174,234.875 C 281.226,234.924 281.308,234.942 281.353,234.903 C 281.398,234.868 281.392,234.797 281.342,234.748 L 281.133,234.54 L 280.917,234.328 C 280.865,234.279 280.783,234.265 280.738,234.304 C 280.69,234.335 280.697,234.413 280.753,234.462 L 280.962,234.67" />
      <path
         id="path1181"
         style="fill:none;stroke:#000000;stroke-width:0.0507345"
         d="M 280.962,234.67 L 281.174,234.875 C 281.226,234.924 281.308,234.942 281.353,234.903 C 281.398,234.868 281.392,234.797 281.342,234.748 L 281.133,234.54 L 280.917,234.328 C 280.865,234.279 280.783,234.265 280.738,234.304 C 280.69,234.335 280.697,234.413 280.753,234.462 L 280.962,234.67" />
      <path
         id="path1182"
         d="M 281.903,235.474 C 281.952,235.414 281.93,235.323 281.852,235.259 C 281.774,235.199 281.669,235.196 281.621,235.256 C 281.572,235.316 281.595,235.407 281.673,235.471 C 281.751,235.527 281.856,235.531 281.903,235.474" />
      <path
         id="path1183"
         style="fill:none;stroke:#000000;stroke-width:0.0507345"
         d="M 281.903,235.474 C 281.952,235.414 281.93,235.323 281.852,235.259 C 281.774,235.199 281.669,235.196 281.621,235.256 C 281.572,235.316 281.595,235.407 281.673,235.471 C 281.751,235.527 281.856,235.531 281.903,235.474 z" />
      <path
         id="path1184"
         style="fill:#c8b100"
         d="M 279.173,229.479 L 278.586,229.497 L 278.471,230.361 L 278.534,230.498 L 278.687,230.488 L 279.439,229.983 L 279.173,229.479" />
      <path
         id="path1185"
         style="fill:none;stroke:#000000;stroke-width:0.257296"
         d="M 279.173,229.479 L 278.586,229.497 L 278.471,230.361 L 278.534,230.498 L 278.687,230.488 L 279.439,229.983 L 279.173,229.479" />
      <path
         id="path1186"
         style="fill:#c8b100"
         d="M 277.581,229.959 L 277.565,230.498 L 278.478,230.611 L 278.62,230.551 L 278.608,230.403 L 278.076,229.694 L 277.581,229.959" />
      <path
         id="path1187"
         style="fill:none;stroke:#000000;stroke-width:0.257296"
         d="M 277.581,229.959 L 277.565,230.498 L 278.478,230.611 L 278.62,230.551 L 278.608,230.403 L 278.076,229.694 L 277.581,229.959" />
      <path
         id="path1188"
         style="fill:#c8b100"
         d="M 279.468,231.034 L 278.981,231.306 L 278.448,230.594 L 278.437,230.449 L 278.579,230.389 L 279.495,230.498 L 279.468,231.034" />
      <path
         id="path1189"
         style="fill:none;stroke:#000000;stroke-width:0.257296"
         d="M 279.468,231.034 L 278.981,231.306 L 278.448,230.594 L 278.437,230.449 L 278.579,230.389 L 279.495,230.498 L 279.468,231.034" />
      <path
         id="path1190"
         style="fill:#c8b100"
         d="M 278.287,230.368 C 278.37,230.237 278.545,230.195 278.678,230.276 C 278.812,230.35 278.857,230.516 278.776,230.643 C 278.693,230.773 278.519,230.812 278.385,230.738 C 278.251,230.661 278.206,230.495 278.287,230.368" />
      <path
         id="path1191"
         style="fill:none;stroke:#000000;stroke-width:0.257296"
         d="M 278.287,230.368 C 278.37,230.237 278.545,230.195 278.678,230.276 C 278.812,230.35 278.857,230.516 278.776,230.643 C 278.693,230.773 278.519,230.812 278.385,230.738 C 278.251,230.661 278.206,230.495 278.287,230.368 z" />
      <path
         id="path1192"
         style="fill:#c8b100"
         d="M 276.151,229.476 C 276.136,229.479 276.023,229.021 275.897,228.767 C 275.812,228.583 275.51,228.344 275.51,228.344 C 275.54,228.287 275.92,228.15 276.374,228.435 C 276.742,228.739 276.344,229.296 276.344,229.296 C 276.344,229.296 276.247,229.43 276.154,229.476" />
      <path
         id="path1193"
         style="fill:none;stroke:#000000;stroke-width:0.257296"
         d="M 276.151,229.476 C 276.136,229.479 276.023,229.021 275.897,228.767 C 275.812,228.583 275.51,228.344 275.51,228.344 C 275.54,228.287 275.92,228.15 276.374,228.435 C 276.742,228.739 276.344,229.296 276.344,229.296 C 276.344,229.296 276.247,229.43 276.154,229.476 L 276.151,229.476 z" />
      <path
         id="path1194"
         style="fill:#c8b100"
         d="M 277.177,229.786 L 276.761,230.146 L 276.083,229.557 L 276.142,229.472 L 276.166,229.327 L 277.085,229.26 L 277.177,229.786" />
      <path
         id="path1195"
         style="fill:none;stroke:#000000;stroke-width:0.257296"
         d="M 277.177,229.786 L 276.761,230.146 L 276.083,229.557 L 276.142,229.472 L 276.166,229.327 L 277.085,229.26 L 277.177,229.786" />
      <path
         id="path1196"
         style="fill:#c8b100"
         d="M 276.028,229.419 C 276.08,229.271 276.21,229.183 276.314,229.215 C 276.418,229.253 276.46,229.398 276.411,229.543 C 276.359,229.691 276.229,229.775 276.125,229.747 C 276.016,229.708 275.976,229.564 276.028,229.419" />
      <path
         id="path1197"
         style="fill:none;stroke:#000000;stroke-width:0.257296"
         d="M 276.028,229.419 C 276.08,229.271 276.21,229.183 276.314,229.215 C 276.418,229.253 276.46,229.398 276.411,229.543 C 276.359,229.691 276.229,229.775 276.125,229.747 C 276.016,229.708 275.976,229.564 276.028,229.419 z" />
      <path
         id="path1198"
         style="fill:#c8b100"
         d="M 281.423,230.886 L 280.838,230.823 L 280.593,231.666 L 280.638,231.81 L 280.791,231.814 L 281.61,231.415 L 281.423,230.886" />
      <path
         id="path1199"
         style="fill:none;stroke:#000000;stroke-width:0.257296"
         d="M 281.423,230.886 L 280.838,230.823 L 280.593,231.666 L 280.638,231.81 L 280.791,231.814 L 281.61,231.415 L 281.423,230.886" />
      <path
         id="path1200"
         style="fill:#c8b100"
         d="M 279.773,231.147 L 279.681,231.68 L 280.567,231.912 L 280.716,231.87 L 280.727,231.726 L 280.306,230.946 L 279.773,231.147" />
      <path
         id="path1201"
         style="fill:none;stroke:#000000;stroke-width:0.257296"
         d="M 279.773,231.147 L 279.681,231.68 L 280.567,231.912 L 280.716,231.87 L 280.727,231.726 L 280.306,230.946 L 279.773,231.147" />
      <path
         id="path1202"
         style="fill:#c8b100"
         d="M 281.487,232.459 L 280.962,232.667 L 280.541,231.891 L 280.552,231.743 L 280.701,231.704 L 281.587,231.937 L 281.487,232.459" />
      <path
         id="path1203"
         style="fill:none;stroke:#000000;stroke-width:0.257296"
         d="M 281.487,232.459 L 280.962,232.667 L 280.541,231.891 L 280.552,231.743 L 280.701,231.704 L 281.587,231.937 L 281.487,232.459" />
      <path
         id="path1204"
         style="fill:#c8b100"
         d="M 280.414,231.648 C 280.511,231.528 280.694,231.518 280.813,231.609 C 280.936,231.701 280.954,231.87 280.858,231.987 C 280.757,232.103 280.578,232.117 280.455,232.025 C 280.336,231.934 280.313,231.764 280.414,231.648" />
      <path
         id="path1205"
         style="fill:none;stroke:#000000;stroke-width:0.257296"
         d="M 280.414,231.648 C 280.511,231.528 280.694,231.518 280.813,231.609 C 280.936,231.701 280.954,231.87 280.858,231.987 C 280.757,232.103 280.578,232.117 280.455,232.025 C 280.336,231.934 280.313,231.764 280.414,231.648 z" />
      <path
         id="path1206"
         style="fill:#c8b100"
         d="M 283.386,232.71 L 283.493,233.263 L 282.626,233.552 L 282.473,233.521 L 282.455,233.376 L 282.816,232.575 L 283.386,232.71" />
      <path
         id="path1207"
         style="fill:none;stroke:#000000;stroke-width:0.257296"
         d="M 283.386,232.71 L 283.493,233.263 L 282.626,233.552 L 282.473,233.521 L 282.455,233.376 L 282.816,232.575 L 283.386,232.71" />
      <path
         id="path1208"
         style="fill:#c8b100"
         d="M 283.23,234.293 L 282.675,234.416 L 282.368,233.591 L 282.403,233.45 L 282.556,233.429 L 283.401,233.775 L 283.23,234.293" />
      <path
         id="path1209"
         style="fill:none;stroke:#000000;stroke-width:0.257296"
         d="M 283.23,234.293 L 282.675,234.416 L 282.368,233.591 L 282.403,233.45 L 282.556,233.429 L 283.401,233.775 L 283.23,234.293" />
      <path
         id="path1210"
         style="fill:#c8b100"
         d="M 281.725,232.762 L 281.546,233.274 L 282.392,233.616 L 282.547,233.595 L 282.577,233.454 L 282.276,232.632 L 281.725,232.762" />
      <path
         id="path1211"
         style="fill:none;stroke:#000000;stroke-width:0.257296"
         d="M 281.725,232.762 L 281.546,233.274 L 282.392,233.616 L 282.547,233.595 L 282.577,233.454 L 282.276,232.632 L 281.725,232.762" />
      <path
         id="path1212"
         style="fill:#c8b100"
         d="M 282.66,233.722 C 282.775,233.616 282.779,233.447 282.675,233.337 C 282.567,233.231 282.383,233.224 282.269,233.323 C 282.157,233.429 282.15,233.595 282.258,233.708 C 282.362,233.817 282.545,233.82 282.66,233.722" />
      <path
         id="path1213"
         style="fill:none;stroke:#000000;stroke-width:0.257296"
         d="M 282.66,233.722 C 282.775,233.616 282.779,233.447 282.675,233.337 C 282.567,233.231 282.383,233.224 282.269,233.323 C 282.157,233.429 282.15,233.595 282.258,233.708 C 282.362,233.817 282.545,233.82 282.66,233.722 z" />
      <path
         id="path1214"
         style="fill:#c8b100"
         d="M 284.026,235.513 C 284.023,235.527 284.522,235.538 284.809,235.601 C 285.013,235.644 285.33,235.873 285.33,235.873 C 285.386,235.831 285.442,235.453 285.051,235.09 C 284.66,234.811 284.171,235.302 284.171,235.302 C 284.171,235.302 284.053,235.418 284.026,235.513" />
      <path
         id="path1215"
         style="fill:none;stroke:#000000;stroke-width:0.257296"
         d="M 284.026,235.513 C 284.023,235.527 284.522,235.538 284.809,235.601 C 285.013,235.644 285.33,235.873 285.33,235.873 C 285.386,235.831 285.442,235.453 285.051,235.09 C 284.66,234.811 284.171,235.302 284.171,235.302 C 284.171,235.302 284.053,235.418 284.026,235.513 z" />
      <path
         id="path1216"
         style="fill:#c8b100"
         d="M 283.49,234.624 L 283.204,235.086 L 283.956,235.594 L 284.048,235.513 L 284.171,235.471 L 284.056,234.603 L 283.49,234.624" />
      <path
         id="path1217"
         style="fill:none;stroke:#000000;stroke-width:0.257296"
         d="M 283.49,234.624 L 283.204,235.086 L 283.956,235.594 L 284.048,235.513 L 284.171,235.471 L 284.056,234.603 L 283.49,234.624" />
      <path
         id="path1218"
         style="fill:#c8b100"
         d="M 284.108,235.615 C 284.246,235.538 284.313,235.397 284.257,235.309 C 284.197,235.217 284.038,235.206 283.9,235.284 C 283.762,235.365 283.695,235.499 283.755,235.594 C 283.81,235.682 283.97,235.693 284.108,235.615" />
      <path
         id="path1219"
         style="fill:none;stroke:#000000;stroke-width:0.257296"
         d="M 284.108,235.615 C 284.246,235.538 284.313,235.397 284.257,235.309 C 284.197,235.217 284.038,235.206 283.9,235.284 C 283.762,235.365 283.695,235.499 283.755,235.594 C 283.81,235.682 283.97,235.693 284.108,235.615 z" />
    </g>
  </g>
</svg>
