<?xml version="1.0" encoding="UTF-8" standalone="no"?>
<!-- Generator: Adobe Illustrator 12.0.0, SVG Export Plug-In  -->

<svg
   xmlns:dc="http://purl.org/dc/elements/1.1/"
   xmlns:cc="http://creativecommons.org/ns#"
   xmlns:rdf="http://www.w3.org/1999/02/22-rdf-syntax-ns#"
   xmlns:svg="http://www.w3.org/2000/svg"
   xmlns="http://www.w3.org/2000/svg"
   xmlns:sodipodi="http://sodipodi.sourceforge.net/DTD/sodipodi-0.dtd"
   xmlns:inkscape="http://www.inkscape.org/namespaces/inkscape"
   version="1.0"
   width="900"
   height="600">
<g
   id="g1897"
   transform="matrix(2.764977,0,0,2.764977,0,-1058.9862)"><rect
     y="383"
     x="1.9054853e-17"
     height="217"
     width="325.5"
     id="rect8128"
     style="fill:#ff0000;fill-opacity:1;fill-rule:evenodd;stroke:none" /><rect
     style="fill:#009c31;fill-opacity:1;fill-rule:evenodd;stroke:none"
     id="rect8130"
     width="108.5"
     height="217"
     x="1.9054853e-17"
     y="383" /><rect
     style="fill:#009cce;fill-opacity:1;fill-rule:evenodd;stroke:none"
     id="rect8132"
     width="108.5"
     height="217"
     x="217"
     y="383" /><g
     transform="matrix(0.998433,0,0,0.998433,1.440747,383.1678)"
     id="g8145"><rect
       style="fill:#b5cece;fill-opacity:1;fill-rule:evenodd;stroke:none"
       id="rect3657"
       width="2"
       height="48.350132"
       x="161.09517"
       y="114.83156" /><path
       style="fill:#bdbdbd;fill-opacity:1;fill-rule:evenodd;stroke:#6b6b6b;stroke-width:2;stroke-linecap:butt;stroke-linejoin:miter;stroke-miterlimit:4;stroke-opacity:1;stroke-dasharray:none"
       d="m 106.34375,123.46875 c -0.0766,1.19155 -0.15625,2.38295 -0.15625,3.59375 0,30.58147 24.82478,55.40625 55.40625,55.40625 29.77276,0 54.07874,-23.53689 55.34375,-53 L 202,128.65625 c 0.0204,0.4729 0.0312,0.95959 0.0312,1.4375 10e-6,17.95171 -14.57954,32.5 -32.53125,32.5 -17.95172,1e-5 -32.5,-14.54829 -32.5,-32.5 0,-1.67238 0.13116,-3.33287 0.375,-4.9375 l -31.03125,-1.6875 z"
       id="path1873" /><path
       style="fill:#ffffff;fill-opacity:1;fill-rule:evenodd;stroke:none"
       d="m 107.49271,120.29973 109.07559,0 0,-65.042436 c 0,-13.401953 -19.35173,-20.721485 -53.9622,-20.721485 -39.64841,0 -55.11339,10.316757 -55.11339,20.721485 l 0,65.042436 z"
       id="path4544"
       sodipodi:nodetypes="cccscc" /><path
       style="fill:#ff0000;fill-opacity:1;fill-rule:evenodd;stroke:none"
       d="m 107.5,77 0,5.875 109.0625,0 0,-5.875 L 107.5,77 z"
       id="rect4548" /><path
       sodipodi:type="star"
       style="fill:#bdbdbd;fill-opacity:1;fill-rule:evenodd;stroke:none"
       id="path4552"
       sodipodi:sides="6"
       sodipodi:cx="125.9118"
       sodipodi:cy="53.9622"
       sodipodi:r1="11.136162"
       sodipodi:r2="5.5680809"
       sodipodi:arg1="0.52359878"
       sodipodi:arg2="1.068656"
       inkscape:flatsided="false"
       inkscape:rounded="0.05"
       inkscape:randomized="0"
       d="m 135.556,59.530281 c -0.18142,0.299203 -6.66124,-0.862308 -6.96427,-0.687355 -0.29468,0.170134 -2.33975,6.262738 -2.67993,6.255436 -0.34983,-0.0075 -2.58384,-6.199957 -2.88687,-6.374909 -0.29468,-0.170133 -6.59356,1.105091 -6.75733,0.806828 -0.16841,-0.306711 4.0774,-5.337649 4.0774,-5.687554 0,-0.340267 -4.25382,-5.157647 -4.0774,-5.448608 0.18141,-0.299202 6.66124,0.862308 6.96426,0.687355 0.29468,-0.170133 2.33975,-6.262737 2.67994,-6.255436 0.34982,0.0075 2.58384,6.199957 2.88686,6.374909 0.29468,0.170133 6.59357,-1.10509 6.75734,-0.806828 0.16841,0.306712 -4.0774,5.337649 -4.0774,5.687554 0,0.340267 4.25381,5.157647 4.0774,5.448608 z"
       transform="translate(8.346154,4.748674)" /><path
       transform="translate(64.03515,4.748674)"
       d="m 135.556,59.530281 c -0.18142,0.299203 -6.66124,-0.862308 -6.96427,-0.687355 -0.29468,0.170134 -2.33975,6.262738 -2.67993,6.255436 -0.34983,-0.0075 -2.58384,-6.199957 -2.88687,-6.374909 -0.29468,-0.170133 -6.59356,1.105091 -6.75733,0.806828 -0.16841,-0.306711 4.0774,-5.337649 4.0774,-5.687554 0,-0.340267 -4.25382,-5.157647 -4.0774,-5.448608 0.18141,-0.299202 6.66124,0.862308 6.96426,0.687355 0.29468,-0.170133 2.33975,-6.262737 2.67994,-6.255436 0.34982,0.0075 2.58384,6.199957 2.88686,6.374909 0.29468,0.170133 6.59357,-1.10509 6.75734,-0.806828 0.16841,0.306712 -4.0774,5.337649 -4.0774,5.687554 0,0.340267 4.25381,5.157647 4.0774,5.448608 z"
       inkscape:randomized="0"
       inkscape:rounded="0.05"
       inkscape:flatsided="false"
       sodipodi:arg2="1.068656"
       sodipodi:arg1="0.52359878"
       sodipodi:r2="5.5680809"
       sodipodi:r1="11.136162"
       sodipodi:cy="53.9622"
       sodipodi:cx="125.9118"
       sodipodi:sides="6"
       id="path4554"
       style="fill:#bdbdbd;fill-opacity:1;fill-rule:evenodd;stroke:none"
       sodipodi:type="star" /><path
       sodipodi:type="star"
       style="fill:#bdbdbd;fill-opacity:1;fill-rule:evenodd;stroke:none"
       id="path4556"
       sodipodi:sides="6"
       sodipodi:cx="125.9118"
       sodipodi:cy="53.9622"
       sodipodi:r1="11.136162"
       sodipodi:r2="5.5680809"
       sodipodi:arg1="0.52359878"
       sodipodi:arg2="1.068656"
       inkscape:flatsided="false"
       inkscape:rounded="0.05"
       inkscape:randomized="0"
       d="m 135.556,59.530281 c -0.18142,0.299203 -6.66124,-0.862308 -6.96427,-0.687355 -0.29468,0.170134 -2.33975,6.262738 -2.67993,6.255436 -0.34983,-0.0075 -2.58384,-6.199957 -2.88687,-6.374909 -0.29468,-0.170133 -6.59356,1.105091 -6.75733,0.806828 -0.16841,-0.306711 4.0774,-5.337649 4.0774,-5.687554 0,-0.340267 -4.25382,-5.157647 -4.0774,-5.448608 0.18141,-0.299202 6.66124,0.862308 6.96426,0.687355 0.29468,-0.170133 2.33975,-6.262737 2.67994,-6.255436 0.34982,0.0075 2.58384,6.199957 2.88686,6.374909 0.29468,0.170133 6.59357,-1.10509 6.75734,-0.806828 0.16841,0.306712 -4.0774,5.337649 -4.0774,5.687554 0,0.340267 4.25381,5.157647 4.0774,5.448608 z"
       transform="translate(64.03515,47.77454)" /><path
       transform="translate(8.346154,47.77454)"
       d="m 135.556,59.530281 c -0.18142,0.299203 -6.66124,-0.862308 -6.96427,-0.687355 -0.29468,0.170134 -2.33975,6.262738 -2.67993,6.255436 -0.34983,-0.0075 -2.58384,-6.199957 -2.88687,-6.374909 -0.29468,-0.170133 -6.59356,1.105091 -6.75733,0.806828 -0.16841,-0.306711 4.0774,-5.337649 4.0774,-5.687554 0,-0.340267 -4.25382,-5.157647 -4.0774,-5.448608 0.18141,-0.299202 6.66124,0.862308 6.96426,0.687355 0.29468,-0.170133 2.33975,-6.262737 2.67994,-6.255436 0.34982,0.0075 2.58384,6.199957 2.88686,6.374909 0.29468,0.170133 6.59357,-1.10509 6.75734,-0.806828 0.16841,0.306712 -4.0774,5.337649 -4.0774,5.687554 0,0.340267 4.25381,5.157647 4.0774,5.448608 z"
       inkscape:randomized="0"
       inkscape:rounded="0.05"
       inkscape:flatsided="false"
       sodipodi:arg2="1.068656"
       sodipodi:arg1="0.52359878"
       sodipodi:r2="5.5680809"
       sodipodi:r1="11.136162"
       sodipodi:cy="53.9622"
       sodipodi:cx="125.9118"
       sodipodi:sides="6"
       id="path4558"
       style="fill:#bdbdbd;fill-opacity:1;fill-rule:evenodd;stroke:none"
       sodipodi:type="star" /><path
       style="fill:#ff0000;fill-opacity:1;fill-rule:evenodd;stroke:none"
       d="m 162.59375,34.53125 c -1.17493,0 -2.30482,0.0134 -3.4375,0.03125 l 0,85.75 5.90625,0 0,-85.75 c -0.82767,-0.0087 -1.62279,-0.03125 -2.46875,-0.03125 z"
       id="path5452" /><path
       sodipodi:nodetypes="cccscc"
       id="path6340"
       d="m 107.49271,120.29973 109.07559,0 0,-65.042436 c 0,-13.401953 -19.35173,-20.721485 -53.9622,-20.721485 -39.64841,0 -55.11339,10.316757 -55.11339,20.721485 l 0,65.042436 z"
       style="fill:none;stroke:#b5cece;stroke-width:2;stroke-linecap:butt;stroke-linejoin:miter;stroke-miterlimit:4;stroke-opacity:1;stroke-dasharray:none" /></g></g></svg>