<?xml version="1.0" encoding="UTF-8" standalone="no"?>
<svg
   xmlns:dc="http://purl.org/dc/elements/1.1/"
   xmlns:cc="http://creativecommons.org/ns#"
   xmlns:rdf="http://www.w3.org/1999/02/22-rdf-syntax-ns#"
   xmlns:svg="http://www.w3.org/2000/svg"
   xmlns="http://www.w3.org/2000/svg"
   xmlns:sodipodi="http://sodipodi.sourceforge.net/DTD/sodipodi-0.dtd"
   xmlns:inkscape="http://www.inkscape.org/namespaces/inkscape"
   height="300"
   id="svg1350"
   sodipodi:docname="lorraine.svg"
   sodipodi:version="0.32"
   width="450"
   inkscape:version="0.46"
   inkscape:output_extension="org.inkscape.output.svg.inkscape"
   version="1.0">
  <defs
     id="defs1352">
    <inkscape:perspective
       sodipodi:type="inkscape:persp3d"
       inkscape:vp_x="0 : 108.07086 : 1"
       inkscape:vp_y="0 : 1000 : 0"
       inkscape:vp_z="359.64566 : 108.07086 : 1"
       inkscape:persp3d-origin="179.82283 : 72.047241 : 1"
       id="perspective14" />
    <defs
       id="defs5117" />
    <sodipodi:namedview
       id="namedview5116" />
    <inkscape:perspective
       id="perspective2455"
       inkscape:persp3d-origin="69 : 39 : 1"
       inkscape:vp_z="138 : 58.5 : 1"
       inkscape:vp_y="0 : 1000 : 0"
       inkscape:vp_x="0 : 58.5 : 1"
       sodipodi:type="inkscape:persp3d" />
  </defs>
  <rect
     height="300"
     id="rect952"
     style="fill:#ffd700;fill-opacity:1;fill-rule:evenodd;stroke:none;stroke-width:0.99696702"
     width="450"
     x="0"
     y="0" />
  <path
     d="M 0,1e-06 L 80,1e-06 L 450,220 L 450,300 L 370,300 L 0,80 L 0,1e-06 z"
     id="path951"
     sodipodi:nodetypes="ccccccc"
     style="fill:#d40000;fill-opacity:1;fill-rule:evenodd;stroke:none;stroke-width:1pt;stroke-linecap:butt;stroke-linejoin:miter;stroke-opacity:1" />
  <g
     id="g3236"
     transform="matrix(0.8323584,0,0,0.8394402,-48.220268,-37.767498)">
    <path
       id="path2446"
       d="M 133.63388,84.493508 C 137.04198,85.304908 146.01928,84.349308 147.09608,88.641608 C 148.92788,95.944008 126.23448,108.43061 145.63388,109.49351 L 144.63388,112.49351 C 138.07688,109.74451 131.31818,104.09311 140.63388,99.493508 C 135.73328,91.389308 120.72058,91.833308 119.63388,80.493508 C 113.85918,78.857308 110.37458,79.968108 106.63388,74.493508 L 105.63388,74.493508 C 102.0235,79.520408 91.104763,94.607108 98.633883,99.493508 L 99.633883,94.493508 L 101.63388,94.493508 L 102.63388,95.493508 L 101.63388,99.493508 C 114.40528,95.624008 117.51438,106.92121 121.63388,116.49351 L 126.63388,115.49351 L 129.63388,122.49351 L 128.63388,122.49351 L 123.63388,117.49351 C 122.07168,123.81471 120.97448,128.50961 114.63388,131.49351 C 113.55218,126.76431 106.76948,112.44621 103.15163,124.51281 C 101.62965,129.58901 105.23828,134.41331 105.01578,139.49351 C 104.80348,144.34211 101.89124,148.53261 101.63388,153.49351 C 110.56388,153.38801 112.61008,148.78421 112.63388,140.49351 L 114.63388,140.49351 C 114.63388,145.92211 109.97708,158.84271 112.82758,163.04521 C 115.45978,166.92551 120.25878,163.55751 121.62458,160.43871 C 123.94668,155.13631 122.11038,148.74781 120.63388,143.49351 C 124.28578,147.49721 128.05948,152.04911 129.24348,157.49351 C 130.18208,161.80961 128.09798,168.68251 132.06368,171.84651 C 137.34608,176.06051 139.53338,166.92551 139.61768,163.49351 C 139.82728,154.96381 135.50478,149.08991 130.63388,142.49351 C 136.91528,147.30081 140.63528,154.28911 143.62228,161.49351 C 144.78638,164.30121 145.74588,170.61951 148.91858,171.83151 C 154.53818,173.97851 154.88378,164.66451 154.25348,161.49351 C 152.36138,151.97351 144.14078,142.29701 137.63388,135.49351 L 150.63388,143.49351 C 153.64678,130.33831 137.29208,129.75451 129.63388,122.49351 C 136.66708,127.08291 144.92678,127.98531 151.63308,132.23191 C 157.84978,136.16851 162.36948,145.81571 164.51348,152.64861 C 165.76078,156.62371 161.40408,159.86051 162.63388,164.49351 L 163.63388,164.49351 L 167.63388,159.49351 L 171.63388,163.49351 L 169.63388,157.49351 L 174.63388,160.49351 L 172.63388,153.49351 L 178.63388,155.49351 C 176.96368,150.20651 173.15798,150.61721 168.63388,152.49351 L 168.63388,135.49351 C 174.64058,138.03701 179.81358,142.88121 181.24348,149.49351 C 183.71628,160.92881 177.10078,183.85551 198.63388,177.49351 L 198.63388,175.49351 C 183.99958,169.34151 192.42618,157.71491 189.63388,145.49351 L 201.63388,164.49351 L 202.63388,154.49351 C 209.91088,159.98781 213.22488,162.49251 222.63388,162.49351 C 221.74488,154.50811 215.70988,150.90761 208.63388,148.49351 L 217.63388,141.49351 L 195.63388,141.49351 C 206.54688,135.74301 216.88888,129.55731 228.63388,135.49351 C 230.00688,128.04011 222.53588,123.44501 215.63388,124.02281 C 201.01388,125.24681 189.41148,140.87391 175.63388,127.49351 L 193.63388,121.49351 C 193.48298,125.49061 194.70388,126.85101 198.63388,127.49351 L 196.63388,121.49351 L 204.63388,121.49351 L 204.63388,119.49351 L 199.63388,118.49351 L 199.63388,117.49351 L 206.63388,117.49351 L 202.63388,114.49351 L 204.63388,110.49351 L 188.63388,119.49351 L 187.63388,116.49351 C 179.10678,119.02901 166.67458,118.70801 160.63388,111.49351 C 166.66478,112.61311 172.59828,113.51051 174.63388,106.49351 L 161.63388,104.49351 L 161.63388,103.49351 C 173.36118,102.69781 184.76048,107.09491 196.63388,105.16871 C 198.86888,104.80611 208.82288,103.19471 206.45788,99.073708 C 204.93188,96.414508 199.13488,96.843108 196.63388,97.123108 C 186.26488,98.283908 177.81748,98.187808 167.63388,95.493508 L 167.63388,94.493508 C 176.17138,94.493508 204.19488,97.235708 200.63388,82.493508 L 166.63388,88.493508 C 171.73368,84.768308 178.91008,83.766708 183.31208,79.014308 C 185.21458,76.960508 186.22878,72.367088 182.40548,71.629308 C 175.21318,70.241418 164.93768,80.315708 156.63388,80.493508 C 161.05278,79.083408 166.06658,78.615608 168.88698,74.388568 C 170.37378,72.160158 170.86238,68.121348 167.48498,67.321438 C 164.05938,66.510128 160.36008,70.167778 157.63388,71.708788 C 150.08418,75.976308 136.33708,75.094608 133.63388,84.493508 z"
       style="fill:#ffffff;stroke:none" />
    <path
       id="path2448"
       d="M 104.63388,85.493508 L 103.63388,86.493508 L 103.63388,88.493508 L 104.63388,89.493508 L 106.63388,89.493508 L 107.63388,88.493508 L 107.63388,86.493508 L 106.63388,85.493508 L 104.63388,85.493508 z"
       style="fill:#d40000;fill-opacity:1;stroke:none" />
  </g>
  <g
     id="g3330"
     transform="matrix(0.8323584,0,0,0.8394402,228.44878,126.42005)">
    <path
       id="path3332"
       d="M 133.63388,84.493508 C 137.04198,85.304908 146.01928,84.349308 147.09608,88.641608 C 148.92788,95.944008 126.23448,108.43061 145.63388,109.49351 L 144.63388,112.49351 C 138.07688,109.74451 131.31818,104.09311 140.63388,99.493508 C 135.73328,91.389308 120.72058,91.833308 119.63388,80.493508 C 113.85918,78.857308 110.37458,79.968108 106.63388,74.493508 L 105.63388,74.493508 C 102.0235,79.520408 91.104763,94.607108 98.633883,99.493508 L 99.633883,94.493508 L 101.63388,94.493508 L 102.63388,95.493508 L 101.63388,99.493508 C 114.40528,95.624008 117.51438,106.92121 121.63388,116.49351 L 126.63388,115.49351 L 129.63388,122.49351 L 128.63388,122.49351 L 123.63388,117.49351 C 122.07168,123.81471 120.97448,128.50961 114.63388,131.49351 C 113.55218,126.76431 106.76948,112.44621 103.15163,124.51281 C 101.62965,129.58901 105.23828,134.41331 105.01578,139.49351 C 104.80348,144.34211 101.89124,148.53261 101.63388,153.49351 C 110.56388,153.38801 112.61008,148.78421 112.63388,140.49351 L 114.63388,140.49351 C 114.63388,145.92211 109.97708,158.84271 112.82758,163.04521 C 115.45978,166.92551 120.25878,163.55751 121.62458,160.43871 C 123.94668,155.13631 122.11038,148.74781 120.63388,143.49351 C 124.28578,147.49721 128.05948,152.04911 129.24348,157.49351 C 130.18208,161.80961 128.09798,168.68251 132.06368,171.84651 C 137.34608,176.06051 139.53338,166.92551 139.61768,163.49351 C 139.82728,154.96381 135.50478,149.08991 130.63388,142.49351 C 136.91528,147.30081 140.63528,154.28911 143.62228,161.49351 C 144.78638,164.30121 145.74588,170.61951 148.91858,171.83151 C 154.53818,173.97851 154.88378,164.66451 154.25348,161.49351 C 152.36138,151.97351 144.14078,142.29701 137.63388,135.49351 L 150.63388,143.49351 C 153.64678,130.33831 137.29208,129.75451 129.63388,122.49351 C 136.66708,127.08291 144.92678,127.98531 151.63308,132.23191 C 157.84978,136.16851 162.36948,145.81571 164.51348,152.64861 C 165.76078,156.62371 161.40408,159.86051 162.63388,164.49351 L 163.63388,164.49351 L 167.63388,159.49351 L 171.63388,163.49351 L 169.63388,157.49351 L 174.63388,160.49351 L 172.63388,153.49351 L 178.63388,155.49351 C 176.96368,150.20651 173.15798,150.61721 168.63388,152.49351 L 168.63388,135.49351 C 174.64058,138.03701 179.81358,142.88121 181.24348,149.49351 C 183.71628,160.92881 177.10078,183.85551 198.63388,177.49351 L 198.63388,175.49351 C 183.99958,169.34151 192.42618,157.71491 189.63388,145.49351 L 201.63388,164.49351 L 202.63388,154.49351 C 209.91088,159.98781 213.22488,162.49251 222.63388,162.49351 C 221.74488,154.50811 215.70988,150.90761 208.63388,148.49351 L 217.63388,141.49351 L 195.63388,141.49351 C 206.54688,135.74301 216.88888,129.55731 228.63388,135.49351 C 230.00688,128.04011 222.53588,123.44501 215.63388,124.02281 C 201.01388,125.24681 189.41148,140.87391 175.63388,127.49351 L 193.63388,121.49351 C 193.48298,125.49061 194.70388,126.85101 198.63388,127.49351 L 196.63388,121.49351 L 204.63388,121.49351 L 204.63388,119.49351 L 199.63388,118.49351 L 199.63388,117.49351 L 206.63388,117.49351 L 202.63388,114.49351 L 204.63388,110.49351 L 188.63388,119.49351 L 187.63388,116.49351 C 179.10678,119.02901 166.67458,118.70801 160.63388,111.49351 C 166.66478,112.61311 172.59828,113.51051 174.63388,106.49351 L 161.63388,104.49351 L 161.63388,103.49351 C 173.36118,102.69781 184.76048,107.09491 196.63388,105.16871 C 198.86888,104.80611 208.82288,103.19471 206.45788,99.073708 C 204.93188,96.414508 199.13488,96.843108 196.63388,97.123108 C 186.26488,98.283908 177.81748,98.187808 167.63388,95.493508 L 167.63388,94.493508 C 176.17138,94.493508 204.19488,97.235708 200.63388,82.493508 L 166.63388,88.493508 C 171.73368,84.768308 178.91008,83.766708 183.31208,79.014308 C 185.21458,76.960508 186.22878,72.367088 182.40548,71.629308 C 175.21318,70.241418 164.93768,80.315708 156.63388,80.493508 C 161.05278,79.083408 166.06658,78.615608 168.88698,74.388568 C 170.37378,72.160158 170.86238,68.121348 167.48498,67.321438 C 164.05938,66.510128 160.36008,70.167778 157.63388,71.708788 C 150.08418,75.976308 136.33708,75.094608 133.63388,84.493508 z"
       style="fill:#ffffff;stroke:none" />
    <path
       id="path3334"
       d="M 104.63388,85.493508 L 103.63388,86.493508 L 103.63388,88.493508 L 104.63388,89.493508 L 106.63388,89.493508 L 107.63388,88.493508 L 107.63388,86.493508 L 106.63388,85.493508 L 104.63388,85.493508 z"
       style="fill:#d40000;fill-opacity:1;stroke:none" />
  </g>
  <g
     id="g3336"
     transform="matrix(0.8323584,0,0,0.8394402,89.807703,46.835022)">
    <path
       id="path3338"
       d="M 133.63388,84.493508 C 137.04198,85.304908 146.01928,84.349308 147.09608,88.641608 C 148.92788,95.944008 126.23448,108.43061 145.63388,109.49351 L 144.63388,112.49351 C 138.07688,109.74451 131.31818,104.09311 140.63388,99.493508 C 135.73328,91.389308 120.72058,91.833308 119.63388,80.493508 C 113.85918,78.857308 110.37458,79.968108 106.63388,74.493508 L 105.63388,74.493508 C 102.0235,79.520408 91.104763,94.607108 98.633883,99.493508 L 99.633883,94.493508 L 101.63388,94.493508 L 102.63388,95.493508 L 101.63388,99.493508 C 114.40528,95.624008 117.51438,106.92121 121.63388,116.49351 L 126.63388,115.49351 L 129.63388,122.49351 L 128.63388,122.49351 L 123.63388,117.49351 C 122.07168,123.81471 120.97448,128.50961 114.63388,131.49351 C 113.55218,126.76431 106.76948,112.44621 103.15163,124.51281 C 101.62965,129.58901 105.23828,134.41331 105.01578,139.49351 C 104.80348,144.34211 101.89124,148.53261 101.63388,153.49351 C 110.56388,153.38801 112.61008,148.78421 112.63388,140.49351 L 114.63388,140.49351 C 114.63388,145.92211 109.97708,158.84271 112.82758,163.04521 C 115.45978,166.92551 120.25878,163.55751 121.62458,160.43871 C 123.94668,155.13631 122.11038,148.74781 120.63388,143.49351 C 124.28578,147.49721 128.05948,152.04911 129.24348,157.49351 C 130.18208,161.80961 128.09798,168.68251 132.06368,171.84651 C 137.34608,176.06051 139.53338,166.92551 139.61768,163.49351 C 139.82728,154.96381 135.50478,149.08991 130.63388,142.49351 C 136.91528,147.30081 140.63528,154.28911 143.62228,161.49351 C 144.78638,164.30121 145.74588,170.61951 148.91858,171.83151 C 154.53818,173.97851 154.88378,164.66451 154.25348,161.49351 C 152.36138,151.97351 144.14078,142.29701 137.63388,135.49351 L 150.63388,143.49351 C 153.64678,130.33831 137.29208,129.75451 129.63388,122.49351 C 136.66708,127.08291 144.92678,127.98531 151.63308,132.23191 C 157.84978,136.16851 162.36948,145.81571 164.51348,152.64861 C 165.76078,156.62371 161.40408,159.86051 162.63388,164.49351 L 163.63388,164.49351 L 167.63388,159.49351 L 171.63388,163.49351 L 169.63388,157.49351 L 174.63388,160.49351 L 172.63388,153.49351 L 178.63388,155.49351 C 176.96368,150.20651 173.15798,150.61721 168.63388,152.49351 L 168.63388,135.49351 C 174.64058,138.03701 179.81358,142.88121 181.24348,149.49351 C 183.71628,160.92881 177.10078,183.85551 198.63388,177.49351 L 198.63388,175.49351 C 183.99958,169.34151 192.42618,157.71491 189.63388,145.49351 L 201.63388,164.49351 L 202.63388,154.49351 C 209.91088,159.98781 213.22488,162.49251 222.63388,162.49351 C 221.74488,154.50811 215.70988,150.90761 208.63388,148.49351 L 217.63388,141.49351 L 195.63388,141.49351 C 206.54688,135.74301 216.88888,129.55731 228.63388,135.49351 C 230.00688,128.04011 222.53588,123.44501 215.63388,124.02281 C 201.01388,125.24681 189.41148,140.87391 175.63388,127.49351 L 193.63388,121.49351 C 193.48298,125.49061 194.70388,126.85101 198.63388,127.49351 L 196.63388,121.49351 L 204.63388,121.49351 L 204.63388,119.49351 L 199.63388,118.49351 L 199.63388,117.49351 L 206.63388,117.49351 L 202.63388,114.49351 L 204.63388,110.49351 L 188.63388,119.49351 L 187.63388,116.49351 C 179.10678,119.02901 166.67458,118.70801 160.63388,111.49351 C 166.66478,112.61311 172.59828,113.51051 174.63388,106.49351 L 161.63388,104.49351 L 161.63388,103.49351 C 173.36118,102.69781 184.76048,107.09491 196.63388,105.16871 C 198.86888,104.80611 208.82288,103.19471 206.45788,99.073708 C 204.93188,96.414508 199.13488,96.843108 196.63388,97.123108 C 186.26488,98.283908 177.81748,98.187808 167.63388,95.493508 L 167.63388,94.493508 C 176.17138,94.493508 204.19488,97.235708 200.63388,82.493508 L 166.63388,88.493508 C 171.73368,84.768308 178.91008,83.766708 183.31208,79.014308 C 185.21458,76.960508 186.22878,72.367088 182.40548,71.629308 C 175.21318,70.241418 164.93768,80.315708 156.63388,80.493508 C 161.05278,79.083408 166.06658,78.615608 168.88698,74.388568 C 170.37378,72.160158 170.86238,68.121348 167.48498,67.321438 C 164.05938,66.510128 160.36008,70.167778 157.63388,71.708788 C 150.08418,75.976308 136.33708,75.094608 133.63388,84.493508 z"
       style="fill:#ffffff;stroke:none" />
    <path
       id="path3340"
       d="M 104.63388,85.493508 L 103.63388,86.493508 L 103.63388,88.493508 L 104.63388,89.493508 L 106.63388,89.493508 L 107.63388,88.493508 L 107.63388,86.493508 L 106.63388,85.493508 L 104.63388,85.493508 z"
       style="fill:#d40000;fill-opacity:1;stroke:none" />
  </g>
</svg>
