<?xml version="1.0" encoding="UTF-8" standalone="no"?>
<!-- Created with Inkscape (http://www.inkscape.org/) -->
<svg
   xmlns:dc="http://purl.org/dc/elements/1.1/"
   xmlns:cc="http://web.resource.org/cc/"
   xmlns:rdf="http://www.w3.org/1999/02/22-rdf-syntax-ns#"
   xmlns:svg="http://www.w3.org/2000/svg"
   xmlns="http://www.w3.org/2000/svg"
   xmlns:sodipodi="http://inkscape.sourceforge.net/DTD/sodipodi-0.dtd"
   xmlns:inkscape="http://www.inkscape.org/namespaces/inkscape"
   version="1.0"
   x="0.0000000"
   y="0.0000000"
   width="600.00000"
   height="400.00000"
   id="svg19079"
   sodipodi:version="0.32"
   inkscape:version="0.42"
   sodipodi:docname="luna.svg"
   sodipodi:docbase="/Users/daniel/Desktop/WIP"
   inkscape:export-filename="/Users/daniel/Desktop/luna.png"
   inkscape:export-xdpi="90.000000"
   inkscape:export-ydpi="90.000000">
  <metadata
     id="metadata24">
    <rdf:RDF>
      <cc:Work
         rdf:about="">
        <dc:format>image/svg+xml</dc:format>
        <dc:type
           rdf:resource="http://purl.org/dc/dcmitype/StillImage" />
      </cc:Work>
    </rdf:RDF>
  </metadata>
  <sodipodi:namedview
     inkscape:window-height="507"
     inkscape:window-width="701"
     inkscape:pageshadow="2"
     inkscape:pageopacity="0.0"
     borderopacity="1.0"
     bordercolor="#666666"
     pagecolor="#ffffff"
     id="base"
     inkscape:zoom="0.86000000"
     inkscape:cx="300.00000"
     inkscape:cy="200.00000"
     inkscape:window-x="20"
     inkscape:window-y="42"
     inkscape:current-layer="svg19079" />
  <defs
     id="defs19081" />
  <rect
     style="fill:#000000;fill-opacity:1.0000000;stroke:#ff0000;stroke-width:0.0000000;stroke-linecap:butt;stroke-linejoin:miter;stroke-miterlimit:4.0000000;stroke-dasharray:none;stroke-opacity:1.0000000"
     id="rect2083"
     width="600.00000"
     height="400.00000"
     x="0.0000000"
     y="0.0000000" />
  <path
     d="M 453.25401,199.99979 C 453.27670,277.54989 387.21427,340.42811 305.71429,340.42811 C 224.21431,340.42811 158.15188,277.54989 158.17457,199.99979 C 158.15188,122.44968 224.21431,59.571460 305.71429,59.571460 C 387.21427,59.571460 453.27670,122.44968 453.25401,199.99979 L 453.25401,199.99979 z "
     style="fill:#a8a8a8;fill-opacity:1.0000000;stroke:#000000;stroke-width:2.1495988;stroke-linejoin:round;stroke-miterlimit:4.0000000;stroke-opacity:1.0000000"
     id="path57769" />
  <path
     d="M 213.99421,125.51534 C 217.48168,122.08291 241.89389,87.072010 245.38136,111.09909 C 248.86881,135.12617 272.58354,106.98017 276.07099,125.51534 C 279.55846,144.05052 277.46599,133.75320 260.72617,152.28837 C 243.98637,170.82356 241.89389,162.58569 243.98637,183.18034 C 246.07884,203.77498 228.64154,201.02904 225.85157,218.19124 C 223.06162,235.35344 226.54907,264.87241 212.59924,250.45617 C 198.64939,236.03992 189.58200,247.71021 181.90958,226.42909 C 174.23717,205.14796 163.77479,214.07230 181.21209,193.47767 C 198.64939,172.88302 201.43936,182.49385 195.85943,162.58569 C 190.27949,142.67754 179.81711,146.10999 191.67447,136.49915 C 203.53183,126.88832 213.99421,125.51534 213.99421,125.51534 z "
     style="fill:#8c8c8c;fill-opacity:1.0000000;fill-rule:evenodd;stroke:#000000;stroke-width:0.0000000;stroke-linecap:butt;stroke-linejoin:miter;stroke-miterlimit:4.0000000;stroke-opacity:1.0000000;stroke-dasharray:none"
     id="path57771" />
  <path
     d="M 310.91072,113.39208 C 310.91072,113.39208 352.44816,107.93411 361.88849,128.20653 C 371.32882,148.47898 376.04900,140.68190 365.66464,159.39491 C 355.28028,178.10795 339.23171,180.44707 362.83254,192.92242 C 386.43335,205.39777 401.53787,221.77166 386.43335,224.89050 C 371.32882,228.00934 364.72058,235.80643 353.39221,226.44990 C 342.06380,217.09340 356.22431,224.11078 331.67944,203.05864 C 307.13458,182.00649 298.63830,178.88765 303.35844,166.41230 C 308.07861,153.93695 323.18316,156.27607 317.51894,142.24130 C 311.85475,128.20653 313.74282,128.98625 308.07861,123.52828 C 302.41442,118.07032 300.52634,117.29060 302.41442,114.17178 C 304.30249,111.05293 310.91072,113.39208 310.91072,113.39208 z "
     style="fill:#8c8c8c;fill-opacity:1.0000000;fill-rule:evenodd;stroke:#000000;stroke-width:0.0000000;stroke-linecap:butt;stroke-linejoin:miter;stroke-miterlimit:4.0000000;stroke-opacity:1.0000000;stroke-dasharray:none"
     id="path57773" />
  <path
     d="M 262.81866,271.73729 C 264.21363,279.28866 260.02869,289.58599 286.53338,292.33194 C 313.03806,295.07789 332.56783,287.52652 343.72771,289.58599 C 354.88757,291.64545 386.97222,300.56980 366.74495,275.85623 C 346.51768,251.14266 349.30765,255.26158 327.68539,249.76967 C 306.06315,244.27778 314.43306,240.15884 294.90329,232.60747 C 275.37349,225.05610 267.00360,215.44527 269.09608,230.54801 C 271.18855,245.65075 273.97852,253.88861 263.51614,256.63457 C 253.05375,259.38050 246.07884,264.87241 252.35628,267.61837 C 258.63369,270.36432 262.81866,271.73729 262.81866,271.73729 z "
     style="fill:#8c8c8c;fill-opacity:1.0000000;fill-rule:evenodd;stroke:#000000;stroke-width:0.0000000;stroke-linecap:butt;stroke-linejoin:miter;stroke-miterlimit:4.0000000;stroke-opacity:1.0000000;stroke-dasharray:none"
     id="path57775" />
  <path
     d="M 421.38377,113.97773 C 421.38377,113.97773 384.87973,122.08291 401.61955,131.00724 C 418.35935,139.93160 421.14932,137.18565 422.54430,146.10999 C 423.93929,155.03432 432.30918,145.42349 432.30918,145.42349 C 432.30918,145.42349 444.16656,184.55331 429.51923,189.35873 C 414.87188,194.16414 402.31703,238.09938 425.33427,222.31016 C 448.35151,206.52093 445.17426,244.68616 445.17426,244.68616 C 445.17426,244.68616 474.11272,177.79575 421.38377,113.97773 z "
     style="fill:#8c8c8c;fill-opacity:1.0000000;fill-rule:evenodd;stroke:#000000;stroke-width:0.0000000;stroke-linecap:butt;stroke-linejoin:miter;stroke-miterlimit:4.0000000;stroke-opacity:1.0000000;stroke-dasharray:none"
     id="path57781" />
  <path
     d="M 322.27678,122.79589 C 322.27678,122.79589 326.81415,126.76547 325.80584,130.98316 C 324.79754,135.20085 322.02470,133.46415 323.78924,137.18565 C 325.55378,140.90713 329.33491,141.15523 329.58699,144.87671 C 329.83907,148.59821 334.12436,157.77787 335.88888,152.31969 C 337.65341,146.86151 338.91379,151.32730 339.67003,143.88432 C 340.42625,136.44134 342.69495,141.89952 339.16587,133.71225 C 335.63682,125.52498 336.39304,129.49456 330.59529,124.03638 C 324.79754,118.57820 317.99149,115.10481 318.24357,117.58579 C 318.49563,120.06680 318.49563,120.56299 319.75603,121.05919 C 321.01641,121.55540 322.27678,122.79589 322.27678,122.79589 z "
     style="fill:#737373;fill-opacity:1.0000000;fill-rule:evenodd;stroke:#000000;stroke-width:0.0000000;stroke-linecap:butt;stroke-linejoin:miter;stroke-miterlimit:4.0000000;stroke-opacity:1.0000000;stroke-dasharray:none"
     id="path57783" />
  <path
     d="M 333.87228,159.51457 C 331.85567,162.98797 329.58699,160.75506 332.61190,165.96514 C 335.63680,171.17524 335.13266,172.41573 332.61190,177.37770 C 330.09113,182.33970 328.83075,185.31689 331.35151,188.54217 C 333.87228,191.76746 331.09945,189.28647 337.90549,196.97756 C 344.71154,204.66862 350.00513,208.63821 352.27383,206.65342 C 354.54250,204.66862 360.59233,208.14202 356.55912,212.85589 C 352.52591,217.56978 348.24062,220.05077 355.80288,219.80267 C 363.36517,219.55458 368.15462,224.76466 365.12970,214.84069 C 362.10479,204.91672 361.09649,203.67623 353.03005,197.96995 C 344.96362,192.26367 338.15757,186.80549 338.15757,180.35490 C 338.15757,173.90433 338.15757,166.46135 336.14096,163.73226 C 334.12434,161.00317 333.87228,159.51457 333.87228,159.51457 z "
     style="fill:#737373;fill-opacity:1.0000000;fill-rule:evenodd;stroke:#000000;stroke-width:0.0000000;stroke-linecap:butt;stroke-linejoin:miter;stroke-miterlimit:4.0000000;stroke-opacity:1.0000000;stroke-dasharray:none"
     id="path57785" />
  <path
     d="M 330.34321,127.26168 C 330.34321,128.25407 329.33491,131.23126 329.33491,131.23126 C 329.33491,131.23126 331.60359,132.47176 330.59529,133.96035 C 329.58699,135.44895 331.09945,138.92233 331.85567,135.94515 C 332.61190,132.96796 333.11604,131.72747 331.85567,130.73506 C 330.59529,129.74267 330.34321,127.26168 330.34321,127.26168 z "
     style="fill:#a8a8a8;fill-opacity:1.0000000;fill-rule:evenodd;stroke:none;stroke-width:0.0000000;stroke-linecap:butt;stroke-linejoin:miter;stroke-opacity:1.0000000;stroke-miterlimit:4.0000000;stroke-dasharray:none"
     id="path57787" />
  <path
     d="M 334.12436,181.59539 C 334.37642,183.08399 334.62850,186.55738 336.89720,188.54217 C 339.16587,190.52697 339.41795,192.26367 340.93041,194.00037 C 342.44287,195.73704 343.70324,198.21805 345.46778,198.96234 C 347.23230,199.70665 346.98024,198.71424 344.96362,196.48135 C 342.94701,194.24845 338.91379,189.53458 337.40134,187.05357 C 335.88888,184.57258 334.12436,181.59539 334.12436,181.59539 z "
     style="fill:#a8a8a8;fill-opacity:1.0000000;fill-rule:evenodd;stroke:none;stroke-width:0.0000000;stroke-linecap:butt;stroke-linejoin:miter;stroke-opacity:1.0000000;stroke-miterlimit:4.0000000;stroke-dasharray:none"
     id="path57789" />
  <path
     d="M 234.55433,128.99836 C 229.76487,131.23126 220.94221,128.00597 216.90900,134.70464 C 212.87579,141.40333 207.58218,137.43373 211.36333,143.88432 C 215.14446,150.33489 220.69013,156.28928 215.64862,157.52977 C 210.60709,158.77026 218.42146,164.97275 221.44637,162.98795 C 224.47128,161.00317 231.52941,165.96514 227.49620,157.03358 C 223.46297,148.10201 219.68183,148.35011 223.71505,143.88432 C 227.74826,139.41853 234.30225,141.40333 237.57924,138.17804 C 240.85621,134.95274 241.86453,133.46415 240.35208,131.72747 C 238.83962,129.99077 234.55433,128.99836 234.55433,128.99836 z "
     style="fill:#737373;fill-opacity:1.0000000;fill-rule:evenodd;stroke:#000000;stroke-width:0.0000000;stroke-linecap:butt;stroke-linejoin:miter;stroke-miterlimit:4.0000000;stroke-opacity:1.0000000;stroke-dasharray:none"
     id="path57791" />
  <path
     d="M 223.96713,242.37969 C 223.96713,242.37969 207.58218,239.15442 205.06142,230.96713 C 202.54067,222.77986 202.03651,226.00515 198.75953,220.05077 C 195.48254,214.09638 193.21384,209.63062 196.99500,208.63821 C 200.77613,207.64581 209.09463,211.61540 210.60709,209.13441 C 212.11955,206.65342 213.63200,203.92433 212.62371,199.45855 C 211.61541,194.99276 209.09463,195.73704 209.34671,190.27887 C 209.59879,184.82069 212.37163,177.12960 215.90070,181.09921 C 219.42975,185.06879 218.42146,185.56497 218.92561,189.53458 C 219.42975,193.50416 223.21091,195.24086 227.74826,193.00796 C 232.28563,190.77507 238.58754,188.29408 238.33546,191.02317 C 238.08338,193.75226 235.81470,192.75985 235.05846,195.73704 C 234.30225,198.71424 238.58754,200.45094 234.30225,201.44333 C 230.01695,202.43574 228.00034,203.67623 228.75658,205.16483 C 229.51280,206.65342 230.62460,206.02924 230.41763,208.06626 C 228.96886,209.59403 223.61687,213.78039 223.96713,242.37969 z "
     style="fill:#737373;fill-opacity:1.0000000;fill-rule:evenodd;stroke:#000000;stroke-width:0.0000000;stroke-linecap:butt;stroke-linejoin:miter;stroke-miterlimit:4.0000000;stroke-opacity:1.0000000;stroke-dasharray:none"
     id="path57793" />
  <path
     d="M 438.37487,194.37593 C 433.83627,198.84294 430.81052,193.87959 429.80192,201.32463 C 428.79335,208.76964 428.28907,210.25865 433.33197,208.76964 C 438.37487,207.28064 439.38347,204.30262 441.90492,208.76964 C 444.42637,213.23666 444.93067,220.68170 445.93925,212.74032 C 446.94782,204.79896 450.98215,203.80630 447.45212,198.34661 C 443.92207,192.88693 443.92207,193.87959 441.90492,194.87226 C 439.88775,195.86494 438.37487,194.37593 438.37487,194.37593 z "
     style="fill:#737373;fill-opacity:1.0000000;fill-rule:evenodd;stroke:#000000;stroke-width:0.0000000;stroke-linecap:butt;stroke-linejoin:miter;stroke-miterlimit:4.0000000;stroke-dasharray:none;stroke-opacity:1.0000000"
     id="path57795" />
  <path
     d="M 378.14894,87.713860 C 377.21324,87.810800 376.29907,88.072580 375.35353,88.630960 C 367.78915,93.098000 367.27438,95.633240 363.24005,97.618590 C 359.20571,99.603960 366.79274,104.05652 344.60394,98.596840 C 322.41516,93.137170 317.87053,91.605200 310.81046,93.094210 C 309.16127,93.442010 308.42923,93.834270 307.20747,94.194730 C 307.20767,92.740780 306.24863,91.626840 303.23177,91.626840 C 295.66740,91.626780 288.57901,99.560640 279.50179,100.55333 C 270.42456,101.54597 269.46061,98.564530 259.37478,96.579200 C 249.28894,94.593820 243.21967,93.611850 247.75827,100.06420 C 252.29690,106.51659 260.36487,104.02733 264.90350,108.99069 C 269.44212,113.95398 279.50179,117.42806 279.50179,117.42806 C 279.50181,117.42808 292.10525,125.86132 284.03657,138.76604 C 275.96792,151.67080 268.42237,143.23207 269.93525,164.07814 C 271.44812,184.92418 261.88540,200.79808 255.83392,206.75410 C 249.78243,212.71011 245.71947,218.22652 240.67655,228.15322 C 235.63367,238.07993 226.56789,247.00200 227.07219,258.41769 C 227.11787,259.45176 227.24909,260.43599 227.32067,261.47471 C 221.24921,260.34339 210.81285,260.91287 202.84524,258.41769 C 191.75084,254.94340 179.14456,246.95939 177.12741,244.47770 C 175.11024,241.99604 175.13956,243.98857 175.13956,243.98857 C 178.16529,250.44090 177.14174,248.46213 184.70609,260.37419 C 192.27047,272.28622 208.93270,289.15687 217.50565,290.14953 C 226.07862,291.14216 241.18467,294.65983 236.14176,287.21480 C 231.09882,279.76982 226.57523,277.24892 226.57523,277.24892 C 226.57523,277.24890 228.02863,275.31497 229.24640,273.51936 C 230.38204,276.37026 231.94871,276.36901 234.15391,270.34006 C 238.69254,257.93168 235.13283,246.49910 244.71438,242.03208 C 254.29590,237.56508 258.81918,234.10237 262.85353,220.20498 C 266.88785,206.30755 265.88242,206.27973 275.46396,196.84937 C 285.04549,187.41900 286.60549,182.95642 285.09262,175.51139 C 283.57975,168.06635 283.03881,141.76470 287.57744,162.61078 C 292.11606,183.45680 284.08752,192.41807 289.13044,202.84112 C 294.17333,213.26413 304.21802,211.24930 313.29527,221.67235 C 322.37250,232.09536 333.50187,241.49968 353.67351,244.47770 C 373.84516,247.45573 384.40845,247.95139 385.41703,261.35243 C 386.42558,274.75344 383.89332,288.18929 381.87616,292.65629 C 380.03521,296.73301 381.67694,297.87536 385.78975,290.57752 C 385.62185,291.98363 385.41703,293.20297 385.41703,295.10190 C 385.41701,301.05789 382.41292,306.54956 392.49875,305.55690 C 402.58457,304.56425 422.72939,274.80706 424.24226,270.34006 C 425.75513,265.87304 432.29244,265.85584 429.77097,250.46945 C 427.24954,235.08306 434.35355,237.54376 426.78920,235.06208 C 419.22484,232.58035 413.18865,237.55473 408.65005,230.10972 C 404.11142,222.66464 400.03346,223.13661 403.05921,210.72823 C 406.08492,198.31987 404.06747,189.91198 411.63182,183.45963 C 419.19620,177.00730 421.74661,163.59280 418.21658,159.12578 C 414.68654,154.65872 413.63466,157.61922 404.05314,147.69253 C 394.47159,137.76579 390.45611,132.83576 389.95181,124.39806 C 389.44752,115.96036 395.51716,114.44696 392.99571,105.01657 C 390.78943,96.765030 384.69881,87.035290 378.14894,87.713860 z M 298.20002,103.61034 C 298.94453,104.98871 302.77051,106.05596 314.84828,106.05596 C 341.07145,106.05598 359.71000,103.07794 363.24005,106.05596 C 366.77006,109.03399 374.35960,120.42394 374.35960,120.42394 C 380.41108,132.33596 383.93345,131.33887 383.42917,141.76192 C 382.92486,152.18493 382.88124,154.20193 377.83834,160.65429 C 372.79542,167.10662 363.25436,172.06211 370.81874,178.01814 C 378.38309,183.97413 382.41676,182.46664 387.96396,191.89700 C 393.51118,201.32737 397.04087,205.30804 396.53657,212.25674 C 396.03231,219.20547 397.50851,226.65667 399.02139,237.07971 C 400.53426,247.50276 398.02746,253.43991 398.02746,259.39594 C 398.02746,265.35197 400.54158,276.77766 398.52443,279.75567 C 396.96396,282.05950 393.90490,280.56026 391.19422,281.34532 C 394.07384,276.77375 396.06450,272.58472 392.99571,263.85919 C 388.45707,250.95444 387.97511,244.03907 382.93221,240.56471 C 377.88931,237.09038 366.74843,234.59460 356.15833,233.10559 C 345.56823,231.61659 330.45548,227.13581 320.87396,217.20910 C 311.29243,207.28244 314.28953,210.26828 305.71658,199.84525 C 297.14364,189.42224 295.66773,189.41942 294.65916,178.99639 C 293.65058,168.57330 290.11320,167.10697 295.15612,152.21692 C 300.19902,137.32689 306.25402,143.77644 299.19395,131.36806 C 292.13385,118.95972 290.62867,119.93859 290.12437,115.47157 C 289.65780,111.33888 291.55515,108.00881 298.20002,103.61034 z "
     style="opacity:0.047120396;fill:#000000;fill-opacity:1.0000000;fill-rule:evenodd;stroke:none;stroke-width:0.0000000;stroke-linecap:butt;stroke-linejoin:miter;stroke-opacity:1.0000000;stroke-miterlimit:4.0000000;stroke-dasharray:none"
     id="path57797" />
  <path
     d="M 284.06182,246.98746 C 284.56612,249.96546 282.04467,248.47645 278.51462,254.43248 C 274.98459,260.38851 273.47172,262.37384 275.99317,266.34452 C 278.51462,270.31521 279.01892,272.79689 284.06182,273.29321 C 289.10474,273.78955 296.16482,269.32253 301.71202,271.30788 C 307.25922,273.29321 302.72059,277.76023 316.33645,278.25657 C 329.95232,278.75289 339.02955,278.25657 339.02955,275.27856 C 339.02955,272.30054 341.04672,270.81154 333.48234,268.32987 C 325.91799,265.84819 324.40512,265.35185 315.83217,263.36652 C 307.25922,261.38117 304.23347,260.38851 300.70344,256.91415 C 297.17339,253.43981 295.66052,250.95814 291.12189,250.95814 C 286.58329,250.95814 284.06182,246.98746 284.06182,246.98746 z "
     style="fill:#737373;fill-opacity:1.0000000;fill-rule:evenodd;stroke:#000000;stroke-width:0.0000000;stroke-linecap:butt;stroke-linejoin:miter;stroke-miterlimit:4.0000000;stroke-opacity:1.0000000;stroke-dasharray:none"
     id="path57799" />
  <path
     d="M 285.57469,256.91415 C 283.55754,257.90684 281.54037,257.41049 283.05324,259.89217 C 284.56612,262.37384 285.07042,263.36652 287.08757,263.36652 C 289.10474,263.36652 293.64337,262.87018 291.12189,260.88483 C 288.60044,258.89950 287.59187,258.89950 285.57469,256.91415 z "
     style="fill:#a8a8a8;fill-opacity:1.0000000;fill-rule:evenodd;stroke:none;stroke-width:0.0000000;stroke-linecap:butt;stroke-linejoin:miter;stroke-opacity:1.0000000;stroke-miterlimit:4.0000000;stroke-dasharray:none"
     id="path57801" />
  <path
     d="M 300.70344,263.86284 C 300.70344,263.86284 300.70344,263.36652 303.22489,266.34452 C 305.74634,269.32253 308.77209,268.82621 308.77209,268.82621 C 308.77209,268.82621 309.78067,266.84086 307.25922,265.84819 C 304.73777,264.85553 300.70344,263.86284 300.70344,263.86284 z "
     style="fill:#a8a8a8;fill-opacity:1.0000000;fill-rule:evenodd;stroke:none;stroke-width:0.0000000;stroke-linecap:butt;stroke-linejoin:miter;stroke-opacity:1.0000000;stroke-miterlimit:4.0000000;stroke-dasharray:none"
     id="path57803" />
  <path
     d="M 230.10269,133.82305 C 228.08554,134.31939 228.08554,133.32670 223.54691,135.80840 C 219.00829,138.29007 216.99114,137.79372 216.48684,140.27540 C 215.98254,142.75709 213.96539,145.23876 216.99114,144.74242 C 220.01687,144.24608 223.54691,139.28273 223.54691,139.28273 L 229.09411,138.78639 L 230.10269,133.82305 z "
     style="fill:#a8a8a8;fill-opacity:1.0000000;fill-rule:evenodd;stroke:none;stroke-width:0.0000000;stroke-linecap:butt;stroke-linejoin:miter;stroke-opacity:1.0000000;stroke-miterlimit:4.0000000;stroke-dasharray:none"
     id="path57805" />
</svg>
