<?xml version="1.0" encoding="UTF-8" standalone="no"?>
<!-- Creator: CorelDRAW -->

<svg
   xmlns:dc="http://purl.org/dc/elements/1.1/"
   xmlns:cc="http://creativecommons.org/ns#"
   xmlns:rdf="http://www.w3.org/1999/02/22-rdf-syntax-ns#"
   xmlns:svg="http://www.w3.org/2000/svg"
   xmlns="http://www.w3.org/2000/svg"
   xmlns:sodipodi="http://sodipodi.sourceforge.net/DTD/sodipodi-0.dtd"
   xmlns:inkscape="http://www.inkscape.org/namespaces/inkscape"
   xml:space="preserve"
   width="450px"
   height="300px"
   style="shape-rendering:geometricPrecision; text-rendering:geometricPrecision; image-rendering:optimizeQuality; fill-rule:evenodd"
   viewBox="75 0 450 300"
   id="svg3165"
   version="1.1"
   inkscape:version="0.47 r22583"
   sodipodi:docname="macedon.svg"><metadata
   id="metadata3210"><rdf:RDF><cc:Work
       rdf:about=""><dc:format>image/svg+xml</dc:format><dc:type
         rdf:resource="http://purl.org/dc/dcmitype/StillImage" /></cc:Work></rdf:RDF></metadata><sodipodi:namedview
   pagecolor="#ffffff"
   bordercolor="#666666"
   borderopacity="1"
   objecttolerance="10"
   gridtolerance="10"
   guidetolerance="10"
   inkscape:pageopacity="0"
   inkscape:pageshadow="2"
   inkscape:window-width="1024"
   inkscape:window-height="643"
   id="namedview3208"
   showgrid="false"
   inkscape:zoom="0.78666667"
   inkscape:cx="225"
   inkscape:cy="150"
   inkscape:window-x="0"
   inkscape:window-y="0"
   inkscape:window-maximized="0"
   inkscape:current-layer="svg3165" />
 <defs
   id="defs3167"><inkscape:perspective
   sodipodi:type="inkscape:persp3d"
   inkscape:vp_x="0 : 150 : 1"
   inkscape:vp_y="0 : 1000 : 0"
   inkscape:vp_z="450 : 150 : 1"
   inkscape:persp3d-origin="225 : 100 : 1"
   id="perspective3212" />
  <style
   type="text/css"
   id="style3169">
   
    .fil0 {fill:#1B1083}
    .fil1 {fill:#E0C03D}
   
  </style>
 </defs>
 <path
   class="fil0"
   d="M 75,0 525,0 525,300 75,300 75,0 z"
   id="path3171"
   style="fill:#0078f0;fill-opacity:1" />
 <g
   id="Layer 1">
  <circle
   class="fil1"
   cx="300"
   cy="152"
   r="26"
   id="circle3174" />
  <path
   class="fil1"
   d="M338 159c-4,1 -7,-3 -7,-7 0,-4 3,-8 7,-7l105 7 -105 7z"
   id="path3176" />
  <path
   class="fil1"
   d="M307 112c1,4 -3,8 -7,8 -4,0 -8,-4 -7,-8l7 -105 7 105z"
   id="path3178" />
  <path
   class="fil1"
   d="M261 145c4,-1 8,3 8,7 0,4 -4,8 -8,7l-105 -7 105 -7z"
   id="path3180" />
  <path
   class="fil1"
   d="M293 190c-1,-4 3,-8 7,-8 4,0 8,4 7,8l-7 105 -7 -105z"
   id="path3182" />
  <path
   class="fil1"
   d="M333 129c-3,3 -8,3 -11,0 -3,-3 -3,-8 0,-10l80 -70 -69 80z"
   id="path3184" />
  <path
   class="fil1"
   d="M278 119c3,3 3,8 0,11 -3,3 -8,3 -10,0l-70 -80 80 69z"
   id="path3186" />
  <path
   class="fil1"
   d="M268 174c2,-3 7,-3 10,0 3,3 3,7 0,10l-80 69 70 -79z"
   id="path3188" />
  <path
   class="fil1"
   d="M322 184c-3,-3 -3,-7 0,-10 3,-3 8,-3 11,0l69 79 -80 -69z"
   id="path3190" />
  <path
   class="fil1"
   d="M324 113c-1,4 -5,5 -9,3 -4,-1 -6,-5 -5,-8l41 -79 -27 84z"
   id="path3192" />
  <path
   class="fil1"
   d="M290 108c1,3 -1,7 -5,8 -4,2 -8,1 -9,-3l-27 -84 41 79z"
   id="path3194" />
  <path
   class="fil1"
   d="M260 128c4,1 5,5 3,9 -1,4 -5,6 -8,4l-79 -40 84 27z"
   id="path3196" />
  <path
   class="fil1"
   d="M255 162c3,-2 7,1 8,5 2,3 1,8 -2,9l-85 27 79 -41z"
   id="path3198" />
  <path
   class="fil1"
   d="M276 191c1,-4 5,-5 9,-3 4,1 6,5 4,8l-40 79 27 -84z"
   id="path3200" />
  <path
   class="fil1"
   d="M310 196c-1,-3 1,-7 5,-9 4,-1 8,0 9,3l27 85 -41 -79z"
   id="path3202" />
  <path
   class="fil1"
   d="M338 176c-3,-1 -4,-6 -3,-10 2,-3 6,-6 9,-4l79 41 -85 -27z"
   id="path3204" />
  <path
   class="fil1"
   d="M345 141c-3,2 -7,-1 -9,-5 -1,-3 0,-8 3,-9l85 -27 -79 41z"
   id="path3206" />
 </g>
</svg>