<?xml version="1.0" encoding="UTF-8" standalone="no"?>
<!-- Created with Sodipodi ("http://www.sodipodi.com/") -->
<svg
   xmlns:dc="http://purl.org/dc/elements/1.1/"
   xmlns:cc="http://web.resource.org/cc/"
   xmlns:rdf="http://www.w3.org/1999/02/22-rdf-syntax-ns#"
   xmlns:svg="http://www.w3.org/2000/svg"
   xmlns="http://www.w3.org/2000/svg"
   xmlns:sodipodi="http://inkscape.sourceforge.net/DTD/sodipodi-0.dtd"
   xmlns:inkscape="http://www.inkscape.org/namespaces/inkscape"
   version="1"
   x="0"
   y="0"
   width="744.09000px"
   height="140mm"
   id="svg378"
   sodipodi:version="0.32"
   sodipodi:docname="malaysia.svg"
   sodipodi:docbase="/Users/daniel/Desktop"
   inkscape:version="0.42">
  <metadata
     id="metadata5555">
    <rdf:RDF>
      <cc:Work
         rdf:about="">
        <dc:format>image/svg+xml</dc:format>
        <dc:type
           rdf:resource="http://purl.org/dc/dcmitype/StillImage" />
      </cc:Work>
    </rdf:RDF>
  </metadata>
  <sodipodi:namedview
     id="base"
     showgrid="true"
     gridoriginx="-2mm"
     gridoriginy="-8mm"
     inkscape:zoom="0.61181747"
     inkscape:cx="398.42994"
     inkscape:cy="248.03149"
     inkscape:window-width="701"
     inkscape:window-height="507"
     inkscape:window-x="53"
     inkscape:window-y="173"
     inkscape:current-layer="svg378" />
  <defs
     id="defs380" />
  <g
     id="g562"
     transform="matrix(0.699997,0.000000,0.000000,0.700385,0.000000,-0.272385)">
    <rect
       width="1062.9900"
       height="708.66101"
       x="0.0000000"
       y="0.0000000"
       style="font-size:12.000000px;fill:#e80008;fill-rule:evenodd;stroke-width:1.0000000pt"
       id="rect149" />
    <rect
       width="1062.9900"
       height="50.618599"
       x="0.0000000"
       y="50.618599"
       style="font-size:12.000000px;fill:#ffffff;fill-rule:evenodd;stroke-width:1.0000000pt"
       id="rect299" />
    <rect
       width="1062.9900"
       height="50.618599"
       x="0.0000000"
       y="151.85600"
       style="font-size:12.000000px;fill:#ffffff;fill-rule:evenodd;stroke-width:1.0000000pt"
       id="rect300" />
    <rect
       width="1062.9900"
       height="50.618599"
       x="0.0000000"
       y="253.09300"
       style="font-size:12.000000px;fill:#ffffff;fill-rule:evenodd;stroke-width:1.0000000pt"
       id="rect301" />
    <rect
       width="1062.9900"
       height="50.618599"
       x="0.0000000"
       y="354.33099"
       style="font-size:12.000000px;fill:#ffffff;fill-rule:evenodd;stroke-width:1.0000000pt"
       id="rect302" />
    <rect
       width="1062.9900"
       height="50.618599"
       x="0.0000000"
       y="455.56799"
       style="font-size:12.000000px;fill:#ffffff;fill-rule:evenodd;stroke-width:1.0000000pt"
       id="rect303" />
    <rect
       width="1062.9900"
       height="50.618599"
       x="0.0000000"
       y="556.80603"
       style="font-size:12.000000px;fill:#ffffff;fill-rule:evenodd;stroke-width:1.0000000pt"
       id="rect304" />
    <rect
       width="1062.9900"
       height="50.618599"
       x="0.0000000"
       y="658.04199"
       transform="translate(0.000000,-2.396960e-5)"
       style="font-size:12.000000px;fill:#ffffff;fill-rule:evenodd;stroke-width:1.0000000pt"
       id="rect305" />
    <rect
       width="528.08398"
       height="405.79401"
       x="0.0000000"
       y="-0.90899098"
       style="font-size:12.000000px;fill:#000689;fill-rule:evenodd;stroke-width:1.0000000pt"
       id="rect298" />
  </g>
  <g
     id="g5576"
     transform="translate(-2.000000,0.000000)">
    <path
       id="path297"
       style="font-size:12.000000px;fill:#ffee00;fill-rule:evenodd;stroke-width:1.0000000pt"
       d="M 186.09611,240.66019 C 133.07242,270.16529 66.785535,250.22797 38.134818,196.78717 C 9.4841748,143.34489 29.265349,76.536506 82.289333,47.660178 C 115.07450,29.805555 151.08362,29.450971 183.80235,47.013098 C 165.34081,42.569467 148.85557,42.808367 130.94181,48.129856 C 78.760474,63.631587 48.764952,119.33905 63.987474,172.47791 C 79.210071,225.61603 133.91477,256.16133 186.09611,240.66019 z " />
    <polygon
       id="polygon291"
       style="font-size:12.000000px;fill:#ffee00;fill-rule:evenodd;stroke-width:1.0000000pt"
       transform="matrix(0.824972,0.000000,0.000000,0.824972,-30.18757,-26.22962)"
       points="337.04500,329.31400 326.53500,251.97400 282.11900,316.15500 306.20600,241.91400 238.34200,280.46700 292.25500,224.02900 214.38400,229.31900 287.44600,201.86200 214.99200,172.84100 292.73100,179.80400 240.04400,122.22000 307.06300,162.22300 284.57800,87.481900 327.60400,152.60200 339.77500,75.506600 350.28500,152.84600 394.70100,88.666100 370.61400,162.90700 438.47800,124.35400 384.56500,180.79200 462.43600,175.50200 389.37400,202.95800 461.82800,231.98000 384.08900,225.01700 436.77700,282.60000 369.75700,242.59700 392.24200,317.33900 349.21600,252.21800 337.04500,329.31400 " />
  </g>
</svg>
