<svg
   xmlns:svg="http://www.w3.org/2000/svg"
   xmlns="http://www.w3.org/2000/svg"
   xmlns:xlink="http://www.w3.org/1999/xlink"
   version="1.0"
   width="900"
   height="600"
   id="Flag_of_Malta">
  <defs
     id="defs550" />
  <rect
     width="450"
     height="600"
     x="450"
     y="0"
     fill="#cf142b"/>
  <rect
     width="450"
     height="600"
     x="0"
     y="0"
     fill="white"/>
  <g
     id="g2364">
    <path
       d="M 100.10321,91.324983 C 100.10321,92.286573 99.014207,93.066103 97.670856,93.066103 C 96.327506,93.066103 95.238507,92.286573 95.238507,91.324983 C 95.238507,90.363383 96.327506,89.583853 97.670856,89.583853 C 99.014207,89.583853 100.10321,90.363383 100.10321,91.324983 z "
       style="fill:#f1eeee;fill-opacity:1;fill-rule:evenodd;stroke:none;stroke-width:1pt;stroke-linecap:butt;stroke-linejoin:miter;stroke-opacity:1"
       id="path2289" />
    <path
       d="M 24,82.907903 L 24,127.09204 L 68.182045,127.09204 C 68.182045,134.45398 75.546135,141.81836 82.910224,141.81836 L 82.910224,186 L 127.08977,186 L 127.08977,141.81836 C 134.45386,141.81836 141.81795,134.45398 141.81795,127.09204 L 186,127.09204 L 186,82.907903 L 141.81795,82.907903 C 141.81795,75.546013 134.45386,68.181573 127.08977,68.181573 L 127.08977,23.999993 L 82.910224,23.999993 L 82.910224,68.181573 C 75.546135,68.181573 68.182045,75.546013 68.182045,82.907903 L 24,82.907903 z "
       style="font-size:12px;fill:#e60d2e;fill-opacity:1;fill-rule:evenodd;stroke-width:1pt"
       id="path2291" />
    <path
       d="M 25.473816,84.381813 L 25.473816,125.61813 L 69.655865,125.61813 C 69.655865,132.98007 77.017453,140.347 84.38155,140.347 L 84.38155,184.52858 L 125.61845,184.52858 L 125.61845,140.347 C 132.98254,140.347 140.34414,132.98007 140.34414,125.61813 L 184.52618,125.61813 L 184.52618,84.381813 L 140.34414,84.381813 C 140.34414,77.019863 132.98254,69.652933 125.61845,69.652933 L 125.61845,25.471353 L 84.38155,25.471353 L 84.38155,69.652933 C 77.017453,69.652933 69.655865,77.019863 69.655865,84.381813 L 25.473816,84.381813 z "
       style="font-size:12px;fill:#cf142b;fill-opacity:1;fill-rule:evenodd;stroke-width:1pt"
       id="path2293" />

    <path
       d="M 26.946416,85.852013 L 26.946416,124.14555 L 71.125968,124.14555 C 71.125968,131.50744 78.490058,138.87188 85.854146,138.87188 L 85.854146,183.05352 L 124.14342,183.05352 L 124.14342,138.87188 C 131.50751,138.87188 138.8716,131.50744 138.8716,124.14555 L 183.05115,124.14555 L 183.05115,85.852013 L 138.8716,85.852013 C 138.8716,78.490063 131.50751,71.125623 124.14342,71.125623 L 124.14342,26.944043 L 85.854146,26.944043 L 85.854146,71.125623 C 78.490058,71.125623 71.125968,78.490063 71.125968,85.852013 L 26.946416,85.852013 z "
       style="font-size:12px;fill:#96877d;fill-opacity:1;fill-rule:evenodd;stroke-width:1pt"
       id="path2295" />
    <path
       d="M 28.420232,87.325853 L 28.420232,122.67164 L 72.599782,122.67164 C 72.599782,130.03359 79.963876,137.40052 87.327965,137.40052 L 87.327965,181.5821 L 122.6721,181.5821 L 122.6721,137.40052 C 130.03619,137.40052 137.40028,130.03359 137.40028,122.67164 L 181.57983,122.67164 L 181.57983,87.325853 L 137.40028,87.325853 C 137.40028,79.963913 130.03619,72.599473 122.6721,72.599473 L 122.6721,28.417893 L 87.327965,28.417893 L 87.327965,72.599473 C 79.963876,72.599473 72.599782,79.963913 72.599782,87.325853 L 28.420232,87.325853 z "
       style="font-size:12px;fill:#ccc;fill-opacity:1;fill-rule:evenodd;stroke-width:1pt"
       id="path2297" />
    <path
       d="M 87.692452,68.948803 C 90.280535,71.536963 88.182485,77.831283 83.006333,83.007573 C 77.830181,88.183863 71.536025,90.281963 68.947942,87.693813 C 66.359859,85.105663 68.457907,78.811333 73.63406,73.635043 C 78.810214,68.458753 85.10437,66.360653 87.692452,68.948803 z "
       style="fill:#d0d0d0;fill-opacity:1;fill-rule:evenodd;stroke:none;stroke-width:1pt;stroke-linecap:butt;stroke-linejoin:miter;stroke-opacity:1"
       id="path2299" />
    <path
       d="M 84.56869,72.072903 C 87.156773,74.661053 86.45741,79.556643 83.006624,83.007513 C 79.555836,86.458383 74.660366,87.157763 72.072283,84.569603 C 69.484202,81.981453 70.183565,77.085853 73.634349,73.634983 C 77.085138,70.184123 81.980608,69.484743 84.56869,72.072903 z "
       style="fill:#96877d;fill-opacity:1;fill-rule:evenodd;stroke:none;stroke-width:1pt;stroke-linecap:butt;stroke-linejoin:miter;stroke-opacity:1"
       id="path2301" />
    <path
       d="M 71.551395,79.882803 L 72.592632,78.841533 L 76.758272,80.924323 L 74.675318,76.758803 L 75.716768,75.717283 L 79.882244,84.048393 L 71.551395,79.882803 z "
       style="fill:#d0d0d0;fill-opacity:1;fill-rule:evenodd;stroke:none;stroke-width:1pt;stroke-linecap:butt;stroke-linejoin:miter;stroke-opacity:1"
       id="path2303" />
    <rect
       width="1.4727269"
       height="8.8363628"
       x="2.9466841"
       y="107.08002"
       transform="matrix(0.707097,-0.707117,0.707097,0.707117,0,0)"
       style="font-size:12px;fill:#d0d0d0;fill-opacity:1;fill-rule:evenodd;stroke-width:1pt"
       id="rect2305" />
    <path
       d="M 141.05122,87.693403 C 138.46314,90.281553 132.16899,88.183453 126.99283,83.007163 C 121.81668,77.830873 119.71863,71.536553 122.30671,68.948393 C 124.8948,66.360243 131.18895,68.458343 136.36511,73.634633 C 141.54126,78.810923 143.63931,85.105253 141.05122,87.693403 z "
       style="fill:#d0d0d0;fill-opacity:1;fill-rule:evenodd;stroke:none;stroke-width:1pt;stroke-linecap:butt;stroke-linejoin:miter;stroke-opacity:1"
       id="path2307" />
    <path
       d="M 137.92738,84.569333 C 135.3393,87.157483 130.44383,86.458113 126.99304,83.007243 C 123.54226,79.556373 122.84289,74.660783 125.43098,72.072623 C 128.01906,69.484473 132.91453,70.183843 136.36532,73.634713 C 139.8161,77.085583 140.51547,81.981173 137.92738,84.569333 z "
       style="fill:#96877d;fill-opacity:1;fill-rule:evenodd;stroke:none;stroke-width:1pt;stroke-linecap:butt;stroke-linejoin:miter;stroke-opacity:1"
       id="path2309" />
    <path
       d="M 130.11712,71.552063 L 131.15835,72.593333 L 129.07561,76.759043 L 133.24104,74.676063 L 134.28249,75.717523 L 125.95164,79.883113 L 130.11712,71.552063 z "
       style="fill:#d0d0d0;fill-opacity:1;fill-rule:evenodd;stroke:none;stroke-width:1pt;stroke-linecap:butt;stroke-linejoin:miter;stroke-opacity:1"
       id="path2311" />

    <rect
       width="1.4727269"
       height="8.8363628"
       x="151.43839"
       y="-41.414047"
       transform="matrix(0.707097,0.707117,-0.707097,0.707117,0,0)"
       style="font-size:12px;fill:#d0d0d0;fill-opacity:1;fill-rule:evenodd;stroke-width:1pt"
       id="rect2313" />
    <path
       d="M 122.30701,141.05361 C 119.71893,138.46545 121.81698,132.17113 126.99313,126.99484 C 132.16928,121.81855 138.46344,119.72044 141.05152,122.3086 C 143.6396,124.89675 141.54155,131.19108 136.3654,136.36737 C 131.18925,141.54365 124.89509,143.64176 122.30701,141.05361 z "
       style="fill:#d0d0d0;fill-opacity:1;fill-rule:evenodd;stroke:none;stroke-width:1pt;stroke-linecap:butt;stroke-linejoin:miter;stroke-opacity:1"
       id="path2315" />
    <path
       d="M 125.43061,137.92953 C 122.84253,135.34138 123.54189,130.44578 126.99268,126.99492 C 130.44346,123.54405 135.33893,122.84467 137.92702,125.43283 C 140.5151,128.02098 139.81574,132.91657 136.36495,136.36744 C 132.91416,139.81831 128.01869,140.51768 125.43061,137.92953 z "
       style="fill:#96877d;fill-opacity:1;fill-rule:evenodd;stroke:none;stroke-width:1pt;stroke-linecap:butt;stroke-linejoin:miter;stroke-opacity:1"
       id="path2317" />
    <path
       d="M 138.448,130.11962 L 137.40676,131.16089 L 133.24112,129.0781 L 135.32407,133.24363 L 134.28262,134.28515 L 130.11715,125.95403 L 138.448,130.11962 z "
       style="fill:#d0d0d0;fill-opacity:1;fill-rule:evenodd;stroke:none;stroke-width:1pt;stroke-linecap:butt;stroke-linejoin:miter;stroke-opacity:1"
       id="path2319" />
    <rect
       width="1.4727269"
       height="8.8363628"
       x="2.9443223"
       y="-189.90593"
       transform="matrix(-0.707097,0.707117,-0.707097,-0.707117,0,0)"
       style="font-size:12px;fill:#d0d0d0;fill-opacity:1;fill-rule:evenodd;stroke-width:1pt"
       id="rect2321" />
    <path
       d="M 68.948155,122.30903 C 71.536238,119.72087 77.830395,121.81898 83.006548,126.99527 C 88.182702,132.17156 90.280749,138.46588 87.692666,141.05403 C 85.104584,143.64219 78.810428,141.54408 73.634274,136.3678 C 68.458123,131.1915 66.360073,124.89718 68.948155,122.30903 z "
       style="fill:#d0d0d0;fill-opacity:1;fill-rule:evenodd;stroke:none;stroke-width:1pt;stroke-linecap:butt;stroke-linejoin:miter;stroke-opacity:1"
       id="path2323" />
    <path
       d="M 72.071978,125.43316 C 74.660061,122.84501 79.555531,123.54438 83.006317,126.99525 C 86.457104,130.44612 87.156467,135.34171 84.568384,137.92987 C 81.980302,140.51802 77.084832,139.81865 73.634044,136.36778 C 70.183258,132.91691 69.483896,128.02132 72.071978,125.43316 z "
       style="fill:#96877d;fill-opacity:1;fill-rule:evenodd;stroke:none;stroke-width:1pt;stroke-linecap:butt;stroke-linejoin:miter;stroke-opacity:1"
       id="path2325" />
    <path
       d="M 79.882255,138.45037 L 78.84102,137.40909 L 80.923761,133.24338 L 76.758331,135.32636 L 75.716883,134.2849 L 84.047731,130.11932 L 79.882255,138.45037 z "
       style="fill:#d0d0d0;fill-opacity:1;fill-rule:evenodd;stroke:none;stroke-width:1pt;stroke-linecap:butt;stroke-linejoin:miter;stroke-opacity:1"
       id="path2327" />
    <rect
       width="1.4727269"
       height="8.8363628"
       x="-145.54758"
       y="-41.411674"
       transform="matrix(-0.707097,-0.707117,0.707097,-0.707117,0,0)"
       style="font-size:12px;fill:#d0d0d0;fill-opacity:1;fill-rule:evenodd;stroke-width:1pt"
       id="rect2329" />

    <path
       d="M 135.92675,105.00068 C 135.93067,122.08433 122.08308,135.93543 104.99986,135.93543 C 87.916631,135.93543 74.069043,122.08433 74.072958,105.00068 C 74.069043,87.917043 87.916631,74.065943 104.99985,74.065943 C 122.08308,74.065943 135.93067,87.917043 135.92675,105.00068 L 135.92675,105.00068 z "
       style="fill:none;fill-opacity:1;fill-rule:evenodd;stroke:#96877d;stroke-width:0.49999934;stroke-linecap:butt;stroke-linejoin:miter;stroke-opacity:1"
       id="path2331" />
    <path
       d="M 128.5628,105.00099 C 128.56578,118.01712 118.01529,128.57036 104.99956,128.57036 C 91.983829,128.57036 81.433334,118.01712 81.436316,105.00099 C 81.433334,91.984873 91.983829,81.431633 104.99956,81.431633 C 118.01529,81.431633 128.56578,91.984873 128.5628,105.00099 L 128.5628,105.00099 z "
       style="fill:none;fill-opacity:1;fill-rule:evenodd;stroke:#96877d;stroke-width:0.49999934;stroke-linecap:butt;stroke-linejoin:miter;stroke-opacity:1"
       id="path2333" />
    <path
       d="M 94.690576,130.03737 C 94.691366,130.56405 94.410847,131.05107 93.954868,131.31464 C 93.498889,131.57822 92.936866,131.57822 92.480888,131.31464 C 92.024909,131.05107 91.744388,130.56405 91.745176,130.03737 C 91.744388,129.51068 92.024909,129.02366 92.480888,128.76009 C 92.936866,128.49652 93.498889,128.49652 93.954868,128.76009 C 94.410847,129.02366 94.691366,129.51068 94.690576,130.03737 L 94.690576,130.03737 z "
       style="fill:black;fill-opacity:1;fill-rule:evenodd;stroke:none;stroke-width:1pt;stroke-linecap:butt;stroke-linejoin:miter;stroke-opacity:1"
       id="path2335" />
    <path
       d="M 118.25386,130.03737 C 118.25465,130.56405 117.97413,131.05107 117.51815,131.31464 C 117.06218,131.57822 116.50015,131.57822 116.04417,131.31464 C 115.5882,131.05107 115.30768,130.56405 115.30846,130.03737 C 115.30768,129.51068 115.5882,129.02366 116.04417,128.76009 C 116.50015,128.49652 117.06218,128.49652 117.51815,128.76009 C 117.97413,129.02366 118.25465,129.51068 118.25386,130.03737 L 118.25386,130.03737 z "
       style="fill:black;fill-opacity:1;fill-rule:evenodd;stroke:none;stroke-width:1pt;stroke-linecap:butt;stroke-linejoin:miter;stroke-opacity:1"
       id="path2337" />
    <path
       d="M 104.01802,130.03754 L 104.01802,131.57322 L 102.05431,131.57322 C 100.09059,131.57322 100.09059,133.10884 102.05431,133.10884 L 104.01802,133.10884 L 104.01802,134.64434 C 104.02467,136.23631 105.73181,136.42807 105.85677,134.76848 L 105.98146,133.10884 L 107.94518,133.10884 C 109.90861,133.10884 109.90861,131.57322 107.94518,131.57322 L 105.98146,131.57322 L 105.98146,130.03754 C 105.98146,128.50211 104.01802,128.50211 104.01802,130.03754 z "
       style="fill:black;fill-opacity:1;fill-rule:evenodd;stroke:none;stroke-width:1pt;stroke-linecap:butt;stroke-linejoin:miter;stroke-opacity:1"
       id="path2339" />
    <g
       transform="matrix(0.197226,0,0,0.197226,246.5925,-44.46005)"
       id="g4982">
      <path
         d="M -632.68559,780.63036 C -630.06551,779.96745 -625.74079,780.50409 -625.74079,780.50409 C -625.74079,780.50409 -625.36198,782.30343 -626.4984,782.90321 C -625.23571,783.62926 -620.69002,783.40828 -620.69002,783.40828 C -620.69002,783.40828 -622.45779,784.76568 -623.34167,785.30232 C -621.70017,785.46016 -619.67987,787.57516 -619.67987,787.57516 C -619.67987,787.57516 -623.46794,788.2065 -625.10944,787.32262 C -624.09929,789.34292 -624.22556,791.11069 -624.22556,791.11069 C -624.22556,791.11069 -630.34961,789.59547 -632.55932,785.55486"
         style="fill:#96877d;fill-opacity:1;fill-rule:evenodd;stroke:black;stroke-width:1px;stroke-linecap:butt;stroke-linejoin:miter;stroke-opacity:1"
         id="path4942" />
      <path
         d="M -642.91338,777.22109 C -644.39704,780.8829 -655.28775,774.06437 -655.28775,774.06437 C -655.28775,774.06437 -650.48952,781.67208 -643.29218,782.5244"
         style="fill:#96877d;fill-opacity:1;fill-rule:evenodd;stroke:black;stroke-width:1px;stroke-linecap:butt;stroke-linejoin:miter;stroke-opacity:1"
         id="path4944" />
      <path
         d="M -778.90517,847.04789 L -651.37341,847.04789 L -641.52442,839.21921 L -657.9394,830.38038 L -683.19321,821.79408 L -693.29474,816.23824 L -711.98256,817.24839 L -727.63992,825.58215 L -749.10567,828.10753 L -754.15643,833.91591 L -770.06634,835.1786 L -795.06761,834.67352 L -753.39882,841.23952 L -787.744,839.47175 L -778.90517,847.04789 z "
         style="fill:#96877d;fill-opacity:1;fill-rule:evenodd;stroke:black;stroke-width:1px;stroke-linecap:butt;stroke-linejoin:miter;stroke-opacity:1"
         id="path4946" />

      <path
         d="M -710.21479,810.42986 C -726.18783,801.84356 -730.85978,822.99363 -737.74145,828.10753 C -728.46067,829.68589 -721.45274,820.97333 -713.49779,816.74332 C -707.46531,833.16941 -697.96669,822.29916 -697.96669,822.29916 C -697.96669,822.29916 -688.05457,838.01965 -674.85945,830.88545 C -671.26078,833.60023 -667.28331,831.13799 -667.28331,831.13799 C -667.28331,831.13799 -662.48508,832.02187 -661.47493,829.8753 C -658.94955,830.75918 -656.17163,827.60246 -656.17163,827.60246 C -656.17163,827.60246 -650.67893,827.66559 -649.60564,824.82454 C -641.46129,826.27663 -630.66528,808.15702 -630.66528,808.15702 L -627.38228,801.84357 L -622.58406,800.83341 C -622.58406,800.83341 -622.26838,797.67669 -624.8569,797.80296 C -624.92003,795.90892 -626.56153,794.89876 -628.89751,795.27757 C -628.45557,794.14115 -630.1602,793.25727 -630.1602,793.25727 C -634.70589,794.39369 -634.95843,805.88418 -634.95843,805.88418 C -634.95843,805.88418 -642.91338,811.94509 -645.81757,813.46032 C -645.94384,806.89433 -656.92924,797.99236 -654.6564,793.76235 C -652.38356,789.53234 -645.24936,800.26521 -638.99904,798.30804 C -632.74873,796.35086 -629.67771,788.22069 -629.40259,781.89305 C -631.17036,777.5999 -635.4635,770.52884 -635.4635,770.52884 L -639.50412,770.2763 L -643.03965,761.69 C -643.03965,761.69 -650.48953,766.55137 -650.36326,770.78138 C -650.23699,775.0114 -642.53457,778.61006 -642.53457,778.61006 C -642.53457,778.61006 -646.9761,781.38597 -651.12087,780.12529 C -651.49968,784.41844 -646.07011,783.59769 -644.0498,783.66082 C -643.03965,786.75441 -640.00919,788.45905 -640.00919,788.45905 C -640.00919,788.45905 -638.11516,793.19413 -643.03965,792.75219 C -647.96414,792.31025 -653.774,780.96388 -660.71732,786.1862 C -668.10406,791.74205 -657.43432,801.84357 -657.43432,801.84357 C -657.43432,801.84357 -663.93718,805.25284 -667.78839,813.9654 C -683.50889,800.70715 -692.72652,806.89433 -710.21479,810.42986 z "
         style="fill:#96877d;fill-opacity:1;fill-rule:evenodd;stroke:black;stroke-width:1px;stroke-linecap:butt;stroke-linejoin:miter;stroke-opacity:1"
         id="path4948" />
      <path
         d="M -733.19577,787.95397 C -726.62978,794.14115 -731.20884,804.42555 -728.65008,806.38925 C -725.9353,808.47269 -722.08409,805.3791 -722.08409,805.3791 C -715.20242,807.21 -702.89119,803.35879 -702.89119,803.35879 C -697.47314,806.38843 -699.61181,801.91769 -696.3252,802.0961 C -693.42101,809.54597 -683.69829,808.15702 -683.69829,808.15702 C -683.69829,808.15702 -692.60026,799.06565 -698.09296,796.54027 C -702.32297,799.06565 -714.63421,799.44446 -716.78078,799.06565 C -719.17266,798.64355 -717.66467,795.71951 -718.80109,794.01488 C -714.27445,789.60865 -717.85407,778.67319 -720.31632,774.56945 C -730.3506,767.88503 -742.33818,779.339 -733.19577,787.95397 z "
         style="fill:#96877d;fill-opacity:1;fill-rule:evenodd;stroke:black;stroke-width:1px;stroke-linecap:butt;stroke-linejoin:miter;stroke-opacity:1"
         id="path4950" />
      <path
         d="M -776.84844,769.43987 C -785.10737,771.67201 -799.43773,758.77023 -806.13416,763.72559 C -812.83058,768.68095 -809.70559,780.86844 -805.2413,786.93987 C -800.87971,792.87163 -811.62523,795.02023 -814.52701,798.54702 C -817.25502,801.8626 -813.63416,805.68988 -813.63416,805.68988 L -810.59844,807.65415 L -811.13416,812.11844 L -809.52701,817.47559 C -809.52701,817.47559 -808.0538,818.77023 -807.56273,817.11844 C -806.1788,818.50237 -807.41654,822.50423 -803.9913,823.0113 C -805.21782,820.44842 -803.09844,813.36844 -803.09844,813.36844 C -803.09844,813.36844 -797.1163,813.81487 -795.59844,811.22559 C -794.08058,808.6363 -797.02701,803.0113 -797.02701,803.0113 C -797.02701,803.0113 -795.2413,803.0113 -795.2413,803.0113 C -797.25023,801.62737 -797.91987,797.47559 -797.91987,797.47559 C -797.91987,797.47559 -789.6163,794.84166 -789.70558,788.54702 C -789.79487,782.25238 -803.18773,775.55595 -798.27701,772.29702 C -792.83059,768.68094 -783.3663,781.67201 -775.2413,775.68987 C -767.20072,769.76989 -772.38416,775.5113 -772.38416,775.5113 C -772.38416,775.5113 -768.70912,767.24005 -776.84844,769.43987 z "
         style="fill:#96877d;fill-opacity:1;fill-rule:evenodd;stroke:black;stroke-width:1px;stroke-linecap:butt;stroke-linejoin:miter;stroke-opacity:1"
         id="path4952" />
      <path
         d="M -734.20592,681.00407 C -745.25447,676.39525 -767.82506,676.11114 -780.4204,669.89239 C -785.94467,670.23963 -788.40692,674.59591 -788.62789,676.33211 C -794.4047,676.04801 -798.31904,685.13938 -797.46672,686.93872 C -807.97862,682.67713 -812.87155,699.31308 -809.46228,702.72235 C -818.42739,703.10116 -817.32253,714.56007 -818.17485,717.74837 C -821.04747,724.72474 -817.53514,727.07216 -811.8614,724.5669 C -811.00908,727.59736 -812.202,729.29487 -814.76559,729.8702 C -799.20417,747.67767 -790.40927,718.91126 -776.7586,719.01106 C -759.71506,714.02157 -753.02001,705.62654 -753.02001,705.62654 L -746.32775,706.51042 C -746.32775,706.51042 -734.20592,681.00407 -734.20592,681.00407 z "
         style="fill:#96877d;fill-opacity:1;fill-rule:evenodd;stroke:black;stroke-width:1px;stroke-linecap:butt;stroke-linejoin:miter;stroke-opacity:1"
         id="path4954" />
      <path
         d="M 136.7494,57.993271 C 136.7494,66.989277 129.4567,74.281981 120.46069,74.281981 C 111.46468,74.281981 104.17198,66.989277 104.17198,57.993271 C 104.17198,48.997265 111.46468,41.704561 120.46069,41.704561 C 129.4567,41.704561 136.7494,48.997265 136.7494,57.993271 L 136.7494,57.993271 z "
         transform="translate(-840.3982,610.2576)"
         style="opacity:1;fill:#96877d;fill-opacity:1;fill-rule:nonzero;stroke:black;stroke-width:1;stroke-linecap:round;stroke-miterlimit:4;stroke-dasharray:none;stroke-dashoffset:0;stroke-opacity:1"
         id="path4956" />
      <path
         d="M -748.60059,796.54027 C -758.70212,794.70937 -775.43277,784.22903 -777.1374,770.52884 C -767.73036,733.59514 -719.20496,752.88181 -715.01827,725.10261 C -716.08472,706.77543 -712.80297,688.6331 -702.63865,673.30166 C -697.90356,667.30388 -691.77951,665.72551 -691.77951,665.72551 C -691.77951,665.72551 -690.68262,669.63725 -692.28459,672.2915 C -684.2665,671.40762 -673.28109,675.89017 -665.76808,676.33211 C -663.55837,680.81467 -663.74777,682.45616 -664.25285,685.17095 C -664.75793,687.88573 -667.78839,687.19125 -667.78839,687.19125 C -669.74824,689.05036 -672.10388,690.94198 -677.38484,689.96917 C -681.36231,692.99963 -689.7592,693.75725 -689.7592,693.75725 C -689.7592,693.75725 -672.2078,712.25566 -675.11199,718.0009 C -671.45019,719.70553 -666.02062,727.84989 -666.02062,727.84989 C -666.02062,727.84989 -654.02506,721.53644 -650.11072,715.72806 C -643.16592,715.72806 -631.8017,722.98853 -626.11959,723.80928 C -619.17479,729.42825 -612.23,735.1735 -612.23,735.1735 C -612.23,735.1735 -620.50062,740.60307 -624.09929,733.40573 C -628.45557,733.78454 -637.86262,723.36734 -650.86833,726.5872 C -651.24714,738.14082 -664.00031,746.28518 -664.00031,746.28518 C -664.00031,746.28518 -652.09685,744.61932 -645.56503,748.55802 C -638.80963,754.24013 -628.89751,761.94254 -628.89751,761.94254 L -620.05868,777.09483 C -620.05868,777.09483 -628.1399,778.48379 -631.17036,768.00346 C -634.20082,776.46349 -634.32707,762.76329 -646.32264,756.3867 C -649.98444,756.82864 -651.81535,757.08118 -654.90894,754.61893 C -663.55837,756.95491 -673.78616,762.00567 -685.97113,760.67985 C -694.62056,763.39464 -700.93402,770.59198 -709.70972,774.56945 C -718.48542,778.54693 -721.07393,776.58975 -721.07393,776.58975 L -728.145,776.84229 C -729.16513,781.09921 -728.58694,787.57516 -732.43815,788.71158 C -729.9759,791.36323 -734.20591,802.66432 -738.49906,804.62149 C -736.47876,811.88196 -730.56024,814.10446 -724.35693,817.75347 C -724.35693,817.75347 -718.86423,815.22809 -715.26556,818.51108 C -711.66689,821.79408 -707.94195,831.13799 -707.94195,831.13799 C -707.94195,831.13799 -715.43171,831.64401 -717.79094,830.63291 C -720.15017,829.62181 -720.37945,827.16052 -723.09424,827.855 C -740.2037,812.63958 -749.22654,818.69161 -750.87344,815.22809 C -752.5615,811.67798 -746.83283,802.41178 -748.60059,796.54027 z "
         style="fill:#96877d;fill-opacity:1;fill-rule:evenodd;stroke:black;stroke-width:1px;stroke-linecap:butt;stroke-linejoin:miter;stroke-opacity:1"
         id="path4958" />
      <path
         d="M -789.70558,728.72559 C -788.81273,727.60952 -782.56273,729.97559 -782.56273,729.97559 L -771.13416,737.11844 L -747.91987,752.11844 L -739.70558,764.08273 L -754.52701,759.2613 L -775.06273,741.58273 L -786.13416,734.43987 C -786.13416,734.43987 -790.59844,729.84166 -789.70558,728.72559 z "
         style="fill:#96877d;fill-opacity:1;fill-rule:evenodd;stroke:black;stroke-width:1px;stroke-linecap:butt;stroke-linejoin:miter;stroke-opacity:1"
         id="path4960" />
      <path
         d="M -652.38356,766.74077 C -660.40165,764.72047 -680.16276,788.71158 -680.16276,788.71158 L -665.26301,804.87402 C -665.26301,804.87402 -664.82106,777.34737 -652.38356,766.74077 z "
         style="fill:#96877d;fill-opacity:1;fill-rule:evenodd;stroke:black;stroke-width:1px;stroke-linecap:butt;stroke-linejoin:miter;stroke-opacity:1"
         id="path4962" />
      <path
         d="M -750.11582,699.81816 C -754.48839,705.42075 -754.87964,716.71591 -749.19143,721.27161 C -748.65519,728.12735 -742.82629,741.95632 -738.24653,743.25472 C -733.24289,744.6733 -713.24525,749.31563 -705.41657,748.05294 C -706.91386,760.74112 -696.95742,770.92559 -687.7389,777.5999 C -687.80609,778.7385 -687.82191,780.12844 -686.75676,781.53591 C -685.72499,782.89927 -680.88091,783.14913 -680.66783,782.39813 C -678.51951,785.41721 -668.1138,786.74281 -667.35991,785.39795 C -666.62637,784.0894 -682.66538,772.92564 -686.22367,769.51868 C -689.24624,763.87958 -694.97105,751.31427 -696.3252,741.23441 C -704.19721,731.86884 -717.71172,732.05638 -717.71172,732.05638 L -717.28586,713.70776 L -716.52825,692.99963 L -723.85185,689.21156 C -723.85185,689.21156 -722.37547,688.53874 -721.57901,687.69633 C -719.80041,688.46106 -716.458,684.88777 -716.02317,683.87762 C -714.33834,684.47461 -712.81295,684.46665 -712.51827,683.56643 C -712.25803,682.77141 -711.95652,679.23236 -711.34224,677.40354 C -705.81725,672.53901 -712.14876,662.22433 -720.59687,662.05474 C -728.95569,661.88514 -730.83057,672.02573 -730.67038,672.79658 C -729.88519,675.97814 -730.05435,677.58211 -730.67038,678.35242 C -731.30003,679.13976 -734.20592,680.8778 -734.20592,680.8778 C -734.20592,680.8778 -738.87787,678.66809 -744.55998,680.8778 C -750.24209,683.08751 -756.61868,686.05483 -756.93435,689.71664 C -759.52287,690.09544 -763.75288,693.44157 -764.5105,696.28263 C -766.78334,695.84069 -769.75066,697.73472 -774.61202,705.62654 C -783.32459,709.47774 -783.82966,728.10243 -783.82966,728.10243 C -783.82966,728.10243 -786.18142,731.52747 -786.29191,733.34259 C -786.4024,735.15771 -785.47116,736.815 -784.33474,736.49933 C -784.20847,737.69888 -782.63011,738.77216 -781.93563,738.39336 C -781.68309,739.59291 -779.94962,740.26377 -778.90517,740.098 C -778.81047,740.91875 -775.44855,740.71356 -775.18023,739.97173 C -774.88413,739.15309 -775.5129,735.05853 -775.1171,734.73156 C -774.75407,734.43167 -771.96037,736.56246 -771.20276,735.99424 C -770.44514,735.42603 -771.34745,733.60652 -771.77097,732.90065 C -772.14977,732.26931 -774.54889,731.57483 -775.1171,728.60751 C -775.68531,725.64019 -773.60187,721.53644 -773.60187,721.53644 C -773.60187,721.53644 -764.13169,714.08657 -763.0584,707.70998 C -755.9242,708.40446 -752.15191,702.16992 -750.11582,699.81816 z "
         style="fill:#96877d;fill-opacity:1;fill-rule:evenodd;stroke:black;stroke-width:1px;stroke-linecap:butt;stroke-linejoin:miter;stroke-opacity:1"
         id="path4964" />

      <path
         d="M -766.59394,673.11225 C -764.43158,667.82474 -756.61868,668.31403 -756.61868,668.31403 C -756.61868,668.31403 -753.82497,660.95885 -743.29729,665.3467 C -739.3356,662.28468 -728.90262,666.67253 -728.90262,666.67253 C -728.90262,666.67253 -724.99588,661.46719 -719.87437,662.06371 C -710.38841,663.16856 -708.81005,671.86535 -709.39404,673.36479 C -714.58685,674.67483 -723.58284,669.14468 -730.41784,670.71314 C -734.4111,672.9702 -740.8824,675.35353 -743.29729,678.60496 C -749.62653,679.26787 -756.38192,672.7808 -766.59394,673.11225 z "
         style="fill:#96877d;fill-opacity:1;fill-rule:evenodd;stroke:black;stroke-width:1px;stroke-linecap:butt;stroke-linejoin:miter;stroke-opacity:1"
         id="path4966" />
      <path
         d="M -746.83283,681.88795 C -744.46528,680.43586 -738.65749,677.88309 -734.71099,681.00407 C -730.57568,685.45505 -724.23066,689.59037 -724.23066,689.59037 L -717.03332,692.62082 L -713.75033,694.64113 L -715.8969,727.59736 C -722.55883,720.7808 -728.80226,719.58752 -733.57456,711.56118 C -736.13151,708.12035 -734.17434,699.84973 -738.62533,694.38859 C -743.07632,688.92745 -747.81141,685.23408 -746.83283,681.88795 z "
         style="fill:#96877d;fill-opacity:1;fill-rule:evenodd;stroke:black;stroke-width:1px;stroke-linecap:butt;stroke-linejoin:miter;stroke-opacity:1"
         id="path4968" />
      <path
         d="M -729.52701,691.40416 C -729.52701,691.40416 -725.75469,690.68987 -724.70558,691.58273 C -723.38862,692.02916 -722.11629,692.40862 -721.75915,693.54702 C -720.33058,693.97112 -719.34844,694.70773 -719.34844,695.77916 C -718.00916,696.1363 -717.47344,698.54702 -717.47344,698.54702 L -718.72344,700.42202 C -718.72344,700.42202 -720.15201,699.08273 -720.33058,697.65416 C -721.23443,697.20906 -723.23237,696.73898 -723.72344,695.42202 C -725.28594,695.26577 -726.2904,694.4622 -726.58058,693.10059 C -728.03147,693.43541 -729.52701,691.40416 -729.52701,691.40416 z "
         style="fill:#96877d;fill-opacity:1;fill-rule:evenodd;stroke:black;stroke-width:1px;stroke-linecap:butt;stroke-linejoin:miter;stroke-opacity:1"
         id="path4970" />
      <path
         d="M -697.58789,669.89239 C -699.73446,667.49328 -703.52253,669.26105 -703.52253,669.26105 L -713.62406,686.68618 L -718.04348,690.34798 L -718.42228,703.98504 L -714.76048,716.73821 L -716.02317,726.5872 C -716.02317,726.5872 -710.93604,721.81473 -710.34106,719.13732 C -709.77285,716.58037 -712.2351,708.27819 -712.2351,708.27819 C -712.2351,708.27819 -715.26555,703.10116 -711.60375,693.50471 C -707.94195,683.90826 -699.60819,675.95331 -697.58789,669.89239 z "
         style="fill:#96877d;fill-opacity:1;fill-rule:evenodd;stroke:black;stroke-width:1px;stroke-linecap:butt;stroke-linejoin:miter;stroke-opacity:1"
         id="path4972" />
      <path
         d="M -672.66124,685.42349 C -672.66124,685.42349 -688.43338,707.96252 -714.2554,715.9806 C -721.3896,717.68523 -718.80109,699.31309 -718.80109,699.31309 L -720.56886,699.81816 C -720.56886,699.81816 -724.54633,717.8115 -715.01302,718.0009 C -689.06472,712.887 -669.5952,685.56928 -669.5952,685.56928 L -672.66124,685.42349 z "
         style="fill:#96877d;fill-opacity:1;fill-rule:evenodd;stroke:black;stroke-width:1px;stroke-linecap:butt;stroke-linejoin:miter;stroke-opacity:1"
         id="path4974" />
      <path
         d="M -661.98001,814.97555 C -661.98001,814.97555 -664.37912,816.74332 -667.53585,814.97555 C -669.17735,811.18748 -673.59676,810.93494 -673.59676,810.93494 C -673.59676,810.93494 -676.44326,802.75742 -680.92037,805.12656 C -681.61485,800.89655 -686.47621,803.10626 -686.47621,803.10626 C -686.47621,803.10626 -686.60248,796.98221 -692.28459,797.80296 C -690.39055,790.79502 -700.11327,791.23696 -700.11327,791.23696 C -700.11327,791.23696 -700.42894,783.34514 -714.76048,784.92351 C -683.88769,771.09705 -659.45463,806.64179 -659.45463,806.64179"
         style="fill:#96877d;fill-opacity:1;fill-rule:evenodd;stroke:black;stroke-width:1px;stroke-linecap:butt;stroke-linejoin:miter;stroke-opacity:1"
         id="path4976" />
      <path
         d="M -647.3328,818.00601 C -647.3328,818.00601 -640.1986,826.0241 -636.47366,826.08723 C -632.74872,826.15036 -632.43305,818.25854 -632.43305,818.25854 C -632.43305,818.25854 -631.23349,821.66781 -629.40259,820.78393 C -629.59199,823.18304 -627.12975,823.81438 -627.12975,823.81438 C -627.12975,823.81438 -633.56947,838.77727 -651.87848,824.572"
         style="fill:#96877d;fill-opacity:1;fill-rule:evenodd;stroke:black;stroke-width:1px;stroke-linecap:butt;stroke-linejoin:miter;stroke-opacity:1"
         id="path4978" />
      <path
         d="M -703.14373,821.03646 L -705.66911,831.39053 C -705.66911,831.39053 -708.88897,834.29471 -707.94195,834.92606 C -706.99493,835.5574 -701.88103,833.91591 -701.88103,833.91591 C -701.88103,833.91591 -693.92608,832.96889 -691.52697,830.63291 C -689.88547,834.35785 -686.22367,834.67352 -686.22367,834.67352 C -686.22367,834.67352 -685.97113,833.09516 -686.47621,832.14814 C -684.70844,832.46381 -683.19321,831.8956 -683.19321,831.8956 C -683.19321,831.8956 -682.18305,828.99141 -684.4559,827.85499 C -684.20336,825.70842 -683.13008,823.81438 -686.98129,824.06692 C -689.82234,827.09738 -696.83027,830.56978 -698.59804,829.37023 C -700.3658,828.17067 -691.65324,824.31946 -694.05235,819.2687"
         style="fill:#96877d;fill-opacity:1;fill-rule:evenodd;stroke:black;stroke-width:1px;stroke-linecap:butt;stroke-linejoin:miter;stroke-opacity:1"
         id="path4980" />
    </g>

    <g
       transform="matrix(1.708094,-1.040389,1.040389,1.708094,-38.93784,69.65485)"
       id="g3718">
      <path
         d="M 67.27785,53.541611 L 66.240979,53.44881 L 66.197974,53.929311 C 66.188106,54.039546 66.205197,54.122454 66.249247,54.178036 C 66.293295,54.233615 66.386543,54.276277 66.528991,54.306022 L 66.522549,54.378 L 65.629634,54.298083 L 65.636076,54.226106 C 65.738646,54.233977 65.815056,54.227416 65.865306,54.206423 C 65.915553,54.185426 65.954676,54.153631 65.982674,54.111037 C 66.01067,54.06844 66.028616,54.003047 66.03651,53.91486 L 66.079515,53.434359 L 65.250796,53.360187 C 65.117215,53.348231 65.028272,53.348768 64.983965,53.361798 C 64.950382,53.371864 64.920061,53.396604 64.893003,53.436016 C 64.85677,53.490293 64.835868,53.548557 64.830296,53.610809 L 64.821765,53.706131 L 64.749787,53.699689 L 64.851119,52.567496 L 64.923097,52.573938 L 64.91474,52.667315 C 64.90499,52.776254 64.929683,52.858209 64.98882,52.913179 C 65.027535,52.948019 65.126004,52.972519 65.284226,52.98668 L 66.988351,53.139201 C 67.12193,53.151156 67.210873,53.150619 67.255182,53.137591 C 67.288763,53.127523 67.319026,53.103432 67.345971,53.065318 C 67.382085,53.012337 67.402987,52.954072 67.408677,52.890525 L 67.417035,52.797148 L 67.489013,52.80359 L 67.313335,54.766447 L 66.731357,54.739852 L 66.737451,54.671765 C 66.863673,54.64907 66.957643,54.617935 67.019361,54.57836 C 67.081076,54.53878 67.127834,54.487405 67.159636,54.424235 C 67.191433,54.361061 67.213485,54.26074 67.225791,54.12327 L 67.27785,53.541611 z M 66.444806,58.081493 C 66.317442,58.400776 66.085842,58.629065 65.750005,58.766361 C 65.414166,58.903652 65.064836,58.899934 64.702012,58.755207 C 64.328304,58.606133 64.065127,58.364471 63.912481,58.030222 C 63.759835,57.695969 63.750329,57.361339 63.883962,57.026334 C 64.019044,56.687697 64.252872,56.451185 64.585449,56.316796 C 64.918025,56.182407 65.2754,56.191437 65.657575,56.343886 C 66.048214,56.499711 66.313827,56.759867 66.454414,57.124355 C 66.576333,57.440741 66.57313,57.759787 66.444806,58.081493 L 66.444806,58.081493 z M 66.326124,57.994199 C 66.413925,57.774083 66.402725,57.564945 66.292523,57.366783 C 66.155434,57.120043 65.890965,56.918521 65.499116,56.762214 C 65.097591,56.602045 64.754333,56.564652 64.469343,56.650034 C 64.252278,56.716248 64.100568,56.857598 64.014212,57.074084 C 63.922068,57.305081 63.936066,57.531807 64.056205,57.754263 C 64.176345,57.976715 64.430525,58.165372 64.818747,58.320236 C 65.239622,58.488119 65.586511,58.530466 65.859415,58.447275 C 66.076961,58.379847 66.23253,58.228822 66.326124,57.994199 L 66.326124,57.994199 z M 61.152045,61.361179 L 61.600474,60.814549 L 63.12642,60.906818 C 63.166524,60.853823 63.199789,60.81122 63.226217,60.779008 C 63.236952,60.765919 63.248765,60.752032 63.261657,60.737346 C 63.274547,60.722658 63.288103,60.707673 63.302323,60.692394 L 62.707372,60.204324 C 62.578517,60.098616 62.486924,60.047056 62.432593,60.049643 C 62.356917,60.051559 62.287698,60.090772 62.224934,60.167281 L 62.15928,60.247312 L 62.103409,60.201478 L 62.823125,59.324152 L 62.878996,59.369986 L 62.81582,59.446998 C 62.744798,59.533572 62.722196,59.618607 62.748014,59.702101 C 62.761879,59.748842 62.827199,59.820111 62.943975,59.915909 L 64.266759,61.001058 C 64.395613,61.106764 64.487206,61.158324 64.541538,61.15574 C 64.618038,61.152814 64.688084,61.112595 64.751675,61.035082 L 64.814851,60.95807 L 64.870723,61.003904 L 64.258777,61.749858 C 64.080395,61.967299 63.933026,62.114607 63.816668,62.191781 C 63.700308,62.268949 63.570073,62.308632 63.425961,62.31083 C 63.281849,62.313022 63.150902,62.265808 63.03312,62.169188 C 62.907284,62.065955 62.831712,61.93533 62.806403,61.777311 C 62.781093,61.619286 62.819921,61.438513 62.922885,61.234991 L 61.988633,61.175922 C 61.774458,61.1619 61.616731,61.171452 61.515453,61.204579 C 61.414178,61.237701 61.311665,61.305179 61.207916,61.407013 L 61.152045,61.361179 z M 63.397455,60.770435 C 63.381764,60.789561 63.367886,60.805965 63.355821,60.819647 C 63.343755,60.833326 63.334007,60.844696 63.326575,60.853758 C 63.166362,61.049053 63.087864,61.230966 63.091081,61.399496 C 63.094297,61.568023 63.16134,61.705967 63.292209,61.813328 C 63.420058,61.918206 63.556825,61.963458 63.702511,61.949084 C 63.848196,61.934703 63.975131,61.861577 64.083316,61.729704 C 64.131214,61.671314 64.186478,61.584444 64.24911,61.469093 L 63.397455,60.770435 z M 55.266507,67.299267 L 54.992294,66.506631 L 55.058504,66.489621 C 55.177184,66.674228 55.302612,66.804001 55.434789,66.87894 C 55.625294,66.987286 55.840353,67.010681 56.079967,66.949126 C 56.4066,66.865209 56.621834,66.672117 56.725668,66.369849 C 56.812125,66.11506 56.816636,65.836962 56.739202,65.535554 C 56.676348,65.290893 56.571709,65.079823 56.425285,64.902342 C 56.278862,64.72486 56.116968,64.608825 55.939603,64.554236 C 55.762239,64.499647 55.592845,64.493088 55.431419,64.534559 C 55.336835,64.558858 55.248481,64.594328 55.166356,64.64097 C 55.084235,64.68761 55.008181,64.744791 54.938193,64.812513 L 55.1287,65.554058 C 55.161749,65.682691 55.193149,65.764361 55.222901,65.799066 C 55.252656,65.833768 55.290699,65.856259 55.33703,65.86654 C 55.383364,65.876817 55.458236,65.868673 55.561648,65.842108 L 55.580115,65.913992 L 54.586975,66.169136 L 54.568507,66.097251 L 54.6158,66.085102 C 54.71417,66.059828 54.773217,66.009705 54.79294,65.934733 C 54.806177,65.881589 54.795137,65.786287 54.75982,65.648825 L 54.558134,64.863772 C 54.683079,64.748322 54.811476,64.654167 54.943324,64.581308 C 55.075177,64.508448 55.22749,64.449824 55.400263,64.405438 C 55.895888,64.278109 56.313158,64.340299 56.652074,64.59201 C 56.906262,64.780792 57.073369,65.030933 57.153395,65.342433 C 57.211389,65.568174 57.212725,65.79839 57.157403,66.03308 C 57.091946,66.312045 56.963986,66.546574 56.773524,66.736665 C 56.613804,66.894656 56.405939,67.006537 56.149928,67.072311 C 56.056606,67.096283 55.969851,67.110505 55.889664,67.114976 C 55.809478,67.119441 55.692751,67.113803 55.53948,67.098063 C 55.462055,67.08972 55.41136,67.088627 55.387397,67.094786 C 55.363438,67.100939 55.345779,67.117239 55.334422,67.143686 C 55.323068,67.170126 55.323761,67.215993 55.336499,67.281286 L 55.266507,67.299267 z M 51.272243,65.646167 L 52.295575,65.711106 L 52.501372,65.305356 C 52.55207,65.205501 52.579026,65.130234 52.582241,65.079555 C 52.584798,65.039271 52.567878,65.002645 52.531481,64.969675 C 52.495085,64.936704 52.413502,64.911631 52.28673,64.894453 L 52.291307,64.822332 L 53.123617,64.87515 L 53.11904,64.94727 C 53.007349,64.959753 52.93427,64.980557 52.899804,65.009683 C 52.829573,65.067852 52.748113,65.189891 52.655423,65.3758 L 51.587611,67.49211 L 51.519389,67.487781 L 50.738891,65.230695 C 50.676038,65.049267 50.616068,64.930321 50.55898,64.873859 C 50.501897,64.817396 50.419633,64.782493 50.312186,64.769151 L 50.316763,64.697031 L 51.359587,64.763207 L 51.35501,64.835327 C 51.249425,64.833846 51.177166,64.846874 51.138233,64.874412 C 51.099303,64.901949 51.078477,64.937159 51.075754,64.980042 C 51.072127,65.037218 51.092386,65.12918 51.136528,65.255929 L 51.272243,65.646167 z M 51.317667,65.793871 L 51.6982,66.890484 L 52.225997,65.851512 L 51.317667,65.793871 z M 46.879748,64.321549 L 46.824319,64.285928 L 47.290832,63.694069 L 49.20859,64.420642 L 49.182987,64.48822 L 49.089839,64.452929 C 48.985123,64.413256 48.897323,64.418979 48.826437,64.470097 C 48.786105,64.499373 48.739182,64.584633 48.685669,64.725878 L 48.080192,66.32401 C 48.021606,66.478646 48.001978,66.581905 48.021308,66.633788 C 48.048499,66.705353 48.108972,66.758897 48.202728,66.79442 L 48.295876,66.829711 L 48.270273,66.897289 L 47.148841,66.472417 L 47.174444,66.404839 C 47.305488,66.455877 47.402336,66.478645 47.464989,66.473144 C 47.527645,66.467639 47.576094,66.449096 47.610336,66.417516 C 47.644582,66.385931 47.689614,66.296473 47.745431,66.149142 L 48.334994,64.593019 C 48.373284,64.491956 48.389838,64.418861 48.384656,64.373734 C 48.379733,64.342628 48.364357,64.31522 48.338529,64.291511 C 48.312702,64.267802 48.220034,64.225731 48.060524,64.165299 L 47.879707,64.096793 C 47.689759,64.024828 47.551125,63.988317 47.463802,63.987259 C 47.376484,63.986202 47.287672,64.009294 47.197366,64.056536 C 47.107065,64.103779 47.001192,64.192117 46.879748,64.321549 L 46.879748,64.321549 z M 43.835205,62.306182 L 43.791803,62.25661 L 44.403921,61.817016 L 46.045614,63.04606 L 46.002305,63.10391 L 45.922566,63.044214 C 45.832924,62.977104 45.74697,62.958299 45.664704,62.987797 C 45.617844,63.004765 45.549154,63.073705 45.458634,63.194617 L 44.43443,64.562694 C 44.335328,64.69507 44.287884,64.788861 44.292096,64.844068 C 44.298414,64.920362 44.341703,64.988554 44.421962,65.048642 L 44.501701,65.108339 L 44.458392,65.166189 L 43.498392,64.447491 L 43.541702,64.389641 C 43.653497,64.474959 43.740258,64.523647 43.801985,64.535704 C 43.863716,64.547758 43.915405,64.543351 43.957051,64.522483 C 43.998702,64.501613 44.066737,64.428116 44.161157,64.301994 L 45.158438,62.969877 C 45.223208,62.883363 45.259349,62.817707 45.266861,62.772908 C 45.270741,62.741655 45.263553,62.711062 45.245297,62.68113 C 45.227043,62.651198 45.149642,62.58512 45.013094,62.482894 L 44.858305,62.367013 C 44.695701,62.24528 44.57259,62.171819 44.488973,62.14663 C 44.405359,62.121443 44.313626,62.119049 44.213772,62.139447 C 44.113921,62.159847 43.987733,62.215426 43.835205,62.306182 L 43.835205,62.306182 z M 41.618168,59.97592 L 42.223584,60.803505 L 42.667016,60.70175 C 42.776176,60.676747 42.851249,60.649254 42.892233,60.619271 C 42.924812,60.595439 42.942109,60.558989 42.944126,60.509921 C 42.946143,60.460853 42.91316,60.382134 42.845175,60.273764 L 42.9035,60.231097 L 43.395905,60.904199 L 43.33758,60.946866 C 43.25647,60.869072 43.193695,60.826263 43.149253,60.818441 C 43.059603,60.801747 42.913704,60.817328 42.711556,60.865183 L 40.402283,61.400206 L 40.361922,61.345034 L 41.595748,59.300215 C 41.694852,59.13576 41.747809,59.013531 41.754621,58.933527 C 41.761435,58.853526 41.735565,58.767991 41.677009,58.67692 L 41.735334,58.634252 L 42.352282,59.4776 L 42.293957,59.520268 C 42.227483,59.438222 42.171205,59.391063 42.125123,59.378793 C 42.079043,59.366526 42.038663,59.373077 42.003982,59.398445 C 41.957744,59.432273 41.900082,59.506721 41.830996,59.62179 L 41.618168,59.97592 z M 41.533807,60.105393 L 40.935196,61.099894 L 42.071186,60.839973 L 41.533807,60.105393 z M 38.739497,58.558769 L 38.517098,57.875293 L 39.904941,55.720993 L 38.452554,56.193592 C 38.297784,56.243956 38.206846,56.292716 38.179741,56.339874 C 38.142648,56.402609 38.140215,56.483504 38.172444,56.582557 L 38.200848,56.669849 L 38.132129,56.69221 L 37.846878,55.815577 L 37.915597,55.793216 L 37.944605,55.882365 C 37.979258,55.988851 38.036027,56.053904 38.114914,56.077527 C 38.163402,56.091875 38.258221,56.076084 38.399371,56.030152 L 40.522234,55.339384 L 40.543991,55.406246 L 39.056134,57.726594 L 40.606957,57.221965 C 40.76173,57.171603 40.852869,57.123462 40.880374,57.07754 C 40.917068,57.013568 40.919501,56.932674 40.887671,56.834857 L 40.858663,56.745708 L 40.927382,56.723347 L 41.212633,57.59998 L 41.143914,57.622341 L 41.11551,57.535049 C 41.080458,57.427327 41.023487,57.361654 40.944597,57.33803 C 40.896112,57.323683 40.801293,57.339475 40.66014,57.385405 L 38.908731,57.955304 C 38.84707,58.056156 38.808763,58.129896 38.793809,58.176525 C 38.778859,58.223153 38.771506,58.286821 38.771749,58.367529 C 38.772292,58.407062 38.784448,58.463355 38.808216,58.536408 L 38.739497,58.558769 z M 37.528083,51.662795 L 38.148598,51.623073 L 38.149844,51.697281 C 38.040727,51.713441 37.962941,51.734281 37.916486,51.759802 C 37.841656,51.801431 37.786902,51.856069 37.752223,51.923716 C 37.717549,51.991367 37.701129,52.079872 37.702964,52.189229 L 37.709228,52.562224 L 39.73238,52.528246 C 39.895118,52.525515 39.996371,52.506234 40.036139,52.470403 C 40.089988,52.420014 40.116049,52.343394 40.114321,52.240542 L 40.11278,52.148758 L 40.185035,52.147545 L 40.203894,53.270433 L 40.131638,53.271647 L 40.130064,53.17791 C 40.128184,53.065948 40.093,52.9871 40.024514,52.941368 C 39.982373,52.913427 39.887094,52.900702 39.738677,52.903193 L 37.715525,52.937171 L 37.720871,53.255485 C 37.72295,53.379166 37.733539,53.466891 37.752638,53.518661 C 37.778513,53.585945 37.827006,53.643081 37.898115,53.69007 C 37.969229,53.73706 38.064748,53.764106 38.184674,53.771207 L 38.18592,53.845416 L 37.564389,53.824599 L 37.528083,51.662795 z M 41.008187,47.874457 L 40.818691,48.555622 L 39.385441,49.087429 C 39.370153,49.152105 39.356925,49.204513 39.345757,49.244654 C 39.341221,49.260963 39.336022,49.278438 39.330159,49.297079 C 39.324298,49.315723 39.317948,49.334905 39.311109,49.354626 L 40.052486,49.560872 C 40.213055,49.605542 40.317669,49.615724 40.366329,49.591417 C 40.434785,49.559104 40.482275,49.495278 40.508798,49.399939 L 40.536541,49.300211 L 40.606163,49.319579 L 40.302028,50.412829 L 40.232406,50.393461 L 40.259103,50.297495 C 40.289115,50.189613 40.275453,50.102694 40.218116,50.036736 C 40.186557,49.999575 40.09802,49.960753 39.952504,49.920271 L 38.304162,49.461713 C 38.143595,49.417045 38.038981,49.406863 37.990319,49.431168 C 37.921516,49.464738 37.873677,49.529818 37.846803,49.626409 L 37.820107,49.722374 L 37.750485,49.703006 L 38.009078,48.773461 C 38.08446,48.502503 38.159792,48.308229 38.235075,48.190639 C 38.310363,48.073054 38.413482,47.984158 38.544432,47.923951 C 38.675387,47.863749 38.814248,47.854063 38.961017,47.894891 C 39.117824,47.938515 39.23971,48.027498 39.326676,48.161839 C 39.413644,48.296185 39.451125,48.477242 39.439117,48.705011 L 40.317658,48.381773 C 40.519255,48.308112 40.659692,48.235679 40.738967,48.164475 C 40.818242,48.093276 40.884774,47.990147 40.938565,47.855089 L 41.008187,47.874457 z M 39.192563,49.321647 C 39.199195,49.297814 39.205267,49.277203 39.210779,49.259814 C 39.216293,49.242427 39.22062,49.228089 39.223759,49.216797 C 39.291462,48.973436 39.289814,48.775317 39.218814,48.622438 C 39.147816,48.469563 39.030777,48.370441 38.867698,48.325071 C 38.708385,48.280753 38.564992,48.294585 38.437518,48.366568 C 38.310047,48.438554 38.223453,48.556713 38.177735,48.721043 C 38.157496,48.793803 38.142019,48.895592 38.131302,49.026411 L 39.192563,49.321647 z M 40.23473,43.925079 L 40.740897,43.152257 L 40.80135,43.191852 L 40.773527,43.234332 C 40.754979,43.262657 40.740395,43.312252 40.729777,43.38312 C 40.71916,43.453994 40.722645,43.527097 40.740232,43.60243 C 40.75782,43.677769 40.79804,43.782715 40.860892,43.917268 L 41.352408,45.002656 L 41.907925,45.366496 C 42.04408,45.455674 42.139029,45.496071 42.192772,45.487686 C 42.26563,45.47626 42.331309,45.425886 42.389809,45.336566 L 42.436895,45.264676 L 42.497348,45.30427 L 41.880959,46.245382 L 41.820506,46.205787 L 41.871872,46.127361 C 41.933225,46.033687 41.948422,45.948694 41.917465,45.872382 C 41.898304,45.825591 41.826636,45.76153 41.702462,45.6802 L 41.177989,45.336692 L 39.851864,45.336665 C 39.695856,45.337216 39.595853,45.341371 39.551854,45.349132 C 39.50786,45.356895 39.440404,45.388594 39.349485,45.444227 C 39.324327,45.45888 39.298191,45.486901 39.27108,45.528291 L 39.210626,45.488696 L 39.831295,44.54105 L 39.891749,44.580644 L 39.859645,44.62966 C 39.826116,44.680857 39.807243,44.735815 39.803025,44.794533 C 39.79881,44.853256 39.820666,44.898311 39.868591,44.929699 C 39.907805,44.955384 40.000366,44.968534 40.146272,44.969148 L 41.163118,44.974404 L 40.764811,44.092484 C 40.705227,43.960071 40.650382,43.877455 40.600276,43.844635 C 40.569777,43.824662 40.537374,43.814724 40.503065,43.81482 C 40.468758,43.814922 40.435165,43.825218 40.402287,43.845707 C 40.36941,43.866202 40.333709,43.905858 40.295184,43.964674 L 40.23473,43.925079 z "
         transform="matrix(-0.97506,-0.221943,0.221943,-0.97506,91.71835,115.4418)"
         style="font-size:4px;font-family:Times New Roman"
         id="text1930" />
    </g>
  </g>
</svg>

