<?xml version="1.0" encoding="UTF-8" standalone="no"?>
<svg
   xmlns:dc="http://purl.org/dc/elements/1.1/"
   xmlns:cc="http://creativecommons.org/ns#"
   xmlns:rdf="http://www.w3.org/1999/02/22-rdf-syntax-ns#"
   xmlns:svg="http://www.w3.org/2000/svg"
   xmlns="http://www.w3.org/2000/svg"
   xmlns:sodipodi="http://sodipodi.sourceforge.net/DTD/sodipodi-0.dtd"
   xmlns:inkscape="http://www.inkscape.org/namespaces/inkscape"
   width="600"
   height="400"
   id="svg2"
   sodipodi:version="0.32"
   inkscape:version="0.46"
   sodipodi:docname="mazovia.svg"
   inkscape:output_extension="org.inkscape.output.svg.inkscape"
   version="1.0">
  <metadata
     id="metadata5593">
    <rdf:RDF>
      <cc:Work
         rdf:about="">
        <dc:format>image/svg+xml</dc:format>
        <dc:type
           rdf:resource="http://purl.org/dc/dcmitype/StillImage" />
      </cc:Work>
    </rdf:RDF>
  </metadata>
  <defs
     id="defs5591">
    <inkscape:perspective
       sodipodi:type="inkscape:persp3d"
       inkscape:vp_x="0 : 201 : 1"
       inkscape:vp_y="0 : 1000 : 0"
       inkscape:vp_z="540 : 201 : 1"
       inkscape:persp3d-origin="270 : 134 : 1"
       id="perspective5595" />
    <inkscape:perspective
       id="perspective19305"
       inkscape:persp3d-origin="270 : 134 : 1"
       inkscape:vp_z="540 : 201 : 1"
       inkscape:vp_y="0 : 1000 : 0"
       inkscape:vp_x="0 : 201 : 1"
       sodipodi:type="inkscape:persp3d" />
    <inkscape:perspective
       id="perspective37421"
       inkscape:persp3d-origin="270 : 134 : 1"
       inkscape:vp_z="540 : 201 : 1"
       inkscape:vp_y="0 : 1000 : 0"
       inkscape:vp_x="0 : 201 : 1"
       sodipodi:type="inkscape:persp3d" />
    <inkscape:perspective
       id="perspective54220"
       inkscape:persp3d-origin="270 : 134 : 1"
       inkscape:vp_z="540 : 201 : 1"
       inkscape:vp_y="0 : 1000 : 0"
       inkscape:vp_x="0 : 201 : 1"
       sodipodi:type="inkscape:persp3d" />
  </defs>
  <sodipodi:namedview
     inkscape:window-height="729"
     inkscape:window-width="1280"
     inkscape:pageshadow="2"
     inkscape:pageopacity="0.0"
     guidetolerance="10.0"
     gridtolerance="10.0"
     objecttolerance="10.0"
     borderopacity="1.0"
     bordercolor="#666666"
     pagecolor="#ffffff"
     id="base"
     showgrid="false"
     inkscape:zoom="0.120128"
     inkscape:cx="303.33692"
     inkscape:cy="250.63669"
     inkscape:window-x="0"
     inkscape:window-y="0"
     inkscape:current-layer="svg2" />
  <rect
     style="fill:#ffffff;fill-opacity:1;fill-rule:evenodd;stroke:none;stroke-width:1px;stroke-linecap:butt;stroke-linejoin:miter;stroke-opacity:1"
     id="rect59821"
     width="300"
     height="400"
     x="300"
     y="0" />
  <rect
     style="fill:#d40000;fill-opacity:1;fill-rule:evenodd;stroke:none;stroke-width:1px;stroke-linecap:butt;stroke-linejoin:miter;stroke-opacity:1"
     id="rect26203"
     width="300"
     height="400"
     x="0"
     y="0" />
  <g
     id="g2459"
     transform="matrix(1.0801394,0,0,1.0571429,-24.041816,-11.428588)">
    <path
       sodipodi:nodetypes="cssssc"
       id="path59819"
       d="M 297.26529,36.336067 C 278.92497,23.967174 270.95468,28.757183 266.46146,33.140441 C 257.99511,41.399613 283.41844,83.436389 282.38827,90.273708 C 281.9426,93.231608 268.86626,122.99172 270.51097,126.00488 C 274.86987,133.99053 295.93017,130.59243 298.3504,130.6605 C 304.87741,130.84408 304.05329,36.076067 297.26529,36.336067 z"
       style="fill:#ffffff;stroke:none" />
    <path
       id="path15008"
       d="M 242.47072,128.26735 L 242.47072,194.43119 C 242.47072,211.1576 241.78972,227.78177 250.93872,242.55034 C 272.48372,277.33146 335.23272,274.81924 352.97872,237.53792 C 359.46472,223.91018 358.47072,209.10352 358.47072,194.43119 L 358.47072,128.26735 L 242.47072,128.26735 z"
       style="fill:#ffffff;stroke:none" />
    <path
       id="path8"
       d="M 247.5,47.18829 C 255.816,45.76306 260.707,53.680365 265.669,59.218077 C 273.305,67.739477 282.302,81.236699 280.032,93.302475 C 278.04,103.8947 270.712,112.66141 268.5,123.37694 C 252.307,119.66575 233.769,123.7218 225.5,106.33475 C 248.806,100.785 254.587,72.345884 238.174,55.509795 C 224.606,41.591531 200.006,45.545121 186.5,57.398772 C 180.816,62.387625 175.764,68.143378 172.965,75.257794 C 168.482,86.6488 167.127,101.24314 165.5,113.35212 L 169.5,113.35212 C 166.03,140.87527 164.031,168.70017 156.5,195.55567 C 185.061,191.26404 185.886,155.15463 191.5,133.40177 L 192.5,133.40177 C 187.573,172.48454 179.08,208.40248 166.5,245.67978 C 209.548,233.43346 209.384,190.2375 216.5,153.45141 L 217.5,153.45141 C 217.5,187.42754 209.981,218.33909 205.5,251.69468 C 226.25,242.71745 238.755,220.54054 240.5,198.56312 L 241.5,198.56312 L 238.5,225.63014 L 243.5,225.63014 L 242.5,193.55071 L 242.5,128.38936 L 285.5,128.38936 C 290.404,128.38936 297.541,129.95724 300.5,125.38191 L 301.5,127.38687 L 302.5,127.38687 C 298.895,107.92268 301.5,86.017035 301.5,66.235453 C 301.5,59.084546 299.396,47.942758 302.103,41.277854 C 304.991,34.168751 317.569,29.878428 324.5,30.14609 L 324.5,36.160984 L 325.5,36.160984 C 325.005,21.001848 307.976,34.178375 301.5,38.165949 L 302.5,35.158502 L 301.5,35.158502 C 299.219,42.894558 300.5,52.183057 300.5,60.220559 L 300.5,107.33723 C 300.5,112.15415 301.647,118.7946 299.758,123.3178 C 297.061,129.77679 291.233,126.2681 289.556,121.36897 C 288.765,119.06026 288.287,116.66533 287.5,114.3546 C 283.118,119.91838 278.971,126.23602 271.5,127.38687 L 283.409,89.292546 L 274.5,62.225524 C 286.319,59.696462 276.416,43.77183 275.806,36.161786 C 275.104,27.427258 283.314,29.117343 288.5,32.216818 C 292.144,34.394711 295.501,36.698415 299.5,38.165949 C 296.11,28.143131 282.151,27.482294 273.5,27.099146 C 263.808,26.669883 242.571,21.522437 245.008,39.168431 C 245.391,41.941899 246.532,44.584442 247.5,47.18829 z"
       style="fill:#333333;stroke:none" />
    <path
       id="path14"
       d="M 301.5,38.165949 C 308.178,35.277497 324.38,21.40264 325.5,36.160984 L 324.5,36.160984 L 324.5,30.14609 C 317.76,29.201251 305.056,33.508115 302.103,40.381334 C 299.324,46.851355 301.5,58.234241 301.5,65.232971 C 301.5,84.808944 297.976,108.3367 302.5,127.38687 L 301.5,127.38687 L 300.5,125.38191 L 299.5,128.38936 L 359.5,128.38936 C 359.5,132.59878 357.549,144.35689 361.5,146.43404 L 361.5,147.43652 C 357.178,151.2229 359.502,169.4791 359.5,175.50602 C 359.488,205.80004 365.013,237.23588 395.5,251.69468 C 386.561,219.81775 382.5,185.45566 382.5,152.44893 C 388.57,159.43824 387.551,173.65243 388.924,182.5234 C 392.909,208.26815 403.853,240.28844 433.5,244.6773 C 423.451,207.77192 408.607,171.45399 408.5,132.39929 L 409.5,132.39929 C 414.518,156.78567 416.17,186.22657 443.5,195.55567 L 431.5,112.34964 L 434.5,112.34964 C 433.56,100.50732 431.732,86.359383 427.431,75.257794 C 424.664,68.112301 419.553,61.729396 413.499,57.112564 C 401.334,47.834189 382.439,42.461485 368.5,51.33205 C 345.045,66.259112 350.867,97.925924 375.5,106.33475 C 367.424,126.228 347.914,116.62422 332.5,124.37943 C 329.167,112.60527 319.985,100.60857 319.764,88.290064 C 319.573,77.670167 329.509,64.224173 336.5,57.213113 C 341.436,52.262253 345.923,45.62151 353.5,46.185807 C 364.102,17.022996 310.546,21.591909 301.5,38.165949 z"
       style="fill:#1a1a1a;stroke:none" />
    <path
       sodipodi:nodetypes="ccccsscc"
       id="path46"
       d="M 247.5,41.173396 L 248.5,41.173396 C 254.775,33.64716 274.411,43.920899 272.5,53.203183 L 257.5,45.183325 C 258.98655,48.378627 268.20766,60.386773 273.65944,60.331465 C 275.16104,60.316231 276.37676,59.385853 277.066,57.104042 C 279.32908,49.611815 273.5,37.473534 273.5,29.143608 C 261.175,28.168494 247.513,24.745317 247.5,41.173396 z"
       style="fill:#cc9933;stroke:none" />
    <path
       id="path62"
       d="M 327.5,29.143608 C 327.499,37.615887 321.921,48.380742 323.397,56.166521 C 325.76,68.620459 341.484,49.516655 343.5,45.183325 L 328.5,53.203183 C 326.571,43.831177 345.958,33.767959 352.5,41.173396 C 359.205,25.118541 335.901,28.478962 327.5,29.143608 z"
       style="fill:#cc9933;stroke:none" />
    <path
       id="path140"
       d="M 275.5,36.160984 L 275.5,38.165949 L 279.5,38.165949 C 279.822,51.51761 288.458,47.609232 297.5,46.185807 C 293.109,38.017782 284.023,36.337421 275.5,36.160984 z"
       style="fill:#333300;stroke:none" />
    <path
       id="path184"
       d="M 323.5,38.165949 C 323.08,46.365252 314.171,59.143392 325.5,63.228006 L 316.59,90.295028 L 328.5,127.38687 L 329.5,127.38687 L 317.594,89.292546 L 326.5,62.225524 C 314.301,57.827233 326.809,46.318235 323.5,38.165949 z"
       style="fill:#333333;stroke:none" />
    <path
       id="path204"
       d="M 276.5,39.168431 L 277.5,45.183325 L 278.5,45.183325 L 276.5,39.168431 M 281.5,39.168431 C 282.171,45.064831 288.605,49.201073 292.5,43.17836 C 287.703,44.623138 284.12,45.064932 283.5,39.168431 L 281.5,39.168431 z"
       style="fill:#ffffff;stroke:none" />
    <path
       id="path212"
       d="M 317.5,39.168431 C 315.814,44.974508 312.504,43.668574 307.5,44.180843 C 312.972,47.927319 318.214,45.480461 319.5,39.168431 L 317.5,39.168431 z"
       style="fill:#ffffff;stroke:none" />
    <path
       id="path502"
       d="M 381.5,102.32482 C 377.496,119.21564 364.503,121.76997 349.5,123.20652 C 343.556,123.77593 336.963,122.80052 332.5,127.38687 C 350.421,119.7249 380.023,129.58732 382.5,101.32233 C 360.441,101.32033 348.765,77.121809 364.029,59.392108 C 370.526,51.845923 381.912,49.111652 391.5,50.496581 C 397.874,51.417361 403.419,54.240853 408.499,58.115046 C 414.416,62.627018 419.238,68.689129 422.718,75.257794 C 428.391,85.963603 428.283,97.869785 431.5,109.34219 L 418.5,96.309922 L 419.5,118.36453 C 413.748,115.59568 411.789,112.08799 409.5,106.33475 L 408.5,106.33475 C 408.5,113.01529 409.067,133.41881 399.499,119.40812 C 398.631,118.13597 398.114,116.75655 397.5,115.35709 L 396.5,115.35709 L 393.5,136.40921 C 388.095,133.53109 385.882,129.20939 384.5,123.37694 L 383.5,123.37694 L 381.5,142.42411 C 374.962,139.4718 372.818,134.34911 372.5,127.38687 L 370.5,127.38687 L 365.5,145.43155 L 360.5,144.42907 L 360.5,145.43155 C 367.936,146.65559 369.95,139.67831 370.5,133.40177 L 372.5,133.40177 C 373.181,139.5139 376.584,142.35193 382.5,143.42659 L 383.5,126.38439 L 384.5,126.38439 C 387.551,143.2702 398.397,133.66642 398.5,121.37198 L 407.5,127.38687 L 409.5,111.34716 L 410.5,111.34716 C 412.231,116.3315 415.401,118.44072 420.5,119.36702 L 420.5,100.31985 L 421.5,100.31985 L 426.5,108.33971 L 422.5,107.33723 L 424.5,152.44893 L 423.5,152.44893 C 423.216,138.64776 424.364,123.50927 410.5,117.36205 C 415.113,142.2577 412.806,179.56407 440.5,191.54574 C 438.244,173.73965 433.237,156.32754 431.575,138.41418 C 430.754,129.56527 432.745,116.65129 427.5,109.34219 L 433.5,111.34716 C 430.872,99.958958 429.963,86.730302 424.741,76.260276 C 421.257,69.275381 416.658,62.612081 410.499,57.732198 C 397.568,47.485425 373.464,44.307757 362.289,59.258277 C 348.423,77.809613 358.604,102.32181 381.5,102.32482 z"
       style="fill:#333333;stroke:none" />
    <path
       id="path510"
       d="M 168.5,110.34467 C 174.601,107.64699 177.893,103.3674 180.5,97.312404 L 181.5,97.312404 L 180.5,118.36453 C 186.089,117.23273 189.372,113.94258 190.5,108.33971 L 191.5,108.33971 L 193.5,126.38439 C 198.219,124.7714 200.891,122.09276 202.5,117.36205 L 203.5,117.36205 C 203.5,122.37847 202.585,128.87155 205.59,133.24839 C 210.756,140.77603 215.538,128.43647 216.5,124.37943 L 217.5,124.37943 L 219.5,142.42411 C 226.388,140.74295 228.2,134.94459 228.5,128.38936 L 229.5,128.38936 C 230.26,131.48101 232.707,148.437 238.911,144.19048 C 242.336,141.84668 240.5,131.08804 240.5,127.38687 L 267.5,127.38687 L 267.5,126.38439 C 248.907,120.07477 222.557,128.45351 218.5,101.32233 C 224.382,101.32233 230.318,101.69927 235.407,98.181557 C 245.884,90.935815 245.601,70.86221 238.851,61.223844 C 228.022,45.760153 203.744,47.543569 190.501,58.545111 C 184.774,63.30219 180.087,69.609708 176.77,76.260276 C 171.704,86.419532 171.023,99.313359 168.5,110.34467 z"
       style="fill:#ffffff;stroke:none" />
    <path
       id="path996"
       d="M 176.5,108.33971 C 169.467,114.1501 170.942,125.80997 170.465,134.40425 C 169.43,153.02536 163.836,171.10613 161.5,189.54078 C 187.941,180.748 184.378,139.87279 189.5,118.36453 C 175.326,126.92673 180.165,144.8421 175.5,159.46631 L 174.5,159.46631 L 176.515,123.37694 L 176.5,108.33971 z"
       style="fill:#ffffff;stroke:none" />
    <path
       id="path1004"
       d="M 423.5,108.33971 L 424.5,156.45886 L 423.5,156.45886 C 422.424,142.90029 423.443,126.19091 411.5,118.36453 C 416.627,139.89384 412.991,180.72595 439.5,189.54078 C 434.825,170.51567 432.074,150.82691 429.785,131.3968 C 428.761,122.69826 432.186,113.54159 423.5,108.33971 M 426.5,108.33971 L 427.5,109.34219 L 426.5,108.33971 z"
       style="fill:#1a1a1a;stroke:none" />
    <path
       id="path1046"
       d="M 313.5,112.34964 L 308.5,127.38687 C 311.372,126.97586 312.994,127.55529 313.5,124.37943 L 311.5,126.38439 L 310.5,126.38439 L 312.5,115.35709 L 325.5,127.38687 L 313.5,112.34964 z"
       style="fill:#333333;stroke:none" />
    <path
       id="path1166"
       d="M 314.5,121.37198 L 314.5,127.38687 L 315.5,127.38687 L 315.5,123.37694 L 316.5,123.37694 L 318.5,127.38687 L 319.5,127.38687 L 314.5,121.37198 M 331.833,122.04064 L 332.167,122.70829 L 331.833,122.04064 z"
       style="fill:#333333;stroke:none" />
    <path
       id="path1202"
       d="M 271.5,123.37694 L 271.5,127.38687 L 272.5,127.38687 L 271.5,123.37694 M 278.5,123.37694 L 279.5,124.37943 L 278.5,123.37694 z"
       style="fill:#cccccc;stroke:none" />
    <path
       id="path1206"
       d="M 284.5,123.37694 L 282.5,127.38687 C 285.149,126.81746 285.855,125.79493 284.5,123.37694 z"
       style="fill:#ffffff;stroke:none" />
    <path
       id="path1208"
       d="M 285.5,123.37694 L 285.5,127.38687 L 286.5,127.38687 L 285.5,123.37694 M 299.5,123.37694 L 300.5,124.37943 L 299.5,123.37694 z"
       style="fill:#666666;stroke:none" />
    <path
       id="path1268"
       d="M 399.5,126.38439 L 407.5,199.5656 L 406.5,199.5656 L 396.5,137.4117 L 386.5,136.40921 C 386.785,170.91566 390.369,230.66661 430.5,241.66986 C 422.278,212.83546 412.957,186.51528 408.924,156.45886 C 407.6,146.59143 409.959,131.33264 399.5,126.38439 z"
       style="fill:#333333;stroke:none" />
    <path
       id="path1272"
       d="M 199.5,127.38687 C 191.036,136.93552 192.884,156.08794 191.218,168.48865 C 187.817,193.79331 179.594,216.68098 171.5,240.66737 C 210.616,225.43265 210.691,174.09453 213.5,138.41418 L 204.5,138.41418 C 204.5,164.17597 198.71,189.66508 189.5,213.60035 L 188.5,213.60035 C 194.845,193.7091 198.137,172.21989 199.59,151.44645 C 200.105,144.07018 202.437,134.40325 199.5,127.38687 z"
       style="fill:#ffffff;stroke:none" />
    <path
       id="path1278"
       d="M 400.5,127.38687 L 403.772,173.50106 L 407.5,202.57305 L 408.5,202.57305 L 408.5,200.56808 L 409.5,200.56808 L 408.5,205.58049 C 398.231,185.96492 398.207,160.89184 395.5,139.41666 L 387.5,138.41418 C 389.953,169.57534 389.756,230.35384 428.5,239.66489 C 421.314,213.32768 411.635,188.99643 408.55,161.47127 C 407.421,151.39833 409.113,133.96416 400.5,127.38687 z"
       style="fill:#1a1a1a;stroke:none" />
    <path
       id="path1288"
       d="M 358.5,128.38936 L 358.5,218.61276 L 359.5,218.61276 L 360.326,164.47872 L 361.5,147.43652 L 361.5,146.43404 L 358.5,128.38936 z"
       style="fill:#333333;stroke:none" />
    <path
       id="path1418"
       d="M 371.5,139.41666 L 371.5,174.50354 L 370.5,174.50354 L 369.5,144.42907 L 368.5,144.42907 L 367.5,148.439 L 361.5,147.43652 L 361.5,148.439 L 368.5,148.439 C 368.5,172.32415 370.116,200.07286 378.5,222.62269 L 379.5,222.62269 L 372.5,141.42163 C 382.396,150.66852 380.175,166.46764 380.515,179.51595 C 381.085,201.43523 386.1,223.30538 390.5,244.6773 C 365.367,228.87317 361.5,194.00884 361.5,166.48368 L 360.5,166.48368 C 360.5,194.69855 364.081,231.99189 391.5,246.68227 C 391.022,235.69406 387.374,224.47728 385.58,213.60035 C 383.056,198.29345 382.131,182.88329 380.67,167.48617 C 379.52,155.37417 383.005,147.05157 371.5,139.41666 M 408.833,140.08532 L 409.167,140.75297 L 408.833,140.08532 z"
       style="fill:#333333;stroke:none" />
    <path
       id="path1442"
       d="M 227.5,141.42163 C 218.776,149.31818 220.758,163.32586 220.485,174.50354 C 219.904,198.30347 212.413,221.19315 210.5,244.6773 C 241.659,229.8145 240.5,176.75411 240.5,147.43652 L 232.5,148.439 C 232.435,172.17478 229.731,198.94907 222.5,221.62021 L 221.5,221.62021 L 228.5,162.47375 L 227.5,141.42163 z"
       style="fill:#ffffff;stroke:none" />
    <path
       id="path3718"
       d="M 246.5,237.65993 L 242.5,243.67482 L 249.5,244.6773 L 246.5,237.65993 z"
       style="fill:#333333;stroke:none" />
    <path
       id="path3756"
       d="M 353.5,238.66241 L 350.5,244.6773 L 357.5,243.67482 L 353.5,238.66241 z"
       style="fill:#333300;stroke:none" />
    <path
       id="path3834"
       d="M 248.5,241.66986 L 249.5,242.67234 L 248.5,241.66986 z"
       style="fill:#333300;stroke:none" />
    <path
       id="path3846"
       d="M 350.5,241.66986 L 351.5,242.67234 L 350.5,241.66986 z"
       style="fill:#cccccc;stroke:none" />
    <path
       id="path3848"
       d="M 356.5,241.66986 L 357.5,242.67234 L 356.5,241.66986 z"
       style="fill:#333333;stroke:none" />
    <path
       id="path3850"
       d="M 380.5,241.66986 L 381.5,242.67234 L 380.5,241.66986 z"
       style="fill:#666666;stroke:none" />
    <path
       id="path3852"
       d="M 423.5,241.66986 L 424.5,242.67234 L 423.5,241.66986 z"
       style="fill:#333333;stroke:none" />
    <path
       id="path1394"
       d="M 315.5,171.49609 L 310.5,186.53333 L 291.5,185.53085 C 299.862,175.34863 308.737,173.46798 301.5,158.46382 L 307.5,151.44645 L 297.5,154.4539 L 304.5,147.43652 L 277.5,151.44645 C 279.486,157.60871 282.508,157.8072 288.5,157.46134 L 289.5,161.47127 L 276.5,162.47375 C 280.237,168.24705 290.745,163.2206 295.5,160.46879 C 295.054,174.25292 272.821,170.09362 275.5,185.53085 C 269.768,189.26008 274.749,196.19626 277.5,200.56808 C 267.604,203.81713 261.223,194.62336 264.5,185.53085 L 263.5,185.53085 L 262.5,188.53829 L 261.5,188.53829 L 261.5,183.52588 L 256.5,183.52588 L 256.5,184.52836 C 259.699,188.76084 258.645,194.64141 257.5,199.5656 L 258.5,199.5656 L 260.5,194.55319 L 262.5,194.55319 C 268.27,206.78147 273.041,204.85069 284.5,207.58546 C 281.125,216.01934 287.456,217.91504 288.835,225.20509 C 290.512,234.07204 279.155,236.32863 273.5,234.65248 L 273.5,235.65496 L 277.5,236.65744 L 277.5,237.65993 L 271.5,237.65993 L 271.5,238.66241 L 271.5,241.66986 L 285.5,239.66489 L 285.5,238.66241 C 284.229,234.22041 288.9,231.12374 291.181,227.6351 C 295.765,220.62575 291.839,215.05195 303.5,214.60283 C 297.612,220.22275 296.911,223.7976 296.5,231.64503 L 308.5,237.65993 L 309.5,237.65993 L 325.5,229.64007 L 327.5,222.62269 L 327.5,221.62021 L 324.5,209.59042 C 331.057,207.49223 335.626,203.12842 339.5,197.56063 L 341.5,201.57056 L 342.5,201.57056 L 342.5,189.54078 L 341.5,189.54078 L 334.5,197.56063 L 337.5,198.56312 C 334.298,201.60665 327.857,207.91026 322.799,206.191 C 320.375,205.36696 319.065,202.58708 316.5,201.57056 L 316.5,199.5656 L 327.5,201.57056 C 324.371,193.25598 331.223,186.12231 339.5,189.54078 C 334.893,182.41914 327.628,172.32114 341.5,169.49113 L 341.5,168.48865 C 328.875,162.44167 336.635,144.47218 346.5,139.41666 C 342.188,138.54951 338.736,143.03662 335.5,145.54383 C 328.974,150.59935 296.708,168.03051 315.5,171.49609 z"
       style="fill:#009933;stroke:none" />
    <path
       id="path1682"
       d="M 268.5,152.44893 L 268.5,153.45141 L 273.5,159.46631 L 264.5,157.46134 L 264.5,158.46382 L 274.5,160.46879 L 274.5,161.47127 L 267.5,162.47375 L 267.5,163.47624 L 288.5,161.47127 L 288.5,160.46879 L 268.5,152.44893 z"
       style="fill:#cc3333;stroke:none" />
    <path
       id="path3800"
       d="M 269.5,240.66737 L 268.5,243.67482 L 269.5,243.67482 L 269.5,240.66737 z"
       style="fill:#cc6666;stroke:none" />
    <path
       id="path3816"
       d="M 289.5,240.66737 L 288.5,241.66986 L 291.5,243.67482 L 289.5,240.66737 z"
       style="fill:#cc3333;stroke:none" />
    <path
       id="path3836"
       d="M 249.5,241.66986 L 250.5,242.67234 L 249.5,241.66986 z"
       style="fill:#cccccc;stroke:none" />
    <path
       id="path3838"
       d="M 269.5,241.66986 L 270.5,242.67234 L 269.5,241.66986 z"
       style="fill:#cc3333;stroke:none" />
    <path
       id="path3840"
       d="M 270.5,241.66986 L 271.5,242.67234 L 270.5,241.66986 z"
       style="fill:#996633;stroke:none" />
    <path
       id="path3842"
       d="M 271.5,241.66986 L 272.5,242.67234 L 271.5,241.66986 z"
       style="fill:#669999;stroke:none" />
    <path
       id="path3844"
       d="M 287.5,241.66986 L 288.5,242.67234 L 287.5,241.66986 z"
       style="fill:#669966;stroke:none" />
    <path
       id="path3858"
       d="M 249.5,242.67234 L 250.5,243.67482 L 249.5,242.67234 z"
       style="fill:#663333;stroke:none" />
    <path
       id="path3860"
       d="M 269.5,242.67234 L 270.5,243.67482 L 269.5,242.67234 z"
       style="fill:#cc9999;stroke:none" />
    <path
       id="path3862"
       d="M 288.5,242.67234 L 289.5,243.67482 L 288.5,242.67234 z"
       style="fill:#ffcccc;stroke:none" />
    <path
       id="path3864"
       d="M 350.5,242.67234 L 351.5,243.67482 L 350.5,242.67234 z"
       style="fill:#666633;stroke:none" />
    <path
       id="path3866"
       d="M 357.5,242.67234 L 356.5,244.6773 L 357.5,242.67234 z"
       style="fill:#333333;stroke:none" />
    <path
       id="path3868"
       d="M 425.5,242.67234 L 426.5,243.67482 L 425.5,242.67234 z"
       style="fill:#666666;stroke:none" />
    <path
       id="path3870"
       d="M 426.5,242.67234 L 427.5,243.67482 L 426.5,242.67234 z"
       style="fill:#333333;stroke:none" />
    <path
       id="path3924"
       d="M 387.5,246.68227 L 388.5,247.68475 L 387.5,246.68227 M 251.5,247.68475 C 250.004,254.01442 246.665,265.06779 239.496,267.02464 C 236.208,267.92186 233.099,265.554 230.5,263.89088 C 220.825,257.69754 200.22,256.49958 207.5,273.74929 L 209.5,273.74929 C 214.704,267.82462 222.027,273.63501 228.5,274.75177 L 228.5,275.75425 L 223.5,276.75674 L 223.5,277.75922 L 242.5,276.75674 L 220.5,288.78652 L 218.5,279.76418 L 221.5,278.7617 L 221.5,277.75922 C 214.843,279.14064 209.841,280.42883 208.5,287.78404 L 209.5,287.78404 C 217.352,277.10259 215.381,288.18704 214.5,293.79894 L 210.5,291.79397 L 210.5,292.79645 L 217.5,294.80142 L 216.5,291.79397 L 227.5,289.78901 C 222.409,298.12064 224.141,305.91694 234.5,306.83121 C 235.752,302.64283 245.427,285.55853 249.589,283.69492 C 254.427,281.52955 259.108,293.30471 259.5,296.80638 C 274.838,295.08913 268.935,274.37484 255.5,273.74929 C 256.108,261.99819 266.103,255.28357 251.5,247.68475 z"
       style="fill:#333333;stroke:none" />
    <path
       id="path3928"
       d="M 347.5,247.68475 C 346.304,256.52664 354.458,270.92129 364.5,269.52182 C 370.911,268.62861 375.828,263.41871 381.5,260.71702 L 384.5,268.73688 L 358.5,274.75177 L 358.5,275.75425 L 376.5,277.75922 L 376.5,276.75674 L 371.5,275.75425 C 376.981,273.18489 387.477,266.91837 391.5,273.74929 C 397.817,267.89179 393.61,259.92105 385.5,258.90553 C 378.898,258.07849 373.812,262.11949 368.5,265.35551 C 366.119,266.80509 363.399,268.46721 360.539,267.36648 C 352.513,264.27683 352.436,253.29765 347.5,247.68475 z"
       style="fill:#333300;stroke:none" />
    <path
       id="path3954"
       d="M 253.5,251.69468 C 251.06,260.01227 244.871,272.19243 234.5,269.2301 C 228.913,267.63415 225.26,262.88038 219.5,261.7195 L 217.5,268.73688 L 242.383,277.8324 L 229.5,292.79645 L 234.5,297.80886 C 240.312,294.94277 246.978,271.66112 255.524,282.85985 C 256.668,284.35856 257.541,286.16604 258.5,287.78404 L 259.5,287.78404 L 264.5,282.77163 C 261.786,277.81335 257.472,277.96372 253.819,274.3207 C 248.501,269.01858 254.921,260.07142 258.5,255.70461 L 258.5,254.70213 L 253.5,251.69468 z"
       style="fill:#cc9933;stroke:none" />
    <path
       id="path3960"
       d="M 345.5,251.69468 L 342.5,254.70213 L 342.5,255.70461 C 345.695,259.90601 352.052,268.09328 347.893,273.4706 C 344.577,277.75721 339.137,277.40935 336.5,282.77163 L 340.5,287.78404 C 343.001,285.75602 344.785,281.49747 347.724,280.27244 C 356.367,276.66952 360.583,293.93728 365.5,297.80886 L 371.5,292.79645 C 368.283,288.41861 359.344,284.36658 358.56,278.78075 C 357.965,274.53824 379.179,270.51328 383.5,268.73688 L 381.5,261.7195 C 376.36,262.75607 373.199,266.49733 368.5,268.51834 C 354.806,274.40892 352.748,258.88448 345.5,251.69468 z"
       style="fill:#cc9933;stroke:none" />
    <path
       id="path3982"
       d="M 338.5,256.70709 L 338.5,257.70957 C 342.904,262.90644 346.004,267.79454 344.5,274.75177 C 330.721,273.54278 327.678,295.24953 341.5,296.80638 C 341.377,293.52025 342.252,292.05963 344.103,289.36395 C 355.131,273.30419 355.577,299.55419 366.5,301.81879 L 366.5,305.82872 C 378.057,305.54803 377.955,296.25602 371.5,288.78652 L 384.5,290.79149 L 383.5,294.80142 L 390.5,290.79149 L 386.5,293.79894 L 381.5,285.77908 L 380.5,288.78652 L 358.5,276.75674 L 357.5,276.75674 L 371.5,292.79645 L 366.5,297.80886 C 360.502,294.85154 355.965,274.93623 346.995,280.79874 C 344.45,282.46086 342.97,285.83121 340.5,287.78404 L 335.5,282.77163 C 339.019,278.2785 344.303,277.77025 347.743,274.02196 C 352.277,269.08273 345.064,258.97571 342.5,254.70213 L 338.5,256.70709 z"
       style="fill:#333300;stroke:none" />
    <path
       id="path4070"
       d="M 208.5,268.73688 C 212.804,267.23716 215.975,265.64021 215.5,260.71702 C 211.044,262.31698 209.05,263.90491 208.5,268.73688 z"
       style="fill:#cc9933;stroke:none" />
    <path
       id="path4130"
       d="M 384.5,261.7195 L 391.5,268.73688 C 391.127,263.83273 389.392,262.09343 384.5,261.7195 z"
       style="fill:#cc9933;stroke:none" />
    <path
       id="path4322"
       d="M 289.5,295.8039 C 288.245,299.49003 287.632,303.4789 285.505,306.81617 C 275.011,323.28595 257.991,309.19807 247.5,301.81879 C 247.5,312.71778 246.709,320.86395 253.5,329.8883 L 236.5,326.88085 C 242.568,352.47723 266.563,359.42343 288.5,350.94043 C 289.252,360.1763 292.61,370.80862 301.5,375 L 307.399,359.96277 L 309.5,337.90816 L 310.5,337.90816 C 315.3,352.97747 332.996,356.017 345.5,348.45527 C 352.039,344.50048 358.705,338.01141 356.5,329.8883 L 338.5,332.89575 L 338.5,331.89326 C 354.755,325.06235 347.762,316.44 351.5,303.82376 L 348.5,308.83617 L 345.5,307.83369 L 345.5,310.84113 L 342.5,309.83865 C 342.5,312.64059 341.02,312.10927 338.5,311.84362 C 338.5,317.31316 320.5,317.95876 320.5,311.84362 C 313.682,310.27874 311.613,303.73554 307.5,298.81135 C 303.496,312.42105 318.113,328.85674 331.5,329.8883 L 331.5,330.89078 C 313.907,330.08278 313.476,313.53581 301.5,305.82872 C 303.707,317.5728 306.949,325.25382 315.5,333.89823 L 307.5,331.89326 L 300.814,316.85603 L 300.5,291.79397 C 323.294,298.54769 323.294,265.99308 300.5,272.74681 C 299.551,268.30782 290.321,267.4928 286.5,269.15491 C 273.469,274.82195 278.064,291.90224 289.5,295.8039 z"
       style="fill:#333333;stroke:none" />
    <path
       id="path4340"
       d="M 294.5,268.73688 L 294.5,269.73936 L 300.5,272.74681 C 322.838,267.41761 322.838,297.12317 300.5,291.79397 L 300.814,317.85851 L 307.5,331.89326 L 315.5,333.89823 C 308.581,324.01275 304.404,317.64598 301.5,305.82872 C 311.866,315.90467 314.288,330.52287 331.5,330.89078 L 331.5,329.8883 C 318.397,327.84724 304.311,312.39498 307.5,298.81135 L 319.5,312.8461 L 311.5,294.80142 C 327.752,290.9168 320.649,276.054 313.5,267.7344 L 294.5,268.73688 z"
       style="fill:#1a1a1a;stroke:none" />
    <path
       id="path4434"
       d="M 298.5,292.79645 L 298.5,272.74681 C 290.51,272.74781 274.369,279.5286 285.728,289.27373 C 289.131,292.19296 294.349,291.80299 298.5,292.79645 z"
       style="fill:#ffffff;stroke:none" />
    <path
       id="path4436"
       d="M 302.5,272.74681 L 302.5,291.79397 C 310.659,291.78896 326.452,283.49642 314.272,274.60942 C 311.004,272.22552 306.311,272.74981 302.5,272.74681 z"
       style="fill:#1a1a1a;stroke:none" />
    <path
       id="path4492"
       d="M 218.5,279.76418 L 220.5,288.78652 C 226.858,285.44726 239.294,283.10846 241.5,275.75425 L 218.5,279.76418 z"
       style="fill:#cc9933;stroke:none" />
    <path
       id="path4512"
       d="M 359.5,275.75425 C 361.626,282.8418 373.925,285.89937 380.5,287.78404 C 381.38,276.0971 369.29,278.02488 359.5,275.75425 z"
       style="fill:#cc9933;stroke:none" />
    <path
       id="path4608"
       d="M 381.5,278.7617 L 381.5,284.77659 C 385.652,282.94807 387.594,283.23678 390.5,286.78156 L 391.5,286.78156 C 390.331,281.11352 386.782,279.87345 381.5,278.7617 z"
       style="fill:#333300;stroke:none" />
    <path
       id="path4658"
       d="M 213.5,292.79645 L 218.5,287.78404 L 216.5,281.76915 C 210.887,283.74604 209.009,288.38353 213.5,292.79645 z"
       style="fill:#cc9933;stroke:none" />
    <path
       id="path4684"
       d="M 388.5,292.79645 C 394.093,280.93107 376.254,281.97065 388.5,292.79645 z"
       style="fill:#cc9933;stroke:none" />
    <path
       id="path4778"
       d="M 262.5,293.79894 C 265.998,291.86615 266.375,289.6667 266.5,285.77908 C 262.105,287.12842 262.1,289.54941 262.5,293.79894 z"
       style="fill:#cc9933;stroke:none" />
    <path
       id="path4782"
       d="M 334.5,285.77908 C 334.625,289.6667 335.002,291.86615 338.5,293.79894 C 338.694,289.6266 338.826,287.12541 334.5,285.77908 z"
       style="fill:#cc9933;stroke:none" />
    <path
       id="path4956"
       d="M 228.5,294.80142 C 227.926,299.19229 228.467,301.69549 232.5,303.82376 C 232.401,299.71358 232.058,297.11916 228.5,294.80142 z"
       style="fill:#cc9933;stroke:none" />
    <path
       id="path4974"
       d="M 371.5,294.80142 L 368.5,303.82376 C 372.09,301.61629 373.145,298.77626 371.5,294.80142 z"
       style="fill:#cc9933;stroke:none" />
    <path
       id="path5038"
       d="M 292.5,300.81631 C 280.489,320.3978 268.352,317.75826 250.5,307.83369 C 248.191,320.29955 253.072,328.45776 265.5,331.89326 L 265.5,332.89575 L 243.5,330.89078 C 248.07,356.57538 285.396,358.64551 291.5,332.89575 L 271.5,341.91809 L 271.5,340.9156 C 285.108,335.20647 296.791,324.38267 297.5,308.83617 L 296.5,308.83617 C 290.111,320.86696 282.139,331.76996 267.5,331.89326 L 274.5,328.88582 L 274.5,327.88333 L 269.5,326.88085 L 269.5,325.87837 C 280.896,325.63477 298.106,314.33479 292.5,300.81631 z"
       style="fill:#ffffff;stroke:none" />
    <path
       id="path5040"
       d="M 307.5,300.81631 C 307.63,316.3598 318.343,325.83626 333.5,325.87837 L 333.5,326.88085 L 326.5,327.88333 L 326.5,328.88582 L 333.5,332.89575 C 319.04,330.08278 312.024,322.11806 304.5,309.83865 L 303.5,309.83865 C 304.32,319.88753 309.607,326.92997 316.5,333.89823 L 309.5,332.89575 L 308.5,335.90319 L 307.5,335.90319 L 302.5,321.86844 L 301.5,321.86844 L 301.5,367.98263 L 302.5,367.98263 L 309.5,334.90071 C 313.854,344.06841 319.451,351.34643 330.5,351.68226 C 341.008,352.00105 358.04,343.28347 355.5,330.89078 L 334.5,332.89575 L 334.5,331.89326 C 348.104,328.65224 351.014,320.67047 350.5,307.83369 L 345.5,308.83617 C 344.678,312.38997 340.71,313.64006 337.5,314.99943 C 322.901,321.18274 316.165,310.31483 307.5,300.81631 z"
       style="fill:#1a1a1a;stroke:none" />
    <path
       id="path5052"
       d="M 352.5,301.81879 L 349.5,305.82872 C 355.846,317.25301 348.034,326.22924 338.5,331.89326 L 338.5,332.89575 L 356.5,329.8883 C 358.783,342.18575 342.326,352.15944 331.5,352.48425 C 321.882,352.77296 314.413,346.15157 310.5,337.90816 L 309.5,337.90816 L 307.399,358.96028 L 300.5,373.99752 C 308.796,369.77406 311.347,358.5232 312.5,349.93794 C 334.797,362.92209 355.974,348.87932 364.5,326.88085 L 346.5,329.8883 C 352.817,322.82782 356.363,311.04765 352.5,301.81879 z"
       style="fill:#1a1a1a;stroke:none" />
    <path
       id="path5244"
       d="M 298.5,321.86844 C 290.459,333.29072 287.814,357.91269 299.5,367.98263 C 299.5,354.94735 303.51,333.83708 298.5,321.86844 z"
       style="fill:#ffffff;stroke:none" />
    <path
       id="path35074"
       d="M 314.17738,217.5091 C 307.57638,217.7621 305.43038,228.0251 313.18138,228.2421 C 319.70838,228.4261 320.96538,217.2491 314.17738,217.5091 z"
       style="fill:#ffffff;stroke:none" />
  </g>
</svg>
