<?xml version="1.0" encoding="UTF-8" standalone="no"?>
<!-- Created with Inkscape (http://www.inkscape.org/) -->
<svg xmlns:dc="http://purl.org/dc/elements/1.1/" xmlns:cc="http://creativecommons.org/ns#" xmlns:rdf="http://www.w3.org/1999/02/22-rdf-syntax-ns#" xmlns:svg="http://www.w3.org/2000/svg" xmlns="http://www.w3.org/2000/svg" xmlns:sodipodi="http://sodipodi.sourceforge.net/DTD/sodipodi-0.dtd" xmlns:inkscape="http://www.inkscape.org/namespaces/inkscape" width="1350" height="900" id="svg7124" sodipodi:version="0.32" inkscape:version="0.46" version="1.0" sodipodi:docbase="C:\flags" sodipodi:docname="mecklenburg.svg" inkscape:output_extension="org.inkscape.output.svg.inkscape">
  <defs id="defs7126">
    <inkscape:perspective sodipodi:type="inkscape:persp3d" inkscape:vp_x="0 : 450 : 1" inkscape:vp_y="0 : 1000 : 0" inkscape:vp_z="1500 : 450 : 1" inkscape:persp3d-origin="750 : 300 : 1" id="perspective66"/>
  </defs>
  <sodipodi:namedview id="base" pagecolor="#ffffff" bordercolor="#666666" borderopacity="1.0" gridtolerance="10000" guidetolerance="10" objecttolerance="10" inkscape:pageopacity="0.0" inkscape:pageshadow="2" inkscape:zoom="0.41888889" inkscape:cx="750" inkscape:cy="450" inkscape:document-units="px" inkscape:current-layer="layer1" width="1500px" height="900px" inkscape:window-width="1280" inkscape:window-height="729" inkscape:window-x="0" inkscape:window-y="0" showgrid="false"/>
  <metadata id="metadata7129">
    <rdf:RDF>
      <cc:Work rdf:about="">
        <dc:format>image/svg+xml</dc:format>
        <dc:type rdf:resource="http://purl.org/dc/dcmitype/StillImage"/>
      </cc:Work>
    </rdf:RDF>
  </metadata>
  <g inkscape:label="Layer 1" inkscape:groupmode="layer" id="layer1">
    <g id="g9020" transform="scale(0.9, 1)">
      <rect y="600" x="0" height="300" width="1500" id="rect7132" style="opacity: 1; fill: rgb(255, 0, 0); fill-opacity: 1; stroke: none; stroke-width: 1.18; stroke-linecap: butt; stroke-linejoin: miter; stroke-miterlimit: 4; stroke-dasharray: none; stroke-opacity: 1;"/>
      <rect y="300" x="0" height="300" width="1500" id="rect7134" style="opacity: 1; fill: rgb(255, 255, 0); fill-opacity: 1; stroke: none; stroke-width: 1.18; stroke-linecap: butt; stroke-linejoin: miter; stroke-miterlimit: 4; stroke-dasharray: none; stroke-opacity: 1;"/>
      <rect y="0" x="0" height="300" width="1500" id="rect7136" style="opacity: 1; fill: rgb(0, 77, 255); fill-opacity: 1; stroke: none; stroke-width: 1.18; stroke-linecap: butt; stroke-linejoin: miter; stroke-miterlimit: 4; stroke-dasharray: none; stroke-opacity: 1;"/>
    </g>
    <g id="g8964" transform="matrix(1.00722, 0, 0, 1.00159, -13.9503, -13.0893)">
      <path id="path4818" d="M 681.40336,408.75402 C 599.66494,411.49284 568.38354,421.61804 554.909,426.80037 C 539.36074,423.32066 506.70925,431.42801 506.70925,431.42801 C 506.70925,431.42801 479.38908,434.76004 468.91272,448.03107 C 435.74382,440.79364 436.41023,450.80843 436.41023,450.80843 C 441.51937,515.48088 485.86829,516.38808 485.86829,516.38808 C 522.99842,524.30917 556.13009,511.40795 556.13009,511.40795 L 565.82963,564.86448 L 552.46548,598.42177 L 554.909,629.49966 L 499.23241,692.9138 C 564.01527,706.07442 579.1565,755.05095 579.1565,755.05095 C 613.51058,722.10285 648.1972,758.80734 648.1972,758.80734 C 686.43802,730.78482 724.49394,761.26948 724.49394,761.26948 C 748.9636,719.45581 804.45527,740.15046 804.45527,740.15046 C 808.86076,684.01101 858.94799,684.19593 858.94799,684.19593 C 849.21122,629.86944 894.07889,605.88133 894.07889,605.88133 C 894.07889,605.88133 834.25622,580.44865 825.03819,513.92595 C 898.70652,532.99114 920.69544,489.04926 920.69544,489.04926 C 929.28428,478.84957 931.61609,439.31319 931.61609,439.31319 C 909.10841,450.80843 891.63538,441.77534 891.63538,441.77534 C 857.68967,419.4153 810.19359,422.63562 810.19359,422.63562 C 810.19359,422.63562 721.34678,407.84688 681.40336,408.75402 z" style="fill: rgb(35, 31, 32);"/>
      <path id="path4820" d="M 681.40336,408.75402 C 599.66494,411.49284 568.38354,421.61804 554.909,426.80037 C 539.36074,423.32066 506.70925,431.42801 506.70925,431.42801 C 506.70925,431.42801 479.38908,434.76004 468.91272,448.03107 C 435.74382,440.79364 436.41023,450.80843 436.41023,450.80843 C 441.51937,515.48088 485.86829,516.38808 485.86829,516.38808 C 522.99842,524.30917 556.13009,511.40795 556.13009,511.40795 L 565.82963,564.86448 L 552.46548,598.42177 L 554.909,629.49966 L 499.23241,692.9138 C 564.01527,706.07442 579.1565,755.05095 579.1565,755.05095 C 613.51058,722.10285 648.1972,758.80734 648.1972,758.80734 C 686.43802,730.78482 724.49394,761.26948 724.49394,761.26948 C 748.9636,719.45581 804.45527,740.15046 804.45527,740.15046 C 808.86076,684.01101 858.94799,684.19593 858.94799,684.19593 C 849.21122,629.86944 894.07889,605.88133 894.07889,605.88133 C 894.07889,605.88133 834.25622,580.44865 825.03819,513.92595 C 898.70652,532.99114 920.69544,489.04926 920.69544,489.04926 C 929.28428,478.84957 931.61609,439.31319 931.61609,439.31319 C 909.10841,450.80843 891.63538,441.77534 891.63538,441.77534 C 857.68967,419.4153 810.19359,422.63562 810.19359,422.63562 C 810.19359,422.63562 721.34678,407.84688 681.40336,408.75402 z" stroke-miterlimit="3.8640001" style="fill: none; stroke: rgb(35, 31, 32); stroke-width: 1.21305; stroke-miterlimit: 3.864;"/>
      <path id="path4822" d="M 546.39462,417.21254 C 666.26214,378.84269 817.7449,414.45511 817.7449,414.45511 M 544.39537,369.42117 C 685.69712,331.66187 819.92903,371.56803 819.92903,371.56803 M 546.80165,381.17449 C 688.06746,343.41518 816.78324,383.2841 816.78324,383.2841 M 554.94622,403.45998 C 682.14427,373.01261 809.63758,403.45998 809.63758,403.45998" stroke-miterlimit="3.8640001" style="fill: none; stroke: rgb(35, 31, 32); stroke-width: 3.03261; stroke-miterlimit: 3.864;"/>
      <path id="path4824" d="M 690.99119,369.53158 L 710.05637,370.4015 C 715.12827,370.62364 719.08951,374.38135 718.90326,378.76823 C 718.7184,383.1737 714.46185,386.543 709.42718,386.32087 L 690.362,385.45095 C 685.25286,385.22882 681.32886,381.4711 681.51511,377.06562 C 681.69997,372.67875 685.9565,369.2908 690.99119,369.53158 z M 791.60989,390.07725 C 791.60989,385.85796 794.90473,382.45146 798.97633,382.45146 C 803.08522,382.45146 806.41726,385.85796 806.41726,390.07725 C 806.41726,394.27926 803.08522,397.68578 798.97633,397.68578 C 794.90473,397.68578 791.60989,394.27926 791.60989,390.07725 z M 596.66675,382.08165 C 596.66675,377.86103 599.99881,374.45581 604.10768,374.45581 C 608.21655,374.45581 611.54862,377.86103 611.54862,382.08165 C 611.54862,386.28365 608.21655,389.68883 604.10768,389.68883 C 599.99881,389.68883 596.66675,386.28365 596.66675,382.08165 z M 561.57175,381.21171 L 580.37758,377.78792 C 585.375,376.88071 589.9295,379.2311 590.7063,383.58074 L 590.81804,384.00639 C 591.52034,388.37465 588.0779,392.61386 583.11772,393.48381 L 564.27467,396.88903 C 559.31448,397.79616 554.61237,395.14916 553.87281,390.59603 L 553.90869,390.68913 C 553.16914,386.35678 556.6116,382.11892 561.57175,381.21171 z" stroke-miterlimit="3.8640001" style="fill: none; stroke: rgb(35, 31, 32); stroke-width: 2.27446; stroke-miterlimit: 3.864;"/>
      <path id="path4828" d="M 596.55503,449.47562 C 596.55503,449.47562 605.69854,441.44145 635.64713,447.45775 C 658.41416,450.80843 670.1502,442.12646 670.1502,442.12646 C 670.1502,442.12646 674.74056,453.49138 648.64149,456.82342 C 639.53518,454.13916 621.32128,449.47562 609.62254,456.82342 C 592.00188,454.13916 596.55503,449.47562 596.55503,449.47562" style="fill: rgb(255, 255, 255);"/>
      <path id="path4830" d="M 717.05303,442.77426 C 722.56918,447.12386 734.45155,448.41945 734.45155,448.41945 L 771.73063,449.47562 L 784.09448,452.12265 L 779.54138,455.472 C 779.54138,455.472 745.70603,458.15625 728.12129,454.82421 C 721.56894,453.49138 717.05303,451.47351 717.05303,451.47351 C 717.05303,451.47351 708.57589,446.14355 717.05303,442.77426" style="fill: rgb(255, 255, 255);"/>
      <path id="path4832" d="M 452.69805,463.50483 C 462.43483,462.82114 466.98796,460.80326 466.98796,460.80326 L 483.94353,456.82342 C 483.94353,456.82342 547.09828,449.47562 552.947,454.82421 C 554.24257,458.15625 547.72745,462.17332 547.72745,462.17332 C 547.72745,462.17332 521.03643,458.84128 499.56495,462.82114 C 488.49667,462.82114 480.05547,464.81903 480.05547,464.81903 C 480.05547,464.81903 452.69805,469.52113 452.69805,463.50483" style="fill: rgb(255, 255, 255);"/>
      <path id="path4834" d="M 487.20112,468.83612 L 458.54809,474.18603 C 455.91971,478.84957 463.10126,478.84957 463.10126,478.84957 C 493.71624,475.51752 487.20112,468.83612 487.20112,468.83612" style="fill: rgb(255, 255, 255);"/>
      <path id="path4836" d="M 493.71624,475.51752 C 492.38341,472.1868 505.45092,467.52194 505.45092,467.52194 C 505.45092,467.52194 518.44527,463.50483 520.40727,467.52194 C 523.62759,466.18909 492.38341,481.55247 493.71624,475.51752" style="fill: rgb(255, 255, 255);"/>
      <path id="path4838" d="M 515.81687,480.072 C 510.63323,476.20253 534.69585,466.83686 534.69585,466.83686 C 540.58183,468.1697 540.58183,465.50408 535.36228,472.87184 C 530.14271,474.86972 521.70284,479.53461 521.70284,479.53461 L 515.81687,480.072" style="fill: rgb(255, 255, 255);"/>
      <path id="path4840" d="M 825.11268,462.17332 L 848.54482,468.83612 C 870.09075,472.14954 888.89659,467.52194 888.89659,467.52194 L 909.77481,462.17332 C 914.99435,466.83686 897.89246,473.01945 888.26743,474.86972 C 887.93356,474.94422 862.50086,479.23798 839.6979,474.53718 C 825.37073,471.87154 825.11268,462.17332 825.11268,462.17332" style="fill: rgb(255, 255, 255);"/>
      <path id="path4842" d="M 828.99942,475.51752 C 848.54482,482.86668 853.13518,492.91735 853.13518,492.91735 L 837.51376,490.23308 C 837.51376,490.23308 826.44415,483.55169 828.99942,475.51752" style="fill: rgb(255, 255, 255);"/>
      <path id="path4844" d="M 854.39486,480.21964 C 875.90225,481.55247 881.75096,491.54727 881.75096,491.54727 C 881.75096,491.54727 862.87197,492.91735 857.02325,485.56821 C 857.68967,488.21524 854.39486,480.21964 854.39486,480.21964" style="fill: rgb(255, 255, 255);"/>
      <path id="path4846" d="M 881.08456,479.53461 C 898.70652,477.53538 901.96409,484.88451 901.96409,484.88451 L 894.15338,485.56821 L 881.08456,479.53461" style="fill: rgb(255, 255, 255);"/>
      <path id="path4848" d="M 606.36496,478.44253 C 616.80538,508.50286 637.57322,479.794 637.57322,479.794 C 641.49717,474.46271 648.01231,478.84957 648.01231,478.84957 C 648.01231,478.84957 638.7943,507.85374 610.88219,500.26517 C 599.44281,496.45295 594.74201,483.62486 594.74201,483.62486 C 594.74201,483.62486 593.55685,474.86972 606.36496,478.44253" style="fill: rgb(255, 255, 255);"/>
      <path id="path4850" d="M 735.26696,485.56821 C 735.26696,485.56821 736.22862,497.43327 755.10894,493.4175 C 765.28866,489.77021 769.10225,476.8876 769.10225,476.8876 C 769.10225,476.8876 774.32179,477.90648 774.24731,484.38437 C 772.61919,495.71202 759.2178,500.98746 759.2178,500.98746 C 759.2178,500.98746 732.00934,511.61146 723.53092,489.54808 C 726.82573,483.55169 735.26696,485.56821 735.26696,485.56821" style="fill: rgb(255, 255, 255);"/>
      <path id="path4852" d="M 587.48598,472.87184 C 617.39732,452.80633 646.08757,470.85397 646.08757,470.85397 L 628.46561,473.501 C 628.46561,473.501 626.5036,481.55247 619.35931,481.55247 C 612.88141,480.86742 613.51058,473.501 613.51058,473.501 C 606.99413,467.52194 590.07714,477.53538 587.48598,472.87184" style="fill: rgb(255, 255, 255);"/>
      <path id="path4854" d="M 723.53092,478.84957 C 741.11565,453.49138 774.32179,463.50483 774.32179,463.50483 C 774.32179,463.50483 780.20777,467.52194 775.65461,472.1868 C 760.66102,466.83686 752.85034,472.87181 752.85034,472.87181 C 752.85034,472.87181 753.85059,480.58941 748.25994,482.23747 C 748.22271,482.18164 741.70756,484.16224 739.19091,477.53538 C 735.93332,479.53461 726.12208,483.55169 723.53092,478.84957" style="fill: rgb(255, 255, 255);"/>
      <path id="path4856" d="M 541.10058,657.20827 C 509.07827,686.43457 517.59398,690.11914 517.59398,690.11914 C 541.84149,690.11914 554.6496,702.5016 554.6496,702.5016 L 554.6496,696.67151 C 554.6496,696.67151 546.06077,680.60448 526.18148,683.51087 C 543.21022,665.24113 541.10058,657.20827 541.10058,657.20827" clip-rule="evenodd" style="fill: rgb(255, 255, 255); fill-rule: evenodd;"/>
      <path id="path4858" d="M 592.4089,684.99135 C 592.4089,684.99135 578.15624,706.18479 578.15624,725.89783 C 578.82264,732.48744 586.67192,724.4546 586.67192,724.4546 C 601.62693,695.22693 592.4089,684.99135 592.4089,684.99135" style="fill: rgb(255, 255, 255);"/>
      <path id="path4860" d="M 638.64662,736.85568 C 638.64662,736.85568 637.94299,723.69507 641.49717,712.73721 C 642.9404,702.5016 649.34514,701.79794 649.34514,701.79794 L 647.90056,727.37829 C 646.4946,747.09129 638.64662,736.85568 638.64662,736.85568" style="fill: rgb(255, 255, 255);"/>
      <path id="path4862" d="M 646.4946,747.09129 C 646.4946,747.09129 648.60423,733.93065 692.76825,734.69018 C 705.57639,735.41113 698.46933,739.81664 698.46933,739.81664 C 698.46933,739.81664 662.15327,738.33617 649.34514,750.77451 C 646.4946,749.29404 646.4946,747.09129 646.4946,747.09129" style="fill: rgb(255, 255, 255);"/>
      <path id="path4864" d="M 714.83166,708.38756 C 714.20248,723.62057 712.72202,732.48744 712.72202,732.48744 C 715.57254,752.20042 720.53273,745.64805 720.53273,745.64805 C 720.53273,745.64805 722.79134,723.93582 721.34678,712.0894 C 720.01395,704.29732 714.83166,708.38756 714.83166,708.38756" style="fill: rgb(255, 255, 255);"/>
      <path id="path4866" d="M 729.78801,737.61387 C 734.7854,722.25183 764.69674,720.0677 764.69674,720.0677 C 771.80382,722.25183 764.69674,727.37829 764.69674,727.37829 C 764.69674,727.37829 745.48389,728.10053 735.48909,738.33617 C 727.63977,744.88853 729.78801,737.61387 729.78801,737.61387" style="fill: rgb(255, 255, 255);"/>
      <path id="path4868" d="M 768.25096,683.51087 C 781.05907,703.25979 795.31176,712.01491 795.31176,712.01491 C 795.31176,712.01491 804.56702,690.11914 817.37513,690.84009 C 818.11602,695.22693 801.71648,720.0677 801.71648,720.0677 L 794.6081,722.97279 C 794.6081,722.97279 771.10147,709.10984 765.40042,693.74647 C 761.8462,687.15687 768.25096,683.51087 768.25096,683.51087" style="fill: rgb(255, 255, 255);"/>
      <path id="path4870" d="M 811.67408,617.02409 C 811.67408,617.02409 821.66891,653.56231 845.17683,673.29391 C 838.40232,677.14342 821.03974,671.38648 810.37849,636.33002 C 807.52795,620.2444 811.67408,617.02409 811.67408,617.02409" style="fill: rgb(255, 255, 255);"/>
      <path id="path4872" d="M 832.36738,569.52801 C 855.83809,595.07112 872.90404,603.15983 872.90404,603.15983 C 861.61364,629.38793 849.39611,644.76993 849.39611,644.76993 C 849.39611,644.76993 839.25364,643.93728 849.39611,624.33597 C 852.98754,625.05693 863.64878,606.06623 863.64878,606.06623 L 832.36738,569.52801" style="fill: rgb(255, 255, 255);"/>
      <path id="path4874" d="M 585.96826,730.3033 C 607.32799,712.01491 625.09761,727.37829 625.09761,727.37829 L 629.39137,732.48744 C 609.43764,724.4546 585.96826,730.3033 585.96826,730.3033" style="fill: rgb(255, 255, 255);"/>
      <path id="path4876" d="M 660.00637,468.65122 C 670.00122,465.7448 667.8171,477.4436 667.8171,477.4436 C 667.8171,505.92901 645.05005,530.78838 645.05005,530.78838 C 671.40852,533.71209 682.81067,538.82123 682.81067,538.82123 C 682.81067,538.82123 679.96013,543.22673 641.49717,539.54353 C 632.24191,541.74492 618.13823,545.83649 613.02907,569.49077 C 612.14051,578.82053 610.66006,590.25989 625.09761,598.75566 C 682.06977,620.67005 732.63854,607.51078 732.63854,607.51078 C 747.59354,603.88208 756.44174,601.21644 764.43735,591.81354 C 768.06602,586.85339 773.84029,559.57043 755.33108,547.46463 C 738.2651,538.21068 713.38844,541.02396 713.38844,541.02396 L 716.97853,535.17526 C 726.97469,530.06611 743.33701,535.17526 743.33701,535.17526 L 737.63591,520.55148 L 733.3781,510.31587 L 739.78281,508.11314 C 749.74039,531.50934 769.69415,545.42948 769.69415,545.42948 C 774.65433,556.36873 781.05907,573.89627 775.35798,592.16604 C 763.95586,621.39235 694.91515,623.57644 694.91515,623.57644 C 694.91515,623.57644 616.95306,620.50376 605.5509,594.92345 C 601.25713,587.6129 599.48004,551.98184 624.43122,536.61852 C 630.83462,531.50934 662.85692,507.39218 660.00637,468.65122" clip-rule="evenodd" style="fill: rgb(255, 255, 255); fill-rule: evenodd;"/>
      <path id="path4878" d="M 568.1614,435.07528 C 573.86246,433.59348 575.9721,430.66979 575.26977,439.42492 C 561.05434,472.33444 559.60978,491.32514 559.60978,491.32514 C 559.60978,491.32514 554.6496,516.1473 573.86246,528.58565 C 596.62953,543.94769 595.92584,549.51974 591.66933,549.05683 C 594.33365,559.18202 586.67192,553.46231 586.67192,553.46231 C 575.9721,541.02396 573.86246,538.09895 568.1614,536.61852 C 567.45772,546.1318 568.1614,551.98184 572.41924,560.77289 C 575.26977,565.1225 572.41924,570.97257 572.41924,570.97257 C 572.41924,570.97257 554.6496,582.68865 556.75923,603.88208 C 558.87022,640.42031 588.78155,656.486 588.78155,656.486 C 605.88478,677.68078 650.0488,683.51087 650.0488,683.51087 C 650.0488,683.51087 622.98666,695.94922 592.4089,674.03347 C 583.82137,668.16613 565.42259,656.78263 552.28061,632.25711 C 541.43311,600.34652 548.83813,581.24541 559.60978,567.32527 C 562.46031,566.60431 558.87022,541.02396 558.87022,541.02396 C 558.87022,541.02396 531.84531,486.91966 568.1614,435.07528 z" style="fill: rgb(255, 255, 255);"/>
      <path id="path4880" d="M 568.1614,435.07528 C 573.86246,433.59348 575.9721,430.66979 575.26977,439.42492 C 561.05434,472.33444 559.60978,491.32514 559.60978,491.32514 C 559.60978,491.32514 554.6496,516.1473 573.86246,528.58565 C 596.62953,543.94769 595.92584,549.51974 591.66933,549.05683 C 594.33365,559.18202 586.67192,553.46231 586.67192,553.46231 C 575.9721,541.02396 573.86246,538.09895 568.1614,536.61852 C 567.45772,546.1318 568.1614,551.98184 572.41924,560.77289 C 575.26977,565.1225 572.41924,570.97257 572.41924,570.97257 C 572.41924,570.97257 554.6496,582.68865 556.75923,603.88208 C 558.87022,640.42031 588.78155,656.486 588.78155,656.486 C 605.88478,677.68078 650.0488,683.51087 650.0488,683.51087 C 650.0488,683.51087 622.98666,695.94922 592.4089,674.03347 C 583.82137,668.16613 565.42259,656.78263 552.28061,632.25711 C 541.43311,600.34652 548.83813,581.24541 559.60978,567.32527 C 562.46031,566.60431 558.87022,541.02396 558.87022,541.02396 C 558.87022,541.02396 531.84531,486.91966 568.1614,435.07528 z" stroke-miterlimit="3.8640001" style="fill: none; stroke: rgb(35, 31, 32); stroke-width: 3.03261; stroke-miterlimit: 3.864;"/>
      <path id="path4882" d="M 791.75756,443.10811 C 791.01799,433.59348 798.86594,435.79623 798.86594,435.79623 C 828.07363,448.21594 820.92933,539.54353 820.92933,539.54353 C 817.37513,564.42018 805.97298,579.76492 805.97298,579.76492 C 802.41882,585.59504 802.41882,637.49527 802.41882,637.49527 C 795.31176,671.84936 725.53013,684.23317 725.53013,684.23317 C 718.38586,682.7886 725.53013,676.95852 725.53013,676.95852 C 780.35542,662.33604 786.01924,646.25039 786.01924,646.25039 C 797.42136,638.93982 789.57341,581.96635 796.05265,571.73078 C 810.26677,560.01467 814.52459,530.06611 814.52459,530.06611 C 814.52459,530.06611 805.97298,540.30171 802.41882,536.61852 C 808.11988,527.86337 808.82353,513.99907 808.82353,513.99907 C 808.82353,513.99907 818.11602,465.02255 791.75756,443.10811" clip-rule="evenodd" style="fill: rgb(255, 255, 255); fill-rule: evenodd;"/>
      <path id="path4884" d="M 625.83718,566.60431 C 622.28433,561.49515 630.13228,558.57014 630.13228,558.57014 C 643.64405,556.36873 654.00869,570.58418 654.00869,570.58418 C 662.11603,581.78147 648.71595,591.5914 643.42192,591.481 C 628.50283,590.4448 636.53569,576.08039 636.53569,576.08039 C 640.08989,583.41088 644.34773,581.96635 644.34773,581.96635 C 652.67718,576.87718 639.97948,566.04831 625.83718,566.60431" style="fill: rgb(255, 255, 255);"/>
      <path id="path4886" d="M 719.82904,590.00053 C 712.72202,573.17531 728.89944,563.77241 728.89944,563.77241 C 737.7091,558.3121 747.59354,562.93839 747.59354,562.93839 C 761.10532,570.25031 750.44406,583.41088 750.44406,583.41088 C 741.19011,594.35016 738.33963,582.68865 738.33963,582.68865 C 738.33963,582.68865 746.96435,581.28264 743.33701,573.17531 C 739.1164,567.78818 733.45258,571.65761 733.45258,571.65761 C 733.45258,571.65761 725.53013,576.83989 729.08431,585.59504 C 729.08431,592.16604 719.82904,590.00053 719.82904,590.00053" style="fill: rgb(255, 255, 255);"/>
      <path id="path4888" d="M 585.59712,632.38744 C 586.33804,628.70424 593.77898,614.48881 593.77898,614.48881 C 617.2856,632.38744 656.78605,638.93982 656.78605,638.93982 L 651.45476,658.68871 C 645.75372,661.26259 634.68545,655.69055 634.68545,655.69055 L 639.34895,641.1426 L 634.61096,655.8382 C 626.5036,655.91269 618.73013,649.17543 618.73013,649.17543 L 624.43122,634.53435 L 618.6929,649.28581 C 618.6929,649.28581 606.43945,647.30521 600.51623,641.1426 C 599.18342,640.38309 606.62436,627.98197 606.62436,627.98197 L 600.22094,640.42031 C 600.22094,640.42031 591.66933,638.93982 585.59712,632.38744 z" clip-rule="evenodd" style="fill: rgb(255, 255, 255); fill-rule: evenodd;"/>
      <path id="path4890" d="M 585.59712,632.38744 C 586.33804,628.70424 593.77898,614.48881 593.77898,614.48881 C 617.2856,632.38744 656.78605,638.93982 656.78605,638.93982 L 651.45476,658.68871 C 645.75372,661.26259 634.68545,655.69055 634.68545,655.69055 L 639.34895,641.1426 L 634.61096,655.8382 C 626.5036,655.91269 618.73013,649.17543 618.73013,649.17543 L 624.43122,634.53435 L 618.6929,649.28581 C 618.6929,649.28581 606.43945,647.30521 600.51623,641.1426 C 599.18342,640.38309 606.62436,627.98197 606.62436,627.98197 L 600.22094,640.42031 C 600.22094,640.42031 591.66933,638.93982 585.59712,632.38744 z" stroke-miterlimit="3.8640001" style="fill: none; stroke: rgb(35, 31, 32); stroke-width: 1.51631; stroke-miterlimit: 3.864;"/>
      <path id="path4892" d="M 775.72776,634.20046 C 774.98821,630.5545 767.54729,618.83845 767.54729,618.83845 C 744.03935,636.73709 704.5402,640.75285 704.5402,640.75285 L 709.87148,660.50308 C 716.27488,662.70582 726.45592,657.17104 726.45592,657.17104 L 721.97594,642.95558 L 726.45592,657.17104 C 734.7854,657.93052 742.63335,650.98977 742.63335,650.98977 L 736.93226,636.4032 L 742.22634,650.65589 C 742.22634,650.65589 756.25685,648.08337 760.95767,642.58578 C 760.95767,642.41954 754.70191,629.79632 754.70191,629.79632 L 761.10532,642.23466 C 761.10532,642.23466 769.69415,640.75285 775.72776,634.20046 z" clip-rule="evenodd" style="fill: rgb(255, 255, 255); fill-rule: evenodd;"/>
      <path id="path4894" d="M 775.72776,634.20046 C 774.98821,630.5545 767.54729,618.83845 767.54729,618.83845 C 744.03935,636.73709 704.5402,640.75285 704.5402,640.75285 L 709.87148,660.50308 C 716.27488,662.70582 726.45592,657.17104 726.45592,657.17104 L 721.97594,642.95558 L 726.45592,657.17104 C 734.7854,657.93052 742.63335,650.98977 742.63335,650.98977 L 736.93226,636.4032 L 742.22634,650.65589 C 742.22634,650.65589 756.25685,648.08337 760.95767,642.58578 C 760.95767,642.41954 754.70191,629.79632 754.70191,629.79632 L 761.10532,642.23466 C 761.10532,642.23466 769.69415,640.75285 775.72776,634.20046 z" stroke-miterlimit="3.8640001" style="fill: none; stroke: rgb(35, 31, 32); stroke-width: 1.51631; stroke-miterlimit: 3.864;"/>
      <path id="path4896" d="M 578.71223,630.36961 C 573.38094,626.85267 594.29773,605.88133 596.22249,591.40652 C 598.44384,598.6439 607.55012,621.54002 659.45039,624.87205 C 656.85923,627.29693 650.71388,638.86534 597.22142,611.3789 C 587.48598,607.89916 583.08049,627.37141 583.08049,627.37141 L 578.71223,630.36961 z" style="fill: rgb(237, 28, 36);"/>
      <path id="path4898" d="M 578.71223,630.36961 C 573.38094,626.85267 594.29773,605.88133 596.22249,591.40652 C 598.44384,598.6439 607.55012,621.54002 659.45039,624.87205 C 656.85923,627.29693 650.71388,638.86534 597.22142,611.3789 C 587.48598,607.89916 583.08049,627.37141 583.08049,627.37141 L 578.71223,630.36961 z" stroke-miterlimit="3.8640001" style="fill: none; stroke: rgb(237, 28, 36); stroke-width: 2.42609; stroke-linejoin: round; stroke-miterlimit: 3.864;"/>
      <path id="path4900" d="M 779.72624,630.07298 C 786.0565,613.0815 773.32284,619.37448 771.35952,604.89966 C 751.40711,628.85189 704.72508,628.35173 704.72508,628.35173 C 704.72508,628.35173 709.57485,643.82553 765.02928,617.37528 C 778.50515,611.84178 779.72624,630.07298 779.72624,630.07298 z" style="fill: rgb(237, 28, 36);"/>
      <path id="path4902" d="M 779.72624,630.07298 C 786.0565,613.0815 773.32284,619.37448 771.35952,604.89966 C 751.40711,628.85189 704.72508,628.35173 704.72508,628.35173 C 704.72508,628.35173 709.57485,643.82553 765.02928,617.37528 C 778.50515,611.84178 779.72624,630.07298 779.72624,630.07298 z" stroke-miterlimit="3.8640001" style="fill: none; stroke: rgb(237, 28, 36); stroke-width: 2.42609; stroke-linejoin: round; stroke-miterlimit: 3.864;"/>
      <path id="path4904" d="M 665.30043,625.3722 C 644.90239,689.28512 661.07984,701.79794 661.07984,701.79794 C 669.85358,710.27509 680.95909,709.5169 680.95909,709.5169 C 701.57924,711.42299 705.05896,695.00483 705.05896,695.00483 C 711.38917,676.05133 699.87664,627.87025 699.87664,627.87025 L 688.17787,627.87025 L 684.29113,679.80903 C 681.84765,683.78888 682.81067,684.26909 678.92261,680.78938 C 681.84765,634.34945 679.36691,627.87025 679.36691,627.87025 C 679.36691,627.87025 674.0369,627.37141 665.30043,625.3722 z" style="fill: rgb(237, 28, 36);"/>
      <path id="path4906" d="M 665.30043,625.3722 C 644.90239,689.28512 661.07984,701.79794 661.07984,701.79794 C 669.85358,710.27509 680.95909,709.5169 680.95909,709.5169 C 701.57924,711.42299 705.05896,695.00483 705.05896,695.00483 C 711.38917,676.05133 699.87664,627.87025 699.87664,627.87025 L 688.17787,627.87025 L 684.29113,679.80903 C 681.84765,683.78888 682.81067,684.26909 678.92261,680.78938 C 681.84765,634.34945 679.36691,627.87025 679.36691,627.87025 C 679.36691,627.87025 674.0369,627.37141 665.30043,625.3722 z" stroke-miterlimit="3.8640001" style="fill: none; stroke: rgb(237, 28, 36); stroke-width: 2.42609; stroke-miterlimit: 3.864;"/>
      <path sodipodi:nodetypes="ccccccccccc" id="path4908" d="M 648.49382,164.44594 C 648.49382,164.44594 645.45841,196.44831 628.76222,207.16542 C 599.07301,225.67595 517.0752,249.88621 501.08269,266.56246 C 441.37039,313.79915 468.83955,385.94976 468.83955,385.94976 C 483.53518,429.79987 516.48327,428.50428 516.48327,428.50428 C 532.36409,427.26326 551.2803,427.26326 551.2803,427.26326 C 547.76468,422.56244 546.2829,418.19421 546.2829,418.19421 C 546.2829,418.19421 542.76596,410.47528 554.94622,403.45998 C 544.54305,385.26473 540.28652,350.80025 540.28652,350.80025 C 561.50527,280.06841 597.13293,289.70731 649.6045,249.27569 C 694.76752,206.6666 648.49382,164.44594 648.49382,164.44594 z" style="fill: rgb(255, 255, 255); stroke: rgb(0, 0, 0); stroke-width: 3.22086; stroke-miterlimit: 4; stroke-dasharray: none; stroke-opacity: 1;"/>
      <path sodipodi:nodetypes="cccccccccccc" id="path4914" d="M 716.05406,164.44594 C 716.05406,164.44594 712.86966,190.04493 735.5995,207.27715 C 774.06243,231.24667 847.47137,249.88621 863.50115,266.56246 C 921.95376,308.76448 900.00212,382.30378 900.00212,382.30378 C 884.34346,419.08276 851.72922,426.00492 851.72922,426.00492 C 837.06949,422.85776 815.07929,421.87743 815.07929,421.87743 C 817.96707,420.50735 818.1892,417.21254 818.1892,417.21254 C 818.1892,417.21254 818.52306,407.08871 809.63758,403.45998 C 820.04079,385.26473 824.26003,350.80025 824.26003,350.80025 L 798.6438,298.14048 C 798.6438,298.14048 740.00494,271.19007 714.97929,249.27569 C 669.77908,206.6666 716.05406,164.44594 716.05406,164.44594 z" stroke-miterlimit="3.8640001" style="fill: rgb(255, 255, 255); stroke: rgb(35, 31, 32); stroke-width: 3.22215; stroke-miterlimit: 3.864;"/>
      <path id="path7113" d="M 683.6853,247.15813 L 644.32335,296.19923 L 661.74585,329.7537 L 706.91532,329.7537 L 719.82088,290.39174 L 683.6853,247.15813 z" style="fill: rgb(255, 255, 0); fill-opacity: 1; fill-rule: evenodd; stroke: none; stroke-width: 1px; stroke-linecap: butt; stroke-linejoin: miter; stroke-opacity: 1;"/>
      <path sodipodi:nodetypes="ccccccccccccccccccccccccccccccccccccccccccccccccccccccccccccccccscccccccsscc" d="M 566.01451,297.89974 C 553.57093,319.70813 562.45372,293.05514 581.19299,298.93593 C 589.855,315.57625 574.34398,319.79685 574.34398,319.79685 C 586.07865,324.7198 584.56095,340.99031 574.89866,343.8967 C 565.60747,346.74725 554.87173,340.74953 554.87173,340.74953 C 554.87173,340.74953 562.12777,351.74466 582.59897,350.76301 C 597.22142,350.22695 600.14647,336.7697 600.14647,336.7697 C 574.8255,326.27473 592.81594,307.32125 603.03424,314.7808 C 592.81594,300.30599 609.84467,295.30858 609.84467,295.30858 C 626.39322,295.82734 622.50648,311.3011 622.50648,311.3011 C 634.53643,307.09912 645.34665,329.27422 624.91274,333.79015 C 631.24297,345.26544 646.34562,342.80464 646.34562,342.80464 C 670.66764,340.93444 669.18717,312.81881 669.18717,312.81881 C 669.18717,312.81881 660.45066,338.25017 642.9404,327.25638 C 636.61014,312.28144 647.27144,304.82189 647.27144,304.82189 C 631.7604,312.28144 624.43122,301.7133 625.39293,290.71819 C 631.20574,272.26351 646.82714,285.33237 646.82714,285.33237 C 646.82714,285.33237 638.23963,270.85753 647.75293,264.93434 C 658.08162,259.67754 664.78165,266.8777 664.78165,266.8777 C 664.78165,266.8777 653.67615,257.19679 661.96839,248.71967 C 672.51921,242.27903 677.77601,251.51434 677.77601,251.51434 C 677.77601,251.51434 663.74546,237.26297 683.18045,223.287 C 702.65269,237.26297 688.14064,251.25629 688.14064,251.25629 C 688.14064,251.25629 693.0649,242.79648 704.2449,249.27569 C 711.94384,258.19706 700.69071,266.8777 700.69071,266.8777 C 700.69071,266.8777 710.24124,259.97415 718.83012,265.24827 C 728.64008,272.63463 718.7184,285.33237 718.7184,285.33237 C 718.7184,285.33237 734.22942,271.33906 740.07946,289.84827 C 742.07736,301.43529 733.78512,312.28144 718.20095,304.82189 C 718.20095,304.82189 728.89944,312.28144 722.56918,327.25638 C 706.46492,337.4175 696.28522,312.81881 696.28522,312.81881 C 696.28522,312.81881 695.5443,340.89718 720.05121,342.45214 C 720.05121,342.45214 734.22942,345.26544 740.55964,333.79015 C 720.16293,329.27422 731.82317,306.30369 743.00314,311.3011 C 743.00314,311.3011 739.1164,295.82734 755.66362,295.30858 C 755.66362,295.30858 772.69237,300.30599 762.47538,314.7808 C 772.69237,307.32125 790.68411,326.27473 765.40042,336.7697 C 765.40042,336.7697 770.32335,350.6526 784.24347,351.44804 C 804.08547,352.28072 810.63788,340.74953 810.63788,340.74953 C 810.63788,340.74953 798.79144,349.63369 788.86975,343.26754 C 783.46533,339.39811 779.02259,324.79428 791.16563,319.79685 C 791.16563,319.79685 771.69341,313.83637 784.35388,295.88187 C 798.45755,292.34762 804.89955,309.41229 804.89955,309.41229 C 804.89955,309.41229 798.6438,298.14048 798.6438,298.14048 C 798.6438,298.14048 797.31098,290.64372 807.3803,288.81207 C 818.5603,286.85008 819.04051,299.32565 819.04051,299.32565 C 822.04,297.84386 805.89849,280.88963 827.62936,276.83664 C 835.95883,276.61316 833.36768,291.51361 836.55074,290.82991 C 834.14448,270.3574 841.84476,272.98581 847.36099,273.93021 C 856.91151,276.20614 854.09825,288.70032 854.09825,288.70032 C 842.7246,308.34003 822.31711,322.17221 818.04156,343.74772 C 810.304,363.23859 784.20621,362.77568 784.20621,362.77568 C 758.92118,359.7775 755.99748,333.79015 755.99748,333.79015 C 751.14774,355.7245 716.08998,353.22515 716.08998,353.22515 C 689.36303,350.76301 683.88412,311.44877 683.88412,311.44877 C 683.88412,311.44877 701.02325,297.80794 717.57179,295.30858 C 699.06127,293.32798 692.76825,279.83482 692.76825,279.83482 L 684.29113,256.38273 L 676.03616,279.83482 C 676.03616,279.83482 669.70592,293.32798 651.1954,295.30858 C 667.74391,297.80794 684.88306,311.44877 684.88306,311.44877 C 684.88306,311.44877 676.62809,351.26314 649.89982,353.76252 C 649.89982,353.76252 617.65671,355.7245 612.73244,333.79015 C 612.73244,333.79015 609.84467,357.24222 584.56095,360.2404 C 584.56095,360.2404 552.26933,367.66897 546.61676,343.26754 C 540.64594,317.4923 515.78725,312.83112 510.26345,288.70032 C 510.26345,288.70032 507.56055,268.61755 526.0711,271.61576 C 542.58105,276.11434 524.99765,290.2553 529.58804,291.81027 C 536.84274,272.85679 543.98835,279.00211 545.1363,279.33465 C 558.75847,285.83116 540.21203,300.15835 544.39537,302.69365 C 557.79677,272.85679 566.01451,297.89974 566.01451,297.89974 z M 672.96348,292.3104 C 672.96348,301.93543 677.9609,309.74615 684.10623,309.74615 C 690.28753,309.74615 695.28625,301.93543 695.28625,292.3104 C 695.28625,282.68533 690.28753,274.91056 684.10623,274.87331 C 677.9609,274.87331 672.96348,282.68533 672.96348,292.3104 z" style="fill: rgb(255, 255, 0); stroke: rgb(35, 31, 32); stroke-width: 3.03261; stroke-miterlimit: 3.864;" id="path4826"/>
      <path id="path4916" d="M 739.85729,380.56393 C 739.56068,376.38055 736.04373,373.19749 731.93486,373.51142 C 727.82599,373.80803 724.75334,377.45403 725.04861,381.61877 C 725.34527,385.82074 728.89944,388.98519 733.00831,388.70851 C 737.04402,388.41191 740.1526,384.76591 739.85729,380.56393 z M 774.91372,377.89829 L 755.96025,375.17811 C 750.96282,374.45581 746.40968,377.41677 745.81642,381.76642 C 745.18729,386.13465 748.81596,390.22623 753.81336,390.94716 L 772.76682,393.6687 C 777.76425,394.39098 782.3174,391.42871 782.91064,387.07906 C 783.50257,382.72943 779.91115,378.62056 774.91372,377.89829 z M 659.45039,378.54609 C 659.747,374.38135 663.3012,371.23552 667.3728,371.49358 C 671.44578,371.80881 674.55435,375.43619 674.22181,379.65677 C 673.96245,383.82151 670.40824,387.00457 666.33662,386.70929 C 662.26499,386.39406 659.19231,382.76668 659.45039,378.54609 z M 624.09734,371.73433 L 643.12533,370.36559 C 648.15997,370.03172 652.52823,373.28929 652.82482,377.67616 C 653.12013,382.08165 649.27063,385.91251 644.19876,386.28365 L 625.1708,387.61646 C 620.10019,387.98626 615.76786,384.69145 615.47258,380.32315 C 615.17596,375.93629 618.98952,372.0682 624.09734,371.73433 z" stroke-miterlimit="3.8640001" style="fill: none; stroke: rgb(35, 31, 32); stroke-width: 2.27446; stroke-miterlimit: 3.864;"/>
      <path id="path4918" d="M 841.0307,338.7503 C 845.28722,330.18008 843.73229,318.09426 835.81116,316.29852 C 831.70097,315.39136 825.37073,319.7596 821.11424,328.32983 C 816.85635,336.88144 817.85666,346.17262 823.37151,349.0604 C 828.85044,351.92956 836.77289,347.32054 841.0307,338.7503 z" style="fill: rgb(255, 224, 19);"/>
      <path id="path4920" d="M 841.0307,338.7503 C 845.28722,330.18008 843.73229,318.09426 835.81116,316.29852 C 831.70097,315.39136 825.37073,319.7596 821.11424,328.32983 C 816.85635,336.88144 817.85666,346.17262 823.37151,349.0604 C 828.85044,351.92956 836.77289,347.32054 841.0307,338.7503 z" stroke-miterlimit="3.8640001" style="fill: rgb(255, 255, 0); stroke: rgb(35, 31, 32); stroke-width: 3.03261; stroke-miterlimit: 3.864;"/>
      <path id="path4922" d="M 522.88667,339.12141 C 518.55568,330.43947 519.25933,321.1669 524.51614,318.4268 C 529.73567,315.70661 537.47323,320.55636 541.80423,329.23699 C 546.09799,337.91763 545.39434,347.15429 540.1748,349.89308 C 534.91799,352.6146 527.18179,347.80206 522.88667,339.12141 z" style="fill: rgb(255, 224, 19);"/>
      <path id="path4924" d="M 522.88667,339.12141 C 518.55568,330.43947 519.25933,321.1669 524.51614,318.4268 C 529.73567,315.70661 537.47323,320.55636 541.80423,329.23699 C 546.09799,337.91763 545.39434,347.15429 540.1748,349.89308 C 534.91799,352.6146 527.18179,347.80206 522.88667,339.12141 z" stroke-miterlimit="3.8640001" style="fill: rgb(255, 255, 0); stroke: rgb(35, 31, 32); stroke-width: 3.03261; stroke-miterlimit: 3.864;"/>
      <path id="path4926" d="M 832.36738,569.52801 C 855.83809,595.07112 872.90404,603.15983 872.90404,603.15983 C 861.61364,629.38793 849.39611,644.76993 849.39611,644.76993 C 849.39611,644.76993 839.25364,643.93728 849.39611,624.33597 C 852.98754,625.05693 863.57563,605.91859 863.57563,605.91859 C 863.57563,605.91859 838.40232,595.71889 832.36738,569.52801" style="fill: rgb(255, 255, 255);"/>
    </g>
  </g>
</svg>