<?xml version="1.0" encoding="UTF-8" standalone="no"?>
<svg xmlns:dc="http://purl.org/dc/elements/1.1/" xmlns:cc="http://creativecommons.org/ns#" xmlns:rdf="http://www.w3.org/1999/02/22-rdf-syntax-ns#" xmlns:svg="http://www.w3.org/2000/svg" xmlns="http://www.w3.org/2000/svg" xmlns:sodipodi="http://sodipodi.sourceforge.net/DTD/sodipodi-0.dtd" xmlns:inkscape="http://www.inkscape.org/namespaces/inkscape" width="450" height="300" id="svg2" sodipodi:version="0.32" inkscape:version="0.46" sodipodi:docname="mixtec.svg" inkscape:output_extension="org.inkscape.output.svg.inkscape">
  <metadata id="metadata17">
    <rdf:RDF>
      <cc:Work rdf:about="">
        <dc:format>image/svg+xml</dc:format>
        <dc:type rdf:resource="http://purl.org/dc/dcmitype/StillImage"/>
      </cc:Work>
    </rdf:RDF>
  </metadata>
  <defs id="defs15">
    <inkscape:perspective sodipodi:type="inkscape:persp3d" inkscape:vp_x="0 : 132 : 1" inkscape:vp_y="0 : 1000 : 0" inkscape:vp_z="264 : 132 : 1" inkscape:persp3d-origin="132 : 88 : 1" id="perspective19"/>
  </defs>
  <sodipodi:namedview inkscape:window-height="729" inkscape:window-width="1280" inkscape:pageshadow="2" inkscape:pageopacity="0.0" guidetolerance="10.0" gridtolerance="10.0" objecttolerance="10.0" borderopacity="1.0" bordercolor="#666666" pagecolor="#ffffff" id="base" showgrid="false" inkscape:zoom="1.5208438" inkscape:cx="172.33333" inkscape:cy="128.65988" inkscape:window-x="0" inkscape:window-y="0" inkscape:current-layer="svg2"/>
  <path style="fill: rgb(85, 0, 0); stroke: none;" d="M 0,0 L 0,300 L 450,300 L 450,0 L 0,0 z" id="path4"/>
  <path style="fill: rgb(0, 0, 0); stroke: none;" d="M 206.00038,19.425538 C 187.29618,21.971588 168.90948,27.996968 153.00038,38.345268 C 82.319833,84.320368 72.420783,190.72137 139.00038,245.53637 C 153.14058,257.17837 169.42818,265.66537 187.00038,270.70937 C 202.77038,275.23637 220.65538,276.66937 237.00038,274.71537 C 255.60638,272.48937 274.13238,266.39337 290.00038,256.30537 C 361.68538,210.73237 371.25638,105.23327 306.00038,49.300568 C 291.49438,36.867268 274.27638,28.239168 256.00038,23.000368 C 240.39738,18.527708 222.12738,17.230318 206.00038,19.425538 z" id="path6"/>
  <path style="fill: rgb(255, 204, 0); stroke: none;" d="M 207.00022,27.425246 C 189.28022,29.837246 172.07182,35.541446 157.00022,45.344946 C 92.833491,87.083046 81.832712,183.45805 140.00022,235.82905 C 154.00962,248.44305 170.92032,257.75705 189.00022,262.99905 C 203.76222,267.27905 220.70722,268.54405 236.00022,266.71505 C 253.26422,264.65005 270.15922,259.09505 285.00022,249.93505 C 351.00122,209.19805 362.69922,111.02085 304.00022,58.170546 C 289.45422,45.074146 271.83822,35.607146 253.00022,30.425246 C 238.65422,26.479046 221.76722,25.415146 207.00022,27.425246 z" id="path8"/>
  <path style="fill: rgb(0, 0, 0); stroke: none;" d="M 207.99987,44.428009 C 193.14787,46.554709 178.66657,51.555009 165.99987,59.698109 C 91.37806,107.67071 110.46277,224.74781 195.99987,247.26481 C 208.47987,250.55081 223.19787,251.40481 235.99987,249.57181 C 250.85187,247.44481 265.33287,242.44481 277.99987,234.30181 C 352.62187,186.32881 333.53687,69.251709 247.99987,46.734409 C 235.51987,43.448909 220.80187,42.594809 207.99987,44.428009 z" id="path10"/>
  <path style="fill: rgb(85, 34, 0); stroke: none;" d="M 128,131.00037 L 194,131.00037 C 194.001,125.03337 194.145,119.40537 197.046,114.00037 C 212.822,84.611667 249.997,102.22357 250,131.00037 L 316,131.00037 C 304.585,42.609767 180.4498,24.959487 138.7315,100.00037 C 133.4305,109.53547 129.4016,120.14737 128,131.00037 M 202,131.00037 L 242,131.00037 C 241.999,125.30137 242.219,119.78137 238.581,115.00437 C 229.869,103.56467 211.352,104.24607 204.09,117.00037 C 201.65,121.28437 202.001,126.25137 202,131.00037 M 127,139.00037 L 127,157.00037 L 317,157.00037 L 317,139.00037 L 127,139.00037 M 128,165.00037 C 132.7842,183.44437 140.0796,199.85837 153.4252,213.83037 C 189.3961,251.49137 251.745,250.99737 288.83,215.57537 C 303.335,201.72137 311.06,184.04537 316,165.00037 L 128,165.00037 z" id="path12"/>
  <path style="fill: rgb(128, 0, 128);" d="M 204.25301,241.47743 C 174.58304,236.03446 150.21889,217.53861 136.6843,190.18317 C 133.86447,184.48391 129.10083,171.66018 127.84497,166.38779 L 127.336,164.25094 L 222.16549,164.25094 C 274.32171,164.25094 316.99477,164.5132 316.99451,164.83371 C 316.9932,166.42707 311.45065,182.47488 309.06923,187.78046 C 300.57812,206.69778 285.04933,222.81039 265.89545,232.57746 C 259.00956,236.08877 246.70547,240.06706 238.29385,241.50191 C 229.39371,243.0201 212.59628,243.00802 204.25303,241.47743 L 204.25301,241.47743 z" id="path2398"/>
  <path style="fill: rgb(255, 212, 42);" d="M 128.339,130.32186 C 128.339,129.06101 129.69618,122.99017 130.7974,119.32509 C 139.95781,88.837547 163.11271,65.863493 193.4881,57.124024 C 209.3369,52.564088 226.84791,51.957945 243.64573,55.387839 C 253.63847,57.428227 266.85354,62.669043 275.15093,67.882136 C 281.76505,72.037662 285.29964,74.910915 291.62275,81.272006 C 296.40049,86.078474 298.73856,88.84115 301.46474,92.901476 C 306.99767,101.14223 311.05045,110.09226 313.4299,119.32509 C 314.27485,122.6037 315.80952,130.01684 315.80952,130.81974 C 315.80952,130.91228 301.06781,130.988 283.05013,130.988 L 250.29074,130.988 L 249.81644,127.13562 C 248.87397,119.48105 245.71361,113.06819 240.21961,107.66217 C 234.11709,101.65738 227.78199,98.924731 219.91446,98.903526 C 212.49258,98.883526 207.36621,101.14169 202.12106,106.74153 C 196.64099,112.59219 194.44425,117.84537 194.10429,125.91247 L 193.89039,130.988 L 161.11471,130.988 C 131.8705,130.988 128.339,130.91623 128.339,130.32185 L 128.339,130.32186 z" id="path2406"/>
</svg>