<?xml version="1.0" encoding="UTF-8" standalone="no"?>
<svg
   xmlns:dc="http://purl.org/dc/elements/1.1/"
   xmlns:cc="http://creativecommons.org/ns#"
   xmlns:rdf="http://www.w3.org/1999/02/22-rdf-syntax-ns#"
   xmlns:svg="http://www.w3.org/2000/svg"
   xmlns="http://www.w3.org/2000/svg"
   xmlns:sodipodi="http://sodipodi.sourceforge.net/DTD/sodipodi-0.dtd"
   xmlns:inkscape="http://www.inkscape.org/namespaces/inkscape"
   width="750"
   height="500"
   viewBox="0 0 600 400"
   version="1.1"
   id="svg2"
   inkscape:version="0.48.2 r9819"
   sodipodi:docname="parthia.svg">
  <metadata
     id="metadata222">
    <rdf:RDF>
      <cc:Work
         rdf:about="">
        <dc:format>image/svg+xml</dc:format>
        <dc:type
           rdf:resource="http://purl.org/dc/dcmitype/StillImage" />
        <dc:title />
      </cc:Work>
    </rdf:RDF>
  </metadata>
  <defs
     id="defs220" />
  <sodipodi:namedview
     pagecolor="#ffffff"
     bordercolor="#666666"
     borderopacity="1"
     objecttolerance="10"
     gridtolerance="10"
     guidetolerance="10"
     inkscape:pageopacity="0"
     inkscape:pageshadow="2"
     inkscape:window-width="1366"
     inkscape:window-height="695"
     id="namedview218"
     showgrid="false"
     inkscape:zoom="0.48761905"
     inkscape:cx="387.5"
     inkscape:cy="262.5"
     inkscape:window-x="-3"
     inkscape:window-y="0"
     inkscape:window-maximized="1"
     inkscape:current-layer="svg2" />
  <rect
     style="fill:#630085;fill-opacity:1;stroke:none"
     id="rect3089"
     width="600"
     height="400"
     x="0"
     y="0" />
  <g
     id="#e7bc2aff"
     transform="translate(-9.9544161,-10.689717)">
    <path
       d="m 303.63,23.74 c 2.82,-3.32 8.25,-3.88 11.6,-1.05 3.74,3 4.12,9.75 0.02,12.62 -2.39,2.3 -5.88,1.76 -8.89,1.68 -1.39,-1.5 -2.84,-2.95 -4.34,-4.34 0.13,-2.96 -0.97,-6.68 1.61,-8.91 z"
       id="path12"
       inkscape:connector-curvature="0"
       style="fill:#e7bc2a" />
    <path
       d="m 282.89,30.04 c -0.45,-5.84 6.5,-10.07 11.59,-7.43 4.19,1.73 5.47,6.9 4.25,10.93 -1.14,1.69 -2.75,2.98 -4.13,4.46 -2.41,0.04 -4.83,0.03 -7.24,0 -2.14,-2.21 -5.09,-4.46 -4.47,-7.96 z"
       id="path14"
       inkscape:connector-curvature="0"
       style="fill:#e7bc2a" />
    <path
       d="m 320.99,26.36 c 2.19,-2.17 4.64,-4.81 8.06,-4.45 4.75,-0.3 8.82,4.47 8.01,9.12 -0.09,2.98 -2.56,4.97 -4.42,6.99 -2.42,0.03 -4.84,0.03 -7.26,-0.02 -1.41,-1.51 -2.87,-2.96 -4.37,-4.37 -0.06,-2.42 -0.05,-4.85 -0.02,-7.27 z"
       id="path16"
       inkscape:connector-curvature="0"
       style="fill:#e7bc2a" />
    <path
       d="m 266.76,26.71 c 2.4,-2.25 5.85,-1.75 8.85,-1.71 1.41,1.5 2.87,2.96 4.39,4.37 0.05,2.2 0.2,4.42 -0.06,6.61 -0.36,2.41 -2.8,3.48 -4.39,4.98 -2.97,-0.04 -6.6,0.9 -8.84,-1.65 -3.76,-3.1 -3.8,-9.56 0.05,-12.6 z"
       id="path18"
       inkscape:connector-curvature="0"
       style="fill:#e7bc2a" />
    <path
       d="m 344.45,25.05 c 3.79,-0.55 7.92,-0.04 10.4,3.22 1.28,3.12 1.27,6.34 0.01,9.46 -3.27,4.21 -9.72,4.47 -13.68,1.13 -1.4,-2.94 -2.05,-6.34 -0.94,-9.48 0.52,-2.12 2.78,-2.92 4.21,-4.33 z"
       id="path20"
       inkscape:connector-curvature="0"
       style="fill:#e7bc2a" />
    <path
       d="m 250.37,30 c 3.91,-0.46 8.69,-0.08 10.7,3.88 3.22,5.07 -0.96,12.68 -7.07,12.24 -3.56,0.7 -5.8,-2.34 -8.01,-4.52 -0.04,-2.41 -0.04,-4.82 0.01,-7.23 1.52,-1.4 2.97,-2.85 4.37,-4.37 z"
       id="path22"
       inkscape:connector-curvature="0"
       style="fill:#e7bc2a" />
    <path
       d="m 357.89,37.98 c -0.32,-4.8 4.5,-8.89 9.19,-8.07 3.03,-0.09 4.88,2.62 6.91,4.43 0.03,2.43 0.04,4.87 0.02,7.31 -2.03,1.85 -4.02,4.32 -7,4.42 -4.63,0.78 -9.58,-3.28 -9.12,-8.09 z"
       id="path24"
       inkscape:connector-curvature="0"
       style="fill:#e7bc2a" />
    <path
       d="m 232.32,37 c 3.24,0.09 7.32,-1.03 9.61,2 4.8,4.31 1.63,13.78 -4.96,14.05 -4.65,0.79 -9.35,-3.3 -9.08,-8.02 -0.34,-3.39 2.29,-5.83 4.43,-8.03 z"
       id="path26"
       inkscape:connector-curvature="0"
       style="fill:#e7bc2a" />
    <path
       d="m 377.78,38.76 c 2.61,-2.6 6.55,-1.71 9.85,-1.77 2.15,2.18 4.79,4.62 4.46,8 0.27,4.34 -3.71,8.36 -8.06,8.1 -3.39,0.35 -5.84,-2.27 -8.04,-4.43 0.04,-3.32 -0.84,-7.28 1.79,-9.9 z"
       id="path28"
       inkscape:connector-curvature="0"
       style="fill:#e7bc2a" />
    <path
       d="m 211.89,49.96 c 0.82,-2.83 3.61,-4.04 6.16,-4.93 3.62,-0.49 6.7,1.78 8.95,4.34 0.37,4.15 0.48,8.84 -3.28,11.57 -0.55,0.08 -1.64,0.24 -2.19,0.31 -5.97,2.82 -13.29,-5.63 -9.64,-11.29 z"
       id="path30"
       inkscape:connector-curvature="0"
       style="fill:#e7bc2a" />
    <path
       d="m 397.67,45.59 c 5.83,-2.72 12.88,4.06 11.13,10.01 -0.77,2.15 -2.52,3.68 -4.09,5.23 -2.76,1.19 -5.64,1.22 -8.39,-0.01 -1.07,-1.05 -2.14,-2.11 -3.19,-3.17 -0.67,-2.78 -1.02,-5.59 0,-8.34 1.4,-1.35 2.68,-2.97 4.54,-3.72 z"
       id="path32"
       inkscape:connector-curvature="0"
       style="fill:#e7bc2a" />
    <path
       d="m 199.36,55.99 c 3.31,0.04 7.26,-0.84 9.87,1.78 2.56,2.65 2.11,6.55 1.75,9.89 -2.33,2.48 -5.27,5.13 -8.97,4.39 -4.52,-0.15 -7.12,-4.96 -7.05,-9.03 0.01,-3 2.56,-5 4.4,-7.03 z"
       id="path34"
       inkscape:connector-curvature="0"
       style="fill:#e7bc2a" />
    <path
       d="m 409.16,60.33 c 2.3,-6.44 13.21,-5.91 15.19,0.5 2.1,4.8 -1.83,11.72 -7.39,11.27 -3.28,0.31 -5.76,-2.16 -7.79,-4.38 -1.04,-2.44 -1.13,-4.95 -0.01,-7.39 z"
       id="path36"
       inkscape:connector-curvature="0"
       style="fill:#e7bc2a" />
    <path
       d="m 181.22,71.24 c 2.44,-2.4 6.23,-5.17 9.72,-3.31 3.08,1.03 5.93,3.61 6.09,7.03 0.36,2.49 -1.27,4.55 -2.42,6.59 -1.05,0.77 -2.08,1.57 -3.09,2.4 -2.06,0.05 -4.11,0.06 -6.16,0.04 -1.98,-2.17 -4.59,-4.05 -5.35,-7.03 -0.15,-1.98 0.78,-3.83 1.21,-5.72 z"
       id="path38"
       inkscape:connector-curvature="0"
       style="fill:#e7bc2a" />
    <path
       d="m 429.44,67.74 c 2.65,-1.85 5.51,0.71 7.79,2 1.14,1.64 2.16,3.44 2.71,5.36 -0.13,1.58 -0.75,3.07 -1.11,4.6 -2.02,2.25 -4.54,4.69 -7.82,4.4 -2.26,0.34 -3.93,-1.3 -5.66,-2.41 -1.22,-2.04 -2.89,-4.12 -2.4,-6.67 0.05,-2.95 2.48,-4.97 4.35,-6.93 0.53,-0.09 1.61,-0.26 2.14,-0.35 z"
       id="path40"
       inkscape:connector-curvature="0"
       style="fill:#e7bc2a" />
    <path
       d="m 313.54,79.25 c 6.95,-0.99 13.56,2 20.05,4 7.71,3.59 15.3,7.73 21.19,13.98 8.63,9.45 16.17,20.19 20.56,32.31 0.79,1.59 1.52,3.23 2.03,4.94 0.43,1.69 0.85,3.39 1.35,5.06 3.65,13.81 2.92,28.39 -1.33,41.97 -0.79,2.39 -2.02,4.61 -2.66,7.05 -3.69,8.21 -8.89,15.62 -14.47,22.65 -2.82,3.05 -5.95,5.8 -8.7,8.93 -2.27,-2.55 -4.79,-4.89 -7.76,-6.61 3.15,-1.22 5.18,-4 7.03,-6.68 8.12,-8.81 14.1,-19.68 16.85,-31.38 5.4,-19.57 0.99,-40.56 -7.74,-58.49 -8.77,-15.72 -21.6,-31.03 -39.44,-36.32 -2.23,-0.95 -4.78,-0.34 -6.96,-1.41 z"
       id="path42"
       inkscape:connector-curvature="0"
       style="fill:#e7bc2a" />
    <path
       d="m 168.28,84.33 c 2.8,-4.35 9.85,-4.62 13.02,-0.57 2.26,2.41 1.76,5.87 1.69,8.89 -1.47,1.42 -2.91,2.87 -4.32,4.35 -2.43,0.06 -4.86,0.06 -7.29,0 -1.41,-1.51 -2.87,-2.98 -4.38,-4.39 0.01,-2.79 -0.56,-5.91 1.28,-8.28 z"
       id="path44"
       inkscape:connector-curvature="0"
       style="fill:#e7bc2a" />
    <path
       d="m 437.17,85.28 c 2.05,-2.22 4.54,-4.7 7.85,-4.37 4.35,-0.27 8.34,3.75 8.07,8.1 0.34,3.38 -2.3,5.79 -4.42,7.99 -3.32,-0.06 -7.3,0.86 -9.91,-1.79 -2.23,-2.81 -3.26,-6.58 -1.59,-9.93 z"
       id="path46"
       inkscape:connector-curvature="0"
       style="fill:#e7bc2a" />
    <path
       d="m 303.49,82.62 c 6.64,-1.7 13.67,-0.55 20.09,1.6 4.13,2.16 8.44,4.09 12.11,7.01 1.96,2.09 4.36,3.66 6.57,5.46 8.07,9.1 15.25,19.25 19.47,30.77 0.84,2.68 1.8,5.33 2.65,8.01 0.92,4.15 1.71,8.33 2.55,12.5 0.2,6.02 0.17,12.06 0.01,18.08 -1.84,12 -5.92,23.8 -13.33,33.53 -3.28,5.16 -7.99,9.04 -12.02,13.55 -2.51,-2.72 -5.07,-5.58 -8.84,-6.42 8.13,-8.3 14.85,-18.12 18.57,-29.2 0.33,-1.02 0.67,-2.02 1.01,-3.03 1.85,-6.67 3.07,-13.57 2.66,-20.51 0.38,-8.61 -0.66,-17.38 -3.72,-25.47 -2.55,-9.53 -7.25,-18.52 -13.49,-26.16 -4.56,-4.49 -8.59,-9.82 -14.39,-12.78 -7.6,-4.89 -17.19,-7.02 -25.99,-4.38 1.69,-1.53 4.01,-1.81 6.09,-2.56 z"
       id="path48"
       inkscape:connector-curvature="0"
       style="fill:#e7bc2a" />
    <path
       d="m 296.24,85.28 c 0.47,0.54 0.47,0.54 0,0 z"
       id="path50"
       inkscape:connector-curvature="0"
       style="fill:#e7bc2a" />
    <path
       d="m 283.22,87.04 c 2.97,-1.61 0.3,3.3 0,0 z"
       id="path52"
       inkscape:connector-curvature="0"
       style="fill:#e7bc2a" />
    <path
       d="m 292.5,89.88 c 7.17,-2.93 15.63,-4.49 23.01,-1.23 4.3,1.14 7.95,3.79 11.4,6.5 6.41,4.26 10.49,10.98 14.7,17.23 1.72,3.31 3.78,6.54 4.67,10.19 0.51,0.95 1.02,1.89 1.55,2.84 0.11,0.52 0.33,1.57 0.44,2.09 3.78,10.06 4.57,20.88 3.8,31.51 0.29,4.26 -0.78,8.39 -1.67,12.51 -0.95,2.68 -1.89,5.36 -2.65,8.1 -1.25,2.2 -2.37,4.47 -3.03,6.92 -4.87,7.44 -9.56,15.71 -17.32,20.5 -1.29,-0.94 -2.58,-1.88 -3.84,-2.83 -0.52,-0.12 -1.54,-0.36 -2.05,-0.48 -1.29,-0.41 -2.58,-0.77 -3.89,-1.07 0.66,-1.29 1.52,-2.48 2.62,-3.44 7.22,-7.69 11.95,-17.22 16.49,-26.64 0.64,-2.37 1.23,-4.75 1.95,-7.1 0.16,-0.49 0.47,-1.47 0.63,-1.97 0.83,-2.78 0.84,-5.73 1.61,-8.54 0.1,-7.84 0.69,-15.85 -1.6,-23.48 -0.6,-2.36 -1.17,-4.74 -2.1,-6.99 -0.11,-0.52 -0.34,-1.56 -0.45,-2.07 -3.4,-6.75 -6.72,-13.7 -12.03,-19.2 -5,-5.35 -11.19,-9.74 -18.23,-11.93 -4.43,-2.02 -9.33,-1.03 -14.01,-1.42 z"
       id="path54"
       inkscape:connector-curvature="0"
       style="fill:#e7bc2a" />
    <path
       d="m 370.79,88.78 c 1.11,-2.36 4.08,-1.93 6.21,-1.77 3.53,0.77 7.06,1.65 10.52,2.71 0.51,0.12 1.54,0.35 2.05,0.47 5.14,2.95 10.89,4.86 15.52,8.66 6.02,3.84 10.52,9.47 15.66,14.34 6.04,7.02 10.78,15.07 15.04,23.25 0.11,0.52 0.33,1.57 0.44,2.09 1.79,3.12 2.94,6.55 4.12,9.93 1.8,5.91 3.51,11.87 4.27,18.01 2.44,10.01 1.03,20.37 1.39,30.56 -1.18,7.15 -1.9,14.4 -3.63,21.46 -0.68,2.33 -1.24,4.7 -2.03,7.01 -5.36,18.03 -15.54,34.57 -29.46,47.26 -7.08,7.28 -15.65,13.03 -24.61,17.73 -0.15,0.35 -0.44,1.05 -0.59,1.4 4.86,-0.7 9.45,1.6 14.24,1.01 2.56,-0.18 5.8,-4.01 2.69,-5.8 -1.8,-0.83 -2.77,1.56 -2.76,2.97 -0.95,-0.49 -1.89,-0.96 -2.84,-1.42 -0.03,-1.15 -0.05,-2.3 -0.07,-3.44 3.11,-2.67 8.18,-3.37 11.34,-0.42 2.12,2.63 3.8,6.52 1.99,9.75 -0.1,0.54 -0.29,1.6 -0.39,2.13 -1.95,2.23 -4.31,4 -6.74,5.65 -0.9,6.1 -0.77,12.61 -3.8,18.17 -1.7,3.21 -4.75,5.39 -7.74,7.32 -4.16,1.06 -8.3,2.3 -12.53,3.08 -4.77,0 -10.16,0.87 -13.31,4.85 -3.71,4.38 -9.17,7.49 -15.07,6.34 0.65,-0.84 1.3,-1.68 1.96,-2.51 1.73,-3.65 1.35,-7.69 1.3,-11.6 -0.35,-4.34 3.69,-8.34 8,-8.06 8.71,1.55 17.74,3.22 26.55,1.48 3.44,-0.74 6.05,-3.11 8.26,-5.73 0.28,-1.42 0.74,-2.8 1.28,-4.14 -2.23,2.46 -4.85,4.46 -7.55,6.36 -2.45,0.16 -4.9,0.19 -7.35,0.18 -1.51,-1.92 -2.47,-4.15 -2.23,-6.64 1.23,-1.12 2.4,-2.3 3.52,-3.53 1.9,0.05 3.67,0.72 5.49,1.21 2.05,-0.41 2.05,-3.05 2.77,-4.63 -0.37,-1.04 -0.7,-2.1 -0.99,-3.16 -0.67,-0.72 -1.34,-1.44 -2.01,-2.15 -0.55,-0.09 -1.64,-0.26 -2.18,-0.35 -1,-0.41 -1.99,-0.82 -2.98,-1.22 -5.7,-2.12 -11.12,1.08 -16.6,2.2 -12.96,3.53 -26.96,4.91 -40.04,1.14 1.59,-2.38 2.8,-5.39 1.27,-8.13 -1.92,-7.06 -9.53,-10.26 -16.21,-10.85 -3.5,0.66 -7.05,1.2 -10.45,2.34 -1.33,0.5 -2.67,0.95 -4,1.44 -1.01,0.31 -2.02,0.62 -3.02,0.94 -2.99,1.12 -5.9,2.48 -9.08,2.95 -0.99,-0.29 -1.97,-0.57 -2.96,-0.85 -8.25,-5.14 -13.82,-13.94 -16.18,-23.27 -2.96,-8.2 -0.54,-16.87 1.07,-25.07 1.43,-3.35 3.08,-6.7 5.52,-9.44 1.55,-0.65 0.64,-1.92 0.25,-2.85 0.62,-0.03 1.86,-0.08 2.49,-0.1 0.76,-1.59 4.95,-2.78 2.32,-4.49 -1.25,1.44 -2.61,2.79 -4.19,3.85 1.83,-3.67 4.28,-6.99 6.5,-10.43 1.51,0.02 3.03,0.04 4.54,0.06 0.84,-1.26 1.67,-2.52 2.46,-3.82 2.9,-1.55 6.72,-2.15 9.61,-0.24 0.27,-1.58 1.24,-2.82 2.4,-3.85 3.56,-1.58 7.86,-1.26 10.44,1.94 0.39,-0.47 1.18,-1.43 1.57,-1.9 1.25,-0.28 2.5,-0.58 3.75,-0.88 3.49,0.55 7.19,1.4 9.27,4.55 4.5,-2.43 12.2,0.28 11.95,6.1 5.38,-0.92 10.62,3.48 10.99,8.85 1.92,0.61 4.15,0.88 5.54,2.5 1.54,2.19 1.9,5.31 0.3,7.57 5.79,2.18 7.3,9.56 4.75,14.74 -2.1,3.53 -5.11,6.32 -8.05,9.14 -2.14,1.98 -3.47,4.63 -5.55,6.66 -0.11,0.53 -0.33,1.58 -0.44,2.11 -1.89,2.75 0.3,5.68 1.43,8.22 2.16,0.92 4.27,2.33 6.74,2.06 -2.14,2.23 -5.5,1.51 -8.01,0.37 -2.41,-1.52 -3.13,-4.62 -3.72,-7.21 0.54,-3.16 1.4,-6.26 2.1,-9.38 0.45,-1.32 0.71,-2.69 1,-4.05 1.76,-4.32 1.56,-9.04 2.61,-13.52 -0.79,-5.04 -1.33,-10.32 -4.34,-14.63 -4.02,-7.61 -12.41,-11.16 -20.04,-14.07 -7.89,-2.18 -16.08,-4.31 -24.32,-2.99 -2.59,0.57 -5.14,1.33 -7.7,2.02 -1.03,0.35 -2.06,0.69 -3.09,1.03 -1.88,1.42 -3.95,2.59 -6.19,3.33 -0.13,0.78 -0.25,1.57 -0.37,2.35 3.36,-3.69 8.4,-4.58 12.59,-6.88 5.24,-0.03 10.47,-2.46 15.64,-0.44 4.65,0.09 9.02,1.66 13.43,3.01 0.52,0.11 1.55,0.35 2.06,0.46 6.38,3.31 13.79,6.35 17.17,13.17 4.96,8.58 3.72,19.09 0.96,28.19 -1.23,5.81 -4.82,12.35 -1.03,17.94 1.03,2.83 4.25,3.24 6.7,4.2 5.25,0.24 8.25,-5.3 7.61,-9.98 -2.26,0.23 -2.41,3.53 -4.87,3.31 -2.68,-0.14 -2.46,-3.68 -1.96,-5.58 1.86,-4.38 6.56,-6.3 9.59,-9.68 6.83,-7.21 14.53,-13.64 20.53,-21.57 1.8,-1.6 2.35,-4.56 4.84,-5.3 1.71,-0.2 2.69,1.53 3.91,2.41 -0.02,2.17 0,4.33 0.05,6.51 -3.19,3.44 -10.1,0.69 -11.4,6.14 3.72,0.29 7.5,0.15 11.04,-1.19 2.81,-2.65 6.89,-5.98 4.51,-10.33 0.57,0.22 1.71,0.66 2.28,0.89 -0.48,2.58 -0.65,5.53 -2.69,7.46 -1.8,2.38 -4.79,2.98 -7.36,4.13 -2.6,0.17 -5.21,0.16 -7.82,0.2 0.73,1.94 2.22,3.41 3.66,4.84 2.41,0.04 4.91,0.36 7.21,-0.58 3.96,-0.99 7.67,-3.81 8.91,-7.8 1.88,-4.51 -0.23,-9.41 -3.77,-12.4 -0.53,0.8 -1.05,1.61 -1.59,2.39 -0.43,-3.49 -3.5,-5.05 -6.4,-6.16 7.51,-3.19 15.36,-5.81 22.03,-10.66 7.77,-5.57 14.78,-12.9 17.65,-22.23 2.52,-8.05 2.57,-17.26 -1.03,-24.98 -0.97,-4.39 -4.59,-7.32 -7.63,-10.32 -3.54,-2.65 -7.75,-4.36 -12.16,-4.8 -1.9,-0.55 -5.15,0.23 -5.45,-2.52 -0.29,-1.9 -1.74,-4.14 0.01,-5.76 5.68,-0.44 9.53,-5.04 13.12,-8.93 1.22,-1.85 2.15,-3.87 3.48,-5.65 0.31,-1.01 0.64,-2.02 0.99,-3.02 2.06,-5.4 2.08,-11.8 -0.49,-17.03 -0.1,-0.51 -0.3,-1.54 -0.4,-2.06 -2.41,-2.73 -3.62,-6.43 -6.62,-8.64 -7.39,-6.38 -18.48,-8.81 -27.66,-5.12 -1.01,0.36 -2.02,0.73 -3.03,1.11 -0.51,0.11 -1.53,0.33 -2.04,0.44 -1.29,1.05 -2.67,1.98 -4.07,2.85 -2.13,-2.43 -4.5,-4.61 -6.7,-6.96 1.54,-3.15 4.37,-5.34 6.13,-8.33 m 17.56,142.33 c 4.18,2.93 9.64,6.24 9.79,11.98 0.18,2.46 1.66,5.1 0.16,7.42 -0.1,0.52 -0.3,1.56 -0.4,2.08 -1.44,3.28 -4.37,5.38 -7.27,7.26 -0.56,0.09 -1.67,0.27 -2.22,0.36 -4.28,2.67 -10.29,3.82 -12.13,9.17 -0.8,3.52 -0.36,7.64 2.08,10.47 -0.46,0.56 -0.92,1.13 -1.37,1.69 -0.23,-2.96 -2.37,-5.44 -2.1,-8.49 -0.42,-2.88 1.11,-5.39 2.38,-7.83 2.62,-1.73 5.04,-4.03 8.27,-4.52 4.9,-2.51 12.04,-4.65 11.82,-11.45 -4.2,6.15 -12.32,9.61 -19.52,6.96 -6.7,0.63 -13.06,8.66 -10.09,15.32 0.11,0.5 0.34,1.52 0.45,2.03 1.87,2.49 3.5,5.32 6.22,7.01 1.5,0.93 2.84,2.08 3.96,3.45 0.47,-0.84 0.95,-1.67 1.47,-2.48 l 1.6,2.69 c -0.72,-3.69 -0.6,-7.46 0.72,-11 1.3,-1.43 2.7,-2.77 4.16,-4.03 7.9,-2.25 15.71,-7.06 19.41,-14.66 1.63,-3.73 1.9,-8.23 0.53,-12.06 -0.13,-0.52 -0.39,-1.54 -0.51,-2.05 -2.42,-4.3 -6.52,-7.38 -11.22,-8.8 -1.97,-0.84 -4.12,-0.68 -6.19,-0.52 z"
       id="path56"
       inkscape:connector-curvature="0"
       style="fill:#e7bc2a" />
    <path
       d="m 268.5,89.71 c 4.64,-1.68 9.88,-0.41 14.76,-0.69 -0.32,1.84 -0.92,3.6 -1.58,5.34 -3.86,-2.84 -8.46,-4.18 -13.18,-4.65 z"
       id="path58"
       inkscape:connector-curvature="0"
       style="fill:#e7bc2a" />
    <path
       d="m 261.39,93.88 c 3.65,-2.08 8.16,-2.55 12.17,-1.32 10.9,2.86 17,13.19 21.18,22.84 0.5,1.71 1.04,3.41 1.61,5.1 1.05,3.45 1.88,6.98 2.6,10.52 0.2,5.44 0.13,10.9 0.05,16.35 -3.01,-2.97 -6.32,-5.67 -9.97,-7.79 -0.01,-6.74 0.38,-13.55 -1.68,-20.07 -0.61,-2.02 -1.25,-4.03 -2.03,-5.98 -1.1,-4.09 -3.76,-7.47 -6,-10.98 -3.76,-5.94 -10.9,-9.53 -17.93,-8.67 z"
       id="path60"
       inkscape:connector-curvature="0"
       style="fill:#e7bc2a" />
    <path
       d="m 300.27,92.29 c 0.44,0.54 0.44,0.54 0,0 z"
       id="path62"
       inkscape:connector-curvature="0"
       style="fill:#e7bc2a" />
    <path
       d="m 302.52,92.95 c 0.61,0.05 1.84,0.13 2.45,0.18 11.7,4.2 20.86,13.53 26.8,24.27 0.69,3.21 2.71,5.91 3.62,9.06 1.48,5.4 2.9,10.8 2.94,16.42 1.9,4.71 -0.74,9.37 -0.34,14.16 -0.34,3.9 -1.75,7.64 -2.61,11.45 -0.35,1.01 -0.69,2.03 -1.02,3.05 -4.45,11.51 -10.76,22.61 -19.65,31.27 -4.9,2.21 -10.34,-1.62 -15.25,0.97 -0.55,0.09 -1.63,0.26 -2.18,0.35 -0.4,0.47 -1.21,1.4 -1.61,1.87 -1.68,0.01 -3.35,0.01 -5.02,0.01 6.15,-6.95 13.6,-12.74 19.09,-20.25 7.5,-7.39 12.58,-16.75 17,-26.2 0.61,-2.31 1.11,-4.65 1.55,-7 0.91,-3.11 1.03,-6.39 1.73,-9.54 -1.16,-7.98 -2.11,-16.11 -5.33,-23.57 -3.33,-7.3 -7.27,-14.42 -12.9,-20.21 -2.66,-2.69 -6.2,-4.17 -9.27,-6.29 z"
       id="path64"
       inkscape:connector-curvature="0"
       style="fill:#e7bc2a" />
    <path
       d="m 282.72,95.18 c 3.62,-2.02 7.76,-0.84 11.32,0.68 11.66,11.22 16.93,27.44 18.99,43.14 0.07,7.03 0.09,14.06 -0.03,21.09 0.23,1.35 -0.79,2.25 -1.56,3.19 -2.52,-5.16 -6.41,-9.61 -10.43,-13.65 -0.13,-5.88 0.18,-11.77 -0.12,-17.65 -0.87,-4.54 -1.75,-9.1 -3.18,-13.51 -1.74,-4.23 -2.95,-8.76 -5.67,-12.51 -2.01,-4.43 -6.17,-7.22 -9.32,-10.78 z"
       id="path66"
       inkscape:connector-curvature="0"
       style="fill:#e7bc2a" />
    <path
       d="m 156.73,98.74 c 2.29,-3.15 6.41,-2.96 9.87,-2.75 1.42,1.51 2.89,2.97 4.4,4.38 0.06,2.42 0.05,4.85 0.01,7.28 -2.21,2.16 -4.55,5.01 -8.03,4.46 -6.72,0.51 -10.68,-8.52 -6.25,-13.37 z"
       id="path68"
       inkscape:connector-curvature="0"
       style="fill:#e7bc2a" />
    <path
       d="m 257.54,96.16 c 4.85,-0.54 10.22,-1.18 14.48,1.8 6.25,4.35 9.81,11.53 12.35,18.51 0.34,1 0.68,2 1.03,3.01 1.8,6.09 1.83,12.41 1.68,18.71 -3.01,-1.54 -5.8,-3.53 -9.03,-4.58 -0.42,-6.04 1.03,-12.44 -1.76,-18.1 -2.2,-6.96 -6.19,-13.63 -12.74,-17.27 -2.15,-0.2 -4.28,-0.73 -6.01,-2.08 z"
       id="path70"
       inkscape:connector-curvature="0"
       style="fill:#e7bc2a" />
    <path
       d="m 453.37,96 c 3.02,-0.06 6.47,-0.55 8.88,1.71 4.28,3.34 3.66,10.9 -1.2,13.4 -2.32,1.47 -5.16,0.83 -7.73,0.86 -1.37,-1.49 -2.79,-2.92 -4.27,-4.28 -0.43,-2.45 -0.39,-4.93 0,-7.37 1.49,-1.39 2.92,-2.83 4.32,-4.32 z"
       id="path72"
       inkscape:connector-curvature="0"
       style="fill:#e7bc2a" />
    <path
       d="m 297.79,96.79 c 9.61,6.41 17.85,15.7 21.5,26.79 0.5,0.93 1,1.86 1.52,2.79 0.12,0.52 0.37,1.56 0.5,2.08 0.96,3.8 1.95,7.67 1.77,11.62 -0.03,6.54 0.61,13.48 -2.74,19.41 -0.91,3.64 -3.06,6.76 -5.06,9.88 -0.68,-2.01 -1.88,-4.15 -1.09,-6.32 1.6,-5.19 0.48,-10.7 0.81,-16.04 0.39,-7.26 -0.66,-14.53 -2.7,-21.49 -2.52,-10.53 -7.46,-20.49 -14.51,-28.72 z"
       id="path74"
       inkscape:connector-curvature="0"
       style="fill:#e7bc2a" />
    <path
       d="m 253.26,100.18 c 2.36,-0.43 4.82,-1.75 7.21,-0.74 7.61,2.35 12.04,9.86 14.32,17.06 0.13,0.49 0.38,1.47 0.51,1.96 1.52,4.42 0.47,9.25 0.73,13.84 -3.38,-1.03 -6.72,-2.19 -10.08,-3.27 1.79,-3.05 0.86,-6.71 1.08,-10.06 0.32,-3.42 -1.48,-6.44 -2.29,-9.65 -1.96,-2.08 -3.99,-4.07 -6.02,-6.07 -2.29,-0.7 -4.61,-1.3 -7.02,-1.36 0.39,-0.43 1.17,-1.28 1.56,-1.71 z"
       id="path76"
       inkscape:connector-curvature="0"
       style="fill:#e7bc2a" />
    <path
       d="m 380.45,102.58 c 5.92,-1.3 12.22,-0.86 18.09,0.63 6.32,2.67 11.97,7.43 13.89,14.24 2.45,8.82 -2.65,17.69 -8.3,24.12 2.37,-8.16 0.11,-17.56 -5.7,-23.73 -0.42,0.55 -1.26,1.66 -1.69,2.22 -2.33,0.05 -4.75,0.12 -6.82,-1.13 0.35,-2.29 -0.89,-5.37 1.42,-6.87 1.7,-0.32 3.72,-0.39 4.68,1.37 0.37,2.15 -1.89,3.04 -3.41,3.84 0.81,-1.08 1.68,-2.1 2.57,-3.11 -1.24,-0.91 -2.7,-1.17 -4.19,-1.21 0.25,2 -0.77,4.67 1.34,5.93 1.86,0.3 4.06,0.49 5.5,-1 0.98,-1.34 1.43,-2.97 2.07,-4.48 -1.55,-3.1 -4.31,-6.2 -7.97,-6.42 -2.36,-0.25 -4.02,1.63 -5.56,3.09 -0.89,-0.99 -1.78,-1.98 -2.66,-2.96 -0.57,-0.05 -1.71,-0.15 -2.28,-0.2 -1.1,-0.68 -2.2,-1.35 -3.29,-2.03 -0.55,1.77 -1.06,3.56 -1.33,5.39 -1.38,-1.32 -2.73,-2.65 -4.06,-4 2.43,-1.48 4.98,-2.8 7.7,-3.69 z"
       id="path78"
       inkscape:connector-curvature="0"
       style="fill:#e7bc2a" />
    <path
       d="m 366.74,107.6 c 4.08,2.83 6.19,7.59 9.46,11.23 3.71,6.09 7.5,12.15 10.54,18.61 0.3,1.02 0.6,2.05 0.91,3.08 1.94,4.61 3.79,9.42 3.41,14.53 1.27,6.2 1.45,12.69 0.06,18.91 0.19,6.74 -1.97,13.18 -3.83,19.56 -0.11,0.51 -0.34,1.54 -0.46,2.06 -0.52,0.94 -1.04,1.88 -1.54,2.83 -3.57,10.52 -10.57,19.68 -18.5,27.35 -1.99,2.01 -4.63,3.24 -6.47,5.41 -1.23,-3.59 -3.72,-6.86 -7.65,-7.6 2.16,-4.03 6.47,-6.31 8.89,-10.18 7.63,-8.78 14.05,-18.8 17.76,-29.88 0.33,-1.01 0.66,-2.03 1.01,-3.04 1.64,-5.33 2.88,-10.77 2.89,-16.36 2.08,-5.98 -0.62,-12.03 -0.34,-18.1 -0.71,-3.53 -1.46,-7.08 -2.63,-10.48 -0.12,-0.51 -0.37,-1.51 -0.5,-2.02 -0.52,-1.32 -1,-2.66 -1.46,-4.01 -2.82,-7.77 -6.9,-15.08 -11.55,-21.9 z"
       id="path80"
       inkscape:connector-curvature="0"
       style="fill:#e7bc2a" />
    <path
       d="m 379.09,107.99 c 1.16,0.54 2.38,0.94 3.64,1.2 0.77,0.83 1.78,1.54 2.21,2.63 -0.89,2.28 -1.36,4.75 -0.83,7.18 2.38,5.95 6.36,11.26 8.05,17.46 -2.55,-2.65 -3.34,-6.42 -5.2,-9.52 -2.87,-4.97 -5.16,-10.35 -8.87,-14.76 0.36,-1.39 0.74,-2.78 1,-4.19 z"
       id="path82"
       inkscape:connector-curvature="0"
       style="fill:#e7bc2a" />
    <path
       d="m 149.38,112 c 3.46,-0.22 7.64,-0.46 9.92,2.75 4.07,4.58 0.96,12.94 -5.28,13.33 -3.75,0.74 -6.69,-1.91 -9.03,-4.43 -0.08,-2.43 -0.09,-4.86 0.01,-7.28 1.51,-1.41 2.97,-2.86 4.38,-4.37 z"
       id="path84"
       inkscape:connector-curvature="0"
       style="fill:#e7bc2a" />
    <path
       d="m 463.38,112.01 c 2.42,-0.05 4.84,-0.05 7.26,0 1.37,1.5 2.82,2.94 4.34,4.31 0.06,2.45 0.06,4.9 0.02,7.35 -2.38,2.47 -5.3,5.13 -9.05,4.4 -5.7,-0.37 -8.81,-7.44 -6.28,-12.21 1.15,-1.36 2.47,-2.57 3.71,-3.85 z"
       id="path86"
       inkscape:connector-curvature="0"
       style="fill:#e7bc2a" />
    <path
       d="m 221.24,129.46 c 0.94,-4.17 3.5,-7.8 7.48,-9.56 2.56,3.09 4.71,6.48 7.22,9.6 0.03,3.39 0.75,7.03 -0.96,10.15 -1.29,0.56 -2.44,1.35 -3.53,2.23 -2.72,0.18 -5.44,0.17 -8.17,0.14 -1.28,-1.53 -2.81,-3.03 -3.24,-5.06 -0.38,-2.57 0.61,-5.04 1.2,-7.5 z"
       id="path88"
       inkscape:connector-curvature="0"
       style="fill:#e7bc2a" />
    <path
       d="m 202.55,124.04 c 4.47,1.33 8.53,4.27 11.67,7.72 -0.67,0.24 -2.03,0.73 -2.71,0.97 -4.32,1.09 -8.45,2.77 -12.5,4.58 -0.25,-3.35 0.08,-6.72 1.23,-9.89 0.78,-1.12 1.52,-2.26 2.31,-3.38 z"
       id="path90"
       inkscape:connector-curvature="0"
       style="fill:#e7bc2a" />
    <path
       d="m 140.36,128.99 c 3.66,-0.27 7.51,-0.38 10.44,2.18 1.66,2.9 1.29,6.26 1.21,9.46 -2.18,2.17 -4.56,4.94 -8,4.46 -4.37,0.29 -8.38,-3.75 -8.11,-8.11 -0.33,-3.37 2.31,-5.8 4.46,-7.99 z"
       id="path92"
       inkscape:connector-curvature="0"
       style="fill:#e7bc2a" />
    <path
       d="m 469.78,130.77 c 2.6,-2.63 6.58,-1.71 9.89,-1.76 2.98,2.54 5.56,6.58 3.77,10.57 -0.46,2.65 -2.89,3.96 -4.87,5.39 -2.72,0.02 -5.89,0.59 -7.96,-1.65 -4.05,-2.78 -3.77,-9.08 -0.83,-12.55 z"
       id="path94"
       inkscape:connector-curvature="0"
       style="fill:#e7bc2a" />
    <path
       d="m 237.94,130.91 c 9.29,-0.11 18.67,0.03 27.62,2.75 1.33,0.28 2.66,0.57 3.96,1 0.5,0.16 1.5,0.46 2,0.62 1.01,0.34 2.03,0.67 3.06,0.99 4.8,2.51 9.93,4.5 14.15,7.98 10.37,7.43 18.31,17.69 24.51,28.75 -1.39,1.67 -2.58,3.49 -3.69,5.35 -2.54,-3.35 -3.78,-7.44 -5.99,-10.98 -3.55,-4.42 -6.5,-9.35 -10.81,-13.12 -6.61,-5.69 -13.91,-10.75 -22.24,-13.56 -1.01,-0.35 -2.02,-0.7 -3.02,-1.04 -1.66,-0.44 -3.33,-0.82 -4.97,-1.31 -4.65,-2 -9.79,-0.77 -14.56,-2.16 -2.97,0.45 -5.93,1.03 -8.95,0.89 -0.03,-2.1 0.13,-4.31 -1.07,-6.16 z"
       id="path96"
       inkscape:connector-curvature="0"
       style="fill:#e7bc2a" />
    <path
       d="m 210.5,135.68 c 2.46,-0.79 4.99,-1.39 7.53,-1.91 0.01,1.95 0.02,3.9 0.04,5.85 1.46,1.4 2.89,2.83 4.29,4.29 0.57,0.03 1.72,0.1 2.3,0.13 5.29,5.18 9.1,11.72 12.02,18.48 0.37,3.32 2.04,6.63 1.03,9.98 -0.72,2.47 -0.89,5.36 -2.9,7.22 -6.53,6.87 -14.72,11.98 -23.22,16.06 -3.92,1.05 -7.84,2.41 -11.96,2.28 6.27,-6.07 11.5,-13.1 16.08,-20.5 0.14,-0.51 0.43,-1.55 0.58,-2.06 0.73,-1.4 0.7,-2.99 0.8,-4.51 -8.61,-0.57 -16.08,5 -22.57,10 -2.81,0.29 -5.71,0.05 -7.98,-1.79 -0.53,-0.07 -1.6,-0.23 -2.13,-0.31 -4.09,-2.39 -8.04,-5.19 -10.8,-9.11 5.08,3.23 10.06,6.78 15.88,8.6 3.27,1.68 6.18,-1.53 8.88,-2.98 5.74,-2.92 11.53,-6.93 18.28,-6.44 1,1.31 2.11,2.54 3.51,3.43 -0.69,-1.47 -1.16,-3.17 -2.48,-4.21 -2.7,-0.32 -5.62,-0.62 -8.17,0.54 -0.52,0.13 -1.57,0.39 -2.09,0.52 -5.25,2.66 -10.55,5.21 -15.32,8.67 -4.08,-1.04 -7.76,-3.18 -11.42,-5.18 4.47,-4.76 10.1,-8.14 15.22,-12.12 0.49,-1.44 -1.51,-2.3 -2.12,-3.43 -2.11,-1.95 -1.9,-4.92 -1.83,-7.53 0.34,0.33 1.03,0.98 1.37,1.3 2.79,-1.58 5.88,-3.7 9.25,-2.77 4.28,2.28 8.26,6.08 13.41,5.88 0.01,-0.71 0.02,-2.14 0.03,-2.86 -3.87,0.12 -7.3,-1.69 -10.37,-3.85 -3.8,-2.7 -8.68,-1.26 -12.36,0.91 -0.28,-1.42 -0.65,-2.8 -1.22,-4.12 3.91,-3.21 8.71,-5.12 13.42,-6.84 1,-0.34 2,-0.69 3.01,-1.05 0.5,-0.14 1.5,-0.42 2.01,-0.57 m -16.67,16.54 c -0.48,5.05 4.96,9.53 9.82,7.74 1.38,-1.57 2.89,-3.02 4.47,-4.39 -2.21,-2.52 -5.04,-4.56 -8.29,-5.45 -2.23,-0.26 -4.14,1.11 -6,2.1 z"
       id="path98"
       inkscape:connector-curvature="0"
       style="fill:#e7bc2a" />
    <path
       d="m 237.44,140.21 c 9.28,-2.65 18.96,-0.86 28.09,1.49 0.51,0.12 1.53,0.38 2.04,0.51 4.8,2.27 9.9,3.97 14.32,7 10.05,6.44 18.18,15.89 23.13,26.75 0.8,1.87 3,4.13 1.07,6.07 -6.62,7.97 -15.11,14.32 -21.36,22.61 -8.01,8.3 -14.98,18 -19.04,28.88 -0.35,0.99 -0.7,1.98 -1.05,2.98 -0.34,1.3 -0.64,2.62 -0.95,3.93 -1.15,2.57 -0.33,5.46 -1.04,8.13 -1.63,5.79 0.07,11.74 1.08,17.47 2.85,10.15 9.93,19.52 19.84,23.56 -2.92,1.29 -5.46,-1.2 -7.99,-2.29 -4.3,-2.1 -7.38,-5.85 -11.3,-8.49 -5.71,-6.14 -10.4,-13.3 -13.06,-21.3 -0.64,-3.18 -1.6,-6.28 -2.16,-9.46 -0.7,-11.78 1.77,-23.36 3.19,-34.99 1.37,-4.58 0.53,-9.4 0.78,-14.09 0.38,-8.05 -6.43,-14.13 -13.2,-17.17 4.62,-4.22 6.29,-11.36 4.52,-17.3 -1.81,-7.37 -5.31,-14.19 -10.14,-20.02 -1.38,-2.17 2.07,-3.06 3.23,-4.27 z"
       id="path100"
       inkscape:connector-curvature="0"
       style="fill:#e7bc2a" />
    <path
       d="m 228.12,144.01 c 1.2,-0.02 2.4,-0.03 3.6,-0.03 3.08,3.87 5.41,8.22 8.03,12.4 1.07,4.57 3.74,8.82 3.33,13.66 0.38,3.33 -1.66,6.1 -3.02,8.95 -0.48,1.49 -1.93,2.13 -3.38,2.26 1.38,-3.31 2.75,-6.64 3.19,-10.24 -0.02,-8.65 -4.27,-16.7 -9.64,-23.3 -1,-1.06 -1.53,-2.41 -2.11,-3.7 z"
       id="path102"
       inkscape:connector-curvature="0"
       style="fill:#e7bc2a" />
    <path
       d="m 133.29,147.17 c 2.75,-1.2 5.64,-1.22 8.39,0.02 1.07,1.04 2.14,2.08 3.21,3.13 0.1,0.53 0.29,1.6 0.38,2.13 0.89,1.27 0.91,2.85 -0.01,4.11 -0.08,0.53 -0.25,1.59 -0.33,2.12 -1.77,1.68 -3.47,3.76 -5.99,4.27 -4.35,0.89 -8.19,-2.63 -9.77,-6.37 -0.88,-3.69 1.32,-7.2 4.12,-9.41 z"
       id="path104"
       inkscape:connector-curvature="0"
       style="fill:#e7bc2a" />
    <path
       d="m 478.3,147.16 c 2.76,-1.07 5.64,-1.07 8.41,0 1.03,1.06 2.07,2.11 3.11,3.16 2.79,5 -0.51,11.34 -5.89,12.64 -3.99,0.82 -7.61,-2.16 -9.33,-5.5 -1.42,-2.28 0.09,-4.83 0.58,-7.14 1.03,-1.06 2.08,-2.11 3.12,-3.16 z"
       id="path106"
       inkscape:connector-curvature="0"
       style="fill:#e7bc2a" />
    <path
       d="m 182.71,161.73 c 2.76,-2.56 5.32,-5.33 8,-7.98 0.52,2.4 2.01,4.33 3.43,6.27 -4.34,4.4 -10.29,7.43 -14.61,12.05 -1.84,-1.27 -3.69,-2.58 -5.76,-3.48 2.68,-2.67 5.98,-4.55 8.94,-6.86 z"
       id="path108"
       inkscape:connector-curvature="0"
       style="fill:#e7bc2a" />
    <path
       d="m 398.96,160.8 c 3.59,0.5 7.37,0.98 10.5,2.97 0.54,0.11 1.61,0.33 2.14,0.43 1.8,1.98 4.54,2.97 5.88,5.37 1.27,1.85 2.29,3.86 3.34,5.85 0.13,0.53 0.4,1.57 0.53,2.09 0.78,2.77 0.98,5.67 1.63,8.48 -1.03,4.14 -1.1,8.5 -2.71,12.5 -0.1,0.53 -0.31,1.58 -0.42,2.11 -1.56,2.23 -2.89,4.62 -4.3,6.94 -3.93,5.63 -10.08,9.03 -16.02,12.15 -1.71,0.53 -3.38,1.19 -4.98,2.01 -1.31,0.47 -2.63,0.94 -3.94,1.41 0.6,-1.58 1.31,-3.12 2.18,-4.57 0.1,-0.52 0.29,-1.56 0.39,-2.09 0.82,-1.42 1.52,-2.91 2.14,-4.43 5.28,0.11 10.93,-1.13 14.97,-4.72 4.03,-4.77 5.84,-11.16 5.8,-17.34 0.74,-3.54 0.69,-8.8 5.31,-9.45 -1.72,-2.89 -5.07,-4.63 -8.4,-4.68 0.27,-3.38 -0.31,-6.71 -1.28,-9.93 -4.68,0.11 -9.88,2.04 -11.68,6.74 -0.33,-3.94 0.74,-8.16 -1.08,-11.84 z"
       id="path110"
       inkscape:connector-curvature="0"
       style="fill:#e7bc2a" />
    <path
       d="m 125.17,168.25 c 3.22,-4.14 9.67,-4.51 13.55,-1.1 0.88,2.39 3.1,4.74 2.02,7.45 -0.99,2.16 -1.9,4.81 -4.28,5.79 -3.83,1.61 -8.69,0.76 -11.25,-2.68 -1.38,-3.1 -1.35,-6.34 -0.04,-9.46 z"
       id="path112"
       inkscape:connector-curvature="0"
       style="fill:#e7bc2a" />
    <path
       d="m 480.1,169.27 c 2.12,-5.42 9.74,-5.61 13.62,-2.05 0.83,2.19 2.73,4.21 2.23,6.71 -0.54,1.69 -1.49,3.21 -2.26,4.79 -1.08,0.72 -2.14,1.46 -3.18,2.22 -2.76,0.08 -5.84,0.59 -8.21,-1.2 -2.55,-2.72 -4.67,-7.01 -2.2,-10.47 z"
       id="path114"
       inkscape:connector-curvature="0"
       style="fill:#e7bc2a" />
    <path
       d="m 393.99,167.89 1,0.07 c 0.06,6.01 0.06,12.03 0.06,18.04 -0.73,7.97 -2.43,15.82 -4.67,23.52 -3.94,11.07 -10.06,21.27 -17.61,30.26 -2.51,2.23 -4.61,4.83 -6.51,7.59 -1.23,-2.82 -1.13,-6.15 -3.08,-8.65 -0.95,-1.67 -2.82,-3.26 -2.13,-5.37 8.25,-5.8 14.68,-13.83 20.18,-22.2 1.62,-2.45 2.52,-5.33 4.44,-7.59 0.74,-3.21 2.81,-5.89 3.65,-9.07 2.71,-8.6 5.08,-17.52 4.67,-26.6 z"
       id="path116"
       inkscape:connector-curvature="0"
       style="fill:#e7bc2a" />
    <path
       d="m 196.71,181.71 c 4.13,-4.1 9.55,-6.36 14.67,-8.92 -1.85,2.61 -4.31,4.7 -6.88,6.57 -0.92,1.47 -2.17,2.68 -3.52,3.75 -1.42,-0.48 -2.84,-0.95 -4.27,-1.4 z"
       id="path118"
       inkscape:connector-curvature="0"
       style="fill:#e7bc2a" />
    <path
       d="m 400.85,172.47 c 2.1,1.75 2.34,4.49 2.13,7.04 -0.99,1.37 -1.69,2.92 -2.28,4.49 l -0.96,-0.02 c 0.64,-1.71 1.48,-3.34 2.16,-5.03 0.47,-2.23 -0.63,-4.35 -1.05,-6.48 z"
       id="path120"
       inkscape:connector-curvature="0"
       style="fill:#e7bc2a" />
    <path
       d="m 406.05,181.46 c 1.66,-2.46 3.45,-5.1 6.61,-5.7 -1.78,2.21 -5.27,3.1 -5.54,6.35 -0.22,4.27 -0.47,8.65 0.64,12.82 0.84,3.37 0.28,7.51 -2.86,9.52 0.46,-1.33 0.97,-2.63 1.49,-3.93 0.81,-2.27 1.08,-4.96 -0.27,-7.09 -0.27,-3.99 -0.18,-7.98 -0.07,-11.97 z"
       id="path122"
       inkscape:connector-curvature="0"
       style="fill:#e7bc2a" />
    <path
       d="m 202.8,191.42 c 1.2,-6.54 6.89,-10.72 11.52,-14.89 -2.72,5.75 -7.63,9.97 -11.52,14.89 z"
       id="path124"
       inkscape:connector-curvature="0"
       style="fill:#e7bc2a" />
    <path
       d="m 125.34,184.15 c 1.47,-0.23 2.92,-0.52 4.36,-0.9 1.33,0.34 2.66,0.65 4.01,0.93 1.72,1.68 3.71,3.39 4.24,5.86 0.88,4.32 -2.57,8.22 -6.34,9.76 -5.93,1.76 -12.77,-5.3 -9.97,-11.11 0.7,-1.89 2.31,-3.18 3.7,-4.54 z"
       id="path126"
       inkscape:connector-curvature="0"
       style="fill:#e7bc2a" />
    <path
       d="m 486.37,183.99 c 3.29,0.19 7.36,-1.07 9.91,1.69 1.95,2.25 3.49,5.67 2.06,8.58 -1.44,3.59 -5.35,6.49 -9.34,5.7 -4.26,-1.12 -7.79,-5.42 -6.96,-9.95 0.58,-2.51 2.67,-4.2 4.33,-6.02 z"
       id="path128"
       inkscape:connector-curvature="0"
       style="fill:#e7bc2a" />
    <path
       d="m 191.05,196.13 c 2.67,-1.5 4.9,-3.59 7.24,-5.54 -2.22,6.73 -8.63,10.74 -13.23,15.75 -0.04,1.46 -0.07,2.91 -0.09,4.37 1.5,0.55 3,1.1 4.51,1.63 2.17,0.66 4.53,0.87 6.53,2.04 -0.46,1.83 -1.73,3.97 -0.03,5.59 2.19,2.68 4.02,6 2.82,9.57 -2.08,6.28 -11.18,5.33 -13.13,11.74 -1.56,-1.76 -3.82,-3.59 -3.61,-6.18 0.59,-2.02 1.85,-3.77 2.65,-5.7 -1.92,-5.14 -5.9,-9.21 -7.61,-14.44 -0.19,-3.7 -1.03,-8.07 1.69,-11.1 3.34,-3.61 8.27,-5.01 12.26,-7.73 z"
       id="path130"
       inkscape:connector-curvature="0"
       style="fill:#e7bc2a" />
    <path
       d="m 121.06,206.26 c 3.69,-4.57 11.2,-4.58 14.89,0.01 0.08,0.54 0.24,1.63 0.32,2.18 2.44,4.79 -2.36,10.33 -7.28,10.61 -3.25,0.34 -5.9,-2 -7.85,-4.31 -0.32,-2.07 -1.91,-4.33 -0.4,-6.27 0.08,-0.56 0.24,-1.66 0.32,-2.22 z"
       id="path132"
       inkscape:connector-curvature="0"
       style="fill:#e7bc2a" />
    <path
       d="m 487.36,203 c 4.12,-0.39 8.78,-0.4 11.51,3.28 0.25,1.49 0.58,2.96 0.94,4.42 -0.37,1.33 -0.71,2.66 -1,4.01 -1.83,1.93 -3.89,4.26 -6.76,4.33 -4.56,0.26 -8.8,-3.44 -9.04,-8 -0.01,-3.27 2.01,-5.97 4.35,-8.04 z"
       id="path134"
       inkscape:connector-curvature="0"
       style="fill:#e7bc2a" />
    <path
       d="m 126.37,222.2 c 2.74,-0.6 5.94,-0.7 8.31,1.03 2.42,1.94 3.93,5.28 3.15,8.38 -1.18,2.74 -3.4,5.07 -6.2,6.18 -6.2,1.91 -13.28,-5.95 -9.72,-11.77 0.87,-1.84 2.57,-3.16 4.46,-3.82 z"
       id="path136"
       inkscape:connector-curvature="0"
       style="fill:#e7bc2a" />
    <path
       d="m 486.34,222 c 3.91,-0.22 9.27,-0.81 11.15,3.59 1.93,2.46 1.4,5.43 0.35,8.13 -2.43,3.05 -6.41,5.66 -10.36,3.72 -2.69,-0.46 -3.84,-3.03 -5.43,-4.9 -0.96,-4.2 1.15,-7.94 4.29,-10.54 z"
       id="path138"
       inkscape:connector-curvature="0"
       style="fill:#e7bc2a" />
    <path
       d="m 130.44,240.2 c 4.11,-1.2 8.31,1.79 9.94,5.45 2.66,5.79 -4,12.93 -9.97,11.14 -3.75,-1.53 -7.22,-5.39 -6.36,-9.69 0.81,-3.16 3.41,-5.69 6.39,-6.9 z"
       id="path140"
       inkscape:connector-curvature="0"
       style="fill:#e7bc2a" />
    <path
       d="m 479.19,250.55 c -1.6,-5.69 4.64,-11.94 10.33,-10.36 2.2,0.71 3.74,2.51 5.31,4.11 1.19,2.75 1.2,5.64 0,8.4 -2.21,2.8 -5.75,5.02 -9.44,4.11 -2.76,-1.19 -5.13,-3.42 -6.2,-6.26 z"
       id="path142"
       inkscape:connector-curvature="0"
       style="fill:#e7bc2a" />
    <path
       d="m 229.53,246.61 c 2.94,-1.51 6.22,-0.23 9.15,0.58 0.79,0.73 1.58,1.45 2.38,2.17 0,2.48 0.31,5.2 -1.31,7.3 -3.07,4.84 -11.25,4.52 -13.87,-0.61 -2.34,-3.42 0.21,-7.99 3.65,-9.44 z"
       id="path144"
       inkscape:connector-curvature="0"
       style="fill:#e7bc2a" />
    <path
       d="m 218.5,253.82 c 1.6,-1.34 3.01,-2.89 4.63,-4.21 -0.21,1.03 -0.42,2.05 -0.64,3.08 0.24,1.29 0.47,2.59 0.68,3.9 1.14,2.47 3.06,4.69 5.82,5.31 2.54,0.33 5.11,0.13 7.67,0.1 4.26,5.04 9.81,8.86 15.75,11.66 1.04,0.34 2.08,0.69 3.11,1.06 0.54,0.09 1.62,0.28 2.16,0.38 4.1,3.96 7.67,8.63 12.7,11.48 2.59,1.65 5.63,2.52 8.02,4.49 -6.94,-1.51 -14.28,-0.79 -20.93,-3.73 -9.56,-3.07 -17.7,-10.16 -21.83,-19.34 -2.58,1.36 -5.53,1.06 -8.34,1.03 -0.43,-0.57 -1.28,-1.7 -1.7,-2.26 -1.53,1.61 -2.43,3.64 -2.87,5.8 -1.36,2.76 -2.64,6.26 -5.85,7.3 -3.64,0.41 -7.32,0.18 -10.96,-0.13 2.66,-2.57 4.74,-5.85 5.24,-9.57 4.02,-1.03 7.97,-2.36 10.86,-5.53 -0.02,-0.74 -0.06,-2.24 -0.08,-2.98 -1.47,0.52 -2.71,1.44 -3.71,2.62 -1.92,2.34 -5.13,2.64 -7.92,2.92 -0.73,0.71 -1.46,1.42 -2.18,2.15 0.16,2.51 -0.91,4.74 -2.33,6.73 -2.12,-0.09 -4.35,0.2 -6.32,-0.76 -0.52,-0.13 -1.54,-0.38 -2.06,-0.5 -2.72,-1.27 -5.38,-2.77 -7.27,-5.16 -0.15,-1.82 -0.83,-3.55 -1.03,-5.35 0.58,-1.2 1.34,-2.28 2.06,-3.39 7.61,-0.16 15.24,0.34 22.84,-0.05 3.68,-0.27 6.06,-3.33 8.31,-5.89 -1.06,-0.2 -2.71,-1.86 -3.36,-0.09 -0.88,1.22 -2.05,2.16 -3.31,2.96 -3.93,0.7 -7.89,1.83 -11.82,0.45 -5.64,-0.19 -12.57,-1.92 -16.8,2.93 -0.19,3.69 -0.45,7.65 1.98,10.75 1.86,3.93 7.03,3.76 9.44,7.11 -3.59,0.09 -6.61,-2.13 -9.55,-3.9 -6.41,-4.16 -8.12,-13.77 -3.49,-19.83 2.81,-0.97 5.45,-2.76 8.56,-2.41 8.16,0.25 16.49,-0.71 24.52,0.87 z"
       id="path146"
       inkscape:connector-curvature="0"
       style="fill:#e7bc2a" />
    <path
       d="m 243.14,250.93 c 1.18,0.04 2.37,0.07 3.56,0.12 0.87,3.18 1.75,6.39 3.09,9.42 0.11,0.52 0.31,1.56 0.42,2.08 1.77,3.17 3.22,6.51 5.05,9.65 -6.22,-2.67 -11.69,-6.7 -16.34,-11.59 2.87,-2.38 4.28,-6 4.22,-9.68 z"
       id="path148"
       inkscape:connector-curvature="0"
       style="fill:#e7bc2a" />
    <path
       d="m 131.19,261.2 c 2.2,-2.86 6.15,-2.53 9.32,-2.01 4.52,1.52 6.48,7.4 4.33,11.55 -2.05,2.27 -4.46,5 -7.9,4.35 -6.8,0.46 -10.43,-9.3 -5.75,-13.89 z"
       id="path150"
       inkscape:connector-curvature="0"
       style="fill:#e7bc2a" />
    <path
       d="m 475.07,262.26 c 2.07,-2.18 4.85,-3.83 7.98,-3.37 4.56,-0.43 7.55,4.09 7.93,8.12 -0.46,2.64 -1.61,5.54 -4.13,6.85 -2.1,1.68 -4.91,1.1 -7.38,1.12 -3.31,-2.15 -7.01,-6.46 -4.73,-10.53 0.08,-0.55 0.25,-1.65 0.33,-2.19 z"
       id="path152"
       inkscape:connector-curvature="0"
       style="fill:#e7bc2a" />
    <path
       d="m 136.41,287.47 c -2.18,-5.39 2.92,-11.65 8.49,-11.36 2.77,0.94 6.12,2.2 6.91,5.38 0.48,2.36 0.2,4.79 0.18,7.19 -2.22,2.07 -4.64,4.86 -8.03,4.35 -3.1,-0.54 -6.91,-2.05 -7.55,-5.56 z"
       id="path154"
       inkscape:connector-curvature="0"
       style="fill:#e7bc2a" />
    <path
       d="m 467.39,284.37 c 0.31,-4.32 3.58,-7.52 7.75,-8.29 5.74,-0.2 11.21,6.66 7.95,12 -0.97,3 -4.16,4.49 -7.05,4.96 -3.35,0.45 -5.84,-2.16 -7.92,-4.37 -0.19,-1.45 -0.41,-2.88 -0.73,-4.3 z"
       id="path156"
       inkscape:connector-curvature="0"
       style="fill:#e7bc2a" />
    <path
       d="m 305.61,286.58 c 4.49,-2.65 10.21,-1.95 14.97,-0.36 1.31,1.06 2.66,2.08 4.03,3.09 0.66,1.13 1.45,2.18 2.34,3.15 0.1,2.02 0.09,4.04 0.04,6.07 -2.59,4.19 -7.18,6.15 -11.41,8.23 -1.64,0.47 -3.27,0.97 -4.91,1.43 1.15,-3.64 3.85,-7.1 3.2,-11.08 -1.17,-4.34 -3.64,-9.15 -8.26,-10.53 z"
       id="path158"
       inkscape:connector-curvature="0"
       style="fill:#e7bc2a" />
    <path
       d="m 296.47,289.27 c 3.41,-1.43 7.74,-2.31 10.76,0.44 3.18,2.8 5.95,7.55 4.18,11.82 -0.67,2.94 -2.4,5.4 -4.69,7.32 -4.63,1.44 -9.54,1.43 -14.33,1.59 0.78,-0.96 1.58,-1.91 2.39,-2.85 0.27,-1.89 0.78,-3.72 1.2,-5.57 0.02,-2.28 -0.87,-4.45 -1.19,-6.69 -1.32,-1.57 -2.83,-2.99 -4.78,-3.72 l 0,-0.41 c 1.18,-0.25 2.35,-0.53 3.52,-0.83 0.98,-0.36 1.96,-0.73 2.94,-1.1 z"
       id="path160"
       inkscape:connector-curvature="0"
       style="fill:#e7bc2a" />
    <path
       d="m 149.94,293.91 c 2.17,-1.3 4.54,-0.4 6.74,0.25 1.42,1.42 2.85,2.82 4.31,4.2 0.02,2.05 0.01,4.1 -0.02,6.15 -1.5,1.97 -3.02,4.1 -5.51,4.88 -2.29,1.4 -4.85,-0.09 -7.18,-0.54 -5.11,-3.46 -4.8,-13.24 1.66,-14.94 z"
       id="path162"
       inkscape:connector-curvature="0"
       style="fill:#e7bc2a" />
    <path
       d="m 257.9,298.95 c 2.11,-2.96 5.07,-6.19 9.03,-6.04 2.97,-0.22 5.86,0.66 8.74,1.25 1.11,1.08 2.22,2.15 3.35,3.21 0.24,2.85 -0.32,5.63 -1.21,8.33 -2.62,3.47 -6.55,5.49 -10.75,6.34 -3.8,0.62 -7.76,-1.82 -8.8,-5.54 -0.75,-2.39 -2.13,-5.28 -0.36,-7.55 z"
       id="path164"
       inkscape:connector-curvature="0"
       style="fill:#e7bc2a" />
    <path
       d="m 278.88,294.12 c 3.95,-0.6 8.55,-2.54 12.21,-0.05 3.84,3.91 3.51,10.24 0.57,14.58 -3.35,2.98 -7.7,0.4 -11.5,0.28 -0.29,-0.45 -0.87,-1.35 -1.16,-1.8 2.13,-4.05 3.19,-9.26 -0.12,-13.01 z"
       id="path166"
       inkscape:connector-curvature="0"
       style="fill:#e7bc2a" />
    <path
       d="m 459.05,298.45 c 1.81,-3.09 5.04,-5.3 8.66,-5.2 2.48,0.84 5.62,1.53 6.69,4.26 1.62,3.88 0.71,8.7 -2.68,11.35 -2.84,0.89 -5.9,1.74 -8.63,0.03 -4.25,-1.55 -4.51,-6.64 -4.04,-10.44 z"
       id="path168"
       inkscape:connector-curvature="0"
       style="fill:#e7bc2a" />
    <path
       d="m 249,303.84 c 2.12,-0.64 3.99,-1.9 5.91,-2.98 0.79,2.36 1.01,4.88 2.01,7.17 1.57,2.35 3.63,4.48 6.34,5.46 -3.01,4.32 -4.69,9.52 -8.48,13.29 -3.03,2.98 -5.88,6.36 -9.85,8.13 -1.79,0.24 -3.61,0.09 -5.41,0.1 3.93,-1.94 5.91,-6.54 5.51,-10.77 4.42,-2.17 7.2,-6.27 10.18,-9.98 -0.86,-0.54 -1.74,-1.05 -2.63,-1.54 -2.04,4.03 -5.6,7.37 -9.42,9.71 -0.24,3.45 -1.42,6.79 -3.38,9.64 -2.46,-0.03 -4.93,-0.03 -7.39,-0.07 -4.45,-3.8 -8.87,-9.89 -6.38,-15.93 0.5,-2.39 2.88,-3.53 5.04,-3.97 4.97,-0.4 9.97,0.21 14.94,-0.22 2.24,-0.75 4.24,-2.07 6.31,-3.18 -0.74,-0.68 -1.52,-1.31 -2.33,-1.87 -0.83,0.63 -1.64,1.3 -2.42,2 -1.88,0.2 -3.73,0.55 -5.56,0.98 -3.22,0.93 -6.4,-1.18 -9.61,-0.43 -2.74,0.57 -6.06,0.65 -7.62,3.39 -2.46,2.65 -1.62,6.44 -1.84,9.71 -2.56,-4 -5.01,-8.51 -3.86,-13.44 0.3,-3.51 4.27,-4.1 6.99,-4.89 7.63,-0.55 15.32,0.15 22.95,-0.31 z"
       id="path170"
       inkscape:connector-curvature="0"
       style="fill:#e7bc2a" />
    <path
       d="m 365.45,302.16 c 2.91,-1.7 0.33,3.29 0,0 z"
       id="path172"
       inkscape:connector-curvature="0"
       style="fill:#e7bc2a" />
    <path
       d="m 322.6,306.61 c 2.17,-1.2 4.1,-4.35 6.88,-3.31 5.12,1.04 10.28,2.14 15.54,1.69 -0.01,1.57 -0.01,3.15 0.01,4.74 -2.37,2.37 -5.6,3.44 -8.46,5.08 -0.51,0.12 -1.54,0.35 -2.06,0.47 -2.32,0.77 -4.72,1.28 -7.03,2.08 -6.67,1.94 -13.66,2.16 -20.43,3.57 -6.02,0.14 -12.05,0.13 -18.07,0 -6.13,-1.39 -12.65,-1.55 -18.43,-4.18 3.16,-1.18 4.72,-4.18 6.59,-6.75 1.43,0.62 2.89,1.17 4.35,1.74 6.27,2.2 13.03,0.98 19.53,1.23 7.36,-1.37 14.93,-2.72 21.58,-6.36 z"
       id="path174"
       inkscape:connector-curvature="0"
       style="fill:#e7bc2a" />
    <path
       d="m 348.47,305.2 c 5.5,-0.35 10.9,-1.48 16.33,-2.34 -2.31,2.29 -5.8,2.25 -8.78,3.03 -2.48,0.06 -5.37,0.81 -7.55,-0.69 z"
       id="path176"
       inkscape:connector-curvature="0"
       style="fill:#e7bc2a" />
    <path
       d="m 367.37,307.01 c 2.71,0.02 5.64,-0.6 8.16,0.71 0.54,0.1 1.62,0.3 2.16,0.4 0.77,0.52 1.51,1.1 2.21,1.74 -0.73,1.81 -0.99,3.74 -0.92,5.7 0.79,0.79 1.58,1.6 2.36,2.42 -4.81,-0.2 -10.13,1.11 -14.35,-1.89 -2.96,-0.96 -2.02,-4.37 -2,-6.71 0.79,-0.79 1.59,-1.58 2.38,-2.37 z"
       id="path178"
       inkscape:connector-curvature="0"
       style="fill:#e7bc2a" />
    <path
       d="m 159.97,309.88 c 2.42,-1.74 5.23,-0.31 7.77,0.26 4.63,3.61 4.52,11.17 -0.01,14.81 -0.55,0.07 -1.64,0.23 -2.19,0.31 -3.55,2.02 -8.32,-0.75 -9.77,-4.23 -2.23,-4.03 -0.11,-9.59 4.2,-11.15 z"
       id="path180"
       inkscape:connector-curvature="0"
       style="fill:#e7bc2a" />
    <path
       d="m 454.48,309.71 c 2.46,-1.61 5.3,0.17 7.6,1.26 4.45,3.73 3.63,12 -2,14.12 -2.42,1.75 -5.23,0.41 -7.75,-0.27 -1.08,-1.05 -2.15,-2.1 -3.2,-3.17 -0.15,-1.39 -0.31,-2.79 -0.79,-4.11 0.4,-1.38 0.64,-2.8 0.83,-4.21 1.04,-1.09 2.11,-2.16 3.17,-3.23 0.54,-0.1 1.6,-0.29 2.14,-0.39 z"
       id="path182"
       inkscape:connector-curvature="0"
       style="fill:#e7bc2a" />
    <path
       d="m 172.52,324.2 c 3.12,-0.86 6.75,-0.02 8.81,2.58 2.05,2.42 2.12,5.83 1.46,8.78 -0.83,3.14 -4.17,4.42 -6.92,5.37 -3.63,0.01 -6.69,-2.49 -8.6,-5.39 -1.41,-4.41 0.48,-10 5.25,-11.34 z"
       id="path184"
       inkscape:connector-curvature="0"
       style="fill:#e7bc2a" />
    <path
       d="m 436.16,332.52 c 0.74,-4.01 3.32,-8.3 7.82,-8.58 4.69,-0.78 9.41,3.29 9.12,8.07 0.3,3.29 -2.16,5.79 -4.39,7.82 -3.57,1.84 -7.68,0.6 -10.43,-2.1 -0.89,-1.66 -1.41,-3.48 -2.12,-5.21 z"
       id="path186"
       inkscape:connector-curvature="0"
       style="fill:#e7bc2a" />
    <path
       d="m 181.15,341.27 c 1.95,-2.44 4.97,-3.33 7.78,-4.34 2.57,1.33 5.77,2.2 7.16,5.01 3.71,6.1 -4.19,14.8 -10.66,11.56 -2.32,-1.35 -4.26,-3.47 -5.26,-5.98 -0.59,-2.13 0.61,-4.19 0.98,-6.25 z"
       id="path188"
       inkscape:connector-curvature="0"
       style="fill:#e7bc2a" />
    <path
       d="m 429.45,337.74 c 2.43,-1.79 5.03,0.47 7.21,1.59 2.93,2.6 4.05,6.81 2.17,10.4 -2.45,3.24 -6.27,5.08 -10.36,4.25 -2.52,-2.01 -5.76,-4.33 -5.56,-7.95 -0.34,-3.35 2.2,-5.8 4.38,-7.93 0.54,-0.09 1.62,-0.27 2.16,-0.36 z"
       id="path190"
       inkscape:connector-curvature="0"
       style="fill:#e7bc2a" />
    <path
       d="m 199.31,350.15 c 1.4,-0.24 2.8,-0.51 4.2,-0.81 1.35,0.49 2.78,0.63 4.21,0.76 3.62,2.76 3.85,7.43 3.27,11.58 -2.54,2.85 -6.43,5.83 -10.38,3.73 -3.31,-0.91 -5.22,-4.15 -5.64,-7.37 -0.48,-3.33 2.14,-5.83 4.34,-7.89 z"
       id="path192"
       inkscape:connector-curvature="0"
       style="fill:#e7bc2a" />
    <path
       d="m 416.52,349.29 c 1.38,0.32 2.76,0.61 4.17,0.87 2.67,2.08 4.59,5.29 4.28,8.77 -0.88,2.55 -2.1,5.32 -4.9,6.17 -3.92,2.47 -8.45,-0.09 -10.91,-3.36 -0.34,-2.08 -1.93,-4.33 -0.43,-6.28 0.09,-0.53 0.28,-1.59 0.37,-2.12 1.07,-1.07 2.15,-2.13 3.23,-3.18 1.41,-0.19 2.84,-0.36 4.19,-0.87 z"
       id="path194"
       inkscape:connector-curvature="0"
       style="fill:#e7bc2a" />
    <path
       d="m 214.32,361.28 c 2.39,-1.83 5.5,-1.26 8.29,-1.28 1.42,1.51 2.88,2.97 4.39,4.39 0.02,2.38 0.31,4.81 -0.19,7.16 -0.92,1.86 -2.8,2.98 -4.22,4.43 -2.79,0.02 -5.91,0.59 -8.29,-1.27 -4.55,-2.96 -4.54,-10.49 0.02,-13.43 z"
       id="path196"
       inkscape:connector-curvature="0"
       style="fill:#e7bc2a" />
    <path
       d="m 397.37,360 c 2.56,0.06 5.4,-0.55 7.71,0.91 5.16,2.77 5.2,11.47 -0.03,14.2 -2.28,1.43 -5.06,0.86 -7.59,0.85 -3.05,-1.74 -4.87,-4.57 -5.11,-8.1 0.28,-1.19 0.55,-2.38 0.82,-3.57 1.41,-1.41 2.82,-2.84 4.2,-4.29 z"
       id="path198"
       inkscape:connector-curvature="0"
       style="fill:#e7bc2a" />
    <path
       d="m 232.29,369.02 c 3.55,-0.64 7.85,-0.72 10.41,2.27 2.78,4.17 1.72,11.11 -3.29,13.1 -2.63,1.43 -5.5,0.07 -8.15,-0.54 -4.99,-3.73 -4.22,-11.71 1.03,-14.83 z"
       id="path200"
       inkscape:connector-curvature="0"
       style="fill:#e7bc2a" />
    <path
       d="m 377.78,370.76 c 2.64,-2.57 6.55,-2 9.89,-1.75 1.83,2.01 4.36,4.01 4.37,6.99 0.33,2.51 -1.41,4.55 -2.29,6.75 -2.19,0.9 -4.25,2.6 -6.74,2.28 -3,-0.01 -4.98,-2.55 -7.01,-4.37 0.04,-3.32 -0.86,-7.29 1.78,-9.9 z"
       id="path202"
       inkscape:connector-curvature="0"
       style="fill:#e7bc2a" />
    <path
       d="m 249.28,376.15 c 5.55,-3.12 13.64,1.27 12.81,7.91 -0.03,6.22 -7.7,9.49 -12.84,6.79 -4.5,-3.54 -4.76,-11.3 0.03,-14.7 z"
       id="path204"
       inkscape:connector-curvature="0"
       style="fill:#e7bc2a" />
    <path
       d="m 360.32,377.21 c 2.34,-1.53 5.55,-3.2 8.23,-1.47 0.55,0.08 1.65,0.25 2.2,0.33 3.63,3.03 4.54,8.69 1.96,12.66 -1.57,1.58 -3.72,2.44 -5.76,3.23 -2.51,0.36 -4.58,-1.41 -6.82,-2.21 -2.94,-3.43 -3.31,-9.39 0.19,-12.54 z"
       id="path206"
       inkscape:connector-curvature="0"
       style="fill:#e7bc2a" />
    <path
       d="m 269.6,380.59 c 3.95,-2.11 7.86,0.9 10.4,3.76 0.41,4.15 0.33,8.75 -3.25,11.58 -0.55,0.08 -1.65,0.24 -2.2,0.32 -3.17,2.04 -6.86,-0.48 -8.83,-3.01 -3.69,-4 -1.17,-11.2 3.88,-12.65 z"
       id="path208"
       inkscape:connector-curvature="0"
       style="fill:#e7bc2a" />
    <path
       d="m 340,384.35 c 2.02,-1.82 3.99,-4.36 6.97,-4.38 2.51,-0.37 4.55,1.35 6.67,2.36 1.61,2.69 3.52,6.04 1.75,9.15 -1.7,3.4 -6.07,6.98 -9.92,4.78 -0.55,-0.08 -1.64,-0.24 -2.19,-0.33 -3.8,-2.7 -3.72,-7.42 -3.28,-11.58 z"
       id="path210"
       inkscape:connector-curvature="0"
       style="fill:#e7bc2a" />
    <path
       d="m 288.42,383.24 c 4.9,-1.71 11.04,2.4 10.68,7.74 0.83,4.19 -2.98,7.28 -6.45,8.64 -2.84,1.13 -5.6,-0.88 -7.83,-2.41 -3.81,-4.21 -2.11,-12.32 3.6,-13.97 z"
       id="path212"
       inkscape:connector-curvature="0"
       style="fill:#e7bc2a" />
    <path
       d="m 326.41,383.02 c 1.7,0 3.41,0 5.12,0.03 2.01,1.78 5.02,2.96 5.4,5.98 1.25,4.68 -2.17,9.15 -6.38,10.8 -2.65,0.79 -5.03,-0.96 -7.22,-2.17 -2.81,-2.08 -2.74,-6.08 -2.14,-9.17 0.68,-2.63 3.13,-4.06 5.22,-5.47 z"
       id="path214"
       inkscape:connector-curvature="0"
       style="fill:#e7bc2a" />
    <path
       d="m 305.25,385.15 c 3.13,-1.29 6.37,-1.27 9.5,0 3.23,2.5 3.75,6.6 3.21,10.4 -1.33,1.56 -2.44,3.42 -4.34,4.37 -4.42,1.66 -9.38,-0.16 -11.57,-4.36 -0.54,-3.8 -0.04,-7.92 3.2,-10.41 z"
       id="path216"
       inkscape:connector-curvature="0"
       style="fill:#e7bc2a" />
  </g>
</svg>
