<?xml version="1.0" encoding="UTF-8" standalone="no"?>
<!-- Created with Inkscape (http://www.inkscape.org/) -->
<svg
   xmlns:dc="http://purl.org/dc/elements/1.1/"
   xmlns:cc="http://web.resource.org/cc/"
   xmlns:rdf="http://www.w3.org/1999/02/22-rdf-syntax-ns#"
   xmlns:svg="http://www.w3.org/2000/svg"
   xmlns="http://www.w3.org/2000/svg"
   xmlns:sodipodi="http://sodipodi.sourceforge.net/DTD/sodipodi-0.dtd"
   xmlns:inkscape="http://www.inkscape.org/namespaces/inkscape"
   width="418.50000pt"
   height="279.00000pt"
   id="svg2161"
   sodipodi:version="0.32"
   inkscape:version="0.44"
   sodipodi:docbase="C:\freeciv"
   sodipodi:docname="prussia.svg">
  <defs
     id="defs2163" />
  <sodipodi:namedview
     id="base"
     pagecolor="#ffffff"
     bordercolor="#666666"
     borderopacity="1.0"
     inkscape:pageopacity="0.0"
     inkscape:pageshadow="2"
     inkscape:zoom="0.98909112"
     inkscape:cx="295"
     inkscape:cy="174.28571"
     inkscape:document-units="px"
     inkscape:current-layer="layer1"
     inkscape:window-width="847"
     inkscape:window-height="579"
     inkscape:window-x="16"
     inkscape:window-y="352" />
  <metadata
     id="metadata2166">
    <rdf:RDF>
      <cc:Work
         rdf:about="">
        <dc:format>image/svg+xml</dc:format>
        <dc:type
           rdf:resource="http://purl.org/dc/dcmitype/StillImage" />
      </cc:Work>
    </rdf:RDF>
  </metadata>
  <g
     inkscape:label="Layer 1"
     inkscape:groupmode="layer"
     id="layer1">
    <rect
       style="fill:#ffffff;fill-opacity:1.0000000;fill-rule:nonzero;stroke:none;stroke-width:8.3829098;stroke-linecap:butt;stroke-linejoin:round;stroke-miterlimit:4.0000000;stroke-dasharray:none;stroke-opacity:1.0000000"
       id="rect2350"
       width="523.12500"
       height="348.75000"
       x="0.0000000"
       y="-7.8825835e-15" />
    <path
       style="fill:#000000;stroke:none"
       id="path8"
       d="M 0.0000000,27.401126 L 0.0000000,53.686016 L 261.56249,53.686016 L 523.12500,53.686016 L 523.12500,27.401126 L 523.12500,0.95595571 L 261.56249,0.95595571 L 0.0000000,0.95595571 L 0.0000000,27.401126 z " />
    <path
       style="fill:#000000;stroke:none"
       id="path32"
       d="M 0.0000000,322.30482 L 0.0000000,348.75000 L 261.56249,348.75000 L 523.12500,348.75000 L 523.12500,322.30482 L 523.12500,295.85966 L 261.56249,295.85966 L 0.0000000,295.85966 L 0.0000000,322.30482 z " />
    <g
       id="g4863"
       transform="matrix(1.448844,0,0,1.448844,-2.98713,-105.005)">
      <path
         sodipodi:nodetypes="cczccccc"
         id="path2200"
         d="M 135.26525,138.14324 C 127.87768,139.15717 129.09249,145.2568 134.68966,147.35279 C 136.03272,146.20159 136.30849,144.53116 138.71883,143.8992 C 141.12917,143.26724 143.07714,147.29869 142.17241,149.07958 L 135.13751,149.94523 L 150.23077,153.68435 L 143.32361,136.99204 L 135.26525,138.14324 z "
         style="fill:#fdd639;fill-opacity:1;fill-rule:evenodd;stroke:none;stroke-width:1px;stroke-linecap:butt;stroke-linejoin:miter;stroke-opacity:1" />
      <path
         sodipodi:nodetypes="cccccc"
         id="path3089"
         d="M 125.52353,206.25217 L 113.44004,221.08626 C 109.96317,220.93137 106.91483,221.81716 103.37674,223.92731 C 102.12828,227.61427 103.63459,231.79096 106.12039,233.94748 L 131.85675,211.56278 L 125.52353,206.25217 z "
         style="fill:#fdd639;fill-opacity:1;fill-rule:evenodd;stroke:none;stroke-width:1px;stroke-linecap:butt;stroke-linejoin:miter;stroke-opacity:1" />
      <path
         sodipodi:nodetypes="czcccc"
         id="path3976"
         d="M 153.77815,208.18469 C 153.77815,208.18469 168.47033,227.8967 177.28564,232.67166 C 186.10094,237.44661 188.0599,228.264 188.0599,228.264 L 173.85746,220.91791 L 157.69607,205.736 L 153.77815,208.18469 z "
         style="fill:#fdd639;fill-opacity:1;fill-rule:evenodd;stroke:none;stroke-width:1px;stroke-linecap:butt;stroke-linejoin:miter;stroke-opacity:1" />
      <path
         id="path2196"
         d="M 142.30239,259.13116 C 142.30239,258.58902 141.213,257.6491 139.88153,257.04244 C 138.32423,256.33288 137.63992,255.35956 137.96317,254.31387 C 138.3867,252.94378 138.2378,252.96508 137.01567,254.44942 C 135.73141,256.00923 135.42235,256.0378 134.31159,254.69942 C 133.62184,253.86832 132.5501,253.19522 131.92995,253.20364 C 131.30979,253.21206 131.46436,253.6376 132.27343,254.14927 C 134.09522,255.3014 132.95586,256.65307 130.84552,255.84325 C 128.98631,255.12981 128.82324,252.06748 130.55239,250.33833 C 131.23989,249.65083 131.80355,248.54833 131.80498,247.88833 C 131.8064,247.22833 132.55334,246.68228 133.46485,246.67488 C 136.04381,246.65395 139.19123,243.24827 140.2912,239.28842 C 141.75633,234.01399 141.43889,232.05929 139.84374,236.53314 C 138.18532,241.18444 134.61606,245.18833 132.12808,245.18833 C 131.12395,245.18833 130.30239,245.79042 130.30239,246.5263 C 130.30239,247.36368 128.99289,247.9135 126.80239,247.99585 C 124.87739,248.06822 123.30239,247.69113 123.30239,247.15788 C 123.30239,246.62463 123.67719,246.18833 124.13527,246.18833 C 125.63723,246.18833 124.69687,241.9886 122.97975,241.02765 C 122.0572,240.51136 121.30239,239.04141 121.30239,237.76108 C 121.30239,234.97577 118.91997,232.73737 116.81512,233.54507 C 115.10596,234.20094 114.73392,237.18833 116.36141,237.18833 C 116.94387,237.18833 117.14231,236.73833 116.80239,236.18833 C 115.89765,234.72443 117.87281,234.96579 119.12274,236.47187 C 119.70863,237.17781 119.83169,238.33191 119.39622,239.03651 C 118.96074,239.74112 118.81288,241.40793 119.06762,242.74054 C 119.38049,244.37721 118.99298,245.36983 117.87346,245.79943 C 115.67753,246.64209 114.45618,245.33516 116.33135,244.14927 C 117.61947,243.33464 117.61586,243.20329 116.30239,243.09295 C 115.47739,243.02365 113.78989,243.04896 112.55239,243.1492 C 110.41232,243.32256 109.35889,241.72706 111.14768,241.02166 C 111.61259,240.83833 112.29617,239.45083 112.66673,237.93833 C 113.15994,235.92527 112.96466,235.18833 111.93802,235.18833 C 110.35488,235.18833 109.09287,230.43586 110.45281,229.59536 C 110.93802,229.29549 111.03314,228.5617 110.66419,227.96472 C 110.26048,227.3115 110.45957,227.16744 111.16419,227.60292 C 111.80814,228.0009 112.14215,228.63858 111.90644,229.01998 C 111.67072,229.40137 112.03301,230.75073 112.71152,232.01854 C 113.81087,234.07269 114.08684,234.15298 115.24623,232.756 C 115.96181,231.89378 117.58685,231.18833 118.85745,231.18833 C 120.28936,231.18833 121.40894,230.42799 121.80239,229.18833 C 122.70774,226.33582 125.27027,226.56883 124.55178,229.43833 C 124.00797,231.6102 124.05736,231.62756 125.97414,229.93833 C 127.06629,228.97583 128.48694,228.18833 129.13113,228.18833 C 130.79047,228.18833 130.58248,227.11363 128.64961,225.70028 C 126.29988,223.98211 127.62261,222.55265 132.24638,221.81328 C 135.23158,221.33592 136.09055,220.79986 135.66156,219.68192 C 135.34633,218.86045 134.68656,218.18833 134.1954,218.18833 C 133.70425,218.18833 133.30239,217.28833 133.30239,216.18833 C 133.30239,215.08833 133.75239,214.18833 134.30239,214.18833 C 134.85239,214.18833 135.30239,213.28833 135.30239,212.18833 C 135.30239,211.08833 135.96327,210.18833 136.77101,210.18833 C 137.73761,210.18833 138.02913,210.78653 137.62383,211.93833 C 137.18928,213.17326 137.3319,213.39306 138.10843,212.68511 C 138.80713,212.04812 138.99134,209.57466 138.61305,205.90942 L 138.01728,200.13694 L 135.46841,205.91263 C 133.98566,209.27253 132.89716,213.63647 132.86603,216.34597 C 132.83659,218.90767 132.47273,220.79361 132.05745,220.53695 C 131.64217,220.28029 131.30239,219.22341 131.30239,218.18833 C 131.30239,217.15325 130.89464,216.05436 130.39627,215.74635 C 129.8979,215.43834 129.74379,214.21642 130.05379,213.03096 C 130.43994,211.55433 130.25292,211.10087 129.45991,211.59098 C 128.76538,212.02022 128.30239,211.65917 128.30239,210.68833 C 128.30239,209.79841 127.85239,209.34841 127.30239,209.68833 C 126.75239,210.02825 126.30239,209.77471 126.30239,209.1249 C 126.30239,208.23998 125.9291,208.25325 124.81512,209.17776 C 123.99713,209.85664 122.57281,210.12234 121.64997,209.76821 C 120.2075,209.21469 120.39934,208.67282 123.01724,205.90634 C 126.6132,202.10626 129.70081,196.8051 127.04015,198.99932 C 125.61763,200.17247 125.37429,199.43685 124.72584,192.00324 C 123.88882,182.40782 122.4852,183.74631 122.37268,194.2472 C 122.33361,197.89302 121.73283,201.585 121.01999,202.55986 C 119.91405,204.07232 119.77533,203.72022 120.01191,200.00099 C 120.24287,196.37007 119.99992,196.81041 118.47503,202.78651 C 116.35499,211.09505 113.44287,216.5376 110.85012,217.03691 C 109.15925,217.36254 109.06222,216.86463 109.68153,211.04018 C 110.65789,201.85774 111.39123,187.51775 110.8246,188.68833 C 110.55836,189.23833 109.26928,194.67884 107.95997,200.77836 L 105.57941,211.86839 L 107.9409,218.1501 C 110.13148,223.97718 111.29333,229.46906 109.27123,224.43833 C 108.77381,223.20083 107.90234,222.18833 107.33461,222.18833 C 106.76689,222.18833 106.30239,221.08989 106.30239,219.74735 C 106.30239,215.02946 104.5918,216.31832 103.34863,221.97288 C 101.69544,229.49248 98.620074,236.60439 96.043196,238.86703 C 93.96927,240.68805 93.969192,240.68786 95.544629,237.68833 C 101.85503,225.67374 105.79139,208.18833 102.18576,208.18833 C 101.69991,208.18833 101.30239,208.88989 101.30239,209.74735 C 101.30239,210.67114 100.83199,211.01564 100.14788,210.59284 C 99.412496,210.13835 99.265676,210.31991 99.743446,211.09297 C 100.7436,212.71123 92.893693,228.74745 90.686854,229.59429 C 87.784442,230.70805 87.310227,228.91361 88.857981,222.67379 C 89.674547,219.38179 90.57523,215.56333 90.8595,214.18833 C 91.366714,211.73495 94.869628,198.38049 95.908831,194.93833 C 96.199413,193.97583 96.062461,193.18833 95.604494,193.18833 C 95.146526,193.18833 93.941878,195.5251 92.927499,198.38115 C 90.145796,206.21321 81.364646,224.58392 80.713764,223.93304 C 80.399613,223.61889 80.870989,222.25017 81.761265,220.89143 C 82.65154,219.5327 83.266893,218.03116 83.128715,217.55467 C 82.990538,217.07818 83.395545,215.75687 84.028733,214.61843 C 84.66192,213.47998 86.52074,209.20498 88.159442,205.11843 C 89.798145,201.03187 91.865006,195.88833 92.752468,193.68833 C 95.680507,186.42978 91.792913,192.22016 84.294968,206.28536 C 82.498162,209.65594 79.467622,212.11263 77.052387,212.15653 C 74.930196,212.19509 74.93593,212.37553 76.871764,206.47328 C 79.12002,199.61846 85.036796,186.77368 90.822115,176.18833 L 94.374627,169.68833 L 90.324985,174.18833 C 88.097682,176.66333 83.759816,181.97922 80.685283,186.00141 C 77.61075,190.02361 74.885655,193.10493 74.629517,192.84879 C 73.8984,192.11768 76.438971,188.10523 80.802387,183.09967 C 91.357617,170.99109 93.715255,167.8717 90.934731,169.69357 C 89.442274,170.67147 87.79191,172.27365 87.267256,173.25397 C 86.742602,174.2343 84.891738,175.74557 83.154225,176.61235 C 79.914988,178.2283 74.302387,178.76456 74.302387,177.45811 C 74.302387,177.05649 78.239887,172.7395 83.052387,167.86479 L 91.802387,159.00169 L 84.577351,162.59501 C 80.603581,164.57134 77.015954,166.18833 76.604845,166.18833 C 75.244965,166.18833 80.621956,162.73168 86.256612,159.98359 C 89.346601,158.47657 90.695334,157.45106 89.302387,157.66772 C 87.927387,157.88159 85.431194,158.28171 83.755292,158.55687 C 80.959045,159.01598 77.223895,157.861 78.331347,156.87969 C 78.590419,156.65012 82.177387,154.61108 86.302387,152.34849 L 93.802387,148.23468 L 88.302387,148.68384 L 82.802387,149.13301 L 88.145861,147.91067 L 93.489335,146.68833 L 90.145861,145.33915 L 86.802387,143.98996 L 91.802387,142.60844 C 94.552387,141.8486 97.927387,141.18364 99.302386,141.13077 C 101.31065,141.05354 101.0156,140.77763 97.802387,139.72805 C 93.867072,138.4426 93.924497,138.42611 101.35342,138.70835 C 108.78898,138.99083 116.30239,141.16979 116.30239,143.04368 C 116.30239,143.57026 117.22578,143.75962 118.35437,143.46449 L 120.40634,142.92788 L 118.35437,140.74365 C 116.05813,138.29942 115.64609,133.9779 117.55798,132.39117 C 118.24856,131.81804 120.02592,131.04484 121.50766,130.67294 C 125.27983,129.72619 129.91898,134.16771 128.30597,137.18164 C 126.94247,139.72937 125.10402,139.7316 122.80239,137.18833 C 121.17469,135.38974 121.15908,135.18833 122.6474,135.18833 C 123.55765,135.18833 124.30239,135.86333 124.30239,136.68833 C 124.30239,137.51333 124.97739,138.18833 125.80239,138.18833 C 128.03085,138.18833 127.61827,134.42775 125.25081,133.16072 C 122.5511,131.71588 119.26943,132.26905 117.93798,134.39339 C 117.10247,135.72645 117.35291,136.6132 119.08585,138.45784 C 121.92202,141.47679 121.90925,144.01877 119.05239,145.12039 C 116.99223,145.91481 116.95632,146.05008 118.62678,146.7237 C 119.95037,147.25745 120.28827,148.10845 119.85773,149.82386 C 119.45291,151.43678 119.69414,152.18833 120.61667,152.18833 C 122.70972,152.18833 123.39906,151.00973 122.17127,149.53034 C 121.29903,148.47935 121.51776,148.18833 123.17995,148.18833 C 125.89193,148.18833 125.94637,150.77331 123.26462,152.20854 C 120.32339,153.78264 117.06165,152.52221 117.82799,150.10768 C 118.5406,147.86244 116.79064,147.47359 115.94076,149.68833 C 115.62418,150.51333 114.72711,151.18833 113.94727,151.18833 C 113.1276,151.18833 112.33831,152.49024 112.07649,154.27414 C 111.70761,156.78743 112.04634,157.52068 113.90219,158.22627 C 115.15542,158.70275 116.72551,160.12663 117.39129,161.39046 C 118.97882,164.40401 120.21428,165.1545 123.61813,165.17302 C 127.20558,165.19253 130.30239,166.83747 130.30239,168.72351 C 130.30239,170.73421 131.27656,170.56123 133.9157,168.08188 C 135.14892,166.92333 135.91728,165.34833 135.62317,164.58188 C 135.32905,163.81542 135.5341,163.18833 136.07882,163.18833 C 136.62355,163.18833 137.28736,162.04728 137.55396,160.65267 C 137.98646,158.39019 137.86435,158.26838 136.42054,159.5221 C 135.53056,160.2949 133.60705,161.14048 132.14607,161.40118 C 129.87079,161.80718 129.40818,161.4673 128.92107,159.03175 C 128.3331,156.0919 125.30239,154.96676 125.30239,157.68833 C 125.30239,158.51333 125.97739,159.18833 126.80239,159.18833 C 127.62739,159.18833 128.30239,159.91147 128.30239,160.79532 C 128.30239,161.84984 127.75859,162.19363 126.7206,161.79532 C 125.85062,161.46147 124.72562,161.18833 124.2206,161.18833 C 122.74808,161.18833 123.16299,157.54891 124.7894,156.19911 C 125.64806,155.48648 127.34759,155.23384 128.81136,155.60122 C 130.58964,156.04754 131.52028,155.7841 131.92913,154.71864 C 132.80362,152.43977 134.48593,154.0347 133.72767,156.42376 C 133.17941,158.15117 133.37815,158.36271 134.93699,157.711 C 135.96296,157.28208 137.92739,156.70362 139.30239,156.42554 C 144.3794,155.39876 145.75374,152.75782 142.05239,151.1411 C 140.06744,150.2741 140.18524,150.19859 143.05239,150.50013 C 145.09043,150.71448 146.30239,150.39801 146.30239,149.6515 C 146.30239,148.28568 141.46279,143.18833 140.16603,143.18833 C 139.69103,143.18833 139.30239,142.64833 139.30239,141.98833 C 139.30239,141.055 139.56906,141.055 140.50239,141.98833 C 141.94683,143.43277 143.30239,143.54825 143.30239,142.22687 C 143.30239,141.69807 141.59882,140.80669 139.51668,140.24603 C 137.10363,139.59626 135.65768,138.58516 135.52885,137.45749 C 134.66218,129.87143 134.67468,129.82879 138.05239,128.84531 C 140.21123,128.21672 141.30239,127.27609 141.30239,126.04367 C 141.30239,125.02323 141.75239,124.18833 142.30239,124.18833 C 142.85239,124.18833 143.30239,125.02323 143.30239,126.04367 C 143.30239,127.27609 144.39355,128.21672 146.55239,128.84531 C 149.12333,129.59388 149.78206,130.30317 149.70509,132.23997 C 149.65157,133.58657 149.26592,135.47583 148.8481,136.43833 C 148.25691,137.80019 148.56882,138.18833 150.25442,138.18833 C 151.44572,138.18833 152.14231,138.63833 151.80239,139.18833 C 151.46247,139.73833 151.64679,140.18833 152.21199,140.18833 C 152.77719,140.18833 152.9806,140.86333 152.66402,141.68833 C 152.29637,142.64639 152.68172,143.18833 153.73058,143.18833 C 154.92701,143.18833 155.15963,143.66334 154.58757,144.93833 C 154.15572,145.90083 153.80239,149.16333 153.80239,152.18833 C 153.80239,157.12708 154.03149,157.72087 156.04745,158.00723 C 157.74067,158.24775 158.14452,157.9405 157.69046,156.75723 C 156.83901,154.53839 158.12275,154.81131 160.89417,157.43833 C 163.66909,160.06867 163.80727,160.8263 161.86615,162.76743 C 160.13336,164.50022 158.58677,162.75553 160.16735,160.85104 C 160.97002,159.88388 160.451,159.68933 157.87155,159.99046 C 156.03356,160.20504 154.22144,159.86636 153.83147,159.23539 C 153.30262,158.37969 152.76859,158.38645 151.71336,159.26221 C 149.74741,160.89381 149.87793,163.56519 151.88595,162.79464 C 152.89668,162.40678 153.30992,162.63938 153.02832,163.43765 C 152.78567,164.12552 151.88365,164.63176 151.02384,164.56262 C 149.98929,164.47943 149.65542,164.98676 150.0367,166.06262 C 151.36711,169.81656 154.30239,171.64756 154.30239,168.72351 C 154.30239,166.83747 157.3992,165.19253 160.98665,165.17302 C 164.3905,165.1545 165.62596,164.40401 167.21349,161.39046 C 167.87927,160.12663 169.44936,158.70275 170.70259,158.22627 C 172.55844,157.52068 172.89717,156.78743 172.52829,154.27414 C 172.26647,152.49024 171.47718,151.18833 170.65751,151.18833 C 169.87767,151.18833 168.9806,150.51333 168.66402,149.68833 C 167.81414,147.47359 166.06418,147.86244 166.77679,150.10768 C 167.54313,152.52221 164.28139,153.78264 161.34016,152.20854 C 158.65841,150.77331 158.71285,148.18833 161.42483,148.18833 C 163.08702,148.18833 163.30575,148.47935 162.43351,149.53034 C 161.20572,151.00973 161.89506,152.18833 163.98811,152.18833 C 164.91064,152.18833 165.15187,151.43678 164.74705,149.82386 C 164.31651,148.10845 164.65441,147.25745 165.978,146.7237 C 167.64846,146.05008 167.61255,145.91481 165.55239,145.12039 C 162.69553,144.01877 162.68276,141.47679 165.51893,138.45784 C 167.25187,136.6132 167.50231,135.72645 166.6668,134.39339 C 165.33535,132.26905 162.05368,131.71588 159.35397,133.16072 C 156.98651,134.42775 156.57393,138.18833 158.80239,138.18833 C 159.62739,138.18833 160.30239,137.51333 160.30239,136.68833 C 160.30239,135.86333 161.04713,135.18833 161.95738,135.18833 C 163.4457,135.18833 163.43009,135.38974 161.80239,137.18833 C 159.50076,139.7316 157.66231,139.72937 156.29881,137.18164 C 154.6858,134.16771 159.32495,129.72619 163.09712,130.67294 C 164.57886,131.04484 166.35622,131.81804 167.0468,132.39117 C 168.95869,133.9779 168.54665,138.29942 166.25041,140.74365 L 164.19844,142.92788 L 166.25041,143.46449 C 167.379,143.75962 168.30239,143.57026 168.30239,143.04368 C 168.30239,141.16979 175.8158,138.99083 183.25136,138.70835 C 190.68028,138.42611 190.73771,138.4426 186.80239,139.72805 C 183.58918,140.77763 183.29413,141.05354 185.30239,141.13077 C 186.67739,141.18364 190.05239,141.8486 192.80239,142.60844 L 197.80239,143.98996 L 194.45892,145.33915 L 191.11544,146.68833 L 196.45892,147.91067 L 201.80239,149.13301 L 196.30239,148.68384 L 190.80239,148.23468 L 198.30239,152.34849 C 202.42739,154.61108 206.01436,156.65012 206.27343,156.87969 C 207.19598,157.69716 203.7844,159.09835 201.8107,158.71259 C 200.70613,158.49671 198.22739,158.09885 196.30239,157.82846 C 193.12243,157.38179 193.30949,157.5815 198.34817,160.01258 C 203.94962,162.71519 209.37761,166.18833 207.99993,166.18833 C 207.58882,166.18833 204.0012,164.57134 200.02743,162.59501 L 192.80239,159.00169 L 201.55239,167.86479 C 206.36489,172.7395 210.30239,177.05649 210.30239,177.45811 C 210.30239,178.76456 204.68979,178.2283 201.45055,176.61235 C 199.71304,175.74557 197.86218,174.2343 197.33752,173.25397 C 196.81287,172.27365 195.1625,170.67147 193.67005,169.69357 C 190.88952,167.8717 193.24716,170.99109 203.80239,183.09967 C 208.16581,188.10523 210.70638,192.11768 209.97526,192.84879 C 209.71912,193.10493 206.99403,190.02361 203.91949,186.00141 C 200.84496,181.97922 196.50709,176.66333 194.27979,174.18833 L 190.23015,169.68833 L 193.78266,176.18833 C 195.73654,179.76333 198.2885,184.71333 199.45367,187.18833 C 200.61884,189.66333 202.15974,192.83752 202.87789,194.24208 C 204.20797,196.84348 207.60297,205.86541 208.78447,209.93833 C 210.13732,214.60195 202.38228,211.32302 200.35051,206.37235 C 199.08379,203.28582 189.35389,186.4077 189.32294,187.2432 C 189.28466,188.27663 200.36529,214.55919 201.32863,215.71994 C 201.85465,216.35377 202.00299,217.1544 201.65826,217.49913 C 201.31353,217.84386 201.80339,219.304 202.74683,220.74389 C 203.69028,222.18377 204.20516,223.61889 203.89101,223.93304 C 203.10884,224.71521 194.32238,205.75076 190.24058,194.47033 C 188.40604,189.40043 186.73988,185.41751 186.538,185.61939 C 186.33611,185.82128 187.76187,191.76938 189.70636,198.83739 C 191.65085,205.90541 193.47137,212.81333 193.75196,214.18833 C 194.03256,215.56333 194.93023,219.38179 195.7468,222.67379 C 198.16377,232.41791 194.2613,232.70921 189.37153,223.14967 C 186.50346,217.54257 183.41334,214.90806 184.87958,219.32002 C 185.70572,221.8059 185.74275,223.41459 185.04789,226.6327 C 184.74761,228.0234 183.65623,228.654 181.21523,228.84721 C 179.33817,228.99578 178.36489,228.87081 179.05239,228.5695 C 179.73989,228.26819 180.30239,227.38416 180.30239,226.605 C 180.30239,225.82583 180.82739,225.18833 181.46906,225.18833 C 182.11072,225.18833 182.39667,224.94928 182.1045,224.65711 C 181.81233,224.36493 180.19138,224.91898 178.50239,225.88833 C 174.88448,227.96472 174.59519,227.78546 174.14508,223.18833 C 173.84049,220.0775 174.16208,219.52154 177.03728,218.18833 C 178.81646,217.36333 180.11291,216.23833 179.91826,215.68833 C 179.72361,215.13833 178.26791,208.61333 176.68337,201.18833 C 173.37543,185.68763 172.35786,187.3269 174.35316,204.94224 C 175.05426,211.1319 175.34906,216.47499 175.00827,216.81578 C 172.63291,219.19115 168.83338,213.14596 166.12886,202.68833 C 164.61636,196.8399 164.36229,196.38321 164.58441,199.91227 C 164.74895,202.52648 164.49465,203.78059 163.91713,203.20307 C 163.4039,202.68984 162.67856,198.4245 162.30527,193.72454 C 161.93197,189.02458 161.38808,184.94068 161.09661,184.64921 C 160.80514,184.35774 160.25066,187.74187 159.86443,192.1695 C 159.35869,197.96726 158.83206,200.0163 157.9823,199.4927 C 155.99107,198.26577 160.41428,204.55456 163.10545,206.77665 C 165.87279,209.06163 164.71073,211.00632 161.57306,209.34108 C 159.67169,208.33197 156.82194,210.30838 158.1125,211.7411 C 158.49194,212.16234 158.04979,212.23781 157.12996,211.90881 C 155.81701,211.43921 155.32282,212.10793 154.83084,215.01994 C 154.48616,217.06005 153.78901,219.39504 153.28161,220.20879 C 152.66855,221.192 152.55614,220.46149 152.94652,218.03112 C 153.38432,215.30549 152.86765,212.91849 150.91818,208.66027 C 149.47949,205.51778 148.28871,201.76352 148.27198,200.31749 C 148.22107,195.91551 146.64671,199.99725 145.9343,206.37828 C 145.50033,210.26527 145.67028,212.29767 146.47065,212.79232 C 147.25921,213.27967 147.43349,212.97236 147.00371,211.85237 C 146.58677,210.76583 146.87484,210.18833 147.83377,210.18833 C 148.64151,210.18833 149.30239,211.08833 149.30239,212.18833 C 149.30239,213.28833 149.75239,214.18833 150.30239,214.18833 C 151.8321,214.18833 151.49183,217.14175 149.76292,218.87066 C 148.37696,220.25661 148.39045,220.53224 149.89816,221.6347 C 150.81925,222.30822 152.58427,222.66594 153.82041,222.42964 C 156.7061,221.878 158.15229,224.0937 155.95517,225.70028 C 154.0223,227.11363 153.81431,228.18833 155.47365,228.18833 C 156.11784,228.18833 157.53849,228.97583 158.63064,229.93833 C 160.54742,231.62756 160.59681,231.6102 160.053,229.43833 C 159.65646,227.85461 159.93382,227.18833 160.98963,227.18833 C 161.81463,227.18833 162.72498,228.08833 163.01264,229.18833 C 163.33827,230.43352 164.37666,231.18833 165.76403,231.18833 C 168.61407,231.18833 171.10418,233.94728 171.91551,238.00395 C 172.2658,239.75536 172.94614,241.18833 173.42739,241.18833 C 173.90864,241.18833 174.30239,241.63833 174.30239,242.18833 C 174.30239,242.73833 172.61489,243.19522 170.55239,243.20364 C 167.84832,243.21468 167.21268,243.47843 168.27343,244.14927 C 170.15217,245.33742 168.92532,246.64135 166.7236,245.79647 C 165.4831,245.32044 165.20877,244.40641 165.64772,242.2117 C 165.97176,240.5915 165.77977,238.98337 165.22108,238.63808 C 164.55185,238.22447 164.6048,237.52887 165.37628,236.5993 C 166.70249,235.00131 168.75041,234.65441 167.80239,236.18833 C 167.46247,236.73833 167.66091,237.18833 168.24337,237.18833 C 169.87086,237.18833 169.49882,234.20094 167.78966,233.54507 C 165.68052,232.73572 163.30239,234.97778 163.30239,237.77559 C 163.30239,239.11892 162.42184,240.58922 161.23782,241.22289 C 159.66119,242.06668 159.43471,242.64285 160.27956,243.66082 C 161.10018,244.6496 161.05229,245.12768 160.09413,245.51214 C 159.10564,245.90876 159.09584,246.04897 160.05239,246.10938 C 160.73989,246.1528 161.30239,246.62463 161.30239,247.15788 C 161.30239,247.69113 159.72739,248.06822 157.80239,247.99585 C 155.61189,247.9135 154.30239,247.36368 154.30239,246.5263 C 154.30239,245.79042 153.48083,245.18833 152.4767,245.18833 C 149.98872,245.18833 146.41946,241.18444 144.76104,236.53314 C 143.08856,231.8424 142.85513,233.96346 144.45585,239.3062 C 145.72046,243.52708 148.55679,246.65391 151.13993,246.67488 C 152.05144,246.68228 152.79838,247.22833 152.7998,247.88833 C 152.80123,248.54833 153.36489,249.65083 154.05239,250.33833 C 155.78154,252.06748 155.61847,255.12981 153.75926,255.84325 C 151.64892,256.65307 150.50956,255.3014 152.33135,254.14927 C 153.14042,253.6376 153.29499,253.21206 152.67483,253.20364 C 152.05468,253.19522 150.98294,253.86832 150.29319,254.69942 C 149.18243,256.0378 148.87337,256.00923 147.58911,254.44942 C 146.51235,253.14164 146.23839,253.07443 146.5248,254.18833 C 146.73693,255.01333 145.87366,256.68475 144.60644,257.9026 C 143.33921,259.12044 142.30239,259.6733 142.30239,259.13116 z "
         style="fill:black" />
      <path
         id="path2194"
         d="M 135.5058,235.43833 C 137.0177,233.69004 139.30572,227.86921 139.29865,225.78911 C 139.2966,225.18368 138.37235,226.20158 137.24476,228.05111 C 136.11718,229.90064 134.95419,231.17347 134.66034,230.87962 C 134.36649,230.58576 135.37002,228.22269 136.89041,225.62834 L 139.65476,220.91134 L 136.97857,222.66485 C 135.34663,223.73414 134.30239,225.32593 134.30239,226.74432 C 134.30239,228.02361 133.81318,229.37264 133.21526,229.74218 C 132.43241,230.226 132.43241,230.71835 133.21526,231.5012 C 134.99629,233.28223 134.56988,236.22821 132.63835,235.48701 C 131.51946,235.05765 131.21118,235.23174 131.69736,236.01839 C 132.70014,237.64092 133.73768,237.48289 135.5058,235.43833 z "
         style="fill:white;fill-opacity:1" />
      <path
         id="path2192"
         d="M 152.90742,236.01839 C 153.3936,235.23174 153.08532,235.05765 151.96643,235.48701 C 150.77239,235.94521 150.30239,235.58621 150.30239,234.21596 C 150.30239,233.16568 150.75973,232.02371 151.3187,231.67825 C 151.87767,231.33279 152.04642,230.58318 151.6937,230.01247 C 151.2743,229.33387 150.77983,229.41582 150.2647,230.24931 C 149.70686,231.15191 148.86902,230.52651 147.39344,228.10607 C 145.07645,224.30545 144.71417,225.13841 146.44399,230.28911 C 148.33034,235.90586 151.33235,238.5669 152.90742,236.01839 z "
         style="fill:white;fill-opacity:1" />
      <path
         id="path2190"
         d="M 150.30239,226.30334 C 150.30239,225.2666 149.14446,223.65964 147.72921,222.73233 C 145.17025,221.05564 145.16269,221.05915 146.36189,223.36732 C 147.7127,225.96731 149.35414,228.18833 149.92483,228.18833 C 150.13249,228.18833 150.30239,227.34008 150.30239,226.30334 z "
         style="fill:white;fill-opacity:1" />
      <path
         id="path2188"
         d="M 131.89079,223.44339 C 130.8153,222.3679 130.24434,223.87414 130.99931,225.7952 C 131.70751,227.59727 131.761,227.60039 132.11124,225.86006 C 132.31361,224.85451 132.21441,223.76701 131.89079,223.44339 z "
         style="fill:white;fill-opacity:1" />
      <path
         id="path2186"
         d="M 154.28708,223.93833 C 154.2955,223.52583 153.85239,223.18833 153.30239,223.18833 C 152.75239,223.18833 152.30928,224.20083 152.3177,225.43833 C 152.33009,227.25777 152.51852,227.40129 153.30239,226.18833 C 153.83555,225.36333 154.27866,224.35083 154.28708,223.93833 z "
         style="fill:white;fill-opacity:1" />
      <path
         id="path2182"
         d="M 139.28708,216.50048 C 139.2955,215.84716 138.40239,215.38042 137.30239,215.46328 C 135.311,215.61329 134.39796,217.18833 136.30239,217.18833 C 136.85239,217.18833 137.30928,217.97583 137.3177,218.93833 C 137.33079,220.43388 137.47396,220.47023 138.30239,219.18833 C 138.83555,218.36333 139.27866,217.1538 139.28708,216.50048 z "
         style="fill:white;fill-opacity:1" />
      <path
         id="path2180"
         d="M 148.37571,217.18833 C 150.22899,217.18833 149.2468,215.60975 147.30239,215.46328 C 145.15132,215.30125 144.89347,215.98505 146.02285,218.85654 C 146.69255,220.55929 146.76816,220.56505 147.09617,218.93833 C 147.29025,217.97583 147.86604,217.18833 148.37571,217.18833 z "
         style="fill:white;fill-opacity:1" />
      <path
         id="path2178"
         d="M 182.66402,214.68833 C 182.34743,213.86333 182.53841,213.18833 183.08841,213.18833 C 183.63841,213.18833 184.3564,212.48996 184.68395,211.63639 C 185.01149,210.78283 184.8998,210.31911 184.43574,210.60592 C 183.97168,210.89272 181.63253,204.6354 179.23762,196.70076 C 176.84272,188.76611 174.74967,182.40771 174.5864,182.57098 C 174.42313,182.73425 175.18058,186.87745 176.26963,191.77809 C 177.35867,196.67872 178.98173,204.17583 179.87643,208.43833 C 180.77113,212.70083 181.89386,216.18833 182.37139,216.18833 C 182.84892,216.18833 182.9806,215.51333 182.66402,214.68833 z "
         style="fill:white;fill-opacity:1" />
      <path
         id="path2176"
         d="M 108.42806,191.2885 C 109.47746,186.66859 110.19374,182.74635 110.0198,182.5724 C 109.84586,182.39846 108.23088,187.18435 106.43096,193.2077 C 104.23298,200.56316 103.41104,204.90284 103.92781,206.42379 C 104.59021,208.37332 104.82402,208.06235 105.60865,204.18833 C 106.10993,201.71333 107.37866,195.9084 108.42806,191.2885 z "
         style="fill:white;fill-opacity:1" />
      <path
         id="path2170"
         d="M 135.28708,188.82332 C 135.27866,187.64908 134.83555,186.01333 134.30239,185.18833 C 133.58054,184.07134 133.32911,184.63784 133.3177,187.40695 C 133.3058,190.298 132.96857,190.99746 131.80239,190.54996 C 130.75838,190.14933 130.30239,190.62187 130.30239,192.10439 C 130.30239,194.14659 130.40549,194.16688 132.80239,192.59637 C 134.19084,191.68663 135.29558,190.00905 135.28708,188.82332 z "
         style="fill:white;fill-opacity:1" />
      <path
         id="path2168"
         d="M 154.30239,191.58134 C 154.30239,190.56375 153.75223,190.18547 152.80239,190.54996 C 151.63621,190.99746 151.29898,190.298 151.28708,187.40695 C 151.27567,184.63784 151.02424,184.07134 150.30239,185.18833 C 148.80351,187.50768 149.12413,190.33253 151.05239,191.79628 C 153.3944,193.57412 154.30239,193.51407 154.30239,191.58134 z "
         style="fill:white;fill-opacity:1" />
      <path
         id="path2156"
         d="M 142.11767,182.83171 C 142.58733,181.02516 143.5933,179.68192 144.48309,179.67326 C 148.36137,179.63551 150.65418,174.94012 148.06075,172.34669 C 147.07189,171.35783 147.07419,170.9474 148.07201,170.33071 C 148.76259,169.90391 147.44616,169.64749 145.13887,169.75939 C 142.06032,169.90869 140.88679,170.41234 140.70322,171.66307 C 140.56593,172.59844 139.65732,174.24365 138.68407,175.31907 C 137.09879,177.07078 137.08915,177.20739 138.59146,176.6309 C 140.06952,176.06371 140.14022,176.3551 139.18757,179.08786 C 138.59311,180.79312 137.70076,182.18833 137.20456,182.18833 C 136.70837,182.18833 136.30239,182.63833 136.30239,183.18833 C 136.30239,185.36945 138.48283,184.00713 139.90359,180.93833 L 141.40824,177.68833 L 140.83267,181.18833 C 140.51611,183.11333 139.81729,184.83833 139.27975,185.02166 C 138.7422,185.205 138.30239,185.75337 138.30239,186.24028 C 138.30239,188.41174 141.38235,185.6601 142.11767,182.83171 z "
         style="fill:#fdd639;fill-opacity:1" />
      <path
         id="path2154"
         d="M 144.27745,176.65828 C 142.3395,174.32319 144.71348,172.17085 146.85972,174.31709 C 148.18592,175.64329 148.20356,176.02546 146.98526,177.03656 C 145.87884,177.9548 145.28457,177.87178 144.27745,176.65828 z "
         style="fill:#fdd639;fill-opacity:1" />
      <path
         id="path2152"
         d="M 142.57322,171.58416 C 142.90552,171.25187 143.76801,171.21634 144.48989,171.50521 C 145.28762,171.82444 145.05067,172.0614 143.88572,172.10938 C 142.83156,172.1528 142.24093,171.91645 142.57322,171.58416 z "
         style="fill:#fdd639;fill-opacity:1" />
      <path
         id="path2150"
         d="M 148.02327,184.67684 C 148.15739,183.58316 148.01256,183.25083 147.70142,183.93833 C 146.76359,186.01061 145.02892,185.34208 145.60708,183.13118 C 146.03147,181.50832 145.86501,181.30643 144.81861,182.17487 C 143.71197,183.0933 143.57095,184.24403 144.22588,187.01165 C 144.52817,188.28909 147.8292,186.25947 148.02327,184.67684 z "
         style="fill:#fdd639;fill-opacity:1" />
      <path
         id="path2146"
         d="M 131.301,173.93833 C 131.30024,173.25083 128.603,171.8959 125.30713,170.92737 C 118.53159,168.93631 110.94328,162.59001 109.77571,157.93806 C 108.80705,154.07861 109.92057,150.52144 112.29145,149.90144 C 114.27069,149.38386 115.16453,147.18833 113.39601,147.18833 C 112.8975,147.18833 112.7434,146.2179 113.05357,145.03182 C 113.57108,143.05287 113.34102,142.9306 110.25966,143.54687 C 107.16089,144.16663 105.35548,145.58827 105.3177,147.43833 C 105.30928,147.85083 105.71816,148.18833 106.22632,148.18833 C 106.73448,148.18833 107.07198,150.80799 106.97632,154.00979 C 106.8277,158.98401 107.20682,160.36242 109.58126,163.48092 C 113.52867,168.6653 118.70118,172.33346 124.12294,173.79334 C 130.1972,175.42891 131.30268,175.45124 131.301,173.93833 z "
         style="fill:#fdd639;fill-opacity:1" />
      <path
         id="path2144"
         d="M 137.91835,173.74674 C 138.2226,172.95387 138.32098,171.53379 138.13696,170.59102 C 137.82851,169.01067 137.68531,169.0211 136.30239,170.72456 C 135.44064,171.78606 135.33426,172.25271 136.05239,171.82127 C 136.73989,171.40823 137.30239,171.54685 137.30239,172.12931 C 137.30239,172.71177 136.85239,173.18833 136.30239,173.18833 C 135.75239,173.18833 135.30239,173.63833 135.30239,174.18833 C 135.30239,175.71476 137.29203,175.3789 137.91835,173.74674 z "
         style="fill:#fdd639;fill-opacity:1" />
      <path
         id="path2142"
         d="M 160.80863,173.64349 C 167.64052,171.65741 174.63218,165.60492 176.66164,159.91997 C 178.42057,154.99285 179.34635,146.87749 178.336,145.24271 C 177.22877,143.45117 171.80239,143.40601 171.80239,145.18833 C 171.80239,146.01333 171.36984,146.99863 170.84116,147.37789 C 170.30015,147.766 171.0652,149.16594 172.59116,150.58015 C 175.67928,153.44212 175.88143,154.86674 173.87932,159.65844 C 172.09961,163.91789 165.66385,168.65697 158.66165,170.86422 C 155.71406,171.79336 153.30239,173.14639 153.30239,173.87095 C 153.30239,175.55928 154.32515,175.52829 160.80863,173.64349 z "
         style="fill:#fdd639;fill-opacity:1" />
      <path
         id="path2140"
         d="M 188.08588,238.43833 C 186.19698,236.27286 184.30239,232.67532 184.30239,231.25407 C 184.30239,229.03519 186.29319,230.30569 186.94153,232.93833 C 187.31401,234.45083 188.27434,236.70083 189.07559,237.93833 C 190.80815,240.6142 190.23599,240.90326 188.08588,238.43833 z "
         style="fill:black;fill-opacity:1" />
      <path
         id="path2138"
         d="M 128.96906,149.52166 C 127.73071,148.28332 128.29155,146.18833 129.86141,146.18833 C 130.71887,146.18833 131.14231,146.63833 130.80239,147.18833 C 130.41434,147.81621 132.90421,148.23491 137.49337,148.3135 C 144.40208,148.43181 144.55593,148.48252 140.30239,149.23937 C 134.57573,150.25835 129.8241,150.3767 128.96906,149.52166 z "
         style="fill:#a00;fill-opacity:1" />
    </g>
  </g>
</svg>
