<?xml version="1.0" encoding="UTF-8" standalone="no"?>
<!DOCTYPE svg PUBLIC "-//W3C//DTD SVG 20010904//EN"
"http://www.w3.org/TR/2001/REC-SVG-20010904/DTD/svg10.dtd">
<!-- Created with Sodipodi ("http://www.sodipodi.com/") -->
<svg
   version="1"
   x="0.00000000"
   y="0.00000000"
   width="6.04in"
   height="4.03in"
   viewBox="0 0 543.861 362.571"
   id="svg548"
   xmlns="http://www.w3.org/2000/svg"
   xmlns:sodipodi="http://sodipodi.sourceforge.net/DTD/sodipodi-0.dtd"
   xmlns:xlink="http://www.w3.org/1999/xlink"
   sodipodi:version="0.32"
   sodipodi:docname="/home/scarlet/sodipodi-flags/Regional/canada_quebec.svg"
   sodipodi:docbase="/home/scarlet/sodipodi-flags/Regional/">
  <sodipodi:namedview
     id="base" />
  <defs
     id="defs555" />
  <rect
     style="font-size:12;fill:#ffffff;fill-rule:evenodd;stroke-width:1pt;fill-opacity:1;"
     id="rect556"
     width="543.861084"
     height="362.570984"
     x="0.000000"
     y="0.000520" />
  <g
     style="font-size:12;"
     id="Layer_1">
    <path
       d="M 430.557 249.268 C 433.02 252.017 435.164 254.584 436.883 257.426 C 441.674 265.362 443.287 273.978 440.606 280.947 C 435.282 295.693 433.237 299.435 433.237 311.179 L 437.022 311.179 C 437.26 298.263 442.129 289.615 449.366 287.021 C 452.552 285.792 456.684 286.401 460.471 290.298 C 465.159 295.122 466.524 308.411 452.762 310.968 C 454.219 308.802 454.096 304.06 451.182 302.385 C 448.953 301.271 446.438 301.707 445.262 302.665 C 443.369 303.81 441.547 307.47 441.547 311.179 L 448.082 311.171 L 448.082 318.468 L 434.518 318.46 C 434.694 322.214 436.743 325.22 440.551 326.896 C 440.059 328.476 437.762 331.701 434.608 331.482 C 433.987 334.894 433.393 336.81 430.557 339.91 C 427.721 336.81 427.129 334.894 426.506 331.482 C 423.35 331.701 421.053 328.476 420.563 326.896 C 424.372 325.22 426.42 322.214 426.596 318.46 L 413.033 318.468 L 413.031 311.171 L 419.566 311.179 C 419.566 307.47 417.744 303.81 415.849 302.665 C 414.673 301.707 412.158 301.27 409.931 302.385 C 407.017 304.06 406.894 308.802 408.349 310.968 C 394.587 308.411 395.953 295.122 400.64 290.298 C 404.429 286.401 408.56 285.792 411.745 287.021 C 418.983 289.615 423.852 298.263 424.089 311.179 L 427.874 311.179 C 427.874 299.435 425.831 295.693 420.507 280.947 C 417.825 273.977 419.437 265.361 424.23 257.426 C 425.947 254.584 428.092 252.017 430.557 249.268 z M 317.25 226.608 L 543.861 226.608 L 543.861 362.571 L 317.25 362.571 L 317.25 226.608 z "
       style="fill:#0d2b88;fill-rule:evenodd;"
       id="path550" />
    <path
       d="M 430.557 22.661 C 433.02 25.411 435.164 27.977 436.883 30.821 C 441.674 38.756 443.287 47.372 440.606 54.342 C 435.282 69.089 433.237 72.832 433.237 84.574 L 437.022 84.574 C 437.26 71.657 442.129 63.011 449.366 60.415 C 452.552 59.186 456.684 59.795 460.471 63.693 C 465.159 68.517 466.524 81.807 452.762 84.363 C 454.219 82.197 454.096 77.454 451.182 75.78 C 448.953 74.666 446.438 75.102 445.262 76.06 C 443.369 77.205 441.547 80.866 441.547 84.574 L 448.082 84.565 L 448.082 91.863 L 434.518 91.855 C 434.694 95.609 436.743 98.616 440.551 100.29 C 440.059 101.872 437.762 105.096 434.608 104.877 C 433.987 108.289 433.393 110.205 430.557 113.304 C 427.721 110.204 427.129 108.288 426.506 104.877 C 423.35 105.095 421.053 101.872 420.563 100.29 C 424.372 98.616 426.42 95.609 426.596 91.855 L 413.033 91.863 L 413.031 84.565 L 419.566 84.574 C 419.566 80.866 417.744 77.205 415.849 76.06 C 414.673 75.102 412.158 74.666 409.931 75.78 C 407.017 77.454 406.894 82.197 408.349 84.363 C 394.587 81.807 395.953 68.517 400.64 63.693 C 404.429 59.796 408.56 59.186 411.745 60.415 C 418.983 63.01 423.852 71.657 424.089 84.574 L 427.874 84.574 C 427.874 72.832 425.831 69.088 420.507 54.342 C 417.825 47.372 419.437 38.756 424.23 30.821 C 425.947 27.977 428.092 25.41 430.557 22.661 z M 317.25 0 L 543.861 0 L 543.861 135.964 L 317.25 135.964 L 317.25 0 z "
       style="fill:#0d2b88;fill-rule:evenodd;"
       id="path551" />
    <path
       d="M 113.307 249.268 C 115.77 252.017 117.914 254.584 119.631 257.426 C 124.424 265.362 126.035 273.978 123.356 280.947 C 118.03 295.693 115.987 299.435 115.987 311.179 L 119.772 311.179 C 120.008 298.263 124.879 289.615 132.116 287.021 C 135.302 285.792 139.434 286.401 143.221 290.298 C 147.909 295.122 149.274 308.411 135.512 310.968 C 136.969 308.802 136.844 304.06 133.932 302.385 C 131.703 301.271 129.188 301.707 128.012 302.665 C 126.119 303.81 124.297 307.47 124.297 311.179 L 130.832 311.171 L 130.83 318.468 L 117.266 318.46 C 117.444 322.214 119.491 325.22 123.299 326.896 C 122.809 328.476 120.512 331.701 117.358 331.482 C 116.735 334.894 116.143 336.81 113.307 339.91 C 110.469 336.81 109.877 334.894 109.254 331.482 C 106.1 331.701 103.803 328.476 103.313 326.896 C 107.122 325.22 109.168 322.214 109.346 318.46 L 95.782 318.468 L 95.782 311.171 L 102.315 311.179 C 102.315 307.47 100.495 303.81 98.6 302.665 C 97.424 301.707 94.909 301.27 92.682 302.385 C 89.768 304.06 89.643 308.802 91.1 310.968 C 77.338 308.411 78.704 295.122 83.391 290.298 C 87.18 286.401 91.311 285.792 94.496 287.021 C 101.734 289.615 106.603 298.263 106.84 311.179 L 110.625 311.179 C 110.625 299.435 108.582 295.693 103.258 280.947 C 100.576 273.977 102.188 265.361 106.981 257.426 C 108.697 254.584 110.842 252.017 113.307 249.268 z M 0 226.608 L 226.611 226.608 L 226.611 362.571 L 0 362.571 L 0 226.608 z "
       style="fill:#0d2b88;fill-rule:evenodd;"
       id="path552" />
    <path
       d="M 113.307 22.661 C 115.77 25.411 117.914 27.977 119.631 30.821 C 124.424 38.756 126.035 47.372 123.356 54.342 C 118.03 69.089 115.987 72.832 115.987 84.574 L 119.772 84.574 C 120.008 71.657 124.879 63.011 132.116 60.415 C 135.302 59.186 139.434 59.795 143.221 63.693 C 147.909 68.517 149.274 81.807 135.512 84.363 C 136.969 82.197 136.844 77.454 133.932 75.78 C 131.703 74.666 129.188 75.102 128.012 76.06 C 126.119 77.205 124.297 80.866 124.297 84.574 L 130.832 84.565 L 130.83 91.863 L 117.266 91.855 C 117.444 95.609 119.491 98.616 123.299 100.29 C 122.809 101.872 120.512 105.096 117.358 104.877 C 116.735 108.289 116.143 110.205 113.307 113.304 C 110.469 110.204 109.877 108.288 109.254 104.877 C 106.1 105.095 103.803 101.872 103.313 100.29 C 107.122 98.616 109.168 95.609 109.346 91.855 L 95.782 91.863 L 95.782 84.565 L 102.315 84.574 C 102.315 80.866 100.495 77.205 98.6 76.06 C 97.424 75.102 94.909 74.666 92.682 75.78 C 89.768 77.454 89.643 82.197 91.1 84.363 C 77.338 81.807 78.704 68.517 83.391 63.693 C 87.18 59.796 91.311 59.186 94.496 60.415 C 101.734 63.01 106.603 71.657 106.84 84.574 L 110.625 84.574 C 110.625 72.832 108.582 69.088 103.258 54.342 C 100.576 47.372 102.188 38.756 106.981 30.821 C 108.697 27.977 110.842 25.41 113.307 22.661 z M 0 0 L 226.611 0 L 226.611 135.964 L 0 135.964 L 0 0 z "
       style="fill:#0d2b88;fill-rule:evenodd;"
       id="path553" />
  </g>
</svg>
