<?xml version="1.0" encoding="UTF-8" standalone="no"?>
<svg
   xmlns:dc="http://purl.org/dc/elements/1.1/"
   xmlns:cc="http://creativecommons.org/ns#"
   xmlns:rdf="http://www.w3.org/1999/02/22-rdf-syntax-ns#"
   xmlns:svg="http://www.w3.org/2000/svg"
   xmlns="http://www.w3.org/2000/svg"
   xmlns:sodipodi="http://sodipodi.sourceforge.net/DTD/sodipodi-0.dtd"
   xmlns:inkscape="http://www.inkscape.org/namespaces/inkscape"
   version="1.0"
   width="900"
   height="600"
   id="svg3206">
  <defs
     id="defs27">
    <inkscape:perspective
       sodipodi:type="inkscape:persp3d"
       inkscape:vp_x="0 : 300 : 1"
       inkscape:vp_y="0 : 1000 : 0"
       inkscape:vp_z="900 : 300 : 1"
       inkscape:persp3d-origin="450 : 200 : 1"
       id="perspective3222" />
  </defs>
  <g
     id="g2454">
    <g
       transform="translate(-3.5294121e-8,7.3529465e-2)"
       id="g2469">
      <g
         style="fill-rule:evenodd"
         id="g2732"
         transform="matrix(1.5,0,0,1.5,3.5294121e-8,-0.07353)">
        <g
           id="g2739">
          <g
             id="g2388">
            <path
               id="path2715"
               d="M 0,0 600,0 600,400 0,400 0,0 z"
               style="fill:#c1272d;fill-opacity:1" />
            <g
               id="Layer 1"
               transform="matrix(0.952381,0,0,0.952381,15.23809,5.7142653)">
              <path
                 id="path2718"
                 d="M 299,29 124,204 299,379 474,204 299,29 z"
                 style="fill:#ffffff" />
              <path
                 id="path2720"
                 d="m 349,168 10,18 21,0 -11,19 11,18 -21,0 -10,18 -11,-18 -21,0 11,-18 -11,-19 21,0 11,-18 z"
                 style="fill:#006233;fill-opacity:1" />
              <path
                 id="path2722"
                 d="m 326,267 c -9,4 -19,6 -29,6 -39,0 -71,-32 -71,-72 0,-39 32,-71 71,-71 10,0 20,2 29,6 -1,0 -1,0 -2,0 -36,0 -66,29 -66,65 0,36 30,66 66,66 1,0 1,0 2,0 z"
                 style="fill:#006233;fill-opacity:1" />
            </g>
          </g>
        </g>
      </g>
    </g>
  </g>
</svg>
