<?xml version="1.0" encoding="UTF-8" standalone="no"?>
<svg
   xmlns:dc="http://purl.org/dc/elements/1.1/"
   xmlns:cc="http://creativecommons.org/ns#"
   xmlns:rdf="http://www.w3.org/1999/02/22-rdf-syntax-ns#"
   xmlns:svg="http://www.w3.org/2000/svg"
   xmlns="http://www.w3.org/2000/svg"
   xmlns:sodipodi="http://sodipodi.sourceforge.net/DTD/sodipodi-0.dtd"
   xmlns:inkscape="http://www.inkscape.org/namespaces/inkscape"
   width="500pt"
   height="333pt"
   viewBox="0 0 500 333"
   version="1.1"
   id="svg2"
   inkscape:version="0.48.1 r9760"
   sodipodi:docname="rusyn.svg">
  <metadata
     id="metadata77">
    <rdf:RDF>
      <cc:Work
         rdf:about="">
        <dc:format>image/svg+xml</dc:format>
        <dc:type
           rdf:resource="http://purl.org/dc/dcmitype/StillImage" />
        <dc:title></dc:title>
      </cc:Work>
    </rdf:RDF>
  </metadata>
  <defs
     id="defs75" />
  <sodipodi:namedview
     pagecolor="#ffffff"
     bordercolor="#666666"
     borderopacity="1"
     objecttolerance="10"
     gridtolerance="10"
     guidetolerance="10"
     inkscape:pageopacity="0"
     inkscape:pageshadow="2"
     inkscape:window-width="640"
     inkscape:window-height="480"
     id="namedview73"
     showgrid="false"
     inkscape:zoom="0.61501502"
     inkscape:cx="312.5"
     inkscape:cy="208.125"
     inkscape:window-x="0"
     inkscape:window-y="0"
     inkscape:window-maximized="0"
     inkscape:current-layer="svg2" />
  <g
     id="#332a79ff">
    <path
       fill="#332a79"
       opacity="1.00"
       d=" M 0.00 0.00 L 500.00 0.00 L 500.00 167.00 C 442.66 167.00 385.32 167.00 327.98 167.00 C 321.90 166.93 315.82 167.20 309.76 166.77 C 309.48 166.51 308.92 165.99 308.64 165.73 L 307.94 165.61 C 308.13 141.38 308.02 117.15 308.00 92.92 C 269.34 93.13 230.68 92.85 192.02 92.94 C 192.06 117.88 192.16 142.82 191.93 167.75 L 191.30 166.82 C 127.54 167.23 63.77 166.89 0.00 167.00 L 0.00 0.00 Z"
       id="path5" />
  </g>
  <g
     id="#fefefeff">
    <path
       fill="#fefefe"
       opacity="1.00"
       d=" M 192.02 92.94 C 230.68 92.85 269.34 93.13 308.00 92.92 C 308.02 117.15 308.13 141.38 307.94 165.61 L 308.64 165.73 C 307.53 169.75 308.13 173.92 308.09 178.02 C 308.09 190.02 308.08 202.02 308.12 214.02 C 308.02 217.64 307.95 221.65 305.62 224.64 C 302.39 228.04 297.58 229.59 292.96 229.56 C 283.70 229.55 274.44 229.28 265.19 229.69 C 259.13 230.07 252.47 232.58 250.04 238.64 C 247.58 232.18 240.36 229.89 234.05 229.61 C 225.37 229.39 216.67 229.45 207.98 229.57 C 203.28 229.69 198.38 228.37 194.93 225.05 C 192.82 222.95 192.36 219.84 192.22 217.00 C 192.07 200.58 191.84 184.17 191.93 167.75 C 192.16 142.82 192.06 117.88 192.02 92.94 M 194.55 95.73 C 194.53 102.18 194.58 108.63 194.52 115.08 C 194.45 121.36 194.44 127.64 194.52 133.93 C 194.55 140.36 194.59 146.80 194.50 153.23 C 194.48 159.54 194.46 165.86 194.52 172.17 C 194.67 178.57 194.35 184.97 194.71 191.36 L 194.36 191.37 C 194.64 197.68 194.42 204.00 194.51 210.32 C 194.75 214.02 194.06 217.97 195.59 221.47 C 197.72 225.67 202.80 226.69 207.07 227.12 C 218.04 227.97 229.14 226.38 240.06 228.11 C 244.21 228.74 247.61 231.48 250.26 234.59 C 250.22 226.48 250.23 218.38 250.23 210.27 C 250.21 203.95 250.26 197.63 250.24 191.30 C 250.09 184.91 250.20 178.52 250.19 172.13 C 250.32 165.82 250.19 159.52 250.22 153.21 C 250.23 146.85 250.03 140.49 250.21 134.13 C 250.25 127.79 250.24 121.45 250.23 115.11 C 250.23 108.65 250.23 102.18 250.24 95.72 C 231.68 95.65 213.11 95.64 194.55 95.73 M 283.87 105.58 C 280.62 104.89 278.31 108.32 275.08 107.93 C 272.83 107.91 270.60 107.62 268.37 107.41 C 268.21 109.49 268.51 111.56 269.11 113.56 C 270.25 114.48 271.37 115.41 272.50 116.35 C 274.96 116.33 277.62 115.93 279.40 118.03 C 276.00 117.09 272.52 117.24 269.05 117.61 C 266.84 117.79 265.66 114.06 263.29 115.74 C 264.79 118.02 266.89 119.80 269.53 120.63 C 269.82 120.97 270.41 121.65 270.71 122.00 C 273.83 122.55 277.07 124.53 277.19 128.06 C 277.76 134.95 272.35 140.51 266.62 143.46 C 262.54 143.78 258.41 144.04 254.71 146.02 C 254.14 147.92 253.70 149.85 253.39 151.81 C 253.61 153.05 253.38 154.27 252.82 155.40 C 253.29 155.39 254.22 155.39 254.69 155.38 L 254.54 156.91 C 255.04 156.75 256.04 156.42 256.54 156.26 C 256.62 156.85 256.77 158.04 256.85 158.63 C 259.36 155.55 263.51 156.00 267.07 155.73 C 263.89 156.58 261.19 158.53 260.58 161.95 C 260.87 162.61 261.44 163.93 261.72 164.59 C 262.03 164.60 262.65 164.61 262.95 164.62 C 262.93 165.35 262.87 166.81 262.85 167.54 C 263.74 166.98 264.64 166.41 265.54 165.85 L 265.85 167.84 C 268.56 166.61 270.61 164.48 271.96 161.85 C 270.95 165.17 269.90 168.53 269.76 172.03 C 269.64 175.29 271.08 178.31 272.27 181.27 C 270.28 184.02 268.21 186.78 267.16 190.04 C 265.36 194.59 265.61 199.56 265.06 204.34 C 263.80 202.61 262.97 200.07 260.67 199.48 C 257.86 198.78 255.30 200.85 253.88 203.08 C 254.50 203.16 255.76 203.32 256.38 203.39 C 255.14 204.35 253.91 205.31 252.66 206.26 C 253.25 206.57 254.42 207.18 255.01 207.48 C 254.14 209.14 253.27 210.81 252.47 212.50 C 253.16 212.20 254.56 211.59 255.25 211.29 C 254.59 212.96 254.03 214.67 253.56 216.41 C 256.42 216.18 259.04 214.97 261.76 214.24 C 265.71 216.34 270.34 215.13 274.51 214.51 C 278.82 211.67 275.60 206.07 276.09 201.94 C 275.59 197.73 279.81 195.71 282.96 194.21 C 283.24 195.14 283.53 196.06 283.82 196.99 C 287.00 199.69 290.28 202.71 290.97 207.07 C 289.68 205.22 288.75 203.08 287.02 201.59 C 284.27 200.66 281.87 202.42 279.66 203.79 C 280.14 204.15 281.11 204.88 281.59 205.24 C 280.50 206.22 279.42 207.22 278.36 208.23 C 279.04 208.35 280.40 208.59 281.07 208.70 C 280.39 210.00 279.63 211.26 278.81 212.48 C 279.60 212.49 281.19 212.51 281.98 212.52 C 281.55 213.62 281.13 214.74 280.71 215.85 C 283.53 215.62 286.55 212.98 289.01 215.47 C 290.03 215.02 291.07 214.62 292.13 214.26 C 295.10 214.01 299.73 215.73 301.02 211.95 C 302.96 208.30 300.74 204.53 299.82 200.97 C 299.70 197.68 300.55 194.28 298.81 191.26 C 299.24 189.09 299.56 186.89 300.07 184.74 C 300.79 182.85 302.39 181.21 302.16 179.05 C 302.40 174.27 299.27 169.93 300.24 165.12 C 300.78 161.42 301.04 157.66 300.46 153.94 C 299.49 147.30 301.16 140.58 300.00 133.96 C 299.10 131.70 297.49 129.81 296.46 127.62 C 296.71 123.47 297.51 119.28 296.10 115.21 C 298.32 112.16 297.23 108.61 296.33 105.30 C 295.69 105.90 294.41 107.11 293.77 107.71 C 293.64 106.37 293.52 105.03 293.39 103.69 C 290.63 105.89 287.23 106.18 283.87 105.58 Z"
       id="path8" />
    <path
       fill="#fefefe"
       opacity="1.00"
       d=" M 271.35 110.18 C 271.77 110.88 271.77 110.88 271.35 110.18 Z"
       id="path10" />
    <path
       fill="#fefefe"
       opacity="1.00"
       d=" M 290.44 111.76 C 291.38 111.24 292.32 110.74 293.27 110.24 C 293.29 111.96 292.67 113.15 290.73 112.97 C 290.68 114.54 290.98 116.14 290.70 117.70 C 289.73 119.21 288.41 120.44 287.13 121.68 C 289.13 118.71 290.72 115.44 290.44 111.76 Z"
       id="path12" />
    <path
       fill="#fefefe"
       opacity="1.00"
       d=" M 281.42 111.40 C 281.64 111.61 281.64 111.61 281.42 111.40 Z"
       id="path14" />
    <path
       fill="#fefefe"
       opacity="1.00"
       d=" M 280.77 140.26 C 280.80 138.04 281.10 135.83 281.71 133.71 C 281.67 135.89 282.14 138.36 280.77 140.26 Z"
       id="path16" />
    <path
       fill="#fefefe"
       opacity="1.00"
       d=" M 274.76 140.60 C 275.22 139.13 276.77 137.16 278.46 137.25 C 278.59 138.86 276.32 140.90 274.76 140.60 Z"
       id="path18" />
    <path
       fill="#fefefe"
       opacity="1.00"
       d=" M 296.95 150.23 C 295.85 146.74 295.61 142.68 297.87 139.59 C 297.30 143.11 297.04 146.66 296.95 150.23 Z"
       id="path20" />
    <path
       fill="#fefefe"
       opacity="1.00"
       d=" M 296.93 155.88 C 293.64 153.17 291.78 148.58 294.42 144.75 C 294.37 146.80 293.80 148.87 294.23 150.91 C 294.82 152.71 296.02 154.22 296.93 155.88 Z"
       id="path22" />
    <path
       fill="#fefefe"
       opacity="1.00"
       d=" M 266.34 153.97 C 267.04 152.12 268.70 151.39 270.55 151.84 C 272.20 151.61 273.84 151.35 275.48 151.07 C 275.02 151.46 274.09 152.24 273.62 152.63 C 272.08 152.59 270.55 152.58 269.01 152.62 C 268.35 152.96 267.01 153.63 266.34 153.97 Z"
       id="path24" />
    <path
       fill="#fefefe"
       opacity="1.00"
       d=" M 0.00 167.00 C 63.77 166.89 127.54 167.23 191.30 166.82 C 191.07 182.88 191.34 198.94 191.26 215.00 C 191.20 219.35 191.82 224.57 195.90 227.07 C 202.94 232.10 211.95 230.08 220.00 230.44 C 228.15 230.84 237.06 229.07 244.48 233.35 C 248.08 235.16 249.09 239.28 250.14 242.81 C 250.98 239.52 251.80 235.76 254.95 233.85 C 262.33 228.90 271.66 230.88 280.01 230.45 C 288.26 230.07 297.65 232.20 304.73 226.72 C 308.82 223.90 308.85 218.45 308.92 213.99 C 308.79 198.73 309.09 183.47 308.72 168.22 C 308.98 167.85 309.50 167.13 309.76 166.77 C 315.82 167.20 321.90 166.93 327.98 167.00 C 385.32 167.00 442.66 167.00 500.00 167.00 L 500.00 250.00 C 333.33 250.00 166.67 250.00 0.00 250.00 L 0.00 167.00 Z"
       id="path26" />
    <path
       fill="#fefefe"
       opacity="1.00"
       d=" M 275.66 180.25 C 277.08 177.82 279.15 175.89 281.23 174.04 C 280.36 176.85 278.36 179.07 275.66 180.25 Z"
       id="path28" />
    <path
       fill="#fefefe"
       opacity="1.00"
       d=" M 256.58 205.02 C 257.79 204.14 258.53 204.35 258.79 205.66 C 257.57 206.55 256.84 206.34 256.58 205.02 Z"
       id="path30" />
    <path
       fill="#fefefe"
       opacity="1.00"
       d=" M 283.26 209.37 C 283.80 209.98 283.80 209.98 283.26 209.37 Z"
       id="path32" />
  </g>
  <g
     id="#3d99d8ff">
    <path
       fill="#3d99d8"
       opacity="1.00"
       d=" M 194.55 95.73 C 213.11 95.64 231.68 95.65 250.24 95.72 C 250.23 102.18 250.23 108.65 250.23 115.11 C 231.66 115.09 213.09 115.13 194.52 115.08 C 194.58 108.63 194.53 102.18 194.55 95.73 Z"
       id="path35" />
    <path
       fill="#3d99d8"
       opacity="1.00"
       d=" M 194.52 133.93 C 213.08 134.32 231.65 133.98 250.21 134.13 C 250.03 140.49 250.23 146.85 250.22 153.21 C 231.65 153.30 213.07 153.26 194.50 153.23 C 194.59 146.80 194.55 140.36 194.52 133.93 Z"
       id="path37" />
    <path
       fill="#3d99d8"
       opacity="1.00"
       d=" M 308.64 165.73 C 308.92 165.99 309.48 166.51 309.76 166.77 C 309.50 167.13 308.98 167.85 308.72 168.22 C 309.09 183.47 308.79 198.73 308.92 213.99 C 308.85 218.45 308.82 223.90 304.73 226.72 C 297.65 232.20 288.26 230.07 280.01 230.45 C 271.66 230.88 262.33 228.90 254.95 233.85 C 251.80 235.76 250.98 239.52 250.14 242.81 C 249.09 239.28 248.08 235.16 244.48 233.35 C 237.06 229.07 228.15 230.84 220.00 230.44 C 211.95 230.08 202.94 232.10 195.90 227.07 C 191.82 224.57 191.20 219.35 191.26 215.00 C 191.34 198.94 191.07 182.88 191.30 166.82 L 191.93 167.75 C 191.84 184.17 192.07 200.58 192.22 217.00 C 192.36 219.84 192.82 222.95 194.93 225.05 C 198.38 228.37 203.28 229.69 207.98 229.57 C 216.67 229.45 225.37 229.39 234.05 229.61 C 240.36 229.89 247.58 232.18 250.04 238.64 C 252.47 232.58 259.13 230.07 265.19 229.69 C 274.44 229.28 283.70 229.55 292.96 229.56 C 297.58 229.59 302.39 228.04 305.62 224.64 C 307.95 221.65 308.02 217.64 308.12 214.02 C 308.08 202.02 308.09 190.02 308.09 178.02 C 308.13 173.92 307.53 169.75 308.64 165.73 Z"
       id="path39" />
    <path
       fill="#3d99d8"
       opacity="1.00"
       d=" M 194.52 172.17 C 213.08 172.08 231.64 172.15 250.19 172.13 C 250.20 178.52 250.09 184.91 250.24 191.30 C 231.73 191.38 213.22 191.25 194.71 191.36 C 194.35 184.97 194.67 178.57 194.52 172.17 Z"
       id="path41" />
    <path
       fill="#3d99d8"
       opacity="1.00"
       d=" M 194.51 210.32 C 213.08 210.21 231.66 210.29 250.23 210.27 C 250.23 218.38 250.22 226.48 250.26 234.59 C 247.61 231.48 244.21 228.74 240.06 228.11 C 229.14 226.38 218.04 227.97 207.07 227.12 C 202.80 226.69 197.72 225.67 195.59 221.47 C 194.06 217.97 194.75 214.02 194.51 210.32 Z"
       id="path43" />
  </g>
  <g
     id="#bc1829ff">
    <path
       fill="#bc1829"
       opacity="1.00"
       d=" M 283.87 105.58 C 287.23 106.18 290.63 105.89 293.39 103.69 C 293.52 105.03 293.64 106.37 293.77 107.71 C 294.41 107.11 295.69 105.90 296.33 105.30 C 297.23 108.61 298.32 112.16 296.10 115.21 C 297.51 119.28 296.71 123.47 296.46 127.62 C 297.49 129.81 299.10 131.70 300.00 133.96 C 301.16 140.58 299.49 147.30 300.46 153.94 C 301.04 157.66 300.78 161.42 300.24 165.12 C 299.27 169.93 302.40 174.27 302.16 179.05 C 302.39 181.21 300.79 182.85 300.07 184.74 C 299.56 186.89 299.24 189.09 298.81 191.26 C 300.55 194.28 299.70 197.68 299.82 200.97 C 300.74 204.53 302.96 208.30 301.02 211.95 C 299.73 215.73 295.10 214.01 292.13 214.26 C 291.07 214.62 290.03 215.02 289.01 215.47 C 286.55 212.98 283.53 215.62 280.71 215.85 C 281.13 214.74 281.55 213.62 281.98 212.52 C 281.19 212.51 279.60 212.49 278.81 212.48 C 279.63 211.26 280.39 210.00 281.07 208.70 C 280.40 208.59 279.04 208.35 278.36 208.23 C 279.42 207.22 280.50 206.22 281.59 205.24 C 281.11 204.88 280.14 204.15 279.66 203.79 C 281.87 202.42 284.27 200.66 287.02 201.59 C 288.75 203.08 289.68 205.22 290.97 207.07 C 290.28 202.71 287.00 199.69 283.82 196.99 C 283.53 196.06 283.24 195.14 282.96 194.21 C 279.81 195.71 275.59 197.73 276.09 201.94 C 275.60 206.07 278.82 211.67 274.51 214.51 C 270.34 215.13 265.71 216.34 261.76 214.24 C 259.04 214.97 256.42 216.18 253.56 216.41 C 254.03 214.67 254.59 212.96 255.25 211.29 C 254.56 211.59 253.16 212.20 252.47 212.50 C 253.27 210.81 254.14 209.14 255.01 207.48 C 254.42 207.18 253.25 206.57 252.66 206.26 C 253.91 205.31 255.14 204.35 256.38 203.39 C 255.76 203.32 254.50 203.16 253.88 203.08 C 255.30 200.85 257.86 198.78 260.67 199.48 C 262.97 200.07 263.80 202.61 265.06 204.34 C 265.61 199.56 265.36 194.59 267.16 190.04 C 268.21 186.78 270.28 184.02 272.27 181.27 C 271.08 178.31 269.64 175.29 269.76 172.03 C 269.90 168.53 270.95 165.17 271.96 161.85 C 270.61 164.48 268.56 166.61 265.85 167.84 L 265.54 165.85 C 264.64 166.41 263.74 166.98 262.85 167.54 C 262.87 166.81 262.93 165.35 262.95 164.62 C 262.65 164.61 262.03 164.60 261.72 164.59 C 261.44 163.93 260.87 162.61 260.58 161.95 C 261.19 158.53 263.89 156.58 267.07 155.73 C 263.51 156.00 259.36 155.55 256.85 158.63 C 256.77 158.04 256.62 156.85 256.54 156.26 C 256.04 156.42 255.04 156.75 254.54 156.91 L 254.69 155.38 C 254.22 155.39 253.29 155.39 252.82 155.40 C 253.38 154.27 253.61 153.05 253.39 151.81 C 253.70 149.85 254.14 147.92 254.71 146.02 C 258.41 144.04 262.54 143.78 266.62 143.46 C 272.35 140.51 277.76 134.95 277.19 128.06 C 277.07 124.53 273.83 122.55 270.71 122.00 C 270.41 121.65 269.82 120.97 269.53 120.63 C 266.89 119.80 264.79 118.02 263.29 115.74 C 265.66 114.06 266.84 117.79 269.05 117.61 C 272.52 117.24 276.00 117.09 279.40 118.03 C 277.62 115.93 274.96 116.33 272.50 116.35 C 271.37 115.41 270.25 114.48 269.11 113.56 C 268.51 111.56 268.21 109.49 268.37 107.41 C 270.60 107.62 272.83 107.91 275.08 107.93 C 278.31 108.32 280.62 104.89 283.87 105.58 M 271.35 110.18 C 271.77 110.88 271.77 110.88 271.35 110.18 M 290.44 111.76 C 290.72 115.44 289.13 118.71 287.13 121.68 C 288.41 120.44 289.73 119.21 290.70 117.70 C 290.98 116.14 290.68 114.54 290.73 112.97 C 292.67 113.15 293.29 111.96 293.27 110.24 C 292.32 110.74 291.38 111.24 290.44 111.76 M 281.42 111.40 C 281.64 111.61 281.64 111.61 281.42 111.40 M 274.33 120.21 C 274.82 120.75 274.82 120.75 274.33 120.21 M 293.22 127.32 C 293.85 127.70 293.85 127.70 293.22 127.32 M 280.77 140.26 C 282.14 138.36 281.67 135.89 281.71 133.71 C 281.10 135.83 280.80 138.04 280.77 140.26 M 274.76 140.60 C 276.32 140.90 278.59 138.86 278.46 137.25 C 276.77 137.16 275.22 139.13 274.76 140.60 M 296.95 150.23 C 297.04 146.66 297.30 143.11 297.87 139.59 C 295.61 142.68 295.85 146.74 296.95 150.23 M 296.93 155.88 C 296.02 154.22 294.82 152.71 294.23 150.91 C 293.80 148.87 294.37 146.80 294.42 144.75 C 291.78 148.58 293.64 153.17 296.93 155.88 M 280.50 149.23 C 278.96 149.46 278.89 152.19 280.74 151.06 C 282.27 150.83 282.34 148.08 280.50 149.23 M 266.34 153.97 C 267.01 153.63 268.35 152.96 269.01 152.62 C 270.55 152.58 272.08 152.59 273.62 152.63 C 274.09 152.24 275.02 151.46 275.48 151.07 C 273.84 151.35 272.20 151.61 270.55 151.84 C 268.70 151.39 267.04 152.12 266.34 153.97 M 275.97 151.15 C 274.67 154.24 279.31 150.97 275.97 151.15 M 275.66 180.25 C 278.36 179.07 280.36 176.85 281.23 174.04 C 279.15 175.89 277.08 177.82 275.66 180.25 M 286.12 189.45 C 284.70 192.47 289.46 189.42 286.12 189.45 M 283.99 190.41 C 282.75 193.53 287.32 190.22 283.99 190.41 M 256.58 205.02 C 256.84 206.34 257.57 206.55 258.79 205.66 C 258.53 204.35 257.79 204.14 256.58 205.02 M 283.27 206.26 C 283.79 206.78 283.79 206.78 283.27 206.26 M 257.07 208.08 C 257.20 211.41 260.04 206.55 257.07 208.08 M 283.26 209.37 C 283.80 209.98 283.80 209.98 283.26 209.37 Z"
       id="path46" />
    <path
       fill="#bc1829"
       opacity="1.00"
       d=" M 0.00 250.00 C 166.67 250.00 333.33 250.00 500.00 250.00 L 500.00 333.00 L 0.00 333.00 L 0.00 250.00 Z"
       id="path48" />
  </g>
  <g
     id="#e7d825ff">
    <path
       fill="#e7d825"
       opacity="1.00"
       d=" M 194.52 133.93 C 194.44 127.64 194.45 121.36 194.52 115.08 C 213.09 115.13 231.66 115.09 250.23 115.11 C 250.24 121.45 250.25 127.79 250.21 134.13 C 231.65 133.98 213.08 134.32 194.52 133.93 Z"
       id="path51" />
    <path
       fill="#e7d825"
       opacity="1.00"
       d=" M 274.33 120.21 C 274.82 120.75 274.82 120.75 274.33 120.21 Z"
       id="path53" />
    <path
       fill="#e7d825"
       opacity="1.00"
       d=" M 293.22 127.32 C 293.85 127.70 293.85 127.70 293.22 127.32 Z"
       id="path55" />
    <path
       fill="#e7d825"
       opacity="1.00"
       d=" M 280.50 149.23 C 282.34 148.08 282.27 150.83 280.74 151.06 C 278.89 152.19 278.96 149.46 280.50 149.23 Z"
       id="path57" />
    <path
       fill="#e7d825"
       opacity="1.00"
       d=" M 275.97 151.15 C 279.31 150.97 274.67 154.24 275.97 151.15 Z"
       id="path59" />
    <path
       fill="#e7d825"
       opacity="1.00"
       d=" M 194.50 153.23 C 213.07 153.26 231.65 153.30 250.22 153.21 C 250.19 159.52 250.32 165.82 250.19 172.13 C 231.64 172.15 213.08 172.08 194.52 172.17 C 194.46 165.86 194.48 159.54 194.50 153.23 Z"
       id="path61" />
    <path
       fill="#e7d825"
       opacity="1.00"
       d=" M 286.12 189.45 C 289.46 189.42 284.70 192.47 286.12 189.45 Z"
       id="path63" />
    <path
       fill="#e7d825"
       opacity="1.00"
       d=" M 283.99 190.41 C 287.32 190.22 282.75 193.53 283.99 190.41 Z"
       id="path65" />
    <path
       fill="#e7d825"
       opacity="1.00"
       d=" M 194.36 191.37 L 194.71 191.36 C 213.22 191.25 231.73 191.38 250.24 191.30 C 250.26 197.63 250.21 203.95 250.23 210.27 C 231.66 210.29 213.08 210.21 194.51 210.32 C 194.42 204.00 194.64 197.68 194.36 191.37 Z"
       id="path67" />
    <path
       fill="#e7d825"
       opacity="1.00"
       d=" M 283.27 206.26 C 283.79 206.78 283.79 206.78 283.27 206.26 Z"
       id="path69" />
    <path
       fill="#e7d825"
       opacity="1.00"
       d=" M 257.07 208.08 C 260.04 206.55 257.20 211.41 257.07 208.08 Z"
       id="path71" />
  </g>
</svg>
