<?xml version="1.0" encoding="UTF-8" ?>
<!DOCTYPE svg PUBLIC "-//W3C//DTD SVG 1.1//EN" "http://www.w3.org/Graphics/SVG/1.1/DTD/svg11.dtd">
<svg width="310pt" height="210pt" viewBox="0 0 310 210" version="1.1" xmlns="http://www.w3.org/2000/svg">
<g id="#397b22ff">
<path fill="#397b22" opacity="1.00" d=" M 0.00 0.00 L 310.00 0.00 L 310.00 210.00 L 0.00 210.00 L 0.00 0.00 M 132.86 15.72 C 133.04 18.91 132.96 22.10 133.14 25.28 C 134.72 28.53 133.79 32.23 134.04 35.69 C 132.69 36.25 131.33 36.76 129.96 37.26 C 130.05 34.74 130.04 32.22 129.84 29.71 C 128.23 26.78 129.77 23.21 128.15 20.28 C 128.05 18.64 128.00 17.00 127.97 15.36 C 127.48 14.93 126.49 14.07 125.99 13.64 C 126.01 18.55 125.95 23.45 126.06 28.36 C 126.37 29.00 127.00 30.29 127.32 30.93 C 126.11 31.00 124.91 31.08 123.71 31.18 C 121.81 32.18 119.64 32.05 117.57 32.03 C 115.95 30.20 113.77 29.09 111.36 28.74 C 109.51 31.06 108.26 34.54 104.70 34.35 C 102.27 35.00 99.71 34.96 97.31 35.71 C 96.88 35.82 96.02 36.03 95.59 36.14 C 93.84 37.00 92.11 37.92 90.46 38.96 C 94.53 38.75 98.82 39.78 102.71 38.21 C 103.90 38.07 105.10 37.93 106.29 37.79 C 108.00 36.51 109.82 37.15 111.37 38.26 C 110.57 38.98 109.76 39.70 108.95 40.41 C 109.00 41.72 109.07 43.04 109.15 44.35 C 110.51 47.86 110.58 52.12 109.13 55.62 C 109.02 57.55 108.99 59.49 108.97 61.42 C 110.28 63.50 111.72 65.48 112.99 67.57 C 112.99 68.04 112.99 68.98 112.99 69.45 C 114.61 72.32 116.79 74.93 119.78 76.45 C 120.03 77.87 120.28 79.30 120.72 80.68 C 120.82 81.11 121.02 81.98 121.12 82.42 C 122.01 84.17 122.95 85.90 123.94 87.59 C 123.93 89.99 123.73 92.49 124.82 94.72 C 124.96 96.58 125.04 98.44 125.17 100.31 C 126.56 102.70 126.70 106.35 123.56 107.33 C 122.80 105.10 121.32 103.25 118.99 102.60 C 119.00 103.86 119.02 105.12 119.05 106.38 C 120.37 108.95 122.08 111.36 122.90 114.15 C 123.53 116.18 122.02 117.96 121.09 119.61 C 121.05 120.06 120.98 120.97 120.94 121.42 C 120.32 122.47 119.69 123.52 119.06 124.57 C 119.02 125.04 118.95 125.96 118.91 126.42 C 117.93 128.09 117.06 129.82 116.25 131.58 C 115.89 132.72 115.49 133.84 115.08 134.97 C 116.49 138.02 116.42 141.58 115.30 144.71 C 115.03 146.38 114.90 148.10 114.14 149.65 C 113.90 151.93 113.75 154.30 114.60 156.49 C 113.70 160.77 113.32 165.55 114.86 169.71 C 115.42 173.70 114.12 177.98 115.86 181.76 C 112.25 184.41 110.39 188.61 107.01 191.46 C 106.99 192.82 106.99 194.18 107.00 195.55 C 107.82 196.36 108.63 197.18 109.45 198.00 C 111.87 197.99 114.29 198.00 116.71 198.06 C 119.94 194.46 121.33 189.74 123.75 185.63 C 122.54 182.99 122.72 180.00 123.62 177.30 C 124.00 175.96 124.38 174.63 124.79 173.31 C 124.91 172.42 125.02 171.53 125.13 170.64 C 125.69 169.26 126.26 167.88 126.84 166.51 C 125.32 163.80 126.12 160.56 126.05 157.61 C 126.63 156.56 127.21 155.50 127.78 154.45 C 128.10 153.41 128.44 152.37 128.80 151.35 C 128.88 150.91 129.04 150.04 129.12 149.60 C 130.34 147.96 130.99 146.00 131.05 143.96 C 134.27 145.70 138.37 145.46 141.71 144.16 C 144.06 143.99 146.41 143.97 148.76 143.93 C 151.18 148.06 153.28 152.38 155.22 156.76 C 156.48 157.28 157.75 157.80 159.03 158.31 C 159.02 159.38 159.01 160.45 159.00 161.53 C 162.42 164.53 164.97 168.42 166.74 172.59 C 167.07 173.62 167.43 174.64 167.82 175.66 C 167.90 176.11 168.06 177.00 168.14 177.45 C 168.57 178.42 168.99 179.39 169.42 180.36 C 170.02 182.79 169.86 185.37 170.81 187.72 C 170.84 188.28 170.90 189.41 170.93 189.98 C 172.99 191.33 175.53 191.38 177.70 190.23 C 178.16 190.15 179.09 190.01 179.56 189.93 C 180.71 188.80 181.86 187.67 183.02 186.54 C 183.00 185.56 182.97 184.58 182.94 183.60 C 179.97 179.49 177.37 175.06 175.28 170.42 C 174.90 169.38 174.51 168.34 174.10 167.32 C 174.00 164.74 173.96 162.16 173.97 159.58 C 171.74 157.05 170.25 153.99 168.08 151.42 C 168.00 150.51 167.92 149.59 167.84 148.68 C 167.20 146.93 166.79 145.12 166.34 143.32 C 165.93 142.28 165.49 141.26 165.04 140.24 C 165.52 139.85 166.48 139.05 166.96 138.65 C 167.02 137.33 167.08 136.02 167.17 134.71 C 167.71 133.42 167.94 132.04 168.14 130.67 C 164.88 125.80 162.31 120.55 159.56 115.39 C 156.51 111.35 155.46 106.10 151.95 102.39 C 151.50 99.98 152.69 98.10 155.12 97.59 C 154.60 96.32 154.20 95.00 153.80 93.69 C 153.35 94.11 152.45 94.94 152.00 95.35 C 151.99 91.23 152.00 87.11 152.00 82.98 C 153.47 83.00 154.95 83.02 156.42 83.03 C 159.84 86.26 164.97 87.96 166.85 92.55 C 167.04 93.94 167.28 95.33 167.62 96.69 C 168.00 98.03 168.37 99.36 168.79 100.69 C 168.90 101.57 169.02 102.46 169.13 103.35 C 169.71 104.78 170.28 106.23 170.87 107.66 C 170.97 108.54 171.07 109.43 171.18 110.32 C 171.77 112.10 172.23 113.91 172.77 115.70 C 172.90 116.10 173.15 116.92 173.27 117.33 C 173.66 118.64 173.99 119.98 174.31 121.32 C 174.78 123.11 175.21 124.92 175.83 126.68 C 175.92 127.57 176.02 128.46 176.12 129.35 C 176.72 130.78 177.29 132.21 177.87 133.65 C 177.98 134.53 178.10 135.41 178.23 136.30 C 178.66 137.63 178.97 139.00 179.24 140.37 C 181.75 147.34 188.30 151.71 194.60 154.95 C 195.13 154.95 196.18 154.95 196.70 154.95 C 197.55 156.64 197.93 158.50 198.32 160.34 C 198.73 161.67 198.97 163.04 199.15 164.42 C 200.77 167.53 202.52 170.97 206.42 171.39 C 209.78 173.06 212.66 169.68 215.70 168.73 C 216.53 166.22 218.13 164.10 220.15 162.43 C 219.96 161.03 219.72 159.62 219.22 158.29 C 219.10 157.41 218.98 156.53 218.86 155.65 C 218.28 154.22 217.72 152.79 217.14 151.36 C 217.06 150.93 216.92 150.07 216.84 149.64 C 216.43 148.63 216.01 147.63 215.61 146.63 C 215.26 145.28 215.00 143.92 214.75 142.56 C 214.39 141.59 214.04 140.61 213.70 139.64 C 213.36 138.63 213.03 137.63 212.70 136.63 C 212.37 135.63 212.05 134.62 211.74 133.62 C 211.24 132.21 210.75 130.78 210.29 129.36 C 209.93 128.34 209.56 127.33 209.15 126.34 C 209.05 125.44 208.95 124.55 208.85 123.66 C 208.44 122.66 208.06 121.65 207.73 120.63 C 207.26 119.17 206.73 117.74 206.12 116.35 C 206.03 115.45 205.94 114.55 205.86 113.66 C 205.44 112.62 205.02 111.59 204.60 110.56 C 203.64 107.70 203.92 104.65 204.16 101.71 C 205.07 100.33 205.23 98.63 204.22 97.25 C 204.54 91.95 201.28 87.60 198.66 83.32 C 196.01 82.26 194.35 79.84 193.01 77.44 C 192.99 76.98 192.96 76.06 192.94 75.60 C 192.35 74.56 191.77 73.52 191.20 72.48 C 190.93 71.43 190.64 70.40 190.32 69.38 C 189.97 68.38 189.63 67.38 189.29 66.38 C 188.96 65.37 188.64 64.37 188.32 63.36 C 187.95 62.35 187.55 61.35 187.14 60.35 C 187.09 59.88 187.00 58.95 186.95 58.48 C 186.31 57.47 185.67 56.45 185.04 55.44 C 185.01 54.98 184.96 54.06 184.93 53.59 C 184.35 52.55 183.77 51.51 183.20 50.47 C 182.93 49.43 182.65 48.40 182.34 47.38 C 181.95 46.37 181.55 45.36 181.14 44.36 C 181.10 43.91 181.02 43.00 180.98 42.54 C 178.65 38.07 173.89 35.58 169.64 33.24 C 168.33 33.72 166.95 33.98 165.58 34.19 C 164.50 34.75 163.44 35.33 162.39 35.94 C 161.91 35.98 160.96 36.04 160.48 36.07 C 157.85 37.76 155.72 40.03 153.94 42.58 C 153.99 44.30 154.10 46.04 154.62 47.69 C 155.00 49.03 155.38 50.37 155.79 51.69 C 155.90 52.58 156.02 53.47 156.13 54.35 C 156.72 55.78 157.29 57.22 157.87 58.65 C 157.98 59.54 158.09 60.42 158.22 61.30 C 158.64 62.64 158.99 64.00 159.29 65.38 C 155.91 63.88 152.89 61.67 149.47 60.23 C 147.78 59.82 146.14 59.24 144.54 58.60 C 145.23 57.13 146.57 56.22 147.96 55.47 C 147.98 54.45 148.00 53.44 148.02 52.42 C 147.01 51.48 146.00 50.53 145.00 49.58 C 144.93 46.24 145.70 42.37 143.20 39.66 C 144.52 37.04 143.49 33.91 144.82 31.28 C 144.99 28.93 144.75 26.46 145.84 24.28 C 145.77 20.02 147.09 15.28 144.64 11.45 C 143.75 12.82 142.88 14.20 141.99 15.56 C 142.02 18.80 142.07 22.05 141.85 25.29 C 140.19 29.04 141.23 33.28 141.06 37.25 C 139.68 36.76 138.30 36.25 136.95 35.69 C 137.08 31.45 136.93 27.21 137.03 22.98 C 137.02 20.40 137.32 17.70 136.22 15.28 C 136.09 12.93 136.06 10.50 134.67 8.47 C 133.11 10.54 130.89 13.12 132.86 15.72 Z" />
<path fill="#397b22" opacity="1.00" d=" M 121.29 34.74 C 123.08 33.98 125.03 33.96 126.94 33.90 C 127.00 35.36 127.06 36.82 127.15 38.28 C 128.17 39.63 128.12 41.38 127.14 42.72 C 126.94 46.26 126.99 49.80 126.96 53.34 C 126.66 53.91 126.05 55.05 125.74 55.62 C 130.34 56.67 129.59 63.13 127.81 66.36 C 125.29 63.95 122.23 59.23 118.27 61.86 C 117.95 61.54 117.32 60.89 117.01 60.57 C 117.02 58.29 117.01 56.00 116.85 53.72 C 115.49 51.08 116.47 47.96 115.23 45.29 C 115.04 43.29 115.05 41.23 114.23 39.36 C 115.33 38.00 116.16 36.39 117.48 35.22 C 118.74 34.97 120.02 34.89 121.29 34.74 Z" />
</g>
<g id="#e7bc2aff">
<path fill="#e7bc2a" opacity="1.00" d=" M 132.86 15.72 C 130.89 13.12 133.11 10.54 134.67 8.47 C 136.06 10.50 136.09 12.93 136.22 15.28 C 137.32 17.70 137.02 20.40 137.03 22.98 C 136.93 27.21 137.08 31.45 136.95 35.69 C 138.30 36.25 139.68 36.76 141.06 37.25 C 141.23 33.28 140.19 29.04 141.85 25.29 C 142.07 22.05 142.02 18.80 141.99 15.56 C 142.88 14.20 143.75 12.82 144.64 11.45 C 147.09 15.28 145.77 20.02 145.84 24.28 C 144.75 26.46 144.99 28.93 144.82 31.28 C 143.49 33.91 144.52 37.04 143.20 39.66 C 145.70 42.37 144.93 46.24 145.00 49.58 C 146.00 50.53 147.01 51.48 148.02 52.42 C 148.00 53.44 147.98 54.45 147.96 55.47 C 146.57 56.22 145.23 57.13 144.54 58.60 C 146.14 59.24 147.78 59.82 149.47 60.23 C 152.89 61.67 155.91 63.88 159.29 65.38 C 158.99 64.00 158.64 62.64 158.22 61.30 C 158.09 60.42 157.98 59.54 157.87 58.65 C 157.29 57.22 156.72 55.78 156.13 54.35 C 156.02 53.47 155.90 52.58 155.79 51.69 C 155.38 50.37 155.00 49.03 154.62 47.69 C 154.10 46.04 153.99 44.30 153.94 42.58 C 155.72 40.03 157.85 37.76 160.48 36.07 C 160.96 36.04 161.91 35.98 162.39 35.94 C 163.44 35.33 164.50 34.75 165.58 34.19 C 166.95 33.98 168.33 33.72 169.64 33.24 C 173.89 35.58 178.65 38.07 180.98 42.54 C 181.02 43.00 181.10 43.91 181.14 44.36 C 181.55 45.36 181.95 46.37 182.34 47.38 C 182.65 48.40 182.93 49.43 183.20 50.47 C 183.77 51.51 184.35 52.55 184.93 53.59 C 184.96 54.06 185.01 54.98 185.04 55.44 C 185.67 56.45 186.31 57.47 186.95 58.48 C 187.00 58.95 187.09 59.88 187.14 60.35 C 187.55 61.35 187.95 62.35 188.32 63.36 C 188.64 64.37 188.96 65.37 189.29 66.38 C 189.63 67.38 189.97 68.38 190.32 69.38 C 190.64 70.40 190.93 71.43 191.20 72.48 C 191.77 73.52 192.35 74.56 192.94 75.60 C 192.96 76.06 192.99 76.98 193.01 77.44 C 194.35 79.84 196.01 82.26 198.66 83.32 C 201.28 87.60 204.54 91.95 204.22 97.25 C 205.23 98.63 205.07 100.33 204.16 101.71 C 203.92 104.65 203.64 107.70 204.60 110.56 C 205.02 111.59 205.44 112.62 205.86 113.66 C 205.94 114.55 206.03 115.45 206.12 116.35 C 206.73 117.74 207.26 119.17 207.73 120.63 C 208.06 121.65 208.44 122.66 208.85 123.66 C 208.95 124.55 209.05 125.44 209.15 126.34 C 209.56 127.33 209.93 128.34 210.29 129.36 C 210.75 130.78 211.24 132.21 211.74 133.62 C 212.05 134.62 212.37 135.63 212.70 136.63 C 213.03 137.63 213.36 138.63 213.70 139.64 C 214.04 140.61 214.39 141.59 214.75 142.56 C 215.00 143.92 215.26 145.28 215.61 146.63 C 216.01 147.63 216.43 148.63 216.84 149.64 C 216.92 150.07 217.06 150.93 217.14 151.36 C 217.72 152.79 218.28 154.22 218.86 155.65 C 218.98 156.53 219.10 157.41 219.22 158.29 C 219.72 159.62 219.96 161.03 220.15 162.43 C 218.13 164.10 216.53 166.22 215.70 168.73 C 212.66 169.68 209.78 173.06 206.42 171.39 C 202.52 170.97 200.77 167.53 199.15 164.42 C 198.97 163.04 198.73 161.67 198.32 160.34 C 197.93 158.50 197.55 156.64 196.70 154.95 C 196.18 154.95 195.13 154.95 194.60 154.95 C 188.30 151.71 181.75 147.34 179.24 140.37 C 178.97 139.00 178.66 137.63 178.23 136.30 C 178.10 135.41 177.98 134.53 177.87 133.65 C 177.29 132.21 176.72 130.78 176.12 129.35 C 176.02 128.46 175.92 127.57 175.83 126.68 C 175.21 124.92 174.78 123.11 174.31 121.32 C 173.99 119.98 173.66 118.64 173.27 117.33 C 173.15 116.92 172.90 116.10 172.77 115.70 C 172.23 113.91 171.77 112.10 171.18 110.32 C 171.07 109.43 170.97 108.54 170.87 107.66 C 170.28 106.23 169.71 104.78 169.13 103.35 C 169.02 102.46 168.90 101.57 168.79 100.69 C 168.37 99.36 168.00 98.03 167.62 96.69 C 167.28 95.33 167.04 93.94 166.85 92.55 C 164.97 87.96 159.84 86.26 156.42 83.03 C 154.95 83.02 153.47 83.00 152.00 82.98 C 152.00 87.11 151.99 91.23 152.00 95.35 C 152.45 94.94 153.35 94.11 153.80 93.69 C 154.20 95.00 154.60 96.32 155.12 97.59 C 152.69 98.10 151.50 99.98 151.95 102.39 C 155.46 106.10 156.51 111.35 159.56 115.39 C 162.31 120.55 164.88 125.80 168.14 130.67 C 167.94 132.04 167.71 133.42 167.17 134.71 C 167.08 136.02 167.02 137.33 166.96 138.65 C 166.48 139.05 165.52 139.85 165.04 140.24 C 165.49 141.26 165.93 142.28 166.34 143.32 C 166.79 145.12 167.20 146.93 167.84 148.68 C 167.92 149.59 168.00 150.51 168.08 151.42 C 170.25 153.99 171.74 157.05 173.97 159.58 C 173.96 162.16 174.00 164.74 174.10 167.32 C 174.51 168.34 174.90 169.38 175.28 170.42 C 177.37 175.06 179.97 179.49 182.94 183.60 C 182.97 184.58 183.00 185.56 183.02 186.54 C 181.86 187.67 180.71 188.80 179.56 189.93 C 179.09 190.01 178.16 190.15 177.70 190.23 C 175.53 191.38 172.99 191.33 170.93 189.98 C 170.90 189.41 170.84 188.28 170.81 187.72 C 169.86 185.37 170.02 182.79 169.42 180.36 C 168.99 179.39 168.57 178.42 168.14 177.45 C 168.06 177.00 167.90 176.11 167.82 175.66 C 167.43 174.64 167.07 173.62 166.74 172.59 C 164.97 168.42 162.42 164.53 159.00 161.53 C 159.01 160.45 159.02 159.38 159.03 158.31 C 157.75 157.80 156.48 157.28 155.22 156.76 C 153.28 152.38 151.18 148.06 148.76 143.93 C 146.41 143.97 144.06 143.99 141.71 144.16 C 138.37 145.46 134.27 145.70 131.05 143.96 C 130.99 146.00 130.34 147.96 129.12 149.60 C 129.04 150.04 128.88 150.91 128.80 151.35 C 128.44 152.37 128.10 153.41 127.78 154.45 C 127.21 155.50 126.63 156.56 126.05 157.61 C 126.12 160.56 125.32 163.80 126.84 166.51 C 126.26 167.88 125.69 169.26 125.13 170.64 C 125.02 171.53 124.91 172.42 124.79 173.31 C 124.38 174.63 124.00 175.96 123.62 177.30 C 122.72 180.00 122.54 182.99 123.75 185.63 C 121.33 189.74 119.94 194.46 116.71 198.06 C 114.29 198.00 111.87 197.99 109.45 198.00 C 108.63 197.18 107.82 196.36 107.00 195.55 C 106.99 194.18 106.99 192.82 107.01 191.46 C 110.39 188.61 112.25 184.41 115.86 181.76 C 114.12 177.98 115.42 173.70 114.86 169.71 C 113.32 165.55 113.70 160.77 114.60 156.49 C 113.75 154.30 113.90 151.93 114.14 149.65 C 114.90 148.10 115.03 146.38 115.30 144.71 C 116.42 141.58 116.49 138.02 115.08 134.97 C 115.49 133.84 115.89 132.72 116.25 131.58 C 117.06 129.82 117.93 128.09 118.91 126.42 C 118.95 125.96 119.02 125.04 119.06 124.57 C 119.69 123.52 120.32 122.47 120.94 121.42 C 120.98 120.97 121.05 120.06 121.09 119.61 C 122.02 117.96 123.53 116.18 122.90 114.15 C 122.08 111.36 120.37 108.95 119.05 106.38 C 119.02 105.12 119.00 103.86 118.99 102.60 C 121.32 103.25 122.80 105.10 123.56 107.33 C 126.70 106.35 126.56 102.70 125.17 100.31 C 125.04 98.44 124.96 96.58 124.82 94.72 C 123.73 92.49 123.93 89.99 123.94 87.59 C 122.95 85.90 122.01 84.17 121.12 82.42 C 121.02 81.98 120.82 81.11 120.72 80.68 C 120.28 79.30 120.03 77.87 119.78 76.45 C 116.79 74.93 114.61 72.32 112.99 69.45 C 112.99 68.98 112.99 68.04 112.99 67.57 C 111.72 65.48 110.28 63.50 108.97 61.42 C 108.99 59.49 109.02 57.55 109.13 55.62 C 110.58 52.12 110.51 47.86 109.15 44.35 C 109.07 43.04 109.00 41.72 108.95 40.41 C 109.76 39.70 110.57 38.98 111.37 38.26 C 109.82 37.15 108.00 36.51 106.29 37.79 C 105.10 37.93 103.90 38.07 102.71 38.21 C 98.82 39.78 94.53 38.75 90.46 38.96 C 92.11 37.92 93.84 37.00 95.59 36.14 C 96.02 36.03 96.88 35.82 97.31 35.71 C 99.71 34.96 102.27 35.00 104.70 34.35 C 108.26 34.54 109.51 31.06 111.36 28.74 C 113.77 29.09 115.95 30.20 117.57 32.03 C 119.64 32.05 121.81 32.18 123.71 31.18 C 124.91 31.08 126.11 31.00 127.32 30.93 C 127.00 30.29 126.37 29.00 126.06 28.36 C 125.95 23.45 126.01 18.55 125.99 13.64 C 126.49 14.07 127.48 14.93 127.97 15.36 C 128.00 17.00 128.05 18.64 128.15 20.28 C 129.77 23.21 128.23 26.78 129.84 29.71 C 130.04 32.22 130.05 34.74 129.96 37.26 C 131.33 36.76 132.69 36.25 134.04 35.69 C 133.79 32.23 134.72 28.53 133.14 25.28 C 132.96 22.10 133.04 18.91 132.86 15.72 M 121.29 34.74 C 120.02 34.89 118.74 34.97 117.48 35.22 C 116.16 36.39 115.33 38.00 114.23 39.36 C 115.05 41.23 115.04 43.29 115.23 45.29 C 116.47 47.96 115.49 51.08 116.85 53.72 C 117.01 56.00 117.02 58.29 117.01 60.57 C 117.32 60.89 117.95 61.54 118.27 61.86 C 122.23 59.23 125.29 63.95 127.81 66.36 C 129.59 63.13 130.34 56.67 125.74 55.62 C 126.05 55.05 126.66 53.91 126.96 53.34 C 126.99 49.80 126.94 46.26 127.14 42.72 C 128.12 41.38 128.17 39.63 127.15 38.28 C 127.06 36.82 127.00 35.36 126.94 33.90 C 125.03 33.96 123.08 33.98 121.29 34.74 Z" />
</g>
</svg>
