<?xml version="1.0" encoding="UTF-8" standalone="no"?>
<!-- Created with Sodipodi ("http://www.sodipodi.com/") -->
<svg
   xmlns:dc="http://purl.org/dc/elements/1.1/"
   xmlns:cc="http://creativecommons.org/ns#"
   xmlns:rdf="http://www.w3.org/1999/02/22-rdf-syntax-ns#"
   xmlns:svg="http://www.w3.org/2000/svg"
   xmlns="http://www.w3.org/2000/svg"
   xmlns:sodipodi="http://sodipodi.sourceforge.net/DTD/sodipodi-0.dtd"
   xmlns:inkscape="http://www.inkscape.org/namespaces/inkscape"
   height="500"
   id="svg761"
   sodipodi:docbase="C:\Documents and Settings\David Nelson\Archives\Svg"
   sodipodi:docname="Flag_of_Saudi_Arabia.svg"
   sodipodi:version="0.32"
   width="750"
   inkscape:version="0.46"
   version="1.0"
   inkscape:output_extension="org.inkscape.output.svg.inkscape">
  <metadata
     id="metadata8707">
    <rdf:RDF>
      <cc:Work
         rdf:about="">
        <dc:title>Saudi Arabia</dc:title>
        <dc:description />
        <dc:subject>
          <rdf:Bag>
            <rdf:li />
            <rdf:li>asia</rdf:li>
            <rdf:li>united_nations_member</rdf:li>
            <rdf:li>flag</rdf:li>
            <rdf:li>arab</rdf:li>
            <rdf:li>sign</rdf:li>
          </rdf:Bag>
        </dc:subject>
        <dc:publisher>
          <cc:Agent
             rdf:about="http://www.openclipart.org">
            <dc:title>Cezary Biele</dc:title>
          </cc:Agent>
        </dc:publisher>
        <dc:creator>
          <cc:Agent>
            <dc:title>Cezary Biele</dc:title>
          </cc:Agent>
        </dc:creator>
        <dc:rights>
          <cc:Agent>
            <dc:title>Cezary Biele</dc:title>
          </cc:Agent>
        </dc:rights>
        <dc:date />
        <dc:format>image/svg+xml</dc:format>
        <dc:type
           rdf:resource="http://purl.org/dc/dcmitype/StillImage" />
        <cc:license
           rdf:resource="http://web.resource.org/cc/PublicDomain" />
        <dc:language>en</dc:language>
      </cc:Work>
      <cc:License
         rdf:about="http://web.resource.org/cc/PublicDomain">
        <cc:permits
           rdf:resource="http://web.resource.org/cc/Reproduction" />
        <cc:permits
           rdf:resource="http://web.resource.org/cc/Distribution" />
        <cc:permits
           rdf:resource="http://web.resource.org/cc/DerivativeWorks" />
      </cc:License>
    </rdf:RDF>
  </metadata>
  <defs
     id="defs763">
    <inkscape:perspective
       sodipodi:type="inkscape:persp3d"
       inkscape:vp_x="0 : 250 : 1"
       inkscape:vp_y="0 : 1000 : 0"
       inkscape:vp_z="750 : 250 : 1"
       inkscape:persp3d-origin="375 : 166.66667 : 1"
       id="perspective38" />
  </defs>
  <sodipodi:namedview
     id="base"
     inkscape:zoom="0.746"
     inkscape:cx="375"
     inkscape:cy="250"
     inkscape:window-width="1280"
     inkscape:window-height="750"
     inkscape:window-x="-8"
     inkscape:window-y="-8"
     inkscape:current-layer="svg761"
     showgrid="false" />
  <rect
     height="500"
     id="rect681"
     style="font-size:12px;fill:#009530;fill-opacity:1;fill-rule:evenodd;stroke:none;stroke-width:1pt;stroke-opacity:1"
     width="750"
     x="0"
     y="3.5527137e-014" />
  <path
     style="fill:#ffffff;fill-opacity:1;fill-rule:evenodd;stroke:none;stroke-width:1pt;stroke-linecap:butt;stroke-linejoin:round;stroke-opacity:1"
     d="M 323.28125 118.09375 C 322.89345 118.08227 322.31328 118.2987 321.5 118.78125 C 319.67159 120.0069 316.04837 123.7818 315.9375 128.125 C 315.82663 130.57528 315.36412 130.56573 316.96875 132.125 C 318.12788 133.79616 319.28558 133.6319 321.625 132.40625 C 322.96859 131.41646 323.42244 130.78507 323.875 129.125 C 324.43238 126.34108 320.9455 130.44215 320.5 127.34375 C 319.72085 124.4671 321.94684 123.28392 324.0625 120.5 C 324.11101 119.18892 324.1344 118.119 323.28125 118.09375 z M 357.34375 118.28125 C 356.6903 118.36927 355.89099 119.2064 354.78125 121.21875 C 353.98599 123.32634 350.55575 126.51595 353.03125 133.09375 C 355.05618 137.26459 355.88799 144.04229 354.96875 151.59375 C 353.56572 153.73965 353.24573 154.4791 351.40625 156.625 C 348.82191 159.40388 346.02291 158.69341 343.875 157.65625 C 341.86819 156.3036 340.29121 155.60934 339.375 151.3125 C 339.54031 144.46357 339.93936 133.25373 338.6875 130.875 C 336.84196 127.19099 333.80024 128.51224 332.5 129.625 C 326.25282 135.33697 323.1671 144.98182 321.28125 152.65625 C 319.54861 158.24929 317.70245 156.63177 316.40625 154.375 C 313.25041 151.4177 313.02875 128.29182 309.21875 132.09375 C 303.11669 149.53409 312.7206 168.63887 319.375 166.78125 C 324.17581 168.7689 327.22202 159.63078 329.1875 149.625 C 330.53207 146.81689 331.55956 146.49413 332.25 147.9375 C 332.07259 161.24327 333.20406 164.2112 336.625 168.25 C 344.2561 174.13736 350.5676 168.9959 351.0625 168.5 C 351.55741 168.0051 357 162.5625 357 162.5625 C 358.32241 161.17155 360.06979 161.08685 361.9375 162.3125 C 363.75278 163.96248 363.51965 166.80469 367.40625 168.78125 C 370.67701 170.08955 377.6615 169.09944 379.28125 166.28125 C 381.46143 162.54483 381.99005 161.26091 383 159.84375 C 384.55624 157.77244 387.21875 158.6896 387.21875 159.34375 C 386.97079 160.49885 385.40639 161.63837 386.46875 163.71875 C 388.31932 165.10667 388.74913 164.21468 389.84375 163.90625 C 393.71523 162.05568 396.625 153.65625 396.625 153.65625 C 396.79634 150.52358 395.01397 150.76117 393.875 151.40625 C 392.3893 152.3144 392.2982 152.6231 390.8125 153.53125 C 388.91958 153.81247 385.25279 155.06113 383.4375 152.25 C 381.5839 148.87039 381.57341 144.15884 380.15625 140.75 C 380.15625 140.50205 377.67973 135.39008 379.96875 135.0625 C 381.12386 135.27719 383.60791 135.91909 384 133.84375 C 385.21155 131.82083 381.38576 126.08229 378.78125 123.1875 C 376.52046 120.70596 373.39881 120.40354 370.375 122.9375 C 368.25733 124.88584 368.57152 127.06175 368.15625 129.125 C 367.617 131.49467 367.72007 134.42984 370.125 137.5625 C 372.23865 141.73031 376.07847 147.07757 374.8125 154.625 C 374.8125 154.625 372.58116 158.21667 368.65625 157.75 C 367.02037 157.39319 364.35466 156.68517 362.9375 146.21875 C 361.86507 138.29637 363.20622 127.19692 359.84375 122 C 359.08464 120.03893 358.43284 118.13456 357.34375 118.28125 z M 346.5625 119.125 C 345.54537 119.21383 344.41873 120.39848 343.5 122.6875 C 342.71179 124.42821 341.74901 133.53125 341.90625 133.53125 C 341.27729 136.24059 344.73709 137.38868 346.3125 133.90625 C 348.67408 127.52199 348.6855 124.80208 348.84375 122.09375 C 348.47585 120.03101 347.57963 119.03617 346.5625 119.125 z M 386.375 119.84375 C 385.33031 119.93847 384.4982 120.5501 384.1875 122.09375 C 383.77121 125.72333 383.98395 127.69696 384.59375 130.71875 C 385.06144 132.73361 387.99414 136.1071 389.4375 138.0625 C 396.33351 147.33188 402.96827 156.64587 409.375 166.28125 C 410.38215 173.43621 411.12024 180.43556 411.59375 187.40625 C 412.63191 202.69059 412.94746 221.71576 412 237.8125 C 414.86355 237.9254 419.45182 233.18864 421.0625 226.25 C 422.10974 216.65243 420.68951 197.06984 420.59375 191.40625 C 420.52626 189.05486 420.38151 186.24923 420.21875 183.3125 C 427.67142 195.49173 434.90181 208.39494 442 222.5625 C 444.58738 221.33282 444.01392 206.76486 442.5 204.71875 C 436.81926 192.49147 428.97145 180.4228 426.46875 175.78125 C 425.56564 174.10493 422.48941 169.42654 418.84375 164.03125 C 418.17253 156.33275 417.44313 149.81251 416.96875 147.84375 C 415.79651 139.70567 420.31343 148.7615 419.6875 144.03125 C 418.22195 135.90426 413.73622 130.38111 408.4375 122.9375 C 406.72904 120.51643 406.76277 120.02263 404.125 123.53125 C 402.54837 127.10809 402.56973 130.08381 403.03125 132.875 C 402.33744 131.86673 401.47982 130.67109 400.25 129.1875 C 395.67396 125.2616 395.39166 125.04697 391.59375 121.84375 C 390.3962 120.99393 388.11614 119.68588 386.375 119.84375 z M 504.375 121.0625 C 503.86624 120.98338 503.31191 121.23349 502.6875 122.15625 C 501.4941 123.20249 500.21069 125.09708 500.25 127.53125 C 500.54027 131.82002 501.30347 136.21123 501.59375 140.5 C 501.69604 141.07392 501.80395 141.64482 501.90625 142.21875 C 501.44544 141.63072 501.04311 141.17186 500.8125 140.9375 C 492.45268 132.15535 504.65354 139.50216 499.21875 132.71875 C 494.62258 127.67201 493.27772 126.06614 489.34375 123.03125 C 487.3712 121.75621 486.17935 119.32008 485.53125 123.46875 C 485.27323 127.11344 485.00507 131.33406 485.25 134.40625 C 485.23587 136.11369 487.00422 139.32786 488.53125 141.21875 C 494.10804 148.07041 499.80417 155.36055 505.53125 162.96875 C 506.7364 178.4845 507.0579 192.7077 508.28125 208.25 C 508.1079 214.89734 506.06326 223.72592 504.125 224.5625 C 504.125 224.5625 501.16507 226.26286 499.1875 224.375 C 497.74917 223.79745 492 214.78125 492 214.78125 C 489.05684 212.083 487.09449 212.85408 485 214.78125 C 479.22453 220.35816 476.6124 230.80434 472.6875 238 C 471.67554 239.60565 468.82521 240.97239 465.65625 237.875 C 457.60788 226.87942 462.31438 211.22733 461.3125 215.25 C 454.14404 223.32861 457.31875 236.71509 458.9375 239.59375 C 461.30112 244.32198 463.21328 247.34909 467.8125 249.6875 C 472.00148 252.77078 475.26334 250.8465 477.0625 248.6875 C 481.27771 244.3191 481.33392 233.14791 483.3125 230.9375 C 484.70044 226.87753 488.17865 227.57583 489.875 229.375 C 491.51896 231.73861 493.45998 233.27637 495.875 234.5625 C 499.80694 238.03081 504.49958 238.66089 509.125 235.5 C 512.28587 233.72703 514.33693 231.42281 516.1875 226.875 C 518.17315 221.56437 517.19134 193.73274 516.75 178.25 C 519.71965 182.4331 522.65059 186.70678 525.5625 191.03125 C 526.84074 204.62252 527.42067 218.00723 527 230.84375 C 526.69861 233.39585 535.90624 223.22419 535.84375 218.40625 C 535.80225 214.19046 535.85136 210.3696 535.84375 206.8125 C 540.30972 213.94313 544.63274 221.19253 548.71875 228.53125 C 551.2507 227.18969 550.38286 212.85358 548.78125 210.875 C 544.50318 203.69645 539.02457 195.9387 534.78125 189.9375 C 533.94261 182.36258 532.80071 173.42501 532.28125 170.6875 C 531.47185 166.41788 530.66113 160.00439 529.4375 154.9375 C 529.10183 152.95891 528.08875 146.63903 528.40625 146.03125 C 528.90518 144.61711 530.79044 146.07641 531.71875 144.4375 C 533.10868 142.92257 526.90081 126.83913 523.75 122.25 C 522.6171 120.1928 520.56823 120.90466 518.03125 124.25 C 515.6787 126.45133 516.53942 131.47339 517.4375 136.25 C 519.77024 148.42382 521.85244 160.82214 523.5 173.1875 C 520.44991 168.6532 516.72754 163.16623 513.0625 157.875 C 512.96404 157.36474 512.59375 155.49468 512.59375 155.46875 C 512.59373 155.25002 512.08866 145.50979 511.65625 143.1875 C 511.58065 142.24507 511.35597 141.9738 512.34375 142.09375 C 513.39102 142.97469 513.53335 143.02221 514.1875 143.3125 C 515.24482 143.50602 516.16928 141.71853 515.53125 140.0625 C 512.26047 134.03 508.9895 127.97 505.71875 121.9375 C 505.32515 121.54994 504.88376 121.14162 504.375 121.0625 z M 199.84375 121.375 C 198.03145 121.32319 196.03198 122.44659 196.8125 124.625 C 196.35792 125.81234 200.35996 129.8259 201.0625 132.03125 C 201.69246 133.60162 200.43767 138.65832 201.75 139.125 C 202.9565 139.64812 204.61802 135.62452 205.25 131.90625 C 205.59975 129.86921 205.3351 122.89801 200.59375 121.46875 C 200.35084 121.41382 200.10265 121.3824 199.84375 121.375 z M 546.75 121.40625 C 546.33688 121.44727 545.83376 122.11487 545.0625 123.75 C 543.20786 126.78792 542.56965 132.22743 543.3125 137.03125 C 547.77766 167.23408 551.09585 196.48022 551.78125 223.25 C 551.39723 225.79101 551.28513 227.14255 550.09375 230.34375 C 547.45798 233.72236 544.55107 237.95792 541.8125 240 C 539.07493 242.04106 533.24875 243.98709 531.34375 245.5 C 525.30019 248.9935 525.26977 253.0111 530.15625 253.15625 C 538.57754 252.17856 548.54221 251.4876 555.40625 241.125 C 557.24273 238.22115 559.40525 230.34919 559.5 225.53125 C 560.14204 197.28384 559.13857 169.66575 554.90625 149.25 C 554.63512 147.26134 553.7571 142.69045 554.09375 142.09375 C 554.63904 140.69574 557.39428 142.23367 558.375 140.625 C 559.81435 139.15543 551.24962 128.18892 548.25 123.5 C 547.65072 122.32241 547.28115 121.35351 546.75 121.40625 z M 458.4375 121.875 C 458.08976 121.93498 457.57636 122.46425 456.625 123.71875 C 454.27246 131.41031 453.44568 137.69214 454.34375 142.46875 C 460.38634 174.00305 466.5775 202.73164 465.59375 232.75 C 468.45931 232.76914 471.77235 226.19474 473.1875 219.6875 C 473.9626 210.72393 472.67034 205.26849 472.4375 200 C 472.20569 194.73152 466.47364 151.98639 465.3125 148 C 463.91148 140.46265 470.88599 147.00852 470.125 142.625 C 467.71402 137.09848 461.69633 129.0508 459.8125 124.25 C 459.10442 122.96425 459.01707 121.77503 458.4375 121.875 z M 243.40625 122.46875 C 242.66365 122.59739 241.94704 123.20931 241.6875 124.21875 C 241.52421 124.87996 241.97372 125.97988 241.375 126.3125 C 241.0313 126.65923 239.72682 126.42618 239.78125 124.59375 C 239.78125 124.01016 239.35279 123.40116 239.09375 123.03125 C 238.8337 122.86091 238.65821 122.8125 238.1875 122.8125 C 237.61398 122.83568 237.62698 122.98695 237.3125 123.46875 C 237.17946 123.95961 237 124.44362 237 125 C 236.92844 125.65214 236.66727 125.873 236.1875 125.96875 C 235.65127 125.96875 235.77818 126.02718 235.34375 125.75 C 235.08572 125.46778 234.78125 125.3568 234.78125 124.875 C 234.78125 124.37608 234.65018 123.5796 234.5 123.25 C 234.27222 122.94964 233.91225 122.79333 233.5 122.6875 C 231.25332 122.69556 231.08974 125.27734 231.21875 126.25 C 231.05043 126.43344 230.96712 131.00923 234.03125 132.28125 C 238.14464 134.24269 245.85782 133.41347 245.53125 126.78125 C 245.53126 126.19463 245.40221 124.22473 245.34375 123.6875 C 244.92394 122.7098 244.14885 122.34011 243.40625 122.46875 z M 298.59375 122.53125 C 297.17218 122.6037 295.9172 123.01116 294.84375 123.5625 C 292.11728 126.17305 291.47809 130.35819 293.625 132.96875 C 295.71446 133.95552 297.79922 136.05861 296.40625 137.21875 C 290.49751 143.52981 275.1191 154.07553 274.34375 156 C 274.33823 156.01569 274.31589 156.04806 274.3125 156.0625 C 274.31018 156.07631 274.31265 156.11247 274.3125 156.125 C 274.31297 156.13094 274.31147 156.15063 274.3125 156.15625 C 274.31725 156.17214 274.33394 156.20583 274.34375 156.21875 C 274.34759 156.22272 274.37059 156.24636 274.375 156.25 C 274.37999 156.2533 274.40068 156.24704 274.40625 156.25 C 274.41241 156.25262 274.43075 156.27897 274.4375 156.28125 C 274.44484 156.28318 274.46082 156.27966 274.46875 156.28125 C 274.47107 156.28348 274.49737 156.31029 274.5 156.3125 C 275.28147 156.83666 284.904 156.82426 285.96875 156.34375 C 285.9764 156.3397 285.99356 156.31662 286 156.3125 C 286.00292 156.31043 286.02864 156.31459 286.03125 156.3125 C 286.03355 156.31039 286.02926 156.28337 286.03125 156.28125 C 289.3383 155.06266 305.03125 137.125 305.03125 137.125 C 304.21783 136.42853 303.46865 135.91523 302.65625 135.21875 C 301.78539 134.46482 301.87308 133.72369 302.65625 132.96875 C 306.54285 130.70694 305.31124 125.73055 303.28125 123.46875 C 301.5985 122.7143 300.01532 122.4588 298.59375 122.53125 z M 442.84375 122.59375 C 442.43063 122.63477 441.92751 123.27112 441.15625 124.90625 C 439.30165 127.94417 438.04135 133.2345 438.1875 138.1875 C 442.20513 166.0015 443.43683 190.34124 446.0625 218.15625 C 446.27619 220.84644 445.88183 224.75423 444.09375 226.3125 C 437.47968 233.21887 427.94324 241.73638 417.5625 245.65625 C 416.44571 246.91012 420.33935 252.25504 425.375 252.25 C 433.79632 251.2723 441.19845 246.5458 448.0625 234.09375 C 449.89796 231.18988 453.124 224.97419 453.21875 220.15625 C 453.8608 191.90883 451.79483 169.94701 447.5625 149.53125 C 447.29136 147.5426 447.47585 145.19045 447.8125 144.59375 C 448.35779 143.94263 450.20677 144.60867 451.1875 143 C 452.62683 141.53043 447.34337 129.34517 444.34375 124.65625 C 443.74447 123.47866 443.3749 122.54101 442.84375 122.59375 z M 219.375 123.4375 C 218.21269 123.5734 217.11932 124.51975 216.59375 125.78125 C 216.39921 130.24237 216.37305 134.70112 216.875 138.8125 C 218.90397 146.02327 219.5465 152.36585 220.53125 159.75 C 220.80439 169.64088 214.81959 164.02861 215.09375 159.125 C 216.47562 152.75584 216.10267 142.72851 214.875 140.1875 C 213.90133 137.6465 212.77389 137.01921 210.40625 137.4375 C 208.52645 137.3226 203.67019 142.61402 202.3125 151.375 C 202.31251 151.37499 201.18139 155.87148 200.6875 159.875 C 200.02327 164.39964 197.02594 167.60378 194.9375 159.25 C 193.13227 153.17819 192.02281 138.21819 189 141.71875 C 188.13418 153.39972 187.1061 173.95389 197.03125 176.0625 C 209.03578 177.21659 202.40479 155.76866 206.75 151.875 C 207.57147 149.95085 209.09377 149.91664 209.21875 152.34375 C 209.21875 158.41456 209.21875 164.4917 209.21875 170.5625 C 209.10889 176.48513 213.00643 178.24511 216.03125 179.46875 C 219.17903 179.22583 221.26629 179.31188 222.5 182.375 C 222.99188 192.87669 223.50813 203.40456 224 213.90625 C 224 213.90625 231.27726 215.99748 231.625 196.1875 C 231.97376 184.55592 229.30867 174.79406 230.875 172.53125 C 230.93044 170.30773 233.7805 170.19772 235.75 171.28125 C 238.88771 173.49468 240.27985 176.21861 245.15625 175.125 C 252.57667 173.08091 257.04638 169.47912 257.15625 163.78125 C 256.72283 158.36662 256.09648 152.94588 253.75 147.53125 C 254.07759 146.5465 252.32968 143.98476 252.65625 143 C 253.98974 145.08845 256.00711 144.91508 256.46875 143 C 255.2058 138.83823 253.23951 134.85059 250.0625 133.125 C 247.43682 130.81178 243.59458 131.30102 242.1875 136.125 C 241.53536 141.68377 244.20213 148.27185 248.25 153.65625 C 249.10977 155.75981 250.31243 159.25847 249.78125 162.40625 C 247.62728 163.63493 245.4917 163.12375 243.6875 161.21875 C 243.68751 161.21874 237.78125 156.79725 237.78125 155.8125 C 239.34859 145.77749 238.11884 144.62868 237.25 141.84375 C 236.64323 137.99948 234.82138 136.78193 233.34375 134.15625 C 231.86611 132.58992 229.86178 132.58992 228.90625 134.15625 C 226.2957 138.68189 227.5204 148.39874 229.40625 152.75 C 230.76898 156.75253 232.85875 159.25 231.875 159.25 C 231.06462 161.51181 229.37484 160.98555 228.15625 158.375 C 226.41655 152.97951 226.0625 144.93804 226.0625 141.3125 C 225.54038 136.81811 224.9583 127.21743 222 124.78125 C 221.21066 123.70616 220.27902 123.3318 219.375 123.4375 z M 261.53125 123.5 C 260.93551 123.57528 260.27698 123.91445 259.5 124.09375 C 256.9479 124.90615 254.55856 127.11244 255.3125 131.40625 C 258.32925 149.73859 260.29575 163.72914 263.3125 182.0625 C 263.77618 184.20941 261.97652 187.03927 259.65625 186.75 C 255.71119 184.081 254.73201 178.67543 248 178.90625 C 243.12663 178.96471 237.56947 184.26779 236.875 189.375 C 236.06261 193.43395 235.77333 197.83512 236.875 201.375 C 240.29998 205.49342 244.40267 205.05432 248 204.125 C 250.95829 202.90741 253.39227 199.99202 254.4375 200.6875 C 254.44024 200.69091 254.46607 200.68383 254.46875 200.6875 C 254.47139 200.69145 254.46615 200.71453 254.46875 200.71875 C 255.11384 201.8463 254.40799 211.38201 240.53125 218.75 C 232.00312 222.57915 225.21526 223.49408 221.5625 216.53125 C 219.29968 212.17999 221.72712 195.60734 216.15625 199.4375 C 199.68152 241.90488 254.7538 247.83278 260.90625 201.1875 C 261.30469 199.87157 262.51837 198.55128 263.375 198.875 C 263.7509 199.03508 264.09498 199.54552 264.21875 200.5 C 262.94169 242.73456 221.61302 245.63036 214.59375 232.34375 C 212.85406 229.21209 212.33062 222.2404 212.15625 218.0625 C 211.83808 215.53502 211.20388 214.07709 210.46875 213.5 C 208.79425 212.24183 206.54405 215.52304 206.0625 221.21875 C 205.36603 225.80182 205.5625 227.06003 205.5625 231.46875 C 207.76687 264.82742 260.95069 250.49448 269.59375 222.9375 C 273.87249 208.69164 269.50663 197.9446 270.9375 196.625 C 270.94989 196.61461 270.98679 196.6028 271 196.59375 C 271.01362 196.58535 271.04801 196.56954 271.0625 196.5625 C 271.07741 196.55613 271.1092 196.53628 271.125 196.53125 C 271.17375 196.51821 271.25546 196.50075 271.3125 196.5 C 276.59208 202.18679 284.00021 197.22253 285.625 195.25 C 286.32148 194.26323 288.06366 193.6302 289.28125 194.90625 C 293.39969 197.86655 300.61814 196.47111 302.125 191.25 C 302.99585 186.14481 303.73188 180.88943 303.90625 175.4375 C 301.22357 176.27042 299.05878 176.89411 298.1875 177.8125 C 297.98001 178.03909 297.82653 178.29044 297.78125 178.5625 C 297.54842 180.07138 297.32658 181.58487 297.09375 183.09375 C 297.06889 183.21848 297.02878 183.33371 296.96875 183.4375 C 296.85441 183.62271 296.66539 183.79351 296.46875 183.90625 C 295.52033 184.42408 293.86653 184.12796 293.78125 182.75 C 292.5052 176.94833 287.25363 176.19368 284.0625 185.1875 C 281.91559 186.92719 278.00095 187.2668 277.59375 184.65625 C 278.11588 178.62274 275.68487 177.81286 270.8125 180.65625 C 269.24615 168.70515 267.69234 157.29486 266.125 145.34375 C 268.15599 145.28529 270.01838 146.75777 271.875 144.4375 C 269.86581 138.18881 265.61432 125.47432 263.21875 124.28125 C 263.19994 124.27254 263.17485 124.25726 263.15625 124.25 C 263.04749 124.1195 262.9188 123.99929 262.8125 123.90625 C 262.76826 123.86871 262.7002 123.81293 262.65625 123.78125 C 262.61233 123.75071 262.54374 123.71257 262.5 123.6875 C 262.40383 123.63468 262.28356 123.59171 262.1875 123.5625 C 261.9691 123.50059 261.75691 123.47149 261.53125 123.5 z M 425.875 123.59375 C 423.7674 123.53122 421.43534 124.85946 422.34375 127.5 C 421.81459 128.94034 426.87207 133.82595 427.6875 136.5 C 429.15506 140.60835 426.56671 144.52729 428.09375 145.09375 C 429.49881 145.72774 431.4537 140.85225 432.1875 136.34375 C 433.03517 132.69905 430.43501 125.22964 426.75 123.6875 C 426.46753 123.62098 426.17609 123.60268 425.875 123.59375 z M 297.84375 128.09375 C 298.80354 127.99594 299.96325 128.87782 300.53125 130.125 C 301.13713 131.45533 300.83324 132.7264 299.84375 132.96875 C 298.85427 133.21111 297.57462 132.33033 296.96875 131 C 296.36289 129.66967 296.66676 128.36735 297.65625 128.125 C 297.71809 128.10985 297.77976 128.10027 297.84375 128.09375 z M 535.34375 134.25 C 533.42223 134.18267 531.32811 135.64162 532.15625 138.5 C 531.67445 140.05928 536.25716 145.35521 537 148.25 C 537.66826 150.31023 535.98301 156.94966 537.375 157.5625 C 538.65609 158.2489 540.45677 152.97519 541.125 148.09375 C 541.49592 145.42171 539.5157 136.04515 536.15625 134.375 C 535.89872 134.30306 535.61825 134.25962 535.34375 134.25 z M 404.03125 137.5 C 404.207 138.28356 404.38265 139.07235 404.5 139.875 C 404.89382 141.60671 405.23331 143.32676 405.59375 145.03125 C 404.07686 142.94254 402.82125 141.25497 402.28125 140.65625 C 398.84891 136.57723 402.35851 137.97761 404.03125 137.5 z M 434.28125 152.375 C 433.53865 152.50364 432.82205 153.1468 432.5625 154.15625 C 432.39921 154.81745 432.87996 155.88613 432.28125 156.21875 C 431.93755 156.56548 430.60182 156.36367 430.65625 154.53125 C 430.65624 153.94765 430.22779 153.30742 429.96875 152.9375 C 429.70872 152.76715 429.53321 152.71875 429.0625 152.71875 C 428.48897 152.74193 428.50197 152.89321 428.1875 153.375 C 428.05446 153.86587 427.875 154.34987 427.875 154.90625 C 427.80344 155.55839 427.57353 155.77924 427.09375 155.875 C 426.55753 155.875 426.65317 155.93343 426.21875 155.65625 C 425.96071 155.37404 425.65625 155.26304 425.65625 154.78125 C 425.65626 154.28232 425.52518 153.48584 425.375 153.15625 C 425.1472 152.85588 424.78724 152.73084 424.375 152.625 C 422.12831 152.63308 421.99598 155.18359 422.125 156.15625 C 421.95666 156.33969 421.84212 160.94673 424.90625 162.21875 C 429.01963 164.18019 436.76408 163.31972 436.4375 156.6875 C 436.43751 156.10088 436.27721 154.13098 436.21875 153.59375 C 435.79894 152.61605 435.02385 152.24636 434.28125 152.375 z M 296.15625 153.75 C 295.64905 153.69833 294.98415 153.88451 294.21875 154.34375 C 290.5811 156.31124 289.17267 162.14761 291.4375 165.5625 C 293.55317 168.57019 296.89824 167.46875 297.34375 167.46875 C 300.9078 167.91425 303.03125 160.78125 303.03125 160.78125 C 303.03124 160.78125 303.13857 158.77569 298.90625 162.5625 C 297.12523 162.89613 296.88301 162.2529 296.4375 161.25 C 296.06657 159.3944 296.14628 157.51287 297 155.65625 C 297.39436 154.54312 297.00159 153.83611 296.15625 153.75 z M 491.40625 154.65625 C 489.38682 154.55807 487.23746 155.86578 486.6875 158.625 C 486.69556 160.25282 487.42238 161.14737 487.28125 162.625 C 487.0706 163.46965 486.20033 164.02507 484.125 163.03125 C 484.44955 162.7329 482.78124 160.37501 482.78125 160.375 C 481.1625 159.38924 479.00084 160.42854 477.59375 161.34375 C 476.81965 162.75083 476.24707 165.16261 477.125 167.625 C 479.44829 171.9178 487.41781 179.24295 491.21875 179.3125 C 491.28931 175.44202 491.66535 170.29496 491.875 167.09375 C 491.96471 165.88524 492.24815 164.55339 493.40625 164.25 C 494.56336 163.94762 496.57158 165.41415 496.59375 164.15625 C 496.38309 161.69386 495.89096 158.06026 494.5 156.34375 C 493.78751 155.28806 492.61791 154.71516 491.40625 154.65625 z M 329.78125 168.125 C 329.72751 168.14473 329.67437 168.19063 329.625 168.21875 C 329.60078 168.23349 329.55574 168.26368 329.53125 168.28125 C 329.12906 168.58318 328.65446 169.27999 327.59375 170.03125 C 325.80465 172.06627 325.4839 173.48339 325.59375 177.5625 C 325.69554 177.99397 328.99023 187.15444 331.78125 193.59375 C 333.66308 200.28645 335.40408 207.94951 334.125 215.1875 C 329.71931 224.75585 320.86182 233.33728 312.3125 238 C 307.95679 239.39502 304.19505 238.91994 303.1875 237.96875 C 303.17986 237.96114 303.16355 237.94517 303.15625 237.9375 C 300.65487 236.25566 300.59745 233.26193 300.75 232.75 C 300.74995 232.74713 300.75017 232.72226 300.75 232.71875 C 300.7557 232.71296 300.77551 232.69291 300.78125 232.6875 C 307.99504 227.66294 316.2357 223.59606 322.6875 210.03125 C 324.59251 204.84743 325.17414 201.73487 323.28125 193.71875 C 322.54334 190.73198 321.63187 188.27413 319.59375 186.15625 C 319.59904 186.15063 319.61965 186.13052 319.625 186.125 C 320.85299 185.53749 324.03909 187.88468 324.53125 186.40625 C 323.77732 182.57912 321.18513 177.44121 318.25 174.8125 C 315.67977 172.47812 312.88376 172.20794 310.53125 174.34375 C 307.88139 175.81836 307.31771 181.11449 308.59375 185.75 C 310.01091 189.23948 313.83703 189.85171 316.5625 196.875 C 316.56245 196.88196 316.56226 196.90385 316.5625 196.90625 C 316.61935 197.34661 317.49786 202.14869 316.125 204.09375 C 315.01091 207.56797 300.70062 218.85233 299.6875 219.53125 C 299.67632 219.54249 299.60465 219.58311 299.59375 219.59375 C 299.58813 219.59958 299.56785 219.61977 299.5625 219.625 C 299.55995 219.62732 299.53789 219.64946 299.53125 219.65625 C 299.5285 219.65918 299.50285 219.68428 299.5 219.6875 C 299.49713 219.6875 299.47221 219.68767 299.46875 219.6875 C 299.46714 219.68743 299.44461 219.68739 299.4375 219.6875 C 299.4318 219.68221 299.41176 219.66214 299.40625 219.65625 C 299.40649 219.65282 299.40618 219.62787 299.40625 219.625 C 299.40045 219.61424 299.38066 219.57385 299.375 219.5625 C 299.33191 219.28075 299.40756 218.56342 299.375 217.40625 C 299.28103 215.29184 300.15614 210.50837 300.09375 209.6875 C 300.09378 209.6847 300.09366 209.65942 300.09375 209.65625 C 300.08792 209.65059 300.06836 209.63052 300.0625 209.625 C 300.06254 209.62212 300.06234 209.59723 300.0625 209.59375 C 300.05513 209.59389 300.03232 209.59384 300.03125 209.59375 C 295.30102 212.64781 293.7388 222.00944 292.875 224.78125 C 280.8997 233.05539 267.30142 239.21075 259.46875 247.59375 C 255.38964 253.9639 287.57307 240.27902 291.3125 238.625 C 291.34462 238.64911 291.37665 238.68799 291.40625 238.71875 C 292.11714 239.50112 292.17786 242.22909 294.3125 244.6875 C 297.65783 249.21918 304.76802 252.00988 311.6875 250.28125 C 323.29085 246.08723 329.97567 238.17933 336.78125 229.40625 C 337.75391 227.99111 339.2784 226.87615 340.6875 227.96875 C 345.36434 238.43918 358.84898 245.8892 376.28125 246.65625 C 380.31501 241.75063 378.38588 239.33858 376.75 238.3125 C 376.24609 237.97763 368.08016 234.79413 366.8125 231.625 C 366.01421 228.67578 367.95513 226.06024 371.84375 224.09375 C 383.03689 222.74009 394.03966 221.23646 404.6875 217.8125 C 404.79534 214.23532 406.90239 208.88579 408.3125 206.5625 C 409.29159 204.95049 409.92105 204.79093 410.15625 204.5625 C 410.16386 204.55452 410.18087 204.53949 410.1875 204.53125 C 410.19056 204.52702 410.21593 204.50432 410.21875 204.5 C 410.22455 204.49452 410.24432 204.4743 410.25 204.46875 C 410.25002 204.45801 410.25042 204.41736 410.25 204.40625 C 410.25635 204.33548 410.24951 204.21353 410.21875 204.09375 L 408.40625 203.03125 L 372.6875 202.875 C 372.24626 202.70513 371.91819 202.53463 371.71875 202.375 C 371.70358 202.36229 371.66982 202.32509 371.65625 202.3125 C 371.64988 202.30624 371.63098 202.28748 371.625 202.28125 C 371.61943 202.27507 371.59893 202.25616 371.59375 202.25 C 371.58828 202.23911 371.56746 202.19836 371.5625 202.1875 C 371.55963 202.1847 371.53482 202.15956 371.53125 202.15625 C 371.53131 202.15343 371.53096 202.12831 371.53125 202.125 C 371.52835 202.1222 371.5037 202.09708 371.5 202.09375 C 371.50002 202.09095 371.49982 202.06583 371.5 202.0625 C 371.50001 202.05971 371.49987 202.03458 371.5 202.03125 C 371.5 202.02845 371.49992 202.00333 371.5 202 C 371.49967 201.99519 371.50012 201.97355 371.5 201.96875 C 371.50013 201.96637 371.50009 201.94418 371.5 201.9375 C 371.49995 201.93469 371.5001 201.9096 371.5 201.90625 C 371.49994 201.90345 371.50014 201.87835 371.5 201.875 C 371.49993 201.87219 371.50019 201.84709 371.5 201.84375 C 371.50576 201.83813 371.52544 201.81811 371.53125 201.8125 C 371.53972 201.79601 371.55163 201.7663 371.5625 201.75 C 371.73689 201.51499 372.15952 201.29348 372.6875 201.09375 C 381.21665 199.93161 396.36907 197.44775 397.375 182.875 C 397.21776 175.28423 394.12685 170.31434 384.8125 168.9375 C 377.96862 169.46668 373.08781 176.0866 373.875 183.375 C 373.54743 185.33745 374.53906 189.18856 372.53125 189.625 C 359.40287 190.82445 345.07452 199.05014 344.59375 204.9375 C 344.59061 204.93698 344.56526 204.93764 344.5625 204.9375 C 344.55703 204.94321 344.53675 204.9631 344.53125 204.96875 C 344.52111 204.9736 344.48526 204.99189 344.46875 205 C 344.45788 204.99985 344.41721 205.0004 344.40625 205 C 344.38517 205.00683 344.334 205.02566 344.3125 205.03125 C 344.30674 205.03179 344.28933 205.03114 344.28125 205.03125 C 344.26347 205.03097 344.2306 205.03125 344.21875 205.03125 C 344.21276 205.03106 344.19557 205.03105 344.1875 205.03125 C 344.17431 205.03158 344.13594 205.03178 344.125 205.03125 C 344.09113 205.02445 344.02945 205.00742 344 205 C 343.14616 204.76286 342.04617 203.35377 342.21875 201.375 C 341.71881 191.19786 338.4066 179.68235 333.21875 170.8125 C 331.36749 168.96167 330.56089 168.21173 330.03125 168.125 C 330.01415 168.12284 329.98535 168.1258 329.96875 168.125 C 329.94691 168.12491 329.90311 168.12525 329.875 168.125 C 329.86968 168.12514 329.8486 168.1246 329.84375 168.125 C 329.84104 168.12491 329.8154 168.12525 329.8125 168.125 C 329.80877 168.1262 329.78509 168.12359 329.78125 168.125 z M 363.96875 173.5 C 363.22615 173.62864 362.50955 174.24055 362.25 175.25 C 362.08673 175.91121 362.56746 177.01113 361.96875 177.34375 C 361.62504 177.69048 360.28932 177.48868 360.34375 175.65625 C 360.34375 175.07266 359.91529 174.43241 359.65625 174.0625 C 359.39621 173.89216 359.25196 173.84375 358.78125 173.84375 C 358.20773 173.86693 358.18947 174.0182 357.875 174.5 C 357.74194 174.99085 357.5625 175.47487 357.5625 176.03125 C 357.49093 176.68339 357.26103 176.90425 356.78125 177 C 356.24502 177 356.37192 177.05843 355.9375 176.78125 C 355.67947 176.49903 355.34375 176.38805 355.34375 175.90625 C 355.34374 175.40732 355.24393 174.61085 355.09375 174.28125 C 354.86596 173.98089 354.47474 173.85583 354.0625 173.75 C 351.81579 173.75806 351.68348 176.3086 351.8125 177.28125 C 351.64417 177.4647 351.52962 182.07173 354.59375 183.34375 C 358.70714 185.3052 368.50978 184.1504 366.125 177.8125 C 366.12499 177.22588 365.96471 175.25598 365.90625 174.71875 C 365.48645 173.74105 364.71135 173.37136 363.96875 173.5 z M 501.9375 179.15625 C 501.8341 179.13761 501.71514 179.14485 501.59375 179.1875 C 501.59375 179.1875 482.53523 192.74603 482.0625 193.21875 C 480.17262 194.89898 481.11808 200.80737 482.0625 200.125 C 483.42826 200.65013 502.61688 187.64699 502.25 186.125 C 503.08627 186.17414 503.48846 179.43583 501.9375 179.15625 z M 382 181.1875 C 382.77787 181.10499 383.79825 181.36893 384.78125 181.9375 C 386.20403 182.76043 387.08107 184.00318 386.96875 184.90625 C 386.96519 184.93072 386.9738 184.97605 386.96875 185 C 386.96321 185.02377 386.91332 185.07053 386.90625 185.09375 C 386.89868 185.11677 386.88411 185.16506 386.875 185.1875 C 386.86857 185.20232 386.85087 185.23546 386.84375 185.25 C 386.83629 185.2644 386.82066 185.29839 386.8125 185.3125 C 386.76593 185.38882 386.68892 185.46888 386.625 185.53125 C 385.94105 186.17002 384.36244 186.07909 382.875 185.21875 C 381.46516 184.40331 380.59403 183.1507 380.6875 182.25 C 380.69056 182.22537 380.71421 182.18038 380.71875 182.15625 C 380.74231 182.04447 380.78662 181.94251 380.84375 181.84375 C 380.86416 181.80847 380.88213 181.75114 380.90625 181.71875 C 380.91121 181.71239 380.93239 181.69374 380.9375 181.6875 C 380.97954 181.63846 381.04297 181.57291 381.09375 181.53125 C 381.32046 181.35296 381.64177 181.2255 382 181.1875 z M 215.09375 184.625 C 205.21799 184.80543 190.756 197.57046 190.375 204.65625 C 200.79605 199.65185 211.03159 194.83503 221.625 189.65625 C 219.91554 187.10416 221.52137 184.80442 215.09375 184.625 z M 247.09375 189.0625 C 248.06184 189.07335 249.08288 189.55143 249.625 190.90625 C 250.11284 192.14905 249.64811 193.44867 249.0625 194.09375 C 249.05995 194.09877 249.0652 194.12009 249.0625 194.125 C 249.05399 194.13941 249.04102 194.17405 249.03125 194.1875 C 248.61675 194.72154 247.16158 194.5 246.125 194.5 C 244.87112 194.44456 244.25293 194.23878 243.5 193.21875 C 243.14018 192.08482 244.23594 190.97066 244.71875 190.125 C 244.72338 190.11713 244.74506 190.10163 244.75 190.09375 C 244.80241 190.01496 244.88801 189.92049 244.96875 189.84375 C 245.34375 189.50028 245.99225 189.17922 246.6875 189.09375 C 246.82269 189.07713 246.95545 189.06095 247.09375 189.0625 z M 498.25 193 C 496.49403 193.21654 494.82476 194.87704 495.59375 197.53125 C 495.11195 199.09053 497.9759 204.54272 498.71875 207.4375 C 499.38702 209.49772 497.85804 215.32468 499.25 215.9375 C 500.53108 216.62391 503.90018 212.47817 503.78125 207.28125 C 504.15217 204.60921 502.82821 194.7639 499.46875 193.09375 C 499.08246 192.98584 498.65522 192.95003 498.25 193 z M 284.9375 202.625 C 283.38549 202.73348 282.0006 203.56303 282.625 205.75 C 282.53126 207.33649 287.0101 209.26558 287.28125 212.9375 C 287.92129 214.45142 286.32375 219.29945 287.65625 219.75 C 288.87989 220.25396 290.57771 216.39874 291.21875 212.8125 C 291.57354 210.84803 289.68206 203.97665 286.46875 202.75 C 285.97562 202.64391 285.45484 202.58884 284.9375 202.625 z M 348.78125 211.34375 C 348.89902 211.33544 349.00286 211.34447 349.125 211.34375 C 349.1455 211.34362 349.16685 211.34366 349.1875 211.34375 C 353.16684 212.42525 359.0329 212.53736 364.125 213.0625 C 368.27266 213.32557 370.32209 216.57276 366.4375 217.9375 C 362.60534 219.24986 358.92339 220.27489 358.90625 225.8125 C 359.41001 228.55556 359.3033 229.99509 358.875 230.65625 C 358.84149 230.70581 358.78723 230.77177 358.75 230.8125 C 358.74462 230.81815 358.72421 230.83828 358.71875 230.84375 C 358.71322 230.84905 358.6931 230.86987 358.6875 230.875 C 358.68183 230.87996 358.66199 230.90146 358.65625 230.90625 C 358.65072 230.9119 358.63056 230.9319 358.625 230.9375 C 358.61397 230.94297 358.57359 230.96344 358.5625 230.96875 C 358.50679 231.00336 358.43569 231.04023 358.375 231.0625 C 358.32139 231.08071 358.2445 231.08416 358.1875 231.09375 C 357.27655 231.22735 355.95347 230.35864 354.96875 229.84375 C 352.60616 228.1474 345.97569 224.0382 345.03125 215.21875 C 344.89687 213.2285 346.38663 211.51238 348.78125 211.34375 z M 192.84375 218.125 C 192.59517 218.13281 192.0977 218.87561 191.4375 219.71875 C 185.56224 229.07844 185.03973 243.04993 188.28125 247.21875 C 190.00382 249.18827 192.84401 250.05435 194.9375 249.4375 C 198.62856 247.83689 200.2509 240.36053 199.375 237.625 C 198.14331 235.69681 197.16718 235.39134 195.9375 237.03125 C 193.34005 242.30477 192.25905 238.69721 192.03125 235.75 C 191.63311 230.161 192.17447 225.01359 192.78125 220.9375 C 193.10429 218.84855 193.09233 218.11719 192.84375 218.125 z M 393 230.40625 C 392.56311 230.38285 392.09722 230.45114 391.625 230.6875 C 391.53227 230.6875 387.41919 233.469 386.09375 235.40625 C 385.28538 236.0211 385.37704 236.55558 385.625 237.625 C 386.25496 239.07341 387.36509 238.61886 388.625 237.9375 C 390.29717 237.7097 391.10584 238.8047 390.96875 240.8125 C 390.19667 243.31621 391.31249 244.249 391.3125 244.40625 C 391.3125 244.56349 392.92261 245.94542 394.8125 244.84375 C 398.80191 243.32076 401.28801 241.83956 406.875 240.625 C 408.34155 240.59577 408.25676 236.67135 405.9375 236.53125 C 402.91168 236.68345 400.11958 236.83801 397.09375 239.21875 C 395.23209 239.64914 394.91326 238.516 394.5 237.5 C 394.02728 234.97915 395.56446 233.20237 395.25 231.3125 C 395.33391 231.39565 394.31068 230.47646 393 230.40625 z M 521.15625 235.1875 C 520.41403 235.21068 519.63242 235.31352 518.5 235.40625 C 517.27538 235.66631 516.84775 236.20281 516.625 237.6875 C 516.71268 239.93923 518.08989 239.82773 519.5 240.71875 C 520.31645 241.75793 520.8476 242.6988 519.4375 244.40625 C 518.10097 245.63089 517.14902 246.30661 515.8125 247.53125 C 515.1815 248.60774 514.78855 250.26116 516.71875 250.78125 C 520.28278 251.78315 528.53125 246.42438 528.53125 246.3125 C 529.86776 245.31061 529.42438 243.40625 529.3125 243.40625 C 528.53338 242.51523 526.77505 243.05039 525.59375 242.90625 C 525.03131 242.90625 523.18459 242.63286 524.0625 241 C 524.79528 239.98399 525.06559 239.37685 525.5625 238.125 C 526.11888 236.90035 525.62979 236.07452 523.625 235.40625 C 522.60395 235.22079 521.89847 235.16432 521.15625 235.1875 z M 467.625 343.59375 C 467.61724 343.59735 467.60162 343.61958 467.59375 343.625 C 461.66608 345.14597 461.85049 351.29988 465.65625 354 C 403.06237 354 307.00877 352.93749 286.40625 352.9375 C 274.88151 352.9375 238.41927 351.56249 237.71875 351.5625 C 245.53832 362.99956 256.86578 365.32865 271.6875 365.5625 C 299.48921 365.5625 428.30736 365.21875 464.96875 365.21875 C 462.36255 369.84623 465.2052 377.29278 467.25 378.65625 C 467.29336 378.68415 467.36369 378.72773 467.40625 378.75 C 467.48254 378.78803 467.58318 378.82486 467.65625 378.84375 C 467.68047 378.84932 467.7262 378.84039 467.75 378.84375 C 470.17711 379.41625 471.24506 377.6591 472.0625 376.375 C 475.99975 376.72203 498.1593 377.04257 500.1875 376.34375 C 500.19486 376.34097 500.21202 376.31532 500.21875 376.3125 C 501.59055 378.3314 502.95194 380.23888 505.5625 379.90625 C 510.13148 378.92653 513.72987 378.42927 513.84375 369.15625 C 513.84375 369.15625 513.37671 353.35395 503 354.34375 C 500.54467 354.71467 493.65625 355.40625 493.65625 355.40625 C 485.68448 354.45778 479.83758 354.36084 470.875 354.03125 C 471.70223 352.98102 473.16277 348.72783 471.375 347.1875 C 470.90878 346.79983 470.21329 346.58398 469.25 346.65625 C 469.24307 346.65675 469.2256 346.65617 469.21875 346.65625 C 469.20519 346.65557 469.16951 346.65855 469.15625 346.65625 C 469.14969 346.6547 469.13149 346.62694 469.125 346.625 C 469.09934 346.61572 469.0558 346.60888 469.03125 346.59375 C 468.98268 346.56071 468.91952 346.49081 468.875 346.4375 C 468.86399 346.4236 468.82328 346.39 468.8125 346.375 C 468.35928 345.71513 468.11182 344.09728 467.8125 343.6875 C 467.80896 343.68301 467.7848 343.6604 467.78125 343.65625 C 467.77767 343.65281 467.7536 343.62808 467.75 343.625 C 467.73908 343.61798 467.69861 343.59726 467.6875 343.59375 C 467.68375 343.59339 467.66002 343.59369 467.65625 343.59375 C 467.65243 343.59466 467.62885 343.5924 467.625 343.59375 z M 471.875 366.1875 C 471.88589 366.18249 471.89521 366.19226 471.90625 366.1875 C 481.03817 366.63301 489.61809 366.27324 498.75 366.71875 C 500.19727 367.94907 499.47345 370.76717 498.53125 371.28125 C 498.48902 371.30237 498.41786 371.33222 498.375 371.34375 C 498.34065 371.35138 498.28451 371.34274 498.25 371.34375 C 498.21548 371.34305 498.15946 371.3515 498.125 371.34375 C 495.15563 371.26915 493.43813 371.19958 490.46875 371.125 C 490.46358 370.97728 490.44722 370.81793 490.40625 370.6875 C 489.70254 368.60185 484.60544 368.74142 483.40625 370.375 C 483.38965 370.39854 483.35873 370.44461 483.34375 370.46875 C 483.32452 370.50121 483.29747 370.56023 483.28125 370.59375 C 483.26194 370.63598 483.2331 370.70613 483.21875 370.75 C 483.20009 370.81188 483.19583 370.90372 483.1875 370.96875 C 483.17972 371.04358 483.14957 371.13988 483.15625 371.21875 C 479.14768 371.70055 475.53981 371.08566 471.53125 370.9375 C 470.35518 369.47342 470.49247 366.82408 471.875 366.1875 z "
     id="path766" />
</svg>
