<?xml version="1.0" encoding="UTF-8" standalone="no"?>
<!-- Created with Inkscape (http://www.inkscape.org/) -->
<svg
   xmlns:dc="http://purl.org/dc/elements/1.1/"
   xmlns:cc="http://creativecommons.org/ns#"
   xmlns:rdf="http://www.w3.org/1999/02/22-rdf-syntax-ns#"
   xmlns:svg="http://www.w3.org/2000/svg"
   xmlns="http://www.w3.org/2000/svg"
   xmlns:sodipodi="http://sodipodi.sourceforge.net/DTD/sodipodi-0.dtd"
   xmlns:inkscape="http://www.inkscape.org/namespaces/inkscape"
   id="svg2837"
   version="1.0"
   inkscape:version="0.46"
   width="300"
   height="200"
   sodipodi:docname="scythia.svg"
   sodipodi:version="0.32"
   inkscape:output_extension="org.inkscape.output.svg.inkscape">
  <metadata
     id="metadata2843">
    <rdf:RDF>
      <cc:Work
         rdf:about="">
        <dc:format>image/svg+xml</dc:format>
        <dc:type
           rdf:resource="http://purl.org/dc/dcmitype/StillImage" />
        <dc:title />
      </cc:Work>
    </rdf:RDF>
  </metadata>
  <defs
     id="defs2841">
    <inkscape:perspective
       sodipodi:type="inkscape:persp3d"
       inkscape:vp_x="0 : 0.5 : 1"
       inkscape:vp_y="0 : 1000 : 0"
       inkscape:vp_z="1 : 0.5 : 1"
       inkscape:persp3d-origin="0.5 : 0.33333333 : 1"
       id="perspective2845" />
  </defs>
  <sodipodi:namedview
     pagecolor="#ffffff"
     bordercolor="#666666"
     borderopacity="1"
     objecttolerance="10"
     gridtolerance="10"
     guidetolerance="10"
     inkscape:pageopacity="0"
     inkscape:pageshadow="2"
     inkscape:window-width="1280"
     inkscape:window-height="729"
     id="namedview2839"
     showgrid="false"
     inkscape:zoom="2.2766005"
     inkscape:cx="109.31605"
     inkscape:cy="97.912594"
     inkscape:window-x="0"
     inkscape:window-y="0"
     inkscape:window-maximized="1"
     inkscape:current-layer="svg2837" />
  <path
     id="path2877"
     d="M 0,100 L 0,2.3536728e-14 L 150,2.3536728e-14 L 300,2.3536728e-14 L 300,100 L 300,200 L 150,200 L 0,200 L 0,100 z"
     style="fill:#fed100" />
  <path
     id="path2873"
     d="M 140.84891,174.60655 C 138.28368,174.41755 133.1781,173.805 132.27537,172.95788 C 131.37265,172.11077 132.36599,172.28689 132.49171,172.78408 C 132.82163,174.08831 130.63671,172.92928 128.03954,172.01173 C 125.44237,171.09411 122.17619,169.50089 122.16746,169.9085 C 122.15917,170.3161 121.80004,170.07636 121.37038,169.37574 C 120.94071,168.67512 119.38656,167.93489 117.91668,167.73077 C 114.70873,167.28532 99.136273,155.68538 94.094853,149.98588 C 82.205193,136.54419 76.270243,121.39353 75.024173,101.30245 C 74.676443,95.695916 78.173013,75.120857 79.554673,74.6433 C 80.068173,74.465815 80.250133,73.376164 79.959013,72.221852 C 79.667903,71.06754 79.876053,70.123103 80.421563,70.123103 C 80.967073,70.123103 82.029363,68.187834 82.782203,65.822505 C 83.535033,63.457175 84.542903,61.521906 85.021903,61.521906 C 85.500903,61.521906 85.892813,60.79618 85.892813,59.909182 C 85.892813,59.022183 86.258813,58.296457 86.706133,58.296457 C 87.153453,58.296457 88.413333,56.724051 89.505853,54.802221 C 92.565663,49.419789 104.21228,38.153177 108.08723,36.827118 C 111.16502,35.773856 111.52252,35.252436 111.2698,32.185209 C 111.11322,30.284758 111.42147,27.883164 111.95478,26.848332 C 113.15517,24.519143 118.32413,24.348772 120.10959,26.579545 C 121.00288,27.695617 123.37931,28.192269 127.82635,28.192269 C 133.47425,28.192269 134.66645,28.575676 137.67282,31.358836 C 140.96537,34.40695 141.19039,34.459457 143.6881,32.762475 C 146.59235,30.78929 149.99014,30.231246 150.80241,31.594043 C 151.09706,32.088396 149.94227,32.492868 148.2362,32.492868 C 144.71002,32.492868 142.92478,35.820233 145.03582,38.457785 C 147.33262,41.327433 150.80967,40.361833 151.99678,36.524678 C 152.84884,33.770507 153.10022,33.53729 153.18364,35.423543 C 153.29863,38.022951 149.84683,44.691977 148.89649,43.706547 C 148.57545,43.373662 148.00524,43.617309 147.62934,44.247982 C 147.25343,44.878656 147.44891,45.394663 148.0637,45.394663 C 148.75702,45.394663 148.92285,46.51747 148.50035,48.351324 C 147.16761,54.136272 143.95764,56.056459 143.95764,51.068758 L 143.95764,48.141657 L 142.23868,50.686421 C 140.65023,53.037976 140.42109,53.091321 139.22066,51.389021 C 138.02427,49.692471 137.86344,49.736833 137.18594,51.950245 L 136.45029,54.353632 L 134.52423,51.755659 L 132.59816,49.157686 L 132.57515,51.576773 C 132.56155,52.99968 131.91158,53.995859 130.99675,53.995859 C 128.39437,53.995859 129.2583,50.12694 132.16762,48.752434 C 133.667,48.044045 134.6129,47.173191 134.26957,46.817205 C 133.30034,45.812179 126.33083,51.752535 126.33083,53.583682 C 126.33083,56.781658 128.44817,59.218284 132.28487,60.43556 C 134.42781,61.115449 137.11429,62.088656 138.25486,62.598243 C 139.39542,63.107829 142.54492,63.829491 145.25374,64.201937 C 149.50097,64.785901 150.17889,65.217077 150.17889,67.334471 C 150.17889,70.661847 147.05652,73.425215 144.17863,72.644847 C 142.91654,72.302616 141.88391,71.59522 141.88391,71.072857 C 141.88391,69.320807 137.88795,70.10006 132.97093,72.810977 C 130.28957,74.289307 127.44215,75.498851 126.64334,75.498851 C 124.55375,75.498851 118.77284,72.239923 117.29117,70.226667 C 116.13759,68.659211 116.0252,68.662123 115.99508,70.260244 C 115.97693,71.22267 115.30244,72.577797 114.49618,73.271638 C 111.77216,75.615825 108.46356,84.575726 107.12561,93.231606 C 106.39377,97.966226 105.96264,102.12265 106.16754,102.46809 C 106.37245,102.81351 106.81042,104.74878 107.14082,106.76869 C 108.06833,112.43888 108.6613,114.36051 111.0942,119.58 C 113.94349,125.69278 123.31117,135.4274 129.71562,138.93084 C 134.52769,141.5632 134.6258,141.7198 134.6258,146.76851 C 134.6258,152.79475 137.28679,158.80937 142.34002,164.2049 C 146.48018,168.62551 148.66165,169.32381 144.8397,165.00507 C 138.57307,157.92386 137.66679,156.58391 136.69787,152.96739 C 134.56754,145.0158 136.09395,140.33396 142.61819,134.8085 C 146.20613,131.76983 146.33992,131.47559 144.1487,131.44269 C 141.87416,131.4085 137.8265,129.69399 136.69955,128.28731 C 136.4144,127.93139 135.00307,127.01275 133.56324,126.24588 C 128.95405,123.79097 123.06515,117.22913 120.91165,112.14853 C 118.27037,105.9172 118.09142,92.411856 120.58388,87.414026 C 121.49288,85.591336 122.42482,84.100046 122.65487,84.100046 C 124.13303,84.100046 133.54833,95.812356 133.56657,97.673816 C 133.64558,105.74059 140.19928,115.37836 146.70329,116.99236 C 148.32973,117.39597 150.15019,118.12208 150.74875,118.60594 C 151.34733,119.0898 153.91359,119.78215 156.45155,120.14449 L 161.06604,120.8033 L 158.23711,118.88161 C 154.23496,116.16296 152.90389,111.64523 154.91617,107.61024 C 157.84438,101.73866 165.77943,100.35547 163.67946,106.08266 C 162.88978,108.23637 163.05102,108.9913 164.46872,109.77809 C 166.04876,110.65499 166.20924,110.23135 165.88678,106.03467 C 165.42276,99.995886 167.21749,99.788566 171.94995,105.33426 C 173.84228,107.55176 176.30829,110.429 177.42998,111.72812 C 179.19403,113.77121 179.27014,114.29683 177.99357,115.62052 C 175.7664,117.92991 170.28397,120.64159 167.59798,120.76232 C 165.272,120.86682 165.27709,120.88818 167.80571,121.632 C 170.63674,122.46478 170.81707,123.96162 169.0711,132.13505 C 168.50116,134.8031 168.48357,138.73141 169.02776,141.8114 C 171.00257,152.98808 171.16665,162.94904 169.44486,167.13425 C 166.72862,173.73671 162.43988,175.56747 156.12911,172.81846 C 154.81554,172.24625 154.45605,172.43696 154.84864,173.49778 C 155.41763,175.03529 151.20069,175.36927 140.84888,174.60655 L 140.84891,174.60655 L 140.84891,174.60655 z M 152.77106,171.18718 C 152.41861,170.59584 151.92448,170.11203 151.67299,170.11203 C 151.42151,170.11203 151.21575,170.59584 151.21575,171.18718 C 151.21575,171.77851 151.70989,172.26232 152.31383,172.26232 C 152.91776,172.26232 153.12352,171.77851 152.77106,171.18718 z M 150.17889,169.03688 C 150.17889,168.44554 149.68475,167.96173 149.08082,167.96173 C 148.47688,167.96173 148.27112,168.44554 148.62358,169.03688 C 148.97603,169.62821 149.47016,170.11203 149.72164,170.11203 C 149.97312,170.11203 150.17889,169.62821 150.17889,169.03688 z M 167.06541,130.34676 C 167.36621,129.15406 167.24556,128.41326 166.79729,128.70053 C 166.34904,128.98779 165.73617,130.19868 165.43539,131.39137 C 165.13459,132.58407 165.25524,133.32487 165.7035,133.0376 C 166.15177,132.75034 166.76462,131.53945 167.06541,130.34676 z M 145.94499,120.2632 C 145.70737,120.04763 144.34647,119.29522 142.92078,118.59117 C 140.47659,117.38415 140.4435,117.40654 142.3413,118.9831 C 143.99304,120.35528 147.36792,121.55409 145.94499,120.2632 L 145.94499,120.2632 z M 165.73196,116.22765 C 165.73196,115.63631 165.26537,115.45151 164.69509,115.81697 C 164.12481,116.18244 163.65822,116.96526 163.65822,117.5566 C 163.65822,118.14793 164.12481,118.33274 164.69509,117.96727 C 165.26537,117.60181 165.73196,116.81898 165.73196,116.22765 z M 135.38286,112.32736 C 134.47559,111.28782 133.17859,108.98672 132.50064,107.21381 C 131.82269,105.4409 131.05417,104.5866 130.79282,105.31538 C 130.31482,106.6483 135.81189,115.48219 136.60678,114.65852 C 136.8409,114.41592 136.29014,113.3669 135.38286,112.32736 L 135.38286,112.32736 z M 161.5686,108.55971 C 161.55615,106.67099 161.34387,106.48295 160.60014,107.70201 C 160.07622,108.56078 159.87761,109.64937 160.15878,110.1211 C 161.05813,111.63 161.58492,111.04657 161.5686,108.55971 z M 130.12156,96.712596 C 129.83753,95.984686 129.62245,96.840566 129.64358,98.614566 C 129.66473,100.38857 129.89709,100.98414 130.15998,99.938046 C 130.42287,98.891956 130.40558,97.440506 130.12151,96.712596 L 130.12156,96.712596 z M 112.97229,62.9673 C 111.25448,59.590913 110.86101,59.277013 110.82358,61.253119 C 110.79838,62.583616 111.18993,63.672205 111.69369,63.672205 C 112.19745,63.672205 112.87883,64.739665 113.20788,66.04434 C 113.5369,67.349014 114.09165,68.120395 114.44064,67.758521 C 114.78963,67.396646 114.12887,65.240597 112.97229,62.9673 z M 110.74621,54.264647 C 110.72299,51.287267 110.46478,50.67583 109.75909,51.926705 C 108.90463,53.441313 109.37808,58.296457 110.38023,58.296457 C 110.59886,58.296457 110.76356,56.482143 110.74621,54.264647 z M 141.5037,45.843876 C 147.14993,44.922698 147.53381,43.943026 141.93748,44.73684 C 139.40068,45.096673 136.83442,45.946683 136.23468,46.625751 C 135.46341,47.49903 135.48819,47.661026 136.31929,47.179202 C 136.9656,46.804532 139.29856,46.203635 141.50365,45.843876 L 141.5037,45.843876 L 141.5037,45.843876 z M 133.38156,40.879034 C 135.14223,39.053354 134.92548,34.089199 133.01322,32.443578 C 131.58389,31.213551 131.5371,31.366408 132.60145,33.788657 C 133.50173,35.837477 133.50693,37.093701 132.6223,38.807766 C 131.21872,41.527187 129.67602,41.682352 126.55793,39.417725 C 124.65328,38.034409 124.44639,37.36054 125.37436,35.56262 C 125.99285,34.364298 126.30358,33.181335 126.06487,32.933817 C 125.82615,32.686297 125.1013,33.688921 124.45408,35.16187 C 123.45086,37.444981 123.60779,38.159214 125.51803,40.004588 C 128.03237,42.43353 131.50954,42.820199 133.3816,40.879034 L 133.38156,40.879034 L 133.38156,40.879034 z M 119.31302,31.500765 C 118.87429,27.402968 117.20997,25.88712 114.83681,27.423892 C 111.21885,29.766755 113.23761,35.053458 117.5053,34.412102 C 119.0332,34.182488 119.51675,33.403706 119.31302,31.500765 z M 129.63585,31.758434 C 128.88736,31.447854 127.99306,31.486035 127.64852,31.843317 C 127.30397,32.200581 127.91638,32.454691 129.0094,32.408007 C 130.21732,32.356421 130.463,32.101653 129.63585,31.758437 L 129.63585,31.758434 z M 168.84257,171.91097 C 168.84257,171.69458 169.60852,169.9255 170.54467,167.97966 C 172.30599,164.31869 172.5721,157.70338 171.43201,145.92116 L 170.80778,139.47026 L 175.05692,136.804 C 181.4724,132.77839 188.28295,125.18395 191.39789,118.58222 C 195.02364,110.89786 195.14779,110.20922 195.19122,97.539416 C 195.22627,87.325286 195.0392,86.384896 191.44901,78.724299 L 187.66994,70.660678 L 191.2534,66.81384 C 193.73634,64.148402 194.98509,61.671986 195.31952,58.750218 C 195.73454,55.124311 195.66993,54.94562 194.85841,57.474995 C 192.16841,65.859292 185.82721,72.134709 179.09957,73.070389 C 176.8799,73.379099 175.06382,74.051793 175.06382,74.565265 C 175.06382,75.078737 175.47725,75.498851 175.98254,75.498851 C 176.48784,75.498851 177.72329,77.313166 178.728,79.530666 C 179.7327,81.748156 180.85842,83.804386 181.22958,84.100046 C 183.79579,86.144226 185.66721,105.60305 183.29759,105.60305 C 182.69365,105.60305 182.4409,106.00802 182.73592,106.50298 C 183.03092,106.99795 182.55961,108.458 181.68854,109.74756 C 180.11088,112.08312 180.08353,112.07026 174.62476,106.42854 C 169.86473,101.50895 169.07179,100.0778 168.58926,95.535086 C 167.96448,89.653296 165.64986,85.861606 161.06604,83.210936 C 159.3552,82.221616 157.77157,81.302176 157.54689,81.167736 C 157.32218,81.033306 157.92269,78.337585 158.88135,75.17726 C 160.48701,69.883977 160.34483,65.822505 158.55385,65.822505 C 158.1496,65.822505 156.76503,63.878278 155.47703,61.502001 C 150.90144,53.060282 153.96611,41.725197 162.5718,35.261144 C 166.36726,32.410221 167.83571,31.971097 173.59843,31.963759 C 180.67021,31.954727 181.67277,31.383588 177.91521,29.504484 C 175.60254,28.34795 175.60151,28.337169 177.79669,28.265035 C 180.87365,28.163928 185.00605,30.565531 187.56938,33.944573 C 188.75801,35.511464 190.55817,36.793466 191.56972,36.793466 C 194.58847,36.793466 200.18061,40.16851 200.72258,42.317521 C 201.00027,43.418616 201.86209,44.319513 202.63775,44.319513 C 203.41339,44.319513 205.90218,46.859554 208.16839,49.964048 C 210.4346,53.068543 213.37727,57.060035 214.70768,58.834032 C 219.42047,65.118187 223.09922,75.123704 224.3926,85.175196 C 225.26794,91.978046 225.17901,108.91403 224.24297,113.66667 C 220.91233,130.57779 211.22942,147.10523 198.69178,157.27915 C 195.10601,160.18889 191.57848,163.08632 190.85282,163.71789 C 190.12716,164.34945 187.79419,165.58437 185.66845,166.46215 C 183.54272,167.33992 180.8703,168.47637 179.72974,168.98758 C 175.15299,171.0389 168.84257,172.73336 168.84257,171.91097 L 168.84257,171.91097 z M 171.94817,90.847156 C 170.93439,89.199456 170.85242,89.306056 171.34926,91.626096 C 171.66585,93.104426 172.00116,95.281606 172.0944,96.464266 C 172.20488,97.865796 172.41344,97.594556 172.6933,95.685326 C 172.92947,94.074236 172.59418,91.897066 171.94817,90.847156 z M 129.8534,89.965586 C 127.06057,86.624656 124.63484,83.267296 124.46291,82.504786 C 124.04198,80.637996 130.52781,76.604954 135.22078,75.815275 C 138.73911,75.223251 138.9606,75.343444 138.30404,77.48844 C 137.88186,78.867733 138.04287,79.799446 138.70342,79.799446 C 139.31213,79.799446 139.81016,78.831814 139.81016,77.64915 C 139.81016,76.466485 140.42208,75.498851 141.16996,75.498851 C 143.0434,75.498851 147.00476,79.486286 148.10069,82.475186 C 149.93473,87.477146 146.60151,93.776396 142.1207,93.776396 C 140.10722,93.776396 139.6791,93.337056 140.09305,91.695646 C 140.38167,90.551236 139.90747,88.563316 139.03928,87.278046 C 137.83186,85.490576 137.75736,84.751106 138.7224,84.132666 C 139.64341,83.542436 139.5204,83.139656 138.26679,82.640846 C 136.77858,82.048676 136.58487,82.748106 136.81435,87.885186 C 137.2064,96.661276 135.80162,97.081126 129.8534,89.965586 L 129.8534,89.965586 z M 146.0314,86.250346 C 146.0314,85.137476 145.68145,84.002686 145.25374,83.728596 C 144.82603,83.454496 144.47609,84.589286 144.47609,86.250346 C 144.47609,87.911406 144.82603,89.046196 145.25374,88.772106 C 145.68145,88.498006 146.0314,87.363216 146.0314,86.250346 z M 153.03028,73.262433 C 151.10595,72.100239 150.49916,67.972804 152.25262,67.972804 C 153.55303,67.972804 153.61867,63.38045 152.33796,62.005724 C 151.81459,61.443958 151.11062,58.565245 150.77356,55.608584 L 150.16073,50.232836 L 151.67937,55.608584 C 152.51462,58.565245 153.21917,61.22624 153.24504,61.521906 C 153.27086,61.817572 154.45797,63.465232 155.88297,65.18337 C 158.71953,68.603427 159.14964,71.142644 157.22965,73.133522 C 155.74391,74.674106 155.38592,74.685096 153.03031,73.262433 L 153.03028,73.262433 L 153.03028,73.262433 z M 157.07918,69.631897 C 156.7415,68.719396 155.98,67.972804 155.387,67.972804 C 154.70457,67.972804 154.77338,68.744169 155.57442,70.074207 C 157.00508,72.449614 158.01238,72.153528 157.07918,69.631897 L 157.07918,69.631897 z M 146.0314,59.972634 C 146.0314,55.131297 147.54063,54.287635 149.12154,58.24523 C 150.4833,61.654165 149.88981,63.672205 147.52551,63.672205 C 146.51408,63.672205 146.0314,62.477034 146.0314,59.972634 z M 141.10626,61.824798 C 139.39124,61.186897 139.44968,57.794817 141.20164,56.287133 C 142.94037,54.790862 143.95764,55.773689 143.95764,58.949772 C 143.95764,61.656382 143.06723,62.554187 141.10626,61.824798 z M 132.13899,58.833443 C 130.51141,57.556013 130.39875,57.003465 131.48829,55.642188 C 133.36056,53.302953 134.61252,53.603466 134.70766,56.414946 C 134.75266,57.745443 135.02486,58.229261 135.3125,57.490095 C 136.15202,55.332758 138.77329,55.943514 138.77329,58.296457 C 138.77329,60.888686 135.13296,61.183336 132.13899,58.833443 L 132.13899,58.833443 z M 151.35066,47.544962 C 151.10326,42.315342 157.31032,34.249075 164.51455,30.438075 C 168.89023,28.123359 175.70103,27.328498 174.54537,29.267419 C 174.19292,29.858751 172.5465,30.342568 170.88667,30.342568 C 166.0493,30.342568 155.36324,37.507122 155.36324,40.750377 C 155.36324,41.530737 154.97894,42.169214 154.50924,42.169214 C 154.03954,42.169214 153.16531,43.983529 152.56652,46.201025 C 151.68491,49.465907 151.45362,49.72155 151.35066,47.544962 z M 146.0314,36.255891 C 146.0314,35.359933 146.95306,34.643167 148.10513,34.643167 C 149.25722,34.643167 150.17889,35.359933 150.17889,36.255891 C 150.17889,37.151849 149.25722,37.868615 148.10513,37.868615 C 146.95306,37.868615 146.0314,37.151849 146.0314,36.255891 z"
     style="fill:#000000"
     sodipodi:nodetypes="csssssssssssssssssssssssssssssssscccscccccsssssssssssssssssssssssssssssssssscccsssssssssssssscccsssccsssccsssccssccsssccsssccssccsscccssssccssccssscccsssssssscccssccssccscccsscccsssssssssssssssssssssssssssssssssccsssccsssssssssssssccsssccsscccssscccssccssccssccssssccssssssccsssc" />
</svg>
