<?xml version="1.0" encoding="UTF-8" standalone="no"?>
<svg
   xmlns:dc="http://purl.org/dc/elements/1.1/"
   xmlns:cc="http://creativecommons.org/ns#"
   xmlns:rdf="http://www.w3.org/1999/02/22-rdf-syntax-ns#"
   xmlns:svg="http://www.w3.org/2000/svg"
   xmlns="http://www.w3.org/2000/svg"
   xmlns:sodipodi="http://sodipodi.sourceforge.net/DTD/sodipodi-0.dtd"
   xmlns:inkscape="http://www.inkscape.org/namespaces/inkscape"
   width="450"
   height="300">
  <rect
     fill="#2d96ff"
     width="450"
     height="300" />
  <path
     style="fill:#ffffff;stroke:none"
     d="M 231,76 L 245,75 C 244.991,61.04 238.82,45.6486 222,48.213 C 216.907,48.9895 211.934,54.9871 207,54.5023 C 195.474,53.3699 186.333,41.3468 175.638,55.0941 C 172.819,58.7171 167.615,70.3271 171.607,74.3966 C 174.028,76.8646 178.011,75.4185 180.941,76.6034 C 186.025,78.6588 185.461,85.6511 184.211,90 C 181.523,99.351 171.739,107.816 162.001,101.991 C 151.962,95.9856 153,86.1547 153,76 C 153,59.2235 155.07,39.0525 138,29.7091 C 122.525,21.2388 100.9433,30.4999 97.3796,48 C 95.3451,57.9909 97,69.8143 97,80 C 97,96.0751 95.4616,113.019 97.1736,129 C 97.933,136.089 100.6451,142.804 100.9606,150 C 101.821,169.614 94.1593,187.013 94,206 C 116.158,202.05 127.86,182.645 138.966,166.015 C 141.392,162.382 145.815,160.399 147.972,156.7 C 154.616,145.304 144.311,131.153 163,125.789 C 178.457,121.354 174.574,145.176 172.714,154 C 167.655,178.001 151.674,196.316 143.779,219 C 140.598,228.137 148.206,237.672 142.567,247.852 C 140.316,251.915 134.022,251.703 130,252.654 C 122.108,254.522 114.774,257.847 112,266 C 127.23,262.248 145.315,263.526 160,269 C 169.889,250.431 171.972,218.768 199,216 L 200,233 L 217,233 L 218,215 C 229.494,221.407 244.768,235.695 245.235,250 C 245.407,255.3 241.912,259.886 241,265 C 259.615,268.456 281.231,266.481 300,265 C 292.994,251.532 278.325,253.135 268.325,244.387 C 259.98,237.087 258.379,230.71 268,225 C 260.759,199.669 245.946,179.089 244.09,152 C 243.343,141.106 240.854,119.028 258,129.225 C 270.191,136.474 266.017,146.246 270.603,156.675 C 272.51,161.011 277.972,163.784 280.521,168 C 283.539,172.993 284.087,179.04 287.144,183.961 C 294.071,195.109 308.537,203.04 321,206 C 320.855,188.75 313.993,172.554 314,155 C 314.005,142.51 317.65,130.401 318.83,118 C 320.265,102.921 319,87.1479 319,72 C 319,59.4675 320.446,45.1817 311.532,35.0934 C 297.493,19.2027 269.573,25.6481 263.789,46 C 260.986,55.8596 262.267,69.7069 262.015,80 C 261.911,84.2291 263.082,90.0954 260.972,93.9414 C 256.942,101.287 236.571,93.0902 232.603,87.7863 C 230.221,84.602 231,79.7416 231,76 z"
     id="path6" />
  <path
     style="fill:#2d96ff;stroke:none"
     d="M 191,213 C 199.867,210.685 203.813,203.765 204,195 C 196.35,196.544 189.468,205.066 191,213 M 212,195 C 209.647,203.578 215.869,210.878 224,213 C 225.633,205.134 219.207,197.452 212,195 z"
     id="path8" />
  <g
     id="g3178"
     transform="translate(1,-1)">
    <path
       id="path2390"
       d="M 115.29412,182.70588 L 350,181.05882"
       style="fill:none;fill-rule:evenodd;stroke:#000000;stroke-width:8.39999962;stroke-linecap:butt;stroke-linejoin:miter;stroke-miterlimit:4;stroke-dasharray:none;stroke-opacity:1" />
    <path
       id="path3164"
       d="M 117.47628,181.10687 L 210.77237,107.81078"
       style="fill:none;fill-rule:evenodd;stroke:#000000;stroke-width:6;stroke-linecap:butt;stroke-linejoin:miter;stroke-miterlimit:4;stroke-dasharray:none;stroke-opacity:1" />
    <path
       sodipodi:nodetypes="cc"
       id="path3166"
       d="M 117.73049,184.46303 L 210.99891,257.73145"
       style="fill:none;fill-rule:evenodd;stroke:#000000;stroke-width:6;stroke-linecap:butt;stroke-linejoin:miter;stroke-miterlimit:4;stroke-dasharray:none;stroke-opacity:1" />
    <path
       sodipodi:nodetypes="cc"
       id="path3172"
       d="M 208.06922,108.00481 C 334.44505,136.29096 345.22686,243.18534 208.17499,257.48225"
       style="fill:none;fill-rule:evenodd;stroke:#000000;stroke-width:6;stroke-linecap:butt;stroke-linejoin:miter;stroke-miterlimit:4;stroke-dasharray:none;stroke-opacity:1" />
    <path
       sodipodi:nodetypes="css"
       id="path3176"
       d="M 348.25958,197.31806 C 372.2164,185.02783 393.00584,187.87829 379.70964,181.3969 C 354.07808,168.9025 373.08409,178.6671 348.92048,164.7167"
       style="fill:#000000;stroke:none" />
  </g>
</svg>
