<?xml version="1.0" encoding="UTF-8" standalone="no"?>
<svg
   xmlns:dc="http://purl.org/dc/elements/1.1/"
   xmlns:cc="http://creativecommons.org/ns#"
   xmlns:rdf="http://www.w3.org/1999/02/22-rdf-syntax-ns#"
   xmlns:svg="http://www.w3.org/2000/svg"
   xmlns="http://www.w3.org/2000/svg"
   xmlns:sodipodi="http://sodipodi.sourceforge.net/DTD/sodipodi-0.dtd"
   xmlns:inkscape="http://www.inkscape.org/namespaces/inkscape"
   width="390"
   height="260"
   viewBox="0 0 312 208"
   version="1.1"
   id="svg2"
   inkscape:version="0.48.2 r9819"
   sodipodi:docname="suebian.svg">
  <metadata
     id="metadata16">
    <rdf:RDF>
      <cc:Work
         rdf:about="">
        <dc:format>image/svg+xml</dc:format>
        <dc:type
           rdf:resource="http://purl.org/dc/dcmitype/StillImage" />
        <dc:title />
      </cc:Work>
    </rdf:RDF>
  </metadata>
  <rect
     style="fill:#e7daae;fill-opacity:1;stroke:none"
     id="rect2986"
     width="312"
     height="208"
     x="0"
     y="0" />
  <g
     id="#000000ff"
     transform="translate(0.16,0.48)">
    <path
       d="m 94.62,79.64 c 20.31,-19.82 40.13,-40.14 60.51,-59.89 2.6,2.09 4.94,4.46 7.24,6.87 15.66,15.68 31.34,31.33 47,47.01 3.75,3.82 7.72,7.44 11.23,11.49 -14.72,15.92 -30.63,30.75 -45.49,46.55 5.41,5.37 10.76,10.81 16.2,16.16 6.8,-6.46 13.25,-13.27 19.95,-19.83 6.76,6.29 13.02,13.11 19.48,19.71 -13.04,13.11 -26.25,26.04 -39.42,39.01 C 179.26,175 167.58,162.86 155.15,151.53 143.18,163 131.69,174.97 119.76,186.48 112.02,179.84 105.4,172.01 98.07,164.93 92.42,159 86.24,153.56 80.94,147.3 c 6.2,-6.42 12.39,-12.84 18.52,-19.32 7.15,5.8 13.11,12.94 19.8,19.25 3.65,-2.25 6.29,-5.68 9.36,-8.6 2.38,-2.29 4.87,-4.53 6.62,-7.37 -14.12,-14.04 -28.14,-28.19 -42.28,-42.2 -1.24,-1.27 -2.41,-2.6 -3.56,-3.94 1.68,-1.88 3.41,-3.72 5.22,-5.48 M 128.69,85 c 8.65,9.15 17.75,17.88 26.61,26.82 8.95,-8.8 17.96,-17.58 26.6,-26.69 -8.77,-9 -17.55,-18.03 -26.74,-26.61 -8.96,8.69 -17.82,17.49 -26.47,26.48 z"
       id="path10"
       inkscape:connector-curvature="0"
       style="fill:#000000" />
  </g>
</svg>
