<?xml version="1.0" encoding="UTF-8" standalone="no"?>
<!-- Created with Sodipodi ("http://www.sodipodi.com/") -->
<svg
   xmlns:dc="http://purl.org/dc/elements/1.1/"
   xmlns:cc="http://web.resource.org/cc/"
   xmlns:rdf="http://www.w3.org/1999/02/22-rdf-syntax-ns#"
   xmlns:svg="http://www.w3.org/2000/svg"
   xmlns="http://www.w3.org/2000/svg"
   xmlns:sodipodi="http://inkscape.sourceforge.net/DTD/sodipodi-0.dtd"
   xmlns:inkscape="http://www.inkscape.org/namespaces/inkscape"
   id="svg563"
   sodipodi:version="0.32"
   width="600.00000pt"
   height="400.00000pt"
   sodipodi:docname="tibet.svg"
   sodipodi:docbase="/Users/daniel/Desktop"
   inkscape:version="0.42">
  <metadata
     id="metadata2279">
    <rdf:RDF>
      <cc:Work
         rdf:about="">
        <dc:format>image/svg+xml</dc:format>
        <dc:type
           rdf:resource="http://purl.org/dc/dcmitype/StillImage" />
      </cc:Work>
    </rdf:RDF>
  </metadata>
  <defs
     id="defs565" />
  <sodipodi:namedview
     id="base"
     inkscape:zoom="0.69346032"
     inkscape:cx="369.64444"
     inkscape:cy="253.87461"
     inkscape:window-width="672"
     inkscape:window-height="508"
     inkscape:window-x="20"
     inkscape:window-y="45"
     inkscape:current-layer="svg563">
    <sodipodi:guide
       orientation="vertical"
       position="24.2500000"
       id="guide576" />
    <sodipodi:guide
       orientation="horizontal"
       position="367.156250"
       id="guide577" />
    <sodipodi:guide
       orientation="horizontal"
       position="32.1732368"
       id="guide632" />
  </sodipodi:namedview>
  <rect
     style="font-size:12.000000px;fill:#ffff00;fill-rule:evenodd;stroke-width:1.0000000pt"
     id="rect567"
     width="749.74512"
     height="500.00000"
     x="0.0000000"
     y="0.0000000" />
  <path
     style="font-size:12.000000px;fill:#c51829;fill-rule:evenodd;stroke-width:1.0000000pt"
     d="M 319.17853,280.67612 C 318.89061,280.67612 270.25114,300.63830 270.25114,300.63830 L 316.87634,271.71859 L 313.99833,260.96995 L 34.249510,352.84639 L 34.348806,459.50925 L 49.346448,459.56268 L 333.85652,290.14568 L 319.17853,280.67612 z "
     id="path570"
     sodipodi:nodetypes="ccccccccc" />
  <path
     style="font-size:12.000000px;fill:#21319c;fill-rule:evenodd;stroke-width:1.0000000pt"
     d="M 313.40663,252.80466 L 253.98169,261.49106 L 318.69791,244.84196 L 313.33748,233.94516 L 34.402649,233.95221 L 34.234094,352.85344 L 317.06904,260.04265 L 313.40663,252.80466 z "
     id="path571"
     sodipodi:nodetypes="cccccccc" />
  <path
     style="font-size:12.000000px;fill:#c51829;fill-rule:evenodd;stroke-width:1.0000000pt"
     d="M 317.88405,226.74547 L 267.00587,215.52613 L 327.24468,216.24982 L 321.95339,207.56343 L 34.402535,140.50440 L 34.419651,233.98447 L 320.73259,233.98447 L 317.88405,226.74547 z "
     id="path572"
     sodipodi:nodetypes="cccccccc" />
  <path
     style="font-size:12.000000px;fill:#21319c;fill-rule:evenodd;stroke-width:1.0000000pt"
     d="M 276.77457,174.62809 L 340.26999,195.98224 L 340.67692,186.21029 L 64.195259,37.497932 L 34.366943,37.458522 L 34.383945,140.52859 L 334.16484,211.18293 L 326.68018,202.08025 L 276.77457,174.62809 z "
     id="path573"
     sodipodi:nodetypes="ccccccccc" />
  <path
     style="font-size:12.000000px;fill:#c51829;fill-rule:evenodd;stroke-width:1.0000000pt"
     d="M 303.23099,145.31226 C 303.63793,145.31226 353.70110,179.33314 353.70110,179.33314 L 370.07031,177.09250 L 365.14175,172.09515 L 226.75560,37.426671 L 63.902357,37.458522 L 349.04686,190.82866 L 345.96821,181.86709 L 303.23099,145.31226 z "
     id="path574"
     sodipodi:nodetypes="ccccccccc" />
  <path
     style="font-size:12.000000px;fill:#21319c;fill-rule:evenodd;stroke-width:1.0000000pt"
     d="M 371.61077,170.28490 L 358.17852,118.89223 L 381.37947,168.47565 C 381.37947,168.47565 386.26268,174.62809 386.67075,174.26624 C 387.07769,173.90440 389.11236,168.11380 389.11236,168.11380 L 389.92623,37.458522 L 226.71139,37.458522 L 372.38836,179.20715 L 371.61077,170.28490 z "
     id="path575"
     sodipodi:nodetypes="ccccccccc" />
  <path
     style="font-size:12.000000px;fill:#21319c;fill-rule:evenodd;stroke-width:1.0000000pt"
     d="M 462.62246,275.68381 C 462.91037,275.68381 513.79649,297.94207 514.13314,297.94207 L 465.14908,268.92257 L 468.36375,260.96995 L 749.79710,353.04596 L 749.79710,459.64734 L 722.48940,459.50321 L 448.50443,290.14568 L 462.62246,275.68381 z "
     id="path578"
     sodipodi:nodetypes="ccccccccc" />
  <path
     style="font-size:12.000000px;fill:#c51829;fill-rule:evenodd;stroke-width:1.0000000pt"
     d="M 468.95545,252.80466 L 529.72928,256.29917 L 465.34858,242.94502 L 469.02460,233.94516 L 749.75629,233.95221 L 749.81297,353.25259 L 465.29304,260.04265 L 468.95545,252.80466 z "
     id="path579"
     sodipodi:nodetypes="cccccccc" />
  <path
     style="font-size:12.000000px;fill:#21319c;fill-rule:evenodd;stroke-width:1.0000000pt"
     d="M 464.47804,226.74547 L 525.35049,214.22790 L 455.11627,218.24655 L 460.40869,207.56343 L 749.75629,140.20505 L 749.85151,234.08425 L 461.62949,233.98447 L 464.47804,226.74547 z "
     id="path580"
     sodipodi:nodetypes="cccccccc" />
  <path
     style="font-size:12.000000px;fill:#c51829;fill-rule:evenodd;stroke-width:1.0000000pt"
     d="M 505.58865,174.62809 L 442.09096,195.98224 L 441.68402,186.21029 L 718.16727,37.497932 L 749.68035,37.458522 L 750.00000,140.32902 L 448.19611,211.18293 L 453.66083,199.68439 L 505.58865,174.62809 z "
     id="path581"
     sodipodi:nodetypes="ccccccccc" />
  <path
     style="font-size:12.000000px;fill:#21319c;fill-rule:evenodd;stroke-width:1.0000000pt"
     d="M 475.20230,144.11382 C 474.79536,144.11382 427.64761,178.03492 428.43427,178.53486 L 412.28837,177.09250 L 417.21693,172.09515 L 555.60761,37.426671 L 718.46086,37.458522 L 433.31296,190.82866 L 436.39160,181.86709 L 475.20230,144.11382 z "
     id="path582"
     sodipodi:nodetypes="ccccccccc" />
  <path
     style="font-size:12.000000px;fill:#c51829;fill-rule:evenodd;stroke-width:1.0000000pt"
     d="M 408.95128,171.18397 L 421.03690,118.89223 L 400.97808,168.47565 C 400.97808,168.47565 396.09486,174.62809 395.68679,174.26624 C 395.27986,173.90440 389.87409,170.90982 389.08742,169.01288 L 390.07359,37.358736 L 555.65182,37.458522 L 409.97032,179.20715 L 408.95128,171.18397 z "
     id="path583"
     sodipodi:nodetypes="ccccccccc" />
  <path
     sodipodi:type="arc"
     style="font-size:12.000000px;fill:#ffff00;fill-rule:evenodd;stroke-width:1.0000000pt"
     id="path569"
     d="M 398.57466 233.21915 A 61.042984 61.042961 0 1 1  276.48869,233.21915 A 61.042984 61.042961 0 1 1  398.57466 233.21915 z"
     sodipodi:cx="337.53168"
     sodipodi:cy="233.21915"
     sodipodi:rx="61.042984"
     sodipodi:ry="61.042961"
     transform="matrix(1.293549,0.000000,0.000000,1.301161,-45.87370,-55.73651)" />
  <path
     style="font-size:12.000000px;fill:#ffffff;fill-rule:evenodd;stroke-width:1.0000000pt"
     d="M 49.198524,459.54050 L 722.67189,459.55058 L 391.94277,245.40943 L 49.198524,459.54050 z "
     id="path568"
     sodipodi:nodetypes="cccc" />
  <g
     id="g631"
     transform="matrix(1.133523,0.000000,0.000000,1.007937,0.000000,7.272116e-5)">
    <path
       sodipodi:type="arc"
       style="fill:#ffff00;fill-opacity:1.0000000;fill-rule:evenodd;stroke:#003e00;stroke-width:1.0000000pt;stroke-linecap:butt;stroke-linejoin:miter;stroke-opacity:1.0000000"
       id="path630"
       d="M 360.96739 413.53564 A 18.658371 18.658371 0 1 1  323.65065,413.53564 A 18.658371 18.658371 0 1 1  360.96739 413.53564 z"
       sodipodi:cx="342.30902"
       sodipodi:cy="413.53564"
       sodipodi:rx="18.658371"
       sodipodi:ry="18.658371"
       transform="matrix(0.961539,0.000000,0.000000,0.961538,14.13580,15.24790)" />
    <g
       id="g625"
       transform="translate(0.000000,-1.525879e-5)">
      <path
         sodipodi:type="arc"
         style="fill:#c51829;fill-opacity:1.0000000;fill-rule:evenodd;stroke:none;stroke-width:1.0000000pt;stroke-linecap:butt;stroke-linejoin:miter;stroke-opacity:1.0000000"
         id="path576"
         d="M 356.85265 413.20755 A 13.399094 13.399078 0 1 1  330.05446,413.20755 A 13.399094 13.399078 0 1 1  356.85265 413.20755 z"
         sodipodi:cx="343.45355"
         sodipodi:cy="413.20755"
         sodipodi:rx="13.399094"
         sodipodi:ry="13.399078"
         transform="translate(-0.174294,-0.334793)" />
      <path
         style="fill:#3d5897;fill-opacity:1.0000000;fill-rule:evenodd;stroke:none;stroke-width:1.0000000pt;stroke-linecap:butt;stroke-linejoin:miter;stroke-opacity:1.0000000"
         d="M 345.51000,399.67300 C 342.16400,400.09800 338.43500,400.71900 338.04700,405.97800 C 337.93200,407.95000 338.50600,411.78600 343.76500,413.10200 C 348.81900,414.83100 350.27100,420.03400 347.53200,423.57500 C 346.25000,425.58500 344.21300,426.14100 342.68600,426.28300 C 337.77600,426.12400 333.52700,423.24400 331.63200,419.55100 C 329.16100,415.30300 329.10900,409.42200 332.85300,404.26900 C 334.98500,401.94500 338.91800,398.70100 345.51000,399.67300 z "
         id="path653"
         sodipodi:nodetypes="cccccccc" />
    </g>
  </g>
  <g
     id="g687"
     transform="matrix(1.133523,0.000000,0.000000,1.007937,0.000000,7.272116e-5)">
    <path
       style="fill:#003f00;fill-opacity:1.0000000;fill-rule:evenodd;stroke:#003000;stroke-width:1.0000000pt;stroke-linecap:butt;stroke-linejoin:round;stroke-opacity:1.0000000"
       d="M 276.49900,338.63000 C 256.34200,354.44300 269.65200,379.32600 297.35100,374.18300 C 297.35100,374.18300 293.70200,385.75500 293.49300,385.86000 C 293.28400,385.96400 288.17600,386.17300 288.17600,386.17300 C 288.17600,386.17300 288.38400,379.50000 288.28000,379.60400 C 288.17600,379.70800 280.87700,386.06800 280.77300,386.17300 C 280.66900,386.27700 275.24700,386.90200 275.03900,386.90200 C 274.83000,386.90200 273.05800,383.98300 273.05800,383.98300 C 271.21600,384.19200 269.37400,384.40000 267.53200,384.60900 C 269.06100,381.93300 271.11200,379.77800 272.12000,376.58100 C 266.69800,378.49300 262.52800,384.78200 257.73200,388.88300 C 257.07200,387.49300 256.41100,386.10300 255.75100,384.71300 C 254.50000,384.15700 253.24800,383.60100 251.99700,383.04500 C 254.08200,381.34200 256.16800,379.63900 258.25300,377.93600 C 256.16800,378.07500 254.08200,378.21400 251.99700,378.35300 C 252.51800,376.40700 253.04000,374.46000 253.56100,372.51400 C 250.22500,374.49500 246.88800,376.47600 243.55200,378.45700 C 241.15400,377.93600 238.75600,377.41400 236.35800,376.89300 C 236.35800,376.89300 243.96900,365.84200 243.76100,365.84200 C 243.55200,365.84200 230.83300,368.97000 230.83300,368.97000 C 233.23100,365.11200 235.62800,361.25500 238.02600,357.39700 C 234.20300,358.57900 230.38100,359.76000 226.55800,360.94200 C 232.67500,353.78300 238.79100,346.62300 244.90800,339.46400 C 249.42600,338.66500 253.94400,337.86500 258.46200,337.06600 C 274.87800,336.61200 274.64100,338.34900 280.17500,332.12600 C 284.25000,331.58800 281.03700,335.78500 282.54000,335.91500 C 284.04300,336.04600 274.99600,338.50000 276.49900,338.63000 z "
       id="path628"
       sodipodi:nodetypes="cccccccccccccccccccccccccsc" />
    <path
       style="fill:#003f00;fill-opacity:1.0000000;fill-rule:evenodd;stroke:#003000;stroke-width:1.2500000;stroke-linecap:butt;stroke-linejoin:round;stroke-dasharray:none;stroke-opacity:1.0000000"
       d="M 219.22400,381.59600 C 222.65700,369.23700 222.11700,364.52900 207.74800,360.70300 C 204.95200,360.99800 195.53600,361.43800 193.47600,364.52900 C 181.85300,365.55900 176.55600,376.88800 173.46600,377.32900 C 165.41500,378.53700 156.88900,384.93100 152.28000,386.15700 C 156.98800,390.27700 161.10800,390.57100 165.81600,390.71800 C 163.75600,393.90600 159.78300,395.18100 158.75300,398.51600 C 170.67100,398.71200 188.03200,395.81800 192.29900,395.57300 C 201.27400,390.91400 210.24900,386.25500 219.22400,381.59600 z "
       id="path629"
       sodipodi:nodetypes="cccsccccc" />
    <path
       style="fill:none;fill-opacity:1.0000000;fill-rule:evenodd;stroke:#000000;stroke-width:1.0000000pt;stroke-linecap:butt;stroke-linejoin:miter;stroke-opacity:1.0000000"
       d="M 245.96800,377.29900 C 245.96800,377.29900 246.32300,381.60500 244.71100,382.67800 C 243.10000,383.39300 217.44400,383.39800 217.44400,383.39800"
       id="path636"
       sodipodi:nodetypes="ccc" />
    <path
       style="fill:#003f00;fill-opacity:1.0000000;fill-rule:evenodd;stroke:#003000;stroke-width:1.0000000pt;stroke-linecap:butt;stroke-linejoin:miter;stroke-opacity:1.0000000"
       d="M 196.44700,403.94800 C 196.25300,403.94800 193.34400,396.77300 193.34400,396.77300 C 192.76200,396.83700 190.04800,399.61700 189.46600,399.68200 C 188.94900,398.97100 188.23800,397.67800 187.72100,396.96700 C 187.72100,396.96700 185.00600,400.45700 184.81200,400.06900 C 184.61800,399.68200 183.26000,408.02000 183.06600,407.82700 C 182.87200,407.63300 180.93300,401.42700 180.73900,401.42700 C 180.54500,401.42700 179.38200,405.49900 179.38200,405.49900 C 178.67100,405.56400 177.96000,405.62800 177.24900,405.69300 C 177.31400,407.89100 177.37800,410.08900 177.44300,412.28700 C 176.08500,410.34800 174.72800,408.40800 173.37000,406.46900 C 172.98200,408.47300 172.59500,410.47700 172.20700,412.48100 C 172.46500,416.48900 172.72400,420.49600 172.98200,424.50400 C 173.17600,425.34400 173.37000,426.18500 173.56400,427.02500 C 183.77700,421.07800 190.69400,413.38600 196.44700,403.94800 z "
       id="path637"
       sodipodi:nodetypes="ccccccccccccccc" />
    <path
       style="fill:#003f00;fill-opacity:1.0000000;fill-rule:evenodd;stroke:#003000;stroke-width:1.0000000pt;stroke-linecap:butt;stroke-linejoin:miter;stroke-opacity:1.0000000"
       d="M 244.34700,426.05600 C 241.30900,423.72900 237.88300,422.37100 234.65100,422.56500 C 233.68100,423.27600 232.71200,423.98700 231.74200,424.69800 C 230.38400,425.08600 229.02700,425.47400 227.66900,425.86200 C 227.66900,425.86200 230.57800,428.96400 230.19000,429.15800 C 229.80300,429.35200 221.07600,430.51600 221.07600,430.71000 C 221.07600,430.90400 225.73000,433.03700 225.73000,433.03700 C 225.14800,433.42500 224.56700,433.81300 223.98500,434.20100 C 225.92400,434.97700 227.86400,435.75200 229.80300,436.52800 C 229.80300,436.52800 224.37300,437.69100 224.17900,437.88500 C 223.98500,438.07900 233.87500,443.89700 234.65100,443.70300 C 235.42700,444.28500 245.89900,445.44800 245.89900,445.25400 C 246.67500,440.60000 245.51100,434.78200 245.51100,434.78200 C 243.18400,433.03700 242.99000,428.96500 244.34700,426.05600 z "
       id="path638"
       sodipodi:nodetypes="cccccccccccccc" />
    <path
       style="fill:#003f00;fill-opacity:1.0000000;fill-rule:evenodd;stroke:#003000;stroke-width:1.0000000pt;stroke-linecap:butt;stroke-linejoin:miter;stroke-opacity:1.0000000"
       d="M 265.09800,424.89200 C 267.81300,420.82000 289.33800,426.44400 289.33800,426.44400 C 300.00400,428.18900 319.20200,423.14700 320.75400,426.44400 C 321.72300,431.16300 310.08800,435.88200 303.30100,437.11000 C 303.30100,437.11000 297.48300,442.92800 297.48300,442.15200 C 297.48300,441.37600 300.39200,434.39500 298.84100,434.78300 C 297.28900,435.17100 291.47100,438.07900 290.89000,438.66100 C 288.95000,439.24300 284.68400,441.95700 284.49000,441.76300 C 283.52000,440.40600 285.46000,436.91600 285.46000,436.91600 C 277.12100,436.39900 264.32200,430.25700 265.09800,424.89200 z "
       id="path639"
       sodipodi:nodetypes="cccccccccc" />
    <path
       style="fill:none;fill-opacity:1.0000000;fill-rule:evenodd;stroke:#000000;stroke-width:1.0000000pt;stroke-linecap:butt;stroke-linejoin:miter;stroke-opacity:1.0000000"
       d="M 297.87100,375.24700 C 305.04600,377.38000 302.52500,398.13000 299.03400,411.31700"
       id="path640"
       sodipodi:nodetypes="cc" />
    <path
       style="fill:none;fill-opacity:1.0000000;fill-rule:evenodd;stroke:#000000;stroke-width:1.2500000;stroke-linecap:round;stroke-linejoin:round;stroke-dasharray:none;stroke-opacity:1.0000000"
       d="M 273.43600,395.22100 C 287.01100,392.89400 298.84000,410.92900 298.84000,411.12300 C 306.59700,421.20700 318.42700,411.51100 318.42700,411.51100 C 320.62500,411.44600 322.82200,411.38200 325.02000,411.31700 C 325.08500,412.09300 325.14900,412.86800 325.21400,413.64400 C 323.33900,414.03200 321.46500,414.42000 319.59000,414.80800 C 321.33600,414.61400 323.08100,414.42000 324.82700,414.22600 C 324.95600,415.13100 325.08500,416.03600 325.21400,416.94100 C 323.53300,417.65200 321.85300,418.36300 320.17200,419.07400 C 321.85300,418.55700 323.53300,418.04000 325.21400,417.52300 C 325.66700,418.42800 326.11900,419.33300 326.57200,420.23800 C 324.82700,420.94900 323.08100,421.66000 321.33600,422.37100 C 323.21100,421.98300 325.08500,421.59500 326.96000,421.20700 C 327.80000,422.37100 328.64100,423.53400 329.48100,424.69800 C 326.70100,425.47400 323.92200,426.24900 321.14200,427.02500"
       id="path641"
       sodipodi:nodetypes="ccccccccccccccc" />
    <path
       style="fill:none;fill-opacity:1.0000000;fill-rule:evenodd;stroke:#000000;stroke-width:1.0000000pt;stroke-linecap:butt;stroke-linejoin:round;stroke-opacity:1.0000000"
       d="M 249.58300,409.37800 C 242.60200,417.39400 236.78400,420.75500 226.89400,421.79000 C 215.51700,423.53500 207.04900,423.53500 195.28400,422.95300 C 194.31500,427.73700 192.76300,429.22300 188.30300,430.12800 C 187.26900,431.80800 186.04000,434.26500 185.00600,435.94600 C 184.87700,438.66100 184.16500,440.79400 184.03600,443.50900 C 183.13100,442.34500 182.22600,441.18200 181.32100,440.01900 C 181.32100,442.21600 181.90300,445.57800 181.32100,446.41800 C 179.96300,446.48200 179.77000,442.47400 178.99400,440.40600 C 178.47700,443.18500 178.54100,447.32200 177.44200,448.74500 C 176.40800,447.96900 174.79200,443.31500 174.34000,440.60000 C 173.43500,442.99200 174.27500,445.38400 173.37000,447.77600 C 169.23200,440.92400 170.09000,432.95600 172.54600,426.10400"
       id="path642"
       sodipodi:nodetypes="ccccccccccccc" />
    <path
       style="fill:none;fill-opacity:1.0000000;fill-rule:evenodd;stroke:#000000;stroke-width:1.0000000pt;stroke-linecap:butt;stroke-linejoin:miter;stroke-opacity:1.0000000"
       d="M 243.89600,426.14900 C 251.10100,427.03900 258.30600,426.86100 264.71000,425.61600"
       id="path643"
       sodipodi:nodetypes="cc" />
    <path
       style="fill:none;fill-opacity:1.0000000;fill-rule:evenodd;stroke:#000000;stroke-width:1.0000000pt;stroke-linecap:butt;stroke-linejoin:round;stroke-opacity:1.0000000"
       d="M 266.04400,429.35200 C 263.99800,431.39800 261.68600,433.17700 259.10600,434.42200 C 259.19500,436.37900 259.28400,438.60200 259.37300,440.55900 C 262.22000,440.29200 263.73200,441.62700 265.51100,443.76100 C 264.97700,445.98500 264.44400,448.20900 263.91000,450.43300 C 263.37600,449.01000 262.84200,447.58600 262.30800,446.16300 C 261.77400,448.12000 261.77500,451.41100 260.44000,452.30100 C 258.57300,451.76700 259.10600,448.29800 258.30600,446.43000 C 257.32700,448.38700 256.34900,451.41000 255.37000,452.30000 C 254.03600,451.05500 254.83700,448.74300 254.57000,446.96400 C 253.41400,448.47600 252.25700,449.98800 251.10100,451.50000 C 250.56700,451.14400 250.03400,450.78900 249.50000,450.43300 C 248.69900,451.14400 247.89900,451.85600 247.09800,452.56700 C 246.47500,450.43200 245.85300,448.29800 245.23000,446.16300"
       id="path644"
       sodipodi:nodetypes="cccccccccccccc" />
    <path
       style="fill:#003f00;fill-opacity:1.0000000;fill-rule:evenodd;stroke:#003000;stroke-width:1.0000000pt;stroke-linecap:butt;stroke-linejoin:round;stroke-opacity:1.0000000"
       d="M 337.22700,348.54800 C 336.03500,349.62100 335.02200,350.69300 333.47200,351.40800 C 332.93600,354.44800 333.11400,362.13700 335.43900,373.76000 C 335.97500,376.44200 333.47200,374.29500 331.68400,373.22300 C 331.02800,377.21600 330.01500,382.28200 329.35900,386.27500 C 328.34600,385.56000 327.69000,384.30900 326.67700,383.59400 C 326.67700,383.59400 325.24700,385.02400 325.42600,384.66700 C 325.60500,384.30900 325.06800,377.51400 325.06800,377.51400 C 324.94900,382.16300 324.83000,386.81200 324.71100,391.46100 C 323.75700,391.46100 322.80400,391.46100 321.85000,391.46100 C 321.85000,391.46100 321.85000,395.75300 321.49200,396.11000 C 321.13400,396.46800 317.73700,395.21600 317.73700,395.21600 C 317.79700,397.18300 317.85600,399.15000 317.91600,401.11700 C 317.91600,401.11700 314.16100,400.58000 313.98200,400.75900 C 313.80300,400.93800 310.94200,405.22900 310.94200,405.22900 C 311.30000,401.83200 311.65700,398.43400 312.01500,395.03700 C 312.01500,395.03700 309.69100,395.93100 309.51200,395.75300 C 309.33300,395.57400 309.51200,388.77900 309.51200,388.77900 C 313.86300,380.19600 318.92900,373.04400 322.92300,363.92500 C 323.10100,361.54100 323.99500,358.79900 324.17400,356.41500 C 323.10100,351.94500 327.92900,346.58100 331.50500,347.47500 C 335.26000,346.93900 337.22700,348.72700 337.22700,348.54800 z "
       id="path645"
       sodipodi:nodetypes="cccccccccccccccccccccc" />
    <path
       style="fill:none;fill-opacity:1.0000000;fill-rule:evenodd;stroke:#000000;stroke-width:1.0000000pt;stroke-linecap:butt;stroke-linejoin:miter;stroke-opacity:1.0000000"
       d="M 309.69300,389.13700 C 308.14300,394.26300 304.98400,397.60000 301.82500,400.75900"
       id="path646"
       sodipodi:nodetypes="cc" />
    <path
       style="fill:none;fill-opacity:1.0000000;fill-rule:evenodd;stroke:#000000;stroke-width:1.2500000;stroke-linecap:butt;stroke-linejoin:round;stroke-dasharray:none;stroke-opacity:1.0000000"
       d="M 298.07000,363.38900 C 303.97100,360.17000 308.97800,355.70100 313.09000,350.51500 C 315.71200,349.02500 316.18900,344.67300 316.66600,339.60700 C 319.11000,338.59400 321.55300,334.00500 322.38800,334.42200 C 324.11700,335.85200 324.41500,339.78600 325.42800,342.46800 C 325.84500,340.38200 325.18900,336.86600 326.67900,336.21000 C 328.11000,337.40200 328.11000,340.91900 328.82500,343.00500 C 329.71900,341.15700 329.89800,338.95200 331.68600,338.17700 C 333.29500,339.25000 332.93700,343.89900 332.93700,343.72000 C 332.93700,343.54100 334.72600,339.25000 336.51400,339.25000 C 337.82500,342.17000 338.77900,345.27000 338.30200,348.01100"
       id="path647"
       sodipodi:nodetypes="ccccccccccc" />
    <path
       style="fill:none;fill-opacity:1.0000000;fill-rule:evenodd;stroke:#000000;stroke-width:1.0000000pt;stroke-linecap:butt;stroke-linejoin:miter;stroke-opacity:1.0000000"
       d="M 296.81900,373.22300 C 299.50100,370.00400 299.32200,365.17700 298.60700,362.49500 C 295.62700,360.70700 292.46800,360.70600 289.13000,360.88500"
       id="path648"
       sodipodi:nodetypes="ccc" />
    <path
       style="fill:#6b0000;fill-opacity:1.0000000;fill-rule:evenodd;stroke:#000000;stroke-width:1.0000000pt;stroke-linecap:butt;stroke-linejoin:miter;stroke-opacity:1.0000000"
       d="M 283.94400,364.28300 C 283.94400,364.28300 281.08400,366.96500 281.97800,368.39500 C 282.87200,369.82600 293.06400,371.79300 295.74600,370.54100 C 298.42800,369.28900 298.60700,363.74600 296.64000,363.74600 C 294.67300,363.74600 283.94400,364.64000 283.94400,364.28300 z "
       id="path651" />
    <path
       style="fill:none;fill-opacity:1.0000000;fill-rule:evenodd;stroke:#000000;stroke-width:1.2500000;stroke-linecap:round;stroke-linejoin:miter;stroke-dasharray:none;stroke-opacity:1.0000000"
       d="M 288.77200,367.14400 L 297.17600,367.68000"
       id="path649"
       sodipodi:nodetypes="cc" />
    <path
       style="fill:none;fill-opacity:1.0000000;fill-rule:evenodd;stroke:#000000;stroke-width:1.0000000pt;stroke-linecap:butt;stroke-linejoin:round;stroke-opacity:1.0000000"
       d="M 283.94500,363.21000 C 287.28300,360.64700 290.26200,359.15700 294.13600,358.02400 C 300.39400,357.90500 299.14300,336.50800 294.67300,338.35500 C 292.46800,338.23600 292.40800,339.90500 291.27600,340.68000 C 288.71300,338.11800 286.15000,336.98500 283.58700,336.21000"
       id="path650"
       sodipodi:nodetypes="ccccc" />
    <path
       style="fill:none;fill-opacity:1.0000000;fill-rule:evenodd;stroke:#000000;stroke-width:1.0000000pt;stroke-linecap:butt;stroke-linejoin:miter;stroke-opacity:1.0000000"
       d="M 289.91700,354.46800 C 291.28100,354.54500 291.46000,344.02800 289.44400,344.02800 C 286.21800,346.44700 288.85300,354.65300 289.91700,354.46800 z "
       id="path654"
       sodipodi:nodetypes="ccc" />
    <path
       style="fill:#003f00;fill-opacity:1.0000000;fill-rule:evenodd;stroke:#003000;stroke-width:1.0000000pt;stroke-linecap:butt;stroke-linejoin:miter;stroke-opacity:1.0000000"
       d="M 285.07100,352.65300 C 285.23500,354.12900 283.61700,357.11300 281.45000,357.35400 C 281.18100,358.83300 280.91200,360.31100 280.64300,361.79000 C 278.89600,361.65500 277.14800,361.52100 275.40100,361.38600 C 274.32600,359.50400 274.07400,357.76000 272.99900,355.87800 C 273.40200,354.40000 272.98200,352.78400 273.38500,351.30600 C 274.99800,351.03700 276.74800,351.59100 278.36100,351.32200 C 280.64400,350.48500 284.29700,350.47200 285.07100,352.65300 z "
       id="path655"
       sodipodi:nodetypes="cccccccc" />
    <path
       style="fill:#003f00;fill-opacity:1.0000000;fill-rule:evenodd;stroke:#003000;stroke-width:1.0000000pt;stroke-linecap:butt;stroke-linejoin:miter;stroke-opacity:1.0000000"
       d="M 279.43400,345.66100 C 277.68900,346.75000 275.67000,347.15300 273.78800,346.87000 C 274.19900,344.85400 274.19900,342.83800 273.78800,340.82200 C 275.39800,340.14500 277.28300,340.01500 279.03000,339.61200 C 280.64300,339.74700 282.25600,339.88100 283.86900,340.01600 C 285.09300,340.81700 285.49300,341.61700 285.48200,343.24100 C 284.01500,345.00800 281.86100,345.54000 279.43400,345.66100 z "
       id="path656"
       sodipodi:nodetypes="ccccccc" />
    <path
       style="fill:#000000;fill-opacity:1.0000000;fill-rule:evenodd;stroke:none;stroke-width:1.2500000;stroke-linecap:butt;stroke-linejoin:miter;stroke-dasharray:none;stroke-opacity:1.0000000"
       d="M 246.23300,380.64900 C 246.23300,380.64900 248.92900,385.65600 245.20600,387.83800 C 241.48300,390.02100 239.30100,383.08800 239.30100,383.08800 C 239.30100,383.08800 242.76700,384.11600 244.56500,382.83100 C 246.23400,380.64900 246.36200,380.90600 246.23300,380.64900 z "
       id="path657"
       sodipodi:nodetypes="ccccc" />
    <path
       style="fill:#000000;fill-opacity:1.0000000;fill-rule:evenodd;stroke:none;stroke-width:1.0000000pt;stroke-linecap:butt;stroke-linejoin:miter;stroke-opacity:1.0000000"
       d="M 225.94900,383.47300 C 225.94900,383.47300 226.46300,386.94000 227.61800,387.96700 C 228.77400,388.99400 234.29400,389.25100 235.45000,388.35200 C 236.60500,387.45300 237.76000,383.47300 236.34800,383.34500 C 234.93600,383.21700 225.94900,383.47300 225.94900,383.47300 z "
       id="path658" />
    <path
       style="fill:#000000;fill-opacity:1.0000000;fill-rule:evenodd;stroke:none;stroke-width:1.0000000pt;stroke-linecap:butt;stroke-linejoin:miter;stroke-opacity:1.0000000"
       d="M 221.07100,383.60200 C 221.07100,383.60200 223.76700,388.35200 220.81400,390.27800 C 217.86100,392.20300 214.39500,388.60900 214.39500,388.60900 L 207.07700,388.48000 L 217.22000,383.47300 L 221.07100,383.60200 z "
       id="path659" />
    <path
       style="fill:#000000;fill-opacity:1.0000000;fill-rule:evenodd;stroke:none;stroke-width:1.0000000pt;stroke-linecap:butt;stroke-linejoin:miter;stroke-opacity:1.0000000"
       d="M 212.59800,422.88600 C 212.59800,422.75800 211.18600,416.46700 213.75300,416.21000 C 216.32100,415.95400 221.58400,413.64300 222.09800,417.10900 C 222.61100,420.57500 221.58400,422.37300 221.58400,422.37300 L 212.59800,422.88600 z "
       id="path660" />
    <path
       style="fill:#000000;fill-opacity:1.0000000;fill-rule:evenodd;stroke:none;stroke-width:1.0000000pt;stroke-linecap:butt;stroke-linejoin:miter;stroke-opacity:1.0000000"
       d="M 201.42900,423.27100 C 201.42900,423.27100 202.71300,419.03500 201.55700,417.36600 C 200.40200,415.69700 193.85400,416.46700 193.34100,418.13600 C 192.82700,419.80500 191.80000,423.01500 192.18500,425.58200 C 192.57000,428.15000 193.46900,427.63600 193.46900,427.63600 L 195.13800,422.88600 L 201.42900,423.27100 z "
       id="path661" />
    <path
       style="fill:#000000;fill-opacity:1.0000000;fill-rule:evenodd;stroke:none;stroke-width:1.0000000pt;stroke-linecap:butt;stroke-linejoin:miter;stroke-opacity:1.0000000"
       d="M 190.13100,428.79200 C 190.13100,428.79200 191.15800,422.88600 186.79300,422.88600 C 182.42800,422.88600 183.84100,429.17700 183.84100,429.17700 C 183.84100,429.17700 185.25300,432.00100 186.92200,431.23100 C 188.59100,430.46100 190.26000,429.17700 190.13100,428.79200 z "
       id="path662" />
    <path
       style="fill:none;fill-opacity:1.0000000;fill-rule:evenodd;stroke:#000000;stroke-width:1.2500000;stroke-linecap:round;stroke-linejoin:miter;stroke-dasharray:none;stroke-opacity:1.0000000"
       d="M 180.88800,432.38600 L 181.40100,439.70400"
       id="path663" />
    <path
       style="fill:none;fill-opacity:1.0000000;fill-rule:evenodd;stroke:#000000;stroke-width:1.2500000;stroke-linecap:round;stroke-linejoin:miter;stroke-dasharray:none;stroke-opacity:1.0000000"
       d="M 177.03600,432.64300 L 178.83300,440.34600"
       id="path664"
       sodipodi:nodetypes="cc" />
    <path
       style="fill:none;fill-opacity:1.0000000;fill-rule:evenodd;stroke:#000000;stroke-width:1.2500000;stroke-linecap:round;stroke-linejoin:miter;stroke-dasharray:none;stroke-opacity:1.0000000"
       d="M 175.11100,432.13000 C 175.11100,432.13000 173.18500,437.13600 174.34000,440.47400"
       id="path665" />
    <path
       style="fill:#000000;fill-opacity:1.0000000;fill-rule:evenodd;stroke:none;stroke-width:1.0000000pt;stroke-linecap:butt;stroke-linejoin:miter;stroke-opacity:1.0000000"
       d="M 316.17600,413.56800 C 316.17600,413.56800 317.25700,418.80700 314.18000,421.55100 C 311.10400,424.29500 309.77300,419.22300 310.35500,417.89200 C 310.93700,416.56200 311.93500,414.98100 312.26800,414.98100 C 312.60000,414.98100 316.34300,413.56800 316.17600,413.56800 z "
       id="path666" />
    <path
       style="fill:#000000;fill-opacity:1.0000000;fill-rule:evenodd;stroke:none;stroke-width:1.0000000pt;stroke-linecap:butt;stroke-linejoin:miter;stroke-opacity:1.0000000"
       d="M 307.94300,416.06300 C 307.94300,416.06300 308.11000,426.20800 301.62300,422.54900 C 295.13700,418.89000 302.45500,414.73200 302.45500,414.73200 L 307.94300,416.06300 z "
       id="path667" />
    <path
       style="fill:#000000;fill-opacity:1.0000000;fill-rule:evenodd;stroke:none;stroke-width:1.0000000pt;stroke-linecap:butt;stroke-linejoin:miter;stroke-opacity:1.0000000"
       d="M 298.54600,410.99000 C 298.54600,410.99000 298.79600,417.14400 292.47600,416.22900 C 286.15500,415.31400 292.55900,404.83600 294.72100,406.33300 C 296.88300,407.83000 298.62900,411.23900 298.54600,410.99000 z "
       id="path668" />
    <path
       style="fill:#000000;fill-opacity:1.0000000;fill-rule:evenodd;stroke:none;stroke-width:1.0000000pt;stroke-linecap:butt;stroke-linejoin:miter;stroke-opacity:1.0000000"
       d="M 260.87500,432.86100 C 260.79100,432.77800 260.62500,428.78600 251.89300,430.20000 C 243.16100,431.61400 255.38600,437.93400 258.62900,436.93600 C 257.88000,433.27700 261.04100,433.19400 260.87500,432.86100 z "
       id="path669"
       sodipodi:nodetypes="cccc" />
    <path
       style="fill:none;fill-opacity:1.0000000;fill-rule:evenodd;stroke:#000000;stroke-width:1.2500000;stroke-linecap:round;stroke-linejoin:miter;stroke-dasharray:none;stroke-opacity:1.0000000"
       d="M 254.88700,440.26200 C 255.05300,440.42900 261.87200,445.83400 261.87200,445.83400"
       id="path670" />
    <path
       style="fill:none;fill-opacity:1.0000000;fill-rule:evenodd;stroke:#000000;stroke-width:1.2500000;stroke-linecap:round;stroke-linejoin:miter;stroke-dasharray:none;stroke-opacity:1.0000000"
       d="M 255.55200,443.75500 L 257.79800,446.08400"
       id="path671" />
    <path
       style="fill:none;fill-opacity:1.0000000;fill-rule:evenodd;stroke:#000000;stroke-width:1.2500000;stroke-linecap:round;stroke-linejoin:miter;stroke-dasharray:none;stroke-opacity:1.0000000"
       d="M 249.31500,442.50800 L 254.05500,446.66600"
       id="path672" />
    <path
       style="fill:#000000;fill-opacity:1.0000000;fill-rule:evenodd;stroke:none;stroke-width:1.0000000pt;stroke-linecap:butt;stroke-linejoin:miter;stroke-opacity:1.0000000"
       d="M 308.44200,355.93800 C 308.44200,355.93800 315.51100,359.59700 310.60500,364.66900 C 305.69800,369.74200 304.61700,358.59900 304.61700,358.59900 L 308.44200,355.93800 z "
       id="path673" />
    <path
       style="fill:#000000;fill-opacity:1.0000000;fill-rule:evenodd;stroke:none;stroke-width:1.0000000pt;stroke-linecap:butt;stroke-linejoin:miter;stroke-opacity:1.0000000"
       d="M 311.43600,352.77700 C 311.43600,352.77700 312.76700,358.93100 318.58800,355.77100 C 324.40900,352.61100 317.17400,347.95400 315.01200,348.70200 C 312.35100,350.28200 311.43600,352.94400 311.43600,352.77700 z "
       id="path674"
       sodipodi:nodetypes="cccc" />
    <path
       style="fill:#000000;fill-opacity:1.0000000;fill-rule:evenodd;stroke:none;stroke-width:1.0000000pt;stroke-linecap:butt;stroke-linejoin:miter;stroke-opacity:1.0000000"
       d="M 316.34300,345.21000 C 317.09100,346.20800 318.33800,350.61500 322.91200,347.45500 C 327.48600,344.29500 320.66700,337.06000 319.08700,338.22400 C 317.50700,339.38900 316.67500,339.30500 316.34300,345.21000 z "
       id="path675"
       sodipodi:nodetypes="cccc" />
  </g>
  <g
     id="g728"
     transform="matrix(-1.133523,0.000000,0.000000,1.007937,779.0330,5.672116e-5)">
    <path
       style="fill:#003f00;fill-opacity:1.0000000;fill-rule:evenodd;stroke:#003000;stroke-width:1.0000000pt;stroke-linecap:butt;stroke-linejoin:round;stroke-opacity:1.0000000"
       d="M 276.49900,338.63000 C 256.34200,354.44300 269.65200,379.32600 297.35100,374.18300 C 297.35100,374.18300 293.70200,385.75500 293.49300,385.86000 C 293.28400,385.96400 288.17600,386.17300 288.17600,386.17300 C 288.17600,386.17300 288.38400,379.50000 288.28000,379.60400 C 288.17600,379.70800 280.87700,386.06800 280.77300,386.17300 C 280.66900,386.27700 275.24700,386.90200 275.03900,386.90200 C 274.83000,386.90200 273.05800,383.98300 273.05800,383.98300 C 271.21600,384.19200 269.37400,384.40000 267.53200,384.60900 C 269.06100,381.93300 271.11200,379.77800 272.12000,376.58100 C 266.69800,378.49300 262.52800,384.78200 257.73200,388.88300 C 257.07200,387.49300 256.41100,386.10300 255.75100,384.71300 C 254.50000,384.15700 253.24800,383.60100 251.99700,383.04500 C 254.08200,381.34200 256.16800,379.63900 258.25300,377.93600 C 256.16800,378.07500 254.08200,378.21400 251.99700,378.35300 C 252.51800,376.40700 253.04000,374.46000 253.56100,372.51400 C 250.22500,374.49500 246.88800,376.47600 243.55200,378.45700 C 241.15400,377.93600 238.75600,377.41400 236.35800,376.89300 C 236.35800,376.89300 243.96900,365.84200 243.76100,365.84200 C 243.55200,365.84200 230.83300,368.97000 230.83300,368.97000 C 233.23100,365.11200 235.62800,361.25500 238.02600,357.39700 C 234.20300,358.57900 230.38100,359.76000 226.55800,360.94200 C 232.67500,353.78300 238.79100,346.62300 244.90800,339.46400 C 249.42600,338.66500 253.94400,337.86500 258.46200,337.06600 C 274.87800,336.61200 274.64100,338.34900 280.17500,332.12600 C 284.25000,331.58800 281.03700,335.78500 282.54000,335.91500 C 284.04300,336.04600 274.99600,338.50000 276.49900,338.63000 z "
       id="path729"
       sodipodi:nodetypes="cccccccccccccccccccccccccsc" />
    <path
       style="fill:#003f00;fill-opacity:1.0000000;fill-rule:evenodd;stroke:#003000;stroke-width:1.2500000;stroke-linecap:butt;stroke-linejoin:round;stroke-dasharray:none;stroke-opacity:1.0000000"
       d="M 219.22400,381.59600 C 222.65700,369.23700 222.11700,364.52900 207.74800,360.70300 C 204.95200,360.99800 195.53600,361.43800 193.47600,364.52900 C 181.85300,365.55900 176.55600,376.88800 173.46600,377.32900 C 165.41500,378.53700 156.88900,384.93100 152.28000,386.15700 C 156.98800,390.27700 161.10800,390.57100 165.81600,390.71800 C 163.75600,393.90600 159.78300,395.18100 158.75300,398.51600 C 170.67100,398.71200 188.03200,395.81800 192.29900,395.57300 C 201.27400,390.91400 210.24900,386.25500 219.22400,381.59600 z "
       id="path730"
       sodipodi:nodetypes="cccsccccc" />
    <path
       style="fill:none;fill-opacity:1.0000000;fill-rule:evenodd;stroke:#000000;stroke-width:1.0000000pt;stroke-linecap:butt;stroke-linejoin:miter;stroke-opacity:1.0000000"
       d="M 245.96800,377.29900 C 245.96800,377.29900 246.32300,381.60500 244.71100,382.67800 C 243.10000,383.39300 217.44400,383.39800 217.44400,383.39800"
       id="path731"
       sodipodi:nodetypes="ccc" />
    <path
       style="fill:#003f00;fill-opacity:1.0000000;fill-rule:evenodd;stroke:#003000;stroke-width:1.0000000pt;stroke-linecap:butt;stroke-linejoin:miter;stroke-opacity:1.0000000"
       d="M 196.44700,403.94800 C 196.25300,403.94800 193.34400,396.77300 193.34400,396.77300 C 192.76200,396.83700 190.04800,399.61700 189.46600,399.68200 C 188.94900,398.97100 188.23800,397.67800 187.72100,396.96700 C 187.72100,396.96700 185.00600,400.45700 184.81200,400.06900 C 184.61800,399.68200 183.26000,408.02000 183.06600,407.82700 C 182.87200,407.63300 180.93300,401.42700 180.73900,401.42700 C 180.54500,401.42700 179.38200,405.49900 179.38200,405.49900 C 178.67100,405.56400 177.96000,405.62800 177.24900,405.69300 C 177.31400,407.89100 177.37800,410.08900 177.44300,412.28700 C 176.08500,410.34800 174.72800,408.40800 173.37000,406.46900 C 172.98200,408.47300 172.59500,410.47700 172.20700,412.48100 C 172.46500,416.48900 172.72400,420.49600 172.98200,424.50400 C 173.17600,425.34400 173.37000,426.18500 173.56400,427.02500 C 183.77700,421.07800 190.69400,413.38600 196.44700,403.94800 z "
       id="path732"
       sodipodi:nodetypes="ccccccccccccccc" />
    <path
       style="fill:#003f00;fill-opacity:1.0000000;fill-rule:evenodd;stroke:#003000;stroke-width:1.0000000pt;stroke-linecap:butt;stroke-linejoin:miter;stroke-opacity:1.0000000"
       d="M 244.34700,426.05600 C 241.30900,423.72900 237.88300,422.37100 234.65100,422.56500 C 233.68100,423.27600 232.71200,423.98700 231.74200,424.69800 C 230.38400,425.08600 229.02700,425.47400 227.66900,425.86200 C 227.66900,425.86200 230.57800,428.96400 230.19000,429.15800 C 229.80300,429.35200 221.07600,430.51600 221.07600,430.71000 C 221.07600,430.90400 225.73000,433.03700 225.73000,433.03700 C 225.14800,433.42500 224.56700,433.81300 223.98500,434.20100 C 225.92400,434.97700 227.86400,435.75200 229.80300,436.52800 C 229.80300,436.52800 224.37300,437.69100 224.17900,437.88500 C 223.98500,438.07900 233.87500,443.89700 234.65100,443.70300 C 235.42700,444.28500 245.89900,445.44800 245.89900,445.25400 C 246.67500,440.60000 245.51100,434.78200 245.51100,434.78200 C 243.18400,433.03700 242.99000,428.96500 244.34700,426.05600 z "
       id="path733"
       sodipodi:nodetypes="cccccccccccccc" />
    <path
       style="fill:#003f00;fill-opacity:1.0000000;fill-rule:evenodd;stroke:#003000;stroke-width:1.0000000pt;stroke-linecap:butt;stroke-linejoin:miter;stroke-opacity:1.0000000"
       d="M 265.09800,424.89200 C 267.81300,420.82000 289.33800,426.44400 289.33800,426.44400 C 300.00400,428.18900 319.20200,423.14700 320.75400,426.44400 C 321.72300,431.16300 310.08800,435.88200 303.30100,437.11000 C 303.30100,437.11000 297.48300,442.92800 297.48300,442.15200 C 297.48300,441.37600 300.39200,434.39500 298.84100,434.78300 C 297.28900,435.17100 291.47100,438.07900 290.89000,438.66100 C 288.95000,439.24300 284.68400,441.95700 284.49000,441.76300 C 283.52000,440.40600 285.46000,436.91600 285.46000,436.91600 C 277.12100,436.39900 264.32200,430.25700 265.09800,424.89200 z "
       id="path734"
       sodipodi:nodetypes="cccccccccc" />
    <path
       style="fill:none;fill-opacity:1.0000000;fill-rule:evenodd;stroke:#000000;stroke-width:1.0000000pt;stroke-linecap:butt;stroke-linejoin:miter;stroke-opacity:1.0000000"
       d="M 297.87100,375.24700 C 305.04600,377.38000 302.52500,398.13000 299.03400,411.31700"
       id="path735"
       sodipodi:nodetypes="cc" />
    <path
       style="fill:none;fill-opacity:1.0000000;fill-rule:evenodd;stroke:#000000;stroke-width:1.2500000;stroke-linecap:round;stroke-linejoin:round;stroke-dasharray:none;stroke-opacity:1.0000000"
       d="M 273.43600,395.22100 C 287.01100,392.89400 298.84000,410.92900 298.84000,411.12300 C 306.59700,421.20700 318.42700,411.51100 318.42700,411.51100 C 320.62500,411.44600 322.82200,411.38200 325.02000,411.31700 C 325.08500,412.09300 325.14900,412.86800 325.21400,413.64400 C 323.33900,414.03200 321.46500,414.42000 319.59000,414.80800 C 321.33600,414.61400 323.08100,414.42000 324.82700,414.22600 C 324.95600,415.13100 325.08500,416.03600 325.21400,416.94100 C 323.53300,417.65200 321.85300,418.36300 320.17200,419.07400 C 321.85300,418.55700 323.53300,418.04000 325.21400,417.52300 C 325.66700,418.42800 326.11900,419.33300 326.57200,420.23800 C 324.82700,420.94900 323.08100,421.66000 321.33600,422.37100 C 323.21100,421.98300 325.08500,421.59500 326.96000,421.20700 C 327.80000,422.37100 328.64100,423.53400 329.48100,424.69800 C 326.70100,425.47400 323.92200,426.24900 321.14200,427.02500"
       id="path736"
       sodipodi:nodetypes="ccccccccccccccc" />
    <path
       style="fill:none;fill-opacity:1.0000000;fill-rule:evenodd;stroke:#000000;stroke-width:1.0000000pt;stroke-linecap:butt;stroke-linejoin:round;stroke-opacity:1.0000000"
       d="M 249.58300,409.37800 C 242.60200,417.39400 236.78400,420.75500 226.89400,421.79000 C 215.51700,423.53500 207.04900,423.53500 195.28400,422.95300 C 194.31500,427.73700 192.76300,429.22300 188.30300,430.12800 C 187.26900,431.80800 186.04000,434.26500 185.00600,435.94600 C 184.87700,438.66100 184.16500,440.79400 184.03600,443.50900 C 183.13100,442.34500 182.22600,441.18200 181.32100,440.01900 C 181.32100,442.21600 181.90300,445.57800 181.32100,446.41800 C 179.96300,446.48200 179.77000,442.47400 178.99400,440.40600 C 178.47700,443.18500 178.54100,447.32200 177.44200,448.74500 C 176.40800,447.96900 174.79200,443.31500 174.34000,440.60000 C 173.43500,442.99200 174.27500,445.38400 173.37000,447.77600 C 169.23200,440.92400 170.09000,432.95600 172.54600,426.10400"
       id="path737"
       sodipodi:nodetypes="ccccccccccccc" />
    <path
       style="fill:none;fill-opacity:1.0000000;fill-rule:evenodd;stroke:#000000;stroke-width:1.0000000pt;stroke-linecap:butt;stroke-linejoin:miter;stroke-opacity:1.0000000"
       d="M 243.89600,426.14900 C 251.10100,427.03900 258.30600,426.86100 264.71000,425.61600"
       id="path738"
       sodipodi:nodetypes="cc" />
    <path
       style="fill:none;fill-opacity:1.0000000;fill-rule:evenodd;stroke:#000000;stroke-width:1.0000000pt;stroke-linecap:butt;stroke-linejoin:round;stroke-opacity:1.0000000"
       d="M 266.04400,429.35200 C 263.99800,431.39800 261.68600,433.17700 259.10600,434.42200 C 259.19500,436.37900 259.28400,438.60200 259.37300,440.55900 C 262.22000,440.29200 263.73200,441.62700 265.51100,443.76100 C 264.97700,445.98500 264.44400,448.20900 263.91000,450.43300 C 263.37600,449.01000 262.84200,447.58600 262.30800,446.16300 C 261.77400,448.12000 261.77500,451.41100 260.44000,452.30100 C 258.57300,451.76700 259.10600,448.29800 258.30600,446.43000 C 257.32700,448.38700 256.34900,451.41000 255.37000,452.30000 C 254.03600,451.05500 254.83700,448.74300 254.57000,446.96400 C 253.41400,448.47600 252.25700,449.98800 251.10100,451.50000 C 250.56700,451.14400 250.03400,450.78900 249.50000,450.43300 C 248.69900,451.14400 247.89900,451.85600 247.09800,452.56700 C 246.47500,450.43200 245.85300,448.29800 245.23000,446.16300"
       id="path739"
       sodipodi:nodetypes="cccccccccccccc" />
    <path
       style="fill:#003f00;fill-opacity:1.0000000;fill-rule:evenodd;stroke:#003000;stroke-width:1.0000000pt;stroke-linecap:butt;stroke-linejoin:round;stroke-opacity:1.0000000"
       d="M 337.22700,348.54800 C 336.03500,349.62100 335.02200,350.69300 333.47200,351.40800 C 332.93600,354.44800 333.11400,362.13700 335.43900,373.76000 C 335.97500,376.44200 333.47200,374.29500 331.68400,373.22300 C 331.02800,377.21600 330.01500,382.28200 329.35900,386.27500 C 328.34600,385.56000 327.69000,384.30900 326.67700,383.59400 C 326.67700,383.59400 325.24700,385.02400 325.42600,384.66700 C 325.60500,384.30900 325.06800,377.51400 325.06800,377.51400 C 324.94900,382.16300 324.83000,386.81200 324.71100,391.46100 C 323.75700,391.46100 322.80400,391.46100 321.85000,391.46100 C 321.85000,391.46100 321.85000,395.75300 321.49200,396.11000 C 321.13400,396.46800 317.73700,395.21600 317.73700,395.21600 C 317.79700,397.18300 317.85600,399.15000 317.91600,401.11700 C 317.91600,401.11700 314.16100,400.58000 313.98200,400.75900 C 313.80300,400.93800 310.94200,405.22900 310.94200,405.22900 C 311.30000,401.83200 311.65700,398.43400 312.01500,395.03700 C 312.01500,395.03700 309.69100,395.93100 309.51200,395.75300 C 309.33300,395.57400 309.51200,388.77900 309.51200,388.77900 C 313.86300,380.19600 318.92900,373.04400 322.92300,363.92500 C 323.10100,361.54100 323.99500,358.79900 324.17400,356.41500 C 323.10100,351.94500 327.92900,346.58100 331.50500,347.47500 C 335.26000,346.93900 337.22700,348.72700 337.22700,348.54800 z "
       id="path740"
       sodipodi:nodetypes="cccccccccccccccccccccc" />
    <path
       style="fill:none;fill-opacity:1.0000000;fill-rule:evenodd;stroke:#000000;stroke-width:1.0000000pt;stroke-linecap:butt;stroke-linejoin:miter;stroke-opacity:1.0000000"
       d="M 309.69300,389.13700 C 308.14300,394.26300 304.98400,397.60000 301.82500,400.75900"
       id="path741"
       sodipodi:nodetypes="cc" />
    <path
       style="fill:none;fill-opacity:1.0000000;fill-rule:evenodd;stroke:#000000;stroke-width:1.2500000;stroke-linecap:butt;stroke-linejoin:round;stroke-dasharray:none;stroke-opacity:1.0000000"
       d="M 298.07000,363.38900 C 303.97100,360.17000 308.97800,355.70100 313.09000,350.51500 C 315.71200,349.02500 316.18900,344.67300 316.66600,339.60700 C 319.11000,338.59400 321.55300,334.00500 322.38800,334.42200 C 324.11700,335.85200 324.41500,339.78600 325.42800,342.46800 C 325.84500,340.38200 325.18900,336.86600 326.67900,336.21000 C 328.11000,337.40200 328.11000,340.91900 328.82500,343.00500 C 329.71900,341.15700 329.89800,338.95200 331.68600,338.17700 C 333.29500,339.25000 332.93700,343.89900 332.93700,343.72000 C 332.93700,343.54100 334.72600,339.25000 336.51400,339.25000 C 337.82500,342.17000 338.77900,345.27000 338.30200,348.01100"
       id="path742"
       sodipodi:nodetypes="ccccccccccc" />
    <path
       style="fill:none;fill-opacity:1.0000000;fill-rule:evenodd;stroke:#000000;stroke-width:1.0000000pt;stroke-linecap:butt;stroke-linejoin:miter;stroke-opacity:1.0000000"
       d="M 296.81900,373.22300 C 299.50100,370.00400 299.32200,365.17700 298.60700,362.49500 C 295.62700,360.70700 292.46800,360.70600 289.13000,360.88500"
       id="path743"
       sodipodi:nodetypes="ccc" />
    <path
       style="fill:#6b0000;fill-opacity:1.0000000;fill-rule:evenodd;stroke:#000000;stroke-width:1.0000000pt;stroke-linecap:butt;stroke-linejoin:miter;stroke-opacity:1.0000000"
       d="M 283.94400,364.28300 C 283.94400,364.28300 281.08400,366.96500 281.97800,368.39500 C 282.87200,369.82600 293.06400,371.79300 295.74600,370.54100 C 298.42800,369.28900 298.60700,363.74600 296.64000,363.74600 C 294.67300,363.74600 283.94400,364.64000 283.94400,364.28300 z "
       id="path744" />
    <path
       style="fill:none;fill-opacity:1.0000000;fill-rule:evenodd;stroke:#000000;stroke-width:1.2500000;stroke-linecap:round;stroke-linejoin:miter;stroke-dasharray:none;stroke-opacity:1.0000000"
       d="M 288.77200,367.14400 L 297.17600,367.68000"
       id="path745"
       sodipodi:nodetypes="cc" />
    <path
       style="fill:none;fill-opacity:1.0000000;fill-rule:evenodd;stroke:#000000;stroke-width:1.0000000pt;stroke-linecap:butt;stroke-linejoin:round;stroke-opacity:1.0000000"
       d="M 283.94500,363.21000 C 287.28300,360.64700 290.26200,359.15700 294.13600,358.02400 C 300.39400,357.90500 299.14300,336.50800 294.67300,338.35500 C 292.46800,338.23600 292.40800,339.90500 291.27600,340.68000 C 288.71300,338.11800 286.15000,336.98500 283.58700,336.21000"
       id="path746"
       sodipodi:nodetypes="ccccc" />
    <path
       style="fill:none;fill-opacity:1.0000000;fill-rule:evenodd;stroke:#000000;stroke-width:1.0000000pt;stroke-linecap:butt;stroke-linejoin:miter;stroke-opacity:1.0000000"
       d="M 289.91700,354.46800 C 291.28100,354.54500 291.46000,344.02800 289.44400,344.02800 C 286.21800,346.44700 288.85300,354.65300 289.91700,354.46800 z "
       id="path747"
       sodipodi:nodetypes="ccc" />
    <path
       style="fill:#003f00;fill-opacity:1.0000000;fill-rule:evenodd;stroke:#003000;stroke-width:1.0000000pt;stroke-linecap:butt;stroke-linejoin:miter;stroke-opacity:1.0000000"
       d="M 285.07100,352.65300 C 285.23500,354.12900 283.61700,357.11300 281.45000,357.35400 C 281.18100,358.83300 280.91200,360.31100 280.64300,361.79000 C 278.89600,361.65500 277.14800,361.52100 275.40100,361.38600 C 274.32600,359.50400 274.07400,357.76000 272.99900,355.87800 C 273.40200,354.40000 272.98200,352.78400 273.38500,351.30600 C 274.99800,351.03700 276.74800,351.59100 278.36100,351.32200 C 280.64400,350.48500 284.29700,350.47200 285.07100,352.65300 z "
       id="path748"
       sodipodi:nodetypes="cccccccc" />
    <path
       style="fill:#003f00;fill-opacity:1.0000000;fill-rule:evenodd;stroke:#003000;stroke-width:1.0000000pt;stroke-linecap:butt;stroke-linejoin:miter;stroke-opacity:1.0000000"
       d="M 279.43400,345.66100 C 277.68900,346.75000 275.67000,347.15300 273.78800,346.87000 C 274.19900,344.85400 274.19900,342.83800 273.78800,340.82200 C 275.39800,340.14500 277.28300,340.01500 279.03000,339.61200 C 280.64300,339.74700 282.25600,339.88100 283.86900,340.01600 C 285.09300,340.81700 285.49300,341.61700 285.48200,343.24100 C 284.01500,345.00800 281.86100,345.54000 279.43400,345.66100 z "
       id="path749"
       sodipodi:nodetypes="ccccccc" />
    <path
       style="fill:#000000;fill-opacity:1.0000000;fill-rule:evenodd;stroke:none;stroke-width:1.2500000;stroke-linecap:butt;stroke-linejoin:miter;stroke-dasharray:none;stroke-opacity:1.0000000"
       d="M 246.23300,380.64900 C 246.23300,380.64900 248.92900,385.65600 245.20600,387.83800 C 241.48300,390.02100 239.30100,383.08800 239.30100,383.08800 C 239.30100,383.08800 242.76700,384.11600 244.56500,382.83100 C 246.23400,380.64900 246.36200,380.90600 246.23300,380.64900 z "
       id="path750"
       sodipodi:nodetypes="ccccc" />
    <path
       style="fill:#000000;fill-opacity:1.0000000;fill-rule:evenodd;stroke:none;stroke-width:1.0000000pt;stroke-linecap:butt;stroke-linejoin:miter;stroke-opacity:1.0000000"
       d="M 225.94900,383.47300 C 225.94900,383.47300 226.46300,386.94000 227.61800,387.96700 C 228.77400,388.99400 234.29400,389.25100 235.45000,388.35200 C 236.60500,387.45300 237.76000,383.47300 236.34800,383.34500 C 234.93600,383.21700 225.94900,383.47300 225.94900,383.47300 z "
       id="path751" />
    <path
       style="fill:#000000;fill-opacity:1.0000000;fill-rule:evenodd;stroke:none;stroke-width:1.0000000pt;stroke-linecap:butt;stroke-linejoin:miter;stroke-opacity:1.0000000"
       d="M 221.07100,383.60200 C 221.07100,383.60200 223.76700,388.35200 220.81400,390.27800 C 217.86100,392.20300 214.39500,388.60900 214.39500,388.60900 L 207.07700,388.48000 L 217.22000,383.47300 L 221.07100,383.60200 z "
       id="path752" />
    <path
       style="fill:#000000;fill-opacity:1.0000000;fill-rule:evenodd;stroke:none;stroke-width:1.0000000pt;stroke-linecap:butt;stroke-linejoin:miter;stroke-opacity:1.0000000"
       d="M 212.59800,422.88600 C 212.59800,422.75800 211.18600,416.46700 213.75300,416.21000 C 216.32100,415.95400 221.58400,413.64300 222.09800,417.10900 C 222.61100,420.57500 221.58400,422.37300 221.58400,422.37300 L 212.59800,422.88600 z "
       id="path753" />
    <path
       style="fill:#000000;fill-opacity:1.0000000;fill-rule:evenodd;stroke:none;stroke-width:1.0000000pt;stroke-linecap:butt;stroke-linejoin:miter;stroke-opacity:1.0000000"
       d="M 201.42900,423.27100 C 201.42900,423.27100 202.71300,419.03500 201.55700,417.36600 C 200.40200,415.69700 193.85400,416.46700 193.34100,418.13600 C 192.82700,419.80500 191.80000,423.01500 192.18500,425.58200 C 192.57000,428.15000 193.46900,427.63600 193.46900,427.63600 L 195.13800,422.88600 L 201.42900,423.27100 z "
       id="path754" />
    <path
       style="fill:#000000;fill-opacity:1.0000000;fill-rule:evenodd;stroke:none;stroke-width:1.0000000pt;stroke-linecap:butt;stroke-linejoin:miter;stroke-opacity:1.0000000"
       d="M 190.13100,428.79200 C 190.13100,428.79200 191.15800,422.88600 186.79300,422.88600 C 182.42800,422.88600 183.84100,429.17700 183.84100,429.17700 C 183.84100,429.17700 185.25300,432.00100 186.92200,431.23100 C 188.59100,430.46100 190.26000,429.17700 190.13100,428.79200 z "
       id="path755" />
    <path
       style="fill:none;fill-opacity:1.0000000;fill-rule:evenodd;stroke:#000000;stroke-width:1.2500000;stroke-linecap:round;stroke-linejoin:miter;stroke-dasharray:none;stroke-opacity:1.0000000"
       d="M 180.88800,432.38600 L 181.40100,439.70400"
       id="path756" />
    <path
       style="fill:none;fill-opacity:1.0000000;fill-rule:evenodd;stroke:#000000;stroke-width:1.2500000;stroke-linecap:round;stroke-linejoin:miter;stroke-dasharray:none;stroke-opacity:1.0000000"
       d="M 177.03600,432.64300 L 178.83300,440.34600"
       id="path757"
       sodipodi:nodetypes="cc" />
    <path
       style="fill:none;fill-opacity:1.0000000;fill-rule:evenodd;stroke:#000000;stroke-width:1.2500000;stroke-linecap:round;stroke-linejoin:miter;stroke-dasharray:none;stroke-opacity:1.0000000"
       d="M 175.11100,432.13000 C 175.11100,432.13000 173.18500,437.13600 174.34000,440.47400"
       id="path758" />
    <path
       style="fill:#000000;fill-opacity:1.0000000;fill-rule:evenodd;stroke:none;stroke-width:1.0000000pt;stroke-linecap:butt;stroke-linejoin:miter;stroke-opacity:1.0000000"
       d="M 316.17600,413.56800 C 316.17600,413.56800 317.25700,418.80700 314.18000,421.55100 C 311.10400,424.29500 309.77300,419.22300 310.35500,417.89200 C 310.93700,416.56200 311.93500,414.98100 312.26800,414.98100 C 312.60000,414.98100 316.34300,413.56800 316.17600,413.56800 z "
       id="path759" />
    <path
       style="fill:#000000;fill-opacity:1.0000000;fill-rule:evenodd;stroke:none;stroke-width:1.0000000pt;stroke-linecap:butt;stroke-linejoin:miter;stroke-opacity:1.0000000"
       d="M 307.94300,416.06300 C 307.94300,416.06300 308.11000,426.20800 301.62300,422.54900 C 295.13700,418.89000 302.45500,414.73200 302.45500,414.73200 L 307.94300,416.06300 z "
       id="path760" />
    <path
       style="fill:#000000;fill-opacity:1.0000000;fill-rule:evenodd;stroke:none;stroke-width:1.0000000pt;stroke-linecap:butt;stroke-linejoin:miter;stroke-opacity:1.0000000"
       d="M 298.54600,410.99000 C 298.54600,410.99000 298.79600,417.14400 292.47600,416.22900 C 286.15500,415.31400 292.55900,404.83600 294.72100,406.33300 C 296.88300,407.83000 298.62900,411.23900 298.54600,410.99000 z "
       id="path761" />
    <path
       style="fill:#000000;fill-opacity:1.0000000;fill-rule:evenodd;stroke:none;stroke-width:1.0000000pt;stroke-linecap:butt;stroke-linejoin:miter;stroke-opacity:1.0000000"
       d="M 260.87500,432.86100 C 260.79100,432.77800 260.62500,428.78600 251.89300,430.20000 C 243.16100,431.61400 255.38600,437.93400 258.62900,436.93600 C 257.88000,433.27700 261.04100,433.19400 260.87500,432.86100 z "
       id="path762"
       sodipodi:nodetypes="cccc" />
    <path
       style="fill:none;fill-opacity:1.0000000;fill-rule:evenodd;stroke:#000000;stroke-width:1.2500000;stroke-linecap:round;stroke-linejoin:miter;stroke-dasharray:none;stroke-opacity:1.0000000"
       d="M 254.88700,440.26200 C 255.05300,440.42900 261.87200,445.83400 261.87200,445.83400"
       id="path763" />
    <path
       style="fill:none;fill-opacity:1.0000000;fill-rule:evenodd;stroke:#000000;stroke-width:1.2500000;stroke-linecap:round;stroke-linejoin:miter;stroke-dasharray:none;stroke-opacity:1.0000000"
       d="M 255.55200,443.75500 L 257.79800,446.08400"
       id="path764" />
    <path
       style="fill:none;fill-opacity:1.0000000;fill-rule:evenodd;stroke:#000000;stroke-width:1.2500000;stroke-linecap:round;stroke-linejoin:miter;stroke-dasharray:none;stroke-opacity:1.0000000"
       d="M 249.31500,442.50800 L 254.05500,446.66600"
       id="path765" />
    <path
       style="fill:#000000;fill-opacity:1.0000000;fill-rule:evenodd;stroke:none;stroke-width:1.0000000pt;stroke-linecap:butt;stroke-linejoin:miter;stroke-opacity:1.0000000"
       d="M 308.44200,355.93800 C 308.44200,355.93800 315.51100,359.59700 310.60500,364.66900 C 305.69800,369.74200 304.61700,358.59900 304.61700,358.59900 L 308.44200,355.93800 z "
       id="path766" />
    <path
       style="fill:#000000;fill-opacity:1.0000000;fill-rule:evenodd;stroke:none;stroke-width:1.0000000pt;stroke-linecap:butt;stroke-linejoin:miter;stroke-opacity:1.0000000"
       d="M 311.43600,352.77700 C 311.43600,352.77700 312.76700,358.93100 318.58800,355.77100 C 324.40900,352.61100 317.17400,347.95400 315.01200,348.70200 C 312.35100,350.28200 311.43600,352.94400 311.43600,352.77700 z "
       id="path767"
       sodipodi:nodetypes="cccc" />
    <path
       style="fill:#000000;fill-opacity:1.0000000;fill-rule:evenodd;stroke:none;stroke-width:1.0000000pt;stroke-linecap:butt;stroke-linejoin:miter;stroke-opacity:1.0000000"
       d="M 316.34300,345.21000 C 317.09100,346.20800 318.33800,350.61500 322.91200,347.45500 C 327.48600,344.29500 320.66700,337.06000 319.08700,338.22400 C 317.50700,339.38900 316.67500,339.30500 316.34300,345.21000 z "
       id="path768"
       sodipodi:nodetypes="cccc" />
  </g>
  <path
     sodipodi:type="arc"
     style="fill:#ffff00;fill-opacity:1.0000000;fill-rule:evenodd;stroke:#000000;stroke-width:1.0000000pt;stroke-linecap:butt;stroke-linejoin:miter;stroke-opacity:1.0000000"
     id="path769"
     d="M 342.67236 392.66254 A 1.9574890 1.9574740 0 1 1  338.75739,392.66254 A 1.9574890 1.9574740 0 1 1  342.67236 392.66254 z"
     sodipodi:cx="340.71487"
     sodipodi:cy="392.66254"
     sodipodi:rx="1.9574890"
     sodipodi:ry="1.9574740"
     transform="matrix(1.133523,0.000000,0.000000,1.007937,0.913671,-0.115984)" />
  <g
     id="g786"
     transform="matrix(1.133523,0.000000,0.000000,1.007937,0.000000,7.272116e-5)">
    <path
       style="fill:#6b0000;fill-opacity:1.0000000;fill-rule:evenodd;stroke:#000000;stroke-width:1.0000000pt;stroke-linecap:butt;stroke-linejoin:miter;stroke-opacity:1.0000000"
       d="M 344.86700,317.78600 C 344.86700,317.78600 368.05600,322.42400 373.06400,292.74200 C 369.53900,296.45200 363.78900,301.64600 363.78900,301.64600 C 363.78900,301.64600 368.79800,284.76500 363.97400,279.01400 C 361.19200,284.57900 359.52200,288.84600 359.33700,287.91900 C 359.15100,286.99100 356.92500,277.53000 355.62600,273.63400 C 354.32800,275.67500 353.40000,280.68400 353.21500,280.49800 C 353.02900,280.31300 348.76200,262.68900 347.09300,261.20500 C 345.42300,268.25500 343.75400,279.20000 343.75400,279.20000 C 343.01200,275.73700 342.26900,272.27400 341.52700,268.81100 C 340.10500,274.12900 338.68300,279.44700 337.26100,284.76500 C 336.64300,281.92000 335.65300,279.81800 335.40600,276.23100 C 335.40600,276.23100 331.32500,283.46600 330.02600,287.54800 C 329.65500,287.36200 327.24300,280.68400 327.24300,280.68400 C 325.75900,284.64100 325.38800,290.82500 326.31600,296.26600 C 323.34700,295.71000 321.12100,288.47500 320.93600,288.66100 C 320.75000,288.84600 310.91800,319.27000 344.86700,317.78600 z "
       id="path783"
       sodipodi:nodetypes="ccccccccccccccccc" />
    <path
       style="fill:#ff0000;fill-opacity:1.0000000;fill-rule:evenodd;stroke:none;stroke-width:1.0000000pt;stroke-linecap:butt;stroke-linejoin:miter;stroke-opacity:1.0000000"
       d="M 340.97100,317.22900 C 338.74500,315.74500 324.64600,311.29300 331.88100,302.38800 C 341.52800,298.30700 340.97100,317.41500 340.97100,317.22900 z "
       id="path780"
       sodipodi:nodetypes="ccc" />
    <path
       style="fill:#0000ff;fill-opacity:1.0000000;fill-rule:evenodd;stroke:none;stroke-width:1.0000000pt;stroke-linecap:butt;stroke-linejoin:miter;stroke-opacity:1.0000000"
       d="M 346.90700,317.41500 C 347.09300,317.22900 346.35100,300.16200 355.99700,303.68700 C 363.60300,310.18000 347.09300,317.78600 346.90700,317.41500 z "
       id="path782"
       sodipodi:nodetypes="ccc" />
    <path
       style="fill:#ffffff;fill-opacity:1.0000000;fill-rule:evenodd;stroke:none;stroke-width:1.0000000pt;stroke-linecap:butt;stroke-linejoin:miter;stroke-opacity:1.0000000"
       d="M 346.72100,317.04400 L 341.15600,316.85900 C 341.15600,316.85900 336.33300,294.41200 344.86600,294.96800 C 351.91600,297.93700 346.90700,317.41500 346.72100,317.04400 z "
       id="path781"
       sodipodi:nodetypes="cccc" />
    <path
       style="fill:#ffff00;fill-opacity:1.0000000;fill-rule:evenodd;stroke:#000000;stroke-width:1.0000000pt;stroke-linecap:butt;stroke-linejoin:miter;stroke-opacity:1.0000000"
       d="M 330.02600,325.02100 C 328.04700,327.80300 326.06800,330.58700 324.08900,333.37000 C 338.43500,342.45900 351.66900,340.97500 364.71600,337.63600 C 363.04600,333.86400 362.86200,331.94600 361.19200,328.17500 C 354.76100,330.27700 340.72400,330.89500 330.02600,325.02100 z "
       id="path784"
       sodipodi:nodetypes="ccccc" />
    <path
       style="fill:#000000;fill-opacity:1.0000000;fill-rule:evenodd;stroke:#000000;stroke-width:1.0000000pt;stroke-linecap:butt;stroke-linejoin:miter;stroke-opacity:1.0000000"
       d="M 329.84000,325.39200 L 334.29200,317.60100 C 334.29200,317.60100 350.80300,318.34300 353.77100,317.97200 C 355.25500,319.64200 360.07800,326.31900 360.63500,327.80300 C 358.78000,328.36000 343.75400,332.81200 329.84000,325.39200 z "
       id="path785"
       sodipodi:nodetypes="ccccc" />
  </g>
  <path
     sodipodi:type="arc"
     style="fill:#ffff00;fill-opacity:1.0000000;fill-rule:evenodd;stroke:#000000;stroke-width:1.0000000pt;stroke-linecap:butt;stroke-linejoin:miter;stroke-opacity:1.0000000"
     id="path771"
     d="M 342.67236 392.66254 A 1.9574890 1.9574740 0 1 1  338.75739,392.66254 A 1.9574890 1.9574740 0 1 1  342.67236 392.66254 z"
     sodipodi:cx="340.71487"
     sodipodi:cy="392.66254"
     sodipodi:rx="1.9574890"
     sodipodi:ry="1.9574740"
     transform="matrix(1.133523,0.000000,0.000000,1.007937,6.526024,-0.232025)" />
  <path
     sodipodi:type="arc"
     style="fill:#ffff00;fill-opacity:1.0000000;fill-rule:evenodd;stroke:#000000;stroke-width:1.0000000pt;stroke-linecap:butt;stroke-linejoin:miter;stroke-opacity:1.0000000"
     id="path772"
     d="M 342.67236 392.66254 A 1.9574890 1.9574740 0 1 1  338.75739,392.66254 A 1.9574890 1.9574740 0 1 1  342.67236 392.66254 z"
     sodipodi:cx="340.71487"
     sodipodi:cy="392.66254"
     sodipodi:rx="1.9574890"
     sodipodi:ry="1.9574740"
     transform="matrix(1.133523,0.000000,0.000000,1.007937,3.785054,-4.526244)" />
  <g
     id="g776"
     transform="matrix(-1.133523,1.234325e-16,-1.388119e-16,-1.007937,775.9402,879.1827)">
    <path
       sodipodi:type="arc"
       style="fill:#ffff00;fill-opacity:1.0000000;fill-rule:evenodd;stroke:#000000;stroke-width:1.0000000pt;stroke-linecap:butt;stroke-linejoin:miter;stroke-opacity:1.0000000"
       id="path773"
       d="M 342.67236 392.66254 A 1.9574890 1.9574740 0 1 1  338.75739,392.66254 A 1.9574890 1.9574740 0 1 1  342.67236 392.66254 z"
       sodipodi:cx="340.71487"
       sodipodi:cy="392.66254"
       sodipodi:rx="1.9574890"
       sodipodi:ry="1.9574740"
       transform="matrix(-1.000000,1.224606e-16,-1.224606e-16,-1.000000,680.1631,831.6135)" />
    <path
       sodipodi:type="arc"
       style="fill:#ffff00;fill-opacity:1.0000000;fill-rule:evenodd;stroke:#000000;stroke-width:1.0000000pt;stroke-linecap:butt;stroke-linejoin:miter;stroke-opacity:1.0000000"
       id="path774"
       d="M 342.67236 392.66254 A 1.9574890 1.9574740 0 1 1  338.75739,392.66254 A 1.9574890 1.9574740 0 1 1  342.67236 392.66254 z"
       sodipodi:cx="340.71487"
       sodipodi:cy="392.66254"
       sodipodi:rx="1.9574890"
       sodipodi:ry="1.9574740"
       transform="matrix(-1.000000,1.224606e-16,-1.224606e-16,-1.000000,685.1144,831.4983)" />
    <path
       sodipodi:type="arc"
       style="fill:#ffff00;fill-opacity:1.0000000;fill-rule:evenodd;stroke:#000000;stroke-width:1.0000000pt;stroke-linecap:butt;stroke-linejoin:miter;stroke-opacity:1.0000000"
       id="path775"
       d="M 342.67236 392.66254 A 1.9574890 1.9574740 0 1 1  338.75739,392.66254 A 1.9574890 1.9574740 0 1 1  342.67236 392.66254 z"
       sodipodi:cx="340.71487"
       sodipodi:cy="392.66254"
       sodipodi:rx="1.9574890"
       sodipodi:ry="1.9574740"
       transform="matrix(-1.000000,1.224606e-16,-1.224606e-16,-1.000000,682.6964,827.2380)" />
  </g>
  <path
     sodipodi:type="arc"
     style="fill:#ffffff;fill-opacity:1.0000000;fill-rule:evenodd;stroke:none;stroke-width:1.0000000pt;stroke-linecap:butt;stroke-linejoin:miter;stroke-opacity:1.0000000"
     id="path795"
     d="M 347.57526 327.93027 A 1.0097960 2.3225400 0 1 1  345.55566,327.93027 A 1.0097960 2.3225400 0 1 1  347.57526 327.93027 z"
     sodipodi:cx="346.56546"
     sodipodi:cy="327.93027"
     sodipodi:rx="1.0097960"
     sodipodi:ry="2.3225400"
     transform="matrix(1.133523,0.000000,0.000000,1.007937,-1.602492,5.672116e-5)" />
  <path
     sodipodi:type="arc"
     style="fill:#ffffff;fill-opacity:1.0000000;fill-rule:evenodd;stroke:none;stroke-width:1.0000000pt;stroke-linecap:butt;stroke-linejoin:miter;stroke-opacity:1.0000000"
     id="path796"
     d="M 347.57526 327.93027 A 1.0097960 2.3225400 0 1 1  345.55566,327.93027 A 1.0097960 2.3225400 0 1 1  347.57526 327.93027 z"
     sodipodi:cx="346.56546"
     sodipodi:cy="327.93027"
     sodipodi:rx="1.0097960"
     sodipodi:ry="2.3225400"
     transform="matrix(1.133523,0.000000,0.000000,1.007937,0.228912,0.203611)" />
  <path
     sodipodi:type="arc"
     style="fill:#ffffff;fill-opacity:1.0000000;fill-rule:evenodd;stroke:none;stroke-width:1.0000000pt;stroke-linecap:butt;stroke-linejoin:miter;stroke-opacity:1.0000000"
     id="path797"
     d="M 347.57526 327.93027 A 1.0097960 2.3225400 0 1 1  345.55566,327.93027 A 1.0097960 2.3225400 0 1 1  347.57526 327.93027 z"
     sodipodi:cx="346.56546"
     sodipodi:cy="327.93027"
     sodipodi:rx="1.0097960"
     sodipodi:ry="2.3225400"
     transform="matrix(1.133523,0.000000,0.000000,1.007937,-3.662854,0.203611)" />
  <path
     sodipodi:type="arc"
     style="fill:#000000;fill-opacity:1.0000000;fill-rule:evenodd;stroke:none;stroke-width:1.0000000pt;stroke-linecap:butt;stroke-linejoin:miter;stroke-opacity:1.0000000"
     id="path798"
     d="M 299.88782 347.81747 A 1.6175230 1.8601381 0 1 1  296.65277,347.81747 A 1.6175230 1.8601381 0 1 1  299.88782 347.81747 z"
     sodipodi:cx="298.27029"
     sodipodi:cy="347.81747"
     sodipodi:rx="1.6175230"
     sodipodi:ry="1.8601381"
     transform="matrix(1.133523,0.000000,0.000000,1.007937,0.000000,7.272116e-5)" />
  <path
     sodipodi:type="arc"
     style="fill:#000000;fill-opacity:1.0000000;fill-rule:evenodd;stroke:none;stroke-width:1.0000000pt;stroke-linecap:butt;stroke-linejoin:miter;stroke-opacity:1.0000000"
     id="path799"
     d="M 299.88782 347.81747 A 1.6175230 1.8601381 0 1 1  296.65277,347.81747 A 1.6175230 1.8601381 0 1 1  299.88782 347.81747 z"
     sodipodi:cx="298.27029"
     sodipodi:cy="347.81747"
     sodipodi:rx="1.6175230"
     sodipodi:ry="1.8601381"
     transform="matrix(1.133523,0.000000,0.000000,1.007937,102.6756,-0.815153)" />
  <path
     style="font-size:12.000000px;fill:none;fill-rule:evenodd;stroke:#000000;stroke-width:1.2303208;stroke-linecap:round"
     d="M 334.36320,349.70465 C 334.36320,349.70465 333.68422,351.37581 334.77014,352.39584"
     id="path800" />
  <path
     style="font-size:12.000000px;fill:none;fill-rule:evenodd;stroke:#000000;stroke-width:1.2303208;stroke-linecap:round"
     d="M 331.81164,349.14726 C 331.81164,349.14726 331.15987,351.65400 332.46342,353.23041"
     id="path801" />
  <path
     style="font-size:12.000000px;fill:none;fill-rule:evenodd;stroke:#000000;stroke-width:1.2303208;stroke-linecap:round"
     d="M 444.38067,349.10291 C 444.38067,349.10291 445.05965,350.77407 443.97374,351.79410"
     id="path802" />
  <path
     style="font-size:12.000000px;fill:none;fill-rule:evenodd;stroke:#000000;stroke-width:1.2303208;stroke-linecap:round"
     d="M 446.93223,348.54552 C 446.93223,348.54552 447.58401,351.05226 446.28046,352.62867"
     id="path803" />
  <g
     id="g751"
     style="fill:none;stroke:#002800;stroke-width:1.0000000;stroke-linecap:round;stroke-dasharray:none;stroke-opacity:1.0000000"
     transform="matrix(1.133523,0.000000,0.000000,1.007937,0.000000,7.272116e-5)">
    <path
       style="fill:none;fill-opacity:1.0000000;fill-rule:evenodd;stroke:#002800;stroke-width:1.0000000;stroke-linecap:round;stroke-linejoin:miter;stroke-dasharray:none;stroke-opacity:1.0000000"
       d="M 326.41900,356.73600 C 326.41900,356.73600 330.98700,366.17100 331.28500,371.43400"
       id="path711" />
    <path
       style="fill:none;fill-opacity:1.0000000;fill-rule:evenodd;stroke:#002800;stroke-width:1.0000000;stroke-linecap:round;stroke-linejoin:miter;stroke-dasharray:none;stroke-opacity:1.0000000"
       d="M 325.02900,364.97900 C 325.02900,364.97900 328.20700,373.61800 328.20700,378.58400"
       id="path712" />
    <path
       style="fill:none;fill-opacity:1.0000000;fill-rule:evenodd;stroke:#002800;stroke-width:1.0000000;stroke-linecap:round;stroke-linejoin:miter;stroke-dasharray:none;stroke-opacity:1.0000000"
       d="M 322.24900,369.24900 C 322.24900,369.24900 324.63200,373.02300 324.53300,375.10800"
       id="path713" />
    <path
       style="fill:none;fill-opacity:1.0000000;fill-rule:evenodd;stroke:#002800;stroke-width:1.0000000;stroke-linecap:round;stroke-linejoin:miter;stroke-dasharray:none;stroke-opacity:1.0000000"
       d="M 319.07100,375.70400 C 319.07100,375.70400 321.95100,384.44300 321.55300,388.61400"
       id="path714" />
    <path
       style="fill:none;fill-opacity:1.0000000;fill-rule:evenodd;stroke:#002800;stroke-width:1.0000000;stroke-linecap:round;stroke-linejoin:miter;stroke-dasharray:none;stroke-opacity:1.0000000"
       d="M 315.69400,381.56300 C 315.69400,381.56300 317.97800,388.61400 316.88600,392.78500"
       id="path715" />
    <path
       style="fill:none;fill-opacity:1.0000000;fill-rule:evenodd;stroke:#002800;stroke-width:1.0000000;stroke-linecap:round;stroke-linejoin:miter;stroke-dasharray:none;stroke-opacity:1.0000000"
       d="M 313.01300,386.03200 C 313.01300,386.03200 313.01300,391.29500 312.31800,392.68500"
       id="path716" />
    <g
       id="g717"
       style="fill:none;fill-opacity:1.0000000;stroke:#002800;stroke-width:1.0000000;stroke-linecap:round;stroke-dasharray:none;stroke-opacity:1.0000000">
      <path
         style="fill:none;fill-opacity:1.0000000;fill-rule:evenodd;stroke:#002800;stroke-width:1.0000000;stroke-linecap:round;stroke-linejoin:miter;stroke-dasharray:none;stroke-opacity:1.0000000"
         d="M 240.01700,355.53900 C 240.01700,355.53900 256.84000,343.58800 265.30100,344.97900"
         id="path804"
         sodipodi:nodetypes="cc" />
      <path
         style="fill:none;fill-opacity:1.0000000;fill-rule:evenodd;stroke:#002800;stroke-width:1.0000000;stroke-linecap:round;stroke-linejoin:miter;stroke-dasharray:none;stroke-opacity:1.0000000"
         d="M 247.28700,343.58800 C 247.28700,343.58800 259.13100,340.49900 263.91100,341.29600"
         id="path805"
         sodipodi:nodetypes="cc" />
      <path
         style="fill:none;fill-opacity:1.0000000;fill-rule:evenodd;stroke:#002800;stroke-width:1.0000000;stroke-linecap:round;stroke-linejoin:miter;stroke-dasharray:none;stroke-opacity:1.0000000"
         d="M 246.49000,364.30300 C 246.68900,364.00400 256.74600,352.84800 262.52200,352.74900"
         id="path806"
         sodipodi:nodetypes="cc" />
      <path
         style="fill:none;fill-opacity:1.0000000;fill-rule:evenodd;stroke:#002800;stroke-width:1.0000000;stroke-linecap:round;stroke-linejoin:miter;stroke-dasharray:none;stroke-opacity:1.0000000"
         d="M 254.85600,370.67700 C 254.85600,370.67700 257.64500,362.70900 263.52000,360.81700"
         id="path807" />
      <path
         style="fill:none;fill-opacity:1.0000000;fill-rule:evenodd;stroke:#002800;stroke-width:1.0000000;stroke-linecap:round;stroke-linejoin:miter;stroke-dasharray:none;stroke-opacity:1.0000000"
         d="M 260.83100,376.05500 C 260.83100,376.05500 266.60500,370.87800 267.80000,369.18500"
         id="path808"
         sodipodi:nodetypes="cc" />
      <path
         style="fill:none;fill-opacity:1.0000000;fill-rule:evenodd;stroke:#002800;stroke-width:1.0000000;stroke-linecap:round;stroke-linejoin:miter;stroke-dasharray:none;stroke-opacity:1.0000000"
         d="M 273.18100,374.56100 L 274.47600,372.17100"
         id="path809" />
      <path
         style="fill:none;fill-opacity:1.0000000;fill-rule:evenodd;stroke:#002800;stroke-width:1.0000000;stroke-linecap:round;stroke-linejoin:miter;stroke-dasharray:none;stroke-opacity:1.0000000"
         d="M 279.95300,375.95500 C 279.95300,375.95500 274.47600,381.23300 274.47600,382.52800"
         id="path810" />
      <path
         style="fill:none;fill-opacity:1.0000000;fill-rule:evenodd;stroke:#002800;stroke-width:1.0000000;stroke-linecap:round;stroke-linejoin:miter;stroke-dasharray:none;stroke-opacity:1.0000000"
         d="M 288.71700,378.04600 C 288.71700,377.94700 288.91600,376.35300 288.91600,376.35300"
         id="path811" />
    </g>
    <g
       id="g729"
       style="fill:none;stroke:#002800;stroke-width:1.0000000;stroke-linecap:round;stroke-dasharray:none;stroke-opacity:1.0000000">
      <path
         style="fill:none;fill-opacity:1.0000000;fill-rule:evenodd;stroke:#002800;stroke-width:1.0000000;stroke-linecap:round;stroke-linejoin:miter;stroke-dasharray:none;stroke-opacity:1.0000000"
         d="M 167.31500,390.19700 C 167.31500,390.19700 196.30700,381.99500 202.68100,387.87100"
         id="path814"
         sodipodi:nodetypes="cc" />
      <path
         style="fill:none;fill-opacity:1.0000000;fill-rule:evenodd;stroke:#002800;stroke-width:1.0000000;stroke-linecap:round;stroke-linejoin:miter;stroke-dasharray:none;stroke-opacity:1.0000000"
         d="M 178.46900,377.25000 C 178.46900,377.25000 205.01300,376.44200 207.10400,384.50900"
         id="path815"
         sodipodi:nodetypes="cc" />
      <path
         style="fill:none;fill-opacity:1.0000000;fill-rule:evenodd;stroke:#002800;stroke-width:1.0000000;stroke-linecap:round;stroke-linejoin:miter;stroke-dasharray:none;stroke-opacity:1.0000000"
         d="M 197.29200,366.39400 C 197.49100,366.39400 214.90800,371.21500 212.11900,382.76800"
         id="path816"
         sodipodi:nodetypes="cc" />
      <path
         style="fill:none;fill-opacity:1.0000000;fill-rule:evenodd;stroke:#002800;stroke-width:1.0000000;stroke-linecap:round;stroke-linejoin:miter;stroke-dasharray:none;stroke-opacity:1.0000000"
         d="M 209.24300,363.70500 C 209.24300,363.80500 219.41900,372.63900 214.24000,381.90100"
         id="path817"
         sodipodi:nodetypes="cc" />
      <path
         style="fill:none;fill-opacity:1.0000000;fill-rule:evenodd;stroke:#002800;stroke-width:1.0000000;stroke-linecap:round;stroke-linejoin:miter;stroke-dasharray:none;stroke-opacity:1.0000000"
         d="M 189.42400,402.44700 C 189.42400,402.44700 189.32400,405.43400 190.12100,409.61700"
         id="path818" />
      <path
         style="fill:none;fill-opacity:1.0000000;fill-rule:evenodd;stroke:#002800;stroke-width:1.0000000;stroke-linecap:round;stroke-linejoin:miter;stroke-dasharray:none;stroke-opacity:1.0000000"
         d="M 183.64800,411.21100 C 184.24500,416.38900 184.64400,417.58400 184.64400,417.58400"
         id="path819" />
      <path
         style="fill:none;fill-opacity:1.0000000;fill-rule:evenodd;stroke:#002800;stroke-width:1.0000000;stroke-linecap:round;stroke-linejoin:miter;stroke-dasharray:none;stroke-opacity:1.0000000"
         d="M 178.27000,416.29000 C 178.27000,416.29000 177.17400,418.18200 178.46900,421.66800"
         id="path820" />
      <path
         style="fill:none;fill-opacity:1.0000000;fill-rule:evenodd;stroke:#002800;stroke-width:1.0000000;stroke-linecap:round;stroke-linejoin:miter;stroke-dasharray:none;stroke-opacity:1.0000000"
         d="M 232.74700,428.73900 C 241.21200,430.63100 241.80900,430.03300 241.80900,430.03300"
         id="path821" />
      <path
         style="fill:none;fill-opacity:1.0000000;fill-rule:evenodd;stroke:#002800;stroke-width:1.0000000;stroke-linecap:round;stroke-linejoin:miter;stroke-dasharray:none;stroke-opacity:1.0000000"
         d="M 229.06200,433.32000 C 229.46000,433.42000 239.32000,434.11700 241.80900,433.81800"
         id="path822" />
      <path
         style="fill:none;fill-opacity:1.0000000;fill-rule:evenodd;stroke:#002800;stroke-width:1.0000000;stroke-linecap:round;stroke-linejoin:miter;stroke-dasharray:none;stroke-opacity:1.0000000"
         d="M 232.74700,437.10500 C 232.74700,437.10500 241.80900,439.59400 243.90100,438.49900"
         id="path823" />
      <path
         style="fill:none;fill-opacity:1.0000000;fill-rule:evenodd;stroke:#002800;stroke-width:1.0000000;stroke-linecap:round;stroke-linejoin:miter;stroke-dasharray:none;stroke-opacity:1.0000000"
         d="M 301.96300,428.24100 C 301.96300,428.24100 301.86300,431.52700 299.87200,433.22000"
         id="path824" />
      <path
         style="fill:none;fill-opacity:1.0000000;fill-rule:evenodd;stroke:#002800;stroke-width:1.0000000;stroke-linecap:round;stroke-linejoin:miter;stroke-dasharray:none;stroke-opacity:1.0000000"
         d="M 309.13400,428.04200 C 309.13400,428.04200 308.83500,431.52700 305.34900,434.41600"
         id="path825" />
      <path
         style="fill:none;fill-opacity:1.0000000;fill-rule:evenodd;stroke:#002800;stroke-width:1.0000000;stroke-linecap:round;stroke-linejoin:miter;stroke-dasharray:none;stroke-opacity:1.0000000"
         d="M 286.52600,435.81000 C 286.52600,435.81000 289.91200,433.61900 293.69700,429.43600"
         id="path826" />
      <path
         style="fill:none;fill-opacity:1.0000000;fill-rule:evenodd;stroke:#002800;stroke-width:1.0000000;stroke-linecap:round;stroke-linejoin:miter;stroke-dasharray:none;stroke-opacity:1.0000000"
         d="M 284.49600,428.46600 C 284.49600,428.46600 283.94300,430.95600 279.70100,433.53800"
         id="path705" />
      <path
         style="fill:none;fill-opacity:1.0000000;fill-rule:evenodd;stroke:#002800;stroke-width:1.0000000;stroke-linecap:round;stroke-linejoin:miter;stroke-dasharray:none;stroke-opacity:1.0000000"
         d="M 277.11900,426.99100 C 277.11900,426.99100 277.58000,429.29600 274.90500,431.51000"
         id="path706" />
      <path
         style="fill:none;fill-opacity:1.0000000;fill-rule:evenodd;stroke:#002800;stroke-width:1.0000000;stroke-linecap:round;stroke-linejoin:miter;stroke-dasharray:none;stroke-opacity:1.0000000"
         d="M 180.04300,409.55400 C 180.04300,409.55400 179.92600,413.18200 180.86200,419.09400"
         id="path707" />
      <path
         style="fill:none;fill-opacity:1.0000000;fill-rule:evenodd;stroke:#002800;stroke-width:1.0000000;stroke-linecap:round;stroke-linejoin:miter;stroke-dasharray:none;stroke-opacity:1.0000000"
         d="M 185.77900,405.16400 C 185.77900,405.16400 184.90100,409.49500 186.89100,412.94800"
         id="path708" />
      <path
         style="fill:none;fill-opacity:1.0000000;fill-rule:evenodd;stroke:#002800;stroke-width:1.0000000;stroke-linecap:round;stroke-linejoin:miter;stroke-dasharray:none;stroke-opacity:1.0000000"
         d="M 162.60000,386.14100 C 162.60000,386.14100 196.13900,379.99500 204.68500,385.96500"
         id="path709"
         sodipodi:nodetypes="cc" />
      <path
         style="fill:none;fill-opacity:1.0000000;fill-rule:evenodd;stroke:#002800;stroke-width:1.0000000;stroke-linecap:round;stroke-linejoin:miter;stroke-dasharray:none;stroke-opacity:1.0000000"
         d="M 187.06700,370.10300 C 187.06700,370.10300 208.37200,377.18500 209.77700,383.03800"
         id="path710"
         sodipodi:nodetypes="cc" />
      <path
         style="fill:none;fill-opacity:1.0000000;fill-rule:evenodd;stroke:#002800;stroke-width:1.0000000;stroke-linecap:round;stroke-linejoin:miter;stroke-dasharray:none;stroke-opacity:1.0000000"
         d="M 278.01300,352.48600 L 279.79700,357.16800"
         id="path726" />
      <path
         style="fill:none;fill-opacity:1.0000000;fill-rule:evenodd;stroke:#002800;stroke-width:1.0000000;stroke-linecap:round;stroke-linejoin:miter;stroke-dasharray:none;stroke-opacity:1.0000000"
         d="M 278.68200,341.33900 L 278.68200,344.46000"
         id="path727" />
    </g>
  </g>
  <g
     id="g789"
     style="fill:none;stroke:#002800;stroke-width:1.0000000;stroke-linecap:round;stroke-dasharray:none;stroke-opacity:1.0000000"
     transform="matrix(-1.133523,0.000000,0.000000,1.007937,778.0113,0.446075)">
    <path
       style="fill:none;fill-opacity:1.0000000;fill-rule:evenodd;stroke:#002800;stroke-width:1.0000000;stroke-linecap:round;stroke-linejoin:miter;stroke-dasharray:none;stroke-opacity:1.0000000"
       d="M 326.41900,356.73600 C 326.41900,356.73600 330.98700,366.17100 331.28500,371.43400"
       id="path790" />
    <path
       style="fill:none;fill-opacity:1.0000000;fill-rule:evenodd;stroke:#002800;stroke-width:1.0000000;stroke-linecap:round;stroke-linejoin:miter;stroke-dasharray:none;stroke-opacity:1.0000000"
       d="M 325.02900,364.97900 C 325.02900,364.97900 328.20700,373.61800 328.20700,378.58400"
       id="path791" />
    <path
       style="fill:none;fill-opacity:1.0000000;fill-rule:evenodd;stroke:#002800;stroke-width:1.0000000;stroke-linecap:round;stroke-linejoin:miter;stroke-dasharray:none;stroke-opacity:1.0000000"
       d="M 322.24900,369.24900 C 322.24900,369.24900 324.63200,373.02300 324.53300,375.10800"
       id="path792" />
    <path
       style="fill:none;fill-opacity:1.0000000;fill-rule:evenodd;stroke:#002800;stroke-width:1.0000000;stroke-linecap:round;stroke-linejoin:miter;stroke-dasharray:none;stroke-opacity:1.0000000"
       d="M 319.07100,375.70400 C 319.07100,375.70400 321.95100,384.44300 321.55300,388.61400"
       id="path793" />
    <path
       style="fill:none;fill-opacity:1.0000000;fill-rule:evenodd;stroke:#002800;stroke-width:1.0000000;stroke-linecap:round;stroke-linejoin:miter;stroke-dasharray:none;stroke-opacity:1.0000000"
       d="M 315.69400,381.56300 C 315.69400,381.56300 317.97800,388.61400 316.88600,392.78500"
       id="path794" />
    <path
       style="fill:none;fill-opacity:1.0000000;fill-rule:evenodd;stroke:#002800;stroke-width:1.0000000;stroke-linecap:round;stroke-linejoin:miter;stroke-dasharray:none;stroke-opacity:1.0000000"
       d="M 313.01300,386.03200 C 313.01300,386.03200 313.01300,391.29500 312.31800,392.68500"
       id="path812" />
    <g
       id="g813"
       style="fill:none;fill-opacity:1.0000000;stroke:#002800;stroke-width:1.0000000;stroke-linecap:round;stroke-dasharray:none;stroke-opacity:1.0000000">
      <path
         style="fill:none;fill-opacity:1.0000000;fill-rule:evenodd;stroke:#002800;stroke-width:1.0000000;stroke-linecap:round;stroke-linejoin:miter;stroke-dasharray:none;stroke-opacity:1.0000000"
         d="M 240.01700,355.53900 C 240.01700,355.53900 256.84000,343.58800 265.30100,344.97900"
         id="path827"
         sodipodi:nodetypes="cc" />
      <path
         style="fill:none;fill-opacity:1.0000000;fill-rule:evenodd;stroke:#002800;stroke-width:1.0000000;stroke-linecap:round;stroke-linejoin:miter;stroke-dasharray:none;stroke-opacity:1.0000000"
         d="M 247.28700,343.58800 C 247.28700,343.58800 259.13100,340.49900 263.91100,341.29600"
         id="path828"
         sodipodi:nodetypes="cc" />
      <path
         style="fill:none;fill-opacity:1.0000000;fill-rule:evenodd;stroke:#002800;stroke-width:1.0000000;stroke-linecap:round;stroke-linejoin:miter;stroke-dasharray:none;stroke-opacity:1.0000000"
         d="M 246.49000,364.30300 C 246.68900,364.00400 256.74600,352.84800 262.52200,352.74900"
         id="path829"
         sodipodi:nodetypes="cc" />
      <path
         style="fill:none;fill-opacity:1.0000000;fill-rule:evenodd;stroke:#002800;stroke-width:1.0000000;stroke-linecap:round;stroke-linejoin:miter;stroke-dasharray:none;stroke-opacity:1.0000000"
         d="M 254.85600,370.67700 C 254.85600,370.67700 257.64500,362.70900 263.52000,360.81700"
         id="path830" />
      <path
         style="fill:none;fill-opacity:1.0000000;fill-rule:evenodd;stroke:#002800;stroke-width:1.0000000;stroke-linecap:round;stroke-linejoin:miter;stroke-dasharray:none;stroke-opacity:1.0000000"
         d="M 260.83100,376.05500 C 260.83100,376.05500 266.60500,370.87800 267.80000,369.18500"
         id="path831"
         sodipodi:nodetypes="cc" />
      <path
         style="fill:none;fill-opacity:1.0000000;fill-rule:evenodd;stroke:#002800;stroke-width:1.0000000;stroke-linecap:round;stroke-linejoin:miter;stroke-dasharray:none;stroke-opacity:1.0000000"
         d="M 273.18100,374.56100 L 274.47600,372.17100"
         id="path832" />
      <path
         style="fill:none;fill-opacity:1.0000000;fill-rule:evenodd;stroke:#002800;stroke-width:1.0000000;stroke-linecap:round;stroke-linejoin:miter;stroke-dasharray:none;stroke-opacity:1.0000000"
         d="M 279.95300,375.95500 C 279.95300,375.95500 274.47600,381.23300 274.47600,382.52800"
         id="path833" />
      <path
         style="fill:none;fill-opacity:1.0000000;fill-rule:evenodd;stroke:#002800;stroke-width:1.0000000;stroke-linecap:round;stroke-linejoin:miter;stroke-dasharray:none;stroke-opacity:1.0000000"
         d="M 288.71700,378.04600 C 288.71700,377.94700 288.91600,376.35300 288.91600,376.35300"
         id="path834" />
    </g>
    <g
       id="g835"
       style="fill:none;stroke:#002800;stroke-width:1.0000000;stroke-linecap:round;stroke-dasharray:none;stroke-opacity:1.0000000">
      <path
         style="fill:none;fill-opacity:1.0000000;fill-rule:evenodd;stroke:#002800;stroke-width:1.0000000;stroke-linecap:round;stroke-linejoin:miter;stroke-dasharray:none;stroke-opacity:1.0000000"
         d="M 167.31500,390.19700 C 167.31500,390.19700 196.30700,381.99500 202.68100,387.87100"
         id="path836"
         sodipodi:nodetypes="cc" />
      <path
         style="fill:none;fill-opacity:1.0000000;fill-rule:evenodd;stroke:#002800;stroke-width:1.0000000;stroke-linecap:round;stroke-linejoin:miter;stroke-dasharray:none;stroke-opacity:1.0000000"
         d="M 178.46900,377.25000 C 178.46900,377.25000 205.01300,376.44200 207.10400,384.50900"
         id="path837"
         sodipodi:nodetypes="cc" />
      <path
         style="fill:none;fill-opacity:1.0000000;fill-rule:evenodd;stroke:#002800;stroke-width:1.0000000;stroke-linecap:round;stroke-linejoin:miter;stroke-dasharray:none;stroke-opacity:1.0000000"
         d="M 197.29200,366.39400 C 197.49100,366.39400 214.90800,371.21500 212.11900,382.76800"
         id="path838"
         sodipodi:nodetypes="cc" />
      <path
         style="fill:none;fill-opacity:1.0000000;fill-rule:evenodd;stroke:#002800;stroke-width:1.0000000;stroke-linecap:round;stroke-linejoin:miter;stroke-dasharray:none;stroke-opacity:1.0000000"
         d="M 209.24300,363.70500 C 209.24300,363.80500 219.41900,372.63900 214.24000,381.90100"
         id="path839"
         sodipodi:nodetypes="cc" />
      <path
         style="fill:none;fill-opacity:1.0000000;fill-rule:evenodd;stroke:#002800;stroke-width:1.0000000;stroke-linecap:round;stroke-linejoin:miter;stroke-dasharray:none;stroke-opacity:1.0000000"
         d="M 189.42400,402.44700 C 189.42400,402.44700 189.32400,405.43400 190.12100,409.61700"
         id="path840" />
      <path
         style="fill:none;fill-opacity:1.0000000;fill-rule:evenodd;stroke:#002800;stroke-width:1.0000000;stroke-linecap:round;stroke-linejoin:miter;stroke-dasharray:none;stroke-opacity:1.0000000"
         d="M 183.64800,411.21100 C 184.24500,416.38900 184.64400,417.58400 184.64400,417.58400"
         id="path841" />
      <path
         style="fill:none;fill-opacity:1.0000000;fill-rule:evenodd;stroke:#002800;stroke-width:1.0000000;stroke-linecap:round;stroke-linejoin:miter;stroke-dasharray:none;stroke-opacity:1.0000000"
         d="M 178.27000,416.29000 C 178.27000,416.29000 177.17400,418.18200 178.46900,421.66800"
         id="path842" />
      <path
         style="fill:none;fill-opacity:1.0000000;fill-rule:evenodd;stroke:#002800;stroke-width:1.0000000;stroke-linecap:round;stroke-linejoin:miter;stroke-dasharray:none;stroke-opacity:1.0000000"
         d="M 232.74700,428.73900 C 241.21200,430.63100 241.80900,430.03300 241.80900,430.03300"
         id="path843" />
      <path
         style="fill:none;fill-opacity:1.0000000;fill-rule:evenodd;stroke:#002800;stroke-width:1.0000000;stroke-linecap:round;stroke-linejoin:miter;stroke-dasharray:none;stroke-opacity:1.0000000"
         d="M 229.06200,433.32000 C 229.46000,433.42000 239.32000,434.11700 241.80900,433.81800"
         id="path844" />
      <path
         style="fill:none;fill-opacity:1.0000000;fill-rule:evenodd;stroke:#002800;stroke-width:1.0000000;stroke-linecap:round;stroke-linejoin:miter;stroke-dasharray:none;stroke-opacity:1.0000000"
         d="M 232.74700,437.10500 C 232.74700,437.10500 241.80900,439.59400 243.90100,438.49900"
         id="path845" />
      <path
         style="fill:none;fill-opacity:1.0000000;fill-rule:evenodd;stroke:#002800;stroke-width:1.0000000;stroke-linecap:round;stroke-linejoin:miter;stroke-dasharray:none;stroke-opacity:1.0000000"
         d="M 301.96300,428.24100 C 301.96300,428.24100 301.86300,431.52700 299.87200,433.22000"
         id="path846" />
      <path
         style="fill:none;fill-opacity:1.0000000;fill-rule:evenodd;stroke:#002800;stroke-width:1.0000000;stroke-linecap:round;stroke-linejoin:miter;stroke-dasharray:none;stroke-opacity:1.0000000"
         d="M 309.13400,428.04200 C 309.13400,428.04200 308.83500,431.52700 305.34900,434.41600"
         id="path847" />
      <path
         style="fill:none;fill-opacity:1.0000000;fill-rule:evenodd;stroke:#002800;stroke-width:1.0000000;stroke-linecap:round;stroke-linejoin:miter;stroke-dasharray:none;stroke-opacity:1.0000000"
         d="M 286.52600,435.81000 C 286.52600,435.81000 289.91200,433.61900 293.69700,429.43600"
         id="path848" />
      <path
         style="fill:none;fill-opacity:1.0000000;fill-rule:evenodd;stroke:#002800;stroke-width:1.0000000;stroke-linecap:round;stroke-linejoin:miter;stroke-dasharray:none;stroke-opacity:1.0000000"
         d="M 284.49600,428.46600 C 284.49600,428.46600 283.94300,430.95600 279.70100,433.53800"
         id="path849" />
      <path
         style="fill:none;fill-opacity:1.0000000;fill-rule:evenodd;stroke:#002800;stroke-width:1.0000000;stroke-linecap:round;stroke-linejoin:miter;stroke-dasharray:none;stroke-opacity:1.0000000"
         d="M 277.11900,426.99100 C 277.11900,426.99100 277.58000,429.29600 274.90500,431.51000"
         id="path850" />
      <path
         style="fill:none;fill-opacity:1.0000000;fill-rule:evenodd;stroke:#002800;stroke-width:1.0000000;stroke-linecap:round;stroke-linejoin:miter;stroke-dasharray:none;stroke-opacity:1.0000000"
         d="M 180.04300,409.55400 C 180.04300,409.55400 179.92600,413.18200 180.86200,419.09400"
         id="path851" />
      <path
         style="fill:none;fill-opacity:1.0000000;fill-rule:evenodd;stroke:#002800;stroke-width:1.0000000;stroke-linecap:round;stroke-linejoin:miter;stroke-dasharray:none;stroke-opacity:1.0000000"
         d="M 185.77900,405.16400 C 185.77900,405.16400 184.90100,409.49500 186.89100,412.94800"
         id="path852" />
      <path
         style="fill:none;fill-opacity:1.0000000;fill-rule:evenodd;stroke:#002800;stroke-width:1.0000000;stroke-linecap:round;stroke-linejoin:miter;stroke-dasharray:none;stroke-opacity:1.0000000"
         d="M 162.60000,386.14100 C 162.60000,386.14100 196.13900,379.99500 204.68500,385.96500"
         id="path853"
         sodipodi:nodetypes="cc" />
      <path
         style="fill:none;fill-opacity:1.0000000;fill-rule:evenodd;stroke:#002800;stroke-width:1.0000000;stroke-linecap:round;stroke-linejoin:miter;stroke-dasharray:none;stroke-opacity:1.0000000"
         d="M 187.06700,370.10300 C 187.06700,370.10300 208.37200,377.18500 209.77700,383.03800"
         id="path854"
         sodipodi:nodetypes="cc" />
      <path
         style="fill:none;fill-opacity:1.0000000;fill-rule:evenodd;stroke:#002800;stroke-width:1.0000000;stroke-linecap:round;stroke-linejoin:miter;stroke-dasharray:none;stroke-opacity:1.0000000"
         d="M 278.01300,352.48600 L 279.79700,357.16800"
         id="path855" />
      <path
         style="fill:none;fill-opacity:1.0000000;fill-rule:evenodd;stroke:#002800;stroke-width:1.0000000;stroke-linecap:round;stroke-linejoin:miter;stroke-dasharray:none;stroke-opacity:1.0000000"
         d="M 278.68200,341.33900 L 278.68200,344.46000"
         id="path856" />
    </g>
  </g>
</svg>
