<?xml version="1.0" encoding="UTF-8" standalone="no"?>
<svg xmlns:dc="http://purl.org/dc/elements/1.1/" xmlns:cc="http://creativecommons.org/ns#" xmlns:rdf="http://www.w3.org/1999/02/22-rdf-syntax-ns#" xmlns:svg="http://www.w3.org/2000/svg" xmlns="http://www.w3.org/2000/svg" xmlns:sodipodi="http://sodipodi.sourceforge.net/DTD/sodipodi-0.dtd" xmlns:inkscape="http://www.inkscape.org/namespaces/inkscape" width="300" height="200" id="svg2" sodipodi:version="0.32" inkscape:version="0.46" sodipodi:docname="toltec.svg" inkscape:output_extension="org.inkscape.output.svg.inkscape" version="1.0">
  <defs id="defs27">
    <inkscape:perspective sodipodi:type="inkscape:persp3d" inkscape:vp_x="0 : 112.5 : 1" inkscape:vp_y="0 : 1000 : 0" inkscape:vp_z="194 : 112.5 : 1" inkscape:persp3d-origin="97 : 75 : 1" id="perspective31"/>
  </defs>
  <sodipodi:namedview inkscape:window-height="729" inkscape:window-width="1280" inkscape:pageshadow="2" inkscape:pageopacity="0.0" guidetolerance="10.0" gridtolerance="10.0" objecttolerance="10.0" borderopacity="1.0" bordercolor="#666666" pagecolor="#ffffff" id="base" showgrid="false" inkscape:zoom="2.0711111" inkscape:cx="97" inkscape:cy="101.48987" inkscape:window-x="0" inkscape:window-y="0" inkscape:current-layer="svg2"/>
  <path style="fill: rgb(0, 0, 0); stroke: none;" d="M 0,0 L 0,200 L 300,200 L 300,0 L 0,0 z" id="path4"/>
  <g id="g2404" transform="translate(55.4998, -13)">
    <path id="path6" d="M 94,16 L 84,41 L 83,41 L 82,28 C 67.3078,29.4724 54.3094,39.6005 40,42.8025 C 27.6523,45.5655 15.1427,38.0178 7.96991,54 C 4.93002,60.7734 5.34935,69.8454 9.65201,75.9961 C 11.7146,78.9446 17.1304,81.7689 17.6358,85.4637 C 18.4189,91.1884 13.3123,98.8222 13.0394,105 C 12.5302,116.527 17.1252,126.877 17.6389,137.816 C 17.8309,141.903 11.8012,144.932 9.65201,148.004 C 4.49912,155.368 4.80207,166.955 10.3943,173.985 C 19.5109,185.444 28.6683,178.662 40,181.198 C 54.3094,184.399 67.3078,194.528 82,196 L 83,183 L 84,183 L 94,208 L 95,208 L 105,183 L 106,183 L 107,196 C 121.692,194.528 134.691,184.399 149,181.198 C 160.332,178.662 169.489,185.444 178.606,173.985 C 184.199,166.954 184.5,155.369 179.348,148.004 C 177.196,144.927 171.163,141.808 171.361,137.7 C 171.886,126.804 176.468,116.493 175.961,105 C 175.685,98.7509 170.581,91.1406 171.364,85.3248 C 171.852,81.6994 177.315,78.9019 179.348,75.9961 C 183.651,69.8463 184.07,60.7726 181.03,54 C 173.857,38.0178 161.348,45.5655 149,42.8025 C 134.691,39.6005 121.692,29.4724 107,28 L 106,41 L 105,41 L 94,16 z" style="fill: rgb(255, 255, 255); stroke: none;"/>
    <path id="path8" d="M 49,53 L 58,90 L 75,77 L 71,45 L 49,53 z" style="fill: rgb(0, 94, 0); stroke: none;"/>
    <path id="path10" d="M 94,45 L 83,73 L 106,73 L 94,45 z" style="fill: rgb(106, 0, 0); stroke: none;"/>
    <path id="path12" d="M 118,45 L 114,77 L 131,90 L 140,53 L 118,45 z" style="fill: rgb(0, 94, 0); stroke: none;"/>
    <path id="path14" d="M 24.0154,54.6566 C 11.9359,58.3912 17.8362,77.0992 29.9846,73.3434 C 42.0641,69.6088 36.1638,50.9008 24.0154,54.6566 M 159.015,54.6566 C 146.936,58.3912 152.836,77.0992 164.985,73.3434 C 177.064,69.6088 171.164,50.9008 159.015,54.6566 z" style="fill: rgb(0, 0, 0); stroke: none;"/>
    <path id="path16" d="M 86,86.5293 C 70.3879,90.1372 61.3319,110.792 69.4028,124.83 C 76.0915,136.464 90.4697,140.366 103,137.471 C 121.124,133.282 127.954,110.349 117.072,96.0394 C 109.897,86.6042 97.2391,83.932 86,86.5293 M 58,129 C 53.3632,116.959 53.3632,107.041 58,95 C 50.346,90.5495 37.6673,84.1932 29.1883,90.1481 C 19.653,96.8449 19.6488,127.127 29.189,133.852 C 37.653,139.818 50.3583,133.443 58,129 M 131,95 C 135.637,107.04 135.637,116.96 131,129 C 138.642,133.443 151.347,139.818 159.811,133.852 C 169.351,127.127 169.347,96.8449 159.812,90.1481 C 151.333,84.1932 138.654,90.5495 131,95 z" style="fill: rgb(0, 0, 87); stroke: none;"/>
    <path id="path18" d="M 75,112 L 114,112 C 113.433,87.897 75.5667,87.897 75,112 M 79,117 C 83.1472,133.408 105.853,133.408 110,117 L 79,117 z" style="fill: rgb(255, 255, 255); stroke: none;"/>
    <path id="path20" d="M 58,134 L 49,171 L 71,179 L 75,147 L 58,134 M 129,134 L 114,147 L 118,179 L 140,171 L 131,134 L 129,134 z" style="fill: rgb(106, 0, 0); stroke: none;"/>
    <path id="path22" d="M 24.0154,150.657 C 11.9359,154.391 17.8362,173.099 29.9846,169.343 C 42.0641,165.609 36.1638,146.901 24.0154,150.657 M 159.015,150.657 C 146.936,154.391 152.836,173.099 164.985,169.343 C 177.064,165.609 171.164,146.901 159.015,150.657 z" style="fill: rgb(0, 0, 0); stroke: none;"/>
    <path id="path24" d="M 83,151 L 94,179 L 95,179 L 106,151 L 83,151 z" style="fill: rgb(0, 94, 0); stroke: none;"/>
  </g>
</svg>