<?xml version="1.0" encoding="UTF-8" standalone="no"?>
<svg
   xmlns:dc="http://purl.org/dc/elements/1.1/"
   xmlns:cc="http://creativecommons.org/ns#"
   xmlns:rdf="http://www.w3.org/1999/02/22-rdf-syntax-ns#"
   xmlns:svg="http://www.w3.org/2000/svg"
   xmlns="http://www.w3.org/2000/svg"
   xmlns:sodipodi="http://sodipodi.sourceforge.net/DTD/sodipodi-0.dtd"
   xmlns:inkscape="http://www.inkscape.org/namespaces/inkscape"
   width="450"
   height="300"
   id="svg2">
  <rect
     style="fill:#decd87"
     id="rect2388"
     width="450"
     height="300" />
  <path
     style="fill:#1a1a1a;stroke:none"
     d="M 155.78681,15 L 155.78681,68.451778 L 216.09137,68.451778 L 216.09137,141.09137 L 143.45178,141.09137 L 143.45178,80.786804 L 90,80.786804 L 90,98.604064 L 125.63451,98.604064 L 125.63451,110.93909 L 90,110.93909 L 90,128.75635 L 125.63451,128.75635 L 125.63451,141.09137 L 90,141.09137 L 90,158.90863 L 125.63451,158.90863 L 125.63451,171.24365 L 90,171.24365 L 90,189.06091 L 125.63451,189.06091 L 125.63451,201.39594 L 90,201.39594 L 90,219.21319 L 143.45178,219.21319 L 143.45178,158.90863 L 216.09137,158.90863 L 216.09137,231.54822 L 155.78681,231.54822 L 155.78681,285 L 173.60406,285 L 173.60406,249.36549 L 185.93909,249.36549 L 185.93909,285 L 203.75635,285 L 203.75635,249.36549 L 216.09137,249.36549 L 216.09137,285 L 233.90863,285 L 233.90863,249.36549 L 246.24365,249.36549 L 246.24365,285 L 264.06091,285 L 264.06091,249.36549 L 276.39594,249.36549 L 276.39594,285 L 294.2132,285 L 294.2132,231.54822 L 233.90863,231.54822 L 233.90863,158.90863 L 306.54823,158.90863 L 306.54823,219.21319 L 360,219.21319 L 360,201.39594 L 324.36549,201.39594 L 324.36549,189.06091 L 360,189.06091 L 360,171.24365 L 324.36549,171.24365 L 324.36549,158.90863 L 360,158.90863 L 360,141.09137 L 324.36549,141.09137 L 324.36549,128.75635 L 360,128.75635 L 360,110.93909 L 324.36549,110.93909 L 324.36549,98.604064 L 360,98.604064 L 360,80.786804 L 306.54823,80.786804 L 306.54823,141.09137 L 233.90863,141.09137 L 233.90863,68.451778 L 294.2132,68.451778 L 294.2132,15 L 276.39594,15 L 276.39594,50.634519 L 264.06091,50.634519 L 264.06091,15 L 246.24365,15 L 246.24365,50.634519 L 233.90863,50.634519 L 233.90863,15 L 216.09137,15 L 216.09137,50.634519 L 203.75635,50.634519 L 203.75635,15 L 185.93909,15 L 185.93909,50.634519 L 173.60406,50.634519 L 173.60406,15 L 155.78681,15 z"
     id="path6" />
</svg>
