<?xml version="1.0" encoding="UTF-8" ?>
<!DOCTYPE svg PUBLIC "-//W3C//DTD SVG 1.1//EN" "http://www.w3.org/Graphics/SVG/1.1/DTD/svg11.dtd">
<svg width="310pt" height="210pt" viewBox="0 0 310 210" version="1.1" xmlns="http://www.w3.org/2000/svg">
<g id="#00a4ffff">
<path fill="#00a4ff" opacity="1.00" d=" M 0.00 0.00 L 310.00 0.00 L 310.00 210.00 L 0.00 210.00 L 0.00 0.00 M 146.40 17.54 C 128.00 19.39 110.27 27.19 96.51 39.54 C 81.72 52.69 71.67 71.02 68.49 90.55 C 65.06 109.72 68.71 129.94 78.00 147.00 C 86.94 163.45 101.29 176.91 118.33 184.68 C 134.22 191.94 152.33 194.61 169.58 191.54 C 187.45 188.60 204.28 179.88 217.10 167.10 C 230.38 153.92 239.18 136.36 241.91 117.86 C 247.18 85.34 231.94 50.73 204.59 32.44 C 187.72 20.92 166.75 15.49 146.40 17.54 Z" />
<path fill="#00a4ff" opacity="1.00" d=" M 147.18 31.37 C 147.68 31.89 147.68 31.89 147.18 31.37 Z" />
<path fill="#00a4ff" opacity="1.00" d=" M 162.81 31.63 C 167.72 36.24 172.29 41.26 177.77 45.22 C 189.04 53.67 202.38 59.18 216.26 61.49 C 203.68 63.99 191.38 68.43 180.80 75.79 C 174.09 80.14 168.58 85.97 162.81 91.44 C 165.04 83.10 167.25 74.70 167.65 66.03 C 168.48 54.35 165.95 42.80 162.81 31.63 Z" />
<path fill="#00a4ff" opacity="1.00" d=" M 135.08 43.09 C 139.29 39.67 142.99 35.68 147.03 32.07 C 145.45 39.36 143.32 46.56 142.77 54.03 C 141.33 66.68 143.93 79.32 147.28 91.46 C 141.67 86.13 136.34 80.41 129.83 76.13 C 119.10 68.56 106.58 63.97 93.75 61.48 C 108.83 59.10 123.23 52.71 135.08 43.09 Z" />
<path fill="#00a4ff" opacity="1.00" d=" M 87.06 73.86 C 94.71 82.72 103.72 90.49 114.17 95.84 C 122.33 100.27 131.29 102.92 140.33 104.88 C 127.95 107.62 115.82 112.06 105.38 119.38 C 98.48 124.02 92.51 129.86 87.07 136.12 C 90.47 125.81 92.75 115.04 92.67 104.15 C 92.49 93.82 90.33 83.63 87.06 73.86 Z" />
<path fill="#00a4ff" opacity="1.00" d=" M 222.27 74.45 C 222.80 74.93 222.80 74.93 222.27 74.45 Z" />
<path fill="#00a4ff" opacity="1.00" d=" M 208.12 88.11 C 213.20 84.30 217.56 79.67 222.26 75.43 C 220.15 83.84 217.90 92.30 217.66 101.02 C 216.93 112.41 219.33 123.64 222.30 134.55 C 215.96 128.58 209.80 122.28 202.31 117.71 C 192.78 111.42 181.85 107.89 170.91 104.98 C 184.18 101.60 197.24 96.61 208.12 88.11 Z" />
<path fill="#00a4ff" opacity="1.00" d=" M 129.79 133.80 C 136.30 129.54 141.65 123.85 147.27 118.53 C 143.90 130.68 141.30 143.33 142.77 155.99 C 143.33 163.43 145.44 170.61 147.03 177.86 C 143.03 174.23 139.33 170.26 135.12 166.85 C 123.29 157.23 108.90 150.84 93.84 148.45 C 106.60 145.87 119.09 141.34 129.79 133.80 Z" />
<path fill="#00a4ff" opacity="1.00" d=" M 162.85 118.53 C 168.65 123.93 174.13 129.78 180.83 134.13 C 191.38 141.46 203.65 145.85 216.17 148.46 C 200.88 150.92 186.30 157.49 174.38 167.36 C 170.26 170.79 166.64 174.75 162.75 178.42 C 165.38 168.82 167.78 159.04 167.77 149.03 C 167.98 138.64 165.55 128.48 162.85 118.53 Z" />
<path fill="#00a4ff" opacity="1.00" d=" M 222.29 135.14 C 222.75 135.67 222.75 135.67 222.29 135.14 Z" />
<path fill="#00a4ff" opacity="1.00" d=" M 147.20 178.17 C 147.72 178.68 147.72 178.68 147.20 178.17 Z" />
</g>
<g id="#040404ff">
<path fill="#040404" opacity="1.00" d=" M 146.40 17.54 C 166.75 15.49 187.72 20.92 204.59 32.44 C 231.94 50.73 247.18 85.34 241.91 117.86 C 239.18 136.36 230.38 153.92 217.10 167.10 C 204.28 179.88 187.45 188.60 169.58 191.54 C 152.33 194.61 134.22 191.94 118.33 184.68 C 101.29 176.91 86.94 163.45 78.00 147.00 C 68.71 129.94 65.06 109.72 68.49 90.55 C 71.67 71.02 81.72 52.69 96.51 39.54 C 110.27 27.19 128.00 19.39 146.40 17.54 M 129.22 23.26 C 109.57 29.44 92.28 42.96 81.75 60.68 C 89.56 60.22 97.38 59.21 104.86 56.87 C 124.91 50.83 142.60 37.16 153.27 19.12 C 145.15 19.74 136.98 20.64 129.22 23.26 M 156.82 19.13 C 163.43 30.15 172.63 39.58 183.36 46.65 C 196.67 55.40 212.42 60.06 228.30 60.68 C 213.81 35.59 185.58 19.93 156.82 19.13 M 155.09 102.70 C 169.19 77.68 169.24 45.43 155.07 20.43 C 141.03 45.43 140.97 77.72 155.09 102.70 M 147.18 31.37 C 147.68 31.89 147.68 31.89 147.18 31.37 M 162.81 31.63 C 165.95 42.80 168.48 54.35 167.65 66.03 C 167.25 74.70 165.04 83.10 162.81 91.44 C 168.58 85.97 174.09 80.14 180.80 75.79 C 191.38 68.43 203.68 63.99 216.26 61.49 C 202.38 59.18 189.04 53.67 177.77 45.22 C 172.29 41.26 167.72 36.24 162.81 31.63 M 135.08 43.09 C 123.23 52.71 108.83 59.10 93.75 61.48 C 106.58 63.97 119.10 68.56 129.83 76.13 C 136.34 80.41 141.67 86.13 147.28 91.46 C 143.93 79.32 141.33 66.68 142.77 54.03 C 143.32 46.56 145.45 39.36 147.03 32.07 C 142.99 35.68 139.29 39.67 135.08 43.09 M 81.81 62.66 C 88.76 74.20 98.48 84.03 109.95 91.09 C 122.90 99.23 138.06 103.42 153.28 104.08 C 138.68 79.19 110.65 62.99 81.81 62.66 M 156.82 104.08 C 164.97 103.61 173.14 102.48 180.93 99.95 C 200.50 93.77 217.74 80.35 228.27 62.70 C 199.44 62.99 171.44 79.25 156.82 104.08 M 79.89 63.69 C 66.09 88.87 65.77 121.01 79.98 146.08 C 94.05 121.03 94.04 88.70 79.89 63.69 M 230.26 146.25 C 237.01 133.57 240.62 119.35 240.94 105.01 C 240.66 90.65 237.10 76.38 230.26 63.73 C 216.05 88.76 216.11 121.21 230.26 146.25 M 87.06 73.86 C 90.33 83.63 92.49 93.82 92.67 104.15 C 92.75 115.04 90.47 125.81 87.07 136.12 C 92.51 129.86 98.48 124.02 105.38 119.38 C 115.82 112.06 127.95 107.62 140.33 104.88 C 131.29 102.92 122.33 100.27 114.17 95.84 C 103.72 90.49 94.71 82.72 87.06 73.86 M 222.27 74.45 C 222.80 74.93 222.80 74.93 222.27 74.45 M 208.12 88.11 C 197.24 96.61 184.18 101.60 170.91 104.98 C 181.85 107.89 192.78 111.42 202.31 117.71 C 209.80 122.28 215.96 128.58 222.30 134.55 C 219.33 123.64 216.93 112.41 217.66 101.02 C 217.90 92.30 220.15 83.84 222.26 75.43 C 217.56 79.67 213.20 84.30 208.12 88.11 M 81.80 147.24 C 110.63 146.91 138.62 130.72 153.28 105.90 C 124.47 106.41 96.56 122.47 81.80 147.24 M 156.84 105.87 C 171.52 130.65 199.45 146.94 228.29 147.22 C 213.65 122.33 185.60 106.52 156.84 105.87 M 155.07 189.51 C 169.15 164.48 169.24 132.25 155.08 107.23 C 140.95 132.22 141.02 164.50 155.07 189.51 M 129.79 133.80 C 119.09 141.34 106.60 145.87 93.84 148.45 C 108.90 150.84 123.29 157.23 135.12 166.85 C 139.33 170.26 143.03 174.23 147.03 177.86 C 145.44 170.61 143.33 163.43 142.77 155.99 C 141.30 143.33 143.90 130.68 147.27 118.53 C 141.65 123.85 136.30 129.54 129.79 133.80 M 162.85 118.53 C 165.55 128.48 167.98 138.64 167.77 149.03 C 167.78 159.04 165.38 168.82 162.75 178.42 C 166.64 174.75 170.26 170.79 174.38 167.36 C 186.30 157.49 200.88 150.92 216.17 148.46 C 203.65 145.85 191.38 141.46 180.83 134.13 C 174.13 129.78 168.65 123.93 162.85 118.53 M 222.29 135.14 C 222.75 135.67 222.75 135.67 222.29 135.14 M 81.78 149.24 C 96.38 174.19 124.44 190.06 153.24 190.70 C 138.61 165.79 110.57 149.89 81.78 149.24 M 195.63 156.62 C 179.59 163.62 165.88 175.74 156.83 190.73 C 185.61 190.08 213.79 174.25 228.30 149.23 C 217.09 149.74 205.90 152.02 195.63 156.62 M 147.20 178.17 C 147.72 178.68 147.72 178.68 147.20 178.17 Z" />
</g>
<g id="#ffff00ff">
<path fill="#ffff00" opacity="1.00" d=" M 129.22 23.26 C 136.98 20.64 145.15 19.74 153.27 19.12 C 142.60 37.16 124.91 50.83 104.86 56.87 C 97.38 59.21 89.56 60.22 81.75 60.68 C 92.28 42.96 109.57 29.44 129.22 23.26 Z" />
<path fill="#ffff00" opacity="1.00" d=" M 156.82 19.13 C 185.58 19.93 213.81 35.59 228.30 60.68 C 212.42 60.06 196.67 55.40 183.36 46.65 C 172.63 39.58 163.43 30.15 156.82 19.13 Z" />
<path fill="#ffff00" opacity="1.00" d=" M 79.89 63.69 C 94.04 88.70 94.05 121.03 79.98 146.08 C 65.77 121.01 66.09 88.87 79.89 63.69 Z" />
<path fill="#ffff00" opacity="1.00" d=" M 230.26 146.25 C 216.11 121.21 216.05 88.76 230.26 63.73 C 237.10 76.38 240.66 90.65 240.94 105.01 C 240.62 119.35 237.01 133.57 230.26 146.25 Z" />
<path fill="#ffff00" opacity="1.00" d=" M 81.78 149.24 C 110.57 149.89 138.61 165.79 153.24 190.70 C 124.44 190.06 96.38 174.19 81.78 149.24 Z" />
<path fill="#ffff00" opacity="1.00" d=" M 195.63 156.62 C 205.90 152.02 217.09 149.74 228.30 149.23 C 213.79 174.25 185.61 190.08 156.83 190.73 C 165.88 175.74 179.59 163.62 195.63 156.62 Z" />
</g>
<g id="#ff0000ff">
<path fill="#ff0000" opacity="1.00" d=" M 155.09 102.70 C 140.97 77.72 141.03 45.43 155.07 20.43 C 169.24 45.43 169.19 77.68 155.09 102.70 Z" />
<path fill="#ff0000" opacity="1.00" d=" M 81.81 62.66 C 110.65 62.99 138.68 79.19 153.28 104.08 C 138.06 103.42 122.90 99.23 109.95 91.09 C 98.48 84.03 88.76 74.20 81.81 62.66 Z" />
<path fill="#ff0000" opacity="1.00" d=" M 156.82 104.08 C 171.44 79.25 199.44 62.99 228.27 62.70 C 217.74 80.35 200.50 93.77 180.93 99.95 C 173.14 102.48 164.97 103.61 156.82 104.08 Z" />
<path fill="#ff0000" opacity="1.00" d=" M 81.80 147.24 C 96.56 122.47 124.47 106.41 153.28 105.90 C 138.62 130.72 110.63 146.91 81.80 147.24 Z" />
<path fill="#ff0000" opacity="1.00" d=" M 156.84 105.87 C 185.60 106.52 213.65 122.33 228.29 147.22 C 199.45 146.94 171.52 130.65 156.84 105.87 Z" />
<path fill="#ff0000" opacity="1.00" d=" M 155.07 189.51 C 141.02 164.50 140.95 132.22 155.08 107.23 C 169.24 132.25 169.15 164.48 155.07 189.51 Z" />
</g>
</svg>
