<?xml version="1.0" standalone="yes"?>
<svg xmlns="http://www.w3.org/2000/svg" width="1140" height="760">
<path style="fill:#008000; stroke:none;" d="M0 0L0 760L1140 760L1140 0L0 0z"/>
<path style="fill:#c88326; stroke:none;" d="M462 5C462 13.4878 459.661 26.0107 462.603 34C465.013 40.543 472.438 46.0935 476.304 52C484.22 64.0962 489.686 77.4508 494.565 91C508.964 130.989 514 176.76 514 219C471.764 219 425.985 213.963 386 199.565C372.451 194.686 359.096 189.22 347 181.304C341.093 177.438 335.543 170.013 329 167.603C321.011 164.661 308.488 167 300 167L300 376C308.488 376 321.011 378.339 329 375.397C335.543 372.987 341.093 365.562 347 361.696C359.096 353.78 372.451 348.314 386 343.435C425.989 329.036 471.76 324 514 324C514 417.95 511.204 513.211 494.916 606C490.479 631.274 485.183 656.41 477.798 681C473.865 694.095 465.225 706.888 462.39 720C460.313 729.609 462 741.178 462 751L671 751C671 741.178 672.687 729.609 670.61 720C667.775 706.888 659.135 694.095 655.202 681C647.817 656.41 642.521 631.274 638.084 606C621.796 513.211 619 417.95 619 324C660.878 324 706.367 329.164 746 343.435C759.549 348.314 772.904 353.78 785 361.696C790.907 365.562 796.457 372.987 803 375.397C811.245 378.433 824.238 376 833 376L833 167C824.238 167 811.245 164.567 803 167.603C796.457 170.013 790.907 177.438 785 181.304C772.904 189.22 759.549 194.686 746 199.565C706.367 213.836 660.878 219 619 219C619 176.76 624.036 130.989 638.435 91C643.314 77.4507 648.78 64.0963 656.696 52C660.562 46.0934 667.987 40.543 670.397 34C673.339 26.0109 671 13.4877 671 5L462 5z"/>
<path style="fill:#f6c02a; stroke:none;" d="M476 19C478.972 25.3754 484.926 30.2036 488.961 36C495.623 45.5714 500.547 56.184 504.797 67C525.514 119.724 528 177.107 528 233C472.106 233 414.724 230.514 362 209.797C351.184 205.547 340.571 200.623 331 193.961C325.204 189.926 320.375 183.972 314 181L314 362C320.375 359.028 325.204 353.074 331 349.039C340.571 342.377 351.184 337.453 362 333.203C414.724 312.486 472.107 310 528 310C528 412.696 524.636 514.277 509.573 616C505.593 642.873 499.623 670.078 491.492 696C487.373 709.132 477.377 723.561 476 737L657 737C655.623 723.561 645.627 709.132 641.508 696C633.377 670.078 627.407 642.873 623.427 616C608.364 514.277 605 412.697 605 310C660.893 310 718.276 312.486 771 333.203C781.816 337.453 792.429 342.377 802 349.039C807.796 353.074 812.625 359.028 819 362L819 181C812.625 183.972 807.796 189.926 802 193.961C792.429 200.623 781.816 205.547 771 209.797C718.276 230.514 660.894 233 605 233C605 177.106 607.486 119.724 628.203 67C632.453 56.184 637.377 45.5714 644.039 36C648.074 30.2036 654.028 25.3754 657 19L476 19z"/>
<path style="fill:#000080; stroke:none;" d="M559 34.4282C553.144 35.2691 547.353 36.6996 542 39.2623C524.905 47.447 515.379 67.2239 532.04 81.6713C543.451 91.5659 561.4 94.6681 576 92.5718C581.856 91.7309 587.647 90.3004 593 87.7377C610.095 79.553 619.621 59.7761 602.96 45.3287C591.549 35.4341 573.6 32.3319 559 34.4282z"/>
<path style="fill:#e6ddb2; stroke:none;" d="M563 137.65C541.916 143.909 542.129 180.81 548.464 197C551.775 205.462 559.354 216.511 570 213.35C591.084 207.091 590.871 170.19 584.536 154C581.225 145.538 573.646 134.489 563 137.65z"/>
<path style="fill:#800000; stroke:none;" d="M354 226.529C327.057 232.737 324.477 274.58 333.792 295C338.953 306.311 349.222 317.645 363 314.471C389.943 308.263 392.523 266.42 383.208 246C378.047 234.689 367.778 223.355 354 226.529M770 226.529C743.057 232.737 740.476 274.58 749.792 295C754.953 306.311 765.222 317.645 779 314.471C805.943 308.263 808.524 266.42 799.208 246C794.047 234.689 783.778 223.355 770 226.529z"/>
<path style="fill:#393d3e; stroke:none;" d="M560 233.465C510.771 242.325 524.028 318.349 573 309.535C622.229 300.675 608.972 224.651 560 233.465z"/>
<path style="fill:#e6ddb2; stroke:none;" d="M462 250.428C448.284 252.393 420.889 264.361 436.529 281.699C446.265 292.492 465.425 294.517 479 292.572C492.716 290.607 520.111 278.639 504.471 261.301C494.735 250.508 475.575 248.483 462 250.428M654 250.428C640.284 252.393 612.889 264.361 628.529 281.699C638.265 292.492 657.424 294.517 671 292.572C684.716 290.607 712.111 278.639 696.471 261.301C686.735 250.508 667.576 248.483 654 250.428M561 333.519C528.647 340.538 539.794 390.469 572 383.481C604.353 376.462 593.206 326.531 561 333.519M561 403.519C528.647 410.538 539.794 460.469 572 453.481C604.353 446.462 593.206 396.531 561 403.519M561 476.519C528.647 483.538 539.794 533.469 572 526.481C604.353 519.462 593.206 469.531 561 476.519z"/>
<path style="fill:#393d3e; stroke:none;" d="M562 554.468C525.897 561.276 524.04 616.618 535.012 643C541.126 657.703 554.705 671.794 572 668.532C608.103 661.724 609.96 606.382 598.988 580C592.874 565.297 579.295 551.206 562 554.468z"/>
<path style="fill:#c99c41; stroke:none;" d="M520 677.468C490.117 683.202 498.658 732.353 529 726.532C558.883 720.798 550.342 671.647 520 677.468M604 677.468C574.117 683.202 582.658 732.353 613 726.532C642.883 720.798 634.342 671.647 604 677.468z"/>
</svg>
