<?xml version="1.0" encoding="UTF-8" standalone="no"?>
<svg
   xmlns:dc="http://purl.org/dc/elements/1.1/"
   xmlns:cc="http://creativecommons.org/ns#"
   xmlns:rdf="http://www.w3.org/1999/02/22-rdf-syntax-ns#"
   xmlns:svg="http://www.w3.org/2000/svg"
   xmlns="http://www.w3.org/2000/svg"
   xmlns:sodipodi="http://sodipodi.sourceforge.net/DTD/sodipodi-0.dtd"
   xmlns:inkscape="http://www.inkscape.org/namespaces/inkscape"
   width="450"
   height="300"
   viewBox="0 0 360 240"
   version="1.1"
   id="svg2"
   inkscape:version="0.48.2 r9819"
   sodipodi:docname="xiongnu.svg">
  <metadata
     id="metadata20">
    <rdf:RDF>
      <cc:Work
         rdf:about="">
        <dc:format>image/svg+xml</dc:format>
        <dc:type
           rdf:resource="http://purl.org/dc/dcmitype/StillImage" />
        <dc:title />
      </cc:Work>
    </rdf:RDF>
  </metadata>
  <rect
     style="fill:#e7c03b;fill-opacity:1;stroke:none"
     id="rect2989"
     width="360"
     height="240"
     x="0"
     y="0" />
  <g
     id="#fe0000ff"
     transform="scale(0.93023256,0.91603053)">
    <path
       d="m 189.77,30.79 c 3.07,-3.66 2.88,-8.68 4.73,-12.88 2.47,4.99 3.05,10.59 3.36,16.07 0.08,5.22 4.26,9.09 5.17,14.09 0.78,4.26 0.58,8.82 -1.2,12.81 -1.7,3.82 -2.2,8 -2.6,12.13 2.41,1.35 5,2.4 7.66,3.15 5.92,-5.86 -1.58,-14.32 2.63,-20.78 1.73,-2.99 2.02,-6.45 2.61,-9.79 2.58,3.82 3.04,8.52 4.25,12.86 1.42,6.55 7.65,11.41 7.28,18.46 -2.08,16.35 -19.45,28.81 -35.61,25.99 -7.92,-1.23 -15.21,-5.5 -20.63,-11.33 -4.57,-4.99 -4.61,-12.26 -4.29,-18.61 0.1,-4.69 3.6,-8.14 5.8,-11.97 1.67,-2.67 1.15,-5.95 1.55,-8.92 0.21,-3.29 1.73,-6.28 3.26,-9.12 1.2,2.81 1.76,5.83 2.67,8.75 0.86,2.73 2.74,5.26 2.33,8.26 0.23,4.49 -4.03,8.24 -2.65,12.77 1.84,4.38 9.12,4.11 10.07,-0.81 -0.2,-7.82 -2.99,-15.33 -3.78,-23.09 -0.51,-6.8 3.47,-12.84 7.39,-18.04 z"
       id="path8"
       inkscape:connector-curvature="0"
       style="fill:#fe0000" />
  </g>
  <g
     id="#ffff01ff"
     transform="scale(0.93023256,0.91603053)">
    <path
       d="m 188.36,120.35 c 9.66,-1.23 19.64,1.43 27.9,6.45 7.97,5.59 13.95,14.09 16.24,23.58 2.46,11.75 0.14,24.99 -8.18,34 -8.82,10.74 -23.4,16.21 -37.12,14.32 -11.52,-1.75 -22.59,-8.06 -28.88,-18.05 -6.07,-8.43 -7.45,-19.54 -5.25,-29.53 1.47,-9.4 7.7,-17.29 14.92,-23.12 5.77,-4.67 13.16,-6.61 20.37,-7.65 z"
       id="path11"
       inkscape:connector-curvature="0"
       style="fill:#ffff01" />
  </g>
  <g
     id="#00adefff"
     transform="scale(0.93023256,0.91603053)">
    <path
       d="m 135.35,159.79 c 1.94,0.47 2.09,2.65 2.35,4.28 1.63,14.27 7.41,28.37 17.57,38.69 4.62,3.79 9.11,7.96 14.67,10.34 6.93,3.07 14.49,4.58 22.04,4.94 16.47,-0.39 32.82,-7.97 42.98,-21.07 8,-10.4 14.33,-22.85 14.38,-36.25 1.84,1.95 2.15,4.69 2.43,7.24 0.75,9.03 0.02,18.15 -1.85,27.02 -4.27,17.33 -17.19,32.6 -34.08,38.76 -11.48,4.67 -24.36,5.79 -36.41,2.73 -17.07,-3.51 -32.52,-15.01 -39.92,-30.91 -4.79,-10.8 -6.54,-23.02 -4.69,-34.71 0.45,-3.67 0.34,-7.37 0.53,-11.06 z"
       id="path14"
       inkscape:connector-curvature="0"
       style="fill:#00adef" />
  </g>
</svg>
