<?xml version="1.0" encoding="UTF-8" standalone="no"?>
<!-- Created with Inkscape (http://www.inkscape.org/) -->
<svg
   xmlns:dc="http://purl.org/dc/elements/1.1/"
   xmlns:cc="http://web.resource.org/cc/"
   xmlns:rdf="http://www.w3.org/1999/02/22-rdf-syntax-ns#"
   xmlns:svg="http://www.w3.org/2000/svg"
   xmlns="http://www.w3.org/2000/svg"
   xmlns:sodipodi="http://sodipodi.sourceforge.net/DTD/sodipodi-0.dtd"
   xmlns:inkscape="http://www.inkscape.org/namespaces/inkscape"
   width="1800"
   height="1200"
   id="svg2044"
   sodipodi:version="0.32"
   inkscape:version="0.44"
   version="1.0"
   sodipodi:docbase="C:\flags"
   sodipodi:docname="Flag of the Ainu people.svg">
  <defs
     id="defs2046" />
  <sodipodi:namedview
     id="base"
     pagecolor="#ffffff"
     bordercolor="#666666"
     borderopacity="1.0"
     gridtolerance="10000"
     guidetolerance="10"
     objecttolerance="10"
     inkscape:pageopacity="0.0"
     inkscape:pageshadow="2"
     inkscape:zoom="0.31416667"
     inkscape:cx="900"
     inkscape:cy="600"
     inkscape:document-units="px"
     inkscape:current-layer="layer1"
     height="1200px"
     width="1800px"
     inkscape:window-width="847"
     inkscape:window-height="579"
     inkscape:window-x="44"
     inkscape:window-y="58" />
  <metadata
     id="metadata2049">
    <rdf:RDF>
      <cc:Work
         rdf:about="">
        <dc:format>image/svg+xml</dc:format>
        <dc:type
           rdf:resource="http://purl.org/dc/dcmitype/StillImage" />
      </cc:Work>
    </rdf:RDF>
  </metadata>
  <g
     inkscape:label="Layer 1"
     inkscape:groupmode="layer"
     id="layer1">
    <rect
       style="opacity:1;fill:#2194de;fill-opacity:1;stroke:none;stroke-width:2;stroke-linecap:butt;stroke-linejoin:miter;stroke-miterlimit:4;stroke-dasharray:none;stroke-opacity:1"
       id="rect2943"
       width="1800"
       height="1200"
       x="0"
       y="0" />
    <g
       id="g2945"
       transform="matrix(1.12454,0,0,1.12454,-146.9855,-64.12518)">
      <path
         sodipodi:nodetypes="csssssssssssssssssscsssssssssc"
         id="path2034"
         d="M 930.57537,948.15407 C 959.38797,915.66533 967.93987,890.64407 967.93987,843.03776 C 967.93987,764.04492 947.25387,727.64063 888.39213,703.04652 C 836.67706,681.43841 817.77331,683.70255 677.63582,728.28972 C 574.92887,760.96725 590.97807,765.96126 456.60252,659.51302 C 415.86416,627.24153 383.88018,596.69861 385.52603,591.63991 C 392.74604,569.4603 566.82286,432.3936 587.92108,432.27596 C 600.77687,432.20423 649.66671,445.34767 696.56599,461.48342 C 812.34583,501.31744 867.7149,499.20321 922.80821,452.84492 C 962.02687,419.84469 967.93987,405.34232 967.93987,342.16178 C 967.93987,284.52505 960.47787,261.99162 931.93517,233.44925 C 884.29952,185.81433 799.14825,172.95047 766.14625,231.67931 C 745.71253,268.04297 742.27855,292.02582 756.29025,321.08146 C 776.15628,362.28085 806.84354,349.75732 802.74212,311.72874 C 798.89742,276.06273 842.66489,256.99658 868.67571,283.00741 C 890.23307,304.56461 869.82282,370.34594 839.57856,376.79041 C 825.46419,379.79753 766.08758,369.32601 707.62924,353.52046 C 561.06827,313.8943 515.64321,328.7298 407.01004,451.70046 C 361.61872,503.08166 303.71927,552.34072 279.48925,563.7572 L 215.4054,593.95202 L 294.91062,628.36516 C 331.99643,644.41788 374.48184,683.61469 406.3074,727.91288 C 434.76499,767.52379 476.73113,809.59452 499.56761,821.40324 C 554.10349,849.60471 652.38632,848.64933 739.18489,819.07412 C 830.2213,788.05491 884.26724,807.47267 877.22179,868.66821 C 873.55164,900.55083 864.99383,908.88348 835.92015,908.88348 C 807.32468,908.88348 799.50471,901.6152 800.41271,875.87854 C 801.85759,834.97018 772.88806,831.85847 751.21482,871.10882 C 721.79936,924.38039 792.93453,987.15331 855.38573,988.63251 C 888.86887,989.44471 906.99224,971.73705 930.57537,948.15407 z "
         style="fill:white" />
      <path
         sodipodi:nodetypes="ccccccccccccccc"
         id="path2028"
         d="M 1114.6285,746.53118 L 640.52068,639.68263 L 597.35462,732.85731 L 568.51418,632.04807 L 451.59604,595.03458 L 568.57579,551.37404 L 597.80643,455.29052 L 642.73274,548.43704 L 1337.8841,388.13912 L 1215.7586,500.98255 L 1646.6636,594.09812 L 1292.6923,668.82804 L 1214.0496,684.27332 L 1333.972,797.87967 L 1114.6285,746.53118 z "
         style="fill:#ce1029;fill-opacity:1" />
    </g>
  </g>
</svg>
