<?xml version="1.0" encoding="UTF-8" standalone="no"?>
<!-- Created with Inkscape (http://www.inkscape.org/) -->
<svg
   xmlns:svg="http://www.w3.org/2000/svg"
   xmlns="http://www.w3.org/2000/svg"
   version="1.0"
   width="324"
   height="216"
   id="svg2">
  <defs
     id="defs5" />
  <path
     d=""
     style="fill:black"
     id="path1900" />
  <rect
     width="324"
     height="216"
     x="0"
     y="0"
     style="opacity:1;fill:#fe6500;fill-opacity:1;fill-rule:nonzero;stroke:none;stroke-width:2;stroke-linecap:round;stroke-linejoin:miter;stroke-miterlimit:4;stroke-dasharray:none;stroke-opacity:1"
     id="rect2807" />
  <path
     d="M 93.38992,194.87944 C 91.670982,187.02279 88.137845,174.32828 88.233422,171.31034 C 85.219277,168.14677 83.905835,168.38461 81.931034,167.29973 C 81.931034,167.29973 56.605782,166.18359 55.418853,165.06832 C 46.377781,156.57308 39.650606,147.16096 31.511936,139.22546 C 31.511936,139.22546 28.838641,140.15875 28.803958,141.51724 C 28.769274,142.87573 31.373203,144.65943 31.373203,144.65943 C 30.283793,147.26942 32.607363,150.36699 35.522546,153.54907 C 35.522546,153.54907 38.960754,162.40777 41.251989,165.00796 C 47.815927,172.457 64.154749,183.52868 68.753316,190.21751 L 69.32626,194.80106 L 93.38992,194.87944 z "
     style="fill:white;fill-opacity:1;fill-rule:evenodd;stroke:white;stroke-width:1px;stroke-linecap:butt;stroke-linejoin:miter;stroke-opacity:1"
     id="path1873" />
  <path
     d="M 95.5,194.87944 C 97.218938,187.02279 100.75207,174.32828 100.6565,171.31034 C 103.67064,168.14677 104.98408,168.38461 106.95889,167.29973 C 106.95889,167.29973 132.28414,166.18359 133.47107,165.06832 C 142.51214,156.57308 149.23931,147.16096 157.37798,139.22546 C 157.37798,139.22546 160.05128,140.15875 160.08596,141.51724 C 160.12065,142.87573 157.51672,144.65943 157.51672,144.65943 C 158.60613,147.26942 156.28256,150.36699 153.36737,153.54907 C 153.36737,153.54907 149.92917,162.40777 147.63793,165.00796 C 141.07399,172.457 124.73517,183.52868 120.1366,190.21751 L 119.56366,194.80106 L 95.5,194.87944 z "
     style="fill:white;fill-opacity:1;fill-rule:evenodd;stroke:white;stroke-width:1px;stroke-linecap:butt;stroke-linejoin:miter;stroke-opacity:1"
     id="path1875" />
  <path
     d="M 150.45397,137.40788 L 38.210531,137.40788 L 38.210531,141.53289 C 38.210531,141.53289 43.442071,160.19702 95.309223,159.55263 C 148.23104,158.89514 150.45396,141.31578 150.45396,141.31578 L 150.45397,137.40788 z "
     style="fill:white;fill-opacity:1;fill-rule:evenodd;stroke:white;stroke-width:1px;stroke-linecap:butt;stroke-linejoin:miter;stroke-opacity:1"
     id="path1877" />
  <path
     d="M 38.0625,133.40625 L 54.03125,133.09375 L 94.4375,48.9375 L 134.8125,133.09375 L 150.78125,133.40625 L 94.59375,18.5625 L 38.0625,133.40625 z "
     style="fill:white;fill-opacity:1;fill-rule:evenodd;stroke:white;stroke-width:1px;stroke-linecap:butt;stroke-linejoin:miter;stroke-opacity:1"
     id="path1892" />
  <rect
     width="52.327991"
     height="14"
     x="68.783028"
     y="83"
     style="opacity:1;fill:white;fill-opacity:1;fill-rule:nonzero;stroke:none;stroke-width:2;stroke-linecap:round;stroke-linejoin:miter;stroke-miterlimit:4;stroke-dasharray:none;stroke-opacity:1"
     id="rect1897" />
</svg>
