<?xml version="1.0" encoding="UTF-8" standalone="no"?>
<svg
   xmlns:dc="http://purl.org/dc/elements/1.1/"
   xmlns:cc="http://creativecommons.org/ns#"
   xmlns:rdf="http://www.w3.org/1999/02/22-rdf-syntax-ns#"
   xmlns:svg="http://www.w3.org/2000/svg"
   xmlns="http://www.w3.org/2000/svg"
   xmlns:sodipodi="http://sodipodi.sourceforge.net/DTD/sodipodi-0.dtd"
   xmlns:inkscape="http://www.inkscape.org/namespaces/inkscape"
   width="300"
   height="200"
   id="svg2"
   sodipodi:version="0.32"
   inkscape:version="0.46"
   sodipodi:docname="apache.svg"
   inkscape:output_extension="org.inkscape.output.svg.inkscape"
   version="1.0">
  <metadata
     id="metadata37">
    <rdf:RDF>
      <cc:Work
         rdf:about="">
        <dc:format>image/svg+xml</dc:format>
        <dc:type
           rdf:resource="http://purl.org/dc/dcmitype/StillImage" />
      </cc:Work>
    </rdf:RDF>
  </metadata>
  <defs
     id="defs35">
    <inkscape:perspective
       sodipodi:type="inkscape:persp3d"
       inkscape:vp_x="0 : 105 : 1"
       inkscape:vp_y="0 : 1000 : 0"
       inkscape:vp_z="310 : 105 : 1"
       inkscape:persp3d-origin="155 : 70 : 1"
       id="perspective39" />
  </defs>
  <sodipodi:namedview
     inkscape:window-height="729"
     inkscape:window-width="1280"
     inkscape:pageshadow="2"
     inkscape:pageopacity="0.0"
     guidetolerance="10.0"
     gridtolerance="10.0"
     objecttolerance="10.0"
     borderopacity="1.0"
     bordercolor="#666666"
     pagecolor="#ffffff"
     id="base"
     showgrid="false"
     inkscape:zoom="1.65"
     inkscape:cx="146.76498"
     inkscape:cy="97"
     inkscape:window-x="0"
     inkscape:window-y="0"
     inkscape:current-layer="svg2" />
  <path
     style="fill:#ffe680;stroke:none"
     d="M 0,2.3536728e-14 L 0,200 L 300,200 L 300,2.3536728e-14 L 0,2.3536728e-14 z"
     id="path4" />
  <g
     id="g2448"
     transform="matrix(1.00762,0,0,1.0056533,-5.1734055,-7.6050007)">
    <path
       id="path6"
       d="M 141,18.4282 C 128.634,20.1997 116.582,24.5873 106,31.2292 C 96.0773,37.457 87.7045,45.4748 80.9097,55 C 35.9751,117.991 90.7406,206.497 167,195.572 C 179.366,193.8 191.418,189.413 202,182.771 C 211.923,176.543 220.296,168.525 227.09,159 C 272.025,96.0089 217.259,7.50323 141,18.4282 z"
       style="fill:#cc3333;stroke:none" />
    <path
       id="path8"
       d="M 141,26.439 C 129.792,28.1895 118.43,32.4122 109,38.7492 C 99.4221,45.1856 91.3287,53.2717 85.0903,63 C 47.7231,121.271 99.096,198.167 167,187.561 C 178.208,185.81 189.57,181.588 199,175.251 C 208.45,168.901 216.751,160.604 222.91,151 C 260.28,92.73 208.902,15.8338 141,26.439 z"
       style="fill:#cccccc;stroke:none" />
    <g
       id="g2428">
      <path
         style="fill:#336699;stroke:none"
         d="M 210,68 L 208,76 L 206,74 L 205,77 L 202,75 L 201,80 L 200,80 L 200,77 L 199,77 L 198,81 L 193,85 L 171,85.956 L 155,81.3789 L 130,84 L 126,83 L 127,80 L 125,82 L 124,82 L 122,80 L 121,83 L 118,81 L 117,84 L 115,82 L 114,85 L 110,88 L 107,86 L 101,101 C 97.3797,100.913 94.2634,107.499 94,111 C 88.3954,111.935 79.7408,125.45 78,131 L 82,136 C 101.134,133.851 100.113,112.178 120,112 C 112.528,121.175 108.664,127.478 105.87,139 C 105.268,141.482 102.349,151.793 108.716,149.338 C 112.943,147.708 113.176,137.74 114.478,134 C 117.097,126.48 122.467,122.747 129,119 C 128.252,124.553 126.234,129.63 124.745,135 C 123.889,138.092 117.521,161.6 125.701,158.338 C 129.862,156.679 130.284,141.193 131.927,137 C 138.559,120.068 156.78,105.497 176,110.785 C 196.991,116.561 194.213,134.946 189.744,151.42 C 188.944,154.367 190.354,157.332 193.875,156.623 C 197.391,155.916 198.123,150.863 198.965,148 C 201.756,138.5 202.231,129.744 201,120 C 208.381,124.845 209.87,133.576 208.385,142 C 207.891,144.802 204.529,152.777 208.313,154.338 C 214.829,157.026 215.977,140.501 215.999,137 C 216.033,131.817 217.684,126.086 216.609,121 C 214.469,110.88 205.912,100.256 200,92 L 210,90 L 210,89 L 208,88 L 213,85 L 213,84 L 210,84 L 210,83 L 216,69 L 215,69 L 215,71 L 214,71 L 213,68 L 210,72 L 210,68 z"
         id="path10" />
      <path
         style="fill:#006699;stroke:none"
         d="M 212.333,72.6667 L 212.667,73.3333 L 212.333,72.6667 z"
         id="path12" />
      <path
         style="fill:#cccccc;stroke:none"
         d="M 213,74 L 214,75 L 213,74 M 212,78 L 213,79 L 212,78 z"
         id="path14" />
      <path
         style="fill:#cc9900;stroke:none"
         d="M 91.303079,114.06078 C 89.525583,117.07902 88.505677,116.84587 87.039985,119.01189 C 84.498615,122.76755 82.435498,127.65509 82,131 L 85,129 L 84,134 C 87.3192,132.143 95.6876,128.59 97.6821,125.682 C 99.915,122.427 98.6732,118.665 102.148,115.965 C 110.957,109.122 120.52,110 131,110 L 125,152 C 128.034,147.634 127.837,141.927 129.66,137 C 132.694,128.8 138.169,120.731 145,115.278 C 159.211,103.934 175.911,109.013 191,113.999 C 196.702,115.883 204.598,117.694 208.012,123.185 C 212.792,130.876 208.824,140.084 211,148 C 214.981,143.422 213.504,138.181 213.901,132.576 C 214.938,117.935 206.369,96.5686 192.961,87.8935 C 187.009,84.0429 179.476,87.8592 173,87.9846 C 160.915,88.2185 151.679,81.0136 139,83.8881 C 127.147,86.5754 117.321,93.5142 108,101.001 C 102.754,105.214 97.882379,111.171 91.303079,114.06078 z"
         id="path16"
         sodipodi:nodetypes="cscccssccsssccsssssc" />
      <path
         style="fill:#800000;stroke:none"
         d="M 183.148,92.0285 C 176.102,96.1435 182.695,107.151 189.852,102.971 C 196.898,98.8565 190.305,87.8488 183.148,92.0285 z"
         id="path18" />
      <path
         style="fill:#336699;stroke:none"
         d="M 184.148,93.0471 C 178.413,96.1639 183.158,105.048 188.852,101.953 C 194.587,98.8361 189.842,89.9525 184.148,93.0471 z"
         id="path20" />
      <path
         style="fill:#800000;stroke:none"
         d="M 100,112 L 131,100 C 131.72735,102.4193 133.01967,105.47615 134.22602,106.39751 C 135.64849,107.48392 137.1289,106.13361 140,105 L 141,113 L 142,113 L 141,103 L 134.84846,105.09076 L 131,98 C 128.084,99.3565 125.62954,101.63876 122.57554,102.43076 C 114.84454,104.43376 107.64448,106.92917 100,112 M 195,102 L 195,103 L 199,103 C 198.32836,104.91629 199.71285,106.02321 200.96139,106.78739 L 204.52789,110.76583 L 206.01499,116.28351 C 210.68376,119.0735 211.88265,122.20834 210.15137,123.39832 L 211,128 L 212,128 C 212.52383,125.6845 212.37647,121.90754 211.53967,119.89918 C 210.69635,117.87516 209.15753,117.62134 208.13116,115.69762 C 207.00762,113.59178 207.29865,110.95344 205.9067,109.41001 C 203.21293,106.42309 200.13837,106.22234 200,102 L 195,102 z"
         id="path22"
         sodipodi:nodetypes="ccsccccccsccccccccccssscc" />
      <path
         style="fill:#cc9900;stroke:none"
         d="M 107,143 C 112.008,141.241 111.398,135.325 113.404,131 C 116.94,123.378 128.365,119.992 129,112 C 114.134,112.482 109.452,131.121 107,143 M 189,115 C 197.151,128.105 194.883,135.418 193,150 C 197.715,148.359 197.918,143.44 198.8,139 C 201.038,127.74 200.919,118.889 189,115 z"
         id="path24" />
      <path
         style="fill:#800000;stroke:none"
         d="M 92.3179,117.086 C 88.5598,119.256 91.924,125.083 95.6821,122.914 C 99.4401,120.744 96.076,114.917 92.3179,117.086 z"
         id="path26" />
      <path
         style="fill:#cc9900;stroke:none"
         d="M 93.3133,118.341 C 91.1733,119.228 92.5478,122.545 94.6867,121.659 C 96.8267,120.772 95.4522,117.455 93.3133,118.341 z"
         id="path28" />
      <path
         style="fill:#cccccc;stroke:none"
         d="M 200,119 L 201,120 L 200,119 z"
         id="path30" />
      <path
         style="fill:#993333;stroke:none"
         d="M 214,161 L 215,162 L 214,161 M 213,162 L 214,163 L 213,162 z"
         id="path32" />
      <path
         style="fill:#800000;stroke:none"
         d="M 115.02589,120 L 114.22589,121.4 L 120.02589,123.4 L 122.33177,121.54118 L 115.02589,120 z"
         id="path2414"
         sodipodi:nodetypes="ccccc" />
      <path
         style="fill:#800000;stroke:none"
         d="M 112.84706,124.1 L 112.04706,125.5 L 117.04706,126.7 L 118.55294,125.04118 L 112.84706,124.1 z"
         id="path2416"
         sodipodi:nodetypes="ccccc" />
      <path
         style="fill:#800000;stroke:none"
         d="M 110.94706,128.6 L 110.14706,130 L 113.54706,130.4 L 114.65294,128.74118 L 110.94706,128.6 z"
         id="path2418"
         sodipodi:nodetypes="ccccc" />
      <path
         style="fill:#800000;stroke:none"
         d="M 129.24398,120.59692 L 129.14706,122.9 L 136.34706,124.3 L 138.25294,122.64118 L 129.24398,120.59692 z"
         id="path2420"
         sodipodi:nodetypes="ccccc" />
      <path
         style="fill:#800000;stroke:none"
         d="M 128.44706,125.05154 L 128.44706,127.1 L 134.24706,128.9 L 135.15294,127.44118 L 128.44706,125.05154 z"
         id="path2422"
         sodipodi:nodetypes="ccccc" />
      <path
         style="fill:#800000;stroke:none"
         d="M 127.75014,130.50308 L 127.44706,132.2 L 131.24706,133.6 L 132.15294,131.14118 L 127.75014,130.50308 z"
         id="path2424"
         sodipodi:nodetypes="ccccc" />
    </g>
  </g>
</svg>
