<?xml version="1.0" encoding="UTF-8" standalone="no"?>
<!-- Created with Sodipodi ("http://www.sodipodi.com/") -->
<svg
   xmlns:dc="http://purl.org/dc/elements/1.1/"
   xmlns:cc="http://web.resource.org/cc/"
   xmlns:rdf="http://www.w3.org/1999/02/22-rdf-syntax-ns#"
   xmlns:svg="http://www.w3.org/2000/svg"
   xmlns="http://www.w3.org/2000/svg"
   xmlns:sodipodi="http://inkscape.sourceforge.net/DTD/sodipodi-0.dtd"
   xmlns:inkscape="http://www.inkscape.org/namespaces/inkscape"
   id="svg548"
   sodipodi:version="0.32"
   width="280mm"
   height="529.13000pt"
   sodipodi:docbase="/Users/daniel/Desktop/updated flags"
   sodipodi:docname="argentina.svg"
   inkscape:version="0.42">
  <metadata
     id="metadata3432">
    <rdf:RDF>
      <cc:Work
         rdf:about="">
        <dc:format>image/svg+xml</dc:format>
        <dc:type
           rdf:resource="http://purl.org/dc/dcmitype/StillImage" />
      </cc:Work>
    </rdf:RDF>
  </metadata>
  <defs
     id="defs550" />
  <sodipodi:namedview
     id="base"
     showgrid="true"
     gridspacingx="20mm"
     gridspacingy="20mm"
     inkscape:zoom="0.43262028"
     inkscape:cx="490.98533"
     inkscape:cy="351.25944"
     inkscape:window-width="701"
     inkscape:window-height="507"
     inkscape:window-x="26"
     inkscape:window-y="87"
     inkscape:current-layer="svg548" />
  <g
     id="g561"
     transform="matrix(1.463576,0.000000,0.000000,1.463567,-55.57060,-336.3240)">
    <rect
       style="font-size:12.000000px;fill:#00c4ff;fill-opacity:1.0000000;fill-rule:evenodd;stroke-width:1.0000000pt"
       id="rect552"
       width="677.87708"
       height="151.04973"
       x="37.969227"
       y="229.79733" />
    <rect
       style="font-size:12.000000px;fill:#ffffff;fill-opacity:1.0000000;fill-rule:evenodd;stroke-width:1.0000000pt"
       id="rect554"
       width="677.87701"
       height="151.04970"
       x="37.969135"
       y="380.23190" />
    <rect
       style="font-size:12.000000px;fill:#00c4ff;fill-opacity:1.0000000;fill-rule:evenodd;stroke-width:1.0000000pt"
       id="rect555"
       width="677.87695"
       height="151.04970"
       x="37.969051"
       y="530.66589" />
  </g>
  <g
     id="g904"
     transform="matrix(1.191733,0.000000,0.000000,1.191733,108.5991,45.11245)">
    <path
       sodipodi:type="arc"
       style="fill:#ffd600;fill-opacity:1.0000000;fill-rule:evenodd;stroke:#000000;stroke-width:0.62500000;stroke-linecap:butt;stroke-linejoin:miter;stroke-dasharray:none;stroke-opacity:0.38661698"
       id="path598"
       d="M 382.49242 221.32898 A 26.499130 26.369865 0 1 1  329.49416,221.32898 A 26.499130 26.369865 0 1 1  382.49242 221.32898 z"
       sodipodi:cx="355.99329"
       sodipodi:cy="221.32898"
       sodipodi:rx="26.499130"
       sodipodi:ry="26.369865"
       transform="matrix(1.019329,0.000000,0.000000,1.003844,-26.19757,18.07461)" />
    <path
       style="fill:none;fill-opacity:1.0000000;fill-rule:evenodd;stroke:#000000;stroke-width:0.50000000;stroke-linecap:butt;stroke-linejoin:miter;stroke-dasharray:none;stroke-opacity:0.38661698"
       d="M 364.43400,195.27700 C 360.09400,194.22800 355.64900,195.69900 354.24900,195.59500 C 352.32400,195.59500 347.45900,193.91500 344.06400,195.59500"
       id="path561"
       sodipodi:nodetypes="ccc"
       transform="matrix(0.787052,0.000000,0.000000,0.762697,57.45783,72.38400)" />
    <path
       style="fill:none;fill-opacity:1.0000000;fill-rule:evenodd;stroke:#000000;stroke-width:0.50000000;stroke-linecap:butt;stroke-linejoin:miter;stroke-dasharray:none;stroke-opacity:0.38661698"
       d="M 338.71200,200.48700 C 343.01700,197.47700 347.82700,201.57300 349.10600,200.80200 C 352.59800,198.50800 355.84200,198.93400 359.18600,201.01200 C 361.34100,202.28400 365.10000,197.30200 369.47500,201.32700"
       id="path562"
       sodipodi:nodetypes="cssc"
       transform="matrix(0.787052,0.000000,0.000000,0.762697,57.45783,72.38400)" />
    <path
       style="fill:#efc000;fill-opacity:1.0000000;fill-rule:evenodd;stroke:#000000;stroke-width:0.50000000;stroke-linecap:butt;stroke-linejoin:miter;stroke-dasharray:none;stroke-opacity:0.38661698"
       d="M 333.88200,205.63200 C 336.15700,203.77700 343.57600,203.70700 351.20600,208.04600 C 352.36100,207.76600 353.09600,206.96200 352.15100,205.84200 C 346.41100,203.84700 339.72700,201.32700 333.56700,203.21700 C 331.88700,204.40700 332.30700,205.17700 333.88200,205.63200 z "
       id="path564"
       sodipodi:nodetypes="ccccc"
       transform="matrix(0.787052,0.000000,0.000000,0.762697,57.45783,72.38400)" />
    <path
       style="fill:#efc000;fill-opacity:1.0000000;fill-rule:evenodd;stroke:#000000;stroke-width:0.50000000;stroke-linecap:butt;stroke-linejoin:miter;stroke-dasharray:none;stroke-opacity:0.38661698"
       d="M 333.88200,205.63200 C 336.15700,203.77700 343.57600,203.70700 351.20600,208.04600 C 352.36100,207.76600 353.09600,206.96200 352.15100,205.84200 C 346.41100,203.84700 339.72700,201.32700 333.56700,203.21700 C 331.88700,204.40700 332.30700,205.17700 333.88200,205.63200 z "
       id="path565"
       sodipodi:nodetypes="ccccc"
       transform="matrix(-0.787052,0.000000,0.000000,0.762697,614.9905,72.38400)" />
    <path
       style="fill:#f0bf00;fill-opacity:1.0000000;fill-rule:evenodd;stroke:#000000;stroke-width:0.62500000;stroke-linecap:butt;stroke-linejoin:round;stroke-dasharray:none;stroke-opacity:0.38661698"
       d="M 330.83700,211.82600 C 338.36200,206.99600 348.30100,209.51600 352.46600,212.14100 C 346.37600,210.98600 346.27100,210.46100 341.86100,210.35600 C 338.74600,210.46200 334.16200,210.14600 330.83700,211.82600 z "
       id="path569"
       sodipodi:nodetypes="cccc"
       transform="matrix(0.787052,0.000000,0.000000,0.762697,57.45783,72.38400)" />
    <path
       style="fill:none;fill-opacity:1.0000000;fill-rule:evenodd;stroke:#000000;stroke-width:0.62500000;stroke-linecap:butt;stroke-linejoin:miter;stroke-dasharray:none;stroke-opacity:0.38661698"
       d="M 348.05600,211.30100 C 344.38100,218.96600 337.97700,219.07100 333.46200,210.88100"
       id="path570"
       sodipodi:nodetypes="cc"
       transform="matrix(0.787052,0.000000,0.000000,0.762697,57.45783,72.38400)" />
    <path
       sodipodi:type="arc"
       style="fill:#000000;fill-opacity:0.36802998;fill-rule:evenodd;stroke:none;stroke-width:1.0000000pt;stroke-linecap:butt;stroke-linejoin:miter;stroke-opacity:0.36999997"
       id="path571"
       d="M 345.53632 212.87613 A 3.6748049 1.6799090 0 1 1  338.18671,212.87613 A 3.6748049 1.6799090 0 1 1  345.53632 212.87613 z"
       sodipodi:cx="341.86151"
       sodipodi:cy="212.87613"
       sodipodi:rx="3.6748049"
       sodipodi:ry="1.6799090"
       transform="matrix(0.852947,0.123381,-0.924232,1.010978,231.8767,-22.52022)" />
    <path
       sodipodi:type="arc"
       style="fill:#ffd700;fill-opacity:1.0000000;fill-rule:evenodd;stroke:none;stroke-width:1.0000000pt;stroke-linecap:butt;stroke-linejoin:miter;stroke-opacity:0.38661698"
       id="path572"
       d="M 344.06639 212.56116 A 0.73496997 0.41997501 0 1 1  342.59645,212.56116 A 0.73496997 0.41997501 0 1 1  344.06639 212.56116 z"
       sodipodi:cx="343.33142"
       sodipodi:cy="212.56116"
       sodipodi:rx="0.73496997"
       sodipodi:ry="0.41997501"
       transform="matrix(1.047637,-0.342831,0.381378,0.941748,-115.9167,151.9138)" />
    <path
       style="fill:none;fill-opacity:1.0000000;fill-rule:evenodd;stroke:#000000;stroke-width:0.62500000;stroke-linecap:butt;stroke-linejoin:miter;stroke-dasharray:none;stroke-opacity:0.38661698"
       d="M 349.18300,224.49700 C 344.94400,231.62400 350.72000,226.59700 351.65800,228.66100 C 353.30800,230.57400 354.95900,230.12300 355.93400,228.66100 C 356.91000,227.01000 363.06100,231.77400 358.86000,224.72300"
       id="path573"
       sodipodi:nodetypes="cccc"
       transform="matrix(0.787052,0.000000,0.000000,0.762697,57.45783,72.38400)" />
    <path
       style="fill:none;fill-opacity:1.0000000;fill-rule:evenodd;stroke:#000000;stroke-width:0.62500000;stroke-linecap:round;stroke-linejoin:round;stroke-dasharray:none;stroke-opacity:0.38661698"
       d="M 341.64300,236.31300 C 345.28100,235.90000 351.39600,233.12500 353.57200,235.41300 C 355.44700,233.35000 362.04900,236.01300 366.28700,236.31300 C 363.21100,238.18800 356.98500,236.91300 354.02200,238.90100 C 351.13300,237.13800 344.75600,238.75100 341.64300,236.31300 z "
       id="path574"
       sodipodi:nodetypes="ccccc"
       transform="matrix(0.787052,0.000000,0.000000,0.762697,57.45783,72.38400)" />
    <path
       style="fill:none;fill-opacity:1.0000000;fill-rule:evenodd;stroke:#000000;stroke-width:0.62500000;stroke-linecap:butt;stroke-linejoin:round;stroke-dasharray:none;stroke-opacity:0.38661698"
       d="M 347.49500,239.57600 C 353.00900,241.82700 354.24700,241.48900 360.21100,239.80100 C 358.97300,243.06500 355.81300,243.75200 354.02100,243.62700 C 352.16400,243.50600 349.63300,243.74000 347.49500,239.57600 z "
       id="path575"
       sodipodi:nodetypes="ccsc"
       transform="matrix(0.787052,0.000000,0.000000,0.762697,57.45783,72.38400)" />
    <path
       style="fill:#ffd700;fill-opacity:1.0000000;fill-rule:evenodd;stroke:#000000;stroke-width:0.62500000;stroke-linecap:butt;stroke-linejoin:round;stroke-dasharray:none;stroke-opacity:0.38661698"
       d="M 343.16800,258.06100 C 339.19100,268.47100 343.54700,273.41900 341.60100,279.02500 C 339.72700,284.42300 331.57600,297.80100 337.78000,303.61400 C 342.71100,303.84200 336.92800,296.23800 346.79200,282.15900 C 351.36700,275.56400 345.59600,271.39000 350.41700,258.45200 C 350.86600,257.34500 343.79500,256.42100 343.16800,258.06100 z "
       id="path599"
       sodipodi:nodetypes="cscsss"
       transform="matrix(0.787052,0.000000,0.000000,0.762697,57.45783,72.38400)" />
    <path
       style="fill:#ffd700;fill-opacity:1.0000000;fill-rule:evenodd;stroke:#000000;stroke-width:0.62500000;stroke-linecap:butt;stroke-linejoin:round;stroke-dasharray:none;stroke-opacity:0.38661698"
       d="M 342.97200,258.15900 C 341.44400,269.84200 342.35200,305.73600 346.00900,304.30000 C 350.05800,305.60500 350.59200,269.13700 350.22100,258.35400 C 350.16900,257.16000 343.18500,256.41600 342.97200,258.15900 z "
       id="path600"
       sodipodi:nodetypes="ccss"
       transform="matrix(0.787052,0.000000,0.000000,0.762697,64.24288,72.90699)" />
    <path
       style="fill:none;fill-opacity:1.0000000;fill-rule:evenodd;stroke:#000000;stroke-width:0.62500000;stroke-linecap:butt;stroke-linejoin:round;stroke-dasharray:none;stroke-opacity:0.38661698"
       d="M 343.16800,258.06100 C 339.19100,268.47100 343.54700,273.41900 341.60100,279.02500 C 339.72700,284.42300 331.57600,297.80100 337.78000,303.61400 C 342.71100,303.84200 336.92800,296.23800 346.79200,282.15900 C 351.36700,275.56400 345.59600,271.39000 350.41700,258.45200 C 350.86600,257.34500 343.79500,256.42100 343.16800,258.06100 z "
       id="path605"
       sodipodi:nodetypes="cscsss"
       transform="matrix(-0.562557,-0.533404,-0.550437,0.545148,657.1436,309.1192)" />
    <path
       style="fill:none;fill-opacity:1.0000000;fill-rule:evenodd;stroke:#000000;stroke-width:0.62500000;stroke-linecap:butt;stroke-linejoin:round;stroke-dasharray:none;stroke-opacity:0.38661698"
       d="M 343.16800,258.06100 C 339.19100,268.47100 343.54700,273.41900 341.60100,279.02500 C 339.72700,284.42300 331.57600,297.80100 337.78000,303.61400 C 342.71100,303.84200 336.92800,296.23800 346.79200,282.15900 C 351.36700,275.56400 345.59600,271.39000 350.41700,258.45200 C 350.86600,257.34500 343.79500,256.42100 343.16800,258.06100 z "
       id="path607"
       sodipodi:nodetypes="cscsss"
       transform="matrix(0.550737,0.544863,-0.562262,0.533694,265.3191,-69.99310)" />
    <path
       style="fill:none;fill-opacity:1.0000000;fill-rule:evenodd;stroke:#000000;stroke-width:0.62500000;stroke-linecap:butt;stroke-linejoin:round;stroke-dasharray:none;stroke-opacity:0.38661698"
       d="M 343.16800,258.06100 C 339.19100,268.47100 343.54700,273.41900 341.60100,279.02500 C 339.72700,284.42300 331.57600,297.80100 337.78000,303.61400 C 342.71100,303.84200 336.92800,296.23800 346.79200,282.15900 C 351.36700,275.56400 345.59600,271.39000 350.41700,258.45200 C 350.86600,257.34500 343.79500,256.42100 343.16800,258.06100 z "
       id="path609"
       sodipodi:nodetypes="cscsss"
       transform="matrix(-4.530566e-3,-0.762684,-0.787039,4.390367e-3,511.3669,509.6946)" />
    <path
       style="fill:none;fill-opacity:1.0000000;fill-rule:evenodd;stroke:#000000;stroke-width:0.62500000;stroke-linecap:butt;stroke-linejoin:round;stroke-dasharray:none;stroke-opacity:0.38661698"
       d="M 342.97200,258.15900 C 341.44400,269.84200 342.35200,305.73600 346.00900,304.30000 C 350.05800,305.60500 350.59200,269.13700 350.22100,258.35400 C 350.16900,257.16000 343.18500,256.41600 342.97200,258.15900 z "
       id="path612"
       sodipodi:nodetypes="ccss"
       transform="matrix(-0.721993,-0.303638,-0.313334,0.699651,656.3777,192.0507)" />
    <path
       style="fill:none;fill-opacity:1.0000000;fill-rule:evenodd;stroke:#000000;stroke-width:0.62500000;stroke-linecap:butt;stroke-linejoin:round;stroke-dasharray:none;stroke-opacity:0.38661698"
       d="M 342.97200,258.15900 C 341.44400,269.84200 342.35200,305.73600 346.00900,304.30000 C 350.05800,305.60500 350.59200,269.13700 350.22100,258.35400 C 350.16900,257.16000 343.18500,256.41600 342.97200,258.15900 z "
       id="path613"
       sodipodi:nodetypes="ccss"
       transform="matrix(-0.560648,-0.535288,-0.552382,0.543299,651.5038,306.3963)" />
    <path
       style="fill:none;fill-opacity:1.0000000;fill-rule:evenodd;stroke:#000000;stroke-width:0.62500000;stroke-linecap:butt;stroke-linejoin:round;stroke-dasharray:none;stroke-opacity:0.38661698"
       d="M 342.97200,258.15900 C 341.44400,269.84200 342.35200,305.73600 346.00900,304.30000 C 350.05800,305.60500 350.59200,269.13700 350.22100,258.35400 C 350.16900,257.16000 343.18500,256.41600 342.97200,258.15900 z "
       id="path616"
       sodipodi:nodetypes="ccss"
       transform="matrix(-0.307533,-0.702063,-0.724482,0.298016,602.0634,417.7447)" />
    <path
       style="fill:none;fill-opacity:1.0000000;fill-rule:evenodd;stroke:#000000;stroke-width:0.62500000;stroke-linecap:butt;stroke-linejoin:miter;stroke-dasharray:none;stroke-opacity:0.081784375"
       d="M 349.18300,224.49700 C 344.94400,231.62400 350.72000,226.59700 351.65800,228.66100 C 353.30800,230.57400 354.95900,230.12300 355.93400,228.66100 C 356.91000,227.01000 363.06100,231.77400 358.86000,224.72300"
       id="path617"
       sodipodi:nodetypes="cccc"
       transform="matrix(0.787052,0.000000,0.000000,0.762697,57.45783,72.38400)" />
    <path
       style="fill:#f0bf00;fill-opacity:1.0000000;fill-rule:evenodd;stroke:#000000;stroke-width:0.62500000;stroke-linecap:round;stroke-linejoin:round;stroke-dasharray:none;stroke-opacity:0.081784375"
       d="M 341.64300,236.31300 C 345.28100,235.90000 351.39600,233.12500 353.57200,235.41300 C 355.44700,233.35000 362.04900,236.01300 366.28700,236.31300 C 363.21100,238.18800 356.98500,236.91300 354.02200,238.90100 C 351.13300,237.13800 344.75600,238.75100 341.64300,236.31300 z "
       id="path618"
       sodipodi:nodetypes="ccccc"
       transform="matrix(0.787052,0.000000,0.000000,0.762697,57.45783,72.38400)" />
    <path
       style="fill:#f0bf00;fill-opacity:1.0000000;fill-rule:evenodd;stroke:#000000;stroke-width:0.62500000;stroke-linecap:butt;stroke-linejoin:round;stroke-dasharray:none;stroke-opacity:0.081784375"
       d="M 347.49500,239.57600 C 353.00900,241.82700 354.24700,241.48900 360.21100,239.80100 C 358.97300,243.06500 355.81300,243.75200 354.02100,243.62700 C 352.16400,243.50600 349.63300,243.74000 347.49500,239.57600 z "
       id="path619"
       sodipodi:nodetypes="ccsc"
       transform="matrix(0.787052,0.000000,0.000000,0.762697,57.45783,72.38400)" />
    <path
       style="fill:#ffd700;fill-opacity:1.0000000;fill-rule:evenodd;stroke:#000000;stroke-width:0.62500000;stroke-linecap:butt;stroke-linejoin:round;stroke-dasharray:none;stroke-opacity:0.14869900"
       d="M 343.16800,258.06100 C 339.19100,268.47100 343.54700,273.41900 341.60100,279.02500 C 339.72700,284.42300 331.57600,297.80100 337.78000,303.61400 C 342.71100,303.84200 336.92800,296.23800 346.79200,282.15900 C 351.36700,275.56400 345.59600,271.39000 350.41700,258.45200 C 350.86600,257.34500 343.79500,256.42100 343.16800,258.06100 z "
       id="path630"
       sodipodi:nodetypes="cscsss"
       transform="matrix(-0.562557,-0.533404,-0.550437,0.545148,657.1436,309.1192)" />
    <path
       style="fill:#ffd700;fill-opacity:1.0000000;fill-rule:evenodd;stroke:#000000;stroke-width:0.62500000;stroke-linecap:butt;stroke-linejoin:round;stroke-dasharray:none;stroke-opacity:0.14869900"
       d="M 343.16800,258.06100 C 339.19100,268.47100 343.54700,273.41900 341.60100,279.02500 C 339.72700,284.42300 331.57600,297.80100 337.78000,303.61400 C 342.71100,303.84200 336.92800,296.23800 346.79200,282.15900 C 351.36700,275.56400 345.59600,271.39000 350.41700,258.45200 C 350.86600,257.34500 343.79500,256.42100 343.16800,258.06100 z "
       id="path632"
       sodipodi:nodetypes="cscsss"
       transform="matrix(0.550737,0.544863,-0.562262,0.533694,265.3191,-69.99310)" />
    <path
       style="fill:#ffd700;fill-opacity:1.0000000;fill-rule:evenodd;stroke:#000000;stroke-width:0.62500000;stroke-linecap:butt;stroke-linejoin:round;stroke-dasharray:none;stroke-opacity:0.14869900"
       d="M 343.16800,258.06100 C 339.19100,268.47100 343.54700,273.41900 341.60100,279.02500 C 339.72700,284.42300 331.57600,297.80100 337.78000,303.61400 C 342.71100,303.84200 336.92800,296.23800 346.79200,282.15900 C 351.36700,275.56400 345.59600,271.39000 350.41700,258.45200 C 350.86600,257.34500 343.79500,256.42100 343.16800,258.06100 z "
       id="path634"
       sodipodi:nodetypes="cscsss"
       transform="matrix(-4.530566e-3,-0.762684,-0.787039,4.390367e-3,511.3669,509.6946)" />
    <path
       style="fill:#ffd700;fill-opacity:1.0000000;fill-rule:evenodd;stroke:#000000;stroke-width:0.62500000;stroke-linecap:butt;stroke-linejoin:round;stroke-dasharray:none;stroke-opacity:0.14869900"
       d="M 342.97200,258.15900 C 341.44400,269.84200 342.35200,305.73600 346.00900,304.30000 C 350.05800,305.60500 350.59200,269.13700 350.22100,258.35400 C 350.16900,257.16000 343.18500,256.41600 342.97200,258.15900 z "
       id="path637"
       sodipodi:nodetypes="ccss"
       transform="matrix(-0.721993,-0.303638,-0.313334,0.699651,656.3777,192.0507)" />
    <path
       style="fill:#ffd700;fill-opacity:1.0000000;fill-rule:evenodd;stroke:#000000;stroke-width:0.62500000;stroke-linecap:butt;stroke-linejoin:round;stroke-dasharray:none;stroke-opacity:0.14869900"
       d="M 342.97200,258.15900 C 341.44400,269.84200 342.35200,305.73600 346.00900,304.30000 C 350.05800,305.60500 350.59200,269.13700 350.22100,258.35400 C 350.16900,257.16000 343.18500,256.41600 342.97200,258.15900 z "
       id="path638"
       sodipodi:nodetypes="ccss"
       transform="matrix(-0.560648,-0.535288,-0.552382,0.543299,651.5038,306.3963)" />
    <path
       style="fill:#ffd700;fill-opacity:1.0000000;fill-rule:evenodd;stroke:#000000;stroke-width:0.62500000;stroke-linecap:butt;stroke-linejoin:round;stroke-dasharray:none;stroke-opacity:0.14869900"
       d="M 342.97200,258.15900 C 341.44400,269.84200 342.35200,305.73600 346.00900,304.30000 C 350.05800,305.60500 350.59200,269.13700 350.22100,258.35400 C 350.16900,257.16000 343.18500,256.41600 342.97200,258.15900 z "
       id="path641"
       sodipodi:nodetypes="ccss"
       transform="matrix(-0.307533,-0.702063,-0.724482,0.298016,602.0634,417.7447)" />
    <path
       style="font-size:12.000000px;fill:#ffd700;fill-rule:evenodd;stroke:#000000;stroke-width:0.62500000;stroke-linejoin:round;stroke-opacity:0.38661698"
       d="M 342.97200,258.15900 C 341.44400,269.84200 342.35200,305.73600 346.00900,304.30000 C 350.05800,305.60500 350.59200,269.13700 350.22100,258.35400 C 350.16900,257.16000 343.18500,256.41600 342.97200,258.15900 z "
       id="path602"
       sodipodi:nodetypes="ccss"
       transform="matrix(-1.445744e-16,-0.762697,0.787052,-1.401005e-16,164.0627,504.4059)" />
    <path
       style="font-size:12.000000px;fill:#ffd700;fill-rule:evenodd;stroke:#000000;stroke-width:0.62500000;stroke-linejoin:round;stroke-opacity:0.38661698"
       d="M 343.16800,258.06100 C 339.19100,268.47100 343.54700,273.41900 341.60100,279.02500 C 339.72700,284.42300 331.57600,297.80100 337.78000,303.61400 C 342.71100,303.84200 336.92800,296.23800 346.79200,282.15900 C 351.36700,275.56400 345.59600,271.39000 350.41700,258.45200 C 350.86600,257.34500 343.79500,256.42100 343.16800,258.06100 z "
       id="path604"
       sodipodi:nodetypes="cscsss"
       transform="matrix(-0.787052,0.000000,0.000000,0.762697,616.0369,72.77836)" />
    <path
       style="font-size:12.000000px;fill:#ffd700;fill-rule:evenodd;stroke:#000000;stroke-width:0.62500000;stroke-linejoin:round;stroke-opacity:0.38661698"
       d="M 343.16800,258.06100 C 339.19100,268.47100 343.54700,273.41900 341.60100,279.02500 C 339.72700,284.42300 331.57600,297.80100 337.78000,303.61400 C 342.71100,303.84200 336.92800,296.23800 346.79200,282.15900 C 351.36700,275.56400 345.59600,271.39000 350.41700,258.45200 C 350.86600,257.34500 343.79500,256.42100 343.16800,258.06100 z "
       id="path606"
       sodipodi:nodetypes="cscsss"
       transform="matrix(0.562557,-0.533404,0.550437,0.545148,16.58356,309.5135)" />
    <path
       style="font-size:12.000000px;fill:#ffd700;fill-rule:evenodd;stroke:#000000;stroke-width:0.62500000;stroke-linejoin:round;stroke-opacity:0.38661698"
       d="M 343.16800,258.06100 C 339.19100,268.47100 343.54700,273.41900 341.60100,279.02500 C 339.72700,284.42300 331.57600,297.80100 337.78000,303.61400 C 342.71100,303.84200 336.92800,296.23800 346.79200,282.15900 C 351.36700,275.56400 345.59600,271.39000 350.41700,258.45200 C 350.86600,257.34500 343.79500,256.42100 343.16800,258.06100 z "
       id="path608"
       sodipodi:nodetypes="cscsss"
       transform="matrix(-0.550737,0.544863,0.562262,0.533694,408.4120,-69.79595)" />
    <path
       style="font-size:12.000000px;fill:#ffd700;fill-rule:evenodd;stroke:#000000;stroke-width:0.62500000;stroke-linejoin:round;stroke-opacity:0.38661698"
       d="M 343.16800,258.06100 C 339.19100,268.47100 343.54700,273.41900 341.60100,279.02500 C 339.72700,284.42300 331.57600,297.80100 337.78000,303.61400 C 342.71100,303.84200 336.92800,296.23800 346.79200,282.15900 C 351.36700,275.56400 345.59600,271.39000 350.41700,258.45200 C 350.86600,257.34500 343.79500,256.42100 343.16800,258.06100 z "
       id="path610"
       sodipodi:nodetypes="cscsss"
       transform="matrix(4.530566e-3,-0.762684,0.787039,4.390367e-3,162.1313,509.6946)" />
    <path
       style="font-size:12.000000px;fill:#ffd700;fill-rule:evenodd;stroke:#000000;stroke-width:0.62500000;stroke-linejoin:round;stroke-opacity:0.38661698"
       d="M 342.97200,258.15900 C 341.44400,269.84200 342.35200,305.73600 346.00900,304.30000 C 350.05800,305.60500 350.59200,269.13700 350.22100,258.35400 C 350.16900,257.16000 343.18500,256.41600 342.97200,258.15900 z "
       id="path611"
       sodipodi:nodetypes="ccss"
       transform="matrix(0.721993,-0.303638,0.313334,0.699651,17.30402,192.4451)" />
    <path
       style="font-size:12.000000px;fill:#ffd700;fill-rule:evenodd;stroke:#000000;stroke-width:0.62500000;stroke-linejoin:round;stroke-opacity:0.38661698"
       d="M 342.97200,258.15900 C 341.44400,269.84200 342.35200,305.73600 346.00900,304.30000 C 350.05800,305.60500 350.59200,269.13700 350.22100,258.35400 C 350.16900,257.16000 343.18500,256.41600 342.97200,258.15900 z "
       id="path614"
       sodipodi:nodetypes="ccss"
       transform="matrix(0.560648,-0.535288,0.552382,0.543299,21.69000,306.3963)" />
    <path
       style="font-size:12.000000px;fill:#ffd700;fill-rule:evenodd;stroke:#000000;stroke-width:0.62500000;stroke-linejoin:round;stroke-opacity:0.38661698"
       d="M 342.97200,258.15900 C 341.44400,269.84200 342.35200,305.73600 346.00900,304.30000 C 350.05800,305.60500 350.59200,269.13700 350.22100,258.35400 C 350.16900,257.16000 343.18500,256.41600 342.97200,258.15900 z "
       id="path615"
       sodipodi:nodetypes="ccss"
       transform="matrix(0.307533,-0.702063,0.724482,0.298016,71.77930,417.7447)" />
    <path
       style="font-size:12.000000px;fill:#ffd700;fill-opacity:1.0000000;fill-rule:evenodd;stroke:#000000;stroke-width:0.62500000;stroke-linejoin:round;stroke-opacity:0.14869900"
       d="M 343.16800,258.06100 C 339.19100,268.47100 343.54700,273.41900 341.60100,279.02500 C 339.72700,284.42300 331.57600,297.80100 337.78000,303.61400 C 342.71100,303.84200 336.92800,296.23800 346.79200,282.15900 C 351.36700,275.56400 345.59600,271.39000 350.41700,258.45200 C 350.86600,257.34500 343.79500,256.42100 343.16800,258.06100 z "
       id="path631"
       sodipodi:nodetypes="cscsss"
       transform="matrix(0.562557,-0.533404,0.550437,0.545148,16.58356,309.5135)" />
    <path
       style="font-size:12.000000px;fill:#ffd700;fill-opacity:1.0000000;fill-rule:evenodd;stroke:#000000;stroke-width:0.62500000;stroke-linejoin:round;stroke-opacity:0.14869900"
       d="M 343.16800,258.06100 C 339.19100,268.47100 343.54700,273.41900 341.60100,279.02500 C 339.72700,284.42300 331.57600,297.80100 337.78000,303.61400 C 342.71100,303.84200 336.92800,296.23800 346.79200,282.15900 C 351.36700,275.56400 345.59600,271.39000 350.41700,258.45200 C 350.86600,257.34500 343.79500,256.42100 343.16800,258.06100 z "
       id="path633"
       sodipodi:nodetypes="cscsss"
       transform="matrix(-0.550737,0.544863,0.562262,0.533694,408.4120,-69.79595)" />
    <path
       style="font-size:12.000000px;fill:#ffd700;fill-opacity:1.0000000;fill-rule:evenodd;stroke:#000000;stroke-width:0.62500000;stroke-linejoin:round;stroke-opacity:0.14869900"
       d="M 343.16800,258.06100 C 339.19100,268.47100 343.54700,273.41900 341.60100,279.02500 C 339.72700,284.42300 331.57600,297.80100 337.78000,303.61400 C 342.71100,303.84200 336.92800,296.23800 346.79200,282.15900 C 351.36700,275.56400 345.59600,271.39000 350.41700,258.45200 C 350.86600,257.34500 343.79500,256.42100 343.16800,258.06100 z "
       id="path635"
       sodipodi:nodetypes="cscsss"
       transform="matrix(4.530566e-3,-0.762684,0.787039,4.390367e-3,162.1313,509.6946)" />
    <path
       style="font-size:12.000000px;fill:#ffd700;fill-opacity:1.0000000;fill-rule:evenodd;stroke:#000000;stroke-width:0.62500000;stroke-linejoin:round;stroke-opacity:0.14869900"
       d="M 342.97200,258.15900 C 341.44400,269.84200 342.35200,305.73600 346.00900,304.30000 C 350.05800,305.60500 350.59200,269.13700 350.22100,258.35400 C 350.16900,257.16000 343.18500,256.41600 342.97200,258.15900 z "
       id="path636"
       sodipodi:nodetypes="ccss"
       transform="matrix(0.721993,-0.303638,0.313334,0.699651,17.30402,192.4451)" />
    <path
       style="font-size:12.000000px;fill:#ffd700;fill-opacity:1.0000000;fill-rule:evenodd;stroke:#000000;stroke-width:0.62500000;stroke-linejoin:round;stroke-opacity:0.14869900"
       d="M 342.97200,258.15900 C 341.44400,269.84200 342.35200,305.73600 346.00900,304.30000 C 350.05800,305.60500 350.59200,269.13700 350.22100,258.35400 C 350.16900,257.16000 343.18500,256.41600 342.97200,258.15900 z "
       id="path639"
       sodipodi:nodetypes="ccss"
       transform="matrix(0.560648,-0.535288,0.552382,0.543299,21.69000,306.3963)" />
    <path
       style="font-size:12.000000px;fill:#ffd700;fill-opacity:1.0000000;fill-rule:evenodd;stroke:#000000;stroke-width:0.62500000;stroke-linejoin:round;stroke-opacity:0.14869900"
       d="M 342.97200,258.15900 C 341.44400,269.84200 342.35200,305.73600 346.00900,304.30000 C 350.05800,305.60500 350.59200,269.13700 350.22100,258.35400 C 350.16900,257.16000 343.18500,256.41600 342.97200,258.15900 z "
       id="path640"
       sodipodi:nodetypes="ccss"
       transform="matrix(0.307533,-0.702063,0.724482,0.298016,71.77930,417.7447)" />
    <path
       style="font-size:12.000000px;fill:#ffd700;fill-rule:evenodd;stroke:#000000;stroke-width:0.62500000;stroke-linejoin:round;stroke-opacity:0.38661698"
       d="M 342.97200,258.15900 C 341.44400,269.84200 342.35200,305.73600 346.00900,304.30000 C 350.05800,305.60500 350.59200,269.13700 350.22100,258.35400 C 350.16900,257.16000 343.18500,256.41600 342.97200,258.15900 z "
       id="path686"
       sodipodi:nodetypes="ccss"
       transform="matrix(2.409573e-16,0.762697,-0.787052,2.335008e-16,509.3544,-23.96523)" />
    <path
       style="font-size:12.000000px;fill:#ffd700;fill-rule:evenodd;stroke:#000000;stroke-width:0.62500000;stroke-linejoin:round;stroke-opacity:0.38661698"
       d="M 343.16800,258.06100 C 339.19100,268.47100 343.54700,273.41900 341.60100,279.02500 C 339.72700,284.42300 331.57600,297.80100 337.78000,303.61400 C 342.71100,303.84200 336.92800,296.23800 346.79200,282.15900 C 351.36700,275.56400 345.59600,271.39000 350.41700,258.45200 C 350.86600,257.34500 343.79500,256.42100 343.16800,258.06100 z "
       id="path687"
       sodipodi:nodetypes="cscsss"
       transform="matrix(0.787052,-9.340032e-17,-9.638290e-17,-0.762697,57.38025,407.6624)" />
    <path
       style="font-size:12.000000px;fill:#ffd700;fill-rule:evenodd;stroke:#000000;stroke-width:0.62500000;stroke-linejoin:round;stroke-opacity:0.38661698"
       d="M 343.16800,258.06100 C 339.19100,268.47100 343.54700,273.41900 341.60100,279.02500 C 339.72700,284.42300 331.57600,297.80100 337.78000,303.61400 C 342.71100,303.84200 336.92800,296.23800 346.79200,282.15900 C 351.36700,275.56400 345.59600,271.39000 350.41700,258.45200 C 350.86600,257.34500 343.79500,256.42100 343.16800,258.06100 z "
       id="path688"
       sodipodi:nodetypes="cscsss"
       transform="matrix(-0.562557,0.533404,-0.550437,-0.545148,656.8336,170.9273)" />
    <path
       style="font-size:12.000000px;fill:#ffd700;fill-rule:evenodd;stroke:#000000;stroke-width:0.62500000;stroke-linejoin:round;stroke-opacity:0.38661698"
       d="M 343.16800,258.06100 C 339.19100,268.47100 343.54700,273.41900 341.60100,279.02500 C 339.72700,284.42300 331.57600,297.80100 337.78000,303.61400 C 342.71100,303.84200 336.92800,296.23800 346.79200,282.15900 C 351.36700,275.56400 345.59600,271.39000 350.41700,258.45200 C 350.86600,257.34500 343.79500,256.42100 343.16800,258.06100 z "
       id="path689"
       sodipodi:nodetypes="cscsss"
       transform="matrix(0.550737,-0.544863,-0.562262,-0.533694,265.0051,550.2367)" />
    <path
       style="font-size:12.000000px;fill:#ffd700;fill-rule:evenodd;stroke:#000000;stroke-width:0.62500000;stroke-linejoin:round;stroke-opacity:0.38661698"
       d="M 343.16800,258.06100 C 339.19100,268.47100 343.54700,273.41900 341.60100,279.02500 C 339.72700,284.42300 331.57600,297.80100 337.78000,303.61400 C 342.71100,303.84200 336.92800,296.23800 346.79200,282.15900 C 351.36700,275.56400 345.59600,271.39000 350.41700,258.45200 C 350.86600,257.34500 343.79500,256.42100 343.16800,258.06100 z "
       id="path690"
       sodipodi:nodetypes="cscsss"
       transform="matrix(-4.530566e-3,0.762684,-0.787039,-4.390367e-3,511.2858,-29.25388)" />
    <path
       style="font-size:12.000000px;fill:#ffd700;fill-rule:evenodd;stroke:#000000;stroke-width:0.62500000;stroke-linejoin:round;stroke-opacity:0.38661698"
       d="M 342.97200,258.15900 C 341.44400,269.84200 342.35200,305.73600 346.00900,304.30000 C 350.05800,305.60500 350.59200,269.13700 350.22100,258.35400 C 350.16900,257.16000 343.18500,256.41600 342.97200,258.15900 z "
       id="path691"
       sodipodi:nodetypes="ccss"
       transform="matrix(-0.721993,0.303638,-0.313334,-0.699651,656.1130,287.9957)" />
    <path
       style="font-size:12.000000px;fill:#ffd700;fill-rule:evenodd;stroke:#000000;stroke-width:0.62500000;stroke-linejoin:round;stroke-opacity:0.38661698"
       d="M 342.97200,258.15900 C 341.44400,269.84200 342.35200,305.73600 346.00900,304.30000 C 350.05800,305.60500 350.59200,269.13700 350.22100,258.35400 C 350.16900,257.16000 343.18500,256.41600 342.97200,258.15900 z "
       id="path692"
       sodipodi:nodetypes="ccss"
       transform="matrix(-0.560648,0.535288,-0.552382,-0.543299,651.7272,174.0444)" />
    <path
       style="font-size:12.000000px;fill:#ffd700;fill-rule:evenodd;stroke:#000000;stroke-width:0.62500000;stroke-linejoin:round;stroke-opacity:0.38661698"
       d="M 342.97200,258.15900 C 341.44400,269.84200 342.35200,305.73600 346.00900,304.30000 C 350.05800,305.60500 350.59200,269.13700 350.22100,258.35400 C 350.16900,257.16000 343.18500,256.41600 342.97200,258.15900 z "
       id="path693"
       sodipodi:nodetypes="ccss"
       transform="matrix(-0.307533,0.702063,-0.724482,-0.298016,601.6378,62.69608)" />
    <path
       style="font-size:12.000000px;fill:#ffd700;fill-opacity:1.0000000;fill-rule:evenodd;stroke:#000000;stroke-width:0.62500000;stroke-linejoin:round;stroke-opacity:0.14869900"
       d="M 343.16800,258.06100 C 339.19100,268.47100 343.54700,273.41900 341.60100,279.02500 C 339.72700,284.42300 331.57600,297.80100 337.78000,303.61400 C 342.71100,303.84200 336.92800,296.23800 346.79200,282.15900 C 351.36700,275.56400 345.59600,271.39000 350.41700,258.45200 C 350.86600,257.34500 343.79500,256.42100 343.16800,258.06100 z "
       id="path694"
       sodipodi:nodetypes="cscsss"
       transform="matrix(-0.562557,0.533404,-0.550437,-0.545148,656.8336,170.9273)" />
    <path
       style="font-size:12.000000px;fill:#ffd700;fill-opacity:1.0000000;fill-rule:evenodd;stroke:#000000;stroke-width:0.62500000;stroke-linejoin:round;stroke-opacity:0.14869900"
       d="M 343.16800,258.06100 C 339.19100,268.47100 343.54700,273.41900 341.60100,279.02500 C 339.72700,284.42300 331.57600,297.80100 337.78000,303.61400 C 342.71100,303.84200 336.92800,296.23800 346.79200,282.15900 C 351.36700,275.56400 345.59600,271.39000 350.41700,258.45200 C 350.86600,257.34500 343.79500,256.42100 343.16800,258.06100 z "
       id="path695"
       sodipodi:nodetypes="cscsss"
       transform="matrix(0.550737,-0.544863,-0.562262,-0.533694,265.0051,550.2367)" />
    <path
       style="font-size:12.000000px;fill:#ffd700;fill-opacity:1.0000000;fill-rule:evenodd;stroke:#000000;stroke-width:0.62500000;stroke-linejoin:round;stroke-opacity:0.14869900"
       d="M 343.16800,258.06100 C 339.19100,268.47100 343.54700,273.41900 341.60100,279.02500 C 339.72700,284.42300 331.57600,297.80100 337.78000,303.61400 C 342.71100,303.84200 336.92800,296.23800 346.79200,282.15900 C 351.36700,275.56400 345.59600,271.39000 350.41700,258.45200 C 350.86600,257.34500 343.79500,256.42100 343.16800,258.06100 z "
       id="path696"
       sodipodi:nodetypes="cscsss"
       transform="matrix(-4.530566e-3,0.762684,-0.787039,-4.390367e-3,511.2858,-29.25388)" />
    <path
       style="font-size:12.000000px;fill:#ffd700;fill-opacity:1.0000000;fill-rule:evenodd;stroke:#000000;stroke-width:0.62500000;stroke-linejoin:round;stroke-opacity:0.14869900"
       d="M 342.97200,258.15900 C 341.44400,269.84200 342.35200,305.73600 346.00900,304.30000 C 350.05800,305.60500 350.59200,269.13700 350.22100,258.35400 C 350.16900,257.16000 343.18500,256.41600 342.97200,258.15900 z "
       id="path697"
       sodipodi:nodetypes="ccss"
       transform="matrix(-0.721993,0.303638,-0.313334,-0.699651,656.1130,287.9957)" />
    <path
       style="font-size:12.000000px;fill:#ffd700;fill-opacity:1.0000000;fill-rule:evenodd;stroke:#000000;stroke-width:0.62500000;stroke-linejoin:round;stroke-opacity:0.14869900"
       d="M 342.97200,258.15900 C 341.44400,269.84200 342.35200,305.73600 346.00900,304.30000 C 350.05800,305.60500 350.59200,269.13700 350.22100,258.35400 C 350.16900,257.16000 343.18500,256.41600 342.97200,258.15900 z "
       id="path698"
       sodipodi:nodetypes="ccss"
       transform="matrix(-0.560648,0.535288,-0.552382,-0.543299,651.7272,174.0444)" />
    <path
       style="font-size:12.000000px;fill:#ffd700;fill-opacity:1.0000000;fill-rule:evenodd;stroke:#000000;stroke-width:0.62500000;stroke-linejoin:round;stroke-opacity:0.14869900"
       d="M 342.97200,258.15900 C 341.44400,269.84200 342.35200,305.73600 346.00900,304.30000 C 350.05800,305.60500 350.59200,269.13700 350.22100,258.35400 C 350.16900,257.16000 343.18500,256.41600 342.97200,258.15900 z "
       id="path699"
       sodipodi:nodetypes="ccss"
       transform="matrix(-0.307533,0.702063,-0.724482,-0.298016,601.6378,62.69608)" />
    <path
       style="font-size:12.000000px;fill:#ffd700;fill-rule:evenodd;stroke:#000000;stroke-width:0.62500000;stroke-linejoin:round;stroke-opacity:0.38661698"
       d="M 342.97200,258.15900 C 341.44400,269.84200 342.35200,305.73600 346.00900,304.30000 C 350.05800,305.60500 350.59200,269.13700 350.22100,258.35400 C 350.16900,257.16000 343.18500,256.41600 342.97200,258.15900 z "
       id="path701"
       sodipodi:nodetypes="ccss"
       transform="matrix(-0.787052,2.802010e-16,-2.891487e-16,-0.762697,609.1270,407.5237)" />
    <path
       style="font-size:12.000000px;fill:#ffd700;fill-rule:evenodd;stroke:#000000;stroke-width:0.62500000;stroke-linejoin:round;stroke-opacity:0.38661698"
       d="M 343.16800,258.06100 C 339.19100,268.47100 343.54700,273.41900 341.60100,279.02500 C 339.72700,284.42300 331.57600,297.80100 337.78000,303.61400 C 342.71100,303.84200 336.92800,296.23800 346.79200,282.15900 C 351.36700,275.56400 345.59600,271.39000 350.41700,258.45200 C 350.86600,257.34500 343.79500,256.42100 343.16800,258.06100 z "
       id="path702"
       sodipodi:nodetypes="cscsss"
       transform="matrix(1.445744e-16,0.762697,0.787052,-1.401005e-16,163.7160,-30.46410)" />
    <path
       style="font-size:12.000000px;fill:#ffd700;fill-rule:evenodd;stroke:#000000;stroke-width:0.62500000;stroke-linejoin:round;stroke-opacity:0.38661698"
       d="M 343.16800,258.06100 C 339.19100,268.47100 343.54700,273.41900 341.60100,279.02500 C 339.72700,284.42300 331.57600,297.80100 337.78000,303.61400 C 342.71100,303.84200 336.92800,296.23800 346.79200,282.15900 C 351.36700,275.56400 345.59600,271.39000 350.41700,258.45200 C 350.86600,257.34500 343.79500,256.42100 343.16800,258.06100 z "
       id="path703"
       sodipodi:nodetypes="cscsss"
       transform="matrix(-0.550437,-0.545148,0.562557,-0.533404,408.0109,550.4390)" />
    <path
       style="font-size:12.000000px;fill:#ffd700;fill-rule:evenodd;stroke:#000000;stroke-width:0.62500000;stroke-linejoin:round;stroke-opacity:0.38661698"
       d="M 343.16800,258.06100 C 339.19100,268.47100 343.54700,273.41900 341.60100,279.02500 C 339.72700,284.42300 331.57600,297.80100 337.78000,303.61400 C 342.71100,303.84200 336.92800,296.23800 346.79200,282.15900 C 351.36700,275.56400 345.59600,271.39000 350.41700,258.45200 C 350.86600,257.34500 343.79500,256.42100 343.16800,258.06100 z "
       id="path704"
       sodipodi:nodetypes="cscsss"
       transform="matrix(0.562262,0.533694,0.550737,-0.544863,16.58880,170.7358)" />
    <path
       style="font-size:12.000000px;fill:#ffd700;fill-rule:evenodd;stroke:#000000;stroke-width:0.62500000;stroke-linejoin:round;stroke-opacity:0.38661698"
       d="M 343.16800,258.06100 C 339.19100,268.47100 343.54700,273.41900 341.60100,279.02500 C 339.72700,284.42300 331.57600,297.80100 337.78000,303.61400 C 342.71100,303.84200 336.92800,296.23800 346.79200,282.15900 C 351.36700,275.56400 345.59600,271.39000 350.41700,258.45200 C 350.86600,257.34500 343.79500,256.42100 343.16800,258.06100 z "
       id="path705"
       sodipodi:nodetypes="cscsss"
       transform="matrix(-0.787039,-4.390367e-3,4.530566e-3,-0.762684,614.5845,409.3953)" />
    <path
       style="font-size:12.000000px;fill:#ffd700;fill-rule:evenodd;stroke:#000000;stroke-width:0.62500000;stroke-linejoin:round;stroke-opacity:0.38661698"
       d="M 342.97200,258.15900 C 341.44400,269.84200 342.35200,305.73600 346.00900,304.30000 C 350.05800,305.60500 350.59200,269.13700 350.22100,258.35400 C 350.16900,257.16000 343.18500,256.41600 342.97200,258.15900 z "
       id="path706"
       sodipodi:nodetypes="ccss"
       transform="matrix(-0.313334,-0.699651,0.721993,-0.303638,287.2041,549.7408)" />
    <path
       style="font-size:12.000000px;fill:#ffd700;fill-rule:evenodd;stroke:#000000;stroke-width:0.62500000;stroke-linejoin:round;stroke-opacity:0.38661698"
       d="M 342.97200,258.15900 C 341.44400,269.84200 342.35200,305.73600 346.00900,304.30000 C 350.05800,305.60500 350.59200,269.13700 350.22100,258.35400 C 350.16900,257.16000 343.18500,256.41600 342.97200,258.15900 z "
       id="path707"
       sodipodi:nodetypes="ccss"
       transform="matrix(-0.552382,-0.543299,0.560648,-0.535288,404.7942,545.4906)" />
    <path
       style="font-size:12.000000px;fill:#ffd700;fill-rule:evenodd;stroke:#000000;stroke-width:0.62500000;stroke-linejoin:round;stroke-opacity:0.38661698"
       d="M 342.97200,258.15900 C 341.44400,269.84200 342.35200,305.73600 346.00900,304.30000 C 350.05800,305.60500 350.59200,269.13700 350.22100,258.35400 C 350.16900,257.16000 343.18500,256.41600 342.97200,258.15900 z "
       id="path708"
       sodipodi:nodetypes="ccss"
       transform="matrix(-0.724482,-0.298016,0.307533,-0.702063,519.6982,496.9513)" />
    <path
       style="font-size:12.000000px;fill:#ffd700;fill-opacity:1.0000000;fill-rule:evenodd;stroke:#000000;stroke-width:0.62500000;stroke-linejoin:round;stroke-opacity:0.14869900"
       d="M 343.16800,258.06100 C 339.19100,268.47100 343.54700,273.41900 341.60100,279.02500 C 339.72700,284.42300 331.57600,297.80100 337.78000,303.61400 C 342.71100,303.84200 336.92800,296.23800 346.79200,282.15900 C 351.36700,275.56400 345.59600,271.39000 350.41700,258.45200 C 350.86600,257.34500 343.79500,256.42100 343.16800,258.06100 z "
       id="path709"
       sodipodi:nodetypes="cscsss"
       transform="matrix(-0.550437,-0.545148,0.562557,-0.533404,408.0109,550.4390)" />
    <path
       style="font-size:12.000000px;fill:#ffd700;fill-opacity:1.0000000;fill-rule:evenodd;stroke:#000000;stroke-width:0.62500000;stroke-linejoin:round;stroke-opacity:0.14869900"
       d="M 343.16800,258.06100 C 339.19100,268.47100 343.54700,273.41900 341.60100,279.02500 C 339.72700,284.42300 331.57600,297.80100 337.78000,303.61400 C 342.71100,303.84200 336.92800,296.23800 346.79200,282.15900 C 351.36700,275.56400 345.59600,271.39000 350.41700,258.45200 C 350.86600,257.34500 343.79500,256.42100 343.16800,258.06100 z "
       id="path710"
       sodipodi:nodetypes="cscsss"
       transform="matrix(0.562262,0.533694,0.550737,-0.544863,16.58880,170.7358)" />
    <path
       style="font-size:12.000000px;fill:#ffd700;fill-opacity:1.0000000;fill-rule:evenodd;stroke:#000000;stroke-width:0.62500000;stroke-linejoin:round;stroke-opacity:0.14869900"
       d="M 343.16800,258.06100 C 339.19100,268.47100 343.54700,273.41900 341.60100,279.02500 C 339.72700,284.42300 331.57600,297.80100 337.78000,303.61400 C 342.71100,303.84200 336.92800,296.23800 346.79200,282.15900 C 351.36700,275.56400 345.59600,271.39000 350.41700,258.45200 C 350.86600,257.34500 343.79500,256.42100 343.16800,258.06100 z "
       id="path711"
       sodipodi:nodetypes="cscsss"
       transform="matrix(-0.787039,-4.390367e-3,4.530566e-3,-0.762684,614.5845,409.3953)" />
    <path
       style="font-size:12.000000px;fill:#ffd700;fill-opacity:1.0000000;fill-rule:evenodd;stroke:#000000;stroke-width:0.62500000;stroke-linejoin:round;stroke-opacity:0.14869900"
       d="M 342.97200,258.15900 C 341.44400,269.84200 342.35200,305.73600 346.00900,304.30000 C 350.05800,305.60500 350.59200,269.13700 350.22100,258.35400 C 350.16900,257.16000 343.18500,256.41600 342.97200,258.15900 z "
       id="path712"
       sodipodi:nodetypes="ccss"
       transform="matrix(-0.313334,-0.699651,0.721993,-0.303638,287.2041,549.7408)" />
    <path
       style="font-size:12.000000px;fill:#ffd700;fill-opacity:1.0000000;fill-rule:evenodd;stroke:#000000;stroke-width:0.62500000;stroke-linejoin:round;stroke-opacity:0.14869900"
       d="M 342.97200,258.15900 C 341.44400,269.84200 342.35200,305.73600 346.00900,304.30000 C 350.05800,305.60500 350.59200,269.13700 350.22100,258.35400 C 350.16900,257.16000 343.18500,256.41600 342.97200,258.15900 z "
       id="path713"
       sodipodi:nodetypes="ccss"
       transform="matrix(-0.552382,-0.543299,0.560648,-0.535288,404.7942,545.4906)" />
    <path
       style="font-size:12.000000px;fill:#ffd700;fill-opacity:1.0000000;fill-rule:evenodd;stroke:#000000;stroke-width:0.62500000;stroke-linejoin:round;stroke-opacity:0.14869900"
       d="M 342.97200,258.15900 C 341.44400,269.84200 342.35200,305.73600 346.00900,304.30000 C 350.05800,305.60500 350.59200,269.13700 350.22100,258.35400 C 350.16900,257.16000 343.18500,256.41600 342.97200,258.15900 z "
       id="path714"
       sodipodi:nodetypes="ccss"
       transform="matrix(-0.724482,-0.298016,0.307533,-0.702063,519.6982,496.9513)" />
    <path
       style="font-size:12.000000px;fill:none;fill-rule:evenodd;stroke:#000000;stroke-width:1.0000000pt;stroke-opacity:0.078066893"
       id="path555"
       transform="matrix(0.787052,0.000000,0.000000,0.762697,57.86480,72.97554)" />
    <path
       style="font-size:12.000000px;fill:none;fill-rule:evenodd;stroke:#000000;stroke-width:1.0000000pt;stroke-opacity:0.17100395"
       d="M 328.13900,202.55400 L 324.98800,202.55400"
       id="path577"
       transform="matrix(0.787052,0.000000,0.000000,0.762697,57.86480,72.97554)" />
    <path
       style="font-size:12.000000px;fill:none;fill-rule:evenodd;stroke:#000000;stroke-width:1.0000000pt;stroke-opacity:0.17100395"
       d="M 328.13900,202.55400 L 324.98800,202.55400"
       id="path578"
       transform="matrix(0.787052,0.000000,0.000000,0.762697,57.24482,74.52042)" />
    <path
       style="font-size:12.000000px;fill:none;fill-rule:evenodd;stroke:#000000;stroke-width:1.0000000pt;stroke-opacity:0.17100395"
       d="M 328.13900,202.55400 L 324.98800,202.55400"
       id="path579"
       transform="matrix(0.871379,0.000000,0.000000,0.762697,29.30848,75.97946)" />
    <path
       style="font-size:12.000000px;fill:none;fill-rule:evenodd;stroke:#000000;stroke-width:1.0000000pt;stroke-opacity:0.17100395"
       d="M 328.13900,202.55400 L 324.98800,202.55400"
       id="path580"
       transform="matrix(0.871369,0.000000,0.000000,0.762697,28.51446,77.35264)" />
    <path
       style="font-size:12.000000px;fill:none;fill-rule:evenodd;stroke:#000000;stroke-width:1.0000000pt;stroke-opacity:0.17100395"
       d="M 328.13900,202.55400 L 324.98800,202.55400"
       id="path581"
       transform="matrix(1.040021,0.000000,0.000000,0.762697,-27.00382,78.81168)" />
    <path
       style="font-size:12.000000px;fill:none;fill-rule:evenodd;stroke:#000000;stroke-width:1.0000000pt;stroke-opacity:0.17100395"
       d="M 328.13900,202.55400 L 324.98800,202.55400"
       id="path582"
       transform="matrix(1.152445,0.000000,0.000000,0.762697,-63.80577,80.27073)" />
    <path
       style="font-size:12.000000px;fill:none;fill-rule:evenodd;stroke:#000000;stroke-width:1.0000000pt;stroke-opacity:0.17100395"
       d="M 328.13900,202.55400 L 324.98800,202.55400"
       id="path583"
       transform="matrix(1.096228,0.000000,0.000000,0.762697,-45.89025,81.90144)" />
    <path
       style="font-size:12.000000px;fill:none;fill-rule:evenodd;stroke:#000000;stroke-width:1.0000000pt;stroke-opacity:0.17100395"
       d="M 328.13900,202.55400 L 324.98800,202.55400"
       id="path584"
       transform="matrix(1.068118,0.000000,0.000000,0.762697,-36.48930,83.53210)" />
    <path
       style="font-size:12.000000px;fill:none;fill-rule:evenodd;stroke:#000000;stroke-width:1.0000000pt;stroke-opacity:0.17100395"
       d="M 328.13900,202.55400 L 324.98800,202.55400"
       id="path585"
       transform="matrix(1.096228,0.000000,0.000000,0.762697,-45.71309,85.07698)" />
    <path
       style="font-size:12.000000px;fill:none;fill-rule:evenodd;stroke:#000000;stroke-width:1.0000000pt;stroke-opacity:0.17100395"
       d="M 328.13900,202.55400 L 324.98800,202.55400"
       id="path586"
       transform="matrix(1.377301,0.000000,0.000000,0.762697,-137.0587,86.87931)" />
    <path
       style="font-size:12.000000px;fill:none;fill-rule:evenodd;stroke:#000000;stroke-width:1.0000000pt;stroke-opacity:0.17100395"
       d="M 328.13900,202.55400 L 324.98800,202.55400"
       id="path587"
       transform="matrix(1.180543,0.000000,0.000000,0.762697,-72.84875,88.93921)" />
    <path
       style="font-size:12.000000px;fill:none;fill-rule:evenodd;stroke:#000000;stroke-width:1.0000000pt;stroke-opacity:0.078066893"
       d="M 328.13900,202.55400 L 324.98800,202.55400"
       id="path588"
       transform="matrix(1.180543,0.000000,0.000000,0.762697,-72.76022,90.39825)" />
    <path
       style="font-size:12.000000px;fill:none;fill-rule:evenodd;stroke:#000000;stroke-width:1.0000000pt;stroke-opacity:0.078066893"
       d="M 328.13900,202.55400 L 324.98800,202.55400"
       id="path589"
       transform="matrix(1.180543,0.000000,0.000000,0.762697,-72.14024,92.37228)" />
    <path
       style="font-size:12.000000px;fill:none;fill-rule:evenodd;stroke:#000000;stroke-width:1.0000000pt;stroke-opacity:0.078066893"
       d="M 328.13900,202.55400 L 324.98800,202.55400"
       id="path590"
       transform="matrix(1.180543,0.000000,0.000000,0.762697,-72.05170,94.08886)" />
    <path
       style="font-size:12.000000px;fill:none;fill-rule:evenodd;stroke:#000000;stroke-width:1.0000000pt;stroke-opacity:0.078066893"
       d="M 328.13900,202.55400 L 324.98800,202.55400"
       id="path591"
       transform="matrix(1.180543,0.000000,0.000000,0.762697,-70.98888,95.97702)" />
    <path
       style="font-size:12.000000px;fill:none;fill-rule:evenodd;stroke:#000000;stroke-width:1.0000000pt;stroke-opacity:0.078066893"
       d="M 328.13900,202.55400 L 324.98800,202.55400"
       id="path592"
       transform="matrix(1.180543,0.000000,0.000000,0.762697,-69.92605,97.52190)" />
    <path
       style="font-size:12.000000px;fill:none;fill-rule:evenodd;stroke:#000000;stroke-width:1.0000000pt;stroke-opacity:0.078066893"
       d="M 328.13900,202.55400 L 324.98800,202.55400"
       id="path593"
       transform="matrix(1.180543,0.000000,0.000000,0.762697,-68.95182,99.32423)" />
    <path
       style="font-size:12.000000px;fill:none;fill-rule:evenodd;stroke:#000000;stroke-width:1.0000000pt;stroke-opacity:0.078066893"
       d="M 328.13900,202.55400 L 324.98800,202.55400"
       id="path594"
       transform="matrix(1.180543,0.000000,0.000000,0.762697,-67.80045,101.0408)" />
    <path
       style="font-size:12.000000px;fill:none;fill-rule:evenodd;stroke:#000000;stroke-width:1.0000000pt;stroke-opacity:0.078066893"
       d="M 328.13900,202.55400 L 324.98800,202.55400"
       id="path595"
       transform="matrix(1.180543,0.000000,0.000000,0.762697,-67.00333,102.6715)" />
    <path
       style="font-size:12.000000px;fill:none;fill-rule:evenodd;stroke:#000000;stroke-width:1.0000000pt;stroke-opacity:0.078066893"
       d="M 328.13900,202.55400 L 324.98800,202.55400"
       id="path596"
       transform="matrix(1.180543,0.000000,0.000000,0.762697,-65.32052,104.6455)" />
    <path
       style="font-size:12.000000px;fill:none;fill-rule:evenodd;stroke:#000000;stroke-width:1.0000000pt;stroke-opacity:0.078066893"
       d="M 328.13900,202.55400 L 324.98800,202.55400"
       id="path597"
       transform="matrix(0.758923,0.000000,0.000000,0.762697,73.73789,106.4478)" />
    <path
       style="font-size:12.000000px;fill:none;fill-rule:evenodd;stroke:#000000;stroke-width:1.0000000pt;stroke-opacity:0.078066893"
       d="M 328.13900,202.55400 L 324.98800,202.55400"
       id="path620"
       transform="matrix(1.180543,0.000000,0.000000,0.762697,-72.76022,90.39825)" />
    <path
       style="font-size:12.000000px;fill:none;fill-rule:evenodd;stroke:#000000;stroke-width:1.0000000pt;stroke-opacity:0.078066893"
       d="M 328.13900,202.55400 L 324.98800,202.55400"
       id="path621"
       transform="matrix(1.180543,0.000000,0.000000,0.762697,-72.14024,92.37228)" />
    <path
       style="font-size:12.000000px;fill:none;fill-rule:evenodd;stroke:#000000;stroke-width:1.0000000pt;stroke-opacity:0.078066893"
       d="M 328.13900,202.55400 L 324.98800,202.55400"
       id="path622"
       transform="matrix(1.180543,0.000000,0.000000,0.762697,-72.05170,94.08886)" />
    <path
       style="font-size:12.000000px;fill:none;fill-rule:evenodd;stroke:#000000;stroke-width:1.0000000pt;stroke-opacity:0.078066893"
       d="M 328.13900,202.55400 L 324.98800,202.55400"
       id="path623"
       transform="matrix(1.180543,0.000000,0.000000,0.762697,-70.98888,95.97702)" />
    <path
       style="font-size:12.000000px;fill:none;fill-rule:evenodd;stroke:#000000;stroke-width:1.0000000pt;stroke-opacity:0.078066893"
       d="M 328.13900,202.55400 L 324.98800,202.55400"
       id="path624"
       transform="matrix(1.180543,0.000000,0.000000,0.762697,-69.92605,97.52190)" />
    <path
       style="font-size:12.000000px;fill:none;fill-rule:evenodd;stroke:#000000;stroke-width:1.0000000pt;stroke-opacity:0.078066893"
       d="M 328.13900,202.55400 L 324.98800,202.55400"
       id="path625"
       transform="matrix(1.180543,0.000000,0.000000,0.762697,-68.95182,99.32423)" />
    <path
       style="font-size:12.000000px;fill:none;fill-rule:evenodd;stroke:#000000;stroke-width:1.0000000pt;stroke-opacity:0.078066893"
       d="M 328.13900,202.55400 L 324.98800,202.55400"
       id="path626"
       transform="matrix(1.180543,0.000000,0.000000,0.762697,-67.80045,101.0408)" />
    <path
       style="font-size:12.000000px;fill:none;fill-rule:evenodd;stroke:#000000;stroke-width:1.0000000pt;stroke-opacity:0.078066893"
       d="M 328.13900,202.55400 L 324.98800,202.55400"
       id="path627"
       transform="matrix(1.180543,0.000000,0.000000,0.762697,-67.00333,102.6715)" />
    <path
       style="font-size:12.000000px;fill:none;fill-rule:evenodd;stroke:#000000;stroke-width:1.0000000pt;stroke-opacity:0.078066893"
       d="M 328.13900,202.55400 L 324.98800,202.55400"
       id="path628"
       transform="matrix(1.180543,0.000000,0.000000,0.762697,-65.32052,104.6455)" />
    <path
       style="font-size:12.000000px;fill:none;fill-rule:evenodd;stroke:#000000;stroke-width:1.0000000pt;stroke-opacity:0.078066893"
       d="M 328.13900,202.55400 L 324.98800,202.55400"
       id="path629"
       transform="matrix(0.758923,0.000000,0.000000,0.762697,74.12340,106.2984)" />
    <path
       style="font-size:12.000000px;fill:#00699d;fill-opacity:0.86666697;fill-rule:evenodd;stroke:#000000;stroke-width:1.0000000pt;stroke-opacity:0.078066893"
       id="path749"
       transform="matrix(-0.787052,0.000000,0.000000,0.762697,615.4379,72.58121)" />
    <path
       style="font-size:12.000000px;fill:#00699d;fill-opacity:0.86666697;fill-rule:evenodd;stroke:#000000;stroke-width:1.0000000pt;stroke-opacity:0.13382895"
       d="M 328.13900,202.55400 L 324.98800,202.55400"
       id="path750"
       transform="matrix(-0.787052,0.000000,0.000000,0.762697,615.4379,72.58121)" />
    <path
       style="font-size:12.000000px;fill:#00699d;fill-opacity:0.86666697;fill-rule:evenodd;stroke:#000000;stroke-width:1.0000000pt;stroke-opacity:0.13382895"
       d="M 328.13900,202.55400 L 324.98800,202.55400"
       id="path751"
       transform="matrix(-0.787052,0.000000,0.000000,0.762697,616.0579,74.12605)" />
    <path
       style="font-size:12.000000px;fill:#00699d;fill-opacity:0.86666697;fill-rule:evenodd;stroke:#000000;stroke-width:1.0000000pt;stroke-opacity:0.13382895"
       d="M 328.13900,202.55400 L 324.98800,202.55400"
       id="path752"
       transform="matrix(-0.871379,0.000000,0.000000,0.762697,643.9943,75.58510)" />
    <path
       style="font-size:12.000000px;fill:#00699d;fill-opacity:0.86666697;fill-rule:evenodd;stroke:#000000;stroke-width:1.0000000pt;stroke-opacity:0.13382895"
       d="M 328.13900,202.55400 L 324.98800,202.55400"
       id="path753"
       transform="matrix(-0.871369,0.000000,0.000000,0.762697,644.7883,76.95831)" />
    <path
       style="font-size:12.000000px;fill:#00699d;fill-opacity:0.86666697;fill-rule:evenodd;stroke:#000000;stroke-width:1.0000000pt;stroke-opacity:0.13382895"
       d="M 328.13900,202.55400 L 324.98800,202.55400"
       id="path754"
       transform="matrix(-1.040021,0.000000,0.000000,0.762697,700.3065,78.41736)" />
    <path
       style="font-size:12.000000px;fill:#00699d;fill-opacity:0.86666697;fill-rule:evenodd;stroke:#000000;stroke-width:1.0000000pt;stroke-opacity:0.13382895"
       d="M 328.13900,202.55400 L 324.98800,202.55400"
       id="path755"
       transform="matrix(-1.152445,0.000000,0.000000,0.762697,737.1085,79.87637)" />
    <path
       style="font-size:12.000000px;fill:#00699d;fill-opacity:0.86666697;fill-rule:evenodd;stroke:#000000;stroke-width:1.0000000pt;stroke-opacity:0.13382895"
       d="M 328.13900,202.55400 L 324.98800,202.55400"
       id="path756"
       transform="matrix(-1.096228,0.000000,0.000000,0.762697,719.1930,81.50707)" />
    <path
       style="font-size:12.000000px;fill:#00699d;fill-opacity:0.86666697;fill-rule:evenodd;stroke:#000000;stroke-width:1.0000000pt;stroke-opacity:0.13382895"
       d="M 328.13900,202.55400 L 324.98800,202.55400"
       id="path757"
       transform="matrix(-1.068118,0.000000,0.000000,0.762697,709.7919,83.13778)" />
    <path
       style="font-size:12.000000px;fill:#00699d;fill-opacity:0.86666697;fill-rule:evenodd;stroke:#000000;stroke-width:1.0000000pt;stroke-opacity:0.13382895"
       d="M 328.13900,202.55400 L 324.98800,202.55400"
       id="path758"
       transform="matrix(-1.096228,0.000000,0.000000,0.762697,719.0158,84.68262)" />
    <path
       style="font-size:12.000000px;fill:#00699d;fill-opacity:0.86666697;fill-rule:evenodd;stroke:#000000;stroke-width:1.0000000pt;stroke-opacity:0.13382895"
       d="M 328.13900,202.55400 L 324.98800,202.55400"
       id="path759"
       transform="matrix(-1.377301,0.000000,0.000000,0.762697,810.3614,86.48499)" />
    <path
       style="font-size:12.000000px;fill:#00699d;fill-opacity:0.86666697;fill-rule:evenodd;stroke:#000000;stroke-width:1.0000000pt;stroke-opacity:0.13382895"
       d="M 328.13900,202.55400 L 324.98800,202.55400"
       id="path760"
       transform="matrix(-1.180543,0.000000,0.000000,0.762697,746.1515,88.54488)" />
    <path
       style="font-size:12.000000px;fill:#00699d;fill-opacity:0.86666697;fill-rule:evenodd;stroke:#000000;stroke-width:1.0000000pt;stroke-opacity:0.063196965"
       d="M 328.13900,202.55400 L 324.98800,202.55400"
       id="path761"
       transform="matrix(-1.180543,0.000000,0.000000,0.762697,746.0630,90.00393)" />
    <path
       style="font-size:12.000000px;fill:#00699d;fill-opacity:0.86666697;fill-rule:evenodd;stroke:#000000;stroke-width:1.0000000pt;stroke-opacity:0.063196965"
       d="M 328.13900,202.55400 L 324.98800,202.55400"
       id="path762"
       transform="matrix(-1.180543,0.000000,0.000000,0.762697,745.4430,91.97792)" />
    <path
       style="font-size:12.000000px;fill:#00699d;fill-opacity:0.86666697;fill-rule:evenodd;stroke:#000000;stroke-width:1.0000000pt;stroke-opacity:0.063196965"
       d="M 328.13900,202.55400 L 324.98800,202.55400"
       id="path763"
       transform="matrix(-1.180543,0.000000,0.000000,0.762697,745.3544,93.69450)" />
    <path
       style="font-size:12.000000px;fill:#00699d;fill-opacity:0.86666697;fill-rule:evenodd;stroke:#000000;stroke-width:1.0000000pt;stroke-opacity:0.063196965"
       d="M 328.13900,202.55400 L 324.98800,202.55400"
       id="path764"
       transform="matrix(-1.180543,0.000000,0.000000,0.762697,744.2915,95.58270)" />
    <path
       style="font-size:12.000000px;fill:#00699d;fill-opacity:0.86666697;fill-rule:evenodd;stroke:#000000;stroke-width:1.0000000pt;stroke-opacity:0.063196965"
       d="M 328.13900,202.55400 L 324.98800,202.55400"
       id="path765"
       transform="matrix(-1.180543,0.000000,0.000000,0.762697,743.2288,97.12753)" />
    <path
       style="font-size:12.000000px;fill:#00699d;fill-opacity:0.86666697;fill-rule:evenodd;stroke:#000000;stroke-width:1.0000000pt;stroke-opacity:0.063196965"
       d="M 328.13900,202.55400 L 324.98800,202.55400"
       id="path766"
       transform="matrix(-1.180543,0.000000,0.000000,0.762697,742.2546,98.92990)" />
    <path
       style="font-size:12.000000px;fill:#00699d;fill-opacity:0.86666697;fill-rule:evenodd;stroke:#000000;stroke-width:1.0000000pt;stroke-opacity:0.063196965"
       d="M 328.13900,202.55400 L 324.98800,202.55400"
       id="path767"
       transform="matrix(-1.180543,0.000000,0.000000,0.762697,741.1032,100.6464)" />
    <path
       style="font-size:12.000000px;fill:#00699d;fill-opacity:0.86666697;fill-rule:evenodd;stroke:#000000;stroke-width:1.0000000pt;stroke-opacity:0.063196965"
       d="M 328.13900,202.55400 L 324.98800,202.55400"
       id="path768"
       transform="matrix(-1.180543,0.000000,0.000000,0.762697,740.3060,102.2771)" />
    <path
       style="font-size:12.000000px;fill:#00699d;fill-opacity:0.86666697;fill-rule:evenodd;stroke:#000000;stroke-width:1.0000000pt;stroke-opacity:0.063196965"
       d="M 328.13900,202.55400 L 324.98800,202.55400"
       id="path769"
       transform="matrix(-1.180543,0.000000,0.000000,0.762697,738.6233,104.2511)" />
    <path
       style="font-size:12.000000px;fill:#00699d;fill-opacity:0.86666697;fill-rule:evenodd;stroke:#000000;stroke-width:1.0000000pt;stroke-opacity:0.063196965"
       d="M 328.13900,202.55400 L 324.98800,202.55400"
       id="path770"
       transform="matrix(-0.758923,0.000000,0.000000,0.762697,599.5648,106.0535)" />
    <path
       style="font-size:12.000000px;fill:none;fill-opacity:0.86666697;fill-rule:evenodd;stroke:#000000;stroke-width:1.0000000pt;stroke-opacity:0.063196965"
       d="M 328.13900,202.55400 L 324.98800,202.55400"
       id="path771"
       transform="matrix(-1.180543,0.000000,0.000000,0.762697,746.0630,90.00393)" />
    <path
       style="font-size:12.000000px;fill:none;fill-opacity:0.86666697;fill-rule:evenodd;stroke:#000000;stroke-width:1.0000000pt;stroke-opacity:0.063196965"
       d="M 328.13900,202.55400 L 324.98800,202.55400"
       id="path772"
       transform="matrix(-1.180543,0.000000,0.000000,0.762697,745.4430,91.97792)" />
    <path
       style="font-size:12.000000px;fill:none;fill-opacity:0.86666697;fill-rule:evenodd;stroke:#000000;stroke-width:1.0000000pt;stroke-opacity:0.063196965"
       d="M 328.13900,202.55400 L 324.98800,202.55400"
       id="path773"
       transform="matrix(-1.180543,0.000000,0.000000,0.762697,745.3544,93.69450)" />
    <path
       style="font-size:12.000000px;fill:none;fill-opacity:0.86666697;fill-rule:evenodd;stroke:#000000;stroke-width:1.0000000pt;stroke-opacity:0.063196965"
       d="M 328.13900,202.55400 L 324.98800,202.55400"
       id="path774"
       transform="matrix(-1.180543,0.000000,0.000000,0.762697,744.2915,95.58270)" />
    <path
       style="font-size:12.000000px;fill:none;fill-opacity:0.86666697;fill-rule:evenodd;stroke:#000000;stroke-width:1.0000000pt;stroke-opacity:0.063196965"
       d="M 328.13900,202.55400 L 324.98800,202.55400"
       id="path775"
       transform="matrix(-1.180543,0.000000,0.000000,0.762697,743.2288,97.12753)" />
    <path
       style="font-size:12.000000px;fill:none;fill-opacity:0.86666697;fill-rule:evenodd;stroke:#000000;stroke-width:1.0000000pt;stroke-opacity:0.063196965"
       d="M 328.13900,202.55400 L 324.98800,202.55400"
       id="path776"
       transform="matrix(-1.180543,0.000000,0.000000,0.762697,742.2546,98.92990)" />
    <path
       style="font-size:12.000000px;fill:none;fill-opacity:0.86666697;fill-rule:evenodd;stroke:#000000;stroke-width:1.0000000pt;stroke-opacity:0.063196965"
       d="M 328.13900,202.55400 L 324.98800,202.55400"
       id="path777"
       transform="matrix(-1.180543,0.000000,0.000000,0.762697,741.1032,100.6464)" />
    <path
       style="font-size:12.000000px;fill:none;fill-opacity:0.86666697;fill-rule:evenodd;stroke:#000000;stroke-width:1.0000000pt;stroke-opacity:0.063196965"
       d="M 328.13900,202.55400 L 324.98800,202.55400"
       id="path778"
       transform="matrix(-1.180543,0.000000,0.000000,0.762697,740.3060,102.2771)" />
    <path
       style="font-size:12.000000px;fill:none;fill-opacity:0.86666697;fill-rule:evenodd;stroke:#000000;stroke-width:1.0000000pt;stroke-opacity:0.063196965"
       d="M 328.13900,202.55400 L 324.98800,202.55400"
       id="path779"
       transform="matrix(-1.180543,0.000000,0.000000,0.762697,738.6233,104.2511)" />
    <path
       style="font-size:12.000000px;fill:none;fill-opacity:0.86666697;fill-rule:evenodd;stroke:#000000;stroke-width:1.0000000pt;stroke-opacity:0.063196965"
       d="M 328.13900,202.55400 L 324.98800,202.55400"
       id="path780"
       transform="matrix(-0.758923,0.000000,0.000000,0.762697,599.5648,106.0535)" />
    <path
       style="fill:#f0bf00;fill-opacity:1.0000000;fill-rule:evenodd;stroke:#000000;stroke-width:0.62500000;stroke-linecap:butt;stroke-linejoin:round;stroke-dasharray:none;stroke-opacity:0.38661698"
       d="M 330.83700,211.82600 C 338.36200,206.99600 348.30100,209.51600 352.46600,212.14100 C 346.37600,210.98600 346.27100,210.46100 341.86100,210.35600 C 338.74600,210.46200 334.16200,210.14600 330.83700,211.82600 z "
       id="path781"
       sodipodi:nodetypes="cccc"
       transform="matrix(-0.787052,0.000000,0.000000,0.762697,615.8043,72.18681)" />
    <path
       style="fill:none;fill-opacity:1.0000000;fill-rule:evenodd;stroke:#000000;stroke-width:0.62500000;stroke-linecap:butt;stroke-linejoin:miter;stroke-dasharray:none;stroke-opacity:0.38661698"
       d="M 348.05600,211.30100 C 344.38100,218.96600 337.97700,219.07100 333.46200,210.88100"
       id="path782"
       sodipodi:nodetypes="cc"
       transform="matrix(0.787052,0.000000,0.000000,0.762697,78.00887,71.98959)" />
    <path
       sodipodi:type="arc"
       style="fill:#000000;fill-opacity:0.36802998;fill-rule:evenodd;stroke:none;stroke-width:1.0000000pt;stroke-linecap:butt;stroke-linejoin:miter;stroke-opacity:0.36999997"
       id="path783"
       d="M 345.53632 212.87613 A 3.6748049 1.6799090 0 1 1  338.18671,212.87613 A 3.6748049 1.6799090 0 1 1  345.53632 212.87613 z"
       sodipodi:cx="341.86151"
       sodipodi:cy="212.87613"
       sodipodi:rx="3.6748049"
       sodipodi:ry="1.6799090"
       transform="matrix(0.881145,0.118138,-0.954787,0.968016,249.1766,-11.90186)" />
    <path
       sodipodi:type="arc"
       style="fill:#ffd700;fill-opacity:1.0000000;fill-rule:evenodd;stroke:none;stroke-width:1.0000000pt;stroke-linecap:butt;stroke-linejoin:miter;stroke-opacity:0.38661698"
       id="path784"
       d="M 344.06639 212.56116 A 0.73496997 0.41997501 0 1 1  342.59645,212.56116 A 0.73496997 0.41997501 0 1 1  344.06639 212.56116 z"
       sodipodi:cx="343.33142"
       sodipodi:cy="212.56116"
       sodipodi:rx="0.73496997"
       sodipodi:ry="0.41997501"
       transform="matrix(1.047637,-0.342831,0.381378,0.941748,-95.36562,151.5193)" />
  </g>
</svg>
