<?xml version="1.0" encoding="UTF-8" standalone="no"?>

<svg
   xmlns:dc="http://purl.org/dc/elements/1.1/"
   xmlns:cc="http://creativecommons.org/ns#"
   xmlns:rdf="http://www.w3.org/1999/02/22-rdf-syntax-ns#"
   xmlns:svg="http://www.w3.org/2000/svg"
   xmlns="http://www.w3.org/2000/svg"
   xmlns:sodipodi="http://sodipodi.sourceforge.net/DTD/sodipodi-0.dtd"
   xmlns:inkscape="http://www.inkscape.org/namespaces/inkscape"
   width="1200"
   height="800"
   id="svg1940"
   version="1.1">
  <defs
     id="defs1942">
    <inkscape:perspective
       sodipodi:type="inkscape:persp3d"
       inkscape:vp_x="0 : 472.44 : 1"
       inkscape:vp_y="0 : 1000 : 0"
       inkscape:vp_z="1417.3199 : 472.44 : 1"
       inkscape:persp3d-origin="708.65997 : 314.96 : 1"
       id="perspective49" />
  </defs>
  <sodipodi:namedview
     id="base"
     pagecolor="#ffffff"
     bordercolor="#666666"
     borderopacity="1.0"
     inkscape:pageopacity="0.0"
     inkscape:pageshadow="2"
     inkscape:zoom="0.32361491"
     inkscape:cx="187.98086"
     inkscape:cy="335.9668"
     inkscape:document-units="px"
     inkscape:current-layer="layer1"
     inkscape:window-width="1374"
     inkscape:window-height="703"
     inkscape:window-x="35"
     inkscape:window-y="68"
     showgrid="false"
     inkscape:window-maximized="0" />
  <metadata
     id="metadata1945">
    <rdf:RDF>
      <cc:Work
         rdf:about="">
        <dc:format>image/svg+xml</dc:format>
        <dc:type
           rdf:resource="http://purl.org/dc/dcmitype/StillImage" />
      </cc:Work>
    </rdf:RDF>
  </metadata>
  <g
     inkscape:label="Layer 1"
     inkscape:groupmode="layer"
     id="layer1"
     transform="translate(0,-144.88)">
    <rect
       style="font-size:12px;fill:#ffffff;fill-opacity:1;fill-rule:evenodd;stroke-width:1pt"
       id="rect2965"
       width="1200"
       height="800"
       x="0"
       y="144.88" />
    <path
       style="fill:#0080ff;fill-opacity:1;fill-rule:evenodd;stroke:none"
       d="m 89.999826,144.88008 45.000324,120.0002 134.9993,39.99955 L 224.99997,184.88019 89.999826,144.88008 z"
       id="path2877"
       sodipodi:nodetypes="ccccc" />
    <path
       style="fill:#0080ff;fill-opacity:1;fill-rule:evenodd;stroke:none"
       d="M 90.000672,464.88031 135.00184,584.88048 270.0003,624.88004 225.00166,504.88062 90.000672,464.88031 z"
       id="path2917"
       sodipodi:nodetypes="ccccc" />
    <path
       style="fill:#0080ff;fill-opacity:1;fill-rule:evenodd;stroke:none"
       d="M 4.406966e-6,544.88018 45.001183,664.87809 179.99963,704.8784 135.001,584.88048 4.406966e-6,544.88018 z"
       id="path2918"
       sodipodi:nodetypes="ccccc" />
    <path
       style="fill:#0080ff;fill-opacity:1;fill-rule:evenodd;stroke:none"
       d="M 180.00048,704.88141 225.00166,824.88008 360.00012,864.88039 315.00149,744.87946 180.00048,704.88141 z"
       id="path2919"
       sodipodi:nodetypes="ccccc" />
    <path
       style="fill:#0080ff;fill-opacity:1;fill-rule:evenodd;stroke:none"
       d="M 180.00048,384.88045 225.00166,504.87911 360.00012,544.87942 315.00149,424.8785 180.00048,384.88045 z"
       id="path2920"
       sodipodi:nodetypes="ccccc" />
    <path
       style="fill:#0080ff;fill-opacity:1;fill-rule:evenodd;stroke:none"
       d="M 1.2873632e-5,224.88072 45.001521,344.88089 179.99963,384.88045 135.001,264.88102 1.2873632e-5,224.88072 z"
       id="path2921"
       sodipodi:nodetypes="ccccc" />
    <path
       style="fill:#0080ff;fill-opacity:1;fill-rule:evenodd;stroke:none"
       d="M 270.0003,624.8808 315.00149,744.88096 449.99994,784.88052 405.0013,664.88111 270.0003,624.8808 z"
       id="path2922"
       sodipodi:nodetypes="ccccc" />
    <path
       style="fill:#0080ff;fill-opacity:1;fill-rule:evenodd;stroke:none"
       d="m 4.406966e-6,651.54667 0,106.66723 L 89.999826,784.88052 45.001352,664.88261 4.406966e-6,651.54667 z"
       id="path2923"
       sodipodi:nodetypes="ccccc" />
    <path
       style="fill:#0080ff;fill-opacity:1;fill-rule:evenodd;stroke:none"
       d="M 90.000672,784.88128 135.00184,904.87843 270.0003,944.87883 225.00166,824.87933 90.000672,784.88128 z"
       id="path2924"
       sodipodi:nodetypes="ccccc" />
    <path
       style="fill:#0080ff;fill-opacity:1;fill-rule:evenodd;stroke:none"
       d="m 360.00012,544.88093 45.00118,119.99866 134.99846,40.00032 -44.99864,-120.00093 -135.001,-39.99805 z"
       id="path2925"
       sodipodi:nodetypes="ccccc" />
    <path
       style="fill:#0080ff;fill-opacity:1;fill-rule:evenodd;stroke:none"
       d="m 360.00012,864.88039 29.99994,79.99844 119.99976,0 -15.00209,-40.0004 -134.99761,-39.99804 z"
       id="path2927"
       sodipodi:nodetypes="ccccc" />
    <path
       style="fill:#0080ff;fill-opacity:1;fill-rule:evenodd;stroke:none"
       d="m 0.00203641,864.88039 29.99799159,79.99844 119.999672,0 -15.0004,-40.0004 L 0.00203641,864.88039 z"
       id="path2928"
       sodipodi:nodetypes="ccccc" />
    <path
       style="fill:#0080ff;fill-opacity:1;fill-rule:evenodd;stroke:none"
       d="m 719.99855,864.88114 30.00163,79.99769 120.00059,0 -15.00293,-40.0004 -134.99929,-39.99729 z"
       id="path2929"
       sodipodi:nodetypes="ccccc" />
    <path
       style="fill:#0080ff;fill-opacity:1;fill-rule:evenodd;stroke:none"
       d="M 629.99958,624.88155 674.99991,744.88022 810.0009,784.88052 765.00057,664.87959 629.99958,624.88155 z"
       id="path2930"
       sodipodi:nodetypes="ccccc" />
    <path
       style="fill:#0080ff;fill-opacity:1;fill-rule:evenodd;stroke:none"
       d="m 449.99994,144.88039 45.00118,119.99989 134.99846,39.99955 -44.99864,-119.99912 -135.001,-40.00032 z"
       id="path2931"
       sodipodi:nodetypes="ccccc" />
    <path
       style="fill:#0080ff;fill-opacity:1;fill-rule:evenodd;stroke:none"
       d="m 899.99817,704.87991 45.00033,120.00017 135.001,39.99956 -45.0003,-119.99942 -135.00103,-40.00031 z"
       id="path2932"
       sodipodi:nodetypes="ccccc" />
    <path
       style="fill:#0080ff;fill-opacity:1;fill-rule:evenodd;stroke:none"
       d="m 540.0023,704.87991 45.00118,119.99792 134.99676,40.0003 L 674.99991,744.88022 540.0023,704.87991 z"
       id="path2933"
       sodipodi:nodetypes="ccccc" />
    <path
       style="fill:#0080ff;fill-opacity:1;fill-rule:evenodd;stroke:none"
       d="m 810.00006,784.88128 44.99778,119.99715 135.001,40.0004 -45.00034,-119.9995 -134.99844,-39.99805 z"
       id="path2934"
       sodipodi:nodetypes="ccccc" />
    <path
       style="fill:#0080ff;fill-opacity:1;fill-rule:evenodd;stroke:none"
       d="m 449.99909,464.88031 45.00034,119.99867 135.00099,40.00031 -45.00033,-120.00092 -135.001,-39.99806 z"
       id="path2935"
       sodipodi:nodetypes="ccccc" />
    <path
       style="fill:#0080ff;fill-opacity:1;fill-rule:evenodd;stroke:none"
       d="M 270.00199,304.88134 314.99895,424.88076 449.99994,464.88031 404.99961,344.88165 270.00199,304.88134 z"
       id="path2937"
       sodipodi:nodetypes="ccccc" />
    <path
       style="fill:#0080ff;fill-opacity:1;fill-rule:evenodd;stroke:none"
       d="m 4.406966e-6,331.54645 0,106.66725 L 89.998132,464.88031 44.997627,344.8824 4.406966e-6,331.54645 z"
       id="path2938"
       sodipodi:nodetypes="ccccc" />
    <path
       style="fill:#0080ff;fill-opacity:1;fill-rule:evenodd;stroke:none"
       d="m 449.99994,784.88052 45.00033,119.99791 135.001,40.0004 -45.00033,-120.00026 -135.001,-39.99805 z"
       id="path2939"
       sodipodi:nodetypes="ccccc" />
    <path
       style="fill:#0080ff;fill-opacity:1;fill-rule:evenodd;stroke:none"
       d="m 209.99957,144.8801 15.0004,40.00046 135.001,39.99941 -30.00079,-79.99987 -120.00061,0 z"
       id="path2940"
       sodipodi:nodetypes="ccccc" />
    <path
       style="fill:#0080ff;fill-opacity:1;fill-rule:evenodd;stroke:none"
       d="M 360.00012,224.87997 405.0013,344.88014 539.99976,384.8797 495.00112,264.88028 360.00012,224.87997 z"
       id="path2942"
       sodipodi:nodetypes="ccccc" />
    <path
       style="fill:#0080ff;fill-opacity:1;fill-rule:evenodd;stroke:none"
       d="m 1079.9995,864.88039 29.9974,79.99844 90.0007,0 0,-45.38896 -119.9981,-34.60948 z"
       id="path2948"
       sodipodi:nodetypes="ccccc" />
    <path
       style="fill:#0080ff;fill-opacity:1;fill-rule:evenodd;stroke:none"
       d="M 539.99976,384.88045 585.00094,504.87987 719.99939,544.87942 675.00075,424.88076 539.99976,384.88045 z"
       id="path2949"
       sodipodi:nodetypes="ccccc" />
    <path
       style="fill:#0080ff;fill-opacity:1;fill-rule:evenodd;stroke:none"
       d="M 629.99958,304.87983 675.00075,424.87926 809.99921,464.87881 765.00057,344.88014 629.99958,304.87983 z"
       id="path2950"
       sodipodi:nodetypes="ccccc" />
    <path
       style="fill:#0080ff;fill-opacity:1;fill-rule:evenodd;stroke:none"
       d="m 569.9997,144.8801 15.00208,40.00046 134.99846,39.99941 -29.99994,-79.99987 -120.0006,0 z"
       id="path2951"
       sodipodi:nodetypes="ccccc" />
    <path
       style="fill:#0080ff;fill-opacity:1;fill-rule:evenodd;stroke:none"
       d="m 720.00024,224.87997 45.00118,119.99942 134.99675,39.99955 -45.00033,-119.99866 -134.9976,-40.00031 z"
       id="path2952"
       sodipodi:nodetypes="ccccc" />
    <path
       style="fill:#0080ff;fill-opacity:1;fill-rule:evenodd;stroke:none"
       d="m 720.00024,544.88093 45.00118,119.99942 134.99675,39.99956 -45.00033,-119.99867 -134.9976,-40.00031 z"
       id="path2953"
       sodipodi:nodetypes="ccccc" />
    <path
       style="fill:#0080ff;fill-opacity:1;fill-rule:evenodd;stroke:none"
       d="M 810.00175,464.88031 855.00631,584.87974 989.99884,624.87929 944.9985,504.88062 810.00175,464.88031 z"
       id="path2954"
       sodipodi:nodetypes="ccccc" />
    <path
       style="fill:#0080ff;fill-opacity:1;fill-rule:evenodd;stroke:none"
       d="m 899.99817,384.8812 45.0088,119.99942 134.99253,39.99956 -45.0003,-119.99867 -135.00103,-40.00031 z"
       id="path2955"
       sodipodi:nodetypes="ccccc" />
    <path
       style="fill:#0080ff;fill-opacity:1;fill-rule:evenodd;stroke:none"
       d="M 810.00006,144.88005 855.00631,264.87952 989.99884,304.87908 944.9985,184.88034 810.00006,144.88005 z"
       id="path2956"
       sodipodi:nodetypes="ccccc" />
    <path
       style="fill:#0080ff;fill-opacity:1;fill-rule:evenodd;stroke:none"
       d="m 989.99884,304.88134 45.00876,119.99942 134.9926,39.99955 -45.0004,-119.99866 -135.00096,-40.00031 z"
       id="path2957"
       sodipodi:nodetypes="ccccc" />
    <path
       style="fill:#0080ff;fill-opacity:1;fill-rule:evenodd;stroke:none"
       d="m 930.00404,144.8801 15.00293,40.00039 134.99253,39.99948 -29.9974,-79.99987 -119.99806,0 z"
       id="path2958"
       sodipodi:nodetypes="ccccc" />
    <path
       style="fill:#0080ff;fill-opacity:1;fill-rule:evenodd;stroke:none"
       d="m 1079.9995,224.87997 45.0088,119.99942 74.9893,21.33375 0,-106.66649 -119.9981,-34.66668 z"
       id="path2959"
       sodipodi:nodetypes="ccccc" />
    <path
       style="fill:#0080ff;fill-opacity:1;fill-rule:evenodd;stroke:none"
       d="m 1079.9995,544.88018 45.0088,119.99941 74.9893,21.33375 0,-106.66648 -119.9981,-34.66668 z"
       id="path2960"
       sodipodi:nodetypes="ccccc" />
    <path
       style="fill:#0080ff;fill-opacity:1;fill-rule:evenodd;stroke:none"
       d="m 1170.0002,464.88031 29.9974,87.99993 0,-79.62658 -29.9974,-8.37335 z"
       id="path2961"
       sodipodi:nodetypes="cccc" />
    <path
       style="fill:#0080ff;fill-opacity:1;fill-rule:evenodd;stroke:none"
       d="m 989.99884,624.88004 45.00876,119.99942 134.9926,39.99956 -45.0004,-119.99867 -135.00096,-40.00031 z"
       id="path2962"
       sodipodi:nodetypes="ccccc" />
    <path
       style="fill:#0080ff;fill-opacity:1;fill-rule:evenodd;stroke:none"
       d="m 1170.0002,784.88128 29.9974,79.99911 0,-71.94713 -29.9974,-8.05198 z"
       id="path2963"
       sodipodi:nodetypes="cccc" />
    <path
       style="fill:#0080ff;fill-opacity:1;fill-rule:evenodd;stroke:none"
       d="m 1170.0002,144.88154 29.9974,79.99843 0,-71.30659 -29.9974,-8.69184 z"
       id="path2964"
       sodipodi:nodetypes="cccc" />
  </g>
</svg>
