<?xml version="1.0" encoding="UTF-8" standalone="no"?>
<!-- Created with Inkscape (http://www.inkscape.org/) -->
<svg
   xmlns:dc="http://purl.org/dc/elements/1.1/"
   xmlns:cc="http://web.resource.org/cc/"
   xmlns:rdf="http://www.w3.org/1999/02/22-rdf-syntax-ns#"
   xmlns:svg="http://www.w3.org/2000/svg"
   xmlns="http://www.w3.org/2000/svg"
   xmlns:sodipodi="http://inkscape.sourceforge.net/DTD/sodipodi-0.dtd"
   xmlns:inkscape="http://www.inkscape.org/namespaces/inkscape"
   width="1417.3200px"
   height="944.88000px"
   id="svg1940"
   sodipodi:version="0.32"
   inkscape:version="0.42"
   sodipodi:docbase="/Users/daniel/Desktop/test"
   sodipodi:docname="bavarian.svg">
  <defs
     id="defs1942" />
  <sodipodi:namedview
     id="base"
     pagecolor="#ffffff"
     bordercolor="#666666"
     borderopacity="1.0"
     inkscape:pageopacity="0.0"
     inkscape:pageshadow="2"
     inkscape:zoom="0.32361491"
     inkscape:cx="708.66144"
     inkscape:cy="419.07788"
     inkscape:document-units="px"
     inkscape:current-layer="layer1"
     inkscape:window-width="701"
     inkscape:window-height="507"
     inkscape:window-x="35"
     inkscape:window-y="68" />
  <metadata
     id="metadata1945">
    <rdf:RDF>
      <cc:Work
         rdf:about="">
        <dc:format>image/svg+xml</dc:format>
        <dc:type
           rdf:resource="http://purl.org/dc/dcmitype/StillImage" />
      </cc:Work>
    </rdf:RDF>
  </metadata>
  <g
     inkscape:label="Layer 1"
     inkscape:groupmode="layer"
     id="layer1">
    <rect
       style="font-size:12.000000px;fill:#ffffff;fill-opacity:1.0000000;fill-rule:evenodd;stroke-width:1.0000000pt"
       id="rect2965"
       width="1417.3229"
       height="1062.9918"
       x="0.0000000"
       y="-0.0018164063" />
    <path
       style="fill:#0080ff;fill-opacity:1.0000000;fill-rule:evenodd;stroke:none;stroke-width:1.0000000pt;stroke-linecap:butt;stroke-linejoin:miter;stroke-opacity:1.0000000"
       d="M 106.29901,-0.0017100000 L 159.44900,159.44731 L 318.89700,212.59631 L 265.74800,53.148014 L 106.29901,-0.0017100000 z "
       id="path2877"
       sodipodi:nodetypes="ccccc" />
    <path
       style="fill:#0080ff;fill-opacity:1.0000000;fill-rule:evenodd;stroke:none;stroke-width:1.0000000pt;stroke-linecap:butt;stroke-linejoin:miter;stroke-opacity:1.0000000"
       d="M 106.30001,425.19531 L 159.45100,584.64431 L 318.89800,637.79331 L 265.75000,478.34531 L 106.30001,425.19531 z "
       id="path2917"
       sodipodi:nodetypes="ccccc" />
    <path
       style="fill:#0080ff;fill-opacity:1.0000000;fill-rule:evenodd;stroke:none;stroke-width:1.0000000pt;stroke-linecap:butt;stroke-linejoin:miter;stroke-opacity:1.0000000"
       d="M 5.2050781e-06,531.49431 L 53.151005,690.94031 L 212.59800,744.09031 L 159.45000,584.64431 L 5.2050781e-06,531.49431 z "
       id="path2918"
       sodipodi:nodetypes="ccccc" />
    <path
       style="fill:#0080ff;fill-opacity:1.0000000;fill-rule:evenodd;stroke:none;stroke-width:1.0000000pt;stroke-linecap:butt;stroke-linejoin:miter;stroke-opacity:1.0000000"
       d="M 212.59900,744.09431 L 265.75000,903.54131 L 425.19701,956.69131 L 372.04901,797.24131 L 212.59900,744.09431 z "
       id="path2919"
       sodipodi:nodetypes="ccccc" />
    <path
       style="fill:#0080ff;fill-opacity:1.0000000;fill-rule:evenodd;stroke:none;stroke-width:1.0000000pt;stroke-linecap:butt;stroke-linejoin:miter;stroke-opacity:1.0000000"
       d="M 212.59900,318.89631 L 265.75000,478.34331 L 425.19701,531.49331 L 372.04901,372.04331 L 212.59900,318.89631 z "
       id="path2920"
       sodipodi:nodetypes="ccccc" />
    <path
       style="fill:#0080ff;fill-opacity:1.0000000;fill-rule:evenodd;stroke:none;stroke-width:1.0000000pt;stroke-linecap:butt;stroke-linejoin:miter;stroke-opacity:1.0000000"
       d="M 1.5205078e-05,106.29831 L 53.151405,265.74731 L 212.59800,318.89631 L 159.45000,159.44831 L 1.5205078e-05,106.29831 z "
       id="path2921"
       sodipodi:nodetypes="ccccc" />
    <path
       style="fill:#0080ff;fill-opacity:1.0000000;fill-rule:evenodd;stroke:none;stroke-width:1.0000000pt;stroke-linecap:butt;stroke-linejoin:miter;stroke-opacity:1.0000000"
       d="M 318.89800,637.79431 L 372.04901,797.24331 L 531.49601,850.39231 L 478.34801,690.94431 L 318.89800,637.79431 z "
       id="path2922"
       sodipodi:nodetypes="ccccc" />
    <path
       style="fill:#0080ff;fill-opacity:1.0000000;fill-rule:evenodd;stroke:none;stroke-width:1.0000000pt;stroke-linecap:butt;stroke-linejoin:miter;stroke-opacity:1.0000000"
       d="M 5.2050781e-06,673.22631 L 5.2050781e-06,814.95931 L 106.29901,850.39231 L 53.151205,690.94631 L 5.2050781e-06,673.22631 z "
       id="path2923"
       sodipodi:nodetypes="ccccc" />
    <path
       style="fill:#0080ff;fill-opacity:1.0000000;fill-rule:evenodd;stroke:none;stroke-width:1.0000000pt;stroke-linecap:butt;stroke-linejoin:miter;stroke-opacity:1.0000000"
       d="M 106.30001,850.39331 L 159.45100,1009.8383 L 318.89800,1062.9883 L 265.75000,903.54031 L 106.30001,850.39331 z "
       id="path2924"
       sodipodi:nodetypes="ccccc" />
    <path
       style="fill:#0080ff;fill-opacity:1.0000000;fill-rule:evenodd;stroke:none;stroke-width:1.0000000pt;stroke-linecap:butt;stroke-linejoin:miter;stroke-opacity:1.0000000"
       d="M 425.19701,531.49531 L 478.34801,690.94231 L 637.79501,744.09231 L 584.64701,584.64231 L 425.19701,531.49531 z "
       id="path2925"
       sodipodi:nodetypes="ccccc" />
    <path
       style="fill:#0080ff;fill-opacity:1.0000000;fill-rule:evenodd;stroke:none;stroke-width:1.0000000pt;stroke-linecap:butt;stroke-linejoin:miter;stroke-opacity:1.0000000"
       d="M 425.19701,956.69131 L 460.63001,1062.9883 L 602.36201,1062.9883 L 584.64301,1009.8383 L 425.19701,956.69131 z "
       id="path2927"
       sodipodi:nodetypes="ccccc" />
    <path
       style="fill:#0080ff;fill-opacity:1.0000000;fill-rule:evenodd;stroke:none;stroke-width:1.0000000pt;stroke-linecap:butt;stroke-linejoin:miter;stroke-opacity:1.0000000"
       d="M 0.0024052051,956.69131 L 35.433105,1062.9883 L 177.16500,1062.9883 L 159.44800,1009.8383 L 0.0024052051,956.69131 z "
       id="path2928"
       sodipodi:nodetypes="ccccc" />
    <path
       style="fill:#0080ff;fill-opacity:1.0000000;fill-rule:evenodd;stroke:none;stroke-width:1.0000000pt;stroke-linecap:butt;stroke-linejoin:miter;stroke-opacity:1.0000000"
       d="M 850.39201,956.69231 L 885.82701,1062.9883 L 1027.5600,1062.9883 L 1009.8400,1009.8383 L 850.39201,956.69231 z "
       id="path2929"
       sodipodi:nodetypes="ccccc" />
    <path
       style="fill:#0080ff;fill-opacity:1.0000000;fill-rule:evenodd;stroke:none;stroke-width:1.0000000pt;stroke-linecap:butt;stroke-linejoin:miter;stroke-opacity:1.0000000"
       d="M 744.09401,637.79531 L 797.24401,797.24231 L 956.69401,850.39231 L 903.54401,690.94231 L 744.09401,637.79531 z "
       id="path2930"
       sodipodi:nodetypes="ccccc" />
    <path
       style="fill:#0080ff;fill-opacity:1.0000000;fill-rule:evenodd;stroke:none;stroke-width:1.0000000pt;stroke-linecap:butt;stroke-linejoin:miter;stroke-opacity:1.0000000"
       d="M 531.49601,-0.0013100000 L 584.64701,159.44731 L 744.09401,212.59631 L 690.94601,53.148714 L 531.49601,-0.0013100000 z "
       id="path2931"
       sodipodi:nodetypes="ccccc" />
    <path
       style="fill:#0080ff;fill-opacity:1.0000000;fill-rule:evenodd;stroke:none;stroke-width:1.0000000pt;stroke-linecap:butt;stroke-linejoin:miter;stroke-opacity:1.0000000"
       d="M 1062.9900,744.09231 L 1116.1400,903.54131 L 1275.5900,956.69031 L 1222.4400,797.24231 L 1062.9900,744.09231 z "
       id="path2932"
       sodipodi:nodetypes="ccccc" />
    <path
       style="fill:#0080ff;fill-opacity:1.0000000;fill-rule:evenodd;stroke:none;stroke-width:1.0000000pt;stroke-linecap:butt;stroke-linejoin:miter;stroke-opacity:1.0000000"
       d="M 637.79801,744.09231 L 690.94901,903.53831 L 850.39401,956.68831 L 797.24401,797.24231 L 637.79801,744.09231 z "
       id="path2933"
       sodipodi:nodetypes="ccccc" />
    <path
       style="fill:#0080ff;fill-opacity:1.0000000;fill-rule:evenodd;stroke:none;stroke-width:1.0000000pt;stroke-linecap:butt;stroke-linejoin:miter;stroke-opacity:1.0000000"
       d="M 956.69301,850.39331 L 1009.8400,1009.8383 L 1169.2900,1062.9883 L 1116.1400,903.54031 L 956.69301,850.39331 z "
       id="path2934"
       sodipodi:nodetypes="ccccc" />
    <path
       style="fill:#0080ff;fill-opacity:1.0000000;fill-rule:evenodd;stroke:none;stroke-width:1.0000000pt;stroke-linecap:butt;stroke-linejoin:miter;stroke-opacity:1.0000000"
       d="M 531.49501,425.19531 L 584.64501,584.64231 L 744.09501,637.79231 L 690.94501,478.34231 L 531.49501,425.19531 z "
       id="path2935"
       sodipodi:nodetypes="ccccc" />
    <path
       style="fill:#0080ff;fill-opacity:1.0000000;fill-rule:evenodd;stroke:none;stroke-width:1.0000000pt;stroke-linecap:butt;stroke-linejoin:miter;stroke-opacity:1.0000000"
       d="M 318.90000,212.59831 L 372.04601,372.04631 L 531.49601,425.19531 L 478.34601,265.74831 L 318.90000,212.59831 z "
       id="path2937"
       sodipodi:nodetypes="ccccc" />
    <path
       style="fill:#0080ff;fill-opacity:1.0000000;fill-rule:evenodd;stroke:none;stroke-width:1.0000000pt;stroke-linecap:butt;stroke-linejoin:miter;stroke-opacity:1.0000000"
       d="M 5.2050781e-06,248.02931 L 5.2050781e-06,389.76231 L 106.29701,425.19531 L 53.146805,265.74931 L 5.2050781e-06,248.02931 z "
       id="path2938"
       sodipodi:nodetypes="ccccc" />
    <path
       style="fill:#0080ff;fill-opacity:1.0000000;fill-rule:evenodd;stroke:none;stroke-width:1.0000000pt;stroke-linecap:butt;stroke-linejoin:miter;stroke-opacity:1.0000000"
       d="M 531.49601,850.39231 L 584.64601,1009.8383 L 744.09601,1062.9883 L 690.94601,903.53931 L 531.49601,850.39231 z "
       id="path2939"
       sodipodi:nodetypes="ccccc" />
    <path
       style="fill:#0080ff;fill-opacity:1.0000000;fill-rule:evenodd;stroke:none;stroke-width:1.0000000pt;stroke-linecap:butt;stroke-linejoin:miter;stroke-opacity:1.0000000"
       d="M 248.03100,-0.0016900000 L 265.74800,53.148514 L 425.19801,106.29731 L 389.76401,-0.0016900000 L 248.03100,-0.0016900000 z "
       id="path2940"
       sodipodi:nodetypes="ccccc" />
    <path
       style="fill:#0080ff;fill-opacity:1.0000000;fill-rule:evenodd;stroke:none;stroke-width:1.0000000pt;stroke-linecap:butt;stroke-linejoin:miter;stroke-opacity:1.0000000"
       d="M 425.19701,106.29731 L 478.34801,265.74631 L 637.79501,318.89531 L 584.64701,159.44731 L 425.19701,106.29731 z "
       id="path2942"
       sodipodi:nodetypes="ccccc" />
    <path
       style="fill:#0080ff;fill-opacity:1.0000000;fill-rule:evenodd;stroke:none;stroke-width:1.0000000pt;stroke-linecap:butt;stroke-linejoin:miter;stroke-opacity:1.0000000"
       d="M 1275.5900,956.69131 L 1311.0200,1062.9883 L 1417.3200,1062.9883 L 1417.3200,1002.6783 L 1275.5900,956.69131 z "
       id="path2948"
       sodipodi:nodetypes="ccccc" />
    <path
       style="fill:#0080ff;fill-opacity:1.0000000;fill-rule:evenodd;stroke:none;stroke-width:1.0000000pt;stroke-linecap:butt;stroke-linejoin:miter;stroke-opacity:1.0000000"
       d="M 637.79501,318.89631 L 690.94601,478.34431 L 850.39301,531.49331 L 797.24501,372.04631 L 637.79501,318.89631 z "
       id="path2949"
       sodipodi:nodetypes="ccccc" />
    <path
       style="fill:#0080ff;fill-opacity:1.0000000;fill-rule:evenodd;stroke:none;stroke-width:1.0000000pt;stroke-linecap:butt;stroke-linejoin:miter;stroke-opacity:1.0000000"
       d="M 744.09401,212.59631 L 797.24501,372.04431 L 956.69201,425.19331 L 903.54401,265.74631 L 744.09401,212.59631 z "
       id="path2950"
       sodipodi:nodetypes="ccccc" />
    <path
       style="fill:#0080ff;fill-opacity:1.0000000;fill-rule:evenodd;stroke:none;stroke-width:1.0000000pt;stroke-linecap:butt;stroke-linejoin:miter;stroke-opacity:1.0000000"
       d="M 673.22801,-0.0016900000 L 690.94701,53.148514 L 850.39401,106.29731 L 814.96101,-0.0016900000 L 673.22801,-0.0016900000 z "
       id="path2951"
       sodipodi:nodetypes="ccccc" />
    <path
       style="fill:#0080ff;fill-opacity:1.0000000;fill-rule:evenodd;stroke:none;stroke-width:1.0000000pt;stroke-linecap:butt;stroke-linejoin:miter;stroke-opacity:1.0000000"
       d="M 850.39401,106.29731 L 903.54501,265.74531 L 1062.9900,318.89431 L 1009.8400,159.44731 L 850.39401,106.29731 z "
       id="path2952"
       sodipodi:nodetypes="ccccc" />
    <path
       style="fill:#0080ff;fill-opacity:1.0000000;fill-rule:evenodd;stroke:none;stroke-width:1.0000000pt;stroke-linecap:butt;stroke-linejoin:miter;stroke-opacity:1.0000000"
       d="M 850.39401,531.49531 L 903.54501,690.94331 L 1062.9900,744.09231 L 1009.8400,584.64531 L 850.39401,531.49531 z "
       id="path2953"
       sodipodi:nodetypes="ccccc" />
    <path
       style="fill:#0080ff;fill-opacity:1.0000000;fill-rule:evenodd;stroke:none;stroke-width:1.0000000pt;stroke-linecap:butt;stroke-linejoin:miter;stroke-opacity:1.0000000"
       d="M 956.69501,425.19531 L 1009.8500,584.64331 L 1169.2900,637.79231 L 1116.1400,478.34531 L 956.69501,425.19531 z "
       id="path2954"
       sodipodi:nodetypes="ccccc" />
    <path
       style="fill:#0080ff;fill-opacity:1.0000000;fill-rule:evenodd;stroke:none;stroke-width:1.0000000pt;stroke-linecap:butt;stroke-linejoin:miter;stroke-opacity:1.0000000"
       d="M 1062.9900,318.89731 L 1116.1500,478.34531 L 1275.5900,531.49431 L 1222.4400,372.04731 L 1062.9900,318.89731 z "
       id="path2955"
       sodipodi:nodetypes="ccccc" />
    <path
       style="fill:#0080ff;fill-opacity:1.0000000;fill-rule:evenodd;stroke:none;stroke-width:1.0000000pt;stroke-linecap:butt;stroke-linejoin:miter;stroke-opacity:1.0000000"
       d="M 956.69301,-0.0017600000 L 1009.8500,159.44631 L 1169.2900,212.59531 L 1116.1400,53.148214 L 956.69301,-0.0017600000 z "
       id="path2956"
       sodipodi:nodetypes="ccccc" />
    <path
       style="fill:#0080ff;fill-opacity:1.0000000;fill-rule:evenodd;stroke:none;stroke-width:1.0000000pt;stroke-linecap:butt;stroke-linejoin:miter;stroke-opacity:1.0000000"
       d="M 1169.2900,212.59831 L 1222.4500,372.04631 L 1381.8900,425.19531 L 1328.7400,265.74831 L 1169.2900,212.59831 z "
       id="path2957"
       sodipodi:nodetypes="ccccc" />
    <path
       style="fill:#0080ff;fill-opacity:1.0000000;fill-rule:evenodd;stroke:none;stroke-width:1.0000000pt;stroke-linecap:butt;stroke-linejoin:miter;stroke-opacity:1.0000000"
       d="M 1098.4300,-0.0016900000 L 1116.1500,53.148414 L 1275.5900,106.29731 L 1240.1600,-0.0016900000 L 1098.4300,-0.0016900000 z "
       id="path2958"
       sodipodi:nodetypes="ccccc" />
    <path
       style="fill:#0080ff;fill-opacity:1.0000000;fill-rule:evenodd;stroke:none;stroke-width:1.0000000pt;stroke-linecap:butt;stroke-linejoin:miter;stroke-opacity:1.0000000"
       d="M 1275.5900,106.29731 L 1328.7500,265.74531 L 1417.3200,294.09231 L 1417.3200,152.36031 L 1275.5900,106.29731 z "
       id="path2959"
       sodipodi:nodetypes="ccccc" />
    <path
       style="fill:#0080ff;fill-opacity:1.0000000;fill-rule:evenodd;stroke:none;stroke-width:1.0000000pt;stroke-linecap:butt;stroke-linejoin:miter;stroke-opacity:1.0000000"
       d="M 1275.5900,531.49431 L 1328.7500,690.94231 L 1417.3200,719.28931 L 1417.3200,577.55731 L 1275.5900,531.49431 z "
       id="path2960"
       sodipodi:nodetypes="ccccc" />
    <path
       style="fill:#0080ff;fill-opacity:1.0000000;fill-rule:evenodd;stroke:none;stroke-width:1.0000000pt;stroke-linecap:butt;stroke-linejoin:miter;stroke-opacity:1.0000000"
       d="M 1381.8900,425.19531 L 1417.3200,542.12431 L 1417.3200,436.32131 L 1381.8900,425.19531 z "
       id="path2961"
       sodipodi:nodetypes="cccc" />
    <path
       style="fill:#0080ff;fill-opacity:1.0000000;fill-rule:evenodd;stroke:none;stroke-width:1.0000000pt;stroke-linecap:butt;stroke-linejoin:miter;stroke-opacity:1.0000000"
       d="M 1169.2900,637.79331 L 1222.4500,797.24131 L 1381.8900,850.39031 L 1328.7400,690.94331 L 1169.2900,637.79331 z "
       id="path2962"
       sodipodi:nodetypes="ccccc" />
    <path
       style="fill:#0080ff;fill-opacity:1.0000000;fill-rule:evenodd;stroke:none;stroke-width:1.0000000pt;stroke-linecap:butt;stroke-linejoin:miter;stroke-opacity:1.0000000"
       d="M 1381.8900,850.39331 L 1417.3200,956.69131 L 1417.3200,861.09231 L 1381.8900,850.39331 z "
       id="path2963"
       sodipodi:nodetypes="cccc" />
    <path
       style="fill:#0080ff;fill-opacity:1.0000000;fill-rule:evenodd;stroke:none;stroke-width:1.0000000pt;stroke-linecap:butt;stroke-linejoin:miter;stroke-opacity:1.0000000"
       d="M 1381.8900,0.00022000000 L 1417.3200,106.29731 L 1417.3200,11.549410 L 1381.8900,0.00022000000 z "
       id="path2964"
       sodipodi:nodetypes="cccc" />
  </g>
</svg>
