<?xml version="1.0" encoding="UTF-8" standalone="no"?>

<svg
   xmlns:dc="http://purl.org/dc/elements/1.1/"
   xmlns:cc="http://creativecommons.org/ns#"
   xmlns:rdf="http://www.w3.org/1999/02/22-rdf-syntax-ns#"
   xmlns:svg="http://www.w3.org/2000/svg"
   xmlns="http://www.w3.org/2000/svg"
   xmlns:sodipodi="http://sodipodi.sourceforge.net/DTD/sodipodi-0.dtd"
   xmlns:inkscape="http://www.inkscape.org/namespaces/inkscape"
   width="450"
   height="300"
   id="svg2"
   version="1.0"
   inkscape:output_extension="org.inkscape.output.svg.inkscape">
  <defs
     id="defs4">
    <inkscape:perspective
       sodipodi:type="inkscape:persp3d"
       inkscape:vp_x="0 : 150 : 1"
       inkscape:vp_y="0 : 1000 : 0"
       inkscape:vp_z="525 : 150 : 1"
       inkscape:persp3d-origin="262.5 : 100 : 1"
       id="perspective2878" />
  </defs>
  <sodipodi:namedview
     id="base"
     pagecolor="#ffffff"
     bordercolor="#666666"
     borderopacity="1.0"
     gridtolerance="10000"
     guidetolerance="10"
     objecttolerance="10"
     inkscape:pageopacity="0.0"
     inkscape:pageshadow="2"
     inkscape:zoom="1"
     inkscape:cx="209.62692"
     inkscape:cy="173.87946"
     inkscape:document-units="px"
     inkscape:current-layer="g2377"
     height="400px"
     width="600px"
     showguides="true"
     inkscape:guide-bbox="true"
     inkscape:window-width="1071"
     inkscape:window-height="655"
     inkscape:window-x="2"
     inkscape:window-y="0"
     showgrid="false"
     inkscape:window-maximized="0" />
  <metadata
     id="metadata7">
    <rdf:RDF>
      <cc:Work
         rdf:about="">
        <dc:format>image/svg+xml</dc:format>
        <dc:type
           rdf:resource="http://purl.org/dc/dcmitype/StillImage" />
      </cc:Work>
    </rdf:RDF>
  </metadata>
  <g
     inkscape:label="Layer 1"
     inkscape:groupmode="layer"
     id="layer1"
     transform="translate(-44.175477,-93.614054)">
    <g
       id="g2377"
       transform="matrix(1.6561403,0,0,1.6561403,-224.76512,-417.9215)">
      <path
         id="path2284"
         d="m 162.38998,399.44415 0,-90.57204 135.85806,0 135.85805,0 0,90.57204 0,90.57204 -135.85805,0 -135.85806,0 0,-90.57204 z"
         style="fill:#fefefe" />
      <path
         sodipodi:nodetypes="ccccccsssssssssssccsssssssssssssssccssssssssssssssssssssssssssssssssssccsssscccssssssssssssssssscccsssssssssssssssssssssssssssssssssssssssssssssccsssccscccssssccsssccssssssccsssssscc"
         id="path2282"
         d="m 162.38998,308.87211 271.71612,0 0,181.14408 -271.71612,0 0,-181.14408 z m 177.4902,143.13072 c 1.13168,-0.98151 2.82339,-2.0276 3.75936,-2.32467 2.68481,-0.85213 3.17671,-4.68266 0.91101,-7.09437 -1.05721,-1.12536 -1.92221,-2.44659 -1.92221,-2.93607 0,-0.48948 -1.62393,-2.47569 -3.60875,-4.41382 -4.51722,-4.41095 -6.05671,-8.58594 -4.5274,-12.27802 0.60317,-1.45619 0.84393,-3.30628 0.535,-4.11132 -0.47233,-1.23088 -1.07,-1.01736 -3.75753,1.34231 -1.75773,1.54331 -3.65907,2.80601 -4.2252,2.80601 -1.92019,0 -4.34199,2.9872 -4.336,5.34827 0.0107,4.20336 4.97307,9.66586 12.58759,13.85617 3.47604,1.91288 3.63742,4.56384 0.45724,7.51113 -3.97603,3.68486 -0.0153,5.88686 4.12689,2.29438 z m -89.8994,-1.48176 c 0.18055,-0.55111 -0.94149,-2.3613 -2.49344,-4.02266 -2.19364,-2.34831 -2.69576,-3.53645 -2.25585,-5.33803 0.31122,-1.27456 0.90953,-3.89542 1.32958,-5.82412 0.42006,-1.9287 1.16221,-3.76278 1.64924,-4.07574 0.48702,-0.31296 1.80263,-2.37755 2.92356,-4.58798 1.12094,-2.21042 2.60159,-4.58248 3.29033,-5.27122 1.85812,-1.85813 2.51732,-5.49176 1.26914,-6.99573 -0.93997,-1.1326 -8.71057,-5.90423 -9.61504,-5.90423 -0.86088,0 -3.08082,5.65689 -3.09238,7.88007 -0.0141,2.72249 -1.94346,8.85361 -4.09564,13.01545 -0.72902,1.40979 -1.3255,4.08296 -1.3255,5.94037 0,1.85743 -0.50947,4.78786 -1.13215,6.51209 -1.009,2.79396 -0.94954,3.24429 0.54665,4.14005 0.92335,0.55279 2.92485,2.14685 4.44777,3.54234 2.00184,1.83433 3.52479,2.46164 5.4972,2.2643 1.50054,-0.15012 2.87598,-0.72386 3.05653,-1.27496 z m 45.83608,-0.54145 c 1.08807,-0.59983 3.81241,-1.31309 6.05407,-1.58501 3.86805,-0.46922 4.07574,-0.64052 4.07574,-3.36157 0,-2.33022 0.72088,-3.3914 3.84931,-5.66644 3.27771,-2.3836 3.84931,-3.27584 3.84931,-6.00859 0,-4.53327 2.13518,-8.11247 5.61804,-9.41754 7.90626,-2.96258 10.07831,-4.25088 13.67028,-8.10816 2.13111,-2.28852 4.39741,-5.58744 5.03624,-7.33095 2.26986,-6.19494 7.37429,-16.30297 8.23279,-16.30297 0.47958,0 1.90943,1.03746 3.17744,2.30547 1.88612,1.88612 2.30547,3.17258 2.30547,7.07265 0,2.78948 -0.55167,5.49656 -1.32978,6.52531 -1.79289,2.37041 -1.81114,5.28455 -0.0288,4.6006 0.97479,-0.37405 1.35858,0.092 1.35858,1.64985 0,2.62473 2.19984,5.01773 4.61271,5.01773 3.29355,0 3.85396,-3.40016 2.8261,-17.14671 -0.80169,-10.72168 -1.2575,-13.12514 -2.88781,-15.22733 -1.06473,-1.37291 -2.82996,-3.89533 -3.92273,-5.60539 -1.09277,-1.71005 -4.22851,-4.44531 -6.96831,-6.07835 -7.29476,-4.34797 -10.85136,-4.11081 -22.52322,1.50194 -6.79264,3.26644 -10.47034,4.51558 -13.29468,4.51558 -3.65579,0 -6.75096,-1.66486 -6.75096,-3.63128 0,-0.4316 -0.71326,-0.80522 -1.58501,-0.83025 -0.87176,-0.025 -3.04742,-0.29103 -4.8348,-0.59112 -3.09836,-0.52018 -6.26028,1.07956 -6.26028,3.16733 0,2.25625 4.34491,4.85312 12.9204,7.72224 11.48504,3.84257 13.66615,3.94756 18.18715,0.87547 1.89788,-1.28965 3.67973,-2.11579 3.95965,-1.83587 0.27993,0.27992 -1.38683,4.29001 -3.7039,8.91129 -2.31705,4.62129 -4.20808,9.20567 -4.20226,10.18752 0.005,0.98185 -2.17794,4.03865 -4.85278,6.7929 -4.77388,4.91559 -5.64674,6.76006 -7.72748,16.32924 -0.37911,1.74351 -1.33814,4.41388 -2.13118,5.93416 -1.7264,3.30956 -8.70695,9.92126 -11.3657,10.76511 -2.00627,0.63677 -3.39664,3.49415 -2.44749,5.02991 0.77143,1.2482 4.67575,1.15077 7.08389,-0.17677 z m -9.84655,-0.63911 c 0.98741,-1.59768 -0.54902,-3.49565 -4.14101,-5.1154 -5.45856,-2.46148 -6.40005,-5.06288 -5.98581,-16.53929 0.19206,-5.32092 0.66807,-10.57607 1.05779,-11.67812 0.58764,-1.66168 -0.19615,-2.95226 -4.59153,-7.56036 -5.78603,-6.06605 -5.99159,-6.92123 -4.38161,-18.2286 l 0.60427,-4.24395 -3.67121,-0.98855 c -2.01916,-0.54371 -3.95907,-1.45432 -4.31089,-2.02358 -0.44724,-0.72365 -0.11815,-0.81096 1.09391,-0.29024 0.95347,0.40964 3.03133,0.92793 4.61747,1.15176 2.72863,0.38506 2.9391,0.20189 3.90978,-3.40297 0.56425,-2.09546 0.8077,-4.37857 0.541,-5.07359 -0.37527,-0.97792 0.54608,-1.26364 4.07482,-1.26364 2.50784,0 5.30524,-0.399 6.21646,-0.88666 0.91121,-0.48767 4.27025,-1.02643 7.46453,-1.19726 3.19429,-0.17082 6.29392,-0.61102 6.88806,-0.97823 0.66009,-0.40795 1.08026,-0.11842 1.08026,0.7444 0,0.77661 0.40758,1.41203 0.90572,1.41203 0.49815,0 0.90572,-0.61136 0.90572,-1.35858 0,-0.74722 0.40758,-1.35858 0.90572,-1.35858 0.49815,0 0.90573,0.81515 0.90573,1.81144 0,1.00636 0.60381,1.81144 1.35858,1.81144 0.75476,0 1.35858,-0.80508 1.35858,-1.81144 0,-1.76154 0.61743,-1.81256 22.41658,-1.85229 15.70456,-0.0286 23.20221,-0.37625 25.04039,-1.16101 l 2.62382,-1.12016 -3.70618,-1.67126 c -2.61372,-1.17862 -4.45504,-1.45868 -6.2467,-0.95011 -1.39728,0.39663 -10.99768,0.87173 -21.33422,1.05579 -18.41797,0.32797 -18.79369,0.29775 -18.79369,-1.51175 0,-1.03744 -0.59524,-1.84641 -1.35858,-1.84641 -0.74722,0 -1.35858,0.61136 -1.35858,1.35858 0,0.74722 -0.40758,1.35858 -0.90573,1.35858 -0.49814,0 -0.90572,-0.61136 -0.90572,-1.35858 0,-0.74722 -0.40757,-1.35858 -0.90572,-1.35858 -0.49814,0 -0.90572,0.33625 -0.90572,0.74724 0,0.41098 -1.32461,0.77791 -2.94359,0.8154 -1.61897,0.0375 -6.66797,0.36651 -11.22,0.73117 -9.4452,0.75666 -14.81946,0.0742 -14.81946,-1.88199 0,-0.72465 0.32914,-1.31754 0.73142,-1.31754 0.40228,0 1.47908,-1.69462 2.39289,-3.76583 1.30228,-2.95169 1.43788,-4.12389 0.62717,-5.42204 -0.56888,-0.91091 -1.03432,-2.47688 -1.03432,-3.47993 0,-1.92042 -1.31522,-2.45364 -2.2643,-0.91801 -0.30787,0.49815 -1.32128,0.90572 -2.25202,0.90572 -2.44662,0 -5.4466,4.27823 -5.4466,7.76731 0,1.64694 -0.40758,3.24632 -0.90572,3.5542 -0.49815,0.30787 -0.90572,1.75843 -0.90572,3.22347 0,2.32328 -0.32915,2.66371 -2.57538,2.66371 -1.96072,0 -3.43901,1.0268 -6.19388,4.30217 -5.26832,6.26372 -6.06458,8.0902 -6.81117,15.62368 -0.37026,3.73609 -0.92474,8.6737 -1.23218,10.97246 -0.4948,3.69972 -0.28495,4.45358 1.82794,6.56647 1.31281,1.3128 2.74685,2.38692 3.18678,2.38692 1.58148,0 3.77829,-3.02073 3.36002,-4.6202 -0.23487,-0.89815 0.0391,-1.79678 0.60896,-1.99695 0.66891,-0.235 0.41411,-1.06435 -0.71908,-2.34056 -1.52801,-1.72084 -1.6159,-2.36153 -0.67929,-4.95166 0.59169,-1.63628 1.07579,-3.65036 1.07579,-4.47571 0,-2.29661 4.70538,-11.37773 6.19069,-11.9477 2.15546,-0.82712 2.23991,0.16489 0.18866,2.21614 -2.28558,2.28558 -3.41582,4.96935 -5.15917,12.25048 -1.17588,4.91111 -1.15808,5.52008 0.19008,6.50588 1.28799,0.9418 1.33804,1.55104 0.37339,4.54465 -0.6127,1.90137 -1.52893,3.97926 -2.03608,4.61751 -1.30292,1.63975 0.5224,2.95108 9.53607,6.85082 2.1837,0.94478 3.39645,2.07203 3.39645,3.15698 0,0.92813 0.81515,2.62739 1.81144,3.77612 1.38598,1.59806 1.81144,3.38863 1.81144,7.62357 0,3.27918 0.73825,7.55473 1.81144,10.49084 0.99629,2.72574 1.81144,5.84958 1.81144,6.94185 0,3.60113 2.31076,4.83252 9.06845,4.83252 3.42204,0 6.45105,-0.3708 6.73115,-0.82399 z m -20.3282,-96.99382 c 0,-0.49814 0.61136,-0.90572 1.35858,-0.90572 0.74722,0 1.35858,0.40758 1.35858,0.90572 0,0.49815 -0.61136,0.90572 -1.35858,0.90572 -0.74722,0 -1.35858,-0.40757 -1.35858,-0.90572 z m 74.47859,11.47573 c 3.61773,-1.26004 5.31011,-2.41852 3.53312,-2.41852 -0.77985,0 -0.91994,-1.26587 -0.49478,-4.47089 l 0.59309,-4.47089 -3.33633,-1.39402 c -3.12001,-1.30362 -3.59688,-1.27153 -7.3548,0.4949 -4.35367,2.04647 -4.73749,2.68232 -2.65988,4.40657 0.74722,0.62014 1.35858,2.27123 1.35858,3.6691 0,2.61561 2.02672,5.39858 3.91401,5.37447 0.58709,-0.007 2.58825,-0.54332 4.44699,-1.19072 z m -2.92668,-11.47573 c 0,-0.49814 0.40758,-0.90572 0.90572,-0.90572 0.49815,0 0.90572,0.40758 0.90572,0.90572 0,0.49815 -0.40757,0.90572 -0.90572,0.90572 -0.49814,0 -0.90572,-0.40757 -0.90572,-0.90572 z m -78.75252,7.16141 c 0.55803,-1.0427 0.79977,-2.77489 0.5372,-3.84932 -0.58209,-2.38186 3.971,-7.84069 6.53974,-7.84069 0.94232,0 2.22069,-0.61136 2.84083,-1.35858 0.97753,-1.17784 0.50433,-1.35858 -3.55696,-1.35858 -6.69776,0 -9.71646,1.8106 -10.47171,6.28086 -0.59984,3.55044 0.95277,10.02211 2.40438,10.02211 0.38055,0 1.14848,-0.85311 1.70652,-1.8958 z m 90.88284,-0.44258 c 0.30238,-0.78796 0.54977,-3.18654 0.54977,-5.33016 0,-3.18035 -0.42585,-4.17652 -2.31433,-5.4139 -2.41853,-1.58468 -7.76137,-1.61745 -8.23672,-0.0505 -0.15112,0.49815 1.04022,1.51708 2.64741,2.2643 2.69181,1.25148 2.92217,1.69785 2.92217,5.66222 0,3.79601 0.22894,4.30347 1.94097,4.30218 1.06754,-8.1e-4 2.18837,-0.64616 2.49073,-1.43413 l 0,3e-5 z"
         style="fill:#f11518" />
    </g>
  </g>
</svg>
