<?xml version="1.0" encoding="UTF-8" standalone="no"?>
<svg
   xmlns:dc="http://purl.org/dc/elements/1.1/"
   xmlns:cc="http://creativecommons.org/ns#"
   xmlns:rdf="http://www.w3.org/1999/02/22-rdf-syntax-ns#"
   xmlns:svg="http://www.w3.org/2000/svg"
   xmlns="http://www.w3.org/2000/svg"
   xmlns:sodipodi="http://sodipodi.sourceforge.net/DTD/sodipodi-0.dtd"
   xmlns:inkscape="http://www.inkscape.org/namespaces/inkscape"
   width="450"
   height="300">
  <rect
     width="450"
     height="300"
     fill="#009a3f"/>
  <rect
     width="450"
     height="200"
     fill="#000000"/>
  <rect
     width="450"
     height="100"
     fill="#da251d"/>
  <rect
     style="fill:#ffd400"
     x="177.03447"
     y="181.25"
     width="95.931038"
     height="6.25"
     id="rect3223" />
  <path
     style="fill:#ffd400"
     d="M 271.17241,176.78571 L 290,158.92857 L 269.37931,167.85714 L 284.62069,146.42857 L 264.00001,153.57143 L 272.96552,132.14286 L 253.24138,142.85714 L 258.62069,121.42857 L 240.68966,136.60714 L 241.58621,115.17857 L 231.72414,133.92857 L 225.44828,112.5 L 218.27586,133.92857 L 208.41379,115.17857 L 209.31034,136.60714 L 192.27587,121.42857 L 196.75862,142.85714 L 177.03449,132.14286 L 186.89655,153.57143 L 166.27586,146.42857 L 181.51724,167.85714 L 160,159.82143 L 178.82759,176.78571 L 271.17241,176.78571 z"
     id="path3225" />
</svg>
