<?xml version="1.0" encoding="UTF-8" standalone="no"?>
<!-- Created with Sodipodi ("http://www.sodipodi.com/") -->
<svg
   xmlns:dc="http://purl.org/dc/elements/1.1/"
   xmlns:cc="http://web.resource.org/cc/"
   xmlns:rdf="http://www.w3.org/1999/02/22-rdf-syntax-ns#"
   xmlns:svg="http://www.w3.org/2000/svg"
   xmlns="http://www.w3.org/2000/svg"
   xmlns:sodipodi="http://inkscape.sourceforge.net/DTD/sodipodi-0.dtd"
   xmlns:inkscape="http://www.inkscape.org/namespaces/inkscape"
   version="1"
   x="0"
   y="0"
   width="850.39000pt"
   height="566.93000pt"
   id="svg378"
   sodipodi:version="0.32"
   sodipodi:docname="brasil.svg"
   sodipodi:docbase="/Users/daniel/Desktop/test"
   inkscape:version="0.42">
  <metadata
     id="metadata3228">
    <rdf:RDF>
      <cc:Work
         rdf:about="">
        <dc:format>image/svg+xml</dc:format>
        <dc:type
           rdf:resource="http://purl.org/dc/dcmitype/StillImage" />
      </cc:Work>
    </rdf:RDF>
  </metadata>
  <sodipodi:namedview
     id="base"
     inkscape:zoom="0.46230688"
     inkscape:cx="531.49426"
     inkscape:cy="347.11917"
     inkscape:window-width="701"
     inkscape:window-height="507"
     inkscape:window-x="24"
     inkscape:window-y="57"
     inkscape:current-layer="svg378" />
  <defs
     id="defs380" />
  <rect
     sodipodi:fill-cmyk="(0.78 0 0.56 0.38)"
     y="0.0000000"
     x="5.5047394e-08"
     height="708.66248"
     width="1062.9922"
     id="rect552"
     style="font-size:12.000000px;fill:#229e45;fill-rule:evenodd;stroke-width:1.0000000pt" />
  <path
     sodipodi:fill-cmyk="(0 0.0775862 0.96 0.03)"
     sodipodi:nodetypes="ccccc"
     id="path554"
     d="M 531.50037,644.57498 L 978.09512,354.72508 L 528.80689,64.096550 L 80.743975,355.42162 L 531.50037,644.57498 z "
     style="font-size:12.000000px;fill:#f8e509;fill-rule:evenodd;stroke-width:1.0000000pt" />
  <path
     sodipodi:fill-cmyk="(0.732759 0.551724 0 0.36)"
     transform="matrix(2.457648,0.000000,0.000000,2.487619,5.377944,-18.75037)"
     sodipodi:ry="75.827141"
     sodipodi:rx="76.874496"
     sodipodi:cy="149.97711"
     sodipodi:cx="216.37971"
     d="M 293.25421 149.97711 A 76.874496 75.827141 0 1 1  139.50522,149.97711 A 76.874496 75.827141 0 1 1  293.25421 149.97711 z"
     id="path557"
     style="font-size:12.000000px;fill:#2b49a3;fill-rule:evenodd;stroke-width:1.0000000pt"
     sodipodi:type="arc" />
  <polygon
     d="M 228.54263,107.67979 L 225.95494,106.21475 L 223.28106,107.51587 L 223.87476,104.60210 L 221.81105,102.46117 L 224.76567,102.12540 L 226.16410,99.501109 L 227.39646,102.20737 L 230.32445,102.72640 L 228.13146,104.73472 L 228.54263,107.67979 z "
     inkscape:randomized="0.0000000"
     inkscape:rounded="0.0000000"
     inkscape:flatsided="false"
     transform="matrix(2.262349,0.000000,0.000000,2.307406,-41.99098,218.8610)"
     points="228.543,107.68 225.955,106.215 223.281,107.516 223.875,104.602 221.811,102.461 224.766,102.125 226.164,99.5011 227.396,102.207 230.324,102.726 228.131,104.735 228.543,107.68 "
     sodipodi:arg2="1.6019410"
     sodipodi:arg1="0.97362250"
     sodipodi:r2="2.2389653"
     sodipodi:r1="4.4779305"
     sodipodi:cy="103.97687"
     sodipodi:cx="226.02466"
     sodipodi:sides="5"
     id="polygon559"
     style="font-size:12.000000px;fill:#ffffef;fill-rule:evenodd;stroke-width:1.0000000pt"
     sodipodi:type="star" />
  <polygon
     d="M 228.54263,107.67979 L 225.95494,106.21475 L 223.28106,107.51587 L 223.87476,104.60210 L 221.81105,102.46117 L 224.76567,102.12540 L 226.16410,99.501109 L 227.39646,102.20737 L 230.32445,102.72640 L 228.13146,104.73472 L 228.54263,107.67979 z "
     inkscape:randomized="0.0000000"
     inkscape:rounded="0.0000000"
     inkscape:flatsided="false"
     transform="matrix(2.262349,0.000000,0.000000,2.307406,84.62537,250.9140)"
     points="228.543,107.68 225.955,106.215 223.281,107.516 223.875,104.602 221.811,102.461 224.766,102.125 226.164,99.5011 227.396,102.207 230.324,102.726 228.131,104.735 228.543,107.68 "
     sodipodi:arg2="1.6019410"
     sodipodi:arg1="0.97362250"
     sodipodi:r2="2.2389653"
     sodipodi:r1="4.4779305"
     sodipodi:cy="103.97687"
     sodipodi:cx="226.02466"
     sodipodi:sides="5"
     id="polygon560"
     style="font-size:12.000000px;fill:#ffffef;fill-rule:evenodd;stroke-width:1.0000000pt"
     sodipodi:type="star" />
  <polygon
     d="M 228.54263,107.67979 L 225.95494,106.21475 L 223.28106,107.51587 L 223.87476,104.60210 L 221.81105,102.46117 L 224.76567,102.12540 L 226.16410,99.501109 L 227.39646,102.20737 L 230.32445,102.72640 L 228.13146,104.73472 L 228.54263,107.67979 z "
     inkscape:randomized="0.0000000"
     inkscape:rounded="0.0000000"
     inkscape:flatsided="false"
     transform="matrix(1.954463,0.000000,0.000000,1.993391,100.4329,233.5240)"
     points="228.543,107.68 225.955,106.215 223.281,107.516 223.875,104.602 221.811,102.461 224.766,102.125 226.164,99.5011 227.396,102.207 230.324,102.726 228.131,104.735 228.543,107.68 "
     sodipodi:arg2="1.6019410"
     sodipodi:arg1="0.97362250"
     sodipodi:r2="2.2389653"
     sodipodi:r1="4.4779305"
     sodipodi:cy="103.97687"
     sodipodi:cx="226.02466"
     sodipodi:sides="5"
     id="polygon561"
     style="font-size:12.000000px;fill:#ffffef;fill-rule:evenodd;stroke-width:1.0000000pt"
     sodipodi:type="star" />
  <polygon
     d="M 228.54263,107.67979 L 225.95494,106.21475 L 223.28106,107.51587 L 223.87476,104.60210 L 221.81105,102.46117 L 224.76567,102.12540 L 226.16410,99.501109 L 227.39646,102.20737 L 230.32445,102.72640 L 228.13146,104.73472 L 228.54263,107.67979 z "
     inkscape:randomized="0.0000000"
     inkscape:rounded="0.0000000"
     inkscape:flatsided="false"
     transform="matrix(1.918934,0.000000,0.000000,1.957144,236.4090,219.0043)"
     points="228.543,107.68 225.955,106.215 223.281,107.516 223.875,104.602 221.811,102.461 224.766,102.125 226.164,99.5011 227.396,102.207 230.324,102.726 228.131,104.735 228.543,107.68 "
     sodipodi:arg2="1.6019410"
     sodipodi:arg1="0.97362250"
     sodipodi:r2="2.2389653"
     sodipodi:r1="4.4779305"
     sodipodi:cy="103.97687"
     sodipodi:cx="226.02466"
     sodipodi:sides="5"
     id="polygon562"
     style="font-size:12.000000px;fill:#ffffef;fill-rule:evenodd;stroke-width:1.0000000pt"
     sodipodi:type="star" />
  <polygon
     d="M 228.54263,107.67979 L 225.95494,106.21475 L 223.28106,107.51587 L 223.87476,104.60210 L 221.81105,102.46117 L 224.76567,102.12540 L 226.16410,99.501109 L 227.39646,102.20737 L 230.32445,102.72640 L 228.13146,104.73472 L 228.54263,107.67979 z "
     inkscape:randomized="0.0000000"
     inkscape:rounded="0.0000000"
     inkscape:flatsided="false"
     transform="matrix(2.262349,0.000000,0.000000,2.307406,27.74066,142.9576)"
     points="228.543,107.68 225.955,106.215 223.281,107.516 223.875,104.602 221.811,102.461 224.766,102.125 226.164,99.5011 227.396,102.207 230.324,102.726 228.131,104.735 228.543,107.68 "
     sodipodi:arg2="1.6019410"
     sodipodi:arg1="0.97362250"
     sodipodi:r2="2.2389653"
     sodipodi:r1="4.4779305"
     sodipodi:cy="103.97687"
     sodipodi:cx="226.02466"
     sodipodi:sides="5"
     id="polygon563"
     style="font-size:12.000000px;fill:#ffffef;fill-rule:evenodd;stroke-width:1.0000000pt"
     sodipodi:type="star" />
  <polygon
     d="M 228.54263,107.67979 L 225.95494,106.21475 L 223.28106,107.51587 L 223.87476,104.60210 L 221.81105,102.46117 L 224.76567,102.12540 L 226.16410,99.501109 L 227.39646,102.20737 L 230.32445,102.72640 L 228.13146,104.73472 L 228.54263,107.67979 z "
     inkscape:randomized="0.0000000"
     inkscape:rounded="0.0000000"
     inkscape:flatsided="false"
     transform="matrix(2.262349,0.000000,0.000000,2.307406,-128.1514,84.42410)"
     points="228.543,107.68 225.955,106.215 223.281,107.516 223.875,104.602 221.811,102.461 224.766,102.125 226.164,99.5011 227.396,102.207 230.324,102.726 228.131,104.735 228.543,107.68 "
     sodipodi:arg2="1.6019410"
     sodipodi:arg1="0.97362250"
     sodipodi:r2="2.2389653"
     sodipodi:r1="4.4779305"
     sodipodi:cy="103.97687"
     sodipodi:cx="226.02466"
     sodipodi:sides="5"
     id="polygon564"
     style="font-size:12.000000px;fill:#ffffef;fill-rule:evenodd;stroke-width:1.0000000pt"
     sodipodi:type="star" />
  <polygon
     d="M 228.54263,107.67979 L 225.95494,106.21475 L 223.28106,107.51587 L 223.87476,104.60210 L 221.81105,102.46117 L 224.76567,102.12540 L 226.16410,99.501109 L 227.39646,102.20737 L 230.32445,102.72640 L 228.13146,104.73472 L 228.54263,107.67979 z "
     inkscape:randomized="0.0000000"
     inkscape:rounded="0.0000000"
     inkscape:flatsided="false"
     transform="matrix(2.262349,0.000000,0.000000,2.307406,-109.4078,162.2767)"
     points="228.543,107.68 225.955,106.215 223.281,107.516 223.875,104.602 221.811,102.461 224.766,102.125 226.164,99.5011 227.396,102.207 230.324,102.726 228.131,104.735 228.543,107.68 "
     sodipodi:arg2="1.6019410"
     sodipodi:arg1="0.97362250"
     sodipodi:r2="2.2389653"
     sodipodi:r1="4.4779305"
     sodipodi:cy="103.97687"
     sodipodi:cx="226.02466"
     sodipodi:sides="5"
     id="polygon565"
     style="font-size:12.000000px;fill:#ffffef;fill-rule:evenodd;stroke-width:1.0000000pt"
     sodipodi:type="star" />
  <polygon
     d="M 228.54263,107.67979 L 225.95494,106.21475 L 223.28106,107.51587 L 223.87476,104.60210 L 221.81105,102.46117 L 224.76567,102.12540 L 226.16410,99.501109 L 227.39646,102.20737 L 230.32445,102.72640 L 228.13146,104.73472 L 228.54263,107.67979 z "
     inkscape:randomized="0.0000000"
     inkscape:rounded="0.0000000"
     inkscape:flatsided="false"
     transform="matrix(1.998443,0.000000,0.000000,2.038245,145.4489,84.74600)"
     points="228.543,107.68 225.955,106.215 223.281,107.516 223.875,104.602 221.811,102.461 224.766,102.125 226.164,99.5011 227.396,102.207 230.324,102.726 228.131,104.735 228.543,107.68 "
     sodipodi:arg2="1.6019410"
     sodipodi:arg1="0.97362250"
     sodipodi:r2="2.2389653"
     sodipodi:r1="4.4779305"
     sodipodi:cy="103.97687"
     sodipodi:cx="226.02466"
     sodipodi:sides="5"
     id="polygon566"
     style="font-size:12.000000px;fill:#ffffef;fill-rule:evenodd;stroke-width:1.0000000pt"
     sodipodi:type="star" />
  <polygon
     d="M 228.54263,107.67979 L 225.95494,106.21475 L 223.28106,107.51587 L 223.87476,104.60210 L 221.81105,102.46117 L 224.76567,102.12540 L 226.16410,99.501109 L 227.39646,102.20737 L 230.32445,102.72640 L 228.13146,104.73472 L 228.54263,107.67979 z "
     inkscape:randomized="0.0000000"
     inkscape:rounded="0.0000000"
     inkscape:flatsided="false"
     transform="matrix(1.573939,0.000000,0.000000,1.605280,231.7748,182.0184)"
     points="228.543,107.68 225.955,106.215 223.281,107.516 223.875,104.602 221.811,102.461 224.766,102.125 226.164,99.5011 227.396,102.207 230.324,102.726 228.131,104.735 228.543,107.68 "
     sodipodi:arg2="1.6019410"
     sodipodi:arg1="0.97362250"
     sodipodi:r2="2.2389653"
     sodipodi:r1="4.4779305"
     sodipodi:cy="103.97687"
     sodipodi:cx="226.02466"
     sodipodi:sides="5"
     id="polygon567"
     style="font-size:12.000000px;fill:#ffffef;fill-rule:evenodd;stroke-width:1.0000000pt"
     sodipodi:type="star" />
  <polygon
     d="M 228.54263,107.67979 L 225.95494,106.21475 L 223.28106,107.51587 L 223.87476,104.60210 L 221.81105,102.46117 L 224.76567,102.12540 L 226.16410,99.501109 L 227.39646,102.20737 L 230.32445,102.72640 L 228.13146,104.73472 L 228.54263,107.67979 z "
     inkscape:randomized="0.0000000"
     inkscape:rounded="0.0000000"
     inkscape:flatsided="false"
     transform="matrix(1.510380,0.000000,0.000000,1.540468,35.00562,258.9632)"
     points="228.543,107.68 225.955,106.215 223.281,107.516 223.875,104.602 221.811,102.461 224.766,102.125 226.164,99.5011 227.396,102.207 230.324,102.726 228.131,104.735 228.543,107.68 "
     sodipodi:arg2="1.6019410"
     sodipodi:arg1="0.97362250"
     sodipodi:r2="2.2389653"
     sodipodi:r1="4.4779305"
     sodipodi:cy="103.97687"
     sodipodi:cx="226.02466"
     sodipodi:sides="5"
     id="polygon568"
     style="font-size:12.000000px;fill:#ffffef;fill-rule:evenodd;stroke-width:1.0000000pt"
     sodipodi:type="star" />
  <polygon
     d="M 228.54263,107.67979 L 225.95494,106.21475 L 223.28106,107.51587 L 223.87476,104.60210 L 221.81105,102.46117 L 224.76567,102.12540 L 226.16410,99.501109 L 227.39646,102.20737 L 230.32445,102.72640 L 228.13146,104.73472 L 228.54263,107.67979 z "
     inkscape:randomized="0.0000000"
     inkscape:rounded="0.0000000"
     inkscape:flatsided="false"
     transform="matrix(1.230850,0.000000,0.000000,1.152496,394.7542,318.6817)"
     points="228.543,107.68 225.955,106.215 223.281,107.516 223.875,104.602 221.811,102.461 224.766,102.125 226.164,99.5011 227.396,102.207 230.324,102.726 228.131,104.735 228.543,107.68 "
     sodipodi:arg2="1.6019410"
     sodipodi:arg1="0.97362250"
     sodipodi:r2="2.2389653"
     sodipodi:r1="4.4779305"
     sodipodi:cy="103.97687"
     sodipodi:cx="226.02466"
     sodipodi:sides="5"
     id="polygon569"
     style="font-size:12.000000px;fill:#ffffef;fill-rule:evenodd;stroke-width:1.0000000pt"
     sodipodi:type="star" />
  <polygon
     d="M 228.54263,107.67979 L 225.95494,106.21475 L 223.28106,107.51587 L 223.87476,104.60210 L 221.81105,102.46117 L 224.76567,102.12540 L 226.16410,99.501109 L 227.39646,102.20737 L 230.32445,102.72640 L 228.13146,104.73472 L 228.54263,107.67979 z "
     inkscape:randomized="0.0000000"
     inkscape:rounded="0.0000000"
     inkscape:flatsided="false"
     transform="matrix(1.510380,0.000000,0.000000,1.540468,35.00562,258.9632)"
     points="228.543,107.68 225.955,106.215 223.281,107.516 223.875,104.602 221.811,102.461 224.766,102.125 226.164,99.5011 227.396,102.207 230.324,102.726 228.131,104.735 228.543,107.68 "
     sodipodi:arg2="1.6019410"
     sodipodi:arg1="0.97362250"
     sodipodi:r2="2.2389653"
     sodipodi:r1="4.4779305"
     sodipodi:cy="103.97687"
     sodipodi:cx="226.02466"
     sodipodi:sides="5"
     id="polygon570"
     style="font-size:12.000000px;fill:#ffffef;fill-rule:evenodd;stroke-width:1.0000000pt"
     sodipodi:type="star" />
  <polygon
     d="M 228.54263,107.67979 L 225.95494,106.21475 L 223.28106,107.51587 L 223.87476,104.60210 L 221.81105,102.46117 L 224.76567,102.12540 L 226.16410,99.501109 L 227.39646,102.20737 L 230.32445,102.72640 L 228.13146,104.73472 L 228.54263,107.67979 z "
     inkscape:randomized="0.0000000"
     inkscape:rounded="0.0000000"
     inkscape:flatsided="false"
     transform="matrix(1.510380,0.000000,0.000000,1.540468,35.00562,258.9632)"
     points="228.543,107.68 225.955,106.215 223.281,107.516 223.875,104.602 221.811,102.461 224.766,102.125 226.164,99.5011 227.396,102.207 230.324,102.726 228.131,104.735 228.543,107.68 "
     sodipodi:arg2="1.6019410"
     sodipodi:arg1="0.97362250"
     sodipodi:r2="2.2389653"
     sodipodi:r1="4.4779305"
     sodipodi:cy="103.97687"
     sodipodi:cx="226.02466"
     sodipodi:sides="5"
     id="polygon571"
     style="font-size:12.000000px;fill:#ffffef;fill-rule:evenodd;stroke-width:1.0000000pt"
     sodipodi:type="star" />
  <polygon
     d="M 228.54263,107.67979 L 225.95494,106.21475 L 223.28106,107.51587 L 223.87476,104.60210 L 221.81105,102.46117 L 224.76567,102.12540 L 226.16410,99.501109 L 227.39646,102.20737 L 230.32445,102.72640 L 228.13146,104.73472 L 228.54263,107.67979 z "
     inkscape:randomized="0.0000000"
     inkscape:rounded="0.0000000"
     inkscape:flatsided="false"
     transform="matrix(1.510380,0.000000,0.000000,1.540468,97.04384,258.9614)"
     points="228.543,107.68 225.955,106.215 223.281,107.516 223.875,104.602 221.811,102.461 224.766,102.125 226.164,99.5011 227.396,102.207 230.324,102.726 228.131,104.735 228.543,107.68 "
     sodipodi:arg2="1.6019410"
     sodipodi:arg1="0.97362250"
     sodipodi:r2="2.2389653"
     sodipodi:r1="4.4779305"
     sodipodi:cy="103.97687"
     sodipodi:cx="226.02466"
     sodipodi:sides="5"
     id="polygon572"
     style="font-size:12.000000px;fill:#ffffef;fill-rule:evenodd;stroke-width:1.0000000pt"
     sodipodi:type="star" />
  <polygon
     d="M 228.54263,107.67979 L 225.95494,106.21475 L 223.28106,107.51587 L 223.87476,104.60210 L 221.81105,102.46117 L 224.76567,102.12540 L 226.16410,99.501109 L 227.39646,102.20737 L 230.32445,102.72640 L 228.13146,104.73472 L 228.54263,107.67979 z "
     inkscape:randomized="0.0000000"
     inkscape:rounded="0.0000000"
     inkscape:flatsided="false"
     transform="matrix(1.510380,0.000000,0.000000,1.540468,89.33510,279.5982)"
     points="228.543,107.68 225.955,106.215 223.281,107.516 223.875,104.602 221.811,102.461 224.766,102.125 226.164,99.5011 227.396,102.207 230.324,102.726 228.131,104.735 228.543,107.68 "
     sodipodi:arg2="1.6019410"
     sodipodi:arg1="0.97362250"
     sodipodi:r2="2.2389653"
     sodipodi:r1="4.4779305"
     sodipodi:cy="103.97687"
     sodipodi:cx="226.02466"
     sodipodi:sides="5"
     id="polygon573"
     style="font-size:12.000000px;fill:#ffffef;fill-rule:evenodd;stroke-width:1.0000000pt"
     sodipodi:type="star" />
  <polygon
     d="M 228.54263,107.67979 L 225.95494,106.21475 L 223.28106,107.51587 L 223.87476,104.60210 L 221.81105,102.46117 L 224.76567,102.12540 L 226.16410,99.501109 L 227.39646,102.20737 L 230.32445,102.72640 L 228.13146,104.73472 L 228.54263,107.67979 z "
     inkscape:randomized="0.0000000"
     inkscape:rounded="0.0000000"
     inkscape:flatsided="false"
     transform="matrix(1.510380,0.000000,0.000000,1.540468,218.1533,242.0205)"
     points="228.543,107.68 225.955,106.215 223.281,107.516 223.875,104.602 221.811,102.461 224.766,102.125 226.164,99.5011 227.396,102.207 230.324,102.726 228.131,104.735 228.543,107.68 "
     sodipodi:arg2="1.6019410"
     sodipodi:arg1="0.97362250"
     sodipodi:r2="2.2389653"
     sodipodi:r1="4.4779305"
     sodipodi:cy="103.97687"
     sodipodi:cx="226.02466"
     sodipodi:sides="5"
     id="polygon574"
     style="font-size:12.000000px;fill:#ffffef;fill-rule:evenodd;stroke-width:1.0000000pt"
     sodipodi:type="star" />
  <polygon
     d="M 228.54263,107.67979 L 225.95494,106.21475 L 223.28106,107.51587 L 223.87476,104.60210 L 221.81105,102.46117 L 224.76567,102.12540 L 226.16410,99.501109 L 227.39646,102.20737 L 230.32445,102.72640 L 228.13146,104.73472 L 228.54263,107.67979 z "
     inkscape:randomized="0.0000000"
     inkscape:rounded="0.0000000"
     inkscape:flatsided="false"
     transform="matrix(1.510380,0.000000,0.000000,1.540468,180.3522,242.0108)"
     points="228.543,107.68 225.955,106.215 223.281,107.516 223.875,104.602 221.811,102.461 224.766,102.125 226.164,99.5011 227.396,102.207 230.324,102.726 228.131,104.735 228.543,107.68 "
     sodipodi:arg2="1.6019410"
     sodipodi:arg1="0.97362250"
     sodipodi:r2="2.2389653"
     sodipodi:r1="4.4779305"
     sodipodi:cy="103.97687"
     sodipodi:cx="226.02466"
     sodipodi:sides="5"
     id="polygon575"
     style="font-size:12.000000px;fill:#ffffef;fill-rule:evenodd;stroke-width:1.0000000pt"
     sodipodi:type="star" />
  <polygon
     d="M 228.54263,107.67979 L 225.95494,106.21475 L 223.28106,107.51587 L 223.87476,104.60210 L 221.81105,102.46117 L 224.76567,102.12540 L 226.16410,99.501109 L 227.39646,102.20737 L 230.32445,102.72640 L 228.13146,104.73472 L 228.54263,107.67979 z "
     inkscape:randomized="0.0000000"
     inkscape:rounded="0.0000000"
     inkscape:flatsided="false"
     transform="matrix(0.946467,0.000000,0.000000,0.965321,206.7079,290.7711)"
     points="228.543,107.68 225.955,106.215 223.281,107.516 223.875,104.602 221.811,102.461 224.766,102.125 226.164,99.5011 227.396,102.207 230.324,102.726 228.131,104.735 228.543,107.68 "
     sodipodi:arg2="1.6019410"
     sodipodi:arg1="0.97362250"
     sodipodi:r2="2.2389653"
     sodipodi:r1="4.4779305"
     sodipodi:cy="103.97687"
     sodipodi:cx="226.02466"
     sodipodi:sides="5"
     id="polygon576"
     style="font-size:12.000000px;fill:#ffffef;fill-rule:evenodd;stroke-width:1.0000000pt"
     sodipodi:type="star" />
  <polygon
     d="M 228.54263,107.67979 L 225.95494,106.21475 L 223.28106,107.51587 L 223.87476,104.60210 L 221.81105,102.46117 L 224.76567,102.12540 L 226.16410,99.501109 L 227.39646,102.20737 L 230.32445,102.72640 L 228.13146,104.73472 L 228.54263,107.67979 z "
     inkscape:randomized="0.0000000"
     inkscape:rounded="0.0000000"
     inkscape:flatsided="false"
     transform="matrix(1.510380,0.000000,0.000000,1.540468,326.0498,293.2299)"
     points="228.543,107.68 225.955,106.215 223.281,107.516 223.875,104.602 221.811,102.461 224.766,102.125 226.164,99.5011 227.396,102.207 230.324,102.726 228.131,104.735 228.543,107.68 "
     sodipodi:arg2="1.6019410"
     sodipodi:arg1="0.97362250"
     sodipodi:r2="2.2389653"
     sodipodi:r1="4.4779305"
     sodipodi:cy="103.97687"
     sodipodi:cx="226.02466"
     sodipodi:sides="5"
     id="polygon577"
     style="font-size:12.000000px;fill:#ffffef;fill-rule:evenodd;stroke-width:1.0000000pt"
     sodipodi:type="star" />
  <polygon
     d="M 228.54263,107.67979 L 225.95494,106.21475 L 223.28106,107.51587 L 223.87476,104.60210 L 221.81105,102.46117 L 224.76567,102.12540 L 226.16410,99.501109 L 227.39646,102.20737 L 230.32445,102.72640 L 228.13146,104.73472 L 228.54263,107.67979 z "
     inkscape:randomized="0.0000000"
     inkscape:rounded="0.0000000"
     inkscape:flatsided="false"
     transform="matrix(1.251169,0.000000,0.000000,1.279313,353.8234,325.4789)"
     points="228.543,107.68 225.955,106.215 223.281,107.516 223.875,104.602 221.811,102.461 224.766,102.125 226.164,99.5011 227.396,102.207 230.324,102.726 228.131,104.735 228.543,107.68 "
     sodipodi:arg2="1.6019410"
     sodipodi:arg1="0.97362250"
     sodipodi:r2="2.2389653"
     sodipodi:r1="4.4779305"
     sodipodi:cy="103.97687"
     sodipodi:cx="226.02466"
     sodipodi:sides="5"
     id="polygon578"
     style="font-size:12.000000px;fill:#ffffef;fill-rule:evenodd;stroke-width:1.0000000pt"
     sodipodi:type="star" />
  <polygon
     d="M 228.54263,107.67979 L 225.95494,106.21475 L 223.28106,107.51587 L 223.87476,104.60210 L 221.81105,102.46117 L 224.76567,102.12540 L 226.16410,99.501109 L 227.39646,102.20737 L 230.32445,102.72640 L 228.13146,104.73472 L 228.54263,107.67979 z "
     inkscape:randomized="0.0000000"
     inkscape:rounded="0.0000000"
     inkscape:flatsided="false"
     transform="matrix(1.165310,0.000000,0.000000,1.189602,388.2890,334.7798)"
     points="228.543,107.68 225.955,106.215 223.281,107.516 223.875,104.602 221.811,102.461 224.766,102.125 226.164,99.5011 227.396,102.207 230.324,102.726 228.131,104.735 228.543,107.68 "
     sodipodi:arg2="1.6019410"
     sodipodi:arg1="0.97362250"
     sodipodi:r2="2.2389653"
     sodipodi:r1="4.4779305"
     sodipodi:cy="103.97687"
     sodipodi:cx="226.02466"
     sodipodi:sides="5"
     id="polygon579"
     style="font-size:12.000000px;fill:#ffffef;fill-rule:evenodd;stroke-width:1.0000000pt"
     sodipodi:type="star" />
  <polygon
     d="M 228.54263,107.67979 L 225.95494,106.21475 L 223.28106,107.51587 L 223.87476,104.60210 L 221.81105,102.46117 L 224.76567,102.12540 L 226.16410,99.501109 L 227.39646,102.20737 L 230.32445,102.72640 L 228.13146,104.73472 L 228.54263,107.67979 z "
     inkscape:randomized="0.0000000"
     inkscape:rounded="0.0000000"
     inkscape:flatsided="false"
     transform="matrix(1.122386,0.000000,0.000000,1.144745,440.7432,302.3916)"
     points="228.543,107.68 225.955,106.215 223.281,107.516 223.875,104.602 221.811,102.461 224.766,102.125 226.164,99.5011 227.396,102.207 230.324,102.726 228.131,104.735 228.543,107.68 "
     sodipodi:arg2="1.6019410"
     sodipodi:arg1="0.97362250"
     sodipodi:r2="2.2389653"
     sodipodi:r1="4.4779305"
     sodipodi:cy="103.97687"
     sodipodi:cx="226.02466"
     sodipodi:sides="5"
     id="polygon580"
     style="font-size:12.000000px;fill:#ffffef;fill-rule:evenodd;stroke-width:1.0000000pt"
     sodipodi:type="star" />
  <polygon
     d="M 228.54263,107.67979 L 225.95494,106.21475 L 223.28106,107.51587 L 223.87476,104.60210 L 221.81105,102.46117 L 224.76567,102.12540 L 226.16410,99.501109 L 227.39646,102.20737 L 230.32445,102.72640 L 228.13146,104.73472 L 228.54263,107.67979 z "
     inkscape:randomized="0.0000000"
     inkscape:rounded="0.0000000"
     inkscape:flatsided="false"
     transform="matrix(1.465793,0.000000,0.000000,1.413880,304.3925,331.9840)"
     points="228.543,107.68 225.955,106.215 223.281,107.516 223.875,104.602 221.811,102.461 224.766,102.125 226.164,99.5011 227.396,102.207 230.324,102.726 228.131,104.735 228.543,107.68 "
     sodipodi:arg2="1.6019410"
     sodipodi:arg1="0.97362250"
     sodipodi:r2="2.2389653"
     sodipodi:r1="4.4779305"
     sodipodi:cy="103.97687"
     sodipodi:cx="226.02466"
     sodipodi:sides="5"
     id="polygon581"
     style="font-size:12.000000px;fill:#ffffef;fill-rule:evenodd;stroke-width:1.0000000pt"
     sodipodi:type="star" />
  <polygon
     d="M 228.54263,107.67979 L 225.95494,106.21475 L 223.28106,107.51587 L 223.87476,104.60210 L 221.81105,102.46117 L 224.76567,102.12540 L 226.16410,99.501109 L 227.39646,102.20737 L 230.32445,102.72640 L 228.13146,104.73472 L 228.54263,107.67979 z "
     inkscape:randomized="0.0000000"
     inkscape:rounded="0.0000000"
     inkscape:flatsided="false"
     transform="matrix(1.337019,0.000000,0.000000,1.413880,334.0504,348.9344)"
     points="228.543,107.68 225.955,106.215 223.281,107.516 223.875,104.602 221.811,102.461 224.766,102.125 226.164,99.5011 227.396,102.207 230.324,102.726 228.131,104.735 228.543,107.68 "
     sodipodi:arg2="1.6019410"
     sodipodi:arg1="0.97362250"
     sodipodi:r2="2.2389653"
     sodipodi:r1="4.4779305"
     sodipodi:cy="103.97687"
     sodipodi:cx="226.02466"
     sodipodi:sides="5"
     id="polygon582"
     style="font-size:12.000000px;fill:#ffffef;fill-rule:evenodd;stroke-width:1.0000000pt"
     sodipodi:type="star" />
  <polygon
     d="M 228.54263,107.67979 L 225.95494,106.21475 L 223.28106,107.51587 L 223.87476,104.60210 L 221.81105,102.46117 L 224.76567,102.12540 L 226.16410,99.501109 L 227.39646,102.20737 L 230.32445,102.72640 L 228.13146,104.73472 L 228.54263,107.67979 z "
     inkscape:randomized="0.0000000"
     inkscape:rounded="0.0000000"
     inkscape:flatsided="false"
     transform="matrix(1.122386,0.000000,0.000000,1.144745,354.5056,339.6038)"
     points="228.543,107.68 225.955,106.215 223.281,107.516 223.875,104.602 221.811,102.461 224.766,102.125 226.164,99.5011 227.396,102.207 230.324,102.726 228.131,104.735 228.543,107.68 "
     sodipodi:arg2="1.6019410"
     sodipodi:arg1="0.97362250"
     sodipodi:r2="2.2389653"
     sodipodi:r1="4.4779305"
     sodipodi:cy="103.97687"
     sodipodi:cx="226.02466"
     sodipodi:sides="5"
     id="polygon583"
     style="font-size:12.000000px;fill:#ffffef;fill-rule:evenodd;stroke-width:1.0000000pt"
     sodipodi:type="star" />
  <polygon
     d="M 228.54263,107.67979 L 225.95494,106.21475 L 223.28106,107.51587 L 223.87476,104.60210 L 221.81105,102.46117 L 224.76567,102.12540 L 226.16410,99.501109 L 227.39646,102.20737 L 230.32445,102.72640 L 228.13146,104.73472 L 228.54263,107.67979 z "
     inkscape:randomized="0.0000000"
     inkscape:rounded="0.0000000"
     inkscape:flatsided="false"
     transform="matrix(1.122386,0.000000,0.000000,1.144745,327.7053,339.6053)"
     points="228.543,107.68 225.955,106.215 223.281,107.516 223.875,104.602 221.811,102.461 224.766,102.125 226.164,99.5011 227.396,102.207 230.324,102.726 228.131,104.735 228.543,107.68 "
     sodipodi:arg2="1.6019410"
     sodipodi:arg1="0.97362250"
     sodipodi:r2="2.2389653"
     sodipodi:r1="4.4779305"
     sodipodi:cy="103.97687"
     sodipodi:cx="226.02466"
     sodipodi:sides="5"
     id="polygon584"
     style="font-size:12.000000px;fill:#ffffef;fill-rule:evenodd;stroke-width:1.0000000pt"
     sodipodi:type="star" />
  <polygon
     d="M 228.54263,107.67979 L 225.95494,106.21475 L 223.28106,107.51587 L 223.87476,104.60210 L 221.81105,102.46117 L 224.76567,102.12540 L 226.16410,99.501109 L 227.39646,102.20737 L 230.32445,102.72640 L 228.13146,104.73472 L 228.54263,107.67979 z "
     inkscape:randomized="0.0000000"
     inkscape:rounded="0.0000000"
     inkscape:flatsided="false"
     transform="matrix(1.122386,0.000000,0.000000,1.144745,282.2016,299.8121)"
     points="228.543,107.68 225.955,106.215 223.281,107.516 223.875,104.602 221.811,102.461 224.766,102.125 226.164,99.5011 227.396,102.207 230.324,102.726 228.131,104.735 228.543,107.68 "
     sodipodi:arg2="1.6019410"
     sodipodi:arg1="0.97362250"
     sodipodi:r2="2.2389653"
     sodipodi:r1="4.4779305"
     sodipodi:cy="103.97687"
     sodipodi:cx="226.02466"
     sodipodi:sides="5"
     id="polygon585"
     style="font-size:12.000000px;fill:#ffffef;fill-rule:evenodd;stroke-width:1.0000000pt"
     sodipodi:type="star" />
  <polygon
     d="M 228.54263,107.67979 L 225.95494,106.21475 L 223.28106,107.51587 L 223.87476,104.60210 L 221.81105,102.46117 L 224.76567,102.12540 L 226.16410,99.501109 L 227.39646,102.20737 L 230.32445,102.72640 L 228.13146,104.73472 L 228.54263,107.67979 z "
     inkscape:randomized="0.0000000"
     inkscape:rounded="0.0000000"
     inkscape:flatsided="false"
     transform="matrix(0.950677,0.000000,0.000000,0.969614,326.5137,399.7718)"
     points="228.543,107.68 225.955,106.215 223.281,107.516 223.875,104.602 221.811,102.461 224.766,102.125 226.164,99.5011 227.396,102.207 230.324,102.726 228.131,104.735 228.543,107.68 "
     sodipodi:arg2="1.6019410"
     sodipodi:arg1="0.97362250"
     sodipodi:r2="2.2389653"
     sodipodi:r1="4.4779305"
     sodipodi:cy="103.97687"
     sodipodi:cx="226.02466"
     sodipodi:sides="5"
     id="polygon586"
     style="font-size:12.000000px;fill:#ffffef;fill-rule:evenodd;stroke-width:1.0000000pt"
     sodipodi:type="star" />
  <polygon
     d="M 228.54263,107.67979 L 225.95494,106.21475 L 223.28106,107.51587 L 223.87476,104.60210 L 221.81105,102.46117 L 224.76567,102.12540 L 226.16410,99.501109 L 227.39646,102.20737 L 230.32445,102.72640 L 228.13146,104.73472 L 228.54263,107.67979 z "
     inkscape:randomized="0.0000000"
     inkscape:rounded="0.0000000"
     inkscape:flatsided="false"
     transform="matrix(2.262349,0.000000,0.000000,2.307406,-41.98947,124.5350)"
     points="228.543,107.68 225.955,106.215 223.281,107.516 223.875,104.602 221.811,102.461 224.766,102.125 226.164,99.5011 227.396,102.207 230.324,102.726 228.131,104.735 228.543,107.68 "
     sodipodi:arg2="1.6019410"
     sodipodi:arg1="0.97362250"
     sodipodi:r2="2.2389653"
     sodipodi:r1="4.4779305"
     sodipodi:cy="103.97687"
     sodipodi:cx="226.02466"
     sodipodi:sides="5"
     id="polygon587"
     style="font-size:12.000000px;fill:#ffffef;fill-rule:evenodd;stroke-width:1.0000000pt"
     sodipodi:type="star" />
  <path
     sodipodi:nodetypes="ccccc"
     id="path726"
     d="M 713.64351,422.21170 C 716.52283,414.68167 720.23721,403.32569 722.20962,392.90257 C 621.86202,304.75130 509.99466,259.59356 368.64274,268.88481 C 363.57543,278.60145 359.51910,288.77084 356.09960,299.77607 C 523.57356,283.79809 646.34121,357.94655 713.64351,422.21170 z "
     style="font-size:12.000000px;fill:#ffffff;fill-rule:evenodd;stroke-width:1.0000000pt;stroke-opacity:0.50314498" />
  <path
     id="path790"
     d="M 668.53330,372.64838 L 672.11883,374.60613 C 671.55634,375.87731 671.40519,376.98927 671.66042,377.93705 C 671.92555,378.89479 672.58467,379.72814 673.63530,380.43960 C 674.75036,381.20081 675.74648,381.53415 676.62365,381.44460 C 677.51074,381.35504 678.17234,380.99185 678.60102,380.35751 C 678.87111,379.95203 678.98262,379.52416 678.93306,379.07887 C 678.89341,378.63359 678.64810,378.10124 678.19960,377.48680 C 677.88986,377.07136 677.13410,376.19323 675.93480,374.85489 C 674.39354,373.13595 673.47424,371.68567 673.17689,370.50405 C 672.76556,368.84232 673.01583,367.33233 673.93265,365.97161 C 674.52487,365.09597 675.32028,364.44421 676.32135,364.01883 C 677.33729,363.59096 678.44491,363.49394 679.63926,363.72529 C 680.84104,363.95912 682.10477,364.52381 683.41806,365.41936 C 685.56888,366.87959 686.86730,368.45176 687.31085,370.13339 C 687.76430,371.82000 687.48678,373.47178 686.47579,375.08873 L 682.91505,372.89216 C 683.36107,371.90707 683.47010,371.05630 683.23717,370.33987 C 683.01912,369.62094 682.42194,368.93187 681.44565,368.27017 C 680.44210,367.58856 679.51537,367.26019 678.66792,367.28756 C 678.12031,367.30497 677.69906,367.53632 677.39924,367.98160 C 677.12419,368.38957 677.06224,368.85476 677.20844,369.37716 C 677.39924,370.04135 678.19712,371.14337 679.61448,372.68569 C 681.02689,374.22553 681.99079,375.48426 682.50372,376.45941 C 683.02903,377.43207 683.26691,378.44453 683.21735,379.49430 C 683.18266,380.54159 682.79611,381.60878 682.06513,382.69587 C 681.40105,383.68345 680.50653,384.41730 679.38156,384.90736 C 678.25659,385.39742 677.05481,385.51683 675.77126,385.26061 C 674.49514,384.99941 673.11247,384.36257 671.62573,383.35011 C 669.46004,381.88242 668.13188,380.25054 667.64621,378.46194 C 667.16798,376.66588 667.46037,374.72554 668.53330,372.64838 z "
     style="font-size:12.000000px;font-weight:bold;fill:#309e3a;stroke-width:1.0000000pt;stroke-opacity:0.50196099;font-family:Arial" />
  <path
     id="path791"
     d="M 651.53242,361.48394 L 655.19476,363.29244 C 654.68431,364.58352 654.57776,365.70294 654.87015,366.63829 C 655.17741,367.58358 655.86379,368.39206 656.94416,369.06123 C 658.09142,369.77518 659.09745,370.06872 659.96967,369.94433 C 660.85676,369.81747 661.50350,369.43189 661.90244,368.78013 C 662.16014,368.36470 662.25182,367.93185 662.18492,367.48905 C 662.12793,367.04377 661.86031,366.52137 661.38456,365.92434 C 661.05995,365.52135 660.27446,364.67805 659.01816,363.38697 C 657.41000,361.73022 656.43371,360.31725 656.08928,359.15056 C 655.61104,357.50624 655.80184,355.98879 656.65920,354.59075 C 657.21920,353.69272 657.98735,353.01111 658.96860,352.54593 C 659.96967,352.07826 661.07234,351.93397 662.27412,352.11557 C 663.48582,352.30463 664.76937,352.81708 666.11735,353.65789 C 668.32764,355.02857 669.68553,356.54851 670.19598,358.21024 C 670.71634,359.87943 670.50571,361.53867 669.56411,363.19542 L 665.91416,361.14314 C 666.32054,360.14312 666.39735,359.28986 666.13469,358.58338 C 665.88690,357.87192 665.26247,357.20773 664.26388,356.58582 C 663.23059,355.94402 662.29147,355.65545 661.44898,355.71764 C 660.90137,355.75496 660.49003,356.00621 660.20755,356.46393 C 659.95233,356.88185 659.90525,357.34454 660.07375,357.86197 C 660.28932,358.51870 661.13181,359.58838 662.60864,361.07349 C 664.08051,362.55362 665.09645,363.77255 665.64655,364.72531 C 666.21151,365.67558 666.48903,366.67809 666.48160,367.72787 C 666.49151,368.77764 666.14461,369.85727 665.46071,370.97670 C 664.83627,371.98418 663.96653,372.75783 662.86634,373.29516 C 661.76120,373.83000 660.56189,373.99667 659.27091,373.79268 C 657.98983,373.58372 656.58238,372.99913 655.05352,372.05135 C 652.83332,370.66823 651.44074,369.09357 650.88321,367.32487 C 650.32816,365.54871 650.54374,363.60091 651.53242,361.48394 z "
     style="font-size:12.000000px;font-weight:bold;fill:#309e3a;stroke-width:1.0000000pt;stroke-opacity:0.50196099;font-family:Arial" />
  <path
     id="path792"
     d="M 630.49007,355.84700 L 641.26895,338.12271 L 654.35970,346.14528 L 652.53597,349.14535 L 643.01339,343.30691 L 640.61974,347.23486 L 649.48319,352.66782 L 647.66689,355.65296 L 638.80344,350.22249 L 635.87208,355.04598 L 645.73413,361.09090 L 643.91535,364.07853 L 630.49007,355.84700 z "
     style="font-size:12.000000px;font-weight:bold;fill:#309e3a;stroke-width:1.0000000pt;stroke-opacity:0.50196099;font-family:Arial" />
  <path
     id="path795"
     d="M 599.84586,330.67727 L 601.44411,327.56526 L 609.44525,331.70714 L 605.67389,339.05806 C 604.50432,339.41130 603.03492,339.49588 601.25579,339.30931 C 599.49400,339.11776 597.85610,338.63267 596.34211,337.84907 C 594.41925,336.85403 592.94986,335.58783 591.93392,334.04053 C 590.92294,332.48577 590.43974,330.77429 590.49178,328.89862 C 590.54877,327.01301 591.02948,325.18709 591.93887,323.41591 C 592.92260,321.49298 594.20616,319.99543 595.77715,318.91332 C 597.34070,317.83618 599.10745,317.29885 601.06251,317.29885 C 602.55669,317.29388 604.17971,317.75160 605.93654,318.65461 C 608.22117,319.83871 609.75499,321.24173 610.53553,322.86863 C 611.33341,324.49305 611.47961,326.24682 610.97660,328.13492 L 606.93514,326.91848 C 607.14080,325.87865 607.01939,324.91097 606.56593,324.02040 C 606.12734,323.12237 605.37158,322.39847 604.30361,321.84373 C 602.67810,321.00292 601.12446,320.85117 599.63028,321.39099 C 598.14850,321.92831 596.88725,323.21192 595.84653,325.24431 C 594.71908,327.43590 594.35731,329.33147 594.76368,330.93349 C 595.17501,332.52308 596.16370,333.72709 597.73964,334.54303 C 598.51523,334.94354 599.37010,335.19479 600.30179,335.29429 C 601.24835,335.39131 602.11066,335.36643 602.89864,335.21966 L 604.10042,332.87632 L 599.84586,330.67727 z "
     style="font-size:12.000000px;font-weight:bold;fill:#309e3a;stroke-width:1.0000000pt;stroke-opacity:0.50196099;font-family:Arial" />
  <path
     id="path804"
     d="M 466.16057,297.52726 L 469.17370,276.98450 L 475.35359,277.89994 L 477.01626,292.45749 L 482.73526,278.98703 L 488.93744,279.90248 L 485.92679,300.44772 L 482.08852,299.88055 L 484.46235,283.70853 L 478.02724,299.28103 L 474.05021,298.69146 L 472.37019,281.92242 L 469.99884,298.09195 L 466.16057,297.52726 z "
     style="font-size:12.000000px;font-weight:bold;fill:#309e3a;stroke-width:1.0000000pt;stroke-opacity:0.50196099;font-family:Arial" />
  <path
     id="path805"
     d="M 445.26442,295.10183 L 447.19719,274.42225 L 462.46602,275.86507 L 462.14389,279.36266 L 451.03050,278.31538 L 450.59934,282.90006 L 460.93715,283.87272 L 460.61255,287.35787 L 450.27226,286.38273 L 449.74942,292.00972 L 461.24937,293.09183 L 460.92724,296.57948 L 445.26442,295.10183 z "
     style="font-size:12.000000px;font-weight:bold;fill:#309e3a;stroke-width:1.0000000pt;stroke-opacity:0.50196099;font-family:Arial" />
  <g
     style="font-size:12.000000px"
     transform="matrix(2.030321,-1.299594,1.294518,2.038283,-138.1399,168.4522)"
     id="g812">
    <path
       id="path810"
       d="M 154.79300,154.47800 C 155.28300,153.75300 155.80300,153.21800 156.35300,152.87300 C 156.75900,152.62000 157.20000,152.44400 157.67200,152.34400 C 158.14800,152.24600 158.60000,152.24100 159.02800,152.32800 C 159.59800,152.44000 160.17300,152.69200 160.75200,153.08300 C 161.80000,153.79300 162.41800,154.68500 162.60500,155.75900 C 162.79700,156.83700 162.50000,157.95500 161.71700,159.11300 C 160.94000,160.26100 160.01900,160.95000 158.95400,161.17700 C 157.89200,161.40200 156.83800,161.16100 155.79400,160.45400 C 154.73500,159.73800 154.11300,158.84700 153.92400,157.78100 C 153.73700,156.71100 154.02700,155.61000 154.79300,154.47800 z "
       style="font-size:12.000000px;font-weight:bold;fill:#309e3a;stroke-width:1.0000000pt;stroke-opacity:0.50196099;font-family:Arial" />
    <path
       id="path811"
       d="M 156.30600,155.43100 C 155.76100,156.23600 155.53300,156.97400 155.62300,157.64300 C 155.71400,158.30900 156.04700,158.83600 156.62000,159.22300 C 157.19200,159.61000 157.80100,159.72200 158.44400,159.55900 C 159.09300,159.39400 159.69600,158.89900 160.25500,158.07400 C 160.80600,157.25900 161.03800,156.52900 160.95100,155.88500 C 160.86600,155.24300 160.52800,154.72200 159.93600,154.32100 C 159.34400,153.92100 158.72900,153.80200 158.09000,153.96400 C 157.45400,154.12300 156.85900,154.61200 156.30600,155.43100 z "
       style="font-size:12.000000px;font-weight:bold;fill:#f7ffff;fill-opacity:1.0000000;stroke-width:1.0000000pt;stroke-opacity:0.50196099;font-family:Arial" />
  </g>
  <g
     style="font-size:12.000000px"
     transform="matrix(2.009958,-1.331112,1.325913,2.017839,-138.5289,176.7006)"
     id="g815">
    <path
       id="path808"
       d="M 160.44200,163.42200 L 165.25600,156.30700 L 168.27900,158.35300 C 169.04000,158.86800 169.54800,159.30500 169.80300,159.66700 C 170.06400,160.02700 170.18700,160.44100 170.17300,160.90800 C 170.15900,161.37500 170.01000,161.81800 169.72500,162.23900 C 169.36400,162.77300 168.90800,163.10800 168.35800,163.24500 C 167.81000,163.37900 167.19300,163.28000 166.50700,162.94800 C 166.69500,163.33900 166.81700,163.71200 166.87000,164.06400 C 166.92800,164.41800 166.94000,164.98800 166.90900,165.77400 L 166.83900,167.74900 L 165.12100,166.58700 L 165.13000,164.33600 C 165.13600,163.53400 165.11800,163.01500 165.07900,162.78100 C 165.04100,162.54300 164.96400,162.34700 164.84700,162.19200 C 164.73200,162.03500 164.51000,161.84400 164.17900,161.62100 L 163.88900,161.42400 L 161.87900,164.39400 L 160.44200,163.42200 z "
       style="font-size:12.000000px;font-weight:bold;fill:#309e3a;stroke-width:1.0000000pt;stroke-opacity:0.50196099;font-family:Arial" />
    <path
       id="path809"
       d="M 164.65700,160.28800 L 165.72000,161.00700 C 166.40900,161.47400 166.85900,161.73600 167.07000,161.79400 C 167.28100,161.85100 167.48300,161.84200 167.67600,161.76500 C 167.86900,161.68800 168.03800,161.54300 168.18300,161.33000 C 168.34500,161.09000 168.41100,160.85400 168.37900,160.62100 C 168.35400,160.38700 168.23800,160.17100 168.03100,159.97500 C 167.92500,159.88000 167.58100,159.63500 166.99900,159.24100 L 165.87800,158.48300 L 164.65700,160.28800 z "
       style="font-size:12.000000px;font-weight:bold;fill:#ffffff;fill-opacity:1.0000000;stroke-width:1.0000000pt;stroke-opacity:0.50196099;font-family:Arial" />
  </g>
  <g
     style="font-size:12.000000px"
     transform="matrix(2.060093,-1.251481,1.246593,2.068172,-131.8419,155.6178)"
     id="g818">
    <path
       id="path806"
       d="M 172.42400,161.15700 L 175.05000,162.93300 C 175.64200,163.33400 176.06200,163.68400 176.31100,163.98500 C 176.64500,164.39000 176.85500,164.85100 176.94000,165.36600 C 177.02600,165.88100 176.99200,166.41900 176.83900,166.98100 C 176.68700,167.53900 176.38700,168.15100 175.93600,168.81700 C 175.54000,169.40300 175.12500,169.85800 174.69300,170.18400 C 174.16400,170.58100 173.62800,170.82800 173.08000,170.92500 C 172.66800,171.00000 172.20300,170.96100 171.68700,170.81000 C 171.30200,170.69600 170.84400,170.45900 170.31300,170.10000 L 167.61100,168.27200 L 172.42400,161.15700 z "
       style="font-size:12.000000px;font-weight:bold;fill:#309e3a;stroke-width:1.0000000pt;stroke-opacity:0.50196099;font-family:Arial" />
    <path
       id="path807"
       d="M 173.04600,163.33200 L 169.85800,168.04500 L 170.93100,168.77000 C 171.33100,169.04200 171.63700,169.21500 171.84500,169.29000 C 172.11700,169.38900 172.37700,169.42100 172.62300,169.38500 C 172.87300,169.35100 173.15300,169.20800 173.46400,168.95600 C 173.77800,168.70200 174.12100,168.30000 174.49300,167.75000 C 174.86500,167.20000 175.10200,166.74400 175.20500,166.38400 C 175.30700,166.02400 175.32600,165.70300 175.26300,165.41900 C 175.20000,165.13600 175.05400,164.87500 174.82500,164.63500 C 174.65500,164.45400 174.27700,164.16500 173.69100,163.76900 L 173.04600,163.33200 z "
       style="font-size:12.000000px;font-weight:bold;fill:#ffffff;fill-opacity:1.0000000;stroke-width:1.0000000pt;stroke-opacity:0.50196099;font-family:Arial" />
  </g>
  <g
     style="font-size:12.000000px"
     transform="matrix(2.254291,-0.849572,0.846253,2.263131,-87.99839,49.22530)"
     id="g824">
    <path
       id="path800"
       d="M 200.75200,190.69300 L 205.56500,183.57800 L 207.87100,185.13800 C 208.74400,185.72900 209.29000,186.15000 209.50700,186.40100 C 209.84200,186.78300 210.02600,187.24700 210.05800,187.79200 C 210.09200,188.33400 209.91700,188.88800 209.53400,189.45400 C 209.23900,189.89100 208.91200,190.20500 208.55100,190.39500 C 208.19200,190.58600 207.83100,190.68300 207.46900,190.68900 C 207.11200,190.69300 206.78900,190.63700 206.49900,190.52100 C 206.11100,190.35700 205.59100,190.05500 204.94100,189.61500 L 204.00500,188.98100 L 202.18900,191.66500 L 200.75200,190.69300 z "
       style="font-size:12.000000px;font-weight:bold;fill:#309e3a;stroke-width:1.0000000pt;stroke-opacity:0.50196099;font-family:Arial" />
    <path
       id="path801"
       d="M 206.18800,185.75400 L 204.82200,187.77300 L 205.60800,188.30500 C 206.17500,188.68800 206.57800,188.90700 206.81900,188.96100 C 207.06100,189.01600 207.28800,189.00000 207.50200,188.91400 C 207.71900,188.83000 207.89900,188.68300 208.04100,188.47200 C 208.21600,188.21300 208.28500,187.94900 208.24700,187.67800 C 208.20800,187.40600 208.08700,187.17100 207.88300,186.97200 C 207.73300,186.82300 207.40000,186.57400 206.88200,186.22400 L 206.18800,185.75400 z "
       style="font-size:12.000000px;font-weight:bold;fill:#ffffff;fill-opacity:1.0000000;stroke-width:1.0000000pt;stroke-opacity:0.50196099;font-family:Arial" />
  </g>
  <g
     style="font-size:12.000000px"
     transform="matrix(2.329431,-0.612081,0.609690,2.338566,-56.96035,-13.51345)"
     id="g827">
    <path
       id="path798"
       d="M 207.38600,195.18100 L 212.19900,188.06700 L 215.22300,190.11300 C 215.98400,190.62700 216.49200,191.06500 216.74700,191.42600 C 217.00800,191.78700 217.13100,192.20000 217.11700,192.66700 C 217.10300,193.13400 216.95400,193.57800 216.66900,193.99800 C 216.30800,194.53200 215.85200,194.86700 215.30200,195.00400 C 214.75400,195.13800 214.13700,195.03900 213.45100,194.70800 C 213.63900,195.09900 213.76100,195.47100 213.81400,195.82300 C 213.87200,196.17800 213.88400,196.74800 213.85300,197.53300 L 213.78300,199.50900 L 212.06500,198.34700 L 212.07400,196.09600 C 212.07900,195.29300 212.06200,194.77500 212.02300,194.54000 C 211.98500,194.30300 211.90800,194.10700 211.79100,193.95200 C 211.67600,193.79400 211.45400,193.60400 211.12300,193.38000 L 210.83300,193.18300 L 208.82300,196.15400 L 207.38600,195.18100 z "
       style="font-size:12.000000px;font-weight:bold;fill:#309e3a;stroke-width:1.0000000pt;stroke-opacity:0.50196099;font-family:Arial" />
    <path
       id="path799"
       d="M 211.60100,192.04800 L 212.66400,192.76700 C 213.35300,193.23300 213.80200,193.49500 214.01300,193.55200 C 214.22400,193.61000 214.42600,193.60100 214.62000,193.52400 C 214.81300,193.44800 214.98200,193.30200 215.12600,193.08900 C 215.28800,192.84900 215.35400,192.61300 215.32300,192.38000 C 215.29800,192.14600 215.18100,191.93100 214.97500,191.73400 C 214.86900,191.63900 214.52500,191.39500 213.94300,191.00100 L 212.82200,190.24200 L 211.60100,192.04800 z "
       style="font-size:12.000000px;font-weight:bold;fill:#ffffff;fill-opacity:1.0000000;stroke-width:1.0000000pt;stroke-opacity:0.50196099;font-family:Arial" />
  </g>
  <g
     style="font-size:12.000000px"
     transform="matrix(2.305472,-0.697543,0.694819,2.314513,-66.45074,11.95656)"
     id="g830">
    <path
       id="path796"
       d="M 216.64500,196.32400 C 217.13600,195.59900 217.65600,195.06400 218.20400,194.71900 C 218.61200,194.46600 219.05100,194.28900 219.52500,194.19000 C 220.00100,194.09200 220.45300,194.08700 220.88000,194.17300 C 221.45100,194.28500 222.02500,194.53700 222.60400,194.92900 C 223.65300,195.63800 224.27000,196.53000 224.45800,197.60500 C 224.64900,198.68200 224.35300,199.80000 223.56900,200.95800 C 222.79200,202.10700 221.87100,202.79500 220.80700,203.02300 C 219.74500,203.24800 218.69100,203.00600 217.64600,202.29900 C 216.58800,201.58400 215.96500,200.69300 215.77600,199.62700 C 215.58900,198.55700 215.87900,197.45600 216.64500,196.32400 z "
       style="font-size:12.000000px;font-weight:bold;fill:#309e3a;stroke-width:1.0000000pt;stroke-opacity:0.50196099;font-family:Arial" />
    <path
       id="path797"
       d="M 218.15800,197.27700 C 217.61300,198.08200 217.38500,198.81900 217.47500,199.48900 C 217.56700,200.15400 217.89900,200.68100 218.47200,201.06900 C 219.04500,201.45600 219.65200,201.56800 220.29600,201.40400 C 220.94500,201.24000 221.54900,200.74500 222.10700,199.92000 C 222.65900,199.10400 222.89100,198.37500 222.80300,197.73000 C 222.71900,197.08900 222.38000,196.56700 221.78800,196.16700 C 221.19600,195.76600 220.58100,195.64700 219.94300,195.81000 C 219.30700,195.96900 218.71200,196.45800 218.15800,197.27700 z "
       style="font-size:12.000000px;font-weight:bold;fill:#ffffff;fill-opacity:1.0000000;stroke-width:1.0000000pt;stroke-opacity:0.50196099;font-family:Arial" />
  </g>
  <g
     style="font-size:12.000000px"
     transform="matrix(2.391319,-0.283178,0.282072,2.400697,0.415007,-96.06780)"
     id="g833">
    <path
       id="path793"
       d="M 230.02600,210.49800 L 234.83900,203.38300 L 237.86300,205.42900 C 238.62300,205.94400 239.13100,206.38100 239.38700,206.74300 C 239.64700,207.10300 239.77100,207.51700 239.75700,207.98400 C 239.74300,208.45100 239.59300,208.89400 239.30900,209.31500 C 238.94800,209.84900 238.49200,210.18400 237.94100,210.32100 C 237.39300,210.45500 236.77700,210.35600 236.09100,210.02400 C 236.27900,210.41500 236.40000,210.78800 236.45400,211.14000 C 236.51100,211.49500 236.52400,212.06400 236.49300,212.85000 L 236.42200,214.82500 L 234.70500,213.66300 L 234.71300,211.41300 C 234.71800,210.60900 234.70200,210.09100 234.66200,209.85700 C 234.62500,209.62000 234.54700,209.42300 234.43000,209.26800 C 234.31600,209.11100 234.09300,208.92000 233.76300,208.69700 L 233.47200,208.50000 L 231.46300,211.47000 L 230.02600,210.49800 z "
       style="font-size:12.000000px;font-weight:bold;fill:#309e3a;stroke-width:1.0000000pt;stroke-opacity:0.50196099;font-family:Arial" />
    <path
       id="path794"
       d="M 234.24000,207.36400 L 235.30300,208.08300 C 235.99200,208.55000 236.44200,208.81100 236.65300,208.86900 C 236.86300,208.92700 237.06600,208.91700 237.26000,208.84100 C 237.45300,208.76400 237.62100,208.61900 237.76600,208.40500 C 237.92800,208.16600 237.99300,207.93000 237.96300,207.69700 C 237.93700,207.46300 237.82100,207.24700 237.61500,207.05100 C 237.50900,206.95600 237.16500,206.71100 236.58200,206.31700 L 235.46200,205.55900 L 234.24000,207.36400 z "
       style="font-size:12.000000px;font-weight:bold;fill:#ffffff;fill-opacity:1.0000000;stroke-width:1.0000000pt;stroke-opacity:0.50196099;font-family:Arial" />
  </g>
  <g
     style="font-size:12.000000px"
     transform="matrix(2.407899,0.000000,0.000000,2.417341,62.55793,-162.0880)"
     id="g836">
    <path
       id="path788"
       d="M 259.17200,225.09500 C 259.66200,224.37000 260.18200,223.83500 260.73200,223.49000 C 261.13900,223.23700 261.57900,223.06100 262.05200,222.96100 C 262.52900,222.86400 262.98000,222.85800 263.40700,222.94400 C 263.97800,223.05700 264.55300,223.30900 265.13200,223.70100 C 266.18000,224.41000 266.79800,225.30200 266.98600,226.37700 C 267.17700,227.45400 266.88000,228.57100 266.09600,229.73000 C 265.31900,230.87800 264.39900,231.56700 263.33500,231.79500 C 262.27200,232.01900 261.21900,231.77800 260.17300,231.07100 C 259.11600,230.35500 258.49200,229.46400 258.30300,228.39800 C 258.11600,227.32800 258.40600,226.22700 259.17200,225.09500 z "
       style="font-size:12.000000px;font-weight:bold;fill:#309e3a;stroke-width:1.0000000pt;stroke-opacity:0.50196099;font-family:Arial" />
    <path
       id="path789"
       d="M 260.68600,226.04800 C 260.14100,226.85400 259.91300,227.59100 260.00200,228.26000 C 260.09500,228.92600 260.42700,229.45200 260.99900,229.84000 C 261.57200,230.22700 262.18000,230.33900 262.82400,230.17600 C 263.47300,230.01100 264.07700,229.51700 264.63500,228.69100 C 265.18600,227.87600 265.41800,227.14600 265.33000,226.50200 C 265.24500,225.86000 264.90700,225.33900 264.31500,224.93800 C 263.72300,224.53700 263.10800,224.41800 262.47000,224.58100 C 261.83400,224.74000 261.24000,225.23000 260.68600,226.04800 z "
       style="font-size:12.000000px;font-weight:bold;fill:#ffffff;fill-opacity:1.0000000;stroke-width:1.0000000pt;stroke-opacity:0.50196099;font-family:Arial" />
  </g>
  <path
     id="path872"
     d="M 502.48909,301.78357 L 505.81939,287.20613 L 516.58588,289.68877 L 516.02587,292.15151 L 508.19322,290.34799 L 507.44737,293.57941 L 514.74232,295.26104 L 514.17735,297.71383 L 506.89232,296.03717 L 505.98293,300.00244 L 514.09311,301.87064 L 513.53310,304.32841 L 502.48909,301.78357 z "
     style="font-size:12.000000px;font-weight:bold;fill:#309e3a;stroke-width:1.0000000pt;stroke-opacity:0.50196099;font-family:Arial" />
</svg>
