<?xml version="1.0" encoding="UTF-8" standalone="no"?>
<!-- Created with Sodipodi ("http://www.sodipodi.com/") -->
<svg
   xmlns:dc="http://purl.org/dc/elements/1.1/"
   xmlns:cc="http://web.resource.org/cc/"
   xmlns:rdf="http://www.w3.org/1999/02/22-rdf-syntax-ns#"
   xmlns:svg="http://www.w3.org/2000/svg"
   xmlns="http://www.w3.org/2000/svg"
   xmlns:sodipodi="http://sodipodi.sourceforge.net/DTD/sodipodi-0.dtd"
   xmlns:inkscape="http://www.inkscape.org/namespaces/inkscape"
   height="216"
   id="svg1350"
   sodipodi:docbase="C:\freeciv"
   sodipodi:docname="bourgogne.svg"
   sodipodi:version="0.32"
   width="324"
   inkscape:version="0.45.1"
   version="1.0"
   inkscape:output_extension="org.inkscape.output.svg.inkscape">
  <metadata
     id="metadata3">
    <rdf:RDF>
      <cc:Work
         rdf:about="">
        <dc:title>France - Bbourgogne</dc:title>
        <dc:description />
        <dc:subject>
          <rdf:Bag>
            <rdf:li />
            <rdf:li>europe</rdf:li>
            <rdf:li>france</rdf:li>
            <rdf:li>flag</rdf:li>
            <rdf:li>sign</rdf:li>
            <rdf:li>subnational</rdf:li>
          </rdf:Bag>
        </dc:subject>
        <dc:publisher>
          <cc:Agent
             rdf:about="http://www.openclipart.org">
            <dc:title>Patricia Fidi</dc:title>
          </cc:Agent>
        </dc:publisher>
        <dc:creator>
          <cc:Agent>
            <dc:title>Patricia Fidi</dc:title>
          </cc:Agent>
        </dc:creator>
        <dc:rights>
          <cc:Agent>
            <dc:title>Patricia Fidi</dc:title>
          </cc:Agent>
        </dc:rights>
        <dc:date />
        <dc:format>image/svg+xml</dc:format>
        <dc:type
           rdf:resource="http://purl.org/dc/dcmitype/StillImage" />
        <cc:license
           rdf:resource="http://web.resource.org/cc/PublicDomain" />
        <dc:language>en</dc:language>
      </cc:Work>
      <cc:License
         rdf:about="http://web.resource.org/cc/PublicDomain">
        <cc:permits
           rdf:resource="http://web.resource.org/cc/Reproduction" />
        <cc:permits
           rdf:resource="http://web.resource.org/cc/Distribution" />
        <cc:permits
           rdf:resource="http://web.resource.org/cc/DerivativeWorks" />
      </cc:License>
    </rdf:RDF>
  </metadata>
  <defs
     id="defs1352">
    <defs
       id="defs5117" />
    <sodipodi:namedview
       id="namedview5116" />
  </defs>
  <sodipodi:namedview
     bordercolor="#000000"
     borderlayer="top"
     borderopacity="1"
     id="base"
     showgrid="false"
     height="216px"
     width="324px"
     showguides="true"
     inkscape:guide-bbox="true"
     inkscape:zoom="3.3227149"
     inkscape:cx="160.2895"
     inkscape:cy="101.43453"
     inkscape:window-width="1280"
     inkscape:window-height="968"
     inkscape:window-x="0"
     inkscape:window-y="22"
     inkscape:current-layer="svg1350" />
  <rect
     height="216"
     id="rect1139"
     style="font-size:12px;fill:#009;fill-rule:evenodd"
     transform="scale(-1,1)"
     width="324"
     x="-324.00012"
     y="-0.073860168" />
  <path
     d="M 277.04445,8.5487173e-015 L 324,0.09871048 L 323.89065,29.419654 L 277.04445,8.5487173e-015 L 277.04445,8.5487173e-015 L 277.04445,8.5487173e-015 L 277.04445,8.5487173e-015 L 277.04445,8.5487173e-015 L 277.04445,8.5487173e-015 L 277.04445,8.5487173e-015 z "
     id="path1121"
     sodipodi:nodetypes="ccccccccc"
     style="font-size:12px;fill:#ffd700;fill-rule:evenodd;stroke-width:1;stroke-opacity:0.54779998" />
  <path
     d="M 225.69121,0.03810342 L 323.89913,58.397316 L 323.99154,87.700041 L 181.28215,0.03143457 L 225.69121,0.03810342 L 225.69121,0.03810342 L 225.69121,0.03810342 L 225.69121,0.03810342 L 225.69121,0.03810342 L 225.69121,0.03810342 L 225.69121,0.03810342 L 225.69121,0.03810342 L 225.69121,0.03810342 z "
     id="path1122"
     sodipodi:nodetypes="cccccccccccc"
     style="font-size:12px;fill:#ffd700;fill-rule:evenodd;stroke-width:1;stroke-opacity:0.54779998" />
  <path
     d="M 0.02096041,158.23364 L 93.126628,216 L 49.287819,215.90129 L 0,185.34831 L 0.02096041,158.23364 L 0.02096041,158.23364 L 0.02096041,158.23364 L 0.02096041,158.23364 L 0.02096041,158.23364 L 0.02096041,158.23364 L 0.02096041,158.23364 z "
     id="path1142"
     sodipodi:nodetypes="cccccccccc"
     style="font-size:12px;fill:#ffd700;fill-rule:evenodd;stroke-width:1;stroke-opacity:0.54779998" />
  <path
     d="M 0.020961,99.34286 L 190.03534,217 L 146.19652,216.90129 L 0,126.45753 L 0.020961,99.34286 L 0.020961,99.34286 L 0.020961,99.34286 L 0.020961,99.34286 L 0.020961,99.34286 L 0.020961,99.34286 L 0.020961,99.34286 z "
     id="path2321"
     sodipodi:nodetypes="ccccccccccc"
     style="font-size:12px;fill:#ffd700;fill-rule:evenodd;stroke-width:1;stroke-opacity:0.54779998" />
  <path
     d="M 0.02096,40.359739 L 284.23541,217.30575 L 240.3966,217.20704 L 0,67.474412 L 0.02096,40.359739 L 0.02096,40.359739 L 0.02096,40.359739 L 0.02096,40.359739 L 0.02096,40.359739 L 0.02096,40.359739 L 0.02096,40.359739 z "
     id="path2331"
     sodipodi:nodetypes="ccccccccccc"
     style="font-size:12px;fill:#ffd700;fill-rule:evenodd;stroke-width:1;stroke-opacity:0.54779998" />
  <path
     d="M 0.020961,-21.032006 L 379.94028,214.3 L 336.10147,214.20129 L 0,6.082666 L 0.020961,-21.032006 L 0.020961,-21.032006 L 0.020961,-21.032006 L 0.020961,-21.032006 L 0.020961,-21.032006 L 0.020961,-21.032006 L 0.020961,-21.032006 z "
     id="path2325"
     sodipodi:nodetypes="ccccccccccc"
     style="font-size:12px;fill:#ffd700;fill-rule:evenodd;stroke-width:1;stroke-opacity:0.54779998" />
  <path
     d="M 127.55252,-0.27668933 L 323.87298,118.27427 L 323.96539,147.577 L 83.14346,-0.28335833 L 127.55252,-0.27668933 L 127.55252,-0.27668933 L 127.55252,-0.27668933 L 127.55252,-0.27668933 L 127.55252,-0.27668933 L 127.55252,-0.27668933 L 127.55252,-0.27668933 L 127.55252,-0.27668933 L 127.55252,-0.27668933 z "
     id="path2329"
     sodipodi:nodetypes="ccccccccccccc"
     style="font-size:12px;fill:#ffd700;fill-rule:evenodd;stroke-width:1;stroke-opacity:0.54779998" />
  <path
     d="M 225.66494,59.914766 L 323.87259,118.27398 L 323.965,147.57671 L 181.256,59.908097 L 225.66494,59.914766 L 225.66494,59.914766 L 225.66494,59.914766 L 225.66494,59.914766 L 225.66494,59.914766 L 225.66494,59.914766 L 225.66494,59.914766 L 225.66494,59.914766 L 225.66494,59.914766 z "
     id="path2327"
     sodipodi:nodetypes="cccccccccccc"
     style="font-size:12px;fill:#ffd700;fill-rule:evenodd;stroke-width:1;stroke-opacity:0.54779998" />
  <path
     style="font-size:12px;fill:#ff0000;fill-opacity:1;fill-rule:evenodd"
     d="M 0 0 L 0 216 L 324 216 L 324 0 L 0 0 z M 32.5 32.5 L 291.5 32.5 L 291.5 183.5 L 32.5 183.5 L 32.5 32.5 z "
     id="rect2721" />
</svg>
