<?xml version="1.0" encoding="UTF-8" standalone="no"?>
<svg
   xmlns:dc="http://purl.org/dc/elements/1.1/"
   xmlns:cc="http://creativecommons.org/ns#"
   xmlns:rdf="http://www.w3.org/1999/02/22-rdf-syntax-ns#"
   xmlns:svg="http://www.w3.org/2000/svg"
   xmlns="http://www.w3.org/2000/svg"
   xmlns:sodipodi="http://sodipodi.sourceforge.net/DTD/sodipodi-0.dtd"
   xmlns:inkscape="http://www.inkscape.org/namespaces/inkscape"
   width="310pt"
   height="210pt"
   viewBox="0 0 310 210"
   version="1.1"
   id="svg2"
   inkscape:version="0.48.1 r9760"
   sodipodi:docname="burgundic.svg">
  <metadata
     id="metadata33">
    <rdf:RDF>
      <cc:Work
         rdf:about="">
        <dc:format>image/svg+xml</dc:format>
        <dc:type
           rdf:resource="http://purl.org/dc/dcmitype/StillImage" />
        <dc:title></dc:title>
      </cc:Work>
    </rdf:RDF>
  </metadata>
  <defs
     id="defs31" />
  <sodipodi:namedview
     pagecolor="#ffffff"
     bordercolor="#666666"
     borderopacity="1"
     objecttolerance="10"
     gridtolerance="10"
     guidetolerance="10"
     inkscape:pageopacity="0"
     inkscape:pageshadow="2"
     inkscape:window-width="640"
     inkscape:window-height="480"
     id="namedview29"
     showgrid="false"
     inkscape:zoom="0.9752381"
     inkscape:cx="193.75"
     inkscape:cy="131.25"
     inkscape:window-x="0"
     inkscape:window-y="0"
     inkscape:window-maximized="0"
     inkscape:current-layer="svg2" />
  <g
     id="#0000b4ff">
    <path
       fill="#0000b4"
       opacity="1.00"
       d=" M 0.00 0.00 L 310.00 0.00 L 310.00 210.00 L 0.00 210.00 L 0.00 0.00 M 153.19 17.46 C 149.56 18.71 146.80 21.52 143.77 23.76 C 139.03 27.29 134.83 31.50 131.11 36.07 C 129.21 39.71 125.86 42.26 123.79 45.78 C 120.46 51.36 117.63 57.23 115.25 63.27 C 113.10 68.01 112.85 73.29 111.29 78.21 C 110.98 83.06 110.88 87.94 109.78 92.71 C 95.98 101.70 84.19 113.85 76.41 128.40 C 74.90 132.44 73.28 136.43 71.22 140.22 C 69.03 149.27 67.71 158.54 66.94 167.80 C 73.90 171.14 80.83 174.88 88.42 176.60 C 94.75 179.38 101.83 179.04 108.53 180.22 C 113.43 181.23 118.27 179.88 123.11 179.16 C 133.24 179.15 142.97 175.40 151.89 170.85 C 153.65 170.04 155.51 168.17 157.57 169.32 C 168.24 174.58 179.77 178.78 191.76 179.32 C 199.43 180.84 207.10 178.89 214.79 178.77 C 224.50 176.26 235.07 174.46 243.05 168.00 C 243.94 164.85 243.75 161.41 243.90 158.14 C 241.53 141.71 235.09 125.51 223.97 113.02 C 217.05 105.19 209.48 97.51 200.05 92.78 C 200.52 78.19 196.79 63.43 189.52 50.79 C 189.46 50.68 189.35 50.47 189.30 50.36 C 186.32 44.41 181.70 39.57 177.63 34.39 C 174.67 30.68 170.83 27.85 167.33 24.70 C 163.09 21.54 158.78 17.59 153.19 17.46 Z"
       id="path5" />
    <path
       fill="#0000b4"
       opacity="1.00"
       d=" M 146.55 48.55 C 148.65 45.23 152.08 43.20 155.07 40.78 C 167.69 51.39 177.46 66.17 179.03 82.88 C 177.48 83.53 175.88 83.54 174.46 82.58 C 166.16 80.37 157.49 81.12 149.00 80.97 C 142.90 80.73 136.93 82.18 130.93 83.05 C 132.04 70.17 138.31 58.30 146.55 48.55 Z"
       id="path7" />
    <path
       fill="#0000b4"
       opacity="1.00"
       d=" M 132.00 104.28 C 137.35 103.24 142.43 100.57 147.98 100.96 C 154.97 101.14 161.96 100.80 168.93 101.08 C 172.24 101.84 175.50 102.98 178.60 104.38 C 178.55 110.80 175.90 116.67 173.47 122.48 C 170.59 127.52 167.13 132.19 164.15 137.16 C 161.26 139.72 158.31 142.29 154.96 144.24 C 150.73 141.04 148.33 136.12 144.24 132.74 C 141.24 128.68 138.56 124.29 136.17 119.82 C 134.57 114.71 131.30 109.85 132.00 104.28 Z"
       id="path9" />
    <path
       fill="#0000b4"
       opacity="1.00"
       d=" M 112.27 113.91 C 114.69 115.05 114.80 118.06 115.75 120.24 C 116.86 124.98 118.96 129.36 121.47 133.51 C 124.97 141.24 131.05 147.29 136.77 153.39 C 136.85 153.96 137.00 155.08 137.07 155.64 C 129.01 158.40 120.59 160.57 112.00 160.05 C 104.04 160.43 96.46 158.10 88.96 155.80 C 89.13 143.74 95.88 132.75 103.48 123.80 C 103.55 123.71 103.71 123.52 103.78 123.43 C 106.30 119.99 109.33 116.98 112.27 113.91 Z"
       id="path11" />
    <path
       fill="#0000b4"
       opacity="1.00"
       d=" M 195.67 119.16 C 195.89 117.39 197.08 115.91 198.88 115.57 C 200.89 117.42 202.97 119.18 205.11 120.87 C 207.89 122.89 208.90 126.36 211.23 128.78 C 217.55 136.21 220.34 145.72 222.80 154.95 C 220.81 157.24 217.62 156.96 215.02 158.03 C 212.02 159.26 208.71 158.92 205.59 159.59 C 195.15 161.32 184.89 157.97 174.81 155.75 C 177.72 149.67 183.65 145.70 186.68 139.67 C 190.12 133.05 194.06 126.54 195.67 119.16 Z"
       id="path13" />
  </g>
  <g
     id="#cf001bff">
    <path
       fill="#cf001b"
       opacity="1.00"
       d=" M 153.19 17.46 C 158.78 17.59 163.09 21.54 167.33 24.70 C 170.83 27.85 174.67 30.68 177.63 34.39 C 181.70 39.57 186.32 44.41 189.30 50.36 C 189.35 50.47 189.46 50.68 189.52 50.79 C 196.79 63.43 200.52 78.19 200.05 92.78 C 209.48 97.51 217.05 105.19 223.97 113.02 C 235.09 125.51 241.53 141.71 243.90 158.14 C 243.75 161.41 243.94 164.85 243.05 168.00 C 235.07 174.46 224.50 176.26 214.79 178.77 C 207.10 178.89 199.43 180.84 191.76 179.32 C 179.77 178.78 168.24 174.58 157.57 169.32 C 155.51 168.17 153.65 170.04 151.89 170.85 C 142.97 175.40 133.24 179.15 123.11 179.16 C 118.27 179.88 113.43 181.23 108.53 180.22 C 101.83 179.04 94.75 179.38 88.42 176.60 C 80.83 174.88 73.90 171.14 66.94 167.80 C 67.71 158.54 69.03 149.27 71.22 140.22 C 73.28 136.43 74.90 132.44 76.41 128.40 C 84.19 113.85 95.98 101.70 109.78 92.71 C 110.88 87.94 110.98 83.06 111.29 78.21 C 112.85 73.29 113.10 68.01 115.25 63.27 C 117.63 57.23 120.46 51.36 123.79 45.78 C 125.86 42.26 129.21 39.71 131.11 36.07 C 134.83 31.50 139.03 27.29 143.77 23.76 C 146.80 21.52 149.56 18.71 153.19 17.46 M 152.50 23.20 C 149.84 26.38 145.89 28.06 143.21 31.22 C 134.17 39.53 126.63 49.66 122.08 61.10 C 118.08 69.85 115.79 79.49 116.00 89.13 C 119.50 87.69 125.31 87.55 125.78 82.80 C 128.45 65.16 137.49 48.67 150.82 36.81 C 152.22 35.69 153.94 34.66 155.81 34.95 C 160.49 37.88 164.73 41.60 167.73 46.27 C 170.55 50.73 174.30 54.57 176.68 59.31 C 180.79 68.04 184.34 77.26 185.00 86.97 C 184.99 91.94 185.19 96.93 184.84 101.89 C 183.51 110.32 180.60 118.39 177.15 126.16 C 174.95 129.37 173.21 132.85 171.14 136.13 C 167.56 140.03 164.24 144.15 160.63 148.03 C 162.91 149.69 165.29 151.23 167.90 152.31 C 171.35 149.30 174.85 146.29 177.74 142.71 C 184.47 131.98 191.12 120.67 192.89 107.88 C 194.64 100.68 193.94 93.27 194.00 85.94 C 193.12 73.16 189.08 60.60 182.24 49.78 C 179.56 44.44 175.89 39.59 171.38 35.66 C 167.45 32.22 164.34 27.69 159.37 25.60 C 157.16 24.70 155.08 22.15 152.50 23.20 M 146.55 48.55 C 138.31 58.30 132.04 70.17 130.93 83.05 C 136.93 82.18 142.90 80.73 149.00 80.97 C 157.49 81.12 166.16 80.37 174.46 82.58 C 175.88 83.54 177.48 83.53 179.03 82.88 C 177.46 66.17 167.69 51.39 155.07 40.78 C 152.08 43.20 148.65 45.23 146.55 48.55 M 109.84 98.83 C 101.17 105.35 92.50 112.37 86.68 121.67 C 84.18 126.23 80.70 130.36 79.48 135.53 C 75.39 144.64 72.83 154.63 73.05 164.66 C 78.38 166.76 83.25 170.00 88.98 171.01 C 94.98 172.05 100.81 174.42 106.98 174.09 C 112.62 173.94 118.28 174.27 123.91 173.89 C 131.44 172.68 138.62 170.06 145.90 167.89 C 147.56 167.30 148.74 165.87 150.10 164.81 C 147.82 163.44 145.66 161.89 143.62 160.19 C 138.08 159.23 133.26 163.31 127.82 163.72 C 121.84 164.01 116.02 165.76 110.03 165.81 C 100.67 164.22 90.92 163.67 82.38 159.08 C 82.86 152.72 84.68 146.60 86.52 140.53 C 89.77 134.56 92.12 127.93 97.14 123.13 C 104.03 114.95 111.80 106.90 121.97 102.95 C 129.92 98.61 138.82 96.11 147.88 95.81 C 152.58 94.74 157.41 94.72 162.11 95.82 C 167.86 95.79 173.53 96.91 178.87 99.07 C 180.95 96.23 179.87 92.46 179.96 89.19 C 176.40 88.17 172.65 88.04 169.13 86.87 C 165.24 85.44 161.05 86.12 157.00 85.99 C 140.42 85.24 124.09 90.65 109.84 98.83 M 199.73 99.73 C 199.84 103.10 198.82 106.37 198.98 109.74 C 202.63 112.84 207.17 115.02 209.89 119.11 C 212.98 123.35 217.49 126.71 219.16 131.86 C 220.40 135.12 222.81 137.79 223.86 141.15 C 225.80 147.10 228.34 153.18 227.90 159.56 C 224.04 161.61 219.75 162.37 215.58 163.53 C 204.69 164.99 193.41 166.22 182.61 163.34 C 179.86 162.47 177.24 161.17 174.40 160.60 C 168.36 159.38 163.33 155.64 157.91 152.95 C 153.91 150.45 150.34 147.31 147.19 143.80 C 142.86 140.75 140.30 136.01 137.08 131.92 C 133.59 127.61 132.25 122.15 129.65 117.34 C 127.87 114.12 127.73 110.37 126.74 106.88 C 123.83 106.94 121.50 108.87 119.25 110.47 C 118.71 111.83 118.93 113.35 119.17 114.76 C 120.68 121.03 123.31 126.97 126.29 132.67 C 129.33 138.69 134.67 143.04 138.40 148.59 C 140.78 152.30 145.03 153.93 148.20 156.78 C 155.12 163.69 164.71 166.64 173.45 170.49 C 177.51 171.61 181.72 172.07 185.78 173.22 C 190.82 174.75 196.16 173.46 201.28 174.56 C 206.73 175.98 211.91 173.06 217.24 172.36 C 221.79 171.73 225.81 169.37 230.21 168.22 C 233.16 167.55 235.85 165.87 237.88 163.65 C 238.33 160.74 237.05 157.90 237.01 155.00 C 236.40 145.56 232.63 136.81 228.59 128.41 C 225.76 123.98 223.23 119.27 219.28 115.71 C 213.81 109.35 208.00 102.36 199.73 99.73 M 132.00 104.28 C 131.30 109.85 134.57 114.71 136.17 119.82 C 138.56 124.29 141.24 128.68 144.24 132.74 C 148.33 136.12 150.73 141.04 154.96 144.24 C 158.31 142.29 161.26 139.72 164.15 137.16 C 167.13 132.19 170.59 127.52 173.47 122.48 C 175.90 116.67 178.55 110.80 178.60 104.38 C 175.50 102.98 172.24 101.84 168.93 101.08 C 161.96 100.80 154.97 101.14 147.98 100.96 C 142.43 100.57 137.35 103.24 132.00 104.28 M 112.27 113.91 C 109.33 116.98 106.30 119.99 103.78 123.43 C 103.71 123.52 103.55 123.71 103.48 123.80 C 95.88 132.75 89.13 143.74 88.96 155.80 C 96.46 158.10 104.04 160.43 112.00 160.05 C 120.59 160.57 129.01 158.40 137.07 155.64 C 137.00 155.08 136.85 153.96 136.77 153.39 C 131.05 147.29 124.97 141.24 121.47 133.51 C 118.96 129.36 116.86 124.98 115.75 120.24 C 114.80 118.06 114.69 115.05 112.27 113.91 M 195.67 119.16 C 194.06 126.54 190.12 133.05 186.68 139.67 C 183.65 145.70 177.72 149.67 174.81 155.75 C 184.89 157.97 195.15 161.32 205.59 159.59 C 208.71 158.92 212.02 159.26 215.02 158.03 C 217.62 156.96 220.81 157.24 222.80 154.95 C 220.34 145.72 217.55 136.21 211.23 128.78 C 208.90 126.36 207.89 122.89 205.11 120.87 C 202.97 119.18 200.89 117.42 198.88 115.57 C 197.08 115.91 195.89 117.39 195.67 119.16 Z"
       id="path16" />
  </g>
  <g
     id="#e7daaeff">
    <path
       fill="#e7daae"
       opacity="1.00"
       d=" M 152.50 23.20 C 155.08 22.15 157.16 24.70 159.37 25.60 C 164.34 27.69 167.45 32.22 171.38 35.66 C 175.89 39.59 179.56 44.44 182.24 49.78 C 189.08 60.60 193.12 73.16 194.00 85.94 C 193.94 93.27 194.64 100.68 192.89 107.88 C 191.12 120.67 184.47 131.98 177.74 142.71 C 174.85 146.29 171.35 149.30 167.90 152.31 C 165.29 151.23 162.91 149.69 160.63 148.03 C 164.24 144.15 167.56 140.03 171.14 136.13 C 173.21 132.85 174.95 129.37 177.15 126.16 C 180.60 118.39 183.51 110.32 184.84 101.89 C 185.19 96.93 184.99 91.94 185.00 86.97 C 184.34 77.26 180.79 68.04 176.68 59.31 C 174.30 54.57 170.55 50.73 167.73 46.27 C 164.73 41.60 160.49 37.88 155.81 34.95 C 153.94 34.66 152.22 35.69 150.82 36.81 C 137.49 48.67 128.45 65.16 125.78 82.80 C 125.31 87.55 119.50 87.69 116.00 89.13 C 115.79 79.49 118.08 69.85 122.08 61.10 C 126.63 49.66 134.17 39.53 143.21 31.22 C 145.89 28.06 149.84 26.38 152.50 23.20 Z"
       id="path19" />
    <path
       fill="#e7daae"
       opacity="1.00"
       d=" M 189.30 50.36 C 189.35 50.47 189.46 50.68 189.52 50.79 C 189.46 50.68 189.35 50.47 189.30 50.36 Z"
       id="path21" />
    <path
       fill="#e7daae"
       opacity="1.00"
       d=" M 109.84 98.83 C 124.09 90.65 140.42 85.24 157.00 85.99 C 161.05 86.12 165.24 85.44 169.13 86.87 C 172.65 88.04 176.40 88.17 179.96 89.19 C 179.87 92.46 180.95 96.23 178.87 99.07 C 173.53 96.91 167.86 95.79 162.11 95.82 C 157.41 94.72 152.58 94.74 147.88 95.81 C 138.82 96.11 129.92 98.61 121.97 102.95 C 111.80 106.90 104.03 114.95 97.14 123.13 C 92.12 127.93 89.77 134.56 86.52 140.53 C 84.68 146.60 82.86 152.72 82.38 159.08 C 90.92 163.67 100.67 164.22 110.03 165.81 C 116.02 165.76 121.84 164.01 127.82 163.72 C 133.26 163.31 138.08 159.23 143.62 160.19 C 145.66 161.89 147.82 163.44 150.10 164.81 C 148.74 165.87 147.56 167.30 145.90 167.89 C 138.62 170.06 131.44 172.68 123.91 173.89 C 118.28 174.27 112.62 173.94 106.98 174.09 C 100.81 174.42 94.98 172.05 88.98 171.01 C 83.25 170.00 78.38 166.76 73.05 164.66 C 72.83 154.63 75.39 144.64 79.48 135.53 C 80.70 130.36 84.18 126.23 86.68 121.67 C 92.50 112.37 101.17 105.35 109.84 98.83 Z"
       id="path23" />
    <path
       fill="#e7daae"
       opacity="1.00"
       d=" M 199.73 99.73 C 208.00 102.36 213.81 109.35 219.28 115.71 C 223.23 119.27 225.76 123.98 228.59 128.41 C 232.63 136.81 236.40 145.56 237.01 155.00 C 237.05 157.90 238.33 160.74 237.88 163.65 C 235.85 165.87 233.16 167.55 230.21 168.22 C 225.81 169.37 221.79 171.73 217.24 172.36 C 211.91 173.06 206.73 175.98 201.28 174.56 C 196.16 173.46 190.82 174.75 185.78 173.22 C 181.72 172.07 177.51 171.61 173.45 170.49 C 164.71 166.64 155.12 163.69 148.20 156.78 C 145.03 153.93 140.78 152.30 138.40 148.59 C 134.67 143.04 129.33 138.69 126.29 132.67 C 123.31 126.97 120.68 121.03 119.17 114.76 C 118.93 113.35 118.71 111.83 119.25 110.47 C 121.50 108.87 123.83 106.94 126.74 106.88 C 127.73 110.37 127.87 114.12 129.65 117.34 C 132.25 122.15 133.59 127.61 137.08 131.92 C 140.30 136.01 142.86 140.75 147.19 143.80 C 150.34 147.31 153.91 150.45 157.91 152.95 C 163.33 155.64 168.36 159.38 174.40 160.60 C 177.24 161.17 179.86 162.47 182.61 163.34 C 193.41 166.22 204.69 164.99 215.58 163.53 C 219.75 162.37 224.04 161.61 227.90 159.56 C 228.34 153.18 225.80 147.10 223.86 141.15 C 222.81 137.79 220.40 135.12 219.16 131.86 C 217.49 126.71 212.98 123.35 209.89 119.11 C 207.17 115.02 202.63 112.84 198.98 109.74 C 198.82 106.37 199.84 103.10 199.73 99.73 Z"
       id="path25" />
    <path
       fill="#e7daae"
       opacity="1.00"
       d=" M 103.48 123.80 C 103.55 123.71 103.71 123.52 103.78 123.43 C 103.71 123.52 103.55 123.71 103.48 123.80 Z"
       id="path27" />
  </g>
</svg>
