<?xml version="1.0" encoding="UTF-8" standalone="no"?>
<!-- Created with Inkscape (http://www.inkscape.org/) -->
<svg
   xmlns:i="http://ns.adobe.com/AdobeIllustrator/10.0/"
   xmlns:dc="http://purl.org/dc/elements/1.1/"
   xmlns:cc="http://web.resource.org/cc/"
   xmlns:rdf="http://www.w3.org/1999/02/22-rdf-syntax-ns#"
   xmlns:svg="http://www.w3.org/2000/svg"
   xmlns="http://www.w3.org/2000/svg"
   xmlns:sodipodi="http://sodipodi.sourceforge.net/DTD/sodipodi-0.dtd"
   xmlns:inkscape="http://www.inkscape.org/namespaces/inkscape"
   width="900"
   height="600"
   id="svg2119"
   sodipodi:version="0.32"
   inkscape:version="0.44"
   version="1.0"
   sodipodi:docbase="C:\freeciv"
   sodipodi:docname="byzantium.svg">
  <defs
     id="defs2121" />
  <sodipodi:namedview
     id="base"
     pagecolor="#ffffff"
     bordercolor="#666666"
     borderopacity="1.0"
     gridtolerance="10000"
     guidetolerance="10"
     objecttolerance="10"
     inkscape:pageopacity="0.0"
     inkscape:pageshadow="2"
     inkscape:zoom="0.35"
     inkscape:cx="375"
     inkscape:cy="291.42857"
     inkscape:document-units="px"
     inkscape:current-layer="layer1"
     height="600px"
     width="900px"
     inkscape:window-width="847"
     inkscape:window-height="579"
     inkscape:window-x="65"
     inkscape:window-y="352" />
  <metadata
     id="metadata2124">
    <rdf:RDF>
      <cc:Work
         rdf:about="">
        <dc:format>image/svg+xml</dc:format>
        <dc:type
           rdf:resource="http://purl.org/dc/dcmitype/StillImage" />
      </cc:Work>
    </rdf:RDF>
  </metadata>
  <g
     inkscape:label="Layer 1"
     inkscape:groupmode="layer"
     id="layer1">
    <path
       style="fill:#c8100b"
       d="M 0,600 L 900,600 L 900,5.6843419e-014 L 0,5.6843419e-014 L 0,600 z "
       i:knockout="Off"
       id="rect1306" />
    <path
       style="fill:#f8c420"
       id="path26"
       d="M 0,360 L 900,360 L 900,240 L 0,240 L 0,360 z "
       i:knockout="Off" />
    <path
       style="fill:#f8c420"
       id="path28"
       d="M 510.00001,600 L 510.00001,5.6843419e-014 L 390,5.6843419e-014 L 390,600 L 510.00001,600 z "
       i:knockout="Off" />
    <path
       i:knockout="Off"
       d="M 682.19331,196.59334 C 675.84664,193.93334 662.94664,193.93334 656.59331,196.59334 C 648.94664,197.04 641.49331,198.14334 634.18998,199.79334 C 632.67331,199.49 629.48331,200.74 629.39331,198.19334 L 629.39331,44.59333 C 629.47998,42.04667 632.67664,43.29667 634.18998,42.99667 C 646.16998,45.06333 658.18998,46.98667 670.99331,46.19667 C 679.69998,46.26 688.49331,46.66333 696.59331,44.59667 C 722.36664,26.77333 754.65665,50.45333 752.59331,79.8 C 746.32998,101.09667 720.31998,116.23 699.39331,107.4 C 685.98998,102.54334 681.88998,94.17667 699.39331,93.8 C 721.32998,79.24 696.47998,49.69 676.19331,62.6 C 653.80998,76.11667 655.08998,112.21667 680.59331,121.4 C 640.70664,132.55667 667.16664,203.83 703.39331,176.2 C 708.69664,172 708.30331,164.7 707.39331,158.6 C 704.01331,148.74 692.80664,147.51667 685.39331,145.4 C 701.34998,122.98334 738.57998,132.16334 748.99331,155.4 C 763.91331,197.36 713.29664,213.74667 682.19331,196.59334 z "
       id="path30"
       style="fill:#f8c420" />
    <path
       i:knockout="Off"
       d="M 215.34677,48.48333 C 221.69344,51.14333 234.59344,51.14333 240.94677,48.48333 C 248.59344,48.03667 256.04344,46.93333 263.3501,45.28333 C 264.86344,45.58667 268.05677,44.33667 268.14677,46.88333 L 268.14677,200.48334 C 268.05677,203.03 264.86344,201.78 263.3501,202.08 C 251.3701,200.01334 239.34677,198.09 226.54677,198.88 C 217.8401,198.81667 209.04677,198.41334 200.94677,200.48 C 175.17344,218.30334 142.88344,194.62334 144.94677,165.27667 C 151.2101,143.98 177.2201,128.84667 198.14677,137.67667 C 211.5501,142.53334 215.6501,150.9 198.14677,151.27667 C 176.2101,165.83667 201.0601,195.38667 221.34677,182.47667 C 243.73344,168.96 242.4501,132.86 216.94677,123.67667 C 256.83344,112.52 230.37344,41.24667 194.14677,68.87667 C 188.84343,73.07667 189.23677,80.37667 190.14677,86.47667 C 193.52677,96.33667 204.73344,97.56 212.14677,99.67667 C 196.1901,122.09334 158.9601,112.91334 148.54677,89.67667 C 133.62677,47.71333 184.24344,31.33 215.34677,48.48333 z "
       id="path55"
       style="fill:#f8c420" />
    <path
       i:knockout="Off"
       d="M 682.19331,554.37333 C 675.84664,551.71 662.94664,551.71 656.59331,554.37333 C 648.94664,554.82 641.49331,555.92333 634.18998,557.57333 C 632.67331,557.27 629.48331,558.52 629.39331,555.97333 L 629.39331,402.37333 C 629.47998,399.82666 632.67664,401.07666 634.18998,400.77666 C 646.16998,402.84333 658.18998,404.76666 670.99331,403.97666 C 679.69998,404.04 688.49331,404.44333 696.59331,402.37666 C 722.36664,384.55333 754.65665,408.23666 752.59331,437.58 C 746.32998,458.87666 720.31998,474.01333 699.39331,465.18 C 685.98998,460.32333 681.88998,451.95333 699.39331,451.58 C 721.32998,437.02 696.47998,407.47 676.19331,420.38 C 653.80998,433.9 655.08998,469.99667 680.59331,479.18333 C 640.70664,490.34 667.16664,561.61333 703.39331,533.98 C 708.69664,529.78 708.30331,522.48 707.39331,516.38 C 704.01331,506.52 692.80664,505.29667 685.39331,503.18 C 701.34998,480.76333 738.57998,489.94333 748.99331,513.18 C 763.91331,555.14 713.29664,571.52333 682.19331,554.37333 z "
       id="path57"
       style="fill:#f8c420" />
    <path
       i:knockout="Off"
       d="M 215.34677,406.26333 C 221.69344,408.92333 234.5901,408.92333 240.94677,406.26333 C 248.59677,405.81333 256.04344,404.71 263.3501,403.06 C 264.86677,403.36666 268.05677,402.11666 268.14677,404.66 L 268.14677,558.26 C 268.05677,560.80667 264.86677,559.55667 263.3501,559.85667 C 251.3701,557.79 239.34677,555.87 226.54677,556.65667 C 217.84344,556.59333 209.04677,556.19 200.94677,558.25667 C 175.17344,576.08 142.88344,552.4 144.94677,523.05333 C 151.2101,501.75667 177.2201,486.62333 198.14677,495.45667 C 211.5501,500.31 215.6501,508.68 198.14677,509.05667 C 176.21344,523.61333 201.05677,553.16667 221.3501,540.25333 C 243.73344,526.73667 242.4501,490.63667 216.9501,481.45333 C 256.83344,470.29667 230.37344,399.02333 194.1501,426.65333 C 188.84343,430.85333 189.23677,438.15333 190.14677,444.25333 C 193.52677,454.11666 204.73677,455.33666 212.1501,457.45333 C 196.19677,479.87 158.96344,470.69333 148.5501,447.45333 C 133.62677,405.49 184.24344,389.10666 215.34677,406.26333 z "
       id="path59"
       style="fill:#f8c420" />
  </g>
</svg>
