<?xml version="1.0" encoding="UTF-8" ?>
<!DOCTYPE svg PUBLIC "-//W3C//DTD SVG 1.1//EN" "http://www.w3.org/Graphics/SVG/1.1/DTD/svg11.dtd">
<svg width="310pt" height="210pt" viewBox="0 0 310 210" version="1.1" xmlns="http://www.w3.org/2000/svg">
<g id="#ffffffff">
<path fill="#ffffff" opacity="1.00" d=" M 0.00 0.00 L 310.00 0.00 L 310.00 210.00 L 0.00 210.00 L 0.00 0.00 M 77.01 13.01 C 76.91 31.49 78.46 50.02 82.40 68.08 C 92.71 116.42 118.30 161.35 154.47 195.03 C 179.57 171.86 199.38 143.12 212.80 111.74 C 226.12 80.67 232.43 46.78 231.99 13.01 C 180.33 13.01 128.67 13.00 77.01 13.01 Z" />
<path fill="#ffffff" opacity="1.00" d=" M 80.38 16.41 C 129.79 16.39 179.21 16.41 228.63 16.40 C 229.63 63.11 214.90 109.47 189.38 148.40 C 179.38 163.66 167.97 178.16 154.45 190.47 C 140.89 177.89 129.29 163.30 119.24 147.81 C 93.96 109.01 79.40 62.88 80.38 16.41 M 153.59 27.56 C 151.72 27.62 148.84 25.80 147.83 28.14 C 149.15 29.38 151.35 28.99 152.65 30.32 L 152.88 30.99 C 153.10 31.24 153.55 31.74 153.77 31.99 C 154.68 32.89 155.59 33.80 156.45 34.76 C 154.98 34.65 153.52 34.62 152.06 34.67 C 151.47 33.61 149.02 32.46 150.35 31.17 L 150.83 30.66 C 150.49 30.39 149.81 29.83 149.47 29.56 C 149.23 31.12 148.96 32.68 148.64 34.23 C 148.03 32.04 147.57 29.80 147.39 27.53 C 142.45 28.15 137.46 27.72 132.59 26.81 C 131.92 27.42 131.35 28.11 130.77 28.79 C 131.61 28.48 133.28 27.86 134.12 27.55 C 136.40 28.13 136.73 30.80 134.31 31.52 C 134.39 30.80 134.55 29.37 134.62 28.65 C 133.31 28.90 132.00 29.16 130.69 29.42 C 131.01 30.76 131.37 32.10 131.77 33.42 C 133.81 33.24 135.71 34.08 137.56 34.84 C 139.91 35.72 142.39 36.52 144.30 38.24 C 139.98 37.45 135.49 37.14 131.42 35.36 C 128.86 34.43 128.95 31.31 127.72 29.28 C 125.77 27.79 123.59 26.61 121.70 25.02 C 122.25 27.72 123.95 29.89 125.44 32.13 C 122.11 31.59 119.88 29.38 118.50 26.43 C 116.01 25.03 113.15 24.33 110.77 22.68 C 111.67 24.27 112.58 25.87 113.41 27.50 C 116.24 28.53 118.22 30.72 120.03 33.02 C 122.81 34.40 125.97 34.99 128.59 36.74 C 125.53 36.10 122.52 36.73 119.64 37.76 C 124.19 38.95 128.97 38.30 133.57 39.27 L 131.49 39.79 C 131.90 40.42 132.28 41.06 132.63 41.73 L 132.28 42.14 C 129.62 44.29 129.89 48.32 126.81 50.11 C 131.18 50.02 133.05 45.96 134.63 42.55 C 137.26 40.72 140.80 41.30 143.69 40.04 C 143.54 40.45 143.24 41.27 143.09 41.68 C 142.72 41.56 141.98 41.31 141.61 41.19 C 139.62 42.34 137.53 43.32 135.51 44.41 C 137.03 45.03 138.52 45.71 140.08 46.24 C 142.66 45.13 143.92 41.74 147.06 41.55 C 151.53 40.96 153.63 46.67 158.13 46.46 C 161.08 47.25 163.94 45.92 164.77 42.91 C 164.77 43.75 164.78 45.45 164.79 46.30 C 165.69 45.29 166.58 44.29 167.48 43.28 C 167.19 44.03 166.61 45.53 166.32 46.27 C 167.09 46.27 168.63 46.27 169.39 46.27 C 168.69 46.44 167.29 46.78 166.59 46.95 C 166.87 48.82 168.12 50.90 166.78 52.64 C 165.90 54.34 163.80 54.95 162.05 54.37 C 159.78 52.91 158.38 50.40 155.99 49.11 C 153.26 48.05 149.47 48.31 147.82 51.05 C 146.90 53.93 149.83 55.42 151.97 56.37 C 151.30 54.73 147.96 51.89 151.02 51.04 C 154.85 49.71 157.11 53.80 159.49 55.99 C 158.48 55.56 156.46 54.69 155.46 54.25 C 157.17 56.60 159.96 58.07 162.89 57.62 C 165.72 57.31 167.22 54.62 169.30 53.03 C 167.46 57.38 162.61 60.04 157.97 59.71 C 153.92 59.83 150.58 57.26 146.83 56.23 C 144.43 55.79 142.03 56.66 139.66 56.89 C 139.71 57.20 139.79 57.82 139.84 58.13 L 142.47 58.65 C 140.39 59.39 138.77 58.73 137.62 56.67 C 141.01 60.46 136.71 59.68 134.99 60.64 C 132.03 62.87 131.33 66.68 129.64 69.76 C 128.37 71.14 126.35 69.54 124.81 69.41 C 126.37 71.22 128.11 73.73 130.89 72.78 C 134.05 70.88 135.10 67.02 137.93 64.75 C 137.31 66.13 136.65 67.50 135.97 68.85 C 136.50 68.83 137.57 68.80 138.10 68.78 C 137.71 68.93 136.94 69.23 136.56 69.38 C 136.47 72.33 136.03 76.03 139.56 77.39 C 136.74 73.42 139.93 68.40 143.96 67.12 C 146.14 66.44 147.28 68.55 147.59 70.32 C 147.00 70.72 145.82 71.52 145.23 71.91 L 146.05 68.77 C 142.58 67.19 139.13 71.82 139.52 75.18 C 140.25 75.54 141.71 76.27 142.44 76.63 C 141.22 77.30 139.98 77.91 138.73 78.53 C 139.44 79.74 140.18 80.94 140.91 82.14 C 139.12 82.33 136.42 80.60 135.22 82.11 C 134.74 83.54 133.29 83.83 132.01 84.12 C 134.10 83.79 134.94 80.45 132.24 80.35 C 131.61 81.35 130.94 82.33 130.25 83.29 C 130.21 83.55 130.14 84.06 130.10 84.32 C 133.39 86.31 138.30 87.14 138.58 91.83 C 139.56 91.71 140.54 91.57 141.52 91.42 C 143.03 91.83 144.56 92.16 146.10 92.47 C 146.50 91.95 147.31 90.93 147.72 90.42 C 144.92 89.78 142.96 87.51 142.63 84.68 L 145.01 86.30 C 144.69 85.43 144.05 83.69 143.73 82.83 L 145.85 83.73 C 145.64 83.10 145.21 81.84 144.99 81.22 L 146.55 81.59 C 146.50 80.61 146.38 78.66 146.32 77.69 C 148.43 78.97 147.23 81.59 147.50 83.57 L 146.17 83.53 C 146.33 84.38 146.64 86.08 146.80 86.94 C 145.97 86.78 144.32 86.46 143.49 86.30 C 144.84 88.01 146.62 89.18 148.77 89.52 C 148.22 90.62 147.67 91.71 147.14 92.82 C 152.62 94.96 158.33 98.05 160.35 103.98 C 160.61 103.88 161.14 103.69 161.41 103.59 C 161.38 104.37 161.32 105.93 161.29 106.71 L 162.71 106.38 C 162.45 110.50 161.09 114.42 158.88 117.90 C 156.40 122.10 157.62 127.12 155.90 131.52 C 154.86 134.96 155.99 139.41 152.91 141.98 C 151.09 142.92 148.93 142.38 146.96 142.58 C 148.58 143.25 150.22 144.38 152.07 143.97 C 153.72 143.28 154.94 141.90 156.28 140.76 C 155.67 142.11 155.08 143.46 154.50 144.81 C 159.47 141.50 156.35 135.20 157.06 130.40 C 158.89 133.88 160.34 138.14 164.66 139.13 C 164.37 140.01 164.06 140.88 163.73 141.74 C 163.11 141.46 162.50 141.16 161.90 140.84 C 160.62 143.12 158.83 145.09 157.73 147.48 C 156.86 149.29 157.17 151.51 156.00 153.19 C 153.24 154.38 151.22 152.17 149.73 150.18 C 149.42 150.58 148.79 151.39 148.48 151.79 C 144.78 153.29 141.23 156.89 143.02 161.17 C 144.10 158.71 146.06 156.85 148.79 156.47 L 148.99 157.75 C 150.60 160.00 151.83 157.14 152.59 155.85 C 153.89 155.62 157.36 155.78 155.42 157.81 C 153.53 160.52 150.46 161.38 147.30 160.85 C 147.57 161.95 148.08 162.91 148.84 163.73 L 147.80 162.75 C 146.46 166.40 146.37 171.19 150.32 173.28 C 149.82 170.76 150.05 168.21 151.10 165.87 C 152.84 167.90 154.96 165.70 153.75 163.55 C 154.12 161.80 157.29 161.78 157.67 159.79 C 158.02 158.52 158.36 157.24 158.68 155.96 C 158.79 157.65 158.95 159.35 158.85 161.05 C 157.96 162.68 156.14 164.18 157.64 166.06 L 158.45 165.69 C 160.16 166.92 161.77 168.46 163.87 169.01 C 165.78 169.61 167.50 168.38 169.17 167.67 C 166.60 167.17 164.30 166.01 162.81 163.80 L 163.90 163.37 C 163.91 162.90 163.93 161.97 163.94 161.50 C 163.49 161.23 162.60 160.69 162.15 160.41 C 161.76 157.91 160.86 154.69 162.91 152.68 C 163.52 153.85 164.88 158.14 166.18 155.06 C 168.69 155.51 169.58 157.69 169.96 159.95 C 172.11 156.73 171.01 153.00 168.65 150.27 C 168.08 147.97 165.69 150.65 164.32 150.56 C 164.95 148.56 166.64 147.38 168.37 146.41 C 169.30 144.01 171.56 143.59 173.90 143.63 C 172.81 143.11 171.73 142.57 170.66 142.01 C 173.34 141.60 175.98 142.10 178.24 143.56 C 177.72 142.25 177.81 140.44 176.36 139.73 C 174.05 138.17 171.25 139.17 168.97 140.21 C 170.13 139.51 170.66 138.55 170.55 137.34 C 172.91 138.29 175.84 138.61 178.00 137.01 C 179.54 135.92 179.28 133.85 179.74 132.25 C 178.11 133.52 175.90 136.13 173.69 134.32 C 169.69 130.60 171.58 124.68 171.71 119.92 C 172.07 116.62 170.58 113.60 169.88 110.46 C 171.43 112.20 171.42 115.23 173.78 116.18 C 175.67 117.26 177.74 118.12 179.34 119.64 C 181.12 121.58 179.56 124.46 180.59 126.64 C 181.86 128.07 183.72 127.43 185.25 126.89 C 184.50 126.63 182.99 126.11 182.23 125.85 C 181.92 123.93 182.48 122.00 182.29 120.07 C 181.62 118.43 180.27 117.22 179.11 115.93 C 183.57 115.85 188.80 113.77 190.10 109.10 C 190.46 105.07 189.23 100.94 190.68 97.03 C 191.55 97.45 193.29 98.31 194.16 98.74 C 193.28 97.41 193.26 94.32 191.00 94.65 C 189.46 94.59 188.33 95.82 187.04 96.46 C 188.93 92.14 193.83 91.02 196.95 87.95 C 198.79 85.71 196.16 83.74 194.39 82.69 C 194.63 83.79 194.87 84.89 195.11 86.00 C 190.99 87.70 186.15 88.86 183.99 93.23 C 183.80 90.08 183.34 86.11 186.22 83.98 C 189.26 82.28 193.18 83.26 196.08 81.11 C 198.94 79.32 200.96 74.17 197.25 72.22 C 197.06 73.79 197.81 76.07 196.03 77.01 C 193.08 79.11 189.28 76.85 186.08 78.12 C 183.17 78.91 181.61 81.67 179.96 83.94 C 180.56 81.01 181.65 77.90 184.29 76.21 C 187.34 74.04 191.11 73.58 194.61 72.55 C 198.22 71.07 201.93 68.19 202.32 64.03 C 202.58 61.98 200.34 61.52 199.01 60.69 C 199.55 61.83 200.10 62.96 200.67 64.09 C 199.40 65.62 198.25 67.67 196.06 67.92 C 192.66 68.51 189.23 69.14 186.09 70.67 C 192.93 63.29 202.00 57.52 206.07 47.96 C 208.09 42.40 209.19 35.01 204.33 30.57 C 201.13 27.62 196.66 28.63 192.85 29.40 C 194.23 28.29 195.76 27.42 197.33 26.60 C 195.22 26.11 192.90 25.49 190.87 26.60 C 188.28 27.69 184.57 30.55 182.50 27.06 C 182.96 24.00 185.92 25.13 187.87 25.83 C 186.81 24.61 185.94 22.55 183.99 22.85 C 178.72 22.96 177.48 31.35 182.10 33.39 C 183.89 34.34 185.84 33.59 187.66 33.23 C 185.17 35.45 184.00 39.72 186.83 42.17 C 188.96 44.79 194.11 45.92 193.28 50.04 C 192.36 52.90 188.99 51.44 186.84 51.61 C 188.23 52.41 189.60 53.30 191.11 53.86 C 192.68 54.07 194.04 52.83 195.08 51.81 C 196.72 49.15 195.26 46.05 193.99 43.57 C 194.83 44.17 196.52 45.35 197.36 45.95 C 196.45 43.00 193.90 41.20 192.27 38.73 C 192.46 38.66 192.85 38.52 193.05 38.45 C 194.43 40.54 197.27 42.62 199.65 40.71 C 201.51 39.60 200.67 37.21 200.97 35.43 C 199.30 36.66 195.71 38.83 194.78 35.88 C 194.41 31.20 201.75 31.15 203.20 34.85 C 204.74 39.34 203.86 44.52 201.27 48.47 C 195.98 56.91 187.19 62.30 181.22 70.19 C 177.41 75.04 174.77 81.33 175.59 87.57 C 176.84 94.84 186.11 98.15 185.54 105.97 C 185.67 109.15 182.92 110.97 180.43 112.23 C 182.03 110.22 183.08 107.16 180.90 105.13 C 179.46 102.96 176.92 104.26 175.45 105.64 C 176.41 105.72 178.33 105.88 179.29 105.96 C 179.00 108.12 177.78 111.15 175.04 110.49 C 170.97 109.74 169.67 105.30 168.36 101.96 C 166.23 95.90 160.63 91.63 159.36 85.20 C 158.31 81.20 160.07 77.30 161.72 73.75 C 161.66 77.48 160.80 81.31 161.76 84.99 C 162.25 87.07 164.32 87.97 165.92 89.03 C 165.02 87.41 164.01 85.85 163.15 84.20 C 165.19 85.80 167.30 87.32 169.73 88.28 C 171.76 88.97 171.04 91.59 171.67 93.20 C 172.14 91.25 172.84 89.08 171.79 87.18 C 170.59 84.18 166.48 83.72 165.59 80.51 C 164.02 76.86 166.27 73.19 167.55 69.83 C 167.41 72.16 166.63 74.59 167.36 76.89 C 168.02 78.87 170.19 78.87 171.87 79.35 C 168.82 75.54 171.22 71.06 173.10 67.34 C 172.85 66.54 172.59 65.75 172.31 64.95 L 170.54 66.88 C 170.43 66.57 170.21 65.95 170.09 65.63 C 172.20 64.07 173.61 61.61 176.12 60.64 C 175.27 61.91 174.34 63.11 173.33 64.26 C 174.04 64.65 174.75 65.04 175.46 65.43 L 173.35 65.02 C 173.89 68.22 172.87 72.61 177.04 73.66 C 177.88 72.70 178.72 71.74 179.55 70.77 C 177.97 70.74 175.62 71.50 175.76 69.07 C 175.54 65.24 180.51 62.24 177.78 58.28 C 176.53 58.54 175.87 60.07 174.79 60.68 C 176.76 56.74 176.99 52.52 176.26 48.22 C 175.27 46.67 174.40 45.03 173.80 43.29 C 175.42 43.89 176.23 45.35 176.92 46.81 C 176.30 48.70 177.75 50.15 178.50 51.70 L 176.96 51.38 C 177.68 54.94 178.57 58.55 180.57 61.63 C 182.46 63.58 186.92 63.93 187.59 60.65 C 188.27 58.90 186.83 57.50 185.90 56.24 C 185.65 57.80 186.39 60.20 184.07 60.34 C 180.98 58.48 180.83 54.53 180.52 51.35 C 182.07 51.08 184.12 51.63 185.12 50.02 C 185.98 48.04 184.90 46.06 183.70 44.52 C 183.54 45.40 183.21 47.18 183.05 48.06 C 179.77 48.51 177.74 45.52 176.47 42.97 C 173.76 43.06 170.94 42.85 168.60 41.34 C 171.42 41.44 174.27 42.21 177.07 41.53 C 179.65 41.21 181.44 39.17 183.29 37.55 C 178.89 36.77 174.90 34.55 170.50 33.85 C 173.71 32.24 175.85 27.79 173.39 24.68 C 172.23 22.68 169.91 22.19 167.86 21.68 C 169.30 23.18 171.79 24.53 171.06 27.02 C 169.91 30.54 166.21 31.92 162.96 32.79 C 162.02 31.05 160.38 29.86 158.72 28.88 C 158.18 25.83 159.59 23.28 161.85 21.37 C 157.84 21.04 154.44 23.64 153.59 27.56 M 110.04 29.75 C 111.56 31.10 113.02 32.59 113.31 34.70 C 109.31 34.85 114.12 38.41 114.74 40.16 C 111.72 38.93 110.06 36.12 108.78 33.29 L 108.02 34.65 C 106.43 34.78 104.78 34.64 103.26 35.20 C 101.41 35.99 100.98 38.21 99.93 39.71 C 101.81 38.52 103.92 38.01 106.11 38.46 C 105.95 39.20 105.63 40.68 105.47 41.42 C 106.90 41.03 108.32 40.62 109.73 40.18 C 111.27 41.31 112.75 42.54 113.84 44.13 C 111.10 44.20 108.40 43.71 105.68 43.42 L 106.22 44.75 C 104.83 46.26 102.91 47.74 103.04 50.03 C 103.50 51.42 104.36 52.61 105.10 53.84 C 105.00 51.67 105.46 49.36 107.91 48.72 C 109.05 52.72 111.34 48.70 111.44 46.80 C 113.14 46.83 114.92 47.01 116.15 48.37 C 116.60 47.98 117.06 47.59 117.51 47.20 C 117.03 46.29 116.07 44.48 115.59 43.58 C 119.12 46.09 119.89 50.93 123.61 53.31 C 121.34 53.37 119.97 51.68 119.20 49.77 C 117.58 49.75 115.95 49.79 114.34 49.79 C 114.54 50.40 114.96 51.62 115.16 52.23 C 113.35 52.30 111.56 51.99 109.81 51.58 C 110.96 54.46 113.68 55.69 116.70 55.21 L 116.09 54.05 C 116.57 54.63 117.52 55.79 118.00 56.36 C 118.42 55.63 119.24 54.17 119.66 53.44 C 123.92 57.52 127.29 62.41 129.41 67.93 C 130.58 65.38 131.85 62.88 133.39 60.53 C 127.89 55.18 122.11 49.82 118.45 42.97 C 117.76 41.15 115.91 38.62 118.10 37.09 C 119.39 36.29 119.45 34.44 117.59 34.61 C 116.81 33.27 116.18 31.81 115.13 30.66 C 113.62 29.70 111.71 30.03 110.04 29.75 M 121.78 43.66 C 124.64 43.98 128.46 45.23 130.44 42.35 C 130.65 41.71 130.69 41.05 130.55 40.37 C 127.57 41.32 124.41 41.88 121.78 43.66 M 133.54 56.90 C 133.87 59.24 136.23 59.93 138.34 59.55 C 137.97 58.78 137.59 58.02 137.20 57.27 C 136.62 56.92 135.46 56.21 134.88 55.86 C 135.32 54.90 135.80 53.97 136.32 53.05 C 135.10 54.05 132.84 54.93 133.54 56.90 M 113.61 57.75 C 115.32 59.17 116.50 60.96 116.43 63.27 L 114.83 62.99 C 113.87 65.18 116.54 67.23 116.16 69.62 C 113.31 67.82 112.75 64.61 113.12 61.48 C 112.78 61.71 112.09 62.15 111.74 62.38 C 110.19 61.77 108.70 60.65 106.96 60.76 C 105.05 60.91 103.81 62.57 102.38 63.63 C 104.02 63.58 105.67 63.61 107.32 63.71 C 107.25 65.18 107.20 66.65 107.19 68.12 L 107.41 67.50 C 110.71 67.09 112.36 69.85 113.74 72.31 C 111.69 73.82 109.52 72.09 107.44 71.65 C 107.58 72.25 107.85 73.47 107.99 74.08 C 107.05 75.35 105.57 76.44 105.33 78.10 C 104.89 80.09 106.43 81.61 107.33 83.19 C 107.57 81.46 107.76 79.68 109.04 78.37 C 109.72 78.47 111.10 78.68 111.79 78.78 C 112.22 77.71 112.63 76.62 112.99 75.52 C 115.41 75.67 117.67 76.55 119.40 78.27 C 118.47 78.52 116.61 79.01 115.68 79.26 C 116.16 79.74 117.11 80.71 117.59 81.20 C 116.53 82.17 115.09 83.58 113.62 82.42 C 113.50 82.73 113.27 83.33 113.15 83.63 C 115.65 85.20 118.48 85.03 120.74 83.11 C 123.70 84.14 122.06 80.03 120.78 79.16 C 121.28 79.10 122.28 78.98 122.78 78.92 C 120.55 76.19 117.97 73.73 116.03 70.77 C 120.12 72.65 121.92 77.18 125.36 79.90 C 126.14 79.31 126.94 78.72 127.73 78.14 C 123.51 75.90 120.88 71.68 119.45 67.25 C 120.09 66.89 121.38 66.16 122.02 65.80 C 121.82 65.38 121.41 64.56 121.21 64.15 L 120.53 64.03 C 120.48 60.25 117.40 57.42 113.61 57.75 M 130.45 74.22 C 130.53 75.75 130.61 77.28 130.69 78.81 C 132.02 79.37 133.36 79.92 134.70 80.48 C 134.64 79.76 134.51 78.33 134.44 77.62 C 135.60 79.18 136.32 81.39 138.70 81.26 C 138.50 77.36 134.65 75.04 134.63 71.11 C 133.29 72.22 131.90 73.25 130.45 74.22 M 127.46 80.33 C 126.35 80.77 125.26 81.25 124.19 81.76 C 125.18 82.22 127.16 83.14 128.15 83.60 L 128.28 82.89 C 128.26 82.50 128.21 81.71 128.19 81.32 C 128.57 81.57 129.33 82.06 129.71 82.30 C 130.28 81.83 131.40 80.88 131.97 80.41 C 130.94 79.90 128.87 78.88 127.84 78.37 C 127.75 78.86 127.55 79.84 127.46 80.33 M 124.80 91.78 C 122.49 92.94 120.14 95.16 121.75 97.88 C 122.14 97.27 122.91 96.04 123.29 95.42 C 126.65 93.91 130.45 92.66 131.95 88.91 C 131.67 89.89 131.10 91.84 130.82 92.81 C 132.89 91.57 134.61 89.85 135.33 87.51 C 133.41 86.71 131.49 85.92 129.61 85.06 C 128.80 87.76 127.47 90.49 124.80 91.78 M 147.55 100.71 C 149.66 100.10 151.75 99.18 154.00 99.44 C 154.66 98.97 155.31 98.49 155.96 98.01 C 152.67 96.11 149.15 97.48 147.55 100.71 M 127.49 101.08 C 122.13 101.76 124.52 110.49 118.94 110.79 C 116.98 111.31 116.10 109.60 115.19 108.23 C 115.16 109.14 115.12 110.06 115.09 110.99 C 116.44 111.54 117.80 112.06 119.18 112.56 C 118.01 112.93 116.84 113.33 115.69 113.75 C 118.28 113.82 121.80 114.26 123.24 111.53 C 124.32 108.56 124.60 105.26 126.45 102.59 C 126.85 105.51 127.14 108.54 128.64 111.16 C 131.55 116.94 137.94 120.08 144.21 120.51 C 144.23 121.00 144.27 121.97 144.29 122.46 C 140.33 121.64 136.03 121.70 132.90 124.62 C 131.95 124.08 131.00 123.53 130.05 122.98 C 130.14 121.40 129.23 116.42 127.13 119.33 C 123.21 119.88 118.95 122.33 119.33 126.92 C 121.11 124.85 123.44 123.76 126.18 124.07 C 125.51 126.89 128.45 126.43 130.19 125.76 C 131.17 127.54 128.82 129.21 127.23 128.69 C 125.72 128.36 124.11 128.04 123.29 129.75 L 124.15 130.58 C 122.59 134.15 122.48 139.01 126.31 141.21 C 125.96 138.61 126.08 135.97 127.54 133.71 C 128.23 133.91 129.59 134.30 130.28 134.50 C 130.19 133.64 130.00 131.93 129.91 131.07 C 131.40 130.63 132.91 130.22 134.43 129.88 C 133.94 132.16 132.40 133.89 130.83 135.51 L 132.05 135.98 C 132.68 139.90 135.66 143.99 140.08 143.14 C 138.00 141.62 136.95 139.37 136.70 136.85 C 137.80 137.58 140.17 135.32 138.71 134.48 C 136.09 132.67 137.97 129.44 140.40 128.68 C 140.12 129.96 139.84 131.24 139.57 132.52 C 140.29 132.38 141.72 132.08 142.43 131.94 C 143.39 133.98 143.54 136.19 143.36 138.42 C 145.67 136.08 147.88 132.91 146.15 129.56 L 147.19 128.88 C 145.63 128.35 144.06 127.84 142.49 127.35 C 145.19 126.83 148.00 126.63 150.44 125.24 C 151.61 126.07 152.77 126.92 153.94 127.77 C 153.58 125.18 151.90 123.05 149.07 123.36 C 149.34 123.16 149.87 122.77 150.14 122.58 C 152.28 124.04 155.38 124.56 156.71 121.73 C 155.80 121.72 153.96 121.72 153.05 121.72 C 151.01 120.14 150.26 117.42 148.25 115.80 C 147.06 114.83 145.79 113.97 144.62 112.99 C 146.75 113.57 148.79 114.51 150.99 114.88 C 153.82 114.81 156.51 113.48 158.72 111.78 C 157.94 111.56 156.37 111.11 155.58 110.88 C 155.43 107.88 155.96 104.87 155.59 101.87 C 153.49 103.55 150.96 105.44 148.25 103.75 C 141.95 100.92 134.03 96.38 127.49 101.08 M 155.76 101.07 C 157.49 103.68 156.52 106.83 156.46 109.71 C 158.03 110.14 159.53 111.37 161.25 110.95 C 161.04 106.62 158.92 102.75 156.87 99.05 C 156.50 99.72 156.12 100.39 155.76 101.07 Z" />
<path fill="#ffffff" opacity="1.00" d=" M 137.13 29.29 C 138.44 29.53 138.66 30.27 137.77 31.50 C 136.47 31.25 136.26 30.51 137.13 29.29 Z" />
<path fill="#ffffff" opacity="1.00" d=" M 160.52 36.26 C 160.65 35.54 160.92 34.10 161.05 33.38 C 161.75 34.48 163.62 35.70 161.96 36.92 C 160.07 37.29 157.02 37.81 156.46 35.32 C 157.81 35.62 159.16 35.94 160.52 36.26 Z" />
<path fill="#ffffff" opacity="1.00" d=" M 166.14 37.33 C 167.89 36.17 169.92 35.57 171.92 34.99 C 170.14 35.91 168.40 36.90 166.73 38.00 C 170.45 38.90 174.32 40.35 178.15 38.94 C 177.26 38.45 176.36 37.98 175.45 37.51 L 177.25 36.99 C 178.15 37.68 179.11 38.28 180.13 38.78 C 175.94 40.92 170.78 40.65 166.73 38.30 C 166.59 38.06 166.29 37.57 166.14 37.33 Z" />
<path fill="#ffffff" opacity="1.00" d=" M 163.21 37.45 C 164.92 38.74 166.69 39.95 168.28 41.39 C 167.00 40.99 165.74 40.53 164.50 40.03 C 163.67 40.19 162.83 40.36 162.00 40.53 C 162.40 39.50 162.80 38.48 163.21 37.45 Z" />
<path fill="#ffffff" opacity="1.00" d=" M 170.52 37.20 C 171.17 37.24 172.47 37.31 173.13 37.35 L 173.12 37.88 C 172.46 37.87 171.16 37.85 170.51 37.84 L 170.52 37.20 Z" />
<path fill="#ffffff" opacity="1.00" d=" M 122.51 53.75 C 123.01 54.06 123.99 54.69 124.49 55.01 C 124.95 54.86 125.86 54.56 126.32 54.41 C 123.82 56.07 125.82 57.65 126.91 58.83 C 127.65 58.61 129.13 58.18 129.88 57.97 C 128.90 58.87 128.06 60.92 126.54 59.55 C 125.02 57.75 123.58 55.86 122.51 53.75 Z" />
<path fill="#ffffff" opacity="1.00" d=" M 130.44 60.28 C 132.80 60.75 129.31 64.14 128.02 62.39 C 127.05 60.97 129.57 60.61 130.44 60.28 Z" />
<path fill="#ffffff" opacity="1.00" d=" M 161.55 66.88 C 162.42 65.94 163.29 64.99 164.18 64.07 C 163.84 65.13 163.47 66.19 163.08 67.25 C 160.53 68.48 158.19 70.13 155.56 71.21 C 156.44 70.33 157.42 69.56 158.43 68.83 C 159.45 68.15 160.47 67.47 161.55 66.88 Z" />
<path fill="#ffffff" opacity="1.00" d=" M 148.26 70.04 C 151.22 68.53 154.28 67.19 156.99 65.25 C 155.62 68.33 152.34 69.29 149.58 70.69 C 147.32 71.98 149.97 73.72 150.69 75.05 C 148.59 75.57 146.72 74.70 145.28 73.13 C 145.89 72.52 146.51 71.92 147.12 71.32 L 147.69 74.44 C 147.83 73.34 148.12 71.14 148.26 70.04 Z" />
<path fill="#ffffff" opacity="1.00" d=" M 136.04 86.00 C 135.63 85.03 136.96 83.27 138.03 83.56 C 138.80 84.72 137.37 86.67 136.04 86.00 Z" />
</g>
<g id="#000000ff">
<path fill="#000000" opacity="1.00" d=" M 77.01 13.01 C 128.67 13.00 180.33 13.01 231.99 13.01 C 232.43 46.78 226.12 80.67 212.80 111.74 C 199.38 143.12 179.57 171.86 154.47 195.03 C 118.30 161.35 92.71 116.42 82.40 68.08 C 78.46 50.02 76.91 31.49 77.01 13.01 M 80.38 16.41 C 79.40 62.88 93.96 109.01 119.24 147.81 C 129.29 163.30 140.89 177.89 154.45 190.47 C 167.97 178.16 179.38 163.66 189.38 148.40 C 214.90 109.47 229.63 63.11 228.63 16.40 C 179.21 16.41 129.79 16.39 80.38 16.41 Z" />
<path fill="#000000" opacity="1.00" d=" M 182.10 33.39 C 177.48 31.35 178.72 22.96 183.99 22.85 C 185.94 22.55 186.81 24.61 187.87 25.83 C 185.92 25.13 182.96 24.00 182.50 27.06 C 184.57 30.55 188.28 27.69 190.87 26.60 C 192.90 25.49 195.22 26.11 197.33 26.60 C 195.76 27.42 194.23 28.29 192.85 29.40 C 196.66 28.63 201.13 27.62 204.33 30.57 C 209.19 35.01 208.09 42.40 206.07 47.96 C 202.00 57.52 192.93 63.29 186.09 70.67 C 189.23 69.14 192.66 68.51 196.06 67.92 C 198.25 67.67 199.40 65.62 200.67 64.09 C 200.10 62.96 199.55 61.83 199.01 60.69 C 200.34 61.52 202.58 61.98 202.32 64.03 C 201.93 68.19 198.22 71.07 194.61 72.55 C 191.11 73.58 187.34 74.04 184.29 76.21 C 181.65 77.90 180.56 81.01 179.96 83.94 C 181.61 81.67 183.17 78.91 186.08 78.12 C 189.28 76.85 193.08 79.11 196.03 77.01 C 197.81 76.07 197.06 73.79 197.25 72.22 C 200.96 74.17 198.94 79.32 196.08 81.11 C 193.18 83.26 189.26 82.28 186.22 83.98 C 183.34 86.11 183.80 90.08 183.99 93.23 C 186.15 88.86 190.99 87.70 195.11 86.00 C 194.87 84.89 194.63 83.79 194.39 82.69 C 196.16 83.74 198.79 85.71 196.95 87.95 C 193.83 91.02 188.93 92.14 187.04 96.46 C 188.33 95.82 189.46 94.59 191.00 94.65 C 193.26 94.32 193.28 97.41 194.16 98.74 C 193.29 98.31 191.55 97.45 190.68 97.03 C 189.23 100.94 190.46 105.07 190.10 109.10 C 188.80 113.77 183.57 115.85 179.11 115.93 C 180.27 117.22 181.62 118.43 182.29 120.07 C 182.48 122.00 181.92 123.93 182.23 125.85 C 182.99 126.11 184.50 126.63 185.25 126.89 C 183.72 127.43 181.86 128.07 180.59 126.64 C 179.56 124.46 181.12 121.58 179.34 119.64 C 177.74 118.12 175.67 117.26 173.78 116.18 C 171.42 115.23 171.43 112.20 169.88 110.46 C 170.58 113.60 172.07 116.62 171.71 119.92 C 171.58 124.68 169.69 130.60 173.69 134.32 C 175.90 136.13 178.11 133.52 179.74 132.25 C 179.28 133.85 179.54 135.92 178.00 137.01 C 175.84 138.61 172.91 138.29 170.55 137.34 C 170.66 138.55 170.13 139.51 168.97 140.21 C 171.25 139.17 174.05 138.17 176.36 139.73 C 177.81 140.44 177.72 142.25 178.24 143.56 C 175.98 142.10 173.34 141.60 170.66 142.01 C 171.73 142.57 172.81 143.11 173.90 143.63 C 171.56 143.59 169.30 144.01 168.37 146.41 C 166.64 147.38 164.95 148.56 164.32 150.56 C 165.69 150.65 168.08 147.97 168.65 150.27 C 167.87 151.89 167.07 153.50 166.18 155.06 C 164.88 158.14 163.52 153.85 162.91 152.68 C 160.86 154.69 161.76 157.91 162.15 160.41 C 162.60 160.69 163.49 161.23 163.94 161.50 C 163.93 161.97 163.91 162.90 163.90 163.37 L 162.81 163.80 C 161.33 164.38 159.88 165.01 158.45 165.69 L 157.64 166.06 C 156.14 164.18 157.96 162.68 158.85 161.05 C 158.95 159.35 158.79 157.65 158.68 155.96 C 158.36 157.24 158.02 158.52 157.67 159.79 C 157.29 161.78 154.12 161.80 153.75 163.55 C 154.96 165.70 152.84 167.90 151.10 165.87 C 150.34 165.16 149.58 164.45 148.84 163.73 C 148.08 162.91 147.57 161.95 147.30 160.85 C 150.46 161.38 153.53 160.52 155.42 157.81 C 157.36 155.78 153.89 155.62 152.59 155.85 C 151.83 157.14 150.60 160.00 148.99 157.75 L 148.79 156.47 C 148.65 154.91 148.54 153.35 148.48 151.79 C 148.79 151.39 149.42 150.58 149.73 150.18 C 151.22 152.17 153.24 154.38 156.00 153.19 C 157.17 151.51 156.86 149.29 157.73 147.48 C 158.83 145.09 160.62 143.12 161.90 140.84 C 162.50 141.16 163.11 141.46 163.73 141.74 C 164.06 140.88 164.37 140.01 164.66 139.13 C 160.34 138.14 158.89 133.88 157.06 130.40 C 156.35 135.20 159.47 141.50 154.50 144.81 C 155.08 143.46 155.67 142.11 156.28 140.76 C 154.94 141.90 153.72 143.28 152.07 143.97 C 150.22 144.38 148.58 143.25 146.96 142.58 C 148.93 142.38 151.09 142.92 152.91 141.98 C 155.99 139.41 154.86 134.96 155.90 131.52 C 157.62 127.12 156.40 122.10 158.88 117.90 C 161.09 114.42 162.45 110.50 162.71 106.38 L 161.29 106.71 C 161.32 105.93 161.38 104.37 161.41 103.59 C 161.14 103.69 160.61 103.88 160.35 103.98 C 158.33 98.05 152.62 94.96 147.14 92.82 C 147.67 91.71 148.22 90.62 148.77 89.52 C 146.62 89.18 144.84 88.01 143.49 86.30 C 144.32 86.46 145.97 86.78 146.80 86.94 C 146.64 86.08 146.33 84.38 146.17 83.53 L 147.50 83.57 C 147.23 81.59 148.43 78.97 146.32 77.69 C 146.38 78.66 146.50 80.61 146.55 81.59 L 144.99 81.22 C 145.21 81.84 145.64 83.10 145.85 83.73 L 143.73 82.83 C 144.05 83.69 144.69 85.43 145.01 86.30 L 142.63 84.68 C 142.96 87.51 144.92 89.78 147.72 90.42 C 147.31 90.93 146.50 91.95 146.10 92.47 C 144.56 92.16 143.03 91.83 141.52 91.42 C 140.54 91.57 139.56 91.71 138.58 91.83 C 138.30 87.14 133.39 86.31 130.10 84.32 C 130.14 84.06 130.21 83.55 130.25 83.29 C 130.94 82.33 131.61 81.35 132.24 80.35 C 134.94 80.45 134.10 83.79 132.01 84.12 C 133.29 83.83 134.74 83.54 135.22 82.11 C 136.42 80.60 139.12 82.33 140.91 82.14 C 140.18 80.94 139.44 79.74 138.73 78.53 C 139.98 77.91 141.22 77.30 142.44 76.63 C 141.71 76.27 140.25 75.54 139.52 75.18 C 139.13 71.82 142.58 67.19 146.05 68.77 L 145.23 71.91 C 145.82 71.52 147.00 70.72 147.59 70.32 C 147.28 68.55 146.14 66.44 143.96 67.12 C 139.93 68.40 136.74 73.42 139.56 77.39 C 136.03 76.03 136.47 72.33 136.56 69.38 C 136.94 69.23 137.71 68.93 138.10 68.78 C 137.57 68.80 136.50 68.83 135.97 68.85 C 136.65 67.50 137.31 66.13 137.93 64.75 C 135.10 67.02 134.05 70.88 130.89 72.78 C 128.11 73.73 126.37 71.22 124.81 69.41 C 126.35 69.54 128.37 71.14 129.64 69.76 C 131.33 66.68 132.03 62.87 134.99 60.64 C 136.71 59.68 141.01 60.46 137.62 56.67 C 138.77 58.73 140.39 59.39 142.47 58.65 L 139.84 58.13 C 139.79 57.82 139.71 57.20 139.66 56.89 C 142.03 56.66 144.43 55.79 146.83 56.23 C 150.58 57.26 153.92 59.83 157.97 59.71 C 162.61 60.04 167.46 57.38 169.30 53.03 C 167.22 54.62 165.72 57.31 162.89 57.62 C 159.96 58.07 157.17 56.60 155.46 54.25 C 156.46 54.69 158.48 55.56 159.49 55.99 C 157.11 53.80 154.85 49.71 151.02 51.04 C 147.96 51.89 151.30 54.73 151.97 56.37 C 149.83 55.42 146.90 53.93 147.82 51.05 C 149.47 48.31 153.26 48.05 155.99 49.11 C 158.38 50.40 159.78 52.91 162.05 54.37 C 163.80 54.95 165.90 54.34 166.78 52.64 C 168.12 50.90 166.87 48.82 166.59 46.95 C 167.29 46.78 168.69 46.44 169.39 46.27 C 168.63 46.27 167.09 46.27 166.32 46.27 C 166.61 45.53 167.19 44.03 167.48 43.28 C 166.58 44.29 165.69 45.29 164.79 46.30 C 164.78 45.45 164.77 43.75 164.77 42.91 C 163.94 45.92 161.08 47.25 158.13 46.46 C 153.63 46.67 151.53 40.96 147.06 41.55 C 143.92 41.74 142.66 45.13 140.08 46.24 C 138.52 45.71 137.03 45.03 135.51 44.41 C 137.53 43.32 139.62 42.34 141.61 41.19 C 141.98 41.31 142.72 41.56 143.09 41.68 C 143.24 41.27 143.54 40.45 143.69 40.04 C 143.84 39.59 144.15 38.69 144.30 38.24 C 142.39 36.52 139.91 35.72 137.56 34.84 C 135.71 34.08 133.81 33.24 131.77 33.42 C 131.37 32.10 131.01 30.76 130.69 29.42 C 132.00 29.16 133.31 28.90 134.62 28.65 C 134.55 29.37 134.39 30.80 134.31 31.52 C 136.73 30.80 136.40 28.13 134.12 27.55 C 133.28 27.86 131.61 28.48 130.77 28.79 C 131.35 28.11 131.92 27.42 132.59 26.81 C 137.46 27.72 142.45 28.15 147.39 27.53 C 147.57 29.80 148.03 32.04 148.64 34.23 C 148.96 32.68 149.23 31.12 149.47 29.56 C 149.81 29.83 150.49 30.39 150.83 30.66 L 150.35 31.17 C 149.02 32.46 151.47 33.61 152.06 34.67 C 153.52 34.62 154.98 34.65 156.45 34.76 C 155.59 33.80 154.68 32.89 153.77 31.99 C 153.55 31.74 153.10 31.24 152.88 30.99 L 152.65 30.32 C 151.35 28.99 149.15 29.38 147.83 28.14 C 148.84 25.80 151.72 27.62 153.59 27.56 C 155.33 27.87 157.05 28.29 158.72 28.88 C 160.38 29.86 162.02 31.05 162.96 32.79 C 163.62 34.00 164.21 35.24 164.83 36.47 C 166.71 35.59 168.60 34.72 170.50 33.85 C 174.90 34.55 178.89 36.77 183.29 37.55 C 181.44 39.17 179.65 41.21 177.07 41.53 C 174.27 42.21 171.42 41.44 168.60 41.34 C 170.94 42.85 173.76 43.06 176.47 42.97 C 177.74 45.52 179.77 48.51 183.05 48.06 C 183.21 47.18 183.54 45.40 183.70 44.52 C 184.90 46.06 185.98 48.04 185.12 50.02 C 184.12 51.63 182.07 51.08 180.52 51.35 C 180.83 54.53 180.98 58.48 184.07 60.34 C 186.39 60.20 185.65 57.80 185.90 56.24 C 186.83 57.50 188.27 58.90 187.59 60.65 C 186.92 63.93 182.46 63.58 180.57 61.63 C 178.57 58.55 177.68 54.94 176.96 51.38 L 178.50 51.70 C 177.75 50.15 176.30 48.70 176.92 46.81 C 176.23 45.35 175.42 43.89 173.80 43.29 C 174.40 45.03 175.27 46.67 176.26 48.22 C 176.99 52.52 176.76 56.74 174.79 60.68 C 175.87 60.07 176.53 58.54 177.78 58.28 C 180.51 62.24 175.54 65.24 175.76 69.07 C 175.62 71.50 177.97 70.74 179.55 70.77 C 178.72 71.74 177.88 72.70 177.04 73.66 C 172.87 72.61 173.89 68.22 173.35 65.02 L 175.46 65.43 C 174.75 65.04 174.04 64.65 173.33 64.26 C 174.34 63.11 175.27 61.91 176.12 60.64 C 173.61 61.61 172.20 64.07 170.09 65.63 C 170.21 65.95 170.43 66.57 170.54 66.88 L 172.31 64.95 C 172.59 65.75 172.85 66.54 173.10 67.34 C 171.22 71.06 168.82 75.54 171.87 79.35 C 170.19 78.87 168.02 78.87 167.36 76.89 C 166.63 74.59 167.41 72.16 167.55 69.83 C 166.27 73.19 164.02 76.86 165.59 80.51 C 166.48 83.72 170.59 84.18 171.79 87.18 C 172.84 89.08 172.14 91.25 171.67 93.20 C 171.04 91.59 171.76 88.97 169.73 88.28 C 167.30 87.32 165.19 85.80 163.15 84.20 C 164.01 85.85 165.02 87.41 165.92 89.03 C 164.32 87.97 162.25 87.07 161.76 84.99 C 160.80 81.31 161.66 77.48 161.72 73.75 C 160.07 77.30 158.31 81.20 159.36 85.20 C 160.63 91.63 166.23 95.90 168.36 101.96 C 169.67 105.30 170.97 109.74 175.04 110.49 C 177.78 111.15 179.00 108.12 179.29 105.96 C 178.33 105.88 176.41 105.72 175.45 105.64 C 176.92 104.26 179.46 102.96 180.90 105.13 C 183.08 107.16 182.03 110.22 180.43 112.23 C 182.92 110.97 185.67 109.15 185.54 105.97 C 186.11 98.15 176.84 94.84 175.59 87.57 C 174.77 81.33 177.41 75.04 181.22 70.19 C 187.19 62.30 195.98 56.91 201.27 48.47 C 203.86 44.52 204.74 39.34 203.20 34.85 C 201.75 31.15 194.41 31.20 194.78 35.88 C 195.71 38.83 199.30 36.66 200.97 35.43 C 200.67 37.21 201.51 39.60 199.65 40.71 C 197.27 42.62 194.43 40.54 193.05 38.45 C 192.85 38.52 192.46 38.66 192.27 38.73 C 193.90 41.20 196.45 43.00 197.36 45.95 C 196.52 45.35 194.83 44.17 193.99 43.57 C 195.26 46.05 196.72 49.15 195.08 51.81 C 194.04 52.83 192.68 54.07 191.11 53.86 C 189.60 53.30 188.23 52.41 186.84 51.61 C 188.99 51.44 192.36 52.90 193.28 50.04 C 194.11 45.92 188.96 44.79 186.83 42.17 C 184.00 39.72 185.17 35.45 187.66 33.23 C 185.84 33.59 183.89 34.34 182.10 33.39 M 137.13 29.29 C 136.26 30.51 136.47 31.25 137.77 31.50 C 138.66 30.27 138.44 29.53 137.13 29.29 M 160.52 36.26 C 159.16 35.94 157.81 35.62 156.46 35.32 C 157.02 37.81 160.07 37.29 161.96 36.92 C 163.62 35.70 161.75 34.48 161.05 33.38 C 160.92 34.10 160.65 35.54 160.52 36.26 M 166.14 37.33 C 166.29 37.57 166.59 38.06 166.73 38.30 C 170.78 40.65 175.94 40.92 180.13 38.78 C 179.11 38.28 178.15 37.68 177.25 36.99 L 175.45 37.51 C 176.36 37.98 177.26 38.45 178.15 38.94 C 174.32 40.35 170.45 38.90 166.73 38.00 C 168.40 36.90 170.14 35.91 171.92 34.99 C 169.92 35.57 167.89 36.17 166.14 37.33 M 163.21 37.45 C 162.80 38.48 162.40 39.50 162.00 40.53 C 162.83 40.36 163.67 40.19 164.50 40.03 C 165.74 40.53 167.00 40.99 168.28 41.39 C 166.69 39.95 164.92 38.74 163.21 37.45 M 170.52 37.20 L 170.51 37.84 C 171.16 37.85 172.46 37.87 173.12 37.88 L 173.13 37.35 C 172.47 37.31 171.17 37.24 170.52 37.20 M 161.55 66.88 C 160.47 67.47 159.45 68.15 158.43 68.83 C 157.42 69.56 156.44 70.33 155.56 71.21 C 158.19 70.13 160.53 68.48 163.08 67.25 C 163.47 66.19 163.84 65.13 164.18 64.07 C 163.29 64.99 162.42 65.94 161.55 66.88 M 148.26 70.04 C 148.12 71.14 147.83 73.34 147.69 74.44 L 147.12 71.32 C 146.51 71.92 145.89 72.52 145.28 73.13 C 146.72 74.70 148.59 75.57 150.69 75.05 C 149.97 73.72 147.32 71.98 149.58 70.69 C 152.34 69.29 155.62 68.33 156.99 65.25 C 154.28 67.19 151.22 68.53 148.26 70.04 M 136.04 86.00 C 137.37 86.67 138.80 84.72 138.03 83.56 C 136.96 83.27 135.63 85.03 136.04 86.00 Z" />
<path fill="#000000" opacity="1.00" d=" M 108.02 34.65 L 108.78 33.29 C 110.06 36.12 111.72 38.93 114.74 40.16 C 114.12 38.41 109.31 34.85 113.31 34.70 C 114.74 34.66 116.16 34.62 117.59 34.61 C 119.45 34.44 119.39 36.29 118.10 37.09 C 115.91 38.62 117.76 41.15 118.45 42.97 C 122.11 49.82 127.89 55.18 133.39 60.53 C 131.85 62.88 130.58 65.38 129.41 67.93 C 127.29 62.41 123.92 57.52 119.66 53.44 C 119.24 54.17 118.42 55.63 118.00 56.36 C 117.52 55.79 116.57 54.63 116.09 54.05 C 115.86 53.59 115.39 52.68 115.16 52.23 C 114.96 51.62 114.54 50.40 114.34 49.79 C 115.95 49.79 117.58 49.75 119.20 49.77 C 119.97 51.68 121.34 53.37 123.61 53.31 C 119.89 50.93 119.12 46.09 115.59 43.58 C 116.07 44.48 117.03 46.29 117.51 47.20 C 117.06 47.59 116.60 47.98 116.15 48.37 C 114.92 47.01 113.14 46.83 111.44 46.80 C 111.34 48.70 109.05 52.72 107.91 48.72 C 107.32 47.41 106.76 46.08 106.22 44.75 L 105.68 43.42 C 108.40 43.71 111.10 44.20 113.84 44.13 C 112.75 42.54 111.27 41.31 109.73 40.18 C 108.32 40.62 106.90 41.03 105.47 41.42 C 105.63 40.68 105.95 39.20 106.11 38.46 C 106.71 37.17 107.35 35.90 108.02 34.65 M 122.51 53.75 C 123.58 55.86 125.02 57.75 126.54 59.55 C 128.06 60.92 128.90 58.87 129.88 57.97 C 129.13 58.18 127.65 58.61 126.91 58.83 C 125.82 57.65 123.82 56.07 126.32 54.41 C 125.86 54.56 124.95 54.86 124.49 55.01 C 123.99 54.69 123.01 54.06 122.51 53.75 M 130.44 60.28 C 129.57 60.61 127.05 60.97 128.02 62.39 C 129.31 64.14 132.80 60.75 130.44 60.28 Z" />
<path fill="#000000" opacity="1.00" d=" M 133.54 56.90 C 132.84 54.93 135.10 54.05 136.32 53.05 C 135.80 53.97 135.32 54.90 134.88 55.86 C 135.46 56.21 136.62 56.92 137.20 57.27 C 137.59 58.02 137.97 58.78 138.34 59.55 C 136.23 59.93 133.87 59.24 133.54 56.90 Z" />
<path fill="#000000" opacity="1.00" d=" M 111.74 62.38 C 112.09 62.15 112.78 61.71 113.12 61.48 C 112.75 64.61 113.31 67.82 116.16 69.62 C 116.54 67.23 113.87 65.18 114.83 62.99 L 116.43 63.27 C 117.79 63.53 119.15 63.79 120.53 64.03 L 121.21 64.15 C 121.41 64.56 121.82 65.38 122.02 65.80 C 121.38 66.16 120.09 66.89 119.45 67.25 C 120.88 71.68 123.51 75.90 127.73 78.14 C 126.94 78.72 126.14 79.31 125.36 79.90 C 121.92 77.18 120.12 72.65 116.03 70.77 C 117.97 73.73 120.55 76.19 122.78 78.92 C 122.28 78.98 121.28 79.10 120.78 79.16 C 122.06 80.03 123.70 84.14 120.74 83.11 C 119.67 82.49 118.62 81.87 117.59 81.20 C 117.11 80.71 116.16 79.74 115.68 79.26 C 116.61 79.01 118.47 78.52 119.40 78.27 C 117.67 76.55 115.41 75.67 112.99 75.52 C 112.63 76.62 112.22 77.71 111.79 78.78 C 111.10 78.68 109.72 78.47 109.04 78.37 C 109.21 78.11 109.56 77.58 109.73 77.32 C 109.18 76.23 108.56 75.16 107.99 74.08 C 107.85 73.47 107.58 72.25 107.44 71.65 C 109.52 72.09 111.69 73.82 113.74 72.31 C 112.36 69.85 110.71 67.09 107.41 67.50 C 107.75 66.52 108.09 65.55 108.43 64.58 C 109.54 63.86 110.64 63.11 111.74 62.38 Z" />
<path fill="#000000" opacity="1.00" d=" M 130.45 74.22 C 131.90 73.25 133.29 72.22 134.63 71.11 C 134.65 75.04 138.50 77.36 138.70 81.26 C 136.32 81.39 135.60 79.18 134.44 77.62 C 134.51 78.33 134.64 79.76 134.70 80.48 C 133.36 79.92 132.02 79.37 130.69 78.81 C 130.61 77.28 130.53 75.75 130.45 74.22 Z" />
<path fill="#000000" opacity="1.00" d=" M 127.46 80.33 C 127.55 79.84 127.75 78.86 127.84 78.37 C 128.87 78.88 130.94 79.90 131.97 80.41 C 131.40 80.88 130.28 81.83 129.71 82.30 C 129.33 82.06 128.57 81.57 128.19 81.32 C 128.21 81.71 128.26 82.50 128.28 82.89 L 128.15 83.60 C 127.16 83.14 125.18 82.22 124.19 81.76 C 125.26 81.25 126.35 80.77 127.46 80.33 Z" />
<path fill="#000000" opacity="1.00" d=" M 124.80 91.78 C 127.47 90.49 128.80 87.76 129.61 85.06 C 131.49 85.92 133.41 86.71 135.33 87.51 C 134.61 89.85 132.89 91.57 130.82 92.81 C 131.10 91.84 131.67 89.89 131.95 88.91 C 130.45 92.66 126.65 93.91 123.29 95.42 C 122.91 96.04 122.14 97.27 121.75 97.88 C 120.14 95.16 122.49 92.94 124.80 91.78 Z" />
<path fill="#000000" opacity="1.00" d=" M 147.55 100.71 C 149.15 97.48 152.67 96.11 155.96 98.01 C 155.31 98.49 154.66 98.97 154.00 99.44 C 151.75 99.18 149.66 100.10 147.55 100.71 Z" />
<path fill="#000000" opacity="1.00" d=" M 127.49 101.08 C 134.03 96.38 141.95 100.92 148.25 103.75 C 150.96 105.44 153.49 103.55 155.59 101.87 C 155.96 104.87 155.43 107.88 155.58 110.88 C 156.37 111.11 157.94 111.56 158.72 111.78 C 156.51 113.48 153.82 114.81 150.99 114.88 C 148.79 114.51 146.75 113.57 144.62 112.99 C 145.79 113.97 147.06 114.83 148.25 115.80 C 150.26 117.42 151.01 120.14 153.05 121.72 C 153.96 121.72 155.80 121.72 156.71 121.73 C 155.38 124.56 152.28 124.04 150.14 122.58 C 149.87 122.77 149.34 123.16 149.07 123.36 C 151.90 123.05 153.58 125.18 153.94 127.77 C 152.77 126.92 151.61 126.07 150.44 125.24 C 148.00 126.63 145.19 126.83 142.49 127.35 C 144.06 127.84 145.63 128.35 147.19 128.88 L 146.15 129.56 C 144.92 130.36 143.69 131.17 142.43 131.94 C 141.72 132.08 140.29 132.38 139.57 132.52 C 139.84 131.24 140.12 129.96 140.40 128.68 C 137.97 129.44 136.09 132.67 138.71 134.48 C 140.17 135.32 137.80 137.58 136.70 136.85 C 135.13 136.63 133.58 136.35 132.05 135.98 L 130.83 135.51 C 132.40 133.89 133.94 132.16 134.43 129.88 C 132.91 130.22 131.40 130.63 129.91 131.07 C 130.00 131.93 130.19 133.64 130.28 134.50 C 129.59 134.30 128.23 133.91 127.54 133.71 C 126.39 132.69 125.27 131.63 124.15 130.58 L 123.29 129.75 C 124.11 128.04 125.72 128.36 127.23 128.69 C 128.82 129.21 131.17 127.54 130.19 125.76 C 128.45 126.43 125.51 126.89 126.18 124.07 C 126.44 122.48 126.75 120.89 127.13 119.33 C 129.23 116.42 130.14 121.40 130.05 122.98 C 131.00 123.53 131.95 124.08 132.90 124.62 C 136.03 121.70 140.33 121.64 144.29 122.46 C 144.27 121.97 144.23 121.00 144.21 120.51 C 137.94 120.08 131.55 116.94 128.64 111.16 C 127.14 108.54 126.85 105.51 126.45 102.59 C 124.60 105.26 124.32 108.56 123.24 111.53 C 121.80 114.26 118.28 113.82 115.69 113.75 C 116.84 113.33 118.01 112.93 119.18 112.56 C 117.80 112.06 116.44 111.54 115.09 110.99 C 115.12 110.06 115.16 109.14 115.19 108.23 C 116.10 109.60 116.98 111.31 118.94 110.79 C 124.52 110.49 122.13 101.76 127.49 101.08 Z" />
<path fill="#000000" opacity="1.00" d=" M 155.76 101.07 C 156.12 100.39 156.50 99.72 156.87 99.05 C 158.92 102.75 161.04 106.62 161.25 110.95 C 159.53 111.37 158.03 110.14 156.46 109.71 C 156.52 106.83 157.49 103.68 155.76 101.07 Z" />
</g>
<g id="#ff0101ff">
<path fill="#ff0101" opacity="1.00" d=" M 153.59 27.56 C 154.44 23.64 157.84 21.04 161.85 21.37 C 159.59 23.28 158.18 25.83 158.72 28.88 C 157.05 28.29 155.33 27.87 153.59 27.56 Z" />
<path fill="#ff0101" opacity="1.00" d=" M 167.86 21.68 C 169.91 22.19 172.23 22.68 173.39 24.68 C 175.85 27.79 173.71 32.24 170.50 33.85 C 168.60 34.72 166.71 35.59 164.83 36.47 C 164.21 35.24 163.62 34.00 162.96 32.79 C 166.21 31.92 169.91 30.54 171.06 27.02 C 171.79 24.53 169.30 23.18 167.86 21.68 Z" />
<path fill="#ff0101" opacity="1.00" d=" M 110.77 22.68 C 113.15 24.33 116.01 25.03 118.50 26.43 C 119.88 29.38 122.11 31.59 125.44 32.13 C 123.95 29.89 122.25 27.72 121.70 25.02 C 123.59 26.61 125.77 27.79 127.72 29.28 C 128.95 31.31 128.86 34.43 131.42 35.36 C 135.49 37.14 139.98 37.45 144.30 38.24 C 144.15 38.69 143.84 39.59 143.69 40.04 C 140.80 41.30 137.26 40.72 134.63 42.55 C 133.05 45.96 131.18 50.02 126.81 50.11 C 129.89 48.32 129.62 44.29 132.28 42.14 L 132.63 41.73 C 132.28 41.06 131.90 40.42 131.49 39.79 L 133.57 39.27 C 128.97 38.30 124.19 38.95 119.64 37.76 C 122.52 36.73 125.53 36.10 128.59 36.74 C 125.97 34.99 122.81 34.40 120.03 33.02 C 118.22 30.72 116.24 28.53 113.41 27.50 C 112.58 25.87 111.67 24.27 110.77 22.68 Z" />
<path fill="#ff0101" opacity="1.00" d=" M 110.04 29.75 C 111.71 30.03 113.62 29.70 115.13 30.66 C 116.18 31.81 116.81 33.27 117.59 34.61 C 116.16 34.62 114.74 34.66 113.31 34.70 C 113.02 32.59 111.56 31.10 110.04 29.75 Z" />
<path fill="#ff0101" opacity="1.00" d=" M 103.26 35.20 C 104.78 34.64 106.43 34.78 108.02 34.65 C 107.35 35.90 106.71 37.17 106.11 38.46 C 103.92 38.01 101.81 38.52 99.93 39.71 C 100.98 38.21 101.41 35.99 103.26 35.20 Z" />
<path fill="#ff0101" opacity="1.00" d=" M 121.78 43.66 C 124.41 41.88 127.57 41.32 130.55 40.37 C 130.69 41.05 130.65 41.71 130.44 42.35 C 128.46 45.23 124.64 43.98 121.78 43.66 Z" />
<path fill="#ff0101" opacity="1.00" d=" M 103.04 50.03 C 102.91 47.74 104.83 46.26 106.22 44.75 C 106.76 46.08 107.32 47.41 107.91 48.72 C 105.46 49.36 105.00 51.67 105.10 53.84 C 104.36 52.61 103.50 51.42 103.04 50.03 Z" />
<path fill="#ff0101" opacity="1.00" d=" M 109.81 51.58 C 111.56 51.99 113.35 52.30 115.16 52.23 C 115.39 52.68 115.86 53.59 116.09 54.05 L 116.70 55.21 C 113.68 55.69 110.96 54.46 109.81 51.58 Z" />
<path fill="#ff0101" opacity="1.00" d=" M 113.61 57.75 C 117.40 57.42 120.48 60.25 120.53 64.03 C 119.15 63.79 117.79 63.53 116.43 63.27 C 116.50 60.96 115.32 59.17 113.61 57.75 Z" />
<path fill="#ff0101" opacity="1.00" d=" M 102.38 63.63 C 103.81 62.57 105.05 60.91 106.96 60.76 C 108.70 60.65 110.19 61.77 111.74 62.38 C 110.64 63.11 109.54 63.86 108.43 64.58 C 108.09 65.55 107.75 66.52 107.41 67.50 L 107.19 68.12 C 107.20 66.65 107.25 65.18 107.32 63.71 C 105.67 63.61 104.02 63.58 102.38 63.63 Z" />
<path fill="#ff0101" opacity="1.00" d=" M 105.33 78.10 C 105.57 76.44 107.05 75.35 107.99 74.08 C 108.56 75.16 109.18 76.23 109.73 77.32 C 109.56 77.58 109.21 78.11 109.04 78.37 C 107.76 79.68 107.57 81.46 107.33 83.19 C 106.43 81.61 104.89 80.09 105.33 78.10 Z" />
<path fill="#ff0101" opacity="1.00" d=" M 117.59 81.20 C 118.62 81.87 119.67 82.49 120.74 83.11 C 118.48 85.03 115.65 85.20 113.15 83.63 C 113.27 83.33 113.50 82.73 113.62 82.42 C 115.09 83.58 116.53 82.17 117.59 81.20 Z" />
<path fill="#ff0101" opacity="1.00" d=" M 119.33 126.92 C 118.95 122.33 123.21 119.88 127.13 119.33 C 126.75 120.89 126.44 122.48 126.18 124.07 C 123.44 123.76 121.11 124.85 119.33 126.92 Z" />
<path fill="#ff0101" opacity="1.00" d=" M 142.43 131.94 C 143.69 131.17 144.92 130.36 146.15 129.56 C 147.88 132.91 145.67 136.08 143.36 138.42 C 143.54 136.19 143.39 133.98 142.43 131.94 Z" />
<path fill="#ff0101" opacity="1.00" d=" M 124.15 130.58 C 125.27 131.63 126.39 132.69 127.54 133.71 C 126.08 135.97 125.96 138.61 126.31 141.21 C 122.48 139.01 122.59 134.15 124.15 130.58 Z" />
<path fill="#ff0101" opacity="1.00" d=" M 132.05 135.98 C 133.58 136.35 135.13 136.63 136.70 136.85 C 136.95 139.37 138.00 141.62 140.08 143.14 C 135.66 143.99 132.68 139.90 132.05 135.98 Z" />
<path fill="#ff0101" opacity="1.00" d=" M 168.65 150.27 C 171.01 153.00 172.11 156.73 169.96 159.95 C 169.58 157.69 168.69 155.51 166.18 155.06 C 167.07 153.50 167.87 151.89 168.65 150.27 Z" />
<path fill="#ff0101" opacity="1.00" d=" M 143.02 161.17 C 141.23 156.89 144.78 153.29 148.48 151.79 C 148.54 153.35 148.65 154.91 148.79 156.47 C 146.06 156.85 144.10 158.71 143.02 161.17 Z" />
<path fill="#ff0101" opacity="1.00" d=" M 147.80 162.75 L 148.84 163.73 C 149.58 164.45 150.34 165.16 151.10 165.87 C 150.05 168.21 149.82 170.76 150.32 173.28 C 146.37 171.19 146.46 166.40 147.80 162.75 Z" />
<path fill="#ff0101" opacity="1.00" d=" M 158.45 165.69 C 159.88 165.01 161.33 164.38 162.81 163.80 C 164.30 166.01 166.60 167.17 169.17 167.67 C 167.50 168.38 165.78 169.61 163.87 169.01 C 161.77 168.46 160.16 166.92 158.45 165.69 Z" />
</g>
</svg>
