<?xml version="1.0" encoding="UTF-8" standalone="no"?>
<svg xmlns:dc="http://purl.org/dc/elements/1.1/" xmlns:cc="http://creativecommons.org/ns#" xmlns:rdf="http://www.w3.org/1999/02/22-rdf-syntax-ns#" xmlns:svg="http://www.w3.org/2000/svg" xmlns="http://www.w3.org/2000/svg" xmlns:sodipodi="http://sodipodi.sourceforge.net/DTD/sodipodi-0.dtd" xmlns:inkscape="http://www.inkscape.org/namespaces/inkscape" width="510" height="340" id="svg2" sodipodi:version="0.32" inkscape:version="0.46" sodipodi:docname="celtib.svg" inkscape:output_extension="org.inkscape.output.svg.inkscape" version="1.0">
  <metadata id="metadata27">
    <rdf:RDF>
      <cc:Work rdf:about="">
        <dc:format>image/svg+xml</dc:format>
        <dc:type rdf:resource="http://purl.org/dc/dcmitype/StillImage"/>
      </cc:Work>
    </rdf:RDF>
  </metadata>
  <defs id="defs25">
    <inkscape:perspective sodipodi:type="inkscape:persp3d" inkscape:vp_x="0 : 184.5 : 1" inkscape:vp_y="0 : 1000 : 0" inkscape:vp_z="359 : 184.5 : 1" inkscape:persp3d-origin="179.5 : 123 : 1" id="perspective29"/>
  </defs>
  <sodipodi:namedview inkscape:window-height="729" inkscape:window-width="1280" inkscape:pageshadow="2" inkscape:pageopacity="0.0" guidetolerance="10.0" gridtolerance="10.0" objecttolerance="10.0" borderopacity="1.0" bordercolor="#666666" pagecolor="#ffffff" id="base" showgrid="false" inkscape:zoom="1.2628726" inkscape:cx="179.5" inkscape:cy="162.0571" inkscape:window-x="0" inkscape:window-y="0" inkscape:current-layer="svg2"/>
  <rect style="opacity: 1; fill: rgb(213, 255, 246); fill-opacity: 1; fill-rule: nonzero; stroke: none; stroke-width: 13.108; stroke-miterlimit: 4; stroke-dasharray: none; stroke-opacity: 1;" id="rect3325" width="510" height="340" x="0" y="7.6293945e-06"/>
  <g id="g3274" transform="translate(95, 10)">
    <path transform="matrix(5.77313, 0, 0, 5.53588, -137.143, -306.849)" d="M 79.184547,84.331543 A 27.714592,28.902361 0 1 1 23.755363,84.331543 A 27.714592,28.902361 0 1 1 79.184547,84.331543 z" sodipodi:ry="28.902361" sodipodi:rx="27.714592" sodipodi:cy="84.331543" sodipodi:cx="51.469955" id="path3176" style="opacity: 1; fill: rgb(233, 214, 174); fill-opacity: 1; fill-rule: nonzero; stroke: none; stroke-width: 13.108; stroke-miterlimit: 4; stroke-dasharray: none; stroke-opacity: 1;" sodipodi:type="arc"/>
    <path transform="matrix(5.41231, 0, 0, 5.18989, -118.571, -277.671)" d="M 79.184547,84.331543 A 27.714592,28.902361 0 1 1 23.755363,84.331543 A 27.714592,28.902361 0 1 1 79.184547,84.331543 z" sodipodi:ry="28.902361" sodipodi:rx="27.714592" sodipodi:cy="84.331543" sodipodi:cx="51.469955" id="path3174" style="opacity: 1; fill: rgb(192, 201, 184); fill-opacity: 1; fill-rule: nonzero; stroke: none; stroke-width: 13.108; stroke-miterlimit: 4; stroke-dasharray: none; stroke-opacity: 1;" sodipodi:type="arc"/>
    <path id="path10" d="M 125,35.773257 L 126.55554,35.773257 C 128.63063,31.997989 130.36661,27.8527 132.72636,24.269882 C 138.34496,15.73775 147.90685,15.269686 151.84547,25.878596 C 156.23209,37.697265 152.99968,56.227887 152.99968,68.840327 C 156.84808,59.093147 157.05186,34.177936 153.40101,24.207386 C 148.48707,10.791577 136.13143,13.881695 130.21572,24.204906 C 128.11885,27.864439 126.54465,31.832819 125,35.773257 M 166.99953,68.840327 L 168.55506,68.840327 C 168.55506,56.227887 165.32266,37.697265 169.70927,25.878596 C 173.6479,15.269521 183.20979,15.73775 188.82839,24.269882 C 191.18814,27.852535 192.92412,31.997989 194.99921,35.773257 C 195.12832,22.853124 179.4065,5.7645555 169.70927,20.989959 C 162.68913,32.013696 166.99953,55.937387 166.99953,68.840327 M 156.11232,69.793327 C 135.10011,75.963967 144.39756,110.44202 165.44243,104.26178 C 186.45464,98.090477 177.15719,63.613087 156.11232,69.793327 z" style="fill: rgb(0, 0, 0); stroke: none;"/>
    <path id="path12" d="M 156.13409,71.579277 C 137.34475,77.753727 146.52242,108.6845 165.42065,102.4745 C 184.21,96.300557 175.03232,65.369607 156.13409,71.579277 z" style="fill: rgb(192, 201, 184); stroke: none;"/>
    <path id="path14" d="M 156.1792,75.034127 C 141.61159,81.113837 150.69282,105.14798 165.37554,99.020317 C 179.94316,92.940607 170.86193,68.906467 156.1792,75.034127 z" style="fill: rgb(0, 0, 0); stroke: none;"/>
    <path id="path16" d="M 156.20254,77.160667 C 144.28556,83.837737 153.62034,103.46817 165.35221,96.893777 C 177.26919,90.216707 167.9344,70.586607 156.20254,77.160667 z" style="fill: rgb(192, 201, 184); stroke: none;"/>
    <path id="path18" d="M 156.60542,80.467377 C 148.65507,85.923277 156.87297,99.129767 164.94933,93.587067 C 172.89968,88.131167 164.68177,74.924667 156.60542,80.467377 z" style="fill: rgb(0, 0, 0); stroke: none;"/>
    <path transform="matrix(1.8041, 0, 0, 1.72996, 67.1429, 14.1096)" d="M 79.184547,84.331543 A 27.714592,28.902361 0 1 1 23.755363,84.331543 A 27.714592,28.902361 0 1 1 79.184547,84.331543 z" sodipodi:ry="28.902361" sodipodi:rx="27.714592" sodipodi:cy="84.331543" sodipodi:cx="51.469955" id="path2402" style="opacity: 1; fill: rgb(90, 94, 79); fill-opacity: 1; fill-rule: nonzero; stroke: none; stroke-width: 13.108; stroke-miterlimit: 4; stroke-dasharray: none; stroke-opacity: 1;" sodipodi:type="arc"/>
    <path id="path3178" d="M 195,284.22674 L 193.44446,284.22674 C 191.36937,288.00201 189.63339,292.1473 187.27364,295.73011 C 181.65504,304.26225 172.09315,304.73031 168.15453,294.1214 C 163.76791,282.30273 167.00032,263.77211 167.00032,251.15967 C 163.15192,260.90685 162.94814,285.82206 166.59899,295.79261 C 171.51293,309.20842 183.86857,306.1183 189.78428,295.79509 C 191.88115,292.13556 193.45535,288.16718 195,284.22674 M 153.00047,251.15967 L 151.44494,251.15967 C 151.44494,263.77211 154.67734,282.30273 150.29073,294.1214 C 146.3521,304.73048 136.79021,304.26225 131.17161,295.73011 C 128.81186,292.14746 127.07588,288.00201 125.00079,284.22674 C 124.87168,297.14687 140.5935,314.23544 150.29073,299.01004 C 157.31087,287.9863 153.00047,264.06261 153.00047,251.15967 M 163.88768,250.20667 C 184.89989,244.03603 175.60244,209.55798 154.55757,215.73822 C 133.54536,221.90952 142.84281,256.38691 163.88768,250.20667 z" style="fill: rgb(0, 0, 0); stroke: none;"/>
    <path id="path3180" d="M 163.86591,248.42072 C 182.65525,242.24627 173.47758,211.3155 154.57935,217.5255 C 135.79,223.69944 144.96768,254.63039 163.86591,248.42072 z" style="fill: rgb(192, 201, 184); stroke: none;"/>
    <path id="path3182" d="M 163.8208,244.96587 C 178.38841,238.88616 169.30718,214.85202 154.62446,220.97968 C 140.05684,227.05939 149.13807,251.09353 163.8208,244.96587 z" style="fill: rgb(0, 0, 0); stroke: none;"/>
    <path id="path3184" d="M 163.79746,242.83933 C 175.71444,236.16226 166.37966,216.53183 154.64779,223.10622 C 142.73081,229.78329 152.0656,249.41339 163.79746,242.83933 z" style="fill: rgb(192, 201, 184); stroke: none;"/>
    <path id="path3186" d="M 163.39458,239.53262 C 171.34493,234.07672 163.12703,220.87023 155.05067,226.41293 C 147.10032,231.86883 155.31823,245.07533 163.39458,239.53262 z" style="fill: rgb(0, 0, 0); stroke: none;"/>
    <path id="path3188" d="M 35.773256,195 L 35.773256,193.44446 C 31.997986,191.36937 27.852696,189.63339 24.269886,187.27364 C 15.737746,181.65504 15.269686,172.09315 25.878596,168.15453 C 37.697266,163.76791 56.227886,167.00032 68.840327,167.00032 C 59.093146,163.15192 34.177936,162.94814 24.207386,166.59899 C 10.791576,171.51293 13.881696,183.86857 24.204906,189.78428 C 27.864436,191.88115 31.832816,193.45535 35.773256,195 M 68.840327,153.00047 L 68.840327,151.44494 C 56.227886,151.44494 37.697266,154.67734 25.878596,150.29073 C 15.269516,146.3521 15.737746,136.79021 24.269886,131.17161 C 27.852536,128.81186 31.997986,127.07588 35.773256,125.00079 C 22.853126,124.87168 5.764556,140.5935 20.989956,150.29073 C 32.013696,157.31087 55.937386,153.00047 68.840327,153.00047 M 69.793327,163.88768 C 75.963967,184.89989 110.44202,175.60244 104.26178,154.55757 C 98.090477,133.54536 63.613086,142.84281 69.793327,163.88768 z" style="fill: rgb(0, 0, 0); stroke: none;"/>
    <path id="path3190" d="M 71.579277,163.86591 C 77.753727,182.65525 108.6845,173.47758 102.4745,154.57935 C 96.300557,135.79 65.369606,144.96768 71.579277,163.86591 z" style="fill: rgb(192, 201, 184); stroke: none;"/>
    <path id="path3192" d="M 75.034127,163.8208 C 81.113837,178.38841 105.14798,169.30718 99.020317,154.62446 C 92.940607,140.05684 68.906467,149.13807 75.034127,163.8208 z" style="fill: rgb(0, 0, 0); stroke: none;"/>
    <path id="path3194" d="M 77.160667,163.79746 C 83.837737,175.71444 103.46817,166.37966 96.893777,154.64779 C 90.216707,142.73081 70.586607,152.0656 77.160667,163.79746 z" style="fill: rgb(192, 201, 184); stroke: none;"/>
    <path id="path3196" d="M 80.467377,163.39458 C 85.923277,171.34493 99.129767,163.12703 93.587067,155.05067 C 88.131167,147.10032 74.924667,155.31823 80.467377,163.39458 z" style="fill: rgb(0, 0, 0); stroke: none;"/>
    <path id="path3200" d="M 284.22674,125 L 284.22674,126.55554 C 288.00201,128.63063 292.1473,130.36661 295.73011,132.72636 C 304.26225,138.34496 304.73031,147.90685 294.1214,151.84547 C 282.30273,156.23209 263.77211,152.99968 251.15967,152.99968 C 260.90685,156.84808 285.82206,157.05186 295.79261,153.40101 C 309.20842,148.48707 306.1183,136.13143 295.79509,130.21572 C 292.13556,128.11885 288.16718,126.54465 284.22674,125 M 251.15967,166.99953 L 251.15967,168.55506 C 263.77211,168.55506 282.30273,165.32266 294.1214,169.70927 C 304.73048,173.6479 304.26225,183.20979 295.73011,188.82839 C 292.14746,191.18814 288.00201,192.92412 284.22674,194.99921 C 297.14687,195.12832 314.23544,179.4065 299.01004,169.70927 C 287.9863,162.68913 264.06261,166.99953 251.15967,166.99953 M 250.20667,156.11232 C 244.03603,135.10011 209.55798,144.39756 215.73822,165.44243 C 221.90952,186.45464 256.38691,177.15719 250.20667,156.11232 z" style="fill: rgb(0, 0, 0); stroke: none;"/>
    <path id="path3202" d="M 248.42072,156.13409 C 242.24627,137.34475 211.3155,146.52242 217.5255,165.42065 C 223.69944,184.21 254.63039,175.03232 248.42072,156.13409 z" style="fill: rgb(192, 201, 184); stroke: none;"/>
    <path id="path3204" d="M 244.96587,156.1792 C 238.88616,141.61159 214.85202,150.69282 220.97968,165.37554 C 227.05939,179.94316 251.09353,170.86193 244.96587,156.1792 z" style="fill: rgb(0, 0, 0); stroke: none;"/>
    <path id="path3206" d="M 242.83933,156.20254 C 236.16226,144.28556 216.53183,153.62034 223.10622,165.35221 C 229.78329,177.26919 249.41339,167.9344 242.83933,156.20254 z" style="fill: rgb(192, 201, 184); stroke: none;"/>
    <path id="path3208" d="M 239.53262,156.60542 C 234.07672,148.65507 220.87023,156.87297 226.41293,164.94933 C 231.86883,172.89968 245.07533,164.68177 239.53262,156.60542 z" style="fill: rgb(0, 0, 0); stroke: none;"/>
    <path id="path3232" d="M 47.409771,96.907081 L 48.509701,95.807151 C 47.307501,91.670321 45.603861,87.511641 44.739021,83.309607 C 42.678841,73.303528 49.109151,66.21128 59.395801,70.927887 C 70.854671,76.183139 81.672141,91.571931 90.590481,100.49028 C 86.419421,90.876741 68.945801,73.114933 59.314011,68.64623 C 46.352921,62.634501 39.801211,73.556301 42.917781,85.038952 C 44.022751,89.109341 45.715691,93.028541 47.409771,96.907081 M 100.48987,90.590881 L 101.5898,89.490951 C 92.671461,80.572612 77.282681,69.755136 72.027421,58.296273 C 67.310701,48.009493 74.403061,41.579303 84.409141,43.639482 C 88.611061,44.504205 92.769861,46.20796 96.906691,47.410167 C 87.862071,38.182959 64.661621,37.216522 68.570631,54.839484 C 71.401601,67.598432 91.366121,81.467123 100.48987,90.590881 M 93.465331,98.963171 C 82.970751,118.18436 113.9247,135.98973 124.43558,116.73867 C 134.92969,97.517021 103.97621,79.712113 93.465331,98.963171 z" style="fill: rgb(0, 0, 0); stroke: none;"/>
    <path id="path3234" d="M 94.743581,100.21065 C 85.823501,117.86271 114.18445,133.24447 123.15638,115.49027 C 132.07682,97.838551 103.71574,82.45667 94.743581,100.21065 z" style="fill: rgb(192, 201, 184); stroke: none;"/>
    <path id="path3236" d="M 97.218421,102.6217 C 91.216571,117.22156 114.63267,127.79486 120.68201,113.0797 C 126.68387,98.479821 103.26777,87.906521 97.218421,102.6217 z" style="fill: rgb(0, 0, 0); stroke: none;"/>
    <path id="path3238" d="M 98.738621,104.10888 C 95.033441,117.25686 115.51493,124.53698 119.16182,111.5925 C 122.867,98.444511 102.38573,91.164631 98.738621,104.10888 z" style="fill: rgb(192, 201, 184); stroke: none;"/>
    <path id="path3240" d="M 101.36169,106.1622 C 99.597851,115.64185 114.74718,119.16931 116.53875,109.53918 C 118.30259,100.05953 103.15325,96.532061 101.36169,106.1622 z" style="fill: rgb(0, 0, 0); stroke: none;"/>
    <path id="path3242" d="M 272.59039,223.09276 L 271.49046,224.1927 C 272.69267,228.32953 274.39631,232.48821 275.26114,236.69024 C 277.32132,246.69632 270.89102,253.78856 260.60436,249.07196 C 249.14549,243.8167 238.32802,228.42792 229.40968,219.50958 C 233.58075,229.1231 251.05437,246.88491 260.68615,251.35361 C 273.64724,257.36534 280.19895,246.44354 277.08238,234.96089 C 275.97741,230.8905 274.28447,226.97131 272.59039,223.09276 M 219.51029,229.40897 L 218.41036,230.50889 C 227.32871,239.42723 242.71748,250.24471 247.97274,261.70357 C 252.68946,271.99036 245.5971,278.42054 235.59101,276.36036 C 231.3891,275.49564 227.2303,273.79189 223.09348,272.58968 C 232.13809,281.81688 255.33854,282.78332 251.42953,265.16036 C 248.59856,252.40141 228.63405,238.53272 219.51029,229.40897 M 226.53484,221.03667 C 237.02941,201.8155 206.07546,184.01012 195.56458,203.26118 C 185.07047,222.48283 216.02396,240.28773 226.53484,221.03667 z" style="fill: rgb(0, 0, 0); stroke: none;"/>
    <path id="path3244" d="M 225.25659,219.78921 C 234.17666,202.13714 205.81571,186.75538 196.84378,204.50958 C 187.92333,222.16129 216.28442,237.54318 225.25659,219.78921 z" style="fill: rgb(192, 201, 184); stroke: none;"/>
    <path id="path3246" d="M 222.78174,217.37816 C 228.78359,202.7783 205.36749,192.20499 199.31815,206.92016 C 193.31629,221.52002 216.73239,232.09333 222.78174,217.37816 z" style="fill: rgb(0, 0, 0); stroke: none;"/>
    <path id="path3248" d="M 221.26155,215.89097 C 224.96672,202.74299 204.48522,195.46287 200.83834,208.40735 C 197.13316,221.55533 217.61443,228.83521 221.26155,215.89097 z" style="fill: rgb(192, 201, 184); stroke: none;"/>
    <path id="path3250" d="M 218.63847,213.83765 C 220.40231,204.358 205.25298,200.83054 203.46141,210.46067 C 201.69757,219.94032 216.84691,223.46778 218.63847,213.83765 z" style="fill: rgb(0, 0, 0); stroke: none;"/>
    <path id="path3252" d="M 96.907251,272.59024 L 95.807321,271.4903 C 91.670491,272.69251 87.511801,274.39615 83.309781,275.26099 C 73.303691,277.32117 66.211451,270.89086 70.928061,260.6042 C 76.183311,249.14533 91.572091,238.32787 100.49044,229.40952 C 90.876911,233.58059 73.115101,251.05421 68.646401,260.686 C 62.634671,273.64709 73.556471,280.1988 85.039121,277.08222 C 89.109511,275.97726 93.028711,274.28432 96.907251,272.59024 M 90.591051,219.51014 L 89.491111,218.4102 C 80.572771,227.32854 69.755301,242.71733 58.296431,247.97258 C 48.009651,252.6893 41.579461,245.59694 43.639641,235.59085 C 44.504371,231.38894 46.208121,227.23014 47.410331,223.09331 C 38.183121,232.13793 37.216681,255.33838 54.839641,251.42937 C 67.598601,248.59841 81.467291,228.63389 90.591051,219.51014 M 98.963341,226.53468 C 118.18452,237.02926 135.98989,206.0753 116.73883,195.56442 C 97.517181,185.07031 79.712271,216.02379 98.963341,226.53468 z" style="fill: rgb(0, 0, 0); stroke: none;"/>
    <path id="path3254" d="M 100.2108,225.25643 C 117.86287,234.17651 133.24463,205.81556 115.49043,196.84362 C 97.838711,187.92317 82.456831,216.28426 100.2108,225.25643 z" style="fill: rgb(192, 201, 184); stroke: none;"/>
    <path id="path3256" d="M 102.62185,222.78159 C 117.22171,228.78344 127.79502,205.36733 113.07986,199.31799 C 98.479981,193.31613 87.906681,216.73223 102.62185,222.78159 z" style="fill: rgb(0, 0, 0); stroke: none;"/>
    <path id="path3258" d="M 104.10904,221.26139 C 117.25702,224.96657 124.53714,204.48507 111.59266,200.83818 C 98.444681,197.133 91.164791,217.61427 104.10904,221.26139 z" style="fill: rgb(192, 201, 184); stroke: none;"/>
    <path id="path3260" d="M 106.16236,218.63832 C 115.64201,220.40216 119.16947,205.25283 109.53935,203.46126 C 100.05969,201.69741 96.532231,216.84676 106.16236,218.63832 z" style="fill: rgb(0, 0, 0); stroke: none;"/>
    <path id="path3262" d="M 223.09291,47.409605 L 224.19284,48.509537 C 228.32967,47.307329 232.48836,45.603689 236.69038,44.738855 C 246.69647,42.678671 253.78871,49.10898 249.07211,59.395637 C 243.81686,70.854515 228.42807,81.671983 219.50973,90.590331 C 229.12326,86.419257 246.88507,68.945638 251.35377,59.313853 C 257.36549,46.352756 246.44369,39.801044 234.96104,42.917617 C 230.89065,44.022584 226.97146,45.715525 223.09291,47.409605 M 229.40912,100.48972 L 230.50904,101.58965 C 239.42739,92.671301 250.24486,77.282519 261.70373,72.027258 C 271.99051,67.310538 278.4207,74.402904 276.36052,84.408988 C 275.4958,88.610901 273.79204,92.769701 272.58983,96.906531 C 281.81704,87.861911 282.78348,64.661461 265.16052,68.570468 C 252.40157,71.401441 238.53288,91.365961 229.40912,100.48972 M 221.03683,93.465171 C 201.81564,82.970586 184.01027,113.92455 203.26134,124.43544 C 222.48298,134.92954 240.28789,103.97606 221.03683,93.465171 z" style="fill: rgb(0, 0, 0); stroke: none;"/>
    <path id="path3264" d="M 219.78936,94.743421 C 202.13729,85.823338 186.75553,114.1843 204.50973,123.15624 C 222.16144,132.07668 237.54333,103.7156 219.78936,94.743421 z" style="fill: rgb(192, 201, 184); stroke: none;"/>
    <path id="path3266" d="M 217.37831,97.218261 C 202.77844,91.216411 192.20514,114.63252 206.92031,120.68187 C 221.52018,126.68372 232.09348,103.26762 217.37831,97.218261 z" style="fill: rgb(0, 0, 0); stroke: none;"/>
    <path id="path3268" d="M 215.89113,98.738461 C 202.74314,95.033281 195.46302,115.51479 208.4075,119.16168 C 221.55548,122.86685 228.83537,102.38558 215.89113,98.738461 z" style="fill: rgb(192, 201, 184); stroke: none;"/>
    <path id="path3270" d="M 213.83781,101.36154 C 204.35815,99.597697 200.83069,114.74703 210.46082,116.5386 C 219.94047,118.30244 223.46794,103.1531 213.83781,101.36154 z" style="fill: rgb(0, 0, 0); stroke: none;"/>
  </g>
  <path sodipodi:type="arc" style="opacity: 1; fill: rgb(157, 132, 110); fill-opacity: 1; fill-rule: nonzero; stroke: none; stroke-width: 13.108; stroke-miterlimit: 4; stroke-dasharray: none; stroke-opacity: 1;" id="path3272" sodipodi:cx="51.469955" sodipodi:cy="84.331543" sodipodi:rx="27.714592" sodipodi:ry="28.902361" d="M 79.184547,84.331543 A 27.714592,28.902361 0 1 1 23.755363,84.331543 A 27.714592,28.902361 0 1 1 79.184547,84.331543 z" transform="matrix(0.451026, 0, 0, 0.432491, 79.2857, 161.027)"/>
  <path sodipodi:type="arc" style="opacity: 1; fill: rgb(157, 132, 110); fill-opacity: 1; fill-rule: nonzero; stroke: none; stroke-width: 13.108; stroke-miterlimit: 4; stroke-dasharray: none; stroke-opacity: 1;" id="path3319" sodipodi:cx="51.469955" sodipodi:cy="84.331543" sodipodi:rx="27.714592" sodipodi:ry="28.902361" d="M 79.184547,84.331543 A 27.714592,28.902361 0 1 1 23.755363,84.331543 A 27.714592,28.902361 0 1 1 79.184547,84.331543 z" transform="matrix(0.451026, 0, 0, 0.432491, 79.2857, 106.027)"/>
  <path sodipodi:type="arc" style="opacity: 1; fill: rgb(157, 132, 110); fill-opacity: 1; fill-rule: nonzero; stroke: none; stroke-width: 13.108; stroke-miterlimit: 4; stroke-dasharray: none; stroke-opacity: 1;" id="path3321" sodipodi:cx="51.469955" sodipodi:cy="84.331543" sodipodi:rx="27.714592" sodipodi:ry="28.902361" d="M 79.184547,84.331543 A 27.714592,28.902361 0 1 1 23.755363,84.331543 A 27.714592,28.902361 0 1 1 79.184547,84.331543 z" transform="matrix(0.451026, 0, 0, 0.432491, 384.286, 161.027)"/>
  <path sodipodi:type="arc" style="opacity: 1; fill: rgb(157, 132, 110); fill-opacity: 1; fill-rule: nonzero; stroke: none; stroke-width: 13.108; stroke-miterlimit: 4; stroke-dasharray: none; stroke-opacity: 1;" id="path3323" sodipodi:cx="51.469955" sodipodi:cy="84.331543" sodipodi:rx="27.714592" sodipodi:ry="28.902361" d="M 79.184547,84.331543 A 27.714592,28.902361 0 1 1 23.755363,84.331543 A 27.714592,28.902361 0 1 1 79.184547,84.331543 z" transform="matrix(0.451026, 0, 0, 0.432491, 384.286, 106.027)"/>
</svg>