<?xml version="1.0" encoding="UTF-8" standalone="no"?>
<!-- Created with Inkscape (http://www.inkscape.org/) -->

<svg
   xmlns:dc="http://purl.org/dc/elements/1.1/"
   xmlns:cc="http://creativecommons.org/ns#"
   xmlns:rdf="http://www.w3.org/1999/02/22-rdf-syntax-ns#"
   xmlns:svg="http://www.w3.org/2000/svg"
   xmlns="http://www.w3.org/2000/svg"
   xmlns:sodipodi="http://sodipodi.sourceforge.net/DTD/sodipodi-0.dtd"
   xmlns:inkscape="http://www.inkscape.org/namespaces/inkscape"
   id="svg3312"
   version="1.1"
   inkscape:version="0.47 r22583"
   width="1800"
   height="1200"
   sodipodi:docname="chananea.svg">
  <metadata
     id="metadata3318">
    <rdf:RDF>
      <cc:Work
         rdf:about="">
        <dc:format>image/svg+xml</dc:format>
        <dc:type
           rdf:resource="http://purl.org/dc/dcmitype/StillImage" />
        <dc:title></dc:title>
      </cc:Work>
    </rdf:RDF>
  </metadata>
  <defs
     id="defs3316">
    <inkscape:perspective
       sodipodi:type="inkscape:persp3d"
       inkscape:vp_x="0 : 0.5 : 1"
       inkscape:vp_y="0 : 1000 : 0"
       inkscape:vp_z="1 : 0.5 : 1"
       inkscape:persp3d-origin="0.5 : 0.33333333 : 1"
       id="perspective3320" />
    <inkscape:perspective
       id="perspective2972"
       inkscape:persp3d-origin="0.5 : 0.33333333 : 1"
       inkscape:vp_z="1 : 0.5 : 1"
       inkscape:vp_y="0 : 1000 : 0"
       inkscape:vp_x="0 : 0.5 : 1"
       sodipodi:type="inkscape:persp3d" />
  </defs>
  <sodipodi:namedview
     pagecolor="#ffffff"
     bordercolor="#666666"
     borderopacity="1"
     objecttolerance="10"
     gridtolerance="10"
     guidetolerance="10"
     inkscape:pageopacity="0"
     inkscape:pageshadow="2"
     inkscape:window-width="1221"
     inkscape:window-height="723"
     id="namedview3314"
     showgrid="false"
     inkscape:zoom="0.30314331"
     inkscape:cx="994.5"
     inkscape:cy="611.6146"
     inkscape:window-x="0"
     inkscape:window-y="0"
     inkscape:window-maximized="0"
     inkscape:current-layer="svg3312" />
  <rect
     style="fill:#333333;fill-opacity:1;stroke:none"
     id="rect4114"
     width="1800"
     height="1200"
     x="0"
     y="0" />
  <path
     sodipodi:type="star"
     style="fill:#ffffff;fill-opacity:1;stroke:none"
     id="path3324"
     sodipodi:sides="5"
     sodipodi:cx="1474.1921"
     sodipodi:cy="1067.1635"
     sodipodi:r1="85.920128"
     sodipodi:r2="31.771149"
     sodipodi:arg1="0.97074611"
     sodipodi:arg2="1.5990646"
     inkscape:flatsided="false"
     inkscape:rounded="0"
     inkscape:randomized="0"
     d="m 1522.7099,1138.074 -49.4158,-39.1521 -51.5491,36.2972 21.9656,-59.0958 -50.4503,-37.8097 62.9912,2.6289 20.3691,-59.66485 16.9652,60.72055 63.039,0.9347 -52.5061,34.8985 18.5912,60.2426 z"
     transform="matrix(1.4207714,0,0,1.4207714,-628.59299,-755.47877)" />
  <path
     sodipodi:type="star"
     style="fill:#ffffff;fill-opacity:1;stroke:none"
     id="path4100"
     sodipodi:sides="5"
     sodipodi:cx="1349.4602"
     sodipodi:cy="1433.6265"
     sodipodi:r1="45.309406"
     sodipodi:r2="18.287031"
     sodipodi:arg1="0.93804749"
     sodipodi:arg2="1.566366"
     inkscape:flatsided="false"
     inkscape:rounded="0"
     inkscape:randomized="0"
     d="m 1376.2545,1470.1642 -26.7133,-18.2509 -26.5505,18.4869 9.1027,-31.0457 -25.7866,-19.5384 32.3391,-0.9364 10.6136,-30.5622 10.8839,30.467 32.3462,0.6498 -25.6125,19.7661 9.3774,30.9638 z"
     transform="matrix(1.5741467,0,0,1.5741467,-779.7006,-1130.7315)" />
  <path
     sodipodi:type="star"
     style="fill:#ffffff;fill-opacity:1;stroke:none"
     id="path4102"
     sodipodi:sides="5"
     sodipodi:cx="991.39044"
     sodipodi:cy="732.10205"
     sodipodi:r1="29.733324"
     sodipodi:r2="12.000471"
     sodipodi:arg1="0.96007036"
     sodipodi:arg2="1.5883889"
     inkscape:flatsided="false"
     inkscape:rounded="0"
     inkscape:randomized="0"
     d="m 1008.4414,756.46054 -17.26207,-12.35988 -17.68616,11.74499 6.42068,-20.2366 -16.63547,-13.19114 21.23024,-0.14703 7.40488,-19.89755 6.70034,20.14572 21.21196,0.89378 -17.0892,12.59777 5.7048,20.44994 z"
     transform="matrix(1.7000365,0,0,1.7000365,-697.4214,-816.05613)" />
  <path
     sodipodi:type="star"
     style="fill:#ffffff;fill-opacity:1;stroke:none"
     id="path4104"
     sodipodi:sides="5"
     sodipodi:cx="813.57349"
     sodipodi:cy="639.53979"
     sodipodi:r1="44.914833"
     sodipodi:r2="18.127781"
     sodipodi:arg1="0.86217005"
     sodipodi:arg2="1.4904886"
     inkscape:flatsided="false"
     inkscape:rounded="0"
     inkscape:randomized="0"
     d="m 842.80367,673.64168 -27.77595,-16.03253 -24.85443,20.26827 6.6646,-31.37083 -26.95671,-17.37473 31.8949,-3.3557 8.19427,-31.00644 13.04754,29.29688 32.02104,-1.7883 -23.83108,21.46217 11.59582,29.90121 z"
     transform="matrix(1.4163358,0.15617847,-0.15617847,1.4163358,-244.31885,-698.79287)" />
  <path
     sodipodi:type="star"
     style="fill:#ffffff;fill-opacity:1;stroke:none"
     id="path4106"
     sodipodi:sides="5"
     sodipodi:cx="613.83386"
     sodipodi:cy="388.64734"
     sodipodi:r1="33.131126"
     sodipodi:r2="13.371836"
     sodipodi:arg1="0.94200004"
     sodipodi:arg2="1.5703186"
     inkscape:flatsided="false"
     inkscape:rounded="0"
     inkscape:randomized="0"
     d="m 633.32065,415.44168 -19.4804,-13.42251 -19.46757,13.44111 6.74579,-22.67474 -18.79907,-14.36123 23.64953,-0.59126 7.8491,-22.31683 7.87043,22.30932 23.65008,0.56867 -18.78533,14.37918 6.76744,22.66829 z"
     transform="matrix(1.6603696,0,0,1.6603696,-407.63739,-554.26594)" />
  <path
     sodipodi:type="star"
     style="fill:#ffffff;fill-opacity:1;stroke:none"
     id="path4108"
     sodipodi:sides="5"
     sodipodi:cx="699.08862"
     sodipodi:cy="736.97375"
     sodipodi:r1="24.358488"
     sodipodi:r2="9.8311691"
     sodipodi:arg1="0.92729522"
     sodipodi:arg2="1.5556137"
     inkscape:flatsided="false"
     inkscape:rounded="0"
     inkscape:randomized="0"
     d="m 713.70372,756.46055 -14.46584,-9.65676 -14.16598,10.09149 4.71393,-16.74192 -13.97511,-10.35421 17.3792,-0.69033 5.52889,-16.49075 6.02701,16.31529 17.39215,0.16237 -13.6543,10.77372 5.22005,16.5911 z"
     transform="matrix(1.7832639,0,0,1.7832639,-549.13074,-876.05612)" />
  <path
     sodipodi:type="star"
     style="fill:#ffffff;fill-opacity:1;stroke:none"
     id="path4110"
     sodipodi:sides="5"
     sodipodi:cx="623.57727"
     sodipodi:cy="783.25482"
     sodipodi:r1="43.369057"
     sodipodi:r2="17.503899"
     sodipodi:arg1="0.90482709"
     sodipodi:arg2="1.5331456"
     inkscape:flatsided="false"
     inkscape:rounded="0"
     inkscape:randomized="0"
     d="m 650.37161,817.35671 -26.13546,-16.61039 -24.81179,18.52949 7.72112,-29.98919 -25.28987,-17.87149 30.90737,-1.92394 9.1818,-29.57469 11.38069,28.80013 30.96453,-0.40668 -23.87373,19.72341 9.95534,29.32335 z"
     transform="matrix(1.6402706,0,0,1.6402706,-405.53276,-804.46686)" />
  <path
     sodipodi:type="star"
     style="fill:#ffffff;fill-opacity:1;stroke:none"
     id="path4112"
     sodipodi:sides="5"
     sodipodi:cx="492.04144"
     sodipodi:cy="1367.8586"
     sodipodi:r1="33.131126"
     sodipodi:r2="13.371836"
     sodipodi:arg1="0.94200004"
     sodipodi:arg2="1.5703186"
     inkscape:flatsided="false"
     inkscape:rounded="0"
     inkscape:randomized="0"
     d="m 511.52823,1394.653 -19.4804,-13.4225 -19.46757,13.4411 6.74579,-22.6748 -18.79907,-14.3612 23.64953,-0.5912 7.8491,-22.3169 7.87043,22.3093 23.65008,0.5687 -18.78533,14.3792 6.76744,22.6683 z"
     transform="matrix(1.6281463,0,0,1.6281463,-322.266,-1165.8626)" />
</svg>
