<?xml version="1.0" encoding="UTF-8" standalone="no"?>
<!-- Created with Inkscape (http://www.inkscape.org/) -->
<svg xmlns:svg="http://www.w3.org/2000/svg" xmlns="http://www.w3.org/2000/svg" version="1.0" width="450" height="300" id="svg7324">
  <defs id="defs7327"/>
  <rect width="450" height="299.99963" x="-1.7344013e-014" y="0.00036621094" style="fill: rgb(255, 255, 255); fill-opacity: 1; stroke: none; stroke-width: 0.2; stroke-miterlimit: 4; stroke-dasharray: none; stroke-opacity: 0.691358;" id="rect9131"/>
  <rect width="450" height="177.2475" x="-1.7344013e-014" y="0.00036621094" style="fill: rgb(0, 152, 50); fill-opacity: 1; stroke: none; stroke-width: 0.2; stroke-miterlimit: 4; stroke-dasharray: none; stroke-opacity: 0.691358;" id="rect9135"/>
  <rect width="450" height="95.779701" x="-1.7344013e-014" y="204.22021" style="fill: rgb(254, 0, 0); fill-opacity: 1; stroke: none; stroke-width: 0.2; stroke-miterlimit: 4; stroke-dasharray: none; stroke-opacity: 0.691358;" id="rect9133"/>
  <rect width="41.651367" height="299.99963" x="-1.7344013e-014" y="0.00036621094" style="fill: rgb(255, 255, 255); fill-opacity: 1; stroke: none; stroke-width: 0.2; stroke-miterlimit: 4; stroke-dasharray: none; stroke-opacity: 0.691358;" id="rect9137"/>
  <path d="M 21.679838,139.40969 C 18.046589,138.52421 16.119949,134.03946 18.664792,130.12818 C 21.592772,125.62802 28.249064,125.93206 31.663019,130.66023 C 35.076959,135.38843 33.392633,141.82834 29.01295,145.88614 C 23.849138,150.67044 14.868534,149.76046 10.704715,142.82326 C 5.4650009,134.09351 9.7235341,124.66502 15.553504,117.94174 L 26.259792,107.64382 C 32.089765,100.92054 36.348302,91.492047 31.108582,82.762297 C 26.944769,75.825097 17.964162,74.915107 12.800351,79.699407 C 8.4206659,83.757207 6.7363487,90.197117 10.150291,94.925317 C 13.564234,99.653497 20.220532,99.957537 23.148509,95.457377 C 25.69335,91.546087 23.766717,87.061347 20.133458,86.175857" style="fill: none; fill-opacity: 0.75; fill-rule: evenodd; stroke: rgb(255, 205, 0); stroke-width: 2.60369; stroke-linecap: round; stroke-linejoin: miter; stroke-miterlimit: 4; stroke-dasharray: none; stroke-opacity: 1;" id="path10015"/>
  <path d="M 20.133293,235.8991 C 23.766542,236.78466 25.693182,241.26937 23.148339,245.18062 C 20.220358,249.68082 13.564067,249.37682 10.150113,244.64867 C 6.7361726,239.92049 8.4204985,233.48049 12.800181,229.42272 C 17.963993,224.63841 26.944597,225.54839 31.108415,232.48564 C 36.34813,241.21535 32.089597,250.64372 26.259627,257.36712 L 15.553504,267.19362 C 9.7235341,273.91692 5.4650009,283.34542 10.704715,292.07512 C 14.868534,299.01232 23.849138,299.92232 29.01295,295.13802 C 33.392633,291.08022 35.076959,284.64022 31.663019,279.91202 C 28.249064,275.18382 21.592772,274.87982 18.664792,279.38012 C 16.119949,283.29132 18.046589,287.77602 21.679838,288.66162" style="fill: none; fill-opacity: 0.75; fill-rule: evenodd; stroke: rgb(255, 205, 0); stroke-width: 2.60369; stroke-linecap: round; stroke-linejoin: miter; stroke-miterlimit: 4; stroke-dasharray: none; stroke-opacity: 1;" id="path11777"/>
  <path d="M 21.679838,11.259837 C 18.046589,12.145317 16.119949,16.630067 18.664792,20.541347 C 21.592772,25.041507 28.249064,24.737467 31.663019,20.009297 C 35.076959,15.281097 33.392633,8.8411874 29.01295,4.7833874 C 23.849138,-0.00091261718 14.868534,0.90907738 10.704715,7.8462674 C 5.4650009,16.576027 9.7235341,26.004507 15.553504,32.727797 L 26.259627,43.225477 C 32.089597,49.948757 36.34813,59.377247 31.108415,68.106997 C 26.944597,75.044197 17.963993,75.954177 12.800181,71.169877 C 8.4204985,67.112077 6.7361726,60.672167 10.150113,55.943967 C 13.564067,51.215797 20.220358,50.911757 23.148339,55.411917 C 25.693182,59.323197 23.766542,63.807947 20.133293,64.693427" style="fill: none; fill-opacity: 0.75; fill-rule: evenodd; stroke: rgb(255, 205, 0); stroke-width: 2.60369; stroke-linecap: round; stroke-linejoin: miter; stroke-miterlimit: 4; stroke-dasharray: none; stroke-opacity: 1;" id="path11783"/>
  <path d="M 21.679838,161.045 C 18.046589,161.93048 16.119949,166.41522 18.664792,170.32651 C 21.592772,174.82667 28.249064,174.52263 31.663019,169.79446 C 35.076959,165.06625 33.392633,158.62635 29.01295,154.56855 C 23.849138,149.78425 14.868534,150.69423 10.704715,157.63143 C 5.4650009,166.36118 9.7235341,175.78967 15.553504,182.51295 L 26.259628,192.42586 C 32.089598,199.14914 36.348131,208.57763 31.108417,217.30738 C 26.944599,224.24458 17.963994,225.15456 12.800181,220.37026 C 8.4204985,216.31246 6.7361726,209.87255 10.150113,205.14435 C 13.564068,200.41618 20.22036,200.11214 23.14834,204.6123 C 25.693183,208.52358 23.766544,213.00833 20.133295,213.89381" style="fill: none; fill-opacity: 0.75; fill-rule: evenodd; stroke: rgb(255, 205, 0); stroke-width: 2.60369; stroke-linecap: round; stroke-linejoin: miter; stroke-miterlimit: 4; stroke-dasharray: none; stroke-opacity: 1;" id="path11785"/>
  <path d="M 9.7277608,75.418787 L 20.816989,74.458127 L 31.923301,75.399917 L 20.827334,76.386597 L 9.7277608,75.418787 z " style="fill: rgb(255, 205, 0); fill-opacity: 1; fill-rule: evenodd; stroke: rgb(255, 205, 0); stroke-width: 1.73579; stroke-linecap: square; stroke-linejoin: round; stroke-miterlimit: 4; stroke-dasharray: none; stroke-opacity: 1;" id="path11806"/>
  <path d="M 9.7283718,150.21694 L 20.817604,149.25628 L 31.923914,150.19807 L 20.827948,151.18475 L 9.7283718,150.21694 z " style="fill: rgb(255, 205, 0); fill-opacity: 1; fill-rule: evenodd; stroke: rgb(255, 205, 0); stroke-width: 1.73579; stroke-linecap: square; stroke-linejoin: round; stroke-miterlimit: 4; stroke-dasharray: none; stroke-opacity: 1;" id="path12681"/>
  <path d="M 9.7283718,224.87103 L 20.817604,223.91034 L 31.923914,224.85215 L 20.827948,225.83881 L 9.7283718,224.87103 z " style="fill: rgb(255, 205, 0); fill-opacity: 1; fill-rule: evenodd; stroke: rgb(255, 205, 0); stroke-width: 1.73579; stroke-linecap: square; stroke-linejoin: round; stroke-miterlimit: 4; stroke-dasharray: none; stroke-opacity: 1;" id="path12683"/>
</svg>