<?xml version="1.0" encoding="UTF-8" standalone="no"?>
<svg
   xmlns:dc="http://purl.org/dc/elements/1.1/"
   xmlns:cc="http://creativecommons.org/ns#"
   xmlns:rdf="http://www.w3.org/1999/02/22-rdf-syntax-ns#"
   xmlns:svg="http://www.w3.org/2000/svg"
   xmlns="http://www.w3.org/2000/svg"
   xmlns:sodipodi="http://sodipodi.sourceforge.net/DTD/sodipodi-0.dtd"
   xmlns:inkscape="http://www.inkscape.org/namespaces/inkscape"
   width="240"
   height="160"
   id="svg2"
   version="1.1"
   inkscape:version="0.48.2 r9819"
   sodipodi:docname="chrobatia.svg">
  <rect
     style="fill:#ff0000;fill-opacity:1;stroke:none"
     id="rect3166"
     width="240"
     height="160"
     x="0"
     y="0" />
  <rect
     style="fill:#00a4ff;fill-opacity:1;stroke:none"
     id="rect3166-4"
     width="240"
     height="80"
     x="0"
     y="0" />
  <g
     id="#ffffffff"
     transform="matrix(0.76190476,0,0,0.76190476,1.6775992,0.205715)">
    <path
       d="m 151.01,18.06 c 0.58,-2.58 3.91,-3.44 6.08,-2.32 1.69,0.67 1.82,2.7 2.39,4.18 -1.05,1.63 -2.12,3.9 -4.5,3.37 -2.89,0.55 -4.82,-2.72 -3.97,-5.23 z"
       id="path28"
       inkscape:connector-curvature="0"
       style="fill:#ffffff" />
    <path
       d="m 143.41,16.52 c 2.47,-2.37 7.11,0.08 6.78,3.37 -0.03,2.99 -3.91,5.39 -6.4,3.39 -2.7,-1.26 -2.46,-5.06 -0.38,-6.76 z"
       id="path30"
       inkscape:connector-curvature="0"
       style="fill:#ffffff" />
    <path
       d="m 161.79,23.32 c -3.62,-1.88 -1.82,-7.95 2.21,-7.7 3.11,-0.22 4.09,3.08 4.51,5.5 -1.63,1.84 -4.24,4.08 -6.72,2.2 z"
       id="path32"
       inkscape:connector-curvature="0"
       style="fill:#ffffff" />
    <path
       d="m 132.82,22.78 c -0.38,-2.93 1.76,-6.5 5.08,-5.83 3.62,0.67 4.62,6.32 1.15,7.89 -2.36,1.6 -4.64,-0.43 -6.23,-2.06 z"
       id="path34"
       inkscape:connector-curvature="0"
       style="fill:#ffffff" />
    <path
       d="m 171.43,17.16 c 2.19,-1.06 3.97,0.72 5.45,2.08 0.08,1.19 0.16,2.38 0.26,3.56 -1.48,1.08 -2.98,3.23 -5.07,2.45 -4.15,-0.34 -4.42,-6.9 -0.64,-8.09 z"
       id="path36"
       inkscape:connector-curvature="0"
       style="fill:#ffffff" />
    <path
       d="m 125.62,20.56 c 3.04,-3.71 9.47,1.66 6.3,5.23 -1.43,2.48 -4.5,1.97 -6.64,0.88 -1.29,-1.98 -1.68,-4.45 0.34,-6.11 z"
       id="path38"
       inkscape:connector-curvature="0"
       style="fill:#ffffff" />
    <path
       d="m 176.88,23.95 c 0.9,-2.13 2.21,-5.03 5.04,-4.59 3.51,0.42 5.04,4.66 2.78,7.34 -3.03,1.96 -6.53,0.5 -7.82,-2.75 z"
       id="path40"
       inkscape:connector-curvature="0"
       style="fill:#ffffff" />
    <path
       d="m 116.02,25.9 c -0.15,-2.33 2.47,-2.83 4.03,-3.73 1.94,0.93 4.55,2.14 4.01,4.81 0.29,3.06 -3.25,4.2 -5.72,4.11 -1.28,-1.46 -2.98,-3.01 -2.32,-5.19 z"
       id="path42"
       inkscape:connector-curvature="0"
       style="fill:#ffffff" />
    <path
       d="m 185.98,25.85 c -0.11,-2.21 2.31,-2.83 3.9,-3.55 0.77,0.28 2.31,0.83 3.08,1.1 0.78,1.74 1.76,3.93 0.46,5.67 -1.06,1.82 -3.28,1.84 -5.12,1.98 -1.44,-1.39 -2.96,-3.01 -2.32,-5.2 z"
       id="path44"
       inkscape:connector-curvature="0"
       style="fill:#ffffff" />
    <path
       d="m 108.18,29.16 c 0.86,-2.67 3.85,-2.16 6.05,-2.31 0.75,1.31 2.24,2.47 1.97,4.14 0.1,1.72 -1.57,2.74 -2.45,4 -3.33,0.72 -7.26,-2.38 -5.57,-5.83 z"
       id="path46"
       inkscape:connector-curvature="0"
       style="fill:#ffffff" />
    <path
       d="m 193.89,29.96 c 0.45,-4.77 8.98,-3.82 8.16,1.07 0.06,3.06 -3.19,4.25 -5.78,3.94 -1.34,-1.35 -3.06,-2.85 -2.38,-5.01 z"
       id="path48"
       inkscape:connector-curvature="0"
       style="fill:#ffffff" />
    <path
       d="m 201.93,37.86 c -2.15,-2.76 0.99,-6.95 4.26,-6.17 1.95,0.13 2.77,2.08 3.9,3.37 -0.49,1.27 -0.97,2.54 -1.42,3.82 -2.18,1.25 -5.44,1.67 -6.74,-1.02 z"
       id="path50"
       inkscape:connector-curvature="0"
       style="fill:#ffffff" />
    <path
       d="m 99.88,35.6 c 0.98,-1.93 2.4,-4.54 5,-3.92 2.53,0.02 3.54,2.38 4.24,4.41 -1.02,1.25 -1.55,3.21 -3.31,3.64 -1.57,0.58 -3.04,-0.32 -4.46,-0.86 -0.48,-1.1 -0.97,-2.19 -1.47,-3.27 z"
       id="path52"
       inkscape:connector-curvature="0"
       style="fill:#ffffff" />
    <path
       d="m 209.24,38.18 c 2.38,-1.57 6.26,-1.33 7.14,1.82 1.41,3.49 -2.94,7.08 -6.03,4.87 -2.53,-1.38 -2.14,-4.48 -1.11,-6.69 z"
       id="path54"
       inkscape:connector-curvature="0"
       style="fill:#ffffff" />
    <path
       d="m 94.42,38.51 c 3.61,-4.34 9.95,2.31 5.89,5.84 -3.6,3.86 -9.67,-2.22 -5.89,-5.84 z"
       id="path56"
       inkscape:connector-curvature="0"
       style="fill:#ffffff" />
    <path
       d="m 158.55,42.53 c 6.89,1.29 13.7,4.19 18.37,9.59 9.25,9.46 14.19,23.67 10.93,36.72 -1.18,4.91 -3.84,9.25 -6.03,13.74 5.05,-5.55 7.16,-13.17 7.96,-20.48 0.49,-8.83 -3.12,-17.15 -7.09,-24.82 4.32,4.02 7.17,9.33 9.4,14.73 2.22,5.08 1.8,10.74 2.03,16.15 0.55,-1.08 1.1,-2.16 1.65,-3.25 -0.34,5.71 -0.15,11.52 -1.68,17.09 -2.07,8.18 -7.07,15.16 -12.75,21.24 0.01,-2.94 -3.01,-5.39 -1.77,-8.28 -1.56,-1.33 -3.1,-2.68 -4.74,-3.9 2.64,-2.7 5.41,-5.36 7.32,-8.65 -2.67,2.34 -4.99,5.04 -7.41,7.62 -1.28,-1.11 -2.57,-2.2 -3.88,-3.27 1.69,-1.62 3.31,-3.33 4.61,-5.29 -1.97,1.4 -3.65,3.13 -5.38,4.79 -1.44,-0.97 -2.9,-1.91 -4.4,-2.78 0.13,-0.46 0.4,-1.37 0.54,-1.83 -0.59,0.44 -1.77,1.33 -2.36,1.77 -5.86,-2.44 -12.5,-1.73 -18.46,-0.04 l 0.98,-1.39 c 6.57,-6.43 13.57,-13.13 16.55,-22.08 2.37,-7.03 0.59,-14.75 -2.82,-21.11 -2.25,-4.01 -5.33,-8.04 -10.01,-9.24 0.22,-0.36 0.64,-1.07 0.86,-1.42 -0.81,0.08 -2.42,0.24 -3.23,0.32 -0.24,-0.52 -0.72,-1.56 -0.95,-2.08 1.87,0.26 3.77,0.4 5.67,0.35 -0.97,-0.28 -2.92,-0.83 -3.9,-1.11 2.77,-1.03 5.65,-2.45 8.69,-1.78 6.48,1.46 12.16,5.53 16.13,10.79 7.87,9.88 11.09,23.61 7.38,35.81 -1.1,4.04 -3.6,7.44 -5.58,11.07 3.67,-3.23 5.51,-7.93 6.82,-12.51 2.92,-10.67 0.22,-22.28 -5.61,-31.49 -4.24,-6.43 -10.25,-12.29 -18,-14.02 l 0.16,-0.96 m -4.72,3.82 c 7.87,0.83 13.56,7.18 17.15,13.73 5.64,10.91 6.07,24.85 -0.37,35.51 -1.13,2.02 -3.14,3.65 -3.53,6.03 4.67,-5.16 7.98,-11.73 8.83,-18.66 -0.25,-4.99 0.63,-10.13 -1,-14.97 -2.49,-9.41 -8.55,-18.37 -17.84,-22.09 -0.81,0.11 -2.43,0.34 -3.24,0.45 m -1.21,2.21 -0.04,1.2 c 1.46,0.18 2.86,0.69 4.08,1.52 11.44,7.11 14.58,23.04 10.17,35.14 l 1.02,0.03 c 1.23,-5.41 2.52,-11.01 1.25,-16.54 -1.48,-9.26 -7.3,-18.27 -16.48,-21.35 m 13.49,38.85 c -1.59,2.98 3.29,0.21 0,0 m 25.24,12.71 c 1.45,-3.61 3.05,-7.39 2.3,-11.36 -0.28,3.89 -2.03,7.5 -2.3,11.36 m -1.13,1.12 c 0.6,0.46 0.6,0.46 0,0 z"
       id="path58"
       inkscape:connector-curvature="0"
       style="fill:#ffffff" />
    <path
       d="m 88.37,44.51 c 1.33,-0.94 3.16,-1.44 4.62,-0.44 4.32,1.58 1.59,9.32 -2.85,7.78 -3.25,-0.6 -4.42,-5.43 -1.77,-7.34 z"
       id="path60"
       inkscape:connector-curvature="0"
       style="fill:#ffffff" />
    <path
       d="m 217.03,43.94 c 2.29,-1.35 4.44,0.58 6.04,2.05 -0.07,2.08 -0.15,4.71 -2.5,5.53 -2.11,1.5 -4.03,-0.49 -5.64,-1.69 0.14,-2.08 -0.5,-5.08 2.1,-5.89 z"
       id="path62"
       inkscape:connector-curvature="0"
       style="fill:#ffffff" />
    <path
       d="m 131.87,49.91 c 3.62,-2.55 7.99,-4.03 12.43,-4.03 -1.29,1.27 -2.2,2.83 -2.94,4.47 1.8,-0.25 3.61,-0.4 5.43,-0.47 0.37,0.5 1.11,1.5 1.48,2 0.36,-0.16 1.07,-0.48 1.42,-0.64 5.56,4.02 9.92,9.88 11.26,16.69 1.19,6.17 0.7,13.34 -3.83,18.11 -0.9,-5.93 -0.51,-11.94 -0.4,-17.91 -0.11,-0.34 -0.35,-1.03 -0.46,-1.38 0.08,5.37 0.5,10.75 -0.02,16.12 -2.31,-1.94 -3.94,-4.49 -5.75,-6.86 0.76,-5.54 -0.07,-11.16 -2.31,-16.28 0.47,2.53 1.12,5.02 1.86,7.49 0.36,2.79 0.35,5.6 0.19,8.41 -1.75,-1.3 -3.5,-2.59 -5.27,-3.85 -0.24,-4.03 0.43,-8.45 -1.94,-11.99 0.31,1.14 0.7,2.25 1.17,3.34 0.08,2.7 0.04,5.39 -0.09,8.09 -1.41,-0.79 -2.86,-1.51 -4.14,-2.5 -0.38,-1.98 -0.09,-4.04 -0.35,-6.04 -0.57,1.92 -0.58,3.93 -0.43,5.92 -1.73,-0.62 -3.46,-1.22 -5.21,-1.81 0.81,-3.26 0.83,-6.86 -0.99,-9.81 -1.28,-2.36 -4.23,-2.71 -6.5,-3.54 2.41,-1.13 5.26,-1.15 7.66,0.02 1.52,1.14 2.38,2.89 3.34,4.47 l 0.53,-0.34 c -0.96,-1.3 -1.87,-2.64 -2.93,-3.85 -1.63,-1.96 -4.76,-0.64 -6.44,-2.5 2.54,-0.5 5.14,-0.5 7.72,-0.59 -1.47,-0.39 -2.97,-0.64 -4.49,-0.74 m 15.42,8.33 c 0.5,0.58 0.5,0.58 0,0 m -9.12,1.02 c -1.83,2.77 3.32,0.47 0,0 z"
       id="path64"
       inkscape:connector-curvature="0"
       style="fill:#ffffff" />
    <path
       d="m 185.01,46.04 c 12.7,1.82 23.27,10.94 28.81,22.23 5.34,10.3 7.03,22.3 5.32,33.73 -1.46,14.36 -8.98,28.08 -20.67,36.64 2.1,0.67 4.6,1.78 4.5,4.41 0.45,2.77 -1.92,4.46 -3.84,5.9 -0.16,3.77 -0.23,8.19 -3.49,10.76 -3.62,2.43 -8.2,2.33 -12.31,3.35 -2.55,2.67 -5.6,5.04 -9.45,5.21 1.75,-3.16 2.07,-6.73 2.03,-10.28 4.08,-2.66 8.73,0.33 13.15,-0.15 2.86,0.21 5.34,-1.36 7.16,-3.43 -2.29,1.41 -4.85,2.21 -7.56,1.83 0.09,-1.36 0.18,-2.73 0.25,-4.09 0.53,-0.33 1.57,-0.99 2.09,-1.32 0.54,0.29 1.63,0.85 2.17,1.14 0.14,-1.18 0.93,-2.4 0.43,-3.58 -2.83,-2.92 -7.97,-2.95 -10.73,0.13 -2.72,1.26 -5.66,1.83 -8.58,2.39 0.04,-0.47 0.13,-1.4 0.17,-1.87 -3.62,0.03 -7.25,-0.08 -10.81,-0.75 0.31,-2.45 0.68,-5.46 -1.7,-7.02 -4.07,-3.8 -9.83,-1.14 -14.3,0.37 -9.74,3.75 -22.89,1.09 -27.97,-8.73 -1.75,0.03 -3.49,0.04 -5.23,0.05 -0.78,1.71 -1.43,3.55 -2.72,4.97 -1.98,0.58 -4.08,0.21 -6.11,0.2 0.9,-1.6 1.8,-3.21 2.69,-4.82 1.98,-0.78 3.9,-1.77 5.33,-3.39 -2.02,0.94 -4.02,1.89 -6.11,2.65 -0.53,1.21 -1.07,2.41 -1.63,3.61 -1.52,-0.06 -3.04,-0.12 -4.55,-0.18 0.22,0.57 0.68,1.7 0.91,2.26 -3.52,-1.41 -8.35,-3.63 -7.53,-8.28 -0.46,-2.45 1.28,-4.3 3.58,-4.77 4.48,-0.81 9.06,-0.23 13.57,0.01 0.59,-0.7 1.18,-1.4 1.77,-2.09 0.38,1.84 -0.18,4.37 1.77,5.46 1.39,1.18 3.27,0.92 4.94,0.87 2.66,2.6 5.73,4.75 9.28,5.95 3.12,2.25 5.47,5.75 9.45,6.66 -5.12,-3.21 -9.74,-7.65 -11.69,-13.51 -3.17,-8.64 -0.23,-17.8 0.6,-26.57 0.75,-5.42 -3.46,-9.84 -8.41,-11.17 -4.74,4.3 -10.28,8.64 -17.03,8.57 1.78,-2.16 3.65,-4.22 5.52,-6.29 -1.43,1.07 -2.85,2.13 -4.29,3.18 1.07,-3.74 4.25,-6.04 6.93,-8.58 -0.1,-0.42 -0.29,-1.26 -0.39,-1.69 -3.1,2.12 -5.2,6.53 -9.46,6.16 1.01,-1.15 2.04,-2.27 3.07,-3.4 -1.48,1 -2.95,2.01 -4.42,3.03 -3.78,-1.13 -7.53,-2.87 -9.62,-6.4 3.47,-2.38 6.55,-5.25 9.49,-8.24 0.25,0.38 0.74,1.13 0.99,1.51 0.85,1.21 1.8,2.74 3.52,2.64 1.24,-0.52 2.62,-1.52 2.14,-3.07 -1.27,-1 -4.81,-0.4 -4.55,-2.41 3.26,-1.03 5.83,1.85 8.9,2.4 -2.22,-1.41 -4.49,-2.96 -7.11,-3.51 -1.52,0.22 -2.92,0.92 -4.36,1.44 0.04,-0.75 0.1,-2.25 0.14,-3 3.07,-1.53 6.3,-2.73 9.34,-4.31 -2.22,0.44 -4.4,1.08 -6.59,1.68 0.34,-2.45 1.03,-4.83 2.26,-6.98 2.16,1.26 4.46,2.53 5.71,4.81 1.49,0.86 2.09,2.46 2.75,3.95 3.43,1.8 5.27,5.23 7.54,8.18 -1.08,-2.19 -2.43,-4.23 -3.84,-6.21 3.03,-1.64 6.17,-3.63 9.79,-3.15 11.8,0.17 23.16,7.82 27.39,18.9 l 0.91,-0.48 c -5.47,-12.74 -19.68,-21.27 -33.51,-18.91 0.06,-0.87 0.19,-2.6 0.26,-3.47 5.82,0.04 11.74,0.51 17.21,2.66 8.27,3.21 14.43,10.04 18.62,17.68 -4.11,5.18 -8.8,9.81 -13.4,14.53 -6.02,6.48 -11.35,14.73 -10.75,23.95 -0.29,5.56 2.27,11.01 6.53,14.55 -2.36,-3.87 -5.28,-7.8 -5.27,-12.54 -0.57,-7.33 3.11,-14.09 7.16,-19.92 0.53,-0.07 1.6,-0.23 2.14,-0.3 3.13,-2.81 7.93,-4.05 12.08,-3.37 2.46,-0.7 4.9,-0.24 7.05,1.08 2.42,0.16 5.09,0.55 6.04,3.16 2.34,0.51 4.16,1.99 5.1,4.2 0.77,0.46 1.54,0.92 2.32,1.38 0.14,2.94 2.12,5.16 3.04,7.82 0.05,5.37 -6.49,7.41 -7.46,12.4 -0.29,1.43 0.88,2.62 1.81,3.53 1.76,0.61 2.81,-0.97 3.92,-2 -1.16,0.33 -2.32,0.68 -3.48,1.04 -0.78,-1.84 -0.62,-3.9 1.11,-5.13 5.63,-4.96 11.04,-10.21 15.45,-16.31 0.99,1.35 2.24,2.67 2.2,4.47 -1.15,2.4 -4.51,1.67 -5.95,3.83 2.46,-0.2 5.24,-0.46 7.02,-2.4 1.46,-2.82 -1.33,-5 -3.29,-6.51 6.55,-2.63 13.38,-5.88 17.21,-12.13 l -0.24,-0.59 c 4.54,-6.01 3.07,-15.95 -3.43,-19.99 -2.09,-1.39 -4.68,-1.46 -7.08,-1.78 -0.23,-1.22 -0.45,-2.44 -0.66,-3.65 5.51,-1.51 9.44,-7 9.4,-12.66 -0.05,-5.59 -4.46,-10.51 -9.8,-11.75 -4.08,-1 -8.22,0.43 -11.66,2.58 -1.2,-1.23 -2.39,-2.48 -3.55,-3.73 1.5,-1.76 3.01,-3.51 4.55,-5.23 m -64.92,35.4 c -1.58,2.95 3.31,0.2 0,0 m 3.19,0.91 c -0.51,1.94 -0.29,4.28 -0.01,6.25 1.62,-0.93 1.65,-5.35 0.01,-6.25 m 69.67,32.48 c 4.4,2.39 6.31,9.8 1.78,12.94 -3.15,1.84 -7.29,2.51 -8.85,6.25 0.75,1.83 1.53,3.66 2.68,5.29 0.12,-1.67 -0.06,-3.42 0.57,-5.01 1.97,-2.03 5.03,-2.31 7.19,-4.08 1.3,-1.04 2.41,-2.3 3.54,-3.52 0.79,-2.19 1.69,-4.61 0.35,-6.8 -0.95,-3.19 -4.45,-4.19 -7.26,-5.07 m 1.81,6.99 c -2.11,2.45 -5.55,2.27 -8.07,3.88 2.02,0.41 4.09,0.39 6.14,0.3 1.18,-1.25 2.3,-2.54 3.38,-3.86 -0.12,-0.96 -0.35,-2.88 -0.47,-3.84 -0.43,1.14 -0.76,2.31 -0.98,3.52 m -86.63,6.34 c -3.75,0.37 -7.74,-1.45 -11.19,0.74 0.14,2.38 -0.19,5.73 2.8,6.46 -1.43,-1.83 -2.21,-3.98 -1.91,-6.32 5.06,-1.53 12.2,2.41 15.57,-3.2 -1.7,0.86 -3.24,2.35 -5.27,2.32 m 74.74,1.82 c -2.32,3.5 1.37,6.83 3.68,9.1 -0.48,-1.83 -0.93,-3.65 -1.32,-5.49 1.25,-4.53 6.54,-4.74 9.65,-7.37 -3.85,1.97 -9.57,-0.83 -12.01,3.76 m 9.07,13.49 c 2.6,0.15 7.71,1.95 7.2,-2.41 -0.49,0.52 -1.49,1.57 -1.99,2.1 -0.39,-0.55 -1.18,-1.65 -1.58,-2.2 -1.47,0.39 -2.81,1.21 -3.63,2.51 z"
       id="path66"
       inkscape:connector-curvature="0"
       style="fill:#ffffff" />
    <path
       d="m 221.07,57.07 c -2.44,-2.78 0.75,-7.16 4.12,-6.37 1.95,0.12 2.77,2.05 3.87,3.36 -0.5,1.34 -0.98,2.68 -1.44,4.03 -2.14,0.93 -5.21,1.41 -6.55,-1.02 z"
       id="path68"
       inkscape:connector-curvature="0"
       style="fill:#ffffff" />
    <path
       d="m 80.74,54.81 c 1.04,-2.39 3.21,-5.29 6.18,-3.87 4.2,1.04 3.27,7.78 -0.93,7.94 -2.81,0.64 -4.18,-2.03 -5.25,-4.07 z"
       id="path70"
       inkscape:connector-curvature="0"
       style="fill:#ffffff" />
    <path
       d="m 184.65,55.21 c 6.15,-3.19 15.22,-2.25 18.58,4.46 2.23,4.85 -0.73,10.24 -4.17,13.71 1.72,-3.85 0.48,-7.99 -1.65,-11.38 -1.43,0.27 -3.17,1.48 -4.3,-0.08 -2.25,-1.67 1.39,-5.95 2.82,-2.73 -0.11,0.77 -0.34,2.29 -0.46,3.06 1.22,-1.05 2.71,-3.39 0.87,-4.63 -1.4,-1.47 -3.41,-0.95 -5.1,-0.43 -1.81,-1.01 -3.96,-1.28 -5.14,0.82 -0.36,-0.7 -1.08,-2.1 -1.45,-2.8 z"
       id="path72"
       inkscape:connector-curvature="0"
       style="fill:#ffffff" />
    <path
       d="m 186.89,58.05 c 0.78,-2.15 2.75,-0.7 4.08,-0.07 -2.63,4.37 2.57,8.11 3.25,12.38 -3.42,-3.36 -4.47,-8.45 -7.33,-12.31 z"
       id="path74"
       inkscape:connector-curvature="0"
       style="fill:#ffffff" />
    <path
       d="m 77.21,59.2 c 2.14,-1.36 4.53,-1.18 6.66,0.13 2.38,3.5 -0.73,8.29 -4.96,6.95 0.59,1.61 2.77,3.24 1.64,5.09 -0.72,2.75 -3.96,3.68 -6.35,2.51 -1.67,-1.42 -3.14,-4 -1.28,-5.88 1.1,-2.27 3.88,-1.86 5.9,-1.5 -2.4,-1.8 -2.87,-4.68 -1.61,-7.3 z"
       id="path76"
       inkscape:connector-curvature="0"
       style="fill:#ffffff" />
    <path
       d="m 227.03,59.02 c 1.71,-1.57 3.83,-0.65 5.63,0.18 0.28,0.74 0.83,2.22 1.1,2.96 -0.72,1.76 -1.39,4.4 -3.83,4.15 -4.03,1.11 -6.73,-5.42 -2.9,-7.29 z"
       id="path78"
       inkscape:connector-curvature="0"
       style="fill:#ffffff" />
    <path
       d="m 112.53,70.95 c -1.04,-3.48 1.1,-6.79 3.53,-9.1 3.85,2.49 6.13,8.79 1.4,11.58 -1.67,-0.58 -4.54,-0.12 -4.93,-2.48 z"
       id="path80"
       inkscape:connector-curvature="0"
       style="fill:#ffffff" />
    <path
       d="m 232,74.1 c -4.23,-1.06 -3.26,-7.72 0.96,-7.99 3.05,-0.56 4.31,2.36 5.1,4.69 -1.2,2.19 -3.31,4.49 -6.06,3.3 z"
       id="path82"
       inkscape:connector-curvature="0"
       style="fill:#ffffff" />
    <path
       d="m 71.2,75.14 c 2.56,-1.89 6.87,0.66 5.93,3.92 0.38,2.6 -2.97,4.74 -5.25,3.55 -3.29,-0.84 -3.82,-6.1 -0.68,-7.47 z"
       id="path84"
       inkscape:connector-curvature="0"
       style="fill:#ffffff" />
    <path
       d="m 232.28,78.32 c 0.84,-2.59 3.88,-5.03 6.51,-3.19 3.08,1.56 2.45,5.97 -0.26,7.59 1.83,0.91 4.91,1.66 4.6,4.3 0.93,3.9 -5.13,6.3 -7.32,3.08 -1.91,-2.38 -0.63,-5.86 2.13,-6.87 -3.04,0.08 -5.12,-2.06 -5.66,-4.91 z"
       id="path86"
       inkscape:connector-curvature="0"
       style="fill:#ffffff" />
    <path
       d="m 197.59,93.42 c 0.6,-4.08 -0.11,-8.16 -0.35,-12.24 3.05,0.85 6.58,1.43 8.6,4.16 3.77,4.41 2.89,10.9 0.98,15.93 -2.67,5.65 -8.6,8.23 -14.09,10.34 0.81,-1.93 1.63,-3.86 2.47,-5.77 3.09,-0.37 6.5,-1.02 8.29,-3.88 2.13,-3.76 0.77,-8.59 3.6,-12.09 -2.05,-1.01 -4.52,-1.19 -5.62,1.26 -0.96,3.54 0.59,7.3 -0.33,10.89 l -0.95,0.02 c 0.43,-3.3 -0.2,-6.59 -0.1,-9.88 0.52,-1.73 2.15,-2.82 3.08,-4.32 0.08,-1.31 0.08,-2.62 0.01,-3.93 -1.53,0.63 -3.05,1.27 -4.57,1.92 0.22,2.59 0.87,5.45 -1.02,7.59 z"
       id="path88"
       inkscape:connector-curvature="0"
       style="fill:#ffffff" />
    <path
       d="m 66.86,86.97 c -0.24,-2.67 2.88,-3.39 4.74,-4.36 2.26,1.47 4.71,4.12 2.87,6.93 -1.73,3.92 -8.63,1.64 -7.61,-2.57 z"
       id="path90"
       inkscape:connector-curvature="0"
       style="fill:#ffffff" />
    <path
       d="m 66.04,93.2 c 1.52,-0.59 3.06,-1.12 4.62,-1.61 1.63,1.5 3.78,3.5 2.78,5.96 -0.84,3.23 -5.61,3.85 -7.38,1.1 -1.16,-1.68 -0.39,-3.66 -0.02,-5.45 z"
       id="path92"
       inkscape:connector-curvature="0"
       style="fill:#ffffff" />
    <path
       d="m 239.37,91.99 c 3.13,-0.8 6.3,2.83 4.93,5.8 -0.97,3.28 -6.44,3.55 -7.56,0.25 -1.25,-2.32 0.33,-5.15 2.63,-6.05 z"
       id="path94"
       inkscape:connector-curvature="0"
       style="fill:#ffffff" />
    <path
       d="m 92.13,101.99 c 3.85,-2.43 8.04,-4.47 11.1,-7.94 -1.22,3.11 -3.24,5.77 -5.78,7.92 -0.8,0.79 -1.52,1.7 -1.6,2.87 2.41,1 5.51,1.36 5.63,4.6 1.1,1.97 1.56,4.17 0.51,6.27 -2.25,1.04 -4.46,2.28 -5.94,4.33 -0.69,-0.97 -1.37,-1.95 -2.04,-2.93 2.61,-3.24 -0.71,-6.27 -1.94,-9.29 -0.97,-1.85 -0.16,-3.91 0.06,-5.83 z"
       id="path96"
       inkscape:connector-curvature="0"
       style="fill:#ffffff" />
    <path
       d="m 65.95,101.9 c 1.07,-0.33 2.13,-0.67 3.19,-1.03 0.88,0.35 1.77,0.7 2.66,1.05 1.79,1.88 1.85,5.01 -0.11,6.8 -1.81,0.75 -4.32,1.19 -5.66,-0.64 -1.93,-1.65 -0.67,-4.21 -0.08,-6.18 z"
       id="path98"
       inkscape:connector-curvature="0"
       style="fill:#ffffff" />
    <path
       d="m 238.22,101.91 c 0.87,-0.34 1.74,-0.69 2.61,-1.04 1.07,0.36 2.14,0.7 3.22,1.03 0.56,1.94 1.85,4.48 -0.04,6.12 -1.69,2.22 -5.99,1.69 -6.86,-1.03 -0.82,-1.76 -0.13,-3.69 1.07,-5.08 z"
       id="path100"
       inkscape:connector-curvature="0"
       style="fill:#ffffff" />
    <path
       d="m 67.05,111.05 c 1.65,-2.04 3.89,-0.6 5.82,0.12 1.41,2.6 0.75,7.07 -2.88,7.1 -3.98,1.08 -6.51,-5.18 -2.94,-7.22 z"
       id="path102"
       inkscape:connector-curvature="0"
       style="fill:#ffffff" />
    <path
       d="m 237.11,111.14 c 1.25,-0.46 2.49,-0.98 3.79,-1.29 1.17,0.61 2.25,1.37 3.36,2.1 0.25,2.04 0.57,4.85 -1.66,5.94 -1.82,0.69 -4.37,0.67 -5.49,-1.17 -1.51,-1.59 -0.47,-3.81 0,-5.58 z"
       id="path104"
       inkscape:connector-curvature="0"
       style="fill:#ffffff" />
    <path
       d="m 66.89,124.06 c -1.29,-3.87 4.28,-6.89 6.91,-3.92 2.33,1.98 1.05,5.31 -0.93,7 -2.34,0.24 -5.81,-0.06 -5.98,-3.08 z"
       id="path106"
       inkscape:connector-curvature="0"
       style="fill:#ffffff" />
    <path
       d="m 236.69,119.7 c 2.19,-1.8 4.83,-0.12 6.45,1.55 -0.17,1.63 0.24,3.56 -1.1,4.81 -1.14,1.65 -3.38,0.82 -5.05,1.09 -2.13,-1.9 -3.07,-5.67 -0.3,-7.45 z"
       id="path108"
       inkscape:connector-curvature="0"
       style="fill:#ffffff" />
    <path
       d="m 116.27,122.11 c 1.58,-0.2 3.18,-0.08 4.77,-0.03 1.17,1.09 2.52,1.93 4.1,2.28 1.07,3.45 2.45,6.78 4,10.03 -3.2,-0.98 -5.7,-3.25 -8.04,-5.52 0.8,-1.21 1.52,-2.47 1.82,-3.9 -0.83,1.33 -1.34,3.07 -2.97,3.68 -1.62,0.46 -3.2,-0.39 -4.75,-0.71 -0.63,-1.99 -0.96,-4.5 1.07,-5.83 z"
       id="path110"
       inkscape:connector-curvature="0"
       style="fill:#ffffff" />
    <path
       d="m 69.15,132.03 c -0.43,-2.96 3.21,-5.53 5.81,-3.95 2.77,0.68 2.07,3.84 2.11,5.96 -0.77,0.66 -1.54,1.33 -2.3,2.01 -2.6,0.46 -5.75,-1.06 -5.62,-4.02 z"
       id="path112"
       inkscape:connector-curvature="0"
       style="fill:#ffffff" />
    <path
       d="m 232.95,134.04 c -0.03,-2.16 -0.67,-5.28 2.11,-5.99 3.56,-2.03 7.49,2.87 5.19,6.05 -0.95,1.96 -3.17,1.91 -5.03,2.01 -0.75,-0.7 -1.51,-1.39 -2.27,-2.07 z"
       id="path114"
       inkscape:connector-curvature="0"
       style="fill:#ffffff" />
    <path
       d="m 74.87,136.32 c 2.94,-1.44 5.18,1.49 6.26,3.84 -0.87,3.47 -4.48,5.33 -7.69,3.42 -1.92,-2.42 -1.66,-5.96 1.43,-7.26 z"
       id="path116"
       inkscape:connector-curvature="0"
       style="fill:#ffffff" />
    <path
       d="m 228.81,139.97 c 1.04,-3.33 4.82,-5.31 7.73,-2.81 0.52,1 1.06,2 1.61,3 -0.91,1.79 -1.81,4.14 -4.22,4.12 -2.83,0.68 -4.25,-2.17 -5.12,-4.31 z"
       id="path118"
       inkscape:connector-curvature="0"
       style="fill:#ffffff" />
    <path
       d="m 152.82,140.54 c 1.92,-0.37 3.87,-0.62 5.83,-0.81 1.46,1.2 2.96,2.36 4.45,3.53 -0.02,1.47 -0.03,2.95 0.01,4.43 -2.4,1.79 -5.01,3.3 -7.93,4.02 0.49,-1.58 1.16,-3.1 1.49,-4.72 -0.03,-2.69 -2.26,-4.56 -3.85,-6.45 z"
       id="path120"
       inkscape:connector-curvature="0"
       style="fill:#ffffff" />
    <path
       d="m 140.29,144.07 c 3.93,0.5 7.26,-1.65 10.84,-2.79 3.05,0.01 4.36,3.29 5.32,5.68 -0.76,1.66 -1.14,3.67 -2.62,4.88 -2.35,0.62 -4.8,0.75 -7.2,1.1 0.32,-1.03 0.95,-3.1 1.27,-4.14 -0.71,1.17 -1.18,2.45 -1.68,3.71 -1.95,-0.07 -3.88,-0.32 -5.8,-0.62 0.26,-2.61 0.46,-5.25 -0.13,-7.82 z"
       id="path122"
       inkscape:connector-curvature="0"
       style="fill:#ffffff" />
    <path
       d="m 77.33,145.38 c 1.64,-1.2 4.04,-2.22 5.72,-0.47 2.7,1.75 1.97,6.21 -1.03,7.21 -3,1.45 -5.98,-1.56 -5.7,-4.56 0.25,-0.54 0.76,-1.63 1.01,-2.18 z"
       id="path124"
       inkscape:connector-curvature="0"
       style="fill:#ffffff" />
    <path
       d="m 131.4,145.2 c 2.45,-2.16 5.97,-1.26 8.73,-0.28 -0.01,1.88 0.05,3.76 0.14,5.63 -1.87,1.51 -4.01,2.71 -6.45,2.9 -1.47,-0.57 -2.72,-1.55 -4.07,-2.32 1.03,1.02 2.15,1.96 3.26,2.91 -1.95,3.5 -3.89,7.27 -7.4,9.45 -1.26,0.98 -2.82,0.33 -4.21,0.14 2.01,-0.73 2.55,-2.65 2.82,-4.54 1.71,-1.61 3.55,-3.17 4.67,-5.28 -1.92,1.37 -3.58,3.06 -5.18,4.79 -0.82,1.47 -0.83,3.59 -2.52,4.42 -2.77,0.59 -5.11,-1.53 -6.2,-3.85 -0.11,-1.71 0,-3.42 0.05,-5.12 3.72,-2.63 9.42,0.85 12.4,-3.05 -3.39,1.86 -7.32,0.61 -10.89,1.47 -2.92,0.78 -2.65,4.11 -2.78,6.46 -1.41,-2.65 -3.31,-5.72 -1.7,-8.73 5.34,-2.58 11.56,0.22 16.87,-2.36 l 0.33,2.13 c 0.75,-1.57 0.52,-3.71 2.13,-4.77 z"
       id="path126"
       inkscape:connector-curvature="0"
       style="fill:#ffffff" />
    <path
       d="m 225.41,149.72 c -1.68,-4.28 4.15,-7.66 7.23,-4.39 0.29,0.67 0.86,2.01 1.14,2.68 -0.1,4.62 -6.6,6.13 -8.37,1.71 z"
       id="path128"
       inkscape:connector-curvature="0"
       style="fill:#ffffff" />
    <path
       d="m 159.19,151.22 c 2.06,-0.65 3.52,-3.18 5.88,-2.49 2.39,0.52 4.75,1.22 7.19,1.48 -0.02,2.92 -3.1,3.71 -5.3,4.61 -10,3.38 -21.03,3.78 -31.22,1 1.27,-1.23 2.55,-2.46 3.84,-3.68 6.32,2.76 13.39,1.34 19.61,-0.92 z"
       id="path130"
       inkscape:connector-curvature="0"
       style="fill:#ffffff" />
    <path
       d="m 181.04,151.28 c 0.55,-0.33 1.63,-0.99 2.18,-1.32 1.73,0.6 3.45,1.22 5.17,1.87 -0.07,1.49 -0.09,2.97 -0.06,4.46 -2.54,0.04 -5.12,-0.14 -7.42,-1.32 0.04,-1.23 0.08,-2.46 0.13,-3.69 z"
       id="path132"
       inkscape:connector-curvature="0"
       style="fill:#ffffff" />
    <path
       d="m 80.86,155.63 c 0.99,-1.64 1.81,-4.09 4.15,-4 1.51,-0.32 2.7,0.75 3.9,1.46 0.26,0.76 0.78,2.26 1.04,3.01 -0.9,1.37 -1.63,3 -3.15,3.81 -1.66,0.59 -3.14,-0.44 -4.56,-1.13 -0.45,-1.05 -0.91,-2.1 -1.38,-3.15 z"
       id="path134"
       inkscape:connector-curvature="0"
       style="fill:#ffffff" />
    <path
       d="m 220.46,156.95 c -1.6,-4.11 4.81,-7.41 7.32,-3.77 1.75,1.63 0.71,3.81 0.01,5.65 -2.45,2.02 -6.35,1.35 -7.33,-1.88 z"
       id="path136"
       inkscape:connector-curvature="0"
       style="fill:#ffffff" />
    <path
       d="m 86.94,161.01 c 1.72,-2.51 5.73,-3.19 7.77,-0.7 1.29,2.82 -0.23,6.97 -3.75,6.59 -3.17,0.02 -4.39,-3.19 -4.02,-5.89 z"
       id="path138"
       inkscape:connector-curvature="0"
       style="fill:#ffffff" />
    <path
       d="m 216.37,159.28 c 2.73,-1.52 7.29,0.18 6.58,3.8 0.28,2.53 -2.6,4.19 -4.86,3.69 -3.55,-0.26 -4.32,-5.61 -1.72,-7.49 z"
       id="path140"
       inkscape:connector-curvature="0"
       style="fill:#ffffff" />
    <path
       d="m 94.14,171.71 c -2.46,-2.71 0.38,-7.56 3.97,-6.63 2.29,-0.28 2.83,2.34 3.79,3.83 -0.28,0.7 -0.83,2.12 -1.11,2.82 -0.42,0.35 -1.25,1.04 -1.66,1.38 -1.71,-0.26 -3.91,0.35 -4.99,-1.4 z"
       id="path142"
       inkscape:connector-curvature="0"
       style="fill:#ffffff" />
    <path
       d="m 209.13,166.09 c 1.79,-1.02 4.27,-1.67 6.03,-0.26 2.66,2 1.53,7.59 -2.2,7.21 -2.68,0.69 -4.44,-1.61 -4.77,-4 0.23,-0.74 0.71,-2.22 0.94,-2.95 z"
       id="path144"
       inkscape:connector-curvature="0"
       style="fill:#ffffff" />
    <path
       d="m 100.49,176.1 c -1.36,-2.73 1.69,-5.94 4.54,-5.46 2.39,0.04 3.24,2.67 4.09,4.47 -0.96,1.34 -1.63,3.08 -3.29,3.73 -2.15,0.95 -4.72,-0.58 -5.34,-2.74 z"
       id="path146"
       inkscape:connector-curvature="0"
       style="fill:#ffffff" />
    <path
       d="m 201.61,173.16 c 1.6,-3.87 7.02,-2.88 8.3,0.7 -0.36,1.28 -0.72,2.57 -1.07,3.86 -3.16,3.25 -9.3,-0.19 -7.23,-4.56 z"
       id="path148"
       inkscape:connector-curvature="0"
       style="fill:#ffffff" />
    <path
       d="m 110.03,175.98 c 2.15,-1.56 4.55,0.28 5.9,1.99 -0.1,1.25 0.21,2.49 0.75,3.62 1.33,-3.02 5.93,-2.34 7.15,0.33 0.13,1.24 0.21,2.48 0.26,3.73 -1.51,1.4 -3.5,3.39 -5.69,2.05 -2.43,-1.05 -2.89,-3.8 -2.2,-6.14 -1.77,1.04 -3.7,3.55 -5.86,1.93 -3.19,-1.16 -3.32,-6.03 -0.31,-7.51 z"
       id="path150"
       inkscape:connector-curvature="0"
       style="fill:#ffffff" />
    <path
       d="m 195.3,176.42 c 2.38,-2.25 6.28,-0.44 6.84,2.54 0.67,3.22 -3.56,6.53 -6.29,4.31 -2.64,-1.3 -2.6,-5.04 -0.55,-6.85 z"
       id="path152"
       inkscape:connector-curvature="0"
       style="fill:#ffffff" />
    <path
       d="m 186.88,180.87 c 1,-0.6 2.04,-1.14 3.12,-1.6 1.69,0.74 3.86,1.62 3.99,3.78 0.67,2.79 -2.25,5.65 -5.02,4.91 -1.18,-0.47 -2.02,-1.47 -3.01,-2.21 0.24,-1.62 -0.43,-3.64 0.92,-4.88 z"
       id="path154"
       inkscape:connector-curvature="0"
       style="fill:#ffffff" />
    <path
       d="m 124.79,185 c 1.42,-3.44 7.17,-2.54 7.73,1.09 0.97,2.01 -1.09,3.65 -2.3,4.96 -0.86,0 -2.57,0.01 -3.43,0.01 -1.8,-1.35 -3.94,-3.9 -2,-6.06 z"
       id="path156"
       inkscape:connector-curvature="0"
       style="fill:#ffffff" />
    <path
       d="m 176.81,187 c 1.15,-1.51 1.74,-4.35 4.16,-4.1 3.98,-0.97 6.85,5.09 3.21,7.34 -2.87,2.29 -6.55,-0.09 -7.37,-3.24 z"
       id="path158"
       inkscape:connector-curvature="0"
       style="fill:#ffffff" />
    <path
       d="m 132.83,187.76 c 1.4,-1.63 3.53,-3.42 5.79,-2.26 3.89,0.95 3.28,7.61 -0.68,7.77 -2.12,0.61 -3.79,-0.81 -4.96,-2.37 -0.04,-0.78 -0.11,-2.35 -0.15,-3.14 z"
       id="path160"
       inkscape:connector-curvature="0"
       style="fill:#ffffff" />
    <path
       d="m 168.84,188.06 c 0.91,-3.15 4.59,-3.34 7.09,-2.06 1.15,2.03 1.85,4.88 -0.32,6.53 -3.06,2.49 -8.1,-0.53 -6.77,-4.47 z"
       id="path162"
       inkscape:connector-curvature="0"
       style="fill:#ffffff" />
    <path
       d="m 141.73,188.89 c 1.74,-2.45 6.01,-3.27 7.76,-0.4 1.46,1.74 0.26,3.83 -0.51,5.57 -1.84,0.53 -4.14,1.4 -5.71,-0.22 -1.84,-0.99 -1.23,-3.24 -1.54,-4.95 z"
       id="path164"
       inkscape:connector-curvature="0"
       style="fill:#ffffff" />
    <path
       d="m 152.24,188.19 c 2.52,-3.04 7.92,0.18 6.92,3.79 -0.26,1.22 -1.25,2.06 -1.94,3.03 -1.47,-0.01 -2.94,0 -4.4,0.02 -1.95,-1.65 -3.08,-5.19 -0.58,-6.84 z"
       id="path166"
       inkscape:connector-curvature="0"
       style="fill:#ffffff" />
    <path
       d="m 161.34,187.52 c 1.96,-1.51 5.7,-1.12 6.52,1.57 1.78,3.51 -2.98,7.54 -6.1,5.16 -2.51,-1.35 -2.59,-5.02 -0.42,-6.73 z"
       id="path168"
       inkscape:connector-curvature="0"
       style="fill:#ffffff" />
  </g>
</svg>
