<?xml version="1.0" encoding="UTF-8" standalone="no"?>
<!-- Created with Inkscape (http://www.inkscape.org/) -->

<svg
   xmlns:dc="http://purl.org/dc/elements/1.1/"
   xmlns:cc="http://creativecommons.org/ns#"
   xmlns:rdf="http://www.w3.org/1999/02/22-rdf-syntax-ns#"
   xmlns:svg="http://www.w3.org/2000/svg"
   xmlns="http://www.w3.org/2000/svg"
   xmlns:sodipodi="http://sodipodi.sourceforge.net/DTD/sodipodi-0.dtd"
   xmlns:inkscape="http://www.inkscape.org/namespaces/inkscape"
   version="1.0"
   width="690"
   height="460"
   id="svg2"
   inkscape:version="0.47 r22583"
   sodipodi:docname="clatsop.svg">
  <metadata
     id="metadata2971">
    <rdf:RDF>
      <cc:Work
         rdf:about="">
        <dc:format>image/svg+xml</dc:format>
        <dc:type
           rdf:resource="http://purl.org/dc/dcmitype/StillImage" />
      </cc:Work>
    </rdf:RDF>
  </metadata>
  <sodipodi:namedview
     pagecolor="#ffffff"
     bordercolor="#666666"
     borderopacity="1"
     objecttolerance="10"
     gridtolerance="10"
     guidetolerance="10"
     inkscape:pageopacity="0"
     inkscape:pageshadow="2"
     inkscape:window-width="1308"
     inkscape:window-height="976"
     id="namedview2969"
     showgrid="false"
     inkscape:zoom="1.1255363"
     inkscape:cx="311.16788"
     inkscape:cy="181.07578"
     inkscape:window-x="1708"
     inkscape:window-y="47"
     inkscape:window-maximized="0"
     inkscape:current-layer="svg2" />
  <defs
     id="defs4">
    <inkscape:perspective
       sodipodi:type="inkscape:persp3d"
       inkscape:vp_x="0 : 209.67783 : 1"
       inkscape:vp_y="0 : 1000 : 0"
       inkscape:vp_z="700.01019 : 209.67783 : 1"
       inkscape:persp3d-origin="350.0051 : 139.78522 : 1"
       id="perspective2973" />
    <inkscape:perspective
       id="perspective2998"
       inkscape:persp3d-origin="0.5 : 0.33333333 : 1"
       inkscape:vp_z="1 : 0.5 : 1"
       inkscape:vp_y="0 : 1000 : 0"
       inkscape:vp_x="0 : 0.5 : 1"
       sodipodi:type="inkscape:persp3d" />
  </defs>
  <rect
     style="fill:#fd0000;fill-opacity:1;stroke:none"
     id="rect2988"
     width="690"
     height="230"
     x="0"
     y="-1.9248492e-14" />
  <rect
     style="fill:#326598;fill-opacity:1;stroke:none"
     id="rect2988-1"
     width="690"
     height="230"
     x="0"
     y="230" />
  <path
     sodipodi:type="arc"
     style="fill:#fdca00;fill-opacity:1;stroke:none"
     id="path3014"
     sodipodi:cx="228.77983"
     sodipodi:cy="228.55478"
     sodipodi:rx="229.66829"
     sodipodi:ry="229.66829"
     d="m 458.44812,228.55478 a 229.66829,229.66829 0 1 1 -459.33657825,-1e-5"
     transform="matrix(0,-1.0014443,1.0014443,0,-228.88487,459.11026)"
     sodipodi:start="0"
     sodipodi:end="3.1415927"
     sodipodi:open="true" />
  <path
     style="fill:#1d1815;fill-opacity:1"
     d="M 230.875 83.25 C 228.79021 83.304381 226.96939 83.789632 225.6875 84.6875 C 222.39797 86.99158 219.10397 92.94734 219.71875 95.46875 C 221.60827 103.21827 225.3715 111.79831 227.28125 112.6875 C 230.09322 113.99678 229.4672 115.41874 225.65625 116.40625 C 222.16076 117.31203 217.79221 121.98348 215.625 127.15625 C 214.60466 129.59163 214.38913 132.32539 214.84375 136.34375 C 215.74081 144.27267 213.68209 152.13614 205.6875 171.375 C 204.11263 175.16491 203.3002 175.64662 193.65625 178.6875 C 187.74358 180.55185 184.40625 184.01065 184.40625 188.28125 C 184.40625 190.14109 183.62864 191.63304 182.15625 192.5625 C 178.53756 194.84683 168.32666 197.3686 165.5 196.6875 C 160.24311 195.42081 136.09047 186.06936 129.375 182.6875 C 108.5689 172.20972 77.860415 151.38666 69.28125 141.96875 C 64.886857 137.14475 64.467372 136.95693 60.90625 137.625 C 58.847624 138.0112 56.048161 139.42059 54.6875 140.78125 C 54.293695 141.17506 52.460465 141.53026 52.21875 142.25 C 51.908744 143.17309 53.224825 144.50936 52.9375 145.0625 C 52.904287 145.12644 52.875296 145.15571 52.84375 145.1875 C 52.834878 145.19644 52.821358 145.21185 52.8125 145.21875 C 52.771812 145.23477 52.727636 145.23331 52.6875 145.25 C 52.601431 145.25396 52.501076 145.23795 52.375 145.25 C 52.062314 145.27987 50.333832 143.11735 50.0625 143.03125 C 47.904681 142.34638 41.40625 145.07229 41.40625 146.71875 C 41.40625 147.3541 43.54375 151.42942 46.15625 155.78125 C 48.76875 160.13308 53.38125 169.50017 56.40625 176.59375 C 62.679889 191.30536 61.04533 189.69678 83.34375 203.1875 C 91.070923 207.8625 96.6865 211.28746 96.6875 211.65625 C 96.68887 212.02505 96.11148 213.30917 94.53125 213.65625 C 92.95101 214.00333 87.41054 216.92407 87.03125 217.5 C 86.093107 218.92451 81.890814 220.71237 81.21875 221.5625 C 80.954611 221.61425 80.741004 221.64617 80.4375 221.71875 C 54.478189 227.91648 55.720723 227.418 54.46875 227.84375 C 52.615786 228.47388 15.279293 237.14766 13.46875 236.75 C 12.480385 236.53292 13.394884 234.8217 12.9375 234.4375 C 12.136556 233.76472 9.24756 235.61215 1.46875 240.75 C 0.725727 241.95224 19.230509 236.7668 21.40625 236.75 C 21.791557 236.7469 30.673846 234.71475 41.09375 232.3125 C 48.026526 231.67596 90.204587 225.1875 90.28125 225.1875 C 95.77738 224.18771 106.06502 222.21377 106.46875 222.09375 C 107.33093 221.83744 109.11968 221.59268 110.9375 221.1875 C 112.26542 220.89151 124.08507 227.77066 140.21875 239.5 C 164.48328 257.14054 166.13302 258.68767 168.375 266.1875 C 169.4437 269.7625 170.60022 274.6 170.96875 276.9375 C 171.30205 279.05156 171.81397 280.35076 172.09375 280.5 C 172.07384 280.67253 172.05637 280.76117 172.125 280.71875 C 172.90674 280.23561 176.86446 279.94161 191.90625 278.21875 C 198.9871 277.40772 207.34023 275.33244 220.53125 271.125 C 227.12059 269.04358 240.28016 264.75155 241.40625 264.28125 C 242.30405 263.90629 244.01549 263.27285 245.15625 262.90625 C 246.56051 262.45497 255.24976 261.24448 259.3125 260.625 C 265.67867 259.65427 269.94501 258.83227 277.8125 260.65625 C 285.63189 262.46907 288.7419 262.64812 305.90625 262.21875 C 315.86188 261.96971 318.83573 263.26772 320.09375 263.78125 C 322.58762 264.79925 339.97807 267.46057 350.90625 266.875 C 378.95137 265.37223 393.74503 266.55019 403.71875 271.09375 C 409.4823 273.3092 416.38312 273.1457 417.8125 273.125 C 419.6333 273.09687 447.3695 272.95581 450.21875 272.8125 C 451.96782 272.72452 481.83125 271.63221 485.40625 271.0625 C 488.98125 270.49279 498.43125 269.69472 506.40625 269.28125 C 514.38125 268.86778 525.63125 268.01064 531.40625 267.375 C 537.18125 266.73936 546.63125 265.78203 552.40625 265.25 C 559.46296 264.59988 566.37279 263.17043 573.46875 260.875 C 579.27587 258.99649 588.28879 256.95834 593.5 256.34375 C 598.71121 255.72916 607.45583 253.87138 612.9375 252.21875 C 618.41917 250.56613 625.15625 249.2033 627.90625 249.1875 C 633.77802 249.15372 646.33297 246.63578 647.75 245.21875 C 648.39674 244.57201 647.35223 243.61654 644.71875 242.4375 C 642.51266 241.4498 639.9875 239.925 639.09375 239.03125 C 638.08055 238.01805 640.44051 236.31674 642.5 234.9375 C 642.58308 234.89951 642.6752 234.85071 642.75 234.8125 C 642.9329 234.71907 643.15853 234.53937 643.40625 234.3125 C 644.02136 233.90123 644.54707 233.55289 644.84375 233.28125 C 644.94291 233.06516 645.00085 232.86758 645.09375 232.65625 C 645.63745 232.4159 646.18065 232.1875 646.40625 232.1875 C 646.95625 232.1875 647.40625 231.69299 647.40625 231.09375 C 647.40625 230.49452 652.46875 224.76114 658.65625 218.34375 C 672.1413 204.35768 679.78566 195.03294 685.40625 185.78125 C 690.03248 178.16633 689.66218 176.73068 683.59375 178.40625 C 679.14949 179.63337 674.09201 182.79297 663.90625 190.71875 C 659.50625 194.14249 654.33125 197.83736 652.40625 198.90625 C 637.02546 207.44666 609.24723 220.30318 606.9375 219.96875 C 605.39999 219.74614 604.55921 218.28467 603.34375 213.625 C 601.0385 204.78741 597.55696 196.67765 595.0625 194.375 C 593.86535 193.26991 588.40625 190.01165 582.90625 187.125 C 577.40625 184.23835 571.49006 180.56658 569.78125 178.96875 C 567.31279 176.66059 565.46334 175.96847 560.78125 175.53125 C 552.77673 174.78376 545.94736 170.63175 540.84375 163.4375 C 532.87244 152.20081 531.67495 151.1712 526.53125 151.1875 C 520.41507 151.20691 517.4276 152.88071 514.6875 157.71875 C 511.58034 163.20487 511.78968 168.58223 515.46875 177.84375 C 518.09012 184.44267 518.34967 185.94738 517.34375 188.125 C 516.69597 189.52732 515.59556 192.63229 514.875 195 C 514.15444 197.3677 511.64134 202.48623 509.3125 206.40625 C 505.32087 213.12515 505.18595 213.70436 506.5625 216.125 C 507.81594 218.32915 508.68347 218.6794 512.71875 218.625 C 516.32668 218.57637 518.46779 217.82068 521.9375 215.375 C 524.42401 213.62235 526.83556 212.1875 527.3125 212.1875 C 528.49419 212.1875 534.31152 218.89848 535.625 221.78125 C 536.45384 223.60036 536.32009 224.65799 535.03125 226.625 L 533.375 229.15625 L 504.125 229.4375 L 501.71875 229.46875 C 496.08759 229.24597 489.98633 228.95594 482.78125 228.65625 C 476.60459 228.39933 467.08774 228.17936 456.875 227.875 C 448.50351 227.42905 436.73425 226.81572 428.6875 226.4375 C 409.39825 225.53085 407.21905 224.57446 415.9375 220.71875 C 423.2299 217.4937 428.40625 213.61899 428.40625 211.375 C 428.40625 206.8172 422.00255 198.8421 405.75 183.21875 C 403.95261 181.49094 401.34944 177.10796 399.75 173.03125 C 397.34643 166.90495 396.29302 165.45653 392.46875 163.03125 C 387.32564 159.76959 383.33373 159.45288 378.4375 161.9375 C 374.72849 163.81967 370.40625 170.78297 370.40625 174.84375 C 370.40625 176.73582 369.85796 177.1875 367.625 177.1875 C 361.0989 177.1875 344.22037 189.71745 340.25 197.5 C 339.15543 199.64553 337.62919 204.33283 336.875 207.9375 C 336.1208 211.54217 334.82505 215.17495 334 216 C 332.66654 217.33346 332.0979 217.17115 328.71875 214.59375 C 318.53867 206.82903 292.35522 177.48751 292.03125 173.46875 C 291.87332 171.5097 290.39228 171.89943 329.65625 163.15625 C 344.39002 159.87538 346.18279 158.92209 342.8125 156.125 C 341.0298 154.64549 339.88754 154.81278 312.78125 160.875 C 303.91303 162.85834 295.87092 164.18267 294.90625 163.8125 C 293.49358 163.2704 293.26864 162.41234 293.78125 159.40625 C 296.32509 144.48846 296.46768 141.93238 294.8125 139.40625 C 291.36599 134.14622 284.2634 128.1407 277.40625 124.6875 C 272.38017 122.15641 269.6684 120.09151 268.25 117.6875 C 267.14226 115.81002 265.41559 114.00786 264.40625 113.6875 C 261.75061 112.84464 254.91313 105.09279 252.34375 100.03125 C 247.91404 91.304949 244.34019 87.07473 239.71875 85.09375 C 236.69824 83.799004 233.55545 83.180082 230.875 83.25 z M 267.4375 138.375 C 268.88234 138.41762 270.88977 139.16107 273.71875 140.34375 C 281.96871 143.79272 282.40625 144.42193 282.40625 152.875 L 282.40625 160.28125 L 276.5 166.21875 C 273.26409 169.49509 270.00159 172.16325 269.25 172.15625 C 268.49842 172.14902 266.64065 169.53486 265.09375 166.3125 C 262.4297 160.76303 262.30327 159.97174 262.96875 151.5625 C 263.75374 141.64305 264.25885 138.28125 267.4375 138.375 z M 226 162.1875 C 226.68833 162.1875 227.74858 163.72693 228.375 165.625 C 229.6594 169.51677 228.65908 172.43212 225.4375 174.15625 C 222.76023 175.58908 221.42058 175.45395 220.71875 173.625 C 219.95558 171.63621 224.32109 162.1875 226 162.1875 z M 221.84375 176 C 221.90674 176.01637 221.96823 176.04832 222.03125 176.0625 C 221.99963 176.05816 221.96891 176.06744 221.9375 176.0625 C 221.90484 176.04442 221.87498 176.02009 221.84375 176 z M 288.53125 176.75 C 290.2907 176.51342 292.41966 178.6984 299.5625 187 C 310.79473 200.0544 314.8801 204.48382 321.65625 210.96875 C 324.81875 213.99533 327.40625 217.09982 327.40625 217.84375 C 327.40625 218.89323 325.33327 219.14059 318.15625 219.03125 C 298.64846 218.73405 278.11271 216.51427 274.59375 214.3125 C 273.01316 213.32355 266.24907 188.65529 266.625 185.25 C 267.00941 181.76796 274.19426 178.17615 280.8125 178.15625 C 283.6135 178.14783 286.53737 177.74069 287.3125 177.25 C 287.73543 176.98226 288.12522 176.80459 288.53125 176.75 z M 362.3125 195.8125 C 362.63297 195.88664 363.64715 198.39962 364.5625 201.40625 C 365.96798 206.02279 366.04573 207.79991 365.0625 212.78125 L 363.90625 218.6875 L 356.875 218.96875 C 348.79031 219.30199 347.37395 218.46469 347.40625 213.25 C 347.44576 206.86323 350.61013 201.75116 356.46875 198.5625 C 359.36665 196.98527 361.99203 195.7384 362.3125 195.8125 z M 573.25 197.1875 C 578.48387 197.1875 581.46248 199.47478 586.90625 207.65625 C 589.9301 212.20083 592.40625 216.63003 592.40625 217.53125 C 592.40625 219.85057 590.86244 219.5601 582.59375 215.625 C 576.12564 212.5468 575.10487 211.67106 573.4375 207.78125 C 570.49007 200.90516 570.42581 197.1875 573.25 197.1875 z M 208.5 197.78125 C 209.80115 197.72154 211.8973 198.16718 214.9375 199 C 222.19101 200.987 225.12031 203.49297 225.625 208.15625 C 225.93138 210.98714 225.02718 211.2477 218.21875 210.28125 C 212.89625 209.52573 210.27536 207.55838 207.875 202.5 C 206.37763 199.34453 206.33142 197.88077 208.5 197.78125 z M 185.6875 197.8125 C 187.05424 197.74099 187.65789 198.21279 188.65625 199.375 C 189.61875 200.49546 190.40625 201.98227 190.40625 202.6875 C 190.40625 203.39272 189.84375 204.18383 189.15625 204.4375 C 187.55926 205.02673 178.10933 201.85924 177.6875 200.59375 C 177.51238 200.06837 179.50864 199.13548 182.125 198.5 C 183.7533 198.10451 184.86745 197.85541 185.6875 197.8125 z M 405.375 204.4375 C 407.29458 204.41662 412.40625 208.22478 412.40625 209.84375 C 412.40625 210.55414 410.61559 212.04507 408.4375 213.15625 C 403.74828 215.5485 403.93986 215.53462 402.5625 213.875 C 401.24973 212.29321 403.10621 205.2387 405.03125 204.5 C 405.12841 204.46272 405.24703 204.43889 405.375 204.4375 z M 105.96875 217.5 C 106.99815 217.48137 108.10829 217.72132 109.1875 218.5 C 109.86971 218.99224 110.65507 219.56349 111.4375 220.09375 C 104.09359 221.5012 58.353193 229.09104 44.5625 231.5 C 60.746863 227.75349 79.950436 223.23067 85.25 221.78125 C 85.38352 221.76457 85.483778 221.76843 85.625 221.75 C 89.131756 223.15137 100.72949 219.78166 105.71875 217.59375 C 105.80235 217.55709 105.88558 217.53302 105.96875 217.5 z M 576.1875 218.53125 C 578.6998 218.65638 588.88291 223.54363 589.9375 225.25 C 590.31464 225.86023 590.23508 226.76492 589.75 227.25 C 589.26493 227.73507 586.32209 228.35487 583.21875 228.65625 C 578.85964 229.07958 577.22718 228.85219 576 227.625 C 574.02196 225.64696 573.86105 219.33059 575.78125 218.59375 C 575.87558 218.55755 576.02001 218.52291 576.1875 218.53125 z M 40.09375 232.375 C 40.11327 232.38659 40.287846 232.3746 40.375 232.375 C 40.247221 232.56759 39.919469 232.27148 40.09375 232.375 z "
     id="path1992" />
</svg>
