<?xml version="1.0" encoding="UTF-8" standalone="no"?>
<!-- Created with Inkscape (http://www.inkscape.org/) -->
<svg
   xmlns:i="http://ns.adobe.com/AdobeIllustrator/10.0/"
   xmlns:dc="http://purl.org/dc/elements/1.1/"
   xmlns:cc="http://creativecommons.org/ns#"
   xmlns:rdf="http://www.w3.org/1999/02/22-rdf-syntax-ns#"
   xmlns:svg="http://www.w3.org/2000/svg"
   xmlns="http://www.w3.org/2000/svg"
   xmlns:sodipodi="http://sodipodi.sourceforge.net/DTD/sodipodi-0.dtd"
   xmlns:inkscape="http://www.inkscape.org/namespaces/inkscape"
   id="svg2419"
   sodipodi:version="0.32"
   inkscape:version="0.46"
   width="900"
   height="600">
  <defs
     id="defs2422">
    <inkscape:perspective
       sodipodi:type="inkscape:persp3d"
       inkscape:vp_x="0 : 526.18109 : 1"
       inkscape:vp_y="0 : 1000 : 0"
       inkscape:vp_z="744.09448 : 526.18109 : 1"
       inkscape:persp3d-origin="372.04724 : 350.78739 : 1"
       id="perspective2426" />
  </defs>
  <sodipodi:namedview
     inkscape:window-height="729"
     inkscape:window-width="1280"
     inkscape:pageshadow="2"
     inkscape:pageopacity="0.0"
     guidetolerance="10.0"
     gridtolerance="10.0"
     objecttolerance="10.0"
     borderopacity="1.0"
     bordercolor="#666666"
     pagecolor="#ffffff"
     id="base"
     showgrid="false"
     inkscape:zoom="0.44281333"
     inkscape:cx="372.04724"
     inkscape:cy="526.18109"
     inkscape:window-x="0"
     inkscape:window-y="0"
     inkscape:current-layer="svg2419" />
  <rect
     style="opacity:1;fill:#ffffff;fill-opacity:1"
     id="rect2480"
     width="900"
     height="600"
     x="0"
     y="-2.2315483e-14" />
  <g
     style="overflow:visible"
     id="g2436"
     transform="matrix(0.988154,0,0,0.987311,-46.538181,14.383551)">
    <path
       style="fill:#ed8000"
       id="path15"
       d="M 427.656,185.589 C 427.656,193.269 428.616,194.229 429.096,195.669 C 429.576,197.109 430.176,223.508 426.216,230.709 C 422.256,237.91 414.456,241.989 411.336,242.709 C 408.216,243.429 398.376,236.469 389.255,233.589 C 380.135,230.709 380.615,231.189 376.776,231.189 C 372.937,231.189 364.296,234.428 361.896,236.469 C 360.336,236.229 359.976,235.509 359.016,236.469 C 358.057,237.429 354.216,241.269 353.256,243.669 C 352.296,246.069 349.897,255.19 347.016,256.149 C 344.136,257.109 336.336,264.908 331.176,265.27 C 326.017,265.63 327.456,265.03 323.976,264.79 C 320.497,264.55 320.136,260.95 316.776,259.03 C 313.417,257.11 312.456,255.67 312.456,255.67 C 312.456,255.67 311.496,251.83 310.056,251.83 C 308.617,251.83 307.177,258.551 307.177,260.471 C 307.177,262.391 311.016,269.591 312.937,271.03 C 314.857,272.47 314.857,281.111 313.897,283.51 C 312.937,285.91 315.817,288.311 316.296,290.71 C 316.776,293.11 313.417,295.029 314.857,295.51 C 316.296,295.989 318.217,298.869 318.217,301.75 C 318.217,304.63 325.417,305.59 326.857,308.47 C 328.297,311.35 328.777,316.15 329.257,319.031 C 329.737,321.911 331.417,320.591 331.656,327.671 C 333.936,328.751 337.416,331.03 340.296,332.471 C 343.176,333.911 342.697,337.271 346.536,338.711 C 350.376,340.15 350.376,338.711 352.296,339.19 C 354.216,339.67 351.336,340.151 354.696,341.11 C 358.057,342.07 359.496,340.631 362.377,342.07 C 365.257,343.51 366.697,346.871 368.617,347.831 C 370.537,348.791 378.697,351.19 379.177,351.671 C 379.657,352.15 384.937,354.071 385.897,354.071 C 386.857,354.071 389.737,352.15 389.737,352.15 C 389.737,352.15 393.097,353.11 395.977,352.15 C 398.857,351.191 400.777,348.31 402.697,348.31 C 404.617,348.31 405.097,349.27 407.017,349.27 C 408.937,349.27 411.816,348.31 411.816,348.31 C 411.816,348.31 416.136,347.35 419.496,349.27 C 422.856,351.191 430.536,360.311 430.536,364.151 C 430.536,367.99 430.057,369.911 430.057,369.911 C 430.057,369.911 433.896,369.43 435.336,370.39 C 436.776,371.351 436.656,369.551 447.336,371.351 C 446.616,368.71 436.296,361.271 445.896,350.71 C 455.496,340.149 456.096,344.47 458.376,342.551 C 460.656,340.63 469.416,334.989 484.296,340.15 C 498.696,337.751 488.136,335.831 496.296,335.351 C 497.736,334.75 500.497,335.47 503.497,336.311 C 504.457,334.51 506.497,332.831 509.737,333.43 C 510.337,331.75 514.296,329.47 518.376,329.111 C 518.977,325.87 529.297,321.792 535.177,321.43 C 537.576,319.27 540.337,309.67 553.417,314.23 C 553.896,311.111 556.057,306.07 559.657,305.11 C 560.377,298.631 557.975,285.549 564.457,281.11 C 570.936,275.23 577.057,276.549 587.977,276.791 C 595.417,278.351 599.017,283.99 601.416,284.471 C 603.816,284.951 604.776,284.951 607.656,283.032 C 610.536,281.111 607.177,277.271 609.576,277.271 C 611.976,277.271 611.015,277.751 614.856,277.271 C 618.696,276.792 618.216,275.471 620.616,274.872 C 624.457,276.793 628.776,275.351 630.696,276.792 C 632.617,278.231 632.856,278.111 636.936,278.712 C 638.375,281.111 642.215,281.111 642.215,281.111 C 642.215,281.111 639.336,280.151 640.296,278.712 C 641.256,277.272 640.296,272.951 638.375,271.031 C 636.456,269.111 635.496,268.631 634.056,266.712 C 632.617,264.792 634.535,264.791 632.135,262.392 C 629.736,259.992 624.456,257.592 623.016,254.712 C 621.577,251.832 622.056,249.912 619.656,247.512 C 617.257,245.112 607.656,236.952 607.177,228.312 C 606.698,219.672 607.656,211.393 613.416,208.632 C 613.176,203.592 614.377,202.872 619.656,199.992 C 624.935,197.112 625.418,199.032 628.776,199.032 C 632.135,199.032 634.057,199.512 637.416,197.113 C 640.776,194.713 637.896,189.433 646.536,181.753 C 655.177,174.073 658.536,170.233 661.417,169.753 C 664.297,169.273 674.736,161.953 679.177,162.553 C 682.297,158.834 685.417,154.393 689.257,151.513 C 693.097,148.633 697.418,148.633 699.337,146.233 C 701.257,143.833 700.776,139.512 706.537,135.672 C 712.297,131.833 717.098,129.433 719.497,127.512 C 721.896,125.592 727.177,127.032 729.097,125.112 C 731.017,123.192 731.017,115.992 732.936,114.552 C 734.857,113.112 726.697,117.912 722.377,119.832 C 718.057,121.752 711.817,125.112 706.537,124.632 C 701.257,124.152 704.136,127.511 701.257,128.472 C 698.377,129.432 693.577,128.952 691.656,130.872 C 689.736,132.792 686.377,137.592 683.497,139.512 C 680.616,141.431 679.177,140.952 676.297,142.392 C 673.416,143.832 671.017,145.272 668.617,146.232 C 666.217,147.192 659.016,146.712 659.016,146.712 C 659.016,146.712 652.776,154.872 649.896,157.752 C 647.016,160.632 643.656,160.152 640.776,161.592 C 637.896,163.031 613.416,178.872 596.617,181.272 C 579.816,183.671 587.496,179.832 582.217,181.272 C 576.938,182.712 569.256,192.791 563.017,193.272 C 556.777,193.752 554.857,193.272 553.417,193.272 C 551.977,193.272 544.297,198.072 539.497,197.112 C 532.417,199.272 527.138,198.792 525.097,198.551 C 523.057,198.312 519.337,200.951 514.057,198.551 C 509.977,197.232 509.977,200.111 502.058,197.592 C 494.137,195.072 488.617,198.552 484.777,196.632 C 480.937,194.712 481.417,193.272 478.537,193.272 C 475.657,193.272 475.657,195.192 472.297,195.192 C 468.937,195.192 468.457,193.272 465.577,193.272 C 462.697,193.272 459.337,195.192 455.017,194.712 C 450.697,194.232 449.257,192.312 446.377,192.312 C 443.496,192.309 427.656,185.589 427.656,185.589 z"
       i:knockout="Off" />
    <path
       style="fill:#006651"
       id="path17"
       d="M 476.765,478.801 C 485.099,472.801 492.431,470.801 503.765,468.801 C 515.099,466.801 527.099,463.469 533.431,461.801 C 539.763,460.133 512.099,469.801 505.099,471.801 C 498.099,473.801 476.765,478.801 476.765,478.801 z"
       i:knockout="Off" />
    <path
       style="fill:#006651"
       id="path19"
       d="M 522.432,461.133 C 520.1,446.801 525.764,431.801 538.764,425.801 C 541.764,436.133 532.432,453.801 522.432,461.133 z"
       i:knockout="Off" />
    <path
       style="fill:#006651"
       id="path21"
       d="M 544.383,453.674 C 537.432,441.801 549.197,426.486 557.815,418.977 C 561.766,426.133 554.766,447.467 544.383,453.674 z"
       i:knockout="Off" />
    <path
       style="fill:#006651"
       id="path23"
       d="M 564.766,444.467 C 557.334,434.285 566.098,416.467 575.432,409.467 C 579.098,419.467 575.432,437.467 564.766,444.467 z"
       i:knockout="Off" />
    <path
       style="fill:#006651"
       id="path25"
       d="M 585.154,431.734 C 578.431,422.132 583.099,407.132 592.765,397.466 C 599.766,405.467 593.766,422.801 585.154,431.734 z"
       i:knockout="Off" />
    <path
       style="fill:#006651"
       id="path27"
       d="M 601.432,418.801 C 595.766,409.801 602.766,388.133 611.766,382.133 C 615.766,390.133 612.766,412.801 601.432,418.801 z"
       i:knockout="Off" />
    <path
       style="fill:#006651"
       id="path29"
       d="M 614.432,415.467 C 612.766,402.467 635.434,388.133 644.766,388.467 C 643.766,399.133 634.098,410.801 614.432,415.467 z"
       i:knockout="Off" />
    <path
       style="fill:#006651"
       id="path31"
       d="M 601.766,430.133 C 612.432,419.133 633.098,419.133 640.432,421.467 C 638.432,427.801 614.1,441.799 601.766,430.133 z"
       i:knockout="Off" />
    <path
       style="fill:#006651"
       id="path33"
       d="M 587.098,441.133 C 602.098,437.133 611.766,433.799 620.766,443.133 C 614.432,451.133 590.098,448.799 587.098,441.133 z"
       i:knockout="Off" />
    <path
       style="fill:#006651"
       id="path35"
       d="M 565.766,450.801 C 580.098,443.133 597.432,454.467 600.098,461.133 C 584.098,467.801 565.434,452.469 565.766,450.801 z"
       i:knockout="Off" />
    <path
       style="fill:#006651"
       id="path37"
       d="M 546.098,461.801 C 559.098,456.801 574.098,463.469 580.098,470.801 C 573.098,474.133 554.764,477.801 546.098,461.801 z"
       i:knockout="Off" />
    <path
       style="fill:#006651"
       id="path39"
       d="M 528.1,467.467 C 543.1,465.801 557.493,477.153 560.629,483.643 C 541.432,485.467 534.1,479.801 528.1,467.467 z"
       i:knockout="Off" />
    <path
       style="fill:#006651"
       id="path41"
       d="M 523.268,478.801 C 514.934,472.801 507.602,470.801 496.268,468.801 C 484.934,466.801 472.934,463.469 466.601,461.801 C 460.268,460.133 487.934,469.801 494.934,471.801 C 501.934,473.801 523.268,478.801 523.268,478.801 z"
       i:knockout="Off" />
    <path
       style="fill:#006651"
       id="path43"
       d="M 477.6,461.133 C 479.933,446.801 474.268,431.801 461.267,425.801 C 458.267,436.133 467.6,453.801 477.6,461.133 z"
       i:knockout="Off" />
    <path
       style="fill:#006651"
       id="path45"
       d="M 455.649,453.674 C 462.6,441.801 450.835,426.486 442.217,418.977 C 438.266,426.133 445.266,447.467 455.649,453.674 z"
       i:knockout="Off" />
    <path
       style="fill:#006651"
       id="path47"
       d="M 435.266,444.467 C 442.698,434.285 433.934,416.467 424.6,409.467 C 420.934,419.467 424.6,437.467 435.266,444.467 z"
       i:knockout="Off" />
    <path
       style="fill:#006651"
       id="path49"
       d="M 414.877,431.734 C 421.6,422.132 416.932,407.132 407.266,397.466 C 400.266,405.467 406.266,422.801 414.877,431.734 z"
       i:knockout="Off" />
    <path
       style="fill:#006651"
       id="path51"
       d="M 398.6,418.801 C 404.266,409.801 397.266,388.133 388.266,382.133 C 384.266,390.133 387.266,412.801 398.6,418.801 z"
       i:knockout="Off" />
    <path
       style="fill:#006651"
       id="path53"
       d="M 385.6,415.467 C 387.266,402.467 364.598,388.133 355.266,388.467 C 356.266,399.133 365.934,410.801 385.6,415.467 z"
       i:knockout="Off" />
    <path
       style="fill:#006651"
       id="path55"
       d="M 398.266,430.133 C 387.6,419.133 366.934,419.133 359.6,421.467 C 361.6,427.801 385.932,441.799 398.266,430.133 z"
       i:knockout="Off" />
    <path
       style="fill:#006651"
       id="path57"
       d="M 412.934,441.133 C 397.934,437.133 388.266,433.799 379.266,443.133 C 385.6,451.133 409.934,448.799 412.934,441.133 z"
       i:knockout="Off" />
    <path
       style="fill:#006651"
       id="path59"
       d="M 434.266,450.801 C 419.934,443.133 402.6,454.467 399.934,461.133 C 415.934,467.801 434.598,452.469 434.266,450.801 z"
       i:knockout="Off" />
    <path
       style="fill:#006651"
       id="path61"
       d="M 453.934,461.801 C 440.934,456.801 425.934,463.469 419.934,470.801 C 426.934,474.133 445.268,477.801 453.934,461.801 z"
       i:knockout="Off" />
    <path
       style="fill:#006651"
       id="path63"
       d="M 471.933,467.467 C 456.933,465.801 442.539,477.153 439.403,483.643 C 458.6,485.467 465.933,479.801 471.933,467.467 z"
       i:knockout="Off" />
  </g>
</svg>
