<?xml version="1.0" encoding="UTF-8" standalone="no"?>
<svg
   xmlns:dc="http://purl.org/dc/elements/1.1/"
   xmlns:cc="http://creativecommons.org/ns#"
   xmlns:rdf="http://www.w3.org/1999/02/22-rdf-syntax-ns#"
   xmlns:svg="http://www.w3.org/2000/svg"
   xmlns="http://www.w3.org/2000/svg"
   xmlns:sodipodi="http://sodipodi.sourceforge.net/DTD/sodipodi-0.dtd"
   xmlns:inkscape="http://www.inkscape.org/namespaces/inkscape"
   width="900"
   height="600"
   id="svg2"
   sodipodi:version="0.32"
   inkscape:version="0.46"
   sodipodi:docname="dr_congo.svg"
   inkscape:output_extension="org.inkscape.output.svg.inkscape"
   version="1.0">
  <defs
     id="defs13">
    <inkscape:perspective
       sodipodi:type="inkscape:persp3d"
       inkscape:vp_x="0 : 300 : 1"
       inkscape:vp_y="0 : 1000 : 0"
       inkscape:vp_z="800 : 300 : 1"
       inkscape:persp3d-origin="400 : 200 : 1"
       id="perspective17" />
  </defs>
  <rect
     width="900"
     height="600"
     id="rect4"
     x="0"
     y="0"
     style="fill:#007fff" />
  <path
     d="M 843.75,0 L 0,449.99998 L 0,599.99997 L 0.037500001,599.99997 L 56.250003,599.99997 L 900,149.99999 L 900,0 L 843.75,0 z"
     id="path6"
     style="fill:#f7d618" />
  <path
     d="M 900,0 L 0,479.99998 L 0,599.99937 L 0.037794983,599.99937 L 0.075589967,599.99997 L 900,119.99999 L 900,0 z"
     id="path8"
     style="fill:#ce1021" />
  <path
     d="M 335.12064,25 L 351.96068,76.821663 L 406.44988,76.823727 L 362.3684,108.85334 L 379.20453,160.67628 L 335.12064,128.65 L 291.03674,160.67627 L 307.87287,108.85334 L 263.7914,76.823724 L 318.28059,76.821663 L 335.12064,25 z"
     transform="matrix(1.51411,0,0,1.51242,-363.408,3.38941)"
     id="path10"
     style="fill:#f7d618" />
</svg>
