<?xml version="1.0" encoding="UTF-8" standalone="no"?>
<!-- Created with Sodipodi ("http://www.sodipodi.com/") -->
<svg
   xmlns:dc="http://purl.org/dc/elements/1.1/"
   xmlns:cc="http://web.resource.org/cc/"
   xmlns:rdf="http://www.w3.org/1999/02/22-rdf-syntax-ns#"
   xmlns:svg="http://www.w3.org/2000/svg"
   xmlns="http://www.w3.org/2000/svg"
   xmlns:sodipodi="http://inkscape.sourceforge.net/DTD/sodipodi-0.dtd"
   xmlns:inkscape="http://www.inkscape.org/namespaces/inkscape"
   version="1"
   x="0"
   y="0"
   width="280mm"
   height="529.13000pt"
   id="svg378"
   sodipodi:version="0.32"
   sodipodi:docname="ethiopia.svg"
   sodipodi:docbase="/Users/daniel/Desktop/updated flags"
   inkscape:version="0.42">
  <metadata
     id="metadata3467">
    <rdf:RDF>
      <cc:Work
         rdf:about="">
        <dc:format>image/svg+xml</dc:format>
        <dc:type
           rdf:resource="http://purl.org/dc/dcmitype/StillImage" />
      </cc:Work>
    </rdf:RDF>
  </metadata>
  <sodipodi:namedview
     id="base"
     showgrid="true"
     gridoriginy="-9mm"
     gridspacingx="15mm"
     gridspacingy="15mm"
     showguides="true"
     inkscape:guide-bbox="true"
     inkscape:zoom="0.43262028"
     inkscape:cx="547.85513"
     inkscape:cy="323.85517"
     inkscape:window-width="701"
     inkscape:window-height="507"
     inkscape:window-x="47"
     inkscape:window-y="92"
     inkscape:current-layer="svg378">
    <sodipodi:guide
       orientation="vertical"
       position="490.03713"
       id="guide3473" />
  </sodipodi:namedview>
  <defs
     id="defs380" />
  <rect
     width="992.12500"
     height="661.41248"
     x="0.0000000"
     y="-2.4414063e-05"
     style="font-size:12.000000px;fill:#ffc621;fill-opacity:1.0000000;fill-rule:evenodd;stroke-width:1.0000000pt"
     id="rect171" />
  <rect
     width="991.45325"
     height="218.96373"
     x="0.0000000"
     y="442.44873"
     style="font-size:12.000000px;fill:#ef2118;fill-opacity:1.0000000;fill-rule:evenodd;stroke-width:1.0000000pt"
     id="rect289" />
  <rect
     width="992.12500"
     height="232.52342"
     x="0.0000000"
     y="-3.0517578e-05"
     style="font-size:12.000000px;fill:#298c08;fill-opacity:1.0000000;fill-rule:evenodd;stroke-width:1.0000000pt"
     id="rect288" />
  <g
     id="g3469"
     transform="matrix(1.330535,0.000000,0.000000,1.330535,-145.4553,-8.664270)">
    <ellipse
       transform="matrix(0.515258,0.000000,0.000000,0.515257,204.6805,77.01319)"
       id="path316"
       style="font-size:12.000000px;fill:#006bc6;fill-opacity:1.0000000;fill-rule:evenodd;stroke-width:1.0000000pt"
       ry="199.65176"
       rx="199.65179"
       cy="352.96780"
       cx="534.22180"
       sodipodi:cx="534.22180"
       sodipodi:cy="352.96780"
       sodipodi:rx="199.65179"
       sodipodi:ry="199.65176" />
    <path
       transform="matrix(0.515258,0.000000,0.000000,0.515257,204.6805,77.01319)"
       id="path322"
       style="font-size:12.000000px;fill:#ffc621;fill-opacity:1.0000000;fill-rule:evenodd;stroke-width:1.0000000pt"
       d="M 445.21000,211.89000 L 433.28100,220.27600 L 476.85300,281.51600 L 488.47500,274.10500 L 445.21000,211.89000 z M 499.75400,356.44100 L 481.83700,343.94800 L 489.24100,320.43900 L 399.99400,321.68500 L 374.16200,301.90700 L 495.99200,300.59400 L 518.58600,232.14400 L 530.72300,259.82100 L 499.75400,356.44100 z M 641.67000,225.36100 L 630.07100,216.52400 L 584.86000,276.56400 L 595.43700,285.40300 L 641.67000,225.36100 z M 520.35700,321.03400 L 526.85300,300.17900 L 551.50000,300.13400 L 523.34400,215.43500 L 534.39300,184.83400 L 572.45700,300.57300 L 644.53400,301.42700 L 621.81900,321.36000 L 520.35700,321.03400 z M 688.51600,415.92500 L 693.36500,402.17300 L 622.34400,377.57800 L 617.17900,390.35700 L 688.51600,415.92500 z M 560.21800,329.84300 L 582.06000,329.62200 L 589.67100,353.06500 L 661.63500,300.26600 L 694.15000,301.38600 L 595.68700,373.14500 L 617.00200,442.00300 L 591.05800,426.50400 L 560.21800,329.84300 z M 523.59100,519.15800 L 538.17100,519.37100 L 538.84500,444.21500 L 525.08600,443.39300 L 523.59100,519.15800 z M 564.28800,370.11400 L 571.45900,390.74700 L 551.66500,405.43200 L 624.64800,456.81300 L 633.95100,487.98900 L 534.55000,417.53500 L 476.07800,459.68700 L 482.49900,430.15600 L 564.28800,370.11400 z M 372.77100,394.19700 L 377.08300,408.12700 L 448.75500,385.49500 L 445.27500,372.15700 L 372.77100,394.19700 z M 527.09100,386.74200 L 509.69400,399.94900 L 489.60000,385.67600 L 463.34500,470.98200 L 436.58200,489.48100 L 472.79300,373.14900 L 414.60600,330.60400 L 444.67400,327.56500 L 527.09100,386.74200 z " />
  </g>
</svg>
