<?xml version="1.0" encoding="UTF-8" standalone="no"?>
<!DOCTYPE svg PUBLIC "-//W3C//DTD SVG 20010904//EN"
"http://www.w3.org/TR/2001/REC-SVG-20010904/DTD/svg10.dtd"
[
 <!ATTLIST svg
  xmlns:xlink CDATA #FIXED "http://www.w3.org/1999/xlink">
]>
<!-- Created with Sodipodi ("http://www.sodipodi.com/") -->
<svg
   xmlns="http://www.w3.org/2000/svg"
   xmlns:xlink="http://www.w3.org/1999/xlink"
   version="1"
   x="0"
   y="0"
   width="1062.99"
   height="708.661"
   id="svg378">
  <defs
     id="defs380" />
  <rect
     width="1062.99"
     height="708.661"
     x="0"
     y="0"
     style="font-size:12;fill:#0000a9;fill-rule:evenodd;stroke-width:1pt;"
     id="rect171" />
  <polygon
     points="266.186,534.45 255.778,527.018 245.421,534.523 249.273,522.327 238.935,514.796 251.725,514.691 255.692,502.532 259.744,514.663 272.534,514.679 262.249,522.281 266.186,534.45 "
     transform="matrix(2.33688,0,0,2.33688,-67.7124,-1095.08)"
     style="font-size:12;fill:#fcde00;fill-rule:evenodd;stroke-width:0.524368;"
     id="polygon147" />
  <polygon
     points="266.186,534.45 255.778,527.018 245.421,534.523 249.273,522.327 238.935,514.796 251.725,514.691 255.692,502.532 259.744,514.663 272.534,514.679 262.249,522.281 266.186,534.45 "
     transform="matrix(2.33688,0,0,2.33688,-186.879,-1062.91)"
     style="font-size:12;fill:#fcde00;fill-rule:evenodd;stroke-width:0.524368;"
     id="polygon160" />
  <polygon
     points="266.186,534.45 255.778,527.018 245.421,534.523 249.273,522.327 238.935,514.796 251.725,514.691 255.692,502.532 259.744,514.663 272.534,514.679 262.249,522.281 266.186,534.45 "
     transform="matrix(2.33688,0,0,2.33688,48.5295,-1063.64)"
     style="font-size:12;fill:#fcde00;fill-rule:evenodd;stroke-width:0.524368;"
     id="polygon161" />
  <polygon
     points="266.186,534.45 255.778,527.018 245.421,534.523 249.273,522.327 238.935,514.796 251.725,514.691 255.692,502.532 259.744,514.663 272.534,514.679 262.249,522.281 266.186,534.45 "
     transform="matrix(2.33688,0,0,2.33688,134.797,-975.914)"
     style="font-size:12;fill:#fcde00;fill-rule:evenodd;stroke-width:0.524368;"
     id="polygon162" />
  <polygon
     points="266.186,534.45 255.778,527.018 245.421,534.523 249.273,522.327 238.935,514.796 251.725,514.691 255.692,502.532 259.744,514.663 272.534,514.679 262.249,522.281 266.186,534.45 "
     transform="matrix(2.33688,0,0,2.33688,166.965,-858.21)"
     style="font-size:12;fill:#fcde00;fill-rule:evenodd;stroke-width:0.524368;"
     id="polygon163" />
  <polygon
     points="266.186,534.45 255.778,527.018 245.421,534.523 249.273,522.327 238.935,514.796 251.725,514.691 255.692,502.532 259.744,514.663 272.534,514.679 262.249,522.281 266.186,534.45 "
     transform="matrix(2.33688,0,0,2.33688,134.797,-739.774)"
     style="font-size:12;fill:#fcde00;fill-rule:evenodd;stroke-width:0.524368;"
     id="polygon164" />
  <polygon
     points="266.186,534.45 255.778,527.018 245.421,534.523 249.273,522.327 238.935,514.796 251.725,514.691 255.692,502.532 259.744,514.663 272.534,514.679 262.249,522.281 266.186,534.45 "
     transform="matrix(2.33688,0,0,2.33688,47.798,-653.507)"
     style="font-size:12;fill:#fcde00;fill-rule:evenodd;stroke-width:0.524368;"
     id="polygon165" />
  <polygon
     points="266.186,534.45 255.778,527.018 245.421,534.523 249.273,522.327 238.935,514.796 251.725,514.691 255.692,502.532 259.744,514.663 272.534,514.679 262.249,522.281 266.186,534.45 "
     transform="matrix(2.33688,0,0,2.33688,-68.4439,-622.07)"
     style="font-size:12;fill:#fcde00;fill-rule:evenodd;stroke-width:0.524368;"
     id="polygon166" />
  <polygon
     points="266.186,534.45 255.778,527.018 245.421,534.523 249.273,522.327 238.935,514.796 251.725,514.691 255.692,502.532 259.744,514.663 272.534,514.679 262.249,522.281 266.186,534.45 "
     transform="matrix(2.33688,0,0,2.33688,-187.61,-654.238)"
     style="font-size:12;fill:#fcde00;fill-rule:evenodd;stroke-width:0.524368;"
     id="polygon167" />
  <polygon
     points="266.186,534.45 255.778,527.018 245.421,534.523 249.273,522.327 238.935,514.796 251.725,514.691 255.692,502.532 259.744,514.663 272.534,514.679 262.249,522.281 266.186,534.45 "
     transform="matrix(2.33688,0,0,2.33688,-272.416,-740.505)"
     style="font-size:12;fill:#fcde00;fill-rule:evenodd;stroke-width:0.524368;"
     id="polygon168" />
  <polygon
     points="266.186,534.45 255.778,527.018 245.421,534.523 249.273,522.327 238.935,514.796 251.725,514.691 255.692,502.532 259.744,514.663 272.534,514.679 262.249,522.281 266.186,534.45 "
     transform="matrix(2.33688,0,0,2.33688,-303.852,-859.671)"
     style="font-size:12;fill:#fcde00;fill-rule:evenodd;stroke-width:0.524368;"
     id="polygon169" />
  <polygon
     points="266.186,534.45 255.778,527.018 245.421,534.523 249.273,522.327 238.935,514.796 251.725,514.691 255.692,502.532 259.744,514.663 272.534,514.679 262.249,522.281 266.186,534.45 "
     transform="matrix(2.33688,0,0,2.33688,-270.222,-978.838)"
     style="font-size:12;fill:#fcde00;fill-rule:evenodd;stroke-width:0.524368;"
     id="polygon170" />
</svg>
