<?xml version="1.0" encoding="UTF-8" standalone="no"?>
<!DOCTYPE svg PUBLIC "-//W3C//DTD SVG 20010904//EN"
"http://www.w3.org/TR/2001/REC-SVG-20010904/DTD/svg10.dtd">
<!-- Created with Sodipodi ("http://www.sodipodi.com/") --><svg height="140mm" id="svg378" inkscape:version="0.37cvs" sodipodi:docbase="tmp/" sodipodi:docname="tmp/flanders.svg" sodipodi:version="0.33pre" version="1" width="210mm" x="0" xmlns="http://www.w3.org/2000/svg" xmlns:inkscape="http://www.inkscape.org/namespaces/inkscape" xmlns:sodipodi="http://sodipodi.sourceforge.net/DTD/sodipodi-0.dtd" xmlns:xlink="http://www.w3.org/1999/xlink" y="0">
  <metadata>
    <rdf:RDF xmlns:cc="http://web.resource.org/cc/" xmlns:dc="http://purl.org/dc/elements/1.1/" xmlns:rdf="http://www.w3.org/1999/02/22-rdf-syntax-ns#">
      <cc:Work rdf:about="">
        <dc:title>Clipart by Cedric de Launois - Belgium - Flanders</dc:title>
        <dc:description></dc:description>
        <dc:subject>
          <rdf:Bag>
            <rdf:li></rdf:li>
            <rdf:li>0x8f45c80</rdf:li>
            <rdf:li>europe</rdf:li>
            <rdf:li>belgium</rdf:li>
            <rdf:li>flag</rdf:li>
            <rdf:li>sign</rdf:li>
          </rdf:Bag>
        </dc:subject>
        <dc:publisher>
          <cc:Agent rdf:about="http://www.openclipart.org">
            <dc:title>Cedric de Launois</dc:title>
          </cc:Agent>
        </dc:publisher>
        <dc:creator>
          <cc:Agent>
            <dc:title>Cedric de Launois</dc:title>
          </cc:Agent>
        </dc:creator>
        <dc:rights>
          <cc:Agent>
            <dc:title>Cedric de Launois</dc:title>
          </cc:Agent>
        </dc:rights>
        <dc:date></dc:date>
        <dc:format>image/svg+xml</dc:format>
        <dc:type rdf:resource="http://purl.org/dc/dcmitype/StillImage"/>
        <cc:license rdf:resource="http://web.resource.org/cc/PublicDomain"/>
        <dc:language>en</dc:language>
      </cc:Work>
      <cc:License rdf:about="http://web.resource.org/cc/PublicDomain">
        <cc:permits rdf:resource="http://web.resource.org/cc/Reproduction"/>
        <cc:permits rdf:resource="http://web.resource.org/cc/Distribution"/>
        <cc:permits rdf:resource="http://web.resource.org/cc/DerivativeWorks"/>
      </cc:License>
    </rdf:RDF>
  </metadata>
  <sodipodi:namedview id="base" showgrid="false" snaptogrid="false"/>
  <defs id="defs380"/>
  <rect height="496.062561" id="rect135" style="font-size:12;fill:#ffff00;fill-rule:evenodd;stroke-width:1pt;fill-opacity:1;" width="744.094360" x="0.000076" y="-0.000008"/>
  <path d="M 321.654 129.21486 C 319.35561 125.00426 300.56738 107.09497 285.09138 108.27729 C 281.39977 108.7084 268.44227 99.325631 268.84133 86.402211 C 269.14403 76.125011 273.92915 73.81616 286.96639 72.027161 C 291.13821 71.151723 300.12957 77.740209 300.43252 84.224239 C 300.66117 88.646419 294.33607 97.918238 296.04798 99.214761 C 301.92162 104.19562 316.99681 113.51228 323.23557 122.00827 C 324.44339 123.57464 323.62245 125.33085 323.54807 126.72438 C 323.39575 129.89055 322.81072 130.88089 321.654 129.21486 z " id="path635" sodipodi:nodetypes="cssssssss" style="font-size:12;fill:#ff0000;fill-rule:evenodd;stroke:#000000;stroke-width:1pt;stroke-opacity:1;fill-opacity:1;"/>
  <path d="M 505.15253 27.276837 C 485.20192 27.205657 452.67879 40.795507 450.15253 78.526837 C 448.97234 95.569807 445.43983 120.59582 438.09003 137.15183 C 437.26451 133.90646 436.40559 130.3601 436.34003 126.55808 C 436.24688 125.09923 430.18392 125.26718 431.05878 124.33933 C 433.49539 122.22387 435.46639 120.26259 434.59003 111.96433 C 427.42038 117.32471 420.88971 115.95399 420.43378 113.74558 C 420.40362 108.0318 419.45474 92.801087 422.21503 92.526837 C 427.19234 91.590377 447.4836 81.364137 433.71503 65.558087 C 432.5531 64.265707 434.55179 79.272397 424.43378 79.714337 C 422.27881 79.714337 418.67206 76.015167 423.96503 70.433087 C 429.8403 64.207687 429.46679 45.038477 420.43378 35.089337 C 420.23463 34.880217 419.91912 34.781067 419.46503 34.808087 C 416.28642 34.997247 407.46691 40.266577 401.87128 40.808087 C 385.43241 42.398947 353.61056 39.196407 351.93378 41.714337 C 341.57111 56.833497 325.87638 55.618107 318.80878 57.620587 C 317.03746 58.122467 317.22292 65.488947 317.46503 69.120587 C 317.51755 69.908397 320.18908 68.362267 319.68378 70.870587 C 319.68379 73.064417 318.11024 72.423807 317.46503 74.839337 C 316.77307 79.084427 318.21875 91.047237 316.15253 93.401837 C 314.53646 95.744537 315.71477 99.641157 318.80878 100.93308 C 320.84939 101.49368 318.90843 94.960777 327.18378 99.151837 C 330.12268 100.72421 334.21332 105.50305 334.27753 108.87058 C 334.58252 125.75033 310.4542 136.23235 306.87128 131.87058 C 303.57234 127.04068 295.53386 116.60853 286.52753 116.83933 C 281.18966 116.99101 272.52015 125.22674 272.40253 131.87058 C 272.38203 132.85888 271.22682 135.11186 269.62128 137.87058 C 269.35516 137.27447 268.95599 136.71957 268.40253 136.27683 C 245.6469 118.42689 246.66157 105.04008 246.74628 88.558087 C 247.23173 79.651437 259.7357 79.377027 258.24628 71.308087 C 257.03314 65.095927 245.69762 56.728557 236.15253 56.745587 C 232.01036 56.753337 227.4574 59.334807 228.18378 65.120587 C 228.31298 67.748597 223.77521 67.044507 223.77753 66.026837 C 224.22691 62.760557 222.85073 55.631357 226.43378 53.651837 C 228.00811 52.659697 223.95615 49.419107 221.99628 49.214337 C 214.08609 48.387907 199.62756 46.212737 196.80878 50.558087 C 195.46581 52.186427 196.11477 61.416417 198.59003 62.026837 C 201.02333 62.535997 198.37119 70.899997 197.71503 69.120587 C 193.12712 57.435127 187.35964 59.628677 183.55878 62.495587 C 179.47327 65.256217 171.1393 72.303097 172.05878 77.495587 C 173.07038 83.694587 171.90986 90.158287 189.74628 89.433087 C 191.39543 89.364337 190.11384 93.453827 188.87128 94.308087 C 185.39978 96.694747 180.39611 97.960177 176.21503 98.276837 C 175.82937 106.94635 174.59122 124.57588 188.87128 124.80808 C 193.80849 124.67227 194.56012 122.32248 196.37128 119.93308 C 197.55692 118.67571 199.16402 117.7833 202.55878 119.05808 C 198.31524 129.30804 193.7579 130.80002 180.90253 130.52683 C 181.3835 133.89361 190.8151 143.13188 203.90253 142.02683 C 204.80997 145.63622 194.73676 156.41733 192.84003 150.87058 C 192.21317 148.89133 189.421 152.17793 187.96503 154.40183 C 189.86293 157.77588 198.57225 162.915 200.34003 164.12058 C 201.30094 164.99434 193.44579 165.58941 187.09003 162.37058 C 190.49061 184.92819 203.94168 183.10251 212.71503 182.68308 C 215.35938 182.57779 213.00781 185.77174 207.43378 187.99558 C 214.17804 198.77021 228.01559 193.26277 235.90253 188.43308 C 236.49037 188.34583 236.99593 188.05225 237.55878 187.90183 C 237.15987 188.62025 236.51772 189.52545 236.15253 190.21433 C 233.79589 194.65982 237.5169 200.78478 233.49628 206.12058 C 231.19463 208.66913 218.95477 225.74813 212.27753 196.40183 C 195.48172 217.10635 205.00909 236.644 226.87128 237.05808 C 237.58193 238.14485 251.9655 229.16688 258.68378 219.37058 C 267.50559 219.96445 272.61701 208.88536 275.93378 212.30808 C 277.67226 213.91715 278.41398 217.11218 279.09003 220.15183 C 279.07471 220.1706 279.04272 220.22696 279.02753 220.24558 C 264.66824 238.39046 230.19911 266.5555 215.37128 255.18308 C 212.94832 253.19323 221.10563 244.33233 215.37128 241.02683 C 211.14293 238.3347 195.22488 243.52096 188.87128 248.52683 C 185.50213 251.18131 189.80826 262.78765 187.09003 264.90183 C 184.50494 266.91245 178.08801 258.78265 172.96503 262.24558 C 167.57074 266.35727 168.32345 278.83508 170.30878 285.21433 C 171.90024 288.90795 175.82988 286.27121 176.49628 287.87058 C 177.30301 289.80677 175.91588 293.54906 176.93378 295.83933 C 179.45143 301.50405 180.84555 311.66064 185.77753 312.18308 C 195.37657 313.15308 202.14307 315.39906 201.68378 302.46433 C 203.44582 300.4002 202.03185 294.2051 207.43378 294.05808 C 209.14181 293.87186 208.46795 303.06914 208.74628 307.30808 C 208.59002 311.35644 223.56928 313.18806 225.99628 313.05808 C 234.84024 313.02637 235.67323 303.86158 236.15253 290.52683 C 240.97655 289.57209 239.18232 308.25756 246.30878 310.40183 C 246.90423 291.92213 256.10272 293.10546 256.93378 285.65183 C 259.93289 289.56989 262.40944 293.39222 260.46503 294.49558 C 258.26898 295.29981 257.1785 307.46143 267.96503 303.33933 C 264.02786 300.10088 264.35554 297.5512 265.49628 297.18308 C 268.06359 296.79655 272.18114 290.73368 272.40253 288.30808 C 275.22801 288.26691 279.42282 287.51751 279.02753 288.30808 C 277.7017 290.5178 275.04089 297.14444 279.90253 298.02683 C 285.12243 298.89403 283.00192 288.79723 286.52753 284.33933 C 288.84005 280.99623 292.6116 278.32369 294.05878 274.18308 C 294.87481 272.09751 298.82296 284.54879 300.24628 283.90183 C 303.38972 277.77234 302.51248 269.41576 304.65253 268.87058 C 307.75995 267.1951 307.07997 275.28742 309.96503 276.37058 C 312.67792 272.48845 314.03518 264.68494 317.46503 264.90183 C 320.4868 265.12118 319.93587 264.41459 324.09003 268.43308 C 325.07241 263.06314 331.48103 254.04485 331.15253 239.24558 C 333.2659 238.52207 339.60566 256.07012 339.99628 253.40183 C 340.39003 244.73929 351.17314 240.56367 349.30878 221.71433 C 375.23128 226.08282 374.51418 220.74552 376.02753 221.90183 C 389.69504 231.46091 388.63287 226.85931 406.77753 242.27683 C 407.61358 243.11643 407.59182 244.94472 407.21503 247.21433 C 407.20448 247.21345 407.19437 247.21514 407.18378 247.21433 C 376.88363 244.86393 349.63003 270.75017 341.34003 282.55808 C 339.46048 285.45349 314.57178 283.69007 304.02753 287.18308 C 284.97918 293.28622 272.87875 315.26786 258.49628 323.05808 C 251.90247 326.0046 238.05392 323.88222 233.74628 322.15183 C 231.17456 343.30601 242.30889 345.20722 251.62128 345.68308 C 273.32186 346.82393 274.81806 336.01533 281.21503 337.80808 C 286.38078 338.63077 300.22525 353.42271 299.77753 358.15183 C 299.3892 362.79575 292.39601 371.56734 288.30878 373.68308 C 282.60276 376.24502 274.19091 375.26903 267.09003 374.93308 C 266.97054 370.82859 268.05567 367.10046 265.93378 365.21433 C 262.75235 362.38639 256.98605 363.13949 251.18378 360.80808 C 248.07901 359.40995 243.13261 362.68503 241.46503 365.46433 C 239.59706 368.57761 239.20488 375.00436 240.55878 378.46433 C 241.85654 381.78083 249.63419 384.23059 249.40253 386.43308 C 241.75938 390.63224 230.57709 384.27447 228.18378 386.43308 C 222.77415 391.9372 226.21618 406.79883 229.09003 413.83933 C 231.27681 417.66545 234.7982 416.05094 237.27753 416.02683 C 238.484 418.88263 237.18935 423.09876 239.05878 425.30808 C 242.05072 428.84401 249.47406 433.52707 253.37128 432.83933 C 256.98708 432.20123 259.14639 431.15311 261.34003 422.65183 C 262.37315 418.64812 267.75073 430.2435 270.18378 431.05808 C 276.31095 431.99651 285.82131 431.76581 290.05878 429.30808 C 296.31204 423.74369 287.88934 418.62467 291.40253 414.71433 C 294.25526 414.75443 297.15854 422.82014 301.99628 425.74558 C 302.75648 422.08358 301.22403 414.58808 302.87128 413.83933 C 304.46495 418.41824 309.24897 422.0041 313.05878 420.90183 C 312.34257 414.19645 313.02559 402.48971 313.49628 399.68308 C 315.67725 399.10149 319.8395 414.84659 324.09003 415.58933 C 324.18527 407.25991 323.80021 397.87772 325.87128 396.15183 C 327.33576 401.56059 332.58804 408.03625 335.59003 407.18308 C 334.50314 397.28231 336.68569 395.67101 339.55878 388.18308 C 342.30629 381.46444 343.00232 374.03507 346.18378 372.27683 C 349.0209 370.90013 353.95079 374.31119 348.90253 380.71433 C 347.06133 382.48915 347.85976 388.88657 349.27753 393.93308 C 352.21356 387.45978 367.50551 380.86881 367.84003 371.40183 C 368.31273 358.46572 352.92029 344.17999 350.18378 340.46433 C 347.74485 337.15272 346.33939 325.744 349.71503 323.68308 C 360.26297 317.24327 371.66169 312.20408 397.93378 312.80808 C 408.14828 329.33774 418.27027 340.51313 415.15253 351.65183 C 411.28538 364.5841 399.51445 357.34581 393.90253 350.40183 C 390.98175 368.43183 398.86099 376.58159 406.40253 378.52683 C 426.95575 383.60029 429.61722 371.76115 433.90253 371.02683 C 452.33403 367.0478 464.6412 371.85458 481.77753 363.52683 C 484.5626 362.09976 489.26541 389.97399 473.90253 397.99558 C 471.62597 401.59014 463.19023 400.82068 459.77753 399.24558 C 457.77353 398.32066 460.72496 394.39227 457.65253 392.27683 C 448.01659 385.64225 441.0197 397.14473 433.90253 401.02683 C 433.103 405.89477 429.74447 407.11257 429.52753 409.15183 C 428.7028 416.90428 440.75317 417.93836 440.15253 421.02683 C 432.00315 422.31338 427.42936 415.94993 421.40253 417.90183 C 422.42933 424.2833 417.49999 422.02012 418.27753 427.27683 C 419.71543 432.66609 425.82357 443.22218 430.77753 446.65184 C 433.94859 446.34714 437.38121 446.20454 440.15253 443.52683 C 443.00624 453.28784 462.09477 455.19914 468.90253 454.15184 C 468.55311 442.28248 469.34404 438.34907 475.77753 438.52683 C 474.96906 446.89074 478.56258 450.10174 482.02753 451.65184 C 486.47929 453.64344 495.18734 454.68554 498.27753 451.65184 C 505.37832 445.30574 506.02836 439.65028 503.27753 437.90183 C 504.15336 433.81694 509.24054 433.46389 509.52753 430.40183 C 511.35155 417.60816 507.45576 413.5234 508.27753 405.40183 C 510.37243 404.14836 516.93061 430.99454 523.27753 427.27683 C 523.18066 420.57785 523.43391 414.58706 527.02753 411.65183 C 530.92296 420.15011 538.17122 422.02288 541.40253 422.90183 C 529.62955 409.52282 539.0418 409.53722 540.15253 400.40183 C 540.56205 398.24651 546.8917 407.62681 550.77753 407.27683 C 551.12991 400.87889 551.82865 382.63604 550.15253 380.40183 C 544.86054 372.72281 546.27647 365.2893 549.52753 366.02683 C 555.36592 367.20952 551.21383 383.23707 559.52753 387.90183 C 563.07453 373.26795 567.36923 366.92704 567.02753 364.15183 C 565.22904 348.91992 551.43542 343.25002 536.40253 344.77683 C 534.50321 344.96203 505.51924 320.11863 482.02753 322.27683 C 484.10424 315.14237 488.42468 302.57727 490.90253 289.58933 C 510.71581 315.7129 532.79678 322.56398 561.40253 330.02683 C 575.05815 335.0416 567.71764 343.55152 568.90253 351.65183 C 570.63429 355.63488 576.24143 360.15975 581.40253 361.65183 C 581.65813 356.8264 577.94064 355.21118 578.27753 348.52683 C 579.09201 342.86675 584.03717 335.3163 583.90253 330.40183 C 583.62051 320.10793 576.07238 312.096 568.90253 312.90183 C 584.82238 284.17927 583.54224 267.99973 562.65253 238.52683 C 559.58384 232.79131 563.44779 212.39661 586.40253 224.15183 C 580.63534 199.89658 548.22388 207.10446 544.52753 222.27683 C 538.43216 220.2295 536.49643 208.6136 540.15253 203.52683 C 546.07977 195.28023 559.52747 183.6564 583.27753 194.15183 C 580.15253 186.36475 567.64123 166.97257 538.90253 177.27683 C 540.97449 164.26422 594.05543 150.2087 590.15253 84.151837 C 587.90957 88.229397 556.87594 148.46804 536.40253 148.52683 C 542.5009 138.36384 565.76846 101.05136 565.77753 80.401837 C 565.78576 62.934747 546.67223 27.429437 505.15253 27.276837 z M 523.90253 61.651837 C 536.40255 60.962187 547.4566 71.356327 547.65253 84.151837 C 537.45655 114.27308 491.05449 158.53698 491.40253 194.15183 C 491.76865 230.73214 543.8539 270.16952 544.99628 277.37058 C 547.90357 286.12156 533.46548 295.37008 526.40253 295.40183 C 517.87656 295.43666 504.08067 272.01353 491.71503 262.46433 C 491.19976 260.17479 490.51003 257.98689 489.52753 256.02683 C 460.08604 198.53848 439.42441 192.26355 416.80878 170.02683 C 413.07371 166.35689 412.75296 171.54909 408.96503 163.02683 C 411.60163 161.38752 411.41678 158.78636 412.49628 159.71433 C 424.19494 170.21283 431.53754 159.27567 431.49628 151.74558 C 431.48901 150.57356 424.87986 155.15219 420.43378 153.52683 C 419.16711 153.10564 422.38028 144.91435 423.96503 146.43308 C 425.10355 147.9477 434.41629 149.53395 438.12128 148.21433 C 438.74508 147.87757 439.07758 147.34522 439.30878 146.71433 C 446.13363 146.33462 447.35657 140.97215 452.02753 141.02683 C 445.80192 158.45887 456.06713 183.62253 465.77753 183.52683 C 461.06714 160.70582 463.74268 150.89726 473.27753 138.90183 C 476.65939 134.64723 477.15032 123.77242 482.02753 119.77683 C 488.40034 128.77243 482.27008 143.90702 483.27753 158.52683 C 493.31176 151.19869 506.09397 118.23607 497.65253 99.151837 C 507.13563 99.694367 521.46346 98.758967 527.65253 81.651837 C 517.71346 82.925607 511.59223 78.436787 511.40253 75.401837 C 511.17555 71.770097 519.24329 62.374827 523.90253 61.651837 z " id="path636" style="font-size:12;fill:#000000;fill-rule:evenodd;stroke:#ffffff;stroke-width:1pt;stroke-opacity:1;fill-opacity:1;"/>
  <path d="M 175.40453 71.399671 C 169.15447 66.399621 171.91934 63.548967 166.29429 57.923917 C 175.66938 58.028087 178.26471 61.257277 182.01474 63.861477 C 181.80641 68.861517 179.98791 72.024671 175.40453 71.399671 z " id="path637" sodipodi:nodetypes="cccc" style="font-size:12;fill:#ff0000;fill-rule:evenodd;stroke:#000000;stroke-width:1pt;stroke-opacity:1;fill-opacity:1;"/>
  <path d="M 203.84229 49.211961 C 203.21729 43.170241 203.17917 40.499331 201.30415 36.332621 C 210.67924 36.749291 215.77459 45.670261 218.27461 49.836971 C 215.77459 51.086981 205.0923 52.336991 203.84229 49.211961 z " id="path638" sodipodi:nodetypes="cccc" style="font-size:12;fill:#ff0000;fill-rule:evenodd;stroke:#000000;stroke-width:1pt;stroke-opacity:1;fill-opacity:1;"/>
  <path d="M 241.96765 57.962041 C 245.09267 55.045351 247.71957 51.054751 247.71957 42.513001 C 251.67794 48.242221 257.77677 56.291255 253.29493 60.975188 C 251.90622 62.21229 254.22404 64.687756 254.0216 66.515588 C 252.35492 68.598938 239.8843 60.878741 241.96765 57.962041 z " id="path639" sodipodi:nodetypes="ccscc" style="font-size:12;fill:#ff0000;fill-rule:evenodd;stroke:#000000;stroke-width:1pt;stroke-opacity:1;fill-opacity:1;"/>
  <path d="M 178.56767 117.64056 C 171.87236 119.62928 165.82111 112.54588 165.09193 103.58746 C 169.164 106.37139 171.68309 106.06842 176.05813 106.69343 C 177.73434 108.75772 180.33853 116.80722 178.56767 117.64056 z " id="path640" sodipodi:nodetypes="cccc" style="font-size:12;fill:#ff0000;fill-rule:evenodd;stroke:#000000;stroke-width:1pt;stroke-opacity:1;fill-opacity:1;"/>
  <path d="M 196.6632 247.03718 C 192.87835 244.32455 190.42892 238.11787 184.16315 231.69602 C 196.98191 230.6369 205.82069 238.02462 207.06152 242.0181 C 207.65367 243.62091 201.42005 246.61623 196.6632 247.03718 z " id="path641" sodipodi:nodetypes="ccsc" style="font-size:12;fill:#ff0000;fill-rule:evenodd;stroke:#000000;stroke-width:1pt;stroke-opacity:1;fill-opacity:1;"/>
  <path d="M 154.1535 282.65278 C 152.97894 272.43944 166.04875 269.91753 169.19168 267.65273 C 172.09043 267.41751 172.7576 277.68258 171.36966 279.52777 C 164.63257 279.76592 161.52064 280.14781 154.1535 282.65278 z " id="path642" sodipodi:nodetypes="cccc" style="font-size:12;fill:#ff0000;fill-rule:evenodd;stroke:#000000;stroke-width:1pt;stroke-opacity:1;fill-opacity:1;"/>
  <path d="M 176.97562 298.15395 C 173.81612 298.71816 167.09615 307.3793 175.40358 321.09044 C 177.92953 313.62933 182.34553 313.18487 185.13878 311.05227 C 186.72054 304.01817 179.64948 297.67648 176.97562 298.15395 z " id="path643" sodipodi:nodetypes="cccs" style="font-size:12;fill:#ff0000;fill-rule:evenodd;stroke:#000000;stroke-width:1pt;stroke-opacity:1;fill-opacity:1;"/>
  <path d="M 352.73829 46.005928 C 352.0154 45.920861 347.83507 58.246768 352.15144 60.467599 C 355.18125 62.240713 355.4649 65.34453 353.65589 66.422477 C 351.11377 68.151497 351.77587 69.940453 351.82069 72.513885 C 351.86767 74.996867 349.79099 75.374034 350.22817 76.862993 C 351.68411 82.535172 370.08457 77.885991 378.78935 82.311703 C 380.02643 82.910217 375.99219 72.237495 372.33015 68.168566 C 369.10451 64.584528 363.25441 63.630498 359.41173 60.638198 C 355.32519 57.837062 358.19991 46.862858 352.73829 46.005928 z " id="path930" sodipodi:nodetypes="cssssssss" style="font-size:12;fill:#ffffff;stroke:#ffffff;stroke-opacity:1;"/>
  <path d="M 204.7787 318.27793 C 212.22158 315.304 211.55372 316.15524 211.35076 308.8457 C 215.82456 308.75937 220.91374 310.46362 225.52768 312.60525 C 226.55782 315.46364 213.08351 325.44633 204.7787 318.27793 z " id="path644" sodipodi:nodetypes="cccc" style="font-size:12;fill:#ff0000;fill-rule:evenodd;stroke:#000000;stroke-width:1pt;stroke-opacity:1;fill-opacity:1;"/>
  <path d="M 245.09251 446.71574 C 237.59244 442.34065 233.80703 434.28635 238.18207 426.78629 C 243.81891 426.94744 251.33077 430.69747 252.16412 433.1975 C 250.08076 436.32253 242.80082 439.84063 245.09251 446.71574 z " id="path645" sodipodi:nodetypes="cccc" style="font-size:12;fill:#ff0000;fill-rule:evenodd;stroke:#000000;stroke-width:1pt;stroke-opacity:1;fill-opacity:1;"/>
  <path d="M 206.65468 410.15288 C 211.65472 398.79861 215.53053 398.96175 224.28061 393.23253 C 225.73895 398.83399 226.80422 404.00699 226.61947 410.89384 C 221.83955 406.5758 213.73807 407.75703 206.65468 410.15288 z " id="path646" sodipodi:nodetypes="cccc" style="font-size:12;fill:#ff0000;fill-rule:evenodd;stroke:#000000;stroke-width:1pt;stroke-opacity:1;fill-opacity:1;"/>
  <path d="M 245.71752 368.27752 C 239.88414 364.63166 234.67575 359.73578 230.71739 355.46491 C 241.75915 353.79823 246.90855 359.0066 249.20023 361.08995 C 249.61691 364.52749 252.80091 369.84003 245.71752 368.27752 z " id="path647" sodipodi:nodetypes="cccc" style="font-size:12;fill:#ff0000;fill-rule:evenodd;stroke:#000000;stroke-width:1pt;stroke-opacity:1;fill-opacity:1;"/>
  <path d="M 268.84272 444.52818 C 273.63442 439.11147 275.30111 437.0517 271.96774 429.75998 C 276.96778 428.92663 281.96783 428.52175 286.96787 429.56343 C 282.7304 437.6885 281.33104 442.84971 268.84272 444.52818 z " id="path648" sodipodi:nodetypes="cccc" style="font-size:12;fill:#ff0000;fill-rule:evenodd;stroke:#000000;stroke-width:1pt;stroke-opacity:1;fill-opacity:1;"/>
  <path d="M 438.46265 406.28461 C 432.71735 400.68663 428.29789 393.32087 421.22676 389.49067 C 425.57256 387.53875 437.29663 391.87371 444.18362 393.07065 C 451.07061 394.26758 450.54972 391.46956 455.25659 393.24721 C 453.63612 397.88764 442.73479 409.15726 438.46265 406.28461 z " id="path649" sodipodi:nodetypes="ccscc" style="font-size:12;fill:#ff0000;fill-rule:evenodd;stroke:#000000;stroke-width:1pt;stroke-opacity:1;fill-opacity:1;"/>
  <path d="M 406.64256 449.15334 C 408.18311 439.44402 411.18284 435.18487 419.01703 429.8276 C 424.76907 432.60685 427.68215 439.57785 427.20652 442.5309 C 417.99932 441.1314 412.75614 443.92365 406.64256 449.15334 z " id="path650" sodipodi:nodetypes="cccc" style="font-size:12;fill:#ff0000;fill-rule:evenodd;stroke:#000000;stroke-width:1pt;stroke-opacity:1;fill-opacity:1;"/>
  <path d="M 448.1922 450.89417 C 447.01368 464.96277 458.42386 470.21944 466.96815 471.91354 C 462.03308 463.73754 455.82611 463.0612 460.61385 454.0013 C 455.91998 453.34463 452.24337 449.71567 448.1922 450.89417 z " id="path651" sodipodi:nodetypes="cccc" style="font-size:12;fill:#ff0000;fill-rule:evenodd;stroke:#000000;stroke-width:1pt;stroke-opacity:1;fill-opacity:1;"/>
  <path d="M 485.52986 450.70014 C 483.98305 456.96104 481.11041 462.33804 481.33138 467.27314 C 489.2864 462.48534 495.0317 457.25564 497.24142 451.58404 C 495.25267 449.22704 487.96056 447.31194 485.52986 450.70014 z " id="path652" sodipodi:nodetypes="cccc" style="font-size:12;fill:#ff0000;fill-rule:evenodd;stroke:#000000;stroke-width:1pt;stroke-opacity:1;fill-opacity:1;"/>
  <path d="M 486.62898 121.29777 C 487.00034 124.29295 486.82432 142.35076 488.06794 141.86409 C 490.01236 141.7731 490.34121 115.98457 486.35408 99.988274 C 482.45385 85.631131 482.38145 69.656508 485.61849 61.23305 C 487.35808 56.281042 490.45546 55.048745 493.51665 50.456965 C 481.68991 55.427185 480.16978 66.08927 480.16978 78.43611 C 480.59824 97.948455 484.04209 96.977873 486.62898 121.29777 z " id="path823" sodipodi:nodetypes="csssccs" style="font-size:12;fill:#ffffff;stroke:#ffffff;stroke-opacity:1;"/>
  <path d="M 336.66706 107.35226 C 337.09553 119.92706 328.79732 132.39977 318.29994 133.03552 C 317.84047 133.06334 317.83867 134.42272 318.29994 134.47448 C 329.45806 135.5122 341.71005 117.53752 336.66706 107.35226 " id="path826" sodipodi:nodetypes="cssc" style="font-size:12;fill:#ffffff;stroke:#ffffff;stroke-opacity:1;"/>
  <path d="M 414.5131 119.04594 C 418.48719 122.65179 422.38581 125.43371 418.18728 125.50515 C 414.93783 125.56408 413.42077 117.99595 414.5131 119.04594 z " id="path828" sodipodi:nodetypes="css" style="font-size:12;fill:#ffffff;stroke:#ffffff;stroke-opacity:1;"/>
  <path d="M 276.61896 137.26995 C 277.17289 139.4122 278.38874 139.81571 278.30891 136.96697 C 278.2243 123.13708 278.92928 127.07037 282.7728 124.53141 C 286.16953 122.48773 285.94455 121.36126 282.48042 121.8389 C 281.30589 122.10357 276.47263 126.53548 274.92902 130.63805 C 273.83703 133.43312 276.15316 133.85605 276.61896 137.26995 z " id="path830" sodipodi:nodetypes="csssss" style="font-size:12;fill:#ffffff;stroke:#ffffff;stroke-opacity:1;"/>
  <path d="M 467.90929 124.42744 C 467.69253 121.37154 455.83083 143.95881 455.08377 149.5969 C 453.22332 163.20918 456.32291 176.09195 458.02235 175.94751 C 461.15063 175.6452 455.40828 165.96615 457.01186 152.56014 C 458.49372 142.78383 467.97374 131.37683 467.90929 124.42744 z " id="path832" sodipodi:nodetypes="cssss" style="font-size:12;fill:#ffffff;stroke:#ffffff;stroke-opacity:1;"/>
  <path d="M 428.50267 128.2295 C 429.71104 127.99823 430.07817 129.65682 429.0847 129.8827 C 427.60267 130.53924 427.1388 128.73234 428.50267 128.2295 z " id="path834" sodipodi:nodetypes="css" style="font-size:12;fill:#ffffff;stroke:#ffffff;stroke-opacity:1;"/>
  <path d="M 415.58426 137.6273 C 412.42045 138.93743 414.05321 141.20191 416.62699 141.36215 C 425.32723 141.93047 423.22302 139.79348 419.62625 139.49472 C 416.88395 139.23613 418.95954 136.83549 415.58426 137.6273 z " id="path838" sodipodi:nodetypes="csss" style="font-size:12;fill:#ffffff;stroke:#ffffff;stroke-opacity:1;"/>
  <path d="M 411.42094 148.09625 C 409.97391 143.89879 406.65329 155.24221 413.16704 155.13749 C 418.44181 155.39965 412.77192 153.25791 411.42094 148.09625 z " id="path843" sodipodi:nodetypes="css" style="font-size:12;fill:#ffffff;stroke:#ffffff;stroke-opacity:1;"/>
  <path d="M 386.31972 153.27006 C 386.49875 153.28706 392.89324 159.85872 394.46055 159.8506 C 400.68446 159.82525 405.66924 159.96601 406.55427 158.87234 C 408.90017 157.10912 395.59115 158.01932 394.98572 157.64761 C 391.34281 155.14791 393.37595 152.7893 386.31972 153.27006 z " id="path845" sodipodi:nodetypes="cssss" style="font-size:12;fill:#ffffff;stroke:#ffffff;stroke-opacity:1;"/>
  <path d="M 297.74404 158.77944 C 298.27805 171.10016 288.04905 178.69452 285.95748 182.26342 C 282.41496 187.94527 282.46068 191.71464 281.81287 194.69267 C 281.16506 197.67071 283.00833 200.05626 283.11177 196.83129 C 283.37516 188.40525 288.57541 181.95039 290.57853 178.73852 C 291.22707 177.7991 294.71409 178.20009 298.94239 165.94962 C 299.45787 164.52816 301.56178 162.83024 300.2773 162.71777 C 298.69332 162.71118 298.7975 159.71981 298.86415 158.75494 C 299.13706 155.01806 297.64605 155.00365 297.74404 158.77944 z " id="path846" sodipodi:nodetypes="cssssssss" style="font-size:12;fill:#ffffff;stroke:#ffffff;stroke-opacity:1;"/>
  <path d="M 318.29994 156.42286 C 316.92542 168.81358 324.32396 172.03731 325.18761 179.81022 C 325.85455 185.81265 324.56527 194.44015 322.0348 196.89195 C 319.63542 198.81046 312.96289 189.5277 306.39203 191.71814 C 290.29098 197.08554 289.62678 215.56831 302.22871 223.5857 C 303.45378 224.40675 298.21682 227.32281 296.78001 226.73852 C 280.60239 220.58821 282.09987 209.0973 280.12674 210.66729 C 275.80975 213.48945 287.06154 229.75122 299.0759 229.03441 C 307.03731 228.27548 312.404 226.82323 312.42277 223.43213 C 312.43051 221.85817 303.73184 221.50293 301.37179 219.85085 C 291.52918 212.96084 297.91651 192.79763 310.55535 195.60656 C 314.04743 196.38266 317.52793 201.97935 318.29994 203.93319 C 318.88142 206.48917 321.07374 205.63987 321.60633 204.36165 C 324.90022 196.45631 328.494 192.59794 328.494 183.6664 C 328.494 178.8226 324.33069 168.91281 322.0348 164.32103 C 320.93267 161.25984 318.70232 153.65761 318.29994 156.42286 z " id="path848" sodipodi:nodetypes="csssssssssssssss" style="font-size:12;fill:#ffffff;stroke:#ffffff;stroke-opacity:1;"/>
  <path d="M 373.40131 155.56595 C 372.44011 154.48809 372.78446 165.27912 378.70026 168.91283 C 385.80933 173.70795 392.14881 166.88691 390.48304 167.0454 C 376.95956 168.37289 376.68694 159.67883 373.40131 155.56595 z " id="path849" sodipodi:nodetypes="csss" style="font-size:12;fill:#ffffff;stroke:#ffffff;stroke-opacity:1;"/>
  <path d="M 261.1776 200.26275 C 260.67348 210.75348 257.44136 214.48788 259.40305 214.40215 C 261.96263 214.28092 265.35981 203.49974 266.65851 188.53313 C 268.03618 175.12545 283.07778 163.62026 279.20913 164.96374 C 274.3819 166.5657 261.92607 180.22881 261.1776 200.26275 z " id="path851" sodipodi:nodetypes="cssss" style="font-size:12;fill:#ffffff;stroke:#ffffff;stroke-opacity:1;"/>
  <path d="M 196.99664 176.55585 C 192.6128 172.95331 196.94741 174.06498 199.03676 175.69413 C 202.03403 178.26746 200.26955 178.99646 196.99664 176.55585 z " id="path852" sodipodi:nodetypes="css" style="font-size:12;fill:#ffffff;stroke:#ffffff;stroke-opacity:1;"/>
  <path d="M 225.63132 175.64693 C 225.17282 169.73424 223.60061 181.3162 219.57189 183.5242 C 215.62591 185.3901 215.27441 186.07635 215.23588 188.0825 C 215.18856 190.84894 217.7392 187.43067 221.04534 186.16436 C 223.96966 184.77631 225.98934 180.02721 225.63132 175.64693 z " id="path853" sodipodi:nodetypes="cssss" style="font-size:12;fill:#ffffff;stroke:#ffffff;stroke-opacity:1;"/>
  <path d="M 334.74765 174.56054 C 333.69606 174.30454 334.3302 179.51489 333.81464 184.41449 C 333.73723 188.0295 329.87958 195.94862 329.59038 197.9761 C 328.71242 210.90217 331.76954 217.89236 333.03619 212.2034 C 334.67884 205.50601 351.07618 190.08137 349.00105 188.33588 C 347.4862 187.36464 334.79897 206.15837 331.84582 201.20231 C 330.95289 199.79537 342.20524 176.3023 334.74765 174.56054 z " id="path854" sodipodi:nodetypes="cssssss" style="font-size:12;fill:#ffffff;stroke:#ffffff;stroke-opacity:1;"/>
  <path d="M 357.33007 176.22896 C 356.73439 176.18543 358.54842 180.07099 360.75779 180.23871 C 377.74092 181.56051 374.65387 175.2306 385.46279 179.96381 C 387.58524 177.10867 380.10814 173.45711 367.37057 178.09639 C 365.26552 178.83814 359.5189 176.42024 357.33007 176.22896 z " id="path855" sodipodi:nodetypes="cscss" style="font-size:12;fill:#ffffff;stroke:#ffffff;stroke-opacity:1;"/>
  <path d="M 528.6649 196.46348 C 532.39975 197.77858 532.54048 190.72466 541.58331 184.98403 C 556.47142 175.96113 570.93748 186.01478 567.69503 182.68814 C 559.45608 175.10333 530.32656 179.63899 528.6649 196.46348 " id="path856" sodipodi:nodetypes="csss" style="font-size:12;fill:#ffffff;stroke:#ffffff;stroke-opacity:1;"/>
  <path d="M 358.96804 196.788 C 363.17717 196.788 369.59383 196.11006 371.59544 195.50261 C 373.8455 194.63377 377.44292 194.21721 384.22284 196.788 C 381.45974 192.18222 374.28911 191.56243 367.80925 193.9036 C 362.32212 195.52328 359.3965 193.83456 358.96804 196.788 z " id="path857" sodipodi:nodetypes="cscsc" style="font-size:12;fill:#ffffff;stroke:#ffffff;stroke-opacity:1;"/>
  <path d="M 209.86306 207.96449 C 207.11506 207.45636 206.36179 216.45593 208.04287 222.26512 C 209.21438 226.61641 212.15804 228.92011 211.78008 227.77056 C 207.35234 215.22536 210.80058 208.15933 209.86306 207.96449 z " id="path858" sodipodi:nodetypes="csss" style="font-size:12;fill:#ffffff;stroke:#ffffff;stroke-opacity:1;"/>
  <path d="M 548.10319 222.27187 C 546.78792 224.81763 544.99963 233.62895 547.82829 232.98349 C 551.61184 210.79368 570.33017 212.58365 568.91976 211.46355 C 565.86287 208.60739 553.97139 211.743 548.10319 222.27187 z " id="path859" sodipodi:nodetypes="ccss" style="font-size:12;fill:#ffffff;stroke:#ffffff;stroke-opacity:1;"/>
  <path d="M 359.57398 213.46518 C 357.22145 216.42356 352.17814 214.76375 352.08037 215.76107 C 351.94477 217.35437 355.56884 215.89295 356.17046 217.14804 C 359.37339 223.67836 361.84722 210.40976 359.57398 213.46518 z " id="path860" sodipodi:nodetypes="csss" style="font-size:12;fill:#ffffff;stroke:#ffffff;stroke-opacity:1;"/>
  <path d="M 280.17729 228.32448 C 263.71354 245.08043 248.63616 256.21936 229.01124 258.90685 C 228.31749 259.00041 228.33111 261.16226 229.01124 261.07289 C 242.3088 259.36543 255.74643 253.13138 266.46751 244.39571 C 272.09946 239.80803 282.3641 233.43796 280.17729 228.32448 z " id="path865" sodipodi:nodetypes="csscc" style="font-size:12;fill:#ffffff;stroke:#ffffff;stroke-width:0.954167;stroke-opacity:1;"/>
  <path d="M 336.4636 231.83231 C 335.94827 233.89361 336.61874 235.67397 337.85057 238.13763 C 338.14933 238.73515 339.53895 239.65878 339.69201 239.04655 C 340.30425 236.5976 340.7124 234.17607 339.69201 232.13528 C 339.18181 231.11488 336.71357 230.83243 336.4636 231.83231 z " id="path866" sodipodi:nodetypes="cssss" style="font-size:12;fill:#ffffff;stroke:#ffffff;stroke-opacity:1;"/>
  <path d="M 282.11966 270.20453 C 281.26505 272.15495 281.42459 276.28179 281.63922 280.0956 C 281.68029 280.33915 282.65519 280.63508 282.7752 279.9701 C 283.62637 277.62795 281.51626 272.66055 283.85921 271.64585 C 287.40761 269.97787 282.64539 269.43314 282.11966 270.20453 z " id="path867" sodipodi:nodetypes="cssss" style="font-size:12;fill:#ffffff;stroke:#ffffff;stroke-opacity:1;"/>
  <path d="M 188.89708 278.83412 C 186.42386 279.17999 192.24321 283.22585 191.97401 287.41174 C 191.92667 288.09455 194.71212 287.96566 194.57287 285.59391 C 194.67219 281.82233 190.74782 278.61767 188.89708 278.83412 z " id="path868" sodipodi:nodetypes="csss" style="font-size:12;fill:#ffffff;stroke:#ffffff;stroke-opacity:1;"/>
  <path d="M 262.31359 281.68634 C 265.4558 285.14978 262.99766 284.23192 263.3976 289.6837 C 263.49144 291.2658 264.76433 292.78046 264.71105 290.8436 C 264.52645 286.23266 266.88828 288.86906 267.00694 281.2059 C 266.95576 279.07783 259.70623 278.50577 262.31359 281.68634 z " id="path869" sodipodi:nodetypes="cssss" style="font-size:12;fill:#ffffff;stroke:#ffffff;stroke-opacity:1;"/>
  <path d="M 487.76734 279.11555 C 493.0111 292.7309 521.7444 322.03613 546.17509 320.87004 C 539.60926 318.74218 528.95006 314.90098 517.61391 307.0947 C 505.58527 298.48619 487.76081 275.15971 487.76734 279.11555 z " id="path870" sodipodi:nodetypes="ccsc" style="font-size:12;fill:#ffffff;stroke:#ffffff;stroke-opacity:1;"/>
  <path d="M 181.40347 286.02476 C 180.64353 286.02476 180.38705 287.61928 181.1005 288.01768 C 182.48096 288.78854 188.18914 288.255 187.6852 286.8058 C 187.57794 285.62609 182.93942 286.02476 181.40347 286.02476 z " id="path871" sodipodi:nodetypes="csss" style="font-size:12;fill:#ffffff;stroke:#ffffff;stroke-opacity:1;"/>
  <path d="M 240.61617 286.57873 C 240.3132 288.73047 241.90056 286.7551 243.19111 289.50861 C 243.47265 290.01583 244.77938 287.26573 244.04804 286.32773 C 243.34978 285.43216 240.7117 285.99577 240.61617 286.57873 z " id="path872" sodipodi:nodetypes="csss" style="font-size:12;fill:#ffffff;stroke:#ffffff;stroke-opacity:1;"/>
  <path d="M 259.9418 328.73776 C 279.71817 319.74044 275.21623 315.42732 296.2452 297.80716 C 304.01204 291.80704 315.08576 291.80154 321.32487 290.31357 C 302.57361 282.46925 284.78766 304.01978 275.23199 315.39327 C 267.49078 323.13448 261.17469 321.3404 259.9418 328.73776 z " id="path873" sodipodi:nodetypes="csccc" style="font-size:12;fill:#ffffff;stroke:#ffffff;stroke-opacity:1;"/>
  <path d="M 211.98148 291.72447 C 209.84823 290.50655 209.32422 305.9554 213.01589 305.65336 C 218.85673 304.49757 223.92206 309.53428 223.5625 306.4344 C 223.12039 303.05124 216.58389 306.14444 214.68191 303.60847 C 211.99211 300.02206 216.39405 294.67219 211.98148 291.72447 z " id="path874" sodipodi:nodetypes="cssss" style="font-size:12;fill:#ffffff;stroke:#ffffff;stroke-opacity:1;"/>
  <path d="M 178.50164 292.30649 C 178.19646 297.93743 184.44075 297.04605 186.52529 301.21513 C 187.50194 303.16843 187.99635 309.70886 190.91392 310.24514 C 193.85273 310.86409 195.9527 310.05127 190.56074 306.55752 C 188.61423 305.01864 188.87652 296.84253 178.50164 292.30649 z " id="path875" sodipodi:nodetypes="csssc" style="font-size:12;fill:#ffffff;stroke:#ffffff;stroke-opacity:1;"/>
  <path d="M 321.75573 242.95681 C 317.73185 242.87587 322.8481 242.85884 322.66227 253.17653 C 322.60485 256.27096 324.18957 259.25305 324.10122 256.47878 C 323.92071 251.42987 325.77574 243.34064 321.75573 242.95681 z " id="path877" sodipodi:nodetypes="csss" style="font-size:12;fill:#ffffff;stroke:#ffffff;stroke-opacity:1;"/>
  <path d="M 209.43459 246.2871 C 208.97721 244.90228 203.59933 249.68337 197.4747 251.88937 C 196.80651 252.14815 197.71686 253.60893 198.33164 253.32832 C 203.61299 250.48923 210.21141 249.93635 209.43459 246.2871 z " id="path878" sodipodi:nodetypes="csss" style="font-size:12;fill:#ffffff;stroke:#ffffff;stroke-opacity:1;"/>
  <path d="M 413.8704 243.82026 C 414.92421 249.29081 418.15998 260.3696 415.30936 268.9215 C 413.36327 276.47592 400.54532 300.73079 406.82917 319.58464 C 411.42324 333.36916 417.17678 335.5704 418.03371 343.8934 C 418.37055 350.32037 417.85045 355.89042 419.90114 356.31888 C 420.75807 356.19502 420.51587 348.3513 420.3296 342.23642 C 420.14843 336.71725 408.10833 322.65144 408.42169 308.13742 C 408.75066 292.47189 411.27971 290.13412 414.45243 280.27961 C 417.67316 269.84105 420.22587 264.57007 419.47267 259.18814 C 418.85725 251.72908 417.02322 243.37284 413.8704 243.82026 z " id="path879" sodipodi:nodetypes="cccccssssc" style="font-size:12;fill:#ffffff;stroke:#ffffff;stroke-opacity:1;"/>
  <path d="M 309.97332 249.89646 C 307.49598 250.45981 311.95593 257.72842 312.3188 257.43967 C 313.41334 256.22777 313.6588 248.96095 309.97332 249.89646 z " id="path880" sodipodi:nodetypes="css" style="font-size:12;fill:#ffffff;stroke:#ffffff;stroke-opacity:1;"/>
  <path d="M 349.58547 281.99347 C 351.64659 284.85926 372.20387 259.55697 380.01408 260.31997 C 391.10003 261.36113 387.93689 266.24373 389.4441 267.14697 C 396.65942 269.4198 389.00816 253.21652 390.05878 254.28345 C 399.49245 263.42834 392.65379 270.54059 396.72801 270.35666 C 399.40311 270.24738 397.01077 253.18049 398.80966 253.43229 C 403.93959 255.3722 398.67317 272.46074 401.10555 271.79942 C 407.95636 269.82033 405.87846 252.79598 407.25763 253.77166 C 412.19779 257.69499 405.78229 270.40302 407.56476 269.93199 C 411.63499 268.7432 413.04502 255.24621 410.22235 251.94275 C 407.67789 248.57866 401.20125 249.10241 394.33922 249.69744 C 380.2833 251.35511 347.66613 279.78409 349.58547 281.99347 z " id="path881" sodipodi:nodetypes="csssssssssss" style="font-size:12;fill:#ffffff;stroke:#ffffff;stroke-opacity:1;"/>
  <path d="M 190.53506 252.74631 C 189.88402 256.27308 192.49244 255.5846 192.52798 261.27609 C 192.53841 263.24944 193.87179 265.79837 193.84143 264.14987 C 193.76782 259.72439 193.35462 256.38439 193.71593 252.92378 C 193.73441 251.73157 190.7503 251.5803 190.53506 252.74631 z " id="path882" sodipodi:nodetypes="cssss" style="font-size:12;fill:#ffffff;stroke:#ffffff;stroke-opacity:1;"/>
  <path d="M 297.71045 260.4174 C 297.4399 264.19209 297.41257 272.18389 298.49386 271.39248 C 299.92966 270.63984 297.83891 268.97152 300.05831 268.54025 C 301.90152 268.48506 301.11108 264.57123 301.14232 260.36542 C 301.06437 259.15892 297.88093 257.73586 297.71045 260.4174 z " id="path883" sodipodi:nodetypes="cssss" style="font-size:12;fill:#ffffff;stroke:#ffffff;stroke-opacity:1;"/>
  <path d="M 175.72768 265.91572 C 172.15018 266.27226 174.67088 271.85659 176.33125 272.12154 C 176.98196 273.92447 174.23157 273.94604 174.5158 275.88269 C 173.9471 283.5184 174.80432 283.2282 180.06609 282.39149 C 176.5324 279.98018 177.06946 276.02469 179.03168 274.06724 C 180.70983 271.78796 178.31051 274.02766 178.20104 271.41878 C 178.15439 270.00407 174.25067 268.6341 175.64941 267.91101 C 177.46087 267.27754 178.71747 265.25967 175.72768 265.91572 z " id="path884" sodipodi:nodetypes="ccscssss" style="font-size:12;fill:#ffffff;stroke:#ffffff;stroke-opacity:1;"/>
  <path d="M 302.47971 359.92409 C 303.22992 367.64651 289.37794 376.06358 290.39431 376.95145 C 292.82361 378.80892 306.02355 368.20968 305.55663 359.01517 C 305.44292 356.47314 302.16948 356.42772 302.47971 359.92409 z " id="path885" sodipodi:nodetypes="csss" style="font-size:12;fill:#ffffff;stroke:#ffffff;stroke-opacity:1;"/>
  <path d="M 517.18545 356.74735 C 516.08619 363.13386 524.81277 367.74172 514.33976 380.10249 C 508.19015 387.317 505.22768 395.09866 511.00115 402.35802 C 514.45401 406.1608 517.13939 405.62814 517.18545 418.73638 C 517.18809 419.46264 518.08661 417.67849 518.19594 417.02252 C 518.85191 413.08671 520.08217 410.75978 518.19594 406.6749 C 515.62638 400.6817 511.22935 400.99455 510.87981 392.746 C 510.91285 389.29278 521.6283 375.51807 522.35926 370.40135 C 523.15889 364.80392 517.58441 352.94894 517.18545 356.74735 z " id="path886" sodipodi:nodetypes="cssssssss" style="font-size:12;fill:#ffffff;stroke:#ffffff;stroke-opacity:1;"/>
  <path d="M 547.03202 359.47171 C 546.40747 359.41204 547.29143 361.8973 550.45974 362.62452 C 553.20204 362.88311 555.56072 361.3766 555.78711 367.49121 C 555.97158 372.90216 555.9477 379.19824 559.79686 378.42085 C 560.02427 378.34961 556.70977 371.95875 557.22606 364.33839 C 557.06269 360.42582 551.08804 359.90018 547.03202 359.47171 z " id="path887" sodipodi:nodetypes="csssss" style="font-size:12;fill:#ffffff;stroke:#ffffff;stroke-opacity:1;"/>
  <path d="M 398.6561 363.20655 C 395.26588 365.65476 403.86442 374.57557 414.88088 374.25753 C 416.51235 374.2122 416.53979 372.83886 412.3101 371.96165 C 402.56188 370.36838 399.4652 362.53774 398.6561 363.20655 z " id="path888" sodipodi:nodetypes="csss" style="font-size:12;fill:#ffffff;stroke:#ffffff;stroke-opacity:1;"/>
  <path d="M 250.1266 371.10472 C 245.95456 373.71616 245.95027 374.42604 251.84046 374.25755 C 255.7139 373.73054 260.24526 370.9507 255.60755 368.80883 C 254.89951 368.50949 252.65899 369.77967 250.1266 371.10472 z " id="path889" sodipodi:nodetypes="csss" style="font-size:12;fill:#ffffff;stroke:#ffffff;stroke-opacity:1;"/>
  <path d="M 347.79156 368.07086 C 347.79156 370.95694 350.09137 369.44398 350.66534 369.63531 C 352.38726 370.20928 355.02176 369.12532 355.1077 370.72169 C 355.6523 381.26714 352.06123 378.45019 352.63434 382.55372 C 352.93578 384.48674 354.15095 382.11431 354.42823 380.86139 C 356.58172 376.21141 359.16922 373.01258 357.80813 369.83671 C 356.87333 367.65551 351.61804 368.07086 347.79156 368.07086 z " id="path890" sodipodi:nodetypes="cssssss" style="font-size:12;fill:#ffffff;stroke:#ffffff;stroke-opacity:1;"/>
  <path d="M 242.53557 374.68601 C 241.90158 374.68601 242.19874 378.08403 242.96404 378.84932 C 243.72933 379.61462 246.27042 379.48332 246.27042 378.84932 C 246.27042 377.09579 243.43217 374.68601 242.53557 374.68601 z " id="path891" sodipodi:nodetypes="csss" style="font-size:12;fill:#ffffff;stroke:#ffffff;stroke-opacity:1;"/>
  <path d="M 249.8517 380.13471 C 248.22383 380.45272 255.2773 386.95773 255.45398 385.30853 C 256.16547 378.23866 253.49385 379.8517 249.8517 380.13471 z " id="path892" sodipodi:nodetypes="css" style="font-size:12;fill:#ffffff;stroke:#ffffff;stroke-opacity:1;"/>
  <path d="M 330.48275 380.99165 C 330.21388 379.29347 323.3709 379.84639 328.92246 381.91305 C 329.55241 382.16717 329.27341 392.60236 329.93296 392.62466 C 331.47692 392.69137 330.86834 386.13323 330.48275 380.99165 z " id="path893" sodipodi:nodetypes="csss" style="font-size:12;fill:#ffffff;stroke:#ffffff;stroke-opacity:1;"/>
  <path d="M 537.41999 382.85907 C 535.18447 384.47916 541.78925 387.30519 542.59381 389.93253 C 543.51386 394.33621 545.04299 399.56517 545.74662 396.35951 C 548.06649 386.21902 539.34576 381.89192 537.41999 382.85907 z " id="path894" sodipodi:nodetypes="csss" style="font-size:12;fill:#ffffff;stroke:#ffffff;stroke-opacity:1;"/>
  <path d="M 313.2797 389.31828 C 313.28277 391.25778 317.24552 389.78207 317.87148 390.78947 C 318.97013 392.55761 317.87705 397.06811 318.45351 397.21644 C 319.97836 397.71908 320.68432 389.21758 318.88197 389.31828 C 318.11008 388.93295 313.27857 388.44851 313.2797 389.31828 z " id="path895" sodipodi:nodetypes="cssss" style="font-size:12;fill:#ffffff;stroke:#ffffff;stroke-opacity:1;"/>
  <path d="M 229.1887 391.1857 C 229.2277 395.61012 228.19483 417.74117 233.93404 412.00227 C 234.82135 411.54348 229.30653 389.84709 229.1887 391.1857 z " id="path896" sodipodi:nodetypes="css" style="font-size:12;fill:#ffffff;stroke:#ffffff;stroke-opacity:1;"/>
  <path d="M 323.74865 324.44895 C 319.58771 329.6578 307.24659 332.7459 301.87376 326.74484 C 301.57079 336.19931 309.44252 333.50463 317.46692 333.50463 L 315.6491 338.52726 C 307.82103 344.71454 298.17516 338.78301 287.01442 332.85148 C 292.51733 344.81332 309.60446 348.85018 321.02192 338.70235 C 324.51662 336.33706 323.98344 329.53126 323.74865 324.44895 z " id="path897" sodipodi:nodetypes="ccccccc" style="font-size:12;fill:#ffffff;stroke:#ffffff;stroke-opacity:1;"/>
  <path d="M 567.69503 325.46183 C 565.17966 327.46312 573.67626 331.44222 571.85835 343.55404 C 571.16114 348.03486 573.3299 342.02112 573.72576 341.41171 C 577.06898 336.92454 568.53678 324.45121 567.69503 325.46183 z " id="path898" sodipodi:nodetypes="csss" style="font-size:12;fill:#ffffff;stroke:#ffffff;stroke-opacity:1;"/>
  <path d="M 236.50484 329.82417 C 239.57861 341.29611 242.74685 340.52572 248.15936 342.08463 C 245.03345 339.15771 237.73942 329.49189 236.50484 329.82417 z " id="path899" sodipodi:nodetypes="ccc" style="font-size:12;fill:#ffffff;stroke:#ffffff;stroke-opacity:1;"/>
  <path d="M 334.31919 330.8801 C 333.91691 339.8009 338.1802 340.75426 336.86608 349.57586 C 335.54368 358.02178 328.34388 361.7177 327.25405 364.55834 C 326.1784 368.44152 327.3188 370.97269 328.51553 370.36675 C 327.87551 362.69865 335.72053 358.7361 338.32895 353.44034 C 341.76845 345.22461 334.30853 327.24814 334.31919 330.8801 z " id="path900" sodipodi:nodetypes="cssccs" style="font-size:12;fill:#ffffff;stroke:#ffffff;stroke-opacity:1;"/>
  <path d="M 529.09337 398.50184 C 528.28516 398.50184 528.32676 400.43393 528.60423 406.21798 C 528.51848 409.50297 531.36653 413.84369 531.54281 412.43074 C 532.65472 400.08474 529.47891 398.50184 529.09337 398.50184 z " id="path901" sodipodi:nodetypes="csss" style="font-size:12;fill:#ffffff;stroke:#ffffff;stroke-opacity:1;"/>
  <path d="M 307.67742 400.36926 C 308.98418 400.36926 308.35996 406.43499 307.40252 406.4 C 305.95889 406.77572 305.96356 400.36926 307.67742 400.36926 z " id="path902" sodipodi:nodetypes="css" style="font-size:12;fill:#ffffff;stroke:#ffffff;stroke-opacity:1;"/>
  <path d="M 295.06614 407.83896 C 297.48834 409.77127 297.74713 405.34184 295.49461 404.96104 C 292.10241 405.03283 291.53168 405.44782 295.06614 407.83896 z " id="path903" sodipodi:nodetypes="css" style="font-size:12;fill:#ffffff;stroke:#ffffff;stroke-opacity:1;"/>
  <path d="M 247.12735 408.11387 C 249.59172 409.71853 249.38549 413.86164 250.8622 413.28767 C 252.60011 412.7641 251.73592 409.69086 250.8622 408.11386 C 249.41294 406.2714 246.46978 407.80002 247.12735 408.11387 z " id="path904" sodipodi:nodetypes="csss" style="font-size:12;fill:#ffffff;stroke:#ffffff;stroke-opacity:1;"/>
  <path d="M 432.23752 409.98129 C 432.58504 411.53407 441.17346 412.79317 441.20685 419.2113 C 441.21341 420.43006 442.62576 421.17589 442.86004 418.88995 C 443.78366 411.96843 431.91663 408.34967 432.23752 409.98129 z " id="path905" sodipodi:nodetypes="csss" style="font-size:12;fill:#ffffff;stroke:#ffffff;stroke-opacity:1;"/>
  <path d="M 290.74926 411.84871 C 291.40786 411.32076 294.5823 411.45629 294.48411 413.28767 C 294.22425 414.40275 288.8665 413.78645 290.74926 411.84871 z " id="path906" sodipodi:nodetypes="css" style="font-size:12;fill:#ffffff;stroke:#ffffff;stroke-opacity:1;"/>
  <path d="M 244.24943 416.01203 C 241.82414 416.60773 244.28443 419.50004 241.09662 422.62479 C 239.24964 424.42956 249.65364 426.343 252.45472 428.77687 C 253.37351 429.94751 258.2888 427.12912 247.12734 424.18509 C 241.09749 423.02307 245.41503 415.93166 244.24943 416.01203 z " id="path907" sodipodi:nodetypes="cssss" style="font-size:12;fill:#ffffff;stroke:#ffffff;stroke-opacity:1;"/>
  <path d="M 267.63682 419.16486 C 266.42277 419.51002 269.27688 426.48441 272.22858 426.63454 C 277.55945 426.95174 280.14454 427.01889 285.88258 426.63454 C 287.64822 426.38444 288.39702 421.76801 287.16798 421.46075 C 285.33583 421.00272 287.82215 426.47334 278.84135 425.62405 C 274.62937 424.79726 271.1874 418.27722 267.63682 419.16486 z " id="path908" sodipodi:nodetypes="csssss" style="font-size:12;fill:#ffffff;stroke:#ffffff;stroke-opacity:1;"/>
  <path d="M 423.26819 421.67497 C 423.0668 420.52679 427.02768 420.80563 427.00304 421.82853 C 426.98545 422.71196 423.42794 422.7556 423.26819 421.67497 z " id="path909" sodipodi:nodetypes="css" style="font-size:12;fill:#ffffff;stroke:#ffffff;stroke-opacity:1;"/>
  <path d="M 435.8188 341.10458 C 437.08876 352.13719 449.19936 358.73408 463.95151 349.00275 C 467.73576 346.61637 463.36873 370.40488 437.25776 363.20655 C 436.55263 363.02068 441.68077 366.58454 442.39935 366.78784 C 453.28193 369.43831 474.96154 358.35196 465.39047 341.10458 C 463.55986 338.23422 456.39019 350.71661 451.03311 350.71661 C 442.24831 350.71661 435.36113 337.28298 435.8188 341.10458 z " id="path910" sodipodi:nodetypes="cssssss" style="font-size:12;fill:#ffffff;stroke:#ffffff;stroke-opacity:1;"/>
  <path d="M 300.86326 349.82923 C 300.26573 349.82923 299.83727 350.96943 300.4348 351.2682 C 302.89846 352.50003 306.29777 353.99255 308.76143 353.99255 C 309.35895 353.99255 308.93049 352.42388 308.33297 352.12512 C 305.86931 350.89329 303.32692 349.82923 300.86326 349.82923 z " id="path911" sodipodi:nodetypes="cssss" style="font-size:12;fill:#ffffff;stroke:#ffffff;stroke-opacity:1;"/>
  <path d="M 542.03331 64.23233 C 544.83651 69.84078 547.50297 71.685735 548.31504 81.515441 C 550.1112 96.861656 538.11829 110.90777 530.07579 121.62958 C 525.8903 127.61336 519.90918 136.07265 515.56664 143.2015 C 504.85041 161.54122 491.69761 179.34056 498.2363 205.4935 C 503.487 226.49837 525.01642 246.42472 538.12336 263.90125 C 541.94401 268.99562 547.87549 273.8218 548.89945 279.97249 C 548.44287 289.66309 537.47918 294.09246 540.14435 294.75832 C 551.81814 288.75982 555.21002 280.22187 546.60356 267.911 C 533.70644 249.4627 510.3515 231.24056 503.05516 209.35384 C 490.06272 172.80372 525.18408 138.70603 544.20132 108.28508 C 553.83806 92.566698 556.75604 64.514676 542.03331 64.23233 z " id="path912" sodipodi:nodetypes="cscscsccscsc" style="font-size:12;fill:#ffffff;stroke:#ffffff;stroke-opacity:1;"/>
  <path d="M 325.18761 69.17906 C 323.95275 69.530174 321.69147 73.564735 320.80785 76.276655 C 320.50156 77.517553 320.63107 87.989126 320.59583 92.077289 C 320.68034 94.00745 323.83039 93.809134 323.90221 91.863056 C 323.82075 88.265574 323.68581 75.241993 324.60779 74.180989 C 326.48444 72.235598 327.17748 68.494505 325.18761 69.17906 z " id="path913" sodipodi:nodetypes="csssss" style="font-size:12;fill:#ffffff;stroke:#ffffff;stroke-opacity:1;"/>
  <path d="M 418.46218 83.322202 C 418.46218 82.168525 427.21728 82.465272 427.21728 83.322202 C 427.21728 84.835165 418.67641 84.393363 418.46218 83.322202 z " id="path915" sodipodi:nodetypes="css" style="font-size:12;fill:#ffffff;stroke:#ffffff;stroke-opacity:1;"/>
  <path d="M 469.85023 87.139245 C 468.49711 87.057268 467.7845 101.43647 465.84047 108.81274 C 464.33107 114.11149 461.67716 119.95536 459.38127 125.31244 C 469.669 122.41801 472.43642 87.321886 469.85023 87.139245 z " id="path918" sodipodi:nodetypes="cscs" style="font-size:12;fill:#ffffff;stroke:#ffffff;stroke-opacity:1;"/>
  <path d="M 411.78874 90.056304 C 414.1453 91.38961 413.97522 93.331218 414.8809 93.362691 C 415.93471 93.391867 415.64578 91.499568 415.5236 90.270536 C 415.39109 89.170054 411.23326 89.768208 411.78874 90.056304 z " id="path919" sodipodi:nodetypes="csss" style="font-size:12;fill:#ffffff;stroke:#ffffff;stroke-opacity:1;"/>
  <path d="M 372.67257 112.00143 C 370.16674 109.47517 367.65729 98.060308 365.85421 98.783969 C 364.59066 99.393509 367.71976 109.39593 370.31961 113.04209 C 371.76047 114.63791 372.35782 124.99953 373.97887 125.31244 C 374.86347 125.18022 375.58747 114.63711 372.67257 112.00143 z " id="path920" sodipodi:nodetypes="cssss" style="font-size:12;fill:#ffffff;stroke:#ffffff;stroke-opacity:1;"/>
  <path d="M 583.6623 100.05765 C 578.39783 115.84809 562.84267 136.92529 547.534 148.27134 C 538.82801 154.55151 522.77009 161.05999 528.56094 160.53183 C 544.23384 158.7994 562.29233 144.85997 573.8728 125.00947 C 579.08421 115.51405 586.86374 105.37941 583.6623 100.05765 " id="path921" sodipodi:nodetypes="csscc" style="font-size:12;fill:#ffffff;stroke:#ffffff;stroke-opacity:1;"/>
  <path d="M 439.93014 141.68664 C 448.18915 134.98612 451.37763 114.33744 454.71597 91.023493 C 455.83053 83.23975 457.15166 70.522181 459.73622 62.769448 C 463.92912 50.192301 480.6173 37.237882 488.14383 36.075698 C 480.50714 32.723188 465.58567 46.729896 460.59315 54.442818 C 453.80589 65.356899 451.71935 87.519866 449.54217 101.92091 C 448.05173 111.48614 447.38137 116.36042 446.11444 122.43036 C 442.85701 135.98424 437.94683 141.63666 439.93014 141.68664 z " id="path923" sodipodi:nodetypes="csscsssc" style="font-size:12;fill:#ffffff;stroke:#ffffff;stroke-opacity:1;"/>
  <path d="M 499.72486 91.35452 C 501.83964 91.427066 500.92893 88.615116 497.83515 87.372887 C 495.77283 86.830433 493.59055 83.005949 492.40873 75.315519 C 490.57997 62.986826 501.87464 58.594039 497.00051 59.21206 C 484.70513 60.716739 487.95472 90.965454 499.72486 91.35452 z " id="path925" sodipodi:nodetypes="cssss" style="font-size:12;fill:#ffffff;stroke:#ffffff;stroke-opacity:1;"/>
  <path d="M 416.46926 40.189421 C 417.09662 44.356036 412.30863 43.939794 415.25737 45.656643 C 417.38946 47.074416 415.89136 54.531066 417.25029 54.442821 C 418.43265 54.346368 420.4384 48.696634 419.84915 41.704279 C 419.60977 38.986821 416.27082 38.967329 416.46926 40.189421 z " id="path929" sodipodi:nodetypes="cssss" style="font-size:12;fill:#ffffff;stroke:#ffffff;stroke-opacity:1;"/>
  <path d="M 448.52299 435.08251 C 449.16737 444.13228 444.35936 445.06128 447.51249 445.85859 C 453.39506 447.07766 459.77017 448.82199 463.24815 451.67512 C 465.61201 453.46868 468.95194 449.07401 453.11477 444.26607 C 451.52669 443.80543 452.85789 436.6676 451.93649 434.43981 C 451.23314 432.22406 448.16049 431.2618 448.52299 435.08251 z " id="path932" sodipodi:nodetypes="csssss" style="font-size:12;fill:#ffffff;stroke:#ffffff;stroke-opacity:1;"/>
  <path d="M 478.58378 434.80761 C 477.45042 435.26988 478.57464 447.53813 481.7366 447.29755 C 485.80041 447.26368 480.16956 444.31213 494.96214 445.00165 C 501.57633 445.21416 494.60807 441.87194 493.56962 441.7417 C 489.63663 441.46265 483.68312 442.32764 483.11489 441.69528 C 481.39825 439.13767 480.3749 434.29128 478.58378 434.80761 z " id="path933" sodipodi:nodetypes="csssss" style="font-size:12;fill:#ffffff;stroke:#ffffff;stroke-opacity:1;"/>
  <path d="M 425.83898 427.70571 C 420.36445 427.34128 427.17783 428.53786 428.68847 436.70725 C 430.26449 446.63857 437.01772 442.47082 435.86526 442.12375 C 427.76912 439.75009 431.65095 428.07834 425.83898 427.70571 z " id="path934" sodipodi:nodetypes="csss" style="font-size:12;fill:#ffffff;stroke:#ffffff;stroke-opacity:1;"/>
  <path d="M 372.047577 232.630280 A 2.423763 2.726727 0 1 0 367.200043,232.630280 A 2.42376 2.72673 0 1 0 372.048 232.63 L 369.623810 232.630280 z" id="path700" sodipodi:cx="369.623810" sodipodi:cy="232.630280" sodipodi:rx="2.423763" sodipodi:ry="2.726727" sodipodi:type="arc" style="font-size:12;fill:#ffffff;fill-rule:evenodd;stroke:#ffffff;stroke-width:2.35703;stroke-opacity:1;" transform="matrix(0.437501,0.000000,0.000000,0.388887,202.9142,127.7722)"/>
  <path d="M 372.047577 232.630280 A 2.423763 2.726727 0 1 0 367.200043,232.630280 A 2.42376 2.72673 0 1 0 372.048 232.63 L 369.623810 232.630280 z" id="path701" sodipodi:cx="369.623810" sodipodi:cy="232.630280" sodipodi:rx="2.423763" sodipodi:ry="2.726727" sodipodi:type="arc" style="font-size:12;fill:#ffffff;fill-rule:evenodd;stroke:#ffffff;stroke-width:2.35703;stroke-opacity:1;" transform="matrix(0.437501,0.000000,0.000000,0.388887,207.4588,127.7722)"/>
  <path d="M 513.25059 85.982985 C 513.08012 84.82981 520.03979 79.660167 517.59138 85.530603 C 517.21876 86.331798 514.01628 87.063615 513.25059 85.982985 z " id="path698" sodipodi:nodetypes="css" style="font-size:12;fill:#ffffff;stroke:#ffffff;stroke-opacity:1;"/>
  <path d="M 320.31139 62.420295 C 322.66795 63.753601 322.49787 65.695209 323.40355 65.726682 C 324.45736 65.755858 324.16843 63.863559 324.04625 62.634527 C 323.91374 61.534045 319.75591 62.132199 320.31139 62.420295 z " id="path862" sodipodi:nodetypes="csss" style="font-size:12;fill:#ffffff;stroke:#ffffff;stroke-opacity:1;"/>
  <path d="M 177.18623 80.295645 C 176.12378 80.295645 175.80885 83.785425 177.40047 84.030489 C 180.63792 84.495977 180.92108 82.73639 179.20722 82.74509 C 177.45371 82.753002 178.08283 80.295645 177.18623 80.295645 z " id="path916" sodipodi:nodetypes="csss" style="font-size:12;fill:#ffffff;stroke:#ffffff;stroke-opacity:1;"/>
  <path d="M 193.1466 84.901648 C 192.08415 84.901648 191.76922 88.391428 193.36084 88.636492 C 196.59829 89.10198 196.88145 87.342393 195.16759 87.351093 C 193.41408 87.359005 194.0432 84.901648 193.1466 84.901648 z " id="path917" sodipodi:nodetypes="csss" style="font-size:12;fill:#ffffff;stroke:#ffffff;stroke-opacity:1;"/>
  <path d="M 362.67451 120.7876 C 360.92198 117.69086 359.17409 109.57323 357.37101 110.29689 C 356.10746 110.90643 358.93358 118.48508 360.92749 122.43421 C 361.95908 124.32062 363.26867 129.84707 364.88972 130.15998 C 365.77432 130.02776 364.37752 124.3322 362.67451 120.7876 z " id="path928" sodipodi:nodetypes="cssss" style="font-size:12;fill:#ffffff;stroke:#ffffff;stroke-opacity:1;"/>
  <path d="M 353.1309 131.3916 C 350.89838 128.62086 351.44831 121.69209 348.13037 125.14249 C 347.15993 126.15557 349.08701 130.30096 351.68686 133.94712 C 353.12772 135.54294 352.23491 139.79374 353.52829 141.6729 C 358.21678 148.04463 355.74283 134.9362 353.1309 131.3916 z " id="path935" sodipodi:nodetypes="cssss" style="font-size:12;fill:#ffffff;stroke:#ffffff;stroke-opacity:1;"/>
  <path d="M 345.85958 140.17777 C 343.53955 137.47987 345.0859 135.62876 341.16202 133.01974 C 339.95254 132.30893 342.42163 137.87524 344.11256 142.43031 C 344.97473 144.39993 344.93889 146.20752 346.25697 148.03529 C 346.84189 148.71195 347.86557 142.2075 345.85958 140.17777 z " id="path936" sodipodi:nodetypes="cssss" style="font-size:12;fill:#ffffff;stroke:#ffffff;stroke-opacity:1;"/>
  <path d="M 337.37637 147.60058 C 335.26556 144.73603 336.6027 139.41592 334.79962 140.13958 C 333.53607 140.74912 333.8059 145.18234 336.2353 148.94421 C 337.37319 150.23706 335.22748 154.62907 338.3797 155.15513 C 341.08655 155.55629 340.29127 151.14517 337.37637 147.60058 z " id="path937" sodipodi:nodetypes="cssss" style="font-size:12;fill:#ffffff;stroke:#ffffff;stroke-opacity:1;"/>
  <path d="M 331.92289 156.68974 C 329.48808 153.98535 327.9446 145.51316 327.5283 147.41092 C 326.26475 153.47395 327.87899 155.29613 330.47884 158.94229 C 331.9197 160.53811 331.64485 164.61851 334.74404 164.24429 C 335.96693 164.08064 333.08697 158.12757 331.92289 156.68974 z " id="path938" sodipodi:nodetypes="cssss" style="font-size:12;fill:#ffffff;stroke:#ffffff;stroke-opacity:1;"/>
  <path d="M 307.36458 155.9044 C 306.40326 156.17044 306.81659 158.02229 306.93373 162.58352 C 307.00824 165.67759 306.48056 168.86542 307.41179 168.64295 C 308.43172 168.45911 308.64872 155.46517 307.36458 155.9044 z " id="path939" sodipodi:nodetypes="csss" style="font-size:12;fill:#ffffff;stroke:#ffffff;stroke-opacity:1;"/>
  <path d="M 240.69993 197.15635 C 238.95174 208.23639 231.89057 212.92693 233.69505 212.15268 C 240.96776 208.81795 242.97035 198.82197 246.94904 182.85593 C 251.23501 165.44256 267.77778 151.70096 264.21279 153.71647 C 260.45673 155.96113 245.55571 167.73826 240.69993 197.15635 z " id="path940" sodipodi:nodetypes="cssss" style="font-size:12;fill:#ffffff;stroke:#ffffff;stroke-opacity:1;"/>
  <path d="M 266.53251 141.86556 C 267.68715 136.14319 263.2588 145.12918 259.56417 147.62202 C 256.45783 149.97267 254.09208 150.17524 254.01627 151.87735 C 253.95751 153.43152 257.163 152.59541 259.82573 150.26218 C 262.44708 147.66225 264.7078 149.02911 266.53251 141.86556 z " id="path941" sodipodi:nodetypes="cssss" style="font-size:12;fill:#ffffff;stroke:#ffffff;stroke-opacity:1;"/>
  <path d="M 262.4424 138.38139 C 262.68268 136.72111 260.69973 136.81528 257.29188 139.89625 C 254.86076 142.3681 251.81285 140.66496 251.44101 142.63672 C 251.09072 144.19128 257.01504 143.66395 258.46236 141.93047 C 261.10461 139.31891 262.11505 140.3403 262.4424 138.38139 z " id="path942" sodipodi:nodetypes="cssss" style="font-size:12;fill:#ffffff;stroke:#ffffff;stroke-opacity:1;"/>
  <path d="M 254.8681 130.80709 C 253.6409 130.04902 252.89789 135.10545 248.80867 136.86653 C 246.48283 138.04052 245.05597 137.02113 245.07861 138.39511 C 245.50708 140.20316 251.24596 138.82325 253.00887 137.08292 C 256.04348 134.38626 259.31289 133.8557 254.8681 130.80709 z " id="path943" sodipodi:nodetypes="cssss" style="font-size:12;fill:#ffffff;stroke:#ffffff;stroke-opacity:1;"/>
  <path d="M 248.80866 126.41398 C 247.16294 126.73545 247.32227 127.74565 244.87003 130.35262 C 241.59053 134.14202 237.8964 131.81675 238.11025 134.002 C 238.08031 134.73594 245.8265 134.91299 247.2524 132.99278 C 252.21693 126.7152 251.36662 125.61135 248.80866 126.41398 z " id="path944" sodipodi:nodetypes="cssss" style="font-size:12;fill:#ffffff;stroke:#ffffff;stroke-opacity:1;"/>
  <path d="M 209.87679 162.31617 C 209.72126 159.73617 206.33122 160.10817 206.24113 161.71023 C 206.03495 166.07025 201.64068 166.38318 199.78432 167.48041 C 197.31766 168.73381 206.22627 168.94939 206.80567 168.28902 C 208.47404 165.51506 210.11353 166.70467 209.87679 162.31617 z " id="path945" sodipodi:nodetypes="cssss" style="font-size:12;fill:#ffffff;stroke:#ffffff;stroke-opacity:1;"/>
  <path d="M 207.75598 144.7438 C 204.8737 145.49649 207.65208 146.92914 204.4233 150.19729 C 201.38623 153.57805 199.61945 152.49518 199.48134 153.84668 C 199.37323 155.14185 203.20363 155.94471 205.89675 152.83745 C 209.61047 148.90219 212.09833 144.06626 207.75598 144.7438 z " id="path946" sodipodi:nodetypes="cssss" style="font-size:12;fill:#ffffff;stroke:#ffffff;stroke-opacity:1;"/>
  <path d="M 205.18072 122.17239 C 204.90298 120.89863 203.86493 125.26664 201.54507 127.92885 C 198.35871 131.16929 195.22636 132.04457 195.08825 133.39607 C 194.98014 134.69124 198.81054 135.4941 201.50366 132.38684 C 205.21738 128.45158 206.00115 127.32442 205.18072 122.17239 z " id="path947" sodipodi:nodetypes="cssss" style="font-size:12;fill:#ffffff;stroke:#ffffff;stroke-opacity:1;"/>
  <path d="M 186.85092 65.062182 C 183.96864 65.814872 186.74702 67.247522 183.51824 70.515672 C 180.48117 73.896432 178.71439 72.813562 178.57628 74.165062 C 178.46817 75.460232 182.29857 76.263092 184.99169 73.155832 C 188.70541 69.220572 191.19327 64.384642 186.85092 65.062182 z " id="path948" sodipodi:nodetypes="cssss" style="font-size:12;fill:#ffffff;stroke:#ffffff;stroke-opacity:1;"/>
  <path d="M 186.97087 115.53112 C 187.55006 109.54422 184.0961 110.68925 183.33522 108.00509 C 181.32492 99.401948 180.78314 105.69108 181.16307 108.75917 C 181.08831 113.4847 183.00974 114.26945 182.86534 115.89082 C 182.67559 118.58446 186.83957 120.74641 186.97087 115.53112 z " id="path949" sodipodi:nodetypes="cssss" style="font-size:12;fill:#ffffff;stroke:#ffffff;stroke-opacity:1;"/>
  <path d="M 205.18073 64.115048 C 206.43572 62.24725 203.74814 62.272335 202.83048 59.588289 C 200.16511 53.045592 199.44965 55.966395 199.37293 59.056967 C 199.72664 62.068628 201.64807 61.139509 201.50367 64.474748 C 201.36969 67.171738 201.98143 71.344949 205.18073 64.115048 z " id="path950" sodipodi:nodetypes="cssss" style="font-size:12;fill:#ffffff;stroke:#ffffff;stroke-opacity:1;"/>
  <path d="M 217.74478 53.360304 C 216.06812 53.336614 214.62247 52.590816 212.94922 54.728141 C 212.30859 56.09375 208.54639 54.478402 208.76024 56.235185 C 208.83178 56.966243 217.08477 56.793596 218.33086 56.082899 C 222.53354 54.29924 221.58814 52.986142 217.74478 53.360304 z " id="path951" sodipodi:nodetypes="cssss" style="font-size:12;fill:#ffffff;stroke:#ffffff;stroke-opacity:1;"/>
  <path d="M 243.66704 65.874566 C 241.84672 64.642281 239.43681 61.42635 238.495 62.70674 C 237.44354 63.788278 240.72802 68.504965 242.74987 68.143502 C 246.7635 67.728924 248.89281 72.487055 248.78879 69.151123 C 248.67488 65.195465 246.82026 68.312134 243.66704 65.874566 z " id="path952" sodipodi:nodetypes="cssss" style="font-size:12;fill:#ffffff;stroke:#ffffff;stroke-opacity:1;"/>
  <path d="M 234.56902 67.750691 C 234.83989 65.516793 233.1495 67.859693 232.82472 65.041765 C 232.28015 60.619873 231.26172 62.631759 231.185 65.722331 C 231.53871 68.733992 227.85514 70.06575 229.07413 69.928224 C 230.33788 69.751468 232.10417 74.193416 232.36496 72.667863 C 233.64916 64.852565 234.63572 69.699295 234.56902 67.750691 z " id="path953" sodipodi:nodetypes="csssss" style="font-size:12;fill:#ffffff;stroke:#ffffff;stroke-opacity:1;"/>
  <path d="M 379.46076 215.55441 C 376.62008 215.30803 377.81982 216.8778 375.71419 218.15092 C 373.53981 219.15275 379.35137 218.88653 381.42701 221.93293 C 382.59777 223.94493 387.98364 223.72234 388.03701 222.7248 C 388.09038 221.72725 383.88983 220.53323 382.75724 220.21698 C 376.23688 218.09335 389.13482 215.36168 379.46076 215.55441 z " id="path954" sodipodi:nodetypes="csssss" style="font-size:12;fill:#ffffff;stroke:#ffffff;stroke-opacity:1;"/>
  <path d="M 395.21532 219.79606 C 392.73926 219.62712 389.17457 223.3135 396.12117 227.53795 C 403.45597 232.09792 402.16765 233.22771 414.41785 232.63889 C 415.90365 232.58584 415.99501 230.77142 410.66725 231.39742 C 400.9342 232.61 395.63628 225.57223 396.86584 224.97471 C 399.43632 223.55002 397.83947 220.00007 395.21532 219.79606 z " id="path955" sodipodi:nodetypes="csssss" style="font-size:12;fill:#ffffff;stroke:#ffffff;stroke-opacity:1;"/>
  <path d="M 406.92184 235.98149 C 407.07924 237.01901 410.09044 239.35131 411.65423 239.45656 C 418.02963 239.73418 415.6756 241.71143 417.46127 241.88674 C 423.27373 242.44251 415.5306 238.50991 413.61852 238.54121 C 408.86658 238.61327 406.91567 234.89876 406.92184 235.98149 z " id="path956" sodipodi:nodetypes="cssss" style="font-size:12;fill:#ffffff;stroke:#ffffff;stroke-opacity:1;"/>
  <path d="M 357.97277 64.587281 C 355.87855 63.967242 357.104 69.548742 360.81403 73.373509 C 363.05055 75.808338 365.40558 75.6949 365.22824 73.067475 C 364.97465 69.524418 366.07367 69.673282 362.24046 68.928329 C 360.52723 68.691127 358.36028 64.48778 357.97277 64.587281 z " id="path924" sodipodi:nodetypes="cssss" style="font-size:12;fill:#000000;stroke:#000000;stroke-opacity:1;fill-opacity:1;"/>
</svg>
