<?xml version="1.0" encoding="UTF-8" standalone="no"?>
<svg
    xmlns:dc="http://purl.org/dc/elements/1.1/"
    xmlns:cc="http://creativecommons.org/ns#"
    xmlns:rdf="http://www.w3.org/1999/02/22-rdf-syntax-ns#"
    xmlns:svg="http://www.w3.org/2000/svg"
    xmlns="http://www.w3.org/2000/svg"
    xmlns:sodipodi="http://sodipodi.sourceforge.net/DTD/sodipodi-0.dtd"
    xmlns:inkscape="http://www.inkscape.org/namespaces/inkscape"
    height="496.06"
    id="svg548"
    sodipodi:docname="French_Polynesia.svg"
    sodipodi:version="0.32"
    width="744.09"
    inkscape:version="0.47 r22583"
    inkscape:output_extension="org.inkscape.output.svg.inkscape"
    version="1.1">
	<sodipodi:namedview
			   pagecolor="#ffffff"
			   bordercolor="#666666"
			   borderopacity="1"
			   objecttolerance="10"
			   gridtolerance="10"
			   guidetolerance="10"
			   inkscape:pageopacity="0"
			   inkscape:pageshadow="2"
			   inkscape:window-width="640"
			   inkscape:window-height="480"
			   id="namedview60"
			   showgrid="false"
			   inkscape:zoom="0.51606661"
			   inkscape:cx="372.04501"
			   inkscape:cy="248.03"
			   inkscape:window-x="0"
			   inkscape:window-y="0"
			   inkscape:window-maximized="0"
			   inkscape:current-layer="svg548" />
	<metadata
		 id="metadata3">
		<rdf:RDF>
			<cc:Work
				rdf:about="">
				<dc:title>French Polynesia</dc:title>
				<dc:description />
				<dc:subject>
					<rdf:Bag>
						<rdf:li>polynesia</rdf:li>
						<rdf:li>oceania</rdf:li>
						<rdf:li>france</rdf:li>
						<rdf:li>flag</rdf:li>
						<rdf:li>sign</rdf:li>
						<rdf:li>French_Polynesia</rdf:li>
					</rdf:Bag>
				</dc:subject>
				<dc:publisher>
					<cc:Agent
						 rdf:about="http://www.openclipart.org">
						<dc:title>Tobias Jakobs</dc:title>
					</cc:Agent>
				</dc:publisher>
				<dc:creator>
					<cc:Agent>
						<dc:title>Tobias Jakobs</dc:title>
					</cc:Agent>
				</dc:creator>
				<dc:rights>
					<cc:Agent>
						<dc:title>Tobias Jakobs</dc:title>
					</cc:Agent>
				</dc:rights>
				<dc:date />
				<dc:format>image/svg+xml</dc:format>
				<dc:type
					rdf:resource="http://purl.org/dc/dcmitype/StillImage" />
				<cc:license
					   rdf:resource="http://web.resource.org/cc/PublicDomain" />
				<dc:language>en</dc:language>
			</cc:Work>
			<cc:License
				   rdf:about="http://web.resource.org/cc/PublicDomain">
				<cc:permits
					   rdf:resource="http://web.resource.org/cc/Reproduction" />
				<cc:permits
					   rdf:resource="http://web.resource.org/cc/Distribution" />
				<cc:permits
					   rdf:resource="http://web.resource.org/cc/DerivativeWorks" />
			</cc:License>
		</rdf:RDF>
	</metadata>
	<defs
	     id="defs550">
		<inkscape:perspective
				     sodipodi:type="inkscape:persp3d"
				     inkscape:vp_x="0 : 248.03149 : 1"
				     inkscape:vp_y="0 : 1000 : 0"
				     inkscape:vp_z="744.09448 : 248.03149 : 1"
				     inkscape:persp3d-origin="372.04724 : 165.35433 : 1"
				     id="perspective59" />
		<inkscape:perspective
				     id="perspective3643"
				     inkscape:persp3d-origin="0.5 : 0.33333333 : 1"
				     inkscape:vp_z="1 : 0.5 : 1"
				     inkscape:vp_y="0 : 1000 : 0"
				     inkscape:vp_x="0 : 0.5 : 1"
				     sodipodi:type="inkscape:persp3d" />
	</defs>
	<rect
	     height="496.06"
	     id="rect619-3"
	     style="fill:#ffffff"
	     width="744.09448" />
	<path
	     d="m 327.898,352.15201 c 0,0 11.202,-9.082 22.102,-9.082 10.9,0 13.928,7.568 21.497,8.173 7.569,0.606 13.926,-7.569 23.313,-7.871 9.386,-0.302 21.194,6.66 21.194,6.66 l -41.176,12.415 -46.93,-10.295 z"
	     id="path560"
	     style="fill:#00267f;fill-opacity:1;fill-rule:evenodd;stroke:#00267f;stroke-width:1.93771992pt;stroke-opacity:1" />
	<path
	     d="m 304.282,338.83001 139.879,0.606 c 0,0 -12.11,-13.019 -26.341,-13.321 -14.23,-0.305 -10.293,6.055 -21.193,6.962 -10.899,0.909 -13.626,-6.66 -23.617,-6.358 -9.99,0.302 -15.744,6.358 -23.312,6.662 -7.569,0.302 -17.258,-7.571 -23.011,-7.266 -5.753,0.302 -26.341,9.082 -26.341,9.082 l 3.936,3.633 z"
	     id="path561"
	     style="fill:#00267f;fill-opacity:1;fill-rule:evenodd;stroke:#00267f;stroke-width:1.93771992pt;stroke-opacity:1" />
	<path
	     d="m 286.42,322.17701 172.577,0.607 c 2.724,-3.936 -8.478,-13.322 -18.771,-14.231 -8.48,0.302 -14.533,8.78 -21.497,9.084 -6.964,0.302 -14.835,-8.782 -22.708,-8.477 -7.871,0.302 -16.046,8.477 -23.919,8.477 -7.871,0 -13.624,-8.782 -23.615,-8.782 -9.991,0 -14.533,9.689 -22.102,9.084 -7.571,-0.606 -14.231,-9.688 -21.497,-9.688 -7.266,0 -19.377,10.899 -21.799,10.293 -2.422,-0.605 3.026,4.542 3.331,3.633 z"
	     id="path562"
	     sodipodi:nodetypes="ccccccccccc"
	     style="fill:#00267f;fill-opacity:1;fill-rule:evenodd;stroke:#00267f;stroke-width:1.93771992pt;stroke-opacity:1" />
	<path
	     d="m 352.724,226.20001 39.664,10.598 0,-56.619 c -18.167,0.909 -33.304,-34.515 -1.211,-36.937 -31.488,-4.542 -35.122,3.633 -38.755,12.413 l 0.302,70.545 z"
	     id="path563"
	     sodipodi:nodetypes="cccccc"
	     style="fill:#f31830;fill-opacity:1;fill-rule:evenodd;stroke:#630810;stroke-width:2.4221499;stroke-linejoin:round;stroke-opacity:1" />
	<path
	     d="m 327.596,267.37701 89.62,0.302"
	     id="path564"
	     style="fill:#083d9c;fill-rule:evenodd;stroke:#630810;stroke-width:4.84428978;stroke-linecap:round;stroke-opacity:1" />
	<g
	  id="g570"
	  style="fill-opacity:1;stroke:#630810;stroke-opacity:1"
	  transform="matrix(1.93772,0,0,1.93772,0,-0.00300354)">
		<path
		     d="m 171.25,126.893 5.469,7.344"
		     id="path565"
		     style="fill-opacity:1;fill-rule:evenodd;stroke:#630810;stroke-width:2;stroke-linecap:round;stroke-linejoin:miter;stroke-opacity:1;stroke-dasharray:none" />
		<path
		     d="m 171.25,134.237 5.938,-7.187"
		     id="path566"
		     style="fill-opacity:1;fill-rule:evenodd;stroke:#630810;stroke-width:2;stroke-linecap:round;stroke-linejoin:miter;stroke-opacity:1;stroke-dasharray:none" />
		<path
		     d="m 174.375,126.424 -0.156,4.531"
		     id="path567"
		     style="fill-opacity:1;fill-rule:evenodd;stroke:#630810;stroke-width:2;stroke-linecap:round;stroke-linejoin:miter;stroke-opacity:1;stroke-dasharray:none" />
	</g>
	<g
	  id="g574"
	  style="stroke:#630810;stroke-opacity:1"
	  transform="matrix(1.93772,0,0,1.93772,16.955,-0.00300354)">
		<path
		     d="m 171.25,126.893 5.469,7.344"
		     id="path575"
		     style="fill:none;stroke:#630810;stroke-width:2;stroke-linecap:round;stroke-linejoin:miter;stroke-opacity:1;stroke-dasharray:none" />
		<path
		     d="m 171.25,134.237 5.938,-7.187"
		     id="path576"
		     style="fill:none;stroke:#630810;stroke-width:2;stroke-linecap:round;stroke-linejoin:miter;stroke-opacity:1;stroke-dasharray:none" />
		<path
		     d="m 174.375,126.424 -0.156,4.531"
		     id="path577"
		     style="fill:none;stroke:#630810;stroke-width:2;stroke-linecap:round;stroke-linejoin:miter;stroke-opacity:1;stroke-dasharray:none" />
	</g>
	<g
	  id="g578"
	  style="stroke:#630810;stroke-opacity:1"
	  transform="matrix(1.93772,0,0,1.93772,34.2128,-0.00300354)">
		<path
		     d="m 171.25,126.893 5.469,7.344"
		     id="path579"
		     style="fill:none;stroke:#630810;stroke-width:2;stroke-linecap:round;stroke-linejoin:miter;stroke-opacity:1;stroke-dasharray:none" />
		<path
		     d="m 171.25,134.237 5.938,-7.187"
		     id="path580"
		     style="fill:none;stroke:#630810;stroke-width:2;stroke-linecap:round;stroke-linejoin:miter;stroke-opacity:1;stroke-dasharray:none" />
		<path
		     d="m 174.375,126.424 -0.156,4.531"
		     id="path581"
		     style="fill:none;stroke:#630810;stroke-width:2;stroke-linecap:round;stroke-linejoin:miter;stroke-opacity:1;stroke-dasharray:none" />
	</g>
	<g
	  id="g582"
	  style="stroke:#630810;stroke-opacity:1"
	  transform="matrix(1.93772,0,0,1.93772,52.0761,-0.00300354)">
		<path
		     d="m 171.25,126.893 5.469,7.344"
		     id="path583"
		     style="fill:none;stroke:#630810;stroke-width:2;stroke-linecap:round;stroke-linejoin:miter;stroke-opacity:1;stroke-dasharray:none" />
		<path
		     d="m 171.25,134.237 5.938,-7.187"
		     id="path584"
		     style="fill:none;stroke:#630810;stroke-width:2;stroke-linecap:round;stroke-linejoin:miter;stroke-opacity:1;stroke-dasharray:none" />
		<path
		     d="m 174.375,126.424 -0.156,4.531"
		     id="path585"
		     style="fill:none;stroke:#630810;stroke-width:2;stroke-linecap:round;stroke-linejoin:miter;stroke-opacity:1;stroke-dasharray:none" />
	</g>
	<g
	  id="g586"
	  style="stroke:#630810;stroke-opacity:1"
	  transform="matrix(1.93772,0,0,1.93772,69.3339,-0.00300354)">
		<path
		     d="m 171.25,126.893 5.469,7.344"
		     id="path587"
		     style="fill:none;stroke:#630810;stroke-width:2;stroke-linecap:round;stroke-linejoin:miter;stroke-opacity:1;stroke-dasharray:none" />
		<path
		     d="m 171.25,134.237 5.938,-7.187"
		     id="path588"
		     style="fill:none;stroke:#630810;stroke-width:2;stroke-linecap:round;stroke-linejoin:miter;stroke-opacity:1;stroke-dasharray:none" />
		<path
		     d="m 174.375,126.424 -0.156,4.531"
		     id="path589"
		     style="fill:none;stroke:#630810;stroke-width:2;stroke-linecap:round;stroke-linejoin:miter;stroke-opacity:1;stroke-dasharray:none" />
	</g>
	<path
	     d="m 267.345,268.28501 38.148,0.303 0,-23.919 -43.599,-2.118 5.451,25.734 z"
	     id="path590"
	     style="fill:#ff9c10;fill-opacity:1;fill-rule:evenodd;stroke:none" />
	<path
	     d="m 265.527,235.28401 40.572,3.936 -0.302,-16.955 -39.663,-15.744 -0.607,28.763 z"
	     id="path591"
	     style="fill:#ff9c10;fill-opacity:1;fill-rule:evenodd;stroke:none" />
	<path
	     d="m 273.702,201.37401 31.186,15.138 4.453,-4.649 c 0,0 -2.868,-1.976 -2.726,-3.794 0.054,-1.839 2.885,-2.118 2.939,-4.114 0.052,-1.839 -3.207,-2.06 -3.242,-3.9 -0.213,-1.994 2.512,-4.132 2.512,-4.132 l -28.157,-24.524 -6.965,29.975 z"
	     id="path592"
	     sodipodi:nodetypes="ccssssccc"
	     style="fill:#ff9c10;fill-opacity:1;fill-rule:evenodd;stroke:none" />
	<path
	     d="m 478.374,268.58801 -40.268,0 -0.302,-23.313 44.203,-3.331 -3.633,26.644 z"
	     id="path593"
	     style="fill:#ff9c10;fill-opacity:1;fill-rule:evenodd;stroke:none" />
	<path
	     d="m 438.408,239.82401 47.839,-5.751 -10.295,-27.552 -37.846,16.046 0.302,17.257 z"
	     id="path594"
	     style="fill:#ff9c10;fill-opacity:1;fill-rule:evenodd;stroke:none" />
	<path
	     d="m 473.227,198.95201 -34.516,18.166 c -0.504,-1.969 -0.932,-3.862 -3.329,-5.451 0,0 2.118,-1.211 2.118,-3.331 0,-2.118 -2.725,-2.422 -2.725,-3.633 0,-1.211 2.498,-2.269 2.649,-4.995 -0.302,-1.892 -2.649,-4.54 -2.195,-5.071 l 26.796,-20.513 11.202,24.828 z"
	     id="path595"
	     sodipodi:nodetypes="ccccccccc"
	     style="fill:#ff9c10;fill-opacity:1;fill-rule:evenodd;stroke:none" />
	<path
	     d="m 398.445,239.37101 17.257,-0.756 0.302,-6.966 -17.559,7.722 z"
	     id="path596"
	     sodipodi:nodetypes="cccc"
	     style="fill:#ff9c10;fill-opacity:1;fill-rule:evenodd;stroke:none" />
	<path
	     d="m 345.762,238.84001 -18.166,-0.529 0,-7.267 18.166,7.796 z"
	     id="path597"
	     sodipodi:nodetypes="cccc"
	     style="fill:#ff9c10;fill-opacity:1;fill-rule:evenodd;stroke:none" />
	<path
	     d="m 345.687,236.72201 -18.091,-9.311 c 0,-4.036 0,-8.074 0,-12.11 0,0 -2.12,0.302 -1.817,-2.12 0.1,-5.046 13.296,9.21 20.059,13.852 l -0.151,9.689 z"
	     id="path598"
	     sodipodi:nodetypes="cccccc"
	     style="fill:#ff9c10;fill-opacity:1;fill-rule:evenodd;stroke:none" />
	<path
	     d="m 398.443,235.58601 -0.074,-7.871 c 0,0 16.347,-14.759 19.829,-17.485 0,3.028 -1.891,5.373 -1.891,5.373 l 0,11.506 -17.864,8.477 z"
	     id="path599"
	     sodipodi:nodetypes="cccccc"
	     style="fill:#ff9c10;fill-opacity:1;fill-rule:evenodd;stroke:none" />
	<path
	     d="m 292.475,169.28001 c 0.302,0.303 18.344,20.355 18.344,20.355 0.506,-1.9 4.666,-2.189 8.904,-1.886 4.24,0.302 7.619,-0.284 7.619,2.744 0,3.027 -2.151,2.597 -2.151,4.717 0,2.12 3.223,1.942 3.223,4.664 0,2.725 -2.337,2.169 -2.349,4.279 -0.007,1.744 2.438,1.837 2.438,1.837 l 17.182,16.653 0.075,-17.789 -35.423,-55.557 -17.862,19.983 z"
	     id="path600"
	     sodipodi:nodetypes="ccccsssscccc"
	     style="fill:#ff9c10;fill-opacity:1;fill-rule:evenodd;stroke:none" />
	<path
	     d="m 320.818,148.24301 c 0.269,0.808 23.993,49.066 23.993,49.066 0,0 0.269,-45.292 4.313,-47.718 l -6.739,-12.402 -21.567,11.054 z"
	     id="path601"
	     sodipodi:nodetypes="ccccc"
	     style="fill:#ff9c10;fill-opacity:1;fill-rule:evenodd;stroke:none" />
	<path
	     d="m 425.15,150.13001 -26.79,47.793 0.035,-20.143 c 0,0 2.222,-3.387 -1.283,-3.117 -3.504,0.269 -7.817,-0.27 -7.817,-0.27 l 10.783,-37.743 25.072,13.48 z"
	     id="path602"
	     sodipodi:nodetypes="ccccccc"
	     style="fill:#ff9c10;fill-opacity:1;fill-rule:evenodd;stroke:none" />
	<path
	     d="m 452.649,170.61901 c -0.27,0.539 -18.073,18.644 -18.073,18.644 -0.808,-2.156 -6.191,-1.121 -11.313,-1.121 -5.123,0 -5.836,1.642 -5.565,2.99 0.539,3.505 2.269,0.922 2.269,4.158 0,3.234 -2.492,2.054 -2.715,4.422 0.248,2.72 3.913,2.048 1.766,4.109 l -20.616,19.79 0.058,-18.753 38.282,-59.581 15.907,25.342 z"
	     id="path603"
	     sodipodi:nodetypes="ccccssscccc"
	     style="fill:#ff9c10;fill-opacity:1;fill-rule:evenodd;stroke:none" />
	<path
	     d="m 361.526,277.37901 c -8.627,14.289 -31.69,10.051 -37.083,0.076 -1.616,-0.458 -0.66,-61.544 -0.66,-61.544 0,0 -2.577,-1.174 -2.696,-3.052 -0.118,-1.897 3.504,-2.069 3.504,-4.497 0,-2.426 -3.699,-1.475 -3.773,-3.917 0.016,-2.335 3.949,-2.013 3.773,-4.171 -0.208,-2.432 -4.405,-2.072 -4.583,-4.314 -0.136,-1.781 3.002,-3.334 3.874,-4.135 -0.564,0.028 -2.915,-0.035 -2.93,-0.043 -2.202,0.045 -4.405,0.09 -6.606,0.135 -4.693,0.005 0.081,1.023 0.012,3.731 -0.043,1.769 -2.38,2.946 -2.589,4.484 -0.074,1.579 3.344,2.688 3.387,4.583 0.039,1.691 -3.358,1.806 -3.236,3.377 0.211,2.659 3.009,3.244 2.967,4.854 -0.043,1.608 -3.765,2.221 -3.775,3.504 0.13,2.482 0.539,62.815 0.539,62.815 5.931,30.734 40.169,38.552 49.875,-1.886 z"
	     id="path604"
	     sodipodi:nodetypes="ccsssssscccsssssscc"
	     style="fill:#f31830;fill-opacity:1;fill-rule:evenodd;stroke:#630810;stroke-width:2.4221499;stroke-linejoin:round;stroke-opacity:1" />
	<path
	     d="m 384.102,277.37901 c 8.627,14.289 31.689,10.051 37.082,0.076 1.616,-0.458 0.661,-61.544 0.661,-61.544 0,0 2.577,-1.174 2.695,-3.052 0.118,-1.897 -3.277,-2.069 -3.277,-4.497 0,-2.426 3.473,-1.475 3.546,-3.917 -0.015,-2.335 -3.646,-2.164 -3.47,-4.323 0.207,-2.431 3.058,-2.147 3.22,-4.389 0.136,-1.931 -1.79,-3.107 -2.662,-3.908 0.564,0.028 2.763,-0.035 2.779,-0.043 2.201,0.045 4.404,0.09 6.605,0.135 4.694,0.005 -0.081,1.023 -0.011,3.731 0.042,1.769 2.379,2.946 2.589,4.484 0.073,1.579 -3.345,2.688 -3.388,4.583 -0.038,1.691 3.359,1.806 3.236,3.377 -0.211,2.659 -3.009,3.244 -2.966,4.854 0.042,1.608 3.765,2.221 3.774,3.504 -0.129,2.482 -0.538,62.815 -0.538,62.815 -5.932,30.734 -40.169,38.552 -49.875,-1.886 z"
	     id="path606"
	     sodipodi:nodetypes="ccsssssscccsssssscc"
	     style="fill:#f31830;fill-opacity:1;fill-rule:evenodd;stroke:#630810;stroke-width:2.4221499;stroke-linejoin:round;stroke-opacity:1" />
	<path
	     d="m 353.149,305.47801 38.524,-0.023 c 0.3,-0.303 -8.625,-13.305 -19.256,-12.388 -11.843,0.31 -19.888,12.411 -19.268,12.411 z"
	     id="path610"
	     sodipodi:nodetypes="cccc"
	     style="fill:#00267f;fill-opacity:1;fill-rule:evenodd;stroke:#00267f;stroke-width:1.93771992pt;stroke-opacity:1" />
	<path
	     d="m 475.986,304.54001 -52.715,0 c 0,0 6.823,-4.032 8.683,-7.753 3.41,1.861 2.48,3.721 9.303,4.031 6.821,0.31 13.333,-7.751 19.846,-7.441 6.511,0.31 14.883,11.473 14.883,11.163 z"
	     id="path611"
	     sodipodi:nodetypes="cccccc"
	     style="fill:#00267f;fill-opacity:1;fill-rule:evenodd;stroke:#00267f;stroke-width:1.93771992pt;stroke-opacity:1" />
	<path
	     d="m 268.254,304.54001 52.715,0 c 0,0 -6.823,-4.032 -8.683,-7.753 -3.41,1.861 -2.48,3.721 -9.303,4.031 -6.82,0.31 -13.333,-7.751 -19.846,-7.441 -6.511,0.31 -14.883,11.473 -14.883,11.163 z"
	     id="path612"
	     sodipodi:nodetypes="cccccc"
	     style="fill:#00267f;fill-opacity:1;fill-rule:evenodd;stroke:#00267f;stroke-width:1.93771992pt;stroke-opacity:1" />
	<path
	     d="m 272.189,287.96501 37.543,0.302 c 0,0 -2.422,-5.146 -2.724,-11.504 -9.691,-3.329 -17.562,7.266 -24.526,7.569 -6.962,0.302 -14.228,-7.569 -14.228,-7.569 l 3.935,11.202 z"
	     id="path613"
	     sodipodi:nodetypes="cccccc"
	     style="fill:#00267f;fill-opacity:1;fill-rule:evenodd;stroke:#00267f;stroke-width:1.93771992pt;stroke-opacity:1" />
	<path
	     d="m 472.623,287.96501 -37.544,0.302 c 0,0 2.423,-5.146 2.725,-11.504 9.69,-3.329 17.561,7.266 24.525,7.569 6.963,0.302 14.229,-7.569 14.229,-7.569 l -3.935,11.202 z"
	     id="path614"
	     sodipodi:nodetypes="cccccc"
	     style="fill:#00267f;fill-opacity:1;fill-rule:evenodd;stroke:#00267f;stroke-width:1.93771992pt;stroke-opacity:1" />
	<path
	     d="m 362.717,288.26701 19.073,-0.604 c 0,0 0.304,-5.753 -9.688,-5.753 -9.991,0 -9.082,6.661 -9.385,6.357 z"
	     id="path615"
	     style="fill:#00267f;fill-opacity:1;fill-rule:evenodd;stroke:#00267f;stroke-width:1.93771992pt;stroke-opacity:1" />
	<path
	     d="m 351.211,280.09401 c 3.331,-1.818 6.358,-3.633 8.478,-7.873 l -13.02,0.302 c 0,0 -6.053,3.635 -9.082,7.571 l 13.624,0 z"
	     id="path616"
	     sodipodi:nodetypes="ccccc"
	     style="fill:#00267f;fill-opacity:1;fill-rule:evenodd;stroke:#00267f;stroke-width:1.93771992pt;stroke-opacity:1" />
	<path
	     d="m 393.296,280.09401 c -3.331,-1.818 -6.357,-3.633 -8.477,-7.873 l 13.019,0.302 c 0,0 6.054,3.635 9.082,7.571 l -13.624,0 z"
	     id="path617"
	     sodipodi:nodetypes="ccccc"
	     style="fill:#00267f;fill-opacity:1;fill-rule:evenodd;stroke:#00267f;stroke-width:1.93771992pt;stroke-opacity:1" />
	<path
	     d="m -6.073e-8,124.01301 c 0,0 0,248.031 0,248.031 0,0 744.08300006073,0 744.08300006073,0 0,0 0,-248.031 0,-248.031 0,0 -744.08300006073,0 -744.08300006073,0 z M 360.415,139.63701 c 15.502,0 29.066,0 44.568,5.859 87.197,27.342 98.823,150.381 21.315,197.254 -13.564,9.764 -27.128,13.671 -42.63,15.623 -11.626,0 -23.253,0 -34.879,-1.952 -85.259,-17.578 -112.388,-130.852 -48.443,-189.442 17.44,-15.624 36.817,-23.437 60.069,-27.342 z"
	     id="selection_to_path"
	     style="fill:#ffffff;fill-opacity:1;stroke:none" />
	<rect
	     height="124.01574"
	     id="rect618"
	     style="fill:#f31830;fill-opacity:1;fill-rule:evenodd;stroke-width:1pt"
	     width="744.09448"
	     x="0"
	     y="372.04395" />
	<rect
	     height="124.01574"
	     id="rect619"
	     style="fill:#f31830;fill-opacity:1;fill-rule:evenodd;stroke-width:1pt"
	     width="744.09448"
	     x="0"
	     y="-0.0029722813" />
</svg>
 
