<?xml version="1.0" encoding="UTF-8" standalone="no"?>
<!-- Created with Inkscape (http://www.inkscape.org/) -->
<svg
   xmlns:dc="http://purl.org/dc/elements/1.1/"
   xmlns:cc="http://web.resource.org/cc/"
   xmlns:rdf="http://www.w3.org/1999/02/22-rdf-syntax-ns#"
   xmlns:svg="http://www.w3.org/2000/svg"
   xmlns="http://www.w3.org/2000/svg"
   xmlns:sodipodi="http://sodipodi.sourceforge.net/DTD/sodipodi-0.dtd"
   xmlns:inkscape="http://www.inkscape.org/namespaces/inkscape"
   width="900"
   height="600"
   id="svg1901"
   sodipodi:version="0.32"
   inkscape:version="0.44"
   version="1.0"
   sodipodi:docbase="C:\freeciv"
   sodipodi:docname="gupta.svg">
  <defs
     id="defs1903" />
  <sodipodi:namedview
     id="base"
     pagecolor="#ffffff"
     bordercolor="#666666"
     borderopacity="1.0"
     gridtolerance="10000"
     guidetolerance="10"
     objecttolerance="10"
     inkscape:pageopacity="0.0"
     inkscape:pageshadow="2"
     inkscape:zoom="1.2766667"
     inkscape:cx="450"
     inkscape:cy="300"
     inkscape:document-units="px"
     inkscape:current-layer="layer1"
     width="900px"
     height="600px"
     showguides="true"
     inkscape:guide-bbox="true"
     inkscape:window-width="1280"
     inkscape:window-height="968"
     inkscape:window-x="-4"
     inkscape:window-y="-4" />
  <metadata
     id="metadata1906">
    <rdf:RDF>
      <cc:Work
         rdf:about="">
        <dc:format>image/svg+xml</dc:format>
        <dc:type
           rdf:resource="http://purl.org/dc/dcmitype/StillImage" />
      </cc:Work>
    </rdf:RDF>
  </metadata>
  <g
     inkscape:label="Layer 1"
     inkscape:groupmode="layer"
     id="layer1">
    <rect
       style="opacity:1;fill:yellow;fill-opacity:1;stroke:none;stroke-width:2.5999999;stroke-linecap:butt;stroke-linejoin:round;stroke-miterlimit:4;stroke-dasharray:none;stroke-opacity:1"
       id="rect1910"
       width="900"
       height="600"
       x="0"
       y="2.5757174e-014" />
    <path
       style="fill:#a00"
       d="M 585.60285,475.52784 C 575.75928,471.9769 539.00159,462.78308 518.59015,464.30026 C 511.49464,453.2848 541.53552,443.89042 516.5815,444.06311 C 499.58264,450.18426 513.35993,421.95984 498.59592,421.98195 C 497.17873,432.72274 490.32783,437.37685 502.63789,445.34602 C 497.51479,462.20943 506.00495,470.04711 525.0245,471.11748 C 539.56315,471.31817 568.10951,484.88594 550.69669,501.16796 C 535.42189,512.29452 536.72778,479.85089 530.18246,491.42945 C 546.10554,506.02582 510.89216,521.10399 517.18357,500.09559 C 508.22265,494.6184 473.46395,480.02536 504.85168,508.2485 C 503.51471,527.18918 472.09836,481.18669 485.93846,520.25298 C 474.80938,544.30362 469.90474,509.77501 470.19014,518.34843 C 463.88397,513.14928 458.63863,501.64477 459.57043,519.26837 C 454.65534,534.17924 443.55401,534.94281 440.73469,518.04927 C 444.01372,502.26725 426.28647,514.6114 429.93917,521.99132 C 432.6288,530.12147 422.8478,535.67175 416.63159,530.58643 C 405.11225,528.53325 417.10703,498.36965 409.25481,512.80223 C 411.27578,531.68687 378.03868,513.27241 397.04007,501.84056 C 422.08522,493.11734 372.10894,492.31574 384.45979,506.74501 C 377.5655,518.52909 363.47609,507.02697 366.08369,496.85872 C 343.73538,518.80761 334.33355,475.58884 360.53799,474.61841 C 369.27697,473.70769 410.58047,466.95627 395.49198,451.74497 C 399.36112,440.38312 410.3524,435.88862 400.84301,424.52386 C 396.59017,417.56977 384.71349,437.3886 393.34978,442.65484 C 385.97804,442.50869 358.7428,445.67124 378.48635,452.57079 C 398.2299,459.47034 385.6418,471.21123 365.70552,466.57511 C 345.76924,461.93899 320.92963,482.78998 305.51956,469.81813 C 303.23873,459.34301 297.96821,431.38713 322.42551,435.9983 C 337.83863,446.28172 368.19856,435.12627 364.17333,416.23391 C 348.26903,413.22667 328.55386,403.49687 313.93714,391.95367 C 301.20363,372.9438 307.39426,341.70808 329.05261,331.45082 C 269.8338,274.10296 195.54157,152.36494 253.81726,70.94445 C 265.15917,65.544669 256.11119,102.94909 263.50529,112.65323 C 270.02715,126.82669 275.7234,131.84368 281.82996,150.19552 C 292.24773,173.89718 300.61047,138.26612 293.99486,128.46045 C 300.21204,121.41309 309.96676,133.2006 316.15057,120.55071 C 324.53755,109.61289 358.2765,118.83408 350.19301,127.99278 C 333.26766,130.44723 319.18672,142.57154 318.74598,160.6815 C 331.01221,202.30405 374.36906,218.20568 410.89318,233.96078 C 404.64687,216.66739 399.79253,200.88653 399.98069,181.48314 C 400.07041,169.90473 396.18562,147.35674 412.54287,162.96138 C 413.33159,150.7402 432.49827,162.72302 424.96279,151.00002 C 438.27062,137.68245 442.37834,116.45388 448.52676,96.073327 C 454.01548,117.70764 459.73688,136.19217 469.43279,152.76677 C 462.68682,163.94158 479.49272,151.31768 486.69321,162.9498 C 503.39063,143.08615 498.85252,170.8218 498.45857,182.84315 C 497.30063,204.25268 497.37481,214.51547 489.34494,234.55803 C 518.49711,238.41016 564.82342,204.33804 574.83136,175.34616 C 589.39898,156.66654 572.33173,128.70173 549.60622,127.50151 C 552.23938,105.73014 584.9153,120.4773 596.83509,126.48692 C 618.30845,122.11955 590.0238,152.63382 611.24481,158.68691 C 618.6806,142.79528 630.95511,126.79389 634.94929,110.21618 C 641.11082,98.807547 639.43394,83.335359 641.34969,67.253591 C 704.62391,147.50257 623.74214,272.56787 562.07141,330.75779 C 583.4729,336.44374 606.56733,360.81154 581.97533,393.75269 C 569.93297,409.17182 543.7784,409.28226 534.19305,420.06261 C 541.64062,444.18071 567.08757,440.03353 585.74504,435.69218 C 604.30623,441.3376 596.22971,471.24588 585.60285,475.52784 z "
       id="path1899"
       sodipodi:nodetypes="cccccccccccccccccccccccccccccccccccccccccccccccccccccccccc" />
  </g>
</svg>
