<?xml version="1.0" encoding="UTF-8"?>
<svg xmlns="http://www.w3.org/2000/svg" width="300" height="200">
  <rect width="300" height="200" fill="#ffffff" />
  <polygon
     type="star"
     sides="5"
     points="0,-4.004 0,-4.004 0.89895401,-1.237304 3.8080303,-1.237304 1.4545381,0.47260809 2.3534922,3.239304 0,1.5293919 -2.3534922,3.239304 -1.4545381,0.47260809 -3.8080303,-1.237304 -0.89895401,-1.237304 "
     r1="4"
     r2="1.5293919"
     transform="matrix(6.9029272,0,0,6.9029272,36.286556,87.63932)"
     d="M 1.3084868e-6,-4.0040002 0.89895399,-1.237304 3.8080309,-1.2373029 1.4545381,0.47260808 2.3534912,3.239305 0,1.5293919 -2.3534933,3.2393034 -1.4545381,0.47260809 -3.8080301,-1.2373053 -0.898954,-1.237304 1.3084868e-6,-4.0040002 z"
     fill="#ffcc00" />
  <polygon
     type="star"
     sides="5"
     points="0,1.5293919 -2.3534922,3.239304 -1.4545381,0.47260809 -3.8080303,-1.237304 -0.89895401,-1.237304 0,-4.004 0,-4.004 0.89895401,-1.237304 3.8080303,-1.237304 1.4545381,0.47260809 2.3534922,3.239304 "
     r1="4"
     r2="1.5293919"
     transform="matrix(6.9029272,0,0,6.9029272,36.286556,137.63932)"
     d="M 1.3084868e-6,-4.0040002 0.89895399,-1.237304 3.8080309,-1.2373029 1.4545381,0.47260808 2.3534912,3.239305 0,1.5293919 -2.3534933,3.2393034 -1.4545381,0.47260809 -3.8080301,-1.2373053 -0.898954,-1.237304 1.3084868e-6,-4.0040002 z"
     fill="#ffcc00" />
  <polygon
     type="star"
     sides="5"
     points="-2.3534922,3.239304 -1.4545381,0.47260809 -3.8080303,-1.237304 -0.89895401,-1.237304 0,-4.004 0,-4.004 0.89895401,-1.237304 3.8080303,-1.237304 1.4545381,0.47260809 2.3534922,3.239304 0,1.5293919 "
     r1="4"
     r2="1.5293919"
     transform="matrix(6.9029272,0,0,6.9029272,36.286556,37.63932)"
     d="M 1.3084868e-6,-4.0040002 0.89895399,-1.237304 3.8080309,-1.2373029 1.4545381,0.47260808 2.3534912,3.239305 0,1.5293919 -2.3534933,3.2393034 -1.4545381,0.47260809 -3.8080301,-1.2373053 -0.898954,-1.237304 1.3084868e-6,-4.0040002 z"
     fill="#ffcc00" />
</svg>
