<?xml version="1.0" encoding="UTF-8" standalone="no"?>
<svg xmlns:dc="http://purl.org/dc/elements/1.1/" xmlns:cc="http://creativecommons.org/ns#" xmlns:rdf="http://www.w3.org/1999/02/22-rdf-syntax-ns#" xmlns:svg="http://www.w3.org/2000/svg" xmlns="http://www.w3.org/2000/svg" xmlns:sodipodi="http://sodipodi.sourceforge.net/DTD/sodipodi-0.dtd" xmlns:inkscape="http://www.inkscape.org/namespaces/inkscape" width="900" height="600">
  <rect fill="#c8b7b7" width="900" height="600"/>
  <path style="fill: rgb(120, 68, 33); stroke: none;" d="M 367.51268,417.36098 C 356.27478,418.48698 345.37198,427.99698 334.51268,428.00698 C 321.90058,428.01798 311.86108,408.23398 298.73722,422.46598 C 291.81658,429.97098 292.18205,444.44598 296.04586,453.36098 C 301.43743,465.80198 308.05358,477.04298 311.87458,490.36098 C 316.77358,507.43598 316.74828,528.48498 318.39308,546.36098 C 319.27568,555.95398 319.98518,565.75098 320.40848,575.36098 C 320.66058,581.08498 318.90448,586.11398 323.20098,590.96698 C 333.69138,602.81698 362.41528,599.52398 363.51268,582.36098 L 359.51268,578.36098 L 361.51268,578.36098 C 358.06078,569.05698 360.05108,560.00398 360.47328,550.36098 C 361.03438,537.54698 359.03148,521.91998 365.55668,510.36098 C 371.67878,499.51598 386.22828,490.06198 389.51268,478.36098 C 396.87968,480.53898 406.17868,479.80698 413.51268,477.69598 C 417.41668,476.57198 423.35168,472.94298 427.45368,474.09298 C 434.15168,475.97098 431.02868,491.87098 435.16468,497.25598 C 443.60968,508.25198 466.55568,503.64898 473.44568,518.37598 C 478.63868,529.47598 467.51468,543.83098 472.51268,555.36098 L 470.51268,554.36098 L 470.51268,555.36098 C 473.14668,565.53598 465.60768,577.27398 469.36668,587.18698 C 472.82168,596.29698 497.64268,598.85398 500.02968,588.34198 C 502.97768,575.36298 500.41568,560.61398 501.68268,547.36098 C 504.89568,513.73098 507.67568,480.06998 507.51368,446.36098 C 507.45268,433.73698 503.54968,412.91798 509.82668,401.41998 C 512.32968,396.83398 518.18968,396.70998 522.79768,396.07598 C 531.93368,394.81798 540.36968,390.15898 549.51268,389.36098 C 549.98368,400.32098 549.49868,425.62398 567.49768,418.61798 C 572.35368,416.72698 573.69868,406.56798 578.45868,406.56798 C 582.26368,406.56798 582.81568,412.84898 584.08168,415.34598 C 587.33468,421.76398 598.92968,425.75998 603.33368,418.17198 C 612.43168,402.49398 598.24768,378.65998 592.37368,364.36098 C 581.99368,339.09498 587.93068,309.30298 575.96968,284.36098 C 573.21168,278.60998 567.96068,275.14098 563.97668,270.35698 C 560.29168,265.93298 556.83168,258.27398 551.42268,255.77298 C 548.63268,254.48298 546.29168,255.94098 543.51268,256.28798 C 539.63868,256.77198 535.37068,254.19498 531.94668,257.10398 C 523.00068,264.70498 538.30868,272.33898 544.51268,272.36098 C 538.90168,279.76798 524.76968,281.67198 517.51268,275.36098 C 509.90968,276.77198 495.35368,276.55598 490.51268,283.36098 C 477.20668,283.34198 461.04468,304.72798 453.51268,314.36098 C 446.32268,307.49998 434.54668,299.95198 425.51268,295.85598 C 420.78668,293.71298 410.39868,291.63498 407.55468,287.04798 C 404.78068,282.57298 409.28168,272.76698 410.93768,268.36098 C 416.51668,253.51998 419.94968,230.95498 437.51268,228.36098 C 438.03868,221.70098 437.62268,211.32998 440.69168,205.37598 C 442.89568,201.10098 450.15468,198.97598 448.75168,193.35698 C 446.41168,183.98398 436.92468,175.87098 431.43968,168.36098 C 423.59068,157.61398 420.41168,136.50798 427.60268,124.37998 C 433.12268,115.06798 442.85368,120.55398 450.51268,123.56398 C 468.81968,130.75798 491.57268,139.90498 496.22768,112.36098 C 497.09468,107.22898 498.51168,101.56998 498.38368,96.360979 C 498.06968,83.624779 493.24768,74.680579 488.38568,63.360979 C 480.72368,45.522679 472.73268,29.373079 456.51268,17.519979 C 420.73268,-8.6272409 363.60618,-1.0515009 335.79898,33.375579 C 322.61898,49.693279 318.64328,69.170279 316.22718,89.360979 C 311.69188,127.26198 315.09268,163.63998 318.68248,201.36098 C 319.87988,213.94398 324.68828,227.79598 323.33908,240.36098 C 321.50898,257.40398 308.49168,270.85098 300.67703,285.36098 C 298.3159,289.74498 292.43764,297.00498 293.04354,302.21298 C 293.85044,309.14898 309.04728,299.70798 313.47328,301.55898 C 323.27158,305.65798 333.37308,323.30598 340.24108,331.36098 C 347.13808,339.44998 357.78468,348.55098 360.12228,359.36098 C 362.55488,370.61098 356.42918,381.99598 358.32058,392.36098 C 359.91558,401.10198 366.59798,408.43098 367.51268,417.36098 z" id="path6"/>
  <path style="fill: rgb(200, 183, 183); stroke: none;" d="M 383.52348,124.16198 C 377.34358,126.05798 371.83898,136.29098 371.20408,142.36098 C 370.87448,145.51198 372.11528,151.64798 376.54118,150.60898 C 382.48358,149.21498 388.65838,135.88498 389.61528,130.36198 C 390.26758,126.59698 387.62888,122.90198 383.52348,124.16198 M 330.51268,280.36098 C 335.94588,282.69898 351.76648,288.24898 357.23418,285.27898 C 360.92948,283.27198 360.41118,277.77698 362.02578,274.46598 C 363.40548,271.63698 366.58498,270.64798 368.04358,267.97098 C 371.26308,262.06298 371.06818,250.79698 369.89698,244.36098 C 368.87008,238.71798 362.32768,227.00498 354.81588,231.55498 C 347.85108,235.77498 346.73168,253.43998 342.68628,260.36098 C 338.72728,267.13498 333.11958,272.89798 330.51268,280.36098 M 402.51268,318.36098 L 398.51268,341.36098 C 403.72768,343.01798 411.16468,344.21298 414.76668,348.77498 C 417.79768,352.61498 413.25268,360.09698 419.62168,361.21298 C 431.68368,363.32598 437.37768,361.20698 442.11468,350.36098 C 443.41468,347.38498 445.42368,342.02698 443.47068,338.97098 C 441.49468,335.87898 436.67168,334.23298 433.51268,332.72498 C 424.34268,328.34898 412.51468,319.03098 402.51268,318.36098 M 327.51268,472.36098 C 327.38168,467.84898 325.96168,464.48898 324.25808,460.36098 C 322.44188,455.96098 323.32468,451.78598 322.19478,447.36598 C 321.32698,443.96998 316.43058,439.36298 313.54428,443.68398 C 307.66078,452.48998 317.88538,471.83398 327.51268,472.36098 z" id="path8"/>
  <path style="fill: rgb(0, 0, 0); stroke: none;" d="M 361.51268,579.36098 L 362.51268,580.36098 L 361.51268,579.36098 z" id="path10"/>
</svg>