<?xml version="1.0" encoding="UTF-8" standalone="no"?>

<svg
   xmlns:svg="http://www.w3.org/2000/svg"
   xmlns="http://www.w3.org/2000/svg"
   version="1.0"
   width="1800"
   height="1200"
   id="svg3114">
  <defs
     id="defs3116"/>
  <g
     id="layer1">
    <rect
       width="1800"
       height="1200"
       x="0"
       y="0"
       id="rect815"
       style="font-size:12px;fill:#000099;fill-opacity:1;fill-rule:evenodd;stroke-width:1pt"/>
    <rect
       width="1800"
       height="600.00006"
       x="0"
       y="300"
       id="rect837"
       style="font-size:12px;fill:#cc0000;fill-opacity:1;fill-rule:evenodd;stroke-width:1pt"/>
    <rect
       width="699.77319"
       height="113.15208"
       x="550.11395"
       y="631.41681"
       id="rect1035"
       style="font-size:12px;fill:#fff;fill-rule:evenodd;stroke:#cc0000;stroke-width:3;stroke-miterlimit:4;stroke-dasharray:none"/>
    <path
       d="m 549.62288,744.5684 -11.30251,26.62403 723.36113,0 -11.3024,-26.62403 -700.75622,0 z"
       id="path632"
       style="font-size:12px;fill:#fff;fill-rule:evenodd;stroke:#cc0000;stroke-width:3;stroke-miterlimit:4;stroke-dasharray:none"/>
    <path
       d="m 1108.2662,744.5512 -13.3638,26.66034 160.3653,0 -13.3638,-26.66034 -133.6377,0 z"
       id="path982"
       style="font-size:12px;fill:#fff;fill-rule:evenodd;stroke:#cc0000;stroke-width:3;stroke-miterlimit:4;stroke-dasharray:none"/>
    <path
       d="m 1142.0744,744.56937 -6.906,26.624 82.8732,0 -6.9061,-26.624 -69.0611,0 z"
       id="path983"
       style="font-size:12px;fill:#fff;fill-rule:evenodd;stroke:#cc0000;stroke-width:3;stroke-miterlimit:4;stroke-dasharray:none"/>
    <path
       d="m 1154.3376,744.56937 -4.4634,26.624 53.561,0 -4.4634,-26.624 -44.6342,0 z"
       id="path984"
       style="font-size:12px;fill:#fff;fill-rule:evenodd;stroke:#cc0000;stroke-width:3;stroke-miterlimit:4;stroke-dasharray:none"/>
    <path
       d="m 815.92647,744.56889 -14.4148,26.62402 194.97769,0 -14.4148,-26.62402 -166.14809,0 z"
       id="path636"
       style="font-size:12px;fill:#fff;fill-rule:evenodd;stroke:#cc0000;stroke-width:3;stroke-miterlimit:4;stroke-dasharray:none"/>
    <rect
       width="707.6358"
       height="26.624128"
       x="546.18256"
       y="629.69617"
       id="rect976"
       style="font-size:12px;fill:#fff;fill-rule:evenodd;stroke:#cc0000;stroke-width:3;stroke-miterlimit:4;stroke-dasharray:none"/>
    <rect
       width="134.01752"
       height="112.70839"
       x="1108.0833"
       y="631.6571"
       id="rect1001"
       style="font-size:12px;fill:#fff;fill-rule:evenodd;stroke:#cc0000;stroke-width:3;stroke-miterlimit:4;stroke-dasharray:none"/>
    <rect
       width="13.401703"
       height="59.882889"
       x="1203.9517"
       y="684.47607"
       id="rect637"
       style="font-size:12px;fill:#fff;fill-rule:evenodd;stroke:#cc0000;stroke-width:3;stroke-miterlimit:4;stroke-dasharray:none"/>
    <rect
       width="13.402037"
       height="59.882889"
       x="1144.9833"
       y="684.47516"
       id="rect639"
       style="font-size:12px;fill:#fff;fill-rule:evenodd;stroke:#cc0000;stroke-width:3;stroke-miterlimit:4;stroke-dasharray:none"/>
    <path
       d="m 858.80822,744.65728 -8.14324,26.44721 97.71893,0 -8.14324,-26.44721 -81.43245,0 z"
       id="path637"
       style="font-size:12px;fill:#fff;fill-rule:evenodd;stroke:#cc0000;stroke-width:3;stroke-miterlimit:4;stroke-dasharray:none"/>
    <path
       d="m 872.13079,744.43335 -4.60978,20.18412 63.31743,0 -4.6098,-20.18412 -54.09785,0 z"
       id="path638"
       style="font-size:12px;fill:#fff;fill-rule:evenodd;stroke:#cc0000;stroke-width:3;stroke-miterlimit:4;stroke-dasharray:none"/>
    <rect
       width="165.42049"
       height="115.41319"
       x="816.58398"
       y="629.02081"
       id="rect1003"
       style="font-size:12px;fill:#fff;fill-rule:evenodd;stroke:#cc0000;stroke-width:3;stroke-miterlimit:4;stroke-dasharray:none"/>
    <rect
       width="13.483268"
       height="59.882893"
       x="949.12018"
       y="684.46545"
       id="rect683"
       style="font-size:12px;fill:#fff;fill-rule:evenodd;stroke:#cc0000;stroke-width:3;stroke-miterlimit:4;stroke-dasharray:none"/>
    <rect
       width="13.492913"
       height="59.882893"
       x="838.27924"
       y="684.46039"
       id="rect686"
       style="font-size:12px;fill:#fff;fill-rule:evenodd;stroke:#cc0000;stroke-width:3;stroke-miterlimit:4;stroke-dasharray:none"/>
    <rect
       width="80.002151"
       height="140.35507"
       x="859.9798"
       y="604.10822"
       id="rect687"
       style="font-size:12px;fill:#fff;fill-rule:evenodd;stroke:#cc0000;stroke-width:3;stroke-miterlimit:4;stroke-dasharray:none"/>
    <rect
       width="13.483268"
       height="59.882893"
       x="919.01495"
       y="684.46155"
       id="rect684"
       style="font-size:12px;fill:#fff;fill-rule:evenodd;stroke:#cc0000;stroke-width:3;stroke-miterlimit:4;stroke-dasharray:none"/>
    <rect
       width="13.492913"
       height="59.882893"
       x="866.40161"
       y="684.46417"
       id="rect685"
       style="font-size:12px;fill:#fff;fill-rule:evenodd;stroke:#cc0000;stroke-width:3;stroke-miterlimit:4;stroke-dasharray:none"/>
    <path
       d="m 860.59944,627.00195 38.25598,56.82353 40.50802,-56.82353 -78.764,0 z"
       id="path759"
       style="font-size:12px;fill:#fff;fill-rule:evenodd;stroke:#cc0000;stroke-width:3;stroke-miterlimit:4;stroke-dasharray:none"/>
    <rect
       width="39.313122"
       height="139.77614"
       x="1156.4006"
       y="631.41705"
       id="rect1033"
       style="font-size:12px;fill:#fff;fill-rule:evenodd;stroke:#cc0000;stroke-width:3;stroke-miterlimit:4;stroke-dasharray:none"/>
    <rect
       width="26.182514"
       height="139.77615"
       x="1162.9266"
       y="631.41681"
       id="rect1034"
       style="font-size:12px;fill:#fff;fill-rule:evenodd;stroke:#cc0000;stroke-width:3;stroke-miterlimit:4;stroke-dasharray:none"/>
    <path
       d="m 559.00748,744.56938 -13.71372,26.62401 164.56456,0 -13.71371,-26.62401 -137.13713,0 z"
       id="path635"
       style="font-size:12px;fill:#fff;fill-rule:evenodd;stroke:#cc0000;stroke-width:3;stroke-miterlimit:4;stroke-dasharray:none"/>
    <path
       d="m 591.95623,744.56938 -6.44736,26.62401 77.36827,0 -6.44736,-26.62401 -64.47355,0 z"
       id="path634"
       style="font-size:12px;fill:#fff;fill-rule:evenodd;stroke:#cc0000;stroke-width:3;stroke-miterlimit:4;stroke-dasharray:none"/>
    <path
       d="m 603.42893,744.56938 -4.11369,26.62401 49.36432,0 -4.11369,-26.62401 -41.13694,0 z"
       id="path633"
       style="font-size:12px;fill:#fff;fill-rule:evenodd;stroke:#cc0000;stroke-width:3;stroke-miterlimit:4;stroke-dasharray:none"/>
    <rect
       width="137.59587"
       height="113.15208"
       x="557.97656"
       y="631.41699"
       id="rect1000"
       style="font-size:12px;fill:#fff;fill-rule:evenodd;stroke:#cc0000;stroke-width:3;stroke-miterlimit:4;stroke-dasharray:none"/>
    <rect
       width="13.86854"
       height="59.882889"
       x="584.79675"
       y="684.48004"
       id="rect635"
       style="font-size:12px;fill:#fff;fill-rule:evenodd;stroke:#cc0000;stroke-width:3;stroke-miterlimit:4;stroke-dasharray:none"/>
    <rect
       width="13.868811"
       height="59.882889"
       x="648.5932"
       y="684.48169"
       id="rect638"
       style="font-size:12px;fill:#fff;fill-rule:evenodd;stroke:#cc0000;stroke-width:3;stroke-miterlimit:4;stroke-dasharray:none"/>
    <rect
       width="39.313122"
       height="139.77614"
       x="605.15228"
       y="631.4173"
       id="rect986"
       style="font-size:12px;fill:#fff;fill-rule:evenodd;stroke:#cc0000;stroke-width:3;stroke-miterlimit:4;stroke-dasharray:none"/>
    <rect
       width="26.182514"
       height="139.77615"
       x="611.67828"
       y="631.41699"
       id="rect987"
       style="font-size:12px;fill:#fff;fill-rule:evenodd;stroke:#cc0000;stroke-width:3;stroke-miterlimit:4;stroke-dasharray:none"/>
    <rect
       width="723.36096"
       height="26.624128"
       x="538.32001"
       y="604.78241"
       id="rect726"
       style="font-size:12px;fill:#fff;fill-rule:evenodd;stroke:#cc0000;stroke-width:3;stroke-miterlimit:4;stroke-dasharray:none"/>
    <path
       d="m 1270.8521,618.88872 1.1823,-82.38849 c 0,0 -3.5483,23.15351 -14.1963,23.15351 -10.6471,0 -704.47635,0 -715.12334,0 -10.64807,0 -14.19742,-23.15351 -14.19742,-23.15351 l 1.1824,82.38849 741.15236,0 z"
       id="path3989"
       style="font-size:12px;fill:#fff;fill-rule:evenodd;stroke:#cc0000;stroke-width:3;stroke-miterlimit:4;stroke-dasharray:none"/>
    <path
       d="m 1263.3,602.90336 1.1582,-64.41817 c 0,0 -3.476,23.16418 -13.907,23.16418 -10.4301,0 -690.11926,0 -700.54927,0 -10.43107,0 -13.90808,-23.16418 -13.90808,-23.16418 l 1.1583,64.41817 726.04785,0 z"
       id="path2499"
       style="font-size:12px;fill:#fff;fill-rule:evenodd;stroke:#cc0000;stroke-width:3;stroke-miterlimit:4;stroke-dasharray:none"/>
    <rect
       width="760.61749"
       height="34.230873"
       x="518.23999"
       y="764.52899"
       id="rect556"
       style="font-size:12px;fill:#fff;fill-rule:evenodd;stroke:#cc0000;stroke-width:3;stroke-miterlimit:4;stroke-dasharray:none"/>
    <rect
       width="783.84241"
       height="34.230873"
       x="506.6275"
       y="771.86426"
       id="rect555"
       style="font-size:12px;fill:#fff;fill-rule:evenodd;stroke:#cc0000;stroke-width:3;stroke-miterlimit:4;stroke-dasharray:none"/>
    <rect
       width="827.38916"
       height="34.230873"
       x="486.30566"
       y="791.42468"
       id="rect554"
       style="font-size:12px;fill:#fff;fill-rule:evenodd;stroke:#cc0000;stroke-width:3;stroke-miterlimit:4;stroke-dasharray:none"/>
    <rect
       width="885.4516"
       height="34.230873"
       x="457.27444"
       y="815.87537"
       id="rect553"
       style="font-size:12px;fill:#fff;fill-rule:evenodd;stroke:#cc0000;stroke-width:3;stroke-miterlimit:4;stroke-dasharray:none"/>
    <rect
       width="943.13446"
       height="33.850151"
       x="428.43274"
       y="850.29761"
       id="rect2869"
       style="fill:#fff;fill-opacity:1;stroke:#cc0000;stroke-width:3;stroke-linecap:butt;stroke-linejoin:miter;stroke-miterlimit:4;stroke-opacity:1;stroke-dasharray:none"/>
    <rect
       width="39.313095"
       height="119.80803"
       x="605.15234"
       y="764.52856"
       id="rect613"
       style="font-size:12px;fill:#fff;fill-rule:evenodd;stroke:#cc0000;stroke-width:3;stroke-miterlimit:4;stroke-dasharray:none"/>
    <rect
       width="26.208731"
       height="119.80803"
       x="611.70447"
       y="764.52856"
       id="rect614"
       style="font-size:12px;fill:#fff;fill-rule:evenodd;stroke:#cc0000;stroke-width:3;stroke-miterlimit:4;stroke-dasharray:none"/>
    <rect
       width="39.313095"
       height="119.80803"
       x="1155.5358"
       y="764.52899"
       id="rect622"
       style="font-size:12px;fill:#fff;fill-rule:evenodd;stroke:#cc0000;stroke-width:3;stroke-miterlimit:4;stroke-dasharray:none"/>
    <rect
       width="26.208731"
       height="119.80803"
       x="1162.0879"
       y="764.52899"
       id="rect623"
       style="font-size:12px;fill:#fff;fill-rule:evenodd;stroke:#cc0000;stroke-width:3;stroke-miterlimit:4;stroke-dasharray:none"/>
    <rect
       width="188.70287"
       height="28.619963"
       ry="14.309981"
       x="805.64899"
       y="600.18054"
       id="rect901"
       style="font-size:12px;fill:#fff;fill-rule:evenodd;stroke:#cc0000;stroke-width:3;stroke-miterlimit:4;stroke-dasharray:none"/>
    <path
       d="m 997.07275,617.00754 1.21267,-94.35145 c 0,0 -3.63922,23.1431 -14.56006,23.1431 -10.91976,0 -156.52455,0 -167.4443,0 -10.92087,0 -14.56115,-23.1431 -14.56115,-23.1431 l 1.21269,94.35145 194.14015,0 z"
       id="path900"
       style="font-size:12px;fill:#fff;fill-rule:evenodd;stroke:#cc0000;stroke-width:3;stroke-miterlimit:4;stroke-dasharray:none"/>
    <path
       d="m 981.91663,592.54675 1.01461,-75.60741 c 0,0 -3.04485,18.54546 -12.18203,18.54546 -9.13634,0 -130.9606,0 -140.0969,0 -9.13725,0 -12.18298,-18.54546 -12.18298,-18.54546 l 1.01461,75.60741 162.43269,0 z"
       id="path3304"
       style="font-size:12px;fill:#fff;fill-rule:evenodd;stroke:#cc0000;stroke-width:3;stroke-miterlimit:4;stroke-dasharray:none"/>
    <path
       d="m 853.93798,591.96741 44.74572,38.59833 47.37975,-38.59833 -92.12547,0 z"
       id="path760"
       style="font-size:12px;fill:#fff;fill-rule:evenodd;stroke:#cc0000;stroke-width:3;stroke-miterlimit:4;stroke-dasharray:none"/>
    <path
       d="m 927.17992,390.13833 0.16821,-20.35796 c -21.03255,0 -15.81201,-22.14982 -15.81201,-30.54218 6.19935,-8.44493 7.93262,-20.22617 -9.3692,-28.79691 -16.93458,9.56549 -15.59883,20.19143 -9.36877,28.08695 0.093,9.32562 6.91576,31.25214 -16.13665,31.25214 l 0.16782,20.35796 50.3506,0 z"
       id="path814"
       style="font-size:12px;fill:#fff;fill-rule:evenodd;stroke:#cc0000;stroke-width:3;stroke-miterlimit:4;stroke-dasharray:none"/>
    <path
       d="m 942.8032,416.20473 0.24715,-26.84957 c 0,0 6.12528,-4.92996 4.14943,-11.96565 -1.97638,-7.03559 -10.98875,8.8712 -10.98875,8.8712 l -68.49967,0 c 0,0 -10.36509,-15.90679 -12.34086,-8.8712 -1.97581,7.03569 5.50152,11.96565 5.50152,11.96565 l 0.24652,26.84957 81.68466,0 z"
       id="path3945"
       style="font-size:12px;fill:#fff;fill-rule:evenodd;stroke:#cc0000;stroke-width:3;stroke-miterlimit:4;stroke-dasharray:none"/>
    <rect
       width="61.505459"
       height="14.885493"
       x="871.25208"
       y="354.21805"
       id="rect1979"
       style="fill:#fff;fill-opacity:1;stroke:#cc0000;stroke-width:3;stroke-linecap:butt;stroke-linejoin:miter;stroke-miterlimit:4;stroke-opacity:1;stroke-dasharray:none"/>
    <rect
       width="69.234467"
       height="14.744735"
       x="866.6438"
       y="370.61667"
       id="rect3947"
       style="fill:#fff;fill-opacity:1;stroke:#cc0000;stroke-width:3;stroke-linecap:butt;stroke-linejoin:miter;stroke-miterlimit:4;stroke-opacity:1;stroke-dasharray:none"/>
    <path
       d="m 874.99465,386.15424 -0.26949,-15.32025 c 4.36751,-3.9718 6.06088,7.87056 6.06088,7.87056 0,0 1.80047,-16.58311 20.51723,-23.95977 18.71603,7.37666 20.51653,24.96629 20.51653,24.96629 0,0 1.69407,-12.84888 6.06159,-8.87708 l -0.27022,15.32025 -52.61652,0 z"
       id="path2532"
       style="font-size:12px;fill:#fff;fill-rule:evenodd;stroke:#cc0000;stroke-width:3;stroke-miterlimit:4;stroke-dasharray:none"/>
    <rect
       width="45.297146"
       height="14.203703"
       x="879.3562"
       y="339.6301"
       id="rect2867"
       style="fill:#fff;fill-opacity:1;stroke:#cc0000;stroke-width:3;stroke-linecap:butt;stroke-linejoin:miter;stroke-miterlimit:4;stroke-opacity:1;stroke-dasharray:none"/>
    <path
       d="m 870.79615,418.25113 -0.30951,-17.59473 c 5.01592,-4.56145 6.96069,9.03904 6.96069,9.03904 0,0 2.06778,-19.0451 23.56326,-27.5169 21.49467,8.4718 23.56245,28.67284 23.56245,28.67284 0,0 1.94558,-14.75643 6.96152,-10.19498 l -0.31033,17.59473 -60.42808,0 z"
       id="path2530"
       style="font-size:12px;fill:#fff;fill-rule:evenodd;stroke:#cc0000;stroke-width:3;stroke-miterlimit:4;stroke-dasharray:none"/>
    <path
       d="m 952.62917,453.04145 0.30656,-33.30325 c 0,0 7.59756,-6.11496 5.14681,-14.84178 -2.45144,-8.7267 -13.63007,11.00351 -13.63007,11.00351 l -84.96456,0 c 0,0 -12.85648,-19.73021 -15.30717,-11.00351 -2.45071,8.72682 6.8239,14.84178 6.8239,14.84178 l 0.30578,33.30325 101.31875,0 z"
       id="path3943"
       style="font-size:12px;fill:#fff;fill-rule:evenodd;stroke:#cc0000;stroke-width:3;stroke-miterlimit:4;stroke-dasharray:none"/>
    <path
       d="m 867.01698,453.28793 -0.35451,-20.15353 c 5.74538,-5.22481 7.97295,10.35357 7.97295,10.35357 0,0 2.36852,-21.81479 26.99008,-31.51863 24.62061,9.70384 26.98912,32.84271 26.98912,32.84271 0,0 2.22852,-16.90246 7.97391,-11.67765 l -0.35547,20.15353 -69.21608,0 z"
       id="path2528"
       style="font-size:12px;fill:#fff;fill-rule:evenodd;stroke:#cc0000;stroke-width:3;stroke-miterlimit:4;stroke-dasharray:none"/>
    <path
       d="m 960.76832,496.57591 0.35464,-39.34567 c 0,0 8.78938,-7.22443 5.95418,-17.53464 -2.83598,-10.31006 -15.76823,12.99995 -15.76823,12.99995 l -98.29301,0 c 0,0 -14.87331,-23.31001 -17.70842,-12.99995 -2.83517,10.31021 7.89436,17.53464 7.89436,17.53464 l 0.35377,39.34567 117.21271,0 z"
       id="path3941"
       style="font-size:12px;fill:#fff;fill-rule:evenodd;stroke:#cc0000;stroke-width:3;stroke-miterlimit:4;stroke-dasharray:none"/>
    <path
       d="m 861.54656,496.22269 -0.41014,-23.31506 c 6.64668,-6.04447 9.22372,11.97775 9.22372,11.97775 0,0 2.74005,-25.23693 31.2241,-36.46304 28.48294,11.22611 31.223,37.99482 31.223,37.99482 0,0 2.57811,-19.554 9.22481,-13.50953 l -0.41123,23.31506 -80.07426,0 z"
       id="path2526"
       style="font-size:12px;fill:#fff;fill-rule:evenodd;stroke:#cc0000;stroke-width:3;stroke-miterlimit:4;stroke-dasharray:none"/>
    <path
       d="m 965.69665,542.77448 0.39076,-43.21672 c 0,0 9.68375,-7.93524 6.56004,-19.25979 -3.12456,-11.32444 -17.37279,14.27894 -17.37279,14.27894 l -108.29529,0 c 0,0 -16.38684,-25.60338 -19.51044,-14.27894 -3.12369,11.32455 8.6977,19.25979 8.6977,19.25979 l 0.38976,43.21672 129.14026,0 z"
       id="path3939"
       style="font-size:12px;fill:#fff;fill-rule:evenodd;stroke:#cc0000;stroke-width:3;stroke-miterlimit:4;stroke-dasharray:none"/>
    <path
       d="m 970.05959,560.00525 0.41873,-34.35495 c 0,0 10.37703,-6.30806 7.0297,-15.31048 -3.34828,-9.00232 -18.61656,11.351 -18.61656,11.351 l -116.04838,0 c 0,0 -17.56,-20.35332 -20.90723,-11.351 -3.34732,9.00242 9.32037,15.31048 9.32037,15.31048 l 0.41768,34.35495 138.38569,0 z"
       id="path807"
       style="font-size:12px;fill:#fff;fill-rule:evenodd;stroke:#cc0000;stroke-width:3;stroke-miterlimit:4;stroke-dasharray:none"/>
    <path
       d="m 854.04274,540.25025 -0.47687,-27.10893 c 7.72822,-7.02804 10.7246,13.92677 10.7246,13.92677 0,0 3.18594,-29.34351 36.30496,-42.39638 33.11773,13.05287 36.30364,44.17743 36.30364,44.17743 0,0 2.99764,-22.73586 10.72591,-15.70782 l -0.47816,27.10893 -93.10408,0 z"
       id="path2512"
       style="font-size:12px;fill:#fff;fill-rule:evenodd;stroke:#cc0000;stroke-width:3;stroke-miterlimit:4;stroke-dasharray:none"/>
    <path
       d="m 851.87244,592.19241 -0.0273,-28.56702 c 8.02348,-5.18016 12.61765,22.59021 12.61765,22.59021 0,0 1.15348,-41.82994 35.53784,-51.45076 34.38303,9.62082 35.53649,51.45076 35.53649,51.45076 0,0 4.59548,-27.77037 12.61899,-22.59021 l -0.0287,28.56702 -96.25494,0 z"
       id="path761"
       style="font-size:12px;fill:#fff;fill-rule:evenodd;stroke:#cc0000;stroke-width:3;stroke-miterlimit:4;stroke-dasharray:none"/>
    <path
       d="m 857.64626,630.95568 -0.43385,-31.44256 c 7.03125,-8.15156 9.75739,16.15311 9.75739,16.15311 0,0 2.89861,-34.03439 33.03078,-49.17384 30.13101,15.13945 33.0296,51.2396 33.0296,51.2396 0,0 2.72729,-26.37043 9.75856,-18.21887 l -0.43502,31.44256 -84.70746,0 z"
       id="path746"
       style="font-size:12px;fill:#fff;fill-rule:evenodd;stroke:#cc0000;stroke-width:3;stroke-miterlimit:4;stroke-dasharray:none"/>
    <rect
       width="13.86843"
       height="59.882889"
       x="988.52368"
       y="684.46729"
       id="rect652"
       style="font-size:12px;fill:#fff;fill-rule:evenodd;stroke:#cc0000;stroke-width:3;stroke-miterlimit:4;stroke-dasharray:none"/>
    <rect
       width="13.86843"
       height="59.882889"
       x="1082.8313"
       y="684.46442"
       id="rect653"
       style="font-size:12px;fill:#fff;fill-rule:evenodd;stroke:#cc0000;stroke-width:3;stroke-miterlimit:4;stroke-dasharray:none"/>
    <rect
       width="13.86843"
       height="59.882889"
       x="1035.6775"
       y="684.46179"
       id="rect654"
       style="font-size:12px;fill:#fff;fill-rule:evenodd;stroke:#cc0000;stroke-width:3;stroke-miterlimit:4;stroke-dasharray:none"/>
    <rect
       width="13.86843"
       height="59.882889"
       x="1013.4875"
       y="684.46057"
       id="rect655"
       style="font-size:12px;fill:#fff;fill-rule:evenodd;stroke:#cc0000;stroke-width:3;stroke-miterlimit:4;stroke-dasharray:none"/>
    <rect
       width="13.86843"
       height="59.882889"
       x="1057.8676"
       y="684.46051"
       id="rect656"
       style="font-size:12px;fill:#fff;fill-rule:evenodd;stroke:#cc0000;stroke-width:3;stroke-miterlimit:4;stroke-dasharray:none"/>
    <rect
       width="13.86843"
       height="59.882889"
       x="703.60223"
       y="684.47064"
       id="rect644"
       style="font-size:12px;fill:#fff;fill-rule:evenodd;stroke:#cc0000;stroke-width:3;stroke-miterlimit:4;stroke-dasharray:none"/>
    <rect
       width="13.86843"
       height="59.882889"
       x="748.7561"
       y="684.46515"
       id="rect649"
       style="font-size:12px;fill:#fff;fill-rule:evenodd;stroke:#cc0000;stroke-width:3;stroke-miterlimit:4;stroke-dasharray:none"/>
    <rect
       width="13.86843"
       height="59.882889"
       x="726.56604"
       y="684.46393"
       id="rect650"
       style="font-size:12px;fill:#fff;fill-rule:evenodd;stroke:#cc0000;stroke-width:3;stroke-miterlimit:4;stroke-dasharray:none"/>
    <rect
       width="13.86843"
       height="59.882889"
       x="793.90991"
       y="684.46777"
       id="rect648"
       style="font-size:12px;fill:#fff;fill-rule:evenodd;stroke:#cc0000;stroke-width:3;stroke-miterlimit:4;stroke-dasharray:none"/>
    <rect
       width="13.86843"
       height="59.882889"
       x="770.94617"
       y="684.46387"
       id="rect651"
       style="font-size:12px;fill:#fff;fill-rule:evenodd;stroke:#cc0000;stroke-width:3;stroke-miterlimit:4;stroke-dasharray:none"/>
    <rect
       width="157.93275"
       height="28.863768"
       ry="14.431884"
       x="548.16461"
       y="603.30847"
       id="rect3991"
       style="font-size:12px;fill:#fff;fill-rule:evenodd;stroke:#cc0000;stroke-width:3;stroke-miterlimit:4;stroke-dasharray:none"/>
    <path
       d="m 705.71024,620.25737 1.21267,-94.35145 c 0,0 -3.63922,23.1431 -14.56006,23.1431 -10.91976,0 -122.52455,0 -133.4443,0 -10.92087,0 -14.56115,-23.1431 -14.56115,-23.1431 l 1.21269,94.35145 160.14015,0 z"
       id="path3993"
       style="font-size:12px;fill:#fff;fill-rule:evenodd;stroke:#cc0000;stroke-width:3;stroke-miterlimit:4;stroke-dasharray:none"/>
    <path
       d="m 693.0691,599.11455 1.01461,-75.60741 c 0,0 -9.04485,18.54546 -18.18203,18.54546 -9.13634,0 -90.9606,0 -100.0969,0 -9.13725,0 -18.18298,-18.54546 -18.18298,-18.54546 l 1.01461,75.60741 134.43269,0 z"
       id="path3997"
       style="font-size:12px;fill:#fff;fill-rule:evenodd;stroke:#cc0000;stroke-width:3;stroke-miterlimit:4;stroke-dasharray:none"/>
    <path
       d="m 591.79491,583.48636 33.76634,29.12735 35.75405,-29.12735 -69.52039,0 z"
       id="path4021"
       style="font-size:12px;fill:#fff;fill-rule:evenodd;stroke:#cc0000;stroke-width:3;stroke-miterlimit:4;stroke-dasharray:none"/>
    <path
       d="m 647.06527,447.18063 0.12694,-15.36267 c -15.87174,0 -11.93218,-16.71486 -11.93218,-23.04797 4.6782,-6.37277 5.98617,-15.26322 -7.07025,-21.73093 -12.7793,7.21838 -11.7713,15.237 -7.06993,21.19518 0.0702,7.03737 5.21882,23.58372 -12.17716,23.58372 l 0.12664,15.36267 37.99594,0 z"
       id="path4023"
       style="font-size:12px;fill:#fff;fill-rule:evenodd;stroke:#cc0000;stroke-width:3;stroke-miterlimit:4;stroke-dasharray:none"/>
    <path
       d="m 658.85502,466.85104 0.18651,-20.26141 c 0,0 4.6223,-3.72029 3.13127,-9.02961 -1.49143,-5.30925 -8.29241,6.69445 -8.29241,6.69445 l -51.69172,0 c 0,0 -7.82178,-12.0037 -9.31275,-6.69445 -1.491,5.30932 4.1516,9.02961 4.1516,9.02961 l 0.18603,20.26141 61.64147,0 z"
       id="path4025"
       style="font-size:12px;fill:#fff;fill-rule:evenodd;stroke:#cc0000;stroke-width:3;stroke-miterlimit:4;stroke-dasharray:none"/>
    <rect
       width="46.413696"
       height="11.232999"
       x="604.8606"
       y="420.07419"
       id="rect4027"
       style="fill:#fff;fill-opacity:1;stroke:#cc0000;stroke-width:3;stroke-linecap:butt;stroke-linejoin:miter;stroke-miterlimit:4;stroke-opacity:1;stroke-dasharray:none"/>
    <rect
       width="52.246216"
       height="11.126779"
       x="601.38306"
       y="432.44904"
       id="rect4029"
       style="fill:#fff;fill-opacity:1;stroke:#cc0000;stroke-width:3;stroke-linecap:butt;stroke-linejoin:miter;stroke-miterlimit:4;stroke-opacity:1;stroke-dasharray:none"/>
    <path
       d="m 607.68484,444.17412 -0.20336,-11.56107 c 3.29584,-2.99723 4.5737,5.93934 4.5737,5.93934 0,0 1.35869,-12.51407 15.48286,-18.0807 14.12363,5.56663 15.48234,18.84024 15.48234,18.84024 0,0 1.27839,-9.69611 4.57424,-6.69888 l -0.20392,11.56107 -39.70586,0 z"
       id="path4031"
       style="font-size:12px;fill:#fff;fill-rule:evenodd;stroke:#cc0000;stroke-width:3;stroke-miterlimit:4;stroke-dasharray:none"/>
    <rect
       width="34.182461"
       height="10.718502"
       x="610.9762"
       y="409.06573"
       id="rect4033"
       style="fill:#fff;fill-opacity:1;stroke:#cc0000;stroke-width:3;stroke-linecap:butt;stroke-linejoin:miter;stroke-miterlimit:4;stroke-opacity:1;stroke-dasharray:none"/>
    <path
       d="m 604.51654,466.39531 -0.23356,-13.27746 c 3.78515,-3.44219 5.25272,6.82111 5.25272,6.82111 0,0 1.5604,-14.37196 17.78148,-20.76501 16.22046,6.39305 17.78087,21.63731 17.78087,21.63731 0,0 1.46819,-11.1356 5.25335,-7.69341 l -0.23418,13.27746 -45.60068,0 z"
       id="path4035"
       style="font-size:12px;fill:#fff;fill-rule:evenodd;stroke:#cc0000;stroke-width:3;stroke-miterlimit:4;stroke-dasharray:none"/>
    <path
       d="m 666.26997,492.64904 0.23134,-25.13154 c 0,0 5.73332,-4.61452 3.88392,-11.20001 -1.84992,-6.58541 -10.28562,8.30354 -10.28562,8.30354 l -64.11658,0 c 0,0 -9.70185,-14.88895 -11.5512,-8.30354 -1.84938,6.58549 5.1495,11.20001 5.1495,11.20001 l 0.23075,25.13154 76.45789,0 z"
       id="path4037"
       style="font-size:12px;fill:#fff;fill-rule:evenodd;stroke:#cc0000;stroke-width:3;stroke-miterlimit:4;stroke-dasharray:none"/>
    <path
       d="m 601.66468,492.83504 -0.26753,-15.2084 c 4.33562,-3.94279 6.01661,7.81308 6.01661,7.81308 0,0 1.78735,-16.46203 20.36745,-23.78482 18.57938,7.32279 20.36672,24.78401 20.36672,24.78401 0,0 1.68171,-12.75506 6.01733,-8.81227 l -0.26824,15.2084 -52.23234,0 z"
       id="path4039"
       style="font-size:12px;fill:#fff;fill-rule:evenodd;stroke:#cc0000;stroke-width:3;stroke-miterlimit:4;stroke-dasharray:none"/>
    <path
       d="m 672.41199,523.50133 0.26762,-29.69132 c 0,0 6.63271,-5.45175 4.49319,-13.23211 -2.14011,-7.78026 -11.89914,9.81011 -11.89914,9.81011 l -74.17458,0 c 0,0 -11.22381,-17.59037 -13.36326,-9.81011 -2.13949,7.78036 5.9573,13.23211 5.9573,13.23211 l 0.26697,29.69132 88.4519,0 z"
       id="path4041"
       style="font-size:12px;fill:#fff;fill-rule:evenodd;stroke:#cc0000;stroke-width:3;stroke-miterlimit:4;stroke-dasharray:none"/>
    <path
       d="m 597.53655,517.23478 -0.30951,-17.59418 c 5.01577,-4.56132 6.96047,9.03874 6.96047,9.03874 0,0 2.06772,-19.04448 23.56256,-27.51601 21.49401,8.47153 23.56173,28.67193 23.56173,28.67193 0,0 1.94551,-14.75598 6.96129,-10.19466 l -0.31032,17.59418 -60.42622,0 z"
       id="path4043"
       style="font-size:12px;fill:#fff;fill-rule:evenodd;stroke:#cc0000;stroke-width:3;stroke-miterlimit:4;stroke-dasharray:none"/>
    <path
       d="m 676.13105,554.36403 0.29487,-32.61252 c 0,0 7.30763,-5.98814 4.95039,-14.53396 -2.35788,-8.54573 -13.10998,10.77528 -13.10998,10.77528 l -81.72258,0 c 0,0 -12.36596,-19.32101 -14.72311,-10.77528 -2.35722,8.54582 6.56352,14.53396 6.56352,14.53396 l 0.29412,32.61252 97.45277,0 z"
       id="path4045"
       style="font-size:12px;fill:#fff;fill-rule:evenodd;stroke:#cc0000;stroke-width:3;stroke-miterlimit:4;stroke-dasharray:none"/>
    <path
       d="m 679.42344,565.36684 0.31598,-25.92518 c 0,0 7.83079,-4.76024 5.30481,-11.55371 -2.52671,-6.7934 -14.04857,8.56577 -14.04857,8.56577 l -87.57327,0 c 0,0 -13.25125,-15.35917 -15.77717,-8.56577 -2.52597,6.79347 7.03341,11.55371 7.03341,11.55371 l 0.31519,25.92518 104.42962,0 z"
       id="path4047"
       style="font-size:12px;fill:#fff;fill-rule:evenodd;stroke:#cc0000;stroke-width:3;stroke-miterlimit:4;stroke-dasharray:none"/>
    <path
       d="m 591.87396,550.45918 -0.35986,-20.45714 c 5.83193,-5.30355 8.09308,10.50952 8.09308,10.50952 0,0 2.40419,-22.14341 27.39671,-31.99347 24.99154,9.85006 27.39572,33.3375 27.39572,33.3375 0,0 2.2621,-17.1571 8.09406,-11.85355 l -0.36083,20.45714 -70.25888,0 z"
       id="path4049"
       style="font-size:12px;fill:#fff;fill-rule:evenodd;stroke:#cc0000;stroke-width:3;stroke-miterlimit:4;stroke-dasharray:none"/>
    <path
       d="m 590.23619,583.65615 -0.0206,-21.55745 c 6.05474,-3.90909 9.52163,17.04718 9.52163,17.04718 0,0 0.87044,-31.56601 26.81782,-38.82614 25.94637,7.26013 26.8168,38.82614 26.8168,38.82614 0,0 3.46788,-20.95627 9.52264,-17.04718 l -0.0216,21.55745 -72.63661,0 z"
       id="path4051"
       style="font-size:12px;fill:#fff;fill-rule:evenodd;stroke:#cc0000;stroke-width:3;stroke-miterlimit:4;stroke-dasharray:none"/>
    <path
       d="m 588.62753,631.85366 -0.3853,-27.92424 c 6.24448,-7.23943 8.66557,14.34563 8.66557,14.34563 0,0 2.57427,-30.22606 29.33475,-43.67146 26.75945,13.4454 29.3337,45.50607 29.3337,45.50607 0,0 2.42212,-23.41967 8.66661,-16.18024 l -0.38634,27.92424 -75.22899,0 z"
       id="path3995"
       style="font-size:12px;fill:#fff;fill-rule:evenodd;stroke:#cc0000;stroke-width:3;stroke-miterlimit:4;stroke-dasharray:none"/>
    <rect
       width="157.93275"
       height="28.863768"
       ry="14.431884"
       x="1097.0374"
       y="603.58771"
       id="rect4053"
       style="font-size:12px;fill:#fff;fill-rule:evenodd;stroke:#cc0000;stroke-width:3;stroke-miterlimit:4;stroke-dasharray:none"/>
    <path
       d="m 1254.583,620.53659 1.2127,-94.35145 c 0,0 -3.6392,23.1431 -14.5601,23.1431 -10.9197,0 -122.5245,0 -133.4443,0 -10.9209,0 -14.5611,-23.1431 -14.5611,-23.1431 l 1.2127,94.35145 160.1401,0 z"
       id="path4055"
       style="font-size:12px;fill:#fff;fill-rule:evenodd;stroke:#cc0000;stroke-width:3;stroke-miterlimit:4;stroke-dasharray:none"/>
    <path
       d="m 1241.9419,599.39377 1.0146,-75.60741 c 0,0 -9.0449,18.54546 -18.1821,18.54546 -9.1363,0 -90.9606,0 -100.0969,0 -9.1372,0 -18.1829,-18.54546 -18.1829,-18.54546 l 1.0146,75.60741 134.4327,0 z"
       id="path4057"
       style="font-size:12px;fill:#fff;fill-rule:evenodd;stroke:#cc0000;stroke-width:3;stroke-miterlimit:4;stroke-dasharray:none"/>
    <path
       d="m 1140.6677,583.76558 33.7663,29.12735 35.7541,-29.12735 -69.5204,0 z"
       id="path4059"
       style="font-size:12px;fill:#fff;fill-rule:evenodd;stroke:#cc0000;stroke-width:3;stroke-miterlimit:4;stroke-dasharray:none"/>
    <path
       d="m 1195.938,447.45985 0.127,-15.36267 c -15.8718,0 -11.9322,-16.71486 -11.9322,-23.04797 4.6782,-6.37277 5.9862,-15.26322 -7.0703,-21.73093 -12.7793,7.21838 -11.7713,15.237 -7.0699,21.19518 0.07,7.03737 5.2188,23.58372 -12.1771,23.58372 l 0.1266,15.36267 37.9959,0 z"
       id="path4061"
       style="font-size:12px;fill:#fff;fill-rule:evenodd;stroke:#cc0000;stroke-width:3;stroke-miterlimit:4;stroke-dasharray:none"/>
    <path
       d="m 1207.7278,467.13026 0.1865,-20.26141 c 0,0 4.6223,-3.72029 3.1313,-9.02961 -1.4915,-5.30925 -8.2924,6.69445 -8.2924,6.69445 l -51.6918,0 c 0,0 -7.8217,-12.0037 -9.3127,-6.69445 -1.491,5.30932 4.1516,9.02961 4.1516,9.02961 l 0.186,20.26141 61.6415,0 z"
       id="path4063"
       style="font-size:12px;fill:#fff;fill-rule:evenodd;stroke:#cc0000;stroke-width:3;stroke-miterlimit:4;stroke-dasharray:none"/>
    <rect
       width="46.413696"
       height="11.232999"
       x="1153.7334"
       y="420.35342"
       id="rect4065"
       style="fill:#fff;fill-opacity:1;stroke:#cc0000;stroke-width:3;stroke-linecap:butt;stroke-linejoin:miter;stroke-miterlimit:4;stroke-opacity:1;stroke-dasharray:none"/>
    <rect
       width="52.246216"
       height="11.126779"
       x="1150.2559"
       y="432.72827"
       id="rect4067"
       style="fill:#fff;fill-opacity:1;stroke:#cc0000;stroke-width:3;stroke-linecap:butt;stroke-linejoin:miter;stroke-miterlimit:4;stroke-opacity:1;stroke-dasharray:none"/>
    <path
       d="m 1156.5576,444.45334 -0.2034,-11.56107 c 3.2959,-2.99723 4.5737,5.93934 4.5737,5.93934 0,0 1.3587,-12.51407 15.4829,-18.0807 14.1236,5.56663 15.4823,18.84024 15.4823,18.84024 0,0 1.2784,-9.69611 4.5743,-6.69888 l -0.2039,11.56107 -39.7059,0 z"
       id="path4069"
       style="font-size:12px;fill:#fff;fill-rule:evenodd;stroke:#cc0000;stroke-width:3;stroke-miterlimit:4;stroke-dasharray:none"/>
    <rect
       width="34.182461"
       height="10.718502"
       x="1159.849"
       y="409.34497"
       id="rect4071"
       style="fill:#fff;fill-opacity:1;stroke:#cc0000;stroke-width:3;stroke-linecap:butt;stroke-linejoin:miter;stroke-miterlimit:4;stroke-opacity:1;stroke-dasharray:none"/>
    <path
       d="m 1153.3893,466.67453 -0.2336,-13.27746 c 3.7852,-3.44219 5.2528,6.82111 5.2528,6.82111 0,0 1.5604,-14.37196 17.7814,-20.76501 16.2205,6.39305 17.7809,21.63731 17.7809,21.63731 0,0 1.4682,-11.1356 5.2534,-7.69341 l -0.2342,13.27746 -45.6007,0 z"
       id="path4073"
       style="font-size:12px;fill:#fff;fill-rule:evenodd;stroke:#cc0000;stroke-width:3;stroke-miterlimit:4;stroke-dasharray:none"/>
    <path
       d="m 1215.1427,492.92826 0.2314,-25.13154 c 0,0 5.7333,-4.61452 3.8839,-11.20001 -1.8499,-6.58541 -10.2856,8.30354 -10.2856,8.30354 l -64.1166,0 c 0,0 -9.7019,-14.88895 -11.5512,-8.30354 -1.8494,6.58549 5.1495,11.20001 5.1495,11.20001 l 0.2307,25.13154 76.4579,0 z"
       id="path4075"
       style="font-size:12px;fill:#fff;fill-rule:evenodd;stroke:#cc0000;stroke-width:3;stroke-miterlimit:4;stroke-dasharray:none"/>
    <path
       d="m 1150.5374,493.11426 -0.2675,-15.2084 c 4.3356,-3.94279 6.0166,7.81308 6.0166,7.81308 0,0 1.7874,-16.46203 20.3675,-23.78482 18.5794,7.32279 20.3667,24.78401 20.3667,24.78401 0,0 1.6817,-12.75506 6.0173,-8.81227 l -0.2682,15.2084 -52.2324,0 z"
       id="path4077"
       style="font-size:12px;fill:#fff;fill-rule:evenodd;stroke:#cc0000;stroke-width:3;stroke-miterlimit:4;stroke-dasharray:none"/>
    <path
       d="m 1221.2848,523.78055 0.2676,-29.69132 c 0,0 6.6327,-5.45175 4.4932,-13.23211 -2.1401,-7.78026 -11.8992,9.81011 -11.8992,9.81011 l -74.1746,0 c 0,0 -11.2238,-17.59037 -13.3632,-9.81011 -2.1395,7.78036 5.9573,13.23211 5.9573,13.23211 l 0.267,29.69132 88.4519,0 z"
       id="path4079"
       style="font-size:12px;fill:#fff;fill-rule:evenodd;stroke:#cc0000;stroke-width:3;stroke-miterlimit:4;stroke-dasharray:none"/>
    <path
       d="m 1146.4093,517.514 -0.3095,-17.59418 c 5.0158,-4.56132 6.9605,9.03874 6.9605,9.03874 0,0 2.0677,-19.04448 23.5625,-27.51601 21.494,8.47153 23.5618,28.67193 23.5618,28.67193 0,0 1.9455,-14.75598 6.9613,-10.19466 l -0.3104,17.59418 -60.4262,0 z"
       id="path4081"
       style="font-size:12px;fill:#fff;fill-rule:evenodd;stroke:#cc0000;stroke-width:3;stroke-miterlimit:4;stroke-dasharray:none"/>
    <path
       d="m 1225.0038,554.64325 0.2949,-32.61252 c 0,0 7.3076,-5.98814 4.9504,-14.53396 -2.3579,-8.54573 -13.11,10.77528 -13.11,10.77528 l -81.7226,0 c 0,0 -12.3659,-19.32101 -14.7231,-10.77528 -2.3572,8.54582 6.5635,14.53396 6.5635,14.53396 l 0.2941,32.61252 97.4528,0 z"
       id="path4083"
       style="font-size:12px;fill:#fff;fill-rule:evenodd;stroke:#cc0000;stroke-width:3;stroke-miterlimit:4;stroke-dasharray:none"/>
    <path
       d="m 1228.2962,565.64606 0.316,-25.92518 c 0,0 7.8308,-4.76024 5.3048,-11.55371 -2.5267,-6.7934 -14.0486,8.56577 -14.0486,8.56577 l -87.5732,0 c 0,0 -13.2513,-15.35917 -15.7772,-8.56577 -2.526,6.79347 7.0334,11.55371 7.0334,11.55371 l 0.3152,25.92518 104.4296,0 z"
       id="path4085"
       style="font-size:12px;fill:#fff;fill-rule:evenodd;stroke:#cc0000;stroke-width:3;stroke-miterlimit:4;stroke-dasharray:none"/>
    <path
       d="m 1140.7467,550.7384 -0.3598,-20.45714 c 5.8319,-5.30355 8.093,10.50952 8.093,10.50952 0,0 2.4042,-22.14341 27.3968,-31.99347 24.9915,9.85006 27.3957,33.3375 27.3957,33.3375 0,0 2.2621,-17.1571 8.094,-11.85355 l -0.3608,20.45714 -70.2589,0 z"
       id="path4087"
       style="font-size:12px;fill:#fff;fill-rule:evenodd;stroke:#cc0000;stroke-width:3;stroke-miterlimit:4;stroke-dasharray:none"/>
    <path
       d="m 1139.109,583.93537 -0.021,-21.55745 c 6.0548,-3.90909 9.5216,17.04718 9.5216,17.04718 0,0 0.8705,-31.56601 26.8179,-38.82614 25.9463,7.26013 26.8168,38.82614 26.8168,38.82614 0,0 3.4678,-20.95627 9.5226,-17.04718 l -0.022,21.55745 -72.6366,0 z"
       id="path4089"
       style="font-size:12px;fill:#fff;fill-rule:evenodd;stroke:#cc0000;stroke-width:3;stroke-miterlimit:4;stroke-dasharray:none"/>
    <path
       d="m 1137.5003,632.13288 -0.3853,-27.92424 c 6.2445,-7.23943 8.6656,14.34563 8.6656,14.34563 0,0 2.5742,-30.22606 29.3347,-43.67146 26.7595,13.4454 29.3337,45.50607 29.3337,45.50607 0,0 2.4221,-23.41967 8.6666,-16.18024 l -0.3863,27.92424 -75.229,0 z"
       id="path4091"
       style="font-size:12px;fill:#fff;fill-rule:evenodd;stroke:#cc0000;stroke-width:3;stroke-miterlimit:4;stroke-dasharray:none"/>
    <rect
       width="39.313122"
       height="139.77614"
       x="879.87341"
       y="631.21399"
       id="rect2520"
       style="font-size:12px;fill:#fff;fill-rule:evenodd;stroke:#cc0000;stroke-width:3;stroke-miterlimit:4;stroke-dasharray:none"/>
    <rect
       width="26.182514"
       height="139.77615"
       x="886.39941"
       y="631.21375"
       id="rect2522"
       style="font-size:12px;fill:#fff;fill-rule:evenodd;stroke:#cc0000;stroke-width:3;stroke-miterlimit:4;stroke-dasharray:none"/>
    <rect
       width="39.313095"
       height="119.80803"
       x="879.32153"
       y="764.32593"
       id="rect2524"
       style="font-size:12px;fill:#fff;fill-rule:evenodd;stroke:#cc0000;stroke-width:3;stroke-miterlimit:4;stroke-dasharray:none"/>
    <rect
       width="26.208731"
       height="119.80803"
       x="885.56073"
       y="764.32593"
       id="rect2526"
       style="font-size:12px;fill:#fff;fill-rule:evenodd;stroke:#cc0000;stroke-width:3;stroke-miterlimit:4;stroke-dasharray:none"/>
  </g>
</svg>
