<?xml version="1.0" encoding="UTF-8" standalone="no"?>
<!-- Created with Inkscape (http://www.inkscape.org/) -->

<svg
   xmlns:svg="http://www.w3.org/2000/svg"
   xmlns="http://www.w3.org/2000/svg"
   version="1.1"
   width="470"
   height="313.32999"
   id="svg2">
  <defs
     id="defs4">
    <marker
       markerUnits="strokeWidth"
       refX="10"
       refY="5"
       markerWidth="4"
       markerHeight="3"
       orient="auto"
       viewBox="0 0 10 10"
       id="ArrowStart">
      <path
         d="M 10,0 0,5 10,10 z"
         id="path2863" />
    </marker>
    <marker
       markerUnits="strokeWidth"
       refX="0"
       refY="5"
       markerWidth="4"
       markerHeight="3"
       orient="auto"
       viewBox="0 0 10 10"
       id="ArrowEnd">
      <path
         d="M 0,0 10,5 0,10 z"
         id="path2860" />
    </marker>
  </defs>
  <g
     transform="translate(131.63768,20.845015)"
     id="layer2"
     style="display:inline">
    <rect
       width="470"
       height="313.32999"
       x="-131.63768"
       y="-20.845015"
       id="rect3116"
       style="fill:#363996;fill-opacity:1;stroke:none" />
    <g
       id="g3953">
      <path
         d="m 94.138628,248.56875 c 0,0 -0.24874,-2.24875 -9.99625,2.99875 -9.74874,5.24875 -19.24624,2.5 -19.24624,2.5 0,0 0.24999,-3.75 5.99874,-8.49875 5.74875,-4.74875 4.99875,-22.245 4.99875,-22.245 l 4.49751,-41.99 c 0,0 0.2525,-11.7475 -0.74875,-18.49625 -0.99875,-6.74875 -3.74876,-17.49625 -3.74876,-17.49625 l -3.25,20.495 -5.7475,-23.24375 -4.74875,-16.74625 c 0,0 6.7475,25.99375 8.4975,43.24 1.74875,17.245 -9.2475,35.4925 -9.2475,35.4925 l -5,-46.74 -1.49875,-17.4975 3.49875,59.9875 c 0,0 2.74875,10.9975 -2.24875,25.495 -4.99875,14.49625 -22.245,21.245 -22.245,21.245 0,0 4.74875,-9.24875 6.9975,-15.4975 2.25,-6.2475 2.5,-12.2475 1.5,-21.745 -0.25,-20.99375 -3.99875,-92.72875 -3.99875,-92.72875 0,0 -5.74875,1.00125 -10.90375,-2.4675 -8.43625,-6.84375 -5.81125,-13.685 -5.81125,-13.685 l -6.03,-6.8425 4.99875,-3.74875 3.25,0.5 c 0,0 -1.00125,-13.2475 -0.25125,-17.49625 0.75,-4.24875 2.75,-11.4975 1.75,-17.99625 -1,-6.4975 -3.74875,-12.74625 -3.74875,-12.74625 0,0 5.24875,0.24875 3.49875,-4.75 -5.99875,-14.74625 -0.5,-22.49375 -0.5,-22.49375 l 5.99875,-8.74875 c 0,0 -0.5,17.24625 0.75,21.24625 1.25,3.99875 2.25,0.74875 2.25,0.74875 l 1,-7.24875 c 0,0 1.24875,3.25 2.99875,11.2475 1.74875,7.99875 -0.5,21.24625 -0.5,21.24625 0,0 -1.6775,15.805 -2.75,20.745 -1.28,5.905 -0.15625,16.30875 -0.15625,16.30875 l 2.40625,-1.8125 1.53125,1.71875 c 0,0 -0.78125,-28.2125 2.21751,-38.21 2.99999,-9.9975 6.74874,-21.245 14.99749,-27.24375 8.24875,-5.99875 18.495,-4.5 18.495,-4.5 0,0 8.24875,3 9.24751,8.99875 1.00124,5.99875 -7.7475,16.49625 -7.7475,16.49625 0,0 -3.49875,9.2475 -1,12.99625 2.49875,3.75 3.5,3.25 3.5,3.25 0,0 4.4975,-3.49875 12.74625,-5.74875 5.99874,0.25 7.4975,-1.75 7.4975,-1.75 0,0 -10.74625,-3.49875 -12.2475,-17.995 -1.49875,-14.4975 10.49875,-23.995 10.49875,-23.995 0,0 11.247502,-6.74875 23.245002,-3.24875 11.9975,3.49875 14.74625,15.74625 14.74625,15.74625 0,0 2.75,7.9975 -1.49875,16.74625 -4.25,8.7475 -15.2475,12.2475 -15.2475,12.2475 0,0 -3.99875,2.24875 -0.49875,2.24875 3.49875,0 16.745,2.25 16.745,2.25 l 7.24875,2.24875 c 0,0 5.5,2.99875 4.99875,-6.9975 -0.49875,-9.99875 -6.4975,-16.4975 -6.4975,-16.4975 0,0 -5.5,-10.99625 0.99875,-16.49625 8.24875,-4.99875 21.74625,1.75 21.74625,1.75 0,0 6.7475,1.99875 12.745,13.4975 6,11.4975 7.49875,30.9925 7.49875,30.9925 l -0.5,31.7425 c 0,0 -3.74875,104.9775 -4.24875,117.47375 -0.50125,12.4975 8.9975,30.24375 8.9975,30.24375 0,0 -16.745,-7.99875 -22.49375,-16.7475 -5.75,-8.7475 -3.99875,-25.7425 -3.99875,-25.7425 l 4.24875,-60.9875 -6.74875,57.98625 c 0,0 -11.7475,-14.24625 -8.7475,-35.74125 2.99875,-21.495 7.2475,-38.74 7.2475,-38.74 l -9.9975,33.99125 -2.25,-12.2475 c 0,0 1.75,33.7425 0.75,56.48875 -0.99875,22.74375 -4.74875,30.9925 -6.24875,34.99125 -1.49875,3.99875 -6.9975,7.7475 -6.9975,7.7475 0,0 -3,2.50125 0.49875,5.49875 11.74875,5.25 10.7475,11.7475 10.7475,11.7475 0,0 -12.49625,1.75125 -15.24625,-2.24875 -1.49875,-2.24875 -3.49875,-2.24875 -5.99875,-4.24875 -9.24625,-0.5 -6.7475,-5.25 -6.7475,-5.25 l 0.25,-2.74875 c 0,0 -3,0.25 -9.99875,0.25 -6.998752,0 -10.997502,-2.49875 -10.997502,-2.49875 z"
         id="path2875"
         style="fill:#000000;fill-rule:evenodd;stroke:none" />
      <path
         d="m 111.94863,223.82375 4.12375,24.18125 c 0,0 -9.18625,2.43875 -21.371252,-2.6225 -1.68624,-0.75 -8.43499,-3.375 -2.25,-11.99875 11.248762,-10.685 19.497502,-9.56 19.497502,-9.56 z"
         id="path2877"
         style="fill:#ffffff;fill-rule:evenodd;stroke:none" />
      <path
         d="m 81.766128,238.07 c -2.43625,1.3125 -2.3425,3.65625 -2.43625,4.875 -3.0925,1.03 -8.90375,5.435 -9.3725,5.99875 -0.4675,0.5625 -1.0325,0.93625 -1.96875,3.56 0.65625,0.6575 5.7175,0.93875 5.7175,0.93875 0,0 3.655,0.56125 5.25,-1.3125 1.59126,-1.87375 5.2475,-3 5.2475,-3 0,0 5.24876,-0.28 4.87375,-4.87375 -1.03124,-2.43625 -0.75,-5.435 -0.75,-5.435 0,0 -0.1875,-0.75125 0.375,-2.8125 0.5625,-2.0625 -1.49875,-0.75 -1.49875,-0.75 0,0 -3,1.49875 -5.4375,2.81125 z"
         id="path2879"
         style="fill:#ffffff;fill-rule:evenodd;stroke:none" />
      <path
         d="m 114.57239,227.5725 11.9975,-1.5 c 0,0 0.37374,0.75 0,0.75 -2.15626,0.37625 -9.93626,5.3425 -9.93626,5.3425 0,0 0.18876,6.56125 0.75,8.155 0.5625,1.59375 0.46875,8.62375 0.0937,9.18625 -0.375,0.56125 -0.74874,2.90625 -0.74874,2.90625 0,0 -0.75,3.84125 2.06124,3.56 2.81126,-0.28125 6.56126,1.78125 6.56126,1.78125 l 6.18625,4.68625 c 0,0 7.02875,3.5625 9.84125,1.875 -1.78,-5.99875 -5.62375,-7.31 -5.62375,-7.31 l -5.71875,-4.03125 c 0,0 -2.90375,-2.25 -2.7175,-6.46875 0.1875,-4.21625 0.37625,-22.4 0.37625,-22.4 l 0.18625,-7.59125 c 0,0 -2.6225,1.9675 -3.93625,2.43625 -1.31125,0.46875 -5.905,2.53 -7.68625,2.90625 -1.78125,0.37375 -1.9675,2.155 -1.9675,2.155 l 0.28125,3.56125 z"
         id="path2881"
         style="fill:#ffffff;fill-rule:evenodd;stroke:none" />
      <path
         d="m 93.388628,125.78375 c -5.06124,0.75 -6.18499,5.2475 -6.18499,5.2475 l -3.18751,34.68 -3.18625,31.86875 -2.625,28.305 -1.49875,15.56 c 0,0 2.81125,-8.06125 17.245,-14.24625 12.747502,-5.81125 26.806252,-8.62375 26.806252,-8.62375 l 5.0625,-0.9375 -2.4375,-33.555 -4.12375,-52.4875 1.31125,2.81125 9.37376,86.605 0.9375,-80.605 c 0,0 0,-6.375 -4.87375,-10.3125 -4.87376,-3.935 -12.935,-3.935 -12.935,-3.935 0,0 -14.622502,-1.12625 -19.683762,-0.375 z"
         id="path2883"
         style="fill:#ffffff;fill-rule:evenodd;stroke:none" />
      <path
         d="m 139.31739,130.6575 c 0,0 2.4375,9.74875 3.74875,37.49125 1.31125,27.745 -1.87625,54.17625 -1.87625,54.17625 0,0 -3.18625,20.05625 -5.99625,21.37 -2.81375,1.31125 -2.625,0.56125 -2.625,0.56125 0,0 -0.5625,-11.80875 -0.18875,-17.8075 0.375,-5.99875 0.18875,-33.3675 0.18875,-38.43 0,-5.06125 -0.18875,-10.49625 -0.5625,-20.4325 -0.375,-9.935 7.31125,-36.92875 7.31125,-36.92875 z"
         id="path2885"
         style="fill:#80305d;fill-opacity:1;fill-rule:evenodd;stroke:none" />
      <path
         d="m 137.81739,166.27375 c 2.62374,10.8725 1.12374,34.86625 -0.1875,47.4275 -1.31375,12.56 -2.43626,20.99625 -3.5625,24.36875 -1.125,3.375 -2.81126,4.31125 -2.81126,4.31125 0,0 2.4375,-9.93375 4.31125,-30.92875 1.875,-20.99625 2.8125,-26.995 2.25001,-45.17875 z"
         id="path2887"
         style="fill:#e1a241;fill-opacity:1;fill-rule:evenodd;stroke:none" />
      <path
         d="m 26.842378,111.72375 6.93625,-0.18625 -3.5625,3.93625 -3.37375,-3.75 z"
         id="path2889"
         style="fill:#ffffff;fill-rule:evenodd;stroke:none" />
      <path
         d="m 39.401128,239.94375 c 0,0 14.24751,-2.06 16.31,-22.68 2.06125,-20.62 -0.5625,-39.55375 -0.5625,-39.55375 l -2.99999,-43.30375 -0.75001,-19.30875 4.87375,29.24375 c 0,0 4.3125,28.30625 4.87376,30.55625 0.56249,2.24875 1.50125,18.9325 1.50125,18.9325 0,0 4.8725,-8.2475 5.62249,-19.49375 0.75126,-11.25 -1.68624,-21.55875 -1.68624,-21.55875 l -8.06126,-40.49 -0.37374,-4.12375 9.74625,28.1175 4.68625,16.49625 c 0,0 4.87375,-7.12375 2.25,-18.37125 -2.62375,-11.24625 -5.99875,-18.9325 -5.99875,-18.9325 l -3.37375,-12.3725 -24.37,13.31 1.6875,30.555 1.875,38.99125 c 0,0 0.5625,13.49625 1.49875,30.55625 0.9375,17.0575 -6.74875,23.43 -6.74875,23.43 z"
         id="path2891"
         style="fill:#ffffff;fill-rule:evenodd;stroke:none" />
      <path
         d="m 76.143628,100.8525 c 0,0 7.8725,0 8.24751,15.9325 0.37624,15.93375 -0.75001,30.7425 -0.75001,30.7425 l -1.3125,15.3725 c 0,0 -6.37375,-14.80875 -6.185,-25.3075 0.1875,-10.49625 0,-36.74 0,-36.74 z"
         id="path2893"
         style="fill:#80305d;fill-opacity:1;fill-rule:evenodd;stroke:none" />
      <path
         d="m 18.032388,94.57125 3.0925,-3.0925 c 0,0 2.06249,2.25 3.84249,2.62375 1.78,0.375 3.56251,0.2825 3.56251,0.2825 0,0 2.155,0 4.2175,-0.47 2.06125,-0.46875 3.8425,-2.53 3.8425,-2.53 l 3.4675,3.84375 -3.4675,3.3725 c 0,0 -1.59375,-1.12375 -2.53,-1.5925 -0.9375,-0.46875 -3.375,-0.5625 -3.375,-0.5625 l -2.3425,-0.1875 c 0,0 -3.375,-0.1875 -4.5,0.46875 -1.12375,0.655 -2.24875,1.78125 -2.24875,1.78125 l -3.56125,-3.9375 z"
         id="path2895"
         style="fill:#ffffff;fill-rule:evenodd;stroke:none" />
      <path
         d="m 23.374888,100.0075 c -1.40625,0.9375 0,1.96875 0,1.96875 0,0 3.74875,-0.0937 4.31125,-0.0937 0.56249,0 0.74875,-1.78125 0,-1.78125 -0.75125,0 -2.53125,-0.0937 -4.31125,-0.0937 z"
         id="path2897"
         style="fill:#ffe1ab;fill-rule:evenodd;stroke:none" />
      <path
         d="m 22.811128,102.82 c -1.59249,0 0.46875,1.78125 0.46875,1.78125 0,0 6.18626,0.375 7.68625,0.0937 1.5,-0.2825 0.5625,-1.875 0,-1.875 -0.56249,0 -6.56125,0 -8.155,0 z"
         id="path2899"
         style="fill:#ffe1ab;fill-rule:evenodd;stroke:none" />
      <path
         d="m 22.999888,105.44375 c -0.46875,0 -1.03125,1.6875 0.4675,1.78125 1.49999,0.0937 7.31125,0.0937 7.5925,0.0937 0.28125,0 1.21875,-2.06125 0,-1.96875 -1.21875,0.0937 -7.5925,0.0937 -8.06,0.0937 z"
         id="path2901"
         style="fill:#ffe1ab;fill-rule:evenodd;stroke:none" />
      <path
         d="m 24.311128,107.8825 c -0.27999,0 -0.5625,2.06125 0.46875,2.06125 1.03125,0 5.53,-0.0937 6.09251,0 0.56249,0.0937 1.40625,-1.87625 0.0937,-1.87625 -1.3125,0 -6.37375,-0.185 -6.655,-0.185 z"
         id="path2903"
         style="fill:#ffe1ab;fill-rule:evenodd;stroke:none" />
      <path
         d="m 28.997388,99.915 c -1.96751,0.46875 0.9375,1.78 0.9375,1.78 0,0 2.625,0.0937 3.1875,0.1875 0.5625,0.0937 1.87375,0.375 1.5925,1.31125 -0.28126,0.9375 -0.28126,0.845 -1.40501,2.06375 -1.875,1.9675 -0.0937,4.5925 -0.0937,4.5925 0,0 2.905,1.405 4.40499,-0.46875 1.49876,-1.875 1.03125,-4.5925 1.03125,-4.5925 0,0 -0.28125,-3.28125 -1.6875,-4.3125 -1.40625,-1.03 -2.62375,-1.49875 -3.56125,-1.49875 -0.9375,0 -2.4375,0.46875 -4.40624,0.9375 z"
         id="path2905"
         style="fill:#ffe1ab;fill-rule:evenodd;stroke:none" />
      <path
         d="m 95.139888,115.97375 3.87374,0 c 0,0 1.123752,1.37375 1.123752,2.37375 0,1 -0.12375,4.12375 -0.12375,4.12375 0,0 -0.250002,2.1875 -0.937502,2.24875 -0.6875,0.0638 -3.75,0 -3.75,0 0,0 -1.0625,-0.74875 -1.0625,-2.24875 0,-1.49875 -0.125,-3.18625 -0.125,-4.49875 0,-1.3125 1.00125,-1.99875 1.00125,-1.99875 z"
         id="path2907"
         style="fill:#e1a241;fill-opacity:1;fill-rule:evenodd;stroke:none" />
      <path
         d="m 102.01238,115.84875 3.87375,0 c 0,0 1.125,1.375 1.125,2.37375 0,1 -0.125,4.125 -0.125,4.125 0,0 -0.25,2.1875 -0.9375,2.24875 -0.68625,0.0625 -3.74875,0 -3.74875,0 0,0 -1.0625,-0.75 -1.0625,-2.24875 0,-1.5 -0.125,-3.1875 -0.125,-4.49875 0,-1.3125 1,-2 1,-2 z"
         id="path2909"
         style="fill:#e1a241;fill-opacity:1;fill-rule:evenodd;stroke:none" />
      <path
         d="m 88.327388,115.84875 3.875,0 c 0,0 1.12375,1.375 1.12375,2.37375 0,1 -0.12375,4.125 -0.12375,4.125 0,0 -0.25,2.1875 -0.9375,2.24875 -0.6875,0.0625 -3.99875,0 -3.99875,0 0,0 -0.8125,-0.75 -0.8125,-2.24875 0,-1.5 -0.125,-3.1875 -0.125,-4.49875 0,-1.3125 0.99875,-2 0.99875,-2 z"
         id="path2911"
         style="fill:#e1a241;fill-opacity:1;fill-rule:evenodd;stroke:none" />
      <path
         d="m 108.88489,115.91 3.87375,0 c 0,0 1.12625,1.375 1.12625,2.375 0,1 -0.125,4.12375 -0.125,4.12375 0,0 -0.25,2.1875 -0.9375,2.25 -0.6875,0.0612 -4,0 -4,0 0,0 -0.81125,-0.74875 -0.81125,-2.25 0,-1.5 -0.12625,-3.18625 -0.12625,-4.49875 0,-1.3125 1,-2 1,-2 z"
         id="path2913"
         style="fill:#e1a241;fill-opacity:1;fill-rule:evenodd;stroke:none" />
      <path
         d="m 115.57114,115.66125 3.875,0 c 0,0 1.12375,1.37375 1.12375,2.37375 0,1.00125 -0.125,4.12375 -0.125,4.12375 0,0 -0.24876,2.1875 -0.9375,2.25 -0.68625,0.0625 -3.99876,0 -3.99876,0 0,0 -0.81124,-0.75 -0.81124,-2.25 0,-1.49875 -0.125,-3.18625 -0.125,-4.49875 0,-1.3125 0.99874,-1.99875 0.99874,-1.99875 z"
         id="path2915"
         style="fill:#e1a241;fill-opacity:1;fill-rule:evenodd;stroke:none" />
      <path
         d="m 40.713638,97.4775 c 0,0 16.49624,-11.2475 20.99499,-12.7475 0.56375,-9.185 3.56125,-8.435 3.56125,-8.435 l 2.4375,1.49875 c 0,0 8.99875,-9.56 9.56125,-9.7475 -5.81125,-5.24875 -7.49875,-8.435 -7.49875,-8.435 0,0 -3.93625,-6.18625 0.9375,-12.935 4.87375,-6.74875 7.68375,-12.56 7.68375,-12.56 0,0 0.565,-14.80875 -10.68375,-11.06 -11.24625,3.75 -17.8075,12.3725 -17.8075,12.3725 0,0 -7.49875,11.9975 -8.99875,23.995 -1.5,11.9975 -1.3125,25.30625 -1.3125,25.30625 l 1.125,12.7475 z"
         id="path2917"
         style="fill:#ffffff;fill-rule:evenodd;stroke:none" />
      <path
         d="m 45.587378,78.92 c 0,0 3.75,-24.5575 11.81126,-29.99375 8.05999,-5.43625 6.18499,-4.68625 8.80875,-5.25 0.9375,-2.24875 0,-8.435 -4.31125,-3.93625 -4.31126,4.5 -9.56001,10.685 -12.37125,17.62125 -2.8125,6.93625 -3.9375,21.55875 -3.9375,21.55875 z"
         id="path2919"
         style="fill:#000000;fill-rule:evenodd;stroke:none" />
      <path
         d="m 98.826128,54.92375 c 0,0 -11.24874,-5.435 -11.80999,-17.05875 -0.5625,-11.62125 7.31,-20.245 7.31,-20.245 0,0 9.561252,-10.1225 22.683752,-5.62375 13.12125,4.49875 14.80875,16.49625 14.80875,16.49625 0,0 2.06125,6.56125 -1.875,14.435 -3.93625,7.8725 -12.37251,11.06 -12.37251,11.06 l -2.43625,0.875 c 0,0 1.12375,-2 0,-2.9375 3.37375,-1.125 2.62501,-4.31125 2.62501,-4.31125 0,0 5.24749,-2.81125 5.62249,-9.74875 0.37501,-6.935 -3.99875,-10.6225 -5.43625,-12.37125 -1.43624,-1.75 -6.7475,-4.125 -6.7475,-4.125 0,0 -6.93624,-2.24875 -11.435002,-0.1875 -4.5,2.0625 -7.49875,6.74875 -7.49875,6.74875 0,0 -2.25,3.9375 -1.87375,6.37375 0.37375,2.4375 1.68625,4.3125 1.68625,4.3125 0,0 1.31125,2.87375 3.56125,5.81 3.49875,3.8125 3.1875,10.4975 3.1875,10.4975 z"
         id="path2921"
         style="fill:#e1a241;fill-opacity:1;fill-rule:evenodd;stroke:none" />
      <path
         d="m 78.142378,68.23375 c 0,0 1.375,-4.37375 6.12375,-6.24875 4.75,-1.87375 7.49876,-1.24875 7.49876,-1.24875 0,0 2.625,0.24875 4.62375,0.875 2,0.62375 10.872492,1.99875 10.872492,1.99875 0,0 5.24876,0.125 8.62251,-1.99875 3.37499,-2.125 -0.87375,-3.125 -0.87375,-3.125 0,0 8.6225,0.87375 14.3725,1.75 5.7475,0.875 0.37374,8.9975 0.37374,8.9975 0,0 -7.3725,0.25 -11.1225,0.25 -3.74875,0 -13.87125,-0.75 -13.87125,-0.75 0,0 13.74625,4.24875 16.12,5.24875 -0.75,0.75 -2.62375,4.49875 -2.62375,4.49875 L 101.63738,72.7325 c 0,0 12.7475,8.74875 14.37125,9.87375 -0.75,0.125 -2.37374,5.37375 -2.37374,5.37375 l -14.497512,-7.74875 -14.37,-4.12375 -5.00124,-4.74875 -1.62375,-3.125 z"
         id="path2923"
         style="fill:#80305d;fill-opacity:1;fill-rule:evenodd;stroke:none" />
      <path
         d="m 135.75489,62.985 c 0,0 11.6225,-1.625 14.62125,18.62 3.00125,20.24625 -6.4975,34.8675 -6.4975,34.8675 0,0 -9.6225,16.7475 -20.12125,9.6225 -10.4975,-7.1225 -9.49625,-25.8675 -9.49625,-25.8675 0,0 1.3725,-19.49625 8.3725,-28.61875 6.9975,-9.12375 13.12125,-8.62375 13.12125,-8.62375 z"
         id="path2925"
         style="fill:#ffffff;fill-rule:evenodd;stroke:none" />
      <path
         d="m 134.37989,68.48375 7.99999,1.375 -3.25,19.87 10.2475,1.625 -1.375,9.2475 -10.3725,-1.62375 -3,21.245 -8.24875,-1.125 2.875,-21.24625 -11.6225,-2.24875 1.625,-9.12375 12.1225,1.875 2.99875,-19.87 z"
         id="path2927"
         style="fill:#000000;fill-rule:evenodd;stroke:none" />
      <path
         d="m 135.00489,69.98375 5.62374,0.75 -2.99874,20.12 11.2475,1.75 -0.625,5.74875 -11.62375,-2 -3.1225,21.12125 -6,-0.625 3.375,-21.12125 -11.12251,-1.875 0.875,-5.49875 11.12125,1.375 3.25001,-19.745 z"
         id="path2929"
         style="fill:#e1a241;fill-opacity:1;fill-rule:evenodd;stroke:none" />
      <path
         d="m 112.13489,44.86375 c -0.375,1.125 -2.12376,9.8725 -10.49751,9.3725 -0.25,1.25 -2.750002,3.5 -2.750002,3.5 l -1.49875,2.24875 c 0,0 -0.625,1.625 2.375,1.875 6.747502,0.875 11.746252,-1.25 11.746252,-1.25 l 1.5,-0.99875 c 0,0 0.375,-14.7475 -0.875,-14.7475 z"
         id="path2931"
         style="fill:#ffe1ab;fill-rule:evenodd;stroke:none" />
      <path
         d="m 97.637378,31.61625 c 0,0 7.498762,-4.68625 10.872502,1.25 2.25,2.625 2.50125,5.99875 3,8.74875 0.50125,4.06125 -1.99875,6.99875 -1.99875,6.99875 0,0 -2.0625,1.56125 -3.37375,2.12375 -1.31375,0.5625 -1.31375,1.12375 -3.75125,0.5 -2.436252,-0.625 -4.310002,-5.93625 -4.685002,-6.7475 -0.375,-0.81375 -1.0625,-2.5 -1.0625,-2.5 0,0 1.875,1 2.24875,0 0.18875,0.4375 1.00125,2.06125 1.00125,2.06125 0,0 -0.5,1.9375 0.936252,2.3125 1.4375,0.375 1.1875,0.25 2,-0.625 0.81125,-0.875 -0.49875,-0.875 -0.49875,-0.875 0,0 -1.375,1.4375 -1.75125,-0.37375 -0.375,-1.8125 -0.56125,-3.0625 -0.56125,-3.0625 0,0 -0.625002,-1.81125 -0.937502,-2.68625 -0.31375,-0.87625 -1.62375,-0.3125 -1.62375,-0.3125 0,0 -0.75125,0.56125 -1.50125,1.56125 -1.1875,-0.125 -1.625,-2.81125 -1.625,-2.81125 0,0 -0.0625,-2.8125 1.18625,-3.9375 1.25125,-1.12375 2.125,-1.625 2.125,-1.625 z"
         id="path2933"
         style="fill:#ffe1ab;fill-rule:evenodd;stroke:none" />
      <path
         d="m 100.57489,36.92875 c -0.873762,0.62375 -0.12501,1.37375 -0.12501,1.37375 0,0 1.5625,2.0625 3.93625,1.50125 2.37626,-0.56375 2.37626,-2.375 2.37626,-2.375 l 1.375,0 c 0,0 0.24875,-0.5 -0.18875,-0.9375 -0.43625,-0.4375 -1.4375,-1 -2.37375,-1.125 -0.9375,-0.125 -2.4375,0.3125 -3.18875,0.6875 -0.74875,0.375 -0.93625,0.25 -1.81125,0.875 z"
         id="path2935"
         style="fill:#000000;fill-rule:evenodd;stroke:none" />
      <path
         d="m 103.19989,38.5525 0,0.5 c 0,0 1.4375,0 2,-0.375 0.56125,-0.375 0.74875,-1.56125 0.74875,-1.56125 l -0.5,0.0625 c 0,0 -0.125,0.62375 -0.68625,1.06125 -0.5625,0.4375 -1.5625,0.3125 -1.5625,0.3125 z"
         id="path2937"
         style="fill:#ffe1ab;fill-rule:evenodd;stroke:none" />
      <path
         d="m 101.88739,48.42625 c -0.1875,0.4375 0.9375,0.375 0.9375,0.375 0,0 1,-0.6875 1.625,-1.1875 0.625,-0.5 1.375,-0.5 1.375,-0.5 0,0 -0.625,-0.8125 -1.625,-0.625 -1,0.1875 -2.62375,0.9375 -2.62375,0.9375 0,0 -1.06375,1.375 0.31125,1 z"
         id="path2939"
         style="fill:#000000;fill-rule:evenodd;stroke:none" />
      <path
         d="m 97.388638,41.1775 0.0638,0.5625 c 0,0 0.81125,-0.0625 1.1225,-0.4375 0.3125,-0.375 0,-1.25 0,-1.25 l -0.4375,0 c 0,0 0.18875,0.5625 -0.0613,0.9375 -0.25125,0.375 -0.6875,0.1875 -0.6875,0.1875 z"
         id="path2941"
         style="fill:#ffe1ab;fill-rule:evenodd;stroke:none" />
      <path
         d="m 93.264888,60.11125 c 0,0 0.49999,2.37375 2.37374,3.74875 1.87376,1.375 6.123762,1.375 6.123762,1.375 l -8.497502,-5.12375 z"
         id="path2943"
         style="fill:#e1a241;fill-opacity:1;fill-rule:evenodd;stroke:none" />
      <path
         d="m 88.891138,62.735 c 0,0 0.62375,3.5 6.49749,6.62375 5.875002,3.12375 19.370002,7.24875 19.370002,7.24875 0,0 -13.24624,-5.74875 -16.370002,-7.24875 -3.125,-1.5 -9.4975,-6.62375 -9.4975,-6.62375 z"
         id="path2945"
         style="fill:#e1a241;fill-opacity:1;fill-rule:evenodd;stroke:none" />
      <path
         d="m 83.016128,68.35875 c 0,0 4.125,4.875 10.9975,8.6225 6.873762,3.75 16.997502,6.25 16.997502,6.25 0,0 -8.12375,-3.625 -11.498752,-5.375 -3.37375,-1.74875 -16.49625,-9.4975 -16.49625,-9.4975 z"
         id="path2947"
         style="fill:#e1a241;fill-opacity:1;fill-rule:evenodd;stroke:none" />
      <path
         d="m 38.558628,98.9775 c 0,0 2.7175,2.7175 2.7175,6.74875 0,4.02875 -2.7175,9.46625 -2.7175,9.46625 l 22.02625,-12.27875 c 0,0 14.34,-8.24875 15.74625,-8.71625 1.40625,-0.46875 8.6225,-3.28125 11.06,1.78 2.43626,5.0625 1.59251,18.18375 1.59251,18.18375 L 113.63489,114.63 c 0,0 -1.78251,-16.31 -3.28125,-20.1525 -1.49876,-3.8425 -2.7175,-9.09125 -11.622512,-14.43375 -8.90374,-5.3425 -15.27749,-9.3725 -15.27749,-9.3725 0,0 -3.18625,-1.875 -4.5925,-2.625 -0.1875,1.5 -9.56001,10.685 -9.56001,10.685 0,0 -3.18624,3.375 -4.78125,6.74875 -0.4675,2.4375 -3.28,2.34375 -3.28,2.34375 0,0 -5.435,1.405 -7.8725,2.81125 -2.4375,1.40625 -7.685,5.53 -7.685,5.53 0,0 3.18625,6.0925 3.655,6.93625 0.46875,0.8425 0.84375,2.625 -0.84375,0.8425 -1.6875,-1.78 -5.53,-6.84125 -5.53,-6.84125 l -4.405,1.875 z"
         id="path2949"
         style="fill:#ffffff;fill-rule:evenodd;stroke:none" />
      <path
         d="m 144.19114,66.5475 7.49875,10.8725 c 0,0 2.81,-1.6875 4.31125,0.56125 2.43625,2.8125 0.37375,12.7475 0.37375,12.7475 0,0 -2.06125,11.2475 -2.9975,14.9975 -0.93875,3.7475 -4.12625,12.55875 -4.12625,12.55875 0,0 -2.6225,7.3125 -3.18625,9.935 -0.5625,2.62375 -2.62375,12.3725 -2.43625,14.24625 0.18625,1.875 2.6225,10.8725 2.6225,10.8725 0,0 3.18875,-11.05875 4.87375,-16.3075 1.6875,-5.25 9.93625,-29.05625 9.93625,-29.05625 l -4.12375,23.80625 c 0,0 -3.37375,15.3725 -4.49875,20.62 -1.125,5.25 -1.875,15.935 -1.68625,21.185 0.18625,10.87125 5.81125,19.6825 5.81125,19.6825 0,0 0,-8.62375 0.56125,-12.935 0.5625,-4.31125 3.5625,-22.3075 3.5625,-22.3075 l 6.93625,-42.5525 -1.125,27.36875 -2.625,34.49125 c 0,0 -3.5625,29.05625 0.75,45.365 4.31125,16.30875 15.185,17.05875 15.185,17.05875 0,0 -5.81125,-8.2475 -6.56375,-13.8725 -0.75,-5.62375 -0.185,-12.55875 -0.185,-12.55875 l 4.12375,-83.41875 2.625,-53.05 c 0,0 0.56125,-31.49375 -13.68625,-45.1775 -10.30875,-8.43625 -14.05875,-8.43625 -14.05875,-8.43625 0,0 -6.56125,-2.62375 -10.4975,3.9375 -3.93625,6.56 4.685,16.30875 4.685,16.30875 0,0 9.375,9.56 2.4375,17.62125 -1.6875,2.62375 -4.4975,5.43625 -4.4975,5.43625 z"
         id="path2951"
         style="fill:#ffffff;fill-rule:evenodd;stroke:none" />
      <path
         d="m 153.00113,43.86375 c 0,0 6.3725,0.93875 12.56,9.37375 6.185,8.435 8.06,26.24375 8.06,26.24375 0,0 -1.12625,-18.1825 -4.49875,-24.1825 -3.37375,-5.9975 -8.435,-11.80875 -8.435,-11.80875 0,0 -1.875,-2.0625 -4.31249,-3.9375 -2.43626,-1.875 -3.56251,-0.375 -3.74876,0.375 -0.1875,0.75 0.375,3.93625 0.375,3.93625 z"
         id="path2953"
         style="fill:#000000;fill-rule:evenodd;stroke:none" />
      <path
         d="m 94.389888,31.3675 c -0.12625,0.25 0.37374,2.31125 1.6875,1 0.31125,-1 -1.25,0.125 -1.6875,-1 z"
         id="path2955"
         style="fill:#e1a241;fill-opacity:1;fill-rule:evenodd;stroke:none" />
      <path
         d="m 95.139888,27.11875 c 1.7475,3.12375 3.31,2.68625 2.74874,3.56125 -3.4375,1.5 -3.37374,-3.125 -2.74874,-3.56125 z"
         id="path2957"
         style="fill:#e1a241;fill-opacity:1;fill-rule:evenodd;stroke:none" />
      <path
         d="m 100.88739,22.74375 c -6.748762,3.3125 -1.561262,6.93625 -1.561262,6.93625 0,0 -0.3125,-4.43625 1.561262,-6.93625 z"
         id="path2959"
         style="fill:#e1a241;fill-opacity:1;fill-rule:evenodd;stroke:none" />
      <path
         d="m 108.19739,22.99375 c 0,0 -6.1225,2.0625 -7.24626,5.68625 0.24876,-9.56 7.24626,-5.68625 7.24626,-5.68625 z"
         id="path2961"
         style="fill:#e1a241;fill-opacity:1;fill-rule:evenodd;stroke:none" />
      <path
         d="m 103.76113,27.7425 c 0,0 6.93625,-8.3725 10.68625,-0.37375 -5.87375,-2.625 -10.68625,0.37375 -10.68625,0.37375 z"
         id="path2963"
         style="fill:#e1a241;fill-opacity:1;fill-rule:evenodd;stroke:none" />
      <path
         d="m 108.01114,28.805 c 0,0 5.06125,-0.68625 9.74875,4.24875 -0.43751,-8.31 -9.74875,-4.24875 -9.74875,-4.24875 z"
         id="path2965"
         style="fill:#e1a241;fill-opacity:1;fill-rule:evenodd;stroke:none" />
      <path
         d="m 111.75989,31.555 c 7.93624,0.75 5.6875,8.49875 4.31249,7.685 -1.375,-0.81125 1.87375,0 -4.31249,-7.685 z"
         id="path2967"
         style="fill:#e1a241;fill-opacity:1;fill-rule:evenodd;stroke:none" />
      <path
         d="m 113.75989,37.11625 c 5.87375,6.37375 0.625,7.2475 0.625,7.2475 0,0 1.25,-1.93625 -0.625,-7.2475 z"
         id="path2969"
         style="fill:#e1a241;fill-opacity:1;fill-rule:evenodd;stroke:none" />
      <path
         d="m 28.779888,14.12125 c -5.75001,7.7475 -4.25,15.62125 -4.25,15.62125 l 3.125,15.87125 -4,-1.75 c 0,0 2.625,4.625 3.5,9.12375 0.875,4.49875 0.5,10.8725 0.5,10.8725 0,0 -1.625,10.4975 -2.25,17.12125 -0.625,6.62375 2.5,12.2475 2.5,12.2475 l 5.24875,-2.75 c 0,0 -0.625,-5.12375 -0.625,-9.8725 0,-4.74875 2,-16.74625 2,-16.74625 0,0 0.99875,-3.74875 2.62375,-15.9975 1.62375,-12.24625 -1.375,-19.12 -1.375,-19.12 0,0 0.125,1.125 -1.24875,3.625 -1.37501,2.49875 -3.25001,-0.375 -3.25001,-0.375 0,0 -4.24875,-5.87375 -2.49875,-17.87125 z"
         id="path2971"
         style="fill:#e1a241;fill-opacity:1;fill-rule:evenodd;stroke:none" />
    </g>
  </g>
</svg>
