<?xml version="1.0" encoding="UTF-8" standalone="no"?>
<!-- Created with Inkscape (http://www.inkscape.org/) -->
<svg
   xmlns:dc="http://purl.org/dc/elements/1.1/"
   xmlns:cc="http://web.resource.org/cc/"
   xmlns:rdf="http://www.w3.org/1999/02/22-rdf-syntax-ns#"
   xmlns:svg="http://www.w3.org/2000/svg"
   xmlns="http://www.w3.org/2000/svg"
   xmlns:sodipodi="http://sodipodi.sourceforge.net/DTD/sodipodi-0.dtd"
   xmlns:inkscape="http://www.inkscape.org/namespaces/inkscape"
   width="600"
   height="400"
   id="svg4848"
   sodipodi:version="0.32"
   inkscape:version="0.44"
   version="1.0"
   sodipodi:docbase="C:\freeciv"
   sodipodi:docname="kongo.svg">
  <defs
     id="defs4850" />
  <sodipodi:namedview
     id="base"
     pagecolor="#ffffff"
     bordercolor="#666666"
     borderopacity="1.0"
     gridtolerance="10000"
     guidetolerance="10"
     objecttolerance="10"
     inkscape:pageopacity="0.0"
     inkscape:pageshadow="2"
     inkscape:zoom="0.9425"
     inkscape:cx="300"
     inkscape:cy="200"
     inkscape:document-units="px"
     inkscape:current-layer="layer1"
     height="400px"
     width="600px"
     inkscape:window-width="948"
     inkscape:window-height="645"
     inkscape:window-x="176"
     inkscape:window-y="232" />
  <metadata
     id="metadata4853">
    <rdf:RDF>
      <cc:Work
         rdf:about="">
        <dc:format>image/svg+xml</dc:format>
        <dc:type
           rdf:resource="http://purl.org/dc/dcmitype/StillImage" />
      </cc:Work>
    </rdf:RDF>
  </metadata>
  <g
     inkscape:label="Layer 1"
     inkscape:groupmode="layer"
     id="layer1">
    <rect
       style="opacity:1;fill:white;fill-opacity:1;stroke:none;stroke-width:7.5;stroke-linecap:butt;stroke-linejoin:round;stroke-miterlimit:4;stroke-dasharray:none;stroke-opacity:1"
       id="rect4861"
       width="600"
       height="400"
       x="0"
       y="-1.5543122e-014" />
    <path
       style="fill:#630;fill-opacity:1"
       d="M 498.56512,359.00581 C 497.72114,357.42883 495.89276,345.04408 494.50205,331.48414 C 493.11135,317.92421 491.35127,306.1829 490.59078,305.39232 C 489.76267,304.53146 488.22178,306.39718 486.74912,310.04387 C 478.75977,329.82753 469.22442,344.81738 464.62902,344.81738 C 457.09203,344.81738 456.41564,337.57763 462.16636,318.4586 C 471.96099,285.89515 472.05207,285.27056 467.3711,282.76537 C 462.27663,280.03891 458.75518,282.23833 443.69267,297.55443 C 432.27236,309.16702 428.11003,312.39209 422.73555,313.79249 C 414.12133,316.03708 410.95292,315.36924 410.35411,311.18275 C 409.69263,306.55811 413.88376,298.86037 421.58826,290.5493 C 425.14571,286.71178 431.96584,277.63301 436.7441,270.37425 C 441.52237,263.11551 452.20524,249.85859 460.48383,240.91444 C 468.76243,231.9703 476.07511,223.24452 476.73425,221.52382 C 477.39339,219.80312 478.72825,213.26785 479.70058,207.00099 C 482.212,190.81453 482.99409,189.76574 492.5531,189.76574 C 496.93036,189.76574 504.96778,188.98976 510.41401,188.04134 C 515.86026,187.09292 520.59666,186.59729 520.93933,186.93997 C 521.28201,187.28265 520.21048,196.95473 518.55819,208.43346 C 516.90588,219.91221 515.54087,230.88939 515.52484,232.82721 C 515.50879,234.76503 518.15969,239.30029 521.4157,242.90557 C 531.28128,253.82937 534.66699,259.66874 539.59367,274.25727 C 544.07416,287.52451 544.69498,288.4684 551.99781,293.11608 C 564.45217,301.04228 567.29213,303.72834 566.20725,306.55549 C 564.77466,310.28874 547.91854,308.42697 538.94576,303.54444 C 526.98103,297.03386 525.61583,298.93053 531.00084,314.58231 C 535.18419,326.74146 535.14447,336.39772 530.90173,338.66835 C 526.69431,340.92009 524.27767,338.86235 521.93103,331.02994 C 520.308,325.61273 512.58811,307.59954 511.89334,307.60852 C 511.74266,307.61047 511.52551,317.90202 511.41078,330.47863 C 511.17649,356.15895 509.82033,361.87306 503.95972,361.87306 C 501.79142,361.87306 499.42708,360.61641 498.56512,359.00581 z "
       id="path4846" />
    <path
       style="fill:#630;fill-opacity:1"
       d="M 48.790254,342.78749 C 42.292675,340.13207 40.316031,338.57456 40.487657,336.24542 C 40.715707,333.15061 41.588353,330.126 53.409877,291.4567 C 59.58653,271.25228 60.025527,268.59266 60.319878,249.59276 C 60.552843,234.55448 61.269305,228.10531 63.088371,224.67238 C 65.490725,220.13865 65.43117,219.91756 60.267439,214.20193 C 50.013316,202.85184 54.722079,188.73859 69.311725,187.09413 C 75.884922,186.35323 77.001123,186.72775 81.435352,191.16197 C 85.243466,194.97008 86.105212,196.89858 85.347599,199.91717 C 84.657852,202.66534 85.091252,204.06298 86.84149,204.7346 C 90.47247,206.12794 88.367354,217.53661 83.738458,221.55133 C 76.300755,228.00219 78.047644,235.1056 87.756497,237.89006 C 90.61815,238.71078 102.22401,239.38226 113.54732,239.38226 C 133.93719,239.38226 134.15192,239.41909 135.88037,243.21264 C 139.28078,250.67571 136.19268,251.7864 112.04236,251.7864 C 86.888874,251.7864 84.259105,253.85187 103.92962,258.1583 C 110.69907,259.64033 119.29081,261.95273 123.02236,263.29698 C 126.75389,264.64121 131.77129,265.74104 134.17209,265.74104 C 139.22356,265.74104 141.28448,268.07809 138.83535,271.02911 C 137.89907,272.15727 137.3157,274.7432 137.53897,276.77562 C 137.90063,280.06761 137.35263,280.45352 132.51814,280.31134 C 129.53339,280.22356 120.62608,277.2582 112.72409,273.72164 C 104.82212,270.1851 97.37561,267.29156 96.17628,267.29156 C 94.97697,267.29156 93.14124,269.90806 92.09687,273.106 C 91.05252,276.30394 88.905212,281.35217 87.325081,284.32428 C 85.74495,287.2964 84.452129,290.68866 84.452129,291.86264 C 84.452129,293.03663 88.376021,297.58223 93.17189,301.96396 C 97.96776,306.3457 104.95521,313.90289 108.69957,318.75772 C 115.29788,327.31291 115.65363,327.53374 120.254,325.93004 C 123.64751,324.74706 125.48227,324.75717 126.6906,325.9655 C 129.0943,328.3692 115.24772,342.1316 111.76877,340.79661 C 110.38917,340.2672 109.26039,338.9727 109.26039,337.91993 C 109.26039,335.17758 90.87485,317.89971 84.445167,314.59974 C 81.464253,313.06983 77.344392,310.50792 75.289911,308.90666 L 71.554516,305.99525 L 68.046922,312.17049 C 66.117739,315.56687 62.740109,320.70461 60.541074,323.58769 C 55.796835,329.80773 55.376661,334.93518 59.503841,336.2451 C 61.13241,336.76198 63.373697,338.27996 64.484502,339.6184 C 66.178209,341.65919 66.027871,342.40017 63.552906,344.2099 C 59.7291,347.00595 58.922242,346.9282 48.790254,342.78749 z "
       id="path4844" />
    <path
       style="fill:#630;fill-opacity:1"
       d="M 314.3591,335.12665 C 311.58535,331.54192 310.76615,327.40987 309.32584,309.73863 C 307.58835,288.42142 305.76347,283.92826 290.29243,262.87505 L 278.60624,246.97234 L 275.41036,256.43587 C 271.13135,269.10667 253.5162,301.84068 245.78877,311.48127 L 239.57467,319.23386 L 250.21067,319.68574 C 262.789,320.22014 267.45852,323.43293 264.28238,329.36761 C 262.71669,332.29314 261.5335,332.66176 256.01859,331.94217 C 252.47853,331.48025 243.6514,330.33117 236.40273,329.38864 C 229.15407,328.44611 222.35118,327.36751 221.2852,326.99173 C 218.51892,326.01657 218.87894,321.30088 222.55206,310.39736 C 224.31483,305.16469 227.80532,286.87122 230.30872,269.7452 C 236.9151,224.55035 239.18655,213.57639 244.45091,201.42046 C 251.56002,185.00482 252.26362,180.81835 248.53926,177.09401 C 246.2956,174.85033 244.29429,174.26294 241.30754,174.97144 C 233.78555,176.75578 229.49535,181.3143 222.90439,194.52559 C 214.71251,210.94578 214.01653,211.73501 208.80919,210.50903 C 201.9052,208.88361 201.53319,207.65884 204.28104,195.6017 C 205.69279,189.40717 207.31058,179.25692 207.87612,173.04556 C 209.14511,159.10853 211.56701,155.73475 225.32245,148.74221 C 242.3463,140.0882 242.42697,139.97171 234.97251,134.80576 C 229.02718,130.68566 228.42996,130.56476 225.79624,132.94825 C 220.01258,138.18239 202.6136,135.51292 194.15116,128.09305 C 189.56905,124.07546 191.06692,123.10264 200.35323,124.06506 C 205.38042,124.58606 212.14264,124.21152 215.85839,123.20626 C 221.66157,121.63627 222.44809,120.8936 222.44809,116.98396 C 222.44809,113.67908 221.18195,111.74278 217.49403,109.40776 C 213.02447,106.57784 212.12219,106.48711 208.26793,108.48024 C 200.30437,112.59835 195.06873,111.3941 189.89696,104.2547 C 184.18603,96.370972 184.11523,94.524059 189.33839,89.683393 C 196.78343,82.783565 203.63584,84.573109 217.37427,97.005102 C 221.64559,100.87026 225.42689,102.93884 228.22788,102.94262 C 234.11856,102.95056 241.08306,107.50304 248.16424,115.9744 C 251.43721,119.88992 254.66507,123.09354 255.33727,123.09354 C 258.37563,123.09354 256.26003,109.87316 251.7129,100.44502 C 243.98515,84.421995 246.61538,75.156606 261.87741,64.639019 C 270.60226,58.626436 278.41921,57.954455 287.24392,62.458401 C 295.96624,66.910092 298.86987,71.039349 300.21048,80.898199 C 300.87306,85.770774 301.61419,91.152554 301.85742,92.857703 C 302.17191,95.062289 301.29176,96.101353 298.81102,96.454204 C 294.45324,97.074053 294.29045,99.299292 298.50502,100.63695 C 301.04688,101.4437 301.32084,102.08912 299.86568,103.84248 C 298.86358,105.04993 297.04786,106.03785 295.83077,106.03785 C 291.37947,106.03785 284.48812,110.84755 283.5428,114.61402 C 282.33954,119.40819 284.655,122.34907 292.89285,126.48963 C 296.36104,128.23285 304.43164,134.69152 310.82752,140.84227 C 323.31713,152.85317 342.4287,166.42235 350.98468,169.35377 C 353.8835,170.34694 359.98865,171.15955 364.5517,171.15955 C 371.63415,171.15955 372.84817,171.58554 372.84817,174.07072 C 372.84817,178.45631 369.83949,180.1597 357.51366,182.75252 C 338.08414,186.83964 332.77748,186.15589 320.63959,178.0014 C 314.81656,174.08937 309.5738,170.58724 308.98902,170.21889 C 308.40425,169.85055 308.60332,171.83028 309.43139,174.61828 C 311.8794,182.86036 311.39749,206.71977 308.62825,214.38132 C 304.29223,226.37763 304.56453,227.01283 323.43633,248.92301 L 334.08526,261.28641 L 334.00944,270.87868 C 333.96775,276.15443 333.02308,288.49487 331.91018,298.30189 C 329.66201,318.11327 330.39322,321.55501 336.85321,321.56828 C 343.53403,321.582 352.69146,324.6179 352.69146,326.81901 C 352.69146,330.99965 346.90783,333.66977 334.22636,335.34374 C 317.77851,337.51486 316.19362,337.49754 314.3591,335.12665 z "
       id="path4842" />
    <path
       style="fill:#999;fill-opacity:1"
       d="M 84.452129,157.38724 C 69.524301,152.57003 61.481974,146.76561 56.595475,137.28211 C 54.112106,132.4625 54.201075,114.47972 56.750744,105.89911 C 61.082887,91.319824 79.362994,79.08456 99.95729,76.980075 L 108.48513,76.108638 L 101.42672,83.708293 C 92.95735,92.827096 90.02262,101.79263 90.91577,115.81913 C 91.79469,129.62247 99.21616,144.51285 108.56205,151.22457 C 112.35727,153.9501 115.46246,156.68487 115.46246,157.30185 C 115.46246,161.17306 96.34696,161.2257 84.452129,157.38724 z "
       id="path4838" />
    <path
       style="fill:yellow;fill-opacity:1"
       d="M 495.6221,134.19788 C 469.01152,124.68941 462.26662,94.610531 482.62839,76.252356 C 509.49065,52.033329 555.78297,73.814742 549.57694,107.75293 C 545.69813,128.96446 518.40858,142.33993 495.6221,134.19788 z "
       id="path4834" />
  </g>
</svg>
