<?xml version="1.0" encoding="UTF-8" standalone="no"?>
<svg
   xmlns:dc="http://purl.org/dc/elements/1.1/"
   xmlns:cc="http://creativecommons.org/ns#"
   xmlns:rdf="http://www.w3.org/1999/02/22-rdf-syntax-ns#"
   xmlns:svg="http://www.w3.org/2000/svg"
   xmlns="http://www.w3.org/2000/svg"
   xmlns:sodipodi="http://sodipodi.sourceforge.net/DTD/sodipodi-0.dtd"
   xmlns:inkscape="http://www.inkscape.org/namespaces/inkscape"
   width="310pt"
   height="210pt"
   viewBox="0 0 310 210"
   version="1.1"
   id="svg2"
   inkscape:version="0.48.1 r9760"
   sodipodi:docname="kushan.svg">
  <metadata
     id="metadata297">
    <rdf:RDF>
      <cc:Work
         rdf:about="">
        <dc:format>image/svg+xml</dc:format>
        <dc:type
           rdf:resource="http://purl.org/dc/dcmitype/StillImage" />
        <dc:title></dc:title>
      </cc:Work>
    </rdf:RDF>
  </metadata>
  <defs
     id="defs295" />
  <sodipodi:namedview
     pagecolor="#ffffff"
     bordercolor="#666666"
     borderopacity="1"
     objecttolerance="10"
     gridtolerance="10"
     guidetolerance="10"
     inkscape:pageopacity="0"
     inkscape:pageshadow="2"
     inkscape:window-width="1152"
     inkscape:window-height="810"
     id="namedview293"
     showgrid="false"
     inkscape:zoom="1.9504762"
     inkscape:cx="193.75"
     inkscape:cy="90.234375"
     inkscape:window-x="-4"
     inkscape:window-y="-4"
     inkscape:window-maximized="1"
     inkscape:current-layer="svg2" />
  <g
     id="#e7852aff">
    <path
       fill="#e7852a"
       opacity="1.00"
       d=" M 0.00 0.00 L 310.00 0.00 L 310.00 210.00 L 0.00 210.00 L 0.00 0.00 M 127.41 43.91 C 131.21 48.21 135.53 52.01 139.40 56.24 C 139.49 56.33 139.68 56.51 139.77 56.60 C 140.86 57.74 142.19 58.63 143.65 59.25 C 143.33 62.40 140.39 64.14 138.27 66.10 C 137.57 61.51 135.05 57.49 131.31 54.74 C 129.37 54.17 127.33 54.06 125.34 53.82 C 123.76 52.75 122.06 48.68 120.04 51.06 C 111.18 59.97 101.84 68.46 93.45 77.81 C 98.80 83.48 104.37 88.94 109.98 94.34 C 104.59 100.20 98.70 105.57 93.20 111.32 C 98.41 116.92 103.98 122.18 109.36 127.63 C 110.01 128.48 111.50 129.44 110.74 130.68 C 109.81 133.26 108.38 135.61 107.03 137.98 L 107.32 138.76 C 106.70 139.16 105.47 139.95 104.85 140.34 C 104.75 140.44 104.55 140.64 104.46 140.74 C 103.25 142.01 102.07 143.31 100.82 144.54 C 100.72 144.63 100.52 144.82 100.43 144.91 C 94.63 150.25 87.11 154.28 83.85 161.84 C 84.20 162.39 84.91 163.48 85.26 164.03 C 84.20 165.03 82.71 165.77 82.16 167.20 C 82.32 169.06 82.75 170.89 83.05 172.74 C 80.58 174.68 77.76 176.29 75.78 178.79 C 73.12 182.75 72.68 187.73 73.02 192.38 C 76.75 190.25 80.35 187.69 84.62 186.74 C 86.55 186.01 89.31 186.16 90.13 183.86 L 90.46 183.78 L 91.33 183.83 C 91.71 181.25 92.05 178.59 93.45 176.33 C 93.94 176.46 94.93 176.72 95.43 176.85 L 94.97 176.38 C 95.44 176.16 96.39 175.74 96.87 175.52 C 97.43 175.68 98.56 175.99 99.13 176.14 L 98.47 175.43 C 100.66 175.44 102.55 174.50 103.99 172.89 C 104.01 171.00 104.06 169.12 104.12 167.24 C 104.80 166.53 105.47 165.83 106.15 165.13 C 107.55 165.26 108.96 165.39 110.37 165.49 L 110.88 165.86 C 110.78 165.44 110.59 164.60 110.49 164.18 L 111.08 162.96 C 111.16 162.79 111.32 162.44 111.39 162.27 C 114.22 155.17 116.43 147.83 119.11 140.67 C 119.16 140.54 119.27 140.29 119.33 140.16 C 126.43 135.44 131.38 128.12 138.04 122.89 C 140.65 124.36 142.34 127.00 144.40 129.11 C 141.53 130.05 139.84 132.75 137.70 134.70 C 134.68 138.00 130.93 140.68 128.60 144.56 L 127.99 143.86 C 127.17 146.25 129.52 147.61 130.88 149.14 C 139.02 156.99 146.77 165.24 155.00 173.00 C 164.41 163.88 173.74 154.67 182.84 145.25 C 178.22 140.39 173.19 135.92 168.70 130.94 C 171.05 129.35 173.47 127.85 175.77 126.18 C 180.67 130.66 184.54 136.52 190.51 139.65 C 193.34 147.14 195.65 154.82 198.60 162.26 C 198.68 162.43 198.84 162.77 198.91 162.94 L 199.50 164.17 C 199.40 164.60 199.19 165.47 199.09 165.91 L 199.60 165.53 C 201.04 165.41 202.48 165.25 203.93 165.08 C 206.42 166.97 206.00 170.12 206.02 172.91 C 207.45 174.51 209.33 175.43 211.51 175.43 L 210.86 176.15 C 211.43 175.99 212.56 175.68 213.13 175.52 C 213.61 175.74 214.55 176.16 215.03 176.38 L 214.57 176.84 C 215.07 176.71 216.06 176.46 216.56 176.33 C 217.98 178.67 218.02 181.50 219.11 183.95 C 220.83 186.01 223.78 186.06 226.13 186.95 C 230.07 187.97 233.39 190.39 236.95 192.25 C 237.28 187.65 236.92 182.67 234.21 178.78 C 232.21 176.31 229.42 174.69 226.96 172.74 C 227.24 170.90 227.67 169.07 227.83 167.21 C 227.31 165.82 225.87 165.09 224.86 164.11 C 225.38 163.15 225.76 162.16 226.00 161.11 C 221.55 152.69 212.42 148.64 206.29 141.71 C 203.40 138.43 200.64 134.88 199.27 130.68 C 198.55 129.42 200.00 128.50 200.67 127.66 C 206.07 122.20 211.69 116.96 216.90 111.32 C 211.28 105.66 205.45 100.18 200.01 94.34 C 205.74 88.91 211.26 83.26 216.83 77.66 C 210.03 70.64 202.96 63.87 196.09 56.91 C 193.59 54.53 191.45 51.73 188.47 49.91 C 186.13 53.35 182.36 54.77 178.73 56.36 C 178.62 56.43 178.39 56.57 178.27 56.64 C 176.76 57.61 175.19 58.75 174.52 60.50 L 174.01 59.66 C 174.18 60.41 174.52 61.90 174.69 62.65 C 173.77 63.78 173.51 65.84 171.93 66.19 C 169.38 64.50 167.63 61.92 165.50 59.77 C 167.66 59.62 168.95 57.75 170.41 56.40 C 174.43 52.17 178.80 48.28 182.67 43.90 C 178.43 38.65 173.10 34.43 168.48 29.53 C 163.94 25.18 159.83 20.39 154.99 16.37 C 145.59 25.33 136.40 34.54 127.41 43.91 Z"
       id="path5" />
    <path
       fill="#e7852a"
       opacity="1.00"
       d=" M 139.14 38.25 C 142.37 33.52 146.43 29.33 151.20 26.14 C 147.73 30.68 143.74 34.84 139.14 38.25 Z"
       id="path7" />
    <path
       fill="#e7852a"
       opacity="1.00"
       d=" M 165.32 28.30 C 165.41 28.39 165.61 28.59 165.70 28.68 C 165.61 28.59 165.41 28.39 165.32 28.30 Z"
       id="path9" />
    <path
       fill="#e7852a"
       opacity="1.00"
       d=" M 154.15 36.93 C 154.42 36.60 154.95 35.96 155.22 35.64 C 155.38 35.98 155.71 36.66 155.87 37.00 C 155.44 36.98 154.58 36.95 154.15 36.93 Z"
       id="path11" />
    <path
       fill="#e7852a"
       opacity="1.00"
       d=" M 149.44 43.92 C 151.35 41.66 153.53 39.63 155.95 37.93 C 156.28 38.26 156.92 38.91 157.24 39.24 C 157.35 39.34 157.56 39.54 157.67 39.64 C 157.95 39.88 158.50 40.35 158.78 40.59 C 159.34 41.75 159.89 42.91 160.44 44.08 C 158.75 45.99 156.95 47.81 155.05 49.52 C 153.09 47.75 151.21 45.88 149.44 43.92 Z"
       id="path13" />
    <path
       fill="#e7852a"
       opacity="1.00"
       d=" M 175.37 38.28 C 175.46 38.36 175.63 38.51 175.71 38.59 C 175.63 38.51 175.46 38.36 175.37 38.28 Z"
       id="path15" />
    <path
       fill="#e7852a"
       opacity="1.00"
       d=" M 162.94 39.82 C 164.30 39.77 165.13 40.42 165.44 41.75 C 163.99 41.89 163.16 41.24 162.94 39.82 Z"
       id="path17" />
    <path
       fill="#e7852a"
       opacity="1.00"
       d=" M 170.18 49.18 C 171.87 47.33 173.84 45.71 176.23 44.86 C 166.66 55.18 156.11 64.58 146.71 75.05 C 146.44 74.81 145.90 74.31 145.63 74.07 C 153.55 65.52 162.12 57.60 170.18 49.18 Z"
       id="path19" />
    <path
       fill="#e7852a"
       opacity="1.00"
       d=" M 138.05 48.73 C 141.44 51.16 144.57 53.93 147.24 57.15 L 146.52 57.57 C 143.36 54.97 140.32 52.17 138.05 48.73 Z"
       id="path21" />
    <path
       fill="#e7852a"
       opacity="1.00"
       d=" M 188.19 52.26 L 189.01 51.81 L 189.83 52.26 L 189.81 53.07 C 189.41 53.07 188.61 53.07 188.22 53.07 L 188.19 52.26 Z"
       id="path23" />
    <path
       fill="#e7852a"
       opacity="1.00"
       d=" M 186.85 66.42 C 187.59 65.88 188.34 65.34 189.09 64.81 C 193.33 68.69 197.67 72.58 201.03 77.29 C 195.43 74.73 192.97 67.99 186.85 66.42 Z"
       id="path25" />
    <path
       fill="#e7852a"
       opacity="1.00"
       d=" M 124.79 68.94 C 125.32 68.76 126.36 68.40 126.89 68.21 L 127.08 68.99 C 126.74 69.26 126.06 69.79 125.72 70.06 C 125.49 69.78 125.02 69.22 124.79 68.94 Z"
       id="path27" />
    <path
       fill="#e7852a"
       opacity="1.00"
       d=" M 149.11 77.42 C 151.03 75.47 152.98 73.55 155.03 71.73 C 157.08 73.51 159.02 75.39 160.93 77.30 C 159.14 79.46 157.17 81.46 155.01 83.26 C 152.87 81.49 150.86 79.57 149.11 77.42 Z"
       id="path29" />
    <path
       fill="#e7852a"
       opacity="1.00"
       d=" M 209.14 75.97 C 210.71 76.66 211.34 78.55 209.75 79.66 C 204.19 85.22 198.72 90.90 192.91 96.20 L 192.78 94.88 C 198.10 88.94 204.00 83.56 209.56 77.85 C 209.46 77.38 209.25 76.44 209.14 75.97 Z"
       id="path31" />
    <path
       fill="#e7852a"
       opacity="1.00"
       d=" M 108.90 77.69 C 112.74 79.45 115.21 82.96 118.32 85.65 C 118.09 85.99 117.62 86.67 117.38 87.01 C 114.46 84.00 111.18 81.27 108.90 77.69 Z"
       id="path33" />
    <path
       fill="#e7852a"
       opacity="1.00"
       d=" M 192.21 85.37 C 194.80 82.44 197.49 79.40 201.12 77.74 C 198.66 81.39 195.34 84.33 192.05 87.22 C 192.09 86.76 192.17 85.84 192.21 85.37 Z"
       id="path35" />
    <path
       fill="#e7852a"
       opacity="1.00"
       d=" M 125.25 88.87 C 125.68 91.14 125.76 93.45 125.71 95.75 C 120.24 100.77 115.23 106.28 109.82 111.37 C 113.12 115.45 117.00 119.01 121.09 122.28 C 124.11 119.83 127.03 117.16 129.16 113.88 C 129.43 114.17 129.97 114.74 130.23 115.02 C 127.45 118.39 124.34 121.47 121.02 124.30 C 117.07 120.80 113.42 116.97 109.66 113.26 C 109.17 112.59 107.71 111.60 108.76 110.73 C 113.55 105.53 118.87 100.84 123.73 95.71 C 125.54 93.94 124.99 91.15 125.25 88.87 Z"
       id="path37" />
    <path
       fill="#e7852a"
       opacity="1.00"
       d=" M 171.63 88.99 L 172.27 89.41 C 172.38 89.49 172.61 89.64 172.73 89.72 C 173.30 90.08 174.43 90.81 175.00 91.18 C 174.88 92.74 175.22 94.41 174.59 95.88 C 173.44 96.91 172.37 98.06 171.78 99.50 L 171.53 100.00 C 169.89 98.32 167.83 96.88 166.89 94.65 L 166.65 94.11 C 167.02 93.74 167.74 92.99 168.11 92.61 C 168.20 92.51 168.40 92.30 168.50 92.20 C 169.52 91.10 170.56 90.03 171.63 88.99 Z"
       id="path39" />
    <path
       fill="#e7852a"
       opacity="1.00"
       d=" M 139.92 90.85 C 141.50 91.93 142.88 93.26 144.07 94.76 C 143.12 95.48 142.17 96.21 141.23 96.94 C 140.70 94.93 140.20 92.91 139.92 90.85 Z"
       id="path41" />
    <path
       fill="#e7852a"
       opacity="1.00"
       d=" M 164.06 96.90 C 164.31 96.63 164.80 96.09 165.05 95.81 L 165.80 96.34 L 165.69 97.15 C 165.28 97.09 164.47 96.96 164.06 96.90 Z"
       id="path43" />
    <path
       fill="#e7852a"
       opacity="1.00"
       d=" M 125.04 99.41 C 125.11 99.31 125.26 99.10 125.34 98.99 C 125.26 99.10 125.11 99.31 125.04 99.41 Z"
       id="path45" />
    <path
       fill="#e7852a"
       opacity="1.00"
       d=" M 191.54 102.94 C 191.81 102.70 192.36 102.22 192.63 101.99 C 195.40 105.39 199.70 107.94 201.61 111.78 C 197.65 116.20 193.32 120.30 188.98 124.34 C 185.98 121.71 183.23 118.82 180.39 116.03 C 180.06 116.39 179.40 117.10 179.06 117.46 C 178.82 117.10 178.34 116.39 178.10 116.03 C 179.20 114.40 181.11 113.77 182.74 112.83 L 182.60 113.66 C 182.49 114.23 182.28 115.38 182.17 115.95 C 184.34 118.26 186.64 120.46 189.07 122.50 C 192.99 119.04 196.79 115.42 200.13 111.39 C 197.23 108.61 194.40 105.76 191.54 102.94 Z"
       id="path47" />
    <path
       fill="#e7852a"
       opacity="1.00"
       d=" M 190.76 104.79 C 190.77 104.65 190.81 104.38 190.83 104.25 L 190.76 104.79 Z"
       id="path49" />
    <path
       fill="#e7852a"
       opacity="1.00"
       d=" M 150.96 110.01 C 151.92 108.97 152.53 107.03 154.18 107.03 C 154.58 107.01 155.38 106.98 155.78 106.97 C 157.79 107.49 158.86 109.58 160.20 111.02 C 158.76 111.09 157.37 110.93 156.02 110.53 C 155.22 109.75 154.28 109.49 153.22 109.74 C 152.65 109.81 151.52 109.94 150.96 110.01 Z"
       id="path51" />
    <path
       fill="#e7852a"
       opacity="1.00"
       d=" M 116.20 110.15 C 117.48 110.80 117.45 111.47 116.11 112.17 C 114.83 111.52 114.86 110.85 116.20 110.15 Z"
       id="path53" />
    <path
       fill="#e7852a"
       opacity="1.00"
       d=" M 149.19 128.29 C 149.61 128.50 150.44 128.92 150.85 129.13 C 144.86 134.30 139.48 140.15 133.93 145.79 C 133.68 145.55 133.18 145.05 132.93 144.81 C 138.10 139.07 143.78 133.80 149.19 128.29 Z"
       id="path55" />
    <path
       fill="#e7852a"
       opacity="1.00"
       d=" M 151.29 129.35 C 151.40 129.40 151.62 129.50 151.73 129.56 C 151.62 129.50 151.40 129.40 151.29 129.35 Z"
       id="path57" />
    <path
       fill="#e7852a"
       opacity="1.00"
       d=" M 159.15 131.55 L 159.56 131.57 L 159.45 131.89 C 159.38 131.80 159.23 131.63 159.15 131.55 Z"
       id="path59" />
    <path
       fill="#e7852a"
       opacity="1.00"
       d=" M 162.84 131.84 L 163.72 131.63 C 168.51 135.68 172.75 140.33 177.15 144.80 C 176.88 145.05 176.34 145.54 176.07 145.78 C 171.79 141.01 166.77 136.93 162.84 131.84 Z"
       id="path61" />
    <path
       fill="#e7852a"
       opacity="1.00"
       d=" M 149.23 145.29 C 151.07 143.31 153.00 141.42 155.03 139.65 C 157.06 141.41 158.97 143.30 160.78 145.30 C 159.01 147.37 157.06 149.28 154.99 151.05 C 152.98 149.23 151.06 147.31 149.23 145.29 Z"
       id="path63" />
  </g>
  <g
     id="#353636ff">
    <path
       fill="#353636"
       opacity="1.00"
       d=" M 127.41 43.91 C 136.40 34.54 145.59 25.33 154.99 16.37 C 159.83 20.39 163.94 25.18 168.48 29.53 C 173.10 34.43 178.43 38.65 182.67 43.90 C 178.80 48.28 174.43 52.17 170.41 56.40 C 168.95 57.75 167.66 59.62 165.50 59.77 C 170.11 54.06 176.06 49.59 180.69 43.91 C 180.08 41.58 177.30 40.34 175.71 38.59 C 175.63 38.51 175.46 38.36 175.37 38.28 C 172.16 35.07 168.95 31.86 165.70 28.68 C 165.61 28.59 165.41 28.39 165.32 28.30 C 161.97 24.87 158.71 21.34 155.00 18.29 C 150.21 22.39 146.00 27.09 141.50 31.48 C 137.43 35.65 133.05 39.53 129.30 44.00 C 133.73 49.42 139.40 53.68 143.65 59.25 C 142.19 58.63 140.86 57.74 139.77 56.60 C 139.68 56.51 139.49 56.33 139.40 56.24 C 135.53 52.01 131.21 48.21 127.41 43.91 Z"
       id="path66" />
    <path
       fill="#353636"
       opacity="1.00"
       d=" M 154.06 22.95 C 154.72 21.47 155.33 21.49 155.90 23.01 C 155.44 22.99 154.52 22.96 154.06 22.95 Z"
       id="path68" />
    <path
       fill="#353636"
       opacity="1.00"
       d=" M 154.15 36.93 C 154.58 36.95 155.44 36.98 155.87 37.00 L 155.95 37.93 C 153.53 39.63 151.35 41.66 149.44 43.92 C 151.21 45.88 153.09 47.75 155.05 49.52 C 156.95 47.81 158.75 45.99 160.44 44.08 C 159.89 42.91 159.34 41.75 158.78 40.59 C 160.13 41.57 161.44 42.63 162.63 43.80 C 155.00 51.98 146.74 59.55 139.02 67.66 C 139.86 68.28 140.69 68.93 141.51 69.59 C 142.88 71.09 144.18 72.65 145.63 74.07 C 145.90 74.31 146.44 74.81 146.71 75.05 C 147.06 75.35 147.76 75.94 148.11 76.23 C 153.60 72.27 157.65 66.71 162.85 62.41 C 163.18 63.02 163.85 64.23 164.19 64.84 C 163.69 64.68 162.68 64.36 162.18 64.20 C 160.99 65.53 159.78 66.85 158.59 68.17 C 163.70 73.85 169.15 79.26 174.83 84.38 C 174.87 82.93 174.92 81.49 174.98 80.04 C 175.15 78.64 175.20 77.06 174.20 75.93 L 173.83 75.38 C 174.40 74.23 174.95 73.08 175.50 71.92 C 176.46 77.88 176.07 83.95 176.74 89.94 C 177.33 95.48 176.83 101.67 172.99 106.04 C 165.97 114.97 150.14 114.79 143.71 105.28 C 139.09 98.51 138.14 89.99 137.97 82.00 C 137.99 74.48 138.62 66.09 134.18 59.56 C 133.95 65.10 133.98 70.64 133.17 76.14 C 132.63 86.46 134.11 97.83 141.15 105.90 C 146.57 112.58 155.22 117.36 163.98 116.31 C 172.37 115.27 178.23 107.80 180.02 99.96 C 181.72 91.79 182.87 83.29 181.31 74.99 C 180.87 69.10 179.02 63.44 178.43 57.57 C 177.12 59.06 176.05 60.73 175.04 62.44 C 174.91 61.95 174.65 60.98 174.52 60.50 C 175.19 58.75 176.76 57.61 178.27 56.64 C 178.39 56.57 178.62 56.43 178.73 56.36 C 182.36 54.77 186.13 53.35 188.47 49.91 C 191.45 51.73 193.59 54.53 196.09 56.91 C 202.96 63.87 210.03 70.64 216.83 77.66 C 211.26 83.26 205.74 88.91 200.01 94.34 C 205.45 100.18 211.28 105.66 216.90 111.32 C 211.69 116.96 206.07 122.20 200.67 127.66 C 200.00 128.50 198.55 129.42 199.27 130.68 C 200.64 134.88 203.40 138.43 206.29 141.71 C 212.42 148.64 221.55 152.69 226.00 161.11 C 225.76 162.16 225.38 163.15 224.86 164.11 C 225.87 165.09 227.31 165.82 227.83 167.21 C 227.67 169.07 227.24 170.90 226.96 172.74 C 229.42 174.69 232.21 176.31 234.21 178.78 C 236.92 182.67 237.28 187.65 236.95 192.25 C 233.39 190.39 230.07 187.97 226.13 186.95 C 223.78 186.06 220.83 186.01 219.11 183.95 C 218.02 181.50 217.98 178.67 216.56 176.33 C 216.94 176.24 217.69 176.07 218.07 175.98 C 220.55 178.12 217.75 182.39 221.00 183.93 C 225.97 185.62 231.19 186.60 235.91 189.03 C 235.20 185.70 234.96 182.02 232.76 179.26 C 230.66 176.70 227.90 174.82 225.37 172.73 C 225.69 170.51 226.00 168.29 226.19 166.05 C 223.71 165.49 221.19 164.98 218.81 164.04 C 218.92 163.27 219.13 161.75 219.23 160.98 C 221.13 161.17 223.02 161.42 224.91 161.70 C 219.23 152.22 208.40 147.75 201.96 138.89 C 204.25 147.34 208.64 155.07 214.07 161.89 C 218.70 168.30 224.26 174.08 228.12 181.02 C 223.09 175.66 217.71 170.54 213.58 164.42 C 209.70 158.99 206.08 153.37 202.86 147.53 C 199.69 143.21 197.56 138.29 195.10 133.56 C 193.75 134.75 192.42 135.97 191.08 137.17 C 193.71 144.53 196.13 151.96 198.75 159.32 C 199.22 160.88 200.10 162.51 199.50 164.17 L 198.91 162.94 C 198.84 162.77 198.68 162.43 198.60 162.26 C 195.65 154.82 193.34 147.14 190.51 139.65 C 184.54 136.52 180.67 130.66 175.77 126.18 C 173.47 127.85 171.05 129.35 168.70 130.94 C 173.19 135.92 178.22 140.39 182.84 145.25 C 173.74 154.67 164.41 163.88 155.00 173.00 C 146.77 165.24 139.02 156.99 130.88 149.14 C 129.52 147.61 127.17 146.25 127.99 143.86 L 128.60 144.56 C 132.59 149.49 137.36 153.68 141.77 158.23 C 146.20 162.54 150.36 167.13 154.99 171.24 C 163.79 162.75 172.47 154.12 180.93 145.30 C 176.46 141.00 172.20 136.48 167.73 132.19 C 166.73 130.85 165.07 131.28 163.72 131.63 L 162.84 131.84 C 161.34 133.14 159.95 134.57 158.58 136.00 C 161.33 139.08 164.42 141.83 167.16 144.92 C 166.94 145.19 166.50 145.73 166.28 146.00 C 163.81 142.73 160.92 139.83 157.89 137.09 C 157.40 137.34 156.43 137.83 155.94 138.08 C 158.16 140.41 160.37 142.74 162.57 145.10 C 160.45 147.98 157.88 150.50 155.02 152.64 C 152.11 150.53 149.52 148.02 147.42 145.10 C 151.02 140.33 156.63 137.16 159.45 131.89 L 159.56 131.57 L 159.15 131.55 C 158.80 131.53 158.08 131.50 157.73 131.49 C 152.79 136.15 148.03 141.02 143.38 145.97 L 142.89 145.50 L 142.76 145.10 C 146.94 140.31 151.64 136.00 156.19 131.56 C 154.71 130.88 153.21 130.23 151.73 129.56 C 151.62 129.50 151.40 129.40 151.29 129.35 L 150.85 129.13 C 150.44 128.92 149.61 128.50 149.19 128.29 C 148.65 128.00 147.57 127.41 147.03 127.12 C 146.14 127.77 145.26 128.42 144.40 129.11 C 142.34 127.00 140.65 124.36 138.04 122.89 C 131.38 128.12 126.43 135.44 119.33 140.16 L 119.11 140.67 C 116.43 147.83 114.22 155.17 111.39 162.27 C 111.32 162.44 111.16 162.79 111.08 162.96 L 110.49 164.18 C 109.89 162.52 110.76 160.88 111.23 159.31 C 113.85 151.94 116.27 144.50 118.92 137.15 C 117.59 135.93 116.26 134.70 114.91 133.49 C 112.59 137.93 110.56 142.53 107.87 146.77 C 107.45 146.66 106.62 146.43 106.21 146.32 C 106.27 147.54 106.67 148.87 105.85 149.94 C 102.09 156.35 97.89 162.52 93.42 168.47 C 89.83 172.88 85.76 176.87 81.87 181.02 C 88.34 169.74 98.50 160.92 104.11 149.08 C 105.44 146.43 106.16 143.40 108.18 141.14 C 108.19 141.78 108.22 143.04 108.23 143.67 C 110.45 139.97 112.81 136.02 113.44 131.71 C 113.13 131.44 112.53 130.91 112.22 130.64 C 110.77 134.10 110.07 137.87 108.18 141.14 C 107.96 140.55 107.53 139.36 107.32 138.76 L 107.03 137.98 C 108.38 135.61 109.81 133.26 110.74 130.68 C 111.50 129.44 110.01 128.48 109.36 127.63 C 103.98 122.18 98.41 116.92 93.20 111.32 C 98.70 105.57 104.59 100.20 109.98 94.34 C 104.37 88.94 98.80 83.48 93.45 77.81 C 101.84 68.46 111.18 59.97 120.04 51.06 C 122.06 48.68 123.76 52.75 125.34 53.82 C 127.33 54.06 129.37 54.17 131.31 54.74 C 135.05 57.49 137.57 61.51 138.27 66.10 C 140.39 64.14 143.33 62.40 143.65 59.25 C 144.61 58.69 145.57 58.13 146.52 57.57 L 147.24 57.15 C 148.80 55.80 150.11 54.19 151.48 52.65 C 152.29 51.98 153.12 51.33 153.96 50.69 C 151.80 48.47 149.66 46.24 147.55 43.97 C 149.74 41.61 151.97 39.30 154.15 36.93 M 121.07 51.97 C 112.46 60.36 103.83 68.73 95.33 77.22 L 95.36 77.78 C 98.72 81.37 102.40 84.64 105.79 88.21 C 107.62 89.97 109.17 92.20 111.64 93.10 C 112.05 92.59 112.87 91.57 113.28 91.06 C 114.74 89.81 116.10 88.45 117.38 87.01 C 117.62 86.67 118.09 85.99 118.32 85.65 L 118.89 86.15 C 119.21 85.26 119.53 84.36 119.85 83.45 C 124.18 83.21 120.33 77.91 122.06 75.86 C 124.17 76.61 122.58 79.53 123.03 81.20 C 123.52 80.84 124.51 80.13 125.01 79.77 C 124.97 78.28 124.93 76.78 124.88 75.29 C 124.11 74.69 123.35 74.09 122.58 73.50 C 122.39 73.85 122.02 74.56 121.83 74.91 C 120.51 74.41 120.57 72.55 119.85 71.51 C 120.40 71.06 120.95 70.62 121.52 70.19 C 122.95 71.57 124.44 72.90 126.01 74.14 C 125.97 72.77 125.88 71.41 125.72 70.06 C 126.06 69.79 126.74 69.26 127.08 68.99 L 126.89 68.21 C 127.04 67.52 127.33 66.14 127.48 65.46 C 127.94 66.58 128.10 67.75 127.98 68.95 C 126.33 79.66 126.76 90.56 127.48 101.33 C 127.36 101.75 127.11 102.58 126.99 103.00 C 126.61 102.58 125.85 101.74 125.47 101.32 C 124.80 102.05 124.11 102.77 123.40 103.46 C 123.14 103.74 122.61 104.32 122.35 104.61 C 123.91 106.50 125.56 108.54 127.94 109.39 C 127.66 108.33 127.30 107.29 126.87 106.28 C 126.55 105.52 125.90 103.98 125.58 103.21 C 127.29 103.50 128.69 104.57 128.69 106.41 C 129.29 109.03 130.50 111.46 131.95 113.70 C 133.28 113.05 134.59 112.34 136.02 111.91 C 136.08 112.36 136.19 113.24 136.25 113.69 C 135.45 113.85 133.85 114.19 133.05 114.35 C 133.77 116.88 136.12 118.34 137.82 120.17 C 140.47 122.61 142.63 125.73 146.02 127.23 C 143.60 124.35 141.26 121.39 140.08 117.77 L 140.75 118.40 C 140.97 116.15 140.99 113.89 141.08 111.63 L 141.99 111.81 C 142.02 114.41 141.95 117.05 142.60 119.59 C 143.21 122.78 146.36 124.46 148.77 126.24 C 153.97 129.90 160.67 130.98 166.83 129.59 C 171.78 128.09 176.95 124.77 177.77 119.25 C 178.07 119.97 178.68 121.41 178.98 122.14 L 179.06 122.84 C 178.19 123.62 176.30 125.01 177.68 126.20 C 181.44 129.91 185.05 133.77 189.00 137.28 C 190.81 135.67 192.96 134.16 193.80 131.77 C 195.45 132.12 196.11 131.47 195.78 129.82 C 196.95 129.42 197.82 128.49 198.69 127.65 C 203.96 122.28 209.31 117.00 214.72 111.78 C 212.70 108.31 208.88 105.89 206.23 102.77 C 203.61 100.49 201.69 97.18 198.34 95.91 C 197.92 96.44 197.08 97.50 196.66 98.03 C 196.62 98.20 196.54 98.54 196.50 98.71 C 194.90 99.41 193.76 100.72 192.63 101.99 C 192.36 102.22 191.81 102.70 191.54 102.94 C 191.36 103.26 191.01 103.92 190.83 104.25 C 190.81 104.38 190.77 104.65 190.76 104.79 C 192.31 107.22 194.61 109.07 196.55 111.19 C 194.19 114.15 191.52 116.89 188.37 119.01 C 186.58 117.08 184.68 115.26 182.60 113.66 L 182.74 112.83 C 186.17 109.84 187.70 105.26 188.97 101.02 C 190.94 95.18 189.82 88.96 189.99 82.94 C 190.02 76.14 186.16 70.33 183.77 64.22 C 183.19 62.38 182.01 60.29 183.21 58.46 C 183.67 58.98 184.58 60.01 185.04 60.53 L 184.85 61.33 C 184.83 61.50 184.81 61.82 184.80 61.98 C 184.95 62.52 185.25 63.60 185.40 64.13 C 185.45 64.29 185.54 64.60 185.59 64.75 C 185.75 65.28 186.06 66.34 186.21 66.87 L 186.85 66.42 C 188.09 71.53 194.07 73.37 196.59 77.83 C 194.68 80.08 191.06 81.87 192.21 85.37 C 192.17 85.84 192.09 86.76 192.05 87.22 C 191.85 89.94 191.77 92.66 191.90 95.39 L 192.78 94.88 L 192.91 96.20 C 192.63 96.50 192.09 97.11 191.82 97.41 C 191.75 97.53 191.60 97.76 191.52 97.87 C 190.90 99.16 190.49 100.54 190.04 101.89 C 195.51 97.46 200.10 92.05 205.21 87.21 C 208.13 84.01 211.71 81.36 214.18 77.78 C 214.17 77.63 214.16 77.34 214.15 77.19 C 207.73 70.19 200.67 63.77 194.09 56.90 C 192.72 55.57 191.51 54.00 189.81 53.07 L 189.83 52.26 L 189.01 51.81 L 188.19 52.26 L 188.22 53.07 C 186.29 53.80 185.00 55.61 183.77 57.18 C 182.87 56.76 181.98 56.34 181.10 55.91 C 180.16 57.38 179.66 59.08 180.19 60.81 C 183.43 74.93 184.04 89.78 180.91 103.98 C 180.78 105.43 179.70 106.43 178.74 107.39 C 178.89 110.84 176.18 113.54 173.92 115.82 C 169.61 119.59 163.26 122.17 157.60 120.30 C 164.79 120.64 173.43 117.72 176.39 110.65 C 171.74 115.51 165.03 118.96 158.18 117.67 C 151.71 116.74 146.02 113.08 141.49 108.52 C 135.07 104.76 132.91 96.93 132.12 90.01 C 131.92 83.59 131.60 77.09 132.75 70.74 C 133.16 66.62 133.38 62.39 132.66 58.30 C 132.22 56.06 129.79 55.57 128.10 54.58 C 129.67 57.90 129.21 61.67 128.86 65.21 L 127.75 65.75 C 127.71 64.93 127.62 63.27 127.58 62.45 C 129.52 57.49 123.92 54.93 121.07 51.97 M 156.53 70.82 C 162.60 76.99 168.42 83.52 175.00 89.17 C 174.98 88.43 174.94 86.96 174.92 86.22 C 169.08 80.80 163.79 74.80 157.82 69.54 C 157.49 69.86 156.85 70.50 156.53 70.82 M 138.71 70.53 C 139.05 71.86 139.08 73.38 139.95 74.52 C 144.45 77.85 148.04 82.17 152.11 85.97 C 152.59 85.69 153.55 85.13 154.03 84.85 C 151.07 81.52 147.77 78.51 144.68 75.31 C 142.84 73.54 141.20 71.39 138.71 70.53 M 149.11 77.42 C 150.86 79.57 152.87 81.49 155.01 83.26 C 157.17 81.46 159.14 79.46 160.93 77.30 C 159.02 75.39 157.08 73.51 155.03 71.73 C 152.98 73.55 151.03 75.47 149.11 77.42 M 189.25 72.37 C 188.70 73.75 189.71 75.42 190.41 76.60 C 192.03 76.04 191.10 72.07 189.25 72.37 M 139.30 81.01 C 139.28 81.44 139.25 82.31 139.23 82.75 L 140.09 82.93 L 139.91 83.70 C 140.19 83.98 140.76 84.54 141.04 84.82 C 137.87 87.32 141.68 90.63 143.77 92.32 C 145.05 93.95 146.35 92.10 147.22 91.11 C 148.69 89.82 150.09 88.45 151.36 86.96 C 147.85 82.55 142.94 79.36 139.95 74.52 C 138.37 76.26 139.01 78.91 139.30 81.01 M 192.22 75.74 C 192.15 77.19 192.09 78.65 192.06 80.10 C 192.99 79.27 193.90 78.43 194.82 77.58 C 193.96 76.96 193.09 76.34 192.22 75.74 M 142.15 98.63 L 142.63 99.10 C 142.72 99.19 142.92 99.38 143.01 99.48 L 143.53 100.00 C 149.69 94.69 155.06 88.55 160.95 82.95 C 161.82 82.16 162.88 81.62 163.91 81.07 C 163.29 80.33 162.67 79.60 162.05 78.88 C 155.22 85.25 148.67 91.95 142.15 98.63 M 163.91 81.07 L 163.77 81.64 C 157.45 88.04 150.96 94.28 144.69 100.74 C 143.29 101.73 144.22 103.34 145.56 103.75 C 145.07 105.25 145.63 106.02 147.24 106.07 C 148.03 107.00 148.81 107.93 149.61 108.85 C 156.82 101.69 164.21 94.68 171.07 87.17 C 170.08 86.65 169.09 86.13 168.11 85.61 L 167.52 85.27 C 168.05 83.51 165.56 81.21 163.91 81.07 M 95.04 111.33 C 103.54 120.12 112.20 128.80 121.01 137.28 C 126.56 132.07 132.01 126.71 137.15 121.10 C 136.10 120.65 135.05 120.21 133.99 119.78 C 134.36 117.59 131.60 116.37 130.23 115.02 C 129.97 114.74 129.43 114.17 129.16 113.88 L 129.24 112.88 C 125.84 113.55 124.07 116.89 121.65 119.04 C 118.62 116.80 115.93 114.14 113.55 111.23 C 117.27 107.18 121.38 103.51 125.04 99.41 C 125.11 99.31 125.26 99.10 125.34 98.99 C 125.43 98.18 125.62 96.56 125.71 95.75 C 125.76 93.45 125.68 91.14 125.25 88.87 C 125.16 88.31 124.97 87.18 124.88 86.61 L 124.19 87.24 C 125.00 85.54 125.07 83.65 125.13 81.81 C 114.72 91.23 105.29 101.72 95.04 111.33 M 171.63 88.99 C 170.56 90.03 169.52 91.10 168.50 92.20 C 168.40 92.30 168.20 92.51 168.11 92.61 C 167.74 92.99 167.02 93.74 166.65 94.11 C 166.71 94.25 166.83 94.52 166.89 94.65 C 167.83 96.88 169.89 98.32 171.53 100.00 L 171.78 99.50 C 173.46 100.49 176.04 97.33 174.59 95.88 C 175.22 94.41 174.88 92.74 175.00 91.18 C 174.43 90.81 173.30 90.08 172.73 89.72 C 172.61 89.64 172.38 89.49 172.27 89.41 L 171.63 88.99 M 139.92 90.85 C 140.20 92.91 140.70 94.93 141.23 96.94 C 142.17 96.21 143.12 95.48 144.07 94.76 C 142.88 93.26 141.50 91.93 139.92 90.85 M 164.06 96.90 C 165.50 100.19 168.51 102.42 171.11 104.77 C 171.62 104.57 172.63 104.18 173.14 103.98 C 170.81 101.62 168.80 98.37 165.69 97.15 L 165.80 96.34 L 165.05 95.81 C 164.80 96.09 164.31 96.63 164.06 96.90 M 162.21 98.88 L 161.23 98.96 L 161.08 100.09 C 159.46 100.07 158.90 100.84 159.39 102.39 L 158.83 102.66 C 157.91 103.18 156.98 103.70 156.06 104.22 C 158.05 106.82 160.39 109.12 163.00 111.10 C 163.75 110.39 164.51 109.67 165.27 108.96 C 167.07 110.21 169.51 107.61 170.23 105.97 C 168.19 103.27 165.76 100.55 162.84 98.85 L 162.79 98.27 C 162.64 98.42 162.35 98.73 162.21 98.88 M 173.23 101.24 C 173.80 101.79 173.80 101.79 173.23 101.24 M 118.06 110.03 C 118.09 111.60 116.92 114.15 119.10 114.82 C 119.99 111.91 121.01 108.98 121.04 105.90 C 119.82 107.10 117.89 108.03 118.06 110.03 M 154.13 106.22 L 154.18 107.03 C 152.53 107.03 151.92 108.97 150.96 110.01 C 151.52 109.94 152.65 109.81 153.22 109.74 C 153.66 111.31 154.59 111.57 156.02 110.53 C 157.37 110.93 158.76 111.09 160.20 111.02 C 158.86 109.58 157.79 107.49 155.78 106.97 L 155.77 106.16 C 155.36 106.18 154.54 106.21 154.13 106.22 M 188.96 105.89 C 189.03 108.95 190.06 111.85 190.94 114.75 C 191.31 114.54 192.04 114.13 192.41 113.92 C 192.30 110.84 192.02 107.47 188.96 105.89 M 122.44 106.98 C 121.82 110.40 120.91 113.77 120.66 117.25 C 121.76 116.44 122.84 115.59 123.92 114.76 C 124.01 112.03 125.22 108.76 122.44 106.98 M 185.98 114.72 C 187.12 115.58 188.26 116.46 189.44 117.28 C 189.18 114.41 188.68 111.55 187.78 108.81 C 186.22 110.41 185.79 112.56 185.98 114.72 M 116.20 110.15 C 114.86 110.85 114.83 111.52 116.11 112.17 C 117.45 111.47 117.48 110.80 116.20 110.15 M 128.24 110.14 C 128.83 110.74 128.83 110.74 128.24 110.14 M 126.19 111.25 C 126.82 111.87 126.82 111.87 126.19 111.25 M 194.18 111.23 C 194.80 111.76 194.80 111.76 194.18 111.23 M 196.38 132.19 C 197.69 135.72 198.88 139.49 201.29 142.44 C 200.58 138.43 199.35 134.50 197.76 130.75 C 197.41 131.11 196.72 131.83 196.38 132.19 M 149.23 145.29 C 151.06 147.31 152.98 149.23 154.99 151.05 C 157.06 149.28 159.01 147.37 160.78 145.30 C 158.97 143.30 157.06 141.41 155.03 139.65 C 153.00 141.42 151.07 143.31 149.23 145.29 M 201.29 142.44 C 201.91 142.97 201.91 142.97 201.29 142.44 M 202.19 144.21 C 202.81 144.82 202.81 144.82 202.19 144.21 M 220.40 162.37 C 219.52 163.64 221.82 164.60 222.69 163.77 C 223.54 162.50 221.25 161.57 220.40 162.37 Z"
       id="path70" />
    <path
       fill="#353636"
       opacity="1.00"
       d=" M 157.24 39.24 C 157.35 39.34 157.56 39.54 157.67 39.64 C 157.56 39.54 157.35 39.34 157.24 39.24 Z"
       id="path72" />
    <path
       fill="#353636"
       opacity="1.00"
       d=" M 134.97 42.18 C 135.03 40.71 135.80 39.99 137.28 40.01 C 137.07 41.33 136.30 42.05 134.97 42.18 Z"
       id="path74" />
    <path
       fill="#353636"
       opacity="1.00"
       d=" M 134.06 44.86 C 132.54 44.43 132.45 43.80 133.79 42.97 C 133.86 43.45 133.99 44.39 134.06 44.86 Z"
       id="path76" />
    <path
       fill="#353636"
       opacity="1.00"
       d=" M 175.88 43.10 C 177.45 43.44 177.57 44.03 176.23 44.86 C 176.14 44.42 175.96 43.54 175.88 43.10 Z"
       id="path78" />
    <path
       fill="#353636"
       opacity="1.00"
       d=" M 120.09 56.98 C 120.72 55.49 121.34 55.50 121.92 57.01 C 121.46 57.00 120.54 56.98 120.09 56.98 Z"
       id="path80" />
    <path
       fill="#353636"
       opacity="1.00"
       d=" M 188.06 56.97 C 188.70 55.48 189.31 55.49 189.91 56.99 C 189.45 56.98 188.53 56.97 188.06 56.97 Z"
       id="path82" />
    <path
       fill="#353636"
       opacity="1.00"
       d=" M 163.98 61.56 C 164.48 60.96 164.99 60.37 165.50 59.77 C 167.63 61.92 169.38 64.50 171.93 66.19 C 173.51 65.84 173.77 63.78 174.69 62.65 C 175.27 65.46 175.28 68.34 175.45 71.20 C 171.24 68.45 168.27 64.22 163.98 61.56 Z"
       id="path84" />
    <path
       fill="#353636"
       opacity="1.00"
       d=" M 119.92 66.84 C 120.36 64.79 122.58 64.96 123.09 66.86 C 122.30 66.86 120.72 66.84 119.92 66.84 Z"
       id="path86" />
    <path
       fill="#353636"
       opacity="1.00"
       d=" M 116.71 74.28 C 117.72 73.32 118.77 72.40 119.85 71.51 C 118.73 75.44 119.17 79.50 119.85 83.45 C 117.53 81.85 115.45 79.95 113.51 77.92 C 113.93 77.39 114.78 76.33 115.21 75.80 C 115.92 77.41 116.76 78.97 118.01 80.23 C 117.95 78.18 117.55 76.16 116.71 74.28 Z"
       id="path88" />
    <path
       fill="#353636"
       opacity="1.00"
       d=" M 147.77 115.75 C 151.04 117.15 154.49 118.23 157.52 120.11 C 153.90 120.02 150.37 118.22 147.77 115.75 Z"
       id="path90" />
    <path
       fill="#353636"
       opacity="1.00"
       d=" M 178.10 116.03 C 178.34 116.39 178.82 117.10 179.06 117.46 L 178.45 118.10 C 178.36 117.59 178.19 116.55 178.10 116.03 Z"
       id="path92" />
    <path
       fill="#353636"
       opacity="1.00"
       d=" M 137.70 134.70 C 139.84 132.75 141.53 130.05 144.40 129.11 C 139.46 134.56 134.51 140.15 128.60 144.56 C 130.93 140.68 134.68 138.00 137.70 134.70 Z"
       id="path94" />
    <path
       fill="#353636"
       opacity="1.00"
       d=" M 120.10 132.02 C 120.56 132.02 121.48 132.02 121.94 132.02 C 121.33 133.51 120.71 133.51 120.10 132.02 Z"
       id="path96" />
    <path
       fill="#353636"
       opacity="1.00"
       d=" M 188.06 132.00 C 188.52 132.00 189.43 132.00 189.89 132.00 C 189.28 133.50 188.67 133.50 188.06 132.00 Z"
       id="path98" />
    <path
       fill="#353636"
       opacity="1.00"
       d=" M 104.85 140.34 C 105.47 139.95 106.70 139.16 107.32 138.76 C 102.34 148.23 90.62 151.67 85.63 161.18 C 87.38 161.17 89.13 161.15 90.88 161.17 C 90.95 161.89 91.08 163.31 91.15 164.03 C 88.78 165.01 86.26 165.49 83.77 166.05 C 83.97 168.29 84.28 170.52 84.61 172.75 C 82.08 174.82 79.32 176.70 77.23 179.25 C 75.00 182.01 74.75 185.70 74.06 189.04 C 79.16 186.57 84.63 185.12 90.13 183.86 C 89.31 186.16 86.55 186.01 84.62 186.74 C 80.35 187.69 76.75 190.25 73.02 192.38 C 72.68 187.73 73.12 182.75 75.78 178.79 C 77.76 176.29 80.58 174.68 83.05 172.74 C 82.75 170.89 82.32 169.06 82.16 167.20 C 82.71 165.77 84.20 165.03 85.26 164.03 C 84.91 163.48 84.20 162.39 83.85 161.84 C 87.11 154.28 94.63 150.25 100.43 144.91 C 100.52 144.82 100.72 144.63 100.82 144.54 C 102.07 143.31 103.25 142.01 104.46 140.74 C 104.55 140.64 104.75 140.44 104.85 140.34 M 87.28 162.43 C 86.04 163.96 88.85 164.77 89.63 163.56 C 90.74 162.08 88.03 161.18 87.28 162.43 Z"
       id="path100" />
    <path
       fill="#353636"
       opacity="1.00"
       d=" M 100.12 164.94 C 101.40 163.77 102.72 161.83 104.72 162.30 C 106.82 162.92 108.60 164.25 110.37 165.49 C 108.96 165.39 107.55 165.26 106.15 165.13 C 105.47 165.83 104.80 166.53 104.12 167.24 C 104.06 169.12 104.01 171.00 103.99 172.89 C 102.55 174.50 100.66 175.44 98.47 175.43 L 97.74 174.68 C 99.40 174.01 101.12 173.44 102.64 172.48 C 103.90 169.94 101.18 167.83 100.28 165.67 C 100.95 165.94 102.30 166.48 102.97 166.75 C 103.70 165.77 104.44 164.80 105.18 163.82 C 103.49 164.18 101.81 164.59 100.12 164.94 Z"
       id="path102" />
    <path
       fill="#353636"
       opacity="1.00"
       d=" M 205.28 162.30 C 207.28 161.84 208.58 163.78 209.87 164.94 C 208.17 164.60 206.49 164.18 204.80 163.82 C 205.53 164.79 206.28 165.76 207.03 166.74 C 207.69 166.48 209.00 165.96 209.66 165.70 C 208.73 167.85 206.13 169.94 207.33 172.49 C 208.86 173.43 210.57 174.01 212.23 174.67 L 211.51 175.43 C 209.33 175.43 207.45 174.51 206.02 172.91 C 206.00 170.12 206.42 166.97 203.93 165.08 C 202.48 165.25 201.04 165.41 199.60 165.53 C 201.37 164.27 203.16 162.91 205.28 162.30 Z"
       id="path104" />
    <path
       fill="#353636"
       opacity="1.00"
       d=" M 154.09 165.99 C 154.55 165.99 155.47 166.00 155.93 166.01 C 155.30 167.50 154.68 167.49 154.09 165.99 Z"
       id="path106" />
    <path
       fill="#353636"
       opacity="1.00"
       d=" M 94.15 175.05 C 95.13 174.61 96.04 174.77 96.87 175.52 C 96.39 175.74 95.44 176.16 94.97 176.38 C 94.77 176.04 94.36 175.38 94.15 175.05 Z"
       id="path108" />
    <path
       fill="#353636"
       opacity="1.00"
       d=" M 213.13 175.52 C 213.96 174.77 214.86 174.61 215.85 175.06 C 215.65 175.39 215.23 176.05 215.03 176.38 C 214.55 176.16 213.61 175.74 213.13 175.52 Z"
       id="path110" />
    <path
       fill="#353636"
       opacity="1.00"
       d=" M 91.93 175.97 C 92.31 176.06 93.07 176.24 93.45 176.33 C 92.05 178.59 91.71 181.25 91.33 183.83 L 90.46 183.78 C 90.75 181.15 89.98 178.13 91.93 175.97 Z"
       id="path112" />
  </g>
  <g
     id="#ce001aff">
    <path
       fill="#ce001a"
       opacity="1.00"
       d=" M 141.50 31.48 C 146.00 27.09 150.21 22.39 155.00 18.29 C 158.71 21.34 161.97 24.87 165.32 28.30 C 165.41 28.39 165.61 28.59 165.70 28.68 C 168.95 31.86 172.16 35.07 175.37 38.28 C 175.46 38.36 175.63 38.51 175.71 38.59 C 177.30 40.34 180.08 41.58 180.69 43.91 C 176.06 49.59 170.11 54.06 165.50 59.77 C 164.99 60.37 164.48 60.96 163.98 61.56 C 168.27 64.22 171.24 68.45 175.45 71.20 L 175.50 71.92 C 174.95 73.08 174.40 74.23 173.83 75.38 C 170.82 71.68 166.80 68.87 164.19 64.84 C 163.85 64.23 163.18 63.02 162.85 62.41 C 157.65 66.71 153.60 72.27 148.11 76.23 C 147.76 75.94 147.06 75.35 146.71 75.05 C 156.11 64.58 166.66 55.18 176.23 44.86 C 177.57 44.03 177.45 43.44 175.88 43.10 C 169.15 36.47 162.39 29.86 155.90 23.01 C 155.33 21.49 154.72 21.47 154.06 22.95 C 153.12 24.02 152.17 25.09 151.20 26.14 C 146.43 29.33 142.37 33.52 139.14 38.25 C 138.52 38.84 137.90 39.42 137.28 40.01 C 135.80 39.99 135.03 40.71 134.97 42.18 C 134.68 42.38 134.09 42.78 133.79 42.97 C 132.45 43.80 132.54 44.43 134.06 44.86 C 135.40 46.14 136.73 47.43 138.05 48.73 C 140.32 52.17 143.36 54.97 146.52 57.57 C 145.57 58.13 144.61 58.69 143.65 59.25 C 139.40 53.68 133.73 49.42 129.30 44.00 C 133.05 39.53 137.43 35.65 141.50 31.48 Z"
       id="path115" />
    <path
       fill="#ce001a"
       opacity="1.00"
       d=" M 154.39 32.42 C 154.70 32.42 155.31 32.44 155.62 32.44 C 158.33 34.61 160.53 37.33 162.94 39.82 C 163.16 41.24 163.99 41.89 165.44 41.75 C 165.95 42.54 166.47 43.33 166.99 44.12 C 166.58 44.66 165.76 45.74 165.36 46.28 C 165.24 46.41 165.01 46.69 164.90 46.82 C 164.60 47.15 163.99 47.81 163.69 48.14 C 163.59 48.24 163.39 48.44 163.29 48.53 C 158.37 52.74 153.82 57.37 149.56 62.25 C 149.48 62.33 149.31 62.51 149.23 62.60 C 148.36 63.48 147.49 64.35 146.62 65.22 C 146.53 65.31 146.34 65.48 146.25 65.57 C 144.68 66.92 143.09 68.24 141.51 69.59 C 140.69 68.93 139.86 68.28 139.02 67.66 C 146.74 59.55 155.00 51.98 162.63 43.80 C 161.44 42.63 160.13 41.57 158.78 40.59 C 158.50 40.35 157.95 39.88 157.67 39.64 C 157.56 39.54 157.35 39.34 157.24 39.24 C 156.92 38.91 156.28 38.26 155.95 37.93 L 155.87 37.00 C 155.71 36.66 155.38 35.98 155.22 35.64 C 154.95 35.96 154.42 36.60 154.15 36.93 C 151.97 39.30 149.74 41.61 147.55 43.97 C 149.66 46.24 151.80 48.47 153.96 50.69 C 153.12 51.33 152.29 51.98 151.48 52.65 C 148.44 49.92 145.53 47.06 142.83 44.00 C 146.53 40.00 150.33 36.05 154.39 32.42 Z"
       id="path117" />
    <path
       fill="#ce001a"
       opacity="1.00"
       d=" M 121.07 51.97 C 123.92 54.93 129.52 57.49 127.58 62.45 L 126.78 62.06 C 124.99 60.55 123.44 58.78 121.92 57.01 C 121.34 55.50 120.72 55.49 120.09 56.98 C 113.61 63.99 106.65 70.56 99.93 77.35 C 104.05 82.23 108.94 86.38 113.28 91.06 C 112.87 91.57 112.05 92.59 111.64 93.10 C 109.17 92.20 107.62 89.97 105.79 88.21 C 102.40 84.64 98.72 81.37 95.36 77.78 L 95.33 77.22 C 103.83 68.73 112.46 60.36 121.07 51.97 Z"
       id="path119" />
    <path
       fill="#ce001a"
       opacity="1.00"
       d=" M 183.77 57.18 C 185.00 55.61 186.29 53.80 188.22 53.07 C 188.61 53.07 189.41 53.07 189.81 53.07 C 191.51 54.00 192.72 55.57 194.09 56.90 C 200.67 63.77 207.73 70.19 214.15 77.19 L 214.18 77.78 C 211.71 81.36 208.13 84.01 205.21 87.21 C 200.10 92.05 195.51 97.46 190.04 101.89 C 190.49 100.54 190.90 99.16 191.52 97.87 C 191.60 97.76 191.75 97.53 191.82 97.41 C 192.09 97.11 192.63 96.50 192.91 96.20 C 198.72 90.90 204.19 85.22 209.75 79.66 C 211.34 78.55 210.71 76.66 209.14 75.97 C 202.27 70.15 196.13 63.49 189.91 56.99 C 189.31 55.49 188.70 55.48 188.06 56.97 C 187.06 58.16 186.03 59.32 185.04 60.53 C 184.58 60.01 183.67 58.98 183.21 58.46 C 183.35 58.14 183.63 57.50 183.77 57.18 Z"
       id="path121" />
    <path
       fill="#ce001a"
       opacity="1.00"
       d=" M 108.90 77.69 C 112.61 74.11 116.29 70.49 119.92 66.84 C 120.72 66.84 122.30 66.86 123.09 66.86 C 123.65 67.56 124.22 68.25 124.79 68.94 C 125.02 69.22 125.49 69.78 125.72 70.06 C 125.88 71.41 125.97 72.77 126.01 74.14 C 124.44 72.90 122.95 71.57 121.52 70.19 C 120.95 70.62 120.40 71.06 119.85 71.51 C 118.77 72.40 117.72 73.32 116.71 74.28 C 116.33 74.66 115.58 75.42 115.21 75.80 C 114.78 76.33 113.93 77.39 113.51 77.92 C 115.45 79.95 117.53 81.85 119.85 83.45 C 119.53 84.36 119.21 85.26 118.89 86.15 L 118.32 85.65 C 115.21 82.96 112.74 79.45 108.90 77.69 Z"
       id="path123" />
    <path
       fill="#ce001a"
       opacity="1.00"
       d=" M 186.85 66.42 C 192.97 67.99 195.43 74.73 201.03 77.29 L 201.12 77.74 C 197.49 79.40 194.80 82.44 192.21 85.37 C 191.06 81.87 194.68 80.08 196.59 77.83 C 194.07 73.37 188.09 71.53 186.85 66.42 Z"
       id="path125" />
    <path
       fill="#ce001a"
       opacity="1.00"
       d=" M 156.53 70.82 C 156.85 70.50 157.49 69.86 157.82 69.54 C 163.79 74.80 169.08 80.80 174.92 86.22 C 174.94 86.96 174.98 88.43 175.00 89.17 C 168.42 83.52 162.60 76.99 156.53 70.82 Z"
       id="path127" />
    <path
       fill="#ce001a"
       opacity="1.00"
       d=" M 138.71 70.53 C 141.20 71.39 142.84 73.54 144.68 75.31 C 147.77 78.51 151.07 81.52 154.03 84.85 C 153.55 85.13 152.59 85.69 152.11 85.97 C 148.04 82.17 144.45 77.85 139.95 74.52 C 139.08 73.38 139.05 71.86 138.71 70.53 Z"
       id="path129" />
    <path
       fill="#ce001a"
       opacity="1.00"
       d=" M 142.15 98.63 C 148.67 91.95 155.22 85.25 162.05 78.88 C 162.67 79.60 163.29 80.33 163.91 81.07 C 162.88 81.62 161.82 82.16 160.95 82.95 C 155.06 88.55 149.69 94.69 143.53 100.00 L 143.01 99.48 C 142.92 99.38 142.72 99.19 142.63 99.10 L 142.15 98.63 Z"
       id="path131" />
    <path
       fill="#ce001a"
       opacity="1.00"
       d=" M 95.04 111.33 C 105.29 101.72 114.72 91.23 125.13 81.81 C 125.07 83.65 125.00 85.54 124.19 87.24 C 116.04 95.32 107.74 103.28 99.91 111.67 C 103.30 114.99 106.57 118.43 110.24 121.44 C 110.33 121.53 110.51 121.70 110.61 121.78 C 111.48 122.64 112.35 123.51 113.22 124.39 C 113.31 124.48 113.48 124.67 113.56 124.76 C 115.69 127.23 117.94 129.58 120.10 132.02 C 120.71 133.51 121.33 133.51 121.94 132.02 C 125.76 127.75 130.03 123.92 133.99 119.78 C 135.05 120.21 136.10 120.65 137.15 121.10 C 132.01 126.71 126.56 132.07 121.01 137.28 C 112.20 128.80 103.54 120.12 95.04 111.33 Z"
       id="path133" />
    <path
       fill="#ce001a"
       opacity="1.00"
       d=" M 143.77 92.32 C 141.68 90.63 137.87 87.32 141.04 84.82 C 143.12 86.89 145.17 89.00 147.22 91.11 C 146.35 92.10 145.05 93.95 143.77 92.32 Z"
       id="path135" />
    <path
       fill="#ce001a"
       opacity="1.00"
       d=" M 147.24 106.07 C 154.65 99.74 161.17 92.44 168.11 85.61 C 169.09 86.13 170.08 86.65 171.07 87.17 C 164.21 94.68 156.82 101.69 149.61 108.85 C 148.81 107.93 148.03 107.00 147.24 106.07 Z"
       id="path137" />
    <path
       fill="#ce001a"
       opacity="1.00"
       d=" M 109.82 111.37 C 115.23 106.28 120.24 100.77 125.71 95.75 C 125.62 96.56 125.43 98.18 125.34 98.99 C 125.26 99.10 125.11 99.31 125.04 99.41 C 121.38 103.51 117.27 107.18 113.55 111.23 C 115.93 114.14 118.62 116.80 121.65 119.04 C 124.07 116.89 125.84 113.55 129.24 112.88 L 129.16 113.88 C 127.03 117.16 124.11 119.83 121.09 122.28 C 117.00 119.01 113.12 115.45 109.82 111.37 Z"
       id="path139" />
    <path
       fill="#ce001a"
       opacity="1.00"
       d=" M 198.34 95.91 C 201.69 97.18 203.61 100.49 206.23 102.77 C 208.88 105.89 212.70 108.31 214.72 111.78 C 209.31 117.00 203.96 122.28 198.69 127.65 C 197.82 128.49 196.95 129.42 195.78 129.82 C 194.73 130.08 194.07 130.73 193.80 131.77 C 192.96 134.16 190.81 135.67 189.00 137.28 C 185.05 133.77 181.44 129.91 177.68 126.20 C 176.30 125.01 178.19 123.62 179.06 122.84 C 182.13 125.82 185.23 128.79 188.06 132.00 C 188.67 133.50 189.28 133.50 189.89 132.00 C 196.37 124.98 203.32 118.42 210.09 111.67 C 206.03 106.97 201.36 102.85 197.03 98.41 L 196.66 98.03 C 197.08 97.50 197.92 96.44 198.34 95.91 Z"
       id="path141" />
    <path
       fill="#ce001a"
       opacity="1.00"
       d=" M 164.06 96.90 C 164.47 96.96 165.28 97.09 165.69 97.15 C 168.80 98.37 170.81 101.62 173.14 103.98 C 172.63 104.18 171.62 104.57 171.11 104.77 C 168.51 102.42 165.50 100.19 164.06 96.90 Z"
       id="path143" />
    <path
       fill="#ce001a"
       opacity="1.00"
       d=" M 156.06 104.22 C 156.98 103.70 157.91 103.18 158.83 102.66 C 160.97 104.77 163.04 106.94 165.27 108.96 C 164.51 109.67 163.75 110.39 163.00 111.10 C 160.39 109.12 158.05 106.82 156.06 104.22 Z"
       id="path145" />
    <path
       fill="#ce001a"
       opacity="1.00"
       d=" M 190.83 104.25 C 191.01 103.92 191.36 103.26 191.54 102.94 C 194.40 105.76 197.23 108.61 200.13 111.39 C 196.79 115.42 192.99 119.04 189.07 122.50 C 186.64 120.46 184.34 118.26 182.17 115.95 C 182.28 115.38 182.49 114.23 182.60 113.66 C 184.68 115.26 186.58 117.08 188.37 119.01 C 191.52 116.89 194.19 114.15 196.55 111.19 C 194.61 109.07 192.31 107.22 190.76 104.79 L 190.83 104.25 Z"
       id="path147" />
    <path
       fill="#ce001a"
       opacity="1.00"
       d=" M 122.35 104.61 C 122.61 104.32 123.14 103.74 123.40 103.46 C 124.64 104.29 125.79 105.24 126.87 106.28 C 127.30 107.29 127.66 108.33 127.94 109.39 C 125.56 108.54 123.91 106.50 122.35 104.61 Z"
       id="path149" />
    <path
       fill="#ce001a"
       opacity="1.00"
       d=" M 133.05 114.35 C 133.85 114.19 135.45 113.85 136.25 113.69 C 137.43 115.14 138.77 116.44 140.08 117.77 C 141.26 121.39 143.60 124.35 146.02 127.23 C 142.63 125.73 140.47 122.61 137.82 120.17 C 136.12 118.34 133.77 116.88 133.05 114.35 Z"
       id="path151" />
    <path
       fill="#ce001a"
       opacity="1.00"
       d=" M 147.03 127.12 C 147.57 127.41 148.65 128.00 149.19 128.29 C 143.78 133.80 138.10 139.07 132.93 144.81 C 133.18 145.05 133.68 145.55 133.93 145.79 C 140.79 152.38 147.57 159.06 154.09 165.99 C 154.68 167.49 155.30 167.50 155.93 166.01 C 162.46 159.09 169.20 152.36 176.07 145.78 C 176.34 145.54 176.88 145.05 177.15 144.80 C 172.75 140.33 168.51 135.68 163.72 131.63 C 165.07 131.28 166.73 130.85 167.73 132.19 C 172.20 136.48 176.46 141.00 180.93 145.30 C 172.47 154.12 163.79 162.75 154.99 171.24 C 150.36 167.13 146.20 162.54 141.77 158.23 C 137.36 153.68 132.59 149.49 128.60 144.56 C 134.51 140.15 139.46 134.56 144.40 129.11 C 145.26 128.42 146.14 127.77 147.03 127.12 Z"
       id="path153" />
    <path
       fill="#ce001a"
       opacity="1.00"
       d=" M 157.73 131.49 C 158.08 131.50 158.80 131.53 159.15 131.55 C 159.23 131.63 159.38 131.80 159.45 131.89 C 156.63 137.16 151.02 140.33 147.42 145.10 C 149.52 148.02 152.11 150.53 155.02 152.64 C 157.88 150.50 160.45 147.98 162.57 145.10 C 160.37 142.74 158.16 140.41 155.94 138.08 C 156.43 137.83 157.40 137.34 157.89 137.09 C 160.92 139.83 163.81 142.73 166.28 146.00 C 162.64 149.85 158.87 153.58 155.00 157.20 C 150.96 153.62 147.38 149.58 143.38 145.97 C 148.03 141.02 152.79 136.15 157.73 131.49 Z"
       id="path155" />
  </g>
  <g
     id="#fff800ff">
    <path
       fill="#fff800"
       opacity="1.00"
       d=" M 154.06 22.95 C 154.52 22.96 155.44 22.99 155.90 23.01 C 162.39 29.86 169.15 36.47 175.88 43.10 C 175.96 43.54 176.14 44.42 176.23 44.86 C 173.84 45.71 171.87 47.33 170.18 49.18 C 162.12 57.60 153.55 65.52 145.63 74.07 C 144.18 72.65 142.88 71.09 141.51 69.59 C 143.09 68.24 144.68 66.92 146.25 65.57 C 146.34 65.48 146.53 65.31 146.62 65.22 C 147.49 64.35 148.36 63.48 149.23 62.60 C 149.31 62.51 149.48 62.33 149.56 62.25 C 153.82 57.37 158.37 52.74 163.29 48.53 C 163.39 48.44 163.59 48.24 163.69 48.14 C 163.99 47.81 164.60 47.15 164.90 46.82 C 165.01 46.69 165.24 46.41 165.36 46.28 C 165.76 45.74 166.58 44.66 166.99 44.12 C 166.47 43.33 165.95 42.54 165.44 41.75 C 165.13 40.42 164.30 39.77 162.94 39.82 C 160.53 37.33 158.33 34.61 155.62 32.44 C 155.31 32.44 154.70 32.42 154.39 32.42 C 150.33 36.05 146.53 40.00 142.83 44.00 C 145.53 47.06 148.44 49.92 151.48 52.65 C 150.11 54.19 148.80 55.80 147.24 57.15 C 144.57 53.93 141.44 51.16 138.05 48.73 C 136.73 47.43 135.40 46.14 134.06 44.86 C 133.99 44.39 133.86 43.45 133.79 42.97 C 134.09 42.78 134.68 42.38 134.97 42.18 C 136.30 42.05 137.07 41.33 137.28 40.01 C 137.90 39.42 138.52 38.84 139.14 38.25 C 143.74 34.84 147.73 30.68 151.20 26.14 C 152.17 25.09 153.12 24.02 154.06 22.95 Z"
       id="path158" />
    <path
       fill="#fff800"
       opacity="1.00"
       d=" M 120.09 56.98 C 120.54 56.98 121.46 57.00 121.92 57.01 C 123.44 58.78 124.99 60.55 126.78 62.06 C 127.00 63.20 127.23 64.33 127.48 65.46 C 127.33 66.14 127.04 67.52 126.89 68.21 C 126.36 68.40 125.32 68.76 124.79 68.94 C 124.22 68.25 123.65 67.56 123.09 66.86 C 122.58 64.96 120.36 64.79 119.92 66.84 C 116.29 70.49 112.61 74.11 108.90 77.69 C 111.18 81.27 114.46 84.00 117.38 87.01 C 116.10 88.45 114.74 89.81 113.28 91.06 C 108.94 86.38 104.05 82.23 99.93 77.35 C 106.65 70.56 113.61 63.99 120.09 56.98 Z"
       id="path160" />
    <path
       fill="#fff800"
       opacity="1.00"
       d=" M 188.06 56.97 C 188.53 56.97 189.45 56.98 189.91 56.99 C 196.13 63.49 202.27 70.15 209.14 75.97 C 209.25 76.44 209.46 77.38 209.56 77.85 C 204.00 83.56 198.10 88.94 192.78 94.88 L 191.90 95.39 C 191.77 92.66 191.85 89.94 192.05 87.22 C 195.34 84.33 198.66 81.39 201.12 77.74 L 201.34 77.57 C 201.26 77.50 201.10 77.36 201.03 77.29 C 197.67 72.58 193.33 68.69 189.09 64.81 C 188.34 65.34 187.59 65.88 186.85 66.42 L 186.21 66.87 C 186.06 66.34 185.75 65.28 185.59 64.75 C 185.54 64.60 185.45 64.29 185.40 64.13 C 185.25 63.60 184.95 62.52 184.80 61.98 L 184.85 61.33 L 185.04 60.53 C 186.03 59.32 187.06 58.16 188.06 56.97 Z"
       id="path162" />
    <path
       fill="#fff800"
       opacity="1.00"
       d=" M 162.18 64.20 C 162.68 64.36 163.69 64.68 164.19 64.84 C 166.80 68.87 170.82 71.68 173.83 75.38 L 174.20 75.93 C 173.52 77.23 173.17 79.49 174.98 80.04 C 174.92 81.49 174.87 82.93 174.83 84.38 C 169.15 79.26 163.70 73.85 158.59 68.17 C 159.78 66.85 160.99 65.53 162.18 64.20 Z"
       id="path164" />
    <path
       fill="#fff800"
       opacity="1.00"
       d=" M 139.30 81.01 C 139.01 78.91 138.37 76.26 139.95 74.52 C 142.94 79.36 147.85 82.55 151.36 86.96 C 150.09 88.45 148.69 89.82 147.22 91.11 C 145.17 89.00 143.12 86.89 141.04 84.82 C 140.76 84.54 140.19 83.98 139.91 83.70 L 140.09 82.93 C 139.89 82.45 139.49 81.49 139.30 81.01 Z"
       id="path166" />
    <path
       fill="#fff800"
       opacity="1.00"
       d=" M 144.69 100.74 C 150.96 94.28 157.45 88.04 163.77 81.64 C 164.51 83.29 165.93 84.47 167.52 85.27 L 168.11 85.61 C 161.17 92.44 154.65 99.74 147.24 106.07 C 147.27 104.93 146.71 104.16 145.56 103.75 C 144.22 103.34 143.29 101.73 144.69 100.74 Z"
       id="path168" />
    <path
       fill="#fff800"
       opacity="1.00"
       d=" M 124.19 87.24 L 124.88 86.61 C 124.97 87.18 125.16 88.31 125.25 88.87 C 124.99 91.15 125.54 93.94 123.73 95.71 C 118.87 100.84 113.55 105.53 108.76 110.73 C 107.71 111.60 109.17 112.59 109.66 113.26 C 113.42 116.97 117.07 120.80 121.02 124.30 C 124.34 121.47 127.45 118.39 130.23 115.02 C 131.60 116.37 134.36 117.59 133.99 119.78 C 130.03 123.92 125.76 127.75 121.94 132.02 C 121.48 132.02 120.56 132.02 120.10 132.02 C 117.94 129.58 115.69 127.23 113.56 124.76 C 113.48 124.67 113.31 124.48 113.22 124.39 C 112.35 123.51 111.48 122.64 110.61 121.78 C 110.51 121.70 110.33 121.53 110.24 121.44 C 106.57 118.43 103.30 114.99 99.91 111.67 C 107.74 103.28 116.04 95.32 124.19 87.24 Z"
       id="path170" />
    <path
       fill="#fff800"
       opacity="1.00"
       d=" M 161.23 98.96 L 162.21 98.88 L 162.84 98.85 C 165.76 100.55 168.19 103.27 170.23 105.97 C 169.51 107.61 167.07 110.21 165.27 108.96 C 163.04 106.94 160.97 104.77 158.83 102.66 L 159.39 102.39 C 160.48 102.01 161.05 101.24 161.08 100.09 L 161.23 98.96 Z"
       id="path172" />
    <path
       fill="#fff800"
       opacity="1.00"
       d=" M 192.63 101.99 C 193.76 100.72 194.90 99.41 196.50 98.71 L 197.03 98.41 C 201.36 102.85 206.03 106.97 210.09 111.67 C 203.32 118.42 196.37 124.98 189.89 132.00 C 189.43 132.00 188.52 132.00 188.06 132.00 C 185.23 128.79 182.13 125.82 179.06 122.84 L 178.98 122.14 C 178.85 120.79 178.67 119.44 178.45 118.10 L 179.06 117.46 C 179.40 117.10 180.06 116.39 180.39 116.03 C 183.23 118.82 185.98 121.71 188.98 124.34 C 193.32 120.30 197.65 116.20 201.61 111.78 C 199.70 107.94 195.40 105.39 192.63 101.99 Z"
       id="path174" />
    <path
       fill="#fff800"
       opacity="1.00"
       d=" M 136.02 111.91 C 137.67 111.46 139.40 111.16 141.08 111.63 C 140.99 113.89 140.97 116.15 140.75 118.40 L 140.08 117.77 C 138.77 116.44 137.43 115.14 136.25 113.69 C 136.19 113.24 136.08 112.36 136.02 111.91 Z"
       id="path176" />
    <path
       fill="#fff800"
       opacity="1.00"
       d=" M 150.85 129.13 L 151.29 129.35 C 151.40 129.40 151.62 129.50 151.73 129.56 C 153.21 130.23 154.71 130.88 156.19 131.56 C 151.64 136.00 146.94 140.31 142.76 145.10 L 142.62 145.26 C 142.69 145.32 142.82 145.44 142.89 145.50 L 143.38 145.97 C 147.38 149.58 150.96 153.62 155.00 157.20 C 158.87 153.58 162.64 149.85 166.28 146.00 C 166.50 145.73 166.94 145.19 167.16 144.92 C 164.42 141.83 161.33 139.08 158.58 136.00 C 159.95 134.57 161.34 133.14 162.84 131.84 C 166.77 136.93 171.79 141.01 176.07 145.78 C 169.20 152.36 162.46 159.09 155.93 166.01 C 155.47 166.00 154.55 165.99 154.09 165.99 C 147.57 159.06 140.79 152.38 133.93 145.79 C 139.48 140.15 144.86 134.30 150.85 129.13 Z"
       id="path178" />
  </g>
  <g
     id="#ffffffff">
    <path
       fill="#ffffff"
       opacity="1.00"
       d=" M 164.90 46.82 C 165.01 46.69 165.24 46.41 165.36 46.28 C 165.24 46.41 165.01 46.69 164.90 46.82 Z"
       id="path181" />
    <path
       fill="#ffffff"
       opacity="1.00"
       d=" M 163.29 48.53 C 163.39 48.44 163.59 48.24 163.69 48.14 C 163.59 48.24 163.39 48.44 163.29 48.53 Z"
       id="path183" />
    <path
       fill="#ffffff"
       opacity="1.00"
       d=" M 128.10 54.58 C 129.79 55.57 132.22 56.06 132.66 58.30 C 133.38 62.39 133.16 66.62 132.75 70.74 C 131.60 77.09 131.92 83.59 132.12 90.01 C 132.91 96.93 135.07 104.76 141.49 108.52 C 146.02 113.08 151.71 116.74 158.18 117.67 C 165.03 118.96 171.74 115.51 176.39 110.65 C 173.43 117.72 164.79 120.64 157.60 120.30 C 163.26 122.17 169.61 119.59 173.92 115.82 C 176.18 113.54 178.89 110.84 178.74 107.39 C 179.70 106.43 180.78 105.43 180.91 103.98 C 184.04 89.78 183.43 74.93 180.19 60.81 C 179.66 59.08 180.16 57.38 181.10 55.91 C 181.98 56.34 182.87 56.76 183.77 57.18 C 183.63 57.50 183.35 58.14 183.21 58.46 C 182.01 60.29 183.19 62.38 183.77 64.22 C 186.16 70.33 190.02 76.14 189.99 82.94 C 189.82 88.96 190.94 95.18 188.97 101.02 C 187.70 105.26 186.17 109.84 182.74 112.83 C 181.11 113.77 179.20 114.40 178.10 116.03 C 178.19 116.55 178.36 117.59 178.45 118.10 C 178.67 119.44 178.85 120.79 178.98 122.14 C 178.68 121.41 178.07 119.97 177.77 119.25 C 176.95 124.77 171.78 128.09 166.83 129.59 C 160.67 130.98 153.97 129.90 148.77 126.24 C 146.36 124.46 143.21 122.78 142.60 119.59 C 141.95 117.05 142.02 114.41 141.99 111.81 L 141.08 111.63 C 139.40 111.16 137.67 111.46 136.02 111.91 C 134.59 112.34 133.28 113.05 131.95 113.70 C 130.50 111.46 129.29 109.03 128.69 106.41 C 128.69 104.57 127.29 103.50 125.58 103.21 C 125.90 103.98 126.55 105.52 126.87 106.28 C 125.79 105.24 124.64 104.29 123.40 103.46 C 124.11 102.77 124.80 102.05 125.47 101.32 C 125.85 101.74 126.61 102.58 126.99 103.00 C 127.11 102.58 127.36 101.75 127.48 101.33 C 126.76 90.56 126.33 79.66 127.98 68.95 C 128.10 67.75 127.94 66.58 127.48 65.46 C 127.23 64.33 127.00 63.20 126.78 62.06 L 127.58 62.45 C 127.62 63.27 127.71 64.93 127.75 65.75 L 128.86 65.21 C 129.21 61.67 129.67 57.90 128.10 54.58 M 147.77 115.75 C 150.37 118.22 153.90 120.02 157.52 120.11 C 154.49 118.23 151.04 117.15 147.77 115.75 Z"
       id="path185" />
    <path
       fill="#ffffff"
       opacity="1.00"
       d=" M 139.40 56.24 C 139.49 56.33 139.68 56.51 139.77 56.60 C 139.68 56.51 139.49 56.33 139.40 56.24 Z"
       id="path187" />
    <path
       fill="#ffffff"
       opacity="1.00"
       d=" M 178.27 56.64 C 178.39 56.57 178.62 56.43 178.73 56.36 C 178.62 56.43 178.39 56.57 178.27 56.64 Z"
       id="path189" />
    <path
       fill="#ffffff"
       opacity="1.00"
       d=" M 175.04 62.44 C 176.05 60.73 177.12 59.06 178.43 57.57 C 179.02 63.44 180.87 69.10 181.31 74.99 C 182.87 83.29 181.72 91.79 180.02 99.96 C 178.23 107.80 172.37 115.27 163.98 116.31 C 155.22 117.36 146.57 112.58 141.15 105.90 C 134.11 97.83 132.63 86.46 133.17 76.14 C 133.98 70.64 133.95 65.10 134.18 59.56 C 138.62 66.09 137.99 74.48 137.97 82.00 C 138.14 89.99 139.09 98.51 143.71 105.28 C 150.14 114.79 165.97 114.97 172.99 106.04 C 176.83 101.67 177.33 95.48 176.74 89.94 C 176.07 83.95 176.46 77.88 175.50 71.92 L 175.45 71.20 C 175.28 68.34 175.27 65.46 174.69 62.65 C 174.52 61.90 174.18 60.41 174.01 59.66 L 174.52 60.50 C 174.65 60.98 174.91 61.95 175.04 62.44 Z"
       id="path191" />
    <path
       fill="#ffffff"
       opacity="1.00"
       d=" M 184.80 61.98 C 184.81 61.82 184.83 61.50 184.85 61.33 L 184.80 61.98 Z"
       id="path193" />
    <path
       fill="#ffffff"
       opacity="1.00"
       d=" M 149.23 62.60 C 149.31 62.51 149.48 62.33 149.56 62.25 C 149.48 62.33 149.31 62.51 149.23 62.60 Z"
       id="path195" />
    <path
       fill="#ffffff"
       opacity="1.00"
       d=" M 185.40 64.13 C 185.45 64.29 185.54 64.60 185.59 64.75 C 185.54 64.60 185.45 64.29 185.40 64.13 Z"
       id="path197" />
    <path
       fill="#ffffff"
       opacity="1.00"
       d=" M 146.25 65.57 C 146.34 65.48 146.53 65.31 146.62 65.22 C 146.53 65.31 146.34 65.48 146.25 65.57 Z"
       id="path199" />
    <path
       fill="#ffffff"
       opacity="1.00"
       d=" M 119.85 71.51 C 120.57 72.55 120.51 74.41 121.83 74.91 C 122.02 74.56 122.39 73.85 122.58 73.50 C 123.35 74.09 124.11 74.69 124.88 75.29 C 124.93 76.78 124.97 78.28 125.01 79.77 C 124.51 80.13 123.52 80.84 123.03 81.20 C 122.58 79.53 124.17 76.61 122.06 75.86 C 120.33 77.91 124.18 83.21 119.85 83.45 C 119.17 79.50 118.73 75.44 119.85 71.51 Z"
       id="path201" />
    <path
       fill="#ffffff"
       opacity="1.00"
       d=" M 189.25 72.37 C 191.10 72.07 192.03 76.04 190.41 76.60 C 189.71 75.42 188.70 73.75 189.25 72.37 Z"
       id="path203" />
    <path
       fill="#ffffff"
       opacity="1.00"
       d=" M 115.21 75.80 C 115.58 75.42 116.33 74.66 116.71 74.28 C 117.55 76.16 117.95 78.18 118.01 80.23 C 116.76 78.97 115.92 77.41 115.21 75.80 Z"
       id="path205" />
    <path
       fill="#ffffff"
       opacity="1.00"
       d=" M 174.20 75.93 C 175.20 77.06 175.15 78.64 174.98 80.04 C 173.17 79.49 173.52 77.23 174.20 75.93 Z"
       id="path207" />
    <path
       fill="#ffffff"
       opacity="1.00"
       d=" M 192.22 75.74 C 193.09 76.34 193.96 76.96 194.82 77.58 C 193.90 78.43 192.99 79.27 192.06 80.10 C 192.09 78.65 192.15 77.19 192.22 75.74 Z"
       id="path209" />
    <path
       fill="#ffffff"
       opacity="1.00"
       d=" M 201.03 77.29 C 201.10 77.36 201.26 77.50 201.34 77.57 L 201.12 77.74 L 201.03 77.29 Z"
       id="path211" />
    <path
       fill="#ffffff"
       opacity="1.00"
       d=" M 214.15 77.19 C 214.16 77.34 214.17 77.63 214.18 77.78 L 214.15 77.19 Z"
       id="path213" />
    <path
       fill="#ffffff"
       opacity="1.00"
       d=" M 139.30 81.01 C 139.49 81.49 139.89 82.45 140.09 82.93 L 139.23 82.75 C 139.25 82.31 139.28 81.44 139.30 81.01 Z"
       id="path215" />
    <path
       fill="#ffffff"
       opacity="1.00"
       d=" M 163.91 81.07 C 165.56 81.21 168.05 83.51 167.52 85.27 C 165.93 84.47 164.51 83.29 163.77 81.64 L 163.91 81.07 Z"
       id="path217" />
    <path
       fill="#ffffff"
       opacity="1.00"
       d=" M 172.27 89.41 C 172.38 89.49 172.61 89.64 172.73 89.72 C 172.61 89.64 172.38 89.49 172.27 89.41 Z"
       id="path219" />
    <path
       fill="#ffffff"
       opacity="1.00"
       d=" M 168.11 92.61 C 168.20 92.51 168.40 92.30 168.50 92.20 C 168.40 92.30 168.20 92.51 168.11 92.61 Z"
       id="path221" />
    <path
       fill="#ffffff"
       opacity="1.00"
       d=" M 166.89 94.65 C 166.83 94.52 166.71 94.25 166.65 94.11 L 166.89 94.65 Z"
       id="path223" />
    <path
       fill="#ffffff"
       opacity="1.00"
       d=" M 171.78 99.50 C 172.37 98.06 173.44 96.91 174.59 95.88 C 176.04 97.33 173.46 100.49 171.78 99.50 Z"
       id="path225" />
    <path
       fill="#ffffff"
       opacity="1.00"
       d=" M 191.52 97.87 C 191.60 97.76 191.75 97.53 191.82 97.41 C 191.75 97.53 191.60 97.76 191.52 97.87 Z"
       id="path227" />
    <path
       fill="#ffffff"
       opacity="1.00"
       d=" M 162.21 98.88 C 162.35 98.73 162.64 98.42 162.79 98.27 L 162.84 98.85 L 162.21 98.88 Z"
       id="path229" />
    <path
       fill="#ffffff"
       opacity="1.00"
       d=" M 196.50 98.71 C 196.54 98.54 196.62 98.20 196.66 98.03 L 197.03 98.41 L 196.50 98.71 Z"
       id="path231" />
    <path
       fill="#ffffff"
       opacity="1.00"
       d=" M 142.63 99.10 C 142.72 99.19 142.92 99.38 143.01 99.48 C 142.92 99.38 142.72 99.19 142.63 99.10 Z"
       id="path233" />
    <path
       fill="#ffffff"
       opacity="1.00"
       d=" M 159.39 102.39 C 158.90 100.84 159.46 100.07 161.08 100.09 C 161.05 101.24 160.48 102.01 159.39 102.39 Z"
       id="path235" />
    <path
       fill="#ffffff"
       opacity="1.00"
       d=" M 173.23 101.24 C 173.80 101.79 173.80 101.79 173.23 101.24 Z"
       id="path237" />
    <path
       fill="#ffffff"
       opacity="1.00"
       d=" M 145.56 103.75 C 146.71 104.16 147.27 104.93 147.24 106.07 C 145.63 106.02 145.07 105.25 145.56 103.75 Z"
       id="path239" />
    <path
       fill="#ffffff"
       opacity="1.00"
       d=" M 118.06 110.03 C 117.89 108.03 119.82 107.10 121.04 105.90 C 121.01 108.98 119.99 111.91 119.10 114.82 C 116.92 114.15 118.09 111.60 118.06 110.03 Z"
       id="path241" />
    <path
       fill="#ffffff"
       opacity="1.00"
       d=" M 154.13 106.22 C 154.54 106.21 155.36 106.18 155.77 106.16 L 155.78 106.97 C 155.38 106.98 154.58 107.01 154.18 107.03 L 154.13 106.22 Z"
       id="path243" />
    <path
       fill="#ffffff"
       opacity="1.00"
       d=" M 188.96 105.89 C 192.02 107.47 192.30 110.84 192.41 113.92 C 192.04 114.13 191.31 114.54 190.94 114.75 C 190.06 111.85 189.03 108.95 188.96 105.89 Z"
       id="path245" />
    <path
       fill="#ffffff"
       opacity="1.00"
       d=" M 122.44 106.98 C 125.22 108.76 124.01 112.03 123.92 114.76 C 122.84 115.59 121.76 116.44 120.66 117.25 C 120.91 113.77 121.82 110.40 122.44 106.98 Z"
       id="path247" />
    <path
       fill="#ffffff"
       opacity="1.00"
       d=" M 185.98 114.72 C 185.79 112.56 186.22 110.41 187.78 108.81 C 188.68 111.55 189.18 114.41 189.44 117.28 C 188.26 116.46 187.12 115.58 185.98 114.72 Z"
       id="path249" />
    <path
       fill="#ffffff"
       opacity="1.00"
       d=" M 128.24 110.14 C 128.83 110.74 128.83 110.74 128.24 110.14 Z"
       id="path251" />
    <path
       fill="#ffffff"
       opacity="1.00"
       d=" M 153.22 109.74 C 154.28 109.49 155.22 109.75 156.02 110.53 C 154.59 111.57 153.66 111.31 153.22 109.74 Z"
       id="path253" />
    <path
       fill="#ffffff"
       opacity="1.00"
       d=" M 126.19 111.25 C 126.82 111.87 126.82 111.87 126.19 111.25 Z"
       id="path255" />
    <path
       fill="#ffffff"
       opacity="1.00"
       d=" M 194.18 111.23 C 194.80 111.76 194.80 111.76 194.18 111.23 Z"
       id="path257" />
    <path
       fill="#ffffff"
       opacity="1.00"
       d=" M 110.24 121.44 C 110.33 121.53 110.51 121.70 110.61 121.78 C 110.51 121.70 110.33 121.53 110.24 121.44 Z"
       id="path259" />
    <path
       fill="#ffffff"
       opacity="1.00"
       d=" M 113.22 124.39 C 113.31 124.48 113.48 124.67 113.56 124.76 C 113.48 124.67 113.31 124.48 113.22 124.39 Z"
       id="path261" />
    <path
       fill="#ffffff"
       opacity="1.00"
       d=" M 193.80 131.77 C 194.07 130.73 194.73 130.08 195.78 129.82 C 196.11 131.47 195.45 132.12 193.80 131.77 Z"
       id="path263" />
    <path
       fill="#ffffff"
       opacity="1.00"
       d=" M 112.22 130.64 C 112.53 130.91 113.13 131.44 113.44 131.71 C 112.81 136.02 110.45 139.97 108.23 143.67 C 108.22 143.04 108.19 141.78 108.18 141.14 C 110.07 137.87 110.77 134.10 112.22 130.64 Z"
       id="path265" />
    <path
       fill="#ffffff"
       opacity="1.00"
       d=" M 196.38 132.19 C 196.72 131.83 197.41 131.11 197.76 130.75 C 199.35 134.50 200.58 138.43 201.29 142.44 C 198.88 139.49 197.69 135.72 196.38 132.19 Z"
       id="path267" />
    <path
       fill="#ffffff"
       opacity="1.00"
       d=" M 107.87 146.77 C 110.56 142.53 112.59 137.93 114.91 133.49 C 116.26 134.70 117.59 135.93 118.92 137.15 C 116.27 144.50 113.85 151.94 111.23 159.31 C 110.76 160.88 109.89 162.52 110.49 164.18 C 110.59 164.60 110.78 165.44 110.88 165.86 L 110.37 165.49 C 108.60 164.25 106.82 162.92 104.72 162.30 C 102.72 161.83 101.40 163.77 100.12 164.94 C 101.81 164.59 103.49 164.18 105.18 163.82 C 104.44 164.80 103.70 165.77 102.97 166.75 C 102.30 166.48 100.95 165.94 100.28 165.67 C 101.18 167.83 103.90 169.94 102.64 172.48 C 101.12 173.44 99.40 174.01 97.74 174.68 L 98.47 175.43 L 99.13 176.14 C 98.56 175.99 97.43 175.68 96.87 175.52 C 96.04 174.77 95.13 174.61 94.15 175.05 C 94.36 175.38 94.77 176.04 94.97 176.38 L 95.43 176.85 C 94.93 176.72 93.94 176.46 93.45 176.33 C 93.07 176.24 92.31 176.06 91.93 175.97 C 89.98 178.13 90.75 181.15 90.46 183.78 L 90.13 183.86 C 84.63 185.12 79.16 186.57 74.06 189.04 C 74.75 185.70 75.00 182.01 77.23 179.25 C 79.32 176.70 82.08 174.82 84.61 172.75 C 84.28 170.52 83.97 168.29 83.77 166.05 C 86.26 165.49 88.78 165.01 91.15 164.03 C 91.08 163.31 90.95 161.89 90.88 161.17 C 89.13 161.15 87.38 161.17 85.63 161.18 C 90.62 151.67 102.34 148.23 107.32 138.76 C 107.53 139.36 107.96 140.55 108.18 141.14 C 106.16 143.40 105.44 146.43 104.11 149.08 C 98.50 160.92 88.34 169.74 81.87 181.02 C 85.76 176.87 89.83 172.88 93.42 168.47 C 97.89 162.52 102.09 156.35 105.85 149.94 C 106.67 148.87 106.27 147.54 106.21 146.32 C 106.62 146.43 107.45 146.66 107.87 146.77 Z"
       id="path269" />
    <path
       fill="#ffffff"
       opacity="1.00"
       d=" M 191.08 137.17 C 192.42 135.97 193.75 134.75 195.10 133.56 C 197.56 138.29 199.69 143.21 202.86 147.53 C 206.08 153.37 209.70 158.99 213.58 164.42 C 217.71 170.54 223.09 175.66 228.12 181.02 C 224.26 174.08 218.70 168.30 214.07 161.89 C 208.64 155.07 204.25 147.34 201.96 138.89 C 208.40 147.75 219.23 152.22 224.91 161.70 C 223.02 161.42 221.13 161.17 219.23 160.98 C 219.13 161.75 218.92 163.27 218.81 164.04 C 221.19 164.98 223.71 165.49 226.19 166.05 C 226.00 168.29 225.69 170.51 225.37 172.73 C 227.90 174.82 230.66 176.70 232.76 179.26 C 234.96 182.02 235.20 185.70 235.91 189.03 C 231.19 186.60 225.97 185.62 221.00 183.93 C 217.75 182.39 220.55 178.12 218.07 175.98 C 217.69 176.07 216.94 176.24 216.56 176.33 C 216.06 176.46 215.07 176.71 214.57 176.84 L 215.03 176.38 C 215.23 176.05 215.65 175.39 215.85 175.06 C 214.86 174.61 213.96 174.77 213.13 175.52 C 212.56 175.68 211.43 175.99 210.86 176.15 L 211.51 175.43 L 212.23 174.67 C 210.57 174.01 208.86 173.43 207.33 172.49 C 206.13 169.94 208.73 167.85 209.66 165.70 C 209.00 165.96 207.69 166.48 207.03 166.74 C 206.28 165.76 205.53 164.79 204.80 163.82 C 206.49 164.18 208.17 164.60 209.87 164.94 C 208.58 163.78 207.28 161.84 205.28 162.30 C 203.16 162.91 201.37 164.27 199.60 165.53 L 199.09 165.91 C 199.19 165.47 199.40 164.60 199.50 164.17 C 200.10 162.51 199.22 160.88 198.75 159.32 C 196.13 151.96 193.71 144.53 191.08 137.17 Z"
       id="path271" />
    <path
       fill="#ffffff"
       opacity="1.00"
       d=" M 104.46 140.74 C 104.55 140.64 104.75 140.44 104.85 140.34 C 104.75 140.44 104.55 140.64 104.46 140.74 Z"
       id="path273" />
    <path
       fill="#ffffff"
       opacity="1.00"
       d=" M 119.33 140.16 C 119.27 140.29 119.16 140.54 119.11 140.67 L 119.33 140.16 Z"
       id="path275" />
    <path
       fill="#ffffff"
       opacity="1.00"
       d=" M 201.29 142.44 C 201.91 142.97 201.91 142.97 201.29 142.44 Z"
       id="path277" />
    <path
       fill="#ffffff"
       opacity="1.00"
       d=" M 100.43 144.91 C 100.52 144.82 100.72 144.63 100.82 144.54 C 100.72 144.63 100.52 144.82 100.43 144.91 Z"
       id="path279" />
    <path
       fill="#ffffff"
       opacity="1.00"
       d=" M 202.19 144.21 C 202.81 144.82 202.81 144.82 202.19 144.21 Z"
       id="path281" />
    <path
       fill="#ffffff"
       opacity="1.00"
       d=" M 142.62 145.26 L 142.76 145.10 L 142.89 145.50 C 142.82 145.44 142.69 145.32 142.62 145.26 Z"
       id="path283" />
    <path
       fill="#ffffff"
       opacity="1.00"
       d=" M 87.28 162.43 C 88.03 161.18 90.74 162.08 89.63 163.56 C 88.85 164.77 86.04 163.96 87.28 162.43 Z"
       id="path285" />
    <path
       fill="#ffffff"
       opacity="1.00"
       d=" M 111.08 162.96 C 111.16 162.79 111.32 162.44 111.39 162.27 C 111.32 162.44 111.16 162.79 111.08 162.96 Z"
       id="path287" />
    <path
       fill="#ffffff"
       opacity="1.00"
       d=" M 198.60 162.26 C 198.68 162.43 198.84 162.77 198.91 162.94 C 198.84 162.77 198.68 162.43 198.60 162.26 Z"
       id="path289" />
    <path
       fill="#ffffff"
       opacity="1.00"
       d=" M 220.40 162.37 C 221.25 161.57 223.54 162.50 222.69 163.77 C 221.82 164.60 219.52 163.64 220.40 162.37 Z"
       id="path291" />
  </g>
  <path
     style="fill:#9b1123;fill-opacity:0.74901961"
     d=""
     id="path3278"
     inkscape:connector-curvature="0"
     transform="scale(0.8,0.8)" />
  <path
     style="fill:#9b1123;fill-opacity:0.74901961"
     d=""
     id="path3280"
     inkscape:connector-curvature="0"
     transform="scale(0.8,0.8)" />
  <path
     style="fill:#9b1123;fill-opacity:0.74901961"
     d=""
     id="path3282"
     inkscape:connector-curvature="0"
     transform="scale(0.8,0.8)" />
  <path
     style="fill:#9b1123;fill-opacity:0.74901961"
     d="m 242.55859,164.2769 c 0,-0.45324 1.24798,-1.70122 1.70122,-1.70122 0.4379,0 0.46956,1.31556 0.042,1.74317 -0.42761,0.42761 -1.74317,0.39595 -1.74317,-0.0419 z"
     id="path3284"
     inkscape:connector-curvature="0"
     transform="scale(0.8,0.8)" />
</svg>
