<?xml version="1.0" encoding="UTF-8" standalone="no"?>
<svg
   xmlns:dc="http://purl.org/dc/elements/1.1/"
   xmlns:cc="http://creativecommons.org/ns#"
   xmlns:rdf="http://www.w3.org/1999/02/22-rdf-syntax-ns#"
   xmlns:svg="http://www.w3.org/2000/svg"
   xmlns="http://www.w3.org/2000/svg"
   xmlns:sodipodi="http://sodipodi.sourceforge.net/DTD/sodipodi-0.dtd"
   xmlns:inkscape="http://www.inkscape.org/namespaces/inkscape"
   width="675"
   height="450"
   id="svg2"
   sodipodi:version="0.32"
   inkscape:version="0.46">
  <defs
     id="defs11">
    <inkscape:perspective
       sodipodi:type="inkscape:persp3d"
       inkscape:vp_x="0 : 225 : 1"
       inkscape:vp_y="0 : 1000 : 0"
       inkscape:vp_z="675 : 225 : 1"
       inkscape:persp3d-origin="337.5 : 150 : 1"
       id="perspective15" />
  </defs>
  <path
     style="fill:#ffffff; stroke:none;"
     d="M0 0L0 450L675 450L675 0L0 0z"
     id="path4" />
  <path
     style="fill:#800000;stroke:none"
     d="M 283.37133,8.7591912 C 275.77558,16.733121 289.09152,31.087554 299.12686,42 L 299.44486,88 L 299.44486,187 L 261.44486,161.011 L 174.44486,100.025 L 146.44486,80.4136 L 134.45786,70.8264 L 131.44486,56 C 118.09986,57.8441 108.87786,77.6748 101.69175,88 C 99.484753,91.1711 93.204553,98.1083 96.476453,102.258 C 99.566653,106.177 108.89286,102.219 113.44486,104.344 C 125.33586,109.895 136.74086,120.117 147.44486,127.742 C 176.61786,148.52 206.28686,168.604 235.44486,189.402 C 252.60286,201.64 269.86586,216.061 288.44486,226 L 288.44486,227 C 272.60686,235.473 258.22286,247.609 243.44486,257.809 C 211.61386,279.782 180.23686,302.425 148.44486,324.456 C 139.44686,330.691 128.10186,341.947 117.44486,344.701 C 113.69486,345.671 102.77596,344.281 101.82135,349.148 C 100.90105,353.84 106.45436,359.469 108.90086,363 C 117.47486,375.375 125.50286,386.725 136.44486,397 L 137.44486,397 C 140.35586,391.748 139.04886,384.672 142.76286,380.054 C 152.69686,367.702 172.42586,358.478 185.44486,349.456 C 213.52686,329.996 242.05586,310.849 269.44486,290.438 C 279.25786,283.125 290.33886,277.199 299.44486,269 L 299.44486,379 C 299.44486,391.095 301.21924,414.37581 295.78424,425.24081 C 291.07324,434.65981 282.57086,436.03 273.44486,439 C 275.54086,445.316 285.94986,443 291.44486,443 L 348.44486,443 C 354.28486,443 367.22886,445.677 369.44486,439 C 360.28486,436.019 350.54448,435.62762 346.66848,425.48162 C 341.88948,412.97262 343.44486,389.388 343.44486,376 L 343.44486,267 C 356.13486,278.883 372.27286,287.666 386.44486,297.698 C 415.69286,318.402 444.89786,339.222 474.44486,359.502 C 480.69586,363.792 490.51986,368.423 494.50686,375.04 C 497.67286,380.293 496.13486,390.162 502.55386,392.987 C 507.60386,395.209 511.81886,391.439 514.94486,387.826 C 522.33886,379.281 527.97286,369.146 534.57486,360 C 537.01986,356.614 542.66286,350.848 540.82186,346.228 C 538.53086,340.478 527.15186,343.746 522.44486,342.581 C 512.70086,340.17 502.54986,330.045 494.44486,324.308 C 463.53486,302.427 432.57386,280.58 401.44486,259.025 C 387.39786,249.298 366.86986,239.591 356.44486,226 C 372.65686,217.935 387.65786,204.886 402.44486,194.424 C 432.34486,173.27 462.26886,152.099 492.44486,131.341 C 504.27786,123.201 516.38286,111.705 529.44486,105.742 C 534.85886,103.271 541.61986,110.303 546.08386,105.667 C 549.87886,101.725 545.09886,95.3879 542.69586,92 C 536.52186,83.2967 530.23086,74.5675 523.84586,66.0185 C 521.42486,62.7769 517.05886,58.0674 512.50286,58.3017 C 506.14386,58.6287 508.36786,69.8782 505.58686,73.5447 C 499.11286,82.0816 485.19686,88.6363 476.44486,94.7986 C 432.22086,125.936 388.24986,157.735 343.44486,188 L 343.44486,126 C 372.87786,126 404.14786,120.772 428.44486,102.844 C 457.09686,81.7035 453.93986,48.4666 425.44486,29.0286 C 382.68286,-0.142548 332.36433,8.7591912 283.37133,8.7591912 z"
     id="path6"
     sodipodi:nodetypes="cccccccccsssccccccsssccsssccsccccsccscsssssscscsssssssssccccc" />
  <path
     style="fill:#ffffff;stroke:none"
     d="M 339.72243,46 L 339.72243,92 C 351.52343,92 372.19643,95.9622 382.71843,90.3619 C 398.01943,82.218 399.84443,54.4203 382.71843,46.9383 C 371.72443,42.1349 351.69743,46 339.72243,46 z"
     id="path8" />
</svg>