<?xml version="1.0" encoding="UTF-8" standalone="no"?>
<!-- Created with Inkscape (http://www.inkscape.org/) -->
<svg
    xmlns:svg="http://www.w3.org/2000/svg"
    xmlns="http://www.w3.org/2000/svg"
    version="1.0"
    width="324"
    height="216"
    id="svg1889">
	<defs
	     id="defs1892" />
	<rect
	     width="324"
	     height="216"
	     x="0"
	     y="1.9073486e-006"
	     style="fill:#0000c8;fill-opacity:1;fill-rule:nonzero;stroke:none;stroke-width:5;stroke-miterlimit:4;stroke-dasharray:none;stroke-opacity:1"
	     id="rect2845" />
	<path
	     d="M 182.97483,98.845937 C 182.97483,98.845937 172.85823,86.820553 173.43088,74.031656 C 173.96362,61.956067 183.11799,54.227949 194.61846,54.18023 C 206.11892,54.132511 214.96185,60.455428 214.85164,72.504619 C 214.70848,88.156705 205.11681,98.845937 205.11681,98.845937 L 182.97483,98.845937 z "
	     style="fill:none;fill-opacity:0.75;fill-rule:evenodd;stroke:white;stroke-width:5.00000143;stroke-linecap:butt;stroke-linejoin:miter;stroke-miterlimit:4;stroke-dasharray:none;stroke-opacity:1"
	     id="path2782" />
	<path
	     d="M 194.04583,46.545061 L 191.18264,48.644732 L 191.18264,65.251213 C 186.4596,66.602048 184.0088,69.373039 183.35658,73.268143 L 189.27384,74.79517 L 189.08296,92.737807 L 149.95275,131.67715 L 238.13889,131.67715 L 199.00868,92.928683 L 199.00868,74.604294 L 205.30769,73.268143 C 203.32991,66.335905 199.67606,65.812449 196.71813,65.251213 L 197.09989,48.835612 L 194.04583,46.545061 z "
	     style="fill:white;fill-opacity:1;fill-rule:evenodd;stroke:white;stroke-width:1.00000036px;stroke-linecap:butt;stroke-linejoin:miter;stroke-opacity:1"
	     id="path1881" />
	<path
	     d="M 149.18922,131.2954 L 144.79901,131.2954 L 138.5,142.55725 C 138.5,142.55725 147.268,160.44409 195.57285,160.49989 C 242.7163,160.55435 251.50044,140.83935 251.50044,140.83935 L 243.29262,131.10451 C 243.29262,131.10451 239.28417,131.67715 238.52066,131.67715 C 237.75713,131.67715 149.18922,131.48626 149.18922,131.2954 z "
	     style="fill:white;fill-opacity:1;fill-rule:evenodd;stroke:white;stroke-width:1.00000036px;stroke-linecap:butt;stroke-linejoin:miter;stroke-opacity:1"
	     id="path1885" />
	<path
	     d="M 149.18922,134.34946 C 149.18922,141.03023 149.18922,142.93902 149.18922,142.93902 L 155.87,138.16704 L 149.18922,134.34946 z "
	     style="fill:#0000c8;fill-opacity:1;fill-rule:evenodd;stroke:#0000c8;stroke-width:0.50000018;stroke-linecap:butt;stroke-linejoin:miter;stroke-miterlimit:4;stroke-dasharray:none;stroke-opacity:1"
	     id="path1887" />
	<path
	     d="M 157.39703,143.89341 L 151.09802,148.47451 L 158.92406,151.52857 L 157.39703,143.89341 z "
	     style="fill:#0000c8;fill-opacity:1;fill-rule:evenodd;stroke:#0000c8;stroke-width:0.50000018;stroke-linecap:butt;stroke-linejoin:miter;stroke-miterlimit:4;stroke-dasharray:none;stroke-opacity:1"
	     id="path1889" />
	
	<path
	     d="M 162.16901,141.2211 L 164.45956,148.47451 L 169.80417,143.32078 L 162.16901,141.2211 z "
	     style="fill:#0000c8;fill-opacity:1;fill-rule:evenodd;stroke:#0000c8;stroke-width:0.50000018;stroke-linecap:butt;stroke-linejoin:miter;stroke-miterlimit:4;stroke-dasharray:none;stroke-opacity:1"
	     id="path1891" />
	<path
	     d="M 167.7045,153.43736 L 172.47648,149.04715 L 175.72143,155.9188 L 167.7045,153.43736 z "
	     style="fill:#0000c8;fill-opacity:1;fill-rule:evenodd;stroke:#0000c8;stroke-width:0.50000018;stroke-linecap:butt;stroke-linejoin:miter;stroke-miterlimit:4;stroke-dasharray:none;stroke-opacity:1"
	     id="path1893" />
	<path
	     d="M 175.53054,144.46604 L 178.96637,150.76505 L 182.97483,145.22957 L 175.53054,144.46604 z "
	     style="fill:#0000c8;fill-opacity:1;fill-rule:evenodd;stroke:#0000c8;stroke-width:0.50000018;stroke-linecap:butt;stroke-linejoin:miter;stroke-miterlimit:4;stroke-dasharray:none;stroke-opacity:1"
	     id="path1895" />
	<path
	     d="M 185.83801,151.14682 L 181.63868,156.87319 L 190.03736,156.87319 L 185.83801,151.14682 z "
	     style="fill:#0000c8;fill-opacity:1;fill-rule:evenodd;stroke:#0000c8;stroke-width:0.50000018;stroke-linecap:butt;stroke-linejoin:miter;stroke-miterlimit:4;stroke-dasharray:none;stroke-opacity:1"
	     id="path1897" />
	<path
	     d="M 188.89209,145.42044 L 194.04583,150.76505 L 197.67252,145.61132 L 188.89209,145.42044 z "
	     style="fill:#0000c8;fill-opacity:1;fill-rule:evenodd;stroke:#0000c8;stroke-width:0.50000018;stroke-linecap:butt;stroke-linejoin:miter;stroke-miterlimit:4;stroke-dasharray:none;stroke-opacity:1"
	     id="path1899" />
	<path
	     d="M 200.34483,151.14682 L 196.52725,156.87319 L 205.30769,156.49144 L 200.34483,151.14682 z "
	     style="fill:#0000c8;fill-opacity:1;fill-rule:evenodd;stroke:#0000c8;stroke-width:0.50000018;stroke-linecap:butt;stroke-linejoin:miter;stroke-miterlimit:4;stroke-dasharray:none;stroke-opacity:1"
	     id="path1901" />
	<path
	     d="M 203.3989,145.22957 L 207.0256,150.95594 L 210.84319,144.08429 L 203.3989,145.22957 z "
	     style="fill:#0000c8;fill-opacity:1;fill-rule:evenodd;stroke:#0000c8;stroke-width:0.50000018;stroke-linecap:butt;stroke-linejoin:miter;stroke-miterlimit:4;stroke-dasharray:none;stroke-opacity:1"
	     id="path1903" />
	<path
	     d="M 213.70637,149.23803 L 210.84319,155.34615 L 218.28747,154.58265 L 213.70637,149.23803 z "
	     style="fill:#0000c8;fill-opacity:1;fill-rule:evenodd;stroke:#0000c8;stroke-width:0.50000018;stroke-linecap:butt;stroke-linejoin:miter;stroke-miterlimit:4;stroke-dasharray:none;stroke-opacity:1"
	     id="path1905" />
	<path
	     d="M 216.56955,144.65693 L 221.34153,149.42891 L 224.01384,142.1755 L 216.56955,144.65693 z "
	     style="fill:#0000c8;fill-opacity:1;fill-rule:evenodd;stroke:#0000c8;stroke-width:0.50000018;stroke-linecap:butt;stroke-linejoin:miter;stroke-miterlimit:4;stroke-dasharray:none;stroke-opacity:1"
	     id="path1907" />
	
	<path
	     d="M 235.84834,137.02176 L 235.08483,144.65693 L 229.54934,140.26671 L 235.84834,137.02176 z "
	     style="fill:#0000c8;fill-opacity:1;fill-rule:evenodd;stroke:#0000c8;stroke-width:0.50000018;stroke-linecap:butt;stroke-linejoin:miter;stroke-miterlimit:4;stroke-dasharray:none;stroke-opacity:1"
	     id="path1909" />
	<path
	     d="M 227.64055,145.42044 L 225.73176,152.86472 L 233.17604,149.42891 L 227.64055,145.42044 z "
	     style="fill:#0000c8;fill-opacity:1;fill-rule:evenodd;stroke:#0000c8;stroke-width:0.50000018;stroke-linecap:butt;stroke-linejoin:miter;stroke-miterlimit:4;stroke-dasharray:none;stroke-opacity:1"
	     id="path1911" />
	<path
	     d="M 240.8112,140.07583 L 240.8112,146.75661 L 246.3467,141.2211 L 240.8112,140.07583 z "
	     style="fill:#0000c8;fill-opacity:1;fill-rule:evenodd;stroke:#0000c8;stroke-width:0.50000018;stroke-linecap:butt;stroke-linejoin:miter;stroke-miterlimit:4;stroke-dasharray:none;stroke-opacity:1"
	     id="path1913" />
	<rect
	     width="32"
	     height="216"
	     x="0"
	     y="0"
	     style="fill:#00d400;fill-opacity:1;fill-rule:nonzero;stroke:none;stroke-width:5;stroke-miterlimit:4;stroke-dasharray:none;stroke-opacity:1"
	     id="rect1955" />
	<rect
	     width="32"
	     height="216"
	     x="32"
	     y="0"
	     style="fill:red;fill-opacity:1;fill-rule:nonzero;stroke:none;stroke-width:5;stroke-miterlimit:4;stroke-dasharray:none;stroke-opacity:1"
	     id="rect2843" />
</svg>
 
