<?xml version="1.0" encoding="UTF-8" standalone="no"?>
<svg xmlns="http://www.w3.org/2000/svg" width="165" height="110">
  <rect fill="#ffffff" width="165" height="110" />
  <rect fill="#bd3d44" width="165" height="10" />
  <rect fill="#bd3d44" width="165" height="10" y="20" />
  <rect fill="#bd3d44" width="165" height="10" y="40" />
  <rect fill="#bd3d44" width="165" height="10" y="60" />
  <rect fill="#bd3d44" width="165" height="10" y="80" />
  <rect fill="#bd3d44" width="165" height="10" y="100" />
  <rect fill="#192f5d" width="50" height="50" />
  <polygon
     sodipodi:type="star"
     fill="#ffffff"
     sodipodi:sides="5"
     points="0,-4.004 0.898954009,-1.2373040455 3.808030291,-1.2373040455 1.454538141067,0.4726080910 2.35349215,3.2393040455 0,1.529391909 -2.35349215,3.2393040455 -1.454538141067,0.472608091 -3.808030291,-1.2373040455 -0.898954009,-1.2373040455 0,-4.004 "
     sodipodi:r1="4"
     sodipodi:r2="1.5293919"
     transform="matrix(4.1417556,0,0,4.1417556,24.99993,26.583591)"
     d="M 1.3084868e-6,-4.0040002 0.89895399,-1.237304 3.8080309,-1.2373029 1.4545381,0.47260808 2.3534912,3.239305 0,1.5293919 -2.3534933,3.2393034 -1.4545381,0.47260809 -3.8080301,-1.2373053 -0.898954,-1.237304 1.3084868e-6,-4.0040002 z"/>
</svg>
