<?xml version="1.0" encoding="UTF-8" ?>
<!DOCTYPE svg PUBLIC "-//W3C//DTD SVG 1.1//EN" "http://www.w3.org/Graphics/SVG/1.1/DTD/svg11.dtd">
<svg width="323pt" height="216pt" viewBox="0 0 323 216" version="1.1" xmlns="http://www.w3.org/2000/svg">
<g id="#cf001bff">
<path fill="#cf001b" opacity="1.00" d=" M 0.00 0.00 L 323.00 0.00 L 323.00 216.00 L 0.00 216.00 L 0.00 0.00 M 152.46 18.66 C 132.75 20.44 113.55 28.50 98.89 41.89 C 88.82 51.38 81.21 63.37 76.47 76.35 C 72.26 89.08 69.86 102.74 71.98 116.12 C 73.37 131.76 79.67 146.66 88.54 159.50 C 90.88 163.70 94.94 166.49 97.59 170.47 C 110.86 184.83 129.62 193.47 148.91 195.82 C 154.45 197.12 160.20 196.75 165.85 196.58 C 185.44 194.92 204.92 187.79 220.01 175.01 C 223.49 171.52 226.88 167.93 230.50 164.57 C 242.79 150.60 250.02 132.48 251.69 114.03 C 252.75 92.66 246.13 70.89 232.85 54.06 C 228.30 48.98 224.47 43.09 218.67 39.28 C 207.71 29.63 193.96 23.40 179.72 20.50 C 170.79 18.57 161.57 17.56 152.46 18.66 Z" />
<path fill="#cf001b" opacity="1.00" d=" M 117.72 50.73 C 129.85 41.56 145.09 35.53 160.48 36.76 C 156.21 45.60 152.73 54.99 152.02 64.86 C 150.43 70.79 152.10 76.77 152.54 82.72 C 153.05 87.36 154.83 91.75 155.32 96.40 C 150.04 93.62 147.15 87.97 142.09 84.87 C 130.45 75.60 115.64 71.69 101.10 70.01 C 102.19 65.96 105.42 63.13 107.68 59.76 C 110.13 55.85 114.39 53.76 117.72 50.73 Z" />
<path fill="#cf001b" opacity="1.00" d=" M 162.77 36.73 C 171.56 35.93 180.23 38.51 188.29 41.77 C 195.99 45.66 204.15 49.45 209.92 56.08 C 214.50 60.67 219.39 65.17 222.28 71.09 C 217.05 72.26 211.62 72.10 206.44 73.53 C 196.81 75.79 187.78 80.24 179.62 85.77 C 174.64 88.92 172.06 94.82 166.72 97.49 C 167.86 92.49 169.59 87.63 170.35 82.54 C 171.22 74.39 171.40 66.09 169.74 58.02 C 168.71 50.56 165.64 43.63 162.77 36.73 Z" />
<path fill="#cf001b" opacity="1.00" d=" M 99.28 71.08 C 101.82 75.61 105.40 79.40 108.47 83.55 C 111.23 87.15 115.30 89.33 118.49 92.48 C 123.42 96.58 129.42 99.04 135.13 101.81 C 140.13 104.15 145.74 104.70 150.77 106.90 C 143.62 108.74 136.33 110.37 129.71 113.75 C 123.41 116.77 117.78 120.98 112.44 125.44 C 107.40 129.75 103.82 135.39 99.66 140.48 C 97.29 138.10 96.31 134.82 95.01 131.82 C 91.06 122.39 90.07 111.99 90.51 101.86 C 90.12 90.96 94.97 80.82 99.28 71.08 Z" />
<path fill="#cf001b" opacity="1.00" d=" M 209.54 89.56 C 215.12 84.98 219.03 78.88 223.85 73.57 C 235.19 92.33 235.88 116.78 226.67 136.52 C 225.89 138.38 224.70 140.03 223.31 141.48 C 219.38 134.65 213.35 129.60 208.06 123.91 C 197.90 115.51 185.58 110.35 172.94 106.97 C 177.32 104.82 182.38 104.77 186.81 102.67 C 195.32 100.12 202.50 94.78 209.54 89.56 Z" />
<path fill="#cf001b" opacity="1.00" d=" M 157.25 99.26 C 157.79 99.79 157.79 99.79 157.25 99.26 Z" />
<path fill="#cf001b" opacity="1.00" d=" M 165.26 99.25 C 165.79 99.78 165.79 99.78 165.26 99.25 Z" />
<path fill="#cf001b" opacity="1.00" d=" M 149.10 123.11 C 151.35 120.83 153.55 118.47 156.15 116.59 C 154.65 123.03 152.31 129.31 152.08 135.99 C 150.80 142.12 152.09 148.27 152.81 154.37 C 154.13 162.33 156.87 169.99 160.21 177.30 C 144.82 177.85 129.71 171.87 117.64 162.53 C 110.06 157.86 105.11 150.21 100.46 142.85 C 103.84 142.12 107.28 141.72 110.73 141.40 C 124.89 139.05 138.52 132.89 149.10 123.11 Z" />
<path fill="#cf001b" opacity="1.00" d=" M 167.66 117.62 C 172.24 120.11 174.85 124.87 179.16 127.70 C 189.28 135.62 201.60 140.54 214.28 142.41 C 217.16 142.67 220.07 142.88 222.88 143.68 C 215.55 154.94 205.36 164.52 193.16 170.29 C 183.80 174.90 173.29 178.01 162.78 177.21 C 167.04 167.66 170.56 157.57 170.80 147.01 C 171.92 142.07 170.58 137.12 170.52 132.15 C 170.36 127.15 167.72 122.62 167.66 117.62 Z" />
</g>
<g id="#fff800ff">
<path fill="#fff800" opacity="1.00" d=" M 152.46 18.66 C 161.57 17.56 170.79 18.57 179.72 20.50 C 193.96 23.40 207.71 29.63 218.67 39.28 C 224.47 43.09 228.30 48.98 232.85 54.06 C 246.13 70.89 252.75 92.66 251.69 114.03 C 250.02 132.48 242.79 150.60 230.50 164.57 C 226.88 167.93 223.49 171.52 220.01 175.01 C 204.92 187.79 185.44 194.92 165.85 196.58 C 160.20 196.75 154.45 197.12 148.91 195.82 C 129.62 193.47 110.86 184.83 97.59 170.47 C 94.94 166.49 90.88 163.70 88.54 159.50 C 79.67 146.66 73.37 131.76 71.98 116.12 C 69.86 102.74 72.26 89.08 76.47 76.35 C 81.21 63.37 88.82 51.38 98.89 41.89 C 113.55 28.50 132.75 20.44 152.46 18.66 M 117.72 50.73 C 114.39 53.76 110.13 55.85 107.68 59.76 C 105.42 63.13 102.19 65.96 101.10 70.01 C 115.64 71.69 130.45 75.60 142.09 84.87 C 147.15 87.97 150.04 93.62 155.32 96.40 C 154.83 91.75 153.05 87.36 152.54 82.72 C 152.10 76.77 150.43 70.79 152.02 64.86 C 152.73 54.99 156.21 45.60 160.48 36.76 C 145.09 35.53 129.85 41.56 117.72 50.73 M 162.77 36.73 C 165.64 43.63 168.71 50.56 169.74 58.02 C 171.40 66.09 171.22 74.39 170.35 82.54 C 169.59 87.63 167.86 92.49 166.72 97.49 C 172.06 94.82 174.64 88.92 179.62 85.77 C 187.78 80.24 196.81 75.79 206.44 73.53 C 211.62 72.10 217.05 72.26 222.28 71.09 C 219.39 65.17 214.50 60.67 209.92 56.08 C 204.15 49.45 195.99 45.66 188.29 41.77 C 180.23 38.51 171.56 35.93 162.77 36.73 M 99.28 71.08 C 94.97 80.82 90.12 90.96 90.51 101.86 C 90.07 111.99 91.06 122.39 95.01 131.82 C 96.31 134.82 97.29 138.10 99.66 140.48 C 103.82 135.39 107.40 129.75 112.44 125.44 C 117.78 120.98 123.41 116.77 129.71 113.75 C 136.33 110.37 143.62 108.74 150.77 106.90 C 145.74 104.70 140.13 104.15 135.13 101.81 C 129.42 99.04 123.42 96.58 118.49 92.48 C 115.30 89.33 111.23 87.15 108.47 83.55 C 105.40 79.40 101.82 75.61 99.28 71.08 M 209.54 89.56 C 202.50 94.78 195.32 100.12 186.81 102.67 C 182.38 104.77 177.32 104.82 172.94 106.97 C 185.58 110.35 197.90 115.51 208.06 123.91 C 213.35 129.60 219.38 134.65 223.31 141.48 C 224.70 140.03 225.89 138.38 226.67 136.52 C 235.88 116.78 235.19 92.33 223.85 73.57 C 219.03 78.88 215.12 84.98 209.54 89.56 M 157.25 99.26 C 157.79 99.79 157.79 99.79 157.25 99.26 M 165.26 99.25 C 165.79 99.78 165.79 99.78 165.26 99.25 M 149.10 123.11 C 138.52 132.89 124.89 139.05 110.73 141.40 C 107.28 141.72 103.84 142.12 100.46 142.85 C 105.11 150.21 110.06 157.86 117.64 162.53 C 129.71 171.87 144.82 177.85 160.21 177.30 C 156.87 169.99 154.13 162.33 152.81 154.37 C 152.09 148.27 150.80 142.12 152.08 135.99 C 152.31 129.31 154.65 123.03 156.15 116.59 C 153.55 118.47 151.35 120.83 149.10 123.11 M 167.66 117.62 C 167.72 122.62 170.36 127.15 170.52 132.15 C 170.58 137.12 171.92 142.07 170.80 147.01 C 170.56 157.57 167.04 167.66 162.78 177.21 C 173.29 178.01 183.80 174.90 193.16 170.29 C 205.36 164.52 215.55 154.94 222.88 143.68 C 220.07 142.88 217.16 142.67 214.28 142.41 C 201.60 140.54 189.28 135.62 179.16 127.70 C 174.85 124.87 172.24 120.11 167.66 117.62 Z" />
</g>
</svg>
