<?xml version="1.0" encoding="UTF-8" standalone="no"?>
<!-- Created with Inkscape (http://www.inkscape.org/) -->

<svg
   xmlns:svg="http://www.w3.org/2000/svg"
   xmlns="http://www.w3.org/2000/svg"
   xmlns:xlink="http://www.w3.org/1999/xlink"
   version="1.0"
   width="450"
   height="300"
   id="svg2394">
  <defs
     id="defs79" />
  <rect
     width="450"
     height="300"
     x="0"
     y="0"
     id="rect3648"
     style="fill:#339e35" />
  <rect
     width="450"
     height="150"
     x="0"
     y="0"
     id="rect3026"
     style="fill:#ce1126" />
  <rect
     width="450"
     height="100"
     x="0"
     y="100"
     id="rect2404"
     style="fill:#000000" />
  <path
     d="m 265,150 a 40,40 0 0 1 -80,0 40,40 0 1 1 80,0 z"
     id="path2819"
     style="fill:#ffffff" />
  <path
     d="m 221.13925,102.82873 c 0,0 -4.98082,-32.705209 -1.5142,-32.555351 3.47345,0.150152 2.42272,32.403921 2.42272,32.403921 l -0.90852,0.15143 z"
     id="path2818"
     style="fill:#ffffff;stroke:none" />
  <path
     d="m 229.00609,102.82873 c 0,0 4.98082,-32.705209 1.5142,-32.555351 -3.47345,0.150152 -2.42272,32.403921 -2.42272,32.403921 l 0.90852,0.15143 z"
     id="path2816"
     style="fill:#ffffff;stroke:none" />
  <path
     d="m 234.9523,102.92009 c 0,0 8.37216,-32.005396 4.90886,-32.218727 -3.47011,-0.213719 -5.79659,31.973177 -5.79659,31.973177 l 0.88773,0.24555 z"
     id="path2819-1"
     style="fill:#ffffff;stroke:none" />
  <path
     d="m 241.47158,105.15501 c 0,0 12.21024,-30.746528 8.79874,-31.380344 -3.4182,-0.635029 -9.64992,31.028434 -9.64992,31.028434 l 0.85118,0.35191 z"
     id="path2821"
     style="fill:#ffffff;stroke:none" />
  <path
     d="m 247.01189,107.88343 c 0,0 17.36382,-28.159134 14.1142,-29.375715 -3.25598,-1.218949 -14.89135,28.881345 -14.89135,28.881345 l 0.77715,0.49437 z"
     id="path2823"
     style="fill:#ffffff;stroke:none" />
  <path
     d="m 251.91012,112.07572 c 0,0 21.11383,-25.468519 18.06516,-27.12552 -3.05467,-1.660233 -18.76595,26.52779 -18.76595,26.52779 l 0.70079,0.59773 z"
     id="path2825"
     style="fill:#ffffff;stroke:none" />
  <path
     d="m 256.66743,116.45299 c 0,0 24.06028,-22.705561 21.23626,-24.72174 -2.82956,-2.020136 -21.85899,24.04306 -21.85899,24.04306 l 0.62273,0.67868 z"
     id="path2827"
     style="fill:#ffffff;stroke:none" />
  <path
     d="m 260.6725,121.54667 c 0,0 27.31601,-18.66217 24.84215,-21.0953 -2.47871,-2.437911 -25.35103,20.32755 -25.35103,20.32755 l 0.50888,0.76775 z"
     id="path2829"
     style="fill:#ffffff;stroke:none" />
  <path
     d="m 264.60033,126.87988 c 0,0 29.64744,-14.6789 27.53628,-17.43263 -2.11528,-2.75917 -27.93336,16.60153 -27.93336,16.60153 l 0.39708,0.8311 z"
     id="path2831"
     style="fill:#ffffff;stroke:none" />
  <path
     d="m 267.18737,132.01969 c 0,0 31.01939,-11.49948 29.20764,-14.4588 -1.81528,-2.96517 -29.51567,13.59075 -29.51567,13.59075 l 0.30803,0.86805 z"
     id="path2833"
     style="fill:#ffffff;stroke:none" />
  <path
     d="m 268.84736,138.65414 c 0,0 32.43639,-6.5054 31.10988,-9.71171 -1.32908,-3.21263 -31.27834,8.80616 -31.27834,8.80616 l 0.16846,0.90555 z"
     id="path2835"
     style="fill:#ffffff;stroke:none" />
  <path
     d="m 179.56351,145.11568 c 0,0 -32.47397,-5.65876 -32.32411,-2.19213 0.15015,3.47344 32.21228,3.2527 32.21228,3.2527 l 0.11183,-1.06057 z"
     id="path2852"
     style="fill:#ffffff;stroke:none" />
  <path
     d="m 179.37502,153.43868 c 0,0 -32.02097,4.9048 -31.87111,1.43817 0.15015,-3.47344 31.71969,-2.6508 31.71969,-2.6508 l 0.15142,1.21263 z"
     id="path2854"
     style="fill:#ffffff;stroke:none" />
  <path
     d="m 180.94418,159.57338 c 0,0 -32.0054,8.37216 -32.21873,4.90886 -0.21372,-3.47011 31.97318,-5.79658 31.97318,-5.79658 l 0.24555,0.88772 z"
     id="path2856"
     style="fill:#ffffff;stroke:none" />
  <path
     d="m 182.22936,165.85732 c 0,0 -29.92053,12.74498 -30.61378,9.34506 -0.69459,-3.4066 30.17105,-10.266 30.17105,-10.266 l 0.44273,0.92094 z"
     id="path2858"
     style="fill:#ffffff;stroke:none" />
  <path
     d="m 184.53426,171.94807 c 0,0 -27.6301,17.89286 -28.84668,14.64324 -1.21895,-3.25599 28.08779,-15.6849 28.08779,-15.6849 l 0.75889,1.04166 z"
     id="path2860"
     style="fill:#ffffff;stroke:none" />
  <path
     d="m 188.169,178.19434 c 0,0 -24.8603,21.0378 -26.5173,17.98912 -1.66024,-3.05466 25.9956,-18.918 25.9956,-18.918 l 0.5217,0.92888 z"
     id="path2862"
     style="fill:#ffffff;stroke:none" />
  <path
     d="m 191.99386,183.47752 c 0,0 -21.54136,24.14159 -23.55754,21.31756 -2.02014,-2.82955 22.80283,-22.24439 22.80283,-22.24439 l 0.75471,0.92683 z"
     id="path2864"
     style="fill:#ffffff;stroke:none" />
  <path
     d="m 196.36329,187.84504 c 0,0 -17.72502,26.75372 -20.15815,24.27986 -2.43791,-2.4787 19.3904,-25.25731 19.3904,-25.25731 l 0.76775,0.97745 z"
     id="path2866"
     style="fill:#ffffff;stroke:none" />
  <path
     d="m 201.77791,191.56593 c 0,0 -13.63527,30.14166 -16.461,28.12789 -2.83131,-2.0177 15.61655,-28.49573 15.61655,-28.49573 l 0.84445,0.36784 z"
     id="path2868"
     style="fill:#ffffff;stroke:none" />
  <path
     d="m 207.65065,194.33092 c 0,0 -9.30767,31.74599 -12.38616,30.14508 -3.08457,-1.60402 11.49873,-30.39181 11.49873,-30.39181 l 0.88743,0.24673 z"
     id="path2870"
     style="fill:#ffffff;stroke:none" />
  <path
     d="m 212.88946,195.9441 c 0,0 -5.36943,32.64367 -8.62008,31.42986 -3.25705,-1.21614 7.70919,-31.56661 7.70919,-31.56661 l 0.91089,0.13675 z"
     id="path2872"
     style="fill:#ffffff;stroke:none" />
  <path
     d="m 270.2864,143.90105 c 0,0 32.27809,-7.25009 32.37042,-3.78145 0.0925,3.47546 -32.156,4.6772 -32.156,4.6772 l -0.21442,-0.89575 z"
     id="path2887"
     style="fill:#ffffff;stroke:none" />
  <path
     d="m 270.1711,151.25736 c 0,0 32.8591,3.83639 32.58836,0.37711 -0.27129,-3.46609 -32.46875,-1.29037 -32.46875,-1.29037 l -0.11961,0.91326 z"
     id="path2889"
     style="fill:#ffffff;stroke:none" />
  <path
     d="m 270.09807,158.5998 c 0,0 32.0054,8.37217 32.21873,4.90886 0.21372,-3.47011 -31.97318,-6.06109 -31.97318,-6.06109 l -0.24555,1.15223 z"
     id="path2891"
     style="fill:#ffffff;stroke:none" />
  <path
     d="m 268.19043,163.70021 c 0,0 30.74653,12.21024 31.38034,8.79874 0.63503,-3.4182 -31.02843,-9.64992 -31.02843,-9.64992 l -0.35191,0.85118 z"
     id="path2893"
     style="fill:#ffffff;stroke:none" />
  <path
     d="m 265.61343,170.52185 c 0,0 28.74797,16.3705 29.8504,13.0804 1.10458,-3.29654 -29.38345,-13.87433 -29.38345,-13.87433 l -0.46695,0.79393 z"
     id="path2895"
     style="fill:#ffffff;stroke:none" />
  <path
     d="m 262.66164,176.25542 c 0,0 26.18986,20.21213 27.73945,17.10748 1.55262,-3.11075 -27.16655,-17.82871 -27.16655,-17.82871 l -0.5729,0.72123 z"
     id="path2897"
     style="fill:#ffffff;stroke:none" />
  <path
     d="m 258.69363,180.80586 c 0,0 22.70556,24.06028 24.72174,21.23625 2.02014,-2.82956 -24.04305,-21.85898 -24.04305,-21.85898 l -0.67869,0.62273 z"
     id="path2899"
     style="fill:#ffffff;stroke:none" />
  <path
     d="m 254.74582,185.41104 c 0,0 18.66216,27.31601 21.09529,24.84214 2.43791,-2.4787 -20.32754,-25.35102 -20.32754,-25.35102 l -0.76775,0.50888 z"
     id="path2901"
     style="fill:#ffffff;stroke:none" />
  <path
     d="m 249.44468,189.81413 c 0,0 14.6789,29.64743 17.43263,27.53627 2.75917,-2.11528 -16.60153,-27.93335 -16.60153,-27.93335 l -0.8311,0.39708 z"
     id="path2903"
     style="fill:#ffffff;stroke:none" />
  <path
     d="m 244.30927,193.06773 c 0,0 10.95637,31.21536 13.94685,29.45553 2.99639,-1.76326 -13.07356,-29.74837 -13.07356,-29.74837 l -0.87329,0.29284 z"
     id="path2905"
     style="fill:#ffffff;stroke:none" />
  <path
     d="m 237.9646,195.87521 c 0,0 5.36944,32.64367 8.62008,31.42985 3.25705,-1.21614 -7.70919,-31.56661 -7.70919,-31.56661 l -0.91089,0.13676 z"
     id="path2907"
     style="fill:#ffffff;stroke:none" />
  <path
     d="m 221.13925,102.82873 c 0,0 -4.98082,-32.705209 -1.5142,-32.555351 3.47345,0.150152 2.42272,32.403921 2.42272,32.403921 l -0.90852,0.15143 z"
     id="path2922"
     style="fill:#ffffff;stroke:none" />
  <path
     d="m 229.00609,102.82873 c 0,0 4.98082,-32.705209 1.5142,-32.555351 -3.47345,0.150152 -2.42272,32.403921 -2.42272,32.403921 l 0.90852,0.15143 z"
     id="path2924"
     style="fill:#ffffff;stroke:none" />
  <path
     d="m 234.9523,102.92009 c 0,0 8.37216,-32.005396 4.90886,-32.218727 -3.47011,-0.213719 -5.79659,31.973177 -5.79659,31.973177 l 0.88773,0.24555 z"
     id="path2926"
     style="fill:#ffffff;stroke:none" />
  <path
     d="m 241.47158,105.15501 c 0,0 12.21024,-30.746528 8.79874,-31.380344 -3.4182,-0.635029 -9.64992,31.028434 -9.64992,31.028434 l 0.85118,0.35191 z"
     id="path2928"
     style="fill:#ffffff;stroke:none" />
  <path
     d="m 247.01189,107.88343 c 0,0 17.36382,-28.159134 14.1142,-29.375715 -3.25598,-1.218949 -14.89135,28.881345 -14.89135,28.881345 l 0.77715,0.49437 z"
     id="path2930"
     style="fill:#ffffff;stroke:none" />
  <path
     d="m 251.91012,112.07572 c 0,0 21.11383,-25.468519 18.06516,-27.12552 -3.05467,-1.660233 -18.76595,26.52779 -18.76595,26.52779 l 0.70079,0.59773 z"
     id="path2932"
     style="fill:#ffffff;stroke:none" />
  <path
     d="m 256.66743,116.45299 c 0,0 24.06028,-22.705561 21.23626,-24.72174 -2.82956,-2.020136 -21.85899,24.04306 -21.85899,24.04306 l 0.62273,0.67868 z"
     id="path2934"
     style="fill:#ffffff;stroke:none" />
  <path
     d="m 260.6725,121.54667 c 0,0 27.31601,-18.66217 24.84215,-21.0953 -2.47871,-2.437911 -25.35103,20.32755 -25.35103,20.32755 l 0.50888,0.76775 z"
     id="path2936"
     style="fill:#ffffff;stroke:none" />
  <path
     d="m 264.60033,126.87988 c 0,0 29.64744,-14.6789 27.53628,-17.43263 -2.11528,-2.75917 -27.93336,16.60153 -27.93336,16.60153 l 0.39708,0.8311 z"
     id="path2938"
     style="fill:#ffffff;stroke:none" />
  <path
     d="m 267.18737,132.01969 c 0,0 31.01939,-11.49948 29.20764,-14.4588 -1.81528,-2.96517 -29.51567,13.59075 -29.51567,13.59075 l 0.30803,0.86805 z"
     id="path2940"
     style="fill:#ffffff;stroke:none" />
  <path
     d="m 268.84736,138.65414 c 0,0 32.43639,-6.5054 31.10988,-9.71171 -1.32908,-3.21263 -31.27834,8.80616 -31.27834,8.80616 l 0.16846,0.90555 z"
     id="path2942"
     style="fill:#ffffff;stroke:none" />
  <path
     d="m 208.11442,106.16536 c 0,0 -13.80265,-30.065353 -10.429,-30.876844 3.38028,-0.813056 11.26061,30.480874 11.26061,30.480874 l -0.83161,0.39597 z"
     id="path2978"
     style="fill:#ffffff;stroke:none" />
  <path
     d="m 203.25009,108.67163 c 0,0 -18.33598,-27.535994 -15.1308,-28.865246 3.21147,-1.331839 15.89023,28.344056 15.89023,28.344056 l -0.75943,0.52119 z"
     id="path2980"
     style="fill:#ffffff;stroke:none" />
  <path
     d="m 197.66919,112.84996 c 0,0 -22.41781,-24.328604 -19.46003,-26.142885 2.96359,-1.817833 20.12859,25.509295 20.12859,25.509295 l -0.66856,0.63359 z"
     id="path2982"
     style="fill:#ffffff;stroke:none" />
  <path
     d="m 192.79759,116.95454 c 0,0 -24.06028,-22.705563 -21.23625,-24.721742 2.82956,-2.020136 21.85898,24.043052 21.85898,24.043052 l -0.62273,0.67869 z"
     id="path2984"
     style="fill:#ffffff;stroke:none" />
  <path
     d="m 188.90017,121.83291 c 0,0 -27.31601,-18.66216 -24.84215,-21.09529 2.47871,-2.437914 25.35103,20.32754 25.35103,20.32754 l -0.50888,0.76775 z"
     id="path2986"
     style="fill:#ffffff;stroke:none" />
  <path
     d="m 184.86469,127.59673 c 0,0 -29.64743,-14.6789 -27.53628,-17.43263 2.11529,-2.75917 27.93336,16.60153 27.93336,16.60153 l -0.39708,0.8311 z"
     id="path2988"
     style="fill:#ffffff;stroke:none" />
  <path
     d="m 183.0764,133.4145 c 0,0 -31.57872,-9.86029 -29.92431,-12.91038 1.6576,-3.0561 30.18649,12.0274 30.18649,12.0274 l -0.26218,0.88298 z"
     id="path2990"
     style="fill:#ffffff;stroke:none" />
  <path
     d="m 181.21804,140.06314 c 0,0 -32.64367,-5.36943 -31.42985,-8.62008 1.21614,-3.25705 31.56661,7.70919 31.56661,7.70919 l -0.13676,0.91089 z"
     id="path2992"
     style="fill:#ffffff;stroke:none" />
  <use
     transform="matrix(-0.99939083,0.0348995,0.0348995,0.99939083,445.34158,-7.5770206)"
     id="use3002"
     style="fill:#ffffff;stroke:none"
     x="0"
     y="0"
     width="818"
     height="556"
     xlink:href="#path2926" />
  <path
     d="m 219.97199,196.82721 c 0,0 -1.92783,33.0261 -5.28754,32.15873 -3.36633,-0.86903 4.36735,-32.19952 4.36735,-32.19952 l 0.92019,0.0408 z"
     id="path3004"
     style="fill:#ffffff;stroke:none" />
  <path
     d="m 231.88626,196.94363 c 0,0 3.07925,32.93871 6.40664,31.95462 3.33395,-0.98599 -5.48843,-32.02748 -5.48843,-32.02748 l -0.91821,0.0729 z"
     id="path3006"
     style="fill:#ffffff;stroke:none" />
  <path
     d="m 226.47083,197.13713 c 0,0 3.83638,32.85915 0.3771,32.58834 -3.46608,-0.27126 -1.29039,-32.46871 -1.29039,-32.46871 l 0.91329,-0.11967 z"
     id="path3008"
     style="fill:#ffffff;stroke:none" />
</svg>
