<?xml version="1.0" encoding="UTF-8" standalone="no"?>
<svg
   xmlns:dc="http://purl.org/dc/elements/1.1/"
   xmlns:cc="http://creativecommons.org/ns#"
   xmlns:rdf="http://www.w3.org/1999/02/22-rdf-syntax-ns#"
   xmlns:svg="http://www.w3.org/2000/svg"
   xmlns="http://www.w3.org/2000/svg"
   xmlns:sodipodi="http://sodipodi.sourceforge.net/DTD/sodipodi-0.dtd"
   xmlns:inkscape="http://www.inkscape.org/namespaces/inkscape"
   width="540"
   height="360"
   viewBox="0 0 450 300"
   id="svg2"
   version="1.1"
   inkscape:version="0.48.2 r9819"
   sodipodi:docname="Marshall_Islands.svg">
  <metadata
     id="metadata18">
    <rdf:RDF>
      <cc:Work
         rdf:about="">
        <dc:format>image/svg+xml</dc:format>
        <dc:type
           rdf:resource="http://purl.org/dc/dcmitype/StillImage" />
      </cc:Work>
    </rdf:RDF>
  </metadata>
  <defs
     id="defs16" />
  <sodipodi:namedview
     pagecolor="#ffffff"
     bordercolor="#666666"
     borderopacity="1"
     objecttolerance="10"
     gridtolerance="10"
     guidetolerance="10"
     inkscape:pageopacity="0"
     inkscape:pageshadow="2"
     inkscape:window-width="1366"
     inkscape:window-height="695"
     id="namedview14"
     showgrid="false"
     inkscape:zoom="0.47222222"
     inkscape:cx="342"
     inkscape:cy="180"
     inkscape:window-x="-3"
     inkscape:window-y="0"
     inkscape:window-maximized="1"
     inkscape:current-layer="svg2" />
  <title
     id="title4">Flag of the Marshall Islands</title>
  <rect
     height="300"
     width="450"
     y="2.2737368e-13"
     x="0"
     id="rect6"
     style="fill:#003893" />
  <path
     d="m 99.869333,183.36917 -3.44086,-57.22581 -12,31.52689 5.354839,-33.29033 -19.763441,27.33334 13.806452,-30.7742 -26.150538,21.29033 21.290323,-26.15054 -30.774194,13.78494 27.333333,-19.74193 -33.311828,5.35484 31.526882,-12 L 16.536,100.03584 73.740301,96.594977 42.213419,84.594967 75.525247,89.949807 48.191914,70.186367 78.966108,83.992817 57.675785,57.842281 83.826323,79.132603 70.019871,48.35841 89.783312,75.691743 84.428473,42.401421 l 12,31.505376 3.44086,-57.204301 3.440857,57.204301 12,-31.505376 -5.35484,33.290322 19.74194,-27.333333 -13.80645,30.774193 26.17204,-21.290322 -21.29032,26.150536 30.77419,-13.80645 -27.33333,19.76344 33.29032,-5.35484 -31.52688,12.00001 57.22581,3.440863 -57.22581,3.44086 31.52688,12 -33.29032,-5.35484 27.33333,19.74193 -30.77419,-13.78494 21.29032,26.15054 -26.17204,-21.29033 13.80645,30.7742 -19.74194,-27.33334 5.35484,33.29033 -12,-31.52689 -3.440857,57.22581 z"
     id="path8"
     inkscape:connector-curvature="0"
     style="fill:#ffffff;fill-rule:evenodd" />
  <path
     d="m 0,295.20004 450,-172.8 V 4.8000352 L 0,285.60004 v 9.6 z"
     id="path10"
     inkscape:connector-curvature="0"
     style="fill:#ffffff;fill-rule:evenodd" />
  <path
     d="M 0,290.4 450,63.599995 V 4.7999952 L 0,285.6 v 4.8 z"
     id="path12"
     inkscape:connector-curvature="0"
     style="fill:#dd7500;fill-rule:evenodd" />
</svg>
