<?xml version="1.0" encoding="UTF-8" standalone="no"?>
<svg
   xmlns:dc="http://purl.org/dc/elements/1.1/"
   xmlns:cc="http://creativecommons.org/ns#"
   xmlns:rdf="http://www.w3.org/1999/02/22-rdf-syntax-ns#"
   xmlns:svg="http://www.w3.org/2000/svg"
   xmlns="http://www.w3.org/2000/svg"
   xmlns:sodipodi="http://sodipodi.sourceforge.net/DTD/sodipodi-0.dtd"
   xmlns:inkscape="http://www.inkscape.org/namespaces/inkscape"
   width="310pt"
   height="210pt"
   viewBox="0 0 310 210"
   version="1.1"
   id="svg2"
   inkscape:version="0.48.1 r9760"
   sodipodi:docname="messapian.svg">
  <metadata
     id="metadata14">
    <rdf:RDF>
      <cc:Work
         rdf:about="">
        <dc:format>image/svg+xml</dc:format>
        <dc:type
           rdf:resource="http://purl.org/dc/dcmitype/StillImage" />
        <dc:title></dc:title>
      </cc:Work>
    </rdf:RDF>
  </metadata>
  <defs
     id="defs12" />
  <sodipodi:namedview
     pagecolor="#ffffff"
     bordercolor="#666666"
     borderopacity="1"
     objecttolerance="10"
     gridtolerance="10"
     guidetolerance="10"
     inkscape:pageopacity="0"
     inkscape:pageshadow="2"
     inkscape:window-width="640"
     inkscape:window-height="480"
     id="namedview10"
     showgrid="false"
     inkscape:zoom="0.9752381"
     inkscape:cx="193.75"
     inkscape:cy="131.25"
     inkscape:window-x="0"
     inkscape:window-y="0"
     inkscape:window-maximized="0"
     inkscape:current-layer="svg2" />
  <g
     id="#aee7e4ff">
    <path
       fill="#aee7e4"
       opacity="1.00"
       d=" M 0.00 0.00 L 310.00 0.00 L 310.00 210.00 L 0.00 210.00 L 0.00 0.00 M 152.75 37.13 C 150.64 37.74 148.49 38.22 146.36 38.75 C 145.88 38.83 144.92 38.99 144.44 39.07 C 143.60 39.87 142.76 40.67 141.92 41.47 C 141.96 44.20 142.00 46.96 142.55 49.65 C 142.71 50.09 143.04 50.98 143.21 51.42 C 143.65 52.42 144.10 53.42 144.54 54.42 C 144.77 55.82 145.01 57.24 145.01 58.66 C 143.85 59.96 142.07 59.97 140.49 60.29 C 139.49 60.77 138.49 61.25 137.49 61.74 C 136.45 62.08 135.42 62.42 134.39 62.78 C 133.93 62.87 133.02 63.05 132.57 63.14 C 129.65 64.67 126.65 66.06 123.95 67.96 C 121.23 69.72 119.86 72.79 118.18 75.44 C 117.89 76.50 117.58 77.56 117.26 78.61 C 117.15 79.06 116.91 79.95 116.80 80.40 C 116.52 81.11 115.96 82.54 115.68 83.26 C 115.28 82.84 114.47 82.02 114.06 81.61 C 113.99 81.12 113.85 80.13 113.78 79.64 C 113.34 78.30 112.94 76.96 112.52 75.61 C 112.04 72.52 111.99 69.38 111.38 66.31 C 111.27 65.83 111.07 64.87 110.97 64.39 C 109.42 61.73 107.21 59.56 104.59 57.95 C 102.27 57.99 99.95 58.02 97.63 58.06 C 96.24 58.82 94.84 59.57 93.43 60.31 C 91.99 62.36 90.47 64.35 89.07 66.43 C 88.96 66.90 88.73 67.83 88.62 68.30 C 87.80 71.06 87.75 74.01 88.70 76.75 C 88.86 77.97 89.00 79.20 89.15 80.43 C 90.38 82.83 91.63 85.20 92.88 87.58 C 92.94 88.04 93.06 88.94 93.11 89.39 C 94.08 90.72 95.01 92.07 95.93 93.43 C 96.04 93.90 96.27 94.84 96.38 95.31 C 97.24 98.74 97.41 102.41 96.23 105.78 C 95.88 110.07 95.69 114.44 96.57 118.68 C 96.72 119.13 97.00 120.04 97.14 120.50 C 97.73 121.51 98.33 122.53 98.94 123.54 C 98.96 124.03 99.01 124.99 99.04 125.48 C 102.83 131.62 106.60 138.07 112.40 142.55 C 118.08 148.19 125.30 151.88 131.58 156.77 C 131.04 156.84 129.96 157.00 129.43 157.07 C 129.03 157.74 128.24 159.08 127.85 159.75 C 128.12 161.06 128.40 162.38 128.71 163.69 C 128.81 164.26 129.01 165.42 129.11 166.00 L 129.96 166.00 C 129.98 165.50 130.02 164.49 130.04 163.98 L 131.35 164.08 C 130.96 165.28 130.56 166.49 130.15 167.69 C 130.08 168.92 130.03 170.17 129.97 171.41 C 131.98 174.39 134.49 176.96 137.51 178.92 C 137.98 179.00 138.91 179.15 139.38 179.22 C 140.71 179.66 142.04 180.07 143.38 180.48 C 146.50 180.94 149.70 180.95 152.77 181.77 C 156.47 182.00 160.38 182.59 163.89 181.05 C 165.51 181.16 167.14 181.33 168.74 181.65 C 169.40 181.78 170.72 182.03 171.39 182.16 C 170.98 181.68 170.16 180.73 169.76 180.25 C 171.41 179.96 173.07 179.69 174.71 179.28 C 175.92 179.11 177.15 178.96 178.37 178.81 C 179.81 178.13 181.27 177.48 182.74 176.86 C 181.50 175.09 182.78 173.63 183.91 172.27 C 183.99 169.57 184.01 166.87 184.08 164.17 C 182.03 162.64 179.80 161.39 177.54 160.21 C 184.02 153.01 193.03 148.65 199.47 141.43 C 204.41 136.38 208.72 130.76 211.94 124.45 C 211.97 123.97 212.03 123.02 212.06 122.54 C 212.67 121.53 213.28 120.52 213.89 119.51 C 214.01 118.25 214.14 117.00 214.29 115.75 C 215.39 112.06 215.22 108.12 214.46 104.38 C 214.07 103.05 213.70 101.71 213.30 100.38 C 213.11 99.94 212.73 99.07 212.54 98.63 C 211.72 94.60 211.71 90.40 212.55 86.37 C 212.91 85.06 213.26 83.74 213.65 82.43 C 214.01 81.42 214.38 80.41 214.77 79.41 C 214.91 78.96 215.21 78.08 215.36 77.64 C 215.66 76.20 215.94 74.76 216.22 73.32 C 216.64 72.89 217.48 72.03 217.90 71.60 C 218.01 71.12 218.24 70.17 218.36 69.69 C 218.71 68.03 218.94 66.34 219.16 64.66 C 218.77 64.10 218.00 62.99 217.62 62.43 C 216.52 61.65 215.44 60.84 214.37 60.02 C 212.80 60.03 211.23 60.04 209.66 60.04 C 208.47 60.90 207.27 61.74 206.06 62.56 C 206.02 63.01 205.92 63.91 205.87 64.36 C 204.22 66.72 202.80 69.24 201.16 71.62 C 201.06 72.06 200.86 72.94 200.76 73.38 C 200.32 74.71 199.92 76.06 199.51 77.39 C 199.18 79.49 199.04 81.60 198.92 83.72 C 197.90 85.05 196.85 86.36 195.75 87.62 C 195.35 86.82 194.56 85.22 194.16 84.42 C 194.04 83.97 193.80 83.08 193.67 82.63 C 193.35 81.26 193.05 79.88 192.75 78.50 C 191.21 75.41 189.90 72.06 187.30 69.67 C 184.36 66.56 180.19 65.20 176.49 63.27 C 175.10 62.95 173.72 62.64 172.34 62.30 C 171.88 62.20 170.96 61.99 170.50 61.89 C 169.48 61.27 168.46 60.65 167.45 60.04 C 166.82 60.03 165.57 60.01 164.94 60.00 C 165.57 57.48 166.13 54.93 166.67 52.39 C 166.84 51.94 167.16 51.05 167.33 50.61 C 167.67 49.28 167.99 47.93 168.32 46.60 C 168.64 45.55 168.96 44.51 169.28 43.46 C 167.69 41.37 165.69 39.67 163.57 38.15 C 161.42 37.98 159.24 37.87 157.17 37.19 C 155.70 37.15 154.22 37.13 152.75 37.13 Z"
       id="path5" />
  </g>
  <g
     id="#e7852aff"
     style="fill:#d2691e">
    <path
       fill="#e7852a"
       opacity="1.00"
       d=" M 152.75 37.13 C 154.22 37.13 155.70 37.15 157.17 37.19 C 159.24 37.87 161.42 37.98 163.57 38.15 C 165.69 39.67 167.69 41.37 169.28 43.46 C 168.96 44.51 168.64 45.55 168.32 46.60 C 167.99 47.93 167.67 49.28 167.33 50.61 C 167.16 51.05 166.84 51.94 166.67 52.39 C 166.13 54.93 165.57 57.48 164.94 60.00 C 165.57 60.01 166.82 60.03 167.45 60.04 C 168.46 60.65 169.48 61.27 170.50 61.89 C 170.96 61.99 171.88 62.20 172.34 62.30 C 173.72 62.64 175.10 62.95 176.49 63.27 C 180.19 65.20 184.36 66.56 187.30 69.67 C 189.90 72.06 191.21 75.41 192.75 78.50 C 193.05 79.88 193.35 81.26 193.67 82.63 C 193.80 83.08 194.04 83.97 194.16 84.42 C 194.56 85.22 195.35 86.82 195.75 87.62 C 196.85 86.36 197.90 85.05 198.92 83.72 C 199.04 81.60 199.18 79.49 199.51 77.39 C 199.92 76.06 200.32 74.71 200.76 73.38 C 200.86 72.94 201.06 72.06 201.16 71.62 C 202.80 69.24 204.22 66.72 205.87 64.36 C 205.92 63.91 206.02 63.01 206.06 62.56 C 207.27 61.74 208.47 60.90 209.66 60.04 C 211.23 60.04 212.80 60.03 214.37 60.02 C 215.44 60.84 216.52 61.65 217.62 62.43 C 218.00 62.99 218.77 64.10 219.16 64.66 C 218.94 66.34 218.71 68.03 218.36 69.69 C 218.24 70.17 218.01 71.12 217.90 71.60 C 217.48 72.03 216.64 72.89 216.22 73.32 C 215.94 74.76 215.66 76.20 215.36 77.64 C 215.21 78.08 214.91 78.96 214.77 79.41 C 214.38 80.41 214.01 81.42 213.65 82.43 C 213.26 83.74 212.91 85.06 212.55 86.37 C 211.71 90.40 211.72 94.60 212.54 98.63 C 212.73 99.07 213.11 99.94 213.30 100.38 C 213.70 101.71 214.07 103.05 214.46 104.38 C 215.22 108.12 215.39 112.06 214.29 115.75 C 214.14 117.00 214.01 118.25 213.89 119.51 C 213.28 120.52 212.67 121.53 212.06 122.54 C 212.03 123.02 211.97 123.97 211.94 124.45 C 208.72 130.76 204.41 136.38 199.47 141.43 C 193.03 148.65 184.02 153.01 177.54 160.21 C 179.80 161.39 182.03 162.64 184.08 164.17 C 184.01 166.87 183.99 169.57 183.91 172.27 C 182.78 173.63 181.50 175.09 182.74 176.86 C 181.27 177.48 179.81 178.13 178.37 178.81 C 177.15 178.96 175.92 179.11 174.71 179.28 C 173.07 179.69 171.41 179.96 169.76 180.25 C 170.16 180.73 170.98 181.68 171.39 182.16 C 170.72 182.03 169.40 181.78 168.74 181.65 C 167.14 181.33 165.51 181.16 163.89 181.05 C 160.38 182.59 156.47 182.00 152.77 181.77 C 149.70 180.95 146.50 180.94 143.38 180.48 C 142.04 180.07 140.71 179.66 139.38 179.22 C 138.91 179.15 137.98 179.00 137.51 178.92 C 134.49 176.96 131.98 174.39 129.97 171.41 C 130.03 170.17 130.08 168.92 130.15 167.69 C 130.56 166.49 130.96 165.28 131.35 164.08 L 130.04 163.98 C 130.02 164.49 129.98 165.50 129.96 166.00 L 129.11 166.00 C 129.01 165.42 128.81 164.26 128.71 163.69 C 128.40 162.38 128.12 161.06 127.85 159.75 C 128.24 159.08 129.03 157.74 129.43 157.07 C 129.96 157.00 131.04 156.84 131.58 156.77 C 125.30 151.88 118.08 148.19 112.40 142.55 C 106.60 138.07 102.83 131.62 99.04 125.48 C 99.01 124.99 98.96 124.03 98.94 123.54 C 98.33 122.53 97.73 121.51 97.14 120.50 C 97.00 120.04 96.72 119.13 96.57 118.68 C 95.69 114.44 95.88 110.07 96.23 105.78 C 97.41 102.41 97.24 98.74 96.38 95.31 C 96.27 94.84 96.04 93.90 95.93 93.43 C 95.01 92.07 94.08 90.72 93.11 89.39 C 93.06 88.94 92.94 88.04 92.88 87.58 C 91.63 85.20 90.38 82.83 89.15 80.43 C 89.00 79.20 88.86 77.97 88.70 76.75 C 87.75 74.01 87.80 71.06 88.62 68.30 C 88.73 67.83 88.96 66.90 89.07 66.43 C 90.47 64.35 91.99 62.36 93.43 60.31 C 94.84 59.57 96.24 58.82 97.63 58.06 C 99.95 58.02 102.27 57.99 104.59 57.95 C 107.21 59.56 109.42 61.73 110.97 64.39 C 111.07 64.87 111.27 65.83 111.38 66.31 C 111.99 69.38 112.04 72.52 112.52 75.61 C 112.94 76.96 113.34 78.30 113.78 79.64 C 113.85 80.13 113.99 81.12 114.06 81.61 C 114.47 82.02 115.28 82.84 115.68 83.26 C 115.96 82.54 116.52 81.11 116.80 80.40 C 116.91 79.95 117.15 79.06 117.26 78.61 C 117.58 77.56 117.89 76.50 118.18 75.44 C 119.86 72.79 121.23 69.72 123.95 67.96 C 126.65 66.06 129.65 64.67 132.57 63.14 C 133.02 63.05 133.93 62.87 134.39 62.78 C 135.42 62.42 136.45 62.08 137.49 61.74 C 138.49 61.25 139.49 60.77 140.49 60.29 C 142.07 59.97 143.85 59.96 145.01 58.66 C 145.01 57.24 144.77 55.82 144.54 54.42 C 144.10 53.42 143.65 52.42 143.21 51.42 C 143.04 50.98 142.71 50.09 142.55 49.65 C 142.00 46.96 141.96 44.20 141.92 41.47 C 142.76 40.67 143.60 39.87 144.44 39.07 C 144.92 38.99 145.88 38.83 146.36 38.75 C 148.49 38.22 150.64 37.74 152.75 37.13 Z"
       id="path8"
       style="fill:#d2691e" />
  </g>
</svg>
