<?xml version="1.0" encoding="UTF-8" standalone="no"?>
<!-- Created with Inkscape (http://www.inkscape.org/) -->

<svg
   xmlns:dc="http://purl.org/dc/elements/1.1/"
   xmlns:cc="http://creativecommons.org/ns#"
   xmlns:rdf="http://www.w3.org/1999/02/22-rdf-syntax-ns#"
   xmlns:svg="http://www.w3.org/2000/svg"
   xmlns="http://www.w3.org/2000/svg"
   xmlns:sodipodi="http://sodipodi.sourceforge.net/DTD/sodipodi-0.dtd"
   xmlns:inkscape="http://www.inkscape.org/namespaces/inkscape"
   width="900"
   height="600"
   id="svg7061"
   version="1.1"
   inkscape:version="0.47 r22583"
   sodipodi:docname="mon.svg">
  <defs
     id="defs7063">
    <inkscape:perspective
       sodipodi:type="inkscape:persp3d"
       inkscape:vp_x="0 : 526.18109 : 1"
       inkscape:vp_y="0 : 1000 : 0"
       inkscape:vp_z="744.09448 : 526.18109 : 1"
       inkscape:persp3d-origin="372.04724 : 350.78739 : 1"
       id="perspective7069" />
    <inkscape:perspective
       id="perspective7000"
       inkscape:persp3d-origin="0.5 : 0.33333333 : 1"
       inkscape:vp_z="1 : 0.5 : 1"
       inkscape:vp_y="0 : 1000 : 0"
       inkscape:vp_x="0 : 0.5 : 1"
       sodipodi:type="inkscape:persp3d" />
    <inkscape:perspective
       id="perspective7196"
       inkscape:persp3d-origin="0.5 : 0.33333333 : 1"
       inkscape:vp_z="1 : 0.5 : 1"
       inkscape:vp_y="0 : 1000 : 0"
       inkscape:vp_x="0 : 0.5 : 1"
       sodipodi:type="inkscape:persp3d" />
    <inkscape:perspective
       id="perspective7728"
       inkscape:persp3d-origin="0.5 : 0.33333333 : 1"
       inkscape:vp_z="1 : 0.5 : 1"
       inkscape:vp_y="0 : 1000 : 0"
       inkscape:vp_x="0 : 0.5 : 1"
       sodipodi:type="inkscape:persp3d" />
  </defs>
  <sodipodi:namedview
     id="base"
     pagecolor="#ffffff"
     bordercolor="#666666"
     borderopacity="1.0"
     inkscape:pageopacity="0.0"
     inkscape:pageshadow="2"
     inkscape:zoom="0.7"
     inkscape:cx="376.76685"
     inkscape:cy="314.45653"
     inkscape:document-units="px"
     inkscape:current-layer="layer1"
     showgrid="false"
     inkscape:window-width="820"
     inkscape:window-height="681"
     inkscape:window-x="614"
     inkscape:window-y="173"
     inkscape:window-maximized="0" />
  <metadata
     id="metadata7066">
    <rdf:RDF>
      <cc:Work
         rdf:about="">
        <dc:format>image/svg+xml</dc:format>
        <dc:type
           rdf:resource="http://purl.org/dc/dcmitype/StillImage" />
        <dc:title></dc:title>
      </cc:Work>
    </rdf:RDF>
  </metadata>
  <g
     inkscape:label="Layer 1"
     inkscape:groupmode="layer"
     id="layer1"
     transform="translate(0,-452.36218)">
    <rect
       style="fill:#fbc300;fill-opacity:1;stroke:none"
       id="rect3746"
       width="900"
       height="600"
       x="0"
       y="452.36209" />
    <rect
       style="fill:#c62121;fill-opacity:1;stroke:none"
       id="rect3746-3"
       width="750"
       height="450"
       x="75"
       y="527.36218" />
    <g
       id="g7150"
       transform="matrix(4.0021307,0,0,4.0021307,-2397.2301,-2264.4069)"
       style="fill:#fbc300;fill-opacity:1">
      <path
         style="fill:#fbc300;fill-opacity:1;fill-rule:evenodd;stroke:#1f1a17;stroke-width:0.81"
         d="m 707.46999,713.1728 c 4.37315,-4.62578 9.98149,-0.0159 8.51102,0.48898 -1.53921,0.52902 -2.69575,1.39535 -1.97575,2.24752 1.88256,2.22732 5.63209,4.21831 3.23717,10.60724 -3.33957,-0.20976 -6.67878,-0.41952 -10.01799,-0.62893 -2.13555,-2.71737 -2.88107,-9.40678 0.24555,-12.71481 z"
         id="_150953856" />
      <path
         style="fill:#fbc300;fill-opacity:1;fill-rule:evenodd;stroke:#1f1a17;stroke-width:0.81"
         d="m 721.64463,714.26768 c 5.69445,-2.84562 9.38126,3.40831 7.82681,3.37855 -1.62708,-0.0312 -3.01074,0.38586 -2.62665,1.43362 1.00453,2.73791 3.84378,5.89358 -0.59705,11.0739 -3.06531,-1.34256 -6.12992,-2.68477 -9.19488,-4.02697 -1.07398,-3.285 0.52016,-9.82417 4.59177,-11.8591 z"
         id="_162767224" />
      <path
         style="fill:#fbc300;fill-opacity:1;fill-rule:evenodd;stroke:#1f1a17;stroke-width:0.81"
         d="m 734.58125,720.1602 c 6.3248,-0.71964 7.64326,6.41906 6.19334,5.85815 -1.5176,-0.58748 -2.96078,-0.67003 -2.95901,0.44575 0.005,2.91614 1.58917,6.85453 -4.35898,10.19729 -2.41901,-2.31237 -4.83768,-4.62437 -7.25634,-6.93638 0.11799,-3.45402 3.85831,-9.04996 8.38099,-9.56481 z"
         id="_117774000" />
      <path
         style="fill:#fbc300;fill-opacity:1;fill-rule:evenodd;stroke:#1f1a17;stroke-width:0.81"
         d="m 744.7151,730.13461 c 6.18804,1.49315 4.978,8.65134 3.80871,7.62697 -1.22457,-1.0722 -2.55154,-1.6448 -2.9328,-0.59634 -0.99567,2.74111 -0.85819,6.98386 -7.59189,8.0837 -1.47933,-3.00153 -2.95831,-6.00271 -4.43693,-9.00389 1.29508,-3.20422 6.72803,-7.17803 11.15291,-6.11044 z"
         id="_113275456" />
      <path
         style="fill:#fbc300;fill-opacity:1;fill-rule:evenodd;stroke:#1f1a17;stroke-width:0.81"
         d="m 750.81314,742.97556 c 5.30043,3.52488 1.70858,9.83374 0.96165,8.47063 -0.78236,-1.42725 -1.8326,-2.42008 -2.55047,-1.56579 -1.87548,2.23299 -3.20138,6.26599 -9.9039,4.98933 -0.36,-3.32681 -0.72,-6.65327 -1.07965,-9.97972 2.31556,-2.56571 8.78174,-4.43481 12.57237,-1.91445 z"
         id="_115529496" />
      <path
         style="fill:#fbc300;fill-opacity:1;fill-rule:evenodd;stroke:#1f1a17;stroke-width:0.81"
         d="m 752.13479,757.13107 c 3.77008,5.12929 -1.76776,9.82346 -2.00197,8.28673 -0.2452,-1.60866 -0.89114,-2.90161 -1.85846,-2.34531 -2.5278,1.45417 -5.15622,4.78771 -11.01473,1.28976 0.80327,-3.2485 1.60583,-6.49665 2.40874,-9.7448 3.0554,-1.61575 9.77032,-1.1537 12.46642,2.51362 z"
         id="_162760864" />
      <path
         style="fill:#fbc300;fill-opacity:1;fill-rule:evenodd;stroke:#1f1a17;stroke-width:0.81"
         d="m 748.52062,770.88264 c 1.78228,6.11115 -5.02973,8.62122 -4.72252,7.09725 0.32137,-1.5952 0.15803,-3.0313 -0.94111,-2.84067 -2.87326,0.49925 -6.48602,2.72905 -10.78901,-2.56606 1.86838,-2.77618 3.73677,-5.55166 5.6048,-8.32748 3.4239,-0.46985 9.57331,2.267 10.84784,6.63696 z"
         id="_154379128" />
      <path
         style="fill:#fbc300;fill-opacity:1;fill-rule:evenodd;stroke:#1f1a17;stroke-width:0.81"
         d="m 740.41353,782.55784 c -0.42201,6.35173 -7.68154,6.37299 -6.87047,5.04709 0.84897,-1.38862 1.18807,-2.79355 0.09,-2.99126 -2.87008,-0.51662 -7.02815,0.33874 -9.25441,-6.11079 2.70744,-1.96689 5.41417,-3.93342 8.12126,-5.89996 3.37748,0.73311 8.21516,5.41276 7.91362,9.95492 z"
         id="_154331904" />
      <path
         style="fill:#fbc300;fill-opacity:1;fill-rule:evenodd;stroke:#1f1a17;stroke-width:0.81"
         d="m 728.79148,790.74642 c -2.57492,5.82166 -9.40145,3.35197 -8.18468,2.38465 1.27346,-1.01303 2.0739,-2.21669 1.11047,-2.77902 -2.51894,-1.46976 -6.71811,-2.09232 -6.59728,-8.91425 3.21767,-0.91878 6.435,-1.83791 9.65197,-2.75669 2.92145,1.84712 5.86027,7.90228 4.01952,12.06531 z"
         id="_154318296" />
      <path
         style="fill:#fbc300;fill-opacity:1;fill-rule:evenodd;stroke:#1f1a17;stroke-width:0.81"
         d="m 715.06471,794.44918 c -4.41531,4.58539 -9.98079,-0.0762 -8.50606,-0.56728 1.54382,-0.51485 2.7085,-1.37091 1.9963,-2.22945 -1.86201,-2.24469 -5.59311,-4.26969 -3.13973,-10.6363 3.3378,0.24023 6.67489,0.48047 10.01233,0.72071 2.11039,2.73685 2.79425,9.43299 -0.36284,12.71232 z"
         id="_154284480" />
      <path
         style="fill:#fbc300;fill-opacity:1;fill-rule:evenodd;stroke:#1f1a17;stroke-width:0.81"
         d="m 700.9007,793.2232 c -5.72032,2.79283 -9.34973,-3.49441 -7.79563,-3.45012 1.62673,0.0461 3.01429,-0.35859 2.63976,-1.40953 -0.97937,-2.74713 -3.78957,-5.92902 0.69874,-11.06787 3.05291,1.37055 6.10512,2.74074 9.15768,4.11094 1.04386,3.29492 -0.61051,9.81921 -4.70055,11.81658 z"
         id="_164151392" />
      <path
         style="fill:#fbc300;fill-opacity:1;fill-rule:evenodd;stroke:#1f1a17;stroke-width:0.81"
         d="m 688.01723,787.2102 c -6.33118,0.66154 -7.58374,-6.48921 -6.13913,-5.91484 1.51228,0.6013 2.95441,0.69732 2.96291,-0.41846 0.0223,-2.91615 -1.5261,-6.86906 4.45252,-10.15689 2.39776,2.33433 4.7948,4.66866 7.19221,7.00263 -0.14953,3.45296 -3.94122,9.01418 -8.46851,9.48756 z"
         id="_116270216" />
      <path
         style="fill:#fbc300;fill-opacity:1;fill-rule:evenodd;stroke:#1f1a17;stroke-width:0.81"
         d="m 677.97727,777.14721 c -6.17421,-1.5502 -4.89827,-8.69669 -3.73819,-7.66169 1.21429,1.08319 2.53595,1.66819 2.92677,0.62291 1.02119,-2.73153 0.92233,-6.97571 7.66595,-8.01354 1.45169,3.015 2.90303,6.03 4.35437,9.04464 -1.32484,3.19217 -6.79394,7.11567 -11.2089,6.00768 z"
         id="_160501992" />
      <path
         style="fill:#fbc300;fill-opacity:1;fill-rule:evenodd;stroke:#1f1a17;stroke-width:0.81"
         d="m 671.9983,764.24603 c -5.26784,-3.57378 -1.61823,-9.84933 -0.88371,-8.47913 0.76926,1.43433 1.81028,2.43673 2.5356,1.58917 1.89602,-2.21563 3.25913,-6.23622 9.9496,-4.89827 0.32953,3.33 0.6587,6.65965 0.98788,9.98929 -2.3393,2.5441 -8.82213,4.35402 -12.58937,1.79894 z"
         id="_154211048" />
      <path
         style="fill:#fbc300;fill-opacity:1;fill-rule:evenodd;stroke:#1f1a17;stroke-width:0.81"
         d="m 670.80597,750.07989 c -3.7226,-5.16366 1.85811,-9.80681 2.07815,-8.26795 0.23032,1.61114 0.86457,2.90976 1.83685,2.36232 2.54091,-1.43079 5.20016,-4.74024 11.02607,-1.18843 -0.83304,3.24107 -1.66571,6.48142 -2.49839,9.72213 -3.06992,1.5874 -9.78024,1.06406 -12.44268,-2.62807 z"
         id="_62321232" />
      <path
         style="fill:#fbc300;fill-opacity:1;fill-rule:evenodd;stroke:#1f1a17;stroke-width:0.81"
         d="m 674.54487,736.36375 c -1.72594,-6.12744 5.10874,-8.57481 4.78772,-7.05366 -0.33591,1.59236 -0.18603,3.02988 0.91488,2.84882 2.87787,-0.47268 6.51083,-2.66882 10.76492,2.66527 -1.8939,2.75882 -3.78744,5.51728 -5.68098,8.27575 -3.42815,0.43831 -9.55205,-2.35488 -10.78654,-6.73618 z"
         id="_164232344" />
      <path
         style="fill:#fbc300;fill-opacity:1;fill-rule:evenodd;stroke:#1f1a17;stroke-width:0.81"
         d="m 682.76109,724.76296 c 0.48047,-6.34748 7.74,-6.30213 6.91654,-4.98366 -0.86174,1.38047 -1.21359,2.78256 -0.11764,2.9902 2.86547,0.54319 7.03134,-0.27426 9.19807,6.19582 -2.72516,1.94174 -5.44996,3.88347 -8.17512,5.8252 -3.37039,-0.76429 -8.16484,-5.48823 -7.82185,-10.02756 z"
         id="_164244648" />
      <path
         style="fill:#fbc300;fill-opacity:1;fill-rule:evenodd;stroke:#1f1a17;stroke-width:0.81"
         d="m 694.45826,716.68422 c 2.62842,-5.79791 9.43228,-3.26551 8.20629,-2.30917 -1.28267,1.00098 -2.09444,2.1972 -1.13598,2.76838 2.50547,1.4928 6.69898,2.15398 6.51508,8.97449 -3.22583,0.88937 -6.4513,1.77874 -9.67713,2.66811 -2.90409,-1.87405 -5.78728,-7.95579 -3.90826,-12.10181 z"
         id="_164242168" />
      <path
         id="_154546232"
         d="m 711.65392,782.37005 c 15.68481,0 28.41449,-12.72969 28.41449,-28.41449 0,-15.68516 -12.72968,-28.52823 -28.41449,-28.52823 -15.79854,0 -28.52822,12.84307 -28.52822,28.52823 0,15.6848 12.72968,28.41449 28.52822,28.41449 z"
         style="fill:#fbc300;fill-opacity:1;fill-rule:evenodd;stroke:#1f1a17;stroke-width:0.81" />
      <path
         id="_154572728"
         d="m 711.65392,779.07477 c 13.86638,0 25.11851,-11.25213 25.11851,-25.1185 0,-13.86638 -11.25213,-25.11851 -25.11851,-25.11851 -13.98011,0 -25.1185,11.25213 -25.1185,25.11851 0,13.86637 11.13839,25.1185 25.1185,25.1185 z"
         style="fill:#fbc300;fill-opacity:1;fill-rule:evenodd;stroke:#1f1a17;stroke-width:0.81" />
      <path
         id="_154577752"
         d="m 709.8355,737.58973 c -3.75095,-3.86433 -10.91126,-5.00102 -15.00307,-1.25043"
         style="fill:#fbc300;fill-opacity:1;stroke:#1f1a17;stroke-width:0.81" />
      <path
         id="_154588536"
         d="m 707.44837,740.31808 c -3.63685,-3.40973 -9.09248,-2.95512 -13.07055,-0.34087"
         style="fill:#fbc300;fill-opacity:1;stroke:#1f1a17;stroke-width:0.81" />
      <path
         id="_154602888"
         d="m 709.38054,744.29721 c -4.54606,-4.09145 -10.11543,-6.36484 -15.6848,-2.38677 -2.72764,1.93217 16.59437,3.1826 15.6848,2.38677 z"
         style="fill:#fbc300;fill-opacity:1;fill-rule:evenodd;stroke:#1f1a17;stroke-width:0.81" />
      <path
         id="_118056312"
         d="m 709.8355,747.4791 c 0.22713,1.13634 0.56799,2.27303 0.34087,3.52347"
         style="fill:#fbc300;fill-opacity:1;stroke:#1f1a17;stroke-width:0.81" />
      <path
         id="_116054408"
         d="m 706.6529,752.13855 c -0.45461,0.90921 -2.38677,1.13669 -1.81842,2.27339 1.25007,2.38677 4.6598,1.25008 6.59196,2.84137 0.34122,0.34087 -0.56834,1.5913 -0.4546,2.38678"
         style="fill:#fbc300;fill-opacity:1;stroke:#1f1a17;stroke-width:0.81" />
      <path
         id="_61518024"
         d="m 711.42644,761.23068 c -1.36381,-1.02296 -3.29598,-1.25044 -4.09145,-0.56835 -1.81878,1.70504 -3.97807,2.27303 -6.13772,2.15965 3.52347,0.22712 6.70571,0.56834 9.77457,0.79547"
         style="fill:#fbc300;fill-opacity:1;stroke:#1f1a17;stroke-width:0.81" />
      <path
         id="_61155712"
         d="m 701.19727,762.82162 c 3.86433,0.11339 6.2511,6.70571 9.77457,4.31894"
         style="fill:#fbc300;fill-opacity:1;stroke:#1f1a17;stroke-width:0.81" />
      <path
         id="_114242840"
         d="m 703.92526,773.05115 c 2.27303,2.15964 5.34189,2.84138 8.29701,2.38677"
         style="fill:#fbc300;fill-opacity:1;stroke:#1f1a17;stroke-width:0.81" />
      <path
         id="_113050728"
         d="m 713.58715,737.58973 c 3.86433,-3.75094 11.025,-4.54642 15.00307,-0.68208"
         style="fill:#fbc300;fill-opacity:1;stroke:#1f1a17;stroke-width:0.81" />
      <path
         id="_114317568"
         d="m 715.85841,740.43146 c 3.75095,-3.29598 9.20658,-2.72763 13.07091,0"
         style="fill:#fbc300;fill-opacity:1;stroke:#1f1a17;stroke-width:0.81" />
      <path
         id="_115903392"
         d="m 713.81392,744.29721 c 4.66016,-3.86433 10.34327,-6.02397 15.79855,-1.81842 2.61425,1.93216 -16.82114,2.61425 -15.79855,1.81842 z"
         style="fill:#fbc300;fill-opacity:1;fill-rule:evenodd;stroke:#1f1a17;stroke-width:0.81" />
      <path
         id="_114214472"
         d="m 713.247,747.4791 c -0.22749,1.13634 -0.56835,2.27303 -0.45461,3.52347"
         style="fill:#fbc300;fill-opacity:1;stroke:#1f1a17;stroke-width:0.81" />
      <path
         id="_151262224"
         d="m 716.3155,752.25194 c 0.45461,1.02295 2.27338,1.25043 1.70504,2.38677 -1.36382,2.38677 -4.66016,1.13669 -6.59232,2.61425 -0.34087,0.34087 0.4546,1.5913 0.34122,2.38677"
         style="fill:#fbc300;fill-opacity:1;stroke:#1f1a17;stroke-width:0.81" />
      <path
         id="_61786088"
         d="m 711.31306,761.23068 c 1.36382,-1.02296 3.29598,-1.1367 4.09145,-0.45461 1.70504,1.70469 3.86434,2.38677 6.13772,2.38677 -3.6372,0 -6.81945,0.34087 -9.88831,0.45461"
         style="fill:#fbc300;fill-opacity:1;stroke:#1f1a17;stroke-width:0.81" />
      <path
         id="_115495560"
         d="m 721.54188,763.16178 c -3.97807,-0.11374 -5.22851,6.02397 -10.11579,3.97807"
         style="fill:#fbc300;fill-opacity:1;stroke:#1f1a17;stroke-width:0.81" />
      <path
         id="_118730720"
         d="m 718.47337,773.27792 c -2.38677,2.15965 -5.45563,2.61425 -8.41074,2.15965"
         style="fill:#fbc300;fill-opacity:1;stroke:#1f1a17;stroke-width:0.81" />
    </g>
  </g>
</svg>
