<?xml version="1.0" encoding="UTF-8" standalone="no"?>
<!-- Created with Inkscape (http://www.inkscape.org/) -->
<svg
   xmlns:dc="http://purl.org/dc/elements/1.1/"
   xmlns:cc="http://web.resource.org/cc/"
   xmlns:rdf="http://www.w3.org/1999/02/22-rdf-syntax-ns#"
   xmlns:svg="http://www.w3.org/2000/svg"
   xmlns="http://www.w3.org/2000/svg"
   xmlns:sodipodi="http://inkscape.sourceforge.net/DTD/sodipodi-0.dtd"
   xmlns:inkscape="http://www.inkscape.org/namespaces/inkscape"
   version="1.0"
   x="0.0000000"
   y="0.0000000"
   width="360.00000pt"
   height="300.00000"
   id="svg955"
   sodipodi:version="0.32"
   inkscape:version="0.42"
   sodipodi:docname="Flag_of_Mongolia.svg"
   sodipodi:docbase="/Users/daniel/Desktop">
  <metadata
     id="metadata1090">
    <rdf:RDF>
      <cc:Work
         rdf:about="">
        <dc:format>image/svg+xml</dc:format>
        <dc:type
           rdf:resource="http://purl.org/dc/dcmitype/StillImage" />
      </cc:Work>
    </rdf:RDF>
  </metadata>
  <sodipodi:namedview
     id="base"
     pagecolor="#ffffff"
     bordercolor="#666666"
     borderopacity="1.0"
     inkscape:pageopacity="0.0"
     inkscape:pageshadow="2"
     inkscape:zoom="1.1083333"
     inkscape:cx="299.05264"
     inkscape:cy="144.07271"
     inkscape:window-width="756"
     inkscape:window-height="540"
     inkscape:window-x="12"
     inkscape:window-y="119"
     inkscape:current-layer="svg955" />
  <defs
     id="defs957" />
  <rect
     width="450.00000"
     height="300.00000"
     x="0.0000000"
     y="-0.00026953124"
     style="fill:#e90649;fill-opacity:1.0000000;fill-rule:evenodd;stroke:none;stroke-width:1.0000000pt;stroke-linecap:butt;stroke-linejoin:miter;stroke-opacity:1.0000000"
     id="rect964" />
  <rect
     width="150.00000"
     height="300.00000"
     x="150.00000"
     y="-0.00026953124"
     style="fill:#0082d1;fill-opacity:1.0000000;fill-rule:evenodd;stroke:none;stroke-width:1.0000000pt;stroke-linecap:butt;stroke-linejoin:miter;stroke-opacity:1.0000000"
     id="rect1586" />
  <g
     id="g1323"
     transform="translate(-25.00000,0.000000)">
    <rect
       id="rect3450"
       style="fill:#ffce00;fill-opacity:1.0000000;fill-rule:evenodd;stroke:none;stroke-width:1.0000000pt;stroke-linecap:butt;stroke-linejoin:miter;stroke-opacity:1.0000000"
       y="141.69202"
       x="40.000004"
       height="130.90907"
       width="27.272724" />
    <rect
       id="rect4072"
       style="fill:#ffce00;fill-opacity:1.0000000;fill-rule:evenodd;stroke:none;stroke-width:1.0000000pt;stroke-linecap:butt;stroke-linejoin:miter;stroke-opacity:1.0000000"
       y="141.69202"
       x="132.72726"
       height="130.90907"
       width="27.272724" />
    <path
       id="path4073"
       style="fill:#ffce00;fill-opacity:1.0000000;fill-rule:evenodd;stroke:none;stroke-width:1.0000000pt;stroke-linecap:butt;stroke-linejoin:miter;stroke-opacity:1.0000000"
       d="M 72.727275,256.23745 L 127.27272,256.23745 L 100.00000,272.60109 L 72.727275,256.23745 z " />
    <path
       id="path4695"
       style="fill:#ffce00;fill-opacity:1.0000000;fill-rule:evenodd;stroke:none;stroke-width:1.0000000pt;stroke-linecap:butt;stroke-linejoin:miter;stroke-opacity:1.0000000"
       d="M 72.727275,141.69201 L 127.27272,141.69201 L 100.00000,158.05564 L 72.727275,141.69201 z " />
    <rect
       id="rect4696"
       style="fill:#ffce00;fill-opacity:1.0000000;fill-rule:evenodd;stroke:none;stroke-width:1.0000000pt;stroke-linecap:butt;stroke-linejoin:miter;stroke-opacity:1.0000000"
       y="239.87383"
       x="72.727272"
       height="10.909090"
       width="54.545448" />
    <rect
       id="rect5318"
       style="fill:#ffce00;fill-opacity:1.0000000;fill-rule:evenodd;stroke:none;stroke-width:1.0000000pt;stroke-linecap:butt;stroke-linejoin:miter;stroke-opacity:1.0000000"
       y="163.51019"
       x="72.727272"
       height="10.909090"
       width="54.545448" />
    <path
       id="path5343"
       style="fill:#ffce00;fill-opacity:1.0000000;fill-rule:evenodd;stroke:none;stroke-width:1.0000000pt;stroke-linecap:butt;stroke-linejoin:miter;stroke-opacity:1.0000000"
       d="M 127.27243,207.14821 C 127.27243,222.21043 115.06203,234.42076 99.999724,234.42076 C 84.937419,234.42076 72.727015,222.21043 72.727015,207.14821 C 72.727015,192.08598 84.937419,179.87565 99.999724,179.87565 C 115.06203,179.87565 127.27243,192.08598 127.27243,207.14821 z " />
    <path
       id="path9072"
       style="fill:#e90649;fill-opacity:1.0000000;fill-rule:evenodd;stroke:none;stroke-width:1.0000000pt;stroke-linecap:butt;stroke-linejoin:miter;stroke-opacity:1.0000000"
       d="M 99.999758,237.14620 C 91.334124,237.15300 84.305624,230.13008 84.305624,221.46450 C 84.305624,212.79892 91.334124,205.77600 99.999758,205.78279 L 99.999758,221.46450 L 99.999758,237.14620 z " />
    <path
       id="path10316"
       style="fill:#ffce00;fill-opacity:1.0000000;fill-rule:evenodd;stroke:none;stroke-width:1.0000000pt;stroke-linecap:butt;stroke-linejoin:miter;stroke-opacity:1.0000000"
       d="M 112.92715,221.46463 C 112.92715,228.61924 107.12721,234.41918 99.972626,234.41918 C 92.818038,234.41918 87.018101,228.61924 87.018101,221.46463 C 87.018101,214.31002 92.818038,208.51007 99.972626,208.51007 C 107.12721,208.51007 112.92715,214.31002 112.92715,221.46463 z " />
    <path
       id="path10938"
       style="fill:#e90649;fill-opacity:1.0000000;fill-rule:evenodd;stroke:none;stroke-width:1.0000000pt;stroke-linecap:butt;stroke-linejoin:miter;stroke-opacity:1.0000000"
       d="M 99.999758,177.14779 C 108.65579,177.15459 115.66929,184.17353 115.66929,192.82950 C 115.66929,201.48547 108.65579,208.50440 99.999758,208.51120 L 99.999758,192.82950 L 99.999758,177.14779 z " />
    <path
       id="path10939"
       style="fill:#ffce00;fill-opacity:1.0000000;fill-rule:evenodd;stroke:none;stroke-width:1.0000000pt;stroke-linecap:butt;stroke-linejoin:miter;stroke-opacity:1.0000000"
       d="M 112.95421,192.82913 C 112.95421,199.98374 107.15427,205.78368 99.999686,205.78368 C 92.845098,205.78368 87.045161,199.98374 87.045161,192.82913 C 87.045161,185.67452 92.845098,179.87457 99.999686,179.87457 C 107.15427,179.87457 112.95421,185.67452 112.95421,192.82913 z " />
    <path
       id="path5965"
       style="fill:#e90649;fill-opacity:1.0000000;fill-rule:evenodd;stroke:none;stroke-width:1.0000000pt;stroke-linecap:butt;stroke-linejoin:miter;stroke-opacity:1.0000000"
       d="M 105.45429,221.60160 C 105.45429,224.61405 103.01221,227.05613 99.999757,227.05613 C 96.987302,227.05613 94.545225,224.61405 94.545225,221.60160 C 94.545225,218.58914 96.987302,216.14707 99.999757,216.14707 C 103.01221,216.14707 105.45429,218.58914 105.45429,221.60160 z " />
    <path
       id="path6587"
       style="fill:#e90649;fill-opacity:1.0000000;fill-rule:evenodd;stroke:none;stroke-width:1.0000000pt;stroke-linecap:butt;stroke-linejoin:miter;stroke-opacity:1.0000000"
       d="M 105.45429,192.69250 C 105.45429,195.70495 103.01221,198.14703 99.999757,198.14703 C 96.987302,198.14703 94.545225,195.70495 94.545225,192.69250 C 94.545225,189.68004 96.987302,187.23797 99.999757,187.23797 C 103.01221,187.23797 105.45429,189.68004 105.45429,192.69250 z " />
    <path
       id="path12803"
       style="fill:#ffce00;fill-opacity:1.0000000;fill-rule:evenodd;stroke:none;stroke-width:1.0000000pt;stroke-linecap:butt;stroke-linejoin:miter;stroke-opacity:1.0000000"
       d="M 130.00027,106.23830 C 130.00027,122.80685 116.56882,136.23830 100.00026,136.23830 C 83.431713,136.23830 70.000254,122.80685 70.000254,106.23830 C 70.000254,89.669740 83.431713,76.238297 100.00026,76.238297 C 116.56882,76.238297 130.00027,89.669740 130.00027,106.23830 z " />
    <path
       id="path12804"
       style="fill:#e90649;fill-opacity:1.0000000;fill-rule:evenodd;stroke:none;stroke-width:1.0000000pt;stroke-linecap:butt;stroke-linejoin:miter;stroke-opacity:1.0000000"
       d="M 132.72729,92.601487 C 132.72729,110.67626 118.07479,125.32873 100.00001,125.32873 C 81.925226,125.32873 67.272725,110.67626 67.272725,92.601487 C 67.272725,74.526713 81.925226,59.874241 100.00001,59.874241 C 118.07479,59.874241 132.72729,74.526713 132.72729,92.601487 z " />
    <path
       id="path14048"
       style="fill:#ffce00;fill-opacity:1.0000000;fill-rule:evenodd;stroke:none;stroke-width:1.0000000pt;stroke-linecap:butt;stroke-linejoin:miter;stroke-opacity:1.0000000"
       d="M 121.81807,98.057093 C 121.81807,110.10695 112.04975,119.87528 99.999897,119.87528 C 87.950048,119.87528 78.181719,110.10695 78.181719,98.057093 C 78.181719,86.007232 87.950048,76.238909 99.999897,76.238909 C 112.04975,76.238909 121.81807,86.007232 121.81807,98.057093 z " />
    <path
       id="rect5472"
       d="M 99.468750,27.437500 C 95.320206,30.447598 98.430088,35.293256 98.125000,37.875000 C 97.795762,40.660920 96.408653,41.224189 95.781250,43.500000 C 94.985456,46.386589 95.377564,49.376900 95.968750,50.562500 C 96.505735,51.639400 96.900677,52.579786 97.093750,53.406250 C 97.108893,53.471071 97.143912,53.530121 97.156250,53.593750 C 97.160670,53.607993 97.152058,53.641908 97.156250,53.656250 C 97.157642,53.664144 97.154903,53.679624 97.156250,53.687500 C 97.162366,53.709086 97.181906,53.728200 97.187500,53.750000 C 97.198687,53.793600 97.209693,53.830586 97.218750,53.875000 C 97.221014,53.886103 97.216621,53.895098 97.218750,53.906250 C 97.220300,53.919116 97.217332,53.924681 97.218750,53.937500 C 97.220344,53.946460 97.217244,53.959760 97.218750,53.968750 C 97.243604,54.117082 97.281372,54.250834 97.281250,54.406250 C 97.282428,55.913313 96.038315,57.156250 94.531250,57.156250 C 93.024184,57.156252 91.811319,55.913315 91.812500,54.406250 C 91.812482,54.382702 91.811925,54.367155 91.812500,54.343750 C 91.813075,54.320345 91.811339,54.304506 91.812500,54.281250 C 91.813777,54.255669 91.841772,54.244141 91.843750,54.218750 C 91.844289,54.211825 91.843159,54.194410 91.843750,54.187500 C 91.844633,54.172913 91.842631,54.139540 91.843750,54.125000 C 91.844906,54.113533 91.842452,54.105175 91.843750,54.093750 C 91.845100,54.079255 91.842174,54.076951 91.843750,54.062500 C 91.846627,54.039737 91.840315,54.022585 91.843750,54.000000 C 91.849147,53.956776 91.867673,53.917865 91.875000,53.875000 C 91.877264,53.863897 91.872601,53.854804 91.875000,53.843750 C 91.876324,53.836625 91.873625,53.819616 91.875000,53.812500 C 91.877026,53.803697 91.872889,53.790020 91.875000,53.781250 C 91.877850,53.767035 91.903202,53.764180 91.906250,53.750000 C 91.909047,53.739100 91.903322,53.729597 91.906250,53.718750 C 91.912733,53.690456 91.930267,53.653169 91.937500,53.625000 C 91.939443,53.618571 91.935511,53.600159 91.937500,53.593750 C 91.943196,53.572667 91.962658,53.552271 91.968750,53.531250 C 91.974842,53.510229 91.962276,53.458464 91.968750,53.437500 C 92.404675,52.025953 93.691942,50.755204 93.687500,48.906250 C 93.681609,46.459909 92.028948,45.231427 91.656250,44.468750 C 91.393544,43.931033 90.962701,42.423143 91.593750,40.906250 C 90.440958,42.324808 89.148892,43.410078 89.156250,44.968750 C 89.161744,46.133144 89.811310,47.303811 89.750000,49.000000 C 89.678874,50.968042 86.491901,52.228352 86.375000,57.156250 C 86.375000,64.687418 92.468836,70.781253 100.00000,70.781250 C 107.53116,70.781250 113.62500,64.687419 113.62500,57.156250 C 113.50810,52.228352 110.32113,50.968042 110.25000,49.000000 C 110.18869,47.303811 110.83825,46.133144 110.84375,44.968750 C 110.85111,43.410078 109.55904,42.324808 108.40625,40.906250 C 109.03730,42.423143 108.60645,43.931033 108.34375,44.468750 C 107.97105,45.231427 106.31839,46.459909 106.31250,48.906250 C 106.30806,50.755204 107.59532,52.025953 108.03125,53.437500 C 108.03438,53.445822 108.02819,53.460390 108.03125,53.468750 C 108.03337,53.475744 108.02918,53.493000 108.03125,53.500000 C 108.03494,53.510510 108.02768,53.520682 108.03125,53.531250 C 108.03734,53.552271 108.05680,53.572667 108.06250,53.593750 C 108.07389,53.635916 108.08403,53.676308 108.09375,53.718750 C 108.10839,53.772984 108.11368,53.819483 108.12500,53.875000 C 108.12988,53.903577 108.15221,53.940016 108.15625,53.968750 C 108.16502,54.022778 108.15070,54.069957 108.15625,54.125000 C 108.15849,54.154080 108.15496,54.189481 108.15625,54.218750 C 108.15823,54.244141 108.18622,54.255669 108.18750,54.281250 C 108.18764,54.288604 108.18742,54.305133 108.18750,54.312500 C 108.18793,54.324166 108.18721,54.332047 108.18750,54.343750 C 108.18807,54.367155 108.18752,54.382702 108.18750,54.406250 C 108.18868,55.913313 106.97582,57.156250 105.46875,57.156250 C 104.29136,57.156251 103.28817,56.388775 102.90625,55.343750 C 102.90319,55.335390 102.90923,55.320898 102.90625,55.312500 C 102.80508,55.026960 102.71850,54.726501 102.71875,54.406250 C 102.71862,54.241415 102.75335,54.094296 102.78125,53.937500 C 102.78524,53.915101 102.77672,53.897207 102.78125,53.875000 C 102.78850,53.839469 102.80389,53.816264 102.81250,53.781250 C 102.81751,53.753359 102.83817,53.715290 102.84375,53.687500 C 102.84987,53.665914 102.83712,53.615115 102.84375,53.593750 C 102.84988,53.566067 102.86835,53.558818 102.87500,53.531250 C 102.88571,53.499546 102.89442,53.468670 102.90625,53.437500 C 102.90863,53.428351 102.90382,53.415385 102.90625,53.406250 C 103.16668,52.428817 103.72280,51.534355 103.96875,50.875000 C 104.41140,49.688267 105.32817,47.737448 105.31250,45.250000 C 105.30067,43.371279 104.86091,39.165450 102.56250,35.906250 C 100.72384,33.299020 99.533653,32.180524 98.906250,30.500000 C 98.586341,29.643267 98.839729,28.537797 99.468750,27.437500 z "
       style="fill:#ffce00;fill-opacity:1.0000000;fill-rule:nonzero;stroke:none;stroke-width:1.8750000;stroke-linecap:round;stroke-linejoin:round;stroke-miterlimit:4.0000000;stroke-opacity:1.0000000" />
  </g>
</svg>
