<?xml version="1.0" encoding="UTF-8" standalone="no"?>
<!-- Created with Sodipodi ("http://www.sodipodi.com/") -->
<svg
   xmlns:dc="http://purl.org/dc/elements/1.1/"
   xmlns:cc="http://web.resource.org/cc/"
   xmlns:rdf="http://www.w3.org/1999/02/22-rdf-syntax-ns#"
   xmlns:svg="http://www.w3.org/2000/svg"
   xmlns="http://www.w3.org/2000/svg"
   xmlns:sodipodi="http://inkscape.sourceforge.net/DTD/sodipodi-0.dtd"
   xmlns:inkscape="http://www.inkscape.org/namespaces/inkscape"
   id="svg2560"
   sodipodi:version="0.32"
   width="659.06000px"
   height="439.37000px"
   sodipodi:docbase="/Users/daniel/Desktop"
   sodipodi:docname="nato.svg"
   inkscape:version="0.42">
  <metadata
     id="metadata21">
    <rdf:RDF>
      <cc:Work
         rdf:about="">
        <dc:format>image/svg+xml</dc:format>
        <dc:type
           rdf:resource="http://purl.org/dc/dcmitype/StillImage" />
      </cc:Work>
    </rdf:RDF>
  </metadata>
  <defs
     id="defs2562" />
  <sodipodi:namedview
     id="base"
     inkscape:zoom="0.69346032"
     inkscape:cx="329.52756"
     inkscape:cy="230.94983"
     inkscape:window-width="701"
     inkscape:window-height="507"
     inkscape:window-x="40"
     inkscape:window-y="62"
     inkscape:current-layer="svg2560" />
  <path
     id="path550"
     d="M 0.0000000,-4.8828125e-06 L 0.0000000,439.37000 L 659.06000,439.37000 L 659.06000,-4.8828125e-06 L 0.0000000,-4.8828125e-06 z "
     style="font-size:12.000000px;fill:#00319c" />
  <g
     id="g1334"
     transform="translate(-1.495428,-29.81531)">
    <rect
       style="font-size:12.000000px;fill:#ffffff;fill-rule:evenodd;stroke-width:1.0000000pt"
       id="rect1565"
       width="191.13803"
       height="193.69241"
       x="237.44067"
       y="148.18011"
       ry="96.846199"
       rx="96.846199" />
    <rect
       style="font-size:12.000000px;fill:#00319c;fill-rule:evenodd;stroke-width:1.0000000pt"
       id="rect2562"
       width="185.49382"
       height="187.79314"
       x="240.38315"
       y="151.33096"
       ry="93.896568"
       rx="93.896568" />
    <path
       style="font-size:12.000000px;fill:#849cce"
       d="M 50.475428,243.34914 L 50.475428,247.22414 L 198.03072,247.22414 L 198.03072,243.34914 L 50.475428,243.34914 z "
       id="path1050" />
    <rect
       style="font-size:12.000000px;fill:#ffffff;fill-rule:evenodd;stroke-width:1.0000000pt"
       id="rect3560"
       width="2.9557707"
       height="66.858307"
       x="328.47241"
       y="46.024757" />
    <path
       style="font-size:12.000000px;fill:#849cce"
       d="M 464.01855,243.34914 L 464.01855,247.22414 L 611.57384,247.22414 L 611.57384,243.34914 L 464.01855,243.34914 z "
       id="path1057" />
    <rect
       style="font-size:12.000000px;fill:#ffffff;fill-rule:evenodd;stroke-width:1.0000000pt"
       id="rect2563"
       width="2.9557707"
       height="66.858307"
       x="330.05383"
       y="386.11700" />
    <rect
       style="font-size:12.000000px;fill:#00319c;fill-rule:evenodd;stroke-width:1.0000000pt"
       id="rect3569"
       width="26.089195"
       height="19.375031"
       x="414.99542"
       y="233.54036" />
    <rect
       style="font-size:12.000000px;fill:#00319c;fill-rule:evenodd;stroke-width:1.0000000pt"
       id="rect3570"
       width="20.021959"
       height="27.246136"
       x="322.77335"
       y="326.78275" />
    <rect
       style="font-size:12.000000px;fill:#00319c;fill-rule:evenodd;stroke-width:1.0000000pt"
       id="rect3571"
       width="26.089195"
       height="23.916056"
       x="223.87727"
       y="235.35677" />
    <rect
       style="font-size:12.000000px;fill:#00319c;fill-rule:evenodd;stroke-width:1.0000000pt"
       id="rect3572"
       width="20.932045"
       height="27.246136"
       x="318.52628"
       y="136.66525" />
    <path
       style="font-size:12.000000px;fill:#ffffff"
       d="M 330.04223,123.90989 L 301.77956,216.75111 L 237.49399,238.81732 L 308.69719,225.21993 L 331.51778,244.96502 L 330.04223,123.90989 z "
       id="path561"
       sodipodi:nodetypes="cccccc" />
    <path
       style="font-size:12.000000px;fill:#ffffff"
       d="M 335.27850,145.74417 L 350.52523,222.03661 L 331.30615,244.94176 L 454.93225,245.27501 L 384.41635,225.34780 L 359.04849,215.39098 L 335.27850,145.74417 z "
       id="path716"
       sodipodi:nodetypes="ccccccc" />
    <path
       style="font-size:12.000000px;fill:#ffffff"
       d="M 331.39741,244.51938 L 332.00704,367.73288 L 360.26971,273.82216 L 429.22074,249.80683 L 353.35208,265.35334 L 331.39741,244.51938 z "
       id="path1076"
       sodipodi:nodetypes="cccccc" />
    <path
       style="font-size:12.000000px;fill:#ffffff"
       d="M 204.32706,245.51139 L 301.77956,273.82217 L 327.62892,344.59912 L 311.52404,268.53667 L 331.31780,244.82745 L 204.32706,245.51139 z "
       id="path1062"
       sodipodi:nodetypes="cccccc" />
  </g>
</svg>
