<?xml version="1.0" encoding="UTF-8" standalone="no"?>
<svg
   xmlns:dc="http://purl.org/dc/elements/1.1/"
   xmlns:cc="http://creativecommons.org/ns#"
   xmlns:rdf="http://www.w3.org/1999/02/22-rdf-syntax-ns#"
   xmlns:svg="http://www.w3.org/2000/svg"
   xmlns="http://www.w3.org/2000/svg"
   xmlns:xlink="http://www.w3.org/1999/xlink"
   xmlns:sodipodi="http://sodipodi.sourceforge.net/DTD/sodipodi-0.dtd"
   xmlns:inkscape="http://www.inkscape.org/namespaces/inkscape"
   xml:space="preserve"
   width="450px"
   height="300px"
   viewBox="0 0 450 300"
   id="svg2"
   version="1.1"
   inkscape:version="0.47 r22583"
   sodipodi:docname="nenets2.svg"><metadata
   id="metadata49"><rdf:RDF><cc:Work
       rdf:about=""><dc:format>image/svg+xml</dc:format><dc:type
         rdf:resource="http://purl.org/dc/dcmitype/StillImage" /></cc:Work></rdf:RDF></metadata><sodipodi:namedview
   pagecolor="#ffffff"
   bordercolor="#666666"
   borderopacity="1"
   objecttolerance="10"
   gridtolerance="10"
   guidetolerance="10"
   inkscape:pageopacity="0"
   inkscape:pageshadow="2"
   inkscape:window-width="915"
   inkscape:window-height="649"
   id="namedview47"
   showgrid="false"
   inkscape:zoom="0.78666667"
   inkscape:cx="182.01014"
   inkscape:cy="150"
   inkscape:window-x="1553"
   inkscape:window-y="201"
   inkscape:window-maximized="0"
   inkscape:current-layer="svg2" />
<defs
   id="defs4"><inkscape:perspective
   sodipodi:type="inkscape:persp3d"
   inkscape:vp_x="0 : 150 : 1"
   inkscape:vp_y="0 : 1000 : 0"
   inkscape:vp_z="450 : 150 : 1"
   inkscape:persp3d-origin="225 : 100 : 1"
   id="perspective51" />
<g
   id="horns"
   fill="#0000C0"
   stroke="#0000C0"
   stroke-width="0.5">
<rect
   x="20"
   y="0"
   width="10"
   height="30"
   id="rect7" />
<rect
   x="30"
   y="10"
   width="10"
   height="10"
   id="rect9" />
<rect
   x="30"
   y="30"
   width="30"
   height="10"
   id="rect11" />
<rect
   x="40"
   y="20"
   width="10"
   height="10"
   id="rect13" />
<rect
   x="0"
   y="20"
   width="10"
   height="10"
   id="rect15" />
<rect
   x="30"
   y="50"
   width="10"
   height="10"
   id="rect17" />
<path
   d="M 0,30 L 30,30 L 30,60 Z"
   id="path19" />
<rect
   x="50"
   y="50"
   width="10"
   height="10"
   id="rect21" />
<path
   d="M 30,60 L 50,60 L 50,80 Z"
   id="path23" />
</g>








</defs>

<rect
   fill="white"
   width="450"
   height="300"
   x="0"
   y="0"
   id="rect25" />

<use
   height="300"
   width="450"
   id="use29"
   xlink:href="#horns"
   y="0"
   x="0"
   transform="matrix(0.73685077,-0.74041077,0.73685077,0.74041077,-14.475871,192.29412)" /><use
   height="300"
   width="450"
   id="use31"
   xlink:href="#horns"
   y="50"
   x="50"
   transform="matrix(0.73685077,-0.74041077,0.73685077,0.74041077,-14.475871,192.29412)" /><use
   height="300"
   width="450"
   id="use33"
   xlink:href="#horns"
   y="100"
   x="100"
   transform="matrix(0.73685077,-0.74041077,0.73685077,0.74041077,-14.475871,192.29412)" /><use
   height="300"
   width="450"
   id="use35"
   xlink:href="#horns"
   y="150"
   x="150"
   transform="matrix(0.73685077,-0.74041077,0.73685077,0.74041077,-14.475871,192.29412)" /><use
   height="300"
   width="450"
   id="use37"
   xlink:href="#horns"
   y="200"
   x="200"
   transform="matrix(0.73685077,-0.74041077,0.73685077,0.74041077,-14.475871,192.29412)" /><use
   height="300"
   width="450"
   id="use39"
   xlink:href="#horns"
   y="250"
   x="250"
   transform="matrix(0.73685077,-0.74041077,0.73685077,0.74041077,-14.475871,192.29412)" />

<rect
   width="450"
   height="91.779663"
   x="0"
   y="208.22034"
   id="rect43"
   style="fill:#0000c0" />
<rect
   fill="green"
   width="450"
   height="30"
   x="0"
   y="270"
   id="rect45" />

</svg>