<?xml version="1.0" encoding="UTF-8" standalone="no"?>
<!-- Created with Inkscape (http://www.inkscape.org/) -->
<svg
   xmlns:dc="http://purl.org/dc/elements/1.1/"
   xmlns:cc="http://creativecommons.org/ns#"
   xmlns:rdf="http://www.w3.org/1999/02/22-rdf-syntax-ns#"
   xmlns:svg="http://www.w3.org/2000/svg"
   xmlns="http://www.w3.org/2000/svg"
   xmlns:xlink="http://www.w3.org/1999/xlink"
   xmlns:sodipodi="http://sodipodi.sourceforge.net/DTD/sodipodi-0.dtd"
   xmlns:inkscape="http://www.inkscape.org/namespaces/inkscape"
   id="svg2405"
   sodipodi:version="0.32"
   inkscape:version="0.46"
   width="1155"
   height="770"
   version="1.0">
  <metadata
     id="metadata2410">
    <rdf:RDF>
      <cc:Work
         rdf:about="">
        <dc:format>image/svg+xml</dc:format>
        <dc:type
           rdf:resource="http://purl.org/dc/dcmitype/StillImage" />
      </cc:Work>
    </rdf:RDF>
  </metadata>
  <defs
     id="defs2408">
    <inkscape:perspective
       sodipodi:type="inkscape:persp3d"
       inkscape:vp_x="0 : 526.18109 : 1"
       inkscape:vp_y="0 : 1000 : 0"
       inkscape:vp_z="744.09448 : 526.18109 : 1"
       inkscape:persp3d-origin="372.04724 : 350.78739 : 1"
       id="perspective2412" />
    <clipPath
       id="helper2">
      <rect
         id="rect2940"
         y="20"
         x="-20"
         height="30"
         width="50" />
    </clipPath>
    <clipPath
       id="helper1">
      <rect
         id="rect2937"
         y="21"
         x="-20"
         height="30"
         width="50" />
    </clipPath>
    <inkscape:perspective
       id="perspective2986"
       inkscape:persp3d-origin="315 : 256.66667 : 1"
       inkscape:vp_z="630 : 385 : 1"
       inkscape:vp_y="0 : 1000 : 0"
       inkscape:vp_x="0 : 385 : 1"
       sodipodi:type="inkscape:persp3d" />
  </defs>
  <sodipodi:namedview
     inkscape:window-height="729"
     inkscape:window-width="1280"
     inkscape:pageshadow="2"
     inkscape:pageopacity="0.0"
     guidetolerance="10.0"
     gridtolerance="10.0"
     objecttolerance="10.0"
     borderopacity="1.0"
     bordercolor="#666666"
     pagecolor="#ffffff"
     id="base"
     showgrid="false"
     inkscape:zoom="0.44281333"
     inkscape:cx="372.04724"
     inkscape:cy="526.18109"
     inkscape:window-x="0"
     inkscape:window-y="0"
     inkscape:current-layer="svg2405" />
  <g
     id="g2540"
     transform="matrix(8.7574448,0,0,8.7170971,157.63358,45.199301)">
    <rect
       y="-4.9152384"
       x="-17.915236"
       height="87.830475"
       width="131.83047"
       id="rect3764"
       style="fill:#003893;fill-opacity:1;fill-rule:evenodd;stroke:#003893;stroke-width:0.16952799px;stroke-linecap:butt;stroke-linejoin:miter;stroke-opacity:1" />
    <rect
       y="0.7747786"
       x="-12.225218"
       height="76.450439"
       width="120.45045"
       id="rect3766"
       style="fill:#ce1126;fill-opacity:1;stroke:#003893;stroke-width:0.120992;stroke-opacity:1" />
    <g
       transform="matrix(1.24703,0,0,1.24703,148.999,-9.44433)"
       id="g4011">
      <circle
         style="fill:#ffffff"
         sodipodi:ry="11.950277"
         sodipodi:rx="11.950277"
         sodipodi:cy="23.483496"
         sodipodi:cx="0"
         cx="0"
         d="m 11.950277,23.483496 c 0,6.599956 -5.3503211,11.950277 -11.950277,11.950277 -6.5999559,0 -11.950277,-5.350321 -11.950277,-11.950277 0,-6.599956 5.3503211,-11.950278 11.950277,-11.950278 6.5999559,0 11.950277,5.350322 11.950277,11.950278 z"
         id="circle2948"
         r="11.950277"
         cy="23.483496"
         clip-path="url(#helper1)"
         transform="matrix(1.32502,0,0,1.32502,-102.098,1.70303)" />
      <circle
         style="fill:#ce1126"
         sodipodi:ry="12.840097"
         sodipodi:rx="12.840097"
         sodipodi:cy="18.786797"
         sodipodi:cx="0"
         cx="0"
         d="m 12.840097,18.786797 c 0,7.09139 -5.748707,12.840097 -12.840097,12.840097 -7.09139,0 -12.840097,-5.748707 -12.840097,-12.840097 0,-7.09139 5.748707,-12.8400979 12.840097,-12.8400979 7.09139,0 12.840097,5.7487079 12.840097,12.8400979 z"
         id="circle2950"
         r="12.840097"
         cy="18.786797"
         clip-path="url(#helper2)"
         transform="matrix(1.32502,0,0,1.32502,-102.098,1.70303)" />
      <g
         style="fill:#ffffff"
         id="g2952"
         transform="matrix(7.3685,0,0,7.3685,-102.098,40.1876)">
<!--TM-->        <circle
           sodipodi:ry="1"
           sodipodi:rx="1"
           sodipodi:cy="0"
           sodipodi:cx="0"
           cy="0"
           cx="0"
           d="M 1,0 C 1,0.55228475 0.55228475,1 0,1 -0.55228475,1 -1,0.55228475 -1,0 c 0,-0.55228475 0.44771525,-1 1,-1 0.55228475,0 1,0.44771525 1,1 z"
           id="circle2954"
           r="1" />
        <g
           id="6jags">
          <g
             id="3jags">
            <path
               transform="matrix(0.980785,0.19509,-0.19509,0.980785,0,0)"
               d="M 0.19509032,-0.98078528 L 0,-1.3887841 L -0.19509032,-0.98078528"
               id="jag" />
<!--sin(Pi/16) cos(Pi/16) TS/TM-->            <use
               height="88"
               width="72"
               y="0"
               x="0"
               id="use2959"
               transform="matrix(0.92388,0.382683,-0.382683,0.92388,0,0)"
               xlink:href="#jag" />
            <use
               height="88"
               width="72"
               y="0"
               x="0"
               id="use2961"
               transform="matrix(0.707107,0.707107,-0.707107,0.707107,0,0)"
               xlink:href="#jag" />
          </g>
          <use
             height="88"
             width="72"
             y="0"
             x="0"
             id="use2963"
             transform="matrix(0.382683,0.92388,-0.92388,0.382683,0,0)"
             xlink:href="#3jags" />
        </g>
        <use
           height="88"
           width="72"
           y="0"
           x="0"
           id="use2965"
           transform="scale(-1,1)"
           xlink:href="#6jags" />
      </g>
    </g>
    <g
       transform="matrix(13.4557,0,0,13.4557,72.7645,39.4763)"
       id="g2967"
       style="fill:#ffffff">
<!--W NM-->      <circle
         r="1"
         id="circle2969"
         d="M 1,0 C 1,0.55228475 0.55228475,1 0,1 -0.55228475,1 -1,0.55228475 -1,0 c 0,-0.55228475 0.44771525,-1 1,-1 0.55228475,0 1,0.44771525 1,1 z"
         cx="0"
         cy="0"
         sodipodi:cx="0"
         sodipodi:cy="0"
         sodipodi:rx="1"
         sodipodi:ry="1" />
      <g
         id="4rays">
        <g
           id="2rays">
          <path
             id="ray"
             d="M 0.25881905,0.96592583 L 0,1.5767493 L -0.25881905,0.96592583" />
<!--sin(Pi/12) cos(Pi/12) LN/NM-->          <use
             xlink:href="#ray"
             transform="scale(-1,-1)"
             id="use2974"
             x="0"
             y="0"
             width="72"
             height="88" />
        </g>
        <use
           xlink:href="#2rays"
           transform="matrix(0,1,-1,0,0,0)"
           id="use2976"
           x="0"
           y="0"
           width="72"
           height="88" />
      </g>
      <use
         xlink:href="#4rays"
         transform="matrix(0.866025,0.5,-0.5,0.866025,0,0)"
         id="use2978"
         x="0"
         y="0"
         width="72"
         height="88" />
      <use
         xlink:href="#4rays"
         transform="matrix(0.5,0.866025,-0.866025,0.5,0,0)"
         id="use2980"
         x="0"
         y="0"
         width="72"
         height="88" />
    </g>
  </g>
</svg>
