<?xml version="1.0" encoding="UTF-8" standalone="no"?>
<svg
   xmlns:dc="http://purl.org/dc/elements/1.1/"
   xmlns:cc="http://creativecommons.org/ns#"
   xmlns:rdf="http://www.w3.org/1999/02/22-rdf-syntax-ns#"
   xmlns:svg="http://www.w3.org/2000/svg"
   xmlns="http://www.w3.org/2000/svg"
   xmlns:sodipodi="http://sodipodi.sourceforge.net/DTD/sodipodi-0.dtd"
   xmlns:inkscape="http://www.inkscape.org/namespaces/inkscape"
   version="1"
   x="0.00000000"
   y="0.00000000"
   width="1000.00000"
   height="533.33000pt"
   id="svg1">
  <defs
     id="defs3">
    <inkscape:perspective
       sodipodi:type="inkscape:persp3d"
       inkscape:vp_x="0 : 333.33127 : 1"
       inkscape:vp_y="0 : 1000 : 0"
       inkscape:vp_z="1000 : 333.33127 : 1"
       inkscape:persp3d-origin="500 : 222.22085 : 1"
       id="perspective19" />
    <inkscape:perspective
       id="perspective4209"
       inkscape:persp3d-origin="485.5 : 317 : 1"
       inkscape:vp_z="971 : 475.5 : 1"
       inkscape:vp_y="0 : 1000 : 0"
       inkscape:vp_x="0 : 475.5 : 1"
       sodipodi:type="inkscape:persp3d" />
  </defs>
  <rect
     style="opacity:1;fill:#cc0000;fill-opacity:1;stroke:none;stroke-opacity:1"
     id="rect2392"
     width="1000"
     height="666.32001"
     x="0"
     y="0.34253663" />
  <rect
     id="rect124"
     style="font-size:12px;fill:#000066;stroke-width:1pt"
     y="0.021542968"
     x="0"
     height="333.33099"
     width="500" />
  <g
     style="font-size:12.000000px"
     id="g584"
     transform="matrix(8.333333,0.000000,0.000000,11.11104,0.000000,9.765625e-5)">
    <path
       id="path146"
       style="fill:#ffffff;stroke-width:1.0000000pt"
       d="M 0.0000000,0.0000000 L 0.0000000,3.3541000 L 53.291800,30.000000 L 60.000000,30.000000 L 60.000000,26.645900 L 6.7082000,0.0000000 L 0.0000000,0.0000000 z M 60.000000,0.0000000 L 60.000000,3.3540500 L 6.7082000,30.000000 L 0.0000000,30.000000 L 0.0000000,26.645800 L 53.291800,0.0000000 L 60.000000,0.0000000 z " />
    <path
       id="path136"
       style="fill:#ffffff;stroke-width:1.0000000pt"
       d="M 25.000000,0.0000000 L 25.000000,30.000000 L 35.000000,30.000000 L 35.000000,0.0000000 L 25.000000,0.0000000 z M 0.0000000,10.000000 L 0.0000000,20.000000 L 60.000000,20.000000 L 60.000000,10.000000 L 0.0000000,10.000000 z " />
    <path
       id="path141"
       style="fill:#cc0000;stroke-width:1.0000000pt"
       d="M 0.0000000,12.000000 L 0.0000000,18.000000 L 60.000000,18.000000 L 60.000000,12.000000 L 0.0000000,12.000000 z M 27.000000,0.0000000 L 27.000000,30.000000 L 33.000000,30.000000 L 33.000000,0.0000000 L 27.000000,0.0000000 z " />
    <path
       id="path150"
       style="fill:#cc0000;stroke-width:1.0000000pt"
       d="M 0.0000000,30.000000 L 20.000000,20.000000 L 24.472100,20.000000 L 4.4721400,30.000000 L 0.0000000,30.000000 z M 0.0000000,0.0000000 L 20.000000,10.000000 L 15.527900,10.000000 L 0.0000000,2.2360700 L 0.0000000,0.0000000 z M 35.527900,10.000000 L 55.527900,0.0000000 L 60.000000,0.0000000 L 40.000000,10.000000 L 35.527900,10.000000 z M 60.000000,30.000000 L 40.000000,20.000000 L 44.472100,20.000000 L 60.000000,27.763900 L 60.000000,30.000000 z " />
  </g>
  <g
     id="g2610"
     transform="matrix(0.3473739,0,0,0.2609093,945.48634,195.19907)">
    <g
       id="g2757">
      <path
         style="fill:#000000;stroke:none"
         d="M -605.67237,189.09822 C -649.57474,197.02137 -691.15178,215.21293 -728.90045,247.13928 C -760.78868,274.109 -789.52452,309.94624 -810.85956,352.0556 C -832.08145,393.94133 -847.11184,439.31104 -855.75176,488.80826 C -860.94995,518.58816 -861.01517,547.71246 -861.01517,578.0997 C -861.01517,616.31966 -857.53808,651.66137 -849.15121,688.30626 C -818.02362,824.3116 -728.1516,925.9502 -625.81542,951.01294 C -607.14873,955.5845 -587.85524,953.7673 -568.94092,953.7673 C -556.92855,953.7673 -544.13416,955.47429 -532.20947,953.53804 C -494.44243,947.40428 -457.87924,928.72789 -424.97734,903.31442 C -394.04117,879.4189 -366.81547,846.62159 -344.64211,808.97037 C -323.7354,773.47018 -307.40709,732.4299 -297.21352,689.11068 C -288.55201,652.30089 -285.75331,617.29784 -285.75331,578.90413 C -285.75331,560.9115 -284.5939,542.10962 -285.85402,524.20307 C -287.66749,498.43404 -292.7542,472.17592 -298.99085,447.78246 C -337.41194,297.51221 -446.05053,188.75684 -563.60893,188.75684 C -577.31865,188.75684 -592.08588,186.64625 -605.67237,189.09822 z"
         id="path6" />
      <path
         style="fill:#ffffff;stroke:none"
         d="M -844.42677,566.03329 C -802.28905,566.03329 -759.30816,559.16831 -721.79114,531.19193 C -706.3112,519.6492 -692.4119,504.72064 -679.13526,489.03511 C -669.82858,478.03939 -661.19669,466.05986 -652.47534,454.21788 C -649.41656,450.06462 -643.5573,444.64439 -642.19231,438.93376 C -640.79415,433.08397 -644.01585,422.35773 -644.89207,416.40979 C -647.64338,397.72938 -651.95517,378.27833 -653.06778,359.29545 C -632.79025,360.48037 -618.8554,381.43007 -611.25555,405.14781 C -606.70914,419.33871 -603.12368,438.05211 -593.81463,448.03908 C -586.79714,455.56852 -579.02785,454.43106 -570.71825,455.02231 L -575.93174,488.80826 L -582.5671,534.66062 L -594.41596,526.61635 L -586.61348,653.71588 L -584.24371,692.32839 L -582.81296,716.46121 L -587.30664,737.37633 L -489.5536,739.78961 L -512.65886,574.07756 L -547.61298,574.07756 C -547.61298,569.89374 -548.63672,562.65389 -547.00395,558.97444 C -545.32497,555.1888 -539.77793,554.22671 -536.94901,552.58326 C -529.17498,548.0664 -521.41102,542.88991 -514.43619,536.36279 C -496.65343,519.7208 -483.1564,497.39713 -470.07349,474.32857 C -465.48206,466.23281 -459.40537,458.28426 -455.72156,449.39132 C -453.89684,444.98627 -456.77137,441.01562 -458.38874,437.32491 C -461.64303,429.89602 -464.73973,421.14626 -465.21013,412.38766 C -466.33991,391.34142 -452.17639,372.93612 -442.15818,359.29545 L -408.13775,520.18093 L -392.98484,591.77497 L -386.46857,618.32107 C -356.42343,618.32107 -338.24255,657.73721 -340.95119,696.35053 C -342.11534,712.9515 -346.98759,725.09272 -352.10689,739.78961 C -323.25908,734.51096 -315.45128,687.5155 -309.52626,655.32473 C -293.20328,566.65109 -303.82044,468.63081 -337.89478,389.86369 C -352.83974,355.31595 -371.7126,323.77676 -394.17032,297.69883 C -473.15182,205.98582 -587.82977,181.21739 -683.28236,238.52025 C -718.39525,259.59946 -750.32732,291.40499 -776.34859,329.53163 C -798.13982,361.46097 -815.92442,400.46926 -827.05712,441.34704 C -837.98977,481.48958 -844.42677,523.16857 -844.42677,566.03329 z"
         id="path10" />
      <path
         style="fill:#ff8080;stroke:none"
         d="M -653.06778,359.29545 C -649.44855,378.28959 -647.25236,397.97473 -644.41812,417.21422 C -643.60529,422.73018 -640.35929,433.60684 -641.92867,438.93376 C -643.44355,444.07486 -648.44969,448.7518 -651.29045,452.60903 C -658.51766,462.42224 -665.73065,472.19523 -673.21083,481.64001 C -714.44781,533.70818 -764.38421,565.22886 -821.32151,565.22886 L -821.32151,566.03329 L -758.52258,566.03329 L -763.85457,589.36169 L -752.59816,582.12184 L -773.96401,669 L -792.88426,715.65679 C -777.00383,724.6342 -762.89481,742.3686 -745.48884,745.4206 L -746.67373,772.77113 L -596.19328,772.77113 L -583.26855,717.26564 L -584.88355,688.30626 L -588.98326,621.53878 L -593.13035,553.96688 L -595.0084,526.61635 L -583.15954,533.85619 C -576.99162,509.12407 -574.97554,480.68113 -571.31069,455.02231 C -576.0526,455.53071 -580.24413,455.98843 -584.93687,454.27902 C -605.35304,446.84289 -608.19025,408.1805 -618.32457,387.45041 C -627.10694,369.48513 -638.47236,364.17752 -653.06778,359.29545 z"
         id="path1786" />
      <path
         style="fill:#ff5555;stroke:none"
         d="M -442.75062,360.09988 C -453.39445,374.85629 -467.39683,393.76838 -464.39552,416.40979 C -463.38066,424.06633 -460.72356,431.43328 -457.90116,438.12933 C -456.77789,440.7944 -454.22446,444.49557 -454.9502,447.78246 C -455.78199,451.5504 -458.86092,455.21698 -460.64239,458.24002 C -464.72432,465.16775 -468.75886,472.13972 -472.75844,479.15513 C -491.90856,512.74722 -515.8148,547.7575 -547.61298,557.98902 L -547.61298,574.07756 L -512.06642,574.07756 C -511.59424,588.96349 -508.10416,604.49538 -506.02528,619.1255 C -502.33318,645.11735 -498.94559,671.19769 -495.12256,697.15496 C -493.06323,711.1343 -493.15446,733.44911 -486.32893,744.61617 C -483.66235,748.97939 -479.67521,757.20144 -475.75798,759.41522 C -468.01001,763.79372 -456.84424,754.59429 -448.67505,757.0309 C -446.31002,757.73638 -444.17663,760.05555 -442.15818,761.76335 C -435.69167,767.23185 -417.69089,781.96413 -414.04263,764.72686 C -413.4964,762.14545 -413.28371,759.35007 -413.12849,756.68258 C -406.7852,757.77661 -400.45614,759.59944 -394.17032,761.19623 C -391.62282,761.84299 -388.30455,763.78246 -386.46857,760.70472 C -422.26633,754.15427 -428.26007,685.87125 -415.05037,650.49817 C -409.4826,635.58891 -399.15751,621.44788 -386.46857,619.1255 L -396.29067,577.29527 L -423.54304,448.58689 L -436.23375,388.25484 L -442.75062,360.09988 z"
         id="path1804" />
      <path
         style="fill:#996633;stroke:none"
         d="M -843.74924,564.91505 C -845.56384,607.19334 -839.08311,652.4649 -828.21089,692.01458 C -823.95473,707.49739 -818.20933,721.89745 -813.53467,737.06251 C -773.9198,703.42297 -766.4331,637.67872 -752.51307,581.80802 L -763.76948,589.04787 L -758.4375,564.91505 L -843.74924,564.91505 z"
         id="path3332" />
      <path
         style="fill:#0000cc;stroke:none"
         d="M -387.08516,617.03256 C -421.89236,624.41399 -430.23454,688.44802 -417.42949,725.27712 C -410.38357,745.54306 -395.81421,763.25011 -378.19852,759.51435 C -343.37711,752.12971 -335.045,688.11016 -347.8542,651.2698 C -354.90012,631.00386 -369.46947,613.2968 -387.08516,617.03256 z"
         id="path3584" />
      <path
         style="fill:#ffffff;stroke:none"
         d="M -789.92205,788.85968 C -784.91887,800.66867 -776.83676,811.45283 -769.77899,821.03678 C -756.21739,839.45173 -741.91701,856.17899 -725.93823,870.6434 C -638.66669,949.64219 -522.10714,953.74075 -432.08666,880.40352 C -412.28426,864.27153 -394.48195,844.7883 -378.17437,822.64563 C -370.72322,812.52835 -362.1328,801.33796 -356.84643,788.85968 L -789.92205,788.85968 z"
         id="path4202" />
    </g>
  </g>
</svg>
