<?xml version="1.0" encoding="UTF-8" standalone="no"?>
<!-- Created with Inkscape (http://www.inkscape.org/) -->
<svg xmlns:dc="http://purl.org/dc/elements/1.1/" xmlns:cc="http://creativecommons.org/ns#" xmlns:rdf="http://www.w3.org/1999/02/22-rdf-syntax-ns#" xmlns:svg="http://www.w3.org/2000/svg" xmlns="http://www.w3.org/2000/svg" xmlns:sodipodi="http://sodipodi.sourceforge.net/DTD/sodipodi-0.dtd" xmlns:inkscape="http://www.inkscape.org/namespaces/inkscape" id="svg3199" version="1.1" inkscape:version="0.47 r22583" width="340.5" height="227" sodipodi:docname="nezperce.svg">
  <metadata id="metadata3205">
    <rdf:RDF>
      <cc:Work rdf:about="">
        <dc:format>image/svg+xml</dc:format>
        <dc:type rdf:resource="http://purl.org/dc/dcmitype/StillImage"/>
        <dc:title/>
      </cc:Work>
    </rdf:RDF>
  </metadata>
  <defs id="defs3203">
    <inkscape:perspective sodipodi:type="inkscape:persp3d" inkscape:vp_x="0 : 0.5 : 1" inkscape:vp_y="0 : 1000 : 0" inkscape:vp_z="1 : 0.5 : 1" inkscape:persp3d-origin="0.5 : 0.33333333 : 1" id="perspective3207"/>
  </defs>
  <sodipodi:namedview pagecolor="#ffffff" bordercolor="#666666" borderopacity="1" objecttolerance="10" gridtolerance="10" guidetolerance="10" inkscape:pageopacity="0" inkscape:pageshadow="2" inkscape:window-width="981" inkscape:window-height="727" id="namedview3201" showgrid="false" inkscape:zoom="1.92" inkscape:cx="158.88426" inkscape:cy="120.1822" inkscape:window-x="0" inkscape:window-y="0" inkscape:window-maximized="0" inkscape:current-layer="svg3199"/>
  <rect style="fill: rgb(196, 28, 12); fill-opacity: 1; stroke: none;" id="rect4013" width="340.5" height="227" x="0" y="0"/>
  <path style="fill: rgb(0, 0, 0); fill-opacity: 1; stroke: rgb(223, 122, 34); stroke-width: 13.7; stroke-linecap: butt; stroke-linejoin: miter; stroke-miterlimit: 4; stroke-opacity: 1; stroke-dasharray: none;" d="M 49.533981,20.747573 216.52427,11.038835 296.13592,156.6699 278.17476,212.00971 67.009709,137.73786 58.271845,63.466019 47.592233,65.893204 49.533981,20.747573 z" id="path4011"/>
  <g id="g4015" transform="matrix(0.983048, 0.34124, -0.397033, 0.844905, 32.4179, -20.4577)">
    <path sodipodi:nodetypes="cccccccccccccccc" id="path3211" d="m 76.504836,61.386644 c 6.997747,-1.036703 31.878624,14.513847 34.211214,18.919836 l 13.73632,4.405989 -1.03671,6.738571 c 4.66517,-0.777527 9.07116,-7.775275 9.84868,-10.626209 3.62846,0.518352 2.85094,14.513847 2.85094,14.513847 0,5.183512 -14.25467,9.848682 -18.66066,6.738572 l 0.51835,3.36929 c -6.22022,0 -29.28687,-16.328082 -29.28687,-16.328082 l 0,5.183517 C 87.649397,97.930437 76.764012,73.308732 72.358023,70.97615 l 1.295879,-2.073407 3.628462,2.332583 2.850934,-3.887638 -4.146813,-3.887637 0.518351,-2.073407 z" style="fill: rgb(240, 114, 20); fill-opacity: 1; stroke: rgb(0, 0, 0); stroke-width: 1px; stroke-linecap: butt; stroke-linejoin: miter; stroke-opacity: 1;"/>
    <path sodipodi:nodetypes="cc" id="path3213" d="m 82.206705,81.861535 c 10.885385,4.405989 14.25467,-4.146814 13.477143,-5.701869" style="fill: none; stroke: rgb(0, 0, 0); stroke-width: 1px; stroke-linecap: butt; stroke-linejoin: miter; stroke-opacity: 1;"/>
    <path sodipodi:nodetypes="cc" id="path3215" d="m 87.908573,80.047304 c 2.850934,0.518352 4.146813,-1.555055 3.887637,-2.850934" style="fill: none; stroke: rgb(0, 0, 0); stroke-width: 1px; stroke-linecap: butt; stroke-linejoin: miter; stroke-opacity: 1;"/>
    <path sodipodi:nodetypes="ccc" id="path3217" d="m 78.059891,72.531205 c 1.555055,1.814231 5.701869,0 5.701869,0 0,0 -1.29588,-4.146813 -2.850935,-4.665165" style="fill: none; stroke: rgb(0, 0, 0); stroke-width: 1px; stroke-linecap: butt; stroke-linejoin: miter; stroke-opacity: 1;"/>
    <path id="path3219" d="m 86.353518,68.384391 -2.850934,0.518352 3.11011,2.332583" style="fill: none; stroke: rgb(0, 0, 0); stroke-width: 1px; stroke-linecap: butt; stroke-linejoin: miter; stroke-opacity: 1;"/>
    <path id="path3221" d="m 81.947529,75.641315 2.850934,-1.814231" style="fill: none; stroke: rgb(0, 0, 0); stroke-width: 1px; stroke-linecap: butt; stroke-linejoin: miter; stroke-opacity: 1;"/>
    <path id="path3223" d="m 124.71154,93.006095 4.92434,-0.518351 -0.25917,3.369286 5.96104,-0.518352" style="fill: none; stroke: rgb(0, 0, 0); stroke-width: 1px; stroke-linecap: butt; stroke-linejoin: miter; stroke-opacity: 1;"/>
  </g>
  <g id="g4024" transform="matrix(1.36512, 0, 0, 1.44194, -57.3261, 13.5949)">
    <path sodipodi:nodetypes="cccccccccccccc" id="path4009" d="m 131.49697,38.786858 c 0,0 -1.46611,-8.43019 3.11551,-9.713045 16.12732,-5.49795 38.48565,19.609354 39.58524,24.374244 1.83265,-7.880394 7.69712,-10.812635 7.69712,-10.812635 0,0 6.41428,-20.892208 9.16325,-21.442003 5.49795,-2.382445 17.7767,6.414274 17.22691,9.713044 0,0 0.18327,11.912224 -1.28285,13.378344 l 0,9.346515 c -0.73306,3.29877 -12.64529,17.593438 -12.82855,22.358328 0,0 0.73306,10.812635 -27.85628,6.047745 0,0 -16.31058,-2.748975 -20.70894,0.916325 -1.64938,0 -2.93224,-8.06366 -0.18327,-8.79672 -0.73306,-2.382445 3.11551,-12.095489 8.24693,-11.728959 -2.38244,0.183265 -18.50977,-22.358328 -22.17507,-23.641183 z" style="fill: rgb(196, 30, 25); fill-opacity: 1; stroke: none;"/>
    <path sodipodi:nodetypes="cccccczczczczczczccccczczczczczzzczcccccc" id="path3225" d="m 147.77819,77.714721 c 8.03109,-3.367876 15.29137,-0.777527 15.29137,-0.777527 14.29467,2.382445 28.16123,1.377185 26.69511,-1.555055 -1.70647,-2.676519 3.42232,-10.612107 8.71439,-17.121905 2.7866,-6.49651 4.31025,-14.757916 6.83616,-17.607656 l -5.47413,2.117874 c 0,0 5.05046,-3.882554 4.95578,-3.932105 -0.0947,-0.04955 -5.44269,1.295879 -5.44269,1.295879 0,0 5.49069,-2.937208 5.18352,-3.369286 -0.30717,-0.432078 -4.14682,1.036703 -4.14682,1.036703 0,0 3.76827,-5.810309 3.11011,-5.961044 -0.65816,-0.150735 -4.40599,3.369286 -4.40599,3.369286 0,0 2.6672,-5.764282 1.81424,-6.22022 -0.69994,-0.374139 -3.88764,4.924341 -3.88764,4.924341 0,0 2.54782,-6.325622 1.55505,-6.22022 -0.86479,0.09181 -4.14681,6.479396 -4.14681,6.479396 0,0 3.03379,-7.929917 2.33258,-7.775275 -0.70121,0.154642 -3.62846,6.479396 -3.62846,6.479396 l -1.0367,-6.997748 c 0,0 -6.99862,20.47565 -9.07116,22.289122 -2.20207,0.777202 -8.29362,14.25467 -8.29362,14.25467 -1.28285,-2.93224 -13.47176,-18.262686 -16.58726,-19.179011 0,0 -0.2517,-2.83823 -0.51835,-3.11011 -0.26665,-0.27188 -2.07341,2.591758 -2.07341,2.591758 0,0 -0.95668,-3.321644 -1.29587,-3.369286 -0.33919,-0.04764 -1.03671,2.073407 -1.03671,2.073407 0,0 -1.42273,-4.800408 -2.0734,-4.665165 -0.77527,0.161141 -1.03671,4.146813 -1.03671,4.146813 0,0 -0.7688,-5.277694 -1.55505,-5.183516 -1.04221,0.124837 -0.25951,4.795024 -0.25951,4.795024 l -2.8506,-6.350079 c 0,0 1.27383,6.014647 1.0367,5.961044 -0.36145,-0.0817 -3.12855,-7.852431 -4.01772,-6.738463 -0.84113,1.053786 1.94431,6.738463 1.94431,6.738463 0,0 -4.74783,-6.956629 -5.70186,-6.479396 -0.95403,0.477233 4.27667,7.386349 4.27667,7.386349 l -7.12761,-5.053766 c 0,0 15.0322,14.384963 15.0322,16.068901 0,1.683938 11.92209,14.254671 11.92209,14.254671 -2.97927,-0.259067 -7.38808,0.259827 -11.14456,1.814231 -2.72021,2.331606 -3.88764,9.589505 -3.88764,9.589505 z" style="fill: rgb(240, 114, 20); fill-opacity: 1; stroke: rgb(0, 0, 0); stroke-width: 1px; stroke-linecap: butt; stroke-linejoin: miter; stroke-opacity: 1;"/>
  </g>
  <g id="g4028" transform="matrix(1.15575, 0, 0, 1.15575, -30.3079, -28.602)">
    <path sodipodi:nodetypes="ccccccccccccccccccccccccccz" id="path3999" d="m 221.66335,168.905 c -0.34826,-6.09116 13.92814,-12.82855 13.92814,-12.82855 l -15.39426,-13.56161 -5.68122,-0.36653 c 0,0 -4.21509,4.03183 -6.04774,4.76489 l 4.03183,-6.41427 c -2.01591,-2.38244 -3.29877,-8.43019 -3.29877,-8.43019 0,0 4.76489,7.3306 6.04774,7.3306 0,0 4.94816,0.73305 6.04775,-0.5498 l 1.46612,-5.13142 0.54979,6.59754 c 0,0 3.11551,2.74898 4.39836,4.39836 0.36653,-2.19918 3.84857,-7.51386 3.84857,-7.51386 0,0 -1.64938,10.26284 0,12.09549 l 7.3306,5.68121 c 2.01591,-0.18326 7.14733,-2.56571 8.97998,-5.86448 l -1.46612,4.58162 4.03183,0.36653 0,1.83265 -6.41427,-0.18326 c 0,0 -3.11551,1.28286 -3.84857,2.56571 0,0 4.2151,4.39836 6.04775,5.13142 l 0.18326,4.03183 -7.51386,-0.5498 c 0.91632,2.74897 9.89631,10.99591 11.36243,11.5457 l 0,7.51386 c 0,0 -28.25152,-11.13514 -28.58934,-17.04364 z" style="fill: rgb(240, 114, 20); fill-opacity: 1; stroke: rgb(0, 0, 0); stroke-width: 1px; stroke-linecap: butt; stroke-linejoin: miter; stroke-opacity: 1;"/>
    <path sodipodi:nodetypes="ccccc" id="path4001" d="m 226.79477,124.18835 0,9.71304 c -0.73306,-0.36653 -2.56571,2.74897 -2.56571,2.74897 l 7.14733,-0.18326 c -2.19918,-1.28285 -4.58162,-12.27875 -4.58162,-12.27875 z" style="fill: rgb(240, 114, 20); fill-opacity: 1; stroke: rgb(0, 0, 0); stroke-width: 1px; stroke-linecap: butt; stroke-linejoin: miter; stroke-opacity: 1;"/>
    <path sodipodi:nodetypes="cccccccc" id="path4003" d="m 240.90617,128.5867 c 0,0 -7.51386,9.89631 -7.51386,11.72896 0,1.46612 2.93224,12.27876 4.39836,12.27876 l 3.29877,0 c -0.54979,-2.74897 6.41427,-11.36243 6.41427,-11.36243 0,0 -8.06365,4.39836 -7.88039,7.51386 -1.28285,0.18326 -3.6653,-7.69713 -2.93224,-7.88039 l 4.21509,-12.27876 z" style="fill: rgb(240, 114, 20); fill-opacity: 1; stroke: rgb(0, 0, 0); stroke-width: 1px; stroke-linecap: butt; stroke-linejoin: miter; stroke-opacity: 1;"/>
    <path sodipodi:nodetypes="cccc" id="path4005" d="m 253.00166,147.82953 c 0,0 -3.48203,3.29877 -4.21509,3.6653 l 3.29877,0.54979 c -0.18326,-0.91632 0.91632,-4.21509 0.91632,-4.21509 z" style="fill: rgb(240, 114, 20); fill-opacity: 1; stroke: rgb(0, 0, 0); stroke-width: 1px; stroke-linecap: butt; stroke-linejoin: miter; stroke-opacity: 1;"/>
    <path sodipodi:nodetypes="cccc" id="path4007" d="m 254.28452,156.07645 c 0,0 -2.74898,0.91632 -4.58163,0.73306 l 3.29877,1.64938 1.28286,-2.38244 z" style="fill: rgb(240, 114, 20); fill-opacity: 1; stroke: rgb(0, 0, 0); stroke-width: 1px; stroke-linecap: butt; stroke-linejoin: miter; stroke-opacity: 1;"/>
  </g>
</svg>