<?xml version="1.0" encoding="UTF-8" standalone="no"?>
<!-- Created with Inkscape (http://www.inkscape.org/) -->
<svg
   xmlns:dc="http://purl.org/dc/elements/1.1/"
   xmlns:cc="http://web.resource.org/cc/"
   xmlns:rdf="http://www.w3.org/1999/02/22-rdf-syntax-ns#"
   xmlns:svg="http://www.w3.org/2000/svg"
   xmlns="http://www.w3.org/2000/svg"
   xmlns:sodipodi="http://sodipodi.sourceforge.net/DTD/sodipodi-0.dtd"
   xmlns:inkscape="http://www.inkscape.org/namespaces/inkscape"
   version="1.0"
   width="324"
   height="216"
   id="svg2"
   sodipodi:version="0.32"
   inkscape:version="0.45"
   sodipodi:docname="numidia.svg"
   inkscape:output_extension="org.inkscape.output.svg.inkscape"
   sodipodi:docbase="C:\Documents and Settings\Owner\Desktop\Dan's\New Folder"
   sodipodi:modified="true">
  <metadata
     id="metadata8">
    <rdf:RDF>
      <cc:Work
         rdf:about="">
        <dc:format>image/svg+xml</dc:format>
        <dc:type
           rdf:resource="http://purl.org/dc/dcmitype/StillImage" />
      </cc:Work>
    </rdf:RDF>
  </metadata>
  <sodipodi:namedview
     inkscape:window-height="817"
     inkscape:window-width="1152"
     inkscape:pageshadow="2"
     inkscape:pageopacity="0.0"
     guidetolerance="10.0"
     gridtolerance="10.0"
     objecttolerance="10.0"
     borderopacity="1.0"
     bordercolor="#666666"
     pagecolor="#ffffff"
     id="base"
     inkscape:zoom="1.75"
     inkscape:cx="162"
     inkscape:cy="108"
     inkscape:window-x="-4"
     inkscape:window-y="-4"
     inkscape:current-layer="svg2" />
  <defs
     id="defs4" />
  <g
     transform="translate(-34.25673,-365.719)"
     id="layer1">
    <path
       d="M 34.25673,473.71896 L 34.25673,365.71896 L 196.25673,365.71896 L 358.25673,365.71896 L 358.25673,473.71896 L 358.25673,581.71896 L 196.25673,581.71896 L 34.25673,581.71896 L 34.25673,473.71896 z "
       style="fill:#2b1100"
       id="path1902" />
    <path
       d="M 34.25673,473.71896 L 34.25673,365.71896 L 196.25673,365.71896 L 358.25673,365.71896 L 358.25673,473.71896 L 358.25673,581.71896 L 196.25673,581.71896 L 34.25673,581.71896 L 34.25673,473.71896 z M 243.01033,552.14978 C 243.93498,549.35734 243.76675,548.90649 241.14455,547.14978 C 237.60339,544.77741 237.36376,541.08983 240.25623,533.47969 C 242.37937,527.89365 242.79829,524.71896 241.41227,524.71896 C 240.94782,524.71896 239.3111,523.6391 237.77512,522.31927 C 235.58937,520.44112 234.87614,518.81346 234.49339,514.83014 C 234.03726,510.08308 234.24677,509.47239 237.60782,505.75211 C 242.59758,500.22904 244.41826,495.38658 244.13654,488.38765 C 243.86934,481.74965 244.68458,480.75822 250.42981,480.73427 C 253.19492,480.72275 254.84902,481.46509 257.12129,483.73737 C 260.28473,486.90081 260.64176,488.35134 261.70881,502.37553 C 262.34304,510.71115 265.32998,519.23994 269.00192,523.19996 C 271.49373,525.88726 271.63922,525.91985 273.03577,524.10339 C 273.83261,523.06695 275.59915,519.83929 276.96142,516.9308 C 278.92119,512.74665 279.18972,511.34315 278.24769,510.20806 C 277.59286,509.41904 276.44446,504.67247 275.6957,499.66012 C 272.93521,481.18108 264.57984,469.84865 253.64628,469.7544 C 250.86708,469.73044 248.3427,470.52864 245.85187,472.21896 C 241.4667,475.19482 241.19021,475.22348 238.69529,472.96099 C 234.28452,468.96111 230.88439,467.72888 218.86983,465.77609 C 200.84446,462.84634 194.66145,459.49055 191.7649,451.06506 C 190.77454,448.18428 190.73327,447.03766 191.60014,446.48749 C 192.42621,445.96323 192.11375,444.62028 190.50673,441.78809 C 188.46809,438.19522 187.25043,432.80757 189.02204,435.21896 C 190.54978,437.2984 192.06872,436.53465 192.65858,433.39047 C 193.96877,426.40653 179.8667,399.77636 174.81964,399.70365 C 172.49158,399.67011 170.94637,397.74652 170.36263,394.15525 C 169.57376,389.30205 168.04725,388.84257 166.39121,392.95985 C 165.48236,395.21948 164.91002,395.75895 164.52496,394.71896 C 164.21949,393.89396 163.55834,392.10921 163.05573,390.75284 C 162.31456,388.75269 161.96669,388.56375 161.21463,389.75284 C 160.70463,390.55921 160.28046,392.42185 160.27204,393.89204 C 160.24933,397.85675 148.54828,408.48969 138.68983,413.50417 C 136.45304,414.64191 134.03953,416.27574 133.32649,417.13491 C 131.50772,419.32638 132.80851,425.29161 135.51916,427.19022 C 138.37069,429.18751 138.79142,429.13479 141.27499,426.46896 C 143.00799,424.60877 144.44433,424.21561 149.56556,424.19964 C 153.79479,424.18645 156.54385,423.63126 158.23085,422.44964 C 161.28876,420.3078 164.25673,420.21 164.25673,422.25108 C 164.25673,424.94853 161.59301,430.14659 158.97373,432.56049 C 157.57631,433.84833 153.58081,436.55163 150.09485,438.56783 C 145.52793,441.20922 142.81122,443.66904 140.37328,447.37013 L 136.98983,452.50662 L 132.37328,450.97465 C 129.83418,450.13206 127.08173,448.89823 126.25673,448.23281 C 121.8102,444.64638 116.79038,445.49133 115.36625,450.06594 C 114.77412,451.968 114.66948,458.18524 115.10252,465.73638 C 115.69882,476.13438 116.23827,479.08774 118.28854,483.17903 C 119.64605,485.8879 121.65317,488.58006 122.74882,489.16161 C 123.84447,489.74315 126.03854,491.25001 127.62453,492.51018 C 130.34908,494.675 130.61155,494.70783 132.38244,493.10519 C 135.18881,490.56547 134.81177,487.07508 131.64521,486.28033 C 127.46789,485.23189 122.28989,479.04617 122.05949,474.82908 C 121.5019,464.62382 122.9375,458.71896 125.97619,458.71896 C 128.67004,458.71896 135.50421,462.46264 139.25673,465.99389 C 145.04931,471.44491 153.91963,475.72541 162.37648,477.15067 C 165.35233,477.6522 166.71657,478.77986 170.04559,483.48984 C 175.08026,490.61302 177.01468,492.24281 184.70729,495.84262 C 189.51707,498.09339 192.8736,498.84891 200.29676,499.35169 C 205.49974,499.70409 210.31923,500.43599 211.00673,500.97813 C 211.69423,501.52028 212.25673,503.6416 212.25673,505.69218 C 212.25673,514.44776 217.20235,521.27935 227.52311,526.78025 L 233.51047,529.97149 L 232.93521,535.5452 C 232.45167,540.23025 232.8078,542.16326 235.16884,547.66894 C 236.71373,551.27145 238.28204,555.08635 238.65398,556.1465 C 239.23555,557.8042 239.51667,557.8742 240.66213,556.6465 C 241.39468,555.86135 242.45137,553.83783 243.01033,552.14978 z "
       style="fill:#aa8800"
       id="path1900" />
  </g>
</svg>
