<svg
   xmlns="http://www.w3.org/2000/svg"
   xmlns:sodipodi="http://sodipodi.sourceforge.net/DTD/sodipodi-0.dtd"
   xmlns:inkscape="http://www.inkscape.org/namespaces/inkscape"
   width="300"
   height="200">
  <defs
     id="defs9">
    <inkscape:perspective
       sodipodi:type="inkscape:persp3d"
       inkscape:vp_x="0 : 52.5 : 1"
       inkscape:vp_y="0 : 1000 : 0"
       inkscape:vp_z="204 : 52.5 : 1"
       inkscape:persp3d-origin="102 : 35 : 1"
       id="perspective13" />
  </defs>
  <sodipodi:namedview
     inkscape:window-height="729"
     inkscape:window-width="1280"
     inkscape:pageshadow="2"
     inkscape:pageopacity="0.0"
     guidetolerance="10.0"
     gridtolerance="10.0"
     objecttolerance="10.0"
     borderopacity="1.0"
     bordercolor="#666666"
     pagecolor="#ffffff"
     id="base"
     showgrid="false"
     inkscape:zoom="1.56"
     inkscape:cx="102"
     inkscape:cy="97.5"
     inkscape:window-x="0"
     inkscape:window-y="0"
     inkscape:current-layer="svg2" />
  <rect
     style="opacity:1;fill:#008000;fill-opacity:1"
     id="rect2386"
     width="300"
     height="100"
     x="0"
     y="100" />
  <rect
     style="opacity:1;fill:#00aad4;fill-opacity:1"
     id="rect2388"
     width="300"
     height="100"
     x="0"
     y="1.1324275e-14" />
  <path
     style="fill:#1a1a1a;stroke:none"
     d="M 47.694258,98.074929 C 37.148139,106.13153 33.519151,128.67879 34.571203,141.73714 L 43.360919,139.45906 C 42.012184,146.17218 45.140683,175.57049 57.1696,162.08435 C 60.356245,158.51166 53.447918,154.00964 52.17447,151.24616 C 50.316391,147.21438 52.181614,142.16366 54.377388,138.74016 C 63.565158,124.41488 80.458795,120.25828 92.190599,109.22763 C 95.225077,121.17835 89.167295,128.26506 90.062477,139.09596 C 90.656255,146.28154 98.064824,152.93924 102.42792,157.6287 C 105.58847,161.02559 116.78762,171.32357 120.8432,163.47906 C 123.53312,158.27579 104.33211,149.74442 103.20925,142.03798 C 102.40893,136.54563 106.23475,130.53646 108.51407,125.97992 C 111.43221,120.1466 114.94912,111.46891 120.34433,107.96159 C 127.25795,103.46719 145.74522,107.98824 153.69772,108.8185 C 150.51415,123.21053 139.65765,139.26601 139.69223,153.97998 C 139.72042,165.94914 146.93146,173.54075 157.20248,167.79073 L 147.50293,158.8599 C 156.29158,139.39976 161.28071,116.74042 182.02116,110.26565 C 186.73075,127.44051 207.53481,148.45819 221.72552,157.13618 C 225.49345,159.44053 237.52782,166.01954 241.39812,160.85056 C 245.54828,155.30701 231.19575,151.82194 228.97109,150.22398 C 220.32592,144.01617 197.66368,122.77181 199.45962,110.03768 C 200.395,103.39719 207.22243,102.05835 211.93536,99.720257 C 223.61174,93.928427 233.70391,86.341227 246.5517,83.924408 C 251.91233,82.916061 262.48978,86.914625 265.15596,78.978591 C 266.93713,73.675861 257.50199,69.47129 255.02192,66.227283 C 245.94839,54.363247 240.81423,42.76142 235.66,28.716984 C 219.66827,31.241318 216.36037,47.524437 198.86381,49.247827 C 160.09949,53.066072 118.69957,39.345848 81.211176,52.87792 C 66.259072,58.275242 45.060682,78.564674 47.694258,98.074929 z"
     id="path6" />
</svg>
