<?xml version="1.0" encoding="UTF-8" standalone="no"?>
<!-- Created with Inkscape (http://www.inkscape.org/) -->
<svg
   xmlns:dc="http://purl.org/dc/elements/1.1/"
   xmlns:cc="http://creativecommons.org/ns#"
   xmlns:rdf="http://www.w3.org/1999/02/22-rdf-syntax-ns#"
   xmlns:svg="http://www.w3.org/2000/svg"
   xmlns="http://www.w3.org/2000/svg"
   xmlns:sodipodi="http://sodipodi.sourceforge.net/DTD/sodipodi-0.dtd"
   xmlns:inkscape="http://www.inkscape.org/namespaces/inkscape"
   version="1.0"
   width="900"
   height="600"
   id="svg2"
   inkscape:version="0.46"
   sodipodi:docname="oman.svg"
   sodipodi:version="0.32"
   inkscape:output_extension="org.inkscape.output.svg.inkscape">
  <metadata
     id="metadata315">
    <rdf:RDF>
      <cc:Work
         rdf:about="">
        <dc:format>image/svg+xml</dc:format>
        <dc:type
           rdf:resource="http://purl.org/dc/dcmitype/StillImage" />
      </cc:Work>
    </rdf:RDF>
  </metadata>
  <defs
     id="defs313">
    <inkscape:perspective
       sodipodi:type="inkscape:persp3d"
       inkscape:vp_x="0 : 300 : 1"
       inkscape:vp_y="0 : 1000 : 0"
       inkscape:vp_z="1200 : 300 : 1"
       inkscape:persp3d-origin="600 : 200 : 1"
       id="perspective317" />
  </defs>
  <sodipodi:namedview
     pagecolor="#ffffff"
     bordercolor="#666666"
     borderopacity="1"
     objecttolerance="10"
     gridtolerance="10"
     guidetolerance="10"
     inkscape:pageopacity="0"
     inkscape:pageshadow="2"
     inkscape:window-width="1280"
     inkscape:window-height="729"
     id="namedview311"
     showgrid="false"
     inkscape:zoom="0.39333333"
     inkscape:cx="544.34265"
     inkscape:cy="300"
     inkscape:window-x="0"
     inkscape:window-y="0"
     inkscape:window-maximized="0"
     inkscape:current-layer="svg2" />
  <rect
     width="900"
     height="600"
     style="fill:#db161b;fill-opacity:1"
     id="rect4"
     x="0"
     y="0" />
  <rect
     width="600"
     height="200"
     x="300"
     y="400"
     style="fill:#008000;fill-opacity:1"
     id="rect6" />
  <rect
     width="600"
     height="200"
     x="300"
     style="fill:#ffffff"
     id="rect8"
     y="0" />
  <rect
     width="38.669147"
     height="21.21665"
     rx="3.2154148"
     ry="3.0152366"
     x="195.74289"
     y="103.5223"
     id="rect1138"
     style="font-size:12px;fill:#ffffff;fill-rule:evenodd;stroke:#ef2d28;stroke-width:0.28333373pt" />
  <rect
     width="36.686111"
     height="19.448589"
     rx="3.0505214"
     ry="2.7639663"
     x="196.73441"
     y="104.40629"
     id="rect1139"
     style="font-size:12px;fill:#ffffff;fill-rule:evenodd;stroke:#ef2d28;stroke-width:0.26422498pt" />
  <path
     d="M 213.79259,109.71051 L 215.64565,109.77519 L 215.72987,110.61398 L 217.24597,111.38824 L 218.42517,110.42038 L 219.85705,111.19464 L 218.50941,112.03357 L 218.84633,113.19504 L 220.53081,113.1305 L 220.53081,114.67917 L 219.18324,114.61463 L 218.50941,115.58249 L 220.02553,116.67942 L 218.84633,117.58275 L 217.5829,116.61489 L 215.72985,117.00209 L 215.81408,118.42169 L 213.79259,118.55076 L 213.53991,117.19569 L 211.85534,116.48582 L 210.92883,117.45368 L 209.49693,116.74396 L 210.33922,115.64703 L 209.32847,114.93716 L 207.89657,114.93716 L 207.81235,112.9369 L 209.24423,113.06597 L 210.25498,111.90451 L 209.07579,111.00118 L 210.59191,109.96879 L 211.68688,110.80758 L 213.53991,110.54944 L 213.79259,109.71051 z"
     id="path1140"
     style="font-size:12px;fill:#ffffff;fill-rule:evenodd;stroke:#ef2d28;stroke-width:0.16681166pt" />
  <ellipse
     cx="68.944084"
     cy="426.78302"
     rx="11.048731"
     ry="9.9438629"
     transform="matrix(0.1841806,0,0,0.1752043,201.65513,39.130481)"
     id="path1141"
     style="font-size:12px;fill:#ffffff;fill-rule:evenodd;stroke:#ef2d28;stroke-width:1pt"
     sodipodi:cx="68.944084"
     sodipodi:cy="426.78302"
     sodipodi:rx="11.048731"
     sodipodi:ry="9.9438629" />
  <path
     d="M 201.692,105.29032 L 198.71745,107.94242"
     id="path1143"
     style="font-size:12px;fill:#ffffff;fill-rule:evenodd;stroke:#ef2d28;stroke-width:0.26422498pt" />
  <path
     d="M 203.67502,105.29033 L 200.70047,107.94243"
     id="path1144"
     style="font-size:12px;fill:#ffffff;fill-rule:evenodd;stroke:#ef2d28;stroke-width:0.26422498pt" />
  <path
     d="M 205.65806,105.29035 L 202.68351,107.94245"
     id="path1145"
     style="font-size:12px;fill:#ffffff;fill-rule:evenodd;stroke:#ef2d28;stroke-width:0.26422498pt" />
  <path
     d="M 207.6411,105.29035 L 204.66655,107.94245"
     id="path1146"
     style="font-size:12px;fill:#ffffff;fill-rule:evenodd;stroke:#ef2d28;stroke-width:0.26422498pt" />
  <path
     d="M 209.62412,105.29033 L 206.64957,107.94243"
     id="path1147"
     style="font-size:12px;fill:#ffffff;fill-rule:evenodd;stroke:#ef2d28;stroke-width:0.26422498pt" />
  <path
     d="M 211.60716,105.29039 L 208.63261,107.94249"
     id="path1148"
     style="font-size:12px;fill:#ffffff;fill-rule:evenodd;stroke:#ef2d28;stroke-width:0.26422498pt" />
  <path
     d="M 213.59019,105.29035 L 210.61564,107.94245"
     id="path1149"
     style="font-size:12px;fill:#ffffff;fill-rule:evenodd;stroke:#ef2d28;stroke-width:0.26422498pt" />
  <path
     d="M 215.57321,105.29037 L 212.59866,107.94247"
     id="path1150"
     style="font-size:12px;fill:#ffffff;fill-rule:evenodd;stroke:#ef2d28;stroke-width:0.26422498pt" />
  <path
     d="M 217.55626,105.29035 L 214.58171,107.94245"
     id="path1151"
     style="font-size:12px;fill:#ffffff;fill-rule:evenodd;stroke:#ef2d28;stroke-width:0.26422498pt" />
  <path
     d="M 219.53929,105.29039 L 216.56474,107.94249"
     id="path1152"
     style="font-size:12px;fill:#ffffff;fill-rule:evenodd;stroke:#ef2d28;stroke-width:0.26422498pt" />
  <path
     d="M 221.52231,105.29041 L 218.54776,107.94251"
     id="path1153"
     style="font-size:12px;fill:#ffffff;fill-rule:evenodd;stroke:#ef2d28;stroke-width:0.26422498pt" />
  <path
     d="M 223.50535,105.29043 L 220.5308,107.94253"
     id="path1154"
     style="font-size:12px;fill:#ffffff;fill-rule:evenodd;stroke:#ef2d28;stroke-width:0.26422498pt" />
  <path
     d="M 215.57321,105.29037 L 212.59866,107.94247"
     id="path1155"
     style="font-size:12px;fill:#ffffff;fill-rule:evenodd;stroke:#ef2d28;stroke-width:0.26422498pt" />
  <path
     d="M 225.48839,105.29035 L 222.51384,107.94245"
     id="path1156"
     style="font-size:12px;fill:#ffffff;fill-rule:evenodd;stroke:#ef2d28;stroke-width:0.26422498pt" />
  <path
     d="M 227.47141,105.29037 L 224.49686,107.94247"
     id="path1157"
     style="font-size:12px;fill:#ffffff;fill-rule:evenodd;stroke:#ef2d28;stroke-width:0.26422498pt" />
  <path
     d="M 229.45444,105.29039 L 226.47989,107.94249"
     id="path1158"
     style="font-size:12px;fill:#ffffff;fill-rule:evenodd;stroke:#ef2d28;stroke-width:0.26422498pt" />
  <path
     d="M 231.43749,105.29033 L 228.46294,107.94243"
     id="path1159"
     style="font-size:12px;fill:#ffffff;fill-rule:evenodd;stroke:#ef2d28;stroke-width:0.26422498pt" />
  <path
     d="M 228.46294,105.29031 L 231.43749,107.94241"
     id="path1160"
     style="font-size:12px;fill:#ffffff;fill-rule:evenodd;stroke:#ef2d28;stroke-width:0.26422498pt" />
  <path
     d="M 226.47992,105.29033 L 229.45447,107.94243"
     id="path1161"
     style="font-size:12px;fill:#ffffff;fill-rule:evenodd;stroke:#ef2d28;stroke-width:0.26422498pt" />
  <path
     d="M 224.49689,105.29035 L 227.47144,107.94245"
     id="path1162"
     style="font-size:12px;fill:#ffffff;fill-rule:evenodd;stroke:#ef2d28;stroke-width:0.26422498pt" />
  <path
     d="M 222.51383,105.29035 L 225.48838,107.94245"
     id="path1163"
     style="font-size:12px;fill:#ffffff;fill-rule:evenodd;stroke:#ef2d28;stroke-width:0.26422498pt" />
  <path
     d="M 220.53083,105.29033 L 223.50538,107.94243"
     id="path1164"
     style="font-size:12px;fill:#ffffff;fill-rule:evenodd;stroke:#ef2d28;stroke-width:0.26422498pt" />
  <path
     d="M 218.5478,105.29039 L 221.52235,107.94249"
     id="path1165"
     style="font-size:12px;fill:#ffffff;fill-rule:evenodd;stroke:#ef2d28;stroke-width:0.26422498pt" />
  <path
     d="M 216.56474,105.29035 L 219.53929,107.94245"
     id="path1166"
     style="font-size:12px;fill:#ffffff;fill-rule:evenodd;stroke:#ef2d28;stroke-width:0.26422498pt" />
  <path
     d="M 214.58174,105.29037 L 217.55629,107.94247"
     id="path1167"
     style="font-size:12px;fill:#ffffff;fill-rule:evenodd;stroke:#ef2d28;stroke-width:0.26422498pt" />
  <path
     d="M 212.59868,105.29035 L 215.57323,107.94245"
     id="path1168"
     style="font-size:12px;fill:#ffffff;fill-rule:evenodd;stroke:#ef2d28;stroke-width:0.26422498pt" />
  <path
     d="M 210.61566,105.29039 L 213.59021,107.94249"
     id="path1169"
     style="font-size:12px;fill:#ffffff;fill-rule:evenodd;stroke:#ef2d28;stroke-width:0.26422498pt" />
  <path
     d="M 208.63263,105.29041 L 211.60718,107.94251"
     id="path1170"
     style="font-size:12px;fill:#ffffff;fill-rule:evenodd;stroke:#ef2d28;stroke-width:0.26422498pt" />
  <path
     d="M 206.6496,105.29043 L 209.62415,107.94253"
     id="path1171"
     style="font-size:12px;fill:#ffffff;fill-rule:evenodd;stroke:#ef2d28;stroke-width:0.26422498pt" />
  <path
     d="M 214.58174,105.29037 L 217.55629,107.94247"
     id="path1172"
     style="font-size:12px;fill:#ffffff;fill-rule:evenodd;stroke:#ef2d28;stroke-width:0.26422498pt" />
  <path
     d="M 204.66656,105.29035 L 207.64111,107.94245"
     id="path1173"
     style="font-size:12px;fill:#ffffff;fill-rule:evenodd;stroke:#ef2d28;stroke-width:0.26422498pt" />
  <path
     d="M 202.68354,105.29037 L 205.65809,107.94247"
     id="path1174"
     style="font-size:12px;fill:#ffffff;fill-rule:evenodd;stroke:#ef2d28;stroke-width:0.26422498pt" />
  <path
     d="M 200.7005,105.29039 L 203.67505,107.94249"
     id="path1175"
     style="font-size:12px;fill:#ffffff;fill-rule:evenodd;stroke:#ef2d28;stroke-width:0.26422498pt" />
  <path
     d="M 198.71745,105.29033 L 201.692,107.94243"
     id="path1176"
     style="font-size:12px;fill:#ffffff;fill-rule:evenodd;stroke:#ef2d28;stroke-width:0.26422498pt" />
  <path
     d="M 201.69199,120.31867 L 198.71744,122.97077"
     id="path1178"
     style="font-size:12px;fill:#ffffff;fill-rule:evenodd;stroke:#ef2d28;stroke-width:0.26422498pt" />
  <path
     d="M 203.67501,120.31868 L 200.70046,122.97078"
     id="path1179"
     style="font-size:12px;fill:#ffffff;fill-rule:evenodd;stroke:#ef2d28;stroke-width:0.26422498pt" />
  <path
     d="M 205.65805,120.3187 L 202.6835,122.9708"
     id="path1180"
     style="font-size:12px;fill:#ffffff;fill-rule:evenodd;stroke:#ef2d28;stroke-width:0.26422498pt" />
  <path
     d="M 207.64109,120.3187 L 204.66654,122.9708"
     id="path1181"
     style="font-size:12px;fill:#ffffff;fill-rule:evenodd;stroke:#ef2d28;stroke-width:0.26422498pt" />
  <path
     d="M 209.62411,120.31868 L 206.64956,122.97078"
     id="path1182"
     style="font-size:12px;fill:#ffffff;fill-rule:evenodd;stroke:#ef2d28;stroke-width:0.26422498pt" />
  <path
     d="M 211.60715,120.31874 L 208.6326,122.97084"
     id="path1183"
     style="font-size:12px;fill:#ffffff;fill-rule:evenodd;stroke:#ef2d28;stroke-width:0.26422498pt" />
  <path
     d="M 213.59018,120.3187 L 210.61563,122.9708"
     id="path1184"
     style="font-size:12px;fill:#ffffff;fill-rule:evenodd;stroke:#ef2d28;stroke-width:0.26422498pt" />
  <path
     d="M 215.5732,120.31872 L 212.59865,122.97082"
     id="path1185"
     style="font-size:12px;fill:#ffffff;fill-rule:evenodd;stroke:#ef2d28;stroke-width:0.26422498pt" />
  <path
     d="M 217.55625,120.3187 L 214.5817,122.9708"
     id="path1186"
     style="font-size:12px;fill:#ffffff;fill-rule:evenodd;stroke:#ef2d28;stroke-width:0.26422498pt" />
  <path
     d="M 219.53928,120.31874 L 216.56473,122.97084"
     id="path1187"
     style="font-size:12px;fill:#ffffff;fill-rule:evenodd;stroke:#ef2d28;stroke-width:0.26422498pt" />
  <path
     d="M 221.5223,120.31876 L 218.54775,122.97086"
     id="path1188"
     style="font-size:12px;fill:#ffffff;fill-rule:evenodd;stroke:#ef2d28;stroke-width:0.26422498pt" />
  <path
     d="M 223.50534,120.31877 L 220.53079,122.97087"
     id="path1189"
     style="font-size:12px;fill:#ffffff;fill-rule:evenodd;stroke:#ef2d28;stroke-width:0.26422498pt" />
  <path
     d="M 215.5732,120.31872 L 212.59865,122.97082"
     id="path1190"
     style="font-size:12px;fill:#ffffff;fill-rule:evenodd;stroke:#ef2d28;stroke-width:0.26422498pt" />
  <path
     d="M 225.48838,120.3187 L 222.51383,122.9708"
     id="path1191"
     style="font-size:12px;fill:#ffffff;fill-rule:evenodd;stroke:#ef2d28;stroke-width:0.26422498pt" />
  <path
     d="M 227.4714,120.31872 L 224.49685,122.97082"
     id="path1192"
     style="font-size:12px;fill:#ffffff;fill-rule:evenodd;stroke:#ef2d28;stroke-width:0.26422498pt" />
  <path
     d="M 229.45443,120.31874 L 226.47988,122.97084"
     id="path1193"
     style="font-size:12px;fill:#ffffff;fill-rule:evenodd;stroke:#ef2d28;stroke-width:0.26422498pt" />
  <path
     d="M 231.43748,120.31868 L 228.46293,122.97078"
     id="path1194"
     style="font-size:12px;fill:#ffffff;fill-rule:evenodd;stroke:#ef2d28;stroke-width:0.26422498pt" />
  <path
     d="M 228.46293,120.31866 L 231.43748,122.97076"
     id="path1195"
     style="font-size:12px;fill:#ffffff;fill-rule:evenodd;stroke:#ef2d28;stroke-width:0.26422498pt" />
  <path
     d="M 226.47991,120.31868 L 229.45446,122.97078"
     id="path1196"
     style="font-size:12px;fill:#ffffff;fill-rule:evenodd;stroke:#ef2d28;stroke-width:0.26422498pt" />
  <path
     d="M 224.49688,120.3187 L 227.47143,122.9708"
     id="path1197"
     style="font-size:12px;fill:#ffffff;fill-rule:evenodd;stroke:#ef2d28;stroke-width:0.26422498pt" />
  <path
     d="M 222.51382,120.3187 L 225.48837,122.9708"
     id="path1198"
     style="font-size:12px;fill:#ffffff;fill-rule:evenodd;stroke:#ef2d28;stroke-width:0.26422498pt" />
  <path
     d="M 220.53082,120.31868 L 223.50537,122.97078"
     id="path1199"
     style="font-size:12px;fill:#ffffff;fill-rule:evenodd;stroke:#ef2d28;stroke-width:0.26422498pt" />
  <path
     d="M 218.54779,120.31874 L 221.52234,122.97084"
     id="path1200"
     style="font-size:12px;fill:#ffffff;fill-rule:evenodd;stroke:#ef2d28;stroke-width:0.26422498pt" />
  <path
     d="M 216.56473,120.3187 L 219.53928,122.9708"
     id="path1201"
     style="font-size:12px;fill:#ffffff;fill-rule:evenodd;stroke:#ef2d28;stroke-width:0.26422498pt" />
  <path
     d="M 214.58173,120.31872 L 217.55628,122.97082"
     id="path1202"
     style="font-size:12px;fill:#ffffff;fill-rule:evenodd;stroke:#ef2d28;stroke-width:0.26422498pt" />
  <path
     d="M 212.59867,120.3187 L 215.57322,122.9708"
     id="path1203"
     style="font-size:12px;fill:#ffffff;fill-rule:evenodd;stroke:#ef2d28;stroke-width:0.26422498pt" />
  <path
     d="M 210.61565,120.31874 L 213.5902,122.97084"
     id="path1204"
     style="font-size:12px;fill:#ffffff;fill-rule:evenodd;stroke:#ef2d28;stroke-width:0.26422498pt" />
  <path
     d="M 208.63262,120.31876 L 211.60717,122.97086"
     id="path1205"
     style="font-size:12px;fill:#ffffff;fill-rule:evenodd;stroke:#ef2d28;stroke-width:0.26422498pt" />
  <path
     d="M 206.64959,120.31877 L 209.62414,122.97087"
     id="path1206"
     style="font-size:12px;fill:#ffffff;fill-rule:evenodd;stroke:#ef2d28;stroke-width:0.26422498pt" />
  <path
     d="M 214.58173,120.31872 L 217.55628,122.97082"
     id="path1207"
     style="font-size:12px;fill:#ffffff;fill-rule:evenodd;stroke:#ef2d28;stroke-width:0.26422498pt" />
  <path
     d="M 204.66655,120.3187 L 207.6411,122.9708"
     id="path1208"
     style="font-size:12px;fill:#ffffff;fill-rule:evenodd;stroke:#ef2d28;stroke-width:0.26422498pt" />
  <path
     d="M 202.68353,120.31872 L 205.65808,122.97082"
     id="path1209"
     style="font-size:12px;fill:#ffffff;fill-rule:evenodd;stroke:#ef2d28;stroke-width:0.26422498pt" />
  <path
     d="M 200.70049,120.31874 L 203.67504,122.97084"
     id="path1210"
     style="font-size:12px;fill:#ffffff;fill-rule:evenodd;stroke:#ef2d28;stroke-width:0.26422498pt" />
  <path
     d="M 198.71744,120.31868 L 201.69199,122.97078"
     id="path1211"
     style="font-size:12px;fill:#ffffff;fill-rule:evenodd;stroke:#ef2d28;stroke-width:0.26422498pt" />
  <rect
     width="38.669147"
     height="21.21665"
     rx="3.2154148"
     ry="3.0152366"
     x="65.854233"
     y="102.6383"
     id="rect1061"
     style="font-size:12px;fill:#ffffff;fill-rule:evenodd;stroke:#ef2d28;stroke-width:0.28333373pt" />
  <rect
     width="36.686111"
     height="19.448589"
     rx="3.0505214"
     ry="2.7639663"
     x="66.845749"
     y="103.52229"
     id="rect936"
     style="font-size:12px;fill:#ffffff;fill-rule:evenodd;stroke:#ef2d28;stroke-width:0.26422498pt" />
  <path
     d="M 83.903927,108.8265 L 85.756982,108.89118 L 85.841201,109.72998 L 87.357303,110.50423 L 88.536507,109.53637 L 89.968389,110.31063 L 88.620746,111.14957 L 88.957661,112.31103 L 90.642144,112.2465 L 90.642144,113.79516 L 89.294577,113.73063 L 88.620746,114.69849 L 90.136866,115.79542 L 88.957661,116.69875 L 87.694237,115.73089 L 85.841182,116.11809 L 85.925421,117.53768 L 83.903927,117.66675 L 83.65125,116.31169 L 81.966672,115.60182 L 81.040163,116.56968 L 79.608262,115.85995 L 80.450551,114.76302 L 79.439804,114.05315 L 78.007903,114.05315 L 77.923684,112.0529 L 79.355566,112.18197 L 80.366313,111.0205 L 79.187127,110.11718 L 80.703247,109.08478 L 81.798214,109.92358 L 83.65125,109.66544 L 83.903927,108.8265 z"
     id="path934"
     style="font-size:12px;fill:#ffffff;fill-rule:evenodd;stroke:#ef2d28;stroke-width:0.16681166pt" />
  <ellipse
     cx="68.944084"
     cy="426.78302"
     rx="11.048731"
     ry="9.9438629"
     transform="matrix(0.1841806,0,0,0.1752043,71.76647,38.246478)"
     id="path935"
     style="font-size:12px;fill:#ffffff;fill-rule:evenodd;stroke:#ef2d28;stroke-width:1pt"
     sodipodi:cx="68.944084"
     sodipodi:cy="426.78302"
     sodipodi:rx="11.048731"
     sodipodi:ry="9.9438629" />
  <path
     d="M 71.803337,104.40632 L 68.828793,107.05842"
     id="path938"
     style="font-size:12px;fill:#ffffff;fill-rule:evenodd;stroke:#ef2d28;stroke-width:0.26422498pt" />
  <path
     d="M 73.786358,104.40633 L 70.811814,107.05843"
     id="path939"
     style="font-size:12px;fill:#ffffff;fill-rule:evenodd;stroke:#ef2d28;stroke-width:0.26422498pt" />
  <path
     d="M 75.769395,104.40635 L 72.794851,107.05845"
     id="path940"
     style="font-size:12px;fill:#ffffff;fill-rule:evenodd;stroke:#ef2d28;stroke-width:0.26422498pt" />
  <path
     d="M 77.752438,104.40635 L 74.777894,107.05845"
     id="path941"
     style="font-size:12px;fill:#ffffff;fill-rule:evenodd;stroke:#ef2d28;stroke-width:0.26422498pt" />
  <path
     d="M 79.735456,104.40633 L 76.760912,107.05843"
     id="path942"
     style="font-size:12px;fill:#ffffff;fill-rule:evenodd;stroke:#ef2d28;stroke-width:0.26422498pt" />
  <path
     d="M 81.718497,104.40639 L 78.743953,107.05849"
     id="path943"
     style="font-size:12px;fill:#ffffff;fill-rule:evenodd;stroke:#ef2d28;stroke-width:0.26422498pt" />
  <path
     d="M 83.701523,104.40635 L 80.726979,107.05845"
     id="path950"
     style="font-size:12px;fill:#ffffff;fill-rule:evenodd;stroke:#ef2d28;stroke-width:0.26422498pt" />
  <path
     d="M 85.684544,104.40637 L 82.71,107.05847"
     id="path951"
     style="font-size:12px;fill:#ffffff;fill-rule:evenodd;stroke:#ef2d28;stroke-width:0.26422498pt" />
  <path
     d="M 87.667595,104.40635 L 84.693051,107.05845"
     id="path952"
     style="font-size:12px;fill:#ffffff;fill-rule:evenodd;stroke:#ef2d28;stroke-width:0.26422498pt" />
  <path
     d="M 89.650624,104.40639 L 86.67608,107.05849"
     id="path953"
     style="font-size:12px;fill:#ffffff;fill-rule:evenodd;stroke:#ef2d28;stroke-width:0.26422498pt" />
  <path
     d="M 91.633645,104.40641 L 88.659101,107.05851"
     id="path954"
     style="font-size:12px;fill:#ffffff;fill-rule:evenodd;stroke:#ef2d28;stroke-width:0.26422498pt" />
  <path
     d="M 93.616682,104.40642 L 90.642138,107.05852"
     id="path955"
     style="font-size:12px;fill:#ffffff;fill-rule:evenodd;stroke:#ef2d28;stroke-width:0.26422498pt" />
  <path
     d="M 85.684544,104.40637 L 82.71,107.05847"
     id="path957"
     style="font-size:12px;fill:#ffffff;fill-rule:evenodd;stroke:#ef2d28;stroke-width:0.26422498pt" />
  <path
     d="M 95.599723,104.40635 L 92.625179,107.05845"
     id="path962"
     style="font-size:12px;fill:#ffffff;fill-rule:evenodd;stroke:#ef2d28;stroke-width:0.26422498pt" />
  <path
     d="M 97.582743,104.40637 L 94.608199,107.05847"
     id="path963"
     style="font-size:12px;fill:#ffffff;fill-rule:evenodd;stroke:#ef2d28;stroke-width:0.26422498pt" />
  <path
     d="M 99.565781,104.40639 L 96.591237,107.05849"
     id="path964"
     style="font-size:12px;fill:#ffffff;fill-rule:evenodd;stroke:#ef2d28;stroke-width:0.26422498pt" />
  <path
     d="M 101.54883,104.40633 L 98.574286,107.05843"
     id="path965"
     style="font-size:12px;fill:#ffffff;fill-rule:evenodd;stroke:#ef2d28;stroke-width:0.26422498pt" />
  <path
     d="M 98.574282,104.40631 L 101.54883,107.05841"
     id="path974"
     style="font-size:12px;fill:#ffffff;fill-rule:evenodd;stroke:#ef2d28;stroke-width:0.26422498pt" />
  <path
     d="M 96.591252,104.40633 L 99.565796,107.05843"
     id="path975"
     style="font-size:12px;fill:#ffffff;fill-rule:evenodd;stroke:#ef2d28;stroke-width:0.26422498pt" />
  <path
     d="M 94.608232,104.40635 L 97.582776,107.05845"
     id="path976"
     style="font-size:12px;fill:#ffffff;fill-rule:evenodd;stroke:#ef2d28;stroke-width:0.26422498pt" />
  <path
     d="M 92.625172,104.40635 L 95.599716,107.05845"
     id="path977"
     style="font-size:12px;fill:#ffffff;fill-rule:evenodd;stroke:#ef2d28;stroke-width:0.26422498pt" />
  <path
     d="M 90.642172,104.40633 L 93.616716,107.05843"
     id="path978"
     style="font-size:12px;fill:#ffffff;fill-rule:evenodd;stroke:#ef2d28;stroke-width:0.26422498pt" />
  <path
     d="M 88.65914,104.40639 L 91.633684,107.05849"
     id="path979"
     style="font-size:12px;fill:#ffffff;fill-rule:evenodd;stroke:#ef2d28;stroke-width:0.26422498pt" />
  <path
     d="M 86.676083,104.40635 L 89.650627,107.05845"
     id="path980"
     style="font-size:12px;fill:#ffffff;fill-rule:evenodd;stroke:#ef2d28;stroke-width:0.26422498pt" />
  <path
     d="M 84.693082,104.40637 L 87.667626,107.05847"
     id="path981"
     style="font-size:12px;fill:#ffffff;fill-rule:evenodd;stroke:#ef2d28;stroke-width:0.26422498pt" />
  <path
     d="M 82.710025,104.40635 L 85.684569,107.05845"
     id="path982"
     style="font-size:12px;fill:#ffffff;fill-rule:evenodd;stroke:#ef2d28;stroke-width:0.26422498pt" />
  <path
     d="M 80.726996,104.40639 L 83.70154,107.05849"
     id="path983"
     style="font-size:12px;fill:#ffffff;fill-rule:evenodd;stroke:#ef2d28;stroke-width:0.26422498pt" />
  <path
     d="M 78.743967,104.40641 L 81.718511,107.05851"
     id="path984"
     style="font-size:12px;fill:#ffffff;fill-rule:evenodd;stroke:#ef2d28;stroke-width:0.26422498pt" />
  <path
     d="M 76.760938,104.40642 L 79.735482,107.05852"
     id="path985"
     style="font-size:12px;fill:#ffffff;fill-rule:evenodd;stroke:#ef2d28;stroke-width:0.26422498pt" />
  <path
     d="M 84.693082,104.40637 L 87.667626,107.05847"
     id="path986"
     style="font-size:12px;fill:#ffffff;fill-rule:evenodd;stroke:#ef2d28;stroke-width:0.26422498pt" />
  <path
     d="M 74.777898,104.40635 L 77.752442,107.05845"
     id="path987"
     style="font-size:12px;fill:#ffffff;fill-rule:evenodd;stroke:#ef2d28;stroke-width:0.26422498pt" />
  <path
     d="M 72.794877,104.40637 L 75.769421,107.05847"
     id="path988"
     style="font-size:12px;fill:#ffffff;fill-rule:evenodd;stroke:#ef2d28;stroke-width:0.26422498pt" />
  <path
     d="M 70.811839,104.40639 L 73.786383,107.05849"
     id="path989"
     style="font-size:12px;fill:#ffffff;fill-rule:evenodd;stroke:#ef2d28;stroke-width:0.26422498pt" />
  <path
     d="M 68.828791,104.40633 L 71.803335,107.05843"
     id="path990"
     style="font-size:12px;fill:#ffffff;fill-rule:evenodd;stroke:#ef2d28;stroke-width:0.26422498pt" />
  <path
     d="M 71.803327,119.43466 L 68.828783,122.08676"
     id="path1027"
     style="font-size:12px;fill:#ffffff;fill-rule:evenodd;stroke:#ef2d28;stroke-width:0.26422498pt" />
  <path
     d="M 73.786348,119.43468 L 70.811804,122.08678"
     id="path1028"
     style="font-size:12px;fill:#ffffff;fill-rule:evenodd;stroke:#ef2d28;stroke-width:0.26422498pt" />
  <path
     d="M 75.769385,119.4347 L 72.794841,122.0868"
     id="path1029"
     style="font-size:12px;fill:#ffffff;fill-rule:evenodd;stroke:#ef2d28;stroke-width:0.26422498pt" />
  <path
     d="M 77.752428,119.4347 L 74.777884,122.0868"
     id="path1030"
     style="font-size:12px;fill:#ffffff;fill-rule:evenodd;stroke:#ef2d28;stroke-width:0.26422498pt" />
  <path
     d="M 79.735446,119.43468 L 76.760902,122.08678"
     id="path1031"
     style="font-size:12px;fill:#ffffff;fill-rule:evenodd;stroke:#ef2d28;stroke-width:0.26422498pt" />
  <path
     d="M 81.718487,119.43473 L 78.743943,122.08683"
     id="path1032"
     style="font-size:12px;fill:#ffffff;fill-rule:evenodd;stroke:#ef2d28;stroke-width:0.26422498pt" />
  <path
     d="M 83.701513,119.4347 L 80.726969,122.0868"
     id="path1033"
     style="font-size:12px;fill:#ffffff;fill-rule:evenodd;stroke:#ef2d28;stroke-width:0.26422498pt" />
  <path
     d="M 85.684534,119.43471 L 82.70999,122.08681"
     id="path1034"
     style="font-size:12px;fill:#ffffff;fill-rule:evenodd;stroke:#ef2d28;stroke-width:0.26422498pt" />
  <path
     d="M 87.667585,119.4347 L 84.693041,122.0868"
     id="path1035"
     style="font-size:12px;fill:#ffffff;fill-rule:evenodd;stroke:#ef2d28;stroke-width:0.26422498pt" />
  <path
     d="M 89.650614,119.43473 L 86.67607,122.08683"
     id="path1036"
     style="font-size:12px;fill:#ffffff;fill-rule:evenodd;stroke:#ef2d28;stroke-width:0.26422498pt" />
  <path
     d="M 91.633635,119.43475 L 88.659091,122.08685"
     id="path1037"
     style="font-size:12px;fill:#ffffff;fill-rule:evenodd;stroke:#ef2d28;stroke-width:0.26422498pt" />
  <path
     d="M 93.616672,119.43477 L 90.642128,122.08687"
     id="path1038"
     style="font-size:12px;fill:#ffffff;fill-rule:evenodd;stroke:#ef2d28;stroke-width:0.26422498pt" />
  <path
     d="M 85.684534,119.43471 L 82.70999,122.08681"
     id="path1039"
     style="font-size:12px;fill:#ffffff;fill-rule:evenodd;stroke:#ef2d28;stroke-width:0.26422498pt" />
  <path
     d="M 95.599713,119.4347 L 92.625169,122.0868"
     id="path1040"
     style="font-size:12px;fill:#ffffff;fill-rule:evenodd;stroke:#ef2d28;stroke-width:0.26422498pt" />
  <path
     d="M 97.582733,119.43471 L 94.608189,122.08681"
     id="path1041"
     style="font-size:12px;fill:#ffffff;fill-rule:evenodd;stroke:#ef2d28;stroke-width:0.26422498pt" />
  <path
     d="M 99.565771,119.43473 L 96.591227,122.08683"
     id="path1042"
     style="font-size:12px;fill:#ffffff;fill-rule:evenodd;stroke:#ef2d28;stroke-width:0.26422498pt" />
  <path
     d="M 101.54882,119.43468 L 98.574276,122.08678"
     id="path1043"
     style="font-size:12px;fill:#ffffff;fill-rule:evenodd;stroke:#ef2d28;stroke-width:0.26422498pt" />
  <path
     d="M 98.574272,119.43466 L 101.54882,122.08676"
     id="path1044"
     style="font-size:12px;fill:#ffffff;fill-rule:evenodd;stroke:#ef2d28;stroke-width:0.26422498pt" />
  <path
     d="M 96.591242,119.43468 L 99.565786,122.08678"
     id="path1045"
     style="font-size:12px;fill:#ffffff;fill-rule:evenodd;stroke:#ef2d28;stroke-width:0.26422498pt" />
  <path
     d="M 94.608222,119.4347 L 97.582766,122.0868"
     id="path1046"
     style="font-size:12px;fill:#ffffff;fill-rule:evenodd;stroke:#ef2d28;stroke-width:0.26422498pt" />
  <path
     d="M 92.625162,119.4347 L 95.599706,122.0868"
     id="path1047"
     style="font-size:12px;fill:#ffffff;fill-rule:evenodd;stroke:#ef2d28;stroke-width:0.26422498pt" />
  <path
     d="M 90.642162,119.43468 L 93.616706,122.08678"
     id="path1048"
     style="font-size:12px;fill:#ffffff;fill-rule:evenodd;stroke:#ef2d28;stroke-width:0.26422498pt" />
  <path
     d="M 88.65913,119.43473 L 91.633674,122.08683"
     id="path1049"
     style="font-size:12px;fill:#ffffff;fill-rule:evenodd;stroke:#ef2d28;stroke-width:0.26422498pt" />
  <path
     d="M 86.676073,119.4347 L 89.650617,122.0868"
     id="path1050"
     style="font-size:12px;fill:#ffffff;fill-rule:evenodd;stroke:#ef2d28;stroke-width:0.26422498pt" />
  <path
     d="M 84.693072,119.43471 L 87.667616,122.08681"
     id="path1051"
     style="font-size:12px;fill:#ffffff;fill-rule:evenodd;stroke:#ef2d28;stroke-width:0.26422498pt" />
  <path
     d="M 82.710015,119.4347 L 85.684559,122.0868"
     id="path1052"
     style="font-size:12px;fill:#ffffff;fill-rule:evenodd;stroke:#ef2d28;stroke-width:0.26422498pt" />
  <path
     d="M 80.726986,119.43473 L 83.70153,122.08683"
     id="path1053"
     style="font-size:12px;fill:#ffffff;fill-rule:evenodd;stroke:#ef2d28;stroke-width:0.26422498pt" />
  <path
     d="M 78.743957,119.43475 L 81.718501,122.08685"
     id="path1054"
     style="font-size:12px;fill:#ffffff;fill-rule:evenodd;stroke:#ef2d28;stroke-width:0.26422498pt" />
  <path
     d="M 76.760928,119.43477 L 79.735472,122.08687"
     id="path1055"
     style="font-size:12px;fill:#ffffff;fill-rule:evenodd;stroke:#ef2d28;stroke-width:0.26422498pt" />
  <path
     d="M 84.693072,119.43471 L 87.667616,122.08681"
     id="path1056"
     style="font-size:12px;fill:#ffffff;fill-rule:evenodd;stroke:#ef2d28;stroke-width:0.26422498pt" />
  <path
     d="M 74.777888,119.4347 L 77.752432,122.0868"
     id="path1057"
     style="font-size:12px;fill:#ffffff;fill-rule:evenodd;stroke:#ef2d28;stroke-width:0.26422498pt" />
  <path
     d="M 72.794867,119.43471 L 75.769411,122.08681"
     id="path1058"
     style="font-size:12px;fill:#ffffff;fill-rule:evenodd;stroke:#ef2d28;stroke-width:0.26422498pt" />
  <path
     d="M 70.811829,119.43473 L 73.786373,122.08683"
     id="path1059"
     style="font-size:12px;fill:#ffffff;fill-rule:evenodd;stroke:#ef2d28;stroke-width:0.26422498pt" />
  <path
     d="M 68.828781,119.43468 L 71.803325,122.08678"
     id="path1060"
     style="font-size:12px;fill:#ffffff;fill-rule:evenodd;stroke:#ef2d28;stroke-width:0.26422498pt" />
  <path
     d="M 126.50831,147.11597 C 78.396006,194.16552 57.871848,200.11726 67.504155,203.90894 C 77.136461,207.70062 108.1186,183.41864 140.35845,151.16424 C 172.59857,118.90954 192.34289,90.204291 182.71059,86.412614 C 173.07828,82.620938 177.68038,97.074759 126.50831,147.11597 z"
     id="path911"
     style="font-size:12px;fill:#ffffff;fill-rule:evenodd;stroke:#ef2d28;stroke-width:0.42368097pt" />
  <path
     d="M 86.007935,181.31487 L 102.86365,185.73487 C 86.999366,200.76327 69.151656,206.95142 64.194503,204.29932 C 59.23679,201.64747 73.118218,195.45907 86.007935,181.31487 z"
     id="path912"
     style="font-size:12px;fill:#ffffff;fill-rule:evenodd;stroke:#ef2d28;stroke-width:0.33028123" />
  <path
     d="M 86.007996,183.08289 L 99.889084,186.61898 C 84.436064,201.06944 69.152038,205.18344 65.196994,203.4154 C 61.219871,201.64735 73.452434,196.68316 86.007996,183.08289 z"
     id="path913"
     style="font-size:12px;fill:#ffffff;fill-rule:evenodd;stroke:#ef2d28;stroke-width:0.33028045" />
  <path
     d="M 137.78667,145.06405 C 137.74982,145.28624 137.63927,146.29771 137.54034,146.70037 C 137.54034,147.25646 137.48359,147.68339 137.41718,148.11852 C 137.26032,148.4985 137.28692,148.85125 136.80136,148.99141 C 136.46753,149.45063 136.25747,149.56966 135.81605,149.75503 C 135.51513,149.98595 135.05933,150.21617 134.58441,150.40956 C 134.09195,150.59649 133.64422,150.62215 133.10644,150.51865 C 132.67487,150.2523 132.35682,149.97757 131.99797,149.75503 C 131.91343,149.41066 131.83598,148.89925 131.75164,148.55505 C 131.88446,148.90833 131.97767,149.47402 131.99797,149.9732 C 131.95067,150.51777 131.74868,150.75532 131.50531,151.17318"
     id="path914"
     style="font-size:12px;fill:none;fill-rule:evenodd;stroke:#ef2d28;stroke-width:0.33028081" />
  <path
     d="M 133.22948,152.37312 C 133.18849,152.33682 133.1475,152.30034 133.10631,152.26403 C 133.39875,152.52305 133.27933,152.39948 132.61366,152.04586 C 132.13558,151.82838 131.62539,151.71283 131.01253,151.6095 C 130.43789,151.6095 129.86306,151.6095 129.28823,151.6095 C 128.61724,151.6095 128.16577,151.69869 127.6871,151.82768 C 127.33988,152.13522 126.82141,152.30994 126.45546,152.5913 C 126.08006,152.81733 125.91906,153.08508 125.71648,153.46401 C 125.38128,153.7609 125.16411,154.21907 124.85433,154.4458 C 124.7156,154.94691 124.43242,154.92981 124.23851,155.31851 C 124.81945,155.35813 125.28511,155.42865 125.59332,155.75487 C 126.10509,155.98945 125.16392,155.52499 124.9775,155.31851 C 124.57431,155.21064 124.46986,155.10033 123.86902,155.10033 C 123.30739,154.94255 122.96667,155.22897 122.39106,155.31851 C 122.05506,155.49078 121.96185,155.53669 121.52871,155.53669"
     id="path915"
     style="font-size:12px;fill:none;fill-rule:evenodd;stroke:#ef2d28;stroke-width:0.33028081" />
  <path
     d="M 126.57866,157.8277 C 126.3278,157.84079 125.18287,158.02772 124.73101,157.8277 C 124.22811,157.70622 123.92936,157.47163 123.62253,157.06408 C 123.47139,156.76928 123.62253,157.58735 123.62253,157.93679 C 123.56677,158.5791 123.35335,158.58503 123.00671,159.02767 C 122.64924,159.23066 122.27266,159.51639 121.89824,159.6822 C 121.58767,159.92063 121.20596,160.08016 120.78977,160.22764 C 120.41614,160.38438 119.97964,160.54409 119.68129,160.77309 C 119.26943,161.03368 119.30924,161.34523 119.06547,161.75488 C 119.11178,162.28846 119.20992,162.59094 119.55813,162.84577 C 119.70356,163.21457 120.03009,163.57972 120.29711,163.82757 C 120.60157,164.3285 120.93874,164.56483 120.17395,164.70027 C 119.75381,164.8598 119.51832,164.73466 119.06547,164.70027"
     id="path916"
     style="font-size:12px;fill:none;fill-rule:evenodd;stroke:#ef2d28;stroke-width:0.33028081" />
  <path
     d="M 118.81915,165.4639 C 118.51647,165.39565 117.44307,165.07764 116.9717,164.91845 C 116.39687,164.91845 115.82203,164.91845 115.2474,164.91845 C 114.57916,164.96401 114.45186,165.13768 113.8924,165.35481 C 113.53138,165.68137 113.28368,165.90671 112.78393,166.1186 C 112.51967,166.42108 112.00494,166.93493 111.79862,167.31858 C 111.6518,167.69087 111.55229,168.19442 111.55229,168.73673 C 111.56096,169.37345 111.74974,169.48219 111.79862,170.04579 C 111.93676,170.51426 112.16101,170.94346 112.5376,171.35485 C 112.58982,171.49326 112.62766,171.52695 112.78393,171.57303"
     id="path917"
     style="font-size:12px;fill:none;fill-rule:evenodd;stroke:#ef2d28;stroke-width:0.33028081" />
  <path
     d="M 112.95153,172.99992 C 112.8992,172.99992 112.78349,173.27796 112.60175,173.5166 C 112.20607,173.91698 112.15514,173.94716 111.55239,173.94716 C 111.00897,173.92746 111.05962,173.73608 110.67793,173.60271 C 110.49758,173.32605 110.27274,173.1067 110.06581,172.74158 C 109.92506,172.51645 109.80137,172.17269 109.62858,171.96657 C 109.46894,171.71113 109.26998,171.51823 109.1039,171.27767 C 108.93993,171.20851 108.87752,171.1421 108.66653,171.10545 C 109.17022,171.18508 109.2143,171.36268 109.54113,171.62212 C 109.6942,171.86723 109.84629,172.12268 109.97836,172.39713 C 110.02887,172.76542 110.14766,173.05558 110.15326,173.5166 C 110.15326,173.9929 110.15088,174.32564 109.97836,174.72217 C 109.77227,174.93504 109.61977,175.15521 109.36624,175.3251 C 109.16491,175.51868 108.91236,175.78473 108.75398,176.014 C 108.47975,176.18016 108.28037,176.3156 107.96697,176.53067 C 107.70337,176.6825 107.4192,176.83847 107.00506,176.87512 C 106.49158,176.83902 106.33977,176.69642 105.95571,176.53067 C 105.62985,176.29465 105.37325,176.13965 105.08125,175.92788 C 104.85333,175.77068 104.62121,175.45902 104.46912,175.23898 C 103.99593,175.12242 103.69554,175.16899 103.41977,175.41121 C 103.1794,175.572 102.97107,175.77729 102.80765,176.014 C 102.66494,176.08426 102.42568,176.28818 102.28297,176.35845"
     id="path918"
     style="font-size:12px;fill:none;fill-rule:evenodd;stroke:#ef2d28;stroke-width:0.33028191" />
  <path
     d="M 103.31839,176.56328 C 103.45789,176.62071 103.96496,176.97028 104.18814,177.10061 C 104.3273,177.553 104.54943,177.80026 104.62301,178.28274 C 104.74077,178.74854 104.73173,179.26146 104.73173,179.78727 C 104.61257,180.33646 104.38122,180.74277 104.18814,181.18433 C 103.84476,181.41508 103.67203,181.58496 103.20967,181.82913 C 102.77584,181.88707 102.35036,181.93659 101.79615,181.93659 C 101.46495,182.04578 100.81942,182.09856 100.49153,181.93659 C 100.00743,181.87194 99.647176,181.67747 99.295624,181.50673 C 98.894495,181.28199 98.647139,181.06964 98.208437,180.86193 C 97.995349,180.55226 97.663974,180.267 97.338688,179.89473 C 97.068022,179.53279 96.869024,179.32972 96.686377,178.92754 C 96.847106,179.38646 97.091158,179.7871 97.22997,180.21713 C 97.477326,180.67468 97.621009,180.83683 97.664844,181.39926 C 97.816354,181.84856 97.773563,182.38967 97.773563,182.90379 C 97.725901,183.25301 97.700852,183.90744 97.556126,184.19338 C 97.556126,184.30085 97.556126,184.40831 97.556126,184.51578"
     id="path919"
     style="font-size:12px;fill:none;fill-rule:evenodd;stroke:#ef2d28;stroke-width:0.33028162" />
  <path
     d="M 87.241977,186.23111 C 87.241977,186.283 87.241977,186.33514 87.241977,186.38704 C 87.241977,185.96615 87.230504,186.17996 87.416869,187.01077 C 87.746786,187.37553 88.520511,187.47682 89.165794,187.32263 C 89.731606,186.90598 89.714257,186.59038 90.739827,186.38704 C 91.730977,186.45016 92.108745,186.70614 92.663644,187.01077 C 93.322359,187.30442 93.625693,187.45262 94.062784,188.1023 C 94.279931,188.63122 94.401096,188.98924 93.712999,189.19382 C 93.166215,189.53962 92.516175,189.72998 91.789182,189.81755 C 90.981318,189.81755 90.398996,189.73298 90.040257,190.12942 C 89.485358,190.64213 89.515579,190.947 89.515579,191.84468 C 89.328934,192.12211 89.291996,192.94094 89.165794,193.24807 C 88.680013,193.4534 88.394868,193.55993 87.591762,193.55993 C 87.403157,193.07817 87.193566,192.20794 87.067084,191.68874 C 86.930248,191.12789 86.887994,190.34673 86.542407,189.97349 C 86.215567,189.54511 85.798624,189.17337 85.318159,188.88196 C 85.103811,188.61425 84.696101,188.39171 84.268804,188.25823 C 84.954942,188.57034 85.052602,188.90766 85.143267,189.66162 C 84.540237,189.93057 84.379056,190.11894 83.394342,190.12942 C 82.426416,190.05682 82.19248,189.83776 81.820309,189.34976 C 81.752591,190.13216 81.472483,190.39413 81.295632,191.06501 C 80.935773,191.5368 80.782987,192.02007 80.421169,192.62434 C 80.575354,193.37581 80.90723,193.41348 80.945847,194.3396 C 81.172787,194.94711 81.148162,195.53292 81.645417,195.89917 C 81.86704,196.14068 82.032698,196.18808 82.519879,196.21104 C 81.507461,196.21104 80.917304,196.11348 80.246277,195.74324 C 79.727475,195.45857 79.335436,195.10379 78.846857,194.80764 C 78.227877,194.40771 77.462548,194.03796 76.748147,193.8718 C 75.940283,193.8718 75.357961,193.78722 74.999222,194.18366 C 74.503926,194.49927 74.171211,195.04366 73.949867,195.74324 C 73.787846,196.55259 73.726004,197.09149 74.124759,197.61443 C 74.420537,198.21521 74.487696,198.44923 74.124759,199.17375 C 73.718449,199.68097 73.112621,199.7406 72.200942,199.95342 C 71.535231,199.92148 70.894705,199.78601 70.452017,199.64155"
     id="path920"
     style="font-size:12px;fill:none;fill-rule:evenodd;stroke:#ef2d28;stroke-width:0.33028123" />
  <path
     d="M 181.40749,104.65524 C 202.75606,67.801831 216.92502,36.438026 213.03453,34.646487 C 209.14443,32.85513 188.66079,61.311073 167.31221,98.164481 L 181.40749,104.65524 z"
     id="path922"
     style="font-size:12px;fill:#ffffff;fill-rule:evenodd;stroke:#ef2d28;stroke-width:0.33520904pt" />
  <path
     d="M 179.99801,104.00608 C 200.59312,68.453411 214.78201,38.436049 211.6696,37.002804 C 208.55749,35.569705 189.3168,63.260755 168.7217,98.813423"
     id="path923"
     style="font-size:12px;fill:#ffffff;fill-rule:evenodd;stroke:#ef2d28;stroke-width:0.29448283pt" />
  <path
     d="M 176.45658,85.460843 C 173.95341,89.617588 171.29601,94.369381 168.72163,98.813454 L 179.99809,104.00617 C 182.57246,99.562098 185.38023,94.879548 187.73304,90.65356 L 176.45658,85.460843 z"
     id="path924"
     style="font-size:12px;fill:#ffffff;fill-rule:evenodd;stroke:#ef2d28;stroke-width:0.33422136pt" />
  <path
     d="M 177.41103,86.895247 C 174.90785,91.051991 173.16038,94.23302 170.586,98.677092 L 179.04324,102.57158 C 181.61762,98.127512 183.51547,95.015727 185.86827,90.789738 L 177.41103,86.895247 z"
     id="path925"
     style="font-size:12px;fill:#ffffff;fill-rule:evenodd;stroke:#ef2d28;stroke-width:0.33422136pt" />
  <rect
     width="6.2071862"
     height="9.9849262"
     x="-205.69421"
     y="6.5585399"
     transform="matrix(-0.9083207,-0.4182743,-0.5012544,0.8653,0,0)"
     id="rect926"
     style="font-size:12px;fill:#ffffff;fill-rule:evenodd;stroke:#ef2d28;stroke-width:0.33495374pt" />
  <path
     d="M 183.54882,91.711704 L 172.90585,97.75531"
     id="path927"
     style="font-size:12px;fill:#ffffff;fill-rule:evenodd;stroke:#ef2d28;stroke-width:0.33422136pt" />
  <path
     d="M 178.54388,100.35158 L 177.91079,89.115437"
     id="path928"
     style="font-size:12px;fill:#ffffff;fill-rule:evenodd;stroke:#ef2d28;stroke-width:0.33422136pt" />
  <path
     d="M 209.02873,47.726517 L 203.3907,45.13025"
     id="path929"
     style="font-size:12px;fill:#ffffff;fill-rule:evenodd;stroke:#ef2d28;stroke-width:0.33422136pt" />
  <ellipse
     cx="545.66931"
     cy="92.125977"
     rx="3.543304"
     ry="3.5433199"
     transform="matrix(-0.4490005,0.1132067,0.1013394,0.3938715,444.34717,-55.797864)"
     id="path930"
     style="font-size:12px;fill:#ef0000;fill-rule:evenodd;stroke:#ef2d28;stroke-width:1pt"
     sodipodi:cx="545.66931"
     sodipodi:cy="92.125977"
     sodipodi:rx="3.543304"
     sodipodi:ry="3.5433199" />
  <path
     d="M 173.08974,146.23387 C 221.20204,193.28342 241.7262,199.23516 232.0939,203.02684 C 222.46159,206.81852 191.47945,182.53654 159.2396,150.28214 C 126.99948,118.02744 107.25516,89.322191 116.88746,85.530514 C 126.51977,81.738838 121.91767,96.192659 173.08974,146.23387 z"
     id="path835"
     style="font-size:12px;fill:#ffffff;fill-rule:evenodd;stroke:#ef2d28;stroke-width:0.42368097pt" />
  <path
     d="M 213.59011,180.43277 L 196.73439,184.85277 C 212.59868,199.88117 230.44639,206.06932 235.40355,203.41722 C 240.36126,200.76537 226.47983,194.57697 213.59011,180.43277 z"
     id="path842"
     style="font-size:12px;fill:#ffffff;fill-rule:evenodd;stroke:#ef2d28;stroke-width:0.33028123" />
  <path
     d="M 213.59006,182.20079 L 199.70897,185.73688 C 215.16199,200.18734 230.44601,204.30134 234.40106,202.5333 C 238.37818,200.76525 226.14562,195.80106 213.59006,182.20079 z"
     id="path843"
     style="font-size:12px;fill:#ffffff;fill-rule:evenodd;stroke:#ef2d28;stroke-width:0.33028045" />
  <path
     d="M 161.81138,144.18195 C 161.84823,144.40414 161.95878,145.41561 162.05771,145.81827 C 162.05771,146.37436 162.11446,146.80129 162.18087,147.23642 C 162.33773,147.6164 162.31113,147.96915 162.79669,148.10931 C 163.13052,148.56853 163.34058,148.68756 163.782,148.87293 C 164.08292,149.10385 164.53872,149.33407 165.01364,149.52746 C 165.5061,149.71439 165.95383,149.74005 166.49161,149.63655 C 166.92318,149.3702 167.24123,149.09547 167.60008,148.87293 C 167.68462,148.52856 167.76207,148.01715 167.84641,147.67295 C 167.71359,148.02623 167.62038,148.59192 167.60008,149.0911 C 167.64738,149.63567 167.84937,149.87322 168.09274,150.29108"
     id="path871"
     style="font-size:12px;fill:none;fill-rule:evenodd;stroke:#ef2d28;stroke-width:0.33028081" />
  <path
     d="M 166.36858,151.49102 C 166.40957,151.45472 166.45056,151.41824 166.49174,151.38193 C 166.1993,151.64095 166.31872,151.51738 166.9844,151.16376 C 167.46247,150.94628 167.97266,150.83073 168.58553,150.7274 C 169.16016,150.7274 169.73499,150.7274 170.30982,150.7274 C 170.98082,150.7274 171.43229,150.81659 171.91095,150.94558 C 172.25818,151.25312 172.77665,151.42784 173.14259,151.7092 C 173.51799,151.93523 173.67899,152.20298 173.88157,152.58191 C 174.21678,152.8788 174.43394,153.33697 174.74372,153.5637 C 174.88245,154.06481 175.16563,154.04771 175.35954,154.43641 C 174.7786,154.47603 174.31294,154.54655 174.00474,154.87277 C 173.49297,155.10735 174.43414,154.64289 174.62056,154.43641 C 175.02375,154.32854 175.12819,154.21823 175.72903,154.21823 C 176.29066,154.06045 176.63138,154.34687 177.207,154.43641 C 177.54299,154.60868 177.6362,154.65459 178.06934,154.65459"
     id="path872"
     style="font-size:12px;fill:none;fill-rule:evenodd;stroke:#ef2d28;stroke-width:0.33028081" />
  <path
     d="M 173.01939,156.9456 C 173.27025,156.95869 174.41518,157.14562 174.86704,156.9456 C 175.36994,156.82412 175.66869,156.58953 175.97552,156.18198 C 176.12666,155.88718 175.97552,156.70525 175.97552,157.05469 C 176.03128,157.697 176.2447,157.70293 176.59134,158.14557 C 176.94881,158.34856 177.32539,158.63429 177.69981,158.8001 C 178.01038,159.03853 178.39209,159.19806 178.80828,159.34554 C 179.18191,159.50228 179.61841,159.66199 179.91676,159.89099 C 180.32862,160.15158 180.28881,160.46313 180.53258,160.87278 C 180.48627,161.40636 180.38813,161.70884 180.03992,161.96367 C 179.89449,162.33247 179.56796,162.69762 179.30094,162.94547 C 178.99648,163.4464 178.65931,163.68273 179.4241,163.81817 C 179.84424,163.9777 180.07973,163.85256 180.53258,163.81817"
     id="path873"
     style="font-size:12px;fill:none;fill-rule:evenodd;stroke:#ef2d28;stroke-width:0.33028081" />
  <path
     d="M 180.77889,164.5818 C 181.08158,164.51355 182.15498,164.19554 182.62635,164.03635 C 183.20118,164.03635 183.77601,164.03635 184.35064,164.03635 C 185.01888,164.08191 185.14618,164.25558 185.70564,164.47271 C 186.06666,164.79927 186.31437,165.02461 186.81412,165.2365 C 187.07838,165.53898 187.59311,166.05283 187.79943,166.43648 C 187.94624,166.80877 188.04576,167.31232 188.04576,167.85463 C 188.03709,168.49135 187.8483,168.60009 187.79943,169.16369 C 187.66129,169.63216 187.43703,170.06136 187.06045,170.47275 C 187.00822,170.61116 186.97039,170.64485 186.81412,170.69093"
     id="path874"
     style="font-size:12px;fill:none;fill-rule:evenodd;stroke:#ef2d28;stroke-width:0.33028081" />
  <path
     d="M 186.64652,172.11782 C 186.69885,172.11782 186.81456,172.39586 186.9963,172.6345 C 187.39198,173.03488 187.44291,173.06506 188.04566,173.06506 C 188.58908,173.04536 188.53843,172.85398 188.92012,172.72061 C 189.10047,172.44395 189.32531,172.2246 189.53224,171.85948 C 189.67299,171.63435 189.79668,171.29059 189.96947,171.08447 C 190.12911,170.82903 190.32807,170.63613 190.49415,170.39557 C 190.65812,170.32641 190.72053,170.26 190.93152,170.22335 C 190.42783,170.30298 190.38375,170.48058 190.05692,170.74002 C 189.90385,170.98513 189.75176,171.24058 189.61969,171.51503 C 189.56918,171.88332 189.45039,172.17348 189.44479,172.6345 C 189.44479,173.1108 189.44717,173.44354 189.61969,173.84007 C 189.82578,174.05294 189.97828,174.27311 190.23181,174.443 C 190.43314,174.63658 190.68569,174.90263 190.84407,175.1319 C 191.1183,175.29806 191.31768,175.4335 191.63108,175.64857 C 191.89468,175.8004 192.17885,175.95637 192.59299,175.99302 C 193.10647,175.95692 193.25828,175.81432 193.64234,175.64857 C 193.9682,175.41255 194.2248,175.25755 194.5168,175.04578 C 194.74472,174.88858 194.97684,174.57692 195.12893,174.35688 C 195.60212,174.24032 195.90251,174.28689 196.17828,174.52911 C 196.41865,174.6899 196.62698,174.89519 196.7904,175.1319 C 196.93311,175.20216 197.17237,175.40608 197.31508,175.47635"
     id="path877"
     style="font-size:12px;fill:none;fill-rule:evenodd;stroke:#ef2d28;stroke-width:0.33028191" />
  <path
     d="M 196.27966,175.68118 C 196.14016,175.73861 195.63309,176.08818 195.40991,176.21851 C 195.27075,176.6709 195.04862,176.91816 194.97504,177.40064 C 194.85728,177.86644 194.86632,178.37936 194.86632,178.90517 C 194.98548,179.45436 195.21683,179.86067 195.40991,180.30223 C 195.75329,180.53298 195.92602,180.70286 196.38838,180.94703 C 196.82221,181.00497 197.24769,181.05449 197.8019,181.05449 C 198.1331,181.16368 198.77863,181.21646 199.10652,181.05449 C 199.59062,180.98984 199.95087,180.79537 200.30243,180.62463 C 200.70355,180.39989 200.95091,180.18754 201.38961,179.97983 C 201.6027,179.67016 201.93408,179.3849 202.25936,179.01263 C 202.53003,178.65069 202.72903,178.44762 202.91167,178.04544 C 202.75094,178.50436 202.50689,178.905 202.36808,179.33503 C 202.12072,179.79258 201.97704,179.95473 201.93321,180.51716 C 201.7817,180.96646 201.82449,181.50757 201.82449,182.02169 C 201.87215,182.37091 201.8972,183.02534 202.04192,183.31128 C 202.04192,183.41875 202.04192,183.52621 202.04192,183.63368"
     id="path878"
     style="font-size:12px;fill:none;fill-rule:evenodd;stroke:#ef2d28;stroke-width:0.33028162" />
  <path
     d="M 212.35607,185.34901 C 212.35607,185.4009 212.35607,185.45304 212.35607,185.50494 C 212.35607,185.08405 212.36755,185.29786 212.18118,186.12867 C 211.85126,186.49343 211.07754,186.59472 210.43225,186.44053 C 209.86644,186.02388 209.88379,185.70828 208.85822,185.50494 C 207.86707,185.56806 207.4893,185.82404 206.9344,186.12867 C 206.27569,186.42232 205.97236,186.57052 205.53526,187.2202 C 205.31812,187.74912 205.19695,188.10714 205.88505,188.31172 C 206.43183,188.65752 207.08187,188.84788 207.80887,188.93545 C 208.61673,188.93545 209.19905,188.85088 209.55779,189.24732 C 210.11269,189.76003 210.08247,190.0649 210.08247,190.96258 C 210.26912,191.24001 210.30605,192.05884 210.43225,192.36597 C 210.91804,192.5713 211.20318,192.67783 212.00629,192.67783 C 212.19489,192.19607 212.40448,191.32584 212.53096,190.80664 C 212.6678,190.24579 212.71005,189.46463 213.05564,189.09139 C 213.38248,188.66301 213.79943,188.29127 214.27989,187.99986 C 214.49424,187.73215 214.90195,187.50961 215.32924,187.37613 C 214.64311,187.68824 214.54545,188.02556 214.45478,188.77952 C 215.05781,189.04847 215.21899,189.23684 216.20371,189.24732 C 217.17163,189.17472 217.40557,188.95566 217.77774,188.46766 C 217.84546,189.25006 218.12557,189.51203 218.30242,190.18291 C 218.66228,190.6547 218.81506,191.13797 219.17688,191.74224 C 219.02269,192.49371 218.69082,192.53138 218.6522,193.4575 C 218.42526,194.06501 218.44989,194.65082 217.95263,195.01707 C 217.73101,195.25858 217.56535,195.30598 217.07817,195.32894 C 218.09059,195.32894 218.68074,195.23138 219.35177,194.86114 C 219.87057,194.57647 220.26261,194.22169 220.75119,193.92554 C 221.37017,193.52561 222.1355,193.15586 222.8499,192.9897 C 223.65777,192.9897 224.24009,192.90512 224.59883,193.30156 C 225.09412,193.61717 225.42684,194.16156 225.64818,194.86114 C 225.8102,195.67049 225.87204,196.20939 225.47329,196.73233 C 225.17751,197.33311 225.11035,197.56713 225.47329,198.29165 C 225.8796,198.79887 226.48543,198.8585 227.39711,199.07132 C 228.06282,199.03938 228.70334,198.90391 229.14603,198.75945"
     id="path879"
     style="font-size:12px;fill:none;fill-rule:evenodd;stroke:#ef2d28;stroke-width:0.33028123" />
  <path
     d="M 118.19056,103.77314 C 96.841988,66.919731 82.673033,35.555926 86.563524,33.764387 C 90.453617,31.97303 110.93726,60.428973 132.28584,97.282381 L 118.19056,103.77314 z"
     id="path847"
     style="font-size:12px;fill:#ffffff;fill-rule:evenodd;stroke:#ef2d28;stroke-width:0.33520904pt" />
  <path
     d="M 119.60004,103.12398 C 99.004933,67.571311 84.816037,37.553949 87.928457,36.120704 C 91.040558,34.687605 110.28125,62.378655 130.87635,97.931323"
     id="path856"
     style="font-size:12px;fill:#ffffff;fill-rule:evenodd;stroke:#ef2d28;stroke-width:0.29448283pt" />
  <path
     d="M 123.14146,84.578743 C 125.64463,88.735488 128.30203,93.487281 130.87641,97.931354 L 119.59995,103.12407 C 117.02558,98.679998 114.21781,93.997448 111.865,89.77146 L 123.14146,84.578743 z"
     id="path850"
     style="font-size:12px;fill:#ffffff;fill-rule:evenodd;stroke:#ef2d28;stroke-width:0.33422136pt" />
  <path
     d="M 122.18701,86.013147 C 124.69019,90.169891 126.43766,93.35092 129.01204,97.794992 L 120.5548,101.68948 C 117.98042,97.245412 116.08257,94.133627 113.72977,89.907638 L 122.18701,86.013147 z"
     id="path852"
     style="font-size:12px;fill:#ffffff;fill-rule:evenodd;stroke:#ef2d28;stroke-width:0.33422136pt" />
  <rect
     width="6.2071862"
     height="9.9849262"
     x="55.129459"
     y="131.61777"
     transform="matrix(0.9083207,-0.4182743,0.5012544,0.8653,0,0)"
     id="rect853"
     style="font-size:12px;fill:#ffffff;fill-rule:evenodd;stroke:#ef2d28;stroke-width:0.33495374pt" />
  <path
     d="M 116.04922,90.829604 L 126.69219,96.87321"
     id="path854"
     style="font-size:12px;fill:#ffffff;fill-rule:evenodd;stroke:#ef2d28;stroke-width:0.33422136pt" />
  <path
     d="M 121.05416,99.469476 L 121.68725,88.233337"
     id="path855"
     style="font-size:12px;fill:#ffffff;fill-rule:evenodd;stroke:#ef2d28;stroke-width:0.33422136pt" />
  <path
     d="M 90.569309,46.844417 L 96.207339,44.24815"
     id="path857"
     style="font-size:12px;fill:#ffffff;fill-rule:evenodd;stroke:#ef2d28;stroke-width:0.33422136pt" />
  <ellipse
     cx="545.66931"
     cy="92.125977"
     rx="3.543304"
     ry="3.5433199"
     transform="matrix(0.4490005,0.1132067,-0.1013394,0.3938715,-144.74912,-56.679964)"
     id="path858"
     style="font-size:12px;fill:#ef0000;fill-rule:evenodd;stroke:#ef2d28;stroke-width:1pt"
     sodipodi:cx="545.66931"
     sodipodi:cy="92.125977"
     sodipodi:rx="3.543304"
     sodipodi:ry="3.5433199" />
  <path
     d="M 135.26047,84.957774 C 135.26047,115.89877 135.44366,127.56103 133.16361,129.15927 C 131.00332,130.87004 70.81183,129.15927 70.81183,137.99952 C 70.81183,146.83977 120.38768,155.68027 135.26047,155.68002 C 155.09073,155.68002 165.00568,146.83977 165.00568,129.15927 L 165.00568,84.957774 L 135.26047,84.957774 z"
     id="path552"
     style="font-size:12px;fill:#ffffff;fill-rule:evenodd;stroke:#ef2d28;stroke-width:0.30510197pt" />
  <path
     d="M 135.26039,93.798033 L 135.26039,98.218238 C 145.17553,99.691723 155.09068,99.691723 165.00582,98.218238 L 165.00582,93.798033 C 155.09068,95.271518 145.17553,95.271518 135.26039,93.798033 z"
     id="path564"
     style="font-size:12px;fill:#ffffff;fill-rule:evenodd;stroke:#ef2d28;stroke-width:0.26422367pt" />
  <path
     d="M 135.26044,84.957695 L 135.26044,89.377901 C 145.17558,90.851386 155.09073,90.851386 165.00588,89.377901 L 165.00588,84.957695 C 155.09073,86.43118 145.17558,86.43118 135.26044,84.957695 z"
     id="path562"
     style="font-size:12px;fill:#ffffff;fill-rule:evenodd;stroke:#ef2d28;stroke-width:0.26422367pt" />
  <path
     d="M 135.26044,89.377903 L 135.26044,93.798108 C 145.17558,95.271593 155.09073,95.271593 165.00588,93.798108 L 165.00588,89.377903 C 155.09073,90.851388 145.17558,90.851388 135.26044,89.377903 z"
     id="path563"
     style="font-size:12px;fill:#ffffff;fill-rule:evenodd;stroke:#ef2d28;stroke-width:0.26422367pt" />
  <path
     d="M 135.26039,98.218088 L 135.26039,102.63829 C 145.17553,104.11178 155.09068,104.11178 165.00582,102.63829 L 165.00582,98.218088 C 155.09068,99.691573 145.17553,99.691573 135.26039,98.218088 z"
     id="path565"
     style="font-size:12px;fill:#ffffff;fill-rule:evenodd;stroke:#ef2d28;stroke-width:0.26422367pt" />
  <ellipse
     cx="256.88977"
     cy="210.82677"
     rx="8.8582611"
     ry="26.574783"
     transform="matrix(0.1526333,0,0,3.5883686e-2,97.402506,84.325604)"
     id="path570"
     style="font-size:12px;fill:#ffffff;fill-rule:evenodd;stroke:#ef2d28;stroke-width:4.46283007"
     sodipodi:cx="256.88977"
     sodipodi:cy="210.82677"
     sodipodi:rx="8.8582611"
     sodipodi:ry="26.574783" />
  <ellipse
     cx="292.32281"
     cy="246.25981"
     rx="8.8582611"
     ry="26.574783"
     transform="matrix(0.1526333,0,0,3.5883686e-2,97.40259,83.530922)"
     id="path571"
     style="font-size:12px;fill:#ffffff;fill-rule:evenodd;stroke:#ef2d28;stroke-width:4.46283007"
     sodipodi:cx="292.32281"
     sodipodi:cy="246.25981"
     sodipodi:rx="8.8582611"
     sodipodi:ry="26.574783" />
  <ellipse
     cx="327.75592"
     cy="263.97638"
     rx="8.8582764"
     ry="26.574829"
     transform="matrix(0.1526333,0,0,3.5883436e-2,97.40259,83.372046)"
     id="path572"
     style="font-size:12px;fill:#ffffff;fill-rule:evenodd;stroke:#ef2d28;stroke-width:4.46285009"
     sodipodi:cx="327.75592"
     sodipodi:cy="263.97638"
     sodipodi:rx="8.8582764"
     sodipodi:ry="26.574829" />
  <ellipse
     cx="363.18896"
     cy="263.97638"
     rx="8.8582611"
     ry="26.574829"
     transform="matrix(0.1526333,0,0,3.5883436e-2,97.40259,83.372046)"
     id="path573"
     style="font-size:12px;fill:#ffffff;fill-rule:evenodd;stroke:#ef2d28;stroke-width:4.46285009"
     sodipodi:cx="363.18896"
     sodipodi:cy="263.97638"
     sodipodi:rx="8.8582611"
     sodipodi:ry="26.574829" />
  <ellipse
     cx="398.62207"
     cy="246.25981"
     rx="8.8582611"
     ry="26.574783"
     transform="matrix(0.1526333,0,0,3.5883686e-2,97.40259,83.530922)"
     id="path574"
     style="font-size:12px;fill:#ffffff;fill-rule:evenodd;stroke:#ef2d28;stroke-width:4.46283007"
     sodipodi:cx="398.62207"
     sodipodi:cy="246.25981"
     sodipodi:rx="8.8582611"
     sodipodi:ry="26.574783" />
  <ellipse
     cx="434.05511"
     cy="210.82677"
     rx="8.8582764"
     ry="26.574783"
     transform="matrix(0.1526333,0,0,3.5883686e-2,97.402534,84.325604)"
     id="path575"
     style="font-size:12px;fill:#ffffff;fill-rule:evenodd;stroke:#ef2d28;stroke-width:4.46283007"
     sodipodi:cx="434.05511"
     sodipodi:cy="210.82677"
     sodipodi:rx="8.8582764"
     sodipodi:ry="26.574783" />
  <path
     d="M 135.26038,107.05842 L 165.00582,130.92707"
     id="path582"
     style="font-size:12px;fill:#ffffff;fill-rule:evenodd;stroke:#ef2d28;stroke-width:0.26422498pt" />
  <path
     d="M 138.23495,107.05842 L 165.00582,128.27497"
     id="path583"
     style="font-size:12px;fill:#ffffff;fill-rule:evenodd;stroke:#ef2d28;stroke-width:0.26422498pt" />
  <path
     d="M 142.20095,107.94237 L 165.00582,125.62287"
     id="path586"
     style="font-size:12px;fill:#ffffff;fill-rule:evenodd;stroke:#ef2d28;stroke-width:0.26422498pt" />
  <path
     d="M 145.17553,107.94237 L 165.00582,122.97102"
     id="path587"
     style="font-size:12px;fill:#ffffff;fill-rule:evenodd;stroke:#ef2d28;stroke-width:0.26422498pt" />
  <path
     d="M 148.1501,107.94237 L 165.00582,120.31892"
     id="path588"
     style="font-size:12px;fill:#ffffff;fill-rule:evenodd;stroke:#ef2d28;stroke-width:0.26422498pt" />
  <path
     d="M 151.12467,107.94237 L 165.00582,117.66682"
     id="path589"
     style="font-size:12px;fill:#ffffff;fill-rule:evenodd;stroke:#ef2d28;stroke-width:0.26422498pt" />
  <path
     d="M 154.09924,107.94237 L 165.00582,115.01472"
     id="path590"
     style="font-size:12px;fill:#ffffff;fill-rule:evenodd;stroke:#ef2d28;stroke-width:0.26422498pt" />
  <path
     d="M 157.07381,107.94237 L 165.00582,113.24657"
     id="path591"
     style="font-size:12px;fill:#ffffff;fill-rule:evenodd;stroke:#ef2d28;stroke-width:0.26422498pt" />
  <path
     d="M 160.04838,107.94237 L 165.00582,111.47867"
     id="path592"
     style="font-size:12px;fill:#ffffff;fill-rule:evenodd;stroke:#ef2d28;stroke-width:0.26422498pt" />
  <path
     d="M 163.02296,107.94237 L 165.00582,109.71052"
     id="path593"
     style="font-size:12px;fill:#ffffff;fill-rule:evenodd;stroke:#ef2d28;stroke-width:0.26422498pt" />
  <path
     d="M 135.26044,109.71052 L 165.00588,133.57917"
     id="path594"
     style="font-size:12px;fill:#ffffff;fill-rule:evenodd;stroke:#ef2d28;stroke-width:0.26422498pt" />
  <path
     d="M 165.0059,107.05841 L 132.28589,133.57916"
     id="path595"
     style="font-size:12px;fill:#ffffff;fill-rule:evenodd;stroke:#ef2d28;stroke-width:0.26422498pt" />
  <path
     d="M 162.03133,107.05841 L 133.27732,130.04311"
     id="path596"
     style="font-size:12px;fill:#ffffff;fill-rule:evenodd;stroke:#ef2d28;stroke-width:0.26422498pt" />
  <path
     d="M 158.06532,107.94236 L 135.26046,125.62286"
     id="path597"
     style="font-size:12px;fill:#ffffff;fill-rule:evenodd;stroke:#ef2d28;stroke-width:0.26422498pt" />
  <path
     d="M 155.09075,107.94236 L 135.26046,122.97101"
     id="path598"
     style="font-size:12px;fill:#ffffff;fill-rule:evenodd;stroke:#ef2d28;stroke-width:0.26422498pt" />
  <path
     d="M 152.11618,107.94236 L 135.26046,120.31891"
     id="path599"
     style="font-size:12px;fill:#ffffff;fill-rule:evenodd;stroke:#ef2d28;stroke-width:0.26422498pt" />
  <path
     d="M 149.14161,107.94236 L 135.26046,117.66681"
     id="path600"
     style="font-size:12px;fill:#ffffff;fill-rule:evenodd;stroke:#ef2d28;stroke-width:0.26422498pt" />
  <path
     d="M 146.16704,107.94236 L 135.26046,115.01471"
     id="path601"
     style="font-size:12px;fill:#ffffff;fill-rule:evenodd;stroke:#ef2d28;stroke-width:0.26422498pt" />
  <path
     d="M 143.19247,107.94236 L 135.26046,113.24656"
     id="path602"
     style="font-size:12px;fill:#ffffff;fill-rule:evenodd;stroke:#ef2d28;stroke-width:0.26422498pt" />
  <path
     d="M 140.21789,107.94236 L 135.26046,111.47866"
     id="path603"
     style="font-size:12px;fill:#ffffff;fill-rule:evenodd;stroke:#ef2d28;stroke-width:0.26422498pt" />
  <path
     d="M 137.24332,107.94236 L 135.26046,109.71051"
     id="path604"
     style="font-size:12px;fill:#ffffff;fill-rule:evenodd;stroke:#ef2d28;stroke-width:0.26422498pt" />
  <path
     d="M 165.00582,109.71052 L 132.28581,136.23127"
     id="path605"
     style="font-size:12px;fill:#ffffff;fill-rule:evenodd;stroke:#ef2d28;stroke-width:0.26422498pt" />
  <path
     d="M 165.00582,112.36259 L 132.28581,138.88334"
     id="path606"
     style="font-size:12px;fill:#ffffff;fill-rule:evenodd;stroke:#ef2d28;stroke-width:0.26422498pt" />
  <path
     d="M 165.00587,115.01474 L 132.28586,141.53549"
     id="path607"
     style="font-size:12px;fill:#ffffff;fill-rule:evenodd;stroke:#ef2d28;stroke-width:0.26422498pt" />
  <path
     d="M 165.00587,117.66675 L 132.28586,144.1875"
     id="path608"
     style="font-size:12px;fill:#ffffff;fill-rule:evenodd;stroke:#ef2d28;stroke-width:0.26422498pt" />
  <path
     d="M 165.00587,120.31891 L 132.28586,146.83966"
     id="path609"
     style="font-size:12px;fill:#ffffff;fill-rule:evenodd;stroke:#ef2d28;stroke-width:0.26422498pt" />
  <path
     d="M 165.00587,122.97099 L 132.28586,149.49174"
     id="path610"
     style="font-size:12px;fill:#ffffff;fill-rule:evenodd;stroke:#ef2d28;stroke-width:0.26422498pt" />
  <path
     d="M 165.00587,125.62306 L 132.28586,152.14381"
     id="path611"
     style="font-size:12px;fill:#ffffff;fill-rule:evenodd;stroke:#ef2d28;stroke-width:0.26422498pt" />
  <path
     d="M 165.00587,128.27515 L 132.28586,154.7959"
     id="path612"
     style="font-size:12px;fill:#ffffff;fill-rule:evenodd;stroke:#ef2d28;stroke-width:0.26422498pt" />
  <path
     d="M 165.00582,130.92724 L 134.26895,155.67984"
     id="path613"
     style="font-size:12px;fill:#ffffff;fill-rule:evenodd;stroke:#ef2d28;stroke-width:0.26422498pt" />
  <path
     d="M 165.00582,133.57924 L 137.24352,155.67999"
     id="path614"
     style="font-size:12px;fill:#ffffff;fill-rule:evenodd;stroke:#ef2d28;stroke-width:0.26422498pt" />
  <path
     d="M 164.01439,137.11534 L 142.20096,154.79584"
     id="path615"
     style="font-size:12px;fill:#ffffff;fill-rule:evenodd;stroke:#ef2d28;stroke-width:0.26422498pt" />
  <path
     d="M 163.02285,140.65144 L 145.1757,154.79589"
     id="path616"
     style="font-size:12px;fill:#ffffff;fill-rule:evenodd;stroke:#ef2d28;stroke-width:0.26422498pt" />
  <path
     d="M 161.03982,145.07167 L 152.1161,152.14377"
     id="path617"
     style="font-size:12px;fill:#ffffff;fill-rule:evenodd;stroke:#ef2d28;stroke-width:0.26422498pt" />
  <path
     d="M 135.26044,112.36266 L 164.01445,135.34736"
     id="path618"
     style="font-size:12px;fill:#ffffff;fill-rule:evenodd;stroke:#ef2d28;stroke-width:0.26422498pt" />
  <path
     d="M 135.2603,115.0146 L 164.01431,137.9993"
     id="path619"
     style="font-size:12px;fill:#ffffff;fill-rule:evenodd;stroke:#ef2d28;stroke-width:0.26422498pt" />
  <path
     d="M 135.26037,117.66671 L 163.02294,139.76746"
     id="path620"
     style="font-size:12px;fill:#ffffff;fill-rule:evenodd;stroke:#ef2d28;stroke-width:0.26422498pt" />
  <path
     d="M 135.26037,120.31885 L 163.02294,142.4196"
     id="path621"
     style="font-size:12px;fill:#ffffff;fill-rule:evenodd;stroke:#ef2d28;stroke-width:0.26422498pt" />
  <path
     d="M 135.26049,122.971 L 162.03136,144.18755"
     id="path622"
     style="font-size:12px;fill:#ffffff;fill-rule:evenodd;stroke:#ef2d28;stroke-width:0.26422498pt" />
  <path
     d="M 134.26885,124.73891 L 161.03971,145.95571"
     id="path623"
     style="font-size:12px;fill:#ffffff;fill-rule:evenodd;stroke:#ef2d28;stroke-width:0.26422498pt" />
  <path
     d="M 134.26885,127.39106 L 159.05685,146.83971"
     id="path624"
     style="font-size:12px;fill:#ffffff;fill-rule:evenodd;stroke:#ef2d28;stroke-width:0.26422498pt" />
  <path
     d="M 133.27735,129.15908 L 158.06536,148.60773"
     id="path625"
     style="font-size:12px;fill:#ffffff;fill-rule:evenodd;stroke:#ef2d28;stroke-width:0.26422498pt" />
  <path
     d="M 132.2857,130.92724 L 156.08228,149.49169"
     id="path626"
     style="font-size:12px;fill:#ffffff;fill-rule:evenodd;stroke:#ef2d28;stroke-width:0.26422498pt" />
  <path
     d="M 132.28593,133.57932 L 155.09079,151.25957"
     id="path627"
     style="font-size:12px;fill:#ffffff;fill-rule:evenodd;stroke:#ef2d28;stroke-width:0.26422498pt" />
  <path
     d="M 132.28592,136.23139 L 152.11621,152.14374"
     id="path628"
     style="font-size:12px;fill:#ffffff;fill-rule:evenodd;stroke:#ef2d28;stroke-width:0.26422498pt" />
  <path
     d="M 135.26044,102.63822 L 135.26044,107.05842 C 145.17559,108.53191 155.09073,108.53191 165.00588,107.05842 L 165.00588,102.63822 C 155.09073,104.1117 145.17559,104.1117 135.26044,102.63822 z"
     id="path636"
     style="font-size:12px;fill:#ffffff;fill-rule:evenodd;stroke:#ef2d28;stroke-width:0.26422367pt" />
  <path
     d="M 132.2857,138.88352 L 150.13313,153.02772"
     id="path629"
     style="font-size:12px;fill:#ffffff;fill-rule:evenodd;stroke:#ef2d28;stroke-width:0.26422498pt" />
  <path
     d="M 132.2857,141.53542 L 148.14999,153.91172"
     id="path630"
     style="font-size:12px;fill:#ffffff;fill-rule:evenodd;stroke:#ef2d28;stroke-width:0.26422498pt" />
  <path
     d="M 132.28592,144.18762 L 146.16707,154.79577"
     id="path631"
     style="font-size:12px;fill:#ffffff;fill-rule:evenodd;stroke:#ef2d28;stroke-width:0.26422498pt" />
  <path
     d="M 132.2857,146.83972 L 142.20113,154.79577"
     id="path632"
     style="font-size:12px;fill:#ffffff;fill-rule:evenodd;stroke:#ef2d28;stroke-width:0.26422498pt" />
  <path
     d="M 132.2857,149.49162 L 140.21799,155.68002"
     id="path633"
     style="font-size:12px;fill:#ffffff;fill-rule:evenodd;stroke:#ef2d28;stroke-width:0.26422498pt" />
  <path
     d="M 132.28593,152.14387 L 137.24336,155.67992"
     id="path634"
     style="font-size:12px;fill:#ffffff;fill-rule:evenodd;stroke:#ef2d28;stroke-width:0.26422498pt" />
  <ellipse
     cx="256.88977"
     cy="210.82677"
     rx="8.8582611"
     ry="26.574783"
     transform="matrix(0.1526333,0,0,3.5883686e-2,97.402506,97.586004)"
     id="path576"
     style="font-size:12px;fill:#ffffff;fill-rule:evenodd;stroke:#ef2d28;stroke-width:4.46283007"
     sodipodi:cx="256.88977"
     sodipodi:cy="210.82677"
     sodipodi:rx="8.8582611"
     sodipodi:ry="26.574783" />
  <ellipse
     cx="292.32281"
     cy="246.25981"
     rx="8.8582611"
     ry="26.574783"
     transform="matrix(0.1526333,0,0,3.5883686e-2,97.40259,96.791347)"
     id="path577"
     style="font-size:12px;fill:#ffffff;fill-rule:evenodd;stroke:#ef2d28;stroke-width:4.46283007"
     sodipodi:cx="292.32281"
     sodipodi:cy="246.25981"
     sodipodi:rx="8.8582611"
     sodipodi:ry="26.574783" />
  <ellipse
     cx="327.75592"
     cy="263.97638"
     rx="8.8582764"
     ry="26.574829"
     transform="matrix(0.1526333,0,0,3.5883436e-2,97.40259,96.632446)"
     id="path578"
     style="font-size:12px;fill:#ffffff;fill-rule:evenodd;stroke:#ef2d28;stroke-width:4.46285009"
     sodipodi:cx="327.75592"
     sodipodi:cy="263.97638"
     sodipodi:rx="8.8582764"
     sodipodi:ry="26.574829" />
  <ellipse
     cx="363.18896"
     cy="263.97638"
     rx="8.8582611"
     ry="26.574829"
     transform="matrix(0.1526333,0,0,3.5883436e-2,97.40259,96.632446)"
     id="path579"
     style="font-size:12px;fill:#ffffff;fill-rule:evenodd;stroke:#ef2d28;stroke-width:4.46285009"
     sodipodi:cx="363.18896"
     sodipodi:cy="263.97638"
     sodipodi:rx="8.8582611"
     sodipodi:ry="26.574829" />
  <ellipse
     cx="398.62207"
     cy="246.25981"
     rx="8.8582611"
     ry="26.574783"
     transform="matrix(0.1526333,0,0,3.5883686e-2,97.40259,96.791347)"
     id="path580"
     style="font-size:12px;fill:#ffffff;fill-rule:evenodd;stroke:#ef2d28;stroke-width:4.46283007"
     sodipodi:cx="398.62207"
     sodipodi:cy="246.25981"
     sodipodi:rx="8.8582611"
     sodipodi:ry="26.574783" />
  <ellipse
     cx="434.05511"
     cy="210.82677"
     rx="8.8582764"
     ry="26.574783"
     transform="matrix(0.1526333,0,0,3.5883686e-2,97.402534,97.586004)"
     id="path581"
     style="font-size:12px;fill:#ffffff;fill-rule:evenodd;stroke:#ef2d28;stroke-width:4.46283007"
     sodipodi:cx="434.05511"
     sodipodi:cy="210.82677"
     sodipodi:rx="8.8582764"
     sodipodi:ry="26.574783" />
  <path
     d="M 92.625227,148.60757 L 128.31981,130.04312"
     id="path638"
     style="font-size:12px;fill:#ffffff;fill-rule:evenodd;stroke:#ef2d28;stroke-width:0.26422498pt" />
  <path
     d="M 90.642144,147.72355 L 124.35358,130.04305"
     id="path639"
     style="font-size:12px;fill:#ffffff;fill-rule:evenodd;stroke:#ef2d28;stroke-width:0.26422498pt" />
  <path
     d="M 89.650644,145.9556 L 120.38751,130.043"
     id="path640"
     style="font-size:12px;fill:#ffffff;fill-rule:evenodd;stroke:#ef2d28;stroke-width:0.26422498pt" />
  <path
     d="M 88.65911,144.18754 L 115.42997,130.04309"
     id="path641"
     style="font-size:12px;fill:#ffffff;fill-rule:evenodd;stroke:#ef2d28;stroke-width:0.26422498pt" />
  <path
     d="M 86.67601,142.41947 L 111.46401,130.04317"
     id="path642"
     style="font-size:12px;fill:#ffffff;fill-rule:evenodd;stroke:#ef2d28;stroke-width:0.26422498pt" />
  <path
     d="M 87.667724,139.7674 L 104.52344,130.92715"
     id="path643"
     style="font-size:12px;fill:#ffffff;fill-rule:evenodd;stroke:#ef2d28;stroke-width:0.26422498pt" />
  <path
     d="M 86.676055,137.99931 L 99.565773,130.92721"
     id="path644"
     style="font-size:12px;fill:#ffffff;fill-rule:evenodd;stroke:#ef2d28;stroke-width:0.26422498pt" />
  <path
     d="M 86.675949,135.3473 L 95.599664,130.92705"
     id="path645"
     style="font-size:12px;fill:#ffffff;fill-rule:evenodd;stroke:#ef2d28;stroke-width:0.26422498pt" />
  <path
     d="M 95.599835,149.49178 L 129.31127,131.81128"
     id="path654"
     style="font-size:12px;fill:#ffffff;fill-rule:evenodd;stroke:#ef2d28;stroke-width:0.26422498pt" />
  <path
     d="M 98.574232,150.37564 L 130.30281,133.57934"
     id="path655"
     style="font-size:12px;fill:#ffffff;fill-rule:evenodd;stroke:#ef2d28;stroke-width:0.26422498pt" />
  <path
     d="M 101.54887,151.25989 L 131.29431,135.34729"
     id="path656"
     style="font-size:12px;fill:#ffffff;fill-rule:evenodd;stroke:#ef2d28;stroke-width:0.26422498pt" />
  <path
     d="M 104.52342,152.14376 L 129.31142,138.88326"
     id="path657"
     style="font-size:12px;fill:#ffffff;fill-rule:evenodd;stroke:#ef2d28;stroke-width:0.26422498pt" />
  <path
     d="M 108.48955,152.14372 L 130.3027,140.65137"
     id="path658"
     style="font-size:12px;fill:#ffffff;fill-rule:evenodd;stroke:#ef2d28;stroke-width:0.26422498pt" />
  <path
     d="M 111.46408,153.02773 L 130.30294,143.30353"
     id="path659"
     style="font-size:12px;fill:#ffffff;fill-rule:evenodd;stroke:#ef2d28;stroke-width:0.26422498pt" />
  <path
     d="M 114.43846,153.91195 L 129.31132,145.95565"
     id="path660"
     style="font-size:12px;fill:#ffffff;fill-rule:evenodd;stroke:#ef2d28;stroke-width:0.26422498pt" />
  <path
     d="M 118.40456,153.91186 L 130.30285,147.72371"
     id="path661"
     style="font-size:12px;fill:#ffffff;fill-rule:evenodd;stroke:#ef2d28;stroke-width:0.26422498pt" />
  <path
     d="M 122.37054,154.79589 L 130.30283,150.37564"
     id="path662"
     style="font-size:12px;fill:#ffffff;fill-rule:evenodd;stroke:#ef2d28;stroke-width:0.26422498pt" />
  <path
     d="M 126.33661,154.79578 L 131.29432,152.14368"
     id="path663"
     style="font-size:12px;fill:#ffffff;fill-rule:evenodd;stroke:#ef2d28;stroke-width:0.26422498pt" />
  <path
     d="M 133.27734,129.15914 L 128.31968,129.15914 C 126.66703,137.99939 126.66703,146.83964 128.31968,155.67989 L 133.27734,155.67989 C 131.62469,146.83964 131.62469,137.99939 133.27734,129.15914 z"
     id="path635"
     style="font-size:12px;fill:#ffffff;fill-rule:evenodd;stroke:#ef2d28;stroke-width:0.26422367pt" />
  <path
     d="M 74.777797,141.53543 L 86.676084,132.69518"
     id="path664"
     style="font-size:12px;fill:#ffffff;fill-rule:evenodd;stroke:#ef2d28;stroke-width:0.26422498pt" />
  <path
     d="M 74.777797,135.34732 L 86.676084,145.95572"
     id="path665"
     style="font-size:12px;fill:#ffffff;fill-rule:evenodd;stroke:#ef2d28;stroke-width:0.26422498pt" />
  <path
     d="M 92.625126,130.92713 L 86.676012,131.81121 C 85.353888,137.41003 85.353888,142.12478 86.676012,147.7236 L 92.625126,149.49175 C 91.303002,143.89292 91.303002,136.52595 92.625126,130.92713 z"
     id="path637"
     style="font-size:12px;fill:#ffffff;fill-rule:evenodd;stroke:#ef2d28;stroke-width:0.18807621pt" />
  <path
     d="M 164.97285,86.725682 L 164.97285,82.268508 C 160.51593,82.305682 157.54493,79.653582 157.54451,76.964308 L 142.68867,77.001482 C 142.68867,79.653582 139.71725,82.305682 135.26033,82.305682 L 135.26033,86.725682 L 164.97285,86.725682 z"
     id="path674"
     style="font-size:12px;fill:#ffffff;fill-rule:evenodd;stroke:#ef2d28;stroke-width:0.32342911pt" />
  <rect
     width="12.733901"
     height="5.3041496"
     x="143.74965"
     y="71.697304"
     id="rect675"
     style="font-size:12px;fill:#ffffff;fill-rule:evenodd;stroke:#ef2d28;stroke-width:0.27334602pt" />
  <rect
     width="10.611578"
     height="5.304153"
     x="144.81081"
     y="66.39312"
     id="rect676"
     style="font-size:12px;fill:#ffffff;fill-rule:evenodd;stroke:#ef2d28;stroke-width:0.27334602pt" />
  <rect
     width="10.611578"
     height="5.3041611"
     x="144.81081"
     y="61.088993"
     id="rect677"
     style="font-size:12px;fill:#ffffff;fill-rule:evenodd;stroke:#ef2d28;stroke-width:0.27334602pt" />
  <rect
     width="8.4892673"
     height="7.0722203"
     x="145.87196"
     y="54.016762"
     id="rect679"
     style="font-size:12px;fill:#ffffff;fill-rule:evenodd;stroke:#ef2d28;stroke-width:0.27334602pt" />
  <rect
     width="9.2211084"
     height="6.1881914"
     x="145.50604"
     y="47.828571"
     id="rect680"
     style="font-size:12px;fill:#ffffff;fill-rule:evenodd;stroke:#ef2d28;stroke-width:0.28488476pt" />
  <ellipse
     cx="237.40158"
     cy="161.22044"
     rx="42.519684"
     ry="33.661423"
     transform="matrix(0.2891558,0,0,0.249492,81.982856,1.8592021)"
     id="path681"
     style="font-size:12px;fill:#ffffff;fill-rule:evenodd;stroke:#ef2d28;stroke-width:1pt"
     sodipodi:cx="237.40158"
     sodipodi:cy="161.22044"
     sodipodi:rx="42.519684"
     sodipodi:ry="33.661423" />
  <path
     d="M 156.77613,41.640472 C 156.77613,43.958502 159.84986,47.828622 159.84986,47.828622 C 157.62451,49.348777 154.02221,50.480722 150.62897,50.480722 C 147.23572,50.480722 143.01,49.850006 141.40779,47.828622 C 141.40779,47.828622 144.48152,43.958502 144.48152,41.640472 C 144.48152,39.322442 141.40779,36.336272 141.40779,36.336272 C 143.63313,34.816117 147.23544,33.684172 150.62897,33.684172 C 154.02221,33.684172 157.62451,34.816117 159.84986,36.336272 C 159.84986,36.336272 156.77613,39.322442 156.77613,41.640472 z"
     id="path683"
     style="font-size:12px;fill:#ffffff;fill-rule:evenodd;stroke:#ef2d28;stroke-width:0.26859274pt" />
  <path
     d="M 154.72717,41.640472 C 154.72717,43.958502 157.8009,48.712572 157.8009,48.712572 C 155.57556,50.232727 154.02221,50.480722 150.62897,50.480722 C 147.23572,50.480722 145.05925,50.733956 143.45704,48.712572 C 143.45704,48.712572 146.53076,43.958502 146.53076,41.640472 C 146.53076,39.322442 143.45704,35.452322 143.45704,35.452322 C 145.68238,33.932167 147.23544,33.684172 150.62897,33.684172 C 154.02221,33.684172 155.57556,33.932167 157.8009,35.452322 C 157.8009,35.452322 154.72717,39.322442 154.72717,41.640472 z"
     id="path685"
     style="font-size:12px;fill:#ffffff;fill-rule:evenodd;stroke:#ef2d28;stroke-width:0.26859274pt" />
  <ellipse
     cx="194.8819"
     cy="166.53543"
     rx="10.629913"
     ry="10.629921"
     transform="matrix(0.2891558,0,0,0.249492,81.982856,0.9751721)"
     id="path686"
     style="font-size:12px;fill:#ffffff;fill-rule:evenodd;stroke:#ef2d28;stroke-width:1pt"
     sodipodi:cx="194.8819"
     sodipodi:cy="166.53543"
     sodipodi:rx="10.629913"
     sodipodi:ry="10.629921" />
  <ellipse
     cx="194.8819"
     cy="166.53543"
     rx="10.629913"
     ry="10.629921"
     transform="matrix(0.2891558,0,0,0.249492,106.57247,0.9751721)"
     id="path687"
     style="font-size:12px;fill:#ffffff;fill-rule:evenodd;stroke:#ef2d28;stroke-width:1pt"
     sodipodi:cx="194.8819"
     sodipodi:cy="166.53543"
     sodipodi:rx="10.629913"
     sodipodi:ry="10.629921" />
  <ellipse
     cx="194.8819"
     cy="166.53543"
     rx="10.629913"
     ry="10.629921"
     transform="matrix(0.2891558,0,0,0.249492,94.277639,0.9751721)"
     id="path688"
     style="font-size:12px;fill:#ffffff;fill-rule:evenodd;stroke:#ef2d28;stroke-width:1pt"
     sodipodi:cx="194.8819"
     sodipodi:cy="166.53543"
     sodipodi:rx="10.629913"
     sodipodi:ry="10.629921" />
  <ellipse
     cx="194.8819"
     cy="166.53543"
     rx="10.629913"
     ry="10.629921"
     transform="matrix(0.2891558,0,0,0.249492,94.277639,-7.8650879)"
     id="path689"
     style="font-size:12px;fill:#ffffff;fill-rule:evenodd;stroke:#ef2d28;stroke-width:1pt"
     sodipodi:cx="194.8819"
     sodipodi:cy="166.53543"
     sodipodi:rx="10.629913"
     sodipodi:ry="10.629921" />
  <ellipse
     cx="194.8819"
     cy="166.53543"
     rx="10.629913"
     ry="10.629921"
     transform="matrix(0.2994823,0,0,0.249492,83.263631,42.524442)"
     id="path690"
     style="font-size:12px;fill:#ffffff;fill-rule:evenodd;stroke:#ef2d28;stroke-width:1pt"
     sodipodi:cx="194.8819"
     sodipodi:cy="166.53543"
     sodipodi:rx="10.629913"
     sodipodi:ry="10.629921" />
  <ellipse
     cx="194.8819"
     cy="166.53543"
     rx="10.629913"
     ry="10.629921"
     transform="matrix(0.2994823,0,0,0.249492,100.24214,42.524442)"
     id="path691"
     style="font-size:12px;fill:#ffffff;fill-rule:evenodd;stroke:#ef2d28;stroke-width:1pt"
     sodipodi:cx="194.8819"
     sodipodi:cy="166.53543"
     sodipodi:rx="10.629913"
     sodipodi:ry="10.629921" />
  <path
     d="M 142.68834,77.001482 L 157.54476,77.001482 L 150.1167,84.957782 L 142.68834,77.001482 z"
     id="path693"
     style="font-size:12px;fill:#ffffff;fill-rule:evenodd;stroke:#ef2d28;stroke-width:0.27334673pt" />
  <ellipse
     cx="194.8819"
     cy="166.53543"
     rx="10.629913"
     ry="10.629921"
     transform="matrix(0.3993101,0,0,0.3326564,72.298311,27.790617)"
     id="path692"
     style="font-size:12px;fill:#ffffff;fill-rule:evenodd;stroke:#ef2d28;stroke-width:1pt"
     sodipodi:cx="194.8819"
     sodipodi:cy="166.53543"
     sodipodi:rx="10.629913"
     sodipodi:ry="10.629921" />
  <rect
     width="22.804873"
     height="5.3041649"
     rx="1.2377304"
     ry="0.93810946"
     x="133.77419"
     y="109.72204"
     id="rect818"
     style="font-size:12px;fill:#ffffff;fill-rule:evenodd;stroke:#ef2d28;stroke-width:0.33028123" />
  <path
     d="M 163.51956,105.30192 C 160.77333,105.30192 158.56213,107.36247 158.56213,109.92226 L 158.56213,113.94183 C 158.56213,116.50162 160.77333,118.56242 163.51956,118.56242 C 166.26608,118.56242 168.47728,116.50162 168.47728,113.94183 L 168.47728,109.92226 C 168.47728,107.36247 166.26608,105.30192 163.51956,105.30192 z M 163.51956,107.07007 C 161.87194,107.07007 160.54499,108.71871 160.54499,110.76654 L 160.54499,113.09805 C 160.54499,115.14588 161.87194,116.79452 163.51956,116.79452 C 165.16747,116.79452 166.49414,115.14588 166.49414,113.09805 L 166.49414,110.76654 C 166.49414,108.71871 165.16747,107.07007 163.51956,107.07007 z"
     id="path810"
     style="font-size:12px;fill:#ffffff;fill-rule:evenodd;stroke:#ef2d28;stroke-width:0.33028123" />
  <path
     d="M 137.74013,106.18604 C 136.0925,106.18604 134.76556,107.83469 134.76556,109.88252 L 134.76556,113.98217 C 134.76556,116.03 136.0925,117.67864 137.74013,117.67864 C 139.38804,117.67864 140.7147,116.03 140.7147,113.98217 L 140.7147,109.88252 C 140.7147,107.83469 139.38804,106.18604 137.74013,106.18604 z M 137.74013,104.41789 C 134.9939,104.41789 132.7827,106.47845 132.7827,109.03824 L 132.7827,114.82595 C 132.7827,117.38574 134.9939,119.44654 137.74013,119.44654 C 140.48664,119.44654 142.69784,117.38574 142.69784,114.82595 L 142.69784,109.03824 C 142.69784,106.47845 140.48664,104.41789 137.74013,104.41789 z"
     id="path812"
     style="font-size:12px;fill:#ffffff;fill-rule:evenodd;stroke:#ef2d28;stroke-width:0.33028123" />
  <path
     d="M 129.80799,107.95409 C 128.16036,107.95409 126.83341,109.60274 126.83341,111.65057 L 126.83313,112.6146 C 126.83313,114.66243 128.16008,116.31108 129.80771,116.31108 C 131.45561,116.31108 132.78228,114.66243 132.78228,112.6146 L 132.78256,111.65057 C 132.78256,109.60274 131.45589,107.95409 129.80799,107.95409 z M 129.80799,106.18594 C 127.06175,106.18594 124.85055,108.2465 124.85055,110.80629 L 124.85027,113.45839 C 124.85027,116.01817 127.06147,118.07898 129.80771,118.07898 C 132.55422,118.07898 134.76542,116.01817 134.76542,113.45839 L 134.7657,110.80629 C 134.7657,108.2465 132.5545,106.18594 129.80799,106.18594 z"
     id="path811"
     style="font-size:12px;fill:#ffffff;fill-rule:evenodd;stroke:#ef2d28;stroke-width:0.33028123" />
  <path
     d="M 117.90966,105.51 C 114.94393,105.51 112.55542,107.35257 112.55542,109.64129 L 112.55542,114.2232 C 112.55542,116.51192 114.94393,118.35449 117.90966,118.35449 C 120.8759,118.35449 123.2639,116.51192 123.2639,114.2232 L 123.2639,109.64129 C 123.2639,107.35257 120.8759,105.51 117.90966,105.51 z M 117.90966,103.53386 C 112.96644,103.53386 108.98627,105.8368 108.98627,108.6977 L 108.98627,115.16623 C 108.98627,118.02713 112.96644,120.33035 117.90966,120.33035 C 122.85339,120.33035 126.83356,118.02713 126.83356,115.16623 L 126.83356,108.6977 C 126.83356,105.8368 122.85339,103.53386 117.90966,103.53386 z"
     id="path813"
     style="font-size:12px;fill:#ffffff;fill-rule:evenodd;stroke:#ef2d28;stroke-width:0.33028102" />
  <path
     d="M 182.35822,106.394 C 179.39249,106.394 177.00398,108.23657 177.00398,110.52529 L 177.00398,115.1072 C 177.00398,117.39592 179.39249,119.23849 182.35822,119.23849 C 185.32446,119.23849 187.71246,117.39592 187.71246,115.1072 L 187.71246,110.52529 C 187.71246,108.23657 185.32446,106.394 182.35822,106.394 z M 182.35822,104.41786 C 177.41499,104.41786 173.43483,106.7208 173.43483,109.5817 L 173.43483,116.05023 C 173.43483,118.91113 177.41499,121.21435 182.35822,121.21435 C 187.30195,121.21435 191.28212,118.91113 191.28212,116.05023 L 191.28212,109.5817 C 191.28212,106.7208 187.30195,104.41786 182.35822,104.41786 z"
     id="path814"
     style="font-size:12px;fill:#ffffff;fill-rule:evenodd;stroke:#ef2d28;stroke-width:0.33028102" />
  <rect
     width="11.898197"
     height="5.3041534"
     rx="0.64577258"
     ry="0.93810749"
     x="165.50273"
     y="109.72201"
     id="rect815"
     style="font-size:12px;fill:#ffffff;fill-rule:evenodd;stroke:#ef2d28;stroke-width:0.33028123" />
  <rect
     width="6.9406075"
     height="7.0721669"
     rx="0.37670025"
     ry="1.2508034"
     x="154.59604"
     y="108.83801"
     id="rect817"
     style="font-size:12px;fill:#ffffff;fill-rule:evenodd;stroke:#ef2d28;stroke-width:0.33028123" />
  <rect
     width="6.9406161"
     height="7.0722046"
     rx="0.37670073"
     ry="1.25081"
     x="121.87599"
     y="108.838"
     id="rect819"
     style="font-size:12px;fill:#ffffff;fill-rule:evenodd;stroke:#ef2d28;stroke-width:0.33028123" />
  <rect
     width="13.881238"
     height="8.8402557"
     rx="0.7534017"
     ry="1.5635126"
     x="100.06262"
     y="107.95401"
     id="rect820"
     style="font-size:12px;fill:#ffffff;fill-rule:evenodd;stroke:#ef2d28;stroke-width:0.33028123" />
  <rect
     width="12.889718"
     height="8.8402557"
     rx="0.69958717"
     ry="1.5635126"
     x="186.32457"
     y="108.83801"
     id="rect821"
     style="font-size:12px;fill:#ffffff;fill-rule:evenodd;stroke:#ef2d28;stroke-width:0.33028123" />
</svg>
