<?xml version="1.0" encoding="UTF-8" standalone="no"?>
<!-- Created with Sodipodi ("http://www.sodipodi.com/") -->
<svg
   xmlns:dc="http://purl.org/dc/elements/1.1/"
   xmlns:cc="http://web.resource.org/cc/"
   xmlns:rdf="http://www.w3.org/1999/02/22-rdf-syntax-ns#"
   xmlns:svg="http://www.w3.org/2000/svg"
   xmlns="http://www.w3.org/2000/svg"
   xmlns:sodipodi="http://sodipodi.sourceforge.net/DTD/sodipodi-0.dtd"
   xmlns:inkscape="http://www.inkscape.org/namespaces/inkscape"
   version="1"
   x="0.00000000"
   y="0.00000000"
   width="1116.1300px"
   height="744.09448px"
   id="svg378"
   sodipodi:version="0.32"
   sodipodi:docname="ottoman.svg"
   sodipodi:docbase="C:\flags"
   inkscape:version="0.44">
  <metadata
     id="metadata20">
    <rdf:RDF>
      <cc:Work
         rdf:about="">
        <dc:format>image/svg+xml</dc:format>
        <dc:type
           rdf:resource="http://purl.org/dc/dcmitype/StillImage" />
      </cc:Work>
    </rdf:RDF>
  </metadata>
  <sodipodi:namedview
     id="base"
     showguides="true"
     inkscape:guide-bbox="true"
     inkscape:zoom="0.46230688"
     inkscape:cx="531.49426"
     inkscape:cy="393.3391"
     inkscape:window-width="847"
     inkscape:window-height="579"
     inkscape:window-x="20"
     inkscape:window-y="42"
     inkscape:current-layer="svg378" />
  <defs
     id="defs380" />
  <rect
     width="1116.1271"
     height="744.09003"
     x="-1116.1262"
     y="-744.09448"
     transform="scale(-1.000000,-1.000000)"
     style="font-size:12.000000px;fill:#ff0000;fill-opacity:1.0000000;fill-rule:evenodd;stroke-width:1.0247000pt"
     id="rect149" />
  <path
     sodipodi:type="arc"
     style="opacity:1.0000000;fill:green;fill-opacity:1;fill-rule:nonzero;stroke:none;stroke-width:7.3112502;stroke-miterlimit:4.0000000;stroke-dasharray:none;stroke-opacity:1.0000000"
     id="path3118"
     sodipodi:cx="602.41370"
     sodipodi:cy="430.45001"
     sodipodi:rx="401.24863"
     sodipodi:ry="190.34975"
     d="M 1003.6623 430.45001 A 401.24863 190.34975 0 1 1  201.16507,430.45001 A 401.24863 190.34975 0 1 1  1003.6623 430.45001 z"
     transform="matrix(1.134771,0.000000,0.000000,1.134771,-125.5389,-116.4127)" />
  <path
     sodipodi:type="arc"
     style="fill:yellow;fill-opacity:1;stroke:none;stroke-width:15.80000019;stroke-linejoin:round;stroke-miterlimit:4;stroke-dasharray:none;stroke-opacity:1"
     id="path2797"
     sodipodi:cx="387.18869"
     sodipodi:cy="372.04724"
     sodipodi:rx="127.62086"
     sodipodi:ry="127.62086"
     d="M 514.80955 372.04724 A 127.62086 127.62086 0 1 1  259.56783,372.04724 A 127.62086 127.62086 0 1 1  514.80955 372.04724 z"
     transform="translate(-54.24297,2.25e-3)" />
  <path
     sodipodi:type="arc"
     style="fill:green;fill-opacity:1;stroke:none;stroke-width:15.80000019;stroke-linejoin:round;stroke-miterlimit:4;stroke-dasharray:none;stroke-opacity:1"
     id="path2803"
     sodipodi:cx="641.34888"
     sodipodi:cy="370.9657"
     sodipodi:rx="102.74561"
     sodipodi:ry="102.74561"
     d="M 744.09449 370.9657 A 102.74561 102.74561 0 1 1  538.60326,370.9657 A 102.74561 102.74561 0 1 1  744.09449 370.9657 z"
     transform="translate(-274.243,2.25e-3)" />
  <path
     sodipodi:type="arc"
     style="fill:yellow;fill-opacity:1;stroke:none;stroke-width:15.80000019;stroke-linejoin:round;stroke-miterlimit:4;stroke-dasharray:none;stroke-opacity:1"
     id="path2811"
     sodipodi:cx="387.18869"
     sodipodi:cy="372.04724"
     sodipodi:rx="127.62086"
     sodipodi:ry="127.62086"
     d="M 514.80955 372.04724 A 127.62086 127.62086 0 1 1  259.56783,372.04724 A 127.62086 127.62086 0 1 1  514.80955 372.04724 z"
     transform="translate(187.6166,2.25e-3)" />
  <path
     sodipodi:type="arc"
     style="fill:green;fill-opacity:1;stroke:none;stroke-width:15.80000019;stroke-linejoin:round;stroke-miterlimit:4;stroke-dasharray:none;stroke-opacity:1"
     id="path2813"
     sodipodi:cx="641.34888"
     sodipodi:cy="370.9657"
     sodipodi:rx="102.74561"
     sodipodi:ry="102.74561"
     d="M 744.09449 370.9657 A 102.74561 102.74561 0 1 1  538.60326,370.9657 A 102.74561 102.74561 0 1 1  744.09449 370.9657 z"
     transform="translate(-32.3834,2.25e-3)" />
  <path
     sodipodi:type="arc"
     style="fill:yellow;fill-opacity:1;stroke:none;stroke-width:15.80000019;stroke-linejoin:round;stroke-miterlimit:4;stroke-dasharray:none;stroke-opacity:1"
     id="path2817"
     sodipodi:cx="387.18869"
     sodipodi:cy="372.04724"
     sodipodi:rx="127.62086"
     sodipodi:ry="127.62086"
     d="M 514.80955 372.04724 A 127.62086 127.62086 0 1 1  259.56783,372.04724 A 127.62086 127.62086 0 1 1  514.80955 372.04724 z"
     transform="translate(426.706,2.25e-3)" />
  <path
     sodipodi:type="arc"
     style="fill:green;fill-opacity:1;stroke:none;stroke-width:15.80000019;stroke-linejoin:round;stroke-miterlimit:4;stroke-dasharray:none;stroke-opacity:1"
     id="path2819"
     sodipodi:cx="641.34888"
     sodipodi:cy="370.9657"
     sodipodi:rx="102.74561"
     sodipodi:ry="102.74561"
     d="M 744.09449 370.9657 A 102.74561 102.74561 0 1 1  538.60326,370.9657 A 102.74561 102.74561 0 1 1  744.09449 370.9657 z"
     transform="translate(206.706,2.25e-3)" />
</svg>
