<?xml version="1.0" encoding="UTF-8" standalone="no"?>
<svg
   xmlns:dc="http://purl.org/dc/elements/1.1/"
   xmlns:cc="http://creativecommons.org/ns#"
   xmlns:rdf="http://www.w3.org/1999/02/22-rdf-syntax-ns#"
   xmlns:svg="http://www.w3.org/2000/svg"
   xmlns="http://www.w3.org/2000/svg"
   xmlns:sodipodi="http://sodipodi.sourceforge.net/DTD/sodipodi-0.dtd"
   xmlns:inkscape="http://www.inkscape.org/namespaces/inkscape"
   width="900"
   height="600"
   id="svg2"
   sodipodi:version="0.32"
   inkscape:version="0.46"
   sodipodi:docname="panama.svg"
   inkscape:output_extension="org.inkscape.output.svg.inkscape">
  <rect
     style="fill:#ffffff"
     id="rect2423"
     width="900"
     height="600" />
  <g
     id="g3239"
     transform="matrix(0.3331343,0,0,0.3345531,496.26046,339.91354)"
     style="fill:#d21034">
    <path
       id="path205"
       style="fill:#d21034"
       transform="matrix(11.9122,0,0,12.4579,-2509.82,-6130.71)"
       d="M 266.186,534.45 L 255.778,527.018 L 245.421,534.523 L 249.273,522.327 L 238.935,514.796 L 251.725,514.691 L 255.692,502.532 L 259.744,514.663 L 272.534,514.679 L 262.249,522.281 L 266.186,534.45 z" />
  </g>
  <rect
     style="fill:#0067c6"
     id="rect3195"
     width="450"
     height="300"
     y="300" />
  <rect
     style="fill:#d21034"
     id="rect3197"
     width="450"
     height="300"
     x="450" />
  <g
     id="g3205"
     transform="matrix(0.3331343,0,0,0.3345531,46.260457,39.913541)"
     style="fill:#0067c6">
    <path
       id="path3207"
       style="fill:#0067c6"
       transform="matrix(11.9122,0,0,12.4579,-2509.82,-6130.71)"
       d="M 266.186,534.45 L 255.778,527.018 L 245.421,534.523 L 249.273,522.327 L 238.935,514.796 L 251.725,514.691 L 255.692,502.532 L 259.744,514.663 L 272.534,514.679 L 262.249,522.281 L 266.186,534.45 z" />
  </g>
</svg>
