<?xml version="1.0" encoding="UTF-8" standalone="no"?>
<!-- Created with Sodipodi ("http://www.sodipodi.com/") -->

<svg
   xmlns:dc="http://purl.org/dc/elements/1.1/"
   xmlns:cc="http://creativecommons.org/ns#"
   xmlns:rdf="http://www.w3.org/1999/02/22-rdf-syntax-ns#"
   xmlns:svg="http://www.w3.org/2000/svg"
   xmlns="http://www.w3.org/2000/svg"
   xmlns:sodipodi="http://sodipodi.sourceforge.net/DTD/sodipodi-0.dtd"
   xmlns:inkscape="http://www.inkscape.org/namespaces/inkscape"
   id="svg1350"
   sodipodi:version="0.32"
   width="300.00000pt"
   height="200.00000pt"
   sodipodi:docname="pashtun.svg"
   inkscape:version="0.47 r22583"
   version="1.1">
  <defs
     id="defs1352">
    <inkscape:perspective
       sodipodi:type="inkscape:persp3d"
       inkscape:vp_x="65.116407 : 117.43646 : 1"
       inkscape:vp_y="0 : 644.14894 : 0"
       inkscape:vp_z="259.72879 : 117.43646 : 1"
       inkscape:persp3d-origin="162.4226 : 90.596923 : 1"
       id="perspective19" />
    <defs
       id="defs5117" />
    <sodipodi:namedview
       id="namedview5116" />
    <inkscape:perspective
       id="perspective3625"
       inkscape:persp3d-origin="0.5 : 0.33333333 : 1"
       inkscape:vp_z="1 : 0.5 : 1"
       inkscape:vp_y="0 : 1000 : 0"
       inkscape:vp_x="0 : 0.5 : 1"
       sodipodi:type="inkscape:persp3d" />
  </defs>
  <sodipodi:namedview
     id="base"
     showgrid="false"
     borderlayer="top"
     bordercolor="#000000"
     borderopacity="1"
     inkscape:zoom="2.12"
     inkscape:cx="187.5"
     inkscape:cy="127.16551"
     inkscape:window-width="1371"
     inkscape:window-height="775"
     inkscape:window-x="22"
     inkscape:window-y="74"
     inkscape:window-maximized="0"
     inkscape:current-layer="svg1350" />
  <rect
     style="font-size:12.000000;fill:#000000;fill-opacity:1.0000000;fill-rule:evenodd;"
     id="rect625"
     x="0.0000000"
     y="0.0000000"
     height="250.00000"
     width="375.00000" />
  <metadata
     id="metadata17">
    <rdf:RDF>
      <cc:Work
         rdf:about="">
        <dc:format>image/svg+xml</dc:format>
        <dc:type
           rdf:resource="http://purl.org/dc/dcmitype/StillImage" />
      </cc:Work>
    </rdf:RDF>
  </metadata>
  <g
     id="g3639">
    <rect
       y="0"
       x="106.20438"
       height="250"
       width="4.3795624"
       id="rect2839"
       style="fill:#ffffff;fill-opacity:1;stroke:none" />
    <rect
       y="-1.2397766e-05"
       x="114.9635"
       height="250"
       width="54.744526"
       id="rect3613"
       style="fill:#ffffff;fill-opacity:1;stroke:none" />
    <rect
       y="2.2092571e-14"
       x="173.54015"
       height="250"
       width="35.036495"
       id="rect3615"
       style="fill:#999999;fill-opacity:1;stroke:none" />
    <rect
       y="0"
       x="212.40875"
       height="250"
       width="4.3795624"
       id="rect2839-1"
       style="fill:#ffffff;fill-opacity:1;stroke:none" />
  </g>
  <path
     sodipodi:type="arc"
     style="fill:#000000;fill-opacity:1;stroke:none"
     id="path3669"
     sodipodi:cx="226.17924"
     sodipodi:cy="175.23586"
     sodipodi:rx="65.801888"
     sodipodi:ry="65.801888"
     d="m 291.98113,175.23586 a 65.801888,65.801888 0 1 1 -131.60377,0 65.801888,65.801888 0 1 1 131.60377,0 z"
     transform="matrix(1.3610515,0,0,1.3610515,-146.04914,-113.50502)" />
  <path
     sodipodi:type="arc"
     style="fill:#000000;fill-opacity:1;stroke:#ffffff;stroke-width:10.80000019;stroke-miterlimit:4;stroke-opacity:1;stroke-dasharray:none"
     id="path3655"
     sodipodi:cx="263.67926"
     sodipodi:cy="202.83018"
     sodipodi:rx="77.830185"
     sodipodi:ry="77.830185"
     d="m 341.50945,202.83018 a 77.830185,77.830185 0 1 1 -155.66037,0 77.830185,77.830185 0 1 1 155.66037,0 z"
     transform="translate(-101.8868,-77.830185)" />
  <path
     inkscape:randomized="0"
     sodipodi:type="star"
     style="fill:#ffffff;fill-opacity:1;fill-rule:evenodd;stroke:#000000;stroke-width:1pt;stroke-linecap:butt;stroke-linejoin:miter;stroke-opacity:1"
     id="path2567"
     sodipodi:cx="45.283852"
     sodipodi:cy="23.193138"
     inkscape:rounded="0"
     d="m 50.719218,37.173724 -6.079589,-9.022262 -6.897344,8.00797 3.263327,-10.378503 -10.561307,-0.399674 10.148891,-3.919518 -6.272389,-8.506355 9.392133,5.490943 2.739765,-10.2075769 1.562907,10.7666119 9.688821,-4.222285 -7.44322,7.934803 9.341997,4.942473 -10.844451,-0.872075 1.960459,10.385448 z"
     sodipodi:sides="7"
     sodipodi:r2="5"
     sodipodi:arg1="1.2"
     sodipodi:arg2="1.7"
     sodipodi:r1="15"
     inkscape:flatsided="false"
     transform="matrix(0.70397688,0,0,0.88049228,130.79,47.726851)" />
  <path
     inkscape:randomized="0"
     sodipodi:type="star"
     style="fill:#ffffff;fill-opacity:1;fill-rule:evenodd;stroke:#000000;stroke-width:1pt;stroke-linecap:butt;stroke-linejoin:miter;stroke-opacity:1"
     id="path3206"
     sodipodi:cx="45.283852"
     sodipodi:cy="23.193138"
     inkscape:rounded="0"
     d="m 50.719218,37.173724 -6.079589,-9.022262 -6.897344,8.00797 3.263327,-10.378503 -10.561307,-0.399674 10.148891,-3.919518 -6.272389,-8.506355 9.392133,5.490943 2.739765,-10.2075769 1.562907,10.7666119 9.688821,-4.222285 -7.44322,7.934803 9.341997,4.942473 -10.844451,-0.872075 1.960459,10.385448 z"
     sodipodi:sides="7"
     sodipodi:r2="5"
     sodipodi:arg1="1.2"
     sodipodi:arg2="1.7"
     sodipodi:r1="15"
     inkscape:flatsided="false"
     transform="matrix(0.70397688,0,0,0.88049228,160.2295,60.634311)" />
  <path
     inkscape:randomized="0"
     sodipodi:type="star"
     style="fill:#ffffff;fill-opacity:1;fill-rule:evenodd;stroke:#000000;stroke-width:1pt;stroke-linecap:butt;stroke-linejoin:miter;stroke-opacity:1"
     id="path3207"
     sodipodi:cx="45.283852"
     sodipodi:cy="23.193138"
     inkscape:rounded="0"
     d="m 50.719218,37.173724 -6.079589,-9.022262 -6.897344,8.00797 3.263327,-10.378503 -10.561307,-0.399674 10.148891,-3.919518 -6.272389,-8.506355 9.392133,5.490943 2.739765,-10.2075769 1.562907,10.7666119 9.688821,-4.222285 -7.44322,7.934803 9.341997,4.942473 -10.844451,-0.872075 1.960459,10.385448 z"
     sodipodi:sides="7"
     sodipodi:r2="5"
     sodipodi:arg1="1.2"
     sodipodi:arg2="1.7"
     sodipodi:r1="15"
     inkscape:flatsided="false"
     transform="matrix(0.70397688,0,0,0.88049228,183.77624,83.437504)" />
  <path
     inkscape:randomized="0"
     sodipodi:type="star"
     style="fill:#ffffff;fill-opacity:1;fill-rule:evenodd;stroke:#000000;stroke-width:1pt;stroke-linecap:butt;stroke-linejoin:miter;stroke-opacity:1"
     id="path3209"
     sodipodi:cx="45.283852"
     sodipodi:cy="23.193138"
     inkscape:rounded="0"
     d="m 50.719218,37.173724 -6.079589,-9.022262 -6.897344,8.00797 3.263327,-10.378503 -10.561307,-0.399674 10.148891,-3.919518 -6.272389,-8.506355 9.392133,5.490943 2.739765,-10.2075769 1.562907,10.7666119 9.688821,-4.222285 -7.44322,7.934803 9.341997,4.942473 -10.844451,-0.872075 1.960459,10.385448 z"
     sodipodi:sides="7"
     sodipodi:r2="5"
     sodipodi:arg1="1.2"
     sodipodi:arg2="1.7"
     sodipodi:r1="15"
     inkscape:flatsided="false"
     transform="matrix(0.70397688,0,0,0.88049228,101.35052,60.419209)" />
  <path
     inkscape:randomized="0"
     sodipodi:type="star"
     style="fill:#ffffff;fill-opacity:1;fill-rule:evenodd;stroke:#000000;stroke-width:1pt;stroke-linecap:butt;stroke-linejoin:miter;stroke-opacity:1"
     id="path3210"
     sodipodi:cx="45.283852"
     sodipodi:cy="23.193138"
     inkscape:rounded="0"
     d="m 50.719218,37.173724 -6.079589,-9.022262 -6.897344,8.00797 3.263327,-10.378503 -10.561307,-0.399674 10.148891,-3.919518 -6.272389,-8.506355 9.392133,5.490943 2.739765,-10.2075769 1.562907,10.7666119 9.688821,-4.222285 -7.44322,7.934803 9.341997,4.942473 -10.844451,-0.872075 1.960459,10.385448 z"
     sodipodi:sides="7"
     sodipodi:r2="5"
     sodipodi:arg1="1.2"
     sodipodi:arg2="1.7"
     sodipodi:r1="15"
     inkscape:flatsided="false"
     transform="matrix(0.70397688,0,0,0.88049228,76.417312,83.437518)" />
  <path
     sodipodi:nodetypes="ccccccccccccccccccccccccccccccccccccccccccccccccc"
     id="path3"
     d="m 170.77164,134.21338 -4.26543,10.47129 -1.42181,0 2.84362,-10.47129 2.84362,0 z m -15.6399,0 1.42182,0 2.84361,10.47129 -1.42181,0 -2.84362,-10.47129 m 8.53086,-1.4959 1.4218,1.4959 -1.4218,8.97539 -2.84362,0 -1.42181,-8.97539 1.42181,-1.4959 2.84362,0 m -12.13196,3.14454 c 4.39907,12.23226 17.79189,43.05404 -4.92974,43.22831 l 0,1.4959 4.26542,0 -2.84362,5.98359 1.42181,0 2.84362,-4.48769 1.42181,4.48769 1.4218,0 5.68724,-7.47949 -2.84362,8.97539 1.42181,0 1.42181,-4.48769 1.42181,0 0,5.98359 1.42181,0 0,-4.4877 1.4218,0 0,2.9918 1.42181,0 -2.84361,-8.97539 5.68723,7.47949 1.42181,0 1.4218,-4.48769 2.84362,4.48769 1.42181,0 c -1.26058,-3.77459 -2.89665,-5.39735 1.42181,-5.98359 l 0,-1.4959 c -22.72163,-0.17427 -10.08631,-29.65289 -5.68724,-41.88515 l 2.15993,-5.00935 -12.15508,-1.7959 -9.20411,2.12558"
     style="font-size:12px;fill:#ffffff;stroke:#ffffff;stroke-width:0.57812172;stroke-opacity:1;stroke-dasharray:none" />
  <path
     sodipodi:nodetypes="ccccccccccccccccccccccccccccccccc"
     id="path619"
     d="m 138.50246,143.03453 c -2.40243,1.10379 -5.40899,0.0178 -5.98572,3.2754 -0.38452,2.17207 -5.77042,3.64168 -7.35166,1.01341 -2.17267,-3.61128 -0.29277,-3.23384 -5.18616,-4.98761 -2.50633,-0.89826 -4.44818,-3.46656 -2.82271,-5.93214 1.86999,-2.83649 5.32438,0.44076 2.4861,-4.78483 -1.48553,-2.735 -6.34275,-9.48515 -2.87362,-12.47735 2.32,-2.00108 7.72172,0.98453 7.25385,-3.98029 -0.51355,-5.44949 -3.62012,-5.99798 2.68089,-9.95267 3.48336,-2.18623 1.41297,-8.579161 6.20938,-9.38278 1.92221,-0.322073 4.73942,0.593592 7.09789,0.300126 3.53326,-0.439677 7.33341,-8.350464 10.72528,-9.422903 4.07345,-1.287972 11.72351,0.828579 16.08959,2.167902 3.66534,1.12436 7.45423,5.957931 11.90052,6.122625 3.70528,0.137261 8.1141,-0.555815 11.63326,-2.107438 2.08211,-0.918026 2.33875,4.556226 4.16876,6.3804 -5.51908,2.968038 0.011,3.608388 2.10506,4.734288 2.33757,1.25685 1.40495,3.04478 3.75439,4.56309 2.96541,1.9164 5.25386,-0.46279 5.4154,2.29562 0.3074,5.25021 4.97333,4.05369 0.13132,10.48263 -3.38043,4.48835 -6.16454,-2.68346 -5.74092,3.37686 0.13264,1.89652 -0.74135,1.9011 0.0458,4.58842 0.43032,1.46893 1.87859,4.98274 1.10691,5.92549 -1.61785,1.97646 -3.07726,0.84366 -1.09697,4.50742 1.18569,2.19368 1.92761,4.67543 -1.59484,4.92686 -3.07597,0.21956 -5.37716,-6.57666 -7.27286,-2.0987 -1.06575,2.51752 -3.29607,1.87416 -4.90466,0.24112 -0.54924,-0.55758 -1.23017,-0.67792 -1.98402,-1.52676 -4.0423,-4.55184 -0.79284,-7.60618 -10.08031,-8.13005 -7.29962,-0.41174 -13.09518,-0.78416 -20.33939,0.29079 -6.33302,0.93975 -8.86677,6.18047 -15.60284,9.24971 -0.0405,0.12945 -0.76594,1.46934 0.0322,0.34136 l 8e-5,0 z"
     style="font-size:12px;fill:#ffffff;fill-rule:evenodd;stroke:#ffffff;stroke-width:1.02655888;stroke-opacity:1;stroke-dasharray:none" />
</svg>
