<?xml version="1.0" encoding="UTF-8" ?>
<!DOCTYPE svg PUBLIC "-//W3C//DTD SVG 1.1//EN" "http://www.w3.org/Graphics/SVG/1.1/DTD/svg11.dtd">
<svg width="310pt" height="210pt" viewBox="0 0 310 210" version="1.1" xmlns="http://www.w3.org/2000/svg">
<g id="#aebcdaff">
<path fill="#aebcda" opacity="1.00" d=" M 0.00 0.00 L 310.00 0.00 L 310.00 210.00 L 0.00 210.00 L 0.00 0.00 M 128.23 24.18 C 121.82 27.10 115.56 30.57 110.26 35.24 C 108.99 36.61 107.27 37.99 107.02 39.93 C 108.82 44.44 110.96 48.82 113.01 53.23 C 115.76 51.96 118.57 50.82 121.41 49.77 C 119.14 52.67 116.53 55.28 114.17 58.11 C 104.44 69.14 96.79 82.01 91.93 95.90 C 87.91 105.11 83.33 114.14 80.07 123.65 C 89.69 125.39 99.39 127.11 108.64 130.37 C 117.84 133.63 126.41 138.78 133.42 145.60 C 134.18 146.43 135.56 147.42 134.77 148.71 C 131.95 157.47 123.69 162.36 118.18 169.18 C 112.80 175.70 112.17 184.82 114.17 192.76 C 118.04 193.83 121.95 195.05 126.00 195.01 C 133.32 194.90 140.32 192.16 146.53 188.46 C 159.44 180.73 169.68 169.47 181.95 160.88 C 187.87 156.90 194.65 153.17 202.04 153.85 C 207.72 153.83 212.33 157.50 216.89 160.39 C 221.87 151.33 226.93 142.20 230.02 132.29 C 227.24 131.65 224.61 130.48 221.83 129.82 C 221.95 124.83 223.11 119.94 223.15 114.94 C 224.87 95.25 221.12 74.61 210.06 57.97 C 198.63 40.53 181.37 28.14 164.24 16.78 C 162.97 16.06 161.72 14.88 160.14 15.21 C 149.10 16.41 138.36 19.70 128.23 24.18 Z" />
</g>
<g id="#311f1fff">
<path fill="#311f1f" opacity="1.00" d=" M 128.23 24.18 C 138.36 19.70 149.10 16.41 160.14 15.21 C 161.72 14.88 162.97 16.06 164.24 16.78 C 181.37 28.14 198.63 40.53 210.06 57.97 C 221.12 74.61 224.87 95.25 223.15 114.94 C 223.11 119.94 221.95 124.83 221.83 129.82 C 224.61 130.48 227.24 131.65 230.02 132.29 C 226.93 142.20 221.87 151.33 216.89 160.39 C 212.33 157.50 207.72 153.83 202.04 153.85 C 194.65 153.17 187.87 156.90 181.95 160.88 C 169.68 169.47 159.44 180.73 146.53 188.46 C 140.32 192.16 133.32 194.90 126.00 195.01 C 121.95 195.05 118.04 193.83 114.17 192.76 C 112.17 184.82 112.80 175.70 118.18 169.18 C 123.69 162.36 131.95 157.47 134.77 148.71 C 135.56 147.42 134.18 146.43 133.42 145.60 C 126.41 138.78 117.84 133.63 108.64 130.37 C 99.39 127.11 89.69 125.39 80.07 123.65 C 83.33 114.14 87.91 105.11 91.93 95.90 C 96.79 82.01 104.44 69.14 114.17 58.11 C 116.53 55.28 119.14 52.67 121.41 49.77 C 118.57 50.82 115.76 51.96 113.01 53.23 C 110.96 48.82 108.82 44.44 107.02 39.93 C 107.27 37.99 108.99 36.61 110.26 35.24 C 115.56 30.57 121.82 27.10 128.23 24.18 M 116.37 32.31 C 113.59 34.24 110.71 36.26 108.88 39.17 C 109.35 43.40 112.08 47.01 113.46 50.99 C 119.65 49.35 125.41 46.29 130.57 42.52 C 135.58 38.88 141.80 37.46 146.79 33.79 C 148.44 32.59 150.20 31.56 152.09 30.79 C 148.94 36.06 142.58 37.81 137.45 40.50 C 127.71 44.77 120.56 52.92 113.78 60.81 C 104.00 72.33 96.60 85.79 92.00 100.18 C 102.19 101.21 112.46 102.36 122.13 105.93 C 123.19 106.25 123.88 106.96 124.21 108.07 C 113.40 104.77 102.31 102.18 90.96 101.89 C 87.59 108.59 84.69 115.54 82.04 122.55 C 93.13 124.54 104.37 126.60 114.73 131.23 C 123.01 135.00 130.60 140.33 136.88 146.93 C 134.62 156.45 126.46 162.33 120.15 169.10 C 114.45 175.07 113.91 183.95 115.40 191.66 C 122.97 194.15 131.40 194.04 138.74 190.79 C 153.46 184.53 164.35 172.39 176.86 162.84 C 184.35 157.18 193.09 151.31 202.94 152.34 C 207.84 152.67 211.90 155.56 216.04 157.88 L 216.67 157.65 C 221.04 149.83 225.36 141.82 228.08 133.24 C 225.33 132.52 222.75 131.31 219.97 130.72 C 223.26 109.83 223.59 87.39 214.04 67.98 C 203.50 45.89 183.12 30.93 163.18 17.88 C 160.84 16.11 157.82 17.00 155.18 17.33 C 141.50 19.94 128.06 24.67 116.37 32.31 Z" />
<path fill="#311f1f" opacity="1.00" d=" M 177.84 37.76 C 179.56 38.85 180.70 40.52 181.75 42.22 C 183.77 45.51 186.76 48.05 188.93 51.23 C 187.21 50.77 185.67 49.87 184.56 48.48 C 181.80 45.30 178.78 42.00 177.84 37.76 Z" />
<path fill="#311f1f" opacity="1.00" d=" M 197.93 75.70 C 201.93 78.37 201.67 83.90 202.82 88.10 C 203.99 97.16 206.67 106.07 206.89 115.21 C 206.25 114.14 205.49 113.09 205.27 111.84 C 202.87 99.79 201.81 87.42 197.93 75.70 Z" />
<path fill="#311f1f" opacity="1.00" d=" M 173.56 124.06 C 179.04 123.75 184.53 124.25 190.01 124.24 C 199.07 124.28 208.41 124.65 216.91 128.13 C 218.16 128.47 218.88 129.54 219.42 130.64 C 215.55 129.46 211.79 127.87 207.79 127.18 C 197.52 125.08 186.98 126.56 176.62 125.44 C 175.46 125.30 174.44 124.85 173.56 124.06 Z" />
<path fill="#311f1f" opacity="1.00" d=" M 140.54 176.58 C 145.32 172.55 149.51 166.87 156.15 166.03 C 155.37 167.70 153.60 168.35 152.09 169.15 C 145.92 172.07 142.52 178.91 135.91 181.10 C 134.39 181.75 132.74 181.65 131.19 181.16 C 134.29 179.60 137.92 179.00 140.54 176.58 Z" />
</g>
<g id="#e42121ff">
<path fill="#e42121" opacity="1.00" d=" M 116.37 32.31 C 128.06 24.67 141.50 19.94 155.18 17.33 C 157.82 17.00 160.84 16.11 163.18 17.88 C 183.12 30.93 203.50 45.89 214.04 67.98 C 223.59 87.39 223.26 109.83 219.97 130.72 C 222.75 131.31 225.33 132.52 228.08 133.24 C 225.36 141.82 221.04 149.83 216.67 157.65 L 216.04 157.88 C 211.90 155.56 207.84 152.67 202.94 152.34 C 193.09 151.31 184.35 157.18 176.86 162.84 C 164.35 172.39 153.46 184.53 138.74 190.79 C 131.40 194.04 122.97 194.15 115.40 191.66 C 113.91 183.95 114.45 175.07 120.15 169.10 C 126.46 162.33 134.62 156.45 136.88 146.93 C 130.60 140.33 123.01 135.00 114.73 131.23 C 104.37 126.60 93.13 124.54 82.04 122.55 C 84.69 115.54 87.59 108.59 90.96 101.89 C 102.31 102.18 113.40 104.77 124.21 108.07 C 123.88 106.96 123.19 106.25 122.13 105.93 C 112.46 102.36 102.19 101.21 92.00 100.18 C 96.60 85.79 104.00 72.33 113.78 60.81 C 120.56 52.92 127.71 44.77 137.45 40.50 C 142.58 37.81 148.94 36.06 152.09 30.79 C 150.20 31.56 148.44 32.59 146.79 33.79 C 141.80 37.46 135.58 38.88 130.57 42.52 C 125.41 46.29 119.65 49.35 113.46 50.99 C 112.08 47.01 109.35 43.40 108.88 39.17 C 110.71 36.26 113.59 34.24 116.37 32.31 M 177.84 37.76 C 178.78 42.00 181.80 45.30 184.56 48.48 C 185.67 49.87 187.21 50.77 188.93 51.23 C 186.76 48.05 183.77 45.51 181.75 42.22 C 180.70 40.52 179.56 38.85 177.84 37.76 M 197.93 75.70 C 201.81 87.42 202.87 99.79 205.27 111.84 C 205.49 113.09 206.25 114.14 206.89 115.21 C 206.67 106.07 203.99 97.16 202.82 88.10 C 201.67 83.90 201.93 78.37 197.93 75.70 M 173.56 124.06 C 174.44 124.85 175.46 125.30 176.62 125.44 C 186.98 126.56 197.52 125.08 207.79 127.18 C 211.79 127.87 215.55 129.46 219.42 130.64 C 218.88 129.54 218.16 128.47 216.91 128.13 C 208.41 124.65 199.07 124.28 190.01 124.24 C 184.53 124.25 179.04 123.75 173.56 124.06 M 140.54 176.58 C 137.92 179.00 134.29 179.60 131.19 181.16 C 132.74 181.65 134.39 181.75 135.91 181.10 C 142.52 178.91 145.92 172.07 152.09 169.15 C 153.60 168.35 155.37 167.70 156.15 166.03 C 149.51 166.87 145.32 172.55 140.54 176.58 Z" />
</g>
</svg>
