<?xml version="1.0" encoding="UTF-8" standalone="no"?>
<!DOCTYPE svg PUBLIC "-//W3C//DTD SVG 1.0//EN"
"http://www.w3.org/TR/2001/REC-SVG-20010904/DTD/svg10.dtd">
<!-- Created with Sodipodi ("http://www.sodipodi.com/") -->
<svg
   id="svg557"
   sodipodi:version="0.33pre"
   xmlns="http://www.w3.org/2000/svg"
   xmlns:sodipodi="http://sodipodi.sourceforge.net/DTD/sodipodi-0.dtd"
   xmlns:xlink="http://www.w3.org/1999/xlink"
   width="210mm"
   height="140mm"
   sodipodi:docbase="/home/tobias/Desktop/Flags/Pirates"
   sodipodi:docname="/home/tobias/Desktop/Flags/Pirates/Jack_Rackham.svg">
  <defs
     id="defs559">
    <linearGradient
       id="linearGradient668">
      <stop
         style="stop-color:#000;stop-opacity:1;"
         offset="0"
         id="stop669" />
      <stop
         style="stop-color:#fff;stop-opacity:1;"
         offset="1"
         id="stop670" />
    </linearGradient>
    <linearGradient
       xlink:href="#linearGradient668"
       id="linearGradient671"
       x1="0.206049"
       y1="0.225852"
       x2="1.138461"
       y2="1.290324" />
  </defs>
  <sodipodi:namedview
     id="base" />
  <rect
     style="font-size:12;fill:#000000;fill-rule:evenodd;stroke-width:1pt;fill-opacity:1;"
     id="rect657"
     width="744.094482"
     height="496.062988"
     x="0.000000"
     y="-0.000015" />
  <g
     id="g790"
     transform="translate(11.73454,27.52135)">
    <path
       id="selection_to_path"
       fill="none"
       stroke="black"
       stroke-width="1"
       d="M 297.00,155.00            C 300.00,146.00 297.00,130.00 298.00,120.00              299.00,114.00 303.00,108.00 306.00,102.00              308.00,96.00 311.00,88.00 318.00,86.00              316.00,92.00 315.00,92.00 313.00,97.00              313.00,97.00 310.00,108.00 310.00,108.00              308.00,113.00 305.00,115.00 304.00,120.00              302.00,127.00 303.00,144.00 303.00,152.00              303.00,154.00 303.00,157.00 301.00,159.00              298.00,163.00 289.00,160.00 290.00,170.00              290.00,171.00 290.00,173.00 291.00,174.00              295.00,183.00 311.00,186.00 319.00,190.00              327.00,195.00 325.00,200.00 333.00,205.00              341.00,211.00 362.00,211.00 372.00,210.00              375.00,209.00 380.00,209.00 383.00,207.00              391.00,204.00 392.00,196.00 400.00,191.00              406.00,188.00 419.00,186.00 425.00,177.00              426.00,176.00 427.00,174.00 427.00,173.00              430.00,162.00 417.00,166.00 414.00,159.00              412.00,154.00 415.00,138.00 416.00,133.00              416.00,133.00 419.00,136.00 419.00,136.00              419.00,136.00 419.00,145.00 419.00,145.00              419.00,145.00 420.00,155.00 420.00,155.00              431.00,153.00 430.00,140.00 431.00,131.00              433.00,107.00 433.00,92.00 416.00,73.00              406.00,63.00 393.00,55.00 379.00,53.00              379.00,53.00 370.00,53.00 370.00,53.00              370.00,53.00 363.00,52.00 363.00,52.00              363.00,52.00 355.00,53.00 355.00,53.00              342.00,54.00 333.00,54.00 322.00,60.00              314.00,64.00 309.00,69.00 303.00,76.00              288.00,92.00 285.00,112.00 288.00,133.00              289.00,141.00 291.00,150.00 297.00,155.00 Z            M 330.00,125.00            C 344.00,124.00 354.00,134.00 349.00,148.00              345.00,157.00 336.00,164.00 326.00,166.00              317.00,167.00 313.00,161.00 313.00,153.00              313.00,140.00 315.00,129.00 330.00,125.00 Z            M 386.00,125.00            C 398.00,125.00 404.00,135.00 405.00,146.00              405.00,149.00 406.00,152.00 406.00,154.00              405.00,161.00 398.00,166.00 391.00,167.00              380.00,167.00 367.00,150.00 368.00,140.00              370.00,131.00 378.00,127.00 386.00,125.00 Z            M 368.00,186.00            C 368.00,186.00 357.00,184.00 357.00,184.00              357.00,184.00 348.00,187.00 348.00,187.00              347.00,180.00 350.00,170.00 353.00,163.00              354.00,161.00 356.00,157.00 358.00,156.00              362.00,155.00 363.00,160.00 363.00,162.00              365.00,170.00 368.00,178.00 368.00,186.00 Z"
       style="fill:#ffffff;fill-opacity:1;" />
    <path
       id="selection_to_path#1"
       fill="none"
       stroke="black"
       stroke-width="1"
       d="M 407.00,202.00            C 404.00,203.00 400.00,203.00 397.00,205.00              387.00,212.00 392.00,229.00 383.00,240.00              379.00,245.00 370.00,247.00 363.00,247.00              350.00,247.00 334.00,246.00 328.00,233.00              323.00,224.00 330.00,215.00 319.00,204.00              317.00,203.00 314.00,200.00 312.00,200.00              309.00,200.00 310.00,204.00 310.00,206.00              310.00,206.00 311.00,226.00 311.00,226.00              311.00,241.00 315.00,241.00 322.00,250.00              326.00,256.00 329.00,262.00 336.00,265.00              345.00,268.00 355.00,268.00 364.00,267.00              371.00,267.00 375.00,268.00 382.00,264.00              389.00,260.00 401.00,244.00 403.00,236.00              403.00,236.00 404.00,222.00 404.00,222.00              406.00,212.00 407.00,214.00 407.00,202.00 Z"
       style="fill:#ffffff;fill-opacity:1;" />
    <path
       id="path719"
       fill="none"
       stroke="black"
       stroke-width="1"
       d="M 590 98 C 575 119 558.735 136.794 541 158 C 541 158 517 185 517 185 C 497 204 447 241 424 256 C 411 265 397 272 383 278 C 383 278 364.74 286.84 364.74 286.84 C 367.74 289.84 373.32 291.48 378.37 293.84 C 381.37 293.84 392 288 395 286 C 395 286 427 268 427 268 C 433 264 439 259 446 258 C 443 265 436 269 429 273 C 429 273 410 284 410 284 C 410 284 390.05 295.37 387.32 297.26 C 392.79 299.42 401 301.9 406.21 304 C 411.21 304 418 299 422 297 C 433 291 447 282 458 274 C 458 274 476 262 476 262 C 490 251 504 239 517 226 C 527 217 537 208 545 197 C 556 184 563 169 571 154 C 580 140 583 131 588 116 C 589 111 592 103 590 98 z "
       style="fill:#ffffff;fill-opacity:1;"
       sodipodi:nodetypes="cccccccccccccccccccccc" />
    <path
       id="path725"
       fill="none"
       stroke="black"
       stroke-width="1"
       d="M 131 93 C 128 104 132 117 136 127 C 145 151 160 172 175 192 C 184 205 199 221 210 232 C 210 232 222 242 222 242 C 222 242 248 265 248 265 C 269 281 308 305 332 316 C 332 316 364 330 364 330 C 364 330 377 335 377 335 C 392 341 407 345 423 348 C 432 350 442 353 451 353 C 448 342 442 343 433 340 C 433 340 400 327 400 327 C 354 308 303 289 267 253 C 274 253 279 259 284 263 C 291 268 300 274 308 279 C 330 292 380 315 405 324 C 415 328 432 335 442 335 C 450 336 461 331 467 327 C 463 323 459 324 453 323 C 453 323 422 314 422 314 C 395 307 369 297 344 284 C 344 284 330 278 330 278 C 330 278 311 266 311 266 C 311 266 288 251 288 251 C 288 251 264 232 264 232 C 264 232 223 200 223 200 C 223 200 185 161 185 161 C 185 161 166 139 166 139 C 166 139 146 117 146 117 C 146 117 131 93 131 93 z "
       style="fill:#ffffff;fill-opacity:1;"
       sodipodi:nodetypes="ccccccccccccccccccccccccccccccc" />
    <path
       id="path731"
       fill="none"
       stroke="black"
       stroke-width="1"
       d="M 452.00,340.00            C 454.00,344.00 458.00,350.00 458.00,355.00              458.00,366.00 445.00,376.00 435.00,375.00              431.00,374.00 422.00,369.00 419.00,375.00              418.00,377.00 418.00,379.00 419.00,380.00              419.00,384.00 424.00,386.00 428.00,388.00              439.00,391.00 451.00,387.00 460.00,381.00              467.00,377.00 472.00,370.00 474.00,362.00              474.00,362.00 476.00,349.00 476.00,349.00              477.00,345.00 481.00,344.00 486.00,337.00              492.00,329.00 498.00,315.00 506.00,309.00              509.00,307.00 512.00,306.00 516.00,305.00              514.00,302.00 512.00,300.00 510.00,297.00              508.00,296.00 506.00,294.00 504.00,294.00              501.00,293.00 497.00,293.00 494.00,295.00              480.00,302.00 483.00,315.00 475.00,325.00              469.00,333.00 462.00,337.00 452.00,340.00 Z"
       style="fill:#ffffff;fill-opacity:1;" />
    <path
       id="path737"
       fill="none"
       stroke="black"
       stroke-width="1"
       d="M 484.00,353.00            C 491.00,356.00 497.00,355.00 504.00,355.00              504.00,355.00 519.00,356.00 519.00,356.00              526.00,356.00 528.00,352.00 531.00,346.00              532.00,344.00 533.00,340.00 531.00,338.00              529.00,336.00 525.00,336.00 522.00,336.00              522.00,336.00 505.00,337.00 505.00,337.00              502.00,337.00 497.00,337.00 494.00,338.00              489.00,341.00 485.00,348.00 484.00,353.00 Z"
       style="fill:#ffffff;fill-opacity:1;" />
    <path
       id="path743"
       fill="none"
       stroke="black"
       stroke-width="1"
       d="M 538.00,367.00            C 533.00,365.00 530.00,363.00 527.00,359.00              526.00,360.00 525.00,360.00 524.00,361.00              523.00,366.00 536.00,378.00 538.00,367.00 Z"
       style="fill:#ffffff;fill-opacity:1;" />
    <path
       id="path744"
       fill="none"
       stroke="black"
       stroke-width="1"
       d="M 531.00,333.00            C 531.00,333.00 539.00,338.00 539.00,338.00              537.00,342.00 532.00,350.00 533.00,355.00              534.00,365.00 548.00,365.00 554.00,359.00              561.00,351.00 561.00,339.00 551.00,333.00              545.00,330.00 538.00,331.00 531.00,333.00 Z"
       style="fill:#ffffff;fill-opacity:1;" />
    <path
       id="selection_to_path#5"
       fill="none"
       stroke="black"
       stroke-width="1"
       d="M 172.00,361.00            C 172.00,361.00 173.00,362.00 173.00,362.00              181.00,360.00 186.00,357.00 187.00,349.00              181.00,350.00 175.00,356.00 172.00,361.00 Z"
       style="fill:#ffffff;fill-opacity:1;" />
    <path
       id="selection_to_path#4"
       fill="none"
       stroke="black"
       stroke-width="1"
       d="M 179.00,324.00            C 176.00,322.00 173.00,321.00 169.00,321.00              166.00,321.00 163.00,321.00 160.00,322.00              150.00,326.00 149.00,342.00 157.00,349.00              161.00,353.00 171.00,355.00 175.00,350.00              179.00,346.00 178.00,341.00 176.00,336.00              175.00,333.00 173.00,329.00 175.00,327.00              176.00,325.00 178.00,325.00 179.00,324.00 Z"
       style="fill:#ffffff;fill-opacity:1;" />
    <path
       id="selection_to_path#3"
       fill="none"
       stroke="black"
       stroke-width="1"
       d="M 178.00,328.00            C 179.00,331.00 184.00,343.00 186.00,345.00              189.00,347.00 192.00,347.00 195.00,347.00              195.00,347.00 213.00,346.00 213.00,346.00              213.00,346.00 226.00,346.00 226.00,346.00              226.00,343.00 226.00,340.00 225.00,338.00              222.00,330.00 211.00,326.00 203.00,326.00              203.00,326.00 194.00,327.00 194.00,327.00              188.00,327.00 183.00,326.00 178.00,328.00 Z"
       style="fill:#ffffff;fill-opacity:1;" />
    <path
       id="selection_to_path#2"
       fill="none"
       stroke="black"
       stroke-width="1"
       d="M 197.00,296.00            C 216.00,301.00 216.00,317.00 224.00,328.00              227.00,332.00 235.00,338.00 236.00,342.00              237.00,345.00 236.00,346.00 237.00,353.00              239.00,362.00 245.00,371.00 253.00,376.00              262.00,382.00 270.00,386.00 281.00,383.00              287.00,381.00 293.00,377.00 290.00,370.00              287.00,363.00 276.00,370.00 269.00,368.00              262.00,365.00 254.00,355.00 254.00,347.00              254.00,347.00 258.00,333.00 258.00,333.00              247.00,329.00 234.00,320.00 229.00,309.00              226.00,302.00 226.00,292.00 221.00,287.00              212.00,280.00 200.00,286.00 197.00,296.00 Z"
       style="fill:#ffffff;fill-opacity:1;" />
    <path
       id="path758"
       fill="none"
       stroke="black"
       stroke-width="1"
       d="M 245 319 C 248 323 250 324 254 326 C 268 334 277 328 291 325 C 291 325 320 316 320 316 C 316.16 313.42 307.58 308.05 304 306 C 304 306 285 311 285 311 C 285 311 245 319 245 319 z "
       style="fill:#ffffff;fill-opacity:1;"
       sodipodi:nodetypes="ccccccc" />
    <path
       id="path759"
       fill="none"
       stroke="black"
       stroke-width="1"
       d="M 259 348 C 285 348 309 340 334 334 C 334 334 345 328.794 348.676 328.794 C 345.206 326.265 331.054 321.156 328.84 319.16 C 325.84 320.05 314 324 310 325 C 310 325 285 332 285 332 C 285 332 273 335 273 335 C 266 338 261 339 259 348 z "
       style="fill:#ffffff;fill-opacity:1;"
       sodipodi:nodetypes="cccccccc" />
    <path
       id="selection_to_path#8"
       fill="none"
       stroke="black"
       stroke-width="1"
       d="M 336 233 C 336 235.5 336.25 238.535 337.25 240.035 C 338.25 241.535 342.005 241.674 343 241 C 343.808 240.18 342.25 236.25 341.375 235.125 C 340.5 234 339 233.5 336 233 z "
       style="fill:#ffffff;fill-opacity:1;stroke:#000000;stroke-opacity:1;"
       sodipodi:nodetypes="cscsc" />
    <path
       id="selection_to_path#7"
       fill="none"
       stroke="black"
       stroke-width="1"
       d="M 344.00,234.00            C 344.00,234.00 345.00,239.00 345.00,239.00              345.00,240.00 346.00,242.00 347.00,243.00              351.00,245.00 353.00,235.00 350.00,234.00              348.00,233.00 346.00,234.00 344.00,234.00 Z"
       style="fill:#ffffff;fill-opacity:1;stroke:#000000;stroke-opacity:1;" />
    <path
       id="selection_to_path#6"
       fill="none"
       stroke="black"
       stroke-width="1"
       d="M 356 235 C 353 237 352.913 240.721 354.038 242.596 C 355.163 244.471 357.5 244.5 359 244 C 360 243.5 361.5 241 361.625 238.75 C 361.75 236.5 360.5 234.5 356 235 z "
       style="fill:#ffffff;fill-opacity:1;stroke:#000000;stroke-opacity:1;"
       sodipodi:nodetypes="cscsc" />
    <path
       id="path784"
       fill="none"
       stroke="black"
       stroke-width="1"
       d="M 345 222 C 347.703 223.395 352.174 221.913 352.174 221.913 C 352.174 221.913 352 216 352 216 C 351 212 348 211 346 213 C 345 215 345 220 345 222 z "
       style="fill:#ffffff;fill-opacity:1;stroke:#000000;stroke-opacity:1;"
       sodipodi:nodetypes="ccccc" />
    <path
       id="path785"
       fill="none"
       stroke="black"
       stroke-width="1"
       d="M 360 212 C 359 212 355.867 211.477 354.867 212.477 C 352.913 214.436 352 221 355 223 C 356.872 223.477 360 223.913 361 219.913 C 361 219.913 361 217 361 217 C 361 217 360.959 213.744 360 212 z "
       style="fill:#ffffff;fill-opacity:1;stroke:#000000;stroke-opacity:1;"
       sodipodi:nodetypes="cccccc" />
    <path
       id="path786"
       fill="none"
       stroke="black"
       stroke-width="1"
       d="M 370 244 C 370.913 244.395 372 243 373 242 C 380 235 365.436 229.39 368 240 C 368 240 368.954 243.826 370 244 z "
       style="fill:#ffffff;fill-opacity:1;stroke:#000000;stroke-opacity:1;"
       sodipodi:nodetypes="cccc" />
    <path
       id="path787"
       fill="none"
       stroke="black"
       stroke-width="1"
       d="M 341.738 211 C 340.738 210.651 339 211 338 211 C 330.221 214.523 340 228 343 219 C 343 218 343 217 343 216 C 343 216 342.436 211.349 341.738 211 z "
       style="fill:#ffffff;fill-opacity:1;stroke:#000000;stroke-opacity:1;"
       sodipodi:nodetypes="ccccc" />
    <path
       id="path788"
       fill="none"
       stroke="black"
       stroke-width="1"
       d="M 364 212 C 364 212 362.302 222.128 363 223 C 364.308 223.697 368.343 223.523 369.826 222.477 C 369.826 219.477 370.01 215.974 369.407 214.143 C 368.804 212.311 367.5 212.5 364 212 z "
       style="fill:#ffffff;fill-opacity:1;stroke:#000000;stroke-opacity:1;"
       sodipodi:nodetypes="cccsc" />
    <path
       id="path789"
       fill="none"
       stroke="black"
       stroke-width="1"
       d="M 373.564 210.826 C 373.564 210.826 373 216 373 216 C 373 219 373.651 224.826 377.651 221.826 C 378.151 221.326 379.502 215.378 378.948 212.664 C 377.918 211.21 376.036 211.064 373.564 210.826 z "
       style="fill:#ffffff;fill-opacity:1;stroke:#000000;stroke-opacity:1;"
       sodipodi:nodetypes="ccccc" />
  </g>
</svg>
