<?xml version="1.0" encoding="UTF-8" standalone="no"?>
<!-- Created with Inkscape (http://www.inkscape.org/) -->

<svg
   xmlns:dc="http://purl.org/dc/elements/1.1/"
   xmlns:cc="http://creativecommons.org/ns#"
   xmlns:rdf="http://www.w3.org/1999/02/22-rdf-syntax-ns#"
   xmlns:svg="http://www.w3.org/2000/svg"
   xmlns="http://www.w3.org/2000/svg"
   xmlns:sodipodi="http://sodipodi.sourceforge.net/DTD/sodipodi-0.dtd"
   xmlns:inkscape="http://www.inkscape.org/namespaces/inkscape"
   id="svg1920"
   sodipodi:version="0.32"
   inkscape:version="0.47 r22583"
   width="600"
   height="400"
   version="1.0"
   sodipodi:docname="rapa_nui.svg">
  <rect
     fill="#ffffff"
     width="600"
     height="400"/>
  <path
     style="fill:#ff0000"
     d="m 551.88588,88.820009 0.85424,-7.320228 -2.0769,7.146619 c -4.3382,14.92806 -16.68881,27.65727 -29.33603,30.23489 -9.4083,1.91745 -17.70721,4.95472 -20.99566,7.68393 -2.05747,1.70762 -2.82571,1.64495 -5.10363,-0.41649 -1.72894,-1.56455 -5.30435,-2.42669 -10.0641,-2.42669 -6.52669,0 -7.77295,0.52864 -10.75444,4.5609 -1.8546,2.50851 -3.74179,4.19129 -4.19348,3.73952 -0.4518,-0.45178 0.022,-1.83752 1.0525,-3.07943 1.37024,-1.65089 1.40673,-2.25804 0.13561,-2.25804 -0.95612,0 -2.65466,2.19257 -3.77423,4.87232 -2.5172,6.02482 -9.35105,12.25076 -12.70278,12.25076 -10.31014,-3.62302 -11.66695,-19.69265 -23.46083,-20.53903 -3.98869,0.20108 -3.98972,0.20409 -0.2991,0.87582 5.10572,0.92922 7.05193,6.3142 13.56483,14.61592 41.02928,52.29691 98.27628,6.52941 107.154,-49.940771 z"
     id="path2508"
     sodipodi:nodetypes="cccsssssssssssssc" />
  <path
     style="fill:#ff0000"
     d="M 306.09963,337.97817 C 241.30027,338.87077 156.38812,294.57149 130.26972,232.0315 127.7751,224.88734 124.15031,218.23505 121.37093,211.21122 113.06286,198.93938 105.1235,185.26185 94.668234,174.67446 70.174163,149.76974 46.980486,119.93918 45.504591,83.717189 c 0.07903,-2.909409 1.007375,0.636257 2.189042,7.87128 9.743462,59.525541 67.588957,99.204511 108.885157,48.528991 2.74659,-3.37062 5.25248,-8.36885 6.88865,-10.20218 3.01614,-3.37933 8.38458,-4.56504 8.38458,-1.85187 0,0.81483 -1.65535,1.48148 -3.67855,1.48148 -2.94529,0 -4.45725,1.53607 -7.58248,7.70357 -3.61046,7.12461 -18.74266,22.46519 -21.53049,23.40759 -2.32431,0.78567 -0.78249,2.6349 5.01366,5.6761 12.97034,6.80526 17.45408,9.77953 30.959,20.53627 14.4248,11.94884 31.45512,21.36542 50.66213,21.78493 17.27348,-3.6119 28.18019,-3.9794 38.68437,6.12764 5.53967,5.33021 16.63133,6.61588 35.62069,6.61588 18.98936,0 29.95316,-1.42172 35.6207,-6.61588 11.0278,-10.10704 21.41089,-9.73954 38.68436,-6.12764 19.57786,-0.10329 35.79692,-10.30475 50.66213,-21.78493 13.50495,-10.75674 17.98867,-13.73101 30.95901,-20.53627 5.79621,-3.0412 8.1234,-5.6761 5.01365,-5.6761 -2.94289,0 -17.92002,-16.28298 -21.53044,-23.40759 -3.12528,-6.1675 -4.63723,-7.70357 -7.58252,-7.70357 -2.02321,0 -3.67855,-0.66665 -3.67855,-1.48148 0,-2.71317 5.36837,-1.52746 8.38461,1.85187 1.63614,1.83333 4.73602,6.42432 6.88867,10.20218 46.26997,55.41241 100.57666,2.40012 109.80163,-48.528991 1.12628,-7.24382 2.11027,-10.780689 2.18925,-7.87128 -1.61086,36.130721 -26.42078,65.781941 -50.08042,90.957271 -10.03674,11.17352 -19.27098,23.41887 -26.70278,36.53676 -3.22872,6.82143 -5.74591,13.97357 -8.89868,20.82028 -32.44811,62.02221 -93.50131,107.10531 -163.63134,105.94667 z"
     id="path1972"
     sodipodi:nodetypes="csssssssssssssssssssssssssssssssc" />
  <path
     style="fill:#ffffff"
     d="m 250.37078,212.59541 c 1.37636,-5.87736 -8.4108,-3.46158 -5.10736,1.3237 1.41661,2.27428 5.39799,1.79908 5.10736,-1.3237 z"
     id="path1970" />
  <path
     style="fill:#ffffff"
     d="m 355.07758,213.0992 c 1.60809,-5.32205 -7.62061,-5.42211 -5.42902,0.32024 0.78573,2.81539 4.8061,2.3975 5.42902,-0.32024 z"
     id="path1968" />
  <path
     style="fill:#ff0000"
     d="m 48.301265,88.71693 -0.854127,-7.320235 2.076831,7.146615 c 4.338187,14.92805 16.689031,27.65731 29.336169,30.23492 9.408119,1.91745 17.707021,4.9547 20.995715,7.68394 2.057667,1.70763 2.825657,1.64492 5.103517,-0.41649 1.72863,-1.56458 5.30427,-2.42672 10.06402,-2.42672 6.52696,0 7.77342,0.52867 10.75457,4.56093 1.85454,2.5085 3.7416,4.19125 4.19336,3.73951 0.45176,-0.45176 -0.0218,-1.83751 -1.05255,-3.07942 -1.37009,-1.65091 -1.40662,-2.25806 -0.13563,-2.25806 0.95625,0 2.65471,2.19257 3.77441,4.87235 2.5172,6.02479 9.35077,12.25073 12.70251,12.25073 10.31055,-3.62301 11.66702,-19.69262 23.4609,-20.539 3.98879,0.20104 3.99009,0.20408 0.29905,0.87582 -5.10551,0.92921 -7.0518,6.31418 -13.56466,14.6159 -41.02942,52.29691 -98.27647,6.52941 -107.154085,-49.94079 z"
     id="path1966"
     sodipodi:nodetypes="cccsssssssssssssc" />
  <path
     style="fill:#ffffff"
     d="m 117.59346,156.9764 c 5.18599,-3.92714 1.92766,-6.71544 -7.54697,-6.45798 l -8.56495,0.23274 7.40752,0.87837 c 4.074,0.4831 7.2018,1.54503 6.95023,2.35985 -0.25153,0.81481 -1.58479,1.29475 -2.9629,1.06653 -1.37823,-0.22823 -5.17254,-0.7163 -8.43184,-1.08459 l -5.925947,-0.66963 5.185117,1.57925 c 2.85201,0.86859 6.18517,2.15078 7.40765,2.84933 2.98572,1.70644 3.27771,1.67245 6.48209,-0.75387 z"
     id="path1964" />
  <path
     style="fill:#ffffff"
     d="m 98.518603,150.28567 c 0,-3.33801 -7.236967,-2.89639 -7.887468,0.48131 -0.420987,2.18605 0.284089,2.61142 3.683418,2.22224 2.535216,-0.29028 4.20405,-1.36338 4.20405,-2.70355 z"
     id="path1962" />
  <path
     style="fill:#ffffff"
     d="m 93.734665,150.87209 c 0.492288,-0.49228 1.770063,-0.54491 2.839657,-0.11696 1.181737,0.47293 0.830541,0.82397 -0.895163,0.89506 -1.561771,0.0643 -2.436776,-0.28582 -1.944494,-0.7781 z"
     id="path1960" />
  <path
     style="fill:#ffffff"
     d="m 107.8688,135.77539 c -0.51343,-4.43391 -5.6465,-6.70542 -5.6465,-2.4987 0,1.35713 -1.33342,4.16261 -2.96295,6.23435 -4.403991,5.59877 -3.639628,6.38825 3.05369,3.1543 5.09979,-2.46391 5.94659,-3.51403 5.55576,-6.88995 z"
     id="path1958" />
  <path
     style="fill:#ffffff"
     d="m 82.937749,137.648 c -3.499258,-6.23015 -3.767787,-11.49579 -0.715432,-14.02904 2.653862,-2.2025 2.87242,-1.00092 0.506926,2.78685 -1.006954,1.61239 -1.227035,3.89828 -0.532952,5.53542 1.013076,2.38962 1.330827,2.13409 2.219627,-1.78489 0.5705,-2.51559 1.4732,-5.27908 2.005942,-6.14111 1.408727,-2.27936 -3.471701,-3.71131 -5.868782,-1.72193 -3.975692,3.29954 -0.697285,20.58495 3.904189,20.58495 0.779973,0 0.09618,-2.3536 -1.519518,-5.23025 z"
     id="path1956" />
  <path
     style="fill:#ffffff"
     d="m 97.429434,138.58833 c 3.063056,-4.14282 3.074896,-4.31528 0.349632,-5.02793 -1.55206,-0.40589 -3.096113,0.0246 -3.431035,0.9566 -0.334912,0.932 -1.583089,3.37505 -2.293591,2.70821 -0.712591,-0.6688 0.615581,-4.58092 2.47901,-5.9865 1.858003,-1.40138 2.909212,-3.01666 2.336278,-3.58954 -0.572766,-0.57282 -2.06099,-0.21399 -3.306979,0.79749 -1.888067,1.53255 -2.111476,1.42743 -1.340966,-0.63099 1.006469,-2.68879 -2.638379,-5.03732 -4.113518,-2.65054 -0.481607,0.77926 -0.09828,1.41679 0.851799,1.41679 0.952511,0 1.331646,1.03137 0.845154,2.29917 -0.505207,1.31654 -0.2573,1.91292 0.580005,1.39544 0.804258,-0.49708 1.357656,0.30165 1.229771,1.77491 -0.464197,5.34799 0.2644,10.82681 1.439834,10.82681 0.661577,0 2.630144,-1.93047 4.374606,-4.28992 z"
     id="path1954"
     sodipodi:nodetypes="csssssssssssssc" />
  <path
     style="fill:#ffffff"
     d="m 86.943929,131.37949 c -0.370789,-1.41643 -0.660727,0.0913 -0.644295,3.3506 0.01644,3.25926 0.319844,4.41817 0.674198,2.5753 0.354353,-1.84281 0.340881,-4.50946 -0.0299,-5.9259 z"
     id="path1952" />
  <path
     style="fill:#ffffff"
     d="m 119.47098,131.76711 c -1.22214,-1.22221 -2.58236,-2.22222 -3.02218,-2.22222 -0.44022,0 -0.41624,1.00001 0.0526,2.22222 0.46914,1.22223 1.82898,2.22225 3.02234,2.22225 1.88143,0 1.8746,-0.29488 -0.0528,-2.22225 z"
     id="path1950" />
  <path
     style="fill:#ffffff"
     d="m 488.53928,157.81855 c 1.41487,-0.74581 4.90559,-2.0672 7.75772,-2.93644 l 5.18502,-1.58042 -5.92576,0.66963 c -3.25948,0.36829 -7.05368,0.85636 -8.4319,1.08459 -1.3781,0.22822 -2.71134,-0.25172 -2.96292,-1.06653 -0.25174,-0.81482 2.87626,-1.87675 6.95006,-2.35985 l 7.4077,-0.87837 -8.56503,-0.23274 c -9.47461,-0.25746 -12.73286,2.53084 -7.54706,6.45798 3.36807,2.55028 2.99,2.49837 6.13217,0.84215 z"
     id="path1946" />
  <path
     style="fill:#ffffff"
     d="m 509.35141,150.67306 c -0.57361,-2.97946 -5.26554,-4.32461 -7.45325,-2.13689 -2.22768,2.22783 -5.7e-4,4.71247 4.22441,4.71247 2.74065,0 3.59391,-0.68053 3.22884,-2.57558 z"
     id="path1944" />
  <path
     style="fill:#ffffff"
     d="m 502.624,150.87209 c 0.49243,-0.49228 1.77028,-0.54491 2.8395,-0.11696 1.18177,0.47293 0.83075,0.82397 -0.8951,0.89506 -1.56173,0.0643 -2.43654,-0.28582 -1.9444,-0.7781 z"
     id="path1942" />
  <path
     style="fill:#ffffff"
     d="m 501.00631,139.95706 c -1.77514,-2.40144 -3.22782,-5.44213 -3.22782,-6.7571 0,-4.15888 -5.14043,-1.79421 -5.64903,2.59844 -0.3889,3.36481 0.4412,4.4459 5.18565,6.75488 3.10663,1.51192 5.93434,2.52868 6.28401,2.25948 0.34921,-0.26921 -0.81718,-2.45427 -2.59281,-4.8557 z"
     id="path1940" />
  <path
     style="fill:#ffffff"
     d="m 508.38342,138.80418 c 0.1291,-2.24074 0.13007,-5.27948 0.002,-6.75274 -0.12777,-1.47326 0.42565,-2.27199 1.23012,-1.77491 0.83731,0.51748 1.08509,-0.0789 0.58004,-1.39544 -0.4869,-1.2678 -0.10764,-2.29917 0.84501,-2.29917 0.94997,0 1.33351,-0.63753 0.85192,-1.41679 -1.47536,-2.38678 -5.12023,-0.0382 -4.11374,2.65054 0.77061,2.05842 0.54698,2.16354 -1.34078,0.63099 -1.24605,-1.01148 -2.73441,-1.37031 -3.30703,-0.79749 -0.5731,0.57288 0.47828,2.18816 2.33614,3.58954 1.86375,1.40558 2.79865,3.09161 2.08618,3.76042 -0.71045,0.66685 -1.566,0.44987 -1.90054,-0.48213 -0.33516,-0.93203 -1.87912,-1.36249 -3.43113,-0.9566 -2.72535,0.71265 -2.71356,0.88511 0.3495,5.02793 3.96736,5.36586 5.51218,5.42325 5.81222,0.21585 z"
     id="path1938" />
  <path
     style="fill:#ffffff"
     d="m 519.22185,138.50737 c 2.81179,-5.43712 2.93063,-13.96936 0.22571,-16.21407 -2.39664,-1.98938 -7.27767,-0.55743 -5.86863,1.72193 0.53284,0.86203 1.43552,3.62552 2.00578,6.14111 0.88896,3.91898 1.20655,4.17451 2.21963,1.78489 0.69423,-1.63714 0.47399,-3.92303 -0.53296,-5.53542 -2.36532,-3.78777 -2.14692,-4.98935 0.50709,-2.78685 3.0525,2.53325 2.78367,7.79889 -0.71556,14.02904 -1.61557,2.87665 -2.29953,5.23025 -1.51956,5.23025 0.77997,0 2.43525,-1.9669 3.6785,-4.37088 z"
     id="path1936" />
  <path
     style="fill:#ffffff"
     d="m 513.61103,131.37949 c -0.37081,-1.41643 -0.66088,0.0913 -0.64433,3.3506 0.0165,3.25926 0.32003,4.41817 0.67433,2.5753 0.35448,-1.84281 0.3409,-4.50946 -0.03,-5.9259 z"
     id="path1934" />
  <path
     style="fill:#ffffff"
     d="m 483.49932,131.76711 c 0.46869,-1.22221 0.49286,-2.22222 0.0525,-2.22222 -0.43975,0 -1.80002,1.00001 -3.0221,2.22222 -1.92731,1.92737 -1.93419,2.22225 -0.0528,2.22225 1.19334,0 2.55351,-1.00002 3.02242,-2.22225 z"
     id="path1929" />
</svg>
