<?xml version="1.0" encoding="UTF-8" standalone="no"?>
<svg
   xmlns:dc="http://purl.org/dc/elements/1.1/"
   xmlns:cc="http://creativecommons.org/ns#"
   xmlns:rdf="http://www.w3.org/1999/02/22-rdf-syntax-ns#"
   xmlns:svg="http://www.w3.org/2000/svg"
   xmlns="http://www.w3.org/2000/svg"
   xmlns:sodipodi="http://sodipodi.sourceforge.net/DTD/sodipodi-0.dtd"
   xmlns:inkscape="http://www.inkscape.org/namespaces/inkscape"
   width="300"
   height="200"
   id="svg2"
   sodipodi:version="0.32"
   inkscape:version="0.46"
   sodipodi:docname="raramuri.svg"
   inkscape:output_extension="org.inkscape.output.svg.inkscape"
   version="1.0">
  <metadata
     id="metadata31">
    <rdf:RDF>
      <cc:Work
         rdf:about="">
        <dc:format>image/svg+xml</dc:format>
        <dc:type
           rdf:resource="http://purl.org/dc/dcmitype/StillImage" />
      </cc:Work>
    </rdf:RDF>
  </metadata>
  <defs
     id="defs9">
    <inkscape:perspective
       sodipodi:type="inkscape:persp3d"
       inkscape:vp_x="0 : 100 : 1"
       inkscape:vp_y="0 : 1000 : 0"
       inkscape:vp_z="300 : 100 : 1"
       inkscape:persp3d-origin="150 : 66.666667 : 1"
       id="perspective33" />
  </defs>
  <sodipodi:namedview
     inkscape:window-height="729"
     inkscape:window-width="1280"
     inkscape:pageshadow="2"
     inkscape:pageopacity="0.0"
     guidetolerance="10.0"
     gridtolerance="10.0"
     objecttolerance="10.0"
     borderopacity="1.0"
     bordercolor="#666666"
     pagecolor="#ffffff"
     id="base"
     showgrid="false"
     inkscape:zoom="0.41053452"
     inkscape:cx="137.64378"
     inkscape:cy="107.29775"
     inkscape:window-x="0"
     inkscape:window-y="0"
     inkscape:current-layer="svg2" />
  <rect
     style="fill:#deaa87"
     id="rect2520"
     width="300"
     height="200"
     x="0"
     y="0" />
  <path
     style="fill:#800000;stroke:none"
     d="M 2.0599841e-17,150 L 2.0599841e-17,200 L 300,200 L 300,150 L 2.0599841e-17,150 z"
     id="path2396" />
  <path
     style="fill:#800000;stroke:none"
     d="M 0,-9.9999999e-07 L 0,49.999999 L 300,49.999999 L 300,-9.9999999e-07 L 0,-9.9999999e-07 z"
     id="path2424" />
  <path
     style="fill:#ff2a2a;stroke:none"
     d="M 104.78652,14.745717 C 108.09559,53.088136 141.5081,29.127307 167.9797,35.382907 C 182.82873,38.892167 196.95376,54.830046 213.09693,50.925353 C 223.8858,48.315826 232.5708,38.227697 240.20046,31.430667 C 202.25793,-22.981323 156.81076,27.465067 104.78652,14.745717 M 131.86933,43.944369 C 140.33766,78.479702 153.8434,96.853582 190.5487,106.5129 L 195.0625,77.314259 L 131.86933,43.944369 M 55.134757,98.170442 C 65.181557,115.47564 83.510291,119.61142 100.27272,130.66186 C 123.9738,146.28564 212.7656,236.14116 235.68666,169.08145 C 201.4748,152.62425 197.96713,108.40831 154.4383,114.85538 L 158.9521,156.56774 L 140.89693,110.68414 L 91.245124,106.5129 L 91.245124,102.34167 L 136.38313,98.170442 L 118.32793,52.286843 L 55.134757,98.170442 z"
     id="path6" />
</svg>
