<?xml version="1.0" encoding="UTF-8" standalone="no"?>
<!-- Created with Sodipodi ("http://www.sodipodi.com/") -->

<svg
   xmlns:dc="http://purl.org/dc/elements/1.1/"
   xmlns:cc="http://creativecommons.org/ns#"
   xmlns:rdf="http://www.w3.org/1999/02/22-rdf-syntax-ns#"
   xmlns:svg="http://www.w3.org/2000/svg"
   xmlns="http://www.w3.org/2000/svg"
   xmlns:sodipodi="http://sodipodi.sourceforge.net/DTD/sodipodi-0.dtd"
   xmlns:inkscape="http://www.inkscape.org/namespaces/inkscape"
   id="svg1234"
   sodipodi:version="0.33pre"
   width="210mm"
   height="140mm"
   sodipodi:docname="rwanda.svg"
   version="1.1"
   inkscape:version="0.47 r22583">
  <metadata
     id="metadata11">
    <rdf:RDF>
      <cc:Work
         rdf:about="">
        <dc:format>image/svg+xml</dc:format>
        <dc:type
           rdf:resource="http://purl.org/dc/dcmitype/StillImage" />
      </cc:Work>
    </rdf:RDF>
  </metadata>
  <defs
     id="defs1236">
    <inkscape:perspective
       sodipodi:type="inkscape:persp3d"
       inkscape:vp_x="0 : 248.03149 : 1"
       inkscape:vp_y="0 : 1000 : 0"
       inkscape:vp_z="744.09448 : 248.03149 : 1"
       inkscape:persp3d-origin="372.04724 : 165.35433 : 1"
       id="perspective13" />
  </defs>
  <sodipodi:namedview
     id="base"
     showgrid="true"
     snaptogrid="false"
     inkscape:zoom="0.95149207"
     inkscape:cx="364.31036"
     inkscape:cy="304.67792"
     inkscape:window-width="1047"
     inkscape:window-height="725"
     inkscape:window-x="355"
     inkscape:window-y="75"
     inkscape:window-maximized="0"
     inkscape:current-layer="svg1234" />
  <rect
     style="font-size:12;fill:#00a1de;fill-rule:evenodd;stroke-width:1pt;fill-opacity:1"
     id="rect1242"
     width="744.094482"
     height="248.031494"
     x="0.000000"
     y="-0.000008" />
  <rect
     style="font-size:12;fill:#20603d;fill-rule:evenodd;stroke-width:1pt;fill-opacity:1"
     id="rect1243"
     width="744.094482"
     height="124.015747"
     x="0.000000"
     y="372.047226" />
  <rect
     style="font-size:12;fill:#fad201;fill-rule:evenodd;stroke-width:1pt;fill-opacity:1"
     id="rect1244"
     width="744.094482"
     height="124.015762"
     x="0"
     y="248.031479" />
  <polygon
     sodipodi:type="star"
     style="font-size:12;fill:#fad201;fill-rule:evenodd;stroke-width:1pt;fill-opacity:1"
     id="polygon1249"
     sodipodi:sides="24"
     sodipodi:cx="608.229980"
     sodipodi:cy="123.189224"
     sodipodi:r1="80.8845978"
     sodipodi:r2="40.4422989"
     sodipodi:arg1="0.63274837"
     sodipodi:arg2="0.76364803"
     points="673.456,171.021 637.442,151.158 658.853,186.273 629.208,157.765 640.801,197.226 619.544,162.017 620.529,203.133 609.11,163.622 599.419,203.592 598.615,162.472 578.909,198.572 588.775,158.645 560.398,188.415 580.262,152.401 545.146,173.813 573.654,144.167 534.193,155.76 569.403,134.504 528.286,135.488 567.797,124.069 527.827,114.378 568.947,113.574 532.847,93.8686 572.774,103.735 543.004,75.357 579.018,95.2209 557.607,60.1052 587.252,88.6132 575.659,49.1525 596.916,84.3618 595.931,43.2452 607.35,82.7565 617.041,42.786 617.845,83.9066 637.551,47.8061 627.685,87.7337 656.062,57.9635 636.198,93.977 671.314,72.5658 642.806,102.211 682.267,90.6181 647.057,111.875 688.174,110.89 648.663,122.31 688.633,132 647.513,132.804 683.613,152.51 643.686,142.644 673.456,171.021 "
     transform="translate(2.174187,1.630615)" />
  <path
     sodipodi:type="arc"
     style="fill-rule:evenodd;stroke:none;fill:#00a1de;fill-opacity:1;stroke-opacity:1;stroke-width:1pt;stroke-linejoin:miter;stroke-linecap:butt"
     id="path1251"
     d="M 639.755859 123.189224 A 30.982269 30.982243 0 1 0 577.791260,123.189224 A 30.9823 30.9822 0 1 0 639.756 123.189 L 608.773560 123.189224 z"
     sodipodi:cx="608.773560"
     sodipodi:cy="123.189224"
     sodipodi:rx="30.982269"
     sodipodi:ry="30.982243"
     transform="matrix(1.012406,0.000000,0.000000,1.012406,-5.921838,0.102333)" />
  <path
     sodipodi:type="arc"
     style="fill-rule:evenodd;stroke:none;fill:#fad201;fill-opacity:1;stroke-opacity:1;stroke-width:1pt;stroke-linejoin:miter;stroke-linecap:butt"
     id="path1250"
     d="M 639.755859 123.189224 A 30.982269 30.982243 0 1 0 577.791260,123.189224 A 30.9823 30.9822 0 1 0 639.756 123.189 L 608.773560 123.189224 z"
     sodipodi:cx="608.773560"
     sodipodi:cy="123.189224"
     sodipodi:rx="30.982269"
     sodipodi:ry="30.982243"
     transform="matrix(0.813919,0.000000,0.000000,0.825781,114.9118,23.09256)" />
</svg>
