<?xml version="1.0" encoding="UTF-8" standalone="no"?>
<svg
   xmlns:dc="http://purl.org/dc/elements/1.1/"
   xmlns:cc="http://creativecommons.org/ns#"
   xmlns:rdf="http://www.w3.org/1999/02/22-rdf-syntax-ns#"
   xmlns:svg="http://www.w3.org/2000/svg"
   xmlns="http://www.w3.org/2000/svg"
   xmlns:sodipodi="http://sodipodi.sourceforge.net/DTD/sodipodi-0.dtd"
   xmlns:inkscape="http://www.inkscape.org/namespaces/inkscape"
   width="390"
   height="260">
  <rect
     width="390"
     height="260"
     id="rect4"
     x="0"
     y="0"
     style="fill:#cf001b" />
  <g
     id="#e7bc2aff"
     transform="matrix(1.25,0,0,1.25,0,-2.5)">
    <path
       d="m 201.35,9.32 c 1.79,-1.22 4.87,-2.37 6.39,-0.19 1.84,1.95 1.12,4.94 1.67,7.36 2.9,-1.42 5.7,-3.02 8.55,-4.53 2.37,1.81 4.96,3.27 7.58,4.68 -0.93,1.6 -1.92,3.15 -2.96,4.67 0.24,1.93 0.43,3.86 0.62,5.79 -3.64,1.74 -7.67,2.02 -11.56,2.74 3.02,2.44 6.19,4.85 8.4,8.09 -0.79,5.4 -6.67,6.89 -11.13,8.05 -5.16,-0.48 -9.65,-3.65 -14.79,-4.38 -0.03,0.79 -0.1,2.37 -0.13,3.16 4.95,2.52 9.82,6.1 12.09,11.33 -0.9,4.81 -6.85,5.63 -10.84,4.74 -5.79,-1.67 -10.85,-5.14 -15.99,-8.17 -2.15,-1.45 -4.67,0.22 -6.89,0.63 2.84,3.56 6.24,6.63 8.89,10.34 -0.57,1.2 -1.14,2.4 -1.7,3.6 -2.56,-0.22 -5.13,-0.46 -7.61,-1.19 -4.88,-1.29 -8.66,-4.95 -13.38,-6.62 -2.21,-0.57 -4.52,-0.45 -6.78,-0.57 -0.21,1.63 -0.34,3.31 -1.04,4.82 -4.76,2.54 -10.37,2.63 -15.26,4.82 -2.96,1.59 -5.62,3.67 -8.2,5.81 -2.11,1.58 -2.41,4.34 -3.28,6.65 3.08,2.13 6.21,4.72 10.11,5.01 9.7,-0.6 19.39,-2.35 29.14,-1.81 0.52,5.12 -3.55,8.71 -4.57,13.42 8.46,2.57 13.49,-7.02 21.41,-7.52 3.35,-0.07 7.79,-1.11 9.83,2.36 0.48,5.04 -3.78,9.19 -7.62,11.86 -1.58,1.49 -4.46,2.31 -4.5,4.84 -0.11,1.48 0.16,2.97 0.68,4.35 6.54,2.32 12.67,-1.76 18.91,-3.08 4.95,-1.07 10.05,-3.34 15.16,-2.04 1.84,1.22 1.49,3.93 2.46,5.75 1.92,1.51 4.25,2.48 5.92,4.32 0.21,1.36 0.19,2.78 -0.19,4.11 -4.01,3.48 -9.15,5.69 -14.5,5.78 -2.96,0.07 -4.68,2.58 -5.77,5.01 7.01,1.46 15.41,-0.13 21.09,5.16 2.48,2.44 5.33,5.44 4.47,9.25 -2.53,1.81 -5.61,2.56 -8.39,3.87 2.62,1.95 6.3,2.82 7.94,5.84 0.72,3.16 1.08,6.38 1.58,9.58 -2.42,-0.13 -4.95,-1.04 -7.3,-0.07 -1.88,0.57 -4.12,1.8 -5.78,0.06 -2.74,-2.7 -4.64,-6.17 -7.55,-8.73 -1.6,3.74 -0.49,8.87 -3.92,11.62 -1.69,0.28 -3.47,0.33 -5.12,-0.14 -3,-2.4 -5.69,-5.28 -7.63,-8.61 -3.07,-6.07 -2.81,-13.06 -3.13,-19.67 -1.17,-0.21 -2.35,-0.42 -3.52,-0.61 -1.51,8.34 -3.36,18.55 -11.79,22.65 -2.44,-4.69 -5.51,-9.28 -6.35,-14.6 -0.62,-7.35 1.62,-14.58 0.94,-21.95 -0.69,0.02 -2.08,0.06 -2.78,0.08 -2.32,3.75 -4.67,7.62 -8.25,10.31 -1.58,-1.47 -2.83,-3.23 -4.1,-4.95 -4.72,2.46 -10.11,2.56 -15.21,3.57 -0.31,4.17 2.26,7.81 6.18,9.14 6.87,2.94 15.44,7.22 15.53,15.86 -5.58,2 -11.31,-0.5 -17.02,0.09 1.34,4.51 5.69,6.68 8.64,9.92 2.71,3.58 5.98,9.28 1.66,12.97 -4.45,1.02 -8.01,-2.43 -12.12,-3.37 2.01,4.16 6.45,7.94 5.34,13 -1.39,1.88 -3.47,3.04 -5.49,4.1 -0.48,2.3 -1.04,4.58 -1.67,6.85 -1.97,-0.59 -4.13,-1.05 -5.54,-2.68 -2.92,-2.37 -2.05,-6.45 -2.78,-9.72 -2.56,0.92 -5.19,2.35 -8.01,1.8 -2.34,-1.8 -3.89,-5.24 -2.55,-8.07 1.5,-4.04 4.08,-7.67 4.63,-12.04 -3.68,1.7 -7.28,3.56 -10.85,5.48 -1.14,-1.23 -2.33,-2.42 -3.31,-3.79 -1.38,-4.81 0.66,-9.84 3.48,-13.71 3.03,-3.23 7.73,-5.17 8.81,-9.9 -3.12,0.01 -6.2,0.52 -9.13,1.58 -3.31,1.15 -6.8,0.27 -10.03,-0.68 1.63,-4.14 3.87,-8.16 7.05,-11.31 4.33,-2.95 9.17,-5.05 13.68,-7.7 -0.19,-1.91 -0.41,-3.83 -0.67,-5.73 -4.43,0.58 -9.12,1.62 -13.05,-1.24 2.08,-5.05 6.53,-8.43 11.54,-10.29 0.02,-1.04 0.04,-2.08 0.06,-3.12 -1.55,-0.69 -3.09,-1.39 -4.63,-2.09 2.7,-5.71 6.51,-11.06 7.52,-17.43 0.53,-4.17 -0.52,-8.28 -1.38,-12.33 -11.01,-4.73 -23.41,-7.08 -35.29,-4.71 -0.29,1.82 -0.61,3.64 -0.95,5.46 -1.54,-0.61 -4.24,-0.24 -4.35,-2.48 -0.35,-3.17 2.37,-5.45 4.08,-7.77 6.19,1.28 12.52,2.32 18.86,1.78 6.25,-0.67 12.34,3.63 18.53,1.72 3.93,-3.43 9.27,-5.56 11.78,-10.36 1.59,-3.25 1.34,-7.02 2.48,-10.4 0.92,-1.54 2.99,-0.98 4.47,-1.34 -0.78,-4.29 -1.73,-8.73 -0.1,-12.96 2.84,0.43 5.73,1.67 6.83,4.54 1.29,1.72 1.32,5.16 4.01,5.14 3.33,-6.14 -1.8,-12.67 -1.72,-19 0.61,-2.86 1.95,-5.49 3.07,-8.17 1.21,-0.02 2.42,-0.03 3.63,-0.05 3.67,5.31 4.91,11.72 7.36,17.59 1.53,-1.98 3.77,-3.89 3.72,-6.61 0.27,-5.84 -1.59,-12.57 2.59,-17.49 0.64,-1.75 2.59,-1.51 4.1,-1.46 1.63,2.67 2.63,5.66 3.99,8.46 2.47,-4.71 3.22,-12.68 10.12,-12.55 2.6,3.56 1.4,8.52 4.11,12.01 3.36,-4.21 3.65,-10.53 8.47,-13.59 m -77.47,74.15 c 0.69,4.55 0.68,9.45 3.16,13.49 2.41,4.03 4.35,8.48 8.05,11.56 -0.76,-5.65 -0.96,-11.46 -2.64,-16.95 -1.04,-4.12 -4.94,-6.49 -8.57,-8.1 m 16.69,31.09 c -2.16,0.36 -4.38,0.13 -6.53,0.54 -2.64,0.19 -3.01,4.66 -0.72,5.55 4.99,2.71 11.21,2.42 15.68,6.29 -0.51,-5.9 1.76,-11.88 -0.38,-17.62 -2.85,1.5 -5.1,3.94 -8.05,5.24 z"
       id="path12"
       connector-curvature="0"
       style="fill:#e7bc2a"
       inkscape:connector-curvature="0" />
    <path
       d="m 122.4,35.52 c 1.32,-1.69 2.88,-3.17 4.34,-4.74 1.07,0.53 2.14,1.05 3.21,1.57 0.04,1.66 0.08,3.33 0.12,4.99 1.35,0.63 2.73,1.23 3.98,2.05 0.32,4.75 -3.72,8.13 -6.27,11.66 2.02,1.1 3.99,2.31 5.86,3.67 -2.67,3.37 -5.94,6.16 -9.59,8.43 0.46,1.96 0.86,3.93 1.23,5.9 -5.06,1.88 -10.49,1.77 -15.71,2.87 0.59,-4.02 -1.06,-7.83 -1.89,-11.69 0.84,-0.07 2.52,-0.21 3.35,-0.28 -2.21,-3.05 -3.49,-6.58 -3.2,-10.4 3.32,0.52 6.31,2.06 9.15,3.79 -1.52,-2.65 -3.24,-5.31 -3.8,-8.36 0.15,-1.8 0.61,-3.55 0.95,-5.32 2.55,0.84 5.06,1.8 7.61,2.65 0.19,-2.26 0.12,-4.57 0.66,-6.79 z"
       id="path14"
       connector-curvature="0"
       style="fill:#e7bc2a"
       inkscape:connector-curvature="0" />
  </g>
</svg>
