<?xml version="1.0" encoding="UTF-8" standalone="no"?>
<!-- Created with Inkscape (http://www.inkscape.org/) -->
<svg
   xmlns:dc="http://purl.org/dc/elements/1.1/"
   xmlns:cc="http://creativecommons.org/ns#"
   xmlns:rdf="http://www.w3.org/1999/02/22-rdf-syntax-ns#"
   xmlns:svg="http://www.w3.org/2000/svg"
   xmlns="http://www.w3.org/2000/svg"
   xmlns:sodipodi="http://sodipodi.sourceforge.net/DTD/sodipodi-0.dtd"
   xmlns:inkscape="http://www.inkscape.org/namespaces/inkscape"
   version="1.0"
   width="900"
   height="600"
   id="svg3381"
   sodipodi:version="0.32"
   inkscape:version="0.46dev+devel"
   sodipodi:docname="Flag_of_the_Kingdom_of_Sicily.svg"
   inkscape:output_extension="org.inkscape.output.svg.inkscape">
  <metadata
     id="metadata14">
    <rdf:RDF>
      <cc:Work
         rdf:about="">
        <dc:format>image/svg+xml</dc:format>
        <dc:type
           rdf:resource="http://purl.org/dc/dcmitype/StillImage" />
      </cc:Work>
    </rdf:RDF>
  </metadata>
  <sodipodi:namedview
     inkscape:window-height="1003"
     inkscape:window-width="1280"
     inkscape:pageshadow="2"
     inkscape:pageopacity="0.0"
     guidetolerance="10.0"
     gridtolerance="10.0"
     objecttolerance="10.0"
     borderopacity="1.0"
     bordercolor="#666666"
     pagecolor="#ffffff"
     id="base"
     showgrid="false"
     inkscape:showpageshadow="false"
     inkscape:zoom="0.60444444"
     inkscape:cx="517.05722"
     inkscape:cy="204.9778"
     inkscape:window-x="-4"
     inkscape:window-y="-4"
     inkscape:current-layer="svg3381" />
  <defs
     id="defs3383" />
  <rect
     id="rect2238"
     style="fill:#ffc320;fill-opacity:1;stroke:none;stroke-width:20;stroke-miterlimit:4;stroke-dasharray:none;stroke-opacity:1"
     y="2.6171874e-06"
     x="0"
     height="600"
     width="900" />
  <path
     style="fill:#de0000;fill-opacity:1;stroke:none;stroke-width:20;stroke-miterlimit:4;stroke-dasharray:none;stroke-opacity:1"
     d="M 100 0 L 100 600 L 200 600 L 200 0 L 100 0 z M 300 0 L 300 600 L 400 600 L 400 0 L 300 0 z M 500 0 L 500 600 L 600 600 L 600 0 L 500 0 z M 700 0 L 700 600 L 800 600 L 800 0 L 700 0 z "
     id="rect5075" />
  <path
     id="path8971"
     style="fill:#ffffff;fill-opacity:1;fill-rule:evenodd;stroke:none;stroke-width:1px;stroke-linecap:butt;stroke-linejoin:miter;stroke-opacity:1"
     d="M 0,0 L 900,600 L 900,0 L 0,600 L 0,0 z" />
  <g
     id="g5898"
     transform="matrix(3.7350006,0,0,3.7350006,-394.11912,1090.2777)">
    <path
       d=""
       id="path5900" />
  </g>
  <g
     id="g5902"
     transform="matrix(3.7350006,0,0,3.7350006,-394.11912,1090.2777)">
    <path
       d=""
       id="path5905" />
  </g>
  <g
     id="g6156"
     transform="matrix(3.7350006,0,0,3.7350006,6852.1154,7162.3915)">
    <path
       d=""
       id="path6158" />
  </g>
  <g
     id="g6160"
     transform="matrix(3.7350006,0,0,3.7350006,6852.1154,7162.3915)">
    <path
       d=""
       id="path6162" />
  </g>
  <g
     transform="matrix(3.142177,0,0,3.142177,8196.3491,3932.1758)"
     id="g6183" />
  <g
     style="fill:#00ff00"
     transform="matrix(3.142177,0,0,3.142177,8196.3491,3932.1758)"
     id="g6187" />
  <g
     transform="matrix(2.8437229,-1.8929196,1.8929196,2.8437229,3506.5697,8260.537)"
     id="g6191" />
  <g
     style="fill:#00ff00"
     transform="matrix(2.8437229,-1.8929196,1.8929196,2.8437229,3506.5697,8260.537)"
     id="g6195" />
  <g
     transform="matrix(2.8437229,-1.8929196,1.8929196,2.8437229,3514.3576,8377.095)"
     id="g6199" />
  <g
     style="fill:#00ff00"
     transform="matrix(2.8437229,-1.8929196,1.8929196,2.8437229,3514.3576,8377.095)"
     id="g6203" />
  <g
     transform="matrix(2.817901,0,0,2.817901,-973.91025,3708.9516)"
     id="g6207" />
  <g
     style="fill:#00ff00"
     transform="matrix(2.817901,0,0,2.817901,-973.91025,3708.9516)"
     id="g6211" />
  <g
     transform="matrix(2.817901,0,0,2.817901,6348.279,6961.8265)"
     id="g6215" />
  <g
     style="fill:#00ff00"
     transform="matrix(2.817901,0,0,2.817901,6348.279,6961.8265)"
     id="g6219" />
  <g
     transform="matrix(3.1199562,0,0,3.1199562,8200.3574,3939.1748)"
     id="g6223" />
  <g
     style="fill:#00ff00"
     transform="matrix(3.1199562,0,0,3.1199562,8200.3574,3939.1748)"
     id="g6227" />
  <g
     transform="matrix(2.8437229,-1.8929196,1.8929196,2.8437229,3241.9035,7644.6651)"
     id="g6231" />
  <g
     style="fill:#00ff00"
     transform="matrix(2.8437229,-1.8929196,1.8929196,2.8437229,3241.9035,7644.6651)"
     id="g6235" />
  <g
     transform="matrix(2.8437229,-1.8929196,1.8929196,2.8437229,3249.6914,7761.2231)"
     id="g6239" />
  <g
     style="fill:#00ff00"
     transform="matrix(2.8437229,-1.8929196,1.8929196,2.8437229,3249.6914,7761.2231)"
     id="g6243" />
  <g
     transform="matrix(2.817901,0,0,2.817901,-1238.5764,3093.0797)"
     id="g6247" />
  <g
     style="fill:#00ff00"
     transform="matrix(2.817901,0,0,2.817901,-1238.5764,3093.0797)"
     id="g6251" />
  <g
     transform="matrix(2.817901,0,0,2.817901,6083.6127,6345.9546)"
     id="g6255" />
  <g
     style="fill:#00ff00"
     transform="matrix(2.817901,0,0,2.817901,6083.6127,6345.9546)"
     id="g6259" />
  <g
     transform="matrix(1.1360234,0,0,1.1360234,7966.6776,7462.4782)"
     id="g6263" />
  <g
     style="fill:#00ff00"
     transform="matrix(1.1360234,0,0,1.1360234,7966.6776,7462.4782)"
     id="g6267" />
  <g
     transform="matrix(1.1360234,0,0,1.1360234,7947.3559,7496.1801)"
     id="g6271" />
  <g
     style="fill:#00ff00"
     transform="matrix(1.1360234,0,0,1.1360234,7947.3559,7496.1801)"
     id="g6275" />
  <g
     id="g6399"
     transform="matrix(3.7350006,0,0,3.7350006,-6550.7941,2152.4365)">
    <path
       d=""
       id="path6401" />
  </g>
  <g
     id="g6403"
     transform="matrix(3.7350006,0,0,3.7350006,-6550.7941,2152.4365)">
    <path
       d=""
       id="path6405" />
  </g>
  <g
     id="g6425"
     transform="matrix(3.7350006,0,0,3.7350006,-10036.466,1674.7043)">
    <path
       d=""
       id="path6427" />
  </g>
  <g
     id="g6429"
     transform="matrix(3.7350006,0,0,3.7350006,-10036.466,1674.7043)">
    <path
       d=""
       id="path6431" />
  </g>
  <g
     id="g6843"
     transform="matrix(3.7350006,0,0,3.7350006,-6492.4039,2785.4461)">
    <path
       d=""
       id="path6845" />
  </g>
  <g
     id="g6847"
     transform="matrix(3.7350006,0,0,3.7350006,-6492.4039,2785.4461)">
    <path
       d=""
       id="path6849" />
  </g>
  <g
     transform="matrix(3.142177,0,0,3.142177,-5148.1708,-444.76954)"
     id="g6881" />
  <g
     style="fill:#00ff00"
     transform="matrix(3.142177,0,0,3.142177,-5148.1708,-444.76954)"
     id="g6885" />
  <g
     transform="matrix(2.8437229,-1.8929196,1.8929196,2.8437229,-9837.9496,3883.5919)"
     id="g6889" />
  <g
     style="fill:#00ff00"
     transform="matrix(2.8437229,-1.8929196,1.8929196,2.8437229,-9837.9496,3883.5919)"
     id="g6893" />
  <g
     transform="matrix(2.8437229,-1.8929196,1.8929196,2.8437229,-9830.1617,4000.1505)"
     id="g6897" />
  <g
     style="fill:#00ff00"
     transform="matrix(2.8437229,-1.8929196,1.8929196,2.8437229,-9830.1617,4000.1505)"
     id="g6901" />
  <g
     transform="matrix(2.817901,0,0,2.817901,-14318.429,-667.99375)"
     id="g6905" />
  <g
     style="fill:#00ff00"
     transform="matrix(2.817901,0,0,2.817901,-14318.429,-667.99375)"
     id="g6909" />
  <g
     transform="matrix(2.817901,0,0,2.817901,-6996.2403,2584.8812)"
     id="g6913" />
  <g
     style="fill:#00ff00"
     transform="matrix(2.817901,0,0,2.817901,-6996.2403,2584.8812)"
     id="g6917" />
  <g
     transform="matrix(3.1199562,0,0,3.1199562,-5144.1621,-437.77052)"
     id="g6921" />
  <g
     style="fill:#00ff00"
     transform="matrix(3.1199562,0,0,3.1199562,-5144.1621,-437.77052)"
     id="g6925" />
  <g
     transform="matrix(2.8437229,-1.8929196,1.8929196,2.8437229,-10102.616,3267.72)"
     id="g6929" />
  <g
     style="fill:#00ff00"
     transform="matrix(2.8437229,-1.8929196,1.8929196,2.8437229,-10102.616,3267.72)"
     id="g6933" />
  <g
     transform="matrix(2.8437229,-1.8929196,1.8929196,2.8437229,-10094.828,3384.2785)"
     id="g6937" />
  <g
     style="fill:#00ff00"
     transform="matrix(2.8437229,-1.8929196,1.8929196,2.8437229,-10094.828,3384.2785)"
     id="g6941" />
  <g
     transform="matrix(2.817901,0,0,2.817901,-14583.096,-1283.8657)"
     id="g6945" />
  <g
     style="fill:#00ff00"
     transform="matrix(2.817901,0,0,2.817901,-14583.096,-1283.8657)"
     id="g6949" />
  <g
     transform="matrix(2.817901,0,0,2.817901,-7260.9066,1969.0093)"
     id="g6953" />
  <g
     style="fill:#00ff00"
     transform="matrix(2.817901,0,0,2.817901,-7260.9066,1969.0093)"
     id="g6957" />
  <g
     transform="matrix(1.1360234,0,0,1.1360234,-5377.842,3085.5336)"
     id="g6961" />
  <g
     style="fill:#00ff00"
     transform="matrix(1.1360234,0,0,1.1360234,-5377.842,3085.5336)"
     id="g6965" />
  <g
     transform="matrix(1.1360234,0,0,1.1360234,-5397.1643,3119.235)"
     id="g6969" />
  <g
     style="fill:#00ff00"
     transform="matrix(1.1360234,0,0,1.1360234,-5397.1643,3119.235)"
     id="g6973" />
  <g
     id="g4167"
     transform="matrix(3.7350006,0,0,3.7350006,-390.28961,1089.1959)">
    <path
       d=""
       id="path4169" />
  </g>
  <g
     id="g4171"
     transform="matrix(3.7350006,0,0,3.7350006,-390.28961,1089.1959)">
    <path
       d=""
       id="path4173" />
  </g>
  <g
     id="g4916"
     transform="matrix(3.7350006,0,0,3.7350006,6855.9449,7161.3097)">
    <path
       d=""
       id="path4918" />
  </g>
  <g
     id="g4920"
     transform="matrix(3.7350006,0,0,3.7350006,6855.9449,7161.3097)">
    <path
       d=""
       id="path4922" />
  </g>
  <g
     transform="matrix(3.142177,0,0,3.142177,8200.1782,3931.0941)"
     id="g10953" />
  <g
     style="fill:#00ff00"
     transform="matrix(3.142177,0,0,3.142177,8200.1782,3931.0941)"
     id="g10973" />
  <g
     transform="matrix(2.8437229,-1.8929196,1.8929196,2.8437229,3510.3992,8259.4557)"
     id="g10190" />
  <g
     style="fill:#00ff00"
     transform="matrix(2.8437229,-1.8929196,1.8929196,2.8437229,3510.3992,8259.4557)"
     id="g10194" />
  <g
     transform="matrix(2.8437229,-1.8929196,1.8929196,2.8437229,3518.1872,8376.0137)"
     id="g19672" />
  <g
     style="fill:#00ff00"
     transform="matrix(2.8437229,-1.8929196,1.8929196,2.8437229,3518.1872,8376.0137)"
     id="g19676" />
  <g
     transform="matrix(2.817901,0,0,2.817901,-970.08074,3707.8699)"
     id="g4739" />
  <g
     style="fill:#00ff00"
     transform="matrix(2.817901,0,0,2.817901,-970.08074,3707.8699)"
     id="g4743" />
  <g
     transform="matrix(2.817901,0,0,2.817901,6352.1085,6960.7448)"
     id="g5674" />
  <g
     style="fill:#00ff00"
     transform="matrix(2.817901,0,0,2.817901,6352.1085,6960.7448)"
     id="g5678" />
  <g
     transform="matrix(3.1199562,0,0,3.1199562,8204.1865,3938.0931)"
     id="g3802" />
  <g
     style="fill:#00ff00"
     transform="matrix(3.1199562,0,0,3.1199562,8204.1865,3938.0931)"
     id="g3806" />
  <g
     transform="matrix(2.8437229,-1.8929196,1.8929196,2.8437229,3245.733,7643.5838)"
     id="g7856" />
  <g
     style="fill:#00ff00"
     transform="matrix(2.8437229,-1.8929196,1.8929196,2.8437229,3245.733,7643.5838)"
     id="g7860" />
  <g
     transform="matrix(2.8437229,-1.8929196,1.8929196,2.8437229,3253.5209,7760.1418)"
     id="g7864" />
  <g
     style="fill:#00ff00"
     transform="matrix(2.8437229,-1.8929196,1.8929196,2.8437229,3253.5209,7760.1418)"
     id="g7868" />
  <g
     transform="matrix(2.817901,0,0,2.817901,-1234.7469,3091.998)"
     id="g7872" />
  <g
     style="fill:#00ff00"
     transform="matrix(2.817901,0,0,2.817901,-1234.7469,3091.998)"
     id="g7876" />
  <g
     transform="matrix(2.817901,0,0,2.817901,6087.4422,6344.8729)"
     id="g7880" />
  <g
     style="fill:#00ff00"
     transform="matrix(2.817901,0,0,2.817901,6087.4422,6344.8729)"
     id="g7884" />
  <g
     transform="matrix(1.1360234,0,0,1.1360234,7970.5067,7461.397)"
     id="g12516" />
  <g
     style="fill:#00ff00"
     transform="matrix(1.1360234,0,0,1.1360234,7970.5067,7461.397)"
     id="g12520" />
  <g
     transform="matrix(1.1360234,0,0,1.1360234,7951.185,7495.0988)"
     id="g12524" />
  <g
     style="fill:#00ff00"
     transform="matrix(1.1360234,0,0,1.1360234,7951.185,7495.0988)"
     id="g12528" />
  <g
     id="g7252"
     transform="matrix(3.7350006,0,0,3.7350006,-6546.9645,2151.3548)">
    <path
       d=""
       id="path7254" />
  </g>
  <g
     id="g7256"
     transform="matrix(3.7350006,0,0,3.7350006,-6546.9645,2151.3548)">
    <path
       d=""
       id="path7258" />
  </g>
  <g
     id="g6018"
     transform="matrix(16.346569,0,0,10.825653,-1209.8218,-1254.5776)" />
  <g
     id="g9261"
     transform="matrix(3.7350006,0,0,3.7350006,-10032.637,1673.6226)">
    <path
       d=""
       id="path9263" />
  </g>
  <g
     id="g9265"
     transform="matrix(3.7350006,0,0,3.7350006,-10032.637,1673.6226)">
    <path
       d=""
       id="path9267" />
  </g>
  <g
     id="g10872"
     transform="matrix(3.7350006,0,0,3.7350006,-7708.0061,2112.3005)">
    <path
       d=""
       id="path10874" />
  </g>
  <g
     id="g10876"
     transform="matrix(3.7350006,0,0,3.7350006,-7708.0061,2112.3005)">
    <path
       d=""
       id="path10878" />
  </g>
  <g
     transform="matrix(3.142177,0,0,3.142177,-6363.7731,-1117.9152)"
     id="g10910" />
  <g
     style="fill:#00ff00"
     transform="matrix(3.142177,0,0,3.142177,-6363.7731,-1117.9152)"
     id="g10914" />
  <g
     transform="matrix(2.8437229,-1.8929196,1.8929196,2.8437229,-11053.552,3210.4463)"
     id="g10918" />
  <g
     style="fill:#00ff00"
     transform="matrix(2.8437229,-1.8929196,1.8929196,2.8437229,-11053.552,3210.4463)"
     id="g10922" />
  <g
     transform="matrix(2.8437229,-1.8929196,1.8929196,2.8437229,-11045.764,3327.0048)"
     id="g10926" />
  <g
     style="fill:#00ff00"
     transform="matrix(2.8437229,-1.8929196,1.8929196,2.8437229,-11045.764,3327.0048)"
     id="g10930" />
  <g
     transform="matrix(2.817901,0,0,2.817901,-15534.032,-1341.1394)"
     id="g10934" />
  <g
     style="fill:#00ff00"
     transform="matrix(2.817901,0,0,2.817901,-15534.032,-1341.1394)"
     id="g10938" />
  <g
     transform="matrix(2.817901,0,0,2.817901,-8211.8426,1911.7355)"
     id="g10942" />
  <g
     style="fill:#00ff00"
     transform="matrix(2.817901,0,0,2.817901,-8211.8426,1911.7355)"
     id="g10946" />
  <g
     transform="matrix(3.1199562,0,0,3.1199562,-6359.7643,-1110.9162)"
     id="g10950" />
  <g
     style="fill:#00ff00"
     transform="matrix(3.1199562,0,0,3.1199562,-6359.7643,-1110.9162)"
     id="g10954" />
  <g
     transform="matrix(2.8437229,-1.8929196,1.8929196,2.8437229,-11318.219,2594.5743)"
     id="g10958" />
  <g
     style="fill:#00ff00"
     transform="matrix(2.8437229,-1.8929196,1.8929196,2.8437229,-11318.219,2594.5743)"
     id="g10962" />
  <g
     transform="matrix(2.8437229,-1.8929196,1.8929196,2.8437229,-11310.43,2711.1328)"
     id="g10966" />
  <g
     style="fill:#00ff00"
     transform="matrix(2.8437229,-1.8929196,1.8929196,2.8437229,-11310.43,2711.1328)"
     id="g10970" />
  <g
     transform="matrix(2.817901,0,0,2.817901,-15798.699,-1957.0113)"
     id="g10974" />
  <g
     style="fill:#00ff00"
     transform="matrix(2.817901,0,0,2.817901,-15798.699,-1957.0113)"
     id="g10978" />
  <g
     transform="matrix(2.817901,0,0,2.817901,-8476.5089,1295.8636)"
     id="g10982" />
  <g
     style="fill:#00ff00"
     transform="matrix(2.817901,0,0,2.817901,-8476.5089,1295.8636)"
     id="g10986" />
  <g
     transform="matrix(1.1360234,0,0,1.1360234,-6593.4443,2412.3879)"
     id="g10990" />
  <g
     style="fill:#00ff00"
     transform="matrix(1.1360234,0,0,1.1360234,-6593.4443,2412.3879)"
     id="g10994" />
  <g
     transform="matrix(1.1360234,0,0,1.1360234,-6612.7665,2446.0893)"
     id="g10998" />
  <g
     style="fill:#00ff00"
     transform="matrix(1.1360234,0,0,1.1360234,-6612.7665,2446.0893)"
     id="g11002" />
  <g
     id="g4131"
     transform="translate(5.3986605,0)">
    <path
       id="path4127"
       d="M 789.09375,330.84375 L 779.8125,339.125 C 782.68949,341.31179 781.26771,346.96686 784.40625,347.84375 C 791.51701,349.48926 799.24412,348.95872 804.6875,354.1875 C 803.59228,355.59484 802.49665,354.05067 801.15625,353.8125 C 799.83218,353.54187 799.11877,354.48305 797.84375,354.65625 C 798.41588,355.84708 797.04715,355.14356 796.6875,356.03125 C 796.475,357.33034 796.18658,358.64681 795.5,360 C 794.40478,361.40735 795.3615,365.49451 797.4375,364.8125 C 798.22214,364.3037 797.47259,361.83069 799.15625,361.625 C 800.02262,361.52758 801.51873,363.04944 803.21875,362.84375 C 803.64376,362.80045 803.54375,361.94955 803.96875,361.90625 C 806.14285,362.05782 807.8476,361.85834 808.46875,360.09375 C 809.40051,360.38605 810.25864,360.69117 811.125,360.59375 C 811.05961,360.16073 811.01248,359.76207 811.4375,359.71875 C 811.87886,359.6538 812.32595,359.59822 812.375,360.03125 C 812.45673,360.85401 812.58603,361.66563 813.46875,361.96875 C 815.72458,362.54252 816.3899,361.1937 817.46875,359.375 C 818.44954,360.11116 820.19804,360.32887 821.375,359.34375 C 822.12694,358.82413 821.94755,360.51451 822.78125,360.40625 C 823.64761,360.30883 824.43076,359.80982 824.9375,360.15625 C 826.00003,361.72598 827.23701,361.14131 828.59375,361.8125 C 828.65913,362.23471 828.83843,363.47568 829.3125,363.84375 C 831.53563,364.41752 834.10712,364.08759 836.28125,364.25 C 838.06302,364.86707 837.94378,366.98909 838.15625,368.65625 C 838.58126,368.60213 839.43752,368.50001 839.4375,368.5 C 840.00963,366.32406 841.4318,364.02908 839.4375,362.15625 C 841.23562,359.41737 837.94284,357.25989 836.40625,355.34375 C 834.88602,353.839 832.76495,354.13562 830.65625,354.40625 C 830.23124,354.46039 829.25769,353.7202 828.375,353.40625 C 827.94999,353.47122 827.08128,353.58171 826.65625,353.625 C 826.24758,353.67914 826.14519,353.27432 825.6875,352.90625 C 826.91349,352.3325 828.09996,351.32945 829.375,351.15625 C 829.80001,351.11295 829.58604,349.46729 830.46875,349.78125 C 830.91011,349.73796 830.95096,350.15114 831,350.5625 C 833.51737,349.8372 835.85048,347.83734 836.40625,345.25 C 836.71684,344.36231 836.44128,342.29943 838.125,342.09375 C 838.99137,341.98551 840.89278,343.41138 840.84375,343 C 841.77551,340.34773 838.89527,338.19117 836.3125,338.09375 C 833.27204,338.03963 829.88276,338.43719 827.9375,340.375 C 826.38458,341.40344 825.71732,343.21254 824.6875,345.03125 C 824.32788,345.49676 821.94473,347.47452 821.78125,346.21875 C 821.20912,345.03876 821.53315,344.15813 821.84375,343.28125 C 822.48127,341.50585 822.17023,338.98801 821.5,337.375 C 820.92787,336.18419 818.36636,336.52296 818.5625,334.8125 C 818.85674,333.51343 820.91538,332.83438 820,332.53125 C 817.22108,331.17805 814.12785,333.68041 814.0625,336.625 C 814.19327,337.46941 812.4683,337.67481 812.125,338.5625 C 812.53366,341.46379 812.43409,343.98579 813.21875,346.84375 C 813.7255,347.21183 812.05001,347.86294 811.625,347.90625 C 810.4317,348.48002 808.57549,347.85869 807.21875,347.1875 C 803.14845,345.99668 798.2876,344.91579 795.3125,341.90625 C 794.80576,341.54901 794.20772,340.36808 793.75,340 C 790.05567,338.34368 789.09376,334.22135 789.09375,330.84375 z M 720.46875,331.75 C 720.46877,335.12762 719.50538,339.19825 715.84375,340.84375 C 715.33698,341.21183 714.78655,342.41318 714.3125,342.78125 C 711.32111,345.77996 706.4126,346.89333 702.375,348.0625 C 700.98556,348.74453 699.16205,349.35501 697.96875,348.78125 C 697.56011,348.7163 695.88605,348.08682 696.34375,347.71875 C 697.12838,344.86078 697.07788,342.30752 697.4375,339.40625 C 697.12692,338.51856 695.41683,338.32275 695.53125,337.5 C 695.48219,334.53379 692.34142,332.04345 689.5625,333.375 C 688.64707,333.68896 690.73846,334.35717 691,335.65625 C 691.19615,337.36672 688.65098,337.05918 688.0625,338.25 C 687.44133,339.8522 687.07979,342.36042 687.75,344.125 C 688.0606,345.01271 688.38608,345.8921 687.78125,347.09375 C 687.63414,348.34952 685.29712,346.32968 684.9375,345.875 C 683.85864,344.0563 683.21062,342.30009 681.625,341.25 C 679.7288,339.33388 676.32171,338.92544 673.28125,338.96875 C 670.66579,339.0662 667.80046,341.21189 668.78125,343.875 C 668.71585,344.28638 670.63363,342.81841 671.5,342.9375 C 673.18372,343.14318 672.93942,345.24812 673.25,346.125 C 673.8058,348.72317 676.10907,350.69053 678.59375,351.4375 C 678.65913,351.02613 678.69855,350.60212 679.15625,350.65625 C 680.03896,350.35315 679.82499,352.0192 680.25,352.0625 C 681.54138,352.22489 682.68026,353.20749 683.90625,353.78125 C 683.4322,354.14932 683.34472,354.5433 682.96875,354.5 C 682.49472,354.45671 681.68992,354.37745 681.28125,354.3125 C 680.34948,354.61563 679.42646,355.3462 678.96875,355.28125 C 676.8437,355.01061 674.70629,354.74523 673.21875,356.25 C 671.6658,358.16616 668.35957,360.29236 670.125,363.03125 C 668.17976,364.9041 669.61537,367.18822 670.1875,369.375 C 670.18752,369.37502 671.06009,369.49754 671.46875,369.5625 C 671.68128,367.89535 671.52783,365.77331 673.375,365.15625 C 675.53273,364.99386 678.08936,365.29251 680.3125,364.71875 C 680.81926,364.3507 680.96731,363.13012 681,362.71875 C 682.38944,362.03673 683.60862,362.62139 684.6875,361.0625 C 685.16153,360.69443 685.94614,361.20424 686.8125,361.3125 C 687.67884,361.42077 687.46537,359.69912 688.25,360.21875 C 689.4433,361.20388 691.17546,361.00657 692.15625,360.28125 C 693.1861,362.09997 693.88552,363.48001 696.125,362.90625 C 697.05677,362.59231 697.15192,361.77108 697.25,360.9375 C 697.29904,360.50447 697.71489,360.53962 698.15625,360.59375 C 698.56491,360.6587 698.53269,361.08863 698.5,361.5 C 699.36639,361.59743 700.27353,361.28269 701.15625,360.96875 C 701.77741,362.73335 703.49706,362.95323 705.6875,362.8125 C 706.11252,362.85582 705.99759,363.7067 706.40625,363.75 C 708.12267,363.97734 709.61873,362.44342 710.46875,362.5625 C 712.18516,362.76821 711.43411,365.23036 712.21875,365.75 C 714.26208,366.4212 715.25291,362.33401 714.125,360.9375 C 713.45482,359.57347 713.21539,358.257 712.9375,356.96875 C 712.62695,356.08104 711.24037,356.7425 711.8125,355.5625 C 710.53746,355.40012 709.77792,354.46976 708.4375,354.71875 C 707.11344,354.96774 706.06541,356.53233 704.9375,355.125 C 710.39728,349.89621 718.12289,350.41593 725.25,348.78125 C 728.40487,347.89355 726.96676,342.23845 729.84375,340.0625 L 720.46875,331.75 z"
       style="fill:#ed1c24" />
    <path
       id="path4119"
       d="M 678.72546,191.125 C 677.77594,191.11599 676.769,191.40589 675.63171,192.0625 C 667.48431,196.76641 679.65222,214.20137 691.13171,227 C 701.07061,238.08071 713.16626,246.45604 715.10046,248.65625 C 708.76766,246.35731 695.44723,237.15322 687.22546,229.65625 C 679.15336,222.29578 669.99687,213.85832 665.91296,219.125 C 659.92606,226.84586 667.99028,233.16407 676.35046,238.75 C 689.20516,247.33885 707.03686,254.26562 715.47546,257.6875 C 708.09506,256.40975 686.5444,251.19815 679.69421,247.21875 C 672.47381,243.02424 657.99815,237.60316 657.66296,245.9375 C 657.35626,253.55876 665.46439,257.24492 674.81921,259.21875 C 688.86821,262.18303 707.71486,263.21274 715.97546,264.46875 C 712.33016,265.72452 674.93104,263.2185 671.03796,262.78125 C 665.25406,262.13171 657.49816,261.87711 658.85046,269.125 C 660.86566,279.92435 676.40935,277.92476 686.35046,276.3125 C 688.13436,276.02324 716.93616,271.22146 718.53796,272.25 C 717.29286,272.95161 692.02347,277.12119 674.72546,281.8125 C 668.19786,283.69584 654.32958,286.1626 659.28796,294.90625 C 661.10446,298.10935 669.76554,296.55404 678.81921,294.25 C 696.65641,289.7107 719.58146,279.74405 719.53796,280.03125 C 710.02426,286.87306 679.03547,301.90944 669.47546,309.4375 C 663.91796,313.81377 663.58299,318.94937 665.63171,321.78125 C 667.64871,324.56951 672.65892,324.27259 678.31921,321.9375 C 682.76161,320.10483 717.81766,289.98297 722.10046,287.125 C 722.10046,287.125 709.43956,301.30201 702.81916,312.8125 C 699.26331,318.99482 697.92104,324.86624 700.13171,326.375 C 706.03436,330.40366 710.73786,325.79219 714.41296,320.90625 C 720.15256,313.27568 722.62516,304.36869 727.22546,295.59375 C 727.32356,298.13778 725.26606,303.51547 723.22546,308.1875 C 721.18756,312.85357 720.14556,315.49753 722.28796,316.96875 C 724.80376,318.69609 728.99756,315.91133 731.03796,313.09375 C 732.78286,310.68428 734.25866,307.94548 735.91296,304.875 C 736.20946,309.53707 729.39986,315.11295 727.72546,319.9375 C 726.58576,323.22135 724.33206,327.09087 721.06916,328.75 C 718.03416,330.29331 713.85976,330.83098 714.44416,335.15625 C 715.68656,335.30781 716.71896,334.13746 718.53796,334.5 C 717.20916,336.33332 717.43696,338.56787 719.03796,339.90625 C 719.92526,338.65048 721.38766,337.55823 722.31916,336.84375 C 722.74966,338.76076 722.60496,340.67673 724.66296,342.59375 C 725.32776,341.52536 726.71336,340.76691 728.75676,340.25 C 730.29796,342.09176 731.65726,344.74468 730.78796,347 C 733.99656,345.22827 735.82566,343.36861 736.41296,339.90625 C 737.27476,341.16095 736.92246,343.22837 736.91296,344.625 C 740.11216,343.16256 741.80236,339.4619 742.53796,335.84375 C 743.16026,337.18018 743.50416,339.39792 742.85046,341 C 747.01406,339.16104 749.29516,335.87741 750.72546,332.46875 C 751.73996,336.50141 751.33816,350.60751 750.50676,355.375 C 749.96976,358.4522 748.57326,361.40598 746.66296,362.375 C 743.00556,364.23052 737.97206,361.73541 739.47546,356.125 C 729.81116,358.7145 732.68116,378.62202 747.13176,374.75 C 749.84096,384.86126 737.16636,385.87018 730.78796,382.1875 C 724.76326,392.62246 743.37226,396.47816 751.22546,388.625 C 746.14136,407.59945 724.45196,384.93421 716.47546,398.75 C 712.28506,406.00806 721.09076,409.59646 723.63176,408.5625 C 720.39166,406.69183 719.12196,404.61103 721.60046,401.8125 C 723.11056,400.10746 727.51586,402.61108 728.75676,403.15625 C 736.11436,406.38934 740.21846,407.01299 748.16296,404.1875 C 749.59716,409.54035 743.61506,410.01979 738.44416,408.90625 C 723.32116,405.64979 722.60556,415.95363 723.53796,419.40625 C 724.51026,423.00697 730.14576,427.52577 734.35046,423.46875 C 730.73636,423.48445 727.22436,419.47916 730.78796,415.34375 C 733.61586,412.10688 739.97526,415.34376 739.97546,415.34375 C 740.38376,415.40882 744.28906,418.79446 748.16296,415.6875 L 745.60046,421.09375 C 748.85786,424.25928 753.47386,428.3767 754.78796,433.28125 C 756.10206,428.3767 760.74926,424.25928 764.00676,421.09375 L 761.44416,415.6875 C 765.31826,418.79446 769.19216,415.40882 769.60046,415.34375 C 769.60066,415.34376 775.99136,412.10688 778.81916,415.34375 C 782.38276,419.47916 778.83956,423.48445 775.22546,423.46875 C 779.43016,427.52577 785.09696,423.00697 786.06916,419.40625 C 787.00166,415.95363 786.25476,405.64979 771.13176,408.90625 C 765.96086,410.01979 760.00996,409.54035 761.44416,404.1875 C 769.38886,407.01299 773.49286,406.38934 780.85046,403.15625 C 782.09126,402.61108 786.49666,400.10746 788.00676,401.8125 C 790.48526,404.61103 789.18426,406.69183 785.94416,408.5625 C 788.48516,409.59646 797.29086,406.00806 793.10046,398.75 C 785.12396,384.93421 763.46586,407.59945 758.38176,388.625 C 766.23486,396.47816 784.84386,392.62246 778.81916,382.1875 C 772.44076,385.87018 759.76616,384.86126 762.47546,374.75 C 776.92596,378.62202 779.79596,358.7145 770.13176,356.125 C 771.63506,361.73541 766.57036,364.23052 762.91296,362.375 C 761.00266,361.40598 759.63736,358.4522 759.10046,355.375 C 758.26906,350.60751 757.86726,336.50141 758.88176,332.46875 C 760.31206,335.87741 762.59306,339.16104 766.75676,341 C 766.10296,339.39792 766.44696,337.18018 767.06916,335.84375 C 767.80486,339.4619 769.46376,343.16256 772.66296,344.625 C 772.65336,343.22837 772.33236,341.16095 773.19416,339.90625 C 773.78146,343.36861 775.61066,345.22827 778.81916,347 C 777.94986,344.74468 779.30926,342.09176 780.85046,340.25 C 782.89376,340.76691 784.27936,341.52536 784.94416,342.59375 C 787.00216,340.67673 786.85756,338.76076 787.28796,336.84375 C 788.21956,337.55823 789.68196,338.65048 790.56916,339.90625 C 792.17026,338.56787 792.39806,336.33332 791.06916,334.5 C 792.88816,334.13746 793.92066,335.30781 795.16296,335.15625 C 795.74736,330.83098 791.54186,330.29331 788.50676,328.75 C 785.24376,327.09087 783.02136,323.22135 781.88176,319.9375 C 780.20736,315.11295 773.39766,309.53707 773.69416,304.875 C 775.34856,307.94548 776.82426,310.68428 778.56916,313.09375 C 780.60956,315.91133 784.77216,318.69609 787.28796,316.96875 C 789.43036,315.49753 788.38836,312.85357 786.35046,308.1875 C 784.30986,303.51547 782.28366,298.13778 782.38176,295.59375 C 786.98216,304.36869 789.45466,313.27568 795.19416,320.90625 C 798.86926,325.79219 803.54156,330.40366 809.44416,326.375 C 811.65486,324.86624 810.34386,318.99482 806.78796,312.8125 C 800.16756,301.30201 787.50676,287.125 787.50676,287.125 C 791.78946,289.98297 826.84556,320.10483 831.28796,321.9375 C 836.94826,324.27259 841.95846,324.56951 843.97546,321.78125 C 846.02406,318.94937 845.65796,313.81377 840.10046,309.4375 C 830.54046,301.90944 799.55166,286.87306 790.03796,280.03125 C 789.99446,279.74405 812.95076,289.7107 830.78796,294.25 C 839.84166,296.55404 848.50276,298.10935 850.31916,294.90625 C 855.27766,286.1626 841.40936,283.69584 834.88176,281.8125 C 817.58376,277.12119 792.31436,272.95161 791.06916,272.25 C 792.67096,271.22146 821.47286,276.02324 823.25676,276.3125 C 833.19776,277.92476 848.71026,279.92435 850.72546,269.125 C 852.07776,261.87711 844.35316,262.13171 838.56916,262.78125 C 834.67606,263.2185 797.27696,265.72452 793.63176,264.46875 C 801.89226,263.21274 820.70776,262.18303 834.75676,259.21875 C 844.11156,257.24492 852.25086,253.55876 851.94416,245.9375 C 851.60906,237.60316 837.10206,243.02424 829.88176,247.21875 C 823.03156,251.19815 801.51216,256.40975 794.13176,257.6875 C 802.57036,254.26562 820.37076,247.33885 833.22546,238.75 C 841.58566,233.16407 849.68106,226.84586 843.69416,219.125 C 839.61026,213.85832 830.45376,222.29578 822.38176,229.65625 C 814.15996,237.15322 800.83946,246.35731 794.50676,248.65625 C 796.44086,246.45604 808.53656,238.08071 818.47546,227 C 829.95496,214.20137 842.12286,196.76641 833.97546,192.0625 C 824.87716,186.80962 822.71406,204.77605 812.69416,215.375 C 802.37756,226.28784 780.14836,236.77477 774.78796,251.1875 C 776.65936,243.68103 772.66416,230.77803 773.60046,224.8125 C 774.53676,225.71688 776.84396,226.09277 778.28796,225.90625 C 775.82716,223.17309 773.49166,219.94194 772.78796,216.375 C 774.40806,217.06405 776.33726,217.36118 778.81916,216.40625 C 770.05646,212.10381 771.41836,205.53382 765.00676,202.5625 C 766.07866,201.32167 766.95886,199.09772 766.85046,196.5 C 762.17216,198.74178 755.10776,199.3457 750.06916,198.59375 C 745.83216,197.96132 741.43556,198.01064 736.91296,199.84375 C 734.41596,200.85573 732.73426,203.47189 731.60046,205.34375 C 731.60046,205.34374 746.04586,215.44712 735.47546,219.84375 C 740.19146,219.14679 743.28426,218.48787 747.75676,216.4375 C 751.05336,214.92602 755.29346,219.11861 754.78796,222.5 C 753.57166,230.63872 743.82976,241.4375 739.97546,241.4375 C 741.33616,243.79424 745.16696,243.58979 746.63176,242.125 C 745.86716,244.97843 741.33866,247.21875 738.97546,247.21875 C 739.67756,248.43478 742.77926,249.28245 745.10046,247.875 C 744.70176,249.81184 742.80626,252.12101 741.03796,253.15625 C 738.70126,253.0748 735.38176,252.96875 735.38176,252.96875 C 731.27346,237.63674 707.64656,226.72898 696.91296,215.375 C 688.14563,206.10092 685.37209,191.18805 678.72546,191.125 z"
       style="fill:#000000" />
    <path
       id="path6022"
       d="M 732,204.90625 C 730.153,205.11562 723.37065,206.0538 720.71875,207.96875 C 718.06685,209.8836 718.72395,213.53074 722.5,215.75 C 722.52779,214.55918 723.35273,213.40075 724.28125,213.46875 C 726.45861,213.6281 730.7604,212.79211 732.65625,212.5625 C 735.06328,212.27118 737.61155,211.85187 739.5625,213.625 C 739.5625,213.625 736.84559,206.09274 732,204.90625 z M 739.5625,214.03125 C 736.13756,216.65474 730.60713,218.44168 725.28125,217.53125 C 725.38278,218.48542 726.55667,219.8793 727.90625,220.1875 C 732.19054,221.16593 736.53599,220.01675 737.8125,219.5625 C 739.8748,217.87987 740.01121,215.35837 739.5625,214.03125 z"
       style="fill:#ed1c24" />
    <path
       sodipodi:nodetypes="ccc"
       id="path3520"
       d="M 750.06893,202.06227 C 744.37221,204.37252 744.19382,202.67318 740.29757,204.80239 C 741.27004,206.40991 745.22401,207.34192 746.03631,203.40648"
       style="opacity:1;fill:#ed1c24;fill-opacity:1;fill-rule:nonzero;stroke:#ed1c24;stroke-width:0.5;stroke-linecap:round;stroke-linejoin:round;stroke-miterlimit:4;stroke-dasharray:none;stroke-opacity:1" />
  </g>
  <g
     id="g4137"
     transform="translate(-615.00575,0)">
    <path
       style="fill:#ed1c24"
       d="M 789.09375,330.84375 L 779.8125,339.125 C 782.68949,341.31179 781.26771,346.96686 784.40625,347.84375 C 791.51701,349.48926 799.24412,348.95872 804.6875,354.1875 C 803.59228,355.59484 802.49665,354.05067 801.15625,353.8125 C 799.83218,353.54187 799.11877,354.48305 797.84375,354.65625 C 798.41588,355.84708 797.04715,355.14356 796.6875,356.03125 C 796.475,357.33034 796.18658,358.64681 795.5,360 C 794.40478,361.40735 795.3615,365.49451 797.4375,364.8125 C 798.22214,364.3037 797.47259,361.83069 799.15625,361.625 C 800.02262,361.52758 801.51873,363.04944 803.21875,362.84375 C 803.64376,362.80045 803.54375,361.94955 803.96875,361.90625 C 806.14285,362.05782 807.8476,361.85834 808.46875,360.09375 C 809.40051,360.38605 810.25864,360.69117 811.125,360.59375 C 811.05961,360.16073 811.01248,359.76207 811.4375,359.71875 C 811.87886,359.6538 812.32595,359.59822 812.375,360.03125 C 812.45673,360.85401 812.58603,361.66563 813.46875,361.96875 C 815.72458,362.54252 816.3899,361.1937 817.46875,359.375 C 818.44954,360.11116 820.19804,360.32887 821.375,359.34375 C 822.12694,358.82413 821.94755,360.51451 822.78125,360.40625 C 823.64761,360.30883 824.43076,359.80982 824.9375,360.15625 C 826.00003,361.72598 827.23701,361.14131 828.59375,361.8125 C 828.65913,362.23471 828.83843,363.47568 829.3125,363.84375 C 831.53563,364.41752 834.10712,364.08759 836.28125,364.25 C 838.06302,364.86707 837.94378,366.98909 838.15625,368.65625 C 838.58126,368.60213 839.43752,368.50001 839.4375,368.5 C 840.00963,366.32406 841.4318,364.02908 839.4375,362.15625 C 841.23562,359.41737 837.94284,357.25989 836.40625,355.34375 C 834.88602,353.839 832.76495,354.13562 830.65625,354.40625 C 830.23124,354.46039 829.25769,353.7202 828.375,353.40625 C 827.94999,353.47122 827.08128,353.58171 826.65625,353.625 C 826.24758,353.67914 826.14519,353.27432 825.6875,352.90625 C 826.91349,352.3325 828.09996,351.32945 829.375,351.15625 C 829.80001,351.11295 829.58604,349.46729 830.46875,349.78125 C 830.91011,349.73796 830.95096,350.15114 831,350.5625 C 833.51737,349.8372 835.85048,347.83734 836.40625,345.25 C 836.71684,344.36231 836.44128,342.29943 838.125,342.09375 C 838.99137,341.98551 840.89278,343.41138 840.84375,343 C 841.77551,340.34773 838.89527,338.19117 836.3125,338.09375 C 833.27204,338.03963 829.88276,338.43719 827.9375,340.375 C 826.38458,341.40344 825.71732,343.21254 824.6875,345.03125 C 824.32788,345.49676 821.94473,347.47452 821.78125,346.21875 C 821.20912,345.03876 821.53315,344.15813 821.84375,343.28125 C 822.48127,341.50585 822.17023,338.98801 821.5,337.375 C 820.92787,336.18419 818.36636,336.52296 818.5625,334.8125 C 818.85674,333.51343 820.91538,332.83438 820,332.53125 C 817.22108,331.17805 814.12785,333.68041 814.0625,336.625 C 814.19327,337.46941 812.4683,337.67481 812.125,338.5625 C 812.53366,341.46379 812.43409,343.98579 813.21875,346.84375 C 813.7255,347.21183 812.05001,347.86294 811.625,347.90625 C 810.4317,348.48002 808.57549,347.85869 807.21875,347.1875 C 803.14845,345.99668 798.2876,344.91579 795.3125,341.90625 C 794.80576,341.54901 794.20772,340.36808 793.75,340 C 790.05567,338.34368 789.09376,334.22135 789.09375,330.84375 z M 720.46875,331.75 C 720.46877,335.12762 719.50538,339.19825 715.84375,340.84375 C 715.33698,341.21183 714.78655,342.41318 714.3125,342.78125 C 711.32111,345.77996 706.4126,346.89333 702.375,348.0625 C 700.98556,348.74453 699.16205,349.35501 697.96875,348.78125 C 697.56011,348.7163 695.88605,348.08682 696.34375,347.71875 C 697.12838,344.86078 697.07788,342.30752 697.4375,339.40625 C 697.12692,338.51856 695.41683,338.32275 695.53125,337.5 C 695.48219,334.53379 692.34142,332.04345 689.5625,333.375 C 688.64707,333.68896 690.73846,334.35717 691,335.65625 C 691.19615,337.36672 688.65098,337.05918 688.0625,338.25 C 687.44133,339.8522 687.07979,342.36042 687.75,344.125 C 688.0606,345.01271 688.38608,345.8921 687.78125,347.09375 C 687.63414,348.34952 685.29712,346.32968 684.9375,345.875 C 683.85864,344.0563 683.21062,342.30009 681.625,341.25 C 679.7288,339.33388 676.32171,338.92544 673.28125,338.96875 C 670.66579,339.0662 667.80046,341.21189 668.78125,343.875 C 668.71585,344.28638 670.63363,342.81841 671.5,342.9375 C 673.18372,343.14318 672.93942,345.24812 673.25,346.125 C 673.8058,348.72317 676.10907,350.69053 678.59375,351.4375 C 678.65913,351.02613 678.69855,350.60212 679.15625,350.65625 C 680.03896,350.35315 679.82499,352.0192 680.25,352.0625 C 681.54138,352.22489 682.68026,353.20749 683.90625,353.78125 C 683.4322,354.14932 683.34472,354.5433 682.96875,354.5 C 682.49472,354.45671 681.68992,354.37745 681.28125,354.3125 C 680.34948,354.61563 679.42646,355.3462 678.96875,355.28125 C 676.8437,355.01061 674.70629,354.74523 673.21875,356.25 C 671.6658,358.16616 668.35957,360.29236 670.125,363.03125 C 668.17976,364.9041 669.61537,367.18822 670.1875,369.375 C 670.18752,369.37502 671.06009,369.49754 671.46875,369.5625 C 671.68128,367.89535 671.52783,365.77331 673.375,365.15625 C 675.53273,364.99386 678.08936,365.29251 680.3125,364.71875 C 680.81926,364.3507 680.96731,363.13012 681,362.71875 C 682.38944,362.03673 683.60862,362.62139 684.6875,361.0625 C 685.16153,360.69443 685.94614,361.20424 686.8125,361.3125 C 687.67884,361.42077 687.46537,359.69912 688.25,360.21875 C 689.4433,361.20388 691.17546,361.00657 692.15625,360.28125 C 693.1861,362.09997 693.88552,363.48001 696.125,362.90625 C 697.05677,362.59231 697.15192,361.77108 697.25,360.9375 C 697.29904,360.50447 697.71489,360.53962 698.15625,360.59375 C 698.56491,360.6587 698.53269,361.08863 698.5,361.5 C 699.36639,361.59743 700.27353,361.28269 701.15625,360.96875 C 701.77741,362.73335 703.49706,362.95323 705.6875,362.8125 C 706.11252,362.85582 705.99759,363.7067 706.40625,363.75 C 708.12267,363.97734 709.61873,362.44342 710.46875,362.5625 C 712.18516,362.76821 711.43411,365.23036 712.21875,365.75 C 714.26208,366.4212 715.25291,362.33401 714.125,360.9375 C 713.45482,359.57347 713.21539,358.257 712.9375,356.96875 C 712.62695,356.08104 711.24037,356.7425 711.8125,355.5625 C 710.53746,355.40012 709.77792,354.46976 708.4375,354.71875 C 707.11344,354.96774 706.06541,356.53233 704.9375,355.125 C 710.39728,349.89621 718.12289,350.41593 725.25,348.78125 C 728.40487,347.89355 726.96676,342.23845 729.84375,340.0625 L 720.46875,331.75 z"
       id="path4139" />
    <path
       style="fill:#000000"
       d="M 678.72546,191.125 C 677.77594,191.11599 676.769,191.40589 675.63171,192.0625 C 667.48431,196.76641 679.65222,214.20137 691.13171,227 C 701.07061,238.08071 713.16626,246.45604 715.10046,248.65625 C 708.76766,246.35731 695.44723,237.15322 687.22546,229.65625 C 679.15336,222.29578 669.99687,213.85832 665.91296,219.125 C 659.92606,226.84586 667.99028,233.16407 676.35046,238.75 C 689.20516,247.33885 707.03686,254.26562 715.47546,257.6875 C 708.09506,256.40975 686.5444,251.19815 679.69421,247.21875 C 672.47381,243.02424 657.99815,237.60316 657.66296,245.9375 C 657.35626,253.55876 665.46439,257.24492 674.81921,259.21875 C 688.86821,262.18303 707.71486,263.21274 715.97546,264.46875 C 712.33016,265.72452 674.93104,263.2185 671.03796,262.78125 C 665.25406,262.13171 657.49816,261.87711 658.85046,269.125 C 660.86566,279.92435 676.40935,277.92476 686.35046,276.3125 C 688.13436,276.02324 716.93616,271.22146 718.53796,272.25 C 717.29286,272.95161 692.02347,277.12119 674.72546,281.8125 C 668.19786,283.69584 654.32958,286.1626 659.28796,294.90625 C 661.10446,298.10935 669.76554,296.55404 678.81921,294.25 C 696.65641,289.7107 719.58146,279.74405 719.53796,280.03125 C 710.02426,286.87306 679.03547,301.90944 669.47546,309.4375 C 663.91796,313.81377 663.58299,318.94937 665.63171,321.78125 C 667.64871,324.56951 672.65892,324.27259 678.31921,321.9375 C 682.76161,320.10483 717.81766,289.98297 722.10046,287.125 C 722.10046,287.125 709.43956,301.30201 702.81916,312.8125 C 699.26331,318.99482 697.92104,324.86624 700.13171,326.375 C 706.03436,330.40366 710.73786,325.79219 714.41296,320.90625 C 720.15256,313.27568 722.62516,304.36869 727.22546,295.59375 C 727.32356,298.13778 725.26606,303.51547 723.22546,308.1875 C 721.18756,312.85357 720.14556,315.49753 722.28796,316.96875 C 724.80376,318.69609 728.99756,315.91133 731.03796,313.09375 C 732.78286,310.68428 734.25866,307.94548 735.91296,304.875 C 736.20946,309.53707 729.39986,315.11295 727.72546,319.9375 C 726.58576,323.22135 724.33206,327.09087 721.06916,328.75 C 718.03416,330.29331 713.85976,330.83098 714.44416,335.15625 C 715.68656,335.30781 716.71896,334.13746 718.53796,334.5 C 717.20916,336.33332 717.43696,338.56787 719.03796,339.90625 C 719.92526,338.65048 721.38766,337.55823 722.31916,336.84375 C 722.74966,338.76076 722.60496,340.67673 724.66296,342.59375 C 725.32776,341.52536 726.71336,340.76691 728.75676,340.25 C 730.29796,342.09176 731.65726,344.74468 730.78796,347 C 733.99656,345.22827 735.82566,343.36861 736.41296,339.90625 C 737.27476,341.16095 736.92246,343.22837 736.91296,344.625 C 740.11216,343.16256 741.80236,339.4619 742.53796,335.84375 C 743.16026,337.18018 743.50416,339.39792 742.85046,341 C 747.01406,339.16104 749.29516,335.87741 750.72546,332.46875 C 751.73996,336.50141 751.33816,350.60751 750.50676,355.375 C 749.96976,358.4522 748.57326,361.40598 746.66296,362.375 C 743.00556,364.23052 737.97206,361.73541 739.47546,356.125 C 729.81116,358.7145 732.68116,378.62202 747.13176,374.75 C 749.84096,384.86126 737.16636,385.87018 730.78796,382.1875 C 724.76326,392.62246 743.37226,396.47816 751.22546,388.625 C 746.14136,407.59945 724.45196,384.93421 716.47546,398.75 C 712.28506,406.00806 721.09076,409.59646 723.63176,408.5625 C 720.39166,406.69183 719.12196,404.61103 721.60046,401.8125 C 723.11056,400.10746 727.51586,402.61108 728.75676,403.15625 C 736.11436,406.38934 740.21846,407.01299 748.16296,404.1875 C 749.59716,409.54035 743.61506,410.01979 738.44416,408.90625 C 723.32116,405.64979 722.60556,415.95363 723.53796,419.40625 C 724.51026,423.00697 730.14576,427.52577 734.35046,423.46875 C 730.73636,423.48445 727.22436,419.47916 730.78796,415.34375 C 733.61586,412.10688 739.97526,415.34376 739.97546,415.34375 C 740.38376,415.40882 744.28906,418.79446 748.16296,415.6875 L 745.60046,421.09375 C 748.85786,424.25928 753.47386,428.3767 754.78796,433.28125 C 756.10206,428.3767 760.74926,424.25928 764.00676,421.09375 L 761.44416,415.6875 C 765.31826,418.79446 769.19216,415.40882 769.60046,415.34375 C 769.60066,415.34376 775.99136,412.10688 778.81916,415.34375 C 782.38276,419.47916 778.83956,423.48445 775.22546,423.46875 C 779.43016,427.52577 785.09696,423.00697 786.06916,419.40625 C 787.00166,415.95363 786.25476,405.64979 771.13176,408.90625 C 765.96086,410.01979 760.00996,409.54035 761.44416,404.1875 C 769.38886,407.01299 773.49286,406.38934 780.85046,403.15625 C 782.09126,402.61108 786.49666,400.10746 788.00676,401.8125 C 790.48526,404.61103 789.18426,406.69183 785.94416,408.5625 C 788.48516,409.59646 797.29086,406.00806 793.10046,398.75 C 785.12396,384.93421 763.46586,407.59945 758.38176,388.625 C 766.23486,396.47816 784.84386,392.62246 778.81916,382.1875 C 772.44076,385.87018 759.76616,384.86126 762.47546,374.75 C 776.92596,378.62202 779.79596,358.7145 770.13176,356.125 C 771.63506,361.73541 766.57036,364.23052 762.91296,362.375 C 761.00266,361.40598 759.63736,358.4522 759.10046,355.375 C 758.26906,350.60751 757.86726,336.50141 758.88176,332.46875 C 760.31206,335.87741 762.59306,339.16104 766.75676,341 C 766.10296,339.39792 766.44696,337.18018 767.06916,335.84375 C 767.80486,339.4619 769.46376,343.16256 772.66296,344.625 C 772.65336,343.22837 772.33236,341.16095 773.19416,339.90625 C 773.78146,343.36861 775.61066,345.22827 778.81916,347 C 777.94986,344.74468 779.30926,342.09176 780.85046,340.25 C 782.89376,340.76691 784.27936,341.52536 784.94416,342.59375 C 787.00216,340.67673 786.85756,338.76076 787.28796,336.84375 C 788.21956,337.55823 789.68196,338.65048 790.56916,339.90625 C 792.17026,338.56787 792.39806,336.33332 791.06916,334.5 C 792.88816,334.13746 793.92066,335.30781 795.16296,335.15625 C 795.74736,330.83098 791.54186,330.29331 788.50676,328.75 C 785.24376,327.09087 783.02136,323.22135 781.88176,319.9375 C 780.20736,315.11295 773.39766,309.53707 773.69416,304.875 C 775.34856,307.94548 776.82426,310.68428 778.56916,313.09375 C 780.60956,315.91133 784.77216,318.69609 787.28796,316.96875 C 789.43036,315.49753 788.38836,312.85357 786.35046,308.1875 C 784.30986,303.51547 782.28366,298.13778 782.38176,295.59375 C 786.98216,304.36869 789.45466,313.27568 795.19416,320.90625 C 798.86926,325.79219 803.54156,330.40366 809.44416,326.375 C 811.65486,324.86624 810.34386,318.99482 806.78796,312.8125 C 800.16756,301.30201 787.50676,287.125 787.50676,287.125 C 791.78946,289.98297 826.84556,320.10483 831.28796,321.9375 C 836.94826,324.27259 841.95846,324.56951 843.97546,321.78125 C 846.02406,318.94937 845.65796,313.81377 840.10046,309.4375 C 830.54046,301.90944 799.55166,286.87306 790.03796,280.03125 C 789.99446,279.74405 812.95076,289.7107 830.78796,294.25 C 839.84166,296.55404 848.50276,298.10935 850.31916,294.90625 C 855.27766,286.1626 841.40936,283.69584 834.88176,281.8125 C 817.58376,277.12119 792.31436,272.95161 791.06916,272.25 C 792.67096,271.22146 821.47286,276.02324 823.25676,276.3125 C 833.19776,277.92476 848.71026,279.92435 850.72546,269.125 C 852.07776,261.87711 844.35316,262.13171 838.56916,262.78125 C 834.67606,263.2185 797.27696,265.72452 793.63176,264.46875 C 801.89226,263.21274 820.70776,262.18303 834.75676,259.21875 C 844.11156,257.24492 852.25086,253.55876 851.94416,245.9375 C 851.60906,237.60316 837.10206,243.02424 829.88176,247.21875 C 823.03156,251.19815 801.51216,256.40975 794.13176,257.6875 C 802.57036,254.26562 820.37076,247.33885 833.22546,238.75 C 841.58566,233.16407 849.68106,226.84586 843.69416,219.125 C 839.61026,213.85832 830.45376,222.29578 822.38176,229.65625 C 814.15996,237.15322 800.83946,246.35731 794.50676,248.65625 C 796.44086,246.45604 808.53656,238.08071 818.47546,227 C 829.95496,214.20137 842.12286,196.76641 833.97546,192.0625 C 824.87716,186.80962 822.71406,204.77605 812.69416,215.375 C 802.37756,226.28784 780.14836,236.77477 774.78796,251.1875 C 776.65936,243.68103 772.66416,230.77803 773.60046,224.8125 C 774.53676,225.71688 776.84396,226.09277 778.28796,225.90625 C 775.82716,223.17309 773.49166,219.94194 772.78796,216.375 C 774.40806,217.06405 776.33726,217.36118 778.81916,216.40625 C 770.05646,212.10381 771.41836,205.53382 765.00676,202.5625 C 766.07866,201.32167 766.95886,199.09772 766.85046,196.5 C 762.17216,198.74178 755.10776,199.3457 750.06916,198.59375 C 745.83216,197.96132 741.43556,198.01064 736.91296,199.84375 C 734.41596,200.85573 732.73426,203.47189 731.60046,205.34375 C 731.60046,205.34374 746.04586,215.44712 735.47546,219.84375 C 740.19146,219.14679 743.28426,218.48787 747.75676,216.4375 C 751.05336,214.92602 755.29346,219.11861 754.78796,222.5 C 753.57166,230.63872 743.82976,241.4375 739.97546,241.4375 C 741.33616,243.79424 745.16696,243.58979 746.63176,242.125 C 745.86716,244.97843 741.33866,247.21875 738.97546,247.21875 C 739.67756,248.43478 742.77926,249.28245 745.10046,247.875 C 744.70176,249.81184 742.80626,252.12101 741.03796,253.15625 C 738.70126,253.0748 735.38176,252.96875 735.38176,252.96875 C 731.27346,237.63674 707.64656,226.72898 696.91296,215.375 C 688.14563,206.10092 685.37209,191.18805 678.72546,191.125 z"
       id="path4141" />
    <path
       style="fill:#ed1c24"
       d="M 732,204.90625 C 730.153,205.11562 723.37065,206.0538 720.71875,207.96875 C 718.06685,209.8836 718.72395,213.53074 722.5,215.75 C 722.52779,214.55918 723.35273,213.40075 724.28125,213.46875 C 726.45861,213.6281 730.7604,212.79211 732.65625,212.5625 C 735.06328,212.27118 737.61155,211.85187 739.5625,213.625 C 739.5625,213.625 736.84559,206.09274 732,204.90625 z M 739.5625,214.03125 C 736.13756,216.65474 730.60713,218.44168 725.28125,217.53125 C 725.38278,218.48542 726.55667,219.8793 727.90625,220.1875 C 732.19054,221.16593 736.53599,220.01675 737.8125,219.5625 C 739.8748,217.87987 740.01121,215.35837 739.5625,214.03125 z"
       id="path4143" />
    <path
       style="opacity:1;fill:#ed1c24;fill-opacity:1;fill-rule:nonzero;stroke:#ed1c24;stroke-width:0.5;stroke-linecap:round;stroke-linejoin:round;stroke-miterlimit:4;stroke-dasharray:none;stroke-opacity:1"
       d="M 750.06893,202.06227 C 744.37221,204.37252 744.19382,202.67318 740.29757,204.80239 C 741.27004,206.40991 745.22401,207.34192 746.03631,203.40648"
       id="path4145"
       sodipodi:nodetypes="ccc" />
  </g>
</svg>
