<?xml version="1.0" encoding="UTF-8" standalone="no"?>
<!-- Created with Inkscape (http://www.inkscape.org/) -->
<svg
   xmlns:dc="http://purl.org/dc/elements/1.1/"
   xmlns:cc="http://creativecommons.org/ns#"
   xmlns:rdf="http://www.w3.org/1999/02/22-rdf-syntax-ns#"
   xmlns:svg="http://www.w3.org/2000/svg"
   xmlns="http://www.w3.org/2000/svg"
   xmlns:sodipodi="http://sodipodi.sourceforge.net/DTD/sodipodi-0.dtd"
   xmlns:inkscape="http://www.inkscape.org/namespaces/inkscape"
   id="svg2496"
   sodipodi:version="0.32"
   inkscape:version="0.46"
   width="750"
   height="500"
   version="1.0"
   sodipodi:docname="sikh2.svg"
   inkscape:output_extension="org.inkscape.output.svg.inkscape">
  <metadata
     id="metadata2501">
    <rdf:RDF>
      <cc:Work
         rdf:about="">
        <dc:format>image/svg+xml</dc:format>
        <dc:type
           rdf:resource="http://purl.org/dc/dcmitype/StillImage" />
      </cc:Work>
    </rdf:RDF>
  </metadata>
  <defs
     id="defs2499">
    <inkscape:perspective
       sodipodi:type="inkscape:persp3d"
       inkscape:vp_x="0 : 526.18109 : 1"
       inkscape:vp_y="0 : 1000 : 0"
       inkscape:vp_z="744.09448 : 526.18109 : 1"
       inkscape:persp3d-origin="372.04724 : 350.78739 : 1"
       id="perspective2503" />
  </defs>
  <sodipodi:namedview
     inkscape:window-height="729"
     inkscape:window-width="1280"
     inkscape:pageshadow="2"
     inkscape:pageopacity="0.0"
     guidetolerance="10.0"
     gridtolerance="10.0"
     objecttolerance="10.0"
     borderopacity="1.0"
     bordercolor="#666666"
     pagecolor="#ffffff"
     id="base"
     showgrid="false"
     inkscape:zoom="0.44281333"
     inkscape:cx="372.04724"
     inkscape:cy="255.18654"
     inkscape:window-x="0"
     inkscape:window-y="0"
     inkscape:current-layer="svg2496" />
  <rect
     style="opacity:1;fill:#fca000;fill-opacity:1"
     id="rect2523"
     width="750"
     height="500"
     x="0"
     y="2.0150548e-14" />
  <path
     id="path13"
     d="M 334.2526,74.936205 C 347.77061,61.448424 361.06062,47.726654 373.96664,33.644894 C 386.87265,47.762654 400.18666,61.508424 413.72268,75.020195 C 412.56468,79.448125 411.55668,83.918055 410.62068,88.399975 C 431.4827,96.463835 449.53672,111.64959 460.94273,130.90327 C 472.15074,149.37696 477.02275,171.57659 474.79674,193.05623 C 472.78074,214.21188 463.75673,234.62354 449.51872,250.40327 C 438.91071,262.40307 425.32069,271.69692 410.40468,277.49282 C 411.46068,283.77471 412.87668,289.99061 414.16668,296.23051 C 404.66267,302.43437 395.44066,309.05226 386.18265,315.59815 C 386.02065,322.42604 386.17065,329.26593 386.13465,336.09981 C 406.51067,320.30807 426.64669,304.17434 445.92471,287.05066 C 457.33672,276.86283 468.49074,266.22501 477.60475,253.88921 C 490.03676,237.30549 499.22877,217.90182 501.95877,197.22616 C 504.69477,177.62449 501.05277,157.18283 491.53076,139.81912 C 482.03875,122.32941 467.42273,108.03165 450.91072,97.129825 C 450.34072,96.745835 449.83672,96.283845 449.39872,95.761855 C 451.17472,95.839855 452.81272,96.601835 454.51072,97.069825 C 474.68874,103.27373 493.57076,114.46354 507.62278,130.35728 C 523.02479,147.47499 532.7388,169.30263 536.60279,191.91625 C 539.85479,210.97793 539.39879,231.0056 532.8588,249.35929 C 524.77679,274.50487 509.56078,296.7705 491.60876,315.91615 C 483.62875,324.532 475.16274,332.66787 466.76273,340.86973 C 460.27073,347.40362 453.59872,353.88351 448.42072,361.55139 C 445.19871,366.30331 442.83471,371.77522 442.58871,377.57712 C 430.2827,368.68527 418.07268,359.66142 405.86267,350.63757 C 401.24867,353.35552 396.97666,356.63747 392.46466,359.52942 C 406.78067,370.23324 421.12669,380.90106 435.6647,391.29889 C 440.82471,394.48484 444.90471,399.80075 445.40871,405.98064 C 446.44071,414.33251 440.89671,422.82236 432.8987,425.35432 C 425.40469,428.00028 416.44668,425.12033 411.90468,418.60443 C 407.41667,412.55654 407.37467,403.83868 411.51468,397.59878 C 403.08467,391.81488 394.58266,386.13298 386.14665,380.35507 C 386.06865,394.84483 386.11065,409.33459 386.12265,423.83035 C 393.47866,427.95228 398.47066,435.97414 398.72266,444.428 C 399.30466,454.71783 392.66866,464.85166 383.04465,468.4996 C 373.93064,472.21954 362.74663,469.77158 356.04462,462.5597 C 350.84861,457.21979 348.35261,449.43792 349.40861,442.07004 C 350.36861,434.51017 355.10862,427.60428 361.73262,423.87235 C 361.90062,409.35859 361.70262,394.84483 361.83462,380.33107 C 353.35062,386.08498 344.86661,391.83288 336.3826,397.59278 C 341.2246,404.71467 340.2406,415.10049 333.9286,421.02839 C 327.54459,427.53829 316.29458,428.09028 309.30457,422.22837 C 302.16456,416.74447 300.25656,405.80065 305.14057,398.22877 C 308.06857,393.33286 313.37857,390.8069 317.71058,387.39296 C 330.39459,378.23111 342.9106,368.84126 355.50462,359.55942 C 351.09461,356.61347 346.70861,353.63152 342.3406,350.63757 C 331.88859,357.93945 321.75458,365.70332 311.42257,373.17919 C 309.32857,374.58917 307.46257,376.36514 305.20057,377.51112 C 305.11657,368.94926 299.95056,361.57539 294.71855,355.22149 C 285.02854,343.95368 273.83253,334.11984 263.53052,323.43402 C 250.46251,310.30624 238.4145,296.00851 228.97649,280.01878 C 222.17848,268.53497 216.84447,256.18717 213.19047,243.34739 C 210.00447,232.51157 209.02046,221.12376 209.44047,209.87395 C 210.40047,184.26638 218.57247,158.7008 233.95649,138.09115 C 247.70851,119.39546 267.64653,105.69769 289.56455,98.323805 C 292.62455,97.405825 295.60656,96.067845 298.80456,95.731855 C 292.11455,100.49576 285.35254,105.21769 279.37654,110.8876 C 265.52852,123.43939 254.44651,139.38712 249.03451,157.37482 C 244.3245,172.79457 243.9045,189.40829 247.3245,205.14003 C 251.93251,226.75167 263.29652,246.43134 277.65454,263.02706 C 289.91855,277.00683 304.13856,289.08463 318.26258,301.12042 C 332.49459,313.12619 347.09861,324.688 361.76862,336.14781 C 361.70862,329.63792 361.76862,323.13403 361.73862,316.63014 C 361.93662,315.65215 361.02462,315.17816 360.39462,314.70417 C 351.64061,308.36227 342.7726,302.19438 333.7666,296.21851 C 335.0506,289.98461 336.4186,283.76271 337.5406,277.49882 C 317.99258,269.99894 300.94056,256.25917 289.39655,238.80547 C 276.87454,219.98378 270.97053,196.88417 272.97453,174.36654 C 274.70853,152.37091 284.01454,131.07126 298.91256,114.80553 C 309.40057,103.14773 322.70858,94.087875 337.3066,88.381975 C 336.3706,83.882055 335.2606,79.418125 334.2526,74.936205 M 301.11456,145.79502 C 289.95455,167.40066 289.25855,194.07621 299.32056,216.22185 C 307.39657,234.58754 322.61258,249.53329 340.8946,257.71715 C 348.14261,208.19398 349.00661,157.53682 340.9846,108.04965 C 323.93258,115.64552 309.54457,129.1213 301.11456,145.79502 M 406.90667,108.07365 C 398.94466,157.54282 399.69466,208.18798 407.05067,257.68115 C 425.11669,249.62329 440.15871,234.91753 448.30671,216.86983 C 458.10473,195.76219 458.15873,170.39461 448.45072,149.25096 C 440.31471,131.01726 425.15869,116.11351 406.90667,108.07365 z"
     style="fill:#000000" />
</svg>
