<?xml version="1.0" encoding="UTF-8"?>
<svg xmlns="http://www.w3.org/2000/svg" height="600" width="900">
  <rect
     height="600"
     fill="#ffffff"
     width="900"/>
  <rect
     height="200"
     fill="#006d21"
     width="900"/>
  <path
     fill="#ffffff"
     d="m 383.7018,10.000574 c -0.51724,-0.01532 -1.29106,0.273139 -2.37578,0.91624 -2.43868,1.633439 -7.27122,6.664295 -7.4191,12.452532 -0.14788,3.265519 -0.76475,3.252791 1.37545,5.330851 1.54602,2.227175 3.09012,2.008264 6.21036,0.374825 1.79205,-1.319106 2.39737,-2.160568 3.00099,-4.372964 0.74342,-3.710164 -3.90728,1.755383 -4.50148,-2.373895 -1.03919,-3.833747 1.92976,-5.410585 4.75156,-9.12075 0.0647,-1.747292 0.0959,-3.173188 -1.042,-3.206839 z m 45.43153,0.249884 c -0.87156,0.117278 -1.93765,1.232958 -3.41779,3.914843 -1.06069,2.80881 -5.63585,7.059643 -2.33409,15.825961 2.70078,5.55853 3.81023,14.591255 2.58418,24.65518 -1.87132,2.859868 -2.29812,3.845342 -4.75156,6.70521 -3.44691,3.703449 -7.18014,2.756596 -10.04495,1.37436 -2.67662,-1.802694 -4.77995,-2.727943 -6.00197,-8.454395 0.22048,-9.127654 0.75273,-24.067148 -0.91697,-27.237311 -2.46152,-4.909726 -6.51847,-3.14888 -8.2527,-1.665891 -8.33229,7.612414 -12.44794,20.466226 -14.96322,30.694034 -2.31094,7.453914 -4.77329,5.298226 -6.50213,2.2906 -4.20916,-3.941231 -4.50481,-34.761379 -9.58646,-29.694501 -8.13877,23.24296 4.67064,48.704139 13.54608,46.228465 6.40318,2.648967 10.46612,-9.52952 13.08762,-22.864348 1.79335,-3.742404 3.16378,-4.172551 4.08467,-2.248953 -0.23663,17.732766 1.2725,21.688164 5.83524,27.070723 10.17814,7.846158 18.59623,0.994071 19.25631,0.333178 0.66009,-0.65956 7.91925,-7.912981 7.91925,-7.912981 1.76379,-1.853736 4.0944,-1.966617 6.58548,-0.333177 2.42118,2.198948 2.11023,5.986797 7.29407,8.620983 4.36243,1.743588 13.67815,0.424057 15.83851,-3.331781 2.90785,-4.979574 3.61291,-6.69067 4.95996,-8.579336 2.07566,-2.760461 5.62684,-1.53815 5.62684,-0.666356 -0.33073,1.539416 -2.41727,3.058068 -1.00033,5.830617 2.46824,1.849698 3.0415,0.660931 4.50148,0.249882 5.16365,-2.466276 9.04463,-13.660302 9.04463,-13.660302 0.22852,-4.174949 -2.14875,-3.85831 -3.66788,-2.998603 -1.98157,1.210303 -2.10309,1.621711 -4.08467,2.832013 -2.52472,0.374785 -7.41537,2.038891 -9.83656,-1.707537 -2.47227,-4.504048 -2.48626,-10.78319 -4.37641,-15.326194 0,-0.330446 -3.30311,-7.143232 -0.25009,-7.579803 1.54064,0.286121 4.8538,1.14159 5.37676,-1.624242 1.61592,-2.695971 -3.48681,-10.343795 -6.96062,-14.201719 -3.01537,-3.307178 -7.17893,-3.710217 -11.212,-0.333177 -2.82449,2.596577 -2.40542,5.49644 -2.9593,8.246158 -0.71923,3.15809 -0.58176,7.069828 2.62586,11.244762 2.81912,5.554493 7.94056,12.680853 6.25205,22.739407 0,0 -2.97609,4.786664 -8.21102,4.164726 -2.18189,-0.475525 -5.73734,-1.419112 -7.6275,-15.367841 -1.43036,-10.558254 0.35841,-25.350629 -4.12635,-32.27663 -1.01248,-2.613542 -1.88182,-5.15152 -3.33442,-4.956024 z m -14.3797,1.124476 c -1.35663,0.118345 -2.8593,1.697182 -4.08468,4.747787 -1.05128,2.319866 -2.33542,14.451602 -2.12569,14.451602 -0.83889,3.610772 3.77569,5.140845 5.87691,0.499768 3.14981,-8.508383 3.16504,-12.133242 3.37611,-15.742667 -0.49069,-2.749039 -1.68605,-4.074875 -3.04265,-3.95649 z m 53.1007,0.957887 c -1.39337,0.126208 -2.50321,0.941361 -2.91762,2.998603 -0.55523,4.837186 -0.27149,7.467469 0.54184,11.494646 0.62379,2.685228 4.53534,7.181121 6.46045,9.787107 9.1977,12.353419 18.04692,24.766289 26.59203,37.60748 1.3433,9.535505 2.32775,18.863626 2.95931,28.153553 1.38466,20.36963 1.80554,45.72471 0.54184,67.17704 3.81931,0.15046 9.93901,-6.16227 12.08728,-15.4095 1.39679,-12.79079 -0.49748,-38.88875 -0.62519,-46.43669 -0.0901,-3.13373 -0.28309,-6.87282 -0.50018,-10.786645 9.94016,16.231415 19.58383,33.427685 29.05118,52.308975 3.45097,-1.63881 2.68611,-21.05372 0.66689,-23.78059 -7.5768,-16.29545 -18.04398,-32.379522 -21.38199,-38.565374 -1.20456,-2.234052 -5.30753,-8.469002 -10.17001,-15.659372 -0.89524,-10.259887 -1.86809,-18.949493 -2.50081,-21.573283 -1.56349,-10.845721 4.46103,1.223097 3.62619,-5.080967 -1.9547,-10.83094 -7.93764,-18.191712 -15.00491,-28.111904 -2.27869,-3.22659 -2.23371,-3.884684 -5.75188,0.791298 -2.10287,4.766899 -2.07438,8.732678 -1.45882,12.452533 -0.92537,-1.343735 -2.06924,-2.937179 -3.70955,-4.914378 -6.10338,-5.232096 -6.4799,-5.518136 -11.54543,-9.787107 -1.59727,-1.132566 -4.63834,-2.875821 -6.96062,-2.665425 z m 157.38483,1.624244 c -0.67857,-0.105418 -1.41792,0.22788 -2.25074,1.457653 -1.59172,1.394337 -3.30349,3.919281 -3.25107,7.16333 0.38716,5.715697 1.40511,11.567918 1.79226,17.283616 0.13643,0.764869 0.28036,1.525716 0.41682,2.290599 -0.61463,-0.783675 -1.15125,-1.395204 -1.45882,-1.707537 -11.15008,-11.704082 5.12306,-1.912896 -2.1257,-10.953231 -6.13024,-6.725854 -7.92397,-8.866018 -13.17097,-12.910654 -2.63092,-1.699261 -4.22059,-4.945922 -5.08501,0.583062 -0.34414,4.857324 -0.7018,10.482197 -0.37511,14.576544 -0.0188,2.275527 2.33973,6.559091 4.37642,9.079103 7.43815,9.131293 15.03548,18.846953 22.67409,28.986497 1.60739,20.678034 2.0362,39.633473 3.66787,60.346893 -0.23121,8.85899 -2.95829,20.62495 -5.54348,21.73986 0,0 -3.94787,2.26609 -6.5855,-0.24987 -1.91839,-0.76971 -9.58646,-12.78571 -9.58646,-12.78571 -3.9255,-3.596 -6.54281,-2.56837 -9.33639,0 -7.70314,7.43241 -11.18713,21.35417 -16.42204,30.94391 -1.34972,2.13987 -5.15141,3.96134 -9.37806,-0.1666 -10.73468,-14.65394 -4.45729,-35.51368 -5.79357,-30.15261 -9.56107,10.76645 -5.32673,28.60678 -3.1677,32.44323 3.15253,6.30135 5.70291,10.33564 11.8372,13.45205 5.58714,4.10913 9.93771,1.54462 12.33738,-1.33272 5.62212,-5.82181 5.69708,-20.7098 8.33606,-23.65564 1.85118,-5.41077 6.49032,-4.48014 8.75287,-2.08237 2.19265,3.15003 4.78153,5.19941 8.00261,6.91346 5.2443,4.62226 11.50321,5.46198 17.67245,1.24942 4.21586,-2.36286 6.95151,-5.43373 9.41974,-11.49465 2.6484,-7.07754 1.3389,-44.16911 0.75025,-64.80314 3.96083,5.574869 7.87003,11.27045 11.75385,17.03374 1.70488,18.11323 2.47837,35.95123 1.9173,53.05861 -0.40199,3.40122 11.87886,-10.15469 11.79552,-16.57563 -0.0553,-5.61842 0.0107,-10.71054 0,-15.45113 5.95658,9.50309 11.72249,19.16445 17.17229,28.94485 3.37703,-1.78792 2.21954,-20.89383 0.0835,-23.53071 -5.70597,-9.56693 -13.01316,-19.90578 -18.67278,-27.90365 -1.11855,-10.095194 -2.64158,-22.006404 -3.33443,-25.654718 -1.07955,-5.690176 -2.16086,-14.237515 -3.7929,-20.990222 -0.4477,-2.636892 -1.79892,-11.059475 -1.37546,-11.869471 0.66547,-1.884642 3.17997,0.06024 4.41812,-2.124011 1.85385,-2.018965 -6.42602,-23.453567 -10.62848,-29.569557 -1.51103,-2.741657 -4.24374,-1.792952 -7.6275,2.665424 -3.13774,2.93374 -1.98974,9.626703 -0.79191,15.99255 3.11133,16.224202 5.8885,32.747597 8.08598,49.227068 -4.06813,-6.042918 -9.03291,-13.355471 -13.92123,-20.407161 -0.13137,-0.680029 -0.62521,-3.172282 -0.62521,-3.206838 -2e-5,-0.291504 -0.67367,-13.272431 -1.2504,-16.367376 -0.10084,-1.255988 -0.4005,-1.617513 0.91696,-1.457654 1.39682,1.174039 1.58666,1.23737 2.45914,1.624243 1.41022,0.257906 2.64324,-2.124304 1.79225,-4.331316 -4.36247,-8.039588 -8.72519,-16.115825 -13.0876,-24.155413 -0.52498,-0.516507 -1.11369,-1.060679 -1.79226,-1.166123 z m -406.17457,0.416471 c -2.41719,-0.06903 -5.08402,1.428122 -4.04299,4.331316 -0.6063,1.582383 4.7315,6.931305 5.66852,9.870403 0.84022,2.092851 -0.83338,8.831978 0.91696,9.453929 1.6092,0.697168 3.82528,-4.665134 4.66821,-9.620518 0.46648,-2.71479 0.1135,-12.005396 -6.21037,-13.910187 -0.32399,-0.07317 -0.65502,-0.115014 -1.00033,-0.124875 z m 462.69306,0.04159 c -0.551,0.05464 -1.22205,0.944387 -2.25073,3.123544 -2.47367,4.048675 -3.32488,11.297978 -2.3341,17.700089 5.9555,40.251688 10.3812,79.228381 11.29537,114.904811 -0.5122,3.38644 -0.66172,5.18765 -2.25075,9.45393 -3.5155,4.50272 -7.39266,10.1475 -11.04527,12.869 -3.65129,2.72015 -11.42208,5.31365 -13.9629,7.32992 -8.06072,4.65583 -8.10129,10.01014 -1.58385,10.20358 11.23206,-1.30297 24.52263,-2.22383 33.67768,-16.0342 2.44944,-3.86999 5.33374,-14.36106 5.46013,-20.78198 0.85633,-37.64568 -0.48208,-74.452656 -6.12701,-101.66098 -0.36163,-2.650313 -1.53271,-8.741995 -1.08369,-9.537225 0.72728,-1.863145 4.40215,0.186473 5.71019,-1.957421 1.91977,-1.958514 -9.50361,-16.573719 -13.50441,-22.822702 -0.7993,-1.569388 -1.29222,-2.860653 -2.00066,-2.790366 z M 563.96911,15.03983 c -0.4638,0.07996 -1.14856,0.785301 -2.41746,2.457188 -3.13775,10.250638 -4.24048,18.622512 -3.04266,24.988359 8.05942,42.026157 16.31701,80.313113 15.00491,120.318953 3.82199,0.0255 8.24084,-8.73627 10.12831,-17.40857 1.03381,-11.94585 -0.68977,-19.21638 -1.00032,-26.23776 -0.30919,-7.02137 -7.95443,-63.988345 -9.50311,-69.301056 -1.86864,-10.04512 7.43375,-1.321358 6.41876,-7.16333 -3.21568,-7.365261 -11.24191,-18.090505 -13.7545,-24.488591 -0.94441,-1.713537 -1.06092,-3.298424 -1.83393,-3.165193 z m -286.80217,0.791298 c -0.99046,0.17144 -1.94626,0.986953 -2.29242,2.332247 -0.21779,0.881203 0.38175,2.34708 -0.4168,2.790366 -0.45841,0.462092 -2.19829,0.151503 -2.1257,-2.290599 0,-0.777758 -0.57147,-1.589379 -0.91697,-2.082363 -0.34684,-0.227015 -0.58091,-0.291531 -1.20873,-0.291531 -0.76494,0.03092 -0.74759,0.232492 -1.16705,0.874592 -0.17744,0.654242 -0.4168,1.299289 -0.4168,2.040783 -0.0955,0.869114 -0.44379,1.163458 -1.08369,1.291066 -0.7152,0 -0.54593,0.07783 -1.12537,-0.291531 -0.34414,-0.376119 -0.75024,-0.524024 -0.75024,-1.166124 0,-0.664917 -0.17482,-1.726396 -0.37513,-2.165658 -0.30379,-0.400294 -0.78391,-0.60861 -1.33377,-0.749651 -2.99654,0.01067 -3.21473,3.451512 -3.04265,4.747789 -0.22451,0.244472 -0.33562,6.342686 3.75122,8.037923 5.48632,2.614035 15.77393,1.508924 15.33835,-7.32992 2e-5,-0.781796 -0.1721,-3.407106 -0.25007,-4.12308 -0.55994,-1.302992 -1.59373,-1.795682 -2.58418,-1.624242 z m 73.60741,0.08329 c -1.89604,0.09662 -3.5699,0.639581 -5.00163,1.374358 -3.63649,3.479112 -4.48902,9.056702 -1.62554,12.535828 2.78687,1.31508 5.56745,4.117896 3.70955,5.664027 -7.8809,8.410829 -28.39217,22.465242 -29.42629,25.030007 -0.008,0.02092 -0.0372,0.06411 -0.0416,0.08329 -0.003,0.01839 2e-4,0.06664 0,0.08329 6.2e-4,0.008 -9.5e-4,0.03412 0,0.04159 0.007,0.02118 0.0285,0.06611 0.0416,0.08329 0.006,0.0053 0.0357,0.03679 0.0416,0.04159 0.007,0.004 0.0343,-0.004 0.0416,0 0.008,0.004 0.0327,0.03865 0.0416,0.04158 0.009,0.0027 0.0311,-0.0027 0.0416,0 0.003,0.0027 0.0382,0.03865 0.0416,0.04158 1.04231,0.698556 13.87655,0.68203 15.29667,0.04159 0.0107,-0.0053 0.0331,-0.03612 0.0416,-0.04159 0.004,-0.0027 0.0381,0.0027 0.0416,0 0.003,-0.0027 -0.003,-0.03879 0,-0.04158 4.41085,-1.62403 25.34164,-25.529774 25.34164,-25.529774 -1.08491,-0.928194 -2.08415,-1.612274 -3.16771,-2.540482 -1.16153,-1.004772 -1.04457,-1.992485 0,-2.998604 5.18384,-3.014343 3.54114,-9.64644 0.83361,-12.660769 -2.2444,-1.005465 -4.35599,-1.345972 -6.25205,-1.249417 z m 192.39629,0.08329 c -0.55101,0.05464 -1.22205,0.902738 -2.25073,3.081897 -2.47362,4.048674 -4.15457,11.099164 -3.95963,17.700089 5.35859,37.068065 7.00139,69.505936 10.50343,106.575356 0.28501,3.58524 -0.24098,8.7932 -2.62586,10.86993 -8.82165,9.20421 -21.54105,20.5556 -35.38658,25.77966 -1.48954,1.67104 3.70369,8.79429 10.42008,8.78757 11.23211,-1.30299 21.10484,-7.60206 30.2599,-24.19706 2.44809,-3.87002 6.75087,-12.15375 6.87725,-18.57468 0.85635,-37.6457 -1.89917,-66.914481 -7.54414,-94.122819 -0.36164,-2.6503 -0.11563,-5.785039 0.33344,-6.580268 0.7273,-0.867756 3.19341,0.01986 4.50148,-2.124012 1.91972,-1.958514 -5.12718,-18.197961 -9.12798,-24.446944 -0.79931,-1.569389 -1.29223,-2.819006 -2.00066,-2.748719 z M 245.11478,17.12225 c -1.55025,0.181115 -3.00856,1.442328 -3.70955,3.123544 -0.25947,5.945392 -0.29436,11.887624 0.37513,17.366911 2.70618,9.609883 3.56316,18.062719 4.87659,27.903667 0.3643,13.1817 -7.61804,5.702158 -7.25237,-0.832944 1.84309,-8.48826 1.34567,-21.851808 -0.29176,-25.238244 -1.29866,-3.386422 -2.8024,-4.222419 -5.96029,-3.664959 -2.50722,-0.153129 -8.98435,6.898812 -10.7952,18.57468 2e-5,-1.4e-5 -1.50864,5.992516 -2.16737,11.328056 -0.88592,6.030045 -4.88367,10.300242 -7.66918,-0.832944 -2.40777,-8.091978 -3.88752,-28.029357 -7.91926,-23.364117 -1.1548,15.567375 -2.52603,42.960174 10.71184,45.770345 16.01128,1.53807 7.16708,-27.045854 12.96258,-32.234983 1.09565,-2.564339 3.12605,-2.609931 3.29275,0.624708 0,8.090645 0,16.189726 0,24.280356 -0.14653,7.893163 5.05189,10.238711 9.08629,11.869471 4.19842,-0.323742 6.98235,-0.209063 8.62783,3.873196 0.65605,13.995737 1.34462,28.026357 2.00066,42.022087 0,0 9.70618,2.78702 10.17,-23.61399 0.46516,-15.501562 -3.08945,-28.511311 -1.00033,-31.526985 0.074,-2.963314 3.87526,-3.109926 6.50212,-1.665891 4.18499,2.949865 6.04178,6.58008 12.54577,5.122614 9.89713,-2.724185 15.85871,-7.524335 16.00523,-15.117958 -0.57808,-7.216145 -1.41348,-14.440433 -4.54315,-21.656578 0.43694,-1.312389 -1.89437,-4.726452 -1.45881,-6.038854 1.77858,2.783303 4.46929,2.552251 5.08502,0 -1.68451,-5.546442 -4.30708,-10.86082 -8.54449,-13.160536 -3.50203,-3.082857 -8.62671,-2.43084 -10.50343,3.998138 -0.8698,7.408242 2.68706,16.188259 8.08599,23.364116 1.14673,2.803441 2.75081,7.466149 2.04233,11.661235 -2.8729,1.637477 -5.72127,0.95622 -8.12767,-1.582597 2e-5,-1.4e-5 -7.87757,-5.892588 -7.87757,-7.204977 2.09048,-13.373783 0.45028,-14.904817 -0.70857,-18.616328 -0.80929,-5.123306 -3.23922,-6.745951 -5.21003,-10.245226 -1.97083,-2.087468 -4.64414,-2.087468 -5.91861,0 -3.48186,6.031376 -1.8484,18.981144 0.66688,24.780122 1.81758,5.334223 4.60484,8.662632 3.29275,8.662632 -1.08085,3.014342 -3.33464,2.312989 -4.95996,-1.166123 -2.32036,-7.190638 -2.79258,-17.907606 -2.79258,-22.739407 -0.69638,-5.98973 -1.47274,-18.784677 -5.41843,-22.031404 -1.0528,-1.432787 -2.2954,-1.931701 -3.50115,-1.790833 z m 56.22673,0.08329 c -0.79458,0.100354 -1.6729,0.552343 -2.70922,0.791298 -3.40392,1.082695 -6.59073,4.023046 -5.58517,9.745461 4.02367,24.431739 6.64652,43.077119 10.67017,67.510217 0.61845,2.861219 -1.78189,6.632604 -4.87659,6.247094 -5.2618,-3.557015 -6.56781,-10.761085 -15.54676,-10.453468 -6.49995,0.07796 -13.91193,7.145393 -14.83818,13.951828 -1.08355,5.40942 -1.46937,11.27492 0,15.99256 4.56813,5.48867 10.04016,4.90347 14.83818,3.66496 3.94568,-1.6227 7.19205,-5.50808 8.58614,-4.5812 0.004,0.004 0.0381,-0.006 0.0416,0 0.004,0.006 -0.004,0.036 0,0.0416 0.8604,1.50271 -0.0812,14.21107 -18.58941,24.03048 -11.37457,5.10316 -20.42801,6.32249 -25.29996,-2.95695 -3.01807,-5.79899 0.21958,-27.88556 -7.21068,-22.78107 -21.9735,56.59682 51.48024,64.49699 59.6862,2.33225 0.53142,-1.75375 2.15018,-3.51332 3.29273,-3.0819 0.50137,0.21335 0.9603,0.89362 1.12537,2.16566 -1.70329,56.28653 -56.82624,60.1458 -66.18832,42.43857 -2.32036,-4.1736 -3.01849,-13.46486 -3.25106,-19.0328 -0.42436,-3.36841 -1.27025,-5.31141 -2.25075,-6.0805 -2.23339,-1.67678 -5.23464,2.69614 -5.87692,10.28687 -0.92892,6.10792 -0.66688,7.78473 -0.66688,13.66031 2.94013,44.45751 73.87508,25.35583 85.40294,-11.36971 5.70686,-18.98564 -0.11617,-33.30834 1.79226,-35.067 0.0165,-0.0138 0.0658,-0.0296 0.0834,-0.0416 0.0181,-0.0107 0.064,-0.0323 0.0834,-0.0416 0.0199,-0.008 0.0622,-0.035 0.0835,-0.0416 0.0649,-0.0173 0.17401,-0.0406 0.25008,-0.0416 7.04174,7.57886 16.92248,0.96293 19.08957,-1.6659 0.92895,-1.31507 3.25262,-2.15873 4.87661,-0.45811 5.49305,3.94522 15.1208,2.08551 17.13061,-4.87273 1.16151,-6.80375 2.14321,-13.807662 2.37577,-21.073517 -3.57808,1.110042 -6.46541,1.941243 -7.6275,3.165192 -0.27675,0.30198 -0.48145,0.636957 -0.54185,0.999535 -0.31053,2.010903 -0.60643,4.02795 -0.91696,6.038855 -0.0332,0.16623 -0.0868,0.3198 -0.16672,0.45812 -0.15251,0.24683 -0.40462,0.47446 -0.66689,0.62471 -1.26497,0.69011 -3.47075,0.29547 -3.58449,-1.540952 -1.70197,-7.731958 -8.70636,-8.737689 -12.96259,3.248482 -2.86349,2.318505 -8.08471,2.771105 -8.62782,-0.708 0.6964,-8.040932 -2.54601,-9.120269 -9.04463,-5.330849 -2.08915,-15.927379 -4.16157,-31.134015 -6.25204,-47.06141 2.70887,-0.07796 5.19287,1.884483 7.66918,-1.207771 -2.6798,-8.327706 -8.35031,-25.272467 -11.54545,-26.862485 -0.0251,-0.012 -0.0586,-0.03198 -0.0834,-0.04159 -0.14507,-0.173919 -0.3167,-0.334123 -0.45849,-0.458119 -0.0589,-0.04997 -0.14979,-0.124342 -0.2084,-0.166589 -0.0587,-0.04065 -0.15007,-0.09156 -0.20841,-0.124875 -0.1283,-0.07037 -0.28869,-0.127673 -0.4168,-0.166589 -0.2913,-0.0825 -0.57431,-0.121277 -0.87529,-0.08329 z m 219.19672,0.124876 c -2.81105,-0.08329 -5.92147,1.686827 -4.70987,5.205907 -0.70577,1.91956 6.03975,8.430674 7.12733,11.994414 1.95738,5.475249 -1.49488,10.698069 0.54185,11.452998 1.87401,0.844926 4.48139,-5.652701 5.46012,-11.661234 1.13059,-4.857338 -2.33742,-14.811914 -7.25237,-16.867144 -0.37675,-0.08863 -0.76547,-0.113013 -1.16706,-0.124874 z m -170.76421,5.997216 c 1.28015,-0.130339 2.82692,1.04494 3.58451,2.707072 0.80811,1.772947 0.40279,3.466919 -0.91697,3.789901 -1.31973,0.322997 -3.02649,-0.850829 -3.83459,-2.623776 -0.80808,-1.772949 -0.40278,-3.508566 0.91697,-3.831549 0.0825,-0.02025 0.16474,-0.03292 0.25008,-0.04159 z m 316.77033,8.204511 c -2.56287,-0.0897 -5.35595,1.85463 -4.2514,5.664029 -0.64261,2.078072 5.46967,9.136024 6.46045,12.993946 0.8913,2.745695 -1.35643,11.594146 0.50016,12.410885 1.70868,0.914775 4.11037,-6.113565 5.00164,-12.619121 0.49472,-3.561061 -2.14643,-16.05732 -6.62716,-18.28315 -0.34349,-0.09582 -0.71758,-0.153768 -1.08369,-0.166589 z m -175.14064,4.331316 c 0.2344,1.044261 0.46868,2.095491 0.62519,3.165193 0.52527,2.307871 0.97807,4.600203 1.45882,6.871798 -2.02319,-2.783651 -3.69787,-5.032695 -4.41811,-5.830617 -4.57796,-5.436161 0.1031,-3.569857 2.3341,-4.206374 z m 40.34652,19.824099 c -0.99046,0.171439 -1.94623,1.028587 -2.29241,2.373894 -0.21779,0.881189 0.42342,2.305432 -0.37513,2.748719 -0.45841,0.462091 -2.23996,0.193136 -2.16737,-2.248952 -10e-6,-0.777772 -0.57147,-1.631014 -0.91697,-2.124011 -0.34682,-0.227028 -0.5809,-0.29153 -1.20872,-0.29153 -0.76496,0.03092 -0.74762,0.232504 -1.16705,0.874591 -0.17744,0.654189 -0.4168,1.299222 -0.4168,2.040717 -0.0955,0.869115 -0.4021,1.163444 -1.04201,1.291065 -0.7152,0 -0.58764,0.07783 -1.16706,-0.291531 -0.34417,-0.376105 -0.75024,-0.524035 -0.75024,-1.166124 2e-5,-0.664929 -0.17481,-1.726408 -0.37512,-2.165658 -0.30384,-0.400305 -0.78394,-0.566948 -1.33377,-0.708003 -2.99657,0.01067 -3.17307,3.409866 -3.00098,4.706142 -0.22453,0.244472 -0.37729,6.384332 3.70955,8.07957 5.4863,2.614035 15.81561,1.467275 15.38003,-7.371567 10e-6,-0.781796 -0.2138,-3.407106 -0.29176,-4.12308 -0.55994,-1.302992 -1.59373,-1.795683 -2.58419,-1.624242 z m -184.22694,1.832478 c -0.67649,-0.0689 -1.56331,0.179264 -2.58418,0.791298 -4.85179,2.6221 -6.73031,10.400303 -3.70955,14.95137 2.82181,4.008386 7.28337,2.540482 7.87759,2.540482 4.75361,0.593724 7.5858,-8.912514 7.5858,-8.912514 -10e-6,0 0.14314,-2.672835 -5.5018,2.373894 -2.37546,0.444633 -2.69854,-0.412608 -3.29274,-1.749184 -0.49474,-2.472983 -0.38841,-4.980521 0.75025,-7.454862 0.52597,-1.483483 0.003,-2.425723 -1.12537,-2.540484 z m 260.41853,1.207772 c -2.69344,-0.130873 -5.56018,1.611955 -6.29371,5.289202 0.0107,2.169416 0.98016,3.361594 0.79193,5.33085 -0.28096,1.125676 -1.4417,1.865892 -4.20972,0.541416 0.43288,-0.397616 -1.79226,-3.540006 -1.79225,-3.540019 -2.15904,-1.313734 -5.0422,0.0713 -6.91893,1.291065 -1.03247,1.875234 -1.79616,5.089443 -0.6252,8.371101 3.09872,5.721068 13.72823,15.483388 18.79781,15.576078 0.0942,-5.158238 0.59566,-12.017789 0.87529,-16.284082 0.11963,-1.610596 0.49769,-3.385569 2.04233,-3.789901 1.54332,-0.402985 4.22182,1.551478 4.25139,-0.124875 -0.28096,-3.281658 -0.93735,-8.124201 -2.79257,-10.411816 -0.95031,-1.406932 -2.51028,-2.170442 -4.12637,-2.248953 z M 392.3713,76.677779 c -0.0717,0.02625 -0.14256,0.08742 -0.2084,0.124876 -0.0323,0.01959 -0.0925,0.05984 -0.12498,0.08329 -0.53642,0.402387 -1.16944,1.331033 -2.58418,2.332247 -2.38625,2.712097 -2.81405,4.60071 -2.66753,10.036992 0.13576,0.575024 4.53011,12.783296 8.2527,21.365046 2.50992,8.91943 4.83201,19.13209 3.12602,28.77825 -5.87618,12.75187 -17.69003,24.18845 -29.09286,30.40251 -5.80951,1.85916 -10.8268,1.22601 -12.17064,-0.0416 -0.0107,-0.0107 -0.032,-0.0315 -0.0416,-0.0416 -3.33626,-2.24141 -3.41285,-6.23119 -3.20939,-6.91344 -6e-5,-0.004 2.3e-4,-0.037 0,-0.0416 0.008,-0.008 0.034,-0.0344 0.0416,-0.0416 9.62154,-6.6963 20.61268,-12.11628 29.21789,-30.19427 2.54085,-6.90854 3.31661,-11.05669 0.79193,-21.73987 -0.9842,-3.98051 -2.19989,-7.25611 -4.91827,-10.07864 0.007,-0.008 0.0346,-0.0343 0.0416,-0.0416 1.63787,-0.782988 5.88739,2.34514 6.54382,0.37482 -1.00557,-5.100461 -4.46296,-11.947817 -8.37775,-15.451132 -3.42809,-3.111058 -7.15732,-3.47113 -10.29504,-0.624708 -3.5343,1.96523 -4.28611,9.023449 -2.58417,15.20125 1.89017,4.65047 6.99333,5.46639 10.62848,14.82643 -7e-5,0.009 -3.2e-4,0.0386 0,0.0416 0.0758,0.58688 1.24755,6.98666 -0.58353,9.57887 -1.48594,4.63014 -20.57256,19.66894 -21.92384,20.57376 -0.015,0.015 -0.11057,0.0691 -0.12497,0.0833 -0.008,0.008 -0.0346,0.0347 -0.0416,0.0416 -0.004,0.003 -0.0328,0.0327 -0.0416,0.0416 -0.004,0.004 -0.0379,0.0373 -0.0416,0.0416 -0.004,0 -0.0371,2.3e-4 -0.0416,0 -0.003,-1e-4 -0.0321,-1.4e-4 -0.0416,0 -0.008,-0.007 -0.0343,-0.0338 -0.0416,-0.0416 3.1e-4,-0.004 -10e-5,-0.0379 0,-0.0416 -0.008,-0.0144 -0.0341,-0.0683 -0.0416,-0.0834 -0.0575,-0.37549 0.0435,-1.33148 0,-2.87365 -0.12538,-2.81791 1.04186,-9.1929 0.95864,-10.28688 4e-5,-0.004 -1.2e-4,-0.0374 0,-0.0416 -0.008,-0.008 -0.0338,-0.0343 -0.0416,-0.0416 6e-5,-0.004 -2.1e-4,-0.037 0,-0.0416 -0.009,1.9e-4 -0.0403,1.3e-4 -0.0416,0 -6.30903,4.07019 -8.39267,16.54655 -9.54478,20.24058 -15.97229,11.02705 -34.10927,19.23037 -44.55625,30.4025 -5.44058,8.48958 37.48469,-9.74843 42.47224,-11.95276 0.0428,0.0321 0.0855,0.084 0.12497,0.12487 0.94816,1.04268 1.02915,4.67828 3.87627,7.95463 4.46189,6.03943 13.94525,9.75862 23.17424,7.45486 15.4762,-5.58942 24.3922,-16.12838 33.46929,-27.82037 1.29731,-1.88598 3.33062,-3.3719 5.21004,-1.91578 6.23782,13.95408 24.22323,23.88281 47.47387,24.90506 5.3801,-6.53778 2.80708,-9.75234 0.62519,-11.11982 -0.67209,-0.44627 -11.56356,-4.68897 -13.25432,-8.91251 -1.06474,-3.93046 1.524,-7.41623 6.71052,-10.03699 14.92907,-1.80403 29.60423,-3.80795 43.806,-8.3711 0.14384,-4.76735 2.95415,-11.89674 4.83492,-14.99301 1.30588,-2.14835 2.14543,-2.361 2.45914,-2.66543 0.0107,-0.0107 0.0328,-0.0307 0.0416,-0.0416 0.004,-0.006 0.0379,-0.0359 0.0416,-0.0416 0.008,-0.007 0.0341,-0.0343 0.0416,-0.0416 2e-5,-0.0143 5.5e-4,-0.0685 0,-0.0833 0.008,-0.0944 -6.6e-4,-0.25685 -0.0416,-0.41647 l -2.41748,-1.41601 -47.64058,-0.20823 c -0.58852,-0.22638 -1.02607,-0.45362 -1.29209,-0.66636 -0.0203,-0.017 -0.0652,-0.0665 -0.0834,-0.0833 -0.008,-0.008 -0.0337,-0.0333 -0.0416,-0.0416 -0.008,-0.008 -0.0348,-0.0334 -0.0416,-0.0416 -0.007,-0.0145 -0.0351,-0.0688 -0.0416,-0.0834 -0.004,-0.004 -0.0369,-0.0372 -0.0416,-0.0416 7e-5,-0.004 -3.9e-4,-0.0372 0,-0.0416 -0.004,-0.004 -0.0368,-0.0372 -0.0416,-0.0416 3e-5,-0.004 -2.4e-4,-0.0372 0,-0.0416 2e-5,-0.004 -1.7e-4,-0.0372 0,-0.0416 0,-0.004 -1.1e-4,-0.0372 0,-0.0416 -4.4e-4,-0.007 1.6e-4,-0.0353 0,-0.0416 1.8e-4,-0.003 1.2e-4,-0.0328 0,-0.0416 -7e-5,-0.004 1.3e-4,-0.0372 0,-0.0416 -8e-5,-0.004 1.9e-4,-0.0372 0,-0.0416 -9e-5,-0.004 2.5e-4,-0.0372 0,-0.0416 0.008,-0.008 0.0339,-0.0341 0.0416,-0.0416 0.0107,-0.022 0.0272,-0.0616 0.0416,-0.0834 0.2326,-0.3132 0.79628,-0.60841 1.5005,-0.8746 11.37592,-1.54879 31.58576,-4.85907 32.92743,-24.280348 -0.20973,-10.116314 -4.33227,-16.739749 -16.75548,-18.57468 -9.12816,0.705244 -15.63804,9.527695 -14.58811,19.24104 -0.4369,2.61538 0.8857,7.747798 -1.79225,8.329448 -17.51024,1.59852 -36.62094,12.561 -37.26219,20.40715 -0.004,-6.9e-4 -0.038,1.9e-4 -0.0416,0 -0.007,0.008 -0.0344,0.0341 -0.0416,0.0416 -0.0134,0.007 -0.0614,0.0308 -0.0834,0.0416 -0.0145,-2e-4 -0.0687,5.2e-4 -0.0835,0 -0.0281,0.009 -0.0963,0.0343 -0.12498,0.0416 -0.008,7.2e-4 -0.0309,-1.5e-4 -0.0416,0 -0.0237,-3.7e-4 -0.0676,0 -0.0834,0 -0.008,-2.5e-4 -0.0309,-2.6e-4 -0.0416,0 -0.0176,4.4e-4 -0.0689,7e-4 -0.0834,0 -0.0452,-0.009 -0.1275,-0.0317 -0.16672,-0.0416 -1.13882,-0.31604 -2.60596,-2.19396 -2.37577,-4.83108 -0.66681,-13.56321 -5.08453,-28.910067 -12.00393,-40.731027 -2.46917,-2.466623 -3.54498,-3.466079 -4.25139,-3.581664 -0.0228,-0.0027 -0.0613,10e-4 -0.0834,0 -0.0291,-1.2e-4 -0.0875,3.33e-4 -0.12497,0 -0.007,1.86e-4 -0.0351,-5.34e-4 -0.0416,0 -0.004,-1.2e-4 -0.0377,3.33e-4 -0.0416,0 -0.006,0.0013 -0.0366,-0.0013 -0.0416,0 z m 45.59824,7.16333 c -0.99045,0.17144 -1.94622,0.98694 -2.2924,2.332246 -0.21777,0.881204 0.42341,2.347081 -0.37512,2.790368 -0.45844,0.462091 -2.23999,0.193149 -2.16738,-2.248952 0,-0.777758 -0.57146,-1.631028 -0.91697,-2.124012 -0.34683,-0.227014 -0.53923,-0.29153 -1.16705,-0.29153 -0.76495,0.03092 -0.7893,0.232491 -1.20872,0.874592 -0.17748,0.654162 -0.41681,1.299221 -0.41681,2.040717 -0.0955,0.869115 -0.40209,1.163457 -1.04201,1.291065 -0.71521,0 -0.54595,0.07783 -1.12537,-0.291532 -0.34414,-0.376117 -0.79193,-0.524022 -0.79193,-1.166123 -10e-6,-0.66493 -0.1331,-1.726395 -0.33343,-2.165658 -0.30382,-0.400293 -0.82563,-0.566962 -1.37544,-0.708003 -2.99662,0.01067 -3.17308,3.409879 -3.001,4.706141 -0.22451,0.244486 -0.37729,6.384332 3.70955,8.079567 5.48632,2.61405 18.56078,1.07503 15.38003,-7.371563 -10e-6,-0.781796 -0.21379,-3.407106 -0.29176,-4.12308 -0.55991,-1.302993 -1.59371,-1.795683 -2.58419,-1.624243 z m 184.01856,7.538155 c -0.13791,-0.02479 -0.29658,-0.0152 -0.45849,0.04159 0,0 -25.41967,18.069626 -26.05018,18.699626 -2.52067,2.23926 -1.25965,10.11345 0,9.20404 1.82161,0.69985 27.4148,-16.62959 26.92547,-18.65797 1.11539,0.0654 1.65183,-8.914744 -0.4168,-9.287344 z m -159.96902,2.707139 c 1.03751,-0.109949 2.39846,0.241794 3.70955,0.999535 1.89766,1.096729 3.06743,2.752957 2.91763,3.956487 -0.006,0.0327 0.007,0.093 0,0.12488 -0.008,0.0317 -0.074,0.094 -0.0835,0.12487 -0.0107,0.0307 -0.0295,0.095 -0.0416,0.12488 -0.008,0.0197 -0.0321,0.064 -0.0416,0.0833 -0.009,0.0192 -0.0308,0.0645 -0.0416,0.0833 -0.0622,0.10169 -0.16483,0.20841 -0.25008,0.29153 -0.91224,0.851295 -3.01773,0.730125 -5.00164,-0.41647 -1.8804,-1.08675 -3.04228,-2.75611 -2.91761,-3.956489 0.004,-0.03279 0.0356,-0.09276 0.0416,-0.124875 0.0315,-0.14897 0.0907,-0.284854 0.16671,-0.416473 0.0272,-0.04705 0.0512,-0.123408 0.0834,-0.166588 0.007,-0.008 0.0348,-0.03332 0.0416,-0.04158 0.0561,-0.0653 0.14067,-0.152715 0.20841,-0.208237 0.30237,-0.237609 0.73093,-0.407476 1.20872,-0.45812 z m -222.6145,4.581202 c -13.172,0.24046 -32.46096,17.252575 -32.96912,26.695905 13.89929,-6.66943 27.55113,-13.08886 41.6803,-19.9907 -2.28002,-3.4012 -0.13821,-6.466095 -8.71118,-6.705205 z m 42.68063,5.913905 c 1.29122,0.0145 2.65304,0.65161 3.3761,2.45719 0.65068,1.6563 0.0308,3.38831 -0.75024,4.24802 -0.004,0.007 0.004,0.035 0,0.0416 -0.012,0.0192 -0.0287,0.0654 -0.0416,0.0834 -0.55284,0.71172 -2.4937,0.41647 -3.87626,0.41647 -1.67238,-0.0739 -2.49691,-0.34812 -3.50114,-1.70754 -0.47993,-1.5112 0.98157,-2.99605 1.62553,-4.12308 0.007,-0.0107 0.0351,-0.0312 0.0416,-0.0416 0.0699,-0.10501 0.18407,-0.23091 0.29176,-0.33318 0.50017,-0.45774 1.36511,-0.88562 2.29243,-0.99953 0.18031,-0.0222 0.35737,-0.0438 0.54183,-0.0416 z m 334.98461,5.24756 c -2.34206,0.28859 -4.56847,2.50156 -3.54283,6.03886 -0.64262,2.07807 3.17725,9.34427 4.16804,13.20217 0.89131,2.74569 -1.148,10.51134 0.70856,11.32805 1.70866,0.9148 6.20227,-4.61029 6.04364,-11.53629 0.49473,-3.56106 -1.27113,-16.68203 -5.75188,-18.90786 -0.51522,-0.14381 -1.08506,-0.19153 -1.62553,-0.12487 z m -284.50977,12.82736 c -2.07002,0.14457 -3.91714,1.25013 -3.08433,4.16473 -0.12497,2.11432 5.84872,4.68524 6.21036,9.57886 0.85366,2.01762 -1.27708,8.47864 0.50018,9.07909 1.63203,0.67165 3.89654,-4.46625 4.75154,-9.24567 0.47321,-2.61807 -2.04959,-11.77566 -6.33541,-13.41042 -0.65772,-0.14139 -1.35232,-0.21478 -2.04234,-0.16659 z m 85.15287,11.61958 c 0.15709,-0.0106 0.29559,9.5e-4 0.45849,0 0.0274,-1.7e-4 0.0559,-1.2e-4 0.0834,0 5.30753,1.44132 13.1315,1.59073 19.92319,2.29059 5.53203,0.35061 8.26549,4.67817 3.08435,6.49699 -5.11122,1.749 -10.02209,3.11507 -10.04495,10.49512 0.67189,3.6557 0.52957,5.57418 -0.0416,6.45532 -0.0446,0.0661 -0.11712,0.15394 -0.16674,0.20823 -0.007,0.008 -0.0344,0.0344 -0.0416,0.0416 -0.008,0.007 -0.0341,0.0348 -0.0416,0.0416 -0.008,0.007 -0.034,0.0353 -0.0416,0.0416 -0.008,0.008 -0.0343,0.0343 -0.0416,0.0416 -0.0147,0.007 -0.0686,0.0345 -0.0834,0.0416 -0.0744,0.0461 -0.16914,0.0953 -0.25009,0.12487 -0.0715,0.0242 -0.17404,0.0289 -0.25008,0.0416 -1.21499,0.17805 -2.97968,-0.97968 -4.29307,-1.66589 -3.15114,-2.26075 -11.99467,-7.73713 -13.25434,-19.49092 -0.17923,-2.65243 1.80777,-4.93953 5.00163,-5.16426 z m -207.98472,9.03745 c -0.33154,0.0107 -0.99505,1.00035 -1.87562,2.12402 -7.83624,12.47377 -8.53314,31.09374 -4.2097,36.6496 2.29751,2.6248 6.08567,3.77904 8.8779,2.95695 4.92302,-2.13315 7.08685,-12.09698 5.9186,-15.74266 -1.64279,-2.56972 -2.94472,-2.97683 -4.58484,-0.7913 -3.46439,7.02809 -4.90619,2.22025 -5.21002,-1.70754 -0.53103,-7.44852 0.19102,-14.30854 1.00032,-19.7408 0.43086,-2.78397 0.41491,-3.75867 0.0834,-3.74826 z m 266.96235,16.36738 c -0.5827,-0.0312 -1.2041,0.0599 -1.83394,0.37482 -0.12363,0 -5.60958,3.70694 -7.3774,6.28874 -1.07818,0.81942 -0.95593,1.53172 -0.62521,2.95696 0.84022,1.93031 2.32089,1.32452 4.00131,0.41647 2.2303,-0.30359 3.30887,1.15574 3.12603,3.83155 -1.02978,3.33673 0.45846,4.57987 0.45848,4.78943 0,0.20957 2.14751,2.05127 4.66819,0.58307 5.32096,-2.02971 8.63684,-4.00372 16.0886,-5.62238 1.95603,-0.0389 1.84295,-5.26909 -1.25041,-5.4558 -4.03575,0.20284 -7.75977,0.40882 -11.79553,3.58166 -2.48302,0.57359 -2.90827,-0.93655 -3.45946,-2.2906 -0.6305,-3.35956 1.41976,-5.7275 1.00032,-8.24615 0.11191,0.11075 -1.25283,-1.1142 -3.00098,-1.20777 z m 170.93093,6.37203 c -0.98995,0.031 -2.03242,0.16795 -3.54283,0.29153 -1.63335,0.34658 -2.20372,1.06158 -2.5008,3.04026 0.11696,3.0009 1.95383,2.8523 3.83458,4.03977 1.08896,1.38493 1.79739,2.63884 -0.0834,4.91438 -1.78262,1.63209 -3.05231,2.53264 -4.83492,4.16473 -0.84161,1.43465 -1.3657,3.63819 1.20873,4.33132 4.75359,1.33524 15.75514,-5.80646 15.75514,-5.95556 1.78262,-1.33524 1.19124,-3.8732 1.04202,-3.8732 -1.03917,-1.18748 -3.38437,-0.47426 -4.95996,-0.66636 -0.75016,0 -3.21325,-0.36435 -2.04232,-2.54048 0.97735,-1.35404 1.33788,-2.16319 2.00065,-3.83155 0.74207,-1.6321 0.0898,-2.7327 -2.58418,-3.62331 -1.36184,-0.24716 -2.3028,-0.32243 -3.29275,-0.29153 z" />
  <rect
     height="200"
     fill="#df0000"
     width="900"
     y="400" />
  <g
     id="g3239"
     transform="matrix(0.24985133,0,0,0.25091538,315.94464,217.43536)"
     style="fill:#000000">
    <path
       style="fill:#000000"
       transform="matrix(11.9122,0,0,12.4579,-2509.82,-6130.71)"
       d="m 266.186,534.45 -10.408,-7.432 -10.357,7.505 3.852,-12.196 -10.338,-7.531 12.79,-0.105 3.967,-12.159 4.052,12.131 12.79,0.016 -10.285,7.602 3.937,12.169 z" />
  </g>
</svg>
