<?xml version="1.0" encoding="UTF-8" standalone="no"?>
<!-- Created with Inkscape (http://www.inkscape.org/) -->
<svg
   xmlns:dc="http://purl.org/dc/elements/1.1/"
   xmlns:cc="http://web.resource.org/cc/"
   xmlns:rdf="http://www.w3.org/1999/02/22-rdf-syntax-ns#"
   xmlns:svg="http://www.w3.org/2000/svg"
   xmlns="http://www.w3.org/2000/svg"
   xmlns:sodipodi="http://inkscape.sourceforge.net/DTD/sodipodi-0.dtd"
   xmlns:inkscape="http://www.inkscape.org/namespaces/inkscape"
   height="496.06299"
   id="svg551"
   version="1.0"
   width="595.28000pt"
   x="0.0000000"
   y="0.0000000"
   sodipodi:version="0.32"
   inkscape:version="0.42"
   sodipodi:docname="srilanka.svg"
   sodipodi:docbase="/Users/daniel/Desktop"
   inkscape:export-filename="/Users/daniel/Desktop/srilanka.png"
   inkscape:export-xdpi="16.860001"
   inkscape:export-ydpi="16.860001">
  <sodipodi:namedview
     inkscape:window-height="507"
     inkscape:window-width="701"
     inkscape:pageshadow="2"
     inkscape:pageopacity="0.0"
     borderopacity="1.0"
     bordercolor="#666666"
     pagecolor="#ffffff"
     id="base"
     inkscape:zoom="0.61181747"
     inkscape:cx="406.55411"
     inkscape:cy="248.03149"
     inkscape:window-x="40"
     inkscape:window-y="62"
     inkscape:current-layer="svg551" />
  <metadata
     id="metadata3">
    <rdf:RDF>
      <cc:Work
         rdf:about="">
        <dc:title>Sri Lanka</dc:title>
        <dc:description />
        <dc:subject>
          <rdf:Bag>
            <rdf:li />
            <rdf:li>flags</rdf:li>
            <rdf:li>asia</rdf:li>
            <rdf:li>united_nations_member</rdf:li>
            <rdf:li>signs_and_symbols</rdf:li>
            <rdf:li>sign</rdf:li>
          </rdf:Bag>
        </dc:subject>
        <dc:publisher>
          <cc:Agent
             rdf:about="http://www.openclipart.org">
            <dc:title>Tobias Jakobs</dc:title>
          </cc:Agent>
        </dc:publisher>
        <dc:creator>
          <cc:Agent>
            <dc:title>Tobias Jakobs</dc:title>
          </cc:Agent>
        </dc:creator>
        <dc:rights>
          <cc:Agent>
            <dc:title>Tobias Jakobs</dc:title>
          </cc:Agent>
        </dc:rights>
        <dc:date />
        <dc:format>image/svg+xml</dc:format>
        <dc:type
           rdf:resource="http://purl.org/dc/dcmitype/StillImage" />
        <cc:license
           rdf:resource="http://web.resource.org/cc/PublicDomain" />
        <dc:language>en</dc:language>
      </cc:Work>
      <cc:License
         rdf:about="http://web.resource.org/cc/PublicDomain">
        <cc:permits
           rdf:resource="http://web.resource.org/cc/Reproduction" />
        <cc:permits
           rdf:resource="http://web.resource.org/cc/Distribution" />
        <cc:permits
           rdf:resource="http://web.resource.org/cc/DerivativeWorks" />
      </cc:License>
    </rdf:RDF>
  </metadata>
  <defs
     id="defs553" />
  <g
     id="g1330"
     transform="scale(0.750006,1.000000)">
    <rect
       y="5.5000000e-05"
       x="0.0000000"
       width="992.12598"
       style="font-size:12.000000px;fill:#ffcc00;fill-opacity:1.0000000;fill-rule:evenodd;stroke-width:1.0000000pt"
       id="rect628"
       height="496.06299" />
    <rect
       y="41.356457"
       x="197.41768"
       width="158.53691"
       style="font-size:12.000000px;fill:#ff6600;fill-opacity:1.0000000;fill-rule:evenodd;stroke-width:1.0000000pt"
       id="rect626"
       height="413.34998" />
    <rect
       y="41.356438"
       x="41.334991"
       width="156.21184"
       style="font-size:12.000000px;fill:#006600;fill-opacity:1.0000000;fill-rule:evenodd;stroke-width:1.0000000pt"
       id="rect625"
       height="413.41455" />
    <rect
       y="41.343300"
       x="397.33383"
       width="553.44647"
       style="font-size:12.000000px;fill:#991b33;fill-opacity:1.0000000;fill-rule:evenodd;stroke-width:1.0000000pt"
       id="rect627"
       height="413.42526" />
    <g
       transform="matrix(2.296320,0.000000,0.000000,2.296320,0.000000,-1.525879e-5)"
       id="g602">
      <path
         style="fill:#ffcc00;fill-opacity:1.0000000;fill-rule:evenodd;stroke:#991b33;stroke-width:1.0000000pt;stroke-linecap:round;stroke-linejoin:round;stroke-opacity:1.0000000"
         id="path579"
         d="M 267.94500,101.34500 L 271.50000,101.43600 C 271.50000,101.43600 267.49000,104.80800 268.40100,109.36500 C 272.59400,103.16800 274.14300,104.35200 274.14300,104.35200 C 272.86700,105.71900 270.40600,107.63300 272.32000,111.82600 C 273.96100,107.54200 277.33300,104.26100 277.33300,104.26100 C 277.33300,104.26100 276.42100,109.00000 278.42600,113.37500 C 279.88400,109.00000 282.34500,105.26400 282.34500,105.26400 C 282.34500,105.26400 281.98100,110.00300 284.07700,111.73400 C 285.71700,110.27600 286.81100,106.53900 286.81100,106.53900 C 286.81100,106.53900 289.91000,112.00800 291.82400,112.82800 C 293.37300,109.09100 293.37300,106.17500 293.37300,106.17500 C 293.37300,106.17500 299.75300,110.73200 304.85600,108.08900 C 300.29900,106.44900 298.75000,102.62100 298.75000,102.62100 C 298.75000,102.62100 307.04400,106.26600 310.59800,104.62600 C 307.13400,101.98200 299.02400,98.063700 299.02400,98.063700 C 299.02400,98.063700 305.03900,100.25100 306.77000,99.704200 C 305.95000,98.519400 303.30700,97.061100 303.30700,97.061100" />
      <path
         style="fill:#ffcc00;fill-opacity:1.0000000;stroke:none;stroke-width:1.0000000;stroke-linejoin:round;stroke-opacity:1.0000000"
         id="selection_to_path#1"
         d="M 317.72000,56.880000 C 328.71000,55.880000 345.69000,64.860000 354.69000,70.850000 C 354.69000,68.850000 354.69000,66.860000 356.68000,65.860000 C 358.68000,64.860000 361.68000,66.860000 360.68000,69.850000 C 357.68000,76.830000 345.69000,68.850000 341.70000,66.860000 C 341.70000,66.860000 343.70000,70.850000 343.70000,70.850000 C 337.70000,69.850000 336.70000,68.850000 332.71000,63.860000 C 331.71000,67.850000 331.71000,68.850000 326.71000,68.850000 C 328.59000,65.890000 329.22000,64.900000 326.71000,61.870000 C 326.71000,61.870000 325.71000,67.850000 325.71000,67.850000 C 325.71000,67.850000 320.72000,60.870000 320.72000,60.870000 C 320.72000,60.870000 320.72000,67.850000 320.72000,67.850000 C 319.72000,66.860000 315.72000,63.860000 313.72000,63.860000 C 310.73000,62.860000 308.73000,68.850000 307.73000,71.850000 C 310.73000,68.850000 311.72000,66.860000 316.72000,68.850000 C 314.01000,71.410000 314.80000,74.480000 317.72000,76.830000 C 317.72000,76.830000 318.24000,72.680000 318.56000,71.730000 C 320.15000,72.920000 323.52000,77.390000 327.71000,77.830000 C 330.71000,77.830000 333.71000,76.830000 336.70000,75.840000 C 346.69000,74.840000 368.67000,76.830000 363.68000,91.800000 C 362.68000,94.800000 361.68000,96.790000 359.68000,98.790000 C 373.67000,103.78000 361.68000,121.74000 358.68000,130.72000 C 356.68000,138.70000 358.07000,145.06000 367.92000,144.03000 C 365.93000,148.02000 362.68000,148.68000 358.68000,148.68000 C 358.68000,148.68000 359.18000,151.08000 361.75000,152.21000 C 357.48000,156.04000 363.23000,161.78000 360.68000,164.65000 C 356.38000,166.71000 350.69000,163.65000 350.69000,163.65000 C 350.69000,163.65000 350.41000,166.48000 350.41000,166.48000 C 350.41000,166.48000 342.86000,165.96000 342.70000,165.64000 C 342.70000,165.64000 344.85000,161.62000 344.69000,161.54000 C 342.69000,164.53000 340.78000,166.28000 336.70000,165.64000 C 336.70000,165.64000 337.02000,163.76000 339.25000,161.38000 C 336.22000,164.40000 335.89000,165.72000 332.71000,165.64000 C 332.71000,160.65000 335.70000,154.67000 341.70000,156.66000 C 342.70000,156.66000 345.85000,159.14000 347.33000,157.54000 C 348.53000,155.82000 347.82000,150.00000 347.82000,148.00000 C 348.45000,139.18000 346.69000,139.70000 341.70000,134.71000 C 337.70000,131.72000 334.77800,127.13600 329.78800,126.13600 C 324.78800,125.13600 316.72000,130.72000 312.72000,132.71000 C 302.73000,138.70000 293.74000,142.69000 282.75000,144.69000 C 282.75000,144.69000 282.96700,144.18000 282.96700,143.18200 C 282.96700,142.50900 293.75400,134.11300 295.64100,119.37200 C 292.68800,133.92100 282.20000,141.60700 281.80500,144.31000 C 281.41100,147.01400 279.26900,151.62700 279.00900,151.92900 C 280.30600,151.15100 284.46700,149.11200 289.74000,148.68000 C 288.60300,154.92900 282.75000,153.67000 281.75000,156.66000 C 281.75000,159.66000 285.75000,163.65000 281.75000,165.64000 C 281.75000,165.64000 265.77000,165.64000 265.77000,165.64000 C 265.77000,165.64000 268.22900,162.23600 268.34600,161.29800 C 266.19500,162.60300 264.83000,166.02800 260.11900,165.67700 C 260.29100,164.38900 262.54700,162.37200 262.16800,161.58000 C 259.47300,164.08000 258.20800,166.18700 254.77000,165.64000 C 255.77000,162.65000 255.77000,158.66000 259.77000,158.66000 C 262.77000,157.66000 265.77000,159.66000 267.76000,156.66000 C 271.76000,151.67000 267.03100,140.75400 266.04100,134.76400 C 266.04100,129.77400 266.05600,128.82800 264.77000,122.74000 C 264.77000,122.74000 265.77000,140.70000 265.77000,140.70000 C 261.77000,137.70000 257.77000,135.71000 254.77000,131.72000 C 247.78000,122.74000 249.78000,112.76000 258.77000,106.77000 C 262.77000,103.78000 264.93000,102.22000 269.93000,100.23000 C 268.93000,97.230000 271.35000,95.020000 267.81000,94.090000 C 266.75000,95.940000 265.71000,97.960000 263.69000,97.790000 C 263.69000,97.790000 264.77000,92.800000 264.77000,92.800000 C 264.77000,92.800000 261.17000,93.020000 261.88000,99.460000 C 257.74000,97.470000 259.77000,92.800000 259.77000,92.800000 C 259.77000,92.800000 257.77000,92.800000 257.77000,92.800000 C 257.77000,92.800000 257.76000,98.740000 254.50000,99.940000 C 255.38000,97.150000 255.77000,92.800000 255.77000,92.800000 C 255.77000,92.800000 250.42000,99.180000 247.31000,97.110000 C 249.14000,95.040000 250.56000,94.700000 250.31000,92.200000 C 250.07000,89.710000 248.78000,86.497500 248.54600,85.989700 C 249.67800,86.536600 257.21500,88.786500 261.94200,86.442800 C 261.62900,88.005300 261.77000,89.810000 261.77000,89.810000 C 266.76000,88.810000 267.76000,88.810000 272.76000,90.800000 C 271.76000,83.820000 267.76000,82.820000 263.77000,77.830000 C 263.77000,77.830000 263.77000,81.820000 263.77000,81.820000 C 259.77000,80.830000 258.77000,79.830000 256.77000,75.840000 C 256.77000,75.840000 253.78000,77.830000 253.78000,77.830000 C 248.51000,74.720000 244.62000,67.340000 252.10000,67.770000 C 256.56000,68.330000 252.78000,71.850000 252.78000,71.850000 C 252.78000,71.850000 264.22000,68.250000 268.76000,67.850000 C 268.76000,67.850000 267.44000,65.060000 263.22000,64.580000 C 266.72000,61.950000 270.24000,61.100000 272.76000,66.640000 C 275.27000,66.780000 277.61000,63.760000 276.12000,59.840000 C 279.83000,59.780000 281.66000,62.130000 283.35000,64.600000 C 284.73000,64.850000 286.12000,63.400000 285.79000,58.440000 C 289.29000,61.430000 291.01000,62.350000 291.24000,64.870000 C 294.22000,65.530000 296.24000,64.860000 300.73000,62.860000 C 299.74000,66.860000 299.74000,67.850000 295.74000,69.850000 C 298.56000,73.335000 298.85700,77.540700 298.26600,79.069600 C 297.28700,78.785900 297.04300,78.721600 296.34800,78.531800 C 296.56500,80.073500 296.87800,84.315000 296.74000,86.810000 C 296.74000,86.810000 294.74000,86.810000 294.74000,86.810000 C 294.74000,86.810000 297.74000,95.790000 297.74000,95.790000 C 297.74000,95.790000 295.74000,98.790000 295.74000,98.790000 C 302.73000,95.790000 309.73000,96.790000 316.72000,94.800000 C 324.71000,93.800000 332.71000,90.800000 341.70000,90.800000 C 347.69000,90.800000 347.69000,93.800000 355.69000,93.800000 C 355.69000,91.800000 355.69000,90.800000 355.69000,88.810000 C 355.69000,84.820000 352.69000,80.830000 347.69000,79.830000 C 344.70000,79.830000 339.70000,81.820000 336.70000,82.820000 C 332.71000,83.820000 326.71000,83.820000 322.71000,83.820000 C 309.73000,81.820000 311.80000,80.560000 307.27000,78.130000 C 304.56000,78.850000 303.04000,81.150000 301.69000,85.210000 C 299.18000,81.530000 299.74000,76.830000 302.73000,74.840000 C 299.74000,63.860000 307.73000,58.870000 317.72000,56.880000 z " />
      <path
         style="fill:#ffcc00;fill-opacity:1.0000000;stroke:#991b33;stroke-width:1.0000000;stroke-linejoin:round;stroke-opacity:1.0000000"
         id="selection_to_path"
         d="M 320.72000,146.69000 C 318.72000,143.69000 311.72000,138.70000 313.72000,133.71000 C 316.72000,128.72000 333.71000,120.74000 336.70000,131.72000 C 337.70000,134.71000 334.61800,142.64700 333.61800,145.64700 C 335.13100,145.25800 336.81300,142.93400 341.73700,143.77600 C 340.82000,147.69600 334.83000,150.71900 334.83000,150.71900 C 335.43800,153.37100 330.71000,165.64000 330.71000,165.64000 C 330.71000,165.64000 317.72000,165.64000 317.72000,165.64000 C 317.72000,165.64000 319.72000,161.65000 319.72000,161.65000 C 319.72000,161.65000 316.72000,165.64000 316.72000,165.64000 C 316.72000,165.64000 311.72000,165.64000 311.72000,165.64000 C 311.72000,165.64000 315.72000,160.65000 315.72000,160.65000 C 315.72000,160.65000 310.98900,166.19200 306.95700,165.97100 C 307.95700,157.99100 312.72000,156.66000 319.72000,159.66000 C 320.72000,155.67000 322.71000,150.68000 320.72000,146.69000 z " />
      <path
         style="fill:#ffcc00;fill-opacity:1.0000000;fill-rule:evenodd;stroke:#991b33;stroke-width:1.0000000pt;stroke-linecap:butt;stroke-linejoin:miter;stroke-opacity:1.0000000"
         id="path577"
         d="M 267.21700,71.542500 C 265.87000,72.371100 266.97000,77.852900 269.03900,76.919700 C 271.61800,75.756800 268.24000,70.912900 267.21700,71.542500 z " />
      <path
         style="fill:#ffcc00;fill-opacity:1.0000000;fill-rule:evenodd;stroke:#991b33;stroke-width:1.0000000pt;stroke-linecap:round;stroke-linejoin:round;stroke-opacity:1.0000000"
         id="path578"
         d="M 268.49200,69.810900 C 270.95300,71.542500 274.87200,76.190600 279.70200,75.917200 C 276.05600,72.909600 276.78600,70.722300 276.78600,70.722300 C 278.70000,73.000700 285.07900,75.096900 287.17500,74.185400 C 284.71500,72.362700 284.25900,72.180400 283.71200,70.448900 C 286.62900,70.813500 290.27400,71.451500 293.19000,70.175500" />
      <path
         style="fill:#ffcc00;fill-opacity:1.0000000;fill-rule:evenodd;stroke:#991b33;stroke-width:1.0000000pt;stroke-linecap:round;stroke-linejoin:round;stroke-opacity:1.0000000"
         id="path580"
         d="M 273.23200,100.25100 L 273.50500,96.058600 C 273.50500,96.058600 276.23900,102.43800 278.24400,102.52900 C 276.96800,97.881800 277.51500,94.144700 277.51500,94.144700" />
      <path
         style="fill:#ffcc00;fill-opacity:1.0000000;fill-rule:evenodd;stroke:#991b33;stroke-width:1.0000000pt;stroke-linecap:round;stroke-linejoin:round;stroke-opacity:1.0000000"
         id="path581"
         d="M 279.61100,95.147300 C 279.61100,95.147300 285.07900,105.17200 287.72200,103.53200 C 283.71200,99.977100 284.16800,95.329500 284.16800,95.329500 C 284.16800,95.329500 285.99100,101.52700 291.36800,103.44100 C 291.73200,99.977500 289.27200,94.327000 289.27200,94.327000 C 289.27200,94.327000 293.73700,102.16500 296.01600,102.34700 C 297.47400,100.52500 296.92700,98.610500 296.92700,98.610500" />
      <path
         style="fill:#ffcc00;fill-opacity:1.0000000;fill-rule:evenodd;stroke:#991b33;stroke-width:1.0000000pt;stroke-linecap:round;stroke-linejoin:round;stroke-opacity:1.0000000"
         id="path582"
         d="M 275.32800,88.220800 L 279.33800,93.324500 L 279.97600,86.489200 C 279.97600,86.489200 283.89500,89.587800 284.62400,89.496700 C 285.35300,89.405600 283.53000,82.205700 283.53000,82.205700 C 283.53000,82.205700 288.81600,90.225900 289.18100,90.043500 C 289.54500,89.861200 289.72700,82.114500 289.72700,82.114500 C 289.72700,82.114500 293.73800,93.142200 295.10500,93.051100 C 296.47200,92.960000 296.10700,91.501800 296.10700,91.501800" />
      <path
         style="fill:#ffcc00;fill-opacity:1.0000000;fill-rule:evenodd;stroke:#991b33;stroke-width:1.0000000pt;stroke-linecap:round;stroke-linejoin:round;stroke-opacity:1.0000000"
         id="path583"
         d="M 272.32000,79.289300 C 272.32000,79.289300 278.51700,84.939800 279.15500,84.575300 C 279.79300,84.210700 276.60400,78.013300 276.60400,78.013300 C 276.60400,78.013300 280.15800,81.385400 281.52500,81.658800 C 282.89200,81.932200 281.98100,77.284200 281.98100,77.284200 C 281.98100,77.284200 286.17300,80.838600 286.90200,80.656300 C 287.63100,80.474000 287.26700,77.284200 287.26700,77.284200 C 287.26700,77.284200 290.00100,80.018400 290.18300,80.018400 C 290.36500,80.018400 289.63600,72.180500 289.63600,72.180500 C 289.63600,72.180500 295.74300,78.651300 296.19800,78.560200" />
      <path
         style="fill:#ffcc00;fill-opacity:1.0000000;fill-rule:evenodd;stroke:#991b33;stroke-width:1.0000000pt;stroke-linecap:round;stroke-linejoin:round;stroke-opacity:1.0000000"
         id="path584"
         d="M 247.53100,81.294300 C 247.80400,81.750000 248.81900,89.809300 261.30500,86.528300 C 262.49000,85.890300 261.96900,88.780600 261.91700,89.626900 C 262.46400,89.535800 268.41500,87.413600 272.51600,90.421200 C 272.03400,87.087700 271.13500,84.848700 267.58100,82.934800 C 265.85000,82.570300 264.58600,83.455500 264.58600,83.455500 C 264.58600,83.455500 249.53600,83.572800 247.53100,81.294300 z " />
      <path
         style="fill:#ffcc00;fill-opacity:1.0000000;stroke:#991b33;stroke-width:1.0000000;stroke-linecap:round;stroke-linejoin:round;stroke-opacity:1.0000000"
         id="selection_to_path#2"
         d="M 240.72200,132.60600 C 240.51500,133.53900 239.86200,133.80800 237.99700,136.50300 C 238.82600,137.64300 242.64000,139.42500 243.67600,138.49300 C 244.60900,137.97400 244.67600,135.50300 244.67600,135.50300 C 246.67600,138.49300 250.19400,143.20800 254.19400,144.20800 C 257.18400,145.20800 260.18400,143.20800 260.18400,140.21800 C 260.18400,137.22800 255.66600,132.39900 253.67600,130.40900 C 248.67600,124.41900 249.11700,113.10600 239.66500,114.68000 C 239.61600,114.76600 239.23800,116.05300 238.33200,116.28300 C 239.09100,117.73600 239.51700,118.96400 237.70000,119.42100 C 239.11300,120.80900 239.33500,121.81700 237.51900,122.51400 C 238.61800,123.98800 239.90500,124.52900 237.37500,125.79000 C 240.02200,128.37000 240.59200,132.16600 240.72200,132.60600" />
      <path
         style="fill:#ffcc00;fill-opacity:1.0000000;fill-rule:evenodd;stroke:#991b33;stroke-width:1.0000000pt;stroke-linecap:butt;stroke-linejoin:miter;stroke-opacity:1.0000000"
         id="path585"
         d="M 238.26100,48.041000 C 235.25600,52.393700 234.94400,100.27400 235.87700,109.91200 C 232.87200,111.88100 227.27600,111.05200 225.72100,110.43000 C 226.44700,107.01000 229.03700,51.460800 238.26100,48.041000 z " />
      <path
         style="fill:#ffcc00;fill-opacity:1.0000000;fill-rule:evenodd;stroke:none;stroke-width:0.25000000;stroke-linecap:butt;stroke-linejoin:round;stroke-opacity:1.0000000"
         id="path586"
         d="M 229.76300,146.18500 C 229.76300,146.18500 216.49700,148.05000 222.09300,140.17500 C 226.86100,138.10200 226.75700,142.97300 224.99500,144.63100 C 227.17200,144.87300 228.62300,143.45600 228.93300,141.31400 C 226.23900,137.68700 230.07300,135.30300 229.86600,135.30300 C 220.64300,137.37600 219.39900,131.05400 222.81900,130.01800 C 227.13800,130.25900 225.75600,131.64100 227.48300,132.92000 C 230.59200,130.05300 232.45800,129.77700 234.32300,132.71300 C 236.18800,129.81100 238.88300,130.12200 238.98600,130.43300 C 241.99200,135.51000 235.35900,135.82100 232.66500,135.19900 C 234.94500,137.68700 234.01200,140.07000 233.28600,141.83300 C 233.35500,143.56000 234.66900,143.83600 236.81000,144.52700 C 232.25100,131.95200 252.87400,147.87700 232.14600,146.28900 C 232.18100,146.84100 232.21600,147.39400 232.25000,147.94700 C 233.94300,148.25800 235.11700,148.67200 235.66900,150.43400 C 234.94500,151.40100 233.80500,151.53900 232.04300,150.84900 C 232.04300,150.84900 233.07900,153.75100 231.21400,154.58000 C 229.65900,153.64700 229.45200,151.36700 229.45200,151.36700 C 228.58800,152.43800 227.31000,151.74600 226.23900,150.84900 C 227.20700,148.46500 229.93600,149.60400 229.76300,146.18500 z " />
      <path
         style="fill:#ffcc00;fill-opacity:1.0000000;fill-rule:evenodd;stroke:none;stroke-width:1.0000000pt;stroke-linecap:butt;stroke-linejoin:round;stroke-opacity:1.0000000"
         id="path587"
         d="M 218.36300,107.84000 C 219.15700,104.24600 227.51700,104.69500 223.54500,108.56500 C 226.20400,112.81400 234.35700,112.19300 237.43200,109.80900 C 234.84000,104.86800 241.88900,105.93900 241.57800,109.70500 C 240.71400,116.37100 217.46500,115.47400 218.36300,107.84000 z " />
      <path
         style="fill:#ffcc00;fill-opacity:1.0000000;stroke:#991b33;stroke-width:1.0000000;stroke-opacity:1.0000000"
         id="path592"
         d="M 384.27000,171.44000 C 386.76000,176.10000 391.18100,187.14200 393.63000,189.78000 C 395.92500,191.83200 401.64000,191.59000 403.40000,189.27000 C 403.40000,189.27000 407.06000,193.04000 408.54000,194.18000 C 409.42000,193.88000 409.96000,193.04000 409.96000,193.04000 C 408.47000,191.42000 406.44000,190.51000 405.44000,187.51000 C 406.93000,185.52000 407.75000,181.65000 406.75000,178.65000 C 402.38000,171.33000 387.84000,174.22000 384.27000,171.44000 z " />
      <path
         style="fill:#ffcc00;fill-opacity:1.0000000;stroke:#991b33;stroke-width:1.0000000;stroke-opacity:1.0000000"
         id="path593"
         d="M 202.80000,44.286800 C 200.31000,39.626800 195.88900,28.584800 193.44000,25.946800 C 191.14500,23.894800 185.43000,24.136800 183.67000,26.456800 C 183.67000,26.456800 180.01000,22.686800 178.53000,21.546800 C 177.65000,21.846800 177.11000,22.686800 177.11000,22.686800 C 178.60000,24.306800 180.63000,25.216800 181.63000,28.216800 C 180.14000,30.206800 179.32000,34.076800 180.32000,37.076800 C 184.69000,44.396800 199.23000,41.506800 202.80000,44.286800 z " />
      <path
         style="fill:#ffcc00;fill-opacity:1.0000000;stroke:#991b33;stroke-width:1.0000000;stroke-opacity:1.0000000"
         id="path594"
         d="M 201.32500,170.73400 C 196.66500,173.22400 185.62300,177.64500 182.98500,180.09400 C 180.93300,182.38900 181.17500,188.10400 183.49500,189.86400 C 183.49500,189.86400 179.72500,193.52400 178.58500,195.00400 C 178.88500,195.88400 179.72500,196.42400 179.72500,196.42400 C 181.34500,194.93400 182.25500,192.90400 185.25500,191.90400 C 187.24500,193.39400 191.11500,194.21400 194.11500,193.21400 C 201.43500,188.84400 198.54500,174.30400 201.32500,170.73400 z " />
      <path
         style="fill:#ffcc00;fill-opacity:1.0000000;stroke:#991b33;stroke-width:1.0000000;stroke-opacity:1.0000000"
         id="path595"
         d="M 384.65400,44.286200 C 387.14400,39.626200 391.56500,28.584200 394.01400,25.946200 C 396.30900,23.894200 402.02400,24.136200 403.78400,26.456200 C 403.78400,26.456200 407.44400,22.686200 408.92400,21.546200 C 409.80400,21.846200 410.34400,22.686200 410.34400,22.686200 C 408.85400,24.306200 406.82400,25.216200 405.82400,28.216200 C 407.31400,30.206200 408.13400,34.076200 407.13400,37.076200 C 402.76400,44.396200 388.22400,41.506200 384.65400,44.286200 z " />
      <path
         style="fill:#ffcc00;fill-opacity:1.0000000;fill-rule:evenodd;stroke:#ffcc00;stroke-width:1.0000000pt;stroke-linecap:butt;stroke-linejoin:round;stroke-opacity:1.0000000"
         id="path596"
         d="M 222.10500,116.03200 C 221.90900,117.55000 225.53200,118.21100 229.24600,118.22900 C 232.96000,118.24800 236.76700,117.62400 236.93800,116.57100 C 236.98700,114.68600 233.69500,116.28900 229.95000,116.25800 C 226.20500,116.22800 223.08400,114.75900 222.10500,116.03200 z " />
      <path
         style="fill:#ffcc00;fill-opacity:1.0000000;fill-rule:evenodd;stroke:#ffcc00;stroke-width:1.0000000pt;stroke-linecap:butt;stroke-linejoin:round;stroke-opacity:1.0000000"
         id="path597"
         d="M 222.39800,120.24200 C 222.44600,121.66200 226.04500,122.00400 229.22700,122.10200 C 232.41000,122.20000 235.61600,121.56400 236.20300,120.53600 C 235.63900,118.92000 232.10300,120.26700 229.22600,120.34000 C 226.35000,120.41400 223.15600,118.92000 222.39800,120.24200 z " />
      <path
         style="fill:#ffcc00;fill-opacity:1.0000000;fill-rule:evenodd;stroke:#ffcc00;stroke-width:1.0000000pt;stroke-linecap:butt;stroke-linejoin:round;stroke-opacity:1.0000000"
         id="path598"
         d="M 223.42600,124.01200 C 223.18100,125.08900 226.35100,125.86000 229.27000,125.87800 C 232.18900,125.89600 236.32600,124.77000 236.35000,123.62000 C 236.17900,122.71500 232.09100,123.93800 229.34400,124.03000 C 226.59600,124.12200 223.42600,123.03300 223.42600,124.01200 z " />
      <path
         style="fill:#ffcc00;fill-opacity:1.0000000;fill-rule:evenodd;stroke:#ffcc00;stroke-width:1.0000000pt;stroke-linecap:butt;stroke-linejoin:round;stroke-opacity:1.0000000"
         id="path599"
         d="M 223.08400,127.87900 C 223.32900,128.93100 226.92800,129.28700 230.09100,129.04800 C 233.25500,128.81000 236.47300,127.83000 236.74200,126.70400 C 236.59600,125.99400 232.96100,127.25500 229.95000,127.40800 C 226.93900,127.56100 223.03500,127.04600 223.08400,127.87900 z " />
    </g>
  </g>
</svg>
