<?xml version="1.0" encoding="UTF-8" standalone="no"?>
<svg
   xmlns:dc="http://purl.org/dc/elements/1.1/"
   xmlns:cc="http://creativecommons.org/ns#"
   xmlns:rdf="http://www.w3.org/1999/02/22-rdf-syntax-ns#"
   xmlns:svg="http://www.w3.org/2000/svg"
   xmlns="http://www.w3.org/2000/svg"
   xmlns:sodipodi="http://sodipodi.sourceforge.net/DTD/sodipodi-0.dtd"
   xmlns:inkscape="http://www.inkscape.org/namespaces/inkscape"
   width="450"
   height="300"
   id="svg2991"
   version="1.1"
   inkscape:version="0.48.2 r9819"
   sodipodi:docname="swahili.svg">
  <g
     inkscape:label="Layer 1"
     inkscape:groupmode="layer"
     transform="translate(0,-752.36218)">
    <rect
       fill="#800000"
       width="450"
       height="300"
       y="752.36218" />
    <rect
       fill="#ffcc00"
       width="450"
       height="150"
       y="752.36218" />
    <g
       transform="translate(25,0)">
      <path
         transform="matrix(1.0638298,0,0,1,5.319148,889.36218)"
         d="m 136,88 c 0,27.61424 -21.04262,50 -47,50 -25.957383,0 -47,-22.38576 -47,-50 0,-27.614237 21.042617,-50 47,-50 25.95738,0 47,22.385763 47,50 z"
         sodipodi:ry="50"
         sodipodi:rx="47"
         sodipodi:cy="88"
         sodipodi:cx="89"
         fill="#ffffff"
         sodipodi:type="arc" />
      <path
         transform="matrix(0.85106383,0,0,0.8,44.255319,906.96218)"
         d="m 136,88 c 0,27.61424 -21.04262,50 -47,50 -25.957383,0 -47,-22.38576 -47,-50 0,-27.614237 21.042617,-50 47,-50 25.95738,0 47,22.385763 47,50 z"
         sodipodi:ry="50"
         sodipodi:rx="47"
         sodipodi:cy="88"
         sodipodi:cx="89"
         fill="#800000"
         sodipodi:type="arc" />
    </g>
    <g
       id="g3060"
       transform="translate(-10.000002,-12)">
      <path
         transform="matrix(1.0638298,0,0,1,40.31915,751.36218)"
         d="m 136,88 c 0,27.61424 -21.04262,50 -47,50 -25.957383,0 -47,-22.38576 -47,-50 0,-27.614237 21.042617,-50 47,-50 25.95738,0 47,22.385763 47,50 z"
         sodipodi:ry="50"
         sodipodi:rx="47"
         sodipodi:cy="88"
         sodipodi:cx="89"
         fill="#ffffff"
         sodipodi:type="arc" />
      <path
         transform="matrix(0.85106383,0,0,0.8,79.25532,768.96218)"
         d="m 136,88 c 0,27.61424 -21.04262,50 -47,50 -25.957383,0 -47,-22.38576 -47,-50 0,-27.614237 21.042617,-50 47,-50 25.95738,0 47,22.385763 47,50 z"
         sodipodi:ry="50"
         sodipodi:rx="47"
         sodipodi:cy="88"
         sodipodi:cx="89"
         fill="#ffcc00"
         sodipodi:type="arc" />
    </g>
  </g>
</svg>
