<?xml version="1.0" encoding="UTF-8" standalone="no"?>
<!-- Created with Inkscape (http://www.inkscape.org/) -->
<svg
   xmlns:dc="http://purl.org/dc/elements/1.1/"
   xmlns:cc="http://web.resource.org/cc/"
   xmlns:rdf="http://www.w3.org/1999/02/22-rdf-syntax-ns#"
   xmlns:svg="http://www.w3.org/2000/svg"
   xmlns="http://www.w3.org/2000/svg"
   xmlns:xlink="http://www.w3.org/1999/xlink"
   xmlns:sodipodi="http://sodipodi.sourceforge.net/DTD/sodipodi-0.dtd"
   xmlns:inkscape="http://www.inkscape.org/namespaces/inkscape"
   version="1.0"
   width="1062.9921"
   height="708.66138"
   id="svg3446"
   sodipodi:version="0.32"
   inkscape:version="0.45"
   sodipodi:docname="tajikistan.svg"
   sodipodi:docbase="/home/divanov/tmp/ttt"
   inkscape:output_extension="org.inkscape.output.svg.inkscape"
   sodipodi:modified="true">
  <metadata
     id="metadata20">
    <rdf:RDF>
      <cc:Work
         rdf:about="">
        <dc:format>image/svg+xml</dc:format>
        <dc:type
           rdf:resource="http://purl.org/dc/dcmitype/StillImage" />
      </cc:Work>
    </rdf:RDF>
  </metadata>
  <sodipodi:namedview
     inkscape:window-height="755"
     inkscape:window-width="1280"
     inkscape:pageshadow="2"
     inkscape:pageopacity="0.0"
     guidetolerance="10.0"
     gridtolerance="10.0"
     objecttolerance="10.0"
     borderopacity="1.0"
     bordercolor="#666666"
     pagecolor="#ffffff"
     id="base"
     inkscape:zoom="1.066317"
     inkscape:cx="460.83894"
     inkscape:cy="278.18837"
     inkscape:window-x="-5"
     inkscape:window-y="-5"
     inkscape:current-layer="svg3446"
     showguides="true"
     inkscape:guide-bbox="true"
     width="300mm"
     height="200mm" />
  <defs
     id="defs3448" />
  <path
     style="fill:#ffffff;fill-opacity:1;stroke:none;stroke-width:1;stroke-linecap:round;stroke-linejoin:bevel;stroke-miterlimit:4;stroke-dashoffset:0;stroke-opacity:1"
     d="M 2.5731508e-06,202.08236 L 1063.4139,202.08236 L 1063.4139,507.63796 L 2.5731508e-06,507.63796 L 2.5731508e-06,202.08236 z "
     id="rect2975" />
  <rect
     width="1063.1096"
     height="203.02548"
     x="-3.3420532e-17"
     y="508.6535"
     style="font-size:12px;fill:#3f7021;fill-opacity:1;fill-rule:evenodd;stroke-width:1pt"
     id="rect3449" />
  <rect
     width="1063.1096"
     height="203.02582"
     x="3.0181973e-14"
     y="-0.54270488"
     style="font-size:12px;fill:#cc0000;fill-opacity:1;fill-rule:evenodd;stroke-width:1pt"
     id="rect3452" />
  <path
     d="M 384.53514,373.36766 L 389.63702,390.16925 L 406.15344,389.79781 L 392.45443,400.0655 L 397.89599,416.38239 L 384.32762,405.92658 L 371.1743,416.38239 L 376.4876,399.65265 L 362.91682,389.79783 L 379.76897,389.91408 L 384.53514,373.36766 z "
     style="font-size:12px;fill:#ffcc00;fill-opacity:1;fill-rule:evenodd;stroke:none;stroke-width:0.90000004;stroke-miterlimit:4;stroke-dasharray:none;stroke-opacity:1"
     id="polygon3941" />
  <path
     d="M 606.79197,242.66574 L 611.89385,259.46733 L 628.41026,259.09589 L 614.71129,269.36358 L 620.1528,285.68045 L 606.58446,275.22464 L 593.43113,285.68045 L 598.74443,268.95071 L 585.17366,259.09591 L 602.02581,259.21218 L 606.79197,242.66574 z "
     style="font-size:12px;fill:#ffcc00;fill-opacity:1;fill-rule:evenodd;stroke:none;stroke-width:0.90000004;stroke-miterlimit:4;stroke-dasharray:none;stroke-opacity:1"
     id="polygon3944" />
  <path
     d="M 662.35596,301.70252 L 667.45785,318.50411 L 683.97427,318.13267 L 670.27529,328.40037 L 675.71681,344.71724 L 662.14841,334.26142 L 648.99512,344.71724 L 654.30837,327.98751 L 640.73766,318.13269 L 657.58975,318.24894 L 662.35596,301.70252 z "
     style="font-size:12px;fill:#ffcc00;fill-opacity:1;fill-rule:evenodd;stroke:none;stroke-width:0.90000004;stroke-miterlimit:4;stroke-dasharray:none;stroke-opacity:1"
     id="polygon3945" />
  <path
     d="M 678.45694,373.36749 L 683.55883,390.16908 L 700.07525,389.79764 L 686.37618,400.06533 L 691.81778,416.38222 L 678.24939,405.9264 L 665.09609,416.38222 L 670.40935,399.65247 L 656.83864,389.79765 L 673.69072,389.91391 L 678.45694,373.36749 z "
     style="font-size:12px;fill:#ffcc00;fill-opacity:1;fill-rule:evenodd;stroke:none;stroke-width:0.90000004;stroke-miterlimit:4;stroke-dasharray:none;stroke-opacity:1"
     id="polygon3946" />
  <path
     style="fill:#ffcc00;fill-opacity:1;fill-rule:evenodd;stroke:none;stroke-width:0.96677995;stroke-linecap:butt;stroke-linejoin:miter;stroke-miterlimit:4;stroke-dasharray:none;stroke-opacity:1"
     d="M 639.125,475.125 C 646.99288,451.73862 651.4493,427.14047 659.59375,403.8125 C 653.67652,416.0697 644.66968,421.40962 631,421.84375 C 606.5885,422.4494 601.05712,403.68939 597.875,395.40625 C 589.24657,407.30601 584.38582,412.03683 570.0625,411.75 C 555.47464,412.09139 545.24868,405.28386 538.28125,393.375 L 538.25,332.09375 C 549.55084,327.39683 556.35328,334.26233 562.9375,344.6875 C 564.42955,340.93592 565.25,336.84151 565.25,332.5625 C 565.25001,314.37757 550.47404,299.65625 532.21875,299.65625 C 513.96346,299.65626 499.125,314.37758 499.125,332.5625 C 499.125,336.77735 499.89392,340.82597 501.34375,344.53125 C 507.66009,332.24023 516.46607,328.81611 524.84375,332.40625 L 524.9375,393.53125 C 517.96577,405.43534 508.02458,411.96711 493.40625,411.625 C 479.08295,411.91184 474.19093,407.181 465.5625,395.28125 C 462.3804,403.56437 456.84898,422.3244 432.4375,421.71875 C 418.81778,422.58244 409.95962,415.33831 404.5625,403.71875 L 426.75,475.23438 C 464.6997,469.6603 490.24944,467.15625 532.8125,467.15625 C 575.37552,467.15625 600.93389,469.48346 639.125,475.125 z M 532.21875,306.21875 C 545.87065,306.21876 557.06174,316.52271 558.46875,329.75 C 548.3545,321.09108 536.04772,322.83896 531.75,330.5 C 526.95076,323.26599 515.41823,321.2782 505.96875,328.96875 C 507.72342,316.11164 518.83153,306.21875 532.21875,306.21875 z M 531.6875,405.375 C 538.96965,414.52793 547.08537,424.15141 561.15625,424.625 C 580.00666,425.08792 581.32922,423.4219 594.625,416.03125 C 598.62431,423.6807 607.07601,434.88837 625.53125,434.65625 C 634.42528,434.3523 640.68316,432.04141 645.53125,427.90625 L 635.25,463.1875 C 599.30029,457.93629 573.94531,455.31249 532.8125,455.3125 C 491.64232,455.3125 466.28304,457.95795 430.28125,463.21875 L 419.40625,429.09375 C 423.98541,432.49409 429.82096,434.38314 437.8125,434.65625 C 456.26774,434.88838 464.71942,423.6807 468.71875,416.03125 C 482.01449,423.42189 483.39955,425.08792 502.25,424.625 C 516.3209,424.15141 524.40536,414.52793 531.6875,405.375 z "
     id="path3952"
     sodipodi:nodetypes="ccccccccscsccccccccsccccccccccccscccccc" />
  <use
     transform="translate(16.417152,-71.981284)"
     id="use1320"
     x="0"
     y="0"
     width="992.12598"
     height="496.06299"
     xlink:href="#polygon3941"
     style="fill:#ffcc00;fill-opacity:1;stroke:none" />
  <use
     transform="translate(71.981556,-130.70173)"
     id="use1322"
     x="0"
     y="0"
     width="992.12598"
     height="496.06299"
     xlink:href="#polygon3941"
     style="fill:#ffcc00;fill-opacity:1;stroke:none" />
  <use
     transform="translate(146.8037,-150.2752)"
     id="use1324"
     x="0"
     y="0"
     width="992.12598"
     height="496.06299"
     xlink:href="#polygon3941"
     style="fill:#ffcc00;fill-opacity:1;stroke:none" />
  <path
     style="fill:#ffcc00;fill-opacity:1;stroke:none;stroke-width:1.08119655;stroke-linecap:round;stroke-linejoin:bevel;stroke-miterlimit:4;stroke-dasharray:1.08119656, 2.16239313;stroke-dashoffset:0;stroke-opacity:1"
     d="M 514.04617,427.66096 C 513.64718,429.16293 513.43527,430.72671 513.43527,432.35369 C 513.43526,442.4574 521.65822,450.65259 531.76194,450.65259 C 541.86563,450.65257 550.06083,442.45741 550.06083,432.35369 C 550.06082,430.86657 549.86844,429.43426 549.53323,428.0497 C 548.07894,433.58499 544.12202,438.09027 538.92599,440.26748 C 539.58447,439.07691 539.9534,437.69714 539.9534,436.24117 C 539.9534,431.65223 536.21202,427.93864 531.6231,427.93863 C 527.03416,427.93863 523.32057,431.65222 523.32057,436.24117 C 523.32057,437.59579 523.63361,438.88719 524.20913,440.01757 C 519.17476,437.70077 515.36243,433.16444 514.04617,427.66096 z "
     id="path2896" />
  <path
     style="fill:#ffcc00;fill-opacity:1;stroke:none;stroke-width:1.08119655;stroke-linecap:round;stroke-linejoin:bevel;stroke-miterlimit:4;stroke-dasharray:1.08119656, 2.16239313;stroke-dashoffset:0;stroke-opacity:1"
     d="M 576.69297,432.73922 C 576.29398,434.24119 576.08207,435.80497 576.08207,437.43196 C 576.08206,447.53566 584.30502,455.73085 594.40874,455.73085 C 604.51243,455.73083 612.70763,447.53567 612.70763,437.43196 C 612.70762,435.94483 612.51524,434.51252 612.18003,433.12796 C 610.72574,438.66326 606.76882,443.16853 601.57279,445.34574 C 602.23127,444.15518 602.6002,442.7754 602.6002,441.31944 C 602.6002,436.7305 598.85882,433.01691 594.2699,433.01689 C 589.68096,433.01689 585.96737,436.73048 585.96737,441.31944 C 585.96737,442.67405 586.28041,443.96546 586.85593,445.09583 C 581.82156,442.77903 578.00923,438.2427 576.69297,432.73922 z "
     id="path8730" />
  <path
     style="fill:#ffcc00;fill-opacity:1;stroke:none;stroke-width:1.08119655;stroke-linecap:round;stroke-linejoin:bevel;stroke-miterlimit:4;stroke-dasharray:1.08119656, 2.16239313;stroke-dashoffset:0;stroke-opacity:1"
     d="M 451.85793,433.70179 C 451.45894,435.20376 451.24703,436.76754 451.24703,438.39453 C 451.24702,448.49823 459.46998,456.69342 469.5737,456.69342 C 479.67739,456.69341 487.87259,448.49825 487.87259,438.39453 C 487.87258,436.9074 487.6802,435.47509 487.345,434.09053 C 485.8907,439.62583 481.93378,444.1311 476.73775,446.30832 C 477.39624,445.11775 477.76516,443.73797 477.76516,442.28201 C 477.76516,437.69307 474.02378,433.97948 469.43486,433.97946 C 464.84592,433.97946 461.13233,437.69305 461.13233,442.28201 C 461.13233,443.63662 461.44538,444.92803 462.02089,446.0584 C 456.98652,443.7416 453.17419,439.20527 451.85793,433.70179 z "
     id="path8732" />
</svg>
