<?xml version="1.0" encoding="UTF-8" standalone="no"?>
<!-- Created with Inkscape (http://www.inkscape.org/) -->
<svg
   xmlns:dc="http://purl.org/dc/elements/1.1/"
   xmlns:cc="http://creativecommons.org/ns#"
   xmlns:rdf="http://www.w3.org/1999/02/22-rdf-syntax-ns#"
   xmlns:svg="http://www.w3.org/2000/svg"
   xmlns="http://www.w3.org/2000/svg"
   xmlns:sodipodi="http://sodipodi.sourceforge.net/DTD/sodipodi-0.dtd"
   xmlns:inkscape="http://www.inkscape.org/namespaces/inkscape"
   width="585"
   height="390"
   id="svg2"
   sodipodi:version="0.32"
   inkscape:version="0.46"
   version="1.0"
   sodipodi:docname="tannu_tuva.svg"
   inkscape:output_extension="org.inkscape.output.svg.inkscape">
  <defs
     id="defs4">
    <g
       id="b2">
      <rect
         id="rect3694"
         y="-2"
         x="-12"
         height="4"
         width="11" />
      <rect
         id="rect3696"
         y="-2"
         x="1"
         height="4"
         width="11" />
    </g>
    <rect
       y="-2"
       x="-12"
       height="4"
       width="24"
       id="b1" />
    <inkscape:perspective
       id="perspective3735"
       inkscape:persp3d-origin="450 : 200 : 1"
       inkscape:vp_z="900 : 300 : 1"
       inkscape:vp_y="0 : 1000 : 0"
       inkscape:vp_x="0 : 300 : 1"
       sodipodi:type="inkscape:persp3d" />
    <inkscape:perspective
       id="perspective4000"
       inkscape:persp3d-origin="372.04724 : 350.78739 : 1"
       inkscape:vp_z="744.09448 : 526.18109 : 1"
       inkscape:vp_y="0 : 1000 : 0"
       inkscape:vp_x="0 : 526.18109 : 1"
       sodipodi:type="inkscape:persp3d" />
    <inkscape:perspective
       id="perspective2458"
       inkscape:persp3d-origin="372.04724 : 350.78739 : 1"
       inkscape:vp_z="744.09448 : 526.18109 : 1"
       inkscape:vp_y="0 : 1000 : 0"
       inkscape:vp_x="0 : 526.18109 : 1"
       sodipodi:type="inkscape:persp3d" />
    <inkscape:perspective
       id="perspective2449"
       inkscape:persp3d-origin="372.04724 : 350.78739 : 1"
       inkscape:vp_z="744.09448 : 526.18109 : 1"
       inkscape:vp_y="0 : 1000 : 0"
       inkscape:vp_x="0 : 526.18109 : 1"
       sodipodi:type="inkscape:persp3d" />
  </defs>
  <sodipodi:namedview
     id="base"
     pagecolor="#ffffff"
     bordercolor="#666666"
     borderopacity="1.0"
     gridtolerance="10000"
     guidetolerance="10"
     objecttolerance="10"
     inkscape:pageopacity="0.0"
     inkscape:pageshadow="2"
     inkscape:zoom="0.54"
     inkscape:cx="309.25007"
     inkscape:cy="180.61125"
     inkscape:document-units="px"
     inkscape:current-layer="layer1"
     showgrid="false"
     showguides="true"
     inkscape:guide-bbox="true"
     inkscape:window-width="1280"
     inkscape:window-height="729"
     inkscape:window-x="0"
     inkscape:window-y="0" />
  <metadata
     id="metadata7">
    <rdf:RDF>
      <cc:Work
         rdf:about="">
        <dc:format>image/svg+xml</dc:format>
        <dc:type
           rdf:resource="http://purl.org/dc/dcmitype/StillImage" />
      </cc:Work>
    </rdf:RDF>
  </metadata>
  <g
     inkscape:label="Layer 1"
     inkscape:groupmode="layer"
     id="layer1"
     transform="translate(-158.78572,-260.57648)">
    <rect
       style="fill:#ec0000;fill-opacity:1;stroke:none;stroke-width:1;stroke-linejoin:bevel;stroke-miterlimit:4;stroke-dasharray:none;stroke-opacity:1"
       id="rect3991"
       width="585"
       height="390"
       x="158.78572"
       y="260.57648" />
    <g
       id="g2560"
       transform="translate(0,192.03703)">
      <path
         transform="matrix(1.037415,0,0,1.037415,50.843535,41.532633)"
         d="M 533,214 A 147,147 0 1 1 239,214 A 147,147 0 1 1 533,214 z"
         sodipodi:ry="147"
         sodipodi:rx="147"
         sodipodi:cy="214"
         sodipodi:cx="386"
         id="path3989"
         style="fill:#ffe700;fill-opacity:1;stroke:none;stroke-width:1;stroke-linejoin:bevel;stroke-miterlimit:4;stroke-dasharray:none;stroke-opacity:1"
         sodipodi:type="arc" />
      <path
         transform="matrix(1.0034014,0,0,1.0034014,63.972785,48.811543)"
         d="M 533,214 A 147,147 0 1 1 239,214 A 147,147 0 1 1 533,214 z"
         sodipodi:ry="147"
         sodipodi:rx="147"
         sodipodi:cy="214"
         sodipodi:cx="386"
         id="path3987"
         style="fill:#77bbff;fill-opacity:1;stroke:none;stroke-width:1;stroke-linejoin:bevel;stroke-miterlimit:4;stroke-dasharray:none;stroke-opacity:1"
         sodipodi:type="arc" />
      <g
         transform="matrix(2,0,0,2,-257.28568,-453.61352)"
         id="g3934">
        <path
           sodipodi:type="arc"
           style="fill:#ffe700;fill-opacity:1;stroke:#000000;stroke-width:0.9285714;stroke-linejoin:bevel;stroke-miterlimit:4;stroke-dasharray:none;stroke-opacity:1"
           id="path3449"
           sodipodi:cx="194"
           sodipodi:cy="100.75"
           sodipodi:rx="16.25"
           sodipodi:ry="16.25"
           d="M 210.25,100.75 A 16.25,16.25 0 1 1 177.75,100.75 A 16.25,16.25 0 1 1 210.25,100.75 z"
           transform="matrix(1.0769231,0,0,1.0769231,145.36264,249.57648)" />
        <path
           style="fill:#ffe700;fill-opacity:1;fill-rule:evenodd;stroke:#000000;stroke-width:0.85502529;stroke-linecap:butt;stroke-linejoin:miter;stroke-miterlimit:4;stroke-dasharray:none;stroke-opacity:1"
           d="M 352.18418,398.49752 C 352.08216,391.27502 350.45625,388.7886 350.36621,386.34527 C 351.83186,381.57796 352.31144,377.72876 352.27555,372.96344 L 354.25736,372.96344 L 356.29589,372.96344 C 356.26,377.72876 356.73958,381.57796 358.20523,386.34527 C 358.11519,388.7886 356.48928,391.27502 356.38726,398.49752 L 354.30147,398.49752 L 354.26997,398.49752 L 352.18418,398.49752 z"
           id="path3400"
           sodipodi:nodetypes="cccccccccc" />
        <path
           style="fill:#ffe700;fill-opacity:1;fill-rule:evenodd;stroke:#000000;stroke-width:0.85502529;stroke-linecap:butt;stroke-linejoin:miter;stroke-miterlimit:4;stroke-dasharray:none;stroke-opacity:1"
           d="M 352.18418,317.65544 C 352.08216,324.87794 350.45625,327.36436 350.36621,329.80769 C 351.83186,334.575 352.31144,338.4242 352.27555,343.18952 L 354.25736,343.18952 L 356.29589,343.18952 C 356.26,338.4242 356.73958,334.575 358.20523,329.80769 C 358.11519,327.36436 356.48928,324.87794 356.38726,317.65544 L 354.30147,317.65544 L 354.26997,317.65544 L 352.18418,317.65544 z"
           id="path3370"
           sodipodi:nodetypes="cccccccccc" />
        <path
           style="fill:#ffe700;fill-opacity:1;fill-rule:evenodd;stroke:#000000;stroke-width:0.85502529;stroke-linecap:butt;stroke-linejoin:miter;stroke-miterlimit:4;stroke-dasharray:none;stroke-opacity:1"
           d="M 324.21771,385.17245 C 329.25265,379.99324 329.86112,377.08538 331.52515,375.29402 C 335.93252,372.95939 338.99343,370.57671 342.33764,367.18174 L 343.73899,368.58309 L 345.18045,370.02455 C 341.78548,373.36876 339.4028,376.42967 337.06818,380.83704 C 335.27681,382.50107 332.36896,383.10954 327.18974,388.14448 L 325.71486,386.6696 L 325.69259,386.64733 L 324.21771,385.17245 z"
           id="path3414"
           sodipodi:nodetypes="cccccccccc" />
        <path
           style="fill:#ffe700;fill-opacity:1;fill-rule:evenodd;stroke:#000000;stroke-width:0.85502529;stroke-linecap:butt;stroke-linejoin:miter;stroke-miterlimit:4;stroke-dasharray:none;stroke-opacity:1"
           d="M 381.3817,328.00847 C 376.20248,333.04341 373.29462,333.65188 371.50326,335.31591 C 369.16863,339.72328 366.78595,342.78419 363.39098,346.1284 L 364.79233,347.52975 L 366.23379,348.97121 C 369.57801,345.57624 372.63892,343.19356 377.04628,340.85893 C 378.71031,339.06757 379.31878,336.15971 384.35372,330.9805 L 382.87885,329.50562 L 382.85657,329.48335 L 381.3817,328.00847 z"
           id="path3416"
           sodipodi:nodetypes="cccccccccc" />
        <path
           style="fill:#ffe700;fill-opacity:1;fill-rule:evenodd;stroke:#000000;stroke-width:0.85502529;stroke-linecap:butt;stroke-linejoin:miter;stroke-miterlimit:4;stroke-dasharray:none;stroke-opacity:1"
           d="M 324.21771,330.98051 C 329.25265,336.15972 329.86112,339.06758 331.52515,340.85894 C 335.93252,343.19357 338.99343,345.57625 342.33764,348.97122 L 343.73899,347.56987 L 345.18045,346.12841 C 341.78548,342.7842 339.4028,339.72329 337.06818,335.31592 C 335.27681,333.65189 332.36896,333.04342 327.18974,328.00848 L 325.71486,329.48336 L 325.69259,329.50563 L 324.21771,330.98051 z"
           id="path3420"
           sodipodi:nodetypes="cccccccccc" />
        <path
           style="fill:#ffe700;fill-opacity:1;fill-rule:evenodd;stroke:#000000;stroke-width:0.85502529;stroke-linecap:butt;stroke-linejoin:miter;stroke-miterlimit:4;stroke-dasharray:none;stroke-opacity:1"
           d="M 381.3817,388.14449 C 376.20248,383.10955 373.29462,382.50108 371.50326,380.83705 C 369.16863,376.42968 366.78595,373.36877 363.39098,370.02456 L 364.79233,368.62321 L 366.23379,367.18175 C 369.57801,370.57672 372.63892,372.9594 377.04628,375.29403 C 378.71031,377.08539 379.31878,379.99325 384.35372,385.17246 L 382.87885,386.64734 L 382.85657,386.66961 L 381.3817,388.14449 z"
           id="path3422"
           sodipodi:nodetypes="cccccccccc" />
        <path
           style="fill:#ffe700;fill-opacity:1;fill-rule:evenodd;stroke:#000000;stroke-width:0.85502529;stroke-linecap:butt;stroke-linejoin:miter;stroke-miterlimit:4;stroke-dasharray:none;stroke-opacity:1"
           d="M 313.86468,355.97494 C 321.08718,355.87292 323.5736,354.24701 326.01693,354.15697 C 330.78424,355.62262 334.63344,356.1022 339.39876,356.06631 L 339.39876,358.04812 L 339.39876,360.08665 C 334.63344,360.05076 330.78424,360.53034 326.01693,361.99599 C 323.5736,361.90595 321.08718,360.28004 313.86468,360.17802 L 313.86468,358.09223 L 313.86468,358.06073 L 313.86468,355.97494 z"
           id="path3426"
           sodipodi:nodetypes="cccccccccc" />
        <path
           style="fill:#ffe700;fill-opacity:1;fill-rule:evenodd;stroke:#000000;stroke-width:0.85502529;stroke-linecap:butt;stroke-linejoin:miter;stroke-miterlimit:4;stroke-dasharray:none;stroke-opacity:1"
           d="M 394.70676,355.97494 C 387.48426,355.87292 384.99784,354.24701 382.55451,354.15697 C 377.7872,355.62262 373.938,356.1022 369.17268,356.06631 L 369.17268,358.04812 L 369.17268,360.08665 C 373.938,360.05076 377.7872,360.53034 382.55451,361.99599 C 384.99784,361.90595 387.48426,360.28004 394.70676,360.17802 L 394.70676,358.09223 L 394.70676,358.06073 L 394.70676,355.97494 z"
           id="path3428"
           sodipodi:nodetypes="cccccccccc" />
        <path
           style="fill:#ffe700;fill-opacity:1;stroke:#000000;stroke-width:1;stroke-linejoin:bevel;stroke-miterlimit:4;stroke-dasharray:none;stroke-opacity:1"
           d="M 354.28572,308.07648 C 326.68572,308.07648 304.28572,330.47648 304.28572,358.07648 C 304.28572,385.67648 326.68572,408.07647 354.28572,408.07648 C 381.88572,408.07648 404.28572,385.67648 404.28572,358.07648 C 404.28572,330.47648 381.88572,308.07648 354.28572,308.07648 z M 354.28572,318.07648 C 376.36572,318.07648 394.28572,335.99648 394.28572,358.07648 C 394.28572,380.15648 376.36572,398.07648 354.28572,398.07648 C 332.20573,398.07647 314.28572,380.15648 314.28572,358.07648 C 314.28571,335.99648 332.20572,318.07648 354.28572,318.07648 z"
           id="path2396" />
        <g
           id="g3557">
          <g
             transform="translate(-3.125e-2,0)"
             id="g3526">
            <path
               style="fill:#ffe700;fill-opacity:1;stroke:#000000;stroke-width:1;stroke-linejoin:bevel;stroke-miterlimit:4;stroke-dasharray:none;stroke-opacity:1"
               d="M 141.25,98 C 139.318,98 137.75,99.568 137.75,101.5 C 137.75,103.432 139.318,105 141.25,105 C 143.182,105 144.75,103.432 144.75,101.5 C 144.75,99.568 143.182,98 141.25,98 z M 141.25,100.5 C 141.802,100.5 142.25,100.948 142.25,101.5 C 142.25,102.052 141.802,102.5 141.25,102.5 C 140.698,102.5 140.25,102.052 140.25,101.5 C 140.25,100.948 140.698,100.5 141.25,100.5 z"
               transform="translate(158.78572,260.57648)"
               id="path3479" />
            <path
               style="fill:#ffe700;fill-opacity:1;stroke:#000000;stroke-width:1;stroke-linejoin:bevel;stroke-miterlimit:4;stroke-dasharray:none;stroke-opacity:1"
               d="M 141.25,90 C 139.318,90 137.75,91.568 137.75,93.5 C 137.75,95.432 139.318,97 141.25,97 C 143.182,97 144.75,95.432 144.75,93.5 C 144.75,91.568 143.182,90 141.25,90 z M 141.25,92.5 C 141.802,92.5 142.25,92.948 142.25,93.5 C 142.25,94.052 141.802,94.5 141.25,94.5 C 140.698,94.5 140.25,94.052 140.25,93.5 C 140.25,92.948 140.698,92.5 141.25,92.5 z"
               transform="translate(158.78572,260.57648)"
               id="path3481" />
            <path
               style="fill:#ffe700;fill-opacity:1;stroke:#000000;stroke-width:1;stroke-linejoin:bevel;stroke-miterlimit:4;stroke-dasharray:none;stroke-opacity:1"
               d="M 134.375,94 C 132.443,94 130.875,95.568 130.875,97.5 C 130.875,99.432 132.443,101 134.375,101 C 136.307,101 137.875,99.432 137.875,97.5 C 137.875,95.568 136.307,94 134.375,94 z M 134.375,96.5 C 134.927,96.500001 135.375,96.948 135.375,97.5 C 135.375,98.052001 134.927,98.5 134.375,98.5 C 133.823,98.500001 133.375,98.052 133.375,97.5 C 133.375,96.948001 133.823,96.5 134.375,96.5 z"
               transform="translate(158.78572,260.57648)"
               id="path3507" />
          </g>
          <g
             transform="matrix(-1,0,0,-1,708.60269,716.15296)"
             id="g3531">
            <path
               style="fill:#ffe700;fill-opacity:1;stroke:#000000;stroke-width:1;stroke-linejoin:bevel;stroke-miterlimit:4;stroke-dasharray:none;stroke-opacity:1"
               d="M 141.25,98 C 139.318,98 137.75,99.568 137.75,101.5 C 137.75,103.432 139.318,105 141.25,105 C 143.182,105 144.75,103.432 144.75,101.5 C 144.75,99.568 143.182,98 141.25,98 z M 141.25,100.5 C 141.802,100.5 142.25,100.948 142.25,101.5 C 142.25,102.052 141.802,102.5 141.25,102.5 C 140.698,102.5 140.25,102.052 140.25,101.5 C 140.25,100.948 140.698,100.5 141.25,100.5 z"
               transform="translate(158.78572,260.57648)"
               id="path3533" />
            <path
               style="fill:#ffe700;fill-opacity:1;stroke:#000000;stroke-width:1;stroke-linejoin:bevel;stroke-miterlimit:4;stroke-dasharray:none;stroke-opacity:1"
               d="M 141.25,90 C 139.318,90 137.75,91.568 137.75,93.5 C 137.75,95.432 139.318,97 141.25,97 C 143.182,97 144.75,95.432 144.75,93.5 C 144.75,91.568 143.182,90 141.25,90 z M 141.25,92.5 C 141.802,92.5 142.25,92.948 142.25,93.5 C 142.25,94.052 141.802,94.5 141.25,94.5 C 140.698,94.5 140.25,94.052 140.25,93.5 C 140.25,92.948 140.698,92.5 141.25,92.5 z"
               transform="translate(158.78572,260.57648)"
               id="path3535" />
            <path
               style="fill:#ffe700;fill-opacity:1;stroke:#000000;stroke-width:1;stroke-linejoin:bevel;stroke-miterlimit:4;stroke-dasharray:none;stroke-opacity:1"
               d="M 134.375,94 C 132.443,94 130.875,95.568 130.875,97.5 C 130.875,99.432 132.443,101 134.375,101 C 136.307,101 137.875,99.432 137.875,97.5 C 137.875,95.568 136.307,94 134.375,94 z M 134.375,96.5 C 134.927,96.500001 135.375,96.948 135.375,97.5 C 135.375,98.052001 134.927,98.5 134.375,98.5 C 133.823,98.500001 133.375,98.052 133.375,97.5 C 133.375,96.948001 133.823,96.5 134.375,96.5 z"
               transform="translate(158.78572,260.57648)"
               id="path3537" />
          </g>
        </g>
        <g
           id="g3567"
           transform="matrix(0,1,-1,0,712.3622,3.79076)">
          <g
             transform="translate(-3.125e-2,0)"
             id="g3569">
            <path
               style="fill:#ffe700;fill-opacity:1;stroke:#000000;stroke-width:1;stroke-linejoin:bevel;stroke-miterlimit:4;stroke-dasharray:none;stroke-opacity:1"
               d="M 141.25,98 C 139.318,98 137.75,99.568 137.75,101.5 C 137.75,103.432 139.318,105 141.25,105 C 143.182,105 144.75,103.432 144.75,101.5 C 144.75,99.568 143.182,98 141.25,98 z M 141.25,100.5 C 141.802,100.5 142.25,100.948 142.25,101.5 C 142.25,102.052 141.802,102.5 141.25,102.5 C 140.698,102.5 140.25,102.052 140.25,101.5 C 140.25,100.948 140.698,100.5 141.25,100.5 z"
               transform="translate(158.78572,260.57648)"
               id="path3571" />
            <path
               style="fill:#ffe700;fill-opacity:1;stroke:#000000;stroke-width:1;stroke-linejoin:bevel;stroke-miterlimit:4;stroke-dasharray:none;stroke-opacity:1"
               d="M 141.25,90 C 139.318,90 137.75,91.568 137.75,93.5 C 137.75,95.432 139.318,97 141.25,97 C 143.182,97 144.75,95.432 144.75,93.5 C 144.75,91.568 143.182,90 141.25,90 z M 141.25,92.5 C 141.802,92.5 142.25,92.948 142.25,93.5 C 142.25,94.052 141.802,94.5 141.25,94.5 C 140.698,94.5 140.25,94.052 140.25,93.5 C 140.25,92.948 140.698,92.5 141.25,92.5 z"
               transform="translate(158.78572,260.57648)"
               id="path3573" />
            <path
               style="fill:#ffe700;fill-opacity:1;stroke:#000000;stroke-width:1;stroke-linejoin:bevel;stroke-miterlimit:4;stroke-dasharray:none;stroke-opacity:1"
               d="M 134.375,94 C 132.443,94 130.875,95.568 130.875,97.5 C 130.875,99.432 132.443,101 134.375,101 C 136.307,101 137.875,99.432 137.875,97.5 C 137.875,95.568 136.307,94 134.375,94 z M 134.375,96.5 C 134.927,96.500001 135.375,96.948 135.375,97.5 C 135.375,98.052001 134.927,98.5 134.375,98.5 C 133.823,98.500001 133.375,98.052 133.375,97.5 C 133.375,96.948001 133.823,96.5 134.375,96.5 z"
               transform="translate(158.78572,260.57648)"
               id="path3575" />
          </g>
          <g
             transform="matrix(-1,0,0,-1,708.60269,716.15296)"
             id="g3577">
            <path
               style="fill:#ffe700;fill-opacity:1;stroke:#000000;stroke-width:1;stroke-linejoin:bevel;stroke-miterlimit:4;stroke-dasharray:none;stroke-opacity:1"
               d="M 141.25,98 C 139.318,98 137.75,99.568 137.75,101.5 C 137.75,103.432 139.318,105 141.25,105 C 143.182,105 144.75,103.432 144.75,101.5 C 144.75,99.568 143.182,98 141.25,98 z M 141.25,100.5 C 141.802,100.5 142.25,100.948 142.25,101.5 C 142.25,102.052 141.802,102.5 141.25,102.5 C 140.698,102.5 140.25,102.052 140.25,101.5 C 140.25,100.948 140.698,100.5 141.25,100.5 z"
               transform="translate(158.78572,260.57648)"
               id="path3579" />
            <path
               style="fill:#ffe700;fill-opacity:1;stroke:#000000;stroke-width:1;stroke-linejoin:bevel;stroke-miterlimit:4;stroke-dasharray:none;stroke-opacity:1"
               d="M 141.25,90 C 139.318,90 137.75,91.568 137.75,93.5 C 137.75,95.432 139.318,97 141.25,97 C 143.182,97 144.75,95.432 144.75,93.5 C 144.75,91.568 143.182,90 141.25,90 z M 141.25,92.5 C 141.802,92.5 142.25,92.948 142.25,93.5 C 142.25,94.052 141.802,94.5 141.25,94.5 C 140.698,94.5 140.25,94.052 140.25,93.5 C 140.25,92.948 140.698,92.5 141.25,92.5 z"
               transform="translate(158.78572,260.57648)"
               id="path3581" />
            <path
               style="fill:#ffe700;fill-opacity:1;stroke:#000000;stroke-width:1;stroke-linejoin:bevel;stroke-miterlimit:4;stroke-dasharray:none;stroke-opacity:1"
               d="M 134.375,94 C 132.443,94 130.875,95.568 130.875,97.5 C 130.875,99.432 132.443,101 134.375,101 C 136.307,101 137.875,99.432 137.875,97.5 C 137.875,95.568 136.307,94 134.375,94 z M 134.375,96.5 C 134.927,96.500001 135.375,96.948 135.375,97.5 C 135.375,98.052001 134.927,98.5 134.375,98.5 C 133.823,98.500001 133.375,98.052 133.375,97.5 C 133.375,96.948001 133.823,96.5 134.375,96.5 z"
               transform="translate(158.78572,260.57648)"
               id="path3583" />
          </g>
        </g>
        <g
           id="g3665">
          <path
             id="path3650"
             d="M 390.19349,398.93399 C 391.55962,400.30012 393.77711,400.30012 395.14324,398.93399 C 396.50937,397.56786 396.50937,395.35038 395.14324,393.98425 C 393.77711,392.61812 391.55962,392.61812 390.19349,393.98425 C 388.82736,395.35038 388.82736,397.56786 390.19349,398.93399 z M 391.96126,397.16623 C 391.57094,396.7759 391.57094,396.14234 391.96126,395.75201 C 392.35158,395.36169 392.98515,395.36169 393.37547,395.75201 C 393.7658,396.14234 393.7658,396.7759 393.37547,397.16623 C 392.98515,397.55655 392.35158,397.55655 391.96126,397.16623 z"
             style="fill:#ffe700;fill-opacity:1;stroke:#000000;stroke-width:1;stroke-linejoin:bevel;stroke-miterlimit:4;stroke-dasharray:none;stroke-opacity:1" />
          <path
             id="path3656"
             d="M 313.4282,322.16871 C 314.79433,323.53484 317.01182,323.53484 318.37795,322.16871 C 319.74408,320.80258 319.74408,318.5851 318.37795,317.21897 C 317.01182,315.85284 314.79433,315.85284 313.4282,317.21897 C 312.06207,318.5851 312.06207,320.80258 313.4282,322.16871 z M 315.19597,320.40095 C 314.80565,320.01062 314.80565,319.37706 315.19597,318.98673 C 315.58629,318.59641 316.21986,318.59641 316.61018,318.98673 C 317.00051,319.37706 317.00051,320.01062 316.61018,320.40095 C 316.21986,320.79127 315.58629,320.79127 315.19597,320.40095 z"
             style="fill:#ffe700;fill-opacity:1;stroke:#000000;stroke-width:1;stroke-linejoin:bevel;stroke-miterlimit:4;stroke-dasharray:none;stroke-opacity:1" />
        </g>
        <g
           id="g3669"
           transform="matrix(-1,0,0,1,708.57144,2e-6)">
          <path
             id="path3671"
             d="M 390.19349,398.93399 C 391.55962,400.30012 393.77711,400.30012 395.14324,398.93399 C 396.50937,397.56786 396.50937,395.35038 395.14324,393.98425 C 393.77711,392.61812 391.55962,392.61812 390.19349,393.98425 C 388.82736,395.35038 388.82736,397.56786 390.19349,398.93399 z M 391.96126,397.16623 C 391.57094,396.7759 391.57094,396.14234 391.96126,395.75201 C 392.35158,395.36169 392.98515,395.36169 393.37547,395.75201 C 393.7658,396.14234 393.7658,396.7759 393.37547,397.16623 C 392.98515,397.55655 392.35158,397.55655 391.96126,397.16623 z"
             style="fill:#ffe700;fill-opacity:1;stroke:#000000;stroke-width:1;stroke-linejoin:bevel;stroke-miterlimit:4;stroke-dasharray:none;stroke-opacity:1" />
          <path
             id="path3673"
             d="M 313.4282,322.16871 C 314.79433,323.53484 317.01182,323.53484 318.37795,322.16871 C 319.74408,320.80258 319.74408,318.5851 318.37795,317.21897 C 317.01182,315.85284 314.79433,315.85284 313.4282,317.21897 C 312.06207,318.5851 312.06207,320.80258 313.4282,322.16871 z M 315.19597,320.40095 C 314.80565,320.01062 314.80565,319.37706 315.19597,318.98673 C 315.58629,318.59641 316.21986,318.59641 316.61018,318.98673 C 317.00051,319.37706 317.00051,320.01062 316.61018,320.40095 C 316.21986,320.79127 315.58629,320.79127 315.19597,320.40095 z"
             style="fill:#ffe700;fill-opacity:1;stroke:#000000;stroke-width:1;stroke-linejoin:bevel;stroke-miterlimit:4;stroke-dasharray:none;stroke-opacity:1" />
        </g>
        <g
           id="g3792">
          <path
             transform="matrix(0.5439283,-0.5439283,0.5439283,0.5439283,193.96136,408.79631)"
             d="M 210.25,100.75 A 16.25,16.25 0 1 1 177.75,100.75 A 16.25,16.25 0 1 1 210.25,100.75 z"
             sodipodi:ry="16.25"
             sodipodi:rx="16.25"
             sodipodi:cy="100.75"
             sodipodi:cx="194"
             id="path3686"
             style="fill:#ffe700;fill-opacity:1;stroke:#000000;stroke-width:1.29999995;stroke-linejoin:bevel;stroke-miterlimit:4;stroke-dasharray:none;stroke-opacity:1"
             sodipodi:type="arc" />
          <path
             style="fill:#ffe700;fill-opacity:1;stroke:#000000;stroke-width:1;stroke-opacity:1"
             d="M 342.02829,360.5262 C 342.70516,363.91059 345.99747,366.10546 349.38186,365.42857 C 352.76625,364.75169 354.96111,361.45938 354.28424,358.07499 C 353.60735,354.69061 355.80222,351.3983 359.18661,350.72142 C 362.571,350.04453 365.8633,352.2394 366.54019,355.62379 C 367.89396,362.39257 363.50422,368.97718 356.73544,370.33095 C 349.96666,371.68471 343.38204,367.29498 342.02829,360.5262"
             id="path3730" />
        </g>
        <g
           id="g3912">
          <rect
             y="329.07648"
             x="350.28571"
             height="1"
             width="8"
             id="rect3908"
             style="fill:#000000;fill-opacity:1;stroke:none;stroke-width:1;stroke-linejoin:bevel;stroke-miterlimit:4;stroke-dasharray:none;stroke-opacity:1" />
          <rect
             y="386.07648"
             x="350.28571"
             height="1"
             width="8"
             id="rect3910"
             style="fill:#000000;fill-opacity:1;stroke:none;stroke-width:1;stroke-linejoin:bevel;stroke-miterlimit:4;stroke-dasharray:none;stroke-opacity:1" />
        </g>
        <g
           id="g3916"
           transform="matrix(0.7071068,0.7071068,-0.7071068,0.7071068,356.9662,-145.63966)">
          <rect
             y="329.07648"
             x="350.28571"
             height="1"
             width="8"
             id="rect3918"
             style="fill:#000000;fill-opacity:1;stroke:none;stroke-width:1;stroke-linejoin:bevel;stroke-miterlimit:4;stroke-dasharray:none;stroke-opacity:1" />
          <rect
             y="386.07648"
             x="350.28571"
             height="1"
             width="8"
             id="rect3920"
             style="fill:#000000;fill-opacity:1;stroke:none;stroke-width:1;stroke-linejoin:bevel;stroke-miterlimit:4;stroke-dasharray:none;stroke-opacity:1" />
        </g>
        <g
           id="g3922"
           transform="matrix(-0.7071068,0.7071068,0.7071068,0.7071068,351.60524,-145.63966)">
          <rect
             y="329.07648"
             x="350.28571"
             height="1"
             width="8"
             id="rect3924"
             style="fill:#000000;fill-opacity:1;stroke:none;stroke-width:1;stroke-linejoin:bevel;stroke-miterlimit:4;stroke-dasharray:none;stroke-opacity:1" />
          <rect
             y="386.07648"
             x="350.28571"
             height="1"
             width="8"
             id="rect3926"
             style="fill:#000000;fill-opacity:1;stroke:none;stroke-width:1;stroke-linejoin:bevel;stroke-miterlimit:4;stroke-dasharray:none;stroke-opacity:1" />
        </g>
        <g
           id="g3928"
           transform="matrix(0,1,-1,0,712.3622,3.7907744)">
          <rect
             y="329.07648"
             x="350.28571"
             height="1"
             width="8"
             id="rect3930"
             style="fill:#000000;fill-opacity:1;stroke:none;stroke-width:1;stroke-linejoin:bevel;stroke-miterlimit:4;stroke-dasharray:none;stroke-opacity:1" />
          <rect
             y="386.07648"
             x="350.28571"
             height="1"
             width="8"
             id="rect3932"
             style="fill:#000000;fill-opacity:1;stroke:none;stroke-width:1;stroke-linejoin:bevel;stroke-miterlimit:4;stroke-dasharray:none;stroke-opacity:1" />
        </g>
      </g>
    </g>
  </g>
</svg>
