<?xml version="1.0" encoding="UTF-8" standalone="no"?>
<!-- Created with Inkscape (http://www.inkscape.org/) -->

<svg
   xmlns:dc="http://purl.org/dc/elements/1.1/"
   xmlns:cc="http://creativecommons.org/ns#"
   xmlns:rdf="http://www.w3.org/1999/02/22-rdf-syntax-ns#"
   xmlns:svg="http://www.w3.org/2000/svg"
   xmlns="http://www.w3.org/2000/svg"
   xmlns:sodipodi="http://sodipodi.sourceforge.net/DTD/sodipodi-0.dtd"
   xmlns:inkscape="http://www.inkscape.org/namespaces/inkscape"
   version="1.0"
   width="600"
   height="400"
   viewBox="0 0 600 400"
   id="svg2"
   xml:space="preserve"
   inkscape:version="0.47 r22583"
   sodipodi:docname="Thüringen_Signet.svg"><metadata
   id="metadata52"><rdf:RDF><cc:Work
       rdf:about=""><dc:format>image/svg+xml</dc:format><dc:type
         rdf:resource="http://purl.org/dc/dcmitype/StillImage" /><dc:title></dc:title></cc:Work></rdf:RDF></metadata><sodipodi:namedview
   pagecolor="#ffffff"
   bordercolor="#666666"
   borderopacity="1"
   objecttolerance="10"
   gridtolerance="10"
   guidetolerance="10"
   inkscape:pageopacity="0"
   inkscape:pageshadow="2"
   inkscape:window-width="1024"
   inkscape:window-height="695"
   id="namedview50"
   showgrid="false"
   inkscape:zoom="0.90028971"
   inkscape:cx="294.3465"
   inkscape:cy="217"
   inkscape:window-x="-3"
   inkscape:window-y="0"
   inkscape:window-maximized="1"
   inkscape:current-layer="svg2" />
<defs
   id="defs4"><inkscape:perspective
   sodipodi:type="inkscape:persp3d"
   inkscape:vp_x="0 : 217 : 1"
   inkscape:vp_y="0 : 1000 : 0"
   inkscape:vp_z="434 : 217 : 1"
   inkscape:persp3d-origin="217 : 144.66667 : 1"
   id="perspective54" />
</defs>


<rect
   style="fill:#e2001a;fill-opacity:1;stroke:none"
   id="rect2860"
   width="600"
   height="400"
   x="0"
   y="-7.6293945e-06" /><rect
   style="fill:#008ac2;fill-opacity:1;stroke:none"
   id="rect3634"
   width="245"
   height="400"
   x="182.95"
   y="7.6293945e-06" />




<path
   d="m 169.05,118.431 c 0,0 10.305,0.55 15.138,-6.176 -0.034,-4.149 -2.536,-8.105 -6.448,-6.048 -0.355,3.893 -8.69,12.224 -8.69,12.224 l 0,0 z"
   style="fill:#fecc00"
   id="path20" />
<path
   d="m 156.896,105.272 c 0,0 1.417,-10.691 11.181,-13.41 5.647,-0.22 2.797,1.008 2.903,8.029 -6.785,-0.304 -14.084,5.381 -14.084,5.381 l 0,0 z"
   style="fill:#fecc00"
   id="path22" />
<path
   d="m 158.497,72.234 c 0,0 10.542,-3.582 19.913,2.145 0,0 -3.226,7.486 -6.781,6.189 -2.451,-3.422 -6.828,-6.201 -13.132,-8.334 l 0,0 z"
   style="fill:#fecc00"
   id="path24" />
<path
   d="m 195.584,64.011 c 0,0 6.794,7.508 2.222,18.917 -3.156,2.047 -6.755,2.738 -7.351,-4.412 3.386,-2.471 5.129,-14.505 5.129,-14.505 l 0,0 z"
   style="fill:#fecc00"
   id="path26" />
<path
   d="m 151.465,208.991 c 0,0 4.637,-8.977 17.889,-9.25 6.942,6.678 4.425,8.199 -2.251,10.508 -5.345,-3.297 -15.638,-1.258 -15.638,-1.258 l 0,0 z"
   style="fill:#fecc00"
   id="path28" />
<path
   d="m 158.656,239.276 c 0,0 -2.184,-14.063 5.978,-16.914 3.708,-0.205 5.007,1.508 5.212,6.953 -5.959,1.536 -11.19,9.961 -11.19,9.961 l 0,0 z"
   style="fill:#fecc00"
   id="path30" />
<path
   d="m 189.966,245.343 c 0,0 -8.708,-6.027 -10.039,-13.727 1.331,-2.377 5.756,-4 9.361,-0.701 -0.511,6.264 0.678,14.428 0.678,14.428 l 0,0 z"
   style="fill:#fecc00"
   id="path32" />
<path
   d="m 203.469,241.278 c 0,0 5.034,-9.947 2.558,-15.682 -4.829,-2.75 -7.697,0.797 -7.54,3.783 2.791,2.44 4.982,11.899 4.982,11.899 l 0,0 z"
   style="fill:#fecc00"
   id="path34" />
<path
   d="m 201.691,317.108 c 0,0 9.141,-7.689 20.25,-3.6 0.818,1.969 2.4,7.254 -3.354,7.971 -5.549,-3.81 -16.896,-4.371 -16.896,-4.371 l 0,0 z"
   style="fill:#fecc00"
   id="path36" />
<path
   d="m 204.332,343.089 c 0,0 -1.389,-11.238 8.169,-17.152 3.73,0.834 7.396,3.395 4.626,8.402 -4.077,-1.297 -12.795,8.75 -12.795,8.75 l 0,0 z"
   style="fill:#fecc00"
   id="path38" />
<path
   d="m 224.508,356.36 c 0,0 -5.91,-8.922 -1.374,-19.361 2.952,-0.471 8.387,-0.586 9.604,4.703 -6.999,3.448 -8.23,14.658 -8.23,14.658 l 0,0 z"
   style="fill:#fecc00"
   id="path40" />
<path
   d="m 248.062,352.98 c 0,0 6.526,-7.311 4.275,-18 -4.526,-2.07 -8.043,0.789 -9.578,5.213 4.423,5.242 5.303,12.787 5.303,12.787 l 0,0 z"
   style="fill:#fecc00"
   id="path42" />
<path
   d="m 393.389,346.351 c 0,0 -1.076,-7.271 -8.325,-12.824 -9.535,-0.611 -8.293,1.557 -5.399,8.1 3.392,-0.464 13.724,4.724 13.724,4.724 l 0,0 z"
   style="fill:#fecc00"
   id="path44" />
<path
   d="m 367.414,367.603 c 0,0 -6.456,-11.551 -2.217,-19.906 8.681,-4.031 8.75,-1.928 8.367,5.234 -3.149,2.502 -6.15,14.672 -6.15,14.672 l 0,0 z"
   style="fill:#fecc00"
   id="path46" />
<path
   d="m 347.04,365.032 c 0,0 -2.7,-12.824 2.13,-19.178 2.712,-0.857 6.677,1.01 7.261,5.914 -4.441,4.264 -9.391,13.264 -9.391,13.264 l 0,0 z"
   style="fill:#fecc00"
   id="path48" />
<path
   d="m 333.911,345.622 c 0,0 2.065,-9.17 12.612,-10.891 8.762,3.828 6.658,4.014 1.143,8.523 -5.45,-1.06 -13.755,2.368 -13.755,2.368 l 0,0 z"
   style="fill:#fecc00"
   id="path50" />
<path
   d="m 260.76,74.201 c 0.242,4.185 2.685,7.502 6.182,9.856 8.797,5.921 41.764,2.762 41.764,2.762 l -1.584,3.56 c 0,0 -31.732,3.586 -39.493,2.757 -5.104,-0.545 -9.831,-3.259 -11.098,-8.987 -0.978,-4.424 1.304,-8.241 4.229,-9.948 l 0,0 z"
   style="fill:#e2001a;stroke:#008ac2;stroke-width:1.27550006;stroke-miterlimit:3.86369991"
   id="Bezungung_1_" />
<path
   d="m 189.898,108.089 -5.03,5.753 -8.723,-5.196 0.605,-7.004 -7.01,-0.082 -4.031,-10.445 8.162,-3.36 -5.023,-7.414 10.406,-7.391 6.155,5.797 5.031,-5.031 11.25,6.019 -1.881,6.935 4.26,6.682 42.416,24.477 41.01,3.482 c 5.155,0.438 7.707,-3.126 8.422,-5.899 0.938,-3.634 -0.771,-9.485 -15.037,-8.097 -1.851,0 -2.776,-0.154 -3.704,-1.314 -0.895,-1.118 -1.694,-5.086 -1.54,-7.631 0.34,-1.134 4.749,-4.063 4.749,-4.063 0,0 17.547,2.894 22.975,-0.507 2.593,-1.625 2.533,-6.44 1.013,-9.732 -1.655,-3.586 -19.715,0.268 -25.711,-1.167 -6.366,-1.524 -5.556,-8.066 -5.202,-10.547 0.19,-1.328 1.804,-2.966 1.804,-2.966 l -2.025,-3.375 15.084,-9.411 52.186,-0.002 0,2.587 6.979,-4.649 5.85,4.05 c 0,0 1.262,8.552 -6.351,18.589 11.351,13.311 8.476,82.71 8.476,82.71 l -12.097,22.528 c 0.129,0.087 1.209,7.797 5.373,14.276 10.796,16.656 26.527,28.994 43.922,25.732 18.28,-3.43 28.626,-17.137 27.276,-34.687 -1.811,-23.542 -26.312,-34.999 -36.06,-44.819 -12.271,-12.362 -11.05,-28.428 -11.05,-28.428 2.468,-10.796 6.087,-15.902 10.787,-19.899 10.337,-8.79 23.885,-14.188 33.756,-21.899 5.172,-4.041 5.202,-7.62 4.164,-10.025 -6.015,-3.856 -2.468,-8.945 0.463,-10.179 5.528,-2.328 12.646,-2.93 19.124,1.234 5.343,3.435 10.179,12.03 0.926,22.98 -6.211,7.349 -21.424,12.738 -28.07,15.731 -7.488,3.372 -13.924,7.93 -20.884,15.859 -7.47,8.509 -5.084,19.078 2.873,27.322 0,0 35.671,23.323 36.522,55.677 0.428,16.24 -4.714,27.051 -17.052,37.846 -9.443,6.879 -25.981,10.43 -36.933,7.191 -21.117,25.658 16.407,50.857 16.407,50.857 l -6.816,45.807 -6.516,12.119 -5.897,0.979 -2.639,9.838 -12.087,-0.684 0.031,-4.607 -3.601,4.273 -13.95,-4.5 2.7,-4.725 -2.823,-0.34 -0.372,-12.352 17.363,-4.563 2.606,-4.92 -1.249,-24.176 -37.398,-15.123 -8.453,-34.215 c -30.528,-4.473 -30.299,29.789 -22.301,32.221 l -39.171,48.393 0.675,7.424 -12.342,5.131 -3.858,-4.23 -7.2,6.525 -11.475,-4.725 0.518,-6.24 -4.792,2.414 -6.975,-10.799 5.4,-3.375 -1.8,-2.699 5.4,-9.227 16.425,2.477 6.098,-4.566 c 0,0 10.595,-25.084 9.265,-33.42 -0.478,-2.996 -16.488,-25.014 -16.488,-25.014 2.875,-8.75 17.718,-42.896 70.071,-31.531 -7.2,-13.742 -31.585,-25.408 -31.585,-25.408 l -56.468,19.91 -11.605,4.713 4.64,8.678 -9.928,4.289 -4.562,-3.953 -1.289,5.303 -12.6,1.574 -3.115,-6.877 -6.785,4.178 -7.425,-10.576 8.319,-6.295 -6.069,-3.379 4.947,-11.695 12.605,3.59 8.772,-0.67 46.799,-33.524 c -26.094,-24.077 -48.012,-60.523 -48.012,-60.523 l 0,0 z"
   style="fill:#ffffff"
   id="path53" />
<path
   d="m 240.414,308.718 -6.098,4.566 -16.425,-2.477 -5.4,9.227 0.358,0.537 49.616,0 31.047,-38.355 c -10e-4,0 -0.003,-0.002 -0.004,-0.002 l -44.332,0 c -2.084,10.688 -8.762,26.504 -8.762,26.504 z"
   style="fill:#e2001a"
   id="path55" />
<path
   d="m 394.914,287.183 c 0,0 -2.704,-1.817 -6.251,-4.969 l -64.89,0 0.493,1.996 37.398,15.123 1.098,21.238 27.183,0 4.969,-33.388 z"
   style="fill:#e2001a"
   id="path57" />
<polygon
   points="76.341,240.009 76.341,240.009 82.41,243.388 74.091,249.683 81.516,260.259 88.301,256.082 91.416,262.958 104.016,261.384 105.304,256.082 109.866,260.035 119.793,255.746 115.153,247.068 126.758,242.355 147.808,234.933 78.488,234.933 "
   style="fill:#e2001a"
   id="polygon59"
   transform="translate(88.45,-29.1)" />
<path
   d="m 378.507,236.325 c 10.951,3.238 27.489,-0.313 36.933,-7.191 8.249,-7.218 13.267,-14.451 15.567,-23.301 l -14.452,0 c -4.354,8.435 -12.608,14.471 -23.892,16.588 -14.011,2.627 -26.939,-4.869 -37.082,-16.588 l -63.992,0 c 4.788,3.815 9.225,8.247 11.673,12.92 -44.869,-9.74 -62.185,13.947 -68.028,26.428 l 138.156,0 c 1.021,-2.92 2.671,-5.885 5.117,-8.856 z"
   style="fill:#e2001a"
   id="path61" />
<path
   d="m 395.969,135.611 c -1.393,-1.442 -2.609,-2.957 -3.638,-4.519 l -16.344,0 c 1.649,3.91 4.137,8.039 7.893,11.822 6.146,6.192 18.155,13.039 26.646,23.152 l 14.324,0 C 414.137,147.5 395.969,135.611 395.969,135.611 z"
   style="fill:#e2001a"
   id="path63" />
<path
   d="m 355.465,159.884 c 0,0 0.537,-12.982 0.229,-28.792 l -150.286,0 c 7.99,10.943 18.434,23.996 29.818,34.975 l 116.919,0 3.32,-6.183 z"
   style="fill:#e2001a"
   id="path65" />
<polygon
   points="113.241,108.835 101.991,102.816 96.96,107.847 90.805,102.05 80.398,109.441 85.421,116.854 77.26,120.215 78.336,123.003 116.577,123.003 115.62,122.451 115.62,122.451 111.36,115.77 "
   style="fill:#e2001a"
   id="polygon67"
   transform="translate(88.45,-29.1)" />
<path
   d="m 280.386,94.305 c 0,0 -0.023,0.015 -0.06,0.04 0.037,-0.01 0.073,-0.021 0.11,-0.032 -0.033,-0.005 -0.05,-0.008 -0.05,-0.008 z"
   style="fill:#e2001a"
   id="path69" />
<path
   d="m 413.979,92.43 c 6.646,-2.993 21.859,-8.382 28.07,-15.731 9.253,-10.95 4.417,-19.545 -0.926,-22.98 -6.478,-4.164 -13.596,-3.562 -19.124,-1.234 -2.931,1.234 -6.478,6.323 -0.463,10.179 1.038,2.405 1.008,5.984 -4.164,10.025 -9.608,7.506 -22.692,12.83 -32.916,21.214 l 26.479,0 c 0.998,-0.516 2.01,-1.007 3.044,-1.473 z"
   style="fill:#e2001a"
   id="path71" />
<path
   d="m 346.989,77.174 c 7.612,-10.038 6.351,-18.589 6.351,-18.589 l -5.85,-4.05 -6.979,4.649 0,-2.587 -52.186,0.003 -15.085,9.41 2.025,3.375 c 0,0 -1.614,1.638 -1.804,2.966 -0.354,2.48 -1.165,9.023 5.202,10.547 5.996,1.435 24.056,-2.418 25.711,1.167 1.52,3.292 1.58,8.107 -1.013,9.732 -0.06,0.037 -0.128,0.07 -0.19,0.105 l 49.629,0 c -1.316,-7.544 -3.181,-13.643 -5.811,-16.728 z"
   style="fill:#e2001a"
   id="path73" />
<polygon
   points="201.443,96.235 204.454,92.218 204.454,92.218 211.565,96.235 "
   style="fill:#ffffff"
   id="polygon75"
   transform="translate(88.45,-29.1)" />
<path
   d="m 189.898,108.089 -5.03,5.753 -8.723,-5.196 0.605,-7.004 -7.01,-0.082 -4.031,-10.445 8.162,-3.36 -5.023,-7.414 10.406,-7.391 6.155,5.797 5.031,-5.031 11.25,6.019 -1.881,6.935 4.26,6.682 42.416,24.477 41.01,3.482 c 5.155,0.438 7.707,-3.126 8.422,-5.899 0.938,-3.634 -0.771,-9.485 -15.037,-8.097 -1.851,0 -2.776,-0.154 -3.704,-1.314 -0.895,-1.118 -1.694,-5.086 -1.54,-7.631 0.34,-1.134 4.749,-4.063 4.749,-4.063 0,0 17.547,2.894 22.975,-0.507 2.593,-1.625 2.533,-6.44 1.013,-9.732 -1.655,-3.586 -19.715,0.268 -25.711,-1.167 -6.366,-1.524 -5.556,-8.066 -5.202,-10.547 0.19,-1.328 1.804,-2.966 1.804,-2.966 l -2.025,-3.375 15.084,-9.411 52.186,-0.002 0,2.587 6.979,-4.649 5.85,4.05 c 0,0 1.262,8.552 -6.351,18.589 11.351,13.311 8.476,82.71 8.476,82.71 l -12.097,22.528 c 0.129,0.087 1.209,7.797 5.373,14.276 10.796,16.656 26.527,28.994 43.922,25.732 18.28,-3.43 28.626,-17.137 27.276,-34.687 -1.811,-23.542 -26.312,-34.999 -36.06,-44.819 -12.271,-12.362 -11.05,-28.428 -11.05,-28.428 2.468,-10.796 6.087,-15.902 10.787,-19.899 10.337,-8.79 23.885,-14.188 33.756,-21.899 5.172,-4.041 5.202,-7.62 4.164,-10.025 -6.015,-3.856 -2.468,-8.945 0.463,-10.179 5.528,-2.328 12.646,-2.93 19.124,1.234 5.343,3.435 10.179,12.03 0.926,22.98 -6.211,7.349 -21.424,12.738 -28.07,15.731 -7.488,3.372 -13.924,7.93 -20.884,15.859 -7.47,8.509 -5.084,19.078 2.873,27.322 0,0 35.671,23.323 36.522,55.677 0.428,16.24 -4.714,27.051 -17.052,37.846 -9.443,6.879 -25.981,10.43 -36.933,7.191 -21.117,25.658 16.407,50.857 16.407,50.857 l -6.816,45.807 -6.516,12.119 -5.897,0.979 -2.639,9.838 -12.087,-0.684 0.031,-4.607 -3.601,4.273 -13.95,-4.5 2.7,-4.725 -2.823,-0.34 -0.372,-12.352 17.363,-4.563 2.606,-4.92 -1.249,-24.176 -37.398,-15.123 -8.453,-34.215 c -30.528,-4.473 -30.299,29.789 -22.301,32.221 l -39.171,48.393 0.675,7.424 -12.342,5.131 -3.858,-4.23 -7.2,6.525 -11.475,-4.725 0.518,-6.24 -4.792,2.414 -6.975,-10.799 5.4,-3.375 -1.8,-2.699 5.4,-9.227 16.425,2.477 6.098,-4.566 c 0,0 10.595,-25.084 9.265,-33.42 -0.478,-2.996 -16.488,-25.014 -16.488,-25.014 2.875,-8.75 17.718,-42.896 70.071,-31.531 -7.2,-13.742 -31.585,-25.408 -31.585,-25.408 l -56.468,19.91 -11.605,4.713 4.64,8.678 -9.928,4.289 -4.562,-3.953 -1.289,5.303 -12.6,1.574 -3.115,-6.877 -6.785,4.178 -7.425,-10.576 8.319,-6.295 -6.069,-3.379 4.947,-11.695 12.605,3.59 8.772,-0.67 46.799,-33.524 c -26.094,-24.077 -48.012,-60.523 -48.012,-60.523 l 0,0 z"
   style="fill:none;stroke:#008ac2;stroke-width:2.55100012;stroke-miterlimit:3.86369991"
   id="Kontur_1_" />
<path
   d="m 279.587,28.601 19.823,10.715 c -7.26,2.726 -4.942,9.779 1.711,9.779 7.652,0 8.267,-7.97 2.026,-9.677 l 11.072,-14.873 12.08,14.975 c -7.546,2.109 -5.241,9.469 1.823,9.47 6.037,0.002 9.056,-7.463 1.71,-9.572 l 20.027,-10.817 -10.667,27.861 -49.952,0 -9.653,-27.861 0,0 z"
   style="fill:#fecc00"
   id="Krone_1_" />
<polygon
   points="302.484,95.422 295.989,106.868 289.493,95.422 275.991,95.422 282.997,83.977 275.991,72.531 289.493,72.531 295.989,61.085 302.485,72.531 315.477,72.531 308.98,83.977 315.477,95.422 315.477,95.422 "
   style="fill:#ffffff"
   id="polygon79"
   transform="translate(88.45,-29.1)" />
<polygon
   points="345.868,162.617 339.373,174.063 332.877,162.617 319.886,162.617 326.38,151.171 319.886,139.726 332.877,139.726 339.373,128.28 345.869,139.726 358.86,139.726 352.364,151.171 358.86,162.617 358.86,162.617 "
   style="fill:#ffffff"
   id="polygon81"
   transform="translate(88.45,-29.1)" />
<polygon
   points="299.441,227.626 292.945,239.072 286.449,227.626 273.458,227.626 279.953,216.18 273.458,204.734 286.449,204.734 292.945,193.289 299.441,204.734 312.433,204.734 305.937,216.18 312.433,227.626 312.433,227.626 "
   style="fill:#ffffff"
   id="polygon83"
   transform="translate(88.45,-29.1)" />
<polygon
   points="345.795,296.509 339.299,307.957 332.803,296.511 319.813,296.509 326.308,285.064 319.813,273.619 332.803,273.619 339.299,262.173 345.795,273.619 358.786,273.619 352.291,285.064 358.786,296.509 358.786,296.509 "
   style="fill:#ffffff"
   id="polygon85"
   transform="translate(88.45,-29.1)" />
<polygon
   points="222.574,393.054 216.08,404.5 209.584,393.054 196.593,393.054 203.088,381.607 196.593,370.162 209.584,370.162 216.08,358.716 222.575,370.162 235.566,370.162 229.07,381.607 235.566,393.054 235.566,393.054 "
   style="fill:#ffffff"
   id="polygon87"
   transform="translate(88.45,-29.1)" />
<polygon
   points="126.183,320.24 119.687,331.685 113.191,320.24 100.2,320.24 106.696,308.794 100.2,297.349 113.191,297.347 119.687,285.902 126.183,297.347 139.174,297.349 132.679,308.794 139.174,320.24 139.174,320.24 "
   style="fill:#ffffff"
   id="polygon89"
   transform="translate(88.45,-29.1)" />
<polygon
   points="100.862,205.517 94.367,216.962 87.871,205.517 74.88,205.517 81.375,194.071 74.88,182.625 87.871,182.625 94.367,171.179 100.863,182.625 113.854,182.625 107.358,194.071 113.854,205.516 113.854,205.516 "
   style="fill:#ffffff"
   id="polygon91"
   transform="translate(88.45,-29.1)" />
<polygon
   points="148.516,95.422 142.02,106.868 135.524,95.422 122.533,95.422 129.028,83.977 122.533,72.531 135.524,72.531 142.02,61.085 148.516,72.531 160.996,72.531 155.011,83.977 160.996,95.422 160.996,95.422 "
   style="fill:#ffffff"
   id="polygon93"
   transform="translate(88.45,-29.1)" />
</svg>