<?xml version="1.0" encoding="UTF-8" standalone="no"?>
<!-- Created with Inkscape (http://www.inkscape.org/) -->
<svg
   xmlns:dc="http://purl.org/dc/elements/1.1/"
   xmlns:cc="http://creativecommons.org/ns#"
   xmlns:rdf="http://www.w3.org/1999/02/22-rdf-syntax-ns#"
   xmlns:svg="http://www.w3.org/2000/svg"
   xmlns="http://www.w3.org/2000/svg"
   xmlns:xlink="http://www.w3.org/1999/xlink"
   xmlns:sodipodi="http://sodipodi.sourceforge.net/DTD/sodipodi-0.dtd"
   xmlns:inkscape="http://www.inkscape.org/namespaces/inkscape"
   version="1.0"
   width="1500"
   height="1000"
   id="svg3926"
   sodipodi:version="0.32"
   inkscape:version="0.46"
   sodipodi:docname="unasur.svg"
   inkscape:output_extension="org.inkscape.output.svg.inkscape">

  <rect
     width="1500"
     height="1000"
     x="0"
     y="0"
     id="background"
     style="fill:#da121a;fill-opacity:1" />
  <path
     d="M 750.0001,150 C 556.80007,150 399.99997,306.80001 400,500 C 400,693.19998 556.80007,849.99997 750.0001,850 C 943.19994,850 1100,693.19998 1100,500 C 1100,306.80002 943.20013,150 750.0001,150 z M 745.79589,173.35304 C 747.20051,173.33523 748.59127,173.35304 750.0001,173.35304 C 930.32013,173.35304 1076.6799,319.68 1076.6799,500 C 1076.6799,680.31999 930.32013,826.67981 750.0001,826.67981 C 569.68007,826.67981 423.35305,680.32 423.35305,500 C 423.35305,321.08874 567.4181,175.61504 745.79589,173.35304 z"
     id="circle"
     style="fill:#fcdd09;fill-opacity:1" />
  <path
     style="fill:#fcdd09;fill-opacity:1;fill-rule:nonzero;stroke:#fcdd09;stroke-width:1.4000001;stroke-linecap:round;stroke-linejoin:round;stroke-miterlimit:4;stroke-dasharray:none;stroke-opacity:1"
     d="M 676.93869,220.00004 L 662.99424,229.49156 L 655.72916,230.01886 L 654.61591,232.83118 L 650.16303,232.24525 L 646.23757,234.47167 L 642.37069,240.03768 L 642.37069,241.20948 L 642.89782,245.07639 L 631.766,252.86883 L 632.87911,257.90752 L 628.77789,254.04063 L 629.94973,257.90752 L 625.96554,261.65728 L 624.85243,260.19253 L 623.62201,264.29381 L 627.8404,269.03957 L 625.61403,288.02263 L 629.53949,289.7217 L 628.42638,291.94813 L 623.38767,300.32646 L 616.70844,303.08017 L 616.70844,308.64619 L 612.25556,309.75939 L 613.36881,314.27076 L 604.46321,317.61041 L 603.87737,318.1377 L 604.46321,320.95 L 604.99034,322.59053 L 604.46321,323.17642 L 600.53761,328.21513 L 602.17813,329.85567 L 597.198,333.78114 L 597.198,344.38587 L 602.76412,347.1396 L 604.46321,343.79997 L 605.57633,342.68677 L 607.21685,345.49906 L 604.46321,352.17831 L 594.38579,361.08395 L 598.31125,372.27454 L 596.08475,375.61418 L 605.57633,380.59427 L 614.48207,392.31221 L 621.74729,406.84244 L 626.72742,417.44719 L 639.55834,434.73113 L 638.44523,439.18396 L 642.89782,445.33586 L 649.63576,451.4292 L 680.86415,465.37352 L 690.88313,474.86504 L 693.10923,488.80939 L 694.22262,501.11322 L 690.88313,519.51035 L 693.10923,535.68113 L 687.54352,566.90942 L 690.35573,575.28771 L 689.76974,576.40091 L 687.54352,581.38104 L 690.88313,607.0433 L 683.61792,637.15841 L 680.2783,639.38481 L 685.84414,656.72738 L 683.09051,670.08578 L 686.43013,674.01129 L 685.31701,675.6518 L 689.76974,672.89807 L 692.5821,674.01129 L 694.22262,672.31218 L 690.88313,676.76501 L 694.80832,678.46412 L 694.22262,681.21782 L 691.4687,679.5773 L 694.22262,682.33102 L 691.99611,681.21782 L 691.4687,689.06882 L 694.22262,691.82253 L 691.4687,694.63483 L 696.44884,697.44713 L 691.4687,703.01317 L 695.92171,704.65368 L 691.4687,705.23958 L 691.4687,707.9933 L 694.22262,706.35276 L 692.5821,713.61789 L 690.35573,710.80559 L 686.95753,711.33289 L 689.76974,710.80559 L 687.54352,710.80559 L 688.65649,707.9933 L 686.95753,710.21972 L 684.73089,708.57918 L 682.50453,709.1065 L 686.43013,710.21972 L 684.73089,713.03201 L 681.8015,715.55134 L 684.73089,713.61789 L 685.84414,716.3716 L 689.1839,715.84432 L 691.4687,719.18391 L 688.65649,721.41032 L 691.99611,721.41032 L 687.54352,723.05085 L 693.10923,721.93761 L 697.03483,724.74994 L 694.22262,724.16401 L 696.44884,726.97635 L 688.65649,725.27724 L 693.69521,728.08955 L 690.88313,729.78865 L 693.10923,730.90184 L 691.99611,735.88197 L 693.69521,734.24146 L 697.03483,738.10837 L 693.10923,737.58107 L 694.80832,740.39338 L 696.44884,742.61979 L 691.99611,742.03389 L 695.92171,743.14708 L 696.44884,747.0726 L 698.14808,743.14708 L 699.78846,745.37349 L 696.44884,747.0726 L 695.33587,747.59989 L 698.67535,748.71308 L 698.14808,752.6386 L 701.48783,755.4509 L 700.90185,752.6386 L 702.60095,755.4509 L 700.90185,751.52542 L 705.41315,753.16591 L 700.37444,750.93949 L 702.60095,748.71308 L 702.01496,751.52542 L 705.94056,753.16591 L 704.82731,758.20462 L 704.82731,754.86503 L 704.30004,757.67732 L 703.71406,755.4509 L 702.60095,755.4509 L 701.48783,755.4509 L 699.78846,755.4509 L 700.90185,761.01691 L 704.82731,758.79052 L 712.09239,758.79052 L 713.73291,762.65743 L 710.97913,765.99705 L 711.50654,763.77066 L 708.16693,764.88385 L 714.8463,768.22346 L 715.432,759.31785 L 723.81047,755.4509 L 728.79061,755.97822 L 724.92358,750.93949 L 721.58383,750.93949 L 724.92358,750.4122 L 721.58383,747.0726 L 726.56396,739.80747 L 725.45099,738.69427 L 724.3376,736.46785 L 726.03669,738.69427 L 726.56396,739.22158 L 728.79061,738.69427 L 728.79061,738.10837 L 729.90372,730.90184 L 739.98115,721.93761 L 739.39517,716.3716 L 733.30178,715.25843 L 727.67721,707.9933 L 731.01684,701.31407 L 739.98115,698.56035 L 740.50856,688.48295 L 746.66024,682.91691 L 742.20752,680.10461 L 746.0744,678.9914 L 747.77364,681.80369 L 751.11325,679.5773 L 749.99986,675.6518 L 745.54713,678.46412 L 741.62153,675.6518 L 741.09426,664.51977 L 749.47273,667.85937 L 758.90559,665.63296 L 758.90559,652.21594 L 761.19054,653.32914 L 758.90559,648.349 L 767.28392,649.98953 L 774.54901,648.349 L 785.15384,646.12261 L 791.83293,642.783 L 797.9849,632.70558 L 797.9849,628.25279 L 793.53217,624.91317 L 795.17255,619.34713 L 785.15384,611.49613 L 786.79434,600.36411 L 786.26695,607.62923 L 790.71968,612.08201 L 802.43763,616.53482 L 816.90947,614.89435 L 829.21328,601.4773 L 832.55289,590.87258 L 842.57187,579.15465 L 840.93122,575.81503 L 845.91135,580.26783 L 833.66601,594.21217 L 843.68485,585.89247 L 849.83667,576.40091 L 853.76229,570.83491 L 861.55475,564.68301 L 864.89451,552.37916 L 862.66787,545.17263 L 867.12077,539.02072 L 864.36698,537.32162 L 868.23414,538.43482 L 873.79998,531.75559 L 883.87737,525.60369 L 891.14253,525.60369 L 900.04812,518.92446 L 906.20009,520.62357 L 910.06717,517.81127 L 910.06717,520.62357 L 918.44524,521.15087 L 919.03128,517.28396 L 927.35101,513.94435 L 926.82358,509.43292 L 936.84254,496.60181 L 938.54149,493.84809 L 940.76786,483.24338 L 945.74804,478.20469 L 952.48586,436.37164 L 953.59905,434.14522 L 955.23957,438.07072 L 958.57922,435.84432 L 975.92186,415.22078 L 985.94069,402.38961 L 987.58121,392.31221 L 984.82732,377.84055 L 982.01513,373.91507 L 970.29732,371.16134 L 959.6926,358.85753 L 947.44726,349.95189 L 929.05024,347.72547 L 919.55852,342.15945 L 907.31318,349.366 L 908.42656,343.79997 L 911.76612,341.57357 L 906.20009,342.15945 L 910.65274,338.76127 L 907.84052,333.19525 L 903.97372,336.53487 L 903.38768,332.08206 L 901.68864,333.78114 L 902.80201,332.08206 L 900.04812,332.66796 L 897.82184,329.32834 L 896.70846,331.55473 L 896.12261,328.21513 L 895.00952,329.85567 L 886.63117,324.81694 L 886.10374,326.51602 L 880.53781,324.81694 L 876.6123,330.96884 L 879.95196,332.08206 L 877.19834,333.19525 L 874.91326,330.44154 L 867.70672,338.23397 L 869.93309,332.66796 L 859.85566,333.78114 L 873.27274,330.96884 L 877.7254,321.47729 L 860.4415,318.72358 L 856.51618,325.93012 L 856.51618,322.06322 L 852.64918,325.40284 L 852.64918,321.47729 L 848.72356,325.40284 L 852.06317,318.1377 L 864.36698,308.11887 L 862.66787,308.11887 L 864.36698,304.19336 L 857.10176,300.32646 L 852.06317,282.9839 L 849.83667,281.34339 L 849.30942,284.15568 L 849.19238,283.97994 L 843.68485,276.89058 L 829.44761,269.74265 L 826.98691,268.51228 L 801.32465,267.92636 L 790.71968,259.60664 L 787.90731,263.47353 L 789.60657,256.26705 L 784.56772,251.22832 L 776.77537,246.77551 L 774.54901,246.18959 L 768.98288,246.18959 L 768.98288,240.03768 L 762.30379,236.17077 L 756.15182,237.28397 L 755.03885,235.58487 L 751.6991,232.83118 L 760.60455,230.01886 L 739.98115,230.60476 L 744.96127,232.24525 L 732.71594,235.58487 L 722.69708,231.13203 L 706.52641,233.35845 L 704.30004,227.79244 L 694.22262,226.67922 L 690.88313,221.11323 L 689.1839,225.56603 L 692.5821,224.98015 L 692.5821,226.67922 L 689.76974,226.09335 L 677.52439,232.24525 L 680.2783,238.39717 L 681.9774,240.03768 L 681.39141,243.43588 L 675.82543,245.6623 L 672.48568,240.03768 L 673.59907,238.92448 L 677.52439,233.35845 L 674.1262,226.67922 L 681.9774,222.75373 L 676.93869,220.00004 z M 704.82731,758.79052 L 703.18679,762.13014 L 705.41315,762.71601 L 704.82731,758.79052 z M 681.8015,715.55134 L 681.39141,715.84432 L 681.44999,715.90289 L 681.8015,715.55134 z M 681.44999,715.90289 L 680.86415,716.3716 L 683.09051,717.54341 L 681.44999,715.90289 z M 866.59348,315.384 L 860.4415,315.91128 L 863.78112,318.72358 L 866.59348,315.384 z M 605.57633,346.6123 L 604.46321,347.19819 L 602.76412,347.19819 L 603.87737,349.42461 L 604.46321,347.72547 L 605.57633,346.6123 z M 689.76974,668.97258 L 691.99611,670.67168 L 689.76974,671.78488 L 689.76974,668.97258 z M 683.09051,676.23768 L 683.09051,688.54153 L 685.84414,689.06882 L 688.65649,686.84242 L 686.43013,676.23768 L 683.09051,676.23768 z M 693.10923,696.33396 L 690.88313,698.56035 L 693.69521,700.20088 L 693.10923,696.33396 z M 686.43013,711.91878 L 688.65649,712.50471 L 687.54352,714.7311 L 686.43013,711.91878 z M 688.65649,726.44901 L 687.54352,730.31595 L 690.88313,730.31595 L 688.65649,726.44901 z M 689.24247,730.90184 L 689.76974,735.94055 L 685.84414,735.94055 L 689.24247,740.39338 L 690.88313,735.35465 L 690.35573,740.92066 L 693.10923,739.28017 L 689.24247,730.90184 z M 687.54352,741.50659 L 688.65649,744.26031 L 689.76974,741.50659 L 687.54352,741.50659 z M 726.56396,757.67732 L 718.24435,759.90372 L 718.77148,764.35653 L 724.3376,764.35653 L 721.58383,768.80936 L 727.67721,771.62166 L 726.03669,773.26216 L 724.92358,771.03576 L 723.81047,772.73487 L 717.13124,769.92256 L 721.58383,772.73487 L 718.77148,773.26216 L 718.24435,771.03576 L 712.61965,773.84807 L 739.39517,774.96129 L 747.24623,772.14898 L 732.71594,766.58294 L 726.56396,757.67732 z M 706.52641,759.90372 L 705.41315,763.82923 L 708.16693,765.46973 L 707.05367,763.82923 L 712.09239,759.90372 L 706.52641,759.90372 z M 695.92171,761.01691 L 699.78846,763.82923 L 705.41315,764.94243 L 695.92171,761.01691 z M 705.41315,764.94243 L 702.60095,767.69615 L 705.94056,769.92256 L 708.16693,768.28202 L 706.52641,769.92256 L 710.39329,767.69615 L 705.41315,764.94243 z M 718.77148,765.46973 L 717.13124,768.80936 L 720.99798,770.50846 L 718.77148,765.46973 z M 713.20564,768.80936 L 713.73291,770.50846 L 717.13124,771.03576 L 713.20564,768.80936 z M 730.48956,774.96129 L 722.69708,776.66037 L 726.56396,779.41409 L 725.45099,777.18768 L 728.79061,777.18768 L 728.79061,778.88678 L 733.30178,779.99997 L 727.67721,776.07449 L 730.48956,774.96129 z"
     id="path5727"
     sodipodi:nodetypes="ccccccccccccccccccccccccccccccccccccccccccccccccccccccccccccccccccccccccccccccccccccccccccccccccccccccccccccccccccccccccccccccccccccccccccccccccccccccccccccccccccccccccccccccccccccccccccccccccccccccccccccccccccccccccccccccccccccccccccccccccccccccccccccccccccccccccccccccccccccccccccccccccccccccccccccccccccccccccccccccccccccccccccccccccccccccccccccccccccccccccccccccccccccccccccccccccccccccccccccccccccccccccccccccccccccccccccccccccccc" />
</svg>
