<?xml version="1.0" encoding="UTF-8" standalone="no"?>
<!-- Created with Sodipodi ("http://www.sodipodi.com/") -->
<svg
   xmlns:dc="http://purl.org/dc/elements/1.1/"
   xmlns:cc="http://web.resource.org/cc/"
   xmlns:rdf="http://www.w3.org/1999/02/22-rdf-syntax-ns#"
   xmlns:svg="http://www.w3.org/2000/svg"
   xmlns="http://www.w3.org/2000/svg"
   xmlns:xlink="http://www.w3.org/1999/xlink"
   xmlns:sodipodi="http://inkscape.sourceforge.net/DTD/sodipodi-0.dtd"
   xmlns:inkscape="http://www.inkscape.org/namespaces/inkscape"
   version="1"
   x="0"
   y="0"
   width="299.999mm"
   height="708.66000px"
   id="svg378"
   sodipodi:version="0.32"
   sodipodi:docname="united_nations.svg"
   sodipodi:docbase="/home/daniel/freeciv/data/flags"
   inkscape:version="0.42">
  <metadata
     id="metadata6904">
    <rdf:RDF>
      <cc:Work
         rdf:about="">
        <dc:format>image/svg+xml</dc:format>
        <dc:type
           rdf:resource="http://purl.org/dc/dcmitype/StillImage" />
      </cc:Work>
    </rdf:RDF>
  </metadata>
  <sodipodi:namedview
     id="base"
     inkscape:zoom="0.46230688"
     inkscape:cx="531.49426"
     inkscape:cy="372.04724"
     inkscape:window-width="753"
     inkscape:window-height="513"
     inkscape:window-x="46"
     inkscape:window-y="102"
     inkscape:current-layer="svg378">
    <sodipodi:guide
       orientation="horizontal"
       position="161.249344"
       id="guide572" />
    <sodipodi:guide
       orientation="vertical"
       position="426.682617"
       id="guide574" />
    <sodipodi:guide
       orientation="horizontal"
       position="329.593231"
       id="guide588" />
  </sodipodi:namedview>
  <defs
     id="defs380">
    <linearGradient
       id="linearGradient595">
      <stop
         style="stop-color:#000;stop-opacity:1;"
         offset="0"
         id="stop596" />
      <stop
         style="stop-color:#fff;stop-opacity:1;"
         offset="1"
         id="stop597" />
    </linearGradient>
    <linearGradient
       xlink:href="#linearGradient595"
       id="linearGradient598" />
  </defs>
  <rect
     transform="scale(-1.000000,-1.000000)"
     id="rect149"
     style="font-size:12.000000px;fill:#3399cc;fill-opacity:1.0000000;fill-rule:evenodd;stroke:#000000;stroke-width:0.99914427pt"
     y="-708.03552"
     x="-1063.6145"
     height="707.44220"
     width="1062.9900" />
  <g
     id="g1288"
     transform="translate(0.000000,-18.35560)">
    <g
       style="font-size:12.000000px"
       id="g867">
      <g
         id="g728">
        <rect
           y="374.81308"
           x="530.60583"
           height="146.32018"
           width="5.8277049"
           id="rect582"
           style="font-size:12.000000px;fill:#ffffff;fill-opacity:1.0000000;fill-rule:evenodd;stroke:none;stroke-width:0.43661799pt" />
        <rect
           transform="matrix(0.706560,0.707653,-0.707653,0.706560,0.000000,0.000000)"
           y="-100.41010"
           x="609.60321"
           height="146.32018"
           width="5.8277049"
           id="rect589"
           style="font-size:12.000000px;fill:#ffffff;fill-opacity:1.0000000;fill-rule:evenodd;stroke:none;stroke-width:0.43661799pt" />
        <rect
           transform="matrix(-1.197566e-3,0.999999,-0.999999,-1.197566e-3,0.000000,0.000000)"
           y="-492.27338"
           x="329.37262"
           height="146.32016"
           width="5.8277040"
           id="rect590"
           style="font-size:12.000000px;fill:#ffffff;fill-opacity:1.0000000;fill-rule:evenodd;stroke:none;stroke-width:0.43661799pt" />
        <rect
           transform="matrix(-0.707206,0.707007,-0.707007,-0.707206,0.000000,0.000000)"
           y="-570.97552"
           x="-144.35017"
           height="146.32019"
           width="5.8277049"
           id="rect591"
           style="font-size:12.000000px;fill:#ffffff;fill-opacity:1.0000000;fill-rule:evenodd;stroke:none;stroke-width:0.43661799pt" />
        <rect
           transform="matrix(-1.000000,-9.136297e-4,9.136297e-4,-1.000000,0.000000,0.000000)"
           y="-289.23291"
           x="-537.18213"
           height="146.32022"
           width="5.8277068"
           id="rect592"
           style="font-size:12.000000px;fill:#ffffff;fill-opacity:1.0000000;fill-rule:evenodd;stroke:none;stroke-width:0.43661799pt" />
        <rect
           transform="matrix(-0.706160,-0.708053,0.708053,-0.706160,0.000000,0.000000)"
           y="188.05542"
           x="-616.44952"
           height="146.32019"
           width="5.8277049"
           id="rect593"
           style="font-size:12.000000px;fill:#ffffff;fill-opacity:1.0000000;fill-rule:evenodd;stroke:none;stroke-width:0.43661799pt" />
        <rect
           transform="matrix(-1.259379e-3,-0.999999,0.999999,-1.259379e-3,0.000000,0.000000)"
           y="579.33978"
           x="-336.97723"
           height="146.32021"
           width="5.8277059"
           id="rect594"
           style="font-size:12.000000px;fill:#ffffff;fill-opacity:1.0000000;fill-rule:evenodd;stroke:none;stroke-width:0.43661799pt" />
        <rect
           transform="matrix(0.706516,-0.707697,0.707697,0.706516,0.000000,0.000000)"
           y="656.94604"
           x="138.64062"
           height="146.32019"
           width="5.8277049"
           id="rect595"
           style="font-size:12.000000px;fill:#ffffff;fill-opacity:1.0000000;fill-rule:evenodd;stroke:none;stroke-width:0.43661799pt" />
        <path
           id="path598"
           d="M 604.07100,151.22200 C 704.10400,188.61500 754.94300,300.14900 717.55000,400.18100 C 680.15800,500.21400 568.62400,551.05300 468.59100,513.66100 C 368.55800,476.26800 317.71900,364.73400 355.11200,264.70100 C 392.50400,164.66900 504.03800,113.83000 604.07100,151.22200 z M 601.61100,157.80300 C 698.01100,193.83700 747.00400,301.32100 710.96900,397.72100 C 674.93500,494.12200 567.45100,543.11400 471.05100,507.08000 C 374.65000,471.04500 325.65800,363.56100 361.69200,267.16100 C 397.72700,170.76100 505.21100,121.76800 601.61100,157.80300 z "
           style="font-size:12.000000px;fill:#ffffff;fill-opacity:1.0000000;fill-rule:evenodd;stroke:none;stroke-width:1.2500000" />
        <path
           id="path603"
           d="M 590.90200,186.45200 C 671.48800,216.57500 712.44300,306.42600 682.32000,387.01200 C 652.19700,467.59800 562.34600,508.55400 481.76000,478.43000 C 401.17400,448.30700 360.21900,358.45600 390.34200,277.87000 C 420.46500,197.28400 510.31600,156.32900 590.90200,186.45200 z M 588.54000,192.77000 C 665.63800,221.59000 704.82100,307.55200 676.00200,384.65000 C 647.18200,461.74900 561.22000,500.93200 484.12200,472.11200 C 407.02300,443.29300 367.84000,357.33000 396.66000,280.23200 C 425.47900,203.13400 511.44200,163.95100 588.54000,192.77000 z "
           style="font-size:12.000000px;fill:#ffffff;fill-opacity:1.0000000;fill-rule:evenodd;stroke:none;stroke-width:1.5516500" />
        <path
           id="path606"
           d="M 578.39800,219.90200 C 640.52000,243.12300 672.09100,312.38700 648.87000,374.50900 C 625.64900,436.63100 556.38500,468.20200 494.26300,444.98100 C 432.14200,421.76000 400.57000,352.49600 423.79100,290.37400 C 447.01200,228.25200 516.27600,196.68000 578.39800,219.90200 z M 576.02400,226.25600 C 634.63800,248.16600 664.42800,313.52000 642.51700,372.13500 C 620.60700,430.75000 555.25300,460.53900 496.63800,438.62900 C 438.02300,416.71800 408.23400,351.36400 430.14400,292.74900 C 452.05500,234.13400 517.40900,204.34500 576.02400,226.25600 z "
           style="font-size:12.000000px;fill:#ffffff;fill-opacity:1.0000000;fill-rule:evenodd;stroke:none;stroke-width:2.0128400" />
        <path
           id="path609"
           d="M 566.27100,252.34500 C 610.48400,268.87200 632.95400,318.16900 616.42700,362.38200 C 599.90000,406.59500 550.60400,429.06500 506.39000,412.53800 C 462.17700,396.01100 439.70700,346.71500 456.23400,302.50200 C 472.76100,258.28900 522.05800,235.81900 566.27100,252.34500 z M 564.09800,258.16000 C 605.10100,273.48800 625.94000,319.20500 610.61200,360.20900 C 595.28500,401.21200 549.56800,422.05100 508.56400,406.72300 C 467.56100,391.39600 446.72200,345.67900 462.04900,304.67500 C 477.37700,263.67200 523.09400,242.83300 564.09800,258.16000 z "
           style="font-size:12.000000px;fill:#ffffff;fill-opacity:1.0000000;fill-rule:evenodd;stroke:none;stroke-width:2.8281400" />
        <path
           id="path612"
           d="M 552.62900,288.83900 C 576.69800,297.83600 588.93000,324.67100 579.93300,348.74000 C 570.93600,372.80800 544.10100,385.04000 520.03200,376.04300 C 495.96400,367.04700 483.73200,340.21100 492.72900,316.14300 C 501.72500,292.07400 528.56100,279.84200 552.62900,288.83900 z M 550.27800,295.13000 C 570.87400,302.82900 581.34200,325.79300 573.64300,346.38900 C 565.94400,366.98600 542.97900,377.45300 522.38300,369.75400 C 501.78700,362.05500 491.31900,339.09100 499.01800,318.49500 C 506.71700,297.89800 529.68200,287.43100 550.27800,295.13000 z "
           style="font-size:12.000000px;fill:#ffffff;fill-opacity:1.0000000;fill-rule:evenodd;stroke:none;stroke-width:5.1952400" />
      </g>
      <path
         transform="matrix(0.125362,-3.052161e-2,3.052161e-2,0.125362,201.1238,226.9922)"
         id="path727"
         d="M 3134.3800,2184.3800 C 3134.3800,2192.1900 3129.6900,2210.9400 3132.8100,2215.6200 C 3135.9400,2221.8800 3150.0000,2221.8800 3156.2500,2220.3100 C 3173.4400,2215.6200 3192.1900,2195.3100 3201.5600,2179.6900 C 3207.8100,2171.8800 3212.5000,2162.5000 3212.5000,2151.5600 C 3212.5000,2151.5600 3204.6900,2115.6200 3204.6900,2115.6200 C 3203.1300,2103.1200 3201.5600,2081.2500 3189.0600,2075.0000 C 3190.6300,2071.8800 3195.3100,2067.1900 3195.3100,2062.5000 C 3193.7500,2048.4400 3170.3100,2050.0000 3160.9400,2059.3800 C 3156.2500,2064.0600 3156.2500,2075.0000 3154.6900,2081.2500 C 3153.1300,2093.7500 3146.8800,2118.7500 3140.6300,2129.6900 C 3134.3800,2140.6200 3118.7500,2154.6900 3117.1900,2167.1900 C 3117.1900,2176.5600 3126.5600,2182.8100 3134.3800,2184.3800 z M 2376.5600,2018.7500 C 2376.5600,2018.7500 2379.6900,2028.1200 2379.6900,2028.1200 C 2379.6900,2029.6900 2381.2500,2032.8100 2382.8100,2032.8100 C 2392.1900,2043.7500 2409.3800,2021.8800 2392.1900,2017.1900 C 2390.6300,2017.1900 2387.5000,2015.6200 2385.9400,2017.1900 C 2382.8100,2017.1900 2379.6900,2017.1900 2376.5600,2018.7500 z M 2390.6300,1996.8800 C 2382.8100,2003.1200 2379.6900,2007.8100 2390.6300,2014.0600 C 2390.6300,2014.0600 2390.6300,1996.8800 2390.6300,1996.8800 z M 2218.7500,1843.7500 C 2206.2500,1853.1200 2207.8100,1846.8800 2201.5600,1850.0000 C 2196.8800,1853.1200 2200.0000,1857.8100 2195.3100,1864.0600 C 2193.7500,1867.1900 2189.0600,1868.7500 2189.0600,1871.8800 C 2187.5000,1876.5600 2192.1900,1879.6900 2196.8800,1881.2500 C 2203.1300,1882.8100 2221.8800,1882.8100 2228.1300,1879.6900 C 2234.3800,1875.0000 2232.8100,1868.7500 2235.9400,1864.0600 C 2237.5000,1862.5000 2240.6300,1859.3800 2242.1900,1857.8100 C 2243.7500,1850.0000 2228.1300,1839.0600 2218.7500,1843.7500 z M 2671.8800,1835.9400 C 2671.8800,1835.9400 2671.8800,1851.5600 2671.8800,1851.5600 C 2671.8800,1851.5600 2668.7500,1864.0600 2668.7500,1864.0600 C 2685.9400,1862.5000 2696.8800,1857.8100 2712.5000,1853.1200 C 2717.1900,1851.5600 2726.5600,1848.4400 2729.6900,1851.5600 C 2734.3800,1854.6900 2731.2500,1859.3800 2729.6900,1862.5000 C 2726.5600,1868.7500 2715.6300,1879.6900 2710.9400,1884.3800 C 2696.8800,1896.8800 2678.1300,1896.8800 2660.9400,1909.3800 C 2651.5600,1917.1900 2648.4400,1925.0000 2639.0600,1932.8100 C 2629.6900,1940.6200 2623.4400,1942.1900 2618.7500,1945.3100 C 2614.0600,1950.0000 2617.1900,1953.1200 2607.8100,1957.8100 C 2607.8100,1957.8100 2614.0600,1946.8800 2614.0600,1946.8800 C 2609.3800,1945.3100 2603.1300,1945.3100 2600.0000,1940.6200 C 2598.4400,1935.9400 2598.4400,1931.2500 2600.0000,1926.5600 C 2603.1300,1917.1900 2607.8100,1892.1900 2614.0600,1885.9400 C 2615.6300,1884.3800 2628.1300,1881.2500 2632.8100,1879.6900 C 2632.8100,1879.6900 2629.6900,1889.0600 2629.6900,1889.0600 C 2634.3800,1889.0600 2642.1900,1889.0600 2645.3100,1887.5000 C 2653.1300,1885.9400 2662.5000,1870.3100 2667.1900,1864.0600 C 2667.1900,1864.0600 2645.3100,1870.3100 2645.3100,1870.3100 C 2650.0000,1860.9400 2662.5000,1842.1900 2671.8800,1835.9400 z M 2251.5600,1845.3100 C 2246.8800,1859.3800 2256.2500,1854.6900 2260.9400,1860.9400 C 2264.0600,1864.0600 2264.0600,1868.7500 2264.0600,1873.4400 C 2264.0600,1873.4400 2251.5600,1875.0000 2251.5600,1875.0000 C 2251.5600,1875.0000 2245.3100,1882.8100 2245.3100,1882.8100 C 2245.3100,1882.8100 2237.5000,1890.6200 2237.5000,1890.6200 C 2237.5000,1890.6200 2257.8100,1898.4400 2257.8100,1898.4400 C 2246.8800,1901.5600 2240.6300,1900.0000 2232.8100,1909.3800 C 2232.8100,1909.3800 2259.3800,1909.3800 2259.3800,1909.3800 C 2276.5600,1910.9400 2289.0600,1915.6200 2306.2500,1907.8100 C 2306.2500,1907.8100 2303.1300,1904.6900 2303.1300,1904.6900 C 2303.1300,1904.6900 2309.3800,1890.6200 2309.3800,1890.6200 C 2309.3800,1890.6200 2298.4400,1882.8100 2298.4400,1882.8100 C 2298.4400,1882.8100 2295.3100,1873.4400 2295.3100,1873.4400 C 2295.3100,1873.4400 2278.1300,1848.4400 2278.1300,1848.4400 C 2278.1300,1848.4400 2271.8800,1845.3100 2271.8800,1845.3100 C 2278.1300,1839.0600 2290.6300,1828.1200 2275.0000,1823.4400 C 2275.0000,1823.4400 2267.1900,1821.8800 2267.1900,1821.8800 C 2267.1900,1821.8800 2275.0000,1814.0600 2275.0000,1814.0600 C 2265.6300,1812.5000 2257.8100,1810.9400 2250.0000,1817.1900 C 2240.6300,1826.5600 2239.0600,1839.0600 2251.5600,1845.3100 z M 2264.0600,1643.7500 C 2264.0600,1643.7500 2262.5000,1654.6900 2262.5000,1654.6900 C 2262.5000,1654.6900 2259.3800,1650.0000 2259.3800,1650.0000 C 2259.3800,1650.0000 2257.8100,1668.7500 2257.8100,1668.7500 C 2259.3800,1679.6900 2271.8800,1676.5600 2275.0000,1673.4400 C 2278.1300,1671.8800 2279.6900,1665.6200 2279.6900,1662.5000 C 2279.6900,1659.3800 2278.1300,1656.2500 2276.5600,1654.6900 C 2273.4400,1653.1200 2271.8800,1653.1200 2268.7500,1653.1200 C 2268.7500,1653.1200 2268.7500,1643.7500 2268.7500,1643.7500 C 2268.7500,1643.7500 2264.0600,1643.7500 2264.0600,1643.7500 z M 978.12700,1628.1200 C 975.00200,1651.5600 981.25200,1651.5600 984.37700,1671.8800 C 985.94000,1682.8100 981.25200,1685.9400 987.50200,1707.8100 C 990.62700,1717.1900 992.19000,1726.5600 1001.5600,1731.2500 C 1001.5600,1704.6900 1000.0000,1689.0600 993.75200,1664.0600 C 989.06500,1648.4400 984.37700,1646.8800 981.25200,1628.1200 C 981.25200,1628.1200 978.12700,1628.1200 978.12700,1628.1200 z M 3143.7500,1562.5000 C 3135.9400,1565.6200 3132.8100,1570.3100 3132.8100,1578.1200 C 3131.2500,1585.9400 3137.5000,1592.1900 3145.3100,1590.6200 C 3156.2500,1587.5000 3160.9400,1560.9400 3143.7500,1562.5000 z M 1681.2500,1428.1200 C 1676.5600,1435.9400 1675.0000,1443.7500 1682.8100,1450.0000 C 1682.8100,1442.1900 1685.9400,1434.3800 1681.2500,1428.1200 z M 2137.5000,1476.5600 C 2137.5000,1476.5600 2142.1900,1481.2500 2142.1900,1481.2500 C 2154.6900,1471.8800 2157.8100,1465.6200 2167.1900,1456.2500 C 2175.0000,1448.4400 2179.6900,1448.4400 2184.3800,1445.3100 C 2187.5000,1442.1900 2187.5000,1439.0600 2189.0600,1434.3800 C 2192.1900,1428.1200 2196.8800,1426.5600 2196.8800,1415.6200 C 2198.4400,1406.2500 2193.7500,1392.1900 2182.8100,1393.7500 C 2182.8100,1393.7500 2181.2500,1385.9400 2181.2500,1385.9400 C 2176.5600,1385.9400 2168.7500,1387.5000 2164.0600,1390.6200 C 2159.3800,1393.7500 2160.9400,1400.0000 2154.6900,1404.6900 C 2146.8800,1412.5000 2134.3800,1415.6200 2131.2500,1417.1900 C 2126.5600,1418.7500 2128.1300,1423.4400 2120.3100,1428.1200 C 2109.3800,1434.3800 2103.1300,1429.6900 2096.8800,1431.2500 C 2089.0600,1432.8100 2076.5600,1443.7500 2070.3100,1448.4400 C 2060.9400,1457.8100 2057.8100,1464.0600 2053.1300,1475.0000 C 2051.5600,1478.1200 2048.4400,1482.8100 2050.0000,1485.9400 C 2051.5600,1489.0600 2056.2500,1489.0600 2059.3800,1487.5000 C 2065.6300,1485.9400 2079.6900,1479.6900 2084.3800,1481.2500 C 2089.0600,1481.2500 2090.6300,1484.3800 2093.7500,1485.9400 C 2098.4400,1487.5000 2101.5600,1487.5000 2104.6900,1489.0600 C 2107.8100,1490.6200 2110.9400,1495.3100 2114.0600,1498.4400 C 2121.8800,1503.1200 2131.2500,1493.7500 2134.3800,1487.5000 C 2135.9400,1484.3800 2137.5000,1481.2500 2137.5000,1476.5600 z M 2159.3800,1357.8100 C 2159.3800,1357.8100 2159.3800,1359.3800 2159.3800,1359.3800 C 2159.3800,1359.3800 2157.8100,1357.8100 2157.8100,1357.8100 C 2157.8100,1357.8100 2159.3800,1357.8100 2159.3800,1357.8100 z M 2171.8800,1370.3100 C 2175.0000,1379.6900 2189.0600,1390.6200 2196.8800,1398.4400 C 2200.0000,1396.8800 2201.5600,1395.3100 2203.1300,1392.1900 C 2207.8100,1384.3800 2207.8100,1368.7500 2200.0000,1364.0600 C 2195.3100,1360.9400 2189.0600,1362.5000 2184.3800,1364.0600 C 2184.3800,1362.5000 2182.8100,1357.8100 2181.2500,1356.2500 C 2170.3100,1343.7500 2151.5600,1375.0000 2171.8800,1370.3100 z M 2109.3800,1343.7500 C 2118.7500,1354.6900 2118.7500,1356.2500 2132.8100,1356.2500 C 2129.6900,1365.6200 2115.6300,1379.6900 2106.2500,1371.8800 C 2100.0000,1367.1900 2100.0000,1360.9400 2096.8800,1359.3800 C 2092.1900,1356.2500 2090.6300,1367.1900 2087.5000,1370.3100 C 2079.6900,1381.2500 2068.7500,1379.6900 2065.6300,1398.4400 C 2065.6300,1398.4400 2071.8800,1395.3100 2071.8800,1395.3100 C 2076.5600,1407.8100 2089.0600,1395.3100 2096.8800,1392.1900 C 2095.3100,1393.7500 2092.1900,1396.8800 2090.6300,1400.0000 C 2089.0600,1404.6900 2093.7500,1409.3800 2098.4400,1407.8100 C 2103.1300,1406.2500 2109.3800,1398.4400 2114.0600,1395.3100 C 2118.7500,1392.1900 2120.3100,1392.1900 2125.0000,1390.6200 C 2129.6900,1387.5000 2135.9400,1382.8100 2140.6300,1379.6900 C 2154.6900,1370.3100 2154.6900,1376.5600 2160.9400,1360.9400 C 2160.9400,1357.8100 2162.5000,1356.2500 2162.5000,1353.1200 C 2157.8100,1339.0600 2134.3800,1348.4400 2132.8100,1346.8800 C 2132.8100,1346.8800 2123.4400,1343.7500 2123.4400,1343.7500 C 2120.3100,1342.1900 2114.0600,1343.7500 2109.3800,1343.7500 z M 2181.2500,1346.8800 C 2181.2500,1346.8800 2173.4400,1346.8800 2173.4400,1346.8800 C 2173.4400,1346.8800 2175.0000,1351.5600 2175.0000,1351.5600 C 2184.3800,1350.0000 2190.6300,1350.0000 2192.1900,1339.0600 C 2184.3800,1339.0600 2182.8100,1339.0600 2181.2500,1346.8800 z M 1690.6300,1332.8100 C 1690.6300,1332.8100 1679.6900,1367.1900 1679.6900,1367.1900 C 1679.6900,1367.1900 1681.2500,1382.8100 1681.2500,1382.8100 C 1681.2500,1382.8100 1684.3800,1414.0600 1684.3800,1414.0600 C 1689.0600,1407.8100 1698.4400,1387.5000 1700.0000,1379.6900 C 1700.0000,1379.6900 1703.1300,1367.1900 1703.1300,1367.1900 C 1704.6900,1357.8100 1706.2500,1354.6900 1703.1300,1345.3100 C 1703.1300,1345.3100 1692.1900,1353.1200 1692.1900,1353.1200 C 1692.1900,1353.1200 1693.7500,1332.8100 1693.7500,1332.8100 C 1693.7500,1332.8100 1690.6300,1332.8100 1690.6300,1332.8100 z M 2198.4400,1337.5000 C 2198.4400,1328.1200 2200.0000,1329.6900 2207.8100,1331.2500 C 2207.8100,1331.2500 2209.3800,1315.6200 2209.3800,1315.6200 C 2204.6900,1317.1900 2198.4400,1317.1900 2193.7500,1320.3100 C 2185.9400,1328.1200 2185.9400,1335.9400 2198.4400,1337.5000 z M 2154.6900,1312.5000 C 2154.6900,1312.5000 2159.3800,1318.7500 2159.3800,1318.7500 C 2170.3100,1317.1900 2173.4400,1320.3100 2182.8100,1323.4400 C 2182.8100,1323.4400 2179.6900,1317.1900 2179.6900,1317.1900 C 2179.6900,1317.1900 2184.3800,1310.9400 2184.3800,1310.9400 C 2193.7500,1310.9400 2195.3100,1303.1200 2192.1900,1295.3100 C 2190.6300,1293.7500 2187.5000,1292.1900 2185.9400,1290.6200 C 2170.3100,1279.6900 2167.1900,1293.7500 2162.5000,1300.0000 C 2162.5000,1300.0000 2154.6900,1312.5000 2154.6900,1312.5000 z M 2195.3100,1310.9400 C 2198.4400,1310.9400 2201.5600,1310.9400 2204.6900,1309.3800 C 2210.9400,1304.6900 2209.3800,1289.0600 2204.6900,1285.9400 C 2200.0000,1284.3800 2196.8800,1289.0600 2196.8800,1292.1900 C 2196.8800,1292.1900 2195.3100,1296.8800 2195.3100,1296.8800 C 2195.3100,1296.8800 2195.3100,1304.6900 2195.3100,1304.6900 C 2195.3100,1304.6900 2195.3100,1310.9400 2195.3100,1310.9400 z M 1693.7500,1304.6900 C 1700.0000,1298.4400 1703.1300,1287.5000 1704.6900,1279.6900 C 1693.7500,1284.3800 1693.7500,1293.7500 1693.7500,1304.6900 z M 1759.3800,1209.3800 C 1759.3800,1223.4400 1756.2500,1235.9400 1750.0000,1248.4400 C 1742.1900,1262.5000 1725.0000,1281.2500 1720.3100,1295.3100 C 1720.3100,1295.3100 1717.1900,1290.6200 1717.1900,1290.6200 C 1709.3800,1300.0000 1706.2500,1321.8800 1709.3800,1332.8100 C 1718.7500,1325.0000 1721.8800,1314.0600 1728.1300,1304.6900 C 1740.6300,1284.3800 1756.2500,1267.1900 1764.0600,1243.7500 C 1765.6300,1237.5000 1768.7500,1220.3100 1765.6300,1214.0600 C 1764.0600,1210.9400 1762.5000,1210.9400 1759.3800,1209.3800 z M 3164.0600,1376.5600 C 3173.4400,1365.6200 3178.1300,1342.1900 3182.8100,1328.1200 C 3193.7500,1295.3100 3210.9400,1281.2500 3210.9400,1239.0600 C 3210.9400,1229.6900 3209.3800,1210.9400 3198.4400,1207.8100 C 3181.2500,1204.6900 3185.9400,1228.1200 3184.3800,1232.8100 C 3184.3800,1237.5000 3182.8100,1240.6200 3181.2500,1243.7500 C 3171.8800,1259.3800 3173.4400,1278.1200 3171.8800,1295.3100 C 3171.8800,1295.3100 3162.5000,1351.5600 3162.5000,1351.5600 C 3162.5000,1351.5600 3164.0600,1376.5600 3164.0600,1376.5600 z M 2942.1900,1087.5000 C 2942.1900,1090.6200 2943.7500,1092.1900 2945.3100,1095.3100 C 2946.8800,1096.8800 2948.4400,1098.4400 2950.0000,1100.0000 C 2959.3800,1106.2500 2965.6300,1096.8800 2962.5000,1090.6200 C 2960.9400,1087.5000 2954.6900,1085.9400 2951.5600,1085.9400 C 2948.4400,1085.9400 2945.3100,1085.9400 2942.1900,1087.5000 z M 3176.5600,1081.2500 C 3176.5600,1095.3100 3179.6900,1118.7500 3184.3800,1131.2500 C 3184.3800,1131.2500 3195.3100,1157.8100 3195.3100,1157.8100 C 3195.3100,1157.8100 3206.2500,1207.8100 3206.2500,1207.8100 C 3215.6300,1198.4400 3212.5000,1185.9400 3210.9400,1175.0000 C 3206.2500,1153.1200 3198.4400,1131.2500 3192.1900,1110.9400 C 3187.5000,1100.0000 3184.3800,1089.0600 3176.5600,1081.2500 z M 3093.7500,1048.4400 C 3093.7500,1048.4400 3090.6300,1065.6200 3090.6300,1065.6200 C 3090.6300,1065.6200 3070.3100,1056.2500 3070.3100,1056.2500 C 3068.7500,1067.1900 3071.8800,1084.3800 3079.6900,1093.7500 C 3079.6900,1093.7500 3095.3100,1107.8100 3095.3100,1107.8100 C 3107.8100,1120.3100 3120.3100,1134.3800 3131.2500,1148.4400 C 3140.6300,1162.5000 3140.6300,1167.1900 3143.7500,1173.4400 C 3146.8800,1176.5600 3150.0000,1179.6900 3154.6900,1178.1200 C 3157.8100,1176.5600 3159.3800,1168.7500 3160.9400,1165.6200 C 3160.9400,1165.6200 3167.1900,1156.2500 3167.1900,1156.2500 C 3170.3100,1148.4400 3165.6300,1135.9400 3162.5000,1128.1200 C 3162.5000,1128.1200 3154.6900,1104.6900 3154.6900,1104.6900 C 3151.5600,1093.7500 3150.0000,1084.3800 3143.7500,1075.0000 C 3132.8100,1062.5000 3123.4400,1062.5000 3110.9400,1057.8100 C 3110.9400,1057.8100 3093.7500,1048.4400 3093.7500,1048.4400 z M 2660.9400,1031.2500 C 2659.3800,1037.5000 2657.8100,1046.8800 2650.0000,1048.4400 C 2648.4400,1048.4400 2642.1900,1046.8800 2640.6300,1045.3100 C 2640.6300,1045.3100 2632.8100,1062.5000 2632.8100,1062.5000 C 2629.6900,1067.1900 2623.4400,1079.6900 2623.4400,1084.3800 C 2621.8800,1092.1900 2632.8100,1092.1900 2639.0600,1085.9400 C 2645.3100,1081.2500 2646.8800,1073.4400 2651.5600,1067.1900 C 2659.3800,1054.6900 2671.8800,1050.0000 2675.0000,1034.3800 C 2675.0000,1034.3800 2660.9400,1031.2500 2660.9400,1031.2500 z M 3146.8800,1015.6200 C 3150.0000,1029.6900 3153.1300,1031.2500 3159.3800,1043.7500 C 3162.5000,1051.5600 3160.9400,1056.2500 3170.3100,1054.6900 C 3165.6300,1046.8800 3153.1300,1020.3100 3146.8800,1015.6200 z M 2489.0600,1040.6200 C 2471.8800,1037.5000 2481.2500,1057.8100 2478.1300,1065.6200 C 2473.4400,1073.4400 2454.6900,1084.3800 2446.8800,1078.1200 C 2442.1900,1079.6900 2437.5000,1079.6900 2432.8100,1078.1200 C 2428.1300,1076.5600 2425.0000,1073.4400 2420.3100,1073.4400 C 2420.3100,1073.4400 2393.7500,1089.0600 2393.7500,1089.0600 C 2389.0600,1092.1900 2382.8100,1095.3100 2376.5600,1095.3100 C 2371.8800,1095.3100 2365.6300,1095.3100 2362.5000,1098.4400 C 2357.8100,1101.5600 2360.9400,1110.9400 2362.5000,1115.6200 C 2362.5000,1115.6200 2368.7500,1126.5600 2368.7500,1126.5600 C 2353.1300,1129.6900 2353.1300,1140.6200 2353.1300,1154.6900 C 2353.1300,1162.5000 2353.1300,1190.6200 2354.6900,1196.8800 C 2356.2500,1204.6900 2365.6300,1212.5000 2373.4400,1215.6200 C 2378.1300,1218.7500 2385.9400,1220.3100 2390.6300,1220.3100 C 2390.6300,1220.3100 2393.7500,1201.5600 2393.7500,1201.5600 C 2393.7500,1201.5600 2398.4400,1201.5600 2398.4400,1201.5600 C 2398.4400,1201.5600 2401.5600,1217.1900 2401.5600,1217.1900 C 2403.1300,1217.1900 2406.2500,1217.1900 2407.8100,1217.1900 C 2407.8100,1217.1900 2426.5600,1223.4400 2426.5600,1223.4400 C 2428.1300,1225.0000 2428.1300,1225.0000 2429.6900,1226.5600 C 2431.2500,1231.2500 2426.5600,1239.0600 2426.5600,1243.7500 C 2428.1300,1254.6900 2439.0600,1257.8100 2448.4400,1257.8100 C 2446.8800,1270.3100 2448.4400,1267.1900 2446.8800,1275.0000 C 2446.8800,1282.8100 2442.1900,1282.8100 2450.0000,1300.0000 C 2451.5600,1303.1200 2454.6900,1310.9400 2459.3800,1310.9400 C 2464.0600,1310.9400 2475.0000,1300.0000 2485.9400,1295.3100 C 2487.5000,1303.1200 2487.5000,1304.6900 2493.7500,1309.3800 C 2493.7500,1309.3800 2490.6300,1317.1900 2490.6300,1317.1900 C 2490.6300,1317.1900 2509.3800,1307.8100 2509.3800,1307.8100 C 2501.5600,1331.2500 2492.1900,1325.0000 2479.6900,1339.0600 C 2475.0000,1346.8800 2476.5600,1354.6900 2473.4400,1362.5000 C 2473.4400,1362.5000 2475.0000,1364.0600 2475.0000,1364.0600 C 2475.0000,1364.0600 2481.2500,1360.9400 2481.2500,1360.9400 C 2481.2500,1360.9400 2485.9400,1359.3800 2485.9400,1359.3800 C 2500.0000,1357.8100 2487.5000,1373.4400 2487.5000,1376.5600 C 2487.5000,1381.2500 2490.6300,1382.8100 2493.7500,1384.3800 C 2493.7500,1384.3800 2485.9400,1389.0600 2485.9400,1389.0600 C 2485.9400,1389.0600 2489.0600,1400.0000 2489.0600,1400.0000 C 2489.0600,1400.0000 2460.9400,1400.0000 2460.9400,1400.0000 C 2446.8800,1401.5600 2434.3800,1410.9400 2421.8800,1418.7500 C 2421.8800,1418.7500 2421.8800,1421.8800 2421.8800,1421.8800 C 2421.8800,1421.8800 2426.5600,1423.4400 2426.5600,1423.4400 C 2426.5600,1423.4400 2398.4400,1434.3800 2398.4400,1434.3800 C 2406.2500,1437.5000 2417.1900,1434.3800 2425.0000,1434.3800 C 2432.8100,1432.8100 2431.2500,1434.3800 2440.6300,1432.8100 C 2440.6300,1432.8100 2445.3100,1435.9400 2445.3100,1435.9400 C 2445.3100,1435.9400 2443.7500,1442.1900 2443.7500,1442.1900 C 2443.7500,1442.1900 2476.5600,1456.2500 2476.5600,1456.2500 C 2484.3800,1459.3800 2490.6300,1456.2500 2495.3100,1459.3800 C 2501.5600,1464.0600 2498.4400,1471.8800 2509.3800,1475.0000 C 2521.8800,1479.6900 2532.8100,1473.4400 2543.7500,1471.8800 C 2543.7500,1471.8800 2529.6900,1484.3800 2529.6900,1484.3800 C 2529.6900,1484.3800 2534.3800,1495.3100 2534.3800,1495.3100 C 2534.3800,1495.3100 2550.0000,1492.1900 2550.0000,1492.1900 C 2537.5000,1503.1200 2539.0600,1493.7500 2517.1900,1493.7500 C 2521.8800,1496.8800 2535.9400,1504.6900 2539.0600,1506.2500 C 2546.8800,1509.3800 2551.5600,1506.2500 2562.5000,1510.9400 C 2571.8800,1514.0600 2582.8100,1521.8800 2587.5000,1507.8100 C 2589.0600,1510.9400 2590.6300,1514.0600 2592.1900,1515.6200 C 2596.8800,1518.7500 2600.0000,1518.7500 2604.6900,1520.3100 C 2610.9400,1521.8800 2625.0000,1532.8100 2623.4400,1540.6200 C 2621.8800,1542.1900 2620.3100,1543.7500 2618.7500,1545.3100 C 2617.1900,1540.6200 2615.6300,1535.9400 2612.5000,1531.2500 C 2604.6900,1520.3100 2590.6300,1523.4400 2579.6900,1520.3100 C 2579.6900,1520.3100 2557.8100,1512.5000 2557.8100,1512.5000 C 2557.8100,1512.5000 2540.6300,1509.3800 2540.6300,1509.3800 C 2531.2500,1507.8100 2526.5600,1501.5600 2517.1900,1501.5600 C 2514.0600,1501.5600 2509.3800,1503.1200 2509.3800,1506.2500 C 2509.3800,1509.3800 2512.5000,1512.5000 2514.0600,1514.0600 C 2523.4400,1520.3100 2520.3100,1515.6200 2534.3800,1526.5600 C 2542.1900,1532.8100 2545.3100,1531.2500 2553.1300,1534.3800 C 2553.1300,1534.3800 2560.9400,1539.0600 2560.9400,1539.0600 C 2567.1900,1540.6200 2568.7500,1537.5000 2575.0000,1539.0600 C 2578.1300,1539.0600 2584.3800,1540.6200 2587.5000,1542.1900 C 2587.5000,1542.1900 2559.3800,1551.5600 2559.3800,1551.5600 C 2559.3800,1551.5600 2539.0600,1546.8800 2539.0600,1546.8800 C 2542.1900,1556.2500 2543.7500,1557.8100 2535.9400,1565.6200 C 2535.9400,1565.6200 2532.8100,1559.3800 2532.8100,1559.3800 C 2528.1300,1564.0600 2528.1300,1567.1900 2523.4400,1571.8800 C 2523.4400,1571.8800 2515.6300,1579.6900 2515.6300,1579.6900 C 2514.0600,1582.8100 2509.3800,1587.5000 2506.2500,1587.5000 C 2501.5600,1587.5000 2496.8800,1581.2500 2493.7500,1578.1200 C 2487.5000,1573.4400 2484.3800,1573.4400 2476.5600,1575.0000 C 2481.2500,1584.3800 2484.3800,1582.8100 2492.1900,1587.5000 C 2498.4400,1592.1900 2514.0600,1607.8100 2518.7500,1614.0600 C 2517.1900,1614.0600 2515.6300,1614.0600 2514.0600,1617.1900 C 2510.9400,1620.3100 2512.5000,1634.3800 2515.6300,1639.0600 C 2518.7500,1642.1900 2521.8800,1643.7500 2526.5600,1643.7500 C 2526.5600,1643.7500 2506.2500,1659.3800 2506.2500,1659.3800 C 2514.0600,1662.5000 2517.1900,1660.9400 2523.4400,1667.1900 C 2523.4400,1667.1900 2507.8100,1667.1900 2507.8100,1667.1900 C 2507.8100,1667.1900 2489.0600,1650.0000 2489.0600,1650.0000 C 2489.0600,1650.0000 2468.7500,1639.0600 2468.7500,1639.0600 C 2476.5600,1640.6200 2489.0600,1642.1900 2496.8800,1639.0600 C 2510.9400,1632.8100 2506.2500,1617.1900 2496.8800,1607.8100 C 2490.6300,1603.1200 2485.9400,1603.1200 2478.1300,1601.5600 C 2471.8800,1600.0000 2462.5000,1595.3100 2456.2500,1595.3100 C 2456.2500,1595.3100 2439.0600,1596.8800 2439.0600,1596.8800 C 2439.0600,1596.8800 2440.6300,1592.1900 2440.6300,1592.1900 C 2435.9400,1590.6200 2434.3800,1589.0600 2429.6900,1592.1900 C 2425.0000,1587.5000 2425.0000,1585.9400 2418.7500,1584.3800 C 2418.7500,1584.3800 2418.7500,1592.1900 2418.7500,1592.1900 C 2418.7500,1592.1900 2412.5000,1584.3800 2412.5000,1584.3800 C 2412.5000,1584.3800 2410.9400,1592.1900 2410.9400,1592.1900 C 2407.8100,1585.9400 2407.8100,1584.3800 2401.5600,1581.2500 C 2401.5600,1581.2500 2404.6900,1601.5600 2404.6900,1601.5600 C 2404.6900,1601.5600 2401.5600,1606.2500 2401.5600,1606.2500 C 2392.1900,1612.5000 2390.6300,1628.1200 2390.6300,1637.5000 C 2390.6300,1656.2500 2385.9400,1660.9400 2382.8100,1675.0000 C 2381.2500,1685.9400 2384.3800,1690.6200 2379.6900,1706.2500 C 2378.1300,1712.5000 2370.3100,1729.6900 2367.1900,1734.3800 C 2367.1900,1734.3800 2359.3800,1742.1900 2359.3800,1742.1900 C 2359.3800,1742.1900 2353.1300,1751.5600 2353.1300,1751.5600 C 2350.0000,1756.2500 2345.3100,1759.3800 2342.1900,1764.0600 C 2339.0600,1770.3100 2342.1900,1773.4400 2343.7500,1776.5600 C 2345.3100,1785.9400 2339.0600,1782.8100 2348.4400,1796.8800 C 2348.4400,1796.8800 2342.1900,1803.1200 2342.1900,1803.1200 C 2342.1900,1803.1200 2348.4400,1803.1200 2348.4400,1803.1200 C 2343.7500,1814.0600 2350.0000,1821.8800 2360.9400,1820.3100 C 2368.7500,1818.7500 2378.1300,1809.3800 2381.2500,1801.5600 C 2381.2500,1801.5600 2384.3800,1801.5600 2384.3800,1801.5600 C 2384.3800,1801.5600 2401.5600,1837.5000 2401.5600,1837.5000 C 2404.6900,1842.1900 2404.6900,1850.0000 2410.9400,1851.5600 C 2417.1900,1853.1200 2420.3100,1846.8800 2423.4400,1842.1900 C 2426.5600,1839.0600 2429.6900,1837.5000 2432.8100,1834.3800 C 2437.5000,1826.5600 2431.2500,1814.0600 2432.8100,1806.2500 C 2434.3800,1800.0000 2439.0600,1796.8800 2440.6300,1789.0600 C 2440.6300,1778.1200 2432.8100,1775.0000 2428.1300,1768.7500 C 2423.4400,1762.5000 2423.4400,1756.2500 2423.4400,1748.4400 C 2423.4400,1731.2500 2432.8100,1726.5600 2435.9400,1712.5000 C 2437.5000,1703.1200 2432.8100,1696.8800 2432.8100,1690.6200 C 2432.8100,1685.9400 2434.3800,1681.2500 2439.0600,1681.2500 C 2450.0000,1679.6900 2450.0000,1692.1900 2450.0000,1700.0000 C 2450.0000,1700.0000 2446.8800,1715.6200 2446.8800,1715.6200 C 2445.3100,1721.8800 2442.1900,1726.5600 2442.1900,1734.3800 C 2443.7500,1740.6200 2446.8800,1745.3100 2448.4400,1750.0000 C 2451.5600,1754.6900 2451.5600,1759.3800 2454.6900,1762.5000 C 2457.8100,1764.0600 2459.3800,1765.6200 2462.5000,1765.6200 C 2465.6300,1767.1900 2468.7500,1768.7500 2471.8800,1768.7500 C 2479.6900,1767.1900 2489.0600,1753.1200 2496.8800,1748.4400 C 2501.5600,1745.3100 2507.8100,1746.8800 2512.5000,1746.8800 C 2509.3800,1751.5600 2501.5600,1759.3800 2498.4400,1762.5000 C 2492.1900,1765.6200 2481.2500,1767.1900 2479.6900,1776.5600 C 2475.0000,1789.0600 2492.1900,1789.0600 2490.6300,1800.0000 C 2489.0600,1807.8100 2478.1300,1796.8800 2473.4400,1806.2500 C 2467.1900,1815.6200 2473.4400,1821.8800 2475.0000,1829.6900 C 2475.0000,1834.3800 2471.8800,1839.0600 2470.3100,1843.7500 C 2462.5000,1854.6900 2457.8100,1846.8800 2448.4400,1851.5600 C 2440.6300,1854.6900 2431.2500,1865.6200 2423.4400,1867.1900 C 2417.1900,1868.7500 2412.5000,1864.0600 2407.8100,1864.0600 C 2401.5600,1864.0600 2395.3100,1873.4400 2385.9400,1864.0600 C 2376.5600,1853.1200 2389.0600,1848.4400 2387.5000,1839.0600 C 2387.5000,1839.0600 2382.8100,1823.4400 2382.8100,1823.4400 C 2373.4400,1828.1200 2364.0600,1834.3800 2365.6300,1846.8800 C 2368.7500,1857.8100 2378.1300,1867.1900 2371.8800,1875.0000 C 2367.1900,1878.1200 2357.8100,1878.1200 2350.0000,1882.8100 C 2340.6300,1887.5000 2329.6900,1903.1200 2326.5600,1904.6900 C 2321.8800,1907.8100 2317.1900,1907.8100 2312.5000,1910.9400 C 2312.5000,1910.9400 2295.3100,1925.0000 2295.3100,1925.0000 C 2293.7500,1926.5600 2293.7500,1926.5600 2292.1900,1928.1200 C 2292.1900,1928.1200 2273.4400,1920.3100 2273.4400,1920.3100 C 2273.4400,1920.3100 2273.4400,1931.2500 2273.4400,1931.2500 C 2265.6300,1931.2500 2265.6300,1931.2500 2259.3800,1929.6900 C 2254.6900,1928.1200 2245.3100,1926.5600 2242.1900,1932.8100 C 2239.0600,1937.5000 2251.5600,1942.1900 2254.6900,1943.7500 C 2273.4400,1954.6900 2275.0000,1976.5600 2265.6300,1984.3800 C 2259.3800,1989.0600 2250.0000,1984.3800 2243.7500,1982.8100 C 2229.6900,1979.6900 2207.8100,1971.8800 2193.7500,1970.3100 C 2175.0000,1970.3100 2179.6900,1982.8100 2175.0000,1992.1900 C 2173.4400,1998.4400 2167.1900,2001.5600 2165.6300,2006.2500 C 2164.0600,2007.8100 2164.0600,2009.3800 2164.0600,2010.9400 C 2164.0600,2009.3800 2167.1900,2029.6900 2167.1900,2028.1200 C 2168.7500,2034.3800 2179.6900,2034.3800 2185.9400,2035.9400 C 2193.7500,2039.0600 2195.3100,2043.7500 2201.5600,2048.4400 C 2207.8100,2051.5600 2210.9400,2050.0000 2217.1900,2048.4400 C 2231.2500,2048.4400 2243.7500,2056.2500 2265.6300,2046.8800 C 2270.3100,2045.3100 2275.0000,2042.1900 2276.5600,2039.0600 C 2281.2500,2034.3800 2279.6900,2029.6900 2285.9400,2025.0000 C 2293.7500,2018.7500 2307.8100,2017.1900 2315.6300,2012.5000 C 2321.8800,2007.8100 2318.7500,1998.4400 2329.6900,1995.3100 C 2337.5000,1993.7500 2345.3100,2000.0000 2356.2500,1996.8800 C 2365.6300,1995.3100 2376.5600,1985.9400 2385.9400,1984.3800 C 2395.3100,1984.3800 2400.0000,1995.3100 2412.5000,2000.0000 C 2412.5000,2000.0000 2462.5000,2015.6200 2462.5000,2015.6200 C 2464.0600,2015.6200 2467.1900,2017.1900 2468.7500,2018.7500 C 2481.2500,2031.2500 2460.9400,2034.3800 2453.1300,2035.9400 C 2446.8800,2037.5000 2445.3100,2037.5000 2439.0600,2037.5000 C 2440.6300,2039.0600 2440.6300,2040.6200 2442.1900,2042.1900 C 2448.4400,2045.3100 2464.0600,2048.4400 2470.3100,2043.7500 C 2473.4400,2040.6200 2473.4400,2037.5000 2473.4400,2032.8100 C 2479.6900,2031.2500 2482.8100,2029.6900 2485.9400,2023.4400 C 2485.9400,2018.7500 2484.3800,2014.0600 2489.0600,2010.9400 C 2492.1900,2007.8100 2498.4400,2007.8100 2503.1300,2007.8100 C 2496.8800,1998.4400 2490.6300,2001.5600 2481.2500,2000.0000 C 2476.5600,1998.4400 2475.0000,1995.3100 2470.3100,1993.7500 C 2465.6300,1993.7500 2460.9400,1996.8800 2454.6900,1993.7500 C 2450.0000,1992.1900 2445.3100,1987.5000 2440.6300,1985.9400 C 2435.9400,1982.8100 2423.4400,1979.6900 2425.0000,1971.8800 C 2426.5600,1968.7500 2428.1300,1967.1900 2431.2500,1967.1900 C 2432.8100,1965.6200 2434.3800,1965.6200 2435.9400,1965.6200 C 2435.9400,1965.6200 2437.5000,1971.8800 2437.5000,1971.8800 C 2454.6900,1967.1900 2448.4400,1975.0000 2462.5000,1978.1200 C 2475.0000,1982.8100 2490.6300,1979.6900 2503.1300,1985.9400 C 2510.9400,1989.0600 2507.8100,1993.7500 2514.0600,2001.5600 C 2521.8800,2009.3800 2534.3800,2007.8100 2545.3100,2007.8100 C 2543.7500,2009.3800 2542.1900,2009.3800 2542.1900,2010.9400 C 2539.0600,2015.6200 2542.1900,2018.7500 2545.3100,2020.3100 C 2556.2500,2028.1200 2575.0000,2015.6200 2560.9400,2007.8100 C 2560.9400,2007.8100 2585.9400,1998.4400 2585.9400,1998.4400 C 2575.0000,1992.1900 2568.7500,1996.8800 2554.6900,1985.9400 C 2562.5000,1985.9400 2564.0600,1985.9400 2570.3100,1981.2500 C 2570.3100,1981.2500 2571.8800,1975.0000 2571.8800,1975.0000 C 2571.8800,1975.0000 2598.4400,1964.0600 2598.4400,1964.0600 C 2589.0600,1976.5600 2598.4400,1973.4400 2600.0000,1987.5000 C 2607.8100,1987.5000 2617.1900,1990.6200 2625.0000,1990.6200 C 2631.2500,1989.0600 2648.4400,1984.3800 2653.1300,1981.2500 C 2657.8100,1978.1200 2659.3800,1973.4400 2664.0600,1970.3100 C 2664.0600,1970.3100 2682.8100,1964.0600 2682.8100,1964.0600 C 2690.6300,1959.3800 2696.8800,1953.1200 2703.1300,1946.8800 C 2706.2500,1943.7500 2709.3800,1940.6200 2714.0600,1942.1900 C 2720.3100,1945.3100 2720.3100,1960.9400 2720.3100,1967.1900 C 2721.8800,1971.8800 2723.4400,1978.1200 2723.4400,1982.8100 C 2720.3100,2003.1200 2698.4400,2004.6900 2684.3800,2014.0600 C 2675.0000,2020.3100 2667.1900,2031.2500 2657.8100,2034.3800 C 2645.3100,2042.1900 2610.9400,2051.5600 2595.3100,2054.6900 C 2595.3100,2054.6900 2562.5000,2057.8100 2562.5000,2057.8100 C 2554.6900,2060.9400 2545.3100,2067.1900 2542.1900,2073.4400 C 2539.0600,2079.6900 2542.1900,2087.5000 2534.3800,2090.6200 C 2526.5600,2093.7500 2495.3100,2095.3100 2487.5000,2093.7500 C 2475.0000,2090.6200 2479.6900,2087.5000 2460.9400,2087.5000 C 2443.7500,2087.5000 2425.0000,2089.0600 2407.8100,2084.3800 C 2410.9400,2081.2500 2417.1900,2075.0000 2418.7500,2070.3100 C 2420.3100,2067.1900 2418.7500,2065.6200 2418.7500,2062.5000 C 2418.7500,2060.9400 2418.7500,2057.8100 2417.1900,2056.2500 C 2414.0600,2051.5600 2401.5600,2051.5600 2396.8800,2051.5600 C 2385.9400,2053.1200 2387.5000,2056.2500 2370.3100,2056.2500 C 2370.3100,2056.2500 2312.5000,2057.8100 2312.5000,2057.8100 C 2284.3800,2057.8100 2260.9400,2067.1900 2250.0000,2067.1900 C 2242.1900,2067.1900 2225.0000,2064.0600 2217.1900,2060.9400 C 2210.9400,2057.8100 2204.6900,2051.5600 2196.8800,2054.6900 C 2189.0600,2056.2500 2185.9400,2062.5000 2176.5600,2065.6200 C 2167.1900,2068.7500 2150.0000,2068.7500 2139.0600,2075.0000 C 2128.1300,2081.2500 2132.8100,2087.5000 2120.3100,2092.1900 C 2114.0600,2093.7500 2093.7500,2092.1900 2085.9400,2092.1900 C 2068.7500,2090.6200 2059.3800,2096.8800 2043.7500,2101.5600 C 2043.7500,2101.5600 2026.5600,2106.2500 2026.5600,2106.2500 C 2020.3100,2107.8100 2007.8100,2109.3800 2004.6900,2114.0600 C 2001.5600,2118.7500 2004.6900,2125.0000 2004.6900,2129.6900 C 2004.6900,2134.3800 2003.1300,2139.0600 2001.5600,2143.7500 C 1992.1900,2154.6900 1970.3100,2162.5000 1971.8800,2179.6900 C 1973.4400,2190.6200 1979.6900,2192.1900 1990.6300,2203.1200 C 2004.6900,2220.3100 2014.0600,2243.7500 2029.6900,2257.8100 C 2050.0000,2275.0000 2079.6900,2296.8800 2106.2500,2304.6900 C 2106.2500,2304.6900 2153.1300,2310.9400 2153.1300,2310.9400 C 2178.1300,2315.6200 2196.8800,2323.4400 2223.4400,2325.0000 C 2223.4400,2325.0000 2282.8100,2320.3100 2282.8100,2320.3100 C 2295.3100,2320.3100 2314.0600,2318.7500 2326.5600,2323.4400 C 2339.0600,2328.1200 2340.6300,2337.5000 2364.0600,2337.5000 C 2364.0600,2337.5000 2396.8800,2335.9400 2396.8800,2335.9400 C 2404.6900,2334.3800 2410.9400,2332.8100 2418.7500,2337.5000 C 2437.5000,2350.0000 2401.5600,2367.1900 2415.6300,2381.2500 C 2423.4400,2389.0600 2451.5600,2393.7500 2462.5000,2398.4400 C 2470.3100,2400.0000 2493.7500,2415.6200 2498.4400,2421.8800 C 2501.5600,2425.0000 2501.5600,2428.1200 2504.6900,2432.8100 C 2507.8100,2437.5000 2515.6300,2440.6200 2515.6300,2445.3100 C 2515.6300,2450.0000 2504.6900,2457.8100 2501.5600,2460.9400 C 2492.1900,2468.7500 2473.4400,2489.0600 2481.2500,2503.1200 C 2484.3800,2507.8100 2493.7500,2512.5000 2498.4400,2515.6200 C 2498.4400,2515.6200 2542.1900,2532.8100 2542.1900,2532.8100 C 2560.9400,2542.1900 2560.9400,2557.8100 2571.8800,2567.1900 C 2579.6900,2573.4400 2593.7500,2573.4400 2604.6900,2575.0000 C 2604.6900,2575.0000 2650.0000,2590.6200 2650.0000,2590.6200 C 2665.6300,2596.8800 2657.8100,2606.2500 2670.3100,2609.3800 C 2696.8800,2614.0600 2740.6300,2593.7500 2764.0600,2581.2500 C 2764.0600,2581.2500 2810.9400,2562.5000 2810.9400,2562.5000 C 2829.6900,2554.6900 2846.8800,2545.3100 2864.0600,2535.9400 C 2896.8800,2515.6200 2925.0000,2487.5000 2943.7500,2454.6900 C 2950.0000,2445.3100 2967.1900,2423.4400 2968.7500,2417.1900 C 2971.8800,2407.8100 2962.5000,2401.5600 2967.1900,2393.7500 C 2973.4400,2382.8100 2995.3100,2368.7500 3001.5600,2356.2500 C 3006.2500,2350.0000 3006.2500,2339.0600 3000.0000,2334.3800 C 2993.7500,2331.2500 2989.0600,2334.3800 2976.5600,2329.6900 C 2989.0600,2304.6900 3009.3800,2281.2500 3026.5600,2259.3800 C 3034.3800,2250.0000 3048.4400,2232.8100 3050.0000,2220.3100 C 3051.5600,2206.2500 3039.0600,2204.6900 3034.3800,2198.4400 C 3029.6900,2193.7500 3031.2500,2190.6200 3028.1300,2189.0600 C 3021.8800,2185.9400 3010.9400,2190.6200 3004.6900,2189.0600 C 3000.0000,2189.0600 2996.8800,2185.9400 2993.7500,2184.3800 C 2989.0600,2181.2500 2982.8100,2182.8100 2978.1300,2182.8100 C 2973.4400,2160.9400 2992.1900,2123.4400 3001.5600,2103.1200 C 3020.3100,2059.3800 3043.7500,2015.6200 3042.1900,1967.1900 C 3042.1900,1967.1900 3039.0600,1929.6900 3039.0600,1929.6900 C 3037.5000,1925.0000 3034.3800,1918.7500 3028.1300,1920.3100 C 3018.7500,1921.8800 3007.8100,1948.4400 3003.1300,1956.2500 C 3003.1300,1956.2500 2978.1300,1992.1900 2978.1300,1992.1900 C 2971.8800,2000.0000 2967.1900,2010.9400 2959.3800,2017.1900 C 2953.1300,2021.8800 2943.7500,2025.0000 2935.9400,2028.1200 C 2934.3800,2020.3100 2929.6900,2021.8800 2923.4400,2023.4400 C 2923.4400,2023.4400 2893.7500,2035.9400 2893.7500,2035.9400 C 2887.5000,2039.0600 2875.0000,2046.8800 2867.1900,2046.8800 C 2860.9400,2046.8800 2857.8100,2042.1900 2848.4400,2043.7500 C 2842.1900,2043.7500 2831.2500,2046.8800 2826.5600,2045.3100 C 2820.3100,2043.7500 2814.0600,2037.5000 2807.8100,2035.9400 C 2803.1300,2034.3800 2793.7500,2035.9400 2789.0600,2037.5000 C 2773.4400,2037.5000 2750.0000,2028.1200 2734.3800,2023.4400 C 2737.5000,2021.8800 2740.6300,2021.8800 2740.6300,2018.7500 C 2743.7500,2010.9400 2732.8100,1996.8800 2748.4400,1993.7500 C 2750.0000,1993.7500 2753.1300,1993.7500 2754.6900,1993.7500 C 2754.6900,1993.7500 2781.2500,1995.3100 2781.2500,1995.3100 C 2781.2500,1995.3100 2796.8800,1993.7500 2796.8800,1993.7500 C 2804.6900,1995.3100 2806.2500,2000.0000 2817.1900,2000.0000 C 2817.1900,2000.0000 2856.2500,1993.7500 2856.2500,1993.7500 C 2871.8800,1993.7500 2876.5600,2009.3800 2893.7500,2000.0000 C 2907.8100,1992.1900 2923.4400,1962.5000 2929.6900,1948.4400 C 2929.6900,1948.4400 2946.8800,1915.6200 2946.8800,1915.6200 C 2946.8800,1915.6200 2954.6900,1892.1900 2954.6900,1892.1900 C 2962.5000,1875.0000 2968.7500,1867.1900 2968.7500,1846.8800 C 2968.7500,1846.8800 2968.7500,1817.1900 2968.7500,1817.1900 C 2968.7500,1804.6900 2967.1900,1795.3100 2953.1300,1806.2500 C 2942.1900,1815.6200 2937.5000,1826.5600 2921.8800,1823.4400 C 2915.6300,1842.1900 2915.6300,1867.1900 2895.3100,1876.5600 C 2887.5000,1881.2500 2879.6900,1878.1200 2871.8800,1879.6900 C 2867.1900,1881.2500 2860.9400,1884.3800 2857.8100,1882.8100 C 2853.1300,1882.8100 2850.0000,1879.6900 2850.0000,1875.0000 C 2851.5600,1868.7500 2862.5000,1865.6200 2867.1900,1864.0600 C 2882.8100,1859.3800 2890.6300,1857.8100 2903.1300,1845.3100 C 2910.9400,1835.9400 2912.5000,1828.1200 2918.7500,1820.3100 C 2925.0000,1814.0600 2929.6900,1815.6200 2935.9400,1809.3800 C 2940.6300,1804.6900 2950.0000,1789.0600 2954.6900,1782.8100 C 2954.6900,1782.8100 2979.6900,1728.1200 2979.6900,1728.1200 C 2990.6300,1712.5000 3006.2500,1710.9400 3012.5000,1690.6200 C 3012.5000,1690.6200 3014.0600,1698.4400 3014.0600,1698.4400 C 3031.2500,1692.1900 3032.8100,1676.5600 3031.2500,1660.9400 C 3040.6300,1660.9400 3059.3800,1664.0600 3067.1900,1662.5000 C 3067.1900,1662.5000 3104.6900,1643.7500 3104.6900,1643.7500 C 3114.0600,1639.0600 3129.6900,1629.6900 3132.8100,1620.3100 C 3135.9400,1614.0600 3128.1300,1592.1900 3125.0000,1587.5000 C 3123.4400,1584.3800 3121.8800,1582.8100 3118.7500,1581.2500 C 3110.9400,1578.1200 3100.0000,1579.6900 3095.3100,1568.7500 C 3089.0600,1559.3800 3084.3800,1528.1200 3079.6900,1515.6200 C 3070.3100,1482.8100 3068.7500,1489.0600 3064.0600,1476.5600 C 3060.9400,1468.7500 3062.5000,1460.9400 3062.5000,1453.1200 C 3060.9400,1446.8800 3057.8100,1442.1900 3057.8100,1439.0600 C 3057.8100,1432.8100 3062.5000,1429.6900 3067.1900,1425.0000 C 3075.0000,1414.0600 3075.0000,1404.6900 3082.8100,1398.4400 C 3089.0600,1393.7500 3093.7500,1396.8800 3096.8800,1392.1900 C 3107.8100,1379.6900 3085.9400,1367.1900 3095.3100,1353.1200 C 3100.0000,1346.8800 3112.5000,1335.9400 3120.3100,1335.9400 C 3126.5600,1334.3800 3131.2500,1337.5000 3137.5000,1335.9400 C 3143.7500,1332.8100 3145.3100,1321.8800 3148.4400,1315.6200 C 3156.2500,1300.0000 3165.6300,1301.5600 3170.3100,1279.6900 C 3171.8800,1271.8800 3173.4400,1260.9400 3170.3100,1254.6900 C 3164.0600,1245.3100 3153.1300,1251.5600 3150.0000,1257.8100 C 3143.7500,1265.6200 3143.7500,1276.5600 3143.7500,1285.9400 C 3142.1900,1295.3100 3139.0600,1307.8100 3132.8100,1315.6200 C 3125.0000,1326.5600 3112.5000,1317.1900 3109.3800,1310.9400 C 3107.8100,1307.8100 3109.3800,1304.6900 3109.3800,1301.5600 C 3110.9400,1289.0600 3107.8100,1284.3800 3112.5000,1270.3100 C 3114.0600,1264.0600 3121.8800,1246.8800 3120.3100,1243.7500 C 3120.3100,1239.0600 3107.8100,1221.8800 3104.6900,1217.1900 C 3098.4400,1209.3800 3087.5000,1192.1900 3075.0000,1198.4400 C 3064.0600,1203.1200 3064.0600,1223.4400 3060.9400,1234.3800 C 3059.3800,1239.0600 3056.2500,1248.4400 3051.5600,1248.4400 C 3048.4400,1250.0000 3043.7500,1245.3100 3040.6300,1242.1900 C 3032.8100,1232.8100 3028.1300,1226.5600 3028.1300,1212.5000 C 3032.8100,1214.0600 3045.3100,1218.7500 3046.8800,1212.5000 C 3046.8800,1206.2500 3040.6300,1195.3100 3034.3800,1195.3100 C 3028.1300,1193.7500 3026.5600,1200.0000 3018.7500,1193.7500 C 3012.5000,1187.5000 3000.0000,1160.9400 2993.7500,1151.5600 C 2985.9400,1139.0600 2973.4400,1128.1200 2960.9400,1120.3100 C 2953.1300,1117.1900 2928.1300,1104.6900 2920.3100,1109.3800 C 2917.1900,1110.9400 2917.1900,1115.6200 2915.6300,1118.7500 C 2914.0600,1117.1900 2912.5000,1115.6200 2909.3800,1115.6200 C 2898.4400,1112.5000 2893.7500,1125.0000 2892.1900,1132.8100 C 2892.1900,1135.9400 2892.1900,1142.1900 2887.5000,1143.7500 C 2882.8100,1145.3100 2879.6900,1142.1900 2876.5600,1139.0600 C 2868.7500,1132.8100 2868.7500,1131.2500 2857.8100,1126.5600 C 2859.3800,1132.8100 2860.9400,1139.0600 2864.0600,1145.3100 C 2871.8800,1157.8100 2878.1300,1157.8100 2875.0000,1173.4400 C 2862.5000,1167.1900 2848.4400,1159.3800 2840.6300,1148.4400 C 2840.6300,1148.4400 2853.1300,1145.3100 2853.1300,1145.3100 C 2853.1300,1145.3100 2853.1300,1142.1900 2853.1300,1142.1900 C 2848.4400,1139.0600 2832.8100,1125.0000 2832.8100,1118.7500 C 2832.8100,1114.0600 2839.0600,1114.0600 2839.0600,1109.3800 C 2840.6300,1104.6900 2835.9400,1101.5600 2839.0600,1095.3100 C 2843.7500,1090.6200 2853.1300,1087.5000 2853.1300,1081.2500 C 2853.1300,1078.1200 2850.0000,1075.0000 2846.8800,1073.4400 C 2840.6300,1068.7500 2829.6900,1059.3800 2821.8800,1065.6200 C 2815.6300,1070.3100 2818.7500,1081.2500 2814.0600,1095.3100 C 2809.3800,1093.7500 2801.5600,1089.0600 2796.8800,1087.5000 C 2790.6300,1085.9400 2782.8100,1089.0600 2775.0000,1084.3800 C 2764.0600,1079.6900 2760.9400,1070.3100 2751.5600,1065.6200 C 2734.3800,1056.2500 2718.7500,1059.3800 2701.5600,1060.9400 C 2693.7500,1060.9400 2681.2500,1060.9400 2673.4400,1064.0600 C 2667.1900,1067.1900 2664.0600,1071.8800 2660.9400,1076.5600 C 2653.1300,1084.3800 2639.0600,1087.5000 2639.0600,1100.0000 C 2640.6300,1110.9400 2650.0000,1112.5000 2653.1300,1115.6200 C 2653.1300,1115.6200 2660.9400,1135.9400 2660.9400,1135.9400 C 2650.0000,1137.5000 2645.3100,1134.3800 2635.9400,1134.3800 C 2635.9400,1134.3800 2598.4400,1139.0600 2598.4400,1139.0600 C 2579.6900,1137.5000 2575.0000,1126.5600 2564.0600,1120.3100 C 2557.8100,1117.1900 2553.1300,1117.1900 2548.4400,1114.0600 C 2543.7500,1109.3800 2543.7500,1104.6900 2542.1900,1103.1200 C 2539.0600,1098.4400 2523.4400,1095.3100 2518.7500,1095.3100 C 2518.7500,1098.4400 2518.7500,1100.0000 2515.6300,1103.1200 C 2512.5000,1107.8100 2498.4400,1114.0600 2492.1900,1114.0600 C 2489.0600,1115.6200 2484.3800,1114.0600 2481.2500,1112.5000 C 2481.2500,1112.5000 2482.8100,1106.2500 2482.8100,1106.2500 C 2484.3800,1098.4400 2479.6900,1098.4400 2473.4400,1100.0000 C 2464.0600,1101.5600 2457.8100,1107.8100 2450.0000,1112.5000 C 2453.1300,1107.8100 2456.2500,1101.5600 2460.9400,1096.8800 C 2467.1900,1092.1900 2475.0000,1090.6200 2482.8100,1087.5000 C 2482.8100,1087.5000 2507.8100,1075.0000 2507.8100,1075.0000 C 2514.0600,1071.8800 2523.4400,1068.7500 2528.1300,1065.6200 C 2542.1900,1056.2500 2548.4400,1023.4400 2546.8800,1006.2500 C 2521.8800,1014.0600 2528.1300,1015.6200 2510.9400,1023.4400 C 2504.6900,1026.5600 2501.5600,1026.5600 2496.8800,1028.1200 C 2492.1900,1031.2500 2490.6300,1035.9400 2489.0600,1040.6200 z M 2659.3800,998.43800 C 2659.3800,998.43800 2673.4400,1010.9400 2673.4400,1010.9400 C 2673.4400,1010.9400 2682.8100,1032.8100 2682.8100,1032.8100 C 2692.1900,1029.6900 2693.7500,1026.5600 2700.0000,1025.0000 C 2703.1300,1023.4400 2721.8800,1029.6900 2718.7500,1017.1900 C 2717.1900,1015.6200 2715.6300,1014.0600 2714.0600,1012.5000 C 2714.0600,1012.5000 2712.5000,1017.1900 2712.5000,1017.1900 C 2707.8100,1012.5000 2701.5600,1006.2500 2695.3100,1003.1200 C 2689.0600,1000.0000 2667.1900,998.43800 2659.3800,998.43800 z M 2710.9400,1010.9400 C 2732.8100,1010.9400 2729.6900,1004.6900 2742.1900,1004.6900 C 2748.4400,1003.1200 2757.8100,1006.2500 2764.0600,1007.8100 C 2764.0600,1007.8100 2762.5000,1014.0600 2762.5000,1014.0600 C 2775.0000,1020.3100 2775.0000,1012.5000 2784.3800,1015.6200 C 2793.7500,1020.3100 2798.4400,1032.8100 2814.0600,1039.0600 C 2820.3100,1042.1900 2823.4400,1043.7500 2829.6900,1040.6200 C 2832.8100,1046.8800 2834.3800,1046.8800 2840.6300,1046.8800 C 2842.1900,1039.0600 2846.8800,1037.5000 2845.3100,1032.8100 C 2843.7500,1028.1200 2828.1300,1020.3100 2825.0000,1035.9400 C 2820.3100,1028.1200 2823.4400,1026.5600 2821.8800,1021.8800 C 2817.1900,1014.0600 2806.2500,1012.5000 2798.4400,1014.0600 C 2796.8800,998.43800 2798.4400,1003.1200 2778.1300,990.62500 C 2771.8800,985.93800 2757.8100,978.12500 2750.0000,976.56200 C 2740.6300,975.00000 2737.5000,981.25000 2729.6900,984.37500 C 2725.0000,989.06200 2720.3100,987.50000 2715.6300,990.62500 C 2710.9400,995.31200 2710.9400,1004.6900 2710.9400,1010.9400 z M 3045.3100,971.87500 C 3045.3100,971.87500 3062.5000,995.31200 3062.5000,995.31200 C 3068.7500,1006.2500 3075.0000,1017.1900 3082.8100,1026.5600 C 3089.0600,1032.8100 3098.4400,1037.5000 3107.8100,1035.9400 C 3114.0600,1034.3800 3134.3800,1017.1900 3120.3100,1007.8100 C 3115.6300,1004.6900 3107.8100,1007.8100 3103.1300,1007.8100 C 3104.6900,996.87500 3104.6900,990.62500 3103.1300,979.68800 C 3103.1300,976.56200 3103.1300,970.31200 3096.8800,971.87500 C 3089.0600,975.00000 3095.3100,998.43800 3084.3800,990.62500 C 3084.3800,990.62500 3079.6900,987.50000 3079.6900,987.50000 C 3079.6900,987.50000 3075.0000,982.81200 3075.0000,982.81200 C 3068.7500,989.06200 3075.0000,992.18800 3079.6900,998.43800 C 3085.9400,1004.6900 3090.6300,1010.9400 3090.6300,1020.3100 C 3075.0000,1007.8100 3075.0000,998.43800 3065.6300,984.37500 C 3059.3800,976.56200 3054.6900,971.87500 3045.3100,971.87500 z M 3114.0600,962.50000 C 3117.1900,973.43800 3131.2500,998.43800 3142.1900,1003.1200 C 3135.9400,989.06200 3128.1300,968.75000 3114.0600,962.50000 z M 1956.2500,973.43800 C 1960.9400,973.43800 1967.1900,973.43800 1970.3100,973.43800 C 1970.3100,973.43800 2009.3800,989.06200 2009.3800,989.06200 C 2020.3100,992.18800 2031.2500,993.75000 2037.5000,1004.6900 C 2017.1900,1004.6900 2021.8800,1001.5600 2006.2500,996.87500 C 1992.1900,993.75000 1987.5000,996.87500 1976.5600,995.31200 C 1970.3100,993.75000 1967.1900,992.18800 1962.5000,990.62500 C 1962.5000,990.62500 1920.3100,993.75000 1920.3100,993.75000 C 1909.3800,992.18800 1907.8100,984.37500 1901.5600,981.25000 C 1895.3100,976.56200 1889.0600,978.12500 1882.8100,981.25000 C 1871.8800,984.37500 1860.9400,990.62500 1850.0000,996.87500 C 1829.6900,1007.8100 1806.2500,1020.3100 1790.6300,1037.5000 C 1779.6900,1050.0000 1781.2500,1057.8100 1770.3100,1070.3100 C 1759.3800,1081.2500 1735.9400,1090.6200 1718.7500,1109.3800 C 1706.2500,1123.4400 1706.2500,1132.8100 1701.5600,1137.5000 C 1698.4400,1140.6200 1678.1300,1150.0000 1673.4400,1151.5600 C 1668.7500,1153.1200 1664.0600,1153.1200 1660.9400,1154.6900 C 1656.2500,1157.8100 1653.1300,1162.5000 1650.0000,1167.1900 C 1650.0000,1167.1900 1632.8100,1182.8100 1632.8100,1182.8100 C 1628.1300,1189.0600 1609.3800,1212.5000 1607.8100,1218.7500 C 1606.2500,1229.6900 1623.4400,1235.9400 1612.5000,1250.0000 C 1610.9400,1251.5600 1609.3800,1253.1200 1607.8100,1254.6900 C 1596.8800,1260.9400 1595.3100,1250.0000 1587.5000,1248.4400 C 1578.1300,1245.3100 1562.5000,1256.2500 1554.6900,1248.4400 C 1550.0000,1242.1900 1553.1300,1234.3800 1553.1300,1228.1200 C 1551.5600,1220.3100 1548.4400,1217.1900 1546.8800,1210.9400 C 1543.7500,1203.1200 1548.4400,1189.0600 1539.0600,1173.4400 C 1534.3800,1164.0600 1528.1300,1160.9400 1521.8800,1171.8800 C 1521.8800,1171.8800 1517.1900,1181.2500 1517.1900,1181.2500 C 1512.5000,1167.1900 1517.1900,1156.2500 1506.2500,1153.1200 C 1492.1900,1150.0000 1485.9400,1167.1900 1476.5600,1176.5600 C 1453.1300,1200.0000 1450.0000,1196.8800 1432.8100,1207.8100 C 1432.8100,1207.8100 1409.3800,1228.1200 1409.3800,1228.1200 C 1409.3800,1228.1200 1395.3100,1235.9400 1395.3100,1235.9400 C 1387.5000,1242.1900 1381.2500,1256.2500 1376.5600,1265.6200 C 1376.5600,1265.6200 1354.6900,1326.5600 1354.6900,1326.5600 C 1350.0000,1339.0600 1342.1900,1359.3800 1328.1300,1362.5000 C 1323.4400,1364.0600 1309.3800,1362.5000 1304.6900,1360.9400 C 1300.0000,1357.8100 1296.8800,1353.1200 1292.1900,1351.5600 C 1287.5000,1351.5600 1275.0000,1351.5600 1264.0600,1345.3100 C 1257.8100,1339.0600 1250.0000,1326.5600 1243.7500,1323.4400 C 1237.5000,1320.3100 1231.2500,1320.3100 1225.0000,1320.3100 C 1217.1900,1320.3100 1206.2500,1320.3100 1200.0000,1318.7500 C 1184.3800,1312.5000 1176.5600,1287.5000 1171.8800,1273.4400 C 1170.3100,1267.1900 1167.1900,1257.8100 1162.5000,1254.6900 C 1156.2500,1248.4400 1146.8800,1257.8100 1139.0600,1254.6900 C 1132.8100,1253.1200 1120.3100,1237.5000 1112.5000,1232.8100 C 1110.9400,1231.2500 1106.2500,1226.5600 1103.1300,1228.1200 C 1100.0000,1228.1200 1098.4400,1234.3800 1096.8800,1237.5000 C 1095.3100,1250.0000 1098.4400,1253.1200 1104.6900,1262.5000 C 1106.2500,1264.0600 1110.9400,1270.3100 1106.2500,1273.4400 C 1098.4400,1278.1200 1090.6300,1253.1200 1081.2500,1264.0600 C 1079.6900,1267.1900 1079.6900,1268.7500 1078.1300,1270.3100 C 1078.1300,1270.3100 1075.0000,1270.3100 1075.0000,1270.3100 C 1075.0000,1270.3100 1070.3100,1243.7500 1070.3100,1243.7500 C 1070.3100,1243.7500 1070.3100,1232.8100 1070.3100,1232.8100 C 1070.3100,1232.8100 1062.5000,1207.8100 1062.5000,1207.8100 C 1062.5000,1207.8100 1048.4400,1218.7500 1048.4400,1218.7500 C 1048.4400,1218.7500 1046.8800,1204.6900 1046.8800,1204.6900 C 1046.8800,1204.6900 1043.7500,1193.7500 1043.7500,1193.7500 C 1042.1900,1185.9400 1035.9400,1185.9400 1029.6900,1189.0600 C 1017.1900,1196.8800 1007.8100,1209.3800 1000.0000,1214.0600 C 990.62700,1218.7500 984.37700,1214.0600 978.12700,1215.6200 C 970.31400,1218.7500 964.06400,1228.1200 960.93900,1235.9400 C 960.93900,1235.9400 942.18900,1298.4400 942.18900,1298.4400 C 926.56400,1346.8800 918.75200,1357.8100 918.75200,1410.9400 C 918.75200,1410.9400 921.87700,1440.6200 921.87700,1440.6200 C 921.87700,1440.6200 923.43900,1481.2500 923.43900,1481.2500 C 923.43900,1481.2500 926.56400,1501.5600 926.56400,1501.5600 C 926.56400,1501.5600 929.68900,1501.5600 929.68900,1501.5600 C 929.68900,1481.2500 934.37700,1443.7500 942.18900,1425.0000 C 950.00200,1404.6900 959.37700,1401.5600 962.50200,1376.5600 C 962.50200,1376.5600 964.06400,1396.8800 964.06400,1396.8800 C 973.43900,1389.0600 973.43900,1382.8100 985.94000,1378.1200 C 989.06500,1385.9400 990.62700,1387.5000 992.19000,1396.8800 C 993.75200,1404.6900 993.75200,1410.9400 996.87700,1418.7500 C 1000.0000,1426.5600 1003.1300,1428.1200 1006.2500,1434.3800 C 1009.3800,1439.0600 1010.9400,1446.8800 1012.5000,1453.1200 C 1015.6300,1464.0600 1017.1900,1481.2500 1029.6900,1485.9400 C 1035.9400,1475.0000 1035.9400,1460.9400 1037.5000,1448.4400 C 1039.0600,1445.3100 1040.6300,1435.9400 1043.7500,1434.3800 C 1051.5600,1432.8100 1053.1300,1446.8800 1053.1300,1451.5600 C 1056.2500,1464.0600 1057.8100,1479.6900 1064.0600,1490.6200 C 1070.3100,1504.6900 1076.5600,1503.1200 1084.3800,1525.0000 C 1084.3800,1525.0000 1087.5000,1517.1900 1087.5000,1517.1900 C 1090.6300,1528.1200 1084.3800,1535.9400 1095.3100,1543.7500 C 1095.3100,1537.5000 1096.8800,1510.9400 1100.0000,1506.2500 C 1101.5600,1503.1200 1106.2500,1503.1200 1109.3800,1503.1200 C 1109.3800,1503.1200 1110.9400,1556.2500 1110.9400,1556.2500 C 1110.9400,1562.5000 1112.5000,1570.3100 1115.6300,1575.0000 C 1123.4400,1584.3800 1134.3800,1578.1200 1137.5000,1585.9400 C 1137.5000,1585.9400 1140.6300,1614.0600 1140.6300,1614.0600 C 1143.7500,1634.3800 1148.4400,1659.3800 1154.6900,1678.1200 C 1159.3800,1692.1900 1165.6300,1710.9400 1175.0000,1721.8800 C 1178.1300,1726.5600 1182.8100,1732.8100 1189.0600,1731.2500 C 1195.3100,1729.6900 1193.7500,1721.8800 1195.3100,1717.1900 C 1196.8800,1710.9400 1200.0000,1709.3800 1201.5600,1704.6900 C 1203.1300,1696.8800 1201.5600,1687.5000 1206.2500,1681.2500 C 1203.1300,1690.6200 1206.2500,1692.1900 1206.2500,1701.5600 C 1206.2500,1714.0600 1207.8100,1728.1200 1210.9400,1740.6200 C 1215.6300,1759.3800 1218.7500,1776.5600 1228.1300,1793.7500 C 1234.3800,1804.6900 1250.0000,1818.7500 1259.3800,1828.1200 C 1271.8800,1843.7500 1284.3800,1857.8100 1300.0000,1871.8800 C 1300.0000,1871.8800 1318.7500,1887.5000 1318.7500,1887.5000 C 1318.7500,1887.5000 1334.3800,1900.0000 1334.3800,1900.0000 C 1348.4400,1909.3800 1351.5600,1895.3100 1360.9400,1895.3100 C 1365.6300,1896.8800 1381.2500,1910.9400 1385.9400,1915.6200 C 1409.3800,1942.1900 1401.5600,1934.3800 1417.1900,1957.8100 C 1417.1900,1957.8100 1453.1300,2004.6900 1453.1300,2004.6900 C 1462.5000,2015.6200 1473.4400,2035.9400 1487.5000,2039.0600 C 1487.5000,2039.0600 1501.5600,2042.1900 1501.5600,2042.1900 C 1517.1900,2046.8800 1534.3800,2054.6900 1551.5600,2051.5600 C 1557.8100,2051.5600 1562.5000,2048.4400 1565.6300,2045.3100 C 1570.3100,2040.6200 1573.4400,2034.3800 1579.6900,2034.3800 C 1585.9400,2035.9400 1600.0000,2043.7500 1606.2500,2046.8800 C 1621.8800,2056.2500 1643.7500,2071.8800 1660.9400,2076.5600 C 1678.1300,2081.2500 1692.1900,2068.7500 1690.6300,2056.2500 C 1687.5000,2043.7500 1670.3100,2029.6900 1662.5000,2009.3800 C 1654.6900,1992.1900 1650.0000,1973.4400 1640.6300,1957.8100 C 1640.6300,1957.8100 1618.7500,1925.0000 1618.7500,1925.0000 C 1618.7500,1925.0000 1606.2500,1900.0000 1606.2500,1900.0000 C 1606.2500,1900.0000 1600.0000,1889.0600 1600.0000,1889.0600 C 1598.4400,1885.9400 1596.8800,1875.0000 1596.8800,1870.3100 C 1596.8800,1870.3100 1584.3800,1825.0000 1584.3800,1825.0000 C 1578.1300,1809.3800 1562.5000,1809.3800 1554.6900,1787.5000 C 1560.9400,1796.8800 1573.4400,1809.3800 1582.8100,1814.0600 C 1579.6900,1801.5600 1571.8800,1781.2500 1565.6300,1770.3100 C 1565.6300,1770.3100 1551.5600,1753.1200 1551.5600,1753.1200 C 1559.3800,1760.9400 1565.6300,1767.1900 1576.5600,1770.3100 C 1576.5600,1770.3100 1581.2500,1757.8100 1581.2500,1757.8100 C 1587.5000,1745.3100 1592.1900,1743.7500 1593.7500,1728.1200 C 1595.3100,1701.5600 1575.0000,1660.9400 1575.0000,1628.1200 C 1575.0000,1614.0600 1579.6900,1600.0000 1582.8100,1585.9400 C 1582.8100,1585.9400 1585.9400,1560.9400 1585.9400,1560.9400 C 1585.9400,1556.2500 1589.0600,1553.1200 1590.6300,1546.8800 C 1590.6300,1546.8800 1592.1900,1529.6900 1592.1900,1529.6900 C 1595.3100,1520.3100 1596.8800,1517.1900 1596.8800,1507.8100 C 1596.8800,1507.8100 1592.1900,1481.2500 1592.1900,1481.2500 C 1592.1900,1481.2500 1593.7500,1462.5000 1593.7500,1462.5000 C 1593.7500,1462.5000 1593.7500,1437.5000 1593.7500,1437.5000 C 1593.7500,1418.7500 1604.6900,1410.9400 1607.8100,1398.4400 C 1609.3800,1392.1900 1603.1300,1375.0000 1600.0000,1371.8800 C 1595.3100,1368.7500 1584.3800,1370.3100 1589.0600,1362.5000 C 1593.7500,1354.6900 1606.2500,1370.3100 1609.3800,1375.0000 C 1615.6300,1359.3800 1612.5000,1356.2500 1610.9400,1342.1900 C 1610.9400,1342.1900 1609.3800,1301.5600 1609.3800,1301.5600 C 1607.8100,1290.6200 1601.5600,1284.3800 1601.5600,1279.6900 C 1603.1300,1275.0000 1607.8100,1275.0000 1614.0600,1268.7500 C 1620.3100,1262.5000 1623.4400,1254.6900 1625.0000,1246.8800 C 1625.0000,1246.8800 1628.1300,1220.3100 1628.1300,1220.3100 C 1631.2500,1207.8100 1643.7500,1192.1900 1657.8100,1189.0600 C 1671.8800,1187.5000 1684.3800,1203.1200 1692.1900,1203.1200 C 1700.0000,1203.1200 1704.6900,1195.3100 1707.8100,1190.6200 C 1707.8100,1190.6200 1731.2500,1140.6200 1731.2500,1140.6200 C 1731.2500,1140.6200 1734.3800,1140.6200 1734.3800,1140.6200 C 1740.6300,1154.6900 1748.4400,1157.8100 1757.8100,1168.7500 C 1757.8100,1168.7500 1765.6300,1179.6900 1765.6300,1179.6900 C 1767.1900,1181.2500 1770.3100,1179.6900 1773.4400,1178.1200 C 1779.6900,1171.8800 1789.0600,1146.8800 1785.9400,1139.0600 C 1784.3800,1132.8100 1778.1300,1126.5600 1776.5600,1118.7500 C 1776.5600,1114.0600 1779.6900,1109.3800 1782.8100,1104.6900 C 1787.5000,1095.3100 1790.6300,1084.3800 1798.4400,1078.1200 C 1814.0600,1064.0600 1842.1900,1064.0600 1857.8100,1078.1200 C 1865.6300,1085.9400 1864.0600,1090.6200 1867.1900,1095.3100 C 1871.8800,1101.5600 1879.6900,1101.5600 1881.2500,1110.9400 C 1881.2500,1114.0600 1879.6900,1121.8800 1878.1300,1126.5600 C 1878.1300,1135.9400 1879.6900,1139.0600 1875.0000,1148.4400 C 1868.7500,1157.8100 1859.3800,1164.0600 1854.6900,1175.0000 C 1848.4400,1187.5000 1856.2500,1189.0600 1853.1300,1200.0000 C 1848.4400,1210.9400 1839.0600,1218.7500 1834.3800,1229.6900 C 1829.6900,1235.9400 1829.6900,1242.1900 1821.8800,1246.8800 C 1815.6300,1250.0000 1806.2500,1248.4400 1800.0000,1248.4400 C 1790.6300,1250.0000 1782.8100,1254.6900 1775.0000,1257.8100 C 1775.0000,1260.9400 1775.0000,1264.0600 1776.5600,1267.1900 C 1778.1300,1276.5600 1785.9400,1276.5600 1793.7500,1275.0000 C 1806.2500,1273.4400 1823.4400,1265.6200 1834.3800,1276.5600 C 1843.7500,1287.5000 1843.7500,1317.1900 1851.5600,1328.1200 C 1859.3800,1335.9400 1865.6300,1335.9400 1875.0000,1339.0600 C 1881.2500,1342.1900 1885.9400,1345.3100 1890.6300,1350.0000 C 1901.5600,1360.9400 1896.8800,1368.7500 1901.5600,1376.5600 C 1906.2500,1381.2500 1910.9400,1379.6900 1915.6300,1385.9400 C 1915.6300,1385.9400 1934.3800,1425.0000 1934.3800,1425.0000 C 1934.3800,1425.0000 1951.5600,1412.5000 1951.5600,1412.5000 C 1956.2500,1418.7500 1962.5000,1418.7500 1964.0600,1410.9400 C 1964.0600,1406.2500 1962.5000,1396.8800 1960.9400,1392.1900 C 1970.3100,1403.1200 1970.3100,1410.9400 1968.7500,1425.0000 C 1968.7500,1428.1200 1967.1900,1431.2500 1968.7500,1434.3800 C 1968.7500,1440.6200 1975.0000,1453.1200 1979.6900,1457.8100 C 1985.9400,1462.5000 1990.6300,1460.9400 1996.8800,1457.8100 C 2003.1300,1450.0000 2007.8100,1435.9400 2017.1900,1426.5600 C 2025.0000,1418.7500 2039.0600,1417.1900 2053.1300,1403.1200 C 2050.0000,1401.5600 2040.6300,1396.8800 2042.1900,1392.1900 C 2045.3100,1385.9400 2054.6900,1385.9400 2060.9400,1382.8100 C 2070.3100,1376.5600 2078.1300,1365.6200 2081.2500,1354.6900 C 2081.2500,1354.6900 2062.5000,1351.5600 2062.5000,1351.5600 C 2062.5000,1351.5600 2051.5600,1348.4400 2051.5600,1348.4400 C 2051.5600,1348.4400 2035.9400,1348.4400 2035.9400,1348.4400 C 2035.9400,1348.4400 2021.8800,1335.9400 2021.8800,1335.9400 C 2021.8800,1335.9400 2000.0000,1332.8100 2000.0000,1332.8100 C 2004.6900,1325.0000 2007.8100,1320.3100 2017.1900,1320.3100 C 2021.8800,1320.3100 2028.1300,1323.4400 2031.2500,1321.8800 C 2037.5000,1320.3100 2037.5000,1314.0600 2042.1900,1310.9400 C 2051.5600,1301.5600 2064.0600,1300.0000 2067.1900,1287.5000 C 2079.6900,1290.6200 2082.8100,1287.5000 2089.0600,1289.0600 C 2101.5600,1295.3100 2103.1300,1318.7500 2107.8100,1331.2500 C 2092.1900,1325.0000 2093.7500,1339.0600 2092.1900,1350.0000 C 2098.4400,1346.8800 2106.2500,1339.0600 2112.5000,1337.5000 C 2112.5000,1337.5000 2132.8100,1339.0600 2132.8100,1339.0600 C 2137.5000,1339.0600 2139.0600,1337.5000 2143.7500,1335.9400 C 2154.6900,1334.3800 2160.9400,1342.1900 2165.6300,1351.5600 C 2171.8800,1348.4400 2171.8800,1345.3100 2168.7500,1339.0600 C 2168.7500,1339.0600 2176.5600,1339.0600 2176.5600,1339.0600 C 2176.5600,1339.0600 2173.4400,1326.5600 2173.4400,1326.5600 C 2165.6300,1326.5600 2164.0600,1325.0000 2160.9400,1332.8100 C 2154.6900,1328.1200 2154.6900,1328.1200 2146.8800,1326.5600 C 2146.8800,1326.5600 2153.1300,1321.8800 2153.1300,1321.8800 C 2153.1300,1321.8800 2153.1300,1318.7500 2153.1300,1318.7500 C 2140.6300,1310.9400 2156.2500,1307.8100 2159.3800,1300.0000 C 2160.9400,1295.3100 2159.3800,1292.1900 2157.8100,1289.0600 C 2157.8100,1289.0600 2178.1300,1282.8100 2178.1300,1282.8100 C 2187.5000,1273.4400 2193.7500,1281.2500 2198.4400,1270.3100 C 2214.0600,1275.0000 2210.9400,1254.6900 2223.4400,1251.5600 C 2226.5600,1250.0000 2231.2500,1251.5600 2234.3800,1251.5600 C 2239.0600,1250.0000 2243.7500,1248.4400 2248.4400,1246.8800 C 2254.6900,1246.8800 2257.8100,1246.8800 2264.0600,1245.3100 C 2270.3100,1242.1900 2276.5600,1234.3800 2281.2500,1229.6900 C 2284.3800,1226.5600 2290.6300,1221.8800 2292.1900,1218.7500 C 2293.7500,1214.0600 2292.1900,1209.3800 2292.1900,1201.5600 C 2298.4400,1203.1200 2303.1300,1203.1200 2307.8100,1198.4400 C 2312.5000,1195.3100 2312.5000,1189.0600 2306.2500,1185.9400 C 2304.6900,1185.9400 2300.0000,1185.9400 2298.4400,1185.9400 C 2298.4400,1185.9400 2321.8800,1168.7500 2321.8800,1168.7500 C 2321.8800,1168.7500 2328.1300,1150.0000 2328.1300,1150.0000 C 2328.1300,1150.0000 2321.8800,1151.5600 2321.8800,1151.5600 C 2321.8800,1151.5600 2325.0000,1142.1900 2325.0000,1142.1900 C 2325.0000,1142.1900 2307.8100,1142.1900 2307.8100,1142.1900 C 2310.9400,1139.0600 2320.3100,1129.6900 2323.4400,1126.5600 C 2331.2500,1121.8800 2339.0600,1123.4400 2343.7500,1114.0600 C 2328.1300,1115.6200 2307.8100,1128.1200 2296.8800,1139.0600 C 2296.8800,1139.0600 2279.6900,1157.8100 2279.6900,1157.8100 C 2279.6900,1157.8100 2281.2500,1151.5600 2281.2500,1151.5600 C 2265.6300,1154.6900 2265.6300,1164.0600 2259.3800,1167.1900 C 2259.3800,1167.1900 2256.2500,1168.7500 2256.2500,1168.7500 C 2260.9400,1168.7500 2229.6900,1167.1900 2234.3800,1168.7500 C 2226.5600,1167.1900 2218.7500,1159.3800 2212.5000,1153.1200 C 2207.8100,1148.4400 2204.6900,1143.7500 2198.4400,1146.8800 C 2198.4400,1146.8800 2171.8800,1121.8800 2171.8800,1121.8800 C 2175.0000,1118.7500 2176.5600,1117.1900 2173.4400,1114.0600 C 2170.3100,1110.9400 2162.5000,1107.8100 2156.2500,1103.1200 C 2145.3100,1092.1900 2146.8800,1082.8100 2146.8800,1068.7500 C 2146.8800,1056.2500 2145.3100,1056.2500 2142.1900,1045.3100 C 2140.6300,1040.6200 2140.6300,1037.5000 2137.5000,1032.8100 C 2134.3800,1028.1200 2126.5600,1021.8800 2121.8800,1017.1900 C 2115.6300,1010.9400 2107.8100,1003.1200 2100.0000,1001.5600 C 2089.0600,998.43800 2079.6900,1004.6900 2070.3100,1001.5600 C 2062.5000,998.43800 2053.1300,987.50000 2043.7500,982.81200 C 2037.5000,981.25000 2029.6900,981.25000 2023.4400,981.25000 C 2023.4400,978.12500 2023.4400,971.87500 2020.3100,970.31200 C 2015.6300,967.18800 2006.2500,970.31200 2000.0000,970.31200 C 1993.7500,970.31200 1992.1900,965.62500 1987.5000,964.06200 C 1982.8100,962.50000 1960.9400,960.93800 1957.8100,964.06200 C 1954.6900,965.62500 1956.2500,970.31200 1956.2500,973.43800 z M 3079.6900,910.93800 C 3090.6300,928.12500 3110.9400,951.56200 3129.6900,956.25000 C 3125.0000,946.87500 3120.3100,945.31200 3114.0600,939.06200 C 3104.6900,931.25000 3089.0600,915.62500 3079.6900,910.93800 z M 2962.5000,837.50000 C 2962.5000,837.50000 2959.3800,829.68800 2959.3800,829.68800 C 2965.6300,832.81200 2971.8800,835.93800 2975.0000,842.18800 C 2976.5600,846.87500 2976.5600,850.00000 2976.5600,854.68800 C 2976.5600,864.06200 2990.6300,885.93800 3000.0000,887.50000 C 3003.1300,889.06200 3003.1300,887.50000 3006.2500,887.50000 C 3006.2500,887.50000 3001.5600,856.25000 3001.5600,856.25000 C 2998.4400,851.56200 2993.7500,853.12500 2989.0600,846.87500 C 2989.0600,846.87500 2960.9400,806.25000 2960.9400,806.25000 C 2959.3800,803.12500 2953.1300,793.75000 2954.6900,789.06200 C 2957.8100,785.93800 2965.6300,785.93800 2968.7500,785.93800 C 2968.7500,785.93800 2942.1900,756.25000 2942.1900,756.25000 C 2939.0600,753.12500 2934.3800,746.87500 2928.1300,748.43800 C 2921.8800,750.00000 2918.7500,757.81200 2915.6300,762.50000 C 2912.5000,767.18800 2907.8100,771.87500 2907.8100,776.56200 C 2909.3800,782.81200 2915.6300,790.62500 2918.7500,795.31200 C 2918.7500,795.31200 2943.7500,820.31200 2943.7500,820.31200 C 2950.0000,828.12500 2953.1300,832.81200 2962.5000,837.50000 z M 3364.0700,870.31200 C 3362.5000,846.87500 3350.0000,823.43800 3334.3800,804.68800 C 3334.3800,804.68800 3309.3800,779.68800 3309.3800,779.68800 C 3300.0000,767.18800 3290.6300,746.87500 3276.5600,731.25000 C 3260.9400,715.62500 3248.4400,710.93800 3234.3800,698.43800 C 3234.3800,698.43800 3210.9400,673.43800 3210.9400,673.43800 C 3210.9400,673.43800 3168.7500,631.25000 3168.7500,631.25000 C 3157.8100,620.31200 3145.3100,603.12500 3137.5000,590.62500 C 3129.6900,576.56200 3132.8100,571.87500 3128.1300,565.62500 C 3125.0000,560.93800 3112.5000,554.68800 3106.2500,553.12500 C 3106.2500,553.12500 3109.3800,546.87500 3109.3800,546.87500 C 3109.3800,546.87500 3098.4400,540.62500 3098.4400,540.62500 C 3106.2500,528.12500 3096.8800,531.25000 3089.0600,518.75000 C 3085.9400,514.06200 3085.9400,507.81200 3081.2500,498.43800 C 3073.4400,487.50000 3062.5000,478.12500 3051.5600,470.31200 C 3051.5600,470.31200 2998.4400,434.37500 2998.4400,434.37500 C 2981.2500,423.43800 2957.8100,407.81200 2937.5000,404.68800 C 2921.8800,403.12500 2910.9400,410.93800 2895.3100,412.50000 C 2881.2500,414.06200 2851.5600,410.93800 2840.6300,423.43800 C 2829.6900,434.37500 2851.5600,457.81200 2859.3800,467.18800 C 2859.3800,467.18800 2881.2500,493.75000 2881.2500,493.75000 C 2887.5000,501.56200 2889.0600,506.25000 2895.3100,515.62500 C 2901.5600,521.87500 2914.0600,531.25000 2918.7500,539.06200 C 2923.4400,546.87500 2914.0600,548.43800 2920.3100,559.37500 C 2925.0000,568.75000 2937.5000,581.25000 2940.6300,590.62500 C 2942.1900,596.87500 2942.1900,606.25000 2946.8800,610.93800 C 2951.5600,614.06200 2957.8100,610.93800 2962.5000,610.93800 C 2970.3100,609.37500 2993.7500,600.00000 3000.0000,604.68800 C 3006.2500,609.37500 3026.5600,634.37500 3031.2500,640.62500 C 3034.3800,643.75000 3040.6300,651.56200 3039.0600,656.25000 C 3039.0600,664.06200 3015.6300,653.12500 3020.3100,664.06200 C 3021.8800,667.18800 3035.9400,676.56200 3040.6300,681.25000 C 3040.6300,681.25000 3057.8100,700.00000 3057.8100,700.00000 C 3057.8100,700.00000 3078.1300,718.75000 3078.1300,718.75000 C 3082.8100,723.43800 3087.5000,732.81200 3092.1900,735.93800 C 3101.5600,740.62500 3107.8100,729.68800 3115.6300,735.93800 C 3131.2500,745.31200 3140.6300,768.75000 3156.2500,784.37500 C 3167.1900,792.18800 3170.3100,790.62500 3179.6900,795.31200 C 3187.5000,800.00000 3192.1900,806.25000 3200.0000,812.50000 C 3212.5000,820.31200 3214.0600,815.62500 3228.1300,829.68800 C 3246.8800,848.43800 3262.5000,867.18800 3278.1300,887.50000 C 3284.3800,895.31200 3300.0000,912.50000 3307.8200,915.62500 C 3309.3800,915.62500 3310.9400,915.62500 3312.5000,915.62500 C 3312.5000,915.62500 3331.2500,907.81200 3331.2500,907.81200 C 3331.2500,907.81200 3332.8200,907.81200 3332.8200,906.25000 C 3334.3800,901.56200 3334.3800,895.31200 3335.9400,890.62500 C 3337.5000,885.93800 3340.6300,884.37500 3342.1900,878.12500 C 3343.7500,873.43800 3343.7500,864.06200 3348.4400,862.50000 C 3353.1300,860.93800 3360.9400,868.75000 3364.0700,870.31200 z M 3029.6900,434.37500 C 3029.6900,428.12500 3028.1300,426.56200 3026.5600,420.31200 C 3018.7500,406.25000 3009.3800,396.87500 2995.3100,390.62500 C 2990.6300,389.06200 2976.5600,384.37500 2973.4400,389.06200 C 2968.7500,395.31200 2984.3800,407.81200 2989.0600,410.93800 C 2993.7500,415.62500 3000.0000,418.75000 3004.6900,423.43800 C 3014.0600,429.68800 3018.7500,431.25000 3029.6900,434.37500 z M 2437.5000,250.00000 C 2457.8100,253.12500 2465.6300,253.12500 2484.3800,262.50000 C 2501.5600,270.31200 2510.9400,281.25000 2531.2500,284.37500 C 2531.2500,284.37500 2510.9400,257.81200 2510.9400,257.81200 C 2510.9400,257.81200 2525.0000,250.00000 2525.0000,250.00000 C 2518.7500,243.75000 2515.6300,243.75000 2509.3800,239.06200 C 2506.2500,235.93800 2506.2500,232.81200 2503.1300,229.68800 C 2500.0000,229.68800 2492.1900,229.68800 2489.0600,229.68800 C 2479.6900,231.25000 2471.8800,232.81200 2460.9400,235.93800 C 2451.5600,237.50000 2439.0600,239.06200 2437.5000,250.00000 z M 2535.9400,215.62500 C 2532.8100,223.43800 2525.0000,225.00000 2517.1900,229.68800 C 2518.7500,231.25000 2518.7500,232.81200 2520.3100,234.37500 C 2525.0000,237.50000 2550.0000,243.75000 2556.2500,245.31200 C 2571.8800,246.87500 2573.4400,237.50000 2592.1900,235.93800 C 2592.1900,235.93800 2615.6300,234.37500 2615.6300,234.37500 C 2637.5000,234.37500 2667.1900,235.93800 2687.5000,228.12500 C 2681.2500,217.18800 2676.5600,217.18800 2665.6300,212.50000 C 2648.4400,206.25000 2629.6900,203.12500 2610.9400,207.81200 C 2593.7500,210.93800 2593.7500,217.18800 2571.8800,217.18800 C 2571.8800,217.18800 2535.9400,215.62500 2535.9400,215.62500 z M 1921.8800,2834.3800 C 1568.7500,2725.0000 1993.7500,2856.2500 1921.8800,2834.3800 z "
         style="font-size:12.000000px;fill:#ffffff;fill-opacity:1.0000000" />
    </g>
    <g
       id="g1243">
      <g
         style="font-size:12.000000px"
         transform="translate(-0.474472,1.525879e-5)"
         id="g903">
        <g
           id="g847">
          <path
             transform="matrix(0.675352,0.414961,-0.342730,0.551092,337.1457,37.47079)"
             sodipodi:nodetypes="csscssc"
             id="path664"
             d="M 119.38200,127.63800 C 107.17300,152.21200 108.03200,171.42900 109.05400,186.47500 C 109.77100,195.00500 110.75100,200.64100 113.52900,210.62800 C 116.30700,220.61600 120.06800,235.72800 120.19000,246.16600 C 120.32300,235.80400 123.18100,220.56600 125.52900,212.22600 C 127.87600,203.88500 130.19700,193.67700 130.48800,185.98000 C 130.83600,170.32700 131.52800,151.87500 119.38200,127.63800 z "
             style="font-size:12.000000px;fill:#ffffff;fill-rule:evenodd;stroke-width:1.0000000pt" />
          <g
             style="font-size:12.000000px"
             id="g718">
            <path
               transform="matrix(6.614187e-2,0.896429,0.987543,7.300016e-2,217.5379,416.2006)"
               sodipodi:nodetypes="csscssc"
               id="path705"
               d="M 105.37500,119.11600 C 102.30600,146.62300 106.75700,172.58700 109.05400,186.47500 C 111.11700,194.64900 112.07100,200.37700 114.84900,210.36400 C 117.62700,220.35200 122.24800,242.21800 123.31100,252.34800 C 123.57900,243.59100 123.95600,220.14800 125.12800,211.41100 C 126.05200,202.70300 126.85900,195.95600 128.02500,187.21700 C 130.21700,166.93600 123.47100,137.51800 105.37500,119.11600 z "
               style="font-size:12.000000px;fill:#ffffff;fill-rule:evenodd;stroke:none;stroke-width:1.0000000pt;stroke-opacity:1.0000000" />
            <path
               transform="matrix(0.762059,-0.465422,0.631570,0.769607,209.8484,432.3975)"
               sodipodi:nodetypes="csscssc"
               id="path704"
               d="M 119.41100,131.08600 C 107.20200,155.66000 108.03200,171.42900 109.05400,186.47500 C 109.77100,195.00500 111.90500,201.82300 117.71900,210.38400 C 124.15500,219.44100 140.21600,231.08600 150.61600,237.51800 C 143.58600,229.90000 134.48400,219.58700 131.87100,211.29400 C 129.21200,203.32700 130.19700,193.67700 130.48800,185.98000 C 130.83600,170.32700 131.55700,155.32300 119.41100,131.08600 z "
               style="font-size:12.000000px;fill:#ffffff;fill-rule:evenodd;stroke:none;stroke-width:1.0000000pt;stroke-opacity:1.0000000" />
          </g>
          <g
             style="font-size:12.000000px"
             id="g721">
            <path
               transform="matrix(-0.297040,0.819137,0.813681,0.435394,233.5597,305.4356)"
               sodipodi:nodetypes="csscssc"
               id="path702"
               d="M 114.62000,121.49100 C 105.22600,144.88800 109.59600,170.77500 110.61800,185.82100 C 111.33500,194.35100 113.37600,200.17600 117.02500,209.80700 C 120.95900,219.13500 126.29500,238.34500 129.56000,249.45100 C 130.61100,238.09100 128.82300,220.50300 128.77700,212.09300 C 128.50600,203.49600 130.19700,193.67700 130.48800,185.98000 C 130.83600,170.32700 130.34500,143.11500 114.62000,121.49100 z "
               style="font-size:12.000000px;fill:#ffffff;fill-rule:evenodd;stroke:none;stroke-width:1.0000000pt;stroke-opacity:1.0000000" />
            <path
               transform="matrix(0.833624,-0.126335,0.235329,0.919017,220.5993,316.4285)"
               sodipodi:nodetypes="csscssc"
               id="path701"
               d="M 119.41000,133.14700 C 109.95700,158.96700 109.41900,170.75300 111.59700,185.09000 C 112.82700,193.52900 112.65700,200.47000 117.15600,209.81400 C 121.66900,218.73900 132.31000,233.48800 144.24000,241.05400 C 135.45400,230.28700 131.30800,220.90500 130.34000,211.99000 C 129.63100,203.43900 130.19700,193.67700 130.48800,185.98000 C 130.83600,170.32700 131.55600,157.38400 119.41000,133.14700 z "
               style="font-size:12.000000px;fill:#ffffff;fill-rule:evenodd;stroke:none;stroke-width:1.0000000pt;stroke-opacity:1.0000000" />
          </g>
          <g
             style="font-size:12.000000px"
             id="g724">
            <path
               transform="matrix(-0.501116,0.712812,0.671328,0.633219,250.9268,220.8291)"
               sodipodi:nodetypes="csscssc"
               id="path699"
               d="M 112.85800,124.22500 C 105.22900,146.97100 108.03200,171.42900 109.05400,186.47500 C 109.77100,195.00500 112.07100,200.37700 114.84900,210.36400 C 117.62700,220.35200 126.42400,233.19600 132.14200,244.44000 C 127.85100,233.02300 128.26200,221.41900 128.84100,212.78200 C 129.25200,204.11000 130.19700,193.67700 130.48800,185.98000 C 130.83600,170.32700 128.93200,146.11000 112.85800,124.22500 z "
               style="font-size:12.000000px;fill:#ffffff;fill-rule:evenodd;stroke:none;stroke-width:1.0000000pt;stroke-opacity:1.0000000" />
            <path
               transform="matrix(0.837625,9.629924e-2,-1.345914e-2,0.948573,235.5406,228.0458)"
               sodipodi:nodetypes="csscssc"
               id="path698"
               d="M 119.38200,127.63800 C 107.17300,152.21200 110.11400,168.42700 111.28400,183.45100 C 112.34900,194.03900 115.51500,200.66200 120.31800,209.86400 C 125.49200,219.96100 131.84000,229.83900 138.54100,240.03700 C 133.75500,230.06000 131.72000,220.20800 130.71000,211.93000 C 129.43200,203.48000 130.19700,193.67700 130.48800,185.98000 C 130.83600,170.32700 131.52800,151.87500 119.38200,127.63800 z "
               style="font-size:12.000000px;fill:#ffffff;fill-rule:evenodd;stroke:none;stroke-width:1.0000000pt;stroke-opacity:1.0000000" />
          </g>
          <g
             style="font-size:12.000000px"
             id="g727">
            <path
               transform="matrix(-0.663600,0.491273,0.476894,0.738491,290.9689,160.3364)"
               sodipodi:nodetypes="csscssc"
               id="path696"
               d="M 119.38200,127.63800 C 107.17300,152.21200 109.05500,168.08600 110.51500,183.07400 C 111.16000,191.92200 115.61800,204.07100 119.11200,212.11600 C 123.58400,223.04800 129.49300,235.84000 134.01800,248.02500 C 133.41400,236.34500 130.34800,223.96200 130.71500,214.18000 C 130.74400,205.53200 130.19700,193.67700 130.48800,185.98000 C 130.83600,170.32700 131.52800,151.87500 119.38200,127.63800 z "
               style="font-size:12.000000px;fill:#ffffff;fill-rule:evenodd;stroke:none;stroke-width:1.0000000pt;stroke-opacity:1.0000000" />
            <path
               transform="matrix(0.775055,0.311312,-0.259001,0.830543,274.4003,162.5200)"
               sodipodi:nodetypes="csscssc"
               id="path695"
               d="M 119.38200,127.63800 C 107.17300,152.21200 109.93200,170.95700 110.95400,186.00300 C 111.67000,194.53300 116.70800,207.61500 120.58700,214.45300 C 125.98200,223.47600 133.73400,233.73300 140.43500,243.93100 C 135.64900,233.95400 131.96000,221.95200 130.41800,213.02200 C 128.99600,204.59600 129.36900,193.50700 129.66000,185.81000 C 130.00800,170.15700 131.52800,151.87500 119.38200,127.63800 z "
               style="font-size:12.000000px;fill:#ffffff;fill-rule:evenodd;stroke:none;stroke-width:1.0000000pt;stroke-opacity:1.0000000" />
          </g>
          <g
             style="font-size:12.000000px"
             id="g733">
            <path
               transform="matrix(-0.816969,6.729826e-2,6.729826e-2,0.816969,407.5899,67.85890)"
               sodipodi:nodetypes="csscssc"
               id="path676"
               d="M 119.38200,127.63800 C 107.17300,152.21200 110.05600,166.38300 111.07800,181.42900 C 111.79500,189.95900 113.97000,199.73300 116.74800,209.72000 C 119.52600,219.70800 129.36900,233.91200 134.49400,245.70300 C 130.21800,230.07300 130.41600,221.25000 129.82000,212.38300 C 129.00400,203.75600 129.71200,193.71700 130.48800,185.98000 C 131.56700,170.36000 131.52800,151.87500 119.38200,127.63800 z "
               style="font-size:12.000000px;fill:#ffffff;fill-rule:evenodd;stroke:none;stroke-width:1.0000000pt;stroke-opacity:1.0000000" />
            <path
               transform="matrix(0.532683,0.623069,-0.623069,0.532683,391.9935,61.54626)"
               sodipodi:nodetypes="csscssc"
               id="path674"
               d="M 119.38200,127.63800 C 107.17300,152.21200 109.37600,170.97900 110.39800,186.02500 C 111.11500,194.55500 113.47100,203.36500 117.96400,212.70700 C 122.77200,222.19100 131.32000,232.43900 138.02100,242.63700 C 133.23500,232.66000 129.35100,220.65500 128.73200,212.40400 C 128.00400,205.00200 129.54600,192.38900 129.35200,184.68900 C 128.77600,168.24600 130.26100,151.11200 119.38200,127.63800 z "
               style="font-size:12.000000px;fill:#ffffff;fill-rule:evenodd;stroke:none;stroke-width:1.0000000pt;stroke-opacity:1.0000000" />
          </g>
          <g
             id="g844">
            <path
               transform="matrix(-0.750512,0.344161,0.314675,0.820839,336.3612,98.19086)"
               sodipodi:nodetypes="csscssc"
               id="path687"
               d="M 107.06900,125.19500 C 102.33900,149.89300 106.42800,168.45400 110.58600,183.16200 C 112.32300,189.75000 117.65500,202.50100 122.61700,211.59700 C 128.22600,221.36900 133.84900,232.02500 139.59400,243.11000 C 136.84100,232.28000 135.38900,222.44200 133.67400,213.67800 C 132.51100,207.99800 131.53700,194.74500 129.73000,186.29800 C 127.05700,171.02400 124.46200,147.77500 107.06900,125.19500 z "
               style="font-size:12.000000px;fill:#ffffff;fill-rule:evenodd;stroke-width:1.0000000pt" />
            <path
               transform="matrix(0.694380,0.464179,-0.424409,0.759447,316.5091,101.9000)"
               sodipodi:nodetypes="csscssc"
               id="path684"
               d="M 116.91200,123.79700 C 104.70400,148.37100 107.43400,171.69500 109.91400,186.47400 C 111.60900,195.19400 113.26700,200.07700 117.28900,209.66000 C 121.74000,219.60600 127.25400,228.96300 133.95500,239.16100 C 129.16900,229.18400 129.37300,220.76100 127.86200,212.30000 C 126.60600,203.83800 128.64000,189.07100 128.15100,177.42600 C 127.19700,162.27200 126.52900,145.47000 116.91200,123.79700 z "
               style="font-size:12.000000px;fill:#ffffff;fill-rule:evenodd;stroke-width:1.0000000pt" />
          </g>
        </g>
        <g
           transform="matrix(-1.000000,0.000000,0.000000,1.000000,1073.611,1.525879e-5)"
           id="g883">
          <path
             transform="matrix(0.675352,0.414961,-0.342730,0.551092,337.1457,37.47079)"
             sodipodi:nodetypes="csscssc"
             id="path884"
             d="M 119.38200,127.63800 C 107.17300,152.21200 108.03200,171.42900 109.05400,186.47500 C 109.77100,195.00500 110.75100,200.64100 113.52900,210.62800 C 116.30700,220.61600 120.06800,235.72800 120.19000,246.16600 C 120.32300,235.80400 123.18100,220.56600 125.52900,212.22600 C 127.87600,203.88500 130.19700,193.67700 130.48800,185.98000 C 130.83600,170.32700 131.52800,151.87500 119.38200,127.63800 z "
             style="font-size:12.000000px;fill:#ffffff;fill-rule:evenodd;stroke-width:1.0000000pt" />
          <g
             style="font-size:12.000000px"
             id="g885">
            <path
               transform="matrix(6.614187e-2,0.896429,0.987543,7.300016e-2,217.5379,416.2006)"
               sodipodi:nodetypes="csscssc"
               id="path886"
               d="M 105.37500,119.11600 C 102.30600,146.62300 106.75700,172.58700 109.05400,186.47500 C 111.11700,194.64900 112.07100,200.37700 114.84900,210.36400 C 117.62700,220.35200 122.24800,242.21800 123.31100,252.34800 C 123.57900,243.59100 123.95600,220.14800 125.12800,211.41100 C 126.05200,202.70300 126.85900,195.95600 128.02500,187.21700 C 130.21700,166.93600 123.47100,137.51800 105.37500,119.11600 z "
               style="font-size:12.000000px;fill:#ffffff;fill-rule:evenodd;stroke:none;stroke-width:1.0000000pt;stroke-opacity:1.0000000" />
            <path
               transform="matrix(0.762059,-0.465422,0.631570,0.769607,209.8484,432.3975)"
               sodipodi:nodetypes="csscssc"
               id="path887"
               d="M 119.41100,131.08600 C 107.20200,155.66000 108.03200,171.42900 109.05400,186.47500 C 109.77100,195.00500 111.90500,201.82300 117.71900,210.38400 C 124.15500,219.44100 140.21600,231.08600 150.61600,237.51800 C 143.58600,229.90000 134.48400,219.58700 131.87100,211.29400 C 129.21200,203.32700 130.19700,193.67700 130.48800,185.98000 C 130.83600,170.32700 131.55700,155.32300 119.41100,131.08600 z "
               style="font-size:12.000000px;fill:#ffffff;fill-rule:evenodd;stroke:none;stroke-width:1.0000000pt;stroke-opacity:1.0000000" />
          </g>
          <g
             style="font-size:12.000000px"
             id="g888">
            <path
               transform="matrix(-0.297040,0.819137,0.813681,0.435394,233.5597,305.4356)"
               sodipodi:nodetypes="csscssc"
               id="path889"
               d="M 114.62000,121.49100 C 105.22600,144.88800 109.59600,170.77500 110.61800,185.82100 C 111.33500,194.35100 113.37600,200.17600 117.02500,209.80700 C 120.95900,219.13500 126.29500,238.34500 129.56000,249.45100 C 130.61100,238.09100 128.82300,220.50300 128.77700,212.09300 C 128.50600,203.49600 130.19700,193.67700 130.48800,185.98000 C 130.83600,170.32700 130.34500,143.11500 114.62000,121.49100 z "
               style="font-size:12.000000px;fill:#ffffff;fill-rule:evenodd;stroke:none;stroke-width:1.0000000pt;stroke-opacity:1.0000000" />
            <path
               transform="matrix(0.833624,-0.126335,0.235329,0.919017,220.5993,316.4285)"
               sodipodi:nodetypes="csscssc"
               id="path890"
               d="M 119.41000,133.14700 C 109.95700,158.96700 109.41900,170.75300 111.59700,185.09000 C 112.82700,193.52900 112.65700,200.47000 117.15600,209.81400 C 121.66900,218.73900 132.31000,233.48800 144.24000,241.05400 C 135.45400,230.28700 131.30800,220.90500 130.34000,211.99000 C 129.63100,203.43900 130.19700,193.67700 130.48800,185.98000 C 130.83600,170.32700 131.55600,157.38400 119.41000,133.14700 z "
               style="font-size:12.000000px;fill:#ffffff;fill-rule:evenodd;stroke:none;stroke-width:1.0000000pt;stroke-opacity:1.0000000" />
          </g>
          <g
             style="font-size:12.000000px"
             id="g891">
            <path
               transform="matrix(-0.501116,0.712812,0.671328,0.633219,250.9268,220.8291)"
               sodipodi:nodetypes="csscssc"
               id="path892"
               d="M 112.85800,124.22500 C 105.22900,146.97100 108.03200,171.42900 109.05400,186.47500 C 109.77100,195.00500 112.07100,200.37700 114.84900,210.36400 C 117.62700,220.35200 126.42400,233.19600 132.14200,244.44000 C 127.85100,233.02300 128.26200,221.41900 128.84100,212.78200 C 129.25200,204.11000 130.19700,193.67700 130.48800,185.98000 C 130.83600,170.32700 128.93200,146.11000 112.85800,124.22500 z "
               style="font-size:12.000000px;fill:#ffffff;fill-rule:evenodd;stroke:none;stroke-width:1.0000000pt;stroke-opacity:1.0000000" />
            <path
               transform="matrix(0.837625,9.629924e-2,-1.345914e-2,0.948573,235.5406,228.0458)"
               sodipodi:nodetypes="csscssc"
               id="path893"
               d="M 119.38200,127.63800 C 107.17300,152.21200 110.11400,168.42700 111.28400,183.45100 C 112.34900,194.03900 115.51500,200.66200 120.31800,209.86400 C 125.49200,219.96100 131.84000,229.83900 138.54100,240.03700 C 133.75500,230.06000 131.72000,220.20800 130.71000,211.93000 C 129.43200,203.48000 130.19700,193.67700 130.48800,185.98000 C 130.83600,170.32700 131.52800,151.87500 119.38200,127.63800 z "
               style="font-size:12.000000px;fill:#ffffff;fill-rule:evenodd;stroke:none;stroke-width:1.0000000pt;stroke-opacity:1.0000000" />
          </g>
          <g
             style="font-size:12.000000px"
             id="g894">
            <path
               transform="matrix(-0.663600,0.491273,0.476894,0.738491,290.9689,160.3364)"
               sodipodi:nodetypes="csscssc"
               id="path895"
               d="M 119.38200,127.63800 C 107.17300,152.21200 109.05500,168.08600 110.51500,183.07400 C 111.16000,191.92200 115.61800,204.07100 119.11200,212.11600 C 123.58400,223.04800 129.49300,235.84000 134.01800,248.02500 C 133.41400,236.34500 130.34800,223.96200 130.71500,214.18000 C 130.74400,205.53200 130.19700,193.67700 130.48800,185.98000 C 130.83600,170.32700 131.52800,151.87500 119.38200,127.63800 z "
               style="font-size:12.000000px;fill:#ffffff;fill-rule:evenodd;stroke:none;stroke-width:1.0000000pt;stroke-opacity:1.0000000" />
            <path
               transform="matrix(0.775055,0.311312,-0.259001,0.830543,274.4003,162.5200)"
               sodipodi:nodetypes="csscssc"
               id="path896"
               d="M 119.38200,127.63800 C 107.17300,152.21200 109.93200,170.95700 110.95400,186.00300 C 111.67000,194.53300 116.70800,207.61500 120.58700,214.45300 C 125.98200,223.47600 133.73400,233.73300 140.43500,243.93100 C 135.64900,233.95400 131.96000,221.95200 130.41800,213.02200 C 128.99600,204.59600 129.36900,193.50700 129.66000,185.81000 C 130.00800,170.15700 131.52800,151.87500 119.38200,127.63800 z "
               style="font-size:12.000000px;fill:#ffffff;fill-rule:evenodd;stroke:none;stroke-width:1.0000000pt;stroke-opacity:1.0000000" />
          </g>
          <g
             style="font-size:12.000000px"
             id="g897">
            <path
               transform="matrix(-0.816969,6.729826e-2,6.729826e-2,0.816969,407.5899,67.85890)"
               sodipodi:nodetypes="csscssc"
               id="path898"
               d="M 119.38200,127.63800 C 107.17300,152.21200 110.05600,166.38300 111.07800,181.42900 C 111.79500,189.95900 113.97000,199.73300 116.74800,209.72000 C 119.52600,219.70800 129.36900,233.91200 134.49400,245.70300 C 130.21800,230.07300 130.41600,221.25000 129.82000,212.38300 C 129.00400,203.75600 129.71200,193.71700 130.48800,185.98000 C 131.56700,170.36000 131.52800,151.87500 119.38200,127.63800 z "
               style="font-size:12.000000px;fill:#ffffff;fill-rule:evenodd;stroke:none;stroke-width:1.0000000pt;stroke-opacity:1.0000000" />
            <path
               transform="matrix(0.532683,0.623069,-0.623069,0.532683,391.9935,61.54626)"
               sodipodi:nodetypes="csscssc"
               id="path899"
               d="M 119.38200,127.63800 C 107.17300,152.21200 109.37600,170.97900 110.39800,186.02500 C 111.11500,194.55500 113.47100,203.36500 117.96400,212.70700 C 122.77200,222.19100 131.32000,232.43900 138.02100,242.63700 C 133.23500,232.66000 129.35100,220.65500 128.73200,212.40400 C 128.00400,205.00200 129.54600,192.38900 129.35200,184.68900 C 128.77600,168.24600 130.26100,151.11200 119.38200,127.63800 z "
               style="font-size:12.000000px;fill:#ffffff;fill-rule:evenodd;stroke:none;stroke-width:1.0000000pt;stroke-opacity:1.0000000" />
          </g>
          <g
             id="g900">
            <path
               transform="matrix(-0.750512,0.344161,0.314675,0.820839,336.3612,98.19086)"
               sodipodi:nodetypes="csscssc"
               id="path901"
               d="M 107.06900,125.19500 C 102.33900,149.89300 106.42800,168.45400 110.58600,183.16200 C 112.32300,189.75000 117.65500,202.50100 122.61700,211.59700 C 128.22600,221.36900 133.84900,232.02500 139.59400,243.11000 C 136.84100,232.28000 135.38900,222.44200 133.67400,213.67800 C 132.51100,207.99800 131.53700,194.74500 129.73000,186.29800 C 127.05700,171.02400 124.46200,147.77500 107.06900,125.19500 z "
               style="font-size:12.000000px;fill:#ffffff;fill-rule:evenodd;stroke-width:1.0000000pt" />
            <path
               transform="matrix(0.694380,0.464179,-0.424409,0.759447,316.5091,101.9000)"
               sodipodi:nodetypes="csscssc"
               id="path902"
               d="M 116.91200,123.79700 C 104.70400,148.37100 107.43400,171.69500 109.91400,186.47400 C 111.60900,195.19400 113.26700,200.07700 117.28900,209.66000 C 121.74000,219.60600 127.25400,228.96300 133.95500,239.16100 C 129.16900,229.18400 129.37300,220.76100 127.86200,212.30000 C 126.60600,203.83800 128.64000,189.07100 128.15100,177.42600 C 127.19700,162.27200 126.52900,145.47000 116.91200,123.79700 z "
               style="font-size:12.000000px;fill:#ffffff;fill-rule:evenodd;stroke-width:1.0000000pt" />
          </g>
        </g>
      </g>
      <g
         id="g1240">
        <path
           id="path679"
           d="M 533.41300,561.52600 C 518.29600,562.03700 519.29900,552.62900 490.55500,551.86300 C 479.50400,551.57800 428.46400,572.90600 397.55500,567.86300 C 399.55500,575.86300 429.27500,588.26200 455.55500,586.86300 C 469.13000,586.13100 508.76400,560.44100 524.55500,571.86300 C 524.55500,571.86300 505.44300,578.68100 484.55500,595.86300 C 471.74100,606.57600 461.55500,623.86300 459.55500,630.86300 C 467.55500,630.86300 475.55500,633.86300 483.55500,628.86300 C 490.55500,624.86300 503.24500,584.94900 533.54400,577.52600"
           style="font-size:12.000000px;fill:#ffffff" />
        <path
           transform="matrix(-1.000000,0.000000,0.000000,1.000000,1066.532,1.525879e-5)"
           id="path680"
           d="M 533.41300,561.52600 C 518.29600,562.03700 519.29900,552.62900 490.55500,551.86300 C 479.50400,551.57800 428.46400,572.90600 397.55500,567.86300 C 399.55500,575.86300 429.27500,588.26200 455.55500,586.86300 C 469.13000,586.13100 508.76400,560.44100 524.55500,571.86300 C 524.55500,571.86300 505.44300,578.68100 484.55500,595.86300 C 471.74100,606.57600 461.55500,623.86300 459.55500,630.86300 C 467.55500,630.86300 475.55500,633.86300 483.55500,628.86300 C 490.55500,624.86300 503.24500,584.94900 533.54400,577.52600"
           style="font-size:12.000000px;fill:#ffffff" />
      </g>
    </g>
  </g>
</svg>
