<?xml version="1.0" encoding="UTF-8" ?>
<!DOCTYPE svg PUBLIC "-//W3C//DTD SVG 1.1//EN" "http://www.w3.org/Graphics/SVG/1.1/DTD/svg11.dtd">
<svg width="310pt" height="210pt" viewBox="0 0 310 210" version="1.1" xmlns="http://www.w3.org/2000/svg">
<g id="#630085ff">
<path fill="#630085" opacity="1.00" d=" M 0.00 0.00 L 310.00 0.00 L 310.00 210.00 L 0.00 210.00 L 0.00 0.00 M 129.96 9.00 C 128.21 9.42 126.37 9.90 125.16 11.35 C 99.50 19.49 77.69 38.78 66.36 63.19 C 63.98 65.18 63.19 68.28 62.14 71.06 C 54.51 92.48 54.52 116.52 62.14 137.94 C 63.18 140.73 63.98 143.83 66.37 145.82 C 79.49 174.25 106.99 195.55 137.92 200.78 C 139.39 201.96 141.20 202.55 143.08 202.60 C 156.47 203.29 170.21 203.33 183.08 199.03 C 183.52 198.69 184.39 197.99 184.83 197.65 C 210.48 189.50 232.30 170.23 243.63 145.82 C 246.19 143.64 246.97 140.25 248.10 137.23 C 251.59 126.54 254.05 115.30 253.40 103.99 C 253.98 93.27 251.54 82.64 248.33 72.48 C 247.12 69.24 246.37 65.55 243.63 63.19 C 232.30 38.80 210.51 19.45 184.84 11.35 C 182.34 8.79 178.44 8.85 175.19 7.90 C 160.30 5.06 144.68 5.27 129.96 9.00 Z" />
<path fill="#630085" opacity="1.00" d=" M 104.59 79.33 L 104.91 79.46 C 104.82 79.53 104.64 79.66 104.55 79.73 L 104.59 79.33 Z" />
<path fill="#630085" opacity="1.00" d=" M 107.28 128.38 C 106.94 126.09 109.20 124.99 111.16 125.15 C 110.37 126.75 108.96 127.84 107.28 128.38 Z" />
<path fill="#630085" opacity="1.00" d=" M 198.89 125.08 C 200.82 125.04 203.08 126.12 202.67 128.41 C 200.98 127.88 199.62 126.70 198.89 125.08 Z" />
<path fill="#630085" opacity="1.00" d=" M 85.50 149.06 C 88.32 147.38 91.14 145.69 93.91 143.92 C 91.83 146.62 88.90 148.54 85.50 149.06 Z" />
</g>
<g id="#4e5a44ff">
<path fill="#4e5a44" opacity="1.00" d=" M 129.96 9.00 C 144.68 5.27 160.30 5.06 175.19 7.90 C 178.44 8.85 182.34 8.79 184.84 11.35 C 175.10 8.81 165.13 6.60 155.00 7.00 C 144.87 6.59 134.90 8.81 125.16 11.35 C 126.37 9.90 128.21 9.42 129.96 9.00 Z" />
<path fill="#4e5a44" opacity="1.00" d=" M 111.29 21.16 C 135.44 8.27 165.31 6.82 190.57 17.38 C 194.39 19.03 198.43 20.45 201.57 23.29 C 198.85 22.55 196.22 21.54 193.72 20.25 C 186.20 16.45 177.98 14.21 169.69 12.83 C 171.94 14.77 174.15 16.79 176.04 19.10 C 170.22 15.15 163.70 11.49 156.43 11.75 C 161.43 20.37 171.20 25.81 181.14 25.76 C 189.40 25.64 197.63 28.62 203.74 34.20 C 205.82 36.14 207.32 38.64 209.48 40.50 C 214.80 42.55 221.41 42.01 225.37 46.79 C 220.64 44.71 215.69 42.75 210.43 42.90 C 215.40 51.53 225.21 56.96 235.11 57.06 C 232.71 53.20 229.35 50.13 225.89 47.24 C 226.48 46.95 227.65 46.38 228.24 46.09 L 228.87 46.23 C 234.50 52.98 238.64 60.84 242.15 68.86 C 242.96 70.82 243.88 72.87 243.51 75.05 C 242.79 73.64 242.03 72.27 241.27 70.89 C 241.35 77.18 239.19 83.07 237.45 89.00 C 238.42 93.17 240.77 97.07 240.32 101.51 C 239.08 98.06 238.20 94.48 236.77 91.10 C 236.41 91.12 235.69 91.14 235.33 91.15 C 233.71 95.01 232.92 99.14 231.82 103.16 C 231.82 100.80 231.82 98.45 231.87 96.10 C 227.57 99.04 223.37 103.21 217.83 103.20 C 224.46 100.24 231.10 96.30 234.68 89.70 C 231.80 89.88 228.91 90.14 226.12 90.87 C 226.17 89.57 226.22 88.27 226.26 86.96 C 228.97 87.66 231.75 87.95 234.54 88.14 C 233.51 86.38 232.46 84.63 231.31 82.95 C 231.59 82.90 232.14 82.81 232.41 82.76 C 231.23 76.89 231.04 70.89 231.89 64.97 C 227.41 68.55 222.40 71.39 217.01 73.36 C 222.00 75.22 227.54 77.05 230.46 81.89 C 224.95 78.06 218.89 74.22 211.98 74.00 C 208.49 73.88 207.60 77.94 205.90 80.23 L 205.60 79.79 C 205.53 79.69 205.40 79.49 205.33 79.39 C 206.04 77.50 206.87 75.66 207.74 73.84 C 197.95 74.25 188.28 79.50 183.40 88.12 C 191.37 88.61 197.91 83.81 204.37 79.94 C 200.82 84.26 195.75 86.68 190.74 88.87 C 194.80 90.80 199.38 92.33 202.00 96.26 C 196.44 92.64 190.25 89.44 183.41 89.71 C 187.01 96.23 193.52 100.21 200.10 103.20 C 194.52 103.04 190.31 99.01 185.99 95.99 C 187.09 101.61 187.11 107.39 185.99 113.01 C 190.29 109.91 194.56 106.13 200.09 105.66 C 193.62 108.90 186.98 112.69 183.41 119.29 C 190.25 119.56 196.43 116.35 202.00 112.74 C 199.41 116.65 194.86 118.17 190.79 120.01 C 193.52 121.24 196.10 122.79 198.39 124.73 C 193.60 122.76 188.67 120.76 183.40 120.87 C 188.29 129.51 198.00 134.78 207.82 135.15 C 206.87 133.35 206.00 131.50 205.22 129.63 C 205.29 129.52 205.42 129.32 205.48 129.21 L 205.75 128.78 C 207.04 130.58 208.31 132.39 209.56 134.23 C 212.81 127.00 213.06 119.01 212.20 111.25 C 214.78 116.83 213.93 123.00 213.12 128.86 C 216.90 125.91 220.58 122.03 225.71 121.90 C 219.76 125.08 213.57 128.79 210.40 135.02 C 220.15 134.89 229.76 129.43 234.64 120.94 C 231.90 121.09 229.17 121.36 226.46 121.78 C 226.34 120.55 226.20 119.33 226.07 118.11 C 228.88 118.85 231.78 119.12 234.68 119.29 C 231.25 112.84 224.73 109.18 218.56 105.81 C 223.73 106.47 227.82 109.92 231.87 112.90 C 231.82 110.55 231.82 108.20 231.82 105.84 C 232.92 109.86 233.72 113.99 235.33 117.85 C 235.69 117.86 236.41 117.88 236.77 117.89 C 238.20 114.51 239.08 110.93 240.33 107.48 C 240.78 111.93 238.42 115.83 237.45 120.00 C 239.20 125.93 241.35 131.82 241.27 138.12 C 242.03 136.73 242.80 135.35 243.51 133.95 C 243.93 137.18 242.07 140.06 240.90 142.93 C 237.18 150.65 233.23 158.60 226.89 164.53 C 226.65 163.83 226.17 162.43 225.92 161.73 C 229.35 158.83 232.71 155.78 235.11 151.94 C 225.19 151.99 215.40 157.48 210.42 166.10 C 215.68 166.23 220.62 164.29 225.35 162.22 C 221.38 166.96 214.79 166.47 209.48 168.50 C 206.52 171.18 204.49 174.84 201.04 177.01 C 196.77 179.71 192.10 182.69 186.82 182.22 C 195.02 179.67 203.41 175.60 207.67 167.71 C 201.05 167.44 195.08 170.53 189.56 173.80 C 192.17 170.41 196.22 168.89 199.97 167.16 C 199.74 166.61 199.28 165.51 199.05 164.96 C 201.86 165.67 204.74 165.97 207.63 166.10 C 203.53 158.77 195.82 153.98 187.73 152.27 C 186.04 152.02 184.13 151.62 182.58 152.55 C 181.13 154.30 180.05 156.33 178.77 158.21 L 178.48 157.76 C 178.41 157.66 178.28 157.45 178.21 157.35 C 179.00 155.48 179.86 153.65 180.80 151.85 C 171.00 152.23 161.25 157.44 156.39 166.11 C 159.28 165.97 162.16 165.67 164.98 164.99 C 164.74 165.51 164.27 166.57 164.03 167.10 C 168.44 169.09 173.34 170.82 176.07 175.12 C 170.20 171.15 163.72 167.40 156.38 167.68 C 159.93 174.25 166.51 178.37 173.26 181.08 C 167.59 181.38 163.33 176.92 158.95 174.00 C 160.16 179.62 160.12 185.41 158.96 191.04 C 163.57 187.58 168.37 183.86 174.25 183.04 C 176.63 183.95 175.72 180.65 173.96 182.25 C 173.78 181.96 173.43 181.37 173.26 181.08 C 175.79 181.47 178.34 181.78 180.89 182.08 C 179.93 180.31 179.05 178.50 178.23 176.66 C 178.30 176.57 178.43 176.38 178.50 176.28 L 178.76 175.91 C 179.98 177.38 181.04 178.98 182.10 180.57 C 183.12 178.85 184.17 177.15 185.22 175.44 L 185.80 176.30 C 185.88 176.42 186.04 176.66 186.12 176.78 C 185.08 178.49 184.09 180.24 183.07 181.97 C 184.32 182.07 185.57 182.15 186.82 182.22 C 183.55 182.58 180.99 184.71 178.75 186.94 C 179.54 185.61 180.27 184.24 181.00 182.88 C 171.16 183.51 161.43 188.51 156.44 197.23 C 159.63 197.09 162.83 196.76 165.90 195.89 C 166.16 196.19 166.67 196.81 166.93 197.12 L 167.63 196.74 L 167.51 195.97 C 167.11 195.95 166.31 195.91 165.90 195.89 C 169.39 194.08 172.74 192.02 176.04 189.88 C 174.11 192.15 171.96 194.22 169.69 196.15 C 175.73 195.18 181.68 193.70 187.40 191.53 C 192.20 189.77 196.57 186.94 201.57 185.71 C 200.66 186.48 199.71 187.19 198.71 187.83 C 174.79 200.59 145.26 202.16 120.15 191.91 C 116.10 190.16 111.78 188.71 108.44 185.71 C 111.15 186.45 113.78 187.46 116.28 188.74 C 123.80 192.53 132.01 194.79 140.30 196.16 C 138.03 194.23 135.88 192.16 133.96 189.88 C 137.25 192.02 140.61 194.08 144.09 195.89 C 143.69 195.91 142.89 195.94 142.49 195.96 L 142.37 196.74 L 143.06 197.12 C 143.32 196.81 143.84 196.20 144.09 195.89 C 147.17 196.77 150.37 197.09 153.56 197.23 C 148.57 188.50 138.82 183.55 128.99 182.88 C 129.73 184.24 130.46 185.61 131.25 186.94 C 129.01 184.71 126.45 182.59 123.19 182.21 C 124.43 182.15 125.68 182.06 126.93 181.97 C 125.91 180.24 124.92 178.50 123.88 176.78 C 123.96 176.66 124.12 176.42 124.20 176.31 L 124.78 175.45 C 125.86 177.20 126.95 178.95 128.04 180.70 C 129.06 178.85 130.08 177.00 131.03 175.12 C 131.56 175.39 132.63 175.94 133.17 176.21 C 131.63 178.08 130.23 180.04 128.88 182.03 C 131.51 181.80 134.14 181.49 136.75 181.08 C 136.57 181.37 136.21 181.95 136.03 182.24 C 135.61 182.19 134.75 182.10 134.33 182.05 L 134.15 182.75 C 134.55 182.82 135.35 182.96 135.75 183.03 C 141.61 183.90 146.43 187.57 151.03 191.04 C 149.87 185.41 149.84 179.61 151.05 173.99 C 146.68 176.94 142.42 181.32 136.75 181.08 C 143.52 178.41 149.94 174.18 153.60 167.71 C 146.74 167.41 140.63 170.77 134.94 174.17 C 137.60 170.45 142.01 168.95 145.98 167.12 C 145.74 166.59 145.26 165.52 145.02 164.98 C 147.83 165.67 150.72 165.97 153.61 166.11 C 148.73 157.47 138.98 152.24 129.20 151.85 C 130.13 153.65 130.99 155.48 131.79 157.35 C 131.72 157.45 131.59 157.65 131.52 157.76 L 131.23 158.21 C 129.96 156.33 128.89 154.29 127.42 152.56 C 125.36 151.42 122.87 152.18 120.71 152.64 C 115.49 153.85 111.02 156.92 106.55 159.71 C 109.64 155.03 115.09 153.24 120.09 151.38 C 116.33 149.84 112.20 148.57 109.56 145.26 C 115.03 148.24 120.93 150.47 127.17 151.02 C 125.65 148.71 124.01 146.49 122.19 144.41 C 124.27 143.77 123.37 141.40 123.41 139.80 C 122.84 135.49 123.28 131.16 124.01 126.91 C 119.63 130.85 114.51 133.84 108.89 135.61 C 113.28 137.51 118.23 138.99 121.06 143.16 C 115.30 139.29 108.77 136.53 101.79 135.99 C 103.58 138.86 105.80 141.42 108.16 143.83 C 107.11 143.61 106.06 143.39 105.02 143.17 C 106.05 149.15 105.63 155.22 105.24 161.23 C 104.34 162.87 103.43 164.52 102.55 166.18 C 105.38 165.95 108.20 165.63 110.96 164.96 C 110.73 165.50 110.27 166.57 110.04 167.10 C 113.80 168.83 117.81 170.44 120.44 173.80 C 114.90 170.56 108.95 167.44 102.33 167.71 C 106.59 175.59 114.98 179.68 123.19 182.21 C 117.90 182.70 113.22 179.71 108.96 177.01 C 105.51 174.83 103.47 171.19 100.52 168.49 C 95.20 166.47 88.60 166.99 84.64 162.22 C 89.37 164.30 94.32 166.23 99.58 166.10 C 94.60 157.48 84.78 152.04 74.88 151.94 C 77.28 155.78 80.64 158.83 84.07 161.72 C 83.83 162.43 83.36 163.83 83.12 164.53 C 76.76 158.62 72.83 150.64 69.10 142.93 C 67.92 140.06 66.06 137.18 66.49 133.95 C 67.20 135.36 67.97 136.74 68.72 138.13 C 68.62 131.83 70.81 125.94 72.56 120.00 C 71.55 115.84 69.21 111.93 69.65 107.49 C 70.91 110.94 71.81 114.52 73.23 117.91 C 73.58 117.88 74.30 117.84 74.65 117.82 C 78.50 109.44 78.34 99.46 74.68 91.04 C 72.33 91.24 71.96 94.18 70.88 95.85 C 71.40 92.70 73.29 89.45 71.84 86.28 C 69.87 81.36 68.92 76.13 68.72 70.84 C 67.97 72.24 67.20 73.63 66.49 75.05 C 66.18 73.14 66.82 71.30 67.55 69.57 C 70.72 62.12 74.51 54.89 79.37 48.40 C 80.13 47.63 80.56 46.23 81.76 46.09 C 82.35 46.38 83.52 46.96 84.10 47.25 C 80.64 50.13 77.28 53.20 74.89 57.06 C 84.80 56.99 94.59 51.52 99.57 42.90 C 94.31 42.75 89.36 44.71 84.63 46.80 C 88.61 42.05 95.18 42.46 100.52 40.50 C 103.33 37.99 105.23 34.54 108.41 32.40 C 112.79 29.44 117.66 26.48 123.14 26.65 C 115.04 29.47 106.57 33.34 102.32 41.29 C 108.94 41.56 114.91 38.47 120.43 35.20 C 117.82 38.58 113.77 40.11 110.02 41.84 C 110.25 42.39 110.72 43.49 110.95 44.03 C 108.14 43.32 105.25 43.02 102.36 42.90 C 106.80 50.74 115.32 55.82 124.15 56.98 C 128.10 57.74 129.32 53.25 131.24 50.79 L 131.52 51.24 C 131.59 51.34 131.72 51.54 131.78 51.64 C 130.99 53.51 130.13 55.35 129.20 57.15 C 138.99 56.75 148.76 51.56 153.61 42.87 C 146.57 42.60 140.30 46.07 134.61 49.79 C 137.35 45.76 142.02 44.08 146.26 42.14 C 141.82 39.95 136.74 38.28 133.94 33.88 C 139.80 37.84 146.27 41.60 153.61 41.30 C 148.66 32.51 138.91 27.66 129.10 26.85 C 130.04 28.65 130.93 30.48 131.76 32.34 C 131.69 32.44 131.56 32.63 131.49 32.72 L 131.23 33.10 C 130.00 31.61 128.92 29.99 127.85 28.38 C 126.86 30.18 125.86 31.96 124.87 33.75 L 124.24 32.80 C 124.15 32.67 123.98 32.41 123.89 32.28 C 124.91 30.55 125.89 28.80 126.90 27.06 C 125.65 26.91 124.40 26.78 123.14 26.65 C 125.04 26.34 126.92 25.94 128.84 25.75 C 138.80 25.84 148.55 20.37 153.57 11.75 C 146.30 11.49 139.77 15.14 133.96 19.10 C 135.83 16.79 138.03 14.77 140.28 12.83 C 134.26 13.82 128.31 15.32 122.59 17.45 C 117.78 19.19 113.44 22.09 108.43 23.29 C 109.34 22.51 110.29 21.80 111.29 21.16 M 142.35 12.17 C 142.50 15.47 145.34 10.66 142.35 12.17 M 166.21 12.18 C 166.37 15.48 169.19 10.62 166.21 12.18 M 154.28 13.11 C 150.50 21.51 150.55 31.51 154.27 39.92 C 154.63 39.91 155.35 39.90 155.72 39.89 C 159.46 31.50 159.46 21.51 155.72 13.11 C 155.36 13.11 154.64 13.11 154.28 13.11 M 151.18 16.22 C 151.70 16.75 151.70 16.75 151.18 16.22 M 158.35 16.23 C 158.87 16.75 158.87 16.75 158.35 16.23 M 136.02 26.23 C 134.43 24.20 133.57 28.48 135.74 26.95 C 141.58 28.03 146.57 31.45 151.10 35.11 C 149.79 29.42 149.84 23.57 151.06 17.87 C 146.63 21.62 141.63 24.62 136.02 26.23 M 158.93 17.87 C 160.16 23.57 160.20 29.42 158.91 35.11 C 163.43 31.44 168.43 28.04 174.27 26.95 C 176.45 28.46 175.55 24.20 173.99 26.23 C 168.41 24.55 163.35 21.64 158.93 17.87 M 156.41 41.28 C 163.73 41.65 170.21 37.86 176.04 33.89 C 173.50 38.55 167.88 39.54 163.69 42.17 C 167.88 44.21 172.82 45.55 175.38 49.80 C 169.71 46.10 163.44 42.52 156.41 42.91 C 161.27 51.50 171.14 56.99 180.96 57.05 C 179.89 55.32 178.90 53.56 177.80 51.86 C 177.89 51.72 178.08 51.43 178.17 51.28 L 178.86 50.27 C 180.47 52.76 181.23 57.13 184.95 57.00 C 191.79 56.70 197.90 53.07 203.31 49.14 C 200.67 54.13 194.92 55.73 189.97 57.45 C 191.85 58.45 193.65 59.58 195.39 60.81 C 191.31 59.49 187.11 58.57 182.87 57.97 C 184.34 60.48 186.10 62.84 188.18 64.88 C 187.71 64.83 186.76 64.73 186.28 64.68 C 186.30 66.80 186.29 68.92 186.35 71.04 C 184.71 67.15 184.47 62.72 182.01 59.19 C 179.53 62.77 179.33 67.25 177.64 71.17 C 177.67 69.10 177.77 67.03 177.93 64.97 C 176.88 65.24 175.85 65.54 174.82 65.86 C 177.23 63.49 179.46 60.92 181.15 57.99 C 174.95 58.54 169.03 60.66 163.68 63.80 C 166.09 60.19 170.49 59.30 174.19 57.59 C 168.36 56.14 163.41 52.79 159.01 48.81 C 159.95 54.53 160.14 60.35 158.98 66.05 C 160.06 65.78 161.13 65.48 162.20 65.15 C 159.77 67.50 157.56 70.09 155.85 73.02 C 162.07 72.46 167.98 70.31 173.35 67.20 C 171.01 70.86 166.50 71.62 162.86 73.42 C 168.51 75.11 173.72 77.93 177.87 82.15 C 177.71 79.75 177.64 77.35 177.62 74.94 C 179.18 78.81 179.63 83.02 181.31 86.83 C 181.66 86.83 182.37 86.82 182.73 86.81 C 184.24 83.25 184.84 79.39 186.38 75.84 C 186.34 77.95 186.23 80.06 186.08 82.17 C 190.33 78.01 195.49 75.10 201.18 73.43 C 197.50 71.67 193.09 70.78 190.68 67.18 C 196.06 70.26 201.95 72.47 208.16 73.01 C 206.45 70.05 204.20 67.45 201.76 65.08 C 202.84 65.43 203.94 65.75 205.05 66.04 C 203.64 60.06 204.74 54.01 204.68 48.00 L 204.20 48.12 C 205.47 46.49 206.54 44.71 207.57 42.91 C 204.67 42.96 201.75 43.19 198.98 44.08 C 199.27 43.54 199.84 42.45 200.13 41.91 C 196.45 39.96 191.95 38.91 189.61 35.16 C 195.07 38.46 201.03 41.59 207.62 41.29 C 202.74 32.52 192.81 27.42 182.97 26.91 C 184.02 28.66 185.04 30.43 186.19 32.11 C 186.10 32.25 185.91 32.55 185.82 32.69 L 185.13 33.73 C 184.16 31.88 183.09 30.08 182.04 28.28 C 180.95 30.08 179.86 31.88 178.83 33.72 L 178.19 32.69 C 178.10 32.54 177.92 32.25 177.83 32.10 C 179.01 30.45 180.02 28.68 181.06 26.93 C 171.17 27.37 161.38 32.57 156.41 41.28 M 151.18 36.31 C 151.70 36.83 151.70 36.83 151.18 36.31 M 158.35 36.30 C 158.86 36.82 158.86 36.82 158.35 36.30 M 100.24 44.12 C 98.79 47.69 98.17 51.54 96.60 55.08 C 96.67 53.00 96.80 50.93 96.97 48.87 C 92.62 52.91 87.47 55.85 81.82 57.64 C 86.12 59.64 91.36 60.76 93.97 65.13 C 88.26 61.26 81.77 58.55 74.85 58.00 C 76.56 60.95 78.80 63.56 81.24 65.93 C 80.16 65.57 79.07 65.25 77.98 64.95 C 79.17 71.18 78.53 77.51 77.62 83.72 L 78.33 83.21 C 77.21 84.82 76.14 86.47 75.03 88.09 C 78.06 88.03 81.11 87.82 84.04 86.95 C 82.70 88.06 83.68 89.62 83.96 90.96 C 81.20 89.96 78.25 89.85 75.36 89.72 C 78.72 96.14 85.23 99.94 91.50 103.05 C 86.20 102.90 82.12 98.83 77.98 95.98 C 78.81 101.63 78.82 107.37 77.98 113.03 C 82.10 110.10 86.20 106.25 91.46 105.86 C 85.28 109.15 78.70 112.81 75.35 119.28 C 78.25 119.15 81.21 119.03 83.98 118.05 C 83.68 119.39 82.67 120.95 84.03 122.06 C 81.10 121.17 78.03 120.95 74.99 120.93 C 76.32 122.79 77.66 124.67 79.25 126.33 C 78.86 126.17 78.10 125.84 77.71 125.68 C 78.55 131.78 79.10 137.96 78.02 144.08 C 82.53 140.44 87.59 137.59 93.03 135.60 C 88.07 133.69 81.96 132.12 79.68 126.75 C 85.22 131.70 92.46 135.24 100.02 135.02 C 98.65 133.14 97.37 131.20 95.81 129.47 C 97.18 127.70 96.50 125.46 96.29 123.45 C 95.70 119.55 95.78 115.27 98.08 111.90 C 96.84 119.24 96.79 127.38 100.88 133.89 C 102.01 132.05 103.14 130.19 104.18 128.30 L 104.82 129.27 C 104.90 129.40 105.07 129.66 105.16 129.79 C 104.11 131.53 103.11 133.31 102.05 135.05 C 111.89 135.01 121.67 129.46 126.58 120.91 C 121.29 120.61 116.40 122.82 111.63 124.77 C 113.71 122.51 116.52 121.26 119.30 120.10 C 115.35 117.98 110.38 116.93 108.06 112.68 C 113.53 116.40 119.76 119.59 126.56 119.28 C 123.01 112.76 116.48 108.75 109.88 105.84 C 115.50 105.76 119.75 110.07 124.05 113.11 C 122.86 107.41 122.86 101.59 124.05 95.89 C 119.76 98.92 115.50 103.25 109.89 103.15 C 116.49 100.24 123.02 96.23 126.57 89.72 C 119.76 89.41 113.53 92.59 108.06 96.31 C 110.39 92.06 115.36 91.00 119.31 88.84 C 116.54 87.65 113.64 86.51 111.65 84.13 C 116.34 86.28 121.30 88.33 126.58 88.10 C 122.35 80.54 114.26 75.62 105.85 74.11 C 103.92 73.65 102.00 74.36 100.44 75.47 C 96.98 82.08 96.79 89.88 98.08 97.10 C 95.91 93.95 95.71 89.95 96.20 86.27 C 96.36 84.03 97.30 81.54 95.80 79.55 C 97.38 77.94 98.46 75.94 99.55 73.99 C 92.12 73.76 85.45 77.63 79.65 81.86 C 82.36 76.99 87.97 75.19 92.91 73.50 C 90.95 72.68 89.19 71.51 87.55 70.19 C 91.66 71.45 95.86 72.46 100.12 73.04 C 98.88 70.98 97.52 68.99 95.89 67.22 C 96.44 66.82 97.54 66.00 98.10 65.59 C 98.74 67.79 99.82 69.83 100.99 71.79 C 105.75 63.53 105.45 52.88 101.63 44.32 C 101.28 44.27 100.59 44.17 100.24 44.12 M 153.14 47.16 C 150.72 55.13 150.52 64.51 155.00 71.81 C 159.92 63.56 159.39 52.81 155.69 44.18 C 153.73 43.50 153.76 45.95 153.14 47.16 M 208.37 44.27 C 204.55 52.83 204.22 63.53 209.00 71.79 C 210.18 69.83 211.26 67.80 211.90 65.60 C 212.45 66.01 213.56 66.83 214.11 67.24 C 212.50 69.01 211.14 70.99 209.88 73.02 C 220.05 72.26 230.06 67.05 235.16 58.00 C 228.23 58.55 221.72 61.23 216.02 65.13 C 218.62 60.72 223.91 59.69 228.20 57.65 C 222.56 55.82 217.37 52.93 213.04 48.86 C 213.21 50.95 213.35 53.05 213.42 55.15 C 211.84 51.59 211.22 47.71 209.74 44.12 C 209.40 44.16 208.71 44.23 208.37 44.27 M 104.95 48.76 C 105.81 54.49 106.11 60.31 104.96 66.03 C 106.04 65.76 107.11 65.46 108.18 65.14 C 105.78 67.51 103.52 70.06 101.84 73.01 C 108.76 72.44 115.27 69.80 120.96 65.89 C 118.34 70.26 113.10 71.38 108.79 73.38 C 114.53 75.09 119.68 78.10 124.04 82.19 C 122.78 76.39 122.98 70.49 123.88 64.66 C 123.39 64.71 122.42 64.83 121.93 64.88 C 123.88 62.76 125.64 60.45 127.13 57.98 C 120.92 58.54 115.00 60.67 109.63 63.79 C 111.92 60.11 116.46 59.42 120.07 57.61 C 114.34 55.97 109.24 52.86 104.95 48.76 M 135.82 57.57 C 139.50 59.31 143.89 60.21 146.30 63.80 C 140.96 60.66 135.04 58.55 128.85 57.98 C 130.53 60.92 132.77 63.49 135.18 65.86 C 134.12 65.54 133.04 65.25 131.96 64.99 C 133.32 70.91 132.71 76.94 131.99 82.89 C 133.22 81.49 134.42 79.87 136.42 79.64 C 134.09 82.47 131.16 84.82 129.38 88.07 C 132.29 88.05 135.22 87.80 138.02 86.93 C 137.76 87.42 137.26 88.39 137.00 88.88 C 138.40 89.91 139.76 90.97 141.19 91.95 C 137.39 90.60 133.41 89.76 129.38 89.69 C 132.83 96.29 139.54 100.25 146.15 103.14 C 140.60 103.31 136.24 98.98 132.03 95.92 C 132.24 98.06 132.32 100.22 132.31 102.37 C 130.94 98.65 130.22 94.73 128.75 91.05 C 128.37 91.05 127.62 91.06 127.25 91.06 C 123.45 99.51 123.44 109.48 127.25 117.93 C 127.62 117.94 128.37 117.94 128.75 117.94 C 130.22 114.26 130.94 110.34 132.31 106.63 C 132.33 108.78 132.24 110.93 132.02 113.08 C 135.64 109.95 139.76 107.48 144.12 105.54 C 144.63 105.65 145.65 105.88 146.17 105.99 C 139.46 108.62 132.86 112.78 129.38 119.30 C 135.96 119.58 141.97 116.55 147.38 113.14 C 145.09 116.95 140.53 117.95 136.88 119.95 C 137.17 120.48 137.74 121.54 138.03 122.07 C 135.24 121.19 132.31 120.95 129.40 120.92 C 132.91 127.28 139.28 131.78 146.15 133.90 C 150.55 135.47 155.28 134.56 159.84 134.79 C 168.29 133.50 176.38 128.45 180.59 120.92 C 177.69 120.95 174.77 121.19 171.99 122.06 C 172.24 121.58 172.74 120.61 172.99 120.12 C 171.60 119.09 170.23 118.03 168.81 117.05 C 172.60 118.40 176.58 119.24 180.61 119.31 C 177.15 112.78 170.54 108.62 163.83 105.99 C 164.34 105.88 165.36 105.66 165.88 105.55 C 170.28 107.47 174.37 110.03 178.06 113.10 C 176.99 107.41 176.98 101.58 178.06 95.90 C 173.80 98.96 169.45 103.24 163.87 103.15 C 170.45 100.22 177.16 96.30 180.61 89.70 C 173.26 89.32 166.78 93.15 160.97 97.17 C 163.51 92.64 168.84 91.35 173.12 89.04 C 172.83 88.51 172.26 87.45 171.97 86.93 C 174.76 87.80 177.69 88.04 180.60 88.08 C 176.38 80.48 168.24 75.60 159.81 74.11 C 157.99 73.84 155.69 73.86 154.56 75.58 C 150.89 81.60 151.52 88.95 151.59 95.70 C 148.68 90.69 151.08 84.95 150.80 79.57 C 150.80 79.42 150.80 79.12 150.80 78.97 C 151.91 77.33 152.90 75.62 153.95 73.96 C 147.93 73.70 142.43 76.43 137.16 78.97 C 139.33 75.50 143.59 74.92 147.07 73.42 C 143.47 71.58 138.91 70.89 136.63 67.19 C 142.01 70.31 147.92 72.46 154.14 73.02 C 152.44 70.09 150.23 67.50 147.80 65.15 C 148.86 65.47 149.92 65.76 150.99 66.02 C 149.87 60.32 149.88 54.50 151.02 48.81 C 146.72 52.96 141.54 55.89 135.82 57.57 M 73.41 87.29 C 76.22 84.65 76.85 80.62 77.26 76.98 C 77.78 70.93 77.25 64.47 73.97 59.20 C 68.73 67.65 69.53 78.46 73.41 87.29 M 127.29 86.82 C 129.28 87.52 129.20 85.00 129.83 83.79 C 132.38 75.83 132.40 66.51 128.00 59.19 C 122.94 67.46 123.52 78.16 127.29 86.82 M 235.38 86.68 C 237.32 87.66 237.26 85.03 237.88 83.86 C 240.67 75.88 240.54 66.52 236.02 59.20 C 231.28 67.46 231.57 78.12 235.38 86.68 M 232.15 63.24 C 232.68 63.77 232.68 63.77 232.15 63.24 M 181.27 91.06 C 177.56 99.49 177.56 109.50 181.27 117.93 C 181.64 117.93 182.38 117.93 182.75 117.93 C 186.56 109.48 186.55 99.52 182.75 91.06 C 182.38 91.06 181.64 91.06 181.27 91.06 M 124.17 94.22 C 124.69 94.74 124.69 94.74 124.17 94.22 M 185.35 94.22 C 185.87 94.74 185.87 94.74 185.35 94.22 M 124.17 114.31 C 124.68 114.84 124.68 114.84 124.17 114.31 M 185.35 114.31 C 185.87 114.83 185.87 114.83 185.35 114.31 M 73.40 121.70 C 69.54 130.53 68.72 141.35 73.98 149.80 C 77.24 144.53 77.78 138.07 77.27 132.03 C 76.86 128.37 76.21 124.34 73.40 121.70 M 126.13 125.16 C 123.48 133.14 123.51 142.48 127.99 149.81 C 132.90 141.54 132.35 130.81 128.67 122.16 C 126.71 121.52 126.74 123.94 126.13 125.16 M 181.32 122.17 C 177.65 130.81 177.09 141.54 182.00 149.81 C 186.94 141.57 186.42 130.81 182.71 122.19 C 182.36 122.19 181.67 122.17 181.32 122.17 M 235.38 122.32 C 231.57 130.88 231.28 141.54 236.02 149.80 C 241.15 141.50 240.55 130.83 236.74 122.13 C 236.40 122.18 235.72 122.27 235.38 122.32 M 132.02 126.84 C 132.80 132.55 133.25 138.34 131.96 144.01 C 133.04 143.75 134.12 143.46 135.18 143.14 C 132.78 145.51 130.53 148.07 128.84 151.01 C 135.72 150.40 142.36 147.94 147.90 143.80 C 150.32 141.49 152.41 138.84 154.14 135.98 C 147.92 136.54 142.01 138.69 136.62 141.80 C 138.91 138.05 143.53 137.41 147.18 135.59 C 141.46 133.93 136.30 130.97 132.02 126.84 M 162.81 135.58 C 166.46 137.41 171.06 138.07 173.37 141.80 C 167.99 138.69 162.08 136.53 155.86 135.99 C 157.56 138.91 159.77 141.49 162.19 143.85 C 161.17 143.51 160.14 143.20 159.10 142.91 C 159.33 144.96 159.47 147.04 158.99 149.07 C 161.19 152.34 158.94 156.55 159.01 160.19 C 163.27 156.01 168.46 153.10 174.18 151.43 C 170.49 149.69 166.13 148.76 163.69 145.20 C 169.04 148.33 174.95 150.45 181.15 151.01 C 179.46 148.08 177.22 145.51 174.82 143.15 C 175.88 143.46 176.96 143.76 178.04 144.02 C 176.79 138.33 177.13 132.54 177.98 126.83 C 173.70 130.98 168.54 133.93 162.81 135.58 M 185.96 126.82 C 187.16 132.55 187.11 138.40 186.09 144.15 C 190.65 140.52 195.69 137.58 201.17 135.57 C 195.43 133.92 190.34 130.85 185.96 126.82 M 217.05 135.49 C 219.02 136.30 220.80 137.46 222.45 138.81 C 218.34 137.55 214.15 136.53 209.89 135.96 C 211.13 138.03 212.43 140.09 214.11 141.84 C 213.66 142.01 212.78 142.36 212.33 142.54 L 211.90 143.40 C 211.26 141.20 210.18 139.16 209.01 137.21 C 204.25 145.46 204.55 156.13 208.37 164.69 C 208.72 164.73 209.40 164.82 209.75 164.87 C 211.22 161.30 211.82 157.45 213.40 153.92 C 213.33 155.99 213.20 158.06 213.04 160.13 C 216.40 157.44 219.68 154.40 223.87 153.08 C 225.54 152.34 227.94 152.16 228.21 149.92 C 230.50 150.38 232.83 150.67 235.15 150.93 C 233.40 148.03 231.19 145.43 228.77 143.07 C 229.84 143.42 230.93 143.75 232.03 144.04 C 230.95 138.31 231.33 132.47 232.06 126.73 C 227.83 130.83 222.75 133.91 217.05 135.49 M 74.84 150.96 C 77.15 150.66 79.46 150.30 81.76 149.89 C 81.94 150.32 82.31 151.17 82.49 151.59 C 87.87 153.42 92.81 156.24 96.97 160.15 C 96.79 158.05 96.64 155.95 96.58 153.86 C 98.15 157.41 98.77 161.28 100.26 164.86 C 100.60 164.83 101.29 164.76 101.63 164.73 C 105.44 156.16 105.77 145.46 100.99 137.20 C 99.82 139.16 98.74 141.19 98.10 143.40 C 97.55 143.00 96.45 142.19 95.89 141.79 C 97.50 140.00 98.84 138.00 100.12 135.97 C 89.95 136.72 79.98 141.95 74.84 150.96 M 182.87 151.02 C 189.09 150.45 195.00 148.32 200.38 145.20 C 198.08 148.87 193.56 149.59 189.96 151.40 C 195.67 153.02 200.75 156.14 205.04 160.22 C 204.18 154.50 203.89 148.69 205.04 142.98 C 203.95 143.24 202.88 143.53 201.82 143.86 C 204.22 141.48 206.48 138.93 208.16 135.99 C 198.04 136.79 187.88 141.92 182.87 151.02 M 154.31 164.81 C 154.65 164.81 155.35 164.83 155.69 164.84 C 157.89 159.88 158.58 154.43 158.99 149.07 C 157.94 145.03 157.37 140.73 155.01 137.18 C 150.08 145.42 150.60 156.19 154.31 164.81 M 147.90 143.80 C 145.57 148.36 140.04 149.27 135.86 151.42 C 141.67 152.89 146.61 156.24 151.02 160.20 C 149.92 154.52 149.85 148.72 150.99 143.05 C 149.96 143.30 148.93 143.55 147.90 143.80 M 77.37 145.28 C 77.90 145.81 77.90 145.81 77.37 145.28 M 154.28 169.11 C 150.54 177.50 150.54 187.49 154.28 195.88 C 155.49 196.16 156.18 195.66 156.35 194.37 C 159.46 186.30 159.23 177.00 155.74 169.09 C 155.37 169.10 154.65 169.10 154.28 169.11 M 151.17 172.22 C 151.69 172.74 151.69 172.74 151.17 172.22 M 151.17 192.29 C 151.69 192.81 151.69 192.81 151.17 192.29 M 158.35 192.30 C 158.87 192.82 158.87 192.82 158.35 192.30 Z" />
<path fill="#4e5a44" opacity="1.00" d=" M 131.23 33.10 C 133.41 38.77 133.50 45.13 131.24 50.79 C 131.52 44.89 131.39 39.00 131.23 33.10 Z" />
<path fill="#4e5a44" opacity="1.00" d=" M 178.86 50.27 C 176.40 45.12 176.43 38.89 178.83 33.72 C 178.48 39.23 178.43 44.76 178.86 50.27 Z" />
<path fill="#4e5a44" opacity="1.00" d=" M 185.13 33.73 C 188.46 39.23 185.70 45.62 187.02 51.52 C 185.64 53.19 184.30 54.90 182.84 56.51 C 183.86 51.96 185.58 47.50 185.63 42.78 C 185.65 39.76 185.32 36.74 185.13 33.73 Z" />
<path fill="#4e5a44" opacity="1.00" d=" M 62.14 71.06 C 63.19 68.28 63.98 65.18 66.36 63.19 C 54.59 89.10 54.58 119.91 66.37 145.82 C 63.98 143.83 63.18 140.73 62.14 137.94 C 54.52 116.52 54.51 92.48 62.14 71.06 Z" />
<path fill="#4e5a44" opacity="1.00" d=" M 243.63 63.19 C 246.37 65.55 247.12 69.24 248.33 72.48 C 251.54 82.64 253.98 93.27 253.40 103.99 C 254.05 115.30 251.59 126.54 248.10 137.23 C 246.97 140.25 246.19 143.64 243.63 145.82 C 255.42 119.92 255.41 89.09 243.63 63.19 Z" />
<path fill="#4e5a44" opacity="1.00" d=" M 64.27 79.21 C 64.68 77.67 65.17 76.06 66.49 75.05 C 65.08 82.24 62.83 89.27 62.37 96.63 C 60.79 109.24 63.56 121.77 66.49 133.95 C 65.17 132.93 64.68 131.33 64.27 129.79 C 59.72 113.34 59.72 95.66 64.27 79.21 Z" />
<path fill="#4e5a44" opacity="1.00" d=" M 155.83 74.51 C 157.29 76.11 158.63 77.81 160.01 79.48 C 158.49 84.84 161.28 90.60 158.47 95.71 C 158.93 88.52 158.05 81.36 155.83 74.51 Z" />
<path fill="#4e5a44" opacity="1.00" d=" M 243.51 75.05 C 244.57 75.89 245.17 77.11 245.50 78.42 C 250.36 95.35 250.36 113.65 245.50 130.58 C 245.17 131.88 244.56 133.09 243.51 133.95 C 246.53 121.56 249.23 108.79 247.53 95.98 C 247.09 88.84 244.85 82.03 243.51 75.05 Z" />
<path fill="#4e5a44" opacity="1.00" d=" M 104.48 80.47 C 106.27 86.14 106.39 92.31 104.26 97.91 C 104.36 92.10 104.11 86.27 104.48 80.47 Z" />
<path fill="#4e5a44" opacity="1.00" d=" M 98.08 97.10 C 98.91 98.99 99.85 100.82 100.78 102.65 C 101.89 101.03 102.99 99.41 104.26 97.91 L 104.52 98.29 C 104.58 98.39 104.72 98.58 104.78 98.67 C 103.94 100.50 103.04 102.30 102.07 104.07 C 104.67 103.76 107.28 103.44 109.89 103.15 C 109.58 103.37 108.98 103.81 108.67 104.04 C 106.69 102.82 106.66 106.15 108.66 104.98 C 108.97 105.20 109.58 105.63 109.88 105.84 C 107.27 105.55 104.67 105.24 102.07 104.93 C 103.04 106.70 103.94 108.49 104.78 110.32 C 104.72 110.42 104.58 110.62 104.51 110.71 L 104.25 111.08 C 102.99 109.58 101.89 107.95 100.79 106.33 C 99.85 108.17 98.91 110.01 98.08 111.90 C 97.51 111.63 96.37 111.10 95.81 110.84 C 97.35 108.98 98.70 106.98 100.05 104.98 C 97.41 105.25 94.77 105.53 92.12 105.69 C 92.47 105.59 93.19 105.37 93.55 105.26 C 95.79 105.77 94.76 102.61 93.23 104.33 C 92.96 104.03 92.43 103.45 92.16 103.15 C 94.79 103.46 97.43 103.77 100.07 104.03 C 98.72 102.02 97.36 100.02 95.81 98.16 C 96.38 97.90 97.51 97.37 98.08 97.10 Z" />
<path fill="#4e5a44" opacity="1.00" d=" M 151.73 97.72 C 152.84 99.33 153.93 100.94 155.00 102.58 C 156.06 100.94 157.16 99.32 158.28 97.72 L 158.47 98.22 C 158.51 98.33 158.59 98.54 158.64 98.65 C 157.92 100.50 157.06 102.30 156.18 104.09 C 158.74 103.76 161.30 103.44 163.87 103.15 C 163.57 103.35 162.96 103.77 162.66 103.97 C 160.59 102.90 160.80 106.25 162.72 104.90 C 162.99 105.18 163.55 105.72 163.83 105.99 C 161.28 105.57 158.73 105.22 156.18 104.90 C 157.07 106.70 157.94 108.51 158.69 110.38 C 158.62 110.48 158.48 110.69 158.41 110.79 L 158.09 111.24 C 157.04 109.59 155.98 107.95 154.93 106.30 C 153.92 108.12 152.89 109.94 151.89 111.77 L 151.26 110.82 C 151.17 110.69 151.00 110.43 150.92 110.30 C 151.94 108.52 152.93 106.71 153.94 104.92 C 151.34 105.21 148.75 105.56 146.17 105.99 C 146.45 105.72 147.01 105.19 147.29 104.93 C 149.23 106.22 149.36 102.87 147.32 103.99 C 147.03 103.78 146.44 103.35 146.15 103.14 C 148.71 103.44 151.26 103.76 153.82 104.09 C 152.93 102.31 152.08 100.50 151.35 98.65 C 151.40 98.55 151.48 98.33 151.53 98.23 L 151.73 97.72 Z" />
<path fill="#4e5a44" opacity="1.00" d=" M 205.80 97.78 C 206.90 99.37 207.99 100.96 209.04 102.58 C 210.05 100.98 211.10 99.40 212.14 97.82 L 212.47 98.25 C 212.54 98.36 212.70 98.56 212.78 98.66 C 211.97 100.50 211.10 102.30 210.17 104.07 C 212.72 103.77 215.27 103.47 217.83 103.20 C 217.58 103.50 217.06 104.11 216.80 104.41 C 215.35 102.59 214.16 105.71 216.44 105.30 C 216.81 105.39 217.53 105.56 217.90 105.65 C 215.31 105.50 212.72 105.26 210.15 104.96 C 211.10 106.72 211.97 108.52 212.78 110.34 C 212.71 110.45 212.57 110.67 212.50 110.77 L 212.20 111.25 C 211.13 109.67 210.08 108.07 209.08 106.45 C 208.04 108.04 206.98 109.63 205.76 111.09 L 205.49 110.71 C 205.42 110.61 205.28 110.42 205.21 110.32 C 206.05 108.50 206.95 106.71 207.92 104.95 C 205.32 105.25 202.71 105.53 200.09 105.66 C 200.45 105.56 201.18 105.36 201.54 105.26 C 203.78 105.77 202.77 102.63 201.23 104.33 C 200.95 104.04 200.38 103.48 200.10 103.20 C 202.71 103.47 205.32 103.76 207.93 104.06 C 206.95 102.30 206.04 100.50 205.21 98.67 C 205.28 98.56 205.43 98.35 205.50 98.24 L 205.80 97.78 Z" />
<path fill="#4e5a44" opacity="1.00" d=" M 104.25 111.08 C 106.10 116.61 106.78 122.89 104.18 128.30 C 104.53 122.56 104.30 116.82 104.25 111.08 Z" />
<path fill="#4e5a44" opacity="1.00" d=" M 205.75 128.78 C 203.52 123.12 203.55 116.74 205.76 111.09 C 205.63 116.99 205.49 122.88 205.75 128.78 Z" />
<path fill="#4e5a44" opacity="1.00" d=" M 79.25 126.33 C 79.35 126.44 79.57 126.64 79.68 126.75 C 79.57 126.64 79.35 126.44 79.25 126.33 Z" />
<path fill="#4e5a44" opacity="1.00" d=" M 122.97 157.48 C 124.30 155.99 125.33 154.20 126.91 152.95 C 126.62 155.74 125.45 158.35 124.97 161.11 C 123.87 165.83 124.63 170.67 124.78 175.45 C 121.72 169.80 124.17 163.44 122.97 157.48 Z" />
<path fill="#4e5a44" opacity="1.00" d=" M 183.07 152.93 C 184.66 154.18 185.68 155.99 187.03 157.48 C 185.76 163.44 188.32 169.80 185.22 175.44 C 185.37 170.67 186.13 165.83 185.03 161.11 C 184.55 158.35 183.39 155.73 183.07 152.93 Z" />
<path fill="#4e5a44" opacity="1.00" d=" M 131.23 158.21 C 133.15 163.58 134.01 169.96 131.03 175.12 C 131.63 169.50 131.46 163.84 131.23 158.21 Z" />
<path fill="#4e5a44" opacity="1.00" d=" M 178.76 175.91 C 176.53 170.25 176.53 163.87 178.77 158.21 C 178.47 164.11 178.62 170.01 178.76 175.91 Z" />
<path fill="#4e5a44" opacity="1.00" d=" M 137.92 200.78 C 153.57 203.26 169.65 202.14 184.83 197.65 C 184.39 197.99 183.52 198.69 183.08 199.03 C 170.21 203.33 156.47 203.29 143.08 202.60 C 141.20 202.55 139.39 201.96 137.92 200.78 Z" />
</g>
<g id="#e7bc2aff">
<path fill="#e7bc2a" opacity="1.00" d=" M 125.16 11.35 C 134.90 8.81 144.87 6.59 155.00 7.00 C 165.13 6.60 175.10 8.81 184.84 11.35 C 210.51 19.45 232.30 38.80 243.63 63.19 C 255.41 89.09 255.42 119.92 243.63 145.82 C 232.30 170.23 210.48 189.50 184.83 197.65 C 169.65 202.14 153.57 203.26 137.92 200.78 C 106.99 195.55 79.49 174.25 66.37 145.82 C 54.58 119.91 54.59 89.10 66.36 63.19 C 77.69 38.78 99.50 19.49 125.16 11.35 M 111.29 21.16 C 110.29 21.80 109.34 22.51 108.43 23.29 C 104.95 24.54 102.06 26.97 99.06 29.05 C 92.64 33.98 86.29 39.30 81.76 46.09 C 80.56 46.23 80.13 47.63 79.37 48.40 C 74.51 54.89 70.72 62.12 67.55 69.57 C 66.82 71.30 66.18 73.14 66.49 75.05 C 65.17 76.06 64.68 77.67 64.27 79.21 C 59.72 95.66 59.72 113.34 64.27 129.79 C 64.68 131.33 65.17 132.93 66.49 133.95 C 66.06 137.18 67.92 140.06 69.10 142.93 C 72.83 150.64 76.76 158.62 83.12 164.53 C 86.38 169.77 91.52 173.75 96.22 177.73 C 100.08 180.66 103.89 183.91 108.44 185.71 C 111.78 188.71 116.10 190.16 120.15 191.91 C 145.26 202.16 174.79 200.59 198.71 187.83 C 199.71 187.19 200.66 186.48 201.57 185.71 C 209.19 182.18 215.64 176.44 221.70 170.70 C 223.48 168.71 225.82 167.03 226.89 164.53 C 233.23 158.60 237.18 150.65 240.90 142.93 C 242.07 140.06 243.93 137.18 243.51 133.95 C 244.56 133.09 245.17 131.88 245.50 130.58 C 250.36 113.65 250.36 95.35 245.50 78.42 C 245.17 77.11 244.57 75.89 243.51 75.05 C 243.88 72.87 242.96 70.82 242.15 68.86 C 238.64 60.84 234.50 52.98 228.87 46.23 L 228.24 46.09 C 223.71 39.30 217.34 34.00 210.94 29.05 C 207.94 26.96 205.05 24.54 201.57 23.29 C 198.43 20.45 194.39 19.03 190.57 17.38 C 165.31 6.82 135.44 8.27 111.29 21.16 Z" />
<path fill="#e7bc2a" opacity="1.00" d=" M 142.35 12.17 C 145.34 10.66 142.50 15.47 142.35 12.17 Z" />
<path fill="#e7bc2a" opacity="1.00" d=" M 133.96 19.10 C 139.77 15.14 146.30 11.49 153.57 11.75 C 148.55 20.37 138.80 25.84 128.84 25.75 C 130.42 23.44 132.10 21.19 133.96 19.10 Z" />
<path fill="#e7bc2a" opacity="1.00" d=" M 156.43 11.75 C 163.70 11.49 170.22 15.15 176.04 19.10 C 177.91 21.18 179.56 23.45 181.14 25.76 C 171.20 25.81 161.43 20.37 156.43 11.75 Z" />
<path fill="#e7bc2a" opacity="1.00" d=" M 166.21 12.18 C 169.19 10.62 166.37 15.48 166.21 12.18 Z" />
<path fill="#e7bc2a" opacity="1.00" d=" M 154.28 13.11 C 154.64 13.11 155.36 13.11 155.72 13.11 C 159.46 21.51 159.46 31.50 155.72 39.89 C 155.35 39.90 154.63 39.91 154.27 39.92 C 150.55 31.51 150.50 21.51 154.28 13.11 Z" />
<path fill="#e7bc2a" opacity="1.00" d=" M 151.18 16.22 C 151.70 16.75 151.70 16.75 151.18 16.22 Z" />
<path fill="#e7bc2a" opacity="1.00" d=" M 158.35 16.23 C 158.87 16.75 158.87 16.75 158.35 16.23 Z" />
<path fill="#e7bc2a" opacity="1.00" d=" M 135.74 26.95 C 133.57 28.48 134.43 24.20 136.02 26.23 L 135.74 26.95 Z" />
<path fill="#e7bc2a" opacity="1.00" d=" M 173.99 26.23 C 175.55 24.20 176.45 28.46 174.27 26.95 L 173.99 26.23 Z" />
<path fill="#e7bc2a" opacity="1.00" d=" M 123.14 26.65 C 124.40 26.78 125.65 26.91 126.90 27.06 C 125.89 28.80 124.91 30.55 123.89 32.28 C 122.74 33.26 121.57 34.21 120.43 35.20 C 114.91 38.47 108.94 41.56 102.32 41.29 C 106.57 33.34 115.04 29.47 123.14 26.65 Z" />
<path fill="#e7bc2a" opacity="1.00" d=" M 129.10 26.85 C 138.91 27.66 148.66 32.51 153.61 41.30 C 146.27 41.60 139.80 37.84 133.94 33.88 C 133.21 33.37 132.48 32.85 131.76 32.34 C 130.93 30.48 130.04 28.65 129.10 26.85 Z" />
<path fill="#e7bc2a" opacity="1.00" d=" M 156.41 41.28 C 161.38 32.57 171.17 27.37 181.06 26.93 C 180.02 28.68 179.01 30.45 177.83 32.10 C 177.23 32.70 176.64 33.30 176.04 33.89 C 170.21 37.86 163.73 41.65 156.41 41.28 Z" />
<path fill="#e7bc2a" opacity="1.00" d=" M 182.97 26.91 C 192.81 27.42 202.74 32.52 207.62 41.29 C 201.03 41.59 195.07 38.46 189.61 35.16 C 188.47 34.14 187.31 33.15 186.19 32.11 C 185.04 30.43 184.02 28.66 182.97 26.91 Z" />
<path fill="#e7bc2a" opacity="1.00" d=" M 124.87 33.75 C 125.86 31.96 126.86 30.18 127.85 28.38 C 128.92 29.99 130.00 31.61 131.23 33.10 C 131.39 39.00 131.52 44.89 131.24 50.79 C 129.32 53.25 128.10 57.74 124.15 56.98 C 115.32 55.82 106.80 50.74 102.36 42.90 C 105.25 43.02 108.14 43.32 110.95 44.03 C 115.97 45.70 120.01 49.20 124.34 52.09 C 123.89 45.96 123.40 39.82 124.87 33.75 Z" />
<path fill="#e7bc2a" opacity="1.00" d=" M 178.83 33.72 C 179.86 31.88 180.95 30.08 182.04 28.28 C 183.09 30.08 184.16 31.88 185.13 33.73 C 185.32 36.74 185.65 39.76 185.63 42.78 C 185.58 47.50 183.86 51.96 182.84 56.51 C 184.30 54.90 185.64 53.19 187.02 51.52 C 190.49 48.32 194.51 45.65 198.98 44.08 C 201.75 43.19 204.67 42.96 207.57 42.91 C 206.54 44.71 205.47 46.49 204.20 48.12 C 203.98 48.38 203.53 48.89 203.31 49.14 C 197.90 53.07 191.79 56.70 184.95 57.00 C 181.23 57.13 180.47 52.76 178.86 50.27 C 178.43 44.76 178.48 39.23 178.83 33.72 Z" />
<path fill="#e7bc2a" opacity="1.00" d=" M 123.89 32.28 C 123.98 32.41 124.15 32.67 124.24 32.80 C 124.15 32.67 123.98 32.41 123.89 32.28 Z" />
<path fill="#e7bc2a" opacity="1.00" d=" M 131.49 32.72 C 131.56 32.63 131.69 32.44 131.76 32.34 C 131.69 32.44 131.56 32.63 131.49 32.72 Z" />
<path fill="#e7bc2a" opacity="1.00" d=" M 177.83 32.10 C 177.92 32.25 178.10 32.54 178.19 32.69 C 178.10 32.54 177.92 32.25 177.83 32.10 Z" />
<path fill="#e7bc2a" opacity="1.00" d=" M 185.82 32.69 C 185.91 32.55 186.10 32.25 186.19 32.11 C 186.10 32.25 185.91 32.55 185.82 32.69 Z" />
<path fill="#e7bc2a" opacity="1.00" d=" M 151.18 36.31 C 151.70 36.83 151.70 36.83 151.18 36.31 Z" />
<path fill="#e7bc2a" opacity="1.00" d=" M 158.35 36.30 C 158.86 36.82 158.86 36.82 158.35 36.30 Z" />
<path fill="#e7bc2a" opacity="1.00" d=" M 84.63 46.80 C 89.36 44.71 94.31 42.75 99.57 42.90 C 94.59 51.52 84.80 56.99 74.89 57.06 C 77.28 53.20 80.64 50.13 84.10 47.25 L 84.63 46.80 Z" />
<path fill="#e7bc2a" opacity="1.00" d=" M 134.61 49.79 C 140.30 46.07 146.57 42.60 153.61 42.87 C 148.76 51.56 138.99 56.75 129.20 57.15 C 130.13 55.35 130.99 53.51 131.78 51.64 C 132.72 51.02 133.67 50.42 134.61 49.79 Z" />
<path fill="#e7bc2a" opacity="1.00" d=" M 156.41 42.91 C 163.44 42.52 169.71 46.10 175.38 49.80 C 176.18 50.48 177.00 51.16 177.80 51.86 C 178.90 53.56 179.89 55.32 180.96 57.05 C 171.14 56.99 161.27 51.50 156.41 42.91 Z" />
<path fill="#e7bc2a" opacity="1.00" d=" M 210.43 42.90 C 215.69 42.75 220.64 44.71 225.37 46.79 L 225.89 47.24 C 229.35 50.13 232.71 53.20 235.11 57.06 C 225.21 56.96 215.40 51.53 210.43 42.90 Z" />
<path fill="#e7bc2a" opacity="1.00" d=" M 100.24 44.12 C 100.59 44.17 101.28 44.27 101.63 44.32 C 105.45 52.88 105.75 63.53 100.99 71.79 C 99.82 69.83 98.74 67.79 98.10 65.59 C 97.28 62.15 96.23 58.66 96.60 55.08 C 98.17 51.54 98.79 47.69 100.24 44.12 Z" />
<path fill="#e7bc2a" opacity="1.00" d=" M 153.14 47.16 C 153.76 45.95 153.73 43.50 155.69 44.18 C 159.39 52.81 159.92 63.56 155.00 71.81 C 150.52 64.51 150.72 55.13 153.14 47.16 Z" />
<path fill="#e7bc2a" opacity="1.00" d=" M 208.37 44.27 C 208.71 44.23 209.40 44.16 209.74 44.12 C 211.22 47.71 211.84 51.59 213.42 55.15 C 213.76 58.71 212.71 62.17 211.90 65.60 C 211.26 67.80 210.18 69.83 209.00 71.79 C 204.22 63.53 204.55 52.83 208.37 44.27 Z" />
<path fill="#e7bc2a" opacity="1.00" d=" M 131.52 51.24 C 131.59 51.34 131.72 51.54 131.78 51.64 C 131.72 51.54 131.59 51.34 131.52 51.24 Z" />
<path fill="#e7bc2a" opacity="1.00" d=" M 177.80 51.86 C 177.89 51.72 178.08 51.43 178.17 51.28 C 178.08 51.43 177.89 51.72 177.80 51.86 Z" />
<path fill="#e7bc2a" opacity="1.00" d=" M 74.85 58.00 C 81.77 58.55 88.26 61.26 93.97 65.13 C 94.61 65.83 95.24 66.53 95.89 67.22 C 97.52 68.99 98.88 70.98 100.12 73.04 C 95.86 72.46 91.66 71.45 87.55 70.19 C 85.46 68.75 83.35 67.34 81.24 65.93 C 78.80 63.56 76.56 60.95 74.85 58.00 Z" />
<path fill="#e7bc2a" opacity="1.00" d=" M 109.63 63.79 C 115.00 60.67 120.92 58.54 127.13 57.98 C 125.64 60.45 123.88 62.76 121.93 64.88 C 121.69 65.14 121.20 65.64 120.96 65.89 C 115.27 69.80 108.76 72.44 101.84 73.01 C 103.52 70.06 105.78 67.51 108.18 65.14 C 108.54 64.80 109.27 64.13 109.63 63.79 Z" />
<path fill="#e7bc2a" opacity="1.00" d=" M 128.85 57.98 C 135.04 58.55 140.96 60.66 146.30 63.80 C 146.68 64.14 147.43 64.82 147.80 65.15 C 150.23 67.50 152.44 70.09 154.14 73.02 C 147.92 72.46 142.01 70.31 136.63 67.19 C 136.27 66.86 135.55 66.19 135.18 65.86 C 132.77 63.49 130.53 60.92 128.85 57.98 Z" />
<path fill="#e7bc2a" opacity="1.00" d=" M 163.68 63.80 C 169.03 60.66 174.95 58.54 181.15 57.99 C 179.46 60.92 177.23 63.49 174.82 65.86 C 174.45 66.19 173.72 66.86 173.35 67.20 C 167.98 70.31 162.07 72.46 155.85 73.02 C 157.56 70.09 159.77 67.50 162.20 65.15 C 162.57 64.81 163.31 64.14 163.68 63.80 Z" />
<path fill="#e7bc2a" opacity="1.00" d=" M 182.87 57.97 C 187.11 58.57 191.31 59.49 195.39 60.81 C 197.53 62.20 199.64 63.64 201.76 65.08 C 204.20 67.45 206.45 70.05 208.16 73.01 C 201.95 72.47 196.06 70.26 190.68 67.18 C 189.85 66.41 189.02 65.64 188.18 64.88 C 186.10 62.84 184.34 60.48 182.87 57.97 Z" />
<path fill="#e7bc2a" opacity="1.00" d=" M 216.02 65.13 C 221.72 61.23 228.23 58.55 235.16 58.00 C 230.06 67.05 220.05 72.26 209.88 73.02 C 211.14 70.99 212.50 69.01 214.11 67.24 C 214.75 66.54 215.39 65.84 216.02 65.13 Z" />
<path fill="#e7bc2a" opacity="1.00" d=" M 73.41 87.29 C 69.53 78.46 68.73 67.65 73.97 59.20 C 77.25 64.47 77.78 70.93 77.26 76.98 C 76.85 80.62 76.22 84.65 73.41 87.29 Z" />
<path fill="#e7bc2a" opacity="1.00" d=" M 127.29 86.82 C 123.52 78.16 122.94 67.46 128.00 59.19 C 132.40 66.51 132.38 75.83 129.83 83.79 C 129.20 85.00 129.28 87.52 127.29 86.82 Z" />
<path fill="#e7bc2a" opacity="1.00" d=" M 177.64 71.17 C 179.33 67.25 179.53 62.77 182.01 59.19 C 184.47 62.72 184.71 67.15 186.35 71.04 C 186.44 72.64 186.47 74.24 186.38 75.84 C 184.84 79.39 184.24 83.25 182.73 86.81 C 182.37 86.82 181.66 86.83 181.31 86.83 C 179.63 83.02 179.18 78.81 177.62 74.94 C 177.57 73.69 177.57 72.43 177.64 71.17 Z" />
<path fill="#e7bc2a" opacity="1.00" d=" M 235.38 86.68 C 231.57 78.12 231.28 67.46 236.02 59.20 C 240.54 66.52 240.67 75.88 237.88 83.86 C 237.26 85.03 237.32 87.66 235.38 86.68 Z" />
<path fill="#e7bc2a" opacity="1.00" d=" M 232.15 63.24 C 232.68 63.77 232.68 63.77 232.15 63.24 Z" />
<path fill="#e7bc2a" opacity="1.00" d=" M 79.65 81.86 C 85.45 77.63 92.12 73.76 99.55 73.99 C 98.46 75.94 97.38 77.94 95.80 79.55 C 92.41 82.77 88.39 85.25 84.04 86.95 C 81.11 87.82 78.06 88.03 75.03 88.09 C 76.14 86.47 77.21 84.82 78.33 83.21 C 78.66 82.87 79.32 82.20 79.65 81.86 Z" />
<path fill="#e7bc2a" opacity="1.00" d=" M 100.44 75.47 C 102.00 74.36 103.92 73.65 105.85 74.11 C 114.26 75.62 122.35 80.54 126.58 88.10 C 121.30 88.33 116.34 86.28 111.65 84.13 C 109.58 82.34 107.49 80.46 104.91 79.46 L 104.59 79.33 L 104.55 79.73 L 104.48 80.47 C 104.11 86.27 104.36 92.10 104.26 97.91 C 102.99 99.41 101.89 101.03 100.78 102.65 C 99.85 100.82 98.91 98.99 98.08 97.10 C 96.79 89.88 96.98 82.08 100.44 75.47 Z" />
<path fill="#e7bc2a" opacity="1.00" d=" M 137.16 78.97 C 142.43 76.43 147.93 73.70 153.95 73.96 C 152.90 75.62 151.91 77.33 150.80 78.97 C 146.96 82.21 142.81 85.27 138.02 86.93 C 135.22 87.80 132.29 88.05 129.38 88.07 C 131.16 84.82 134.09 82.47 136.42 79.64 C 136.60 79.47 136.98 79.14 137.16 78.97 Z" />
<path fill="#e7bc2a" opacity="1.00" d=" M 154.56 75.58 C 155.69 73.86 157.99 73.84 159.81 74.11 C 168.24 75.60 176.38 80.48 180.60 88.08 C 177.69 88.04 174.76 87.80 171.97 86.93 C 167.50 85.35 163.49 82.67 160.01 79.48 C 158.63 77.81 157.29 76.11 155.83 74.51 C 158.05 81.36 158.93 88.52 158.47 95.71 C 158.42 96.21 158.33 97.21 158.28 97.72 C 157.16 99.32 156.06 100.94 155.00 102.58 C 153.93 100.94 152.84 99.33 151.73 97.72 C 151.70 97.22 151.63 96.21 151.59 95.70 C 151.52 88.95 150.89 81.60 154.56 75.58 Z" />
<path fill="#e7bc2a" opacity="1.00" d=" M 183.40 88.12 C 188.28 79.50 197.95 74.25 207.74 73.84 C 206.87 75.66 206.04 77.50 205.33 79.39 C 205.09 79.53 204.61 79.80 204.37 79.94 C 197.91 83.81 191.37 88.61 183.40 88.12 Z" />
<path fill="#e7bc2a" opacity="1.00" d=" M 205.90 80.23 C 207.60 77.94 208.49 73.88 211.98 74.00 C 218.89 74.22 224.95 78.06 230.46 81.89 C 230.67 82.15 231.10 82.68 231.31 82.95 C 232.46 84.63 233.51 86.38 234.54 88.14 C 231.75 87.95 228.97 87.66 226.26 86.96 C 221.11 85.39 217.02 81.79 212.61 78.89 C 212.53 83.13 213.99 87.30 213.24 91.53 C 212.91 93.63 212.53 95.73 212.14 97.82 C 211.10 99.40 210.05 100.98 209.04 102.58 C 207.99 100.96 206.90 99.37 205.80 97.78 C 204.02 92.01 204.81 86.05 205.90 80.23 Z" />
<path fill="#e7bc2a" opacity="1.00" d=" M 150.80 78.97 C 150.80 79.12 150.80 79.42 150.80 79.57 L 150.80 78.97 Z" />
<path fill="#e7bc2a" opacity="1.00" d=" M 205.33 79.39 C 205.40 79.49 205.53 79.69 205.60 79.79 C 205.53 79.69 205.40 79.49 205.33 79.39 Z" />
<path fill="#e7bc2a" opacity="1.00" d=" M 75.36 89.72 C 78.25 89.85 81.20 89.96 83.96 90.96 C 88.38 92.44 92.38 95.02 95.81 98.16 C 97.36 100.02 98.72 102.02 100.07 104.03 C 97.43 103.77 94.79 103.46 92.16 103.15 L 91.50 103.05 C 85.23 99.94 78.72 96.14 75.36 89.72 Z" />
<path fill="#e7bc2a" opacity="1.00" d=" M 108.06 96.31 C 113.53 92.59 119.76 89.41 126.57 89.72 C 123.02 96.23 116.49 100.24 109.89 103.15 C 107.28 103.44 104.67 103.76 102.07 104.07 C 103.04 102.30 103.94 100.50 104.78 98.67 C 105.88 97.89 106.99 97.12 108.06 96.31 Z" />
<path fill="#e7bc2a" opacity="1.00" d=" M 129.38 89.69 C 133.41 89.76 137.39 90.60 141.19 91.95 C 144.65 94.08 147.81 96.65 151.35 98.65 C 152.08 100.50 152.93 102.31 153.82 104.09 C 151.26 103.76 148.71 103.44 146.15 103.14 C 139.54 100.25 132.83 96.29 129.38 89.69 Z" />
<path fill="#e7bc2a" opacity="1.00" d=" M 160.97 97.17 C 166.78 93.15 173.26 89.32 180.61 89.70 C 177.16 96.30 170.45 100.22 163.87 103.15 C 161.30 103.44 158.74 103.76 156.18 104.09 C 157.06 102.30 157.92 100.50 158.64 98.65 C 159.42 98.17 160.20 97.68 160.97 97.17 Z" />
<path fill="#e7bc2a" opacity="1.00" d=" M 183.41 89.71 C 190.25 89.44 196.44 92.64 202.00 96.26 C 203.05 97.09 204.12 97.88 205.21 98.67 C 206.04 100.50 206.95 102.30 207.93 104.06 C 205.32 103.76 202.71 103.47 200.10 103.20 C 193.52 100.21 187.01 96.23 183.41 89.71 Z" />
<path fill="#e7bc2a" opacity="1.00" d=" M 226.12 90.87 C 228.91 90.14 231.80 89.88 234.68 89.70 C 231.10 96.30 224.46 100.24 217.83 103.20 C 215.27 103.47 212.72 103.77 210.17 104.07 C 211.10 102.30 211.97 100.50 212.78 98.66 C 217.15 95.95 221.11 92.43 226.12 90.87 Z" />
<path fill="#e7bc2a" opacity="1.00" d=" M 70.88 95.85 C 71.96 94.18 72.33 91.24 74.68 91.04 C 78.34 99.46 78.50 109.44 74.65 117.82 C 74.30 117.84 73.58 117.88 73.23 117.91 C 71.81 114.52 70.91 110.94 69.65 107.49 C 69.56 103.58 70.18 99.69 70.88 95.85 Z" />
<path fill="#e7bc2a" opacity="1.00" d=" M 127.25 91.06 C 127.62 91.06 128.37 91.05 128.75 91.05 C 130.22 94.73 130.94 98.65 132.31 102.37 C 132.37 103.79 132.37 105.21 132.31 106.63 C 130.94 110.34 130.22 114.26 128.75 117.94 C 128.37 117.94 127.62 117.94 127.25 117.93 C 123.44 109.48 123.45 99.51 127.25 91.06 Z" />
<path fill="#e7bc2a" opacity="1.00" d=" M 181.27 91.06 C 181.64 91.06 182.38 91.06 182.75 91.06 C 186.55 99.52 186.56 109.48 182.75 117.93 C 182.38 117.93 181.64 117.93 181.27 117.93 C 177.56 109.50 177.56 99.49 181.27 91.06 Z" />
<path fill="#e7bc2a" opacity="1.00" d=" M 235.33 91.15 C 235.69 91.14 236.41 91.12 236.77 91.10 C 238.20 94.48 239.08 98.06 240.32 101.51 C 240.41 103.50 240.41 105.49 240.33 107.48 C 239.08 110.93 238.20 114.51 236.77 117.89 C 236.41 117.88 235.69 117.86 235.33 117.85 C 233.72 113.99 232.92 109.86 231.82 105.84 C 231.79 104.95 231.79 104.05 231.82 103.16 C 232.92 99.14 233.71 95.01 235.33 91.15 Z" />
<path fill="#e7bc2a" opacity="1.00" d=" M 124.17 94.22 C 124.69 94.74 124.69 94.74 124.17 94.22 Z" />
<path fill="#e7bc2a" opacity="1.00" d=" M 185.35 94.22 C 185.87 94.74 185.87 94.74 185.35 94.22 Z" />
<path fill="#e7bc2a" opacity="1.00" d=" M 104.52 98.29 C 104.58 98.39 104.72 98.58 104.78 98.67 C 104.72 98.58 104.58 98.39 104.52 98.29 Z" />
<path fill="#e7bc2a" opacity="1.00" d=" M 151.35 98.65 C 151.40 98.55 151.48 98.33 151.53 98.23 C 151.48 98.33 151.40 98.55 151.35 98.65 Z" />
<path fill="#e7bc2a" opacity="1.00" d=" M 158.47 98.22 C 158.51 98.33 158.59 98.54 158.64 98.65 C 158.59 98.54 158.51 98.33 158.47 98.22 Z" />
<path fill="#e7bc2a" opacity="1.00" d=" M 205.21 98.67 C 205.28 98.56 205.43 98.35 205.50 98.24 C 205.43 98.35 205.28 98.56 205.21 98.67 Z" />
<path fill="#e7bc2a" opacity="1.00" d=" M 212.47 98.25 C 212.54 98.36 212.70 98.56 212.78 98.66 C 212.70 98.56 212.54 98.36 212.47 98.25 Z" />
<path fill="#e7bc2a" opacity="1.00" d=" M 93.23 104.33 C 94.76 102.61 95.79 105.77 93.55 105.26 L 93.23 104.33 Z" />
<path fill="#e7bc2a" opacity="1.00" d=" M 108.66 104.98 C 106.66 106.15 106.69 102.82 108.67 104.04 L 108.66 104.98 Z" />
<path fill="#e7bc2a" opacity="1.00" d=" M 147.32 103.99 C 149.36 102.87 149.23 106.22 147.29 104.93 L 147.32 103.99 Z" />
<path fill="#e7bc2a" opacity="1.00" d=" M 162.72 104.90 C 160.80 106.25 160.59 102.90 162.66 103.97 L 162.72 104.90 Z" />
<path fill="#e7bc2a" opacity="1.00" d=" M 201.23 104.33 C 202.77 102.63 203.78 105.77 201.54 105.26 L 201.23 104.33 Z" />
<path fill="#e7bc2a" opacity="1.00" d=" M 216.44 105.30 C 214.16 105.71 215.35 102.59 216.80 104.41 L 216.44 105.30 Z" />
<path fill="#e7bc2a" opacity="1.00" d=" M 92.12 105.69 C 94.77 105.53 97.41 105.25 100.05 104.98 C 98.70 106.98 97.35 108.98 95.81 110.84 C 92.38 113.98 88.40 116.57 83.98 118.05 C 81.21 119.03 78.25 119.15 75.35 119.28 C 78.70 112.81 85.28 109.15 91.46 105.86 L 92.12 105.69 Z" />
<path fill="#e7bc2a" opacity="1.00" d=" M 102.07 104.93 C 104.67 105.24 107.27 105.55 109.88 105.84 C 116.48 108.75 123.01 112.76 126.56 119.28 C 119.76 119.59 113.53 116.40 108.06 112.68 C 106.99 111.87 105.88 111.10 104.78 110.32 C 103.94 108.49 103.04 106.70 102.07 104.93 Z" />
<path fill="#e7bc2a" opacity="1.00" d=" M 146.17 105.99 C 148.75 105.56 151.34 105.21 153.94 104.92 C 152.93 106.71 151.94 108.52 150.92 110.30 C 149.74 111.25 148.55 112.18 147.38 113.14 C 141.97 116.55 135.96 119.58 129.38 119.30 C 132.86 112.78 139.46 108.62 146.17 105.99 Z" />
<path fill="#e7bc2a" opacity="1.00" d=" M 156.18 104.90 C 158.73 105.22 161.28 105.57 163.83 105.99 C 170.54 108.62 177.15 112.78 180.61 119.31 C 176.58 119.24 172.60 118.40 168.81 117.05 C 165.37 114.93 162.21 112.37 158.69 110.38 C 157.94 108.51 157.07 106.70 156.18 104.90 Z" />
<path fill="#e7bc2a" opacity="1.00" d=" M 200.09 105.66 C 202.71 105.53 205.32 105.25 207.92 104.95 C 206.95 106.71 206.05 108.50 205.21 110.32 C 204.13 111.12 203.05 111.91 202.00 112.74 C 196.43 116.35 190.25 119.56 183.41 119.29 C 186.98 112.69 193.62 108.90 200.09 105.66 Z" />
<path fill="#e7bc2a" opacity="1.00" d=" M 210.15 104.96 C 212.72 105.26 215.31 105.50 217.90 105.65 L 218.56 105.81 C 224.73 109.18 231.25 112.84 234.68 119.29 C 231.78 119.12 228.88 118.85 226.07 118.11 C 221.10 116.52 217.14 113.04 212.78 110.34 C 211.97 108.52 211.10 106.72 210.15 104.96 Z" />
<path fill="#e7bc2a" opacity="1.00" d=" M 98.08 111.90 C 98.91 110.01 99.85 108.17 100.79 106.33 C 101.89 107.95 102.99 109.58 104.25 111.08 C 104.30 116.82 104.53 122.56 104.18 128.30 C 103.14 130.19 102.01 132.05 100.88 133.89 C 96.79 127.38 96.84 119.24 98.08 111.90 Z" />
<path fill="#e7bc2a" opacity="1.00" d=" M 151.89 111.77 C 152.89 109.94 153.92 108.12 154.93 106.30 C 155.98 107.95 157.04 109.59 158.09 111.24 C 158.43 114.42 159.33 117.54 159.36 120.75 C 158.79 124.70 157.52 128.51 156.73 132.43 C 161.28 128.29 166.02 124.01 171.99 122.06 C 174.77 121.19 177.69 120.95 180.59 120.92 C 176.38 128.45 168.29 133.50 159.84 134.79 C 155.28 134.56 150.55 135.47 146.15 133.90 C 139.28 131.78 132.91 127.28 129.40 120.92 C 132.31 120.95 135.24 121.19 138.03 122.07 C 143.97 124.04 148.72 128.28 153.26 132.42 C 152.47 128.51 151.20 124.70 150.64 120.74 C 150.62 117.71 151.49 114.76 151.89 111.77 Z" />
<path fill="#e7bc2a" opacity="1.00" d=" M 205.76 111.09 C 206.98 109.63 208.04 108.04 209.08 106.45 C 210.08 108.07 211.13 109.67 212.20 111.25 C 213.06 119.01 212.81 127.00 209.56 134.23 C 208.31 132.39 207.04 130.58 205.75 128.78 C 205.49 122.88 205.63 116.99 205.76 111.09 Z" />
<path fill="#e7bc2a" opacity="1.00" d=" M 104.51 110.71 C 104.58 110.62 104.72 110.42 104.78 110.32 C 104.72 110.42 104.58 110.62 104.51 110.71 Z" />
<path fill="#e7bc2a" opacity="1.00" d=" M 150.92 110.30 C 151.00 110.43 151.17 110.69 151.26 110.82 C 151.17 110.69 151.00 110.43 150.92 110.30 Z" />
<path fill="#e7bc2a" opacity="1.00" d=" M 158.41 110.79 C 158.48 110.69 158.62 110.48 158.69 110.38 C 158.62 110.48 158.48 110.69 158.41 110.79 Z" />
<path fill="#e7bc2a" opacity="1.00" d=" M 205.21 110.32 C 205.28 110.42 205.42 110.61 205.49 110.71 C 205.42 110.61 205.28 110.42 205.21 110.32 Z" />
<path fill="#e7bc2a" opacity="1.00" d=" M 212.50 110.77 C 212.57 110.67 212.71 110.45 212.78 110.34 C 212.71 110.45 212.57 110.67 212.50 110.77 Z" />
<path fill="#e7bc2a" opacity="1.00" d=" M 124.17 114.31 C 124.68 114.84 124.68 114.84 124.17 114.31 Z" />
<path fill="#e7bc2a" opacity="1.00" d=" M 185.35 114.31 C 185.87 114.83 185.87 114.83 185.35 114.31 Z" />
<path fill="#e7bc2a" opacity="1.00" d=" M 74.99 120.93 C 78.03 120.95 81.10 121.17 84.03 122.06 C 88.39 123.75 92.45 126.20 95.81 129.47 C 97.37 131.20 98.65 133.14 100.02 135.02 C 92.46 135.24 85.22 131.70 79.68 126.75 C 79.57 126.64 79.35 126.44 79.25 126.33 C 77.66 124.67 76.32 122.79 74.99 120.93 Z" />
<path fill="#e7bc2a" opacity="1.00" d=" M 111.63 124.77 C 116.40 122.82 121.29 120.61 126.58 120.91 C 121.67 129.46 111.89 135.01 102.05 135.05 C 103.11 133.31 104.11 131.53 105.16 129.79 C 105.85 129.29 106.56 128.83 107.28 128.38 C 108.96 127.84 110.37 126.75 111.16 125.15 L 111.63 124.77 Z" />
<path fill="#e7bc2a" opacity="1.00" d=" M 183.40 120.87 C 188.67 120.76 193.60 122.76 198.39 124.73 L 198.89 125.08 C 199.62 126.70 200.98 127.88 202.67 128.41 C 203.52 128.80 204.37 129.21 205.22 129.63 C 206.00 131.50 206.87 133.35 207.82 135.15 C 198.00 134.78 188.29 129.51 183.40 120.87 Z" />
<path fill="#e7bc2a" opacity="1.00" d=" M 226.46 121.78 C 229.17 121.36 231.90 121.09 234.64 120.94 C 229.76 129.43 220.15 134.89 210.40 135.02 C 213.57 128.79 219.76 125.08 225.71 121.90 L 226.46 121.78 Z" />
<path fill="#e7bc2a" opacity="1.00" d=" M 73.40 121.70 C 76.21 124.34 76.86 128.37 77.27 132.03 C 77.78 138.07 77.24 144.53 73.98 149.80 C 68.72 141.35 69.54 130.53 73.40 121.70 Z" />
<path fill="#e7bc2a" opacity="1.00" d=" M 126.13 125.16 C 126.74 123.94 126.71 121.52 128.67 122.16 C 132.35 130.81 132.90 141.54 127.99 149.81 C 123.51 142.48 123.48 133.14 126.13 125.16 Z" />
<path fill="#e7bc2a" opacity="1.00" d=" M 181.32 122.17 C 181.67 122.17 182.36 122.19 182.71 122.19 C 186.42 130.81 186.94 141.57 182.00 149.81 C 177.09 141.54 177.65 130.81 181.32 122.17 Z" />
<path fill="#e7bc2a" opacity="1.00" d=" M 235.38 122.32 C 235.72 122.27 236.40 122.18 236.74 122.13 C 240.55 130.83 241.15 141.50 236.02 149.80 C 231.28 141.54 231.57 130.88 235.38 122.32 Z" />
<path fill="#e7bc2a" opacity="1.00" d=" M 104.82 129.27 C 104.90 129.40 105.07 129.66 105.16 129.79 C 105.07 129.66 104.90 129.40 104.82 129.27 Z" />
<path fill="#e7bc2a" opacity="1.00" d=" M 205.22 129.63 C 205.29 129.52 205.42 129.32 205.48 129.21 C 205.42 129.32 205.29 129.52 205.22 129.63 Z" />
<path fill="#e7bc2a" opacity="1.00" d=" M 74.84 150.96 C 79.98 141.95 89.95 136.72 100.12 135.97 C 98.84 138.00 97.50 140.00 95.89 141.79 C 95.24 142.50 94.58 143.21 93.91 143.92 C 91.14 145.69 88.32 147.38 85.50 149.06 C 84.26 149.38 83.01 149.64 81.76 149.89 C 79.46 150.30 77.15 150.66 74.84 150.96 Z" />
<path fill="#e7bc2a" opacity="1.00" d=" M 101.79 135.99 C 108.77 136.53 115.30 139.29 121.06 143.16 C 121.35 143.47 121.91 144.10 122.19 144.41 C 124.01 146.49 125.65 148.71 127.17 151.02 C 120.93 150.47 115.03 148.24 109.56 145.26 C 109.21 144.90 108.51 144.19 108.16 143.83 C 105.80 141.42 103.58 138.86 101.79 135.99 Z" />
<path fill="#e7bc2a" opacity="1.00" d=" M 136.62 141.80 C 142.01 138.69 147.92 136.54 154.14 135.98 C 152.41 138.84 150.32 141.49 147.90 143.80 C 142.36 147.94 135.72 150.40 128.84 151.01 C 130.53 148.07 132.78 145.51 135.18 143.14 C 135.54 142.81 136.26 142.14 136.62 141.80 Z" />
<path fill="#e7bc2a" opacity="1.00" d=" M 155.86 135.99 C 162.08 136.53 167.99 138.69 173.37 141.80 C 173.73 142.14 174.46 142.81 174.82 143.15 C 177.22 145.51 179.46 148.08 181.15 151.01 C 174.95 150.45 169.04 148.33 163.69 145.20 C 163.32 144.86 162.57 144.19 162.19 143.85 C 159.77 141.49 157.56 138.91 155.86 135.99 Z" />
<path fill="#e7bc2a" opacity="1.00" d=" M 182.87 151.02 C 187.88 141.92 198.04 136.79 208.16 135.99 C 206.48 138.93 204.22 141.48 201.82 143.86 C 201.46 144.19 200.74 144.87 200.38 145.20 C 195.00 148.32 189.09 150.45 182.87 151.02 Z" />
<path fill="#e7bc2a" opacity="1.00" d=" M 209.89 135.96 C 214.15 136.53 218.34 137.55 222.45 138.81 C 224.54 140.25 226.65 141.66 228.77 143.07 C 231.19 145.43 233.40 148.03 235.15 150.93 C 232.83 150.67 230.50 150.38 228.21 149.92 C 222.87 148.58 218.07 145.62 214.11 141.84 C 212.43 140.09 211.13 138.03 209.89 135.96 Z" />
<path fill="#e7bc2a" opacity="1.00" d=" M 98.10 143.40 C 98.74 141.19 99.82 139.16 100.99 137.20 C 105.77 145.46 105.44 156.16 101.63 164.73 C 101.29 164.76 100.60 164.83 100.26 164.86 C 98.77 161.28 98.15 157.41 96.58 153.86 C 96.24 150.29 97.29 146.82 98.10 143.40 Z" />
<path fill="#e7bc2a" opacity="1.00" d=" M 154.31 164.81 C 150.60 156.19 150.08 145.42 155.01 137.18 C 157.37 140.73 157.94 145.03 158.99 149.07 C 158.58 154.43 157.89 159.88 155.69 164.84 C 155.35 164.83 154.65 164.81 154.31 164.81 Z" />
<path fill="#e7bc2a" opacity="1.00" d=" M 208.37 164.69 C 204.55 156.13 204.25 145.46 209.01 137.21 C 210.18 139.16 211.26 141.20 211.90 143.40 C 212.72 146.84 213.77 150.33 213.40 153.92 C 211.82 157.45 211.22 161.30 209.75 164.87 C 209.40 164.82 208.72 164.73 208.37 164.69 Z" />
<path fill="#e7bc2a" opacity="1.00" d=" M 77.37 145.28 C 77.90 145.81 77.90 145.81 77.37 145.28 Z" />
<path fill="#e7bc2a" opacity="1.00" d=" M 74.88 151.94 C 84.78 152.04 94.60 157.48 99.58 166.10 C 94.32 166.23 89.37 164.30 84.64 162.22 L 84.07 161.72 C 80.64 158.83 77.28 155.78 74.88 151.94 Z" />
<path fill="#e7bc2a" opacity="1.00" d=" M 120.71 152.64 C 122.87 152.18 125.36 151.42 127.42 152.56 C 128.89 154.29 129.96 156.33 131.23 158.21 C 131.46 163.84 131.63 169.50 131.03 175.12 C 130.08 177.00 129.06 178.85 128.04 180.70 C 126.95 178.95 125.86 177.20 124.78 175.45 C 124.63 170.67 123.87 165.83 124.97 161.11 C 125.45 158.35 126.62 155.74 126.91 152.95 C 125.33 154.20 124.30 155.99 122.97 157.48 C 119.49 160.71 115.43 163.35 110.96 164.96 C 108.20 165.63 105.38 165.95 102.55 166.18 C 103.43 164.52 104.34 162.87 105.24 161.23 C 105.57 160.85 106.22 160.09 106.55 159.71 C 111.02 156.92 115.49 153.85 120.71 152.64 Z" />
<path fill="#e7bc2a" opacity="1.00" d=" M 129.20 151.85 C 138.98 152.24 148.73 157.47 153.61 166.11 C 150.72 165.97 147.83 165.67 145.02 164.98 C 140.09 163.42 136.25 159.81 131.79 157.35 C 130.99 155.48 130.13 153.65 129.20 151.85 Z" />
<path fill="#e7bc2a" opacity="1.00" d=" M 156.39 166.11 C 161.25 157.44 171.00 152.23 180.80 151.85 C 179.86 153.65 179.00 155.48 178.21 157.35 C 173.74 159.81 169.91 163.41 164.98 164.99 C 162.16 165.67 159.28 165.97 156.39 166.11 Z" />
<path fill="#e7bc2a" opacity="1.00" d=" M 182.58 152.55 C 184.13 151.62 186.04 152.02 187.73 152.27 C 195.82 153.98 203.53 158.77 207.63 166.10 C 204.74 165.97 201.86 165.67 199.05 164.96 C 194.57 163.35 190.51 160.71 187.03 157.48 C 185.68 155.99 184.66 154.18 183.07 152.93 C 183.39 155.73 184.55 158.35 185.03 161.11 C 186.13 165.83 185.37 170.67 185.22 175.44 C 184.17 177.15 183.12 178.85 182.10 180.57 C 181.04 178.98 179.98 177.38 178.76 175.91 C 178.62 170.01 178.47 164.11 178.77 158.21 C 180.05 156.33 181.13 154.30 182.58 152.55 Z" />
<path fill="#e7bc2a" opacity="1.00" d=" M 210.42 166.10 C 215.40 157.48 225.19 151.99 235.11 151.94 C 232.71 155.78 229.35 158.83 225.92 161.73 L 225.35 162.22 C 220.62 164.29 215.68 166.23 210.42 166.10 Z" />
<path fill="#e7bc2a" opacity="1.00" d=" M 131.52 157.76 C 131.59 157.65 131.72 157.45 131.79 157.35 C 131.72 157.45 131.59 157.65 131.52 157.76 Z" />
<path fill="#e7bc2a" opacity="1.00" d=" M 178.21 157.35 C 178.28 157.45 178.41 157.66 178.48 157.76 C 178.41 157.66 178.28 157.45 178.21 157.35 Z" />
<path fill="#e7bc2a" opacity="1.00" d=" M 102.33 167.71 C 108.95 167.44 114.90 170.56 120.44 173.80 C 121.57 174.80 122.73 175.78 123.88 176.78 C 124.92 178.50 125.91 180.24 126.93 181.97 C 125.68 182.06 124.43 182.15 123.19 182.21 C 114.98 179.68 106.59 175.59 102.33 167.71 Z" />
<path fill="#e7bc2a" opacity="1.00" d=" M 134.94 174.17 C 140.63 170.77 146.74 167.41 153.60 167.71 C 149.94 174.18 143.52 178.41 136.75 181.08 C 134.14 181.49 131.51 181.80 128.88 182.03 C 130.23 180.04 131.63 178.08 133.17 176.21 C 133.74 175.52 134.33 174.83 134.94 174.17 Z" />
<path fill="#e7bc2a" opacity="1.00" d=" M 156.38 167.68 C 163.72 167.40 170.20 171.15 176.07 175.12 C 176.79 175.63 177.51 176.15 178.23 176.66 C 179.05 178.50 179.93 180.31 180.89 182.08 C 178.34 181.78 175.79 181.47 173.26 181.08 C 166.51 178.37 159.93 174.25 156.38 167.68 Z" />
<path fill="#e7bc2a" opacity="1.00" d=" M 189.56 173.80 C 195.08 170.53 201.05 167.44 207.67 167.71 C 203.41 175.60 195.02 179.67 186.82 182.22 C 185.57 182.15 184.32 182.07 183.07 181.97 C 184.09 180.24 185.08 178.49 186.12 176.78 C 187.26 175.78 188.42 174.80 189.56 173.80 Z" />
<path fill="#e7bc2a" opacity="1.00" d=" M 154.28 169.11 C 154.65 169.10 155.37 169.10 155.74 169.09 C 159.23 177.00 159.46 186.30 156.35 194.37 C 156.18 195.66 155.49 196.16 154.28 195.88 C 150.54 187.49 150.54 177.50 154.28 169.11 Z" />
<path fill="#e7bc2a" opacity="1.00" d=" M 151.17 172.22 C 151.69 172.74 151.69 172.74 151.17 172.22 Z" />
<path fill="#e7bc2a" opacity="1.00" d=" M 123.88 176.78 C 123.96 176.66 124.12 176.42 124.20 176.31 C 124.12 176.42 123.96 176.66 123.88 176.78 Z" />
<path fill="#e7bc2a" opacity="1.00" d=" M 178.23 176.66 C 178.30 176.57 178.43 176.38 178.50 176.28 C 178.43 176.38 178.30 176.57 178.23 176.66 Z" />
<path fill="#e7bc2a" opacity="1.00" d=" M 185.80 176.30 C 185.88 176.42 186.04 176.66 186.12 176.78 C 186.04 176.66 185.88 176.42 185.80 176.30 Z" />
<path fill="#e7bc2a" opacity="1.00" d=" M 134.33 182.05 C 134.75 182.10 135.61 182.19 136.03 182.24 L 135.75 183.03 C 135.35 182.96 134.55 182.82 134.15 182.75 L 134.33 182.05 Z" />
<path fill="#e7bc2a" opacity="1.00" d=" M 173.96 182.25 C 175.72 180.65 176.63 183.95 174.25 183.04 L 173.96 182.25 Z" />
<path fill="#e7bc2a" opacity="1.00" d=" M 128.99 182.88 C 138.82 183.55 148.57 188.50 153.56 197.23 C 150.37 197.09 147.17 196.77 144.09 195.89 C 140.61 194.08 137.25 192.02 133.96 189.88 C 133.04 188.91 132.15 187.92 131.25 186.94 C 130.46 185.61 129.73 184.24 128.99 182.88 Z" />
<path fill="#e7bc2a" opacity="1.00" d=" M 156.44 197.23 C 161.43 188.51 171.16 183.51 181.00 182.88 C 180.27 184.24 179.54 185.61 178.75 186.94 C 177.85 187.92 176.95 188.91 176.04 189.88 C 172.74 192.02 169.39 194.08 165.90 195.89 C 162.83 196.76 159.63 197.09 156.44 197.23 Z" />
<path fill="#e7bc2a" opacity="1.00" d=" M 151.17 192.29 C 151.69 192.81 151.69 192.81 151.17 192.29 Z" />
<path fill="#e7bc2a" opacity="1.00" d=" M 158.35 192.30 C 158.87 192.82 158.87 192.82 158.35 192.30 Z" />
<path fill="#e7bc2a" opacity="1.00" d=" M 142.49 195.96 C 142.89 195.94 143.69 195.91 144.09 195.89 C 143.84 196.20 143.32 196.81 143.06 197.12 L 142.37 196.74 L 142.49 195.96 Z" />
<path fill="#e7bc2a" opacity="1.00" d=" M 165.90 195.89 C 166.31 195.91 167.11 195.95 167.51 195.97 L 167.63 196.74 L 166.93 197.12 C 166.67 196.81 166.16 196.19 165.90 195.89 Z" />
</g>
<g id="#008500ff">
<path fill="#008500" opacity="1.00" d=" M 122.59 17.45 C 128.31 15.32 134.26 13.82 140.28 12.83 C 138.03 14.77 135.83 16.79 133.96 19.10 C 132.10 21.19 130.42 23.44 128.84 25.75 C 126.92 25.94 125.04 26.34 123.14 26.65 C 117.66 26.48 112.79 29.44 108.41 32.40 C 105.23 34.54 103.33 37.99 100.52 40.50 C 95.18 42.46 88.61 42.05 84.63 46.80 L 84.10 47.25 C 83.52 46.96 82.35 46.38 81.76 46.09 C 86.29 39.30 92.64 33.98 99.06 29.05 C 102.06 26.97 104.95 24.54 108.43 23.29 C 113.44 22.09 117.78 19.19 122.59 17.45 Z" />
<path fill="#008500" opacity="1.00" d=" M 169.69 12.83 C 177.98 14.21 186.20 16.45 193.72 20.25 C 196.22 21.54 198.85 22.55 201.57 23.29 C 205.05 24.54 207.94 26.96 210.94 29.05 C 217.34 34.00 223.71 39.30 228.24 46.09 C 227.65 46.38 226.48 46.95 225.89 47.24 L 225.37 46.79 C 221.41 42.01 214.80 42.55 209.48 40.50 C 207.32 38.64 205.82 36.14 203.74 34.20 C 197.63 28.62 189.40 25.64 181.14 25.76 C 179.56 23.45 177.91 21.18 176.04 19.10 C 174.15 16.79 171.94 14.77 169.69 12.83 Z" />
<path fill="#008500" opacity="1.00" d=" M 136.02 26.23 C 141.63 24.62 146.63 21.62 151.06 17.87 C 149.84 23.57 149.79 29.42 151.10 35.11 C 146.57 31.45 141.58 28.03 135.74 26.95 L 136.02 26.23 Z" />
<path fill="#008500" opacity="1.00" d=" M 158.93 17.87 C 163.35 21.64 168.41 24.55 173.99 26.23 L 174.27 26.95 C 168.43 28.04 163.43 31.44 158.91 35.11 C 160.20 29.42 160.16 23.57 158.93 17.87 Z" />
<path fill="#008500" opacity="1.00" d=" M 120.43 35.20 C 121.57 34.21 122.74 33.26 123.89 32.28 C 123.98 32.41 124.15 32.67 124.24 32.80 L 124.87 33.75 C 123.40 39.82 123.89 45.96 124.34 52.09 C 120.01 49.20 115.97 45.70 110.95 44.03 C 110.72 43.49 110.25 42.39 110.02 41.84 C 113.77 40.11 117.82 38.58 120.43 35.20 Z" />
<path fill="#008500" opacity="1.00" d=" M 131.76 32.34 C 132.48 32.85 133.21 33.37 133.94 33.88 C 136.74 38.28 141.82 39.95 146.26 42.14 C 142.02 44.08 137.35 45.76 134.61 49.79 C 133.67 50.42 132.72 51.02 131.78 51.64 C 131.72 51.54 131.59 51.34 131.52 51.24 L 131.24 50.79 C 133.50 45.13 133.41 38.77 131.23 33.10 L 131.49 32.72 C 131.56 32.63 131.69 32.44 131.76 32.34 Z" />
<path fill="#008500" opacity="1.00" d=" M 176.04 33.89 C 176.64 33.30 177.23 32.70 177.83 32.10 C 177.92 32.25 178.10 32.54 178.19 32.69 L 178.83 33.72 C 176.43 38.89 176.40 45.12 178.86 50.27 L 178.17 51.28 C 178.08 51.43 177.89 51.72 177.80 51.86 C 177.00 51.16 176.18 50.48 175.38 49.80 C 172.82 45.55 167.88 44.21 163.69 42.17 C 167.88 39.54 173.50 38.55 176.04 33.89 Z" />
<path fill="#008500" opacity="1.00" d=" M 186.19 32.11 C 187.31 33.15 188.47 34.14 189.61 35.16 C 191.95 38.91 196.45 39.96 200.13 41.91 C 199.84 42.45 199.27 43.54 198.98 44.08 C 194.51 45.65 190.49 48.32 187.02 51.52 C 185.70 45.62 188.46 39.23 185.13 33.73 L 185.82 32.69 C 185.91 32.55 186.10 32.25 186.19 32.11 Z" />
<path fill="#008500" opacity="1.00" d=" M 204.20 48.12 L 204.68 48.00 C 204.74 54.01 203.64 60.06 205.05 66.04 C 203.94 65.75 202.84 65.43 201.76 65.08 C 199.64 63.64 197.53 62.20 195.39 60.81 C 193.65 59.58 191.85 58.45 189.97 57.45 C 194.92 55.73 200.67 54.13 203.31 49.14 C 203.53 48.89 203.98 48.38 204.20 48.12 Z" />
<path fill="#008500" opacity="1.00" d=" M 81.82 57.64 C 87.47 55.85 92.62 52.91 96.97 48.87 C 96.80 50.93 96.67 53.00 96.60 55.08 C 96.23 58.66 97.28 62.15 98.10 65.59 C 97.54 66.00 96.44 66.82 95.89 67.22 C 95.24 66.53 94.61 65.83 93.97 65.13 C 91.36 60.76 86.12 59.64 81.82 57.64 Z" />
<path fill="#008500" opacity="1.00" d=" M 104.95 48.76 C 109.24 52.86 114.34 55.97 120.07 57.61 C 116.46 59.42 111.92 60.11 109.63 63.79 C 109.27 64.13 108.54 64.80 108.18 65.14 C 107.11 65.46 106.04 65.76 104.96 66.03 C 106.11 60.31 105.81 54.49 104.95 48.76 Z" />
<path fill="#008500" opacity="1.00" d=" M 135.82 57.57 C 141.54 55.89 146.72 52.96 151.02 48.81 C 149.88 54.50 149.87 60.32 150.99 66.02 C 149.92 65.76 148.86 65.47 147.80 65.15 C 147.43 64.82 146.68 64.14 146.30 63.80 C 143.89 60.21 139.50 59.31 135.82 57.57 Z" />
<path fill="#008500" opacity="1.00" d=" M 159.01 48.81 C 163.41 52.79 168.36 56.14 174.19 57.59 C 170.49 59.30 166.09 60.19 163.68 63.80 C 163.31 64.14 162.57 64.81 162.20 65.15 C 161.13 65.48 160.06 65.78 158.98 66.05 C 160.14 60.35 159.95 54.53 159.01 48.81 Z" />
<path fill="#008500" opacity="1.00" d=" M 213.04 48.86 C 217.37 52.93 222.56 55.82 228.20 57.65 C 223.91 59.69 218.62 60.72 216.02 65.13 C 215.39 65.84 214.75 66.54 214.11 67.24 C 213.56 66.83 212.45 66.01 211.90 65.60 C 212.71 62.17 213.76 58.71 213.42 55.15 C 213.35 53.05 213.21 50.95 213.04 48.86 Z" />
<path fill="#008500" opacity="1.00" d=" M 77.98 64.95 C 79.07 65.25 80.16 65.57 81.24 65.93 C 83.35 67.34 85.46 68.75 87.55 70.19 C 89.19 71.51 90.95 72.68 92.91 73.50 C 87.97 75.19 82.36 76.99 79.65 81.86 C 79.32 82.20 78.66 82.87 78.33 83.21 L 77.62 83.72 C 78.53 77.51 79.17 71.18 77.98 64.95 Z" />
<path fill="#008500" opacity="1.00" d=" M 120.96 65.89 C 121.20 65.64 121.69 65.14 121.93 64.88 C 122.42 64.83 123.39 64.71 123.88 64.66 C 122.98 70.49 122.78 76.39 124.04 82.19 C 119.68 78.10 114.53 75.09 108.79 73.38 C 113.10 71.38 118.34 70.26 120.96 65.89 Z" />
<path fill="#008500" opacity="1.00" d=" M 131.96 64.99 C 133.04 65.25 134.12 65.54 135.18 65.86 C 135.55 66.19 136.27 66.86 136.63 67.19 C 138.91 70.89 143.47 71.58 147.07 73.42 C 143.59 74.92 139.33 75.50 137.16 78.97 C 136.98 79.14 136.60 79.47 136.42 79.64 C 134.42 79.87 133.22 81.49 131.99 82.89 C 132.71 76.94 133.32 70.91 131.96 64.99 Z" />
<path fill="#008500" opacity="1.00" d=" M 174.82 65.86 C 175.85 65.54 176.88 65.24 177.93 64.97 C 177.77 67.03 177.67 69.10 177.64 71.17 C 177.57 72.43 177.57 73.69 177.62 74.94 C 177.64 77.35 177.71 79.75 177.87 82.15 C 173.72 77.93 168.51 75.11 162.86 73.42 C 166.50 71.62 171.01 70.86 173.35 67.20 C 173.72 66.86 174.45 66.19 174.82 65.86 Z" />
<path fill="#008500" opacity="1.00" d=" M 186.28 64.68 C 186.76 64.73 187.71 64.83 188.18 64.88 C 189.02 65.64 189.85 66.41 190.68 67.18 C 193.09 70.78 197.50 71.67 201.18 73.43 C 195.49 75.10 190.33 78.01 186.08 82.17 C 186.23 80.06 186.34 77.95 186.38 75.84 C 186.47 74.24 186.44 72.64 186.35 71.04 C 186.29 68.92 186.30 66.80 186.28 64.68 Z" />
<path fill="#008500" opacity="1.00" d=" M 217.01 73.36 C 222.40 71.39 227.41 68.55 231.89 64.97 C 231.04 70.89 231.23 76.89 232.41 82.76 C 232.14 82.81 231.59 82.90 231.31 82.95 C 231.10 82.68 230.67 82.15 230.46 81.89 C 227.54 77.05 222.00 75.22 217.01 73.36 Z" />
<path fill="#008500" opacity="1.00" d=" M 66.49 75.05 C 67.20 73.63 67.97 72.24 68.72 70.84 C 68.92 76.13 69.87 81.36 71.84 86.28 C 73.29 89.45 71.40 92.70 70.88 95.85 C 70.18 99.69 69.56 103.58 69.65 107.49 C 69.21 111.93 71.55 115.84 72.56 120.00 C 70.81 125.94 68.62 131.83 68.72 138.13 C 67.97 136.74 67.20 135.36 66.49 133.95 C 63.56 121.77 60.79 109.24 62.37 96.63 C 62.83 89.27 65.08 82.24 66.49 75.05 Z" />
<path fill="#008500" opacity="1.00" d=" M 241.27 70.89 C 242.03 72.27 242.79 73.64 243.51 75.05 C 244.85 82.03 247.09 88.84 247.53 95.98 C 249.23 108.79 246.53 121.56 243.51 133.95 C 242.80 135.35 242.03 136.73 241.27 138.12 C 241.35 131.82 239.20 125.93 237.45 120.00 C 238.42 115.83 240.78 111.93 240.33 107.48 C 240.41 105.49 240.41 103.50 240.32 101.51 C 240.77 97.07 238.42 93.17 237.45 89.00 C 239.19 83.07 241.35 77.18 241.27 70.89 Z" />
<path fill="#008500" opacity="1.00" d=" M 104.91 79.46 C 107.49 80.46 109.58 82.34 111.65 84.13 C 113.64 86.51 116.54 87.65 119.31 88.84 C 115.36 91.00 110.39 92.06 108.06 96.31 C 106.99 97.12 105.88 97.89 104.78 98.67 C 104.72 98.58 104.58 98.39 104.52 98.29 L 104.26 97.91 C 106.39 92.31 106.27 86.14 104.48 80.47 L 104.55 79.73 C 104.64 79.66 104.82 79.53 104.91 79.46 Z" />
<path fill="#008500" opacity="1.00" d=" M 138.02 86.93 C 142.81 85.27 146.96 82.21 150.80 78.97 L 150.80 79.57 C 151.08 84.95 148.68 90.69 151.59 95.70 C 151.63 96.21 151.70 97.22 151.73 97.72 L 151.53 98.23 C 151.48 98.33 151.40 98.55 151.35 98.65 C 147.81 96.65 144.65 94.08 141.19 91.95 C 139.76 90.97 138.40 89.91 137.00 88.88 C 137.26 88.39 137.76 87.42 138.02 86.93 Z" />
<path fill="#008500" opacity="1.00" d=" M 204.37 79.94 C 204.61 79.80 205.09 79.53 205.33 79.39 C 205.40 79.49 205.53 79.69 205.60 79.79 L 205.90 80.23 C 204.81 86.05 204.02 92.01 205.80 97.78 L 205.50 98.24 C 205.43 98.35 205.28 98.56 205.21 98.67 C 204.12 97.88 203.05 97.09 202.00 96.26 C 199.38 92.33 194.80 90.80 190.74 88.87 C 195.75 86.68 200.82 84.26 204.37 79.94 Z" />
<path fill="#008500" opacity="1.00" d=" M 212.61 78.89 C 217.02 81.79 221.11 85.39 226.26 86.96 C 226.22 88.27 226.17 89.57 226.12 90.87 C 221.11 92.43 217.15 95.95 212.78 98.66 C 212.70 98.56 212.54 98.36 212.47 98.25 L 212.14 97.82 C 212.53 95.73 212.91 93.63 213.24 91.53 C 213.99 87.30 212.53 83.13 212.61 78.89 Z" />
<path fill="#008500" opacity="1.00" d=" M 84.04 86.95 C 88.39 85.25 92.41 82.77 95.80 79.55 C 97.30 81.54 96.36 84.03 96.20 86.27 C 95.71 89.95 95.91 93.95 98.08 97.10 C 97.51 97.37 96.38 97.90 95.81 98.16 C 92.38 95.02 88.38 92.44 83.96 90.96 C 83.68 89.62 82.70 88.06 84.04 86.95 Z" />
<path fill="#008500" opacity="1.00" d=" M 158.47 95.71 C 161.28 90.60 158.49 84.84 160.01 79.48 C 163.49 82.67 167.50 85.35 171.97 86.93 C 172.26 87.45 172.83 88.51 173.12 89.04 C 168.84 91.35 163.51 92.64 160.97 97.17 C 160.20 97.68 159.42 98.17 158.64 98.65 C 158.59 98.54 158.51 98.33 158.47 98.22 L 158.28 97.72 C 158.33 97.21 158.42 96.21 158.47 95.71 Z" />
<path fill="#008500" opacity="1.00" d=" M 77.98 95.98 C 82.12 98.83 86.20 102.90 91.50 103.05 L 92.16 103.15 C 92.43 103.45 92.96 104.03 93.23 104.33 L 93.55 105.26 C 93.19 105.37 92.47 105.59 92.12 105.69 L 91.46 105.86 C 86.20 106.25 82.10 110.10 77.98 113.03 C 78.82 107.37 78.81 101.63 77.98 95.98 Z" />
<path fill="#008500" opacity="1.00" d=" M 109.89 103.15 C 115.50 103.25 119.76 98.92 124.05 95.89 C 122.86 101.59 122.86 107.41 124.05 113.11 C 119.75 110.07 115.50 105.76 109.88 105.84 C 109.58 105.63 108.97 105.20 108.66 104.98 L 108.67 104.04 C 108.98 103.81 109.58 103.37 109.89 103.15 Z" />
<path fill="#008500" opacity="1.00" d=" M 132.03 95.92 C 136.24 98.98 140.60 103.31 146.15 103.14 C 146.44 103.35 147.03 103.78 147.32 103.99 L 147.29 104.93 C 147.01 105.19 146.45 105.72 146.17 105.99 C 145.65 105.88 144.63 105.65 144.12 105.54 C 139.76 107.48 135.64 109.95 132.02 113.08 C 132.24 110.93 132.33 108.78 132.31 106.63 C 132.37 105.21 132.37 103.79 132.31 102.37 C 132.32 100.22 132.24 98.06 132.03 95.92 Z" />
<path fill="#008500" opacity="1.00" d=" M 163.87 103.15 C 169.45 103.24 173.80 98.96 178.06 95.90 C 176.98 101.58 176.99 107.41 178.06 113.10 C 174.37 110.03 170.28 107.47 165.88 105.55 C 165.36 105.66 164.34 105.88 163.83 105.99 C 163.55 105.72 162.99 105.18 162.72 104.90 L 162.66 103.97 C 162.96 103.77 163.57 103.35 163.87 103.15 Z" />
<path fill="#008500" opacity="1.00" d=" M 185.99 95.99 C 190.31 99.01 194.52 103.04 200.10 103.20 C 200.38 103.48 200.95 104.04 201.23 104.33 L 201.54 105.26 C 201.18 105.36 200.45 105.56 200.09 105.66 C 194.56 106.13 190.29 109.91 185.99 113.01 C 187.11 107.39 187.09 101.61 185.99 95.99 Z" />
<path fill="#008500" opacity="1.00" d=" M 217.83 103.20 C 223.37 103.21 227.57 99.04 231.87 96.10 C 231.82 98.45 231.82 100.80 231.82 103.16 C 231.79 104.05 231.79 104.95 231.82 105.84 C 231.82 108.20 231.82 110.55 231.87 112.90 C 227.82 109.92 223.73 106.47 218.56 105.81 L 217.90 105.65 C 217.53 105.56 216.81 105.39 216.44 105.30 L 216.80 104.41 C 217.06 104.11 217.58 103.50 217.83 103.20 Z" />
<path fill="#008500" opacity="1.00" d=" M 104.78 110.32 C 105.88 111.10 106.99 111.87 108.06 112.68 C 110.38 116.93 115.35 117.98 119.30 120.10 C 116.52 121.26 113.71 122.51 111.63 124.77 L 111.16 125.15 C 109.20 124.99 106.94 126.09 107.28 128.38 C 106.56 128.83 105.85 129.29 105.16 129.79 C 105.07 129.66 104.90 129.40 104.82 129.27 L 104.18 128.30 C 106.78 122.89 106.10 116.61 104.25 111.08 L 104.51 110.71 C 104.58 110.62 104.72 110.42 104.78 110.32 Z" />
<path fill="#008500" opacity="1.00" d=" M 147.38 113.14 C 148.55 112.18 149.74 111.25 150.92 110.30 C 151.00 110.43 151.17 110.69 151.26 110.82 L 151.89 111.77 C 151.49 114.76 150.62 117.71 150.64 120.74 C 151.20 124.70 152.47 128.51 153.26 132.42 C 148.72 128.28 143.97 124.04 138.03 122.07 C 137.74 121.54 137.17 120.48 136.88 119.95 C 140.53 117.95 145.09 116.95 147.38 113.14 Z" />
<path fill="#008500" opacity="1.00" d=" M 158.69 110.38 C 162.21 112.37 165.37 114.93 168.81 117.05 C 170.23 118.03 171.60 119.09 172.99 120.12 C 172.74 120.61 172.24 121.58 171.99 122.06 C 166.02 124.01 161.28 128.29 156.73 132.43 C 157.52 128.51 158.79 124.70 159.36 120.75 C 159.33 117.54 158.43 114.42 158.09 111.24 L 158.41 110.79 C 158.48 110.69 158.62 110.48 158.69 110.38 Z" />
<path fill="#008500" opacity="1.00" d=" M 202.00 112.74 C 203.05 111.91 204.13 111.12 205.21 110.32 C 205.28 110.42 205.42 110.61 205.49 110.71 L 205.76 111.09 C 203.55 116.74 203.52 123.12 205.75 128.78 L 205.48 129.21 C 205.42 129.32 205.29 129.52 205.22 129.63 C 204.37 129.21 203.52 128.80 202.67 128.41 C 203.08 126.12 200.82 125.04 198.89 125.08 L 198.39 124.73 C 196.10 122.79 193.52 121.24 190.79 120.01 C 194.86 118.17 199.41 116.65 202.00 112.74 Z" />
<path fill="#008500" opacity="1.00" d=" M 212.78 110.34 C 217.14 113.04 221.10 116.52 226.07 118.11 C 226.20 119.33 226.34 120.55 226.46 121.78 L 225.71 121.90 C 220.58 122.03 216.90 125.91 213.12 128.86 C 213.93 123.00 214.78 116.83 212.20 111.25 L 212.50 110.77 C 212.57 110.67 212.71 110.45 212.78 110.34 Z" />
<path fill="#008500" opacity="1.00" d=" M 83.98 118.05 C 88.40 116.57 92.38 113.98 95.81 110.84 C 96.37 111.10 97.51 111.63 98.08 111.90 C 95.78 115.27 95.70 119.55 96.29 123.45 C 96.50 125.46 97.18 127.70 95.81 129.47 C 92.45 126.20 88.39 123.75 84.03 122.06 C 82.67 120.95 83.68 119.39 83.98 118.05 Z" />
<path fill="#008500" opacity="1.00" d=" M 77.71 125.68 C 78.10 125.84 78.86 126.17 79.25 126.33 C 79.35 126.44 79.57 126.64 79.68 126.75 C 81.96 132.12 88.07 133.69 93.03 135.60 C 87.59 137.59 82.53 140.44 78.02 144.08 C 79.10 137.96 78.55 131.78 77.71 125.68 Z" />
<path fill="#008500" opacity="1.00" d=" M 108.89 135.61 C 114.51 133.84 119.63 130.85 124.01 126.91 C 123.28 131.16 122.84 135.49 123.41 139.80 C 123.37 141.40 124.27 143.77 122.19 144.41 C 121.91 144.10 121.35 143.47 121.06 143.16 C 118.23 138.99 113.28 137.51 108.89 135.61 Z" />
<path fill="#008500" opacity="1.00" d=" M 132.02 126.84 C 136.30 130.97 141.46 133.93 147.18 135.59 C 143.53 137.41 138.91 138.05 136.62 141.80 C 136.26 142.14 135.54 142.81 135.18 143.14 C 134.12 143.46 133.04 143.75 131.96 144.01 C 133.25 138.34 132.80 132.55 132.02 126.84 Z" />
<path fill="#008500" opacity="1.00" d=" M 162.81 135.58 C 168.54 133.93 173.70 130.98 177.98 126.83 C 177.13 132.54 176.79 138.33 178.04 144.02 C 176.96 143.76 175.88 143.46 174.82 143.15 C 174.46 142.81 173.73 142.14 173.37 141.80 C 171.06 138.07 166.46 137.41 162.81 135.58 Z" />
<path fill="#008500" opacity="1.00" d=" M 185.96 126.82 C 190.34 130.85 195.43 133.92 201.17 135.57 C 195.69 137.58 190.65 140.52 186.09 144.15 C 187.11 138.40 187.16 132.55 185.96 126.82 Z" />
<path fill="#008500" opacity="1.00" d=" M 217.05 135.49 C 222.75 133.91 227.83 130.83 232.06 126.73 C 231.33 132.47 230.95 138.31 232.03 144.04 C 230.93 143.75 229.84 143.42 228.77 143.07 C 226.65 141.66 224.54 140.25 222.45 138.81 C 220.80 137.46 219.02 136.30 217.05 135.49 Z" />
<path fill="#008500" opacity="1.00" d=" M 93.91 143.92 C 94.58 143.21 95.24 142.50 95.89 141.79 C 96.45 142.19 97.55 143.00 98.10 143.40 C 97.29 146.82 96.24 150.29 96.58 153.86 C 96.64 155.95 96.79 158.05 96.97 160.15 C 92.81 156.24 87.87 153.42 82.49 151.59 C 82.31 151.17 81.94 150.32 81.76 149.89 C 83.01 149.64 84.26 149.38 85.50 149.06 C 88.90 148.54 91.83 146.62 93.91 143.92 Z" />
<path fill="#008500" opacity="1.00" d=" M 212.33 142.54 C 212.78 142.36 213.66 142.01 214.11 141.84 C 218.07 145.62 222.87 148.58 228.21 149.92 C 227.94 152.16 225.54 152.34 223.87 153.08 C 219.68 154.40 216.40 157.44 213.04 160.13 C 213.20 158.06 213.33 155.99 213.40 153.92 C 213.77 150.33 212.72 146.84 211.90 143.40 L 212.33 142.54 Z" />
<path fill="#008500" opacity="1.00" d=" M 105.02 143.17 C 106.06 143.39 107.11 143.61 108.16 143.83 C 108.51 144.19 109.21 144.90 109.56 145.26 C 112.20 148.57 116.33 149.84 120.09 151.38 C 115.09 153.24 109.64 155.03 106.55 159.71 C 106.22 160.09 105.57 160.85 105.24 161.23 C 105.63 155.22 106.05 149.15 105.02 143.17 Z" />
<path fill="#008500" opacity="1.00" d=" M 147.90 143.80 C 148.93 143.55 149.96 143.30 150.99 143.05 C 149.85 148.72 149.92 154.52 151.02 160.20 C 146.61 156.24 141.67 152.89 135.86 151.42 C 140.04 149.27 145.57 148.36 147.90 143.80 Z" />
<path fill="#008500" opacity="1.00" d=" M 159.10 142.91 C 160.14 143.20 161.17 143.51 162.19 143.85 C 162.57 144.19 163.32 144.86 163.69 145.20 C 166.13 148.76 170.49 149.69 174.18 151.43 C 168.46 153.10 163.27 156.01 159.01 160.19 C 158.94 156.55 161.19 152.34 158.99 149.07 C 159.47 147.04 159.33 144.96 159.10 142.91 Z" />
<path fill="#008500" opacity="1.00" d=" M 201.82 143.86 C 202.88 143.53 203.95 143.24 205.04 142.98 C 203.89 148.69 204.18 154.50 205.04 160.22 C 200.75 156.14 195.67 153.02 189.96 151.40 C 193.56 149.59 198.08 148.87 200.38 145.20 C 200.74 144.87 201.46 144.19 201.82 143.86 Z" />
<path fill="#008500" opacity="1.00" d=" M 131.79 157.35 C 136.25 159.81 140.09 163.42 145.02 164.98 C 145.26 165.52 145.74 166.59 145.98 167.12 C 142.01 168.95 137.60 170.45 134.94 174.17 C 134.33 174.83 133.74 175.52 133.17 176.21 C 132.63 175.94 131.56 175.39 131.03 175.12 C 134.01 169.96 133.15 163.58 131.23 158.21 L 131.52 157.76 C 131.59 157.65 131.72 157.45 131.79 157.35 Z" />
<path fill="#008500" opacity="1.00" d=" M 164.98 164.99 C 169.91 163.41 173.74 159.81 178.21 157.35 C 178.28 157.45 178.41 157.66 178.48 157.76 L 178.77 158.21 C 176.53 163.87 176.53 170.25 178.76 175.91 L 178.50 176.28 C 178.43 176.38 178.30 176.57 178.23 176.66 C 177.51 176.15 176.79 175.63 176.07 175.12 C 173.34 170.82 168.44 169.09 164.03 167.10 C 164.27 166.57 164.74 165.51 164.98 164.99 Z" />
<path fill="#008500" opacity="1.00" d=" M 110.96 164.96 C 115.43 163.35 119.49 160.71 122.97 157.48 C 124.17 163.44 121.72 169.80 124.78 175.45 L 124.20 176.31 C 124.12 176.42 123.96 176.66 123.88 176.78 C 122.73 175.78 121.57 174.80 120.44 173.80 C 117.81 170.44 113.80 168.83 110.04 167.10 C 110.27 166.57 110.73 165.50 110.96 164.96 Z" />
<path fill="#008500" opacity="1.00" d=" M 185.22 175.44 C 188.32 169.80 185.76 163.44 187.03 157.48 C 190.51 160.71 194.57 163.35 199.05 164.96 C 199.28 165.51 199.74 166.61 199.97 167.16 C 196.22 168.89 192.17 170.41 189.56 173.80 C 188.42 174.80 187.26 175.78 186.12 176.78 C 186.04 176.66 185.88 176.42 185.80 176.30 L 185.22 175.44 Z" />
<path fill="#008500" opacity="1.00" d=" M 84.07 161.72 L 84.64 162.22 C 88.60 166.99 95.20 166.47 100.52 168.49 C 103.47 171.19 105.51 174.83 108.96 177.01 C 113.22 179.71 117.90 182.70 123.19 182.21 C 126.45 182.59 129.01 184.71 131.25 186.94 C 132.15 187.92 133.04 188.91 133.96 189.88 C 135.88 192.16 138.03 194.23 140.30 196.16 C 132.01 194.79 123.80 192.53 116.28 188.74 C 113.78 187.46 111.15 186.45 108.44 185.71 C 103.89 183.91 100.08 180.66 96.22 177.73 C 91.52 173.75 86.38 169.77 83.12 164.53 C 83.36 163.83 83.83 162.43 84.07 161.72 Z" />
<path fill="#008500" opacity="1.00" d=" M 225.35 162.22 L 225.92 161.73 C 226.17 162.43 226.65 163.83 226.89 164.53 C 225.82 167.03 223.48 168.71 221.70 170.70 C 215.64 176.44 209.19 182.18 201.57 185.71 C 196.57 186.94 192.20 189.77 187.40 191.53 C 181.68 193.70 175.73 195.18 169.69 196.15 C 171.96 194.22 174.11 192.15 176.04 189.88 C 176.95 188.91 177.85 187.92 178.75 186.94 C 180.99 184.71 183.55 182.58 186.82 182.22 C 192.10 182.69 196.77 179.71 201.04 177.01 C 204.49 174.84 206.52 171.18 209.48 168.50 C 214.79 166.47 221.38 166.96 225.35 162.22 Z" />
<path fill="#008500" opacity="1.00" d=" M 136.75 181.08 C 142.42 181.32 146.68 176.94 151.05 173.99 C 149.84 179.61 149.87 185.41 151.03 191.04 C 146.43 187.57 141.61 183.90 135.75 183.03 L 136.03 182.24 C 136.21 181.95 136.57 181.37 136.75 181.08 Z" />
<path fill="#008500" opacity="1.00" d=" M 158.95 174.00 C 163.33 176.92 167.59 181.38 173.26 181.08 C 173.43 181.37 173.78 181.96 173.96 182.25 L 174.25 183.04 C 168.37 183.86 163.57 187.58 158.96 191.04 C 160.12 185.41 160.16 179.62 158.95 174.00 Z" />
</g>
</svg>
