<?xml version="1.0" encoding="UTF-8" standalone="no"?>
<svg
   xmlns:dc="http://purl.org/dc/elements/1.1/"
   xmlns:cc="http://web.resource.org/cc/"
   xmlns:rdf="http://www.w3.org/1999/02/22-rdf-syntax-ns#"
   xmlns:svg="http://www.w3.org/2000/svg"
   xmlns="http://www.w3.org/2000/svg"
   xmlns:xlink="http://www.w3.org/1999/xlink"
   xmlns:sodipodi="http://inkscape.sourceforge.net/DTD/sodipodi-0.dtd"
   xmlns:inkscape="http://www.inkscape.org/namespaces/inkscape"
   height="450"
   width="675"
   version="1.0"
   id="svg1573"
   sodipodi:version="0.32"
   inkscape:version="0.43"
   sodipodi:docname="Flag_of_Uruguay.svg"
   sodipodi:docbase="C:\Documents and Settings\empresa\Escritorio">
  <metadata
     id="metadata1595">
    <rdf:RDF>
      <cc:Work
         rdf:about="">
        <dc:format>image/svg+xml</dc:format>
        <dc:type
           rdf:resource="http://purl.org/dc/dcmitype/StillImage" />
      </cc:Work>
    </rdf:RDF>
  </metadata>
  <defs
     id="defs1593">
    <linearGradient
       inkscape:collect="always"
       xlink:href="#linearGradient583"
       id="linearGradient3667"
       gradientUnits="userSpaceOnUse"
       gradientTransform="matrix(0.340835,0,0,0.645489,112.7334,-59.8854)"
       spreadMethod="pad"
       x1="123.78826"
       y1="360.51648"
       x2="123.78826"
       y2="459.27271" />
    <linearGradient
       inkscape:collect="always"
       xlink:href="#linearGradient583"
       id="linearGradient3670"
       gradientUnits="userSpaceOnUse"
       gradientTransform="matrix(-1.466237e-3,0.340832,-0.645483,-2.776828e-3,337.3033,115.2091)"
       spreadMethod="pad"
       x1="123.78826"
       y1="360.51648"
       x2="123.78826"
       y2="459.27271" />
    <linearGradient
       inkscape:collect="always"
       xlink:href="#linearGradient583"
       id="linearGradient3673"
       gradientUnits="userSpaceOnUse"
       gradientTransform="matrix(0.239761,0.242246,-0.458777,0.45407,261.8677,-18.61753)"
       spreadMethod="pad"
       x1="123.78826"
       y1="360.51648"
       x2="123.78826"
       y2="459.27271" />
    <linearGradient
       inkscape:collect="always"
       xlink:href="#linearGradient583"
       id="linearGradient3676"
       gradientUnits="userSpaceOnUse"
       gradientTransform="matrix(0.242422,-0.239583,0.453733,0.45911,-20.14433,15.32783)"
       spreadMethod="pad"
       x1="123.78826"
       y1="360.51648"
       x2="123.78826"
       y2="459.27271" />
    <linearGradient
       inkscape:collect="always"
       xlink:href="#linearGradient583"
       id="linearGradient3679"
       gradientUnits="userSpaceOnUse"
       gradientTransform="matrix(2.444194e-3,-0.340826,0.645472,4.628927e-3,-61.67835,163.148)"
       spreadMethod="pad"
       x1="123.78826"
       y1="360.51648"
       x2="123.78826"
       y2="459.27271" />
    <linearGradient
       inkscape:collect="always"
       xlink:href="#linearGradient583"
       id="linearGradient3682"
       gradientUnits="userSpaceOnUse"
       gradientTransform="matrix(-0.238398,-0.243588,0.461317,-0.451489,12.94131,296.849)"
       spreadMethod="pad"
       x1="123.78826"
       y1="360.51648"
       x2="123.78826"
       y2="459.27271" />
    <linearGradient
       inkscape:collect="always"
       xlink:href="#linearGradient583"
       id="linearGradient3685"
       gradientUnits="userSpaceOnUse"
       gradientTransform="matrix(-0.340807,-4.409405e-3,8.350735e-3,-0.645435,160.3792,339.1233)"
       spreadMethod="pad"
       x1="123.78826"
       y1="360.51648"
       x2="123.78826"
       y2="459.27271" />
    <linearGradient
       id="linearGradient583">
      <stop
         id="stop584"
         offset="0"
         style="stop-color:#faff00;stop-opacity:1;" />
      <stop
         id="stop585"
         offset="1"
         style="stop-color:#f5c402;stop-opacity:1;" />
    </linearGradient>
    <linearGradient
       inkscape:collect="always"
       xlink:href="#linearGradient583"
       id="linearGradient3688"
       gradientUnits="userSpaceOnUse"
       gradientTransform="matrix(-0.241895,0.240115,-0.454741,-0.458112,296.1105,263.2543)"
       spreadMethod="pad"
       x1="123.78826"
       y1="360.51648"
       x2="123.78826"
       y2="459.27271" />
    <linearGradient
       inkscape:collect="always"
       xlink:href="#linearGradient583"
       id="linearGradient3920"
       gradientUnits="userSpaceOnUse"
       gradientTransform="matrix(0.407689,0,0,0.7721,136.0226,-80.91554)"
       spreadMethod="pad"
       x1="123.78826"
       y1="360.51648"
       x2="123.78826"
       y2="459.27271" />
    <linearGradient
       inkscape:collect="always"
       xlink:href="#linearGradient583"
       id="linearGradient3923"
       gradientUnits="userSpaceOnUse"
       gradientTransform="matrix(-1.753836e-3,0.407686,-0.772093,-3.321497e-3,404.6414,128.5234)"
       spreadMethod="pad"
       x1="123.78826"
       y1="360.51648"
       x2="123.78826"
       y2="459.27271" />
    <linearGradient
       inkscape:collect="always"
       xlink:href="#linearGradient583"
       id="linearGradient3926"
       gradientUnits="userSpaceOnUse"
       gradientTransform="matrix(0.28679,0.289762,-0.548765,0.543135,314.4093,-31.55306)"
       spreadMethod="pad"
       x1="123.78826"
       y1="360.51648"
       x2="123.78826"
       y2="459.27271" />
    <linearGradient
       inkscape:collect="always"
       xlink:href="#linearGradient583"
       id="linearGradient3929"
       gradientUnits="userSpaceOnUse"
       gradientTransform="matrix(0.289973,-0.286577,0.542732,0.549164,-22.91882,9.050613)"
       spreadMethod="pad"
       x1="123.78826"
       y1="360.51648"
       x2="123.78826"
       y2="459.27271" />
    <linearGradient
       inkscape:collect="always"
       xlink:href="#linearGradient583"
       id="linearGradient3932"
       gradientUnits="userSpaceOnUse"
       gradientTransform="matrix(2.923618e-3,-0.407678,0.77208,5.536882e-3,-72.59966,185.8654)"
       spreadMethod="pad"
       x1="123.78826"
       y1="360.51648"
       x2="123.78826"
       y2="459.27271" />
    <linearGradient
       inkscape:collect="always"
       xlink:href="#linearGradient583"
       id="linearGradient3935"
       gradientUnits="userSpaceOnUse"
       gradientTransform="matrix(-0.285159,-0.291367,0.551803,-0.540048,16.6565,345.7916)"
       spreadMethod="pad"
       x1="123.78826"
       y1="360.51648"
       x2="123.78826"
       y2="459.27271" />
    <linearGradient
       inkscape:collect="always"
       xlink:href="#linearGradient583"
       id="linearGradient3938"
       gradientUnits="userSpaceOnUse"
       gradientTransform="matrix(-0.407656,-5.274301e-3,9.988715e-3,-0.772036,193.014,396.3579)"
       spreadMethod="pad"
       x1="123.78826"
       y1="360.51648"
       x2="123.78826"
       y2="459.27271" />
    <linearGradient
       inkscape:collect="always"
       xlink:href="#linearGradient583"
       id="linearGradient3941"
       gradientUnits="userSpaceOnUse"
       gradientTransform="matrix(-0.289342,0.287213,-0.543938,-0.54797,355.3688,305.6074)"
       spreadMethod="pad"
       x1="123.78826"
       y1="360.51648"
       x2="123.78826"
       y2="459.27271" />
    <linearGradient
       inkscape:collect="always"
       xlink:href="#linearGradient583"
       id="linearGradient2691"
       gradientUnits="userSpaceOnUse"
       gradientTransform="matrix(0.407689,0,0,0.7721,136.0226,-80.91554)"
       spreadMethod="pad"
       x1="123.78826"
       y1="360.51648"
       x2="123.78826"
       y2="459.27271" />
    <linearGradient
       inkscape:collect="always"
       xlink:href="#linearGradient583"
       id="linearGradient2694"
       gradientUnits="userSpaceOnUse"
       gradientTransform="matrix(-1.753836e-3,0.407686,-0.772093,-3.321497e-3,404.6414,128.5234)"
       spreadMethod="pad"
       x1="123.78826"
       y1="360.51648"
       x2="123.78826"
       y2="459.27271" />
    <linearGradient
       inkscape:collect="always"
       xlink:href="#linearGradient583"
       id="linearGradient2697"
       gradientUnits="userSpaceOnUse"
       gradientTransform="matrix(0.28679,0.289762,-0.548765,0.543135,314.4093,-31.55306)"
       spreadMethod="pad"
       x1="123.78826"
       y1="360.51648"
       x2="123.78826"
       y2="459.27271" />
    <linearGradient
       inkscape:collect="always"
       xlink:href="#linearGradient583"
       id="linearGradient2700"
       gradientUnits="userSpaceOnUse"
       gradientTransform="matrix(0.289973,-0.286577,0.542732,0.549164,-22.91882,9.050613)"
       spreadMethod="pad"
       x1="123.78826"
       y1="360.51648"
       x2="123.78826"
       y2="459.27271" />
    <linearGradient
       inkscape:collect="always"
       xlink:href="#linearGradient583"
       id="linearGradient2703"
       gradientUnits="userSpaceOnUse"
       gradientTransform="matrix(2.923618e-3,-0.407678,0.77208,5.536882e-3,-72.59966,185.8654)"
       spreadMethod="pad"
       x1="123.78826"
       y1="360.51648"
       x2="123.78826"
       y2="459.27271" />
    <linearGradient
       inkscape:collect="always"
       xlink:href="#linearGradient583"
       id="linearGradient2706"
       gradientUnits="userSpaceOnUse"
       gradientTransform="matrix(-0.285159,-0.291367,0.551803,-0.540048,16.6565,345.7916)"
       spreadMethod="pad"
       x1="123.78826"
       y1="360.51648"
       x2="123.78826"
       y2="459.27271" />
    <linearGradient
       inkscape:collect="always"
       xlink:href="#linearGradient583"
       id="linearGradient2709"
       gradientUnits="userSpaceOnUse"
       gradientTransform="matrix(-0.407656,-5.274301e-3,9.988715e-3,-0.772036,193.014,396.3579)"
       spreadMethod="pad"
       x1="123.78826"
       y1="360.51648"
       x2="123.78826"
       y2="459.27271" />
    <linearGradient
       inkscape:collect="always"
       xlink:href="#linearGradient583"
       id="linearGradient2712"
       gradientUnits="userSpaceOnUse"
       gradientTransform="matrix(-0.289342,0.287213,-0.543938,-0.54797,355.3688,305.6074)"
       spreadMethod="pad"
       x1="123.78826"
       y1="360.51648"
       x2="123.78826"
       y2="459.27271" />
    <linearGradient
       inkscape:collect="always"
       xlink:href="#linearGradient583"
       id="linearGradient2456"
       gradientUnits="userSpaceOnUse"
       gradientTransform="matrix(0.407689,0,0,0.7721,132.8054,-69.65545)"
       spreadMethod="pad"
       x1="123.78826"
       y1="360.51648"
       x2="123.78826"
       y2="459.27271" />
    <linearGradient
       inkscape:collect="always"
       xlink:href="#linearGradient583"
       id="linearGradient2459"
       gradientUnits="userSpaceOnUse"
       gradientTransform="matrix(-1.753836e-3,0.407686,-0.772093,-3.321497e-3,401.4242,139.7835)"
       spreadMethod="pad"
       x1="123.78826"
       y1="360.51648"
       x2="123.78826"
       y2="459.27271" />
    <linearGradient
       inkscape:collect="always"
       xlink:href="#linearGradient583"
       id="linearGradient2462"
       gradientUnits="userSpaceOnUse"
       gradientTransform="matrix(0.28679,0.289762,-0.548765,0.543135,311.1921,-20.29297)"
       spreadMethod="pad"
       x1="123.78826"
       y1="360.51648"
       x2="123.78826"
       y2="459.27271" />
    <linearGradient
       inkscape:collect="always"
       xlink:href="#linearGradient583"
       id="linearGradient2465"
       gradientUnits="userSpaceOnUse"
       gradientTransform="matrix(0.289973,-0.286577,0.542732,0.549164,-26.13598,20.3107)"
       spreadMethod="pad"
       x1="123.78826"
       y1="360.51648"
       x2="123.78826"
       y2="459.27271" />
    <linearGradient
       inkscape:collect="always"
       xlink:href="#linearGradient583"
       id="linearGradient2468"
       gradientUnits="userSpaceOnUse"
       gradientTransform="matrix(2.923618e-3,-0.407678,0.77208,5.536882e-3,-75.81682,197.1255)"
       spreadMethod="pad"
       x1="123.78826"
       y1="360.51648"
       x2="123.78826"
       y2="459.27271" />
    <linearGradient
       inkscape:collect="always"
       xlink:href="#linearGradient583"
       id="linearGradient2471"
       gradientUnits="userSpaceOnUse"
       gradientTransform="matrix(-0.285159,-0.291367,0.551803,-0.540048,13.43934,357.0517)"
       spreadMethod="pad"
       x1="123.78826"
       y1="360.51648"
       x2="123.78826"
       y2="459.27271" />
    <linearGradient
       inkscape:collect="always"
       xlink:href="#linearGradient583"
       id="linearGradient2474"
       gradientUnits="userSpaceOnUse"
       gradientTransform="matrix(-0.407656,-5.274301e-3,9.988715e-3,-0.772036,189.7968,407.618)"
       spreadMethod="pad"
       x1="123.78826"
       y1="360.51648"
       x2="123.78826"
       y2="459.27271" />
    <linearGradient
       inkscape:collect="always"
       xlink:href="#linearGradient583"
       id="linearGradient2477"
       gradientUnits="userSpaceOnUse"
       gradientTransform="matrix(-0.289342,0.287213,-0.543938,-0.54797,352.1516,316.8675)"
       spreadMethod="pad"
       x1="123.78826"
       y1="360.51648"
       x2="123.78826"
       y2="459.27271" />
    <linearGradient
       inkscape:collect="always"
       xlink:href="#linearGradient583"
       id="linearGradient2387"
       gradientUnits="userSpaceOnUse"
       gradientTransform="matrix(-0.289342,0.287213,-0.543938,-0.54797,352.1516,316.8675)"
       spreadMethod="pad"
       x1="123.78826"
       y1="360.51648"
       x2="123.78826"
       y2="459.27271" />
    <linearGradient
       inkscape:collect="always"
       xlink:href="#linearGradient583"
       id="linearGradient2389"
       gradientUnits="userSpaceOnUse"
       gradientTransform="matrix(-0.407656,-5.274301e-3,9.988715e-3,-0.772036,189.7968,407.618)"
       spreadMethod="pad"
       x1="123.78826"
       y1="360.51648"
       x2="123.78826"
       y2="459.27271" />
    <linearGradient
       inkscape:collect="always"
       xlink:href="#linearGradient583"
       id="linearGradient2391"
       gradientUnits="userSpaceOnUse"
       gradientTransform="matrix(-0.285159,-0.291367,0.551803,-0.540048,13.43934,357.0517)"
       spreadMethod="pad"
       x1="123.78826"
       y1="360.51648"
       x2="123.78826"
       y2="459.27271" />
    <linearGradient
       inkscape:collect="always"
       xlink:href="#linearGradient583"
       id="linearGradient2393"
       gradientUnits="userSpaceOnUse"
       gradientTransform="matrix(2.923618e-3,-0.407678,0.77208,5.536882e-3,-75.81682,197.1255)"
       spreadMethod="pad"
       x1="123.78826"
       y1="360.51648"
       x2="123.78826"
       y2="459.27271" />
    <linearGradient
       inkscape:collect="always"
       xlink:href="#linearGradient583"
       id="linearGradient2395"
       gradientUnits="userSpaceOnUse"
       gradientTransform="matrix(0.289973,-0.286577,0.542732,0.549164,-26.13598,20.3107)"
       spreadMethod="pad"
       x1="123.78826"
       y1="360.51648"
       x2="123.78826"
       y2="459.27271" />
    <linearGradient
       inkscape:collect="always"
       xlink:href="#linearGradient583"
       id="linearGradient2397"
       gradientUnits="userSpaceOnUse"
       gradientTransform="matrix(0.28679,0.289762,-0.548765,0.543135,311.1921,-20.29297)"
       spreadMethod="pad"
       x1="123.78826"
       y1="360.51648"
       x2="123.78826"
       y2="459.27271" />
    <linearGradient
       inkscape:collect="always"
       xlink:href="#linearGradient583"
       id="linearGradient2399"
       gradientUnits="userSpaceOnUse"
       gradientTransform="matrix(-1.753836e-3,0.407686,-0.772093,-3.321497e-3,401.4242,139.7835)"
       spreadMethod="pad"
       x1="123.78826"
       y1="360.51648"
       x2="123.78826"
       y2="459.27271" />
    <linearGradient
       inkscape:collect="always"
       xlink:href="#linearGradient583"
       id="linearGradient2401"
       gradientUnits="userSpaceOnUse"
       gradientTransform="matrix(0.407689,0,0,0.7721,132.8054,-69.65545)"
       spreadMethod="pad"
       x1="123.78826"
       y1="360.51648"
       x2="123.78826"
       y2="459.27271" />
    <linearGradient
       inkscape:collect="always"
       xlink:href="#linearGradient583"
       id="linearGradient2475"
       gradientUnits="userSpaceOnUse"
       gradientTransform="matrix(0.407689,0,0,0.7721,132.8054,-69.65545)"
       spreadMethod="pad"
       x1="123.78826"
       y1="360.51648"
       x2="123.78826"
       y2="459.27271" />
    <linearGradient
       inkscape:collect="always"
       xlink:href="#linearGradient583"
       id="linearGradient2478"
       gradientUnits="userSpaceOnUse"
       gradientTransform="matrix(-1.753836e-3,0.407686,-0.772093,-3.321497e-3,401.4242,139.7835)"
       spreadMethod="pad"
       x1="123.78826"
       y1="360.51648"
       x2="123.78826"
       y2="459.27271" />
    <linearGradient
       inkscape:collect="always"
       xlink:href="#linearGradient583"
       id="linearGradient2481"
       gradientUnits="userSpaceOnUse"
       gradientTransform="matrix(0.28679,0.289762,-0.548765,0.543135,311.1921,-20.29297)"
       spreadMethod="pad"
       x1="123.78826"
       y1="360.51648"
       x2="123.78826"
       y2="459.27271" />
    <linearGradient
       inkscape:collect="always"
       xlink:href="#linearGradient583"
       id="linearGradient2484"
       gradientUnits="userSpaceOnUse"
       gradientTransform="matrix(0.289973,-0.286577,0.542732,0.549164,-26.13598,20.3107)"
       spreadMethod="pad"
       x1="123.78826"
       y1="360.51648"
       x2="123.78826"
       y2="459.27271" />
    <linearGradient
       inkscape:collect="always"
       xlink:href="#linearGradient583"
       id="linearGradient2487"
       gradientUnits="userSpaceOnUse"
       gradientTransform="matrix(2.923618e-3,-0.407678,0.77208,5.536882e-3,-75.81682,197.1255)"
       spreadMethod="pad"
       x1="123.78826"
       y1="360.51648"
       x2="123.78826"
       y2="459.27271" />
    <linearGradient
       inkscape:collect="always"
       xlink:href="#linearGradient583"
       id="linearGradient2490"
       gradientUnits="userSpaceOnUse"
       gradientTransform="matrix(-0.285159,-0.291367,0.551803,-0.540048,13.43934,357.0517)"
       spreadMethod="pad"
       x1="123.78826"
       y1="360.51648"
       x2="123.78826"
       y2="459.27271" />
    <linearGradient
       inkscape:collect="always"
       xlink:href="#linearGradient583"
       id="linearGradient2493"
       gradientUnits="userSpaceOnUse"
       gradientTransform="matrix(-0.407656,-5.274301e-3,9.988715e-3,-0.772036,189.7968,407.618)"
       spreadMethod="pad"
       x1="123.78826"
       y1="360.51648"
       x2="123.78826"
       y2="459.27271" />
    <linearGradient
       inkscape:collect="always"
       xlink:href="#linearGradient583"
       id="linearGradient2496"
       gradientUnits="userSpaceOnUse"
       gradientTransform="matrix(-0.289342,0.287213,-0.543938,-0.54797,352.1516,316.8675)"
       spreadMethod="pad"
       x1="123.78826"
       y1="360.51648"
       x2="123.78826"
       y2="459.27271" />
    <linearGradient
       inkscape:collect="always"
       xlink:href="#linearGradient583"
       id="linearGradient2549"
       gradientUnits="userSpaceOnUse"
       gradientTransform="matrix(-0.285159,-0.291367,0.551803,-0.540048,13.43934,357.0517)"
       spreadMethod="pad"
       x1="123.78826"
       y1="360.51648"
       x2="123.78826"
       y2="459.27271" />
    <linearGradient
       inkscape:collect="always"
       xlink:href="#linearGradient583"
       id="linearGradient2563"
       gradientUnits="userSpaceOnUse"
       gradientTransform="matrix(-0.285159,-0.291367,0.551803,-0.540048,13.43934,357.0517)"
       spreadMethod="pad"
       x1="123.78826"
       y1="360.51648"
       x2="123.78826"
       y2="459.27271" />
    <linearGradient
       inkscape:collect="always"
       xlink:href="#linearGradient583"
       id="linearGradient2577"
       gradientUnits="userSpaceOnUse"
       gradientTransform="matrix(-0.285159,-0.291367,0.551803,-0.540048,13.43934,357.0517)"
       spreadMethod="pad"
       x1="123.78826"
       y1="360.51648"
       x2="123.78826"
       y2="459.27271" />
    <linearGradient
       inkscape:collect="always"
       xlink:href="#linearGradient583"
       id="linearGradient2591"
       gradientUnits="userSpaceOnUse"
       gradientTransform="matrix(-0.285159,-0.291367,0.551803,-0.540048,13.43934,357.0517)"
       spreadMethod="pad"
       x1="123.78826"
       y1="360.51648"
       x2="123.78826"
       y2="459.27271" />
    <linearGradient
       inkscape:collect="always"
       xlink:href="#linearGradient583"
       id="linearGradient2605"
       gradientUnits="userSpaceOnUse"
       gradientTransform="matrix(-0.285159,-0.291367,0.551803,-0.540048,13.43934,357.0517)"
       spreadMethod="pad"
       x1="123.78826"
       y1="360.51648"
       x2="123.78826"
       y2="459.27271" />
    <linearGradient
       inkscape:collect="always"
       xlink:href="#linearGradient583"
       id="linearGradient2619"
       gradientUnits="userSpaceOnUse"
       gradientTransform="matrix(-0.285159,-0.291367,0.551803,-0.540048,13.43934,357.0517)"
       spreadMethod="pad"
       x1="123.78826"
       y1="360.51648"
       x2="123.78826"
       y2="459.27271" />
    <linearGradient
       inkscape:collect="always"
       xlink:href="#linearGradient583"
       id="linearGradient2633"
       gradientUnits="userSpaceOnUse"
       gradientTransform="matrix(-0.285159,-0.291367,0.551803,-0.540048,13.43934,357.0517)"
       spreadMethod="pad"
       x1="123.78826"
       y1="360.51648"
       x2="123.78826"
       y2="459.27271" />
    <linearGradient
       inkscape:collect="always"
       xlink:href="#linearGradient583"
       id="linearGradient2819"
       gradientUnits="userSpaceOnUse"
       gradientTransform="matrix(-0.285159,-0.291367,0.551803,-0.540048,13.43934,357.0517)"
       spreadMethod="pad"
       x1="123.78826"
       y1="360.51648"
       x2="123.78826"
       y2="459.27271" />
    <linearGradient
       inkscape:collect="always"
       xlink:href="#linearGradient583"
       id="linearGradient2821"
       gradientUnits="userSpaceOnUse"
       gradientTransform="matrix(-0.285159,-0.291367,0.551803,-0.540048,13.43934,357.0517)"
       spreadMethod="pad"
       x1="123.78826"
       y1="360.51648"
       x2="123.78826"
       y2="459.27271" />
    <linearGradient
       inkscape:collect="always"
       xlink:href="#linearGradient583"
       id="linearGradient2823"
       gradientUnits="userSpaceOnUse"
       gradientTransform="matrix(-0.285159,-0.291367,0.551803,-0.540048,13.43934,357.0517)"
       spreadMethod="pad"
       x1="123.78826"
       y1="360.51648"
       x2="123.78826"
       y2="459.27271" />
    <linearGradient
       inkscape:collect="always"
       xlink:href="#linearGradient583"
       id="linearGradient2825"
       gradientUnits="userSpaceOnUse"
       gradientTransform="matrix(-0.285159,-0.291367,0.551803,-0.540048,13.43934,357.0517)"
       spreadMethod="pad"
       x1="123.78826"
       y1="360.51648"
       x2="123.78826"
       y2="459.27271" />
    <linearGradient
       inkscape:collect="always"
       xlink:href="#linearGradient583"
       id="linearGradient2827"
       gradientUnits="userSpaceOnUse"
       gradientTransform="matrix(-0.285159,-0.291367,0.551803,-0.540048,13.43934,357.0517)"
       spreadMethod="pad"
       x1="123.78826"
       y1="360.51648"
       x2="123.78826"
       y2="459.27271" />
    <linearGradient
       inkscape:collect="always"
       xlink:href="#linearGradient583"
       id="linearGradient2829"
       gradientUnits="userSpaceOnUse"
       gradientTransform="matrix(-0.285159,-0.291367,0.551803,-0.540048,13.43934,357.0517)"
       spreadMethod="pad"
       x1="123.78826"
       y1="360.51648"
       x2="123.78826"
       y2="459.27271" />
    <linearGradient
       inkscape:collect="always"
       xlink:href="#linearGradient583"
       id="linearGradient2831"
       gradientUnits="userSpaceOnUse"
       gradientTransform="matrix(-0.285159,-0.291367,0.551803,-0.540048,13.43934,357.0517)"
       spreadMethod="pad"
       x1="123.78826"
       y1="360.51648"
       x2="123.78826"
       y2="459.27271" />
    <linearGradient
       inkscape:collect="always"
       xlink:href="#linearGradient583"
       id="linearGradient2833"
       gradientUnits="userSpaceOnUse"
       gradientTransform="matrix(-0.285159,-0.291367,0.551803,-0.540048,13.43934,357.0517)"
       spreadMethod="pad"
       x1="123.78826"
       y1="360.51648"
       x2="123.78826"
       y2="459.27271" />
  </defs>
  <sodipodi:namedview
     inkscape:window-height="540"
     inkscape:window-width="756"
     inkscape:pageshadow="2"
     inkscape:pageopacity="0.0"
     borderopacity="1.0"
     bordercolor="#666666"
     pagecolor="#ffffff"
     id="base"
     inkscape:zoom="0.62166667"
     inkscape:cx="450.04136"
     inkscape:cy="300.14317"
     inkscape:window-x="120"
     inkscape:window-y="110"
     inkscape:current-layer="svg1573"
     showguides="true"
     inkscape:guide-bbox="true" />
  <desc
     id="desc1575">flag of Uruguay</desc>
  <g
     id="g1942"
     transform="matrix(0.5,0,0,0.5,-1.572831e-6,150.0716)">
    <rect
       style="fill:#ffffff;fill-opacity:1"
       y="-300.14316"
       x="4.3420144e-007"
       id="rect1577"
       width="1349.9999"
       height="900" />
    <rect
       style="fill:#5274b3"
       x="4.3420144e-007"
       id="blue"
       y="-200"
       width="1350"
       height="100" />
    <use
       transform="translate(0,80)"
       height="540"
       width="810"
       x="0"
       id="use1580"
       xlink:href="#blue"
       y="120" />
    <use
       transform="translate(-7.469955e-14,240)"
       height="540"
       width="810"
       x="0"
       id="use1584"
       xlink:href="#blue"
       y="360" />
    <rect
       style="fill:#ffffff;fill-opacity:1"
       y="-300"
       x="-3.1456623e-006"
       id="rect1586"
       width="500"
       height="500" />
    <use
       y="240"
       xlink:href="#blue"
       id="use2141"
       x="0"
       width="810"
       height="540"
       transform="translate(0,160)" />
    <g
       transform="matrix(1.818182,0,0,1.818182,50,-250)"
       id="g1515">
      <path
         style="fill:#ffd200"
         d="M 108.64494,217.7084 C 108.33837,216.44802 106.21756,205.59238 103.93205,193.58475 C 101.64653,181.57711 99.6213,171.59742 99.43154,171.40765 C 99.24177,171.21788 97.18416,172.965 94.85908,175.29015 C 91.28073,178.86861 90.13903,181.13444 87.42319,190.04756 C 83.67173,202.35945 80.40268,206.95682 72.94135,210.41381 C 70.12451,211.71891 67.62696,212.59386 67.39125,212.35812 C 67.15553,212.12241 68.51112,209.51416 70.40368,206.56202 L 73.84469,201.19449 L 73.94255,186.40814 C 74.00824,176.47944 74.56865,169.61696 75.64838,165.51925 C 76.53277,162.16284 77.10482,159.26517 76.9196,159.07994 C 76.73438,158.89472 66.65854,165.47088 54.52885,173.69364 C 42.39915,181.91639 32.22449,188.39372 31.91848,188.08771 C 31.61248,187.7817 37.59797,178.33141 45.21958,167.08708 C 52.84118,155.84274 59.07704,146.41951 59.07704,146.14657 C 59.07704,145.87363 56.26934,145.65031 52.83772,145.65031 C 47.24244,145.65031 45.58669,146.20011 36.79699,150.97668 C 28.03798,155.73658 26.34567,156.30072 20.88482,156.28106 C 15.02587,156.25997 8.15407,153.88087 8.15407,151.87352 C 8.15407,151.40389 10.29392,150.72632 12.90929,150.36784 C 19.67639,149.44027 25.48584,145.65229 29.57953,139.49822 C 32.11189,135.69131 35.54728,132.5764 41.76323,128.45111 C 46.52453,125.29121 50.51357,122.25392 50.62777,121.70158 C 50.74197,121.14925 39.58031,118.54897 25.82408,115.92321 C 12.06785,113.29743 0.55494,110.89125 0.23983,110.57614 C -0.07527,110.26102 -0.08057,109.75068 0.22805,109.44205 C 0.53668,109.13342 11.47252,106.82893 24.52992,104.32101 C 37.58732,101.81308 48.42179,99.609989 48.60651,99.425259 C 48.79123,99.240529 47.04003,97.186989 44.71494,94.861839 C 41.13659,91.283379 38.87083,90.141659 29.95796,87.425739 C 17.64643,83.674169 13.0492,80.405019 9.59231,72.943469 C 8.28725,70.126549 7.41233,67.628929 7.64805,67.393209 C 7.88377,67.157489 10.49194,68.513119 13.44399,70.405729 L 18.81136,73.846839 L 33.59729,73.944699 C 43.52569,74.010399 50.38798,74.570819 54.48557,75.650579 C 57.84186,76.534989 60.73947,77.107069 60.92468,76.921839 C 61.1099,76.736619 54.53393,66.660479 46.31142,54.530429 C 38.0889,42.400379 31.61176,32.225419 31.91776,31.919409 C 32.22377,31.613399 41.67378,37.599059 52.91778,45.220889 C 64.1618,52.842709 73.58475,59.078749 73.85768,59.078749 C 74.13062,59.078749 74.35392,56.270979 74.35392,52.839249 C 74.35392,47.243809 73.80414,45.588009 69.0277,36.798049 C 64.26795,28.038789 63.70383,26.346429 63.72348,20.885419 C 63.74457,15.026299 66.1236,8.1543094 68.1309,8.1543094 C 68.60052,8.1543094 69.27806,10.294219 69.63654,12.909669 C 70.56407,19.676959 74.35193,25.486569 80.50583,29.580389 C 84.31263,32.112819 87.42745,35.548309 91.55263,41.764439 C 94.71244,46.525879 97.72372,50.650759 98.24439,50.930839 C 98.76505,51.210929 101.36524,40.048939 104.0226,26.126429 C 106.67995,12.203919 109.11197,0.554949 109.42707,0.239839 C 109.74218,-0.075281 110.25251,-0.080581 110.56114,0.228059 C 110.86976,0.536689 113.17417,11.472849 115.68203,24.530629 C 118.18989,37.588409 120.3929,48.423189 120.57763,48.607919 C 120.76235,48.792649 122.81583,47.041389 125.14092,44.716239 C 128.71927,41.137779 129.86096,38.871959 132.5768,29.958829 C 136.32826,17.646939 139.59731,13.049569 147.05864,9.5925894 C 149.87549,8.2874894 152.37303,7.4125394 152.60875,7.6482694 C 152.84448,7.8839894 151.48887,10.492239 149.5963,13.444379 L 146.1553,18.811899 L 146.05745,33.598259 C 145.99174,43.526949 145.43134,50.389439 144.35162,54.487149 C 143.46723,57.843539 142.89518,60.741229 143.0804,60.926459 C 143.26561,61.111679 153.34145,54.535509 165.47115,46.312759 C 177.60084,38.090009 187.77551,31.612669 188.08151,31.918689 C 188.38752,32.224699 182.40202,41.674979 174.78042,52.919319 C 167.15881,64.163659 160.92296,73.586889 160.92296,73.859829 C 160.92296,74.132769 163.73065,74.356089 167.16227,74.356089 C 172.75756,74.356089 174.41331,73.806289 183.20301,69.029709 C 191.96202,64.269819 193.65433,63.705689 199.11518,63.725339 C 204.97412,63.746429 211.84592,66.125529 211.84592,68.132879 C 211.84592,68.602509 209.70608,69.280079 207.09071,69.638559 C 200.3236,70.566129 194.51416,74.354099 190.42047,80.508179 C 187.84099,84.385919 184.43159,87.443069 177.72754,91.889679 C 172.68616,95.233489 168.5614,98.244869 168.5614,98.581629 C 168.5614,98.918399 179.95222,101.36819 193.87433,104.02562 C 207.79643,106.68306 219.44506,109.11515 219.76017,109.43026 C 220.07527,109.74538 220.08057,110.25572 219.77194,110.56435 C 219.46332,110.87298 208.52747,113.17747 195.47007,115.68539 C 182.41267,118.19333 171.57821,120.39641 171.39349,120.58114 C 171.20877,120.76587 172.95996,122.81941 175.28505,125.14456 C 178.8634,128.72302 181.12917,129.86474 190.04203,132.58066 C 202.35356,136.33222 206.9508,139.60137 210.40769,147.06292 C 211.71275,149.87985 212.58767,152.37747 212.35194,152.61319 C 212.11624,152.84892 209.50806,151.49328 206.55601,149.60066 L 201.18863,146.15956 L 186.40271,146.0617 C 176.4743,145.99599 169.61202,145.43557 165.51443,144.35582 C 162.15812,143.47141 159.26053,142.89934 159.07531,143.08457 C 158.89009,143.26978 165.46606,153.34591 173.68858,165.47597 C 181.91109,177.60601 188.38824,187.78098 188.08223,188.08699 C 187.77623,188.393 178.32622,182.40733 167.08222,174.78551 C 155.8382,167.16368 146.41525,160.92765 146.14232,160.92765 C 145.86938,160.92765 145.64607,163.73542 145.64607,167.16714 C 145.64607,172.76258 146.19585,174.41839 150.97228,183.20834 C 155.73205,191.96761 156.29617,193.65997 156.27652,199.12098 C 156.25543,204.98009 153.87639,211.85209 151.8691,211.85209 C 151.39948,211.85209 150.72193,209.71218 150.36346,207.09674 C 149.42826,200.27353 145.67084,194.57639 139.13877,190.07745 C 134.86066,187.13092 132.02611,183.93477 127.639,177.11072 C 124.43679,172.12974 121.51676,168.39873 121.15004,168.8196 C 120.78331,169.24046 118.77828,178.7512 116.69441,189.95457 C 111.67269,216.9525 110.99633,220 110.02601,220 C 109.573,220 108.95152,218.96878 108.64494,217.7084 z "
         id="path1506" />
      <path
         style="fill:#806900"
         d="M 108.64494,217.70839 C 108.33837,216.44801 106.21756,205.59237 103.93205,193.58474 C 101.64654,181.5771 99.6213,171.59741 99.43154,171.40765 C 99.24177,171.21787 97.18416,172.96499 94.85908,175.29014 C 91.28073,178.8686 90.13903,181.13443 87.42319,190.04755 C 83.67173,202.35944 80.40268,206.95681 72.94135,210.4138 C 70.12451,211.7189 67.62696,212.59385 67.39125,212.35811 C 67.15553,212.1224 68.51112,209.51415 70.40368,206.56201 L 73.84469,201.19448 L 73.94255,186.40813 C 74.00824,176.47943 74.56865,169.61695 75.64838,165.51924 C 76.53277,162.16283 77.10482,159.26516 76.9196,159.07993 C 76.73438,158.89471 66.65854,165.47087 54.52885,173.69363 C 42.39915,181.91638 32.22449,188.39371 31.91848,188.0877 C 31.61248,187.78169 37.59797,178.3314 45.21958,167.08707 C 52.84118,155.84273 59.07704,146.4195 59.07704,146.14656 C 59.07704,145.87362 56.26934,145.65031 52.83772,145.65031 C 47.24244,145.65031 45.58668,146.2001 36.79699,150.97667 C 28.03798,155.73657 26.34567,156.30072 20.88481,156.28106 C 15.02587,156.25997 8.15407,153.88087 8.15407,151.87351 C 8.15407,151.40388 10.29392,150.72631 12.90929,150.36783 C 19.67639,149.44027 25.48584,145.65229 29.57953,139.49822 C 32.11189,135.69131 35.54728,132.5764 41.76323,128.45111 C 46.52453,125.2912 50.51357,122.25392 50.62777,121.70157 C 50.74197,121.14924 39.58031,118.54897 25.82408,115.9232 C 12.06785,113.29743 0.55494,110.89125 0.23983,110.57614 C -0.07527,110.26102 -0.08057,109.75067 0.22805,109.44204 C 0.53668,109.13341 11.47252,106.82893 24.52992,104.321 C 37.58732,101.81307 48.42179,99.609993 48.60651,99.425253 C 48.79123,99.240533 47.04003,97.186993 44.71494,94.861843 C 41.13659,91.283383 38.87083,90.141653 29.95796,87.425733 C 17.64643,83.674163 13.0492,80.405023 9.59231,72.943463 C 8.28725,70.126553 7.41233,67.628933 7.64805,67.393213 C 7.88377,67.157483 10.49194,68.513113 13.44399,70.405733 L 18.81136,73.846843 L 33.59729,73.944693 C 43.52569,74.010393 50.38798,74.570823 54.48557,75.650573 C 57.84186,76.534993 60.73947,77.107063 60.92468,76.921843 C 61.1099,76.736613 54.53393,66.660483 46.31142,54.53044 C 38.0889,42.40039 31.61176,32.225431 31.91776,31.919411 C 32.22376,31.613401 41.67378,37.599071 52.91778,45.22089 C 64.1618,52.84272 73.58475,59.07875 73.85768,59.07875 C 74.13062,59.07875 74.35392,56.27098 74.35392,52.83926 C 74.35392,47.24381 73.80415,45.58801 69.0277,36.798061 C 64.26795,28.038801 63.70383,26.346441 63.72348,20.885421 C 63.74457,15.026311 66.1236,8.1543109 68.1309,8.1543109 C 68.60052,8.1543109 69.27806,10.294231 69.63654,12.909671 C 70.56407,19.676971 74.35193,25.486581 80.50584,29.580401 C 84.31263,32.112831 87.42745,35.548321 91.55263,41.76445 C 94.71244,46.52588 97.72372,50.65076 98.24439,50.93085 C 98.76505,51.21093 101.36524,40.04894 104.0226,26.126441 C 106.67995,12.203931 109.11197,0.554961 109.42707,0.239841 C 109.74218,-0.075269 110.25251,-0.080569 110.56114,0.228061 C 110.86976,0.536701 113.17417,11.472861 115.68203,24.530641 C 118.18989,37.588421 120.3929,48.4232 120.57763,48.60793 C 120.76235,48.79265 122.81583,47.0414 125.14092,44.71625 C 128.71927,41.13779 129.86096,38.871961 132.57681,29.958841 C 136.32826,17.646941 139.59731,13.049581 147.05864,9.5925909 C 149.87549,8.2874909 152.37303,7.4125509 152.60875,7.6482709 C 152.84448,7.8840009 151.48887,10.492251 149.5963,13.444391 L 146.1553,18.811911 L 146.05745,33.598271 C 145.99174,43.52696 145.43134,50.38945 144.35162,54.48716 C 143.46723,57.84355 142.89518,60.741233 143.0804,60.926453 C 143.26561,61.111683 153.34145,54.53552 165.47115,46.31277 C 177.60085,38.090011 187.77551,31.612681 188.08152,31.918691 C 188.38752,32.224701 182.40203,41.67499 174.78042,52.91933 C 167.15881,64.163663 160.92297,73.586893 160.92297,73.859833 C 160.92297,74.132773 163.73065,74.356083 167.16227,74.356083 C 172.75756,74.356083 174.41331,73.806293 183.20301,69.029713 C 191.96202,64.269823 193.65433,63.705683 199.11518,63.725333 C 204.97412,63.746423 211.84592,66.125523 211.84592,68.132873 C 211.84592,68.602513 209.70608,69.280073 207.09071,69.638563 C 200.3236,70.566123 194.51416,74.354093 190.42047,80.508173 C 187.84099,84.385913 184.43159,87.443063 177.72754,91.889673 C 172.68616,95.233483 168.5614,98.244873 168.5614,98.581633 C 168.5614,98.918403 179.95222,101.36819 193.87433,104.02562 C 207.79643,106.68305 219.44506,109.11514 219.76017,109.43025 C 220.07527,109.74537 220.08057,110.25572 219.77194,110.56435 C 219.46332,110.87298 208.52748,113.17746 195.47008,115.68539 C 182.41268,118.19333 171.57822,120.3964 171.39349,120.58114 C 171.20877,120.76586 172.95997,122.8194 175.28505,125.14455 C 178.8634,128.72301 181.12917,129.86474 190.04203,132.58066 C 202.35356,136.33222 206.9508,139.60136 210.40769,147.06291 C 211.71275,149.87984 212.58767,152.37746 212.35194,152.61318 C 212.11624,152.84892 209.50806,151.49328 206.55601,149.60065 L 201.18863,146.15955 L 186.40271,146.06169 C 176.4743,145.99599 169.61202,145.43556 165.51443,144.35581 C 162.15812,143.4714 159.26053,142.89934 159.07531,143.08456 C 158.89009,143.26978 165.46606,153.3459 173.68858,165.47596 C 181.91109,177.606 188.38824,187.78097 188.08224,188.08698 C 187.77623,188.39299 178.32622,182.40733 167.08222,174.7855 C 155.8382,167.16367 146.41525,160.92764 146.14232,160.92764 C 145.86938,160.92764 145.64607,163.73541 145.64607,167.16713 C 145.64607,172.76258 146.19585,174.41838 150.97228,183.20833 C 155.73205,191.9676 156.29617,193.65996 156.27652,199.12097 C 156.25543,204.98008 153.8764,211.85208 151.8691,211.85208 C 151.39948,211.85208 150.72193,209.71217 150.36346,207.09673 C 149.42826,200.27352 145.67084,194.57638 139.13877,190.07744 C 134.86066,187.13091 132.02611,183.93476 127.639,177.11071 C 124.43679,172.12973 121.51676,168.39872 121.15004,168.81959 C 120.78331,169.24045 118.77828,178.75119 116.69441,189.95457 C 111.67269,216.95249 110.99633,219.99999 110.02601,219.99999 C 109.573,219.99999 108.95152,218.96877 108.64494,217.70839 z M 81.43226,200.71684 C 82.4427,198.71877 84.50568,193.0102 86.01666,188.03113 C 88.35607,180.32217 89.52385,178.1747 93.88313,173.56527 L 99.00237,168.15228 L 97.24417,158.38717 L 95.48597,148.62208 L 90.40623,159.52092 C 85.47594,170.09907 84.26666,174.68451 81.6523,192.7147 C 81.08134,196.65231 79.75638,200.81976 78.5261,202.54757 C 77.35171,204.1969 76.39084,205.87545 76.39084,206.27771 C 76.39084,207.81359 79.67571,204.19027 81.43226,200.71684 z M 108.98154,177.36406 L 108.98154,147.96849 L 103.21024,146.80941 C 100.03604,146.17192 97.33249,145.76491 97.20235,145.90495 C 96.9017,146.22845 108.351,206.75964 108.71284,206.75964 C 108.86062,206.75964 108.98154,193.53162 108.98154,177.36406 z M 117.54429,175.18649 C 120.57384,159.22167 122.94199,146.04497 122.8068,145.90495 C 122.67164,145.76491 119.96395,146.17192 116.78975,146.80941 L 111.01846,147.96849 L 111.1366,177.61868 C 111.20158,193.92629 111.43053,206.5814 111.64537,205.74115 C 111.8602,204.90089 114.51473,191.15129 117.54429,175.18649 z M 77.5127,200.14291 C 78.56293,197.76863 80.09027,190.7412 80.90679,184.52641 C 82.35837,173.47804 83.41232,170.24722 91.01385,153.5436 C 92.47967,150.32262 93.42314,147.68729 93.11046,147.68729 C 92.79779,147.68729 89.67485,149.73328 86.17061,152.23391 L 79.79925,156.78056 L 77.51757,167.00007 C 75.5883,175.64116 75.34378,178.83226 75.93443,187.66102 C 76.49642,196.06124 76.31773,198.85652 75.02042,201.95955 C 72.82065,207.22117 75.12457,205.54184 77.5127,200.14291 z M 154.4963,197.62256 C 154.10446,194.314 152.11417,189.25283 148.75291,183.01753 C 143.95729,174.12144 143.60915,172.9879 143.60915,166.26967 L 143.60915,159.06373 L 135.71609,153.49885 C 131.37492,150.43817 127.70531,148.0344 127.56143,148.15713 C 127.18065,148.4819 134.94096,169.18903 136.76248,172.70865 C 137.61272,174.35154 140.94514,178.90397 144.16783,182.82514 C 150.32379,190.31534 153.73389,196.55385 153.77138,200.39408 C 153.78368,201.65446 154.08673,202.68568 154.44484,202.68568 C 154.80294,202.68568 154.8261,200.40728 154.4963,197.62256 z M 149.80307,194.25924 C 148.64131,191.89167 145.15086,186.80843 142.04655,182.96313 C 135.3617,174.68267 133.92549,171.97287 128.74819,157.87217 L 124.82165,147.17804 L 123.56913,153.79822 C 122.88023,157.43931 122.30059,161.56419 122.28104,162.96461 C 122.22016,167.32627 133.50249,183.59379 139.83087,188.26898 C 145.81303,192.6884 149.18354,196.4253 150.38358,199.96882 C 151.02739,201.8699 151.18563,201.92563 151.52329,200.37017 C 151.73894,199.37673 150.96486,196.62681 149.80307,194.25924 z M 83.32343,151.96763 L 94.83907,144.24026 L 91.98033,142.78446 C 90.40802,141.98377 88.0732,140.37171 86.79185,139.20209 L 84.46212,137.07555 L 62.85806,158.74623 L 41.254,180.41693 L 56.53089,170.05597 C 64.93318,164.35745 76.98982,156.2177 83.32343,151.96763 z M 157.13895,158.67724 L 135.53788,137.07555 L 133.20815,139.20209 C 131.92679,140.37171 129.61503,141.97169 128.07088,142.75762 L 125.26334,144.18659 L 151.49544,162.14002 C 165.92309,172.0144 177.95534,180.13516 178.23378,180.18618 C 178.5122,180.23719 169.01952,170.55816 157.13895,158.67724 z M 80.80194,133.21202 C 79.63237,131.93063 78.02035,129.59574 77.21969,128.02339 L 75.76393,125.16456 L 68.03678,136.68055 C 63.78684,143.01433 55.64733,155.07132 49.94896,163.47386 L 39.5883,178.75119 L 61.25838,157.14651 L 82.92843,135.54182 L 80.80194,133.21202 z M 169.92668,163.21923 C 164.29671,154.95674 156.21316,143.01433 151.96322,136.68055 L 144.23607,125.16456 L 142.78031,128.02339 C 141.97965,129.59574 140.36896,131.92923 139.201,133.20889 L 137.07744,135.53556 L 158.41186,156.88876 C 170.14578,168.63302 179.84002,178.24195 179.95463,178.24195 C 180.06922,178.24195 175.55664,171.48172 169.92668,163.21923 z M 36.98778,148.75724 C 45.88362,143.96148 47.01713,143.61333 53.73516,143.61333 L 60.9409,143.61333 L 66.50561,135.72004 C 69.5662,131.37873 71.9699,127.70902 71.84718,127.56513 C 71.5224,127.18434 50.81589,134.94488 47.29637,136.76645 C 45.65352,137.61672 41.15196,140.90132 37.29289,144.06555 C 29.46003,150.48807 26.29598,152.33859 20.6633,153.79145 C 17.00004,154.73632 17.07195,154.7634 22.12856,154.34311 C 26.02803,154.019 29.99075,152.52935 36.98778,148.75724 z M 28.93254,148.04657 C 31.13651,146.588 35.40047,143.3903 38.40801,140.94055 C 45.08609,135.50102 48.42845,133.78385 62.13241,128.75193 L 72.82623,124.82527 L 66.20625,123.57272 C 62.56526,122.8838 58.4405,122.30415 57.04012,122.2846 C 52.7519,122.22474 36.41859,133.50058 31.81866,139.69645 C 27.29515,145.7894 25.32556,147.67472 20.88481,150.1625 L 17.82944,151.87417 L 21.37738,151.28633 C 23.32875,150.96302 26.72857,149.50512 28.93254,148.04657 z M 125.09535,142.57584 C 132.29659,139.47786 140.60011,130.54316 143.51258,122.75866 C 148.61589,109.11841 145.55886,95.424103 135.06876,84.933693 C 124.57747,74.442103 110.94791,71.401513 97.18403,76.482083 C 88.82188,79.568753 79.56644,88.824463 76.47986,97.186863 C 71.57882,110.46514 74.46034,124.32766 84.25628,134.59798 C 95.11762,145.98531 110.28344,148.94793 125.09535,142.57584 z M 108.21769,135.78183 C 109.19797,135.52566 110.80203,135.52566 111.78231,135.78183 C 112.76257,136.03801 111.96053,136.24762 110,136.24762 C 108.03946,136.24762 107.23743,136.03801 108.21769,135.78183 z M 98.28772,129.89752 C 94.92681,128.59463 91.83324,127.73734 91.41312,127.99243 C 90.993,128.2475 90.64927,127.75781 90.64927,126.9042 C 90.64927,126.0506 91.68046,124.80271 92.9408,124.13112 C 95.01869,123.0239 95.10202,123.06804 93.83456,124.60454 C 92.14135,126.65716 92.10688,126.65536 98.35748,124.84167 C 101.11988,124.04013 106.35901,123.38433 110,123.38433 C 113.64099,123.38433 118.88013,124.04013 121.64251,124.84167 C 127.89313,126.65536 127.85865,126.65716 126.16543,124.60454 C 124.89798,123.06804 124.98131,123.0239 127.0592,124.13112 C 128.31953,124.80271 129.35072,126.09994 129.35072,127.01384 C 129.35072,127.92775 129.06894,128.39369 128.72453,128.04928 C 128.38012,127.70486 125.11741,128.54511 121.47405,129.9165 C 113.18903,133.03507 106.36694,133.02948 98.28772,129.89752 z M 117.12921,128.84524 C 120.48015,127.55476 120.05281,127.47252 110,127.47327 C 99.76779,127.47402 99.48203,127.53201 103.38001,128.81672 C 108.63133,130.54747 112.68725,130.55589 117.12921,128.84524 z M 95.91034,120.18809 C 96.18534,119.34783 97.41069,118.51323 98.63334,118.33341 C 99.85599,118.1536 101.55051,116.66406 102.39894,115.02333 C 104.2,111.54038 105.35299,111.06962 104.35115,114.22627 C 103.76516,116.07258 103.98654,116.32626 105.77538,115.85844 C 107.06387,115.52149 107.80736,115.76227 107.67364,116.47321 C 107.55276,117.11597 108.59962,117.64186 110,117.64186 C 111.40038,117.64186 112.44724,117.11597 112.32635,116.47321 C 112.19264,115.76227 112.93613,115.52149 114.22461,115.85844 C 116.01346,116.32626 116.23484,116.07258 115.64885,114.22627 C 114.64701,111.06962 115.8,111.54038 117.60106,115.02333 C 118.44949,116.66406 120.14401,118.1536 121.36666,118.33341 C 122.58931,118.51323 123.81466,119.34783 124.08966,120.18809 C 124.48165,121.38575 124.27885,121.46617 123.15097,120.56031 C 120.62358,118.5304 115.03213,117.83911 112.42536,119.23424 C 110.46022,120.28598 109.53978,120.28598 107.57464,119.23424 C 104.96787,117.83911 99.37643,118.5304 96.84902,120.56031 C 95.72115,121.46617 95.51835,121.38575 95.91034,120.18809 z M 90.64927,104.55784 C 89.2489,103.8201 88.20204,102.72806 88.32292,102.1311 C 88.44599,101.52334 87.66168,101.27611 86.54061,101.56928 C 83.5198,102.35927 84.13397,101.05351 87.84851,98.788653 C 94.21096,94.909283 104.98635,96.794023 103.48525,101.5237 C 102.23404,105.46601 95.42726,107.07499 90.64927,104.55784 z M 91.96283,101.85528 C 91.66987,100.73494 91.02531,99.818303 90.53049,99.818303 C 89.15223,99.818303 89.4617,102.63578 90.90389,103.21773 C 91.60408,103.50027 92.24863,103.76763 92.33623,103.81185 C 92.42382,103.85607 92.25579,102.97562 91.96283,101.85528 z M 102.26952,100.68787 C 101.4149,99.305033 100.40142,99.664533 99.04893,101.83026 C 97.87486,103.71029 97.95689,103.76731 100.29969,102.69982 C 101.67866,102.0715 102.56508,101.16612 102.26952,100.68787 z M 119.44315,104.69618 C 116.27323,103.1662 115.38863,99.809783 117.70829,98.113553 C 120.49046,96.079133 128.30687,96.444483 132.15149,98.788653 C 135.86603,101.05351 136.4802,102.35927 133.45938,101.56928 C 132.33833,101.27611 131.55399,101.52334 131.67708,102.1311 C 131.97667,103.61055 127.38098,105.91141 124.25843,105.8453 C 122.85805,105.81564 120.69118,105.29854 119.44315,104.69618 z M 121.10671,102.1099 C 120.35641,101.12961 119.64332,100.16708 119.52208,99.970943 C 119.40084,99.774803 118.75094,99.954713 118.07784,100.37071 C 117.23483,100.89173 117.60988,101.54607 119.28315,102.47358 C 122.50345,104.25863 122.71851,104.21574 121.10671,102.1099 z M 130.36918,101.23707 C 130.36918,99.120213 128.64679,99.523983 128.0571,101.77908 C 127.6974,103.1546 127.96593,103.57808 128.95677,103.19784 C 129.73359,102.89974 130.36918,102.0174 130.36918,101.23707 z M 102.34818,96.047133 C 97.70021,92.888663 92.64691,92.622013 87.53514,95.265493 C 85.52167,96.306723 83.94423,96.575933 83.34831,95.979993 C 82.15378,94.785433 91.42662,90.651913 95.30093,90.651913 C 98.55717,90.651913 104.5054,94.108053 105.97487,96.853873 C 107.31451,99.357063 107.17258,99.325503 102.34818,96.047133 z M 113.90223,97.083483 C 115.478,94.139063 121.33196,90.651913 124.69906,90.651913 C 128.59294,90.651913 137.8463,94.785353 136.64401,95.987673 C 136.03785,96.593843 134.79808,96.479463 133.30324,95.679423 C 126.79265,92.194953 121.7433,92.694903 115.1882,97.473023 C 112.77857,99.229433 112.75725,99.222983 113.90223,97.083483 z M 205.15461,145.53489 C 203.65886,143.11463 195.33781,140.51848 184.52105,139.09725 C 173.473,137.64562 170.24227,136.59165 153.53914,128.98989 C 150.31825,127.52403 147.683,126.58054 147.683,126.89322 C 147.683,127.2059 149.72893,130.32893 152.22949,133.83328 L 156.77601,140.20482 L 166.99522,142.48657 C 175.62457,144.41333 178.8388,144.66058 187.65557,144.07588 C 195.95426,143.52553 198.82816,143.70346 201.66133,144.94304 C 206.14852,146.90627 205.98502,146.87858 205.15461,145.53489 z M 205.67339,142.01115 C 203.65636,139.58071 198.03539,137.02501 188.02567,133.98724 C 180.31693,131.64775 178.16952,130.47994 173.56023,126.12053 L 168.1474,121.00115 L 158.38257,122.75939 L 148.61776,124.51764 L 159.51629,129.59753 C 170.09768,134.52962 174.66597,135.73407 192.73829,138.35672 C 196.75854,138.94013 200.76627,140.22173 202.41366,141.45074 C 205.76438,143.95049 207.53555,144.25499 205.67339,142.01115 z M 74.02464,120.95195 C 73.72208,119.69157 73.16308,116.94165 72.78242,114.84101 L 72.09031,111.02168 L 42.41373,111.16038 C 26.0916,111.23667 13.65375,111.49134 14.77406,111.72632 C 18.91881,112.5957 72.85733,123.04593 73.70049,123.14295 C 74.18133,123.19828 74.32719,122.21233 74.02464,120.95195 z M 177.21831,117.12266 C 192.06235,114.325 204.89494,111.86095 205.73517,111.647 C 206.5754,111.43303 193.9084,111.20481 177.58627,111.13983 L 147.90968,111.02168 L 147.21757,114.84101 C 146.83691,116.94165 146.27223,119.7142 145.96275,121.00223 C 145.47213,123.04398 145.70946,123.2714 147.81458,122.77671 C 149.14258,122.46464 162.37426,119.92032 177.21831,117.12266 z M 73.19484,103.21324 C 73.83231,100.03894 74.23932,97.331193 74.09929,97.196013 C 73.87232,96.976903 18.0453,107.39111 14.26483,108.35777 C 13.4246,108.57263 26.07934,108.80158 42.38647,108.86656 L 72.03581,108.9847 L 73.19484,103.21324 z M 205.73517,108.35777 C 201.9547,107.39111 146.12769,96.976903 145.90071,97.196013 C 145.76068,97.331193 146.16767,100.03894 146.80515,103.21324 L 147.96419,108.9847 L 177.61352,108.86656 C 193.92066,108.80158 206.5754,108.57263 205.73517,108.35777 z M 62.26863,97.137633 L 71.35371,95.475453 L 60.46945,90.402213 C 49.90678,85.478853 45.31563,84.268393 27.2909,81.654673 C 23.35339,81.083703 19.18608,79.758703 17.45831,78.528383 C 13.90726,75.999733 12.46706,75.754553 14.32661,77.995243 C 16.34469,80.426953 21.96586,82.981753 31.99501,86.025473 C 39.71819,88.369353 41.83984,89.521363 46.25344,93.767493 C 49.10527,96.511103 51.83121,98.765763 52.31107,98.777843 C 52.79094,98.789933 57.27184,98.051833 62.26863,97.137633 z M 174.8226,91.755943 C 181.31603,87.573103 185.36402,84.104703 188.18134,80.309943 C 192.70485,74.217003 194.67443,72.331673 199.11518,69.843883 L 202.17057,68.132203 L 198.62261,68.720063 C 194.72023,69.366633 189.91859,72.283533 181.59199,79.065843 C 174.92054,84.499973 171.58566,86.214643 157.86758,91.264073 L 147.17377,95.200323 L 153.28452,96.379813 C 163.86646,98.422333 164.77721,98.226813 174.8226,91.755943 z M 80.80194,86.794373 L 82.92843,84.464573 L 61.25838,62.859893 L 39.5883,41.2552 L 49.94896,56.53254 C 55.64733,64.935073 63.78684,76.992063 68.03678,83.325853 L 75.76393,94.841833 L 77.21969,91.983003 C 78.02035,90.410643 79.63237,88.075763 80.80194,86.794373 z M 159.40785,72.319103 C 167.14459,60.835653 175.07461,49.14849 177.03012,46.34765 C 179.30613,43.08775 172.77392,49.01206 158.87785,62.810613 L 137.17012,84.366013 L 139.81002,87.503463 C 141.26198,89.229063 142.75629,91.606163 143.13072,92.785923 C 143.50515,93.965663 144.15565,94.541033 144.57628,94.064523 C 144.9969,93.588003 151.67111,83.802573 159.40785,72.319103 z M 67.87121,86.314253 L 63.22399,79.801563 L 53.00478,77.519823 C 44.36394,75.590503 41.17293,75.345963 32.34442,75.936643 C 23.94446,76.498643 21.14926,76.319953 18.04632,75.022603 C 15.92499,74.135673 14.49464,73.903973 14.86776,74.507703 C 16.33385,76.879953 24.69588,79.492343 35.27063,80.881773 C 46.55741,82.364763 50.61009,83.640063 64.1667,89.974833 C 68.36639,91.937273 71.96358,93.381813 72.16047,93.184923 C 72.35735,92.988033 70.42719,89.896233 67.87121,86.314253 z M 159.06517,88.737393 C 172.79599,83.643513 174.31714,82.820173 182.70711,75.940843 C 190.53996,69.518313 193.70402,67.667803 199.3367,66.214943 C 202.98237,65.274613 202.90151,65.245283 197.82956,65.668243 C 193.89475,65.996373 190.10461,67.413503 183.57113,70.999503 C 175.61273,75.367573 173.82869,75.937653 166.69187,76.393063 L 158.71159,76.902313 L 153.16798,84.795603 C 150.11898,89.136903 147.80196,92.688893 148.01904,92.688893 C 148.2361,92.688893 153.20687,90.910713 159.06517,88.737393 z M 86.63274,80.907213 C 87.36159,80.028993 89.50883,78.514743 91.40441,77.542223 L 94.85091,75.774013 L 83.32934,68.042703 C 76.99248,63.790473 64.93318,55.64778 56.53089,49.94782 L 41.254,39.584261 L 62.63255,61.044133 C 74.39075,72.847063 84.3028,82.504003 84.65933,82.504003 C 85.01586,82.504003 85.90389,81.785453 86.63274,80.907213 z M 157.36745,61.044133 L 178.746,39.584261 L 163.46911,49.94782 C 155.06682,55.64778 143.00752,63.790473 136.67066,68.042703 L 125.14909,75.774013 L 128.59559,77.542223 C 130.49117,78.514743 132.63841,80.028993 133.36726,80.907213 C 134.09611,81.785453 134.98414,82.504003 135.34066,82.504003 C 135.69719,82.504003 145.60925,72.847063 157.36745,61.044133 z M 105.16232,72.784543 L 108.98154,72.092413 L 108.8634,42.41496 C 108.79842,26.092371 108.5702,13.424991 108.35624,14.265251 C 108.1423,15.105501 105.67832,27.938461 102.88074,42.78293 C 100.08317,57.62741 97.53891,70.859473 97.22685,72.187523 C 96.73218,74.292693 96.95959,74.530033 99.00128,74.039413 C 100.28927,73.729903 103.06174,73.165213 105.16232,72.784543 z M 122.74227,72.064493 C 122.44719,70.804113 119.91683,57.62741 117.11925,42.78293 C 114.32168,27.938461 111.8577,15.105501 111.64375,14.265251 C 111.4298,13.424991 111.20158,26.093791 111.1366,42.41813 L 111.01846,72.098753 L 115.85614,73.107013 C 123.18181,74.633823 123.33826,74.610153 122.74227,72.064493 z M 88.74182,60.955463 C 83.64051,47.20384 82.81914,45.68587 75.93863,37.293971 C 69.51629,29.460891 67.66583,26.296751 66.21302,20.663901 C 65.26817,17.000541 65.24109,17.072451 65.66137,22.129211 C 65.98547,26.028791 67.47509,29.991621 71.24709,36.988861 C 76.04269,45.88495 76.39084,47.0185 76.39084,53.73673 L 76.39084,60.942673 L 84.28391,66.507543 C 88.62508,69.568223 92.29469,71.971993 92.43858,71.849273 C 92.58246,71.726533 90.91892,66.824323 88.74182,60.955463 z M 97.71895,57.04178 C 97.77881,52.75344 86.5033,36.419651 80.30761,31.819591 C 74.21484,27.295951 72.32957,25.326301 69.84186,20.885421 L 68.13023,17.829961 L 68.71806,21.378001 C 69.36461,25.280511 72.28143,30.082291 79.06354,38.409131 C 84.50291,45.0874 86.22003,48.42986 91.25182,62.134223 L 95.17835,72.828353 L 96.43088,66.208173 C 97.11977,62.567083 97.6994,58.4422 97.71895,57.04178 z M 133.82939,67.772463 L 140.20075,63.225833 L 142.48243,53.00633 C 144.4117,44.36523 144.65622,41.17413 144.06557,32.345371 C 143.50358,23.945161 143.68227,21.149881 144.97957,18.046851 C 145.86648,15.925461 146.09818,14.495071 145.49446,14.868191 C 143.10917,16.342431 140.50651,24.722871 139.09321,35.479981 C 137.64162,46.52835 136.58768,49.75917 128.98614,66.462793 C 127.52033,69.683773 126.57686,72.319103 126.88954,72.319103 C 127.20221,72.319103 130.32515,70.273123 133.82939,67.772463 z M 133.06808,52.58499 C 134.58686,48.9884 136.18621,42.0797 137.07631,35.270681 C 138.78849,22.173021 139.13605,20.813631 141.70585,17.163491 C 144.02852,13.864381 144.17001,12.531861 142.00703,14.327031 C 139.57666,16.344111 137.02103,21.965261 133.98334,31.975271 C 131.64393,39.684221 130.47615,41.83169 126.11687,46.44112 L 120.99764,51.85411 L 122.74883,61.580333 L 124.50003,71.306553 L 127.52048,64.938033 C 129.18173,61.435343 131.67815,55.87648 133.06808,52.58499 z "
         id="path1508" />
    </g>
  </g>
</svg>
