<?xml version="1.0" encoding="UTF-8" ?>
<!DOCTYPE svg PUBLIC "-//W3C//DTD SVG 1.1//EN" "http://www.w3.org/Graphics/SVG/1.1/DTD/svg11.dtd">
<svg width="340pt" height="226pt" viewBox="0 0 340 226" version="1.1" xmlns="http://www.w3.org/2000/svg">
<path fill="#ffa26d" d=" M 0.00 0.00 L 340.00 0.00 L 340.00 226.00 L 0.00 226.00 L 0.00 0.00 Z" />
<path fill="#000000" d=" M 170.07 29.97 C 170.78 29.97 172.21 29.97 172.92 29.97 C 176.56 37.07 176.59 45.21 177.15 52.97 C 177.92 62.03 178.93 71.07 179.90 80.11 C 180.44 85.25 179.01 90.33 177.14 95.07 C 174.81 101.15 174.91 107.75 174.05 114.12 C 176.20 110.61 178.00 106.84 180.75 103.73 C 187.95 96.44 198.58 92.55 208.78 94.16 C 215.95 95.30 221.79 100.37 226.15 105.90 C 229.63 111.88 231.19 119.36 229.09 126.09 C 228.56 128.05 226.87 129.35 225.60 130.82 C 225.66 127.25 226.26 123.53 224.95 120.09 C 222.43 113.12 216.11 107.53 208.78 106.22 C 201.57 105.10 193.89 106.69 187.87 110.86 C 182.64 115.23 177.43 120.89 177.00 128.05 C 176.63 131.40 177.50 134.69 178.74 137.77 C 177.85 138.91 176.95 140.04 176.03 141.16 C 177.05 142.72 178.11 144.26 179.13 145.82 C 176.25 151.11 176.97 157.24 176.95 163.02 C 176.90 168.03 178.02 172.95 177.97 177.96 C 178.04 181.21 177.75 184.51 178.34 187.73 C 179.09 190.26 180.47 192.53 181.48 194.96 C 174.83 197.92 166.25 198.51 160.05 194.21 C 161.05 192.16 162.52 190.24 162.79 187.92 C 163.44 180.96 164.01 173.99 163.88 167.00 C 163.73 161.18 165.97 155.34 164.31 149.59 C 162.70 145.50 165.17 141.17 163.29 137.12 C 167.09 132.81 165.94 126.86 164.00 121.99 C 157.69 105.33 132.45 100.12 120.27 113.28 C 116.05 117.80 116.76 124.42 114.37 129.77 C 107.35 115.25 117.74 95.48 134.05 93.97 C 143.19 92.06 152.74 95.34 159.67 101.35 C 163.01 104.93 165.41 109.23 168.05 113.31 C 167.98 109.50 167.54 105.71 167.10 101.92 C 166.93 94.94 161.22 89.27 162.01 82.12 C 163.68 67.48 165.70 52.88 167.29 38.23 C 167.71 35.33 168.91 32.63 170.07 29.97 Z" />
</svg>
