<?xml version="1.0" encoding="UTF-8" standalone="no"?>
<svg
   xmlns:dc="http://purl.org/dc/elements/1.1/"
   xmlns:cc="http://creativecommons.org/ns#"
   xmlns:rdf="http://www.w3.org/1999/02/22-rdf-syntax-ns#"
   xmlns:svg="http://www.w3.org/2000/svg"
   xmlns="http://www.w3.org/2000/svg"
   xmlns:sodipodi="http://sodipodi.sourceforge.net/DTD/sodipodi-0.dtd"
   xmlns:inkscape="http://www.inkscape.org/namespaces/inkscape"
   width="900"
   height="600"
   id="svg2"
   version="1.1"
   inkscape:version="0.47 r22583"
   sodipodi:docname="volapuk.svg"
   inkscape:export-filename="/home/mixcoatl/Bureaublad/New Folder/volapuk.png"
   inkscape:export-xdpi="4.1999998"
   inkscape:export-ydpi="4.1999998">
  <metadata
     id="metadata37">
    <rdf:RDF>
      <cc:Work
         rdf:about="">
        <dc:format>image/svg+xml</dc:format>
        <dc:type
           rdf:resource="http://purl.org/dc/dcmitype/StillImage" />
        <dc:title />
      </cc:Work>
    </rdf:RDF>
  </metadata>
  <defs
     id="defs35">
    <inkscape:perspective
       sodipodi:type="inkscape:persp3d"
       inkscape:vp_x="0 : 300 : 1"
       inkscape:vp_y="0 : 1000 : 0"
       inkscape:vp_z="900 : 300 : 1"
       inkscape:persp3d-origin="450 : 200 : 1"
       id="perspective39" />
  </defs>
  <sodipodi:namedview
     pagecolor="#ffffff"
     bordercolor="#666666"
     borderopacity="1"
     objecttolerance="10"
     gridtolerance="10"
     guidetolerance="10"
     inkscape:pageopacity="0"
     inkscape:pageshadow="2"
     inkscape:window-width="1024"
     inkscape:window-height="695"
     id="namedview33"
     showgrid="false"
     inkscape:zoom="0.42666667"
     inkscape:cx="450"
     inkscape:cy="300"
     inkscape:window-x="-3"
     inkscape:window-y="0"
     inkscape:window-maximized="1"
     inkscape:current-layer="svg2" />
  <rect
     fill="#800080"
     width="900"
     height="600"
     id="rect4" />
  <path
     id="_278172720"
     class="fil2"
     d="m 449.53468,521.74801 c -120.97187,0 -219.03952,-98.06766 -219.03952,-219.03953 0,-120.97187 98.06765,-219.039528 219.03952,-219.039528 120.97187,0 219.03951,98.067658 219.03951,219.039528 0,120.97187 -98.06764,219.03953 -219.03951,219.03953 z"
     style="fill:none" />
  <path
     id="_278172576"
     class="fil3"
     d="m 270.91599,110.94835 29.09219,17.71194 -12.51652,-31.912636 c -0.66462,-1.680197 -1.10213,-2.864124 -1.30303,-3.55812 -0.21836,-0.694779 -0.2398,-1.452309 -0.0794,-2.288432 0.15325,-0.829769 0.66701,-1.612703 1.54204,-2.347193 0.63524,-0.532804 1.36417,-0.866301 2.17171,-1.002886 0.81548,-0.143637 1.59761,-0.08255 2.35275,0.190572 0.748,0.263623 1.34908,0.666211 1.80327,1.206952 0.30969,0.369232 0.58919,0.807541 0.84646,1.322876 0.266,0.508197 0.48277,1.028292 0.67414,1.570628 0.19931,0.534385 0.39782,1.08386 0.61935,1.644462 l 11.28973,31.582317 c 0.44466,1.19107 0.86154,2.3337 1.24189,3.43265 0.37399,1.09103 0.61776,2.12964 0.72973,3.11743 0.11433,0.9727 -0.0116,1.95572 -0.36845,2.94194 -0.36526,0.99493 -1.04972,1.90491 -2.05339,2.74738 -1.00447,0.84248 -2.02005,1.35862 -3.04674,1.54681 -1.02671,0.18818 -2.02483,0.14928 -2.99436,-0.13493 -0.96793,-0.29936 -1.95731,-0.71147 -2.96654,-1.26889 -1.00129,-0.54868 -2.0542,-1.15851 -3.14203,-1.80963 l -28.82302,-16.5193 c -0.51374,-0.31524 -1.03703,-0.60744 -1.54441,-0.89807 -0.51534,-0.28426 -1.01876,-0.62252 -1.54045,-1.01796 -0.52327,-0.39543 -0.91237,-0.75593 -1.2006,-1.09896 -0.71306,-0.84962 -1.02511,-1.9184 -0.92903,-3.1984 0.096,-1.28001 0.66779,-2.35991 1.70561,-3.23097 1.27126,-1.0664 2.49568,-1.43643 3.68356,-1.10134 1.17917,0.34143 2.76407,1.1323 4.75554,2.37181 z m 58.78072,-47.992055 c 4.4522,-2.268585 8.72416,-3.313547 12.83969,-3.134088 4.10521,0.184217 7.82293,1.508675 11.15394,3.998808 3.33103,2.490118 6.13877,5.976768 8.4272,10.468684 1.68893,3.31433 2.77121,6.547686 3.25638,9.721485 0.4796,3.163468 0.34223,6.200695 -0.44228,9.102919 -0.78452,2.902239 -2.21778,5.544017 -4.28467,7.930117 -2.08039,2.38055 -4.80635,4.43554 -8.18104,6.15465 -3.35405,1.70958 -6.63345,2.70134 -9.84297,2.96574 -3.19524,0.26998 -6.18958,-0.12869 -8.96874,-1.18867 -2.77836,-1.06164 -5.32724,-2.75613 -7.64427,-5.05886 -2.31781,-2.30273 -4.29339,-5.068388 -5.93071,-8.28268 -1.6786,-3.294482 -2.75056,-6.558017 -3.20158,-9.7866 -0.45499,-3.238899 -0.27791,-6.272151 0.53756,-9.114034 0.80992,-2.852212 2.23365,-5.439205 4.29023,-7.768929 2.05181,-2.340853 4.71741,-4.340257 7.99126,-6.008542 z m 23.5863,15.76019 c -1.60239,-3.145201 -3.49538,-5.60118 -5.67822,-7.392544 -2.18838,-1.77787 -4.52605,-2.787097 -7.01299,-3.003872 -2.47742,-0.221534 -4.9342,0.287447 -7.37986,1.534095 -1.73736,0.884568 -3.16665,2.028784 -4.31324,3.430269 -1.13152,1.406258 -1.91604,3.000694 -2.34879,4.792856 -0.42243,1.78659 -0.44704,3.811413 -0.0794,6.06411 0.37797,2.247156 1.18233,4.590373 2.4131,7.006656 1.24189,2.436117 2.67434,4.484763 4.28626,6.141137 1.62063,1.650818 3.32386,2.845858 5.10332,3.573988 1.77865,0.72734 3.56048,1.03941 5.34311,0.93618 1.77867,-0.0889 3.53827,-0.58283 5.27485,-1.4674 2.22649,-1.134681 3.97896,-2.731497 5.28039,-4.791258 1.30223,-2.058962 1.90491,-4.529232 1.81756,-7.414786 -0.0715,-2.880794 -0.97666,-6.01568 -2.70609,-9.409431 z m 33.47453,-30.878791 7.28217,34.259049 19.33181,-4.109191 c 1.53489,-0.326344 2.79741,-0.204863 3.78045,0.376386 0.99096,0.568539 1.59681,1.42451 1.83661,2.553652 0.24695,1.161684 0.0397,2.179646 -0.61777,3.074529 -0.65984,0.884568 -1.77707,1.500754 -3.33339,1.831857 l -23.0249,4.893707 c -2.07167,0.440688 -3.67088,0.29856 -4.77698,-0.427993 -1.1053,-0.727352 -1.87077,-2.121684 -2.3067,-4.171912 l -7.7054,-36.253679 c -0.40813,-1.917618 -0.27712,-3.45727 0.38352,-4.605461 0.66144,-1.14899 1.69767,-1.873149 3.11186,-2.174089 1.42531,-0.302536 2.68626,-0.07777 3.77647,0.686045 1.09103,0.765466 1.85013,2.127255 2.26225,4.0671 z m 75.31192,30.933591 -2.19155,-6.077619 -19.55892,-0.341433 -2.40435,6.132403 c -0.94968,2.392445 -1.73976,4.003567 -2.39326,4.83335 -0.64159,0.82897 -1.69051,1.236317 -3.13568,1.210913 -1.22124,-0.02147 -2.30034,-0.488335 -3.22541,-1.400702 -0.92585,-0.91315 -1.37845,-1.940644 -1.35861,-3.083264 0.0116,-0.650324 0.13581,-1.330827 0.3605,-2.021646 0.23583,-0.701932 0.61221,-1.670665 1.13786,-2.905401 l 12.85638,-31.028884 c 0.36288,-0.89011 0.80834,-1.958112 1.32208,-3.20476 0.51533,-1.256963 1.04894,-2.28923 1.62381,-3.108683 0.5741,-0.819453 1.32607,-1.478512 2.2424,-1.97796 0.91633,-0.499463 2.04068,-0.737667 3.37389,-0.714642 1.35543,0.02379 2.48218,0.301738 3.38025,0.832946 0.89885,0.531223 1.6262,1.204573 2.17249,2.020848 0.5352,0.816276 0.99018,1.698464 1.36656,2.635438 0.36367,0.936175 0.82422,2.187596 1.39116,3.744716 l 12.02739,31.271847 c 0.94491,2.381332 1.40706,4.104417 1.38799,5.179557 -0.019,1.108481 -0.5074,2.120088 -1.4531,3.033238 -0.94649,0.913948 -2.07484,1.364967 -3.385,1.341941 -0.76229,-0.01306 -1.42055,-0.158812 -1.96447,-0.448639 -0.54393,-0.278712 -0.99733,-0.655881 -1.35861,-1.133102 -0.3613,-0.477221 -0.75196,-1.212509 -1.1609,-2.193937 -0.40813,-0.982241 -0.76387,-1.839808 -1.0529,-2.596525 z m -19.06898,-13.689331 14.38412,0.250913 -6.91296,-19.978153 -7.47116,19.72724 z m 64.24932,7.173404 -8.73529,-1.856479 -2.83235,13.327237 c -0.40577,1.907303 -1.16011,3.24685 -2.26859,4.041682 -1.10849,0.795644 -2.35276,1.046557 -3.72248,0.755933 -1.42451,-0.303319 -2.48376,-1.032252 -3.15395,-2.194735 -0.66938,-1.160901 -0.80199,-2.690222 -0.40337,-4.564169 l 7.71256,-36.286237 c 0.44466,-2.093101 1.24664,-3.492207 2.40119,-4.186203 1.15533,-0.693198 2.77438,-0.819453 4.8794,-0.371612 l 12.23066,2.599703 c 3.61608,0.768629 6.33012,1.631753 8.16278,2.606043 1.81438,0.946505 3.29131,2.188394 4.43155,3.724868 1.13708,1.547588 1.87872,3.285763 2.21936,5.236722 0.35256,1.953353 0.28347,4.058366 -0.19453,6.304709 -1.02036,4.800792 -3.27068,8.112757 -6.74461,9.963679 -3.48349,1.836616 -8.14214,2.140733 -13.98233,0.898859 z m 2.27334,-22.070471 -6.42144,-1.364966 -3.05866,14.389681 6.42145,1.364952 c 2.24713,0.478019 4.17031,0.646364 5.78223,0.496286 1.60159,-0.152458 2.91811,-0.68606 3.94402,-1.578564 1.01716,-0.905997 1.71036,-2.224913 2.07801,-3.956718 0.44307,-2.082786 0.18818,-3.90115 -0.74958,-5.474143 -1.07356,-1.683374 -3.74392,-2.972112 -7.99603,-3.876528 z m 33.3451,32.226289 10.50918,-20.624502 c 0.89011,-1.746894 1.96129,-2.860947 3.19761,-3.33737 1.23553,-0.477221 2.49807,-0.387499 3.78601,0.26918 1.33796,0.681287 2.18203,1.665109 2.52267,2.945112 0.34145,1.280003 0.0691,2.801388 -0.82103,4.548283 l -10.74819,21.093787 c -1.22045,2.396435 -1.974,4.540346 -2.2535,6.422229 -0.28982,1.877125 0.0231,3.608146 0.93856,5.193848 0.91474,1.584917 2.59732,2.995937 5.0533,4.247347 3.39454,1.72942 6.24754,2.05181 8.57648,0.96237 2.32734,-1.09021 4.42044,-3.46916 6.28723,-7.13369 L 580.7513,75.734057 c 0.89965,-1.766742 1.96606,-2.895884 3.1873,-3.368331 1.22045,-0.471664 2.48774,-0.366853 3.79553,0.299358 1.29827,0.661439 2.13757,1.630172 2.50362,2.910161 0.36606,1.280801 0.0985,2.818073 -0.80119,4.584032 l -10.50918,20.625303 c -1.70878,3.35404 -3.46283,5.98152 -5.25101,7.88723 -1.80328,1.91128 -4.03374,3.25162 -6.71523,4.02263 -2.29479,0.6543 -4.64595,0.77738 -7.04794,0.38274 -2.40755,-0.38432 -4.99057,-1.28556 -7.75623,-2.6942 -3.29448,-1.67861 -5.94659,-3.48267 -7.97141,-5.40744 -2.0145,-1.9192 -3.3874,-4.01468 -4.13618,-6.269774 -0.74004,-2.251115 -0.86154,-4.726942 -0.3851,-7.413988 0.48595,-2.682286 1.55632,-5.645664 3.20396,-8.880602 z m 25.83582,-23.088432 c -0.83772,-0.427195 -1.44992,-1.103708 -1.81837,-2.033543 -0.37399,-0.919505 -0.30094,-1.900934 0.21282,-2.909377 0.49865,-0.978265 1.21964,-1.604767 2.18362,-1.892214 0.94888,-0.283471 1.87632,-0.201685 2.77438,0.255688 0.87901,0.447841 1.50472,1.118811 1.88348,2.004163 0.38432,0.900455 0.29141,1.896188 -0.26282,2.984024 -0.51376,1.008443 -1.2554,1.649236 -2.21936,1.88744 -0.95921,0.253308 -1.87474,0.15166 -2.75375,-0.296181 z m 14.75335,-0.77021 c 0.54869,0.279496 1.00129,0.699552 1.38321,1.258559 0.38115,0.558209 0.58205,1.176774 0.6019,1.853301 0.0158,0.676513 -0.10476,1.292699 -0.39464,1.861238 -0.51375,1.008429 -1.24507,1.653994 -2.18919,1.901731 -0.93935,0.264421 -1.85488,0.16199 -2.75374,-0.296181 -0.85915,-0.437511 -1.47931,-1.118014 -1.84854,-2.048632 -0.37399,-0.919505 -0.30173,-1.900948 0.21201,-2.909377 0.44784,-0.878213 1.16884,-1.478512 2.17409,-1.797718 0.99971,-0.3327 1.93589,-0.270762 2.8149,0.177079 z m 36.03055,44.856356 -11.50808,12.34025 27.60496,-1.54203 c 1.32923,-0.0786 2.3845,-0.0596 3.16426,0.0405 0.78848,0.10635 1.58014,0.52327 2.35831,1.24902 1.02431,0.95524 1.57776,2.03752 1.65081,3.22461 0.0715,1.18631 -0.29538,2.20586 -1.1053,3.07534 -0.97033,1.04021 -2.46631,1.57539 -4.49429,1.59842 l -16.31841,0.1342 -3.36119,23.61488 c -0.21995,1.64844 -0.49707,3.01341 -0.83216,4.0798 -0.34303,1.07434 -0.85121,1.96368 -1.50868,2.66879 -0.72497,0.77816 -1.67146,1.16804 -2.8276,1.17677 -1.15057,0 -2.2535,-0.49231 -3.31037,-1.47772 -0.99096,-0.92507 -1.60397,-1.89458 -1.82948,-2.90143 -0.23344,-0.99811 -0.23026,-2.05261 -0.007,-3.16268 0.22233,-1.11008 0.43354,-2.1074 0.63206,-2.99514 l 3.66531,-20.81825 -11.04595,0.14768 -6.78591,7.27663 c -1.37449,1.47454 -2.72675,2.2519 -4.06392,2.33846 -1.33638,0.0858 -2.5338,-0.37161 -3.58274,-1.34987 -0.61459,-0.5733 -1.04336,-1.27921 -1.30301,-2.11851 -0.2668,-0.84725 -0.29618,-1.66988 -0.0866,-2.50204 0.18264,-0.65667 0.54074,-1.30303 1.04179,-1.93985 0.50104,-0.63524 1.27842,-1.51821 2.32496,-2.64099 l 24.3986,-26.164563 c 1.33717,-1.434042 2.6664,-2.21776 3.96864,-2.35037 1.30461,-0.132609 2.50045,0.308891 3.59066,1.325256 1.06481,0.993355 1.60477,2.155837 1.60397,3.487448 -7.8e-4,1.332409 -0.68128,2.735489 -2.03354,4.185409 z m 5.13429,68.5443 c -0.79722,-1.09657 -1.12833,-2.29639 -1.00049,-3.60735 0.1271,-1.31097 0.83454,-2.43454 2.10342,-3.35642 1.08784,-0.79007 2.28922,-1.0815 3.62163,-0.88615 1.33321,0.19453 2.40755,0.85439 3.21747,1.96922 0.80993,1.11484 1.12119,2.34244 0.92348,3.69152 -0.19772,1.34828 -0.84803,2.41627 -1.95415,3.21985 -1.25061,0.90839 -2.52188,1.23711 -3.81141,0.96873 -1.28874,-0.26838 -2.32337,-0.92982 -3.09995,-1.9994 z"
     style="fill:#fffc00;fill-rule:nonzero" />
  <path
     id="_278172432"
     class="fil3"
     d="m 198.90331,344.84445 26.44644,-11.83841 -29.98947,5.28834 c -1.65955,0.29221 -2.96973,0.1374 -3.92893,-0.45499 -0.96,-0.59157 -1.54758,-1.49996 -1.76278,-2.72358 -0.21122,-1.19424 0.0341,-2.22729 0.7202,-3.13091 0.68764,-0.8933 1.86441,-1.48645 3.54461,-1.78263 l 34.36943,-6.06015 c 1.90093,-0.33508 3.26272,-0.0643 4.10361,0.79881 0.83295,0.87503 1.40149,2.15186 1.69687,3.83047 l 0.482,2.73152 c 0.28902,1.63811 0.34619,2.84902 0.18421,3.64862 -0.16279,0.79008 -0.60189,1.43008 -1.30858,1.92 -0.70591,0.48993 -1.88904,1.11564 -3.54859,1.87713 l -22.68664,10.50917 24.91235,2.11455 c 1.81995,0.14848 3.146,0.33112 3.97657,0.55027 0.83136,0.21836 1.46342,0.67017 1.88823,1.36655 0.42402,0.68764 0.78611,1.85408 1.07514,3.49221 l 0.4796,2.72118 c 0.29618,1.67862 0.19851,3.07216 -0.28427,4.17985 -0.49547,1.09816 -1.68257,1.81916 -3.58352,2.15425 l -34.36941,6.06014 c -1.65955,0.293 -2.96973,0.13812 -3.92893,-0.4542 -0.9592,-0.59234 -1.54839,-1.50947 -1.76834,-2.75374 -0.20645,-1.17439 0.0397,-2.19791 0.73608,-3.10312 0.69718,-0.89409 1.87473,-1.48803 3.53428,-1.78104 l 29.98948,-5.28754 -28.90004,-2.07961 c -1.88109,-0.1374 -3.26193,-0.2795 -4.15127,-0.41449 -0.88932,-0.1358 -1.75245,-0.53598 -2.57588,-1.18313 -0.83374,-0.64555 -1.36496,-1.64684 -1.60554,-3.0126 -0.18184,-1.03225 -0.11114,-1.93032 0.20724,-2.72754 0.32079,-0.78611 0.78847,-1.44198 1.40624,-1.95811 0.6289,-0.51772 1.33241,-0.96478 2.13281,-1.33559 0.79961,-0.37002 1.63891,-0.75831 2.5068,-1.16168 z m 48.00871,54.26817 -7.21389,-18.79266 -10.11612,3.88289 6.64376,17.30778 c 0.48913,1.27444 0.56616,2.3337 0.2398,3.17459 -0.33588,0.84408 -0.96238,1.44834 -1.90253,1.80883 -0.93935,0.3605 -1.81518,0.34462 -2.64495,-0.0414 -0.82423,-0.39861 -1.48963,-1.24347 -1.98273,-2.52823 l -6.64378,-17.30699 -11.71692,4.49825 7.46085,19.43504 c 0.50422,1.31334 0.57647,2.41866 0.22631,3.31274 -0.35653,0.90681 -1.03623,1.54205 -2.04308,1.92795 -0.97826,0.37559 -1.88903,0.35097 -2.76089,-0.0841 -0.85757,-0.42959 -1.54363,-1.29907 -2.04785,-2.61321 l -8.70114,-22.66679 c -0.69558,-1.81201 -0.79721,-3.28019 -0.29776,-4.38629 0.50025,-1.10373 1.6532,-1.99861 3.44615,-2.68625 l 30.96138,-11.88526 c 1.19821,-0.46055 2.24635,-0.6535 3.14045,-0.58918 0.89329,0.0635 1.66273,0.40654 2.29875,1.03146 0.63683,0.62491 1.18075,1.52774 1.63335,2.7069 l 8.4542,22.0244 c 0.51136,1.33321 0.59394,2.43534 0.25489,3.30164 -0.34781,0.87107 -0.9886,1.49122 -1.9478,1.85965 -0.97826,0.37559 -1.8803,0.34699 -2.7212,-0.0675 -0.83136,-0.41688 -1.50789,-1.29112 -2.01925,-2.62431 z m 12.21877,16.64079 -12.94532,28.33864 22.25469,-13.90609 c 1.44516,-0.90363 2.72198,-1.26491 3.83126,-1.09816 1.10848,0.16675 1.99782,0.77418 2.66164,1.83661 0.68049,1.08864 0.85677,2.16616 0.53121,3.25321 -0.33191,1.0791 -1.22441,2.07325 -2.67036,2.97687 L 243.37139,455.539 c -3.28338,2.05261 -5.76954,1.71672 -7.47356,-1.01002 -0.42402,-0.67891 -0.70987,-1.34908 -0.85201,-2.02323 -0.1461,-0.65906 -0.15324,-1.36893 -0.0254,-2.11454 0.12303,-0.73132 0.35176,-1.49121 0.66144,-2.2543 0.31047,-0.76307 0.63841,-1.53726 0.98302,-2.32257 l 12.9072,-27.81855 -21.91483,13.69409 c -1.42849,0.8925 -2.71485,1.23633 -3.85985,1.03145 -1.14581,-0.20406 -2.04467,-0.82977 -2.69261,-1.86599 -0.66937,-1.07117 -0.84248,-2.16218 -0.505,-3.26908 0.33745,-1.1077 1.21646,-2.10423 2.62748,-2.98561 l 28.85638,-18.03196 c 1.22838,-0.76783 2.27334,-1.22679 3.13885,-1.39196 0.96714,-0.15721 1.92714,-0.0174 2.88238,0.4264 0.94729,0.45022 1.69766,1.1077 2.24158,1.97798 0.42482,0.67969 0.67017,1.32605 0.75753,1.94937 0.0873,0.62411 0.0492,1.24109 -0.0969,1.84139 -0.14532,0.5995 -0.39623,1.26492 -0.75753,2.02322 -0.35334,0.75355 -0.72098,1.54045 -1.11879,2.35832 z m 36.26002,49.5031 -13.72902,-14.72238 -7.92457,7.39018 12.64358,13.5583 c 0.93142,0.99891 1.3991,1.95256 1.4118,2.8538 0.004,0.90839 -0.35017,1.70323 -1.08625,2.38928 -0.73608,0.68686 -1.55395,0.99971 -2.46789,0.95286 -0.91394,-0.0611 -1.84695,-0.59474 -2.7855,-1.60079 l -12.64278,-13.55832 -9.17915,8.559 14.19831,15.22581 c 0.9592,1.02909 1.44039,2.0264 1.45071,2.9864 0.009,0.97429 -0.38353,1.81757 -1.172,2.55365 -0.76626,0.71463 -1.62065,1.03305 -2.59097,0.95603 -0.95682,-0.0778 -1.91921,-0.6265 -2.87841,-1.65558 l -16.559,-17.75721 c -1.32368,-1.41976 -1.96765,-2.74265 -1.91842,-3.95514 0.0492,-1.21171 0.78373,-2.47266 2.18839,-3.78203 L 276.60452,443.032 c 0.93855,-0.87503 1.83821,-1.44674 2.69102,-1.72227 0.85201,-0.27554 1.69369,-0.24616 2.51791,0.0944 0.82422,0.34145 1.66669,0.97509 2.52824,1.89857 l 16.08893,17.25379 c 0.97349,1.04417 1.46262,2.03514 1.47374,2.96576 0.004,0.93776 -0.3589,1.75325 -1.11008,2.45358 -0.76625,0.71465 -1.6127,1.02671 -2.54808,0.95762 -0.92744,-0.0762 -1.88188,-0.63284 -2.85539,-1.67702 z m 28.37994,23.34015 -13.68139,-11.0793 -7.10271,8.7726 11.43741,9.26173 c 1.0537,0.85281 1.65796,1.73896 1.79612,2.62988 0.13029,0.89886 -0.11665,1.74292 -0.76387,2.54173 -0.64555,0.79802 -1.41975,1.21488 -2.32099,1.25142 -0.91632,0.0373 -1.89379,-0.37082 -2.93161,-1.21092 l -11.43821,-9.26253 -9.1458,11.2945 c -1.15691,1.42927 -2.35037,2.23285 -3.55891,2.40435 -1.20933,0.17073 -2.31702,-0.15801 -3.33101,-0.97905 -1.02193,-0.8274 -1.57538,-1.85727 -1.65321,-3.08248 -0.0778,-1.22601 0.45499,-2.55285 1.59921,-3.96546 l 21.36217,-26.37974 c 0.80756,-0.99811 1.61828,-1.68973 2.42422,-2.08119 0.80596,-0.39147 1.64368,-0.47882 2.5076,-0.25569 0.86312,0.22234 1.78501,0.73211 2.76725,1.52695 l 16.37081,13.25737 c 1.10928,0.89806 1.73102,1.81121 1.87157,2.73152 0.13333,0.92744 -0.11114,1.78579 -0.75832,2.58381 -0.65906,0.8139 -1.4539,1.24109 -2.38928,1.30303 -0.92904,0.054 -1.95177,-0.36447 -3.06105,-1.26253 z m 32.16277,17.40863 -17.93587,-9.13866 -4.91911,9.65479 16.51772,8.41608 c 1.21726,0.62014 1.98273,1.35621 2.30272,2.19949 0.31524,0.85201 0.25331,1.71991 -0.20327,2.61639 -0.45657,0.89646 -1.11801,1.47056 -1.99305,1.73974 -0.87981,0.25489 -1.93906,0.0723 -3.16506,-0.55265 l -16.51771,-8.41608 -5.69807,11.18253 18.54888,9.4515 c 1.2538,0.63842 2.04705,1.41182 2.3853,2.31068 0.34145,0.91157 0.26125,1.83901 -0.22789,2.7998 -0.47642,0.9338 -1.16962,1.52457 -2.10819,1.78422 -0.92584,0.25488 -2.01687,0.0675 -3.27065,-0.57092 l -21.63375,-11.02292 c -1.72942,-0.88139 -2.78789,-1.90413 -3.15553,-3.06025 -0.36765,-1.15533 -0.10954,-2.59097 0.76307,-4.30293 l 15.05589,-29.54877 c 0.58281,-1.14422 1.23235,-1.98908 1.93984,-2.53935 0.70671,-0.55107 1.50789,-0.81073 2.39882,-0.77262 0.8909,0.0389 1.89935,0.34621 3.0245,0.91951 l 21.01995,10.71008 c 1.27205,0.64872 2.07086,1.41259 2.3988,2.28287 0.32476,0.8798 0.26283,1.76992 -0.20327,2.68545 -0.47564,0.9338 -1.16486,1.51663 -2.06689,1.77152 -0.89728,0.24535 -1.98512,0.0492 -3.25718,-0.5995 z m 30.74381,50.1844 -12.96357,-3.71693 c -1.86521,-0.53518 -3.0801,-1.3324 -3.6383,-2.40118 -0.55981,-1.06799 -0.57887,-2.52665 -0.0556,-4.35295 l 9.14182,-31.8793 c 0.5344,-1.86601 1.32448,-3.09281 2.37897,-3.67802 1.0537,-0.58361 2.50521,-0.61617 4.3323,-0.0921 l 13.74253,3.94005 c 2.02401,0.58045 3.73518,1.21011 5.15573,1.88426 1.41022,0.67097 2.60366,1.53727 3.57478,2.58541 0.83375,0.89092 1.49519,1.90333 2.01211,3.04437 0.50898,1.12912 0.8004,2.31385 0.88774,3.53508 0.085,1.23157 -0.0414,2.45598 -0.39543,3.68993 -1.21727,4.24576 -4.23225,6.74779 -9.04099,7.49499 5.07156,3.36595 6.8653,7.62043 5.39315,12.75394 -0.67971,2.36942 -1.90333,4.32595 -3.66134,5.87433 -1.7604,1.55712 -3.80109,2.48934 -6.12526,2.80537 -1.44595,0.16197 -3.03722,0.12303 -4.77776,-0.14132 -1.74373,-0.25409 -3.72963,-0.7059 -5.96089,-1.3459 z m 4.75632,-19.01101 -8.93458,-2.56239 -3.55017,12.38075 9.22123,2.64417 c 5.80526,1.66431 9.3078,0.40337 10.50839,-3.78283 0.61459,-2.14233 0.30808,-3.90749 -0.91474,-5.30502 -1.23633,-1.39117 -3.33817,-2.51712 -6.33013,-3.37468 z m -4.02263,-19.69231 -3.1452,10.96893 7.86898,2.25588 c 2.13201,0.61143 3.85032,0.88061 5.13111,0.80914 1.2808,-0.0707 2.39008,-0.58601 3.33737,-1.54283 0.71624,-0.67097 1.2141,-1.51107 1.50313,-2.51792 0.61459,-2.14233 0.26203,-3.78203 -1.05767,-4.9191 -1.32923,-1.13945 -3.54779,-2.16059 -6.66758,-3.05469 l -6.97014,-1.99941 z m 54.12842,41.17279 -1.61588,-5.69885 -17.86441,-1.56268 -2.59017,5.45428 c -1.02114,2.12726 -1.84695,3.55019 -2.49727,4.26641 -0.63999,0.71702 -1.62541,1.02194 -2.94591,0.9068 -1.11483,-0.0977 -2.07086,-0.59315 -2.85935,-1.48725 -0.78769,-0.89409 -1.13628,-1.86282 -1.04496,-2.9062 0.0516,-0.59315 0.20884,-1.20853 0.45896,-1.8255 0.26044,-0.6273 0.66621,-1.48805 1.226,-2.58383 l 13.74094,-27.55254 c 0.38908,-0.79087 0.86392,-1.73895 1.4142,-2.84507 0.55107,-1.11722 1.1053,-2.02799 1.68337,-2.74024 0.57806,-0.71226 1.30621,-1.26651 2.17647,-1.66512 0.87027,-0.39781 1.91365,-0.54392 3.13092,-0.43751 1.23871,0.10795 2.25111,0.43433 3.03881,0.97747 0.78689,0.54312 1.41022,1.20615 1.85727,1.98749 0.43672,0.78054 0.79643,1.61668 1.0807,2.49647 0.27314,0.87981 0.61459,2.05341 1.03305,3.51286 l 8.9981,29.36693 c 0.71147,2.23841 1.02432,3.84318 0.93857,4.82462 -0.0881,1.0132 -0.59951,1.90651 -1.52298,2.68149 -0.92348,0.77498 -1.98431,1.11483 -3.18095,1.01002 -0.69637,-0.0603 -1.28952,-0.23582 -1.76833,-0.53518 -0.4796,-0.28983 -0.86948,-0.66462 -1.16962,-1.12357 -0.29936,-0.45897 -0.60984,-1.15693 -0.92111,-2.08041 -0.31047,-0.92506 -0.58043,-1.7318 -0.79642,-2.44089 z m -16.56297,-13.73856 13.13826,1.14899 -5.04377,-18.71086 -8.09449,17.56187 z m 41.73815,-21.55989 2.79821,31.98411 18.04784,-1.57935 c 1.43246,-0.12463 2.56794,0.1255 3.39693,0.76467 0.8385,0.62808 1.29428,1.47454 1.38639,2.52823 0.0953,1.08466 -0.20724,1.98749 -0.90521,2.72914 -0.69876,0.73131 -1.78501,1.16644 -3.23812,1.29349 l -21.49556,1.88109 c -1.9343,0.16913 -3.3739,-0.13812 -4.29816,-0.92347 -0.92428,-0.78451 -1.46502,-2.13916 -1.63257,-4.05281 l -2.96098,-33.84614 c -0.15723,-1.79136 0.1342,-3.17696 0.86392,-4.14809 0.72972,-0.97111 1.75403,-1.51503 3.07295,-1.63017 1.33081,-0.11665 2.45359,0.22948 3.36039,1.04656 0.90601,0.81707 1.44517,2.14233 1.60397,3.95274 z m 61.41775,10.0542 -7.69191,2.79901 4.27196,11.73676 c 0.61061,1.67862 0.67493,3.08725 0.20009,4.24416 -0.47563,1.15613 -1.32128,1.95574 -2.52743,2.39484 -1.25539,0.45738 -2.43296,0.40497 -3.51683,-0.1731 -1.08467,-0.57806 -1.93191,-1.70163 -2.53221,-3.35244 l -11.63116,-31.95473 c -0.67097,-1.84379 -0.72735,-3.3207 -0.16516,-4.42045 0.5606,-1.10134 1.7588,-1.98511 3.61132,-2.65926 l 10.77041,-3.9202 c 3.18571,-1.15931 5.71474,-1.80724 7.61251,-1.93985 1.86997,-0.1461 3.62162,0.10244 5.25419,0.74323 1.63572,0.65032 3.05627,1.64128 4.26956,2.99276 1.22364,1.34748 2.19078,3.01736 2.91098,4.99532 1.53886,4.2275 1.39832,7.89598 -0.40338,11.02214 -1.81598,3.12059 -5.28834,5.61866 -10.43294,7.49181 z m -8.95285,-18.26224 -5.65519,2.05817 4.61181,12.67215 5.65518,-2.05816 c 1.97876,-0.7202 3.55574,-1.52297 4.73649,-2.42342 1.1712,-0.89648 1.93508,-1.95018 2.29874,-3.14283 0.35019,-1.19821 0.24854,-2.56079 -0.30649,-4.08536 -0.6678,-1.83344 -1.74849,-3.12298 -3.2413,-3.89161 -1.65319,-0.78689 -4.35453,-0.49231 -8.09924,0.87106 z m 31.77685,9.59921 -10.92922,-18.18839 c -0.92585,-1.54123 -1.27206,-2.91413 -1.04179,-4.10679 0.23028,-1.19265 0.91236,-2.13042 2.04864,-2.8133 1.17915,-0.70829 2.35435,-0.88695 3.51603,-0.53041 1.16089,0.35732 2.21062,1.30699 3.13647,2.84823 l 11.17776,18.60208 c 1.26889,2.11295 2.56954,3.73994 3.89717,4.87146 1.31812,1.13706 2.81568,1.73498 4.49271,1.79374 1.67702,0.0588 3.59146,-0.56456 5.75681,-1.86599 2.99276,-1.79772 4.63008,-3.85986 4.91435,-6.19912 0.28348,-2.33925 -0.54948,-5.12158 -2.49092,-8.35255 l -11.26749,-18.75215 c -0.93538,-1.55791 -1.29667,-2.93558 -1.06958,-4.11394 0.2263,-1.17837 0.92268,-2.11295 2.07643,-2.80616 1.14421,-0.68684 2.30511,-0.86868 3.47871,-0.53201 1.17359,0.33748 2.23762,1.29192 3.1738,2.84984 l 10.92922,18.18837 c 1.77708,2.95862 2.96734,5.59801 3.58035,7.91425 0.60903,2.32892 0.56854,4.71503 -0.13493,7.17339 -0.60586,2.10183 -1.65241,3.98927 -3.12615,5.66551 -1.4682,1.68416 -3.42393,3.25478 -5.86244,4.72059 -2.9054,1.74531 -5.59563,2.93082 -8.07622,3.57003 -2.47027,0.63444 -4.76507,0.68287 -6.88277,0.17071 -2.10899,-0.51852 -4.0933,-1.627 -5.95058,-3.30322 -1.84853,-1.68099 -3.63275,-3.95196 -5.3463,-6.80417 z m -5.39949,-31.30043 c -0.74005,0.44387 -1.5619,0.59077 -2.46393,0.4256 -0.89647,-0.15564 -1.62462,-0.68922 -2.159,-1.57777 -0.51851,-0.86312 -0.6543,-1.72784 -0.40973,-2.61795 0.2406,-0.87583 0.75434,-1.55554 1.54679,-2.03196 0.7742,-0.46531 1.60081,-0.62572 2.47266,-0.49073 0.88536,0.13812 1.61588,0.69479 2.19236,1.65479 0.5336,0.88853 0.67177,1.77628 0.38908,2.641 -0.26918,0.86868 -0.79405,1.53171 -1.56823,1.99702 z m 6.56754,-11.84318 c 0.48436,-0.29061 1.02987,-0.43911 1.65082,-0.46372 0.61935,-0.0247 1.1982,0.11912 1.7334,0.43196 0.53597,0.31365 0.95284,0.70908 1.25458,1.21171 0.53439,0.88854 0.68129,1.77151 0.41528,2.6259 -0.25091,0.85757 -0.77578,1.51981 -1.56823,1.99623 -0.75673,0.45499 -1.58809,0.60665 -2.49013,0.44228 -0.89646,-0.15641 -1.62381,-0.69002 -2.1582,-1.57856 -0.46531,-0.77498 -0.58205,-1.62699 -0.34225,-2.56237 0.22711,-0.93935 0.73053,-1.63733 1.50473,-2.10343 z m 32.70033,-2.54412 10.34958,11.49538 0.79721,-25.3324 c 0.0318,-1.21964 0.13652,-2.18202 0.28904,-2.88713 0.16119,-0.71068 0.60426,-1.4007 1.32923,-2.05341 0.95444,-0.85916 1.98749,-1.27762 3.07613,-1.24982 1.08943,0.0277 1.99146,0.44704 2.7196,1.25618 0.87265,0.96873 1.24268,2.37657 1.10214,4.23145 l -1.18155,14.91216 21.29548,4.95563 c 1.48884,0.33271 2.71324,0.69559 3.65975,1.08705 0.95364,0.39861 1.72546,0.9338 2.31623,1.58968 0.6535,0.72495 0.93379,1.62064 0.84883,2.67751 -0.0913,1.04973 -0.62888,2.01767 -1.6143,2.90382 -0.92346,0.83216 -1.85726,1.31336 -2.79503,1.43882 -0.92982,0.13333 -1.893,0.046 -2.88873,-0.24536 -0.99573,-0.29301 -1.88983,-0.56458 -2.68466,-0.81708 l -18.71802,-5.01042 -0.74718,10.09945 6.10222,6.77717 c 1.23713,1.3737 1.83821,2.67037 1.81042,3.89875 -0.0318,1.2268 -0.54233,2.28448 -1.51822,3.16349 -0.5725,0.51533 -1.2522,0.85121 -2.0391,1.02034 -0.79484,0.17708 -1.54918,0.1374 -2.2924,-0.11984 -0.58441,-0.21996 -1.1466,-0.59792 -1.68735,-1.10611 -0.53994,-0.50819 -1.28476,-1.28953 -2.2265,-2.33528 l -21.94342,-24.37081 c -1.20297,-1.33639 -1.812,-2.61082 -1.82947,-3.81142 -0.0158,-1.20139 0.48198,-2.25905 1.49757,-3.173 0.99176,-0.8933 2.09628,-1.29349 3.31275,-1.1863 1.21647,0.10722 2.44327,0.8409 3.65975,2.19156 z m 52.6642,-1.69845 -26.62431,-22.34123 c -1.37767,-1.15535 -2.15187,-2.34086 -2.31544,-3.55177 -0.16437,-1.21013 0.17549,-2.31941 1.014,-3.31832 0.85837,-1.02272 1.89697,-1.57219 3.11584,-1.63573 1.21885,-0.0635 2.53696,0.49311 3.92893,1.66115 l 26.62509,22.34043 c 1.39197,1.16884 2.16853,2.36944 2.32576,3.5875 0.15722,1.21885 -0.19612,2.34322 -1.05449,3.36516 -0.82501,0.98382 -1.85092,1.50392 -3.08645,1.55394 -1.23474,0.0501 -2.54412,-0.49945 -3.92893,-1.66113 z m 37.36296,-43.08247 -6.74303,11.67959 c -0.97031,1.6802 -2.03672,2.6664 -3.20873,2.94909 -1.172,0.28427 -2.59175,-0.0492 -4.23781,-0.99971 l -28.72059,-16.58202 c -1.68179,-0.97033 -2.68068,-2.03356 -2.99275,-3.19842 -0.31206,-1.16327 0.007,-2.57984 0.95762,-4.2251 l 7.14878,-12.38155 c 1.05291,-1.82392 2.07722,-3.33101 3.07534,-4.5467 0.99175,-1.20614 2.12088,-2.15502 3.3731,-2.84266 1.06639,-0.59396 2.20823,-0.99098 3.44058,-1.21649 1.21886,-0.22073 2.43853,-0.21677 3.64468,-0.006 1.21567,0.21599 2.37339,0.63445 3.48505,1.27683 3.82492,2.20824 5.52337,5.73856 5.08506,10.5854 4.4935,-4.10679 9.05448,-4.81826 13.67981,-2.14788 2.13437,1.23235 3.73756,2.89349 4.81428,4.97389 1.08467,2.08515 1.49518,4.29102 1.24029,6.62232 -0.19295,1.442 -0.61617,2.97689 -1.29349,4.6015 -0.6678,1.63096 -1.5873,3.44852 -2.74819,5.45826 z m -17.29507,-9.21489 -4.64755,8.05002 11.15394,6.4397 4.79603,-8.30729 c 3.01974,-5.23036 2.64337,-8.93379 -1.12834,-11.11185 -1.93032,-1.11406 -3.71612,-1.24427 -5.36853,-0.39544 -1.64924,0.86233 -3.25003,2.62987 -4.80555,5.32486 z m -20.08059,-0.85994 9.88187,5.7052 4.0933,-7.08924 c 1.10928,-1.92157 1.78501,-3.52316 2.02641,-4.78332 0.24138,-1.26014 0.007,-2.46074 -0.69002,-3.61131 -0.47722,-0.85757 -1.17281,-1.54362 -2.07961,-2.06769 -1.93033,-1.11404 -3.60655,-1.16883 -5.02868,-0.16358 -1.4277,1.014 -2.95464,2.91971 -4.57767,5.72983 l -3.6256,6.28011 z m 56.01585,-42.13519 -5.92277,-0.0174 -6.42621,16.74164 4.52844,3.99325 c 1.76357,1.56823 2.90381,2.75454 3.41359,3.57637 0.51296,0.81311 0.5344,1.84457 0.0556,3.0817 -0.40099,1.04496 -1.14183,1.82788 -2.21776,2.33925 -1.07672,0.51056 -2.10421,0.57886 -3.08169,0.20327 -0.55583,-0.2136 -1.10372,-0.53439 -1.62858,-0.94491 -0.53042,-0.42323 -1.24664,-1.05052 -2.1455,-1.89062 l -22.69776,-20.80238 c -0.65272,-0.59236 -1.43406,-1.31016 -2.34483,-2.14392 -0.92188,-0.83771 -1.64446,-1.62144 -2.17011,-2.3734 -0.52487,-0.75196 -0.85757,-1.60476 -1.00051,-2.55126 -0.14291,-0.9465 0.004,-1.98988 0.44229,-3.13012 0.44546,-1.16089 1.03782,-2.04467 1.77707,-2.65211 0.73926,-0.60665 1.5476,-1.02274 2.42184,-1.23712 0.87186,-0.20486 1.77389,-0.3208 2.69817,-0.35098 0.92109,-0.0199 2.14311,-0.0247 3.66133,-0.0247 l 30.70966,-0.55505 c 2.34721,-0.0667 3.97658,0.0746 4.89609,0.4272 0.94968,0.36447 1.66828,1.10214 2.15741,2.20348 0.49151,1.10134 0.52565,2.21538 0.0953,3.33657 -0.25092,0.65271 -0.58282,1.1736 -1.00288,1.55236 -0.41052,0.38035 -0.87821,0.65271 -1.40228,0.81468 -0.52327,0.1612 -1.28,0.2676 -2.25349,0.31207 -0.97429,0.0437 -1.82472,0.0802 -2.56636,0.0921 z m -17.77071,12.13459 4.72616,-12.31245 -19.37708,-0.30888 14.65092,12.62133 z m -9.49121,-45.30976 31.61885,5.57577 3.146,-17.84216 c 0.24933,-1.41579 0.78531,-2.44804 1.61747,-3.08328 0.82341,-0.64714 1.75881,-0.86868 2.80059,-0.68446 1.07196,0.18898 1.86679,0.71463 2.40119,1.58094 0.52565,0.86391 0.66542,2.02561 0.41211,3.46203 l -3.7471,21.25022 c -0.33667,1.91205 -1.00604,3.22303 -2.00416,3.91305 -0.99733,0.68922 -2.44566,0.86154 -4.33707,0.52804 l -33.45944,-5.90055 c -1.77072,-0.31205 -3.03405,-0.95127 -3.78283,-1.90729 -0.74958,-0.95604 -1.00923,-2.08675 -0.77976,-3.39137 0.23186,-1.31494 0.85678,-2.31066 1.8811,-2.97449 1.02432,-0.66382 2.44327,-0.84168 4.23305,-0.52645 z m 44.76028,-30.68426 c -0.0873,1.23951 -0.5606,2.27654 -1.42293,3.12219 -0.86232,0.84566 -2.02085,1.21807 -3.45569,1.11802 -1.22917,-0.0857 -2.24396,-0.58999 -3.06579,-1.51187 -0.82025,-0.92268 -1.1863,-2.01846 -1.09816,-3.27861 0.0881,-1.26094 0.59394,-2.3059 1.52694,-3.13647 0.93299,-0.83136 2.01925,-1.19742 3.26907,-1.11008 1.4142,0.0985 2.49967,0.61697 3.24685,1.56586 0.7472,0.94729 1.08387,2.02085 0.99971,3.23096 z"
     style="fill:#fffc00;fill-rule:nonzero" />
  <g
     id="g16"
     transform="matrix(7.9404436,0,0,7.9404441,52.977805,-97.02221)">
    <circle
       sodipodi:ry="20.372999"
       sodipodi:rx="20.372999"
       sodipodi:cy="50"
       sodipodi:cx="50"
       id="_278172336"
       class="fil0 str0"
       r="20.372999"
       cx="50"
       cy="50"
       rx="20.372999"
       ry="20.372999"
       style="fill:#ffffff;stroke:#000000;stroke-width:0.75999999"
       d="M 70.372999,50 C 70.372999,61.251697 61.251697,70.372999 50,70.372999 38.748303,70.372999 29.627001,61.251697 29.627001,50 29.627001,38.748303 38.748303,29.627001 50,29.627001 c 11.251697,0 20.372999,9.121302 20.372999,20.372999 z" />
    <line
       id="_278172240"
       class="fil2 str0"
       x1="29.627001"
       y1="50"
       x2="70.373001"
       y2="50"
       style="fill:none;stroke:#000000;stroke-width:0.75999999" />
    <line
       id="_278172144"
       class="fil2 str0"
       x1="50"
       y1="29.627001"
       x2="50"
       y2="70.373001"
       style="fill:none;stroke:#000000;stroke-width:0.75999999" />
    <path
       id="_278172048"
       class="fil2 str0"
       d="m 32.4524,39.6428 c 0,0 15.2683,9.6562 35.2596,0.2832"
       style="fill:none;stroke:#000000;stroke-width:0.75999999" />
    <path
       id="_279629792"
       class="fil2 str0"
       d="m 67.9154,59.7086 c 0,0 -15.9446,-9.5692 -35.9359,-0.1962"
       style="fill:none;stroke:#000000;stroke-width:0.75999999" />
    <g
       id="g23">
      <path
         id="_279629624"
         class="fil3"
         d="m 50,66.065 0,0.762 0,0 -0.2166,0.0045 -0.2135,0.0134 -0.2104,0.0219 -0.2065,0.0304 -0.2028,0.0387 -0.199,0.0465 -0.1943,0.0541 -0.1897,0.0617 -0.1849,0.0688 -0.1798,0.0759 -0.1742,0.0824 -0.1684,0.089 -0.1624,0.0952 -0.1563,0.1011 -0.1497,0.1069 -0.143,0.1123 -0.1359,0.1173 -0.1285,0.1223 -0.1212,0.1269 -0.1132,0.1313 -0.1055,0.1355 -0.0973,0.1393 -0.0888,0.1429 -0.0803,0.1463 -0.0716,0.1496 -0.0627,0.1526 -0.0535,0.1553 -0.0443,0.1582 -0.0349,0.1606 -0.0251,0.1631 -0.0153,0.1655 -0.0052,0.168 -0.7584,0 0.0066,-0.2148 0.0195,-0.2121 0.0323,-0.2091 0.0445,-0.2056 0.0565,-0.2018 0.0681,-0.1975 0.0793,-0.193 0.09,-0.1882 0.1005,-0.1831 0.1106,-0.1777 0.1201,-0.1721 0.1293,-0.1663 0.1384,-0.1603 0.147,-0.1541 0.1551,-0.1475 0.1631,-0.1409 0.1706,-0.1339 0.1777,-0.1269 0.1849,-0.1197 0.1914,-0.1122 0.198,-0.1044 0.2038,-0.0966 0.2096,-0.0883 0.2149,-0.0802 0.2203,-0.0715 0.2251,-0.0627 0.2296,-0.0537 0.2338,-0.0445 0.2381,-0.035 0.2416,-0.0253 0.2449,-0.0154 0.248,-0.0051 0,0 z m 4.8932,4.0995 -0.7584,0 -0.0052,-0.168 L 54.1143,69.831 54.0892,69.6679 54.0543,69.5073 54.01,69.3491 53.9565,69.1938 53.8938,69.0412 53.8222,68.8916 53.7419,68.7453 53.6531,68.6024 53.5558,68.4631 53.4503,68.3276 53.3371,68.1963 53.2159,68.0694 53.0874,67.9471 52.9515,67.8298 52.8085,67.7175 52.6588,67.6106 52.5025,67.5095 52.3401,67.4143 52.1717,67.3253 51.9975,67.2429 51.8177,67.167 51.6328,67.0982 51.4431,67.0365 51.2488,66.9824 51.0498,66.9359 50.847,66.8972 50.6405,66.8668 50.4301,66.8449 50.2166,66.8315 50,66.827 l 0,-0.762 0.248,0.0051 0.2449,0.0154 0.2416,0.0253 0.2381,0.035 0.2338,0.0445 0.2296,0.0537 0.2251,0.0627 0.2203,0.0715 0.2149,0.0802 0.2096,0.0883 0.2038,0.0966 0.198,0.1044 0.1914,0.1122 0.1849,0.1197 0.1777,0.1269 0.1706,0.1339 0.1631,0.1409 0.1551,0.1475 0.147,0.1541 0.1384,0.1603 0.1293,0.1663 0.1201,0.1721 0.1106,0.1777 0.1005,0.1831 0.09,0.1882 0.0793,0.193 0.0681,0.1975 0.0565,0.2018 0.0445,0.2056 0.0323,0.2091 0.0195,0.2121 0.0066,0.2148 z"
         style="fill:#000000;fill-rule:nonzero" />
    </g>
    <path
       id="_279629528"
       class="fil2 str0"
       d="m 44.6839,30.3276 c 0,0 4.9185,5.0363 10.698,0.0178"
       style="fill:none;stroke:#000000;stroke-width:0.75999999" />
    <path
       id="_279629432"
       class="fil2 str0"
       d="m 36.5695,65.3197 c 0,0 10.7888,-8.5569 27.0831,-0.1977"
       style="fill:none;stroke:#000000;stroke-width:0.75999999" />
    <path
       id="_279629336"
       class="fil2 str0"
       d="m 63.0194,34.3291 c 0,0 -11.8055,7.6497 -25.981,-0.0478"
       style="fill:none;stroke:#000000;stroke-width:0.75999999" />
    <path
       id="_279629240"
       class="fil2 str0"
       d="m 51.4283,66.636 c 0,0 12.7453,-14.3345 1.1187,-34.5356"
       style="fill:none;stroke:#000000;stroke-width:0.75999999" />
    <path
       id="_279629144"
       class="fil2 str0"
       d="m 48.5525,32.4055 c 0,0 -12.5593,13.4557 -0.8519,34.5584"
       style="fill:none;stroke:#000000;stroke-width:0.75999999" />
    <path
       id="_279629048"
       class="fil2 str0"
       d="m 45.9732,31.3251 c 0,0 -23.7511,17.7943 0.1004,37.0035"
       style="fill:none;stroke:#000000;stroke-width:0.75999999" />
    <path
       id="_279628952"
       class="fil2 str0"
       d="m 53.9669,31.3934 c 0,0 24.1161,18.9365 -0.9311,36.0191"
       style="fill:none;stroke:#000000;stroke-width:0.75999999" />
    <path
       id="_275945400"
       class="fil4 str1"
       d="m 34.3058,59.7952 -0.1068,0.1512 c -0.4078,0.5777 0.3099,0.6583 0.8098,1.0613 l 0.0604,0.033 c 0.7983,0.4361 0.0829,1.8335 0.893,2.249 0.1402,0.0718 0.0279,0.1475 0.6171,0.3808 0.3899,0.1544 1.4353,0.2549 1.3257,-0.1711 l 0.052,-0.0774 c 0.4721,-0.7043 0.5652,-1.4579 0.6303,-1.5431 0.064,-0.0838 0.0901,-0.7534 0.0288,-0.875 -0.2153,-0.427 -1.4227,-0.3435 -1.7637,-0.5718 -0.3975,-0.2661 -2.1648,-1.5841 -2.4502,-0.7748 -0.0036,0.0101 -0.0325,0.0474 -0.0964,0.1379 z"
       style="fill:#000000;stroke:#000000;stroke-width:0.0762" />
    <path
       id="_278173432"
       class="fil4 str2"
       d="m 39.2961,67.2833 -0.0698,-0.1498 c -0.0682,-0.2604 0.3376,-1.8578 0.7468,-2.1825 1.6856,-1.3366 2.4668,0.8014 3.3682,1.4316 0.2605,0.2859 1.8923,1.544 1.8799,1.7015 -1.0234,0 -0.8332,-0.1288 -1.4412,-0.2036 -0.7863,-0.0968 -0.2542,1.0443 -1.391,1.0443 -0.2944,0 -2.1338,-1.4021 -2.8162,-1.518 -0.012,-0.0019 -0.261,-0.0898 -0.2767,-0.1235 z"
       style="fill:#000000;stroke:#000000;stroke-width:0.0922" />
    <path
       id="_278173336"
       class="fil4 str1"
       d="m 52.2645,51.2458 c 0.5945,-0.665 0.3339,-0.5111 1.159,-1.0238 0.0118,-0.0074 1.8637,-1.0062 2.2475,-1.3078 0.0037,-0.0029 1.6216,-0.161 1.8521,-0.2561 0.6706,-0.2767 1.2938,-0.0069 1.5365,-0.6879 0.6117,-0.9411 2.4851,1.1521 3.0191,1.647 0.262,0.2428 0.6212,1.3676 1.0697,1.8767 0.8288,0.9408 0.0222,1.0104 -0.7635,1.4003 -0.4701,0.2334 -1.2685,1.5178 -1.4307,2.0393 -0.2246,0.7221 -0.5274,0.8257 -0.6832,1.5903 -0.0708,0.3477 -0.0359,0.753 -0.0359,1.1217 -0.8504,0.1589 -0.5644,0.1653 -1.5213,0.1653 -0.4782,0.6989 -1.292,1.0349 -1.5432,1.6206 -0.2388,0.557 -0.9107,0.5582 -1.0337,1.1604 -0.1278,0.6262 -0.199,0.4732 -0.1682,1.2539 0.0221,0.559 -0.2199,1.2237 -0.9261,1.2237 -0.546,0 -1.0188,-0.3245 -1.0886,-0.8929 -0.0713,-0.5809 -0.0212,-1.4208 -0.3581,-1.8937 -0.2927,-0.411 0.8145,-3.2301 1.1406,-3.7372 0.0873,-0.1358 0.0939,-1.7623 -0.1361,-2.0917 -0.0437,-0.0626 -1.1003,-0.8716 -1.4949,-1.4443 -0.0805,-0.1168 -0.6862,-0.9642 -0.6974,-1.0007 -0.0755,-0.0252 -0.3378,-0.5459 -0.1436,-0.7631 z"
       style="fill:#000000;stroke:#000000;stroke-width:0.0762" />
    <path
       id="_278173240"
       class="fil4 str1"
       d="m 53.9652,49.9251 c 0.3429,0.0308 2.2041,-0.8078 1.9589,-1.1351 -0.4036,-0.5386 -3.0486,-1.8532 -3.0645,-2.2244 -0.0129,-0.3002 0.4687,-0.2426 0.328,-1.3891 -0.0418,-0.3402 -0.7266,-0.4832 -0.2892,-1.1821 0.2911,-0.4651 2.3725,-0.0369 3.037,-0.5377 l 0.0908,-0.0415 c 0.9283,-0.4248 0.8255,0.0907 0.9317,-1.1822 0.0093,-0.1118 0.144,-0.1611 0.2371,-0.179 1.5309,-0.2943 0.9189,0.495 2.2462,-0.5845 0.8426,-0.6852 0.8102,-1.8446 0.4933,-2.8083 L 59.9127,38.595 c -0.3389,-1.0308 -4.1905,-0.35 -4.1757,-0.6945 0.0293,-0.6848 -0.7276,-1.4898 -0.7276,-2.9435 0,-0.1957 0.0287,-0.4174 -0.0331,-0.5953 l -0.0746,-0.0331 c -0.2221,-0.0985 -0.5173,-0.1822 -0.7508,-0.2509 -0.129,-0.0137 -1.2325,0.585 -1.3962,0.9454 -0.5512,1.2143 -0.9672,1.0521 -1.1849,1.3905 -0.2666,0.0801 -1.2512,0.5919 -1.2871,1.0239 -0.0379,0.4567 -0.5314,0.8775 -1.0611,0.4271 -0.626,-0.5323 -1.1166,-0.8248 -1.8658,-1.2417 -0.6166,-0.3431 -1.185,-0.3111 -1.6853,0.0553 -0.1565,0.1147 -0.2752,0.2643 -0.5637,0.3156 -0.1743,0.031 -0.6739,-0.5058 -0.9927,-0.6034 -0.0117,-0.0354 -1.2566,-0.5683 -1.7935,-0.033 -0.5895,0.588 -0.2651,0.9121 -0.4497,1.0413 -0.7493,0.5245 -0.2044,-0.0633 -0.8817,0.7994 -0.1982,0.2526 -0.0476,-0.1095 -0.342,0.4546 -0.4129,0.7911 -0.2884,0.8554 -0.0246,1.5298 0.7029,-0.0555 0.6417,0.3118 1.3144,-0.3089 0.0718,-0.0663 0.6638,-0.0055 0.6369,-0.3195 0.6849,0 0.3731,0.2169 1.0914,0.4716 0.5063,0.1795 0.6027,1.2765 1.0253,1.3116 0.4062,0.0337 0.3474,2.2327 0.3004,2.6155 -0.141,1.1488 -0.4801,0.5461 -0.0113,1.9844 0.2301,0.706 0.3964,1.2228 1.2681,1.0942 0.1078,-0.0159 0.2064,-0.4268 0.551,-0.6066 0.311,-0.1623 1.0589,-0.6457 0.8712,0.2759 -0.0335,0.1647 -0.8638,0.1045 -0.6095,0.8713 0.0493,0.0165 0.0252,0.0494 0.1049,0.0907 0.0449,0.2611 1.5221,1.6885 2.3373,1.3862 0.8959,-0.0764 1.2195,-1.4884 1.9707,-0.703 l 0.0415,0.085 c 0.1791,0.367 1.0054,0.5482 1.5186,0.8713 0.272,0.1712 0.6867,0.6009 0.9317,0.6229 z"
       style="fill:#000000;stroke:#000000;stroke-width:0.0762" />
    <path
       id="_278173144"
       class="fil4 str1"
       d="m 41.1654,31.6316 c 0.0769,-0.0638 1.6894,-0.8087 1.8385,-0.8087 -0.0208,0.2423 0.2638,0.2657 0.1626,1.0914 -0.0829,0.6761 -0.2199,0.3409 -0.062,1.1396 -0.0146,0.1844 0.2831,0.4113 -0.059,0.9525 -0.4079,0.6453 -0.9607,0.8504 -1.0641,1.4826 -0.0774,0.4735 0.04,0.3387 -0.1653,0.8405 -0.0268,0.1891 -0.7406,0.4063 -0.9431,0.4683 -0.1216,0.3673 -0.7599,-0.296 -0.8787,-0.4678 -0.0395,-0.0571 -0.344,-0.3686 -0.3969,-0.3808 -0.0515,-0.1487 -0.5016,0.0404 -0.9591,-0.1928 -0.0268,-0.0136 -0.2203,-0.0056 -0.2646,-0.0056 -0.2928,0.427 -0.568,0.9356 -0.9837,1.1991 -1e-4,1e-4 -1.8375,0.2528 -1.8937,-0.0747 -0.2168,-0.0371 -0.5069,-0.9753 -0.0439,-1.3021 0.0212,-0.0231 1.4403,-0.9298 1.6976,-1.1481 0.5041,-0.4279 1.02,-0.0223 2.0477,-0.2315 0.8289,-0.1688 0.9765,-0.7995 1.7339,-0.8874 0.6315,-0.0732 0.2265,-1.6684 0.2338,-1.6745 z"
       style="fill:#000000;stroke:#000000;stroke-width:0.0762" />
    <path
       id="_275945544"
       class="fil4 str1"
       d="m 54.8938,30.1449 -0.1422,-0.0354 c -0.1772,-0.0083 -0.3419,0.2661 -0.4696,0.2835 -0.0041,0.0318 -0.3547,0.8504 -0.5982,0.8902 -0.4945,0.0807 -1.1414,0.2191 -1.4136,0.7417 -0.354,0.6795 0.1973,1.3013 0.6227,1.7387 l 0.0992,0.102 c 0.2332,0.2398 0.6092,0.2646 0.9261,0.2316 0,-0.2197 0.1301,-1.0562 0.2315,-1.1576 0.157,-0.157 1.366,-0.0316 1.8838,-0.1503 0.0852,-0.6446 0.0653,-0.2265 0.0675,-0.875 2e-4,-0.0599 0.7376,-0.9745 0.6615,0.9592 -0.0197,0.5001 0.8638,0.5415 1.2568,0.4933 0.8433,-0.1036 0.148,-1.4135 0.1653,-1.8163 0.0246,-0.5753 -2.5559,-1.332 -3.1348,-1.3517 -0.0383,-0.0014 -0.1048,-0.0412 -0.156,-0.0539 z"
       style="fill:#000000;stroke:#000000;stroke-width:0.0762" />
  </g>
</svg>
