<?xml version="1.0" encoding="UTF-8" standalone="no"?>
<!-- Created with Inkscape (http://www.inkscape.org/) -->

<svg
   xmlns:dc="http://purl.org/dc/elements/1.1/"
   xmlns:cc="http://creativecommons.org/ns#"
   xmlns:rdf="http://www.w3.org/1999/02/22-rdf-syntax-ns#"
   xmlns:svg="http://www.w3.org/2000/svg"
   xmlns="http://www.w3.org/2000/svg"
   xmlns:sodipodi="http://sodipodi.sourceforge.net/DTD/sodipodi-0.dtd"
   xmlns:inkscape="http://www.inkscape.org/namespaces/inkscape"
   version="1.0"
   width="900"
   height="600"
   id="svg3105"
   inkscape:version="0.47 r22583"
   sodipodi:docname="Coat_of_Arms_of_Tatarstan.svg">
  <metadata
     id="metadata138">
    <rdf:RDF>
      <cc:Work
         rdf:about="">
        <dc:format>image/svg+xml</dc:format>
        <dc:type
           rdf:resource="http://purl.org/dc/dcmitype/StillImage" />
        <dc:title></dc:title>
      </cc:Work>
    </rdf:RDF>
  </metadata>
  <sodipodi:namedview
     pagecolor="#ffffff"
     bordercolor="#666666"
     borderopacity="1"
     objecttolerance="10"
     gridtolerance="10"
     guidetolerance="10"
     inkscape:pageopacity="0"
     inkscape:pageshadow="2"
     inkscape:window-width="1005"
     inkscape:window-height="696"
     id="namedview136"
     showgrid="false"
     inkscape:zoom="0.39333333"
     inkscape:cx="300"
     inkscape:cy="300"
     inkscape:window-x="1495"
     inkscape:window-y="227"
     inkscape:window-maximized="0"
     inkscape:current-layer="svg3105" />
  <defs
     id="defs3107">
    <inkscape:perspective
       sodipodi:type="inkscape:persp3d"
       inkscape:vp_x="0 : 300 : 1"
       inkscape:vp_y="0 : 1000 : 0"
       inkscape:vp_z="600 : 300 : 1"
       inkscape:persp3d-origin="300 : 200 : 1"
       id="perspective140" />
  </defs>
  <rect
     style="fill:#00923f;fill-opacity:1;stroke:none"
     id="rect3322"
     width="900"
     height="600"
     x="0"
     y="9.7330997e-15" />
  <g
     id="g3207"
     transform="translate(137.28814,7.6271186)">
    <path
       id="_133444192"
       style="fill:#ffffff;fill-rule:evenodd"
       d="m 300.00466,551.48573 c 138.44544,0 250.85094,-112.40149 250.85094,-251.4864 0,-139.08224 -112.4055,-251.4924 -250.85094,-251.4924 -138.44545,0 -250.85228,112.41016 -250.85228,251.4924 0,139.08491 112.40683,251.4864 250.85228,251.4864 z" />
    <path
       id="_133443808"
       style="fill:#da251d;fill-rule:evenodd"
       d="m 300.00466,517.19477 c 124.4746,0 216.55331,-101.60597 216.55331,-217.19477 0,-119.39292 -97.16173,-216.554652 -216.55331,-216.554652 -119.39158,0 -216.55665,97.161732 -216.55665,216.554652 0,120.0317 97.16507,217.19477 216.55665,217.19477 z" />
    <path
       id="_133443424"
       style="fill:#1e1311;fill-rule:evenodd"
       d="m 82.780575,299.99866 c 0,120.12896 97.446165,217.86154 217.223415,217.86154 59.36907,0 114.57033,-23.24631 155.43373,-65.45524 39.84227,-41.15582 61.78502,-95.282 61.78502,-152.4063 0,-119.77525 -97.44416,-217.220747 -217.21875,-217.220747 -119.77725,0 -217.223415,97.445497 -217.223415,217.220747 l 0,0 z m 1.333537,0 c 0,-119.04054 96.847998,-215.887875 215.889878,-215.887875 119.04054,0 215.88788,96.847335 215.88788,215.887875 0,56.7766 -21.8102,110.57372 -61.41134,151.48041 -40.61095,41.94782 -95.46983,65.04826 -154.47654,65.04826 -119.04188,0 -215.889878,-97.13376 -215.889878,-216.52867 z" />
    <path
       id="_133442664"
       style="fill:#fff500;fill-rule:evenodd"
       d="m 76.511216,299.99866 c 0,123.58603 100.258444,224.13024 223.492774,224.13024 123.23566,0 223.49677,-100.54421 223.49677,-224.13024 0,-123.23632 -100.26111,-223.498098 -223.49677,-223.498098 -123.23433,0 -223.492774,100.261778 -223.492774,223.498098 l 0,0 z m 1.175005,0 c 0,-122.58954 99.731559,-222.323093 222.317769,-222.323093 122.58821,0 222.32176,99.733553 222.32176,222.323093 0,122.93791 -99.73355,222.95523 -222.32176,222.95523 -122.58621,0 -222.317769,-100.01732 -222.317769,-222.95523 l 0,0 z" />
    <path
       id="_21374056"
       style="fill:#fff500;fill-rule:evenodd"
       d="m 55.251217,299.99866 c 0,135.30877 109.795703,245.38957 244.752773,245.38957 134.95507,0 244.74877,-110.0808 244.74877,-245.38957 0,-135.30743 -109.7937,-245.386899 -244.74877,-245.386899 -134.95707,0 -244.752773,110.079469 -244.752773,245.386899 z m 0.50757,0 c 0,-135.02701 109.567893,-244.879995 244.245203,-244.879995 134.67464,0 244.23987,109.852985 244.23987,244.879995 0,135.02901 -109.56523,244.88267 -244.23987,244.88267 -134.67731,0 -244.245203,-109.85366 -244.245203,-244.88267 z" />
    <g
       id="g33"
       style="fill-rule:evenodd"
       transform="matrix(6.6610269,0,0,6.6610269,-399.08344,-688.11805)">
      <path
         id="_21402112"
         style="fill:#ffffff"
         d="m 89.9103,152.29 c -0.4487,0.0131 -1.1663,0.005 -1.8085,-0.1343 -1.0229,-0.2226 -3.247,-0.8458 -5.0276,-0.8678 -1.7813,-0.0231 -2.7375,0.2225 -3.4708,0.6673 -0.7356,0.4461 -2.0036,1.6254 -2.2041,3.1154 -0.1984,1.4907 0.5574,2.3144 0.8471,2.4036 0.0893,0.0273 0.1661,0.0324 0.2379,0.0259 0.0078,-0.0218 0.0193,-0.0476 0.0395,-0.0776 0.0768,-0.1061 0.2578,-0.062 0.2578,-0.062 0,0 0.0169,0.0155 0.0446,0.04 0.0143,-0.006 0.0298,-0.0114 0.0416,-0.0155 0.1564,-0.0451 0.0892,-0.2456 0.0892,-0.2456 0,0 0.1292,0.0206 0.2947,-0.0386 -0.0096,-0.0624 0.0202,-0.1413 0.1416,-0.2357 0.0544,-0.0424 0.1287,-0.032 0.1934,-0.008 0.1261,-0.1875 0.0167,-0.3635 0.0167,-0.3635 0,0 0.1113,0.1436 0.3945,-0.0451 0.0026,-0.0817 0.0167,-0.1564 0.0395,-0.1785 0.027,-0.0296 0.1338,-0.1188 0.2327,-0.0995 0.2573,-0.4541 0.1409,-1.3333 0.2005,-1.6127 0.0671,-0.3104 0.2449,-0.6894 0.8223,-0.9102 0.5793,-0.2239 1.3798,-0.1347 1.3798,-0.1347 l 0.0892,0.1784 c 0,0 -0.2003,0.1541 -0.2003,0.6233 0,0.4657 0.1783,0.556 0.1783,0.556 0,0 0.0666,-0.6232 0.6013,-0.7576 0.5328,-0.1333 1.1341,0.2016 1.4018,0.3129 0.2658,0.1099 3.7598,2.0911 5.4493,2.8694 1.6919,0.7786 2.0262,0.6235 3.3388,0.0661 l -0.0246,-0.0375 c -2.0877,-1.2093 -3.2024,-2.7892 -3.5962,-5.0344 l 0,0 z" />
      <path
         id="_21369712"
         style="fill:#1f1a17"
         d="m 79.557,151.879 c -0.6867,0.4137 -2.0368,1.6136 -2.247,3.1808 -0.2029,1.5196 0.5575,2.3926 0.9092,2.4984 0.0918,0.03 0.1804,0.0403 0.2729,0.031 l 0.0491,-0.004 0.0272,-0.0555 0.0296,-0.0544 c 0.0298,-0.0413 0.1094,-0.0348 0.1463,-0.0283 0.0122,0.0114 0.0645,0.0528 0.0645,0.0528 l 0.0841,-0.0283 c 0.062,-0.0183 0.1118,-0.0568 0.1383,-0.1113 0.0228,-0.0413 0.0298,-0.0878 0.0298,-0.1281 0,-0.001 0,-0.002 0,-0.004 0.0601,-0.004 0.132,-0.0141 0.2205,-0.0438 l 0.0667,-0.0248 -0.0066,-0.0709 c -0.0026,-0.003 -0.0026,-0.005 -0.0026,-0.008 0,-0.0386 0.0395,-0.0917 0.1087,-0.1448 0.02,-0.0141 0.0595,-0.013 0.1093,0.005 l 0.0666,0.0245 0.0374,-0.0593 c 0.0589,-0.0854 0.0763,-0.1681 0.0763,-0.2394 0,-0.0117 -0.0019,-0.0207 -0.0019,-0.031 0.0789,0 0.1829,-0.0259 0.3116,-0.1123 l 0.0369,-0.0262 0.0025,-0.0451 c 0.0026,-0.0686 0.013,-0.1113 0.02,-0.1227 0.035,-0.0351 0.1017,-0.0803 0.1442,-0.0713 l 0.0641,0.0131 0.0324,-0.0558 c 0.1881,-0.3297 0.1906,-0.8534 0.1933,-1.2347 0,-0.1733 0.0025,-0.3222 0.0168,-0.4038 0.0576,-0.2574 0.1959,-0.627 0.7681,-0.8454 0.4752,-0.1837 1.1173,-0.1475 1.2906,-0.1333 0.0148,0.0285 0.0225,0.0451 0.0394,0.0775 -0.0693,0.0854 -0.1836,0.2794 -0.1836,0.6387 0,0.5085 0.2055,0.6235 0.2282,0.6363 l 0.1163,0.0568 0.0124,-0.1278 c 0.0026,-0.0234 0.069,-0.5626 0.5354,-0.6804 0.4278,-0.1057 0.9186,0.1178 1.2109,0.2498 l 0.1338,0.0592 c 0.0822,0.0338 0.5399,0.2835 1.1166,0.6002 1.2712,0.6931 3.1902,1.7432 4.3301,2.2682 1.7121,0.7876 2.0981,0.6232 3.3736,0.0827 l 0.1334,-0.0544 -0.0913,-0.1461 -0.02,-0.0114 c -2.0631,-1.1965 -3.1578,-2.7285 -3.5522,-4.9723 l -0.0116,-0.0775 -0.0796,0.002 c -0.4733,0.0131 -1.1663,0.003 -1.7857,-0.133 l -0.6913,-0.1591 c -1.1541,-0.2753 -2.9004,-0.6918 -4.3565,-0.7101 -1.6448,-0.0206 -2.698,0.1837 -3.5172,0.6805 l 0,0 z m -1.2854,5.5087 c -0.1959,-0.0607 -0.8153,-0.6556 -0.8153,-1.8246 0,-0.1516 0.0103,-0.3104 0.0322,-0.4812 0.2031,-1.4973 1.5007,-2.6511 2.1596,-3.0493 0.7934,-0.4796 1.8162,-0.6749 3.4235,-0.6542 1.4361,0.0193 3.1702,0.4306 4.3197,0.7049 l 0.6912,0.1601 c 0.6091,0.1334 1.2776,0.1489 1.756,0.1371 0.4036,2.1908 1.5279,3.7697 3.5219,4.9555 -1.1968,0.5067 -1.5356,0.6101 -3.1281,-0.1216 -1.1347,-0.5223 -3.0517,-1.5686 -4.3197,-2.2631 -0.6297,-0.3425 -1.0428,-0.5702 -1.1346,-0.6091 l -0.1287,-0.0569 c -0.3149,-0.1422 -0.8392,-0.3813 -1.33,-0.2573 -0.3841,0.0944 -0.5477,0.4034 -0.6168,0.618 -0.0279,-0.0709 -0.0498,-0.1705 -0.0498,-0.331 0,-0.411 0.1635,-0.5533 0.1661,-0.5547 l 0.0544,-0.0451 -0.0298,-0.0648 -0.1113,-0.2212 -0.0498,-0.005 c -0.0322,-0.004 -0.8294,-0.0893 -1.4218,0.1385 -0.4906,0.1888 -0.7777,0.5095 -0.8766,0.9777 -0.022,0.0982 -0.022,0.248 -0.0246,0.4396 -0.0026,0.3476 -0.0078,0.8134 -0.1538,1.1055 -0.1216,0.0155 -0.2205,0.1085 -0.2329,0.123 -0.04,0.04 -0.0543,0.1188 -0.0595,0.1836 -0.1732,0.102 -0.2397,0.0465 -0.2423,0.0438 l -0.1442,0.1047 c 0.0026,0.004 0.0304,0.0544 0.0304,0.1244 0,0.0272 -0.0078,0.0606 -0.0201,0.0916 -0.0938,-0.0127 -0.161,0.008 -0.1979,0.0376 -0.0969,0.0765 -0.1441,0.154 -0.1615,0.2328 -0.1191,0.031 -0.205,0.0245 -0.2076,0.0231 l -0.1411,-0.0179 0.0441,0.1357 c 0.0026,0.0142 0.0104,0.04 0.0104,0.0659 0,0.0168 -0.0026,0.031 -0.0104,0.0427 -0.0026,0.008 -0.0098,0.0155 -0.0272,0.022 -0.0026,-10e-4 -0.022,-0.0193 -0.022,-0.0193 l -0.0226,-0.005 c -0.0886,-0.0207 -0.2625,-0.0259 -0.3518,0.0968 0,0 -0.0096,0.0206 -0.0199,0.0399 -0.0517,0 -0.1042,-0.005 -0.1578,-0.023 l 0,0 z" />
      <path
         id="_21369328"
         style="fill:#ffffff"
         d="m 119.937,160.229 c 1.1186,-0.6425 0.7668,-0.2066 0.9946,-0.9749 0.2287,-0.7669 -0.0841,-0.8702 0,-1.6798 0.0826,-0.8083 0.5804,-2.1763 1.0576,-2.8409 l -10e-4,-0.0155 c -0.5353,-0.9894 -0.9839,-1.8338 -1.2065,-2.7326 -0.248,-0.9905 -0.6773,-2.3199 -2.7491,-2.2965 -0.9943,0.0103 -1.901,0.4461 -2.6404,0.9491 l -0.0378,0.0531 c 0,0 0.228,1.5348 0.6428,2.4246 0.4151,0.8923 1.2234,2.8836 1.121,3.9415 -0.1047,1.0563 -0.6022,1.6592 -1.0383,2.095 -0.4355,0.4344 -2.259,2.528 -3.0076,3.1512 -0.7448,0.6209 -0.8909,1.16 -2.2812,0.8096 -1.3888,-0.3544 -2.0715,-0.7072 -3.0064,0.102 -0.931,0.8082 -1.1185,1.0993 -0.9724,1.3267 0.0116,0.0221 0.0259,0.0417 0.0414,0.0583 0.0542,-0.0245 0.1228,-0.0193 0.2172,0.0506 0.2587,0.1953 0.2108,0.3001 0.1592,0.472 0.008,0.0103 0.0181,0.022 0.0284,0.0348 0.0763,-0.0841 0.1925,-0.1344 0.3336,0.0244 0.0517,0.061 0.0893,0.1127 0.1111,0.1568 0.0402,-0.003 0.0622,-0.009 0.0622,-0.009 0,0 -0.0194,0.0207 -0.0427,0.0572 0.0322,0.1033 -0.0129,0.1729 -0.0699,0.2663 0.008,0.0541 0.0286,0.1123 0.0699,0.1743 0.0103,0.0145 0.0233,0.0272 0.0322,0.0403 0.0493,-0.0403 0.1216,-0.0479 0.2238,0.0231 0.1539,0.1075 0.1797,0.1798 0.1694,0.2601 0.2637,0.1423 0.5805,0.2597 0.7991,0.3207 0.3724,0.1034 1.5969,-0.1047 2.2617,-0.2715 0.6632,-0.1643 1.4276,0.0438 2.0715,-0.6414 0.6428,-0.6829 0.4358,-0.7876 0.7073,-0.975 0.2663,-0.1864 0.2663,-0.1864 0.2663,-0.1864 0,0 0.1268,0.3945 0.6869,0.4344 0.5599,0.0441 0.5364,-0.0826 0.5364,-0.0826 0,0 -0.5364,-0.123 -0.1643,-1.037 0.3741,-0.9119 3.5044,-2.8398 4.6244,-3.4827 l 0,0 z" />
      <path
         id="_21368944"
         style="fill:#1f1a17"
         d="m 118.032,149.599 c -0.8675,0.009 -1.747,0.3259 -2.691,0.966 l -0.0127,0.0103 -0.0689,0.093 0.005,0.0362 c 0.009,0.0634 0.2353,1.5586 0.6504,2.4519 0.5688,1.2233 1.2023,2.9769 1.1121,3.8923 -0.0986,1.0049 -0.5664,1.5947 -1.0129,2.0394 l -0.7551,0.8158 c -0.7332,0.8059 -1.7391,1.909 -2.2435,2.3317 l -0.3824,0.3466 c -0.4617,0.4461 -0.7452,0.7152 -1.8197,0.4423 l -0.5262,-0.1399 c -1.0721,-0.2907 -1.7174,-0.4678 -2.5603,0.2626 -0.9557,0.8289 -1.1794,1.151 -0.9932,1.4431 l 0.0944,0.1296 0.0647,-0.0376 c 0.0336,-0.0183 0.0853,0.0117 0.1228,0.0413 0.1954,0.1489 0.1785,0.2043 0.1346,0.3504 l -0.0233,0.0686 0.128,0.1553 0.0659,-0.0789 c 0.0323,-0.0351 0.0621,-0.0492 0.0867,-0.0492 0.0425,0 0.0841,0.0399 0.1137,0.0737 0,0 0.0841,0.1137 0.097,0.1306 l -0.003,0.001 0.0195,0.0385 c 0.005,0.0145 0.008,0.0286 0.008,0.0427 0,0.039 -0.0221,0.0776 -0.0646,0.1451 l -0.0157,0.0258 0,0.0362 c 0.0106,0.0762 0.0376,0.1474 0.0881,0.216 l 0.0866,0.1123 0.0737,-0.053 c 0.0104,-0.008 0.0376,-0.0297 0.1137,0.0248 0.1448,0.1006 0.137,0.146 0.1344,0.1757 l -0.0103,0.0609 0.0568,0.031 c 0.2846,0.1527 0.6183,0.2702 0.8174,0.327 0.4112,0.114 1.7043,-0.1188 2.3056,-0.2691 0.1888,-0.0475 0.3866,-0.063 0.5974,-0.0813 0.5123,-0.0399 1.0436,-0.0813 1.5197,-0.5884 0.3799,-0.4034 0.4719,-0.6143 0.5339,-0.7538 0.0427,-0.0982 0.062,-0.1423 0.1564,-0.2084 0,0 0.1062,-0.0724 0.1861,-0.1264 0.0803,0.1357 0.277,0.3593 0.71,0.3931 0.4386,0.031 0.5523,-0.0352 0.5998,-0.0869 0.0276,-0.0296 0.0393,-0.0671 0.0338,-0.1033 l -0.009,-0.0555 -0.0568,-0.0155 c -0.005,-0.001 -0.1165,-0.03 -0.1809,-0.1605 -0.0841,-0.1654 -0.0572,-0.4279 0.0772,-0.7538 0.3545,-0.8665 3.4306,-2.7764 4.5844,-3.4413 0.3193,-0.1836 0.5143,-0.2753 0.6439,-0.3373 0.2377,-0.114 0.2652,-0.1333 0.309,-0.3518 l 0.0854,-0.3376 c 0.1333,-0.4485 0.0892,-0.6904 0.0413,-0.9426 -0.0361,-0.2004 -0.0751,-0.4085 -0.0389,-0.7527 0.0841,-0.8096 0.5898,-2.1687 1.0397,-2.7985 l 0.0221,-0.0282 -0.0104,-0.0699 -0.007,-0.0128 c -0.4982,-0.9233 -0.9701,-1.7949 -1.1975,-2.712 -0.2081,-0.835 -0.5974,-2.3895 -2.836,-2.365 l 0,0 z m 0.003,0.1812 c 1.9331,-0.0221 2.3844,1.1379 2.6562,2.2279 0.2339,0.9285 0.7021,1.7977 1.1971,2.7168 -0.4667,0.6763 -0.9608,2.0096 -1.0462,2.8412 -0.0104,0.1034 -0.0138,0.1954 -0.0138,0.2794 0,0.2171 0.0296,0.3776 0.0565,0.5237 0.0221,0.1216 0.0427,0.2353 0.0427,0.3686 0,0.1343 -0.0206,0.287 -0.0827,0.4926 l -0.0868,0.3528 c -0.0282,0.1371 -0.0282,0.1371 -0.2105,0.2239 -0.1306,0.0634 -0.3283,0.1578 -0.6556,0.3439 -0.1722,0.0995 -4.213,2.4298 -4.6619,3.5291 -0.0944,0.225 -0.1385,0.4227 -0.1385,0.5936 0,0.1189 0.0221,0.225 0.0703,0.3142 0.0358,0.0723 0.0841,0.1189 0.1278,0.155 -0.0672,0.009 -0.1733,0.0131 -0.3441,0 -0.4886,-0.0348 -0.5998,-0.3593 -0.605,-0.3738 l -0.0375,-0.1136 -0.0982,0.0685 -0.2701,0.1874 c -0.1361,0.092 -0.1737,0.1747 -0.2188,0.2808 -0.0568,0.1292 -0.1437,0.3232 -0.5019,0.7049 -0.4265,0.455 -0.9219,0.495 -1.4029,0.534 -0.2067,0.0168 -0.423,0.0323 -0.6258,0.084 -0.6868,0.1705 -1.8686,0.3673 -2.2152,0.2701 -0.1796,-0.0503 -0.4771,-0.1564 -0.7396,-0.2921 -0.0104,-0.0972 -0.0672,-0.1837 -0.2031,-0.2767 -0.0995,-0.0685 -0.1782,-0.0727 -0.2378,-0.0596 -0.0193,-0.031 -0.0322,-0.062 -0.0402,-0.0958 0.0402,-0.0606 0.0751,-0.1253 0.0751,-0.2043 0,-0.0141 -0.008,-0.031 -0.008,-0.0451 0.005,-0.009 0.1461,-0.1915 0.1461,-0.1915 0,0 -0.2172,0.0234 -0.2198,0.0234 -0.0376,-0.0517 -0.0853,-0.1202 -0.0853,-0.1202 -0.0789,-0.0893 -0.1604,-0.1334 -0.247,-0.1347 -0.0169,0 -0.0427,0.008 -0.0648,0.0131 0.003,-0.0221 0.0129,-0.0452 0.0129,-0.0648 0,-0.1123 -0.0542,-0.2212 -0.2339,-0.3555 -0.0958,-0.0738 -0.1695,-0.0865 -0.2315,-0.0789 -0.003,-0.002 -0.005,-0.008 -0.005,-0.008 -0.0194,-0.0286 -0.0298,-0.0583 -0.0298,-0.0958 0,-0.1667 0.2224,-0.4527 0.9867,-1.1162 0.7694,-0.667 1.3487,-0.5092 2.3962,-0.225 l 0.5288,0.1409 c 1.1715,0.2977 1.5156,-0.031 1.9914,-0.4874 l 0.3673,-0.3387 c 0.5157,-0.4279 1.5272,-1.5375 2.263,-2.3458 l 0.7525,-0.8109 c 0.4657,-0.4679 0.9584,-1.0887 1.0631,-2.1491 0.005,-0.0658 0.0104,-0.1343 0.0104,-0.2043 0,-1.2985 -1.0167,-3.5212 -1.1407,-3.7824 -0.3697,-0.7992 -0.5922,-2.1401 -0.6288,-2.365 0.003,-0.004 0.003,-0.006 0.006,-0.008 0.9074,-0.6157 1.7535,-0.9195 2.581,-0.9271 l -10.3837,16.0996" />
      <path
         id="_21298872"
         style="fill:#ffffff"
         d="m 92.9098,124.313 c 0.4751,0.0607 1.2581,0.2794 2.3108,1.1262 2.3805,2.0278 3.7228,6.2291 4.0817,10.2585 0.2456,2.7571 -0.002,5.5865 -0.4604,8.1404 0.3266,0.2225 0.6913,0.4034 1.0947,0.5109 0.3691,0.0968 0.7629,0.1691 1.174,0.2198 0.5103,-2.8102 0.7578,-5.9252 0.4112,-9.0947 -0.5302,-4.367 -1.9868,-8.9187 -5.2041,-11.4443 -1.3894,-0.9843 -2.5112,-1.3308 -3.5567,-1.1379 -1.0448,0.2119 -1.6616,1.1197 -1.5925,2.1077 0.7332,-0.7086 1.2679,-0.7321 1.7413,-0.6866 l 0,0 z" />
      <path
         id="_21298608"
         style="fill:#1f1a17"
         d="m 92.7468,122.801 c -1.0585,0.2174 -1.7444,1.1224 -1.6676,2.2049 l 0.0124,0.1912 0.139,-0.133 c 0.7106,-0.6894 1.2136,-0.7049 1.6661,-0.6608 0.7042,0.0893 1.4664,0.4616 2.2689,1.1055 2.1251,1.8118 3.6387,5.6252 4.048,10.1979 0.0641,0.7214 0.0965,1.469 0.0965,2.2344 0,1.8453 -0.1862,3.8148 -0.5574,5.8798 l -0.0097,0.0569 0.0465,0.0337 c 0.3595,0.2443 0.7385,0.4217 1.125,0.5237 0.3563,0.0944 0.7552,0.1695 1.1858,0.2225 l 0.0848,0.009 0.0148,-0.0827 c 0.5819,-3.216 0.7209,-6.2849 0.4106,-9.1192 -0.4526,-3.732 -1.7309,-8.7533 -5.2379,-11.5052 -1.3927,-0.988 -2.5442,-1.3563 -3.6258,-1.1586 l 0,0 z m 0.0317,0.1785 c 1.0299,-0.1888 2.1401,0.1667 3.4868,1.1251 3.456,2.7089 4.7193,7.6836 5.1673,11.3809 0.1061,0.9722 0.1585,1.9734 0.1585,2.9972 0,1.9179 -0.1855,3.9185 -0.5549,5.9824 -0.3884,-0.0492 -0.75,-0.1178 -1.0771,-0.2032 -0.3498,-0.093 -0.6917,-0.2546 -1.0209,-0.4734 0.3667,-2.0508 0.5496,-4.0087 0.5496,-5.8474 0,-0.772 -0.0316,-1.5234 -0.0962,-2.2513 -0.4114,-4.6178 -1.9495,-8.4753 -4.1116,-10.3181 -0.8322,-0.6697 -1.6249,-1.0552 -2.3606,-1.1468 l -0.0019,0 c -0.4409,-0.0441 -0.9692,-0.03 -1.6598,0.5739 0.0202,-0.9012 0.6213,-1.6371 1.5208,-1.8193 l 0,0 z" />
      <path
         id="_21298088"
         style="fill:#fff500"
         d="m 92.9098,124.313 c 0.4751,0.0607 1.2581,0.2794 2.3108,1.1262 2.3805,2.0278 3.7228,6.2291 4.0817,10.2585 0.2456,2.7571 -0.002,5.5865 -0.4604,8.1404 0.2205,0.1499 0.4584,0.2808 0.7138,0.3841 0.4894,-2.6692 0.7526,-5.6289 0.4701,-8.5579 -0.4112,-4.1214 -1.8008,-8.4443 -4.4807,-10.6206 -0.6065,-0.4503 -1.1541,-0.6945 -1.813,-0.9129 -0.6072,-0.154 -1.6054,-0.5213 -2.5636,0.8688 0.7332,-0.7086 1.2679,-0.7321 1.7413,-0.6866 z" />
      <path
         id="_21377000"
         style="fill:#1f1a17"
         d="m 91.0942,124.949 0.1364,0.1151 c 0.7106,-0.6894 1.2136,-0.7049 1.6661,-0.6608 0.7042,0.0893 1.4664,0.4616 2.2689,1.1055 2.1251,1.8118 3.6387,5.6252 4.048,10.1979 0.0641,0.7214 0.0965,1.469 0.0965,2.2344 0,1.8453 -0.1862,3.8148 -0.5574,5.8798 l -0.0097,0.0569 0.0465,0.0337 c 0.2353,0.1602 0.4805,0.2922 0.7307,0.3917 l 0.1048,0.0414 0.0193,-0.1086 c 0.5651,-3.0699 0.7229,-5.9562 0.4707,-8.58 -0.483,-4.8517 -2.1278,-8.7453 -4.513,-10.6825 -0.5521,-0.41 -1.0849,-0.6777 -1.8401,-0.9285 -0.0077,-0.003 -0.1216,-0.0324 -0.1216,-0.0324 -0.6013,-0.1563 -1.6099,-0.4227 -2.5461,0.9364 l 0,0 z m 2.5015,-0.7617 0.1165,0.0296 c 0.7279,0.2419 1.2459,0.503 1.7787,0.8989 2.3455,1.9034 3.9678,5.7529 4.4457,10.5585 0.0768,0.8003 0.1162,1.6268 0.1162,2.4763 0,1.879 -0.1906,3.8665 -0.5675,5.9366 -0.185,-0.0813 -0.3687,-0.1784 -0.5471,-0.2973 0.3667,-2.0522 0.5496,-4.0101 0.5496,-5.8488 0,-0.772 -0.0316,-1.5234 -0.0962,-2.2513 -0.4114,-4.6178 -1.9495,-8.4753 -4.1116,-10.3181 -0.8322,-0.6697 -1.6249,-1.0552 -2.3606,-1.1468 l -0.0019,0 c -0.3052,-0.03 -0.6518,-0.031 -1.0655,0.1681 0.6588,-0.4903 1.2905,-0.3249 1.7437,-0.2057 l 0,0 z" />
      <path
         id="_21376736"
         style="fill:#1f1a17"
         d="m 90.255,133.039 -0.3175,0.2611 0.1137,0.1399 0.3168,-0.2625 c 0.1023,-0.0817 0.2179,-0.1089 0.3369,-0.0751 0.1837,0.0516 0.3499,0.2366 0.4333,0.4837 0.0427,0.1202 0.0575,0.2494 0.0575,0.3762 0,0.2249 -0.0498,0.4292 -0.0822,0.5433 -0.1655,-0.0868 -1.2252,-0.6377 -1.2252,-0.6377 l -0.0846,0.1578 1.4114,0.7359 0.0374,-0.0945 c 0.0098,-0.0258 0.2329,-0.6325 0.057,-1.1406 -0.1061,-0.3052 -0.3149,-0.5275 -0.5548,-0.596 -0.1759,-0.0507 -0.3536,-0.0118 -0.4997,0.1085 l 0,0 z" />
      <path
         id="_21376112"
         style="fill:#1f1a17"
         d="m 87.1928,139.737 0.0944,0.1089 c 0.1041,-0.092 0.3964,-0.0841 0.5542,-0.0583 l 0.0258,-0.1422 c -0.0498,-0.007 -0.4882,-0.0738 -0.6744,0.0916 l 0,0 z" />
      <path
         id="_21375016"
         style="fill:#1f1a17"
         d="m 91.9166,137.27 c 0.0317,0.2222 -0.0428,0.6462 -0.1339,1.1806 l -0.0349,0.194 c -0.1163,0.6776 -0.7008,1.0214 -0.9459,1.1379 -0.3149,0.1485 -1.4735,0.3686 -2.2274,-0.0183 l -0.0639,0.1295 c 0.8075,0.4138 2.0114,0.1823 2.3533,0.0193 0.2651,-0.1267 0.8988,-0.5005 1.0282,-1.2454 l 0.0315,-0.1926 c 0.0991,-0.5691 0.1681,-0.9801 0.1339,-1.2257 l -0.1409,0.0207 z" />
      <path
         id="_21370016"
         style="fill:#1f1a17"
         d="m 90.255,133.039 -0.3175,0.2611 0.1137,0.1399 0.3168,-0.2625 c 0.1023,-0.0817 0.2179,-0.1089 0.3369,-0.0751 0.1837,0.0516 0.3499,0.2366 0.4333,0.4837 0.0427,0.1202 0.0575,0.2494 0.0575,0.3762 0,0.2249 -0.0498,0.4292 -0.0822,0.5433 -0.1655,-0.0868 -1.2252,-0.6377 -1.2252,-0.6377 l -0.0846,0.1578 1.4114,0.7359 0.0374,-0.0945 c 0.0098,-0.0258 0.2329,-0.6325 0.057,-1.1406 -0.1061,-0.3052 -0.3149,-0.5275 -0.5548,-0.596 -0.1759,-0.0507 -0.3536,-0.0118 -0.4997,0.1085 l 0,0 z" />
      <path
         id="_21374512"
         style="fill:#201b14"
         d="m 129.992,136.775 c -1.2389,-1.5879 -3.2639,-3.0672 -6.0221,-4.3942 -1.8273,-0.882 -5.1904,-2.8629 -6.4292,-4.4329 -0.5691,-0.7214 -0.7552,-1.3694 -0.7552,-1.9151 0,-0.6852 0.2894,-1.2154 0.4706,-1.5451 0.2574,-0.4734 0.4438,-1.0101 0.4438,-1.4873 0,-0.4409 -0.1592,-0.8289 -0.5678,-1.0655 -0.904,-0.5237 -2.117,0.7641 -2.6679,1.6991 -0.3789,0.6442 -1.5131,2.9628 -0.1385,5.7599 1.2065,2.4556 3.237,3.6424 4.7212,4.5089 l 0.2446,0.145 1.4145,0.7862 c 2.1457,1.1717 5.7355,3.1333 6.6456,4.3257 1.1276,1.4741 1.7147,2.6637 0.9089,3.6724 -0.7821,0.9788 -2.4399,0.5157 -3.737,-0.3776 -1.328,-0.9157 -2.1183,-1.3849 -3.2897,-1.747 -1.3863,-0.4268 -2.7957,-0.5911 -3.8664,-0.4526 -0.8416,0.1085 -2.527,0.5029 -4.3667,1.9099 l -0.268,0.2081 c -0.6218,0.4813 -0.8533,0.6621 -2.0753,1.0204 -0.0648,0.0179 -6.759,1.9124 -10.698,0.8689 -1.2064,-0.3218 -2.2887,-1.377 -3.1286,-3.0582 -0.1216,-0.2443 -0.2426,-0.5871 -0.3718,-0.9478 -0.1779,-0.5033 -0.3808,-1.0697 -0.6407,-1.553 -0.4436,-0.8213 -1.6921,-2.62 -2.1556,-3.1061 -0.4159,-0.4372 -1.4685,-1.252 -1.6669,-1.4032 -0.0071,-0.1034 -0.0317,-0.4072 -0.0867,-0.7538 -0.0666,-0.4203 -0.1138,-0.7204 -0.5922,-0.9467 -0.4708,-0.2236 -0.8096,-0.1616 -1.1788,-0.001 -0.3212,0.1423 -0.6633,0.5692 -0.7673,0.7062 -0.132,-0.0182 -0.5077,-0.0647 -0.924,-0.083 -0.5347,-0.023 -2.133,0.162 -2.6011,0.4879 -0.2521,0.1784 -0.4165,0.4137 -0.5625,0.6218 -0.1236,0.1757 -0.2372,0.3387 -0.3809,0.4358 -0.2036,0.1357 -0.4804,0.1954 -0.7507,0.2546 l -0.468,0.1192 c -0.2871,0.0954 -0.4734,0.2884 -0.622,0.4448 -0.0719,0.075 -0.1409,0.1488 -0.2101,0.1963 l -0.2353,0.1489 c -0.2633,0.1564 -0.5871,0.3531 -0.7132,0.5522 -0.077,0.1216 -0.1073,0.216 -0.1073,0.3142 0,0.0996 0.0303,0.2043 0.0697,0.3466 l 0.0491,0.1822 c 0,0 0.139,0.3066 0.154,0.339 0,0.008 0,0.0104 0,0.0231 0,0.1254 0.0174,0.4813 0.1933,0.7359 0.2031,0.2962 0.4086,0.5898 0.9388,0.5433 0.2625,-0.0248 0.4682,-0.1347 0.6485,-0.2329 0.1687,-0.0906 0.3271,-0.1747 0.5108,-0.185 0.2644,-0.0141 0.503,0.0516 0.6389,0.1746 0.0768,0.07 0.1163,0.1551 0.1214,0.2546 0.0143,0.3752 -0.035,0.5278 -0.3666,0.697 -0.1855,0.0958 -0.3665,0.0999 -0.5574,0.1051 -0.2553,0.005 -0.5398,0.0103 -0.8792,0.2287 -0.1164,0.0775 -0.1436,0.1695 -0.1462,0.2315 -0.0052,0.1396 0.1016,0.2908 0.3266,0.4641 0.0989,0.0751 0.1564,0.1526 0.2186,0.2315 0.0892,0.1192 0.1803,0.2418 0.4034,0.3503 0.4603,0.2278 0.847,0.1075 1.2905,-0.0334 l 0.159,-0.0492 c 0.2593,-0.0803 0.4797,-0.2664 0.6732,-0.4331 0.1907,-0.1605 0.3717,-0.3142 0.5274,-0.3104 0.6246,0.0155 1.2978,0.472 1.8034,1.222 0.3421,0.5043 0.6098,0.9012 0.8768,2.3768 0.3917,2.1673 0.3271,2.929 0.2475,3.8936 -0.0639,0.7641 -0.1364,1.6295 -0.0071,3.3752 0.2353,3.2094 1.5944,5.2086 4.689,6.6621 0.0096,0.0985 0.0989,1.0824 -0.0221,1.5468 -0.0821,0.318 -0.6098,2.0664 -1.1198,3.7566 l -0.8373,2.7826 c -0.3518,1.1768 -0.6965,2.1752 -1.3701,2.4674 -0.3887,0.1667 -0.8741,0.0995 -1.4858,-0.2081 -0.7525,-0.3776 -0.9692,-0.4283 -0.9782,-0.4293 -0.0847,-0.009 -0.7533,-0.0675 -1.0306,0.0489 -0.2728,0.1113 -1.2828,0.7397 -1.5777,0.9674 -0.201,0.154 -0.3524,0.4565 -0.3691,0.7448 -0.0026,0.0169 -0.0026,0.0362 -0.0026,0.0531 0,0.1461 0.0394,0.2611 0.1163,0.3387 0.1042,0.1036 0.1979,0.1577 0.2723,0.1887 -0.0117,0.0286 -0.022,0.0624 -0.0246,0.101 0,0.004 0,0.006 0,0.0103 0,0.092 0.0446,0.1798 0.1338,0.2601 0.139,0.1254 0.2877,0.1743 0.399,0.2002 -0.0254,0.0493 -0.0421,0.1075 -0.0421,0.1681 0,0.0727 0.0219,0.1475 0.0789,0.2201 0.1442,0.1861 0.5108,0.2377 0.6641,0.2519 0.0472,0.1361 0.2224,0.3958 0.889,0.4503 0.5424,0.0427 1.0306,-0.0831 1.5033,-0.2033 0.263,-0.0672 0.5332,-0.1357 0.8075,-0.1771 l 0.4337,-0.0465 c 0.82,-0.0751 1.9417,-0.1785 2.7816,-1.0928 0.5994,-0.6542 0.7849,-1.0459 0.8366,-1.2657 0.1416,0.0903 0.3971,0.1719 0.8256,0.0916 0.7578,-0.1422 0.805,-0.4888 0.8076,-0.5264 l 0.0098,-0.1268 -0.1242,0.0324 c -0.0148,0.003 -0.3562,0.092 -0.646,-0.1991 -0.2533,-0.2522 -0.0472,-1.0577 0.2846,-1.7212 0.1085,-0.2212 0.6239,-1.1238 1.2208,-2.1711 0.8301,-1.4586 1.7734,-3.1098 1.917,-3.4385 l 0.062,-0.1409 c 0.1881,-0.4189 0.4112,-0.9206 0.5154,-1.6733 2.204,0.0775 5.0612,-0.2574 7.4755,-1.3036 2.8125,-1.2179 5.043,-3.6735 6.2416,-4.994 0.3272,-0.3607 0.5653,-0.6219 0.6931,-0.7214 l 0.3893,-0.3363 c 0.7772,-0.6959 2.2283,-1.993 3.9274,-2.0095 1.9331,-0.0221 2.3844,1.1379 2.6562,2.2279 0.2363,0.9416 0.7162,1.8297 1.2733,2.8591 l 0.1088,0.2005 0.8097,1.4187 c 0.6104,1.0501 1.3022,2.2383 1.5516,2.8746 0.1179,0.2987 0.2377,0.5378 0.3414,0.7514 0.2381,0.4823 0.3969,0.8017 0.3504,1.3694 -0.0672,0.8561 -0.1099,1.244 -0.4692,2.2744 -0.3611,1.0412 -1.305,2.9446 -1.7408,3.511 -0.4303,0.5612 -0.6246,0.618 -1.2582,0.618 -0.3696,0 -0.741,-0.0761 -1.0655,-0.1419 -0.2405,-0.0493 -0.4679,-0.0944 -0.6636,-0.1051 -0.4754,-0.0258 -1.4441,0.1836 -2.0712,0.5212 -0.5098,0.2756 -0.6607,0.4785 -0.9584,0.913 -0.0916,0.1357 -0.0709,0.3324 0.0675,0.5963 l 0.0297,0.0593 0.0671,-0.0128 c 0.0207,-0.004 0.0517,0.008 0.0841,0.0362 0.2057,0.1667 0.2277,0.2691 0.2002,0.4344 l -0.008,0.04 0.1192,0.1437 0.04,0 c 0.0206,0.001 0.0489,0.013 0.0761,0.0348 0.1671,0.1319 0.2029,0.2174 0.2084,0.3028 l 0.002,0.0323 0.3166,0.3336 0.0469,-0.0104 c 0.0258,-0.004 0.0568,0.0155 0.0775,0.031 0.154,0.1137 0.1874,0.1837 0.1926,0.2546 l 0.003,0.0365 0.173,0.163 0.0234,0.005 c 0.0286,0.008 0.7424,0.1837 1.3591,0.1151 0.3169,-0.0365 0.6635,-0.1268 1.0642,-0.2343 0.37,-0.0981 0.7889,-0.208 1.2388,-0.2845 l 0.1268,-0.0217 c 0.8055,-0.1371 0.8523,-0.1451 1.4938,-0.6959 0.5195,-0.4513 0.7989,-0.9722 0.9012,-1.191 0.0889,0.0441 0.2378,0.0803 0.4951,0.0389 0.3455,-0.0544 0.617,-0.1929 0.8175,-0.2935 l 0.1509,-0.0737 c 0.1619,-0.0724 0.2136,-0.2174 0.1695,-0.3156 -0.0385,-0.0841 -0.1409,-0.1385 -0.2869,-0.0723 -0.0969,0.0413 -0.2457,0.0696 -0.3545,0.0113 -0.08,-0.0451 -0.1317,-0.1316 -0.151,-0.2597 -0.0647,-0.4048 0.8765,-1.7446 1.7843,-3.0413 1.0683,-1.5221 2.2024,-3.4438 2.2024,-4.0167 0,-0.41 -0.269,-0.8044 -0.4282,-1.0383 -0.0389,-0.0596 -0.0865,-0.1268 -0.092,-0.1451 l 0,0.0131 c 0,-0.0503 -0.0296,-0.0906 -0.1034,-0.1888 -0.1756,-0.2277 -0.587,-0.7631 -0.587,-1.5892 0,-0.4682 0.1309,-1.4897 0.2794,-2.6731 0.2057,-1.5981 0.4358,-3.4085 0.4358,-4.5337 0,-1.214 -0.1178,-2.5628 -0.3479,-4.006 l -0.0131,-0.084 c -0.0231,-0.1423 -0.1795,-0.1967 -0.3025,-0.2405 -0.0489,-0.0169 -0.1306,-0.0468 -0.1461,-0.0675 0.008,-0.0348 0.0892,-0.1654 0.7631,-0.5443 1.6216,-0.9181 2.59,-2.2862 2.7247,-3.8547 0.0166,-0.2071 0.0269,-0.4114 0.0269,-0.6157 0,-1.685 -0.6077,-3.2873 -1.8479,-4.8751 l 0,0 z" />
      <path
         id="_21365608"
         style="fill:#ffffff"
         d="m 131.634,142.249 c -0.1282,1.5079 -1.0659,2.8267 -2.6355,3.7138 -0.7283,0.4127 -0.8665,0.5819 -0.8551,0.7217 0.0103,0.1279 0.1464,0.1757 0.268,0.2185 0.0672,0.022 0.1785,0.0606 0.1823,0.0981 l 0.0127,0.0827 c 0.2302,1.437 0.3466,2.7754 0.3466,3.9791 0,1.1148 -0.2288,2.9187 -0.433,4.5117 -0.1513,1.1886 -0.2794,2.2152 -0.2794,2.6951 0,0.8895 0.4358,1.4573 0.6221,1.7005 l 0.0724,0.0995 -0.003,-0.022 c 0,0.0544 0.0365,0.1099 0.1205,0.2329 0.1485,0.217 0.3969,0.5819 0.3969,0.9374 0,0.5081 -1.1252,2.4271 -2.1687,3.9129 -1.1186,1.5958 -1.8221,2.6228 -1.8221,3.1075 0,0.0221 0.003,0.0455 0.005,0.0662 0.0372,0.2339 0.1523,0.3386 0.2429,0.3879 0.1643,0.0903 0.3738,0.0568 0.5123,-0.006 0.0244,-0.008 0.0386,-0.0104 0.0489,-0.0104 -0.003,0.0128 -0.0179,0.0479 -0.0765,0.0737 l -0.1588,0.0776 c -0.1878,0.0944 -0.4489,0.2249 -0.7645,0.2755 -0.3452,0.0541 -0.4265,-0.0506 -0.4292,-0.052 l -0.0968,-0.1264 -0.061,0.1447 c -0.002,0.006 -0.2715,0.6852 -0.8999,1.2271 -0.6025,0.5172 -0.6167,0.5199 -1.4042,0.6542 l -0.1268,0.0221 c -0.4578,0.0775 -0.8819,0.1902 -1.253,0.2884 -0.3972,0.1047 -0.7358,0.1953 -1.0411,0.2277 -0.5274,0.0596 -1.1534,-0.0765 -1.2723,-0.1048 -0.022,-0.0182 -0.0685,-0.0633 -0.0943,-0.0867 -0.0221,-0.1217 -0.0972,-0.2264 -0.255,-0.3467 -0.0544,-0.0427 -0.1085,-0.0633 -0.1626,-0.0657 -0.0379,-0.04 -0.1915,-0.1968 -0.2163,-0.225 -0.0193,-0.1409 -0.102,-0.2611 -0.2701,-0.3945 -0.0441,-0.0348 -0.0893,-0.053 -0.133,-0.0633 -0.0103,-0.0118 -0.0159,-0.0156 -0.0262,-0.0297 0.003,-0.0272 0.008,-0.0568 0.008,-0.083 0,-0.1823 -0.0816,-0.3204 -0.2742,-0.4758 -0.0493,-0.0437 -0.1023,-0.062 -0.154,-0.0699 -0.0517,-0.1109 -0.0841,-0.2043 -0.0841,-0.2729 0,-0.0399 0.007,-0.0723 0.0248,-0.0954 0.287,-0.4203 0.4203,-0.6015 0.8972,-0.8561 0.5987,-0.3235 1.522,-0.5236 1.9733,-0.502 0.1826,0.009 0.4038,0.0545 0.6366,0.1024 0.3349,0.0685 0.7135,0.146 1.1028,0.146 0.6866,0 0.935,-0.0854 1.3991,-0.689 0.454,-0.5898 1.3966,-2.4856 1.7715,-3.5601 0.3637,-1.0501 0.4099,-1.4704 0.4774,-2.3186 0.0503,-0.6194 -0.1268,-0.9739 -0.37,-1.4638 -0.1019,-0.2095 -0.2198,-0.4448 -0.3334,-0.7387 -0.2574,-0.649 -0.9506,-1.8438 -1.5662,-2.899 l -0.8041,-1.4121 -0.1088,-0.203 c -0.5506,-1.0176 -1.0253,-1.8972 -1.2554,-2.8167 -0.2081,-0.835 -0.5974,-2.3895 -2.836,-2.365 -1.7663,0.0193 -3.2481,1.345 -4.0425,2.055 l -0.3824,0.3297 c -0.1413,0.1085 -0.3817,0.3748 -0.7152,0.742 -1.19,1.3112 -3.4036,3.7476 -6.1771,4.9503 -2.3897,1.0359 -5.2101,1.3667 -7.3844,1.2919 0.0143,-0.1409 0.0246,-0.2883 0.0324,-0.4448 0.0394,-1.1279 0.6135,-1.4562 0.6187,-1.46 l -0.0841,-0.1578 c -0.0272,0.0141 -0.6692,0.3711 -0.7157,1.6099 -0.0394,1.0863 -0.3247,1.7198 -0.5522,2.2293 l -0.062,0.1409 c -0.1416,0.3208 -1.0804,1.9682 -1.91,3.4231 -0.5969,1.0501 -1.1147,1.9551 -1.226,2.1804 -0.0542,0.1099 -0.4182,0.8558 -0.4182,1.4249 0,0.2019 0.0465,0.3814 0.1681,0.503 0.2205,0.2211 0.4655,0.2677 0.6317,0.2677 -0.0796,0.0802 -0.2431,0.185 -0.5845,0.247 -0.6292,0.1188 -0.7882,-0.1437 -0.7959,-0.154 l -0.163,0.0751 c 0.0026,0.004 0.0892,0.3335 -0.805,1.3088 -0.7927,0.865 -1.8724,0.9646 -2.6625,1.0369 l -0.4436,0.0479 c -0.2843,0.04 -0.5624,0.1113 -0.8275,0.1799 -0.4804,0.1226 -0.9331,0.2391 -1.4438,0.1963 -0.7157,-0.0568 -0.7404,-0.3527 -0.7404,-0.3569 l -0.0051,-0.0813 -0.082,-0.007 c -0.1806,-0.007 -0.5051,-0.0658 -0.5988,-0.1874 -0.104,-0.1306 0.0219,-0.2667 0.0369,-0.2822 l 0.1487,-0.1512 -0.2135,-10e-4 c -0.0025,0 -0.2346,-0.005 -0.4279,-0.1774 -0.0349,-0.0324 -0.077,-0.0799 -0.077,-0.1278 0.0026,-0.0506 0.0498,-0.092 0.0498,-0.092 l 0.183,-0.1485 -0.2379,-0.009 c 0,0 -0.1261,-0.007 -0.2923,-0.1756 -0.0491,-0.048 -0.0717,-0.1372 -0.064,-0.255 0.0149,-0.2287 0.1436,-0.4927 0.2994,-0.6115 0.2825,-0.2174 1.2807,-0.8379 1.5355,-0.944 0.2031,-0.084 0.7462,-0.0582 0.9362,-0.0389 0,0.001 0.2179,0.0582 0.9266,0.4151 0.6614,0.3311 1.1961,0.3997 1.6371,0.2109 0.7455,-0.3221 1.1076,-1.3605 1.469,-2.5811 l 0.8366,-2.7816 c 0.5114,-1.6929 1.0384,-3.4423 1.1224,-3.763 0.1365,-0.5213 0.0298,-1.5879 0.0252,-1.632 -0.0078,-0.0337 -0.481,-1.9668 -0.1144,-3.3724 0.3717,-1.4149 1.1599,-2.6331 1.1689,-2.6444 l -0.1512,-0.0986 c -0.0064,0.0131 -0.8141,1.252 -1.191,2.6965 -0.3097,1.1882 -0.0524,2.6868 0.0648,3.2353 0,0 0,0 -0.0028,0 -2.9373,-1.4211 -4.233,-3.3634 -4.4605,-6.4516 -0.1268,-1.7326 -0.0543,-2.5901 0.007,-3.3466 0.0822,-0.9787 0.1463,-1.7508 -0.2501,-3.9388 -0.2723,-1.5144 -0.5496,-1.9254 -0.9019,-2.4481 -0.5471,-0.8106 -1.2551,-1.2826 -1.9489,-1.2995 -0.2249,-0.005 -0.4311,0.1682 -0.649,0.3532 -0.1881,0.1615 -0.3835,0.3283 -0.6092,0.3982 l -0.1589,0.049 c -0.4255,0.1333 -0.7624,0.2394 -1.1588,0.0427 -0.1836,-0.0907 -0.2553,-0.185 -0.3393,-0.2973 -0.062,-0.0827 -0.1339,-0.1747 -0.2529,-0.2664 -0.2346,-0.1798 -0.2573,-0.278 -0.2553,-0.3131 0,-0.0128 0,-0.0465 0.0646,-0.0879 0.2947,-0.1912 0.5328,-0.1963 0.7829,-0.2015 0.2024,-0.005 0.4139,-0.009 0.637,-0.1216 0.4182,-0.2136 0.4823,-0.4489 0.4629,-0.8665 -0.0052,-0.1474 -0.0672,-0.2794 -0.1785,-0.3803 -0.1714,-0.155 -0.4584,-0.2367 -0.7674,-0.2198 -0.2256,0.0104 -0.4119,0.1085 -0.587,0.2043 -0.1759,0.0958 -0.3551,0.1915 -0.5826,0.2122 -0.4236,0.0386 -0.5748,-0.1784 -0.7676,-0.4564 -0.1538,-0.224 -0.1686,-0.5458 -0.1686,-0.6481 0,-0.0193 0.0026,-0.031 0.0026,-0.0323 l 0,-0.0207 c 0,0 -0.1592,-0.3504 -0.1637,-0.3631 -0.0045,-0.0145 -0.0472,-0.1723 -0.0472,-0.1723 -0.0394,-0.1381 -0.064,-0.2236 -0.064,-0.2959 0,-0.0724 0.0246,-0.132 0.0788,-0.2198 0.1043,-0.1619 0.421,-0.3545 0.6544,-0.494 l 0.245,-0.1554 c 0.084,-0.0583 0.1604,-0.1368 0.2399,-0.2208 0.1416,-0.1489 0.3027,-0.3156 0.5477,-0.3987 l 0.4506,-0.1123 c 0.2845,-0.062 0.5794,-0.1267 0.8103,-0.2808 0.1731,-0.1136 0.2973,-0.2935 0.4278,-0.4822 0.1437,-0.2057 0.2923,-0.419 0.518,-0.5781 0.4307,-0.2998 1.9895,-0.4772 2.4893,-0.4552 0.5074,0.0207 0.9561,0.0879 0.9613,0.0879 l 0.0519,0.008 0.0322,-0.0441 c 0.0051,-0.004 0.3963,-0.5443 0.7307,-0.6904 0.3297,-0.1447 0.6168,-0.1953 1.028,-0.001 0.3912,0.1863 0.4261,0.4086 0.4901,0.8109 0.0666,0.419 0.0899,0.7772 0.0899,0.781 l 0.0019,0.04 0.0323,0.0258 c 0.013,0.009 1.2382,0.9468 1.6792,1.4098 0.4539,0.4771 1.6869,2.2551 2.1253,3.0658 0.2553,0.4709 0.4537,1.0331 0.629,1.5272 0.1313,0.3672 0.2553,0.7152 0.3814,0.9698 0.8646,1.7263 1.9863,2.8167 3.2451,3.1502 3.9848,1.058 10.7271,-0.851 10.7957,-0.8717 1.2515,-0.3658 1.4924,-0.5532 2.1311,-1.05 l 0.2687,-0.2067 c 1.8052,-1.3812 3.4579,-1.7677 4.2788,-1.8752 1.0466,-0.1343 2.4274,0.0286 3.7931,0.4476 1.1493,0.3541 1.9265,0.8171 3.239,1.7235 1.3657,0.9416 3.1244,1.4111 3.9778,0.3414 0.9308,-1.1651 0.1137,-2.5604 -0.9065,-3.8936 -0.9336,-1.222 -4.4045,-3.1202 -6.6996,-4.3746 l -1.4098,-0.7824 -0.248,-0.146 c -1.4614,-0.8548 -3.4644,-2.0251 -4.6488,-4.4329 -1.3319,-2.7171 -0.2353,-4.9643 0.1319,-5.5903 0.5547,-0.9402 1.6733,-2.0678 2.4219,-1.6333 0.9547,0.5508 0.216,2.0212 0.0569,2.3109 -0.3411,0.6284 -1.0536,1.9358 0.3024,3.657 1.2561,1.593 4.6502,3.5963 6.4944,4.4834 2.7296,1.3151 4.7366,2.7765 5.9576,4.3436 1.3601,1.7419 1.9444,3.4965 1.7832,5.3627 l 0,0 z" />
      <path
         id="_21365000"
         style="fill:#1f1a17"
         d="m 94.3736,157.85 c 0,0 0,0 0,-0.001 0,0.001 0,0.001 0,0.001 z" />
      <path
         id="_21364616"
         style="fill:#1f1a17"
         d="m 94.349,157.746 c 0,-0.001 0,-0.003 -0.0026,-0.005 0.0026,0.002 0.0026,0.004 0.0026,0.005 z" />
      <path
         id="_21361448"
         style="fill:#1f1a17"
         d="m 87.9182,135.103 c -0.1332,-0.1953 -0.4086,-0.33 -0.7254,-0.33 -0.4409,0 -0.7998,0.2563 -0.8101,0.5757 -0.0291,0.0465 -0.0692,0.102 -0.1235,0.1474 -0.1113,0.0944 -0.2747,0.1396 -0.2747,0.1396 l 0.0763,0.1708 0.3541,0.009 0.3616,0.0606 -0.0195,-0.0155 c 0.1268,0.0582 0.2755,0.0906 0.4358,0.0906 0.3692,0 0.6834,-0.1812 0.7778,-0.4306 0.0375,-0.0389 0.0913,-0.0906 0.1539,-0.1281 0.1111,-0.0683 0.4481,0.0182 0.4481,0.0182 l -0.6544,-0.3077 z m -0.3213,0.0696 c 0,0.2278 -0.1862,0.4128 -0.4118,0.4128 -0.227,0 -0.4133,-0.185 -0.4133,-0.4128 0,-0.0892 0.0298,-0.1705 0.077,-0.2377 0.0594,-0.022 0.1235,-0.0389 0.1902,-0.0492 -0.077,0.0479 -0.1256,0.1254 -0.1256,0.2146 0,0.1461 0.1333,0.2653 0.2994,0.2653 0.1662,0 0.302,-0.1192 0.302,-0.2653 0,-0.0827 -0.044,-0.1564 -0.1137,-0.2043 0.0394,0.008 0.0761,0.0193 0.1137,0.0324 0.0523,0.0686 0.0821,0.1526 0.0821,0.2442 z m -0.4041,0.6791 c -0.3912,0 -0.7105,-0.2184 -0.7105,-0.4903 0,-0.1371 0.084,-0.2611 0.2179,-0.3503 -0.0176,0.0516 -0.0305,0.1061 -0.0305,0.1615 0,0.2832 0.2308,0.5137 0.5154,0.5137 0.2831,0 0.5126,-0.2305 0.5126,-0.5137 0,-0.0606 -0.0116,-0.1174 -0.0315,-0.1719 0.1435,0.0906 0.2353,0.2184 0.2353,0.3607 0,0.2719 -0.3194,0.4903 -0.7087,0.4903 l 0,0 z" />
      <path
         id="_21357888"
         style="fill:#1f1a17"
         d="m 86.3238,135.321 c -0.0322,0.0517 -0.0672,0.0958 -0.104,0.1254 -0.0996,0.0854 -0.2503,0.1267 -0.2529,0.1267 l -0.0717,0.0183 0.1235,0.278 0.3936,0.009 c 0,0 0.3893,0.0658 0.4088,0.0685 0.1169,0.0414 0.2405,0.0696 0.3717,0.0696 0.3867,0 0.7306,-0.195 0.8373,-0.473 l -0.0123,0.0217 0.139,-0.1202 c 0.0614,-0.0362 0.2742,-0.006 0.3984,0.0258 l 0.0446,-0.1188 c 0,0 -0.6267,-0.2936 -0.6466,-0.3011 -0.1532,-0.2098 -0.441,-0.3428 -0.7604,-0.3428 -0.4682,0 -0.8392,0.2691 -0.869,0.6129 z m -0.0219,0.2225 c 0.0491,-0.0403 0.0937,-0.0971 0.1358,-0.1629 l 0.0077,-0.0145 0.0026,-0.0165 c 0.0064,-0.2832 0.3414,-0.5137 0.7448,-0.5137 0.2825,0 0.5476,0.1178 0.6718,0.3028 l 0.0097,0.0128 c 0,0 0.1732,0.083 0.3297,0.1553 -0.0426,0.005 -0.0846,0.0128 -0.1144,0.0324 l -0.1778,0.1485 0,0.0103 c -0.0899,0.2302 -0.3846,0.3894 -0.719,0.3894 -0.1461,0 -0.2871,-0.0283 -0.4086,-0.0865 0,0 -0.0051,0.009 -0.0051,0.0103 -0.0195,-0.004 -0.3537,-0.0596 -0.3537,-0.0596 0,0 -0.2606,-0.007 -0.3221,-0.008 -0.0103,-0.0231 -0.0181,-0.0386 -0.0322,-0.0723 0.0613,-0.0232 0.1538,-0.0634 0.2308,-0.1279 l 0,0 z" />
      <path
         id="_21356408"
         style="fill:#1f1a17"
         d="m 86.8263,134.875 -0.0221,0.007 -0.0051,0.0168 c -0.0588,0.08 -0.0893,0.1744 -0.0893,0.2739 0,0.2626 0.2128,0.4761 0.4753,0.4761 0.2632,0 0.4757,-0.2135 0.4757,-0.4761 0,-0.1033 -0.0322,-0.2001 -0.0937,-0.2818 l -0.0155,-0.0179 -0.1357,-0.0389 -0.0524,0.1137 c 0.0576,0.0389 0.0873,0.0958 0.0873,0.1526 0,0.1127 -0.1067,0.2019 -0.238,0.2019 -0.1312,0 -0.2379,-0.0892 -0.2379,-0.2019 0,-0.0634 0.0369,-0.1216 0.0989,-0.1616 l -0.0439,-0.1164 -0.2036,0.053 0,0 z m 0.0103,0.2973 c 0,-0.0451 0.0122,-0.0892 0.0291,-0.1291 -0.0046,0.0192 -0.0169,0.0361 -0.0169,0.0568 0,0.1822 0.163,0.3297 0.364,0.3297 0.1287,0 0.2355,-0.0634 0.2994,-0.1512 -0.044,0.1398 -0.1733,0.2432 -0.3271,0.2432 -0.1928,0 -0.3485,-0.1578 -0.3485,-0.3494 l 0,0 z" />
      <path
         id="_21351856"
         style="fill:#1f1a17"
         d="m 87.6066,135.022 c 0.0194,0.0493 0.0272,0.1009 0.0272,0.1498 0,0.2484 -0.2005,0.4503 -0.4487,0.4503 -0.2471,0 -0.4501,-0.2019 -0.4501,-0.4503 l 0.0492,-0.2856 -0.1209,0.0724 c -0.1566,0.1061 -0.2431,0.2484 -0.2431,0.402 0,0.3053 0.3471,0.5537 0.7726,0.5537 0.4241,0 0.7707,-0.2484 0.7707,-0.5537 0,-0.1578 -0.0944,-0.309 -0.2632,-0.4137 l -0.1557,-0.0982 0.062,0.1733 0,0 z m 0.154,0.1526 c 0.0465,0.0582 0.0768,0.1202 0.0768,0.186 0,0.2357 -0.2902,0.4269 -0.6446,0.4269 -0.3562,0 -0.6459,-0.1912 -0.6459,-0.4269 0,-0.062 0.0246,-0.1188 0.0641,-0.1743 0.0077,0.3114 0.2599,0.5623 0.5741,0.5623 0.3174,0 0.5755,-0.2574 0.5755,-0.574 l 0,0 z" />
      <path
         id="_21352992"
         style="fill:#ffffff"
         d="m 101.448,135.391 c 0.7434,4.2985 -0.1909,8.7816 -1.1024,12.3948 l 0.1169,0.0296 c 0.7474,-0.4889 1.612,-0.8106 2.5411,-0.9168 0.8005,-3.4733 1.4521,-7.6708 0.6427,-11.9048 -0.4487,-2.413 -1.4232,-4.6605 -2.3995,-6.6504 -0.9576,-1.9982 -2.0727,-3.8368 -2.0903,-5.3551 0.0331,-1.2595 0.5703,-2.2472 0.8251,-2.7323 0.2851,-0.4964 0.622,-0.843 1.7341,-1.0566 -0.4461,-0.2804 -0.882,-0.4847 -1.3973,-0.4861 -0.5101,-0.001 -1.0274,0.2367 -1.4095,0.595 -0.3885,0.3593 -0.6809,0.8158 -0.9434,1.3745 -0.2398,0.5303 -0.5528,1.2737 -0.5922,2.2797 -0.0195,2.3651 1.1968,4.2698 2.0212,6.2473 0.8921,1.9899 1.7036,4.0397 2.0535,6.1812 l 0,0 z" />
      <path
         id="_21352624"
         style="fill:#1f1a17"
         d="m 98.8471,119.242 c -0.3666,0.34 -0.6744,0.7862 -0.964,1.4018 -0.1953,0.4331 -0.56,1.2337 -0.6013,2.3148 -0.0155,1.849 0.7176,3.4216 1.4263,4.9437 0.2031,0.4396 0.4158,0.8947 0.602,1.3422 0.8547,1.9048 1.6914,3.9688 2.0483,6.1619 l 0,0.001 c 0.7234,4.1844 -0.1514,8.5941 -1.1025,12.3544 l -0.0194,0.0869 0.2425,0.0634 0.0317,-0.0235 c 0.7512,-0.4875 1.6151,-0.8003 2.5029,-0.9012 l 0.0646,-0.007 0.0154,-0.062 c 0.6855,-2.9821 1.4975,-7.4628 0.639,-11.942 -0.4643,-2.505 -1.4775,-4.7798 -2.404,-6.6729 l -0.5897,-1.1858 c -0.7603,-1.5103 -1.4781,-2.9393 -1.4936,-4.1317 0.0298,-1.2037 0.5283,-2.1452 0.7953,-2.652 l 0.02,-0.0375 c 0.2529,-0.4372 0.5374,-0.7914 1.6714,-1.0088 l 0.2231,-0.0427 -0.1933,-0.1212 c -0.3912,-0.246 -0.869,-0.4993 -1.4438,-0.502 -0.5127,-10e-4 -1.0506,0.2239 -1.4709,0.6194 l 0,0 z m 0.629,9.9326 c -0.1881,-0.4513 -0.4015,-0.9078 -0.607,-1.3498 -0.6912,-1.4859 -1.407,-3.0248 -1.407,-4.808 0,-0.0196 0,-0.0362 0,-0.0544 0.0402,-1.0421 0.3938,-1.8232 0.5845,-2.2435 0.2773,-0.5935 0.5722,-1.0218 0.924,-1.3436 0.3815,-0.3596 0.8864,-0.5742 1.3474,-0.5729 0.4435,0.002 0.8173,0.163 1.1566,0.3607 -0.9212,0.2122 -1.2781,0.5368 -1.573,1.0463 0,0.004 -0.0195,0.0427 -0.0195,0.0427 -0.2754,0.5185 -0.7855,1.4845 -0.8146,2.7337 0.0123,1.2375 0.7404,2.6844 1.5137,4.213 l 0.5844,1.1831 c 0.9233,1.8841 1.9294,4.1448 2.3897,6.6273 0.2639,1.3684 0.3672,2.7364 0.3672,4.0618 0,2.959 -0.5224,5.7016 -0.9937,7.7487 -0.8775,0.1112 -1.7315,0.4189 -2.4744,0.8974 0.6983,-2.7792 1.352,-5.9073 1.352,-9.0403 0,-1.1031 -0.0815,-2.21 -0.2703,-3.3004 -0.3614,-2.2138 -1.2032,-4.2891 -2.06,-6.2018 l 0,0 z m 2.06,6.2018 c 0,0.001 0,0.001 0,0.001 l 0,-0.001 z" />
      <path
         id="_21352240"
         style="fill:#fff500"
         d="m 101.448,135.391 c 0.7434,4.2985 -0.1909,8.7816 -1.1024,12.3948 l 0.1143,0.031 c 0.247,-0.1616 0.5102,-0.3052 0.7831,-0.4293 0.8716,-3.5498 1.681,-7.86 0.9233,-12.0833 -0.3764,-2.2214 -1.2389,-4.3305 -2.1699,-6.3183 -0.8721,-1.9861 -2.0858,-3.8547 -2.1155,-6 0.02,-0.957 0.2107,-1.6502 0.5798,-2.4557 0.2109,-0.3972 0.4708,-0.8743 1.0379,-1.2636 0.5727,-0.4293 1.4535,-0.4072 2.2171,-0.0672 -0.4461,-0.2804 -0.882,-0.4847 -1.3973,-0.4861 -0.5101,-0.001 -1.0274,0.2367 -1.4095,0.595 -0.3885,0.3593 -0.6809,0.8158 -0.9434,1.3745 -0.2398,0.5303 -0.5528,1.2737 -0.5922,2.2797 -0.0195,2.3651 1.1968,4.2698 2.0212,6.2473 0.8921,1.9899 1.7036,4.0397 2.0535,6.1812 z" />
      <path
         id="_21344800"
         style="fill:#1f1a17"
         d="m 98.8471,119.242 c -0.3666,0.34 -0.6744,0.7862 -0.964,1.4018 -0.1953,0.4331 -0.56,1.2337 -0.6013,2.3148 -0.0155,1.849 0.7176,3.4216 1.4263,4.9437 0.2031,0.4396 0.4158,0.8947 0.602,1.3422 0.8547,1.9048 1.6914,3.9688 2.0483,6.1619 l 0,0.001 c 0.7234,4.1844 -0.1514,8.5941 -1.1025,12.3544 l -0.0194,0.0855 0.2374,0.0672 0.0354,-0.0235 c 0.2425,-0.1574 0.5025,-0.2997 0.7695,-0.4227 l 0.0394,-0.0193 0.0104,-0.0413 c 0.8871,-3.6053 1.6901,-7.8662 0.9265,-12.1195 -0.3963,-2.3341 -1.3229,-4.5155 -2.1776,-6.3404 -0.2005,-0.4588 -0.4229,-0.9191 -0.6408,-1.3642 -0.7435,-1.5273 -1.4444,-2.9714 -1.4644,-4.5996 0.0175,-0.8843 0.1785,-1.5634 0.5695,-2.4167 0.1986,-0.3738 0.4513,-0.8472 1.0088,-1.2275 0.5126,-0.3852 1.3473,-0.4058 2.1278,-0.0582 l 0.0834,-0.1574 c -0.3912,-0.246 -0.869,-0.4993 -1.4438,-0.502 -0.5127,-0.001 -1.0506,0.2239 -1.4709,0.6194 l 0,0 z m 0.629,9.9326 c -0.1881,-0.4513 -0.4015,-0.9078 -0.607,-1.3498 -0.6912,-1.4859 -1.407,-3.0248 -1.407,-4.808 0,-0.0196 0,-0.0362 0,-0.0544 0.0402,-1.0421 0.3938,-1.8232 0.5845,-2.2435 0.2773,-0.5935 0.5722,-1.0218 0.924,-1.3436 0.3815,-0.3596 0.8864,-0.5742 1.3474,-0.5729 0.1636,10e-4 0.3143,0.0283 0.4604,0.0658 -0.5102,-0.0413 -0.9881,0.0676 -1.3319,0.3259 -0.5924,0.4048 -0.8652,0.9182 -1.0649,1.2947 -0.4067,0.8806 -0.5703,1.5789 -0.5898,2.4943 0.0221,1.6732 0.7655,3.2018 1.4833,4.6798 0.2153,0.4437 0.4384,0.9015 0.6394,1.3591 0.8496,1.8169 1.7703,3.9842 2.1647,6.2976 0.2109,1.1848 0.2994,2.3692 0.2994,3.5409 0,2.991 -0.5844,5.8928 -1.2156,8.4646 -0.2456,0.115 -0.483,0.2459 -0.7086,0.3907 0.6983,-2.7789 1.352,-5.906 1.352,-9.039 0,-1.1031 -0.0815,-2.21 -0.2703,-3.3004 -0.3614,-2.2138 -1.2032,-4.2891 -2.06,-6.2018 l 0,0 z m 2.06,6.2018 c 0,0.001 0,0.001 0,0.001 l 0,-0.001 z" />
      <path
         id="_21343768"
         style="fill:#ffffff"
         d="m 102.575,132.11 c 0.5011,1.7043 0.8178,3.6894 1.1102,5.5811 0.4992,3.1657 -0.1876,6.3844 -0.8749,9.2318 0.2838,-0.0413 0.571,-0.0634 0.8631,-0.0634 0.5342,0 1.0541,0.0724 1.5467,0.2081 0.2534,-1.1041 0.4939,-2.2782 0.6763,-3.5185 0.3001,-1.9371 0.3518,-4.1317 -0.004,-6.1812 -0.3647,-2.0184 -0.7294,-3.9556 -1.3655,-5.8749 -0.6284,-1.911 -1.4936,-3.4382 -1.2504,-4.7005 0.1977,-1.2271 0.5767,-1.8489 0.8378,-2.1452 0.2548,-0.3001 0.6673,-0.5805 1.6308,-0.5795 -0.5535,-0.719 -1.4794,-1.0952 -2.4273,-0.6101 -0.9136,0.5105 -1.4516,1.4962 -1.8007,3.0399 -0.2076,0.9571 -0.0665,2.0616 0.2153,2.9732 0.2754,0.9181 0.5896,1.7625 0.8425,2.6392 z" />
      <path
         id="_21345888"
         style="fill:#1f1a17"
         d="m 103.279,123.378 c -0.9124,0.5081 -1.4793,1.4652 -1.8512,3.101 -0.1848,0.8664 -0.1066,1.9668 0.2186,3.0182 l 0.4029,1.2544 c 0.1565,0.4719 0.3051,0.9194 0.4389,1.3835 0.4837,1.6464 0.7883,3.4982 1.1088,5.5697 0.4889,3.1085 -0.1615,6.2484 -0.8735,9.1981 l -0.0296,0.1291 0.1318,-0.0206 c 0.2827,-0.0414 0.567,-0.0621 0.8476,-0.0621 0.5122,0 1.0281,0.0686 1.5261,0.2057 l 0.0892,0.0245 0.0193,-0.0917 c 0.2987,-1.3036 0.5147,-2.4246 0.6788,-3.525 0.3273,-2.1053 0.3247,-4.3115 -0.005,-6.2097 -0.3814,-2.1091 -0.7461,-4.0088 -1.3694,-5.8864 -0.1746,-0.5315 -0.3647,-1.0269 -0.5483,-1.5065 -0.4669,-1.213 -0.8689,-2.2631 -0.6982,-3.1516 0.19,-1.1895 0.5495,-1.7986 0.8186,-2.1025 0.2172,-0.256 0.5882,-0.5485 1.5608,-0.5485 l 0.1822,0.001 -0.1125,-0.1447 c -0.6492,-0.8433 -1.646,-1.0941 -2.5358,-0.6363 z m -1.0584,7.3167 -0.4009,-1.2506 c -0.2062,-0.6621 -0.3097,-1.3408 -0.3097,-1.9654 0,-0.3404 0.0291,-0.6659 0.0944,-0.9622 0.3562,-1.5803 0.8986,-2.4998 1.7587,-2.9807 0.9038,-0.463 1.7159,-0.071 2.1944,0.4499 -0.9039,0.0362 -1.2854,0.3363 -1.5117,0.604 -0.2818,0.3183 -0.6594,0.9584 -0.856,2.1893 -0.031,0.155 -0.0441,0.3118 -0.0441,0.4734 0,0.8185 0.3518,1.7366 0.7502,2.7712 0.1836,0.4782 0.371,0.9722 0.5443,1.5 0.6207,1.8672 0.9841,3.7603 1.3617,5.8618 0.1668,0.944 0.2482,1.9641 0.2482,3.0117 0,1.0384 -0.0814,2.1002 -0.243,3.1395 -0.1578,1.0708 -0.3687,2.1622 -0.6556,3.4258 -0.4823,-0.1229 -0.9802,-0.1929 -1.4782,-0.1929 -0.2456,0 -0.4964,0.0197 -0.7441,0.0507 0.5283,-2.2077 1.0158,-4.5183 1.0158,-6.8485 0,-0.7645 -0.0517,-1.53 -0.1733,-2.2928 -0.3181,-2.0818 -0.6234,-3.9377 -1.1128,-5.5955 -0.1338,-0.4668 -0.2818,-0.9143 -0.4383,-1.3887 z m 0.4383,1.3887 0,10e-4 0,-10e-4 z" />
      <path
         id="_21345128"
         style="fill:#fff500"
         d="m 102.575,132.11 c 0.5011,1.7043 0.8178,3.6894 1.1102,5.5811 0.4992,3.1657 -0.1876,6.3844 -0.8749,9.2318 0.2658,-0.0389 0.5386,-0.0596 0.8128,-0.062 0.6686,-2.8153 1.3073,-6.0313 0.7836,-9.237 -0.3181,-1.9254 -0.6569,-3.8923 -1.2064,-5.6651 -0.4934,-1.7522 -1.524,-3.4902 -1.1825,-5.364 0.1557,-0.7889 0.2545,-1.3629 0.684,-2.0795 0.2172,-0.34 0.5722,-0.7396 1.1644,-0.9246 0.5974,-0.1874 1.3124,0.005 1.879,0.4771 -0.5535,-0.719 -1.4794,-1.0952 -2.4273,-0.6101 -0.9136,0.5105 -1.4516,1.4962 -1.8007,3.0399 -0.2076,0.9571 -0.0665,2.0616 0.2153,2.9732 0.2754,0.9181 0.5896,1.7625 0.8425,2.6392 l 0,0 z" />
      <path
         id="_21343624"
         style="fill:#1f1a17"
         d="m 103.279,123.378 c -0.9124,0.5081 -1.4793,1.4652 -1.8512,3.101 -0.1848,0.8664 -0.1066,1.9668 0.2186,3.0182 l 0.4029,1.2544 c 0.1565,0.4719 0.3051,0.9194 0.4389,1.3835 0.4837,1.6464 0.7883,3.4982 1.1088,5.5697 0.4889,3.1085 -0.1615,6.2484 -0.8735,9.1981 l -0.0296,0.1291 0.1318,-0.0206 c 0.2606,-0.0376 0.5283,-0.0582 0.7973,-0.0607 l 0.0698,0 0.0169,-0.0685 c 0.4901,-2.064 0.9813,-4.3787 0.9813,-6.7696 0,-0.8289 -0.0606,-1.6657 -0.1965,-2.5036 -0.3257,-1.994 -0.6659,-3.9298 -1.2077,-5.6768 -0.1359,-0.4851 -0.3175,-0.9791 -0.4933,-1.4563 -0.3724,-1.0111 -0.7533,-2.0522 -0.7533,-3.1216 0,-0.2456 0.0195,-0.4926 0.0641,-0.7434 l 0.0219,-0.1047 c 0.146,-0.7397 0.2509,-1.2737 0.6518,-1.9448 0.2902,-0.4503 0.6575,-0.741 1.1153,-0.8833 0.5547,-0.1761 1.2439,0 1.7935,0.4602 l 0.128,-0.124 c -0.6492,-0.8433 -1.646,-1.0941 -2.5358,-0.6363 l 0,0 z m -1.0584,7.3167 -0.4009,-1.2506 c -0.2062,-0.6621 -0.3097,-1.3408 -0.3097,-1.9654 0,-0.3404 0.0291,-0.6659 0.0944,-0.9622 0.3562,-1.5803 0.8986,-2.4998 1.7587,-2.9807 0.6193,-0.317 1.1961,-0.2329 1.6513,0.0207 -0.3997,-0.1385 -0.8121,-0.1654 -1.1755,-0.0503 -0.5004,0.155 -0.8968,0.4692 -1.2149,0.9608 -0.4157,0.7008 -0.5295,1.2761 -0.6737,2.0054 l -0.0219,0.1047 c -0.0472,0.2639 -0.0692,0.5226 -0.0692,0.78 0,1.099 0.3886,2.1529 0.7648,3.1812 0.1746,0.4744 0.355,0.9646 0.4881,1.4456 0.5406,1.738 0.8768,3.6659 1.2053,5.6537 0.1358,0.8289 0.1926,1.655 0.1926,2.4736 0,2.3495 -0.4771,4.6295 -0.9607,6.6662 -0.2082,0.004 -0.4165,0.0221 -0.6227,0.0466 0.5309,-2.2073 1.0184,-4.5207 1.0184,-6.8523 0,-0.7645 -0.0517,-1.53 -0.1733,-2.2928 -0.3181,-2.0818 -0.6234,-3.9377 -1.1128,-5.5955 -0.1338,-0.4668 -0.2818,-0.9143 -0.4383,-1.3887 l 0,0 z m 0.4383,1.3887 0,10e-4 0,-10e-4 z" />
      <path
         id="_21337912"
         style="fill:#ffffff"
         d="m 105.914,140.229 c 0.1383,2.2796 -0.4281,4.6461 -1.0409,6.7552 0.6698,0.1384 1.2956,0.3906 1.8607,0.7386 0.6492,-2.2424 1.275,-4.8366 1.0526,-7.6464 -0.2212,-3.4348 -1.9125,-6.4682 -1.3396,-8.7443 0.1977,-1.0332 0.5055,-1.4225 0.7434,-1.6396 0.2522,-0.2263 0.6389,-0.4189 1.4108,-0.4916 -0.512,-0.5467 -1.1483,-0.8547 -1.9486,-0.5857 -0.8147,0.2922 -1.3746,1.1783 -1.672,2.3871 -0.4255,1.4511 -0.1811,3.1644 0.159,4.663 0.3686,1.5623 0.6724,2.9834 0.7746,4.5637 z" />
      <path
         id="_21337720"
         style="fill:#1f1a17"
         d="m 106.623,128.529 c -0.8108,0.2911 -1.4095,1.1393 -1.7289,2.4519 -0.1667,0.5612 -0.2275,1.1599 -0.2275,1.7601 0,1.068 0.2003,2.1284 0.3865,2.9445 0.3466,1.4728 0.6685,2.9287 0.772,4.5479 0.013,0.2353 0.0195,0.4706 0.0195,0.7059 0,2.0729 -0.5276,4.1885 -1.0578,6.0182 l -0.0258,0.0944 0.093,0.0197 c 0.6504,0.1343 1.2661,0.3775 1.8324,0.7265 l 0.1022,0.061 0.0322,-0.1141 c 0.679,-2.343 1.2749,-4.8944 1.0552,-7.6773 -0.0956,-1.4935 -0.4616,-2.8784 -0.812,-4.2196 -0.4553,-1.7301 -0.847,-3.2249 -0.5302,-4.4948 0.1952,-1.0139 0.4849,-1.3836 0.7164,-1.5944 0.1823,-0.1643 0.5225,-0.3917 1.3616,-0.4706 l 0.181,-0.0144 -0.1242,-0.1344 c -0.6142,-0.6556 -1.3007,-0.8613 -2.0456,-0.6105 z m -0.5973,12.4103 c 0,-0.2391 -0.007,-0.4785 -0.0221,-0.7162 -0.1047,-1.6348 -0.4255,-3.0986 -0.7784,-4.5793 -0.1798,-0.803 -0.3802,-1.8517 -0.3802,-2.9018 0,-0.5843 0.062,-1.1689 0.2224,-1.7132 0.3064,-1.2558 0.8651,-2.0602 1.6139,-2.3303 0.6271,-0.2108 1.1921,-0.0596 1.7197,0.4396 -0.5741,0.0737 -0.9814,0.2239 -1.271,0.4875 -0.2522,0.2301 -0.5664,0.6287 -0.7695,1.6901 -0.084,0.3349 -0.1216,0.6829 -0.1216,1.0463 0,1.0539 0.3064,2.2266 0.6518,3.5316 0.3492,1.3332 0.7099,2.7102 0.8083,4.1858 0.0284,0.3968 0.0439,0.7862 0.0439,1.173 0,2.2641 -0.4979,4.3719 -1.063,6.3363 -0.5302,-0.3104 -1.0978,-0.5354 -1.694,-0.6698 0.5237,-1.8207 1.0398,-3.9171 1.0398,-5.9796 l 0,0 z" />
      <path
         id="_21340080"
         style="fill:#fff500"
         d="m 105.914,140.229 c 0.1383,2.2745 -0.4255,4.6357 -1.0384,6.7396 0.2135,0.0469 0.4241,0.1062 0.6284,0.1761 0.6157,-2.1298 1.1794,-4.5286 1.0203,-6.9364 -0.0879,-3.145 -1.8219,-6.1929 -1.1276,-9.0998 0.1514,-0.617 0.2301,-1.1149 0.6453,-1.6747 0.2108,-0.2677 0.5509,-0.5588 1.0383,-0.6453 0.4849,-0.0958 1.0253,0.0789 1.5207,0.4124 -0.512,-0.5467 -1.1483,-0.8547 -1.9486,-0.5857 -0.8147,0.2922 -1.3746,1.1783 -1.672,2.3871 -0.4255,1.4511 -0.1811,3.1644 0.159,4.663 0.3686,1.5623 0.6724,2.9834 0.7746,4.5637 l 0,0 z" />
      <path
         id="_21335872"
         style="fill:#1f1a17"
         d="m 106.623,128.529 c -0.8108,0.2911 -1.4095,1.1393 -1.7289,2.4519 -0.1667,0.5612 -0.2275,1.1599 -0.2275,1.7601 0,1.068 0.2003,2.1284 0.3865,2.9445 0.3466,1.4728 0.6685,2.9287 0.772,4.5479 0.013,0.2353 0.0195,0.472 0.0195,0.7059 0,2.0705 -0.525,4.1796 -1.0552,6.0027 l -0.0233,0.0934 0.0905,0.0217 c 0.2082,0.0441 0.4139,0.1009 0.6168,0.1708 l 0.0892,0.0297 0.0272,-0.0906 c 0.5988,-2.0664 1.1884,-4.5127 1.0229,-6.966 -0.035,-1.2971 -0.3543,-2.59 -0.6621,-3.8406 -0.4462,-1.8207 -0.8716,-3.5419 -0.4643,-5.2321 l 0.0491,-0.2122 c 0.119,-0.5095 0.2226,-0.9491 0.5795,-1.4301 0.181,-0.2287 0.4952,-0.5226 0.9813,-0.6104 0.5497,-0.1099 1.0939,0.1578 1.456,0.3996 l 0.1164,-0.1357 c -0.6142,-0.6556 -1.3007,-0.8613 -2.0456,-0.6105 z m -0.5973,12.4103 c 0,-0.2377 -0.007,-0.4772 -0.0221,-0.7162 -0.1047,-1.6348 -0.4255,-3.0986 -0.7784,-4.5793 -0.1798,-0.803 -0.3802,-1.8517 -0.3802,-2.9018 0,-0.5843 0.062,-1.1689 0.2224,-1.7132 0.3064,-1.2558 0.8651,-2.0602 1.6139,-2.3303 0.4149,-0.1395 0.8016,-0.1188 1.1703,0.0517 -0.2755,-0.0775 -0.5406,-0.0996 -0.7876,-0.0503 -0.5393,0.0968 -0.8923,0.4227 -1.0902,0.6776 -0.3813,0.5106 -0.49,0.9684 -0.6141,1.4987 l -0.0505,0.2108 c -0.1176,0.495 -0.1669,0.9891 -0.1669,1.4883 0,1.2467 0.3105,2.5114 0.6364,3.8278 0.305,1.2399 0.6206,2.5242 0.6556,3.8069 0.0181,0.2794 0.027,0.5601 0.027,0.8406 0,2.109 -0.503,4.1847 -1.0203,5.982 -0.1512,-0.0479 -0.3012,-0.0916 -0.4525,-0.1254 0.5237,-1.8169 1.0372,-3.9067 1.0372,-5.9679 l 0,0 z" />
      <path
         id="_21335488"
         style="fill:#ffffff"
         d="m 108.944,135.974 c 0.1216,-0.8058 0.3012,-0.9016 0.5081,-1.0618 0.2471,-0.1461 0.6079,-0.286 1.2506,-0.401 -0.4217,-0.4927 -0.8484,-0.7834 -1.5298,-0.7397 -0.7307,0.0169 -1.5323,0.8806 -1.6758,1.963 -0.2329,1.2478 -0.0622,2.5501 0.1111,3.7876 0.167,1.2312 0.2677,2.4739 0.1268,3.6687 -0.1721,1.513 -0.7591,2.9652 -1.4495,4.2829 0.5922,0.2949 1.1276,0.6866 1.5827,1.152 0.8029,-1.5165 1.5142,-3.2831 1.6886,-5.25 0.2884,-2.92 -0.8533,-5.5603 -0.6128,-7.4017 l 0,0 z" />
      <path
         id="_21334072"
         style="fill:#1f1a17"
         d="m 109.166,133.683 c -0.8069,0.0182 -1.6138,0.9532 -1.7585,2.0433 -0.2406,1.2905 -0.0453,2.6885 0.1111,3.8082 0.1462,1.0941 0.2754,2.3819 0.1268,3.6466 -0.1461,1.2947 -0.6194,2.6858 -1.4392,4.2519 l -0.0415,0.0814 0.0802,0.0402 c 0.5805,0.2884 1.1056,0.6725 1.5583,1.1352 l 0.0878,0.0882 0.0557,-0.1075 c 0.9969,-1.8827 1.5517,-3.6118 1.7004,-5.2861 0.0322,-0.3325 0.0465,-0.6612 0.0465,-0.9857 0,-1.2374 -0.2083,-2.4091 -0.3931,-3.4695 -0.159,-0.8961 -0.3001,-1.694 -0.3001,-2.3985 0,-0.1878 0.0104,-0.3686 0.031,-0.5457 0.1101,-0.719 0.2639,-0.8382 0.4384,-0.9726 l 0.0376,-0.0272 c 0.2677,-0.1602 0.657,-0.2845 1.209,-0.3841 l 0.1539,-0.0296 -0.0983,-0.1179 c -0.3698,-0.4306 -0.8185,-0.8223 -1.606,-0.7706 l 0,0 z m -1.3422,9.5177 c 0.0491,-0.4047 0.0698,-0.8123 0.0698,-1.2157 0,-0.8716 -0.0956,-1.7174 -0.1951,-2.4736 -0.1074,-0.7696 -0.2264,-1.6051 -0.2264,-2.4495 0,-0.4368 0.031,-0.8768 0.1139,-1.3098 0.1434,-1.0966 0.9528,-1.8738 1.5865,-1.8907 0.6155,-0.0386 0.9996,0.2043 1.3577,0.595 -0.4888,0.0982 -0.8561,0.2198 -1.1238,0.38 -0.0103,0.006 -0.0477,0.0338 -0.0477,0.0338 -0.1965,0.1526 -0.3841,0.2973 -0.5044,1.09 l 0,0.001 c -0.0258,0.1836 -0.0349,0.3738 -0.0349,0.5691 0,0.72 0.1436,1.5272 0.3013,2.4284 0.1875,1.0553 0.3944,2.2191 0.3944,3.441 0,0.318 -0.0143,0.6429 -0.0479,0.9674 -0.1434,1.6202 -0.6774,3.2935 -1.6227,5.1118 -0.428,-0.4179 -0.9104,-0.7682 -1.4406,-1.0411 0.8071,-1.553 1.2739,-2.9407 1.4199,-4.2375 l 0,0 z" />
      <path
         id="_21333688"
         style="fill:#fff500"
         d="m 107.735,143.191 c -0.1721,1.513 -0.7591,2.9652 -1.4495,4.2829 0.1914,0.0944 0.375,0.1991 0.5495,0.3128 0.715,-1.3643 1.3176,-2.8873 1.4896,-4.5131 0.3465,-2.559 -0.7357,-5.0973 -0.4163,-7.4613 0.0956,-0.5186 0.1537,-0.9774 0.6038,-1.4277 0.4681,-0.4796 1.412,-0.4847 2.1906,0.1268 -0.4217,-0.4927 -0.8484,-0.7834 -1.5298,-0.7397 -0.7307,0.0169 -1.5323,0.8806 -1.6758,1.963 -0.2329,1.2478 -0.0622,2.5501 0.1111,3.7876 0.167,1.2312 0.2677,2.4739 0.1268,3.6687 l 0,0 z" />
      <path
         id="_21329392"
         style="fill:#1f1a17"
         d="m 109.166,133.683 c -0.8069,0.0182 -1.6138,0.9532 -1.7585,2.0433 -0.2406,1.2905 -0.0453,2.6885 0.1111,3.8082 0.1462,1.0941 0.2754,2.3819 0.1268,3.6466 -0.1461,1.2947 -0.6194,2.6858 -1.4392,4.2519 l -0.0415,0.0814 0.0802,0.0402 c 0.1837,0.0917 0.3647,0.194 0.5432,0.3077 l 0.0814,0.0531 0.0452,-0.0865 c 0.8601,-1.6464 1.35,-3.1347 1.4987,-4.5444 0.0491,-0.3645 0.0685,-0.7266 0.0685,-1.0901 0,-0.9477 -0.1409,-1.8903 -0.2768,-2.8098 -0.1357,-0.9067 -0.2676,-1.7742 -0.2676,-2.6238 0,-0.3131 0.0169,-0.6259 0.0596,-0.935 l 0.0167,-0.0892 c 0.084,-0.4747 0.1591,-0.8857 0.5637,-1.2881 0.4023,-0.4152 1.2894,-0.4782 2.0692,0.1333 l 0.1253,-0.1282 c -0.3698,-0.4306 -0.8185,-0.8223 -1.606,-0.7706 l 0,0 z m -1.2724,8.302 c 0,-0.8716 -0.0956,-1.7174 -0.1951,-2.4736 -0.1074,-0.7696 -0.2264,-1.6051 -0.2264,-2.4495 0,-0.4368 0.031,-0.8768 0.1139,-1.3098 0.1434,-1.0966 0.9528,-1.8738 1.5865,-1.8907 0.3724,-0.0244 0.6582,0.0558 0.9052,0.2085 -0.6142,-0.215 -1.2518,-0.1371 -1.6307,0.2518 -0.4435,0.4424 -0.5236,0.8988 -0.6102,1.3839 l -0.0155,0.0916 c -0.044,0.3208 -0.0621,0.6429 -0.0621,0.9647 0,0.8626 0.1318,1.738 0.2675,2.6486 0.1359,0.9129 0.2768,1.8479 0.2768,2.7853 0,0.3555 -0.0195,0.7111 -0.0686,1.0669 -0.1448,1.3653 -0.6142,2.8061 -1.4365,4.3991 -0.128,-0.0789 -0.2613,-0.155 -0.3945,-0.2222 0.8071,-1.5544 1.2739,-2.9421 1.4199,-4.2378 0.0491,-0.4058 0.0698,-0.8134 0.0698,-1.2168 l 0,0 z m -0.0698,1.2168 0,-0.001 0,0.001 z" />
      <path
         id="_21328872"
         style="fill:#ffffff"
         d="m 110.9,139.348 c -0.5456,0.1124 -1.0603,0.7139 -1.218,1.5465 -0.2277,1.7602 -0.154,3.5071 -0.6997,5.1622 -0.2689,0.8871 -0.715,1.7136 -1.2205,2.4636 0.4745,0.4627 0.874,1.0073 1.174,1.6112 0.7254,-1.0115 1.4018,-2.2128 1.7613,-3.5718 0.5573,-1.9927 0.3542,-4.0952 0.3931,-5.426 0.0646,-0.503 0.1835,-0.5974 0.2638,-0.7318 0.0957,-0.1244 0.2352,-0.3569 0.7448,-0.4437 -0.1912,-0.4913 -0.6763,-0.7345 -1.1988,-0.6102 l 0,0 z" />
      <path
         id="_21327544"
         style="fill:#1f1a17"
         d="m 110.882,139.261 c -0.6039,0.1254 -1.1316,0.7876 -1.2866,1.6165 -0.0777,0.5805 -0.1204,1.1599 -0.1618,1.7225 -0.0892,1.1934 -0.1732,2.3224 -0.5353,3.4306 -0.2419,0.7941 -0.6387,1.592 -1.2102,2.4402 l -0.0427,0.0607 0.0531,0.0519 c 0.4744,0.4627 0.8635,0.9957 1.1558,1.5865 l 0.066,0.1333 0.0879,-0.1202 c 0.8793,-1.222 1.4586,-2.4002 1.7742,-3.6029 0.432,-1.5334 0.4127,-3.1178 0.397,-4.3914 l 0,-1.0525 c 0.0515,-0.3865 0.1308,-0.5095 0.2031,-0.6181 l 0.0476,-0.0726 c -0.008,0.0131 0.022,-0.0259 0.022,-0.0259 0.092,-0.1202 0.2329,-0.2997 0.6608,-0.3724 l 0.1102,-0.0179 -0.0403,-0.1037 c -0.2029,-0.5261 -0.7383,-0.7989 -1.3008,-0.6646 l 0,0 z m -1.813,6.8213 c 0.3698,-1.1238 0.459,-2.3158 0.5419,-3.4695 0.0425,-0.5585 0.0852,-1.1366 0.159,-1.7057 0.1435,-0.7552 0.6142,-1.3629 1.1508,-1.47 l 0.001,0 c 0.4436,-0.1075 0.8418,0.0813 1.0395,0.4588 -0.4034,0.0972 -0.5584,0.2922 -0.6528,0.4138 l -0.0272,0.0338 c -0.008,0.0127 -0.0479,0.0761 -0.0479,0.0761 -0.0789,0.1178 -0.1747,0.2653 -0.2315,0.7011 0,0.0103 -0.003,1.0694 -0.003,1.0694 0.004,0.2432 0.007,0.4964 0.007,0.7603 0,1.1031 -0.0544,2.3626 -0.3956,3.5832 -0.3027,1.1421 -0.8523,2.2631 -1.6669,3.4231 -0.2832,-0.534 -0.6401,-1.0205 -1.0707,-1.4484 0.5625,-0.8392 0.953,-1.6347 1.1961,-2.426 l 0,0 z m 1.8104,-6.8213 0.003,-0.001 -0.003,0.001 z" />
      <path
         id="_21326776"
         style="fill:#fff500"
         d="m 110.9,139.348 c -0.5456,0.1124 -1.0603,0.7139 -1.218,1.5465 -0.2277,1.7602 -0.154,3.5071 -0.6997,5.1622 -0.2689,0.8871 -0.715,1.7136 -1.2205,2.4636 0.1487,0.1474 0.2921,0.3 0.4278,0.4616 0.56,-0.8199 1.0552,-1.7408 1.3462,-2.7454 0.5445,-1.7639 0.4125,-3.6118 0.5471,-5.2669 0.0685,-0.3868 0.1176,-0.7189 0.4175,-1.0645 0.2613,-0.3373 1.0954,-0.5739 1.5984,0.0531 -0.1912,-0.4913 -0.6763,-0.7345 -1.1988,-0.6102 l 0,0 z" />
      <path
         id="_21322800"
         style="fill:#1f1a17"
         d="m 110.882,139.261 c -0.6039,0.1254 -1.1316,0.7876 -1.2866,1.6165 -0.0777,0.5805 -0.1204,1.1599 -0.1618,1.7225 -0.0892,1.1934 -0.1732,2.3224 -0.5353,3.4306 -0.2419,0.7941 -0.6387,1.592 -1.2102,2.4402 l -0.0427,0.0607 0.0531,0.0519 c 0.1526,0.1485 0.2935,0.3025 0.4226,0.4565 l 0.0763,0.0903 0.0673,-0.0982 c 0.6491,-0.9519 1.0926,-1.8597 1.3539,-2.7699 0.3943,-1.2726 0.4384,-2.5745 0.4836,-3.8354 0.0181,-0.503 0.0323,-0.9815 0.0699,-1.4497 0.003,0 0.0103,-0.0399 0.0103,-0.0399 0.0608,-0.3556 0.1151,-0.6622 0.3854,-0.9712 0.1137,-0.1488 0.3813,-0.3053 0.7138,-0.309 0.2081,-0.003 0.5054,0.0568 0.7472,0.3579 l 0.154,-0.0892 c -0.2029,-0.5261 -0.7383,-0.7989 -1.3008,-0.6646 l 0,0 z m -1.813,6.8213 c 0.3698,-1.1238 0.459,-2.3158 0.5419,-3.4695 0.0425,-0.5585 0.0852,-1.1366 0.159,-1.7057 0.1435,-0.7552 0.6142,-1.3629 1.1508,-1.47 l 0.001,0 c 0.2573,-0.0624 0.5004,-0.0207 0.7009,0.0968 -0.1113,-0.0362 -0.2253,-0.0583 -0.3438,-0.0569 -0.3404,0.004 -0.6818,0.1551 -0.8498,0.3738 -0.3,0.3438 -0.362,0.689 -0.4268,1.0553 l -0.008,0.0479 c -0.0387,0.4822 -0.0556,0.9604 -0.0737,1.4676 -0.0413,1.2478 -0.0866,2.5369 -0.472,3.7875 -0.2508,0.8651 -0.6697,1.7263 -1.2736,2.6266 -0.0944,-0.11 -0.1927,-0.2188 -0.3026,-0.326 0.5599,-0.8406 0.953,-1.6347 1.1961,-2.4274 l 0,0 z m 1.8104,-6.8213 0.003,-0.001 -0.003,0.001 z" />
      <path
         id="_21322000"
         style="fill:#ffffff"
         d="m 112.475,144.802 c -0.2756,-0.2418 -0.8912,-0.0944 -1.1059,0.1785 -0.4823,0.5006 -0.618,1.0487 -0.9129,1.8855 -0.322,0.9622 -0.6737,1.9809 -1.2389,2.8759 -0.0813,0.1448 -0.1731,0.2805 -0.2689,0.411 0.2898,0.5926 0.4824,1.243 0.5575,1.9258 0.4576,-0.4605 0.8275,-0.9791 1.1236,-1.5041 0.639,-1.1482 0.6659,-1.1727 0.9195,-2.1635 0.2043,-0.8496 0.1926,-2.6041 0.7048,-2.8953 0.1254,-0.0582 0.3866,-0.0399 0.6815,0.0311 -0.0817,-0.3001 -0.1874,-0.5509 -0.4603,-0.7449 l 0,0 z" />
      <path
         id="_21317640"
         style="fill:#1f1a17"
         d="m 111.99,144.594 c -0.2805,0.0259 -0.5575,0.1602 -0.6918,0.3325 -0.4217,0.433 -0.5821,0.9078 -0.8084,1.5644 l -0.1177,0.3466 c -0.2921,0.864 -0.6516,1.9385 -1.2283,2.858 -0.0789,0.1358 -0.1669,0.2677 -0.2703,0.4021 l -0.0324,0.0451 0.0259,0.0493 c 0.2923,0.596 0.4745,1.2337 0.5482,1.8958 l 0.0207,0.1888 0.1332,-0.1357 c 0.4254,-0.4269 0.8082,-0.9378 1.1381,-1.521 0,-0.001 0.0801,-0.1485 0.0801,-0.1485 0.5612,-0.9998 0.6053,-1.0811 0.8485,-2.0395 0.0654,-0.2753 0.1109,-0.636 0.1564,-1.0188 0.0865,-0.732 0.195,-1.6436 0.5068,-1.8183 0.0672,-0.0324 0.2752,-0.0441 0.617,0.04 l 0.146,0.0365 -0.0402,-0.1464 c -0.0893,-0.3283 -0.2071,-0.5881 -0.4889,-0.7913 -0.1282,-0.1113 -0.3204,-0.1602 -0.5429,-0.1396 l 0,0 z m -1.3281,1.9551 c 0.2146,-0.6349 0.3736,-1.0927 0.7734,-1.5051 0.1085,-0.1409 0.3411,-0.2484 0.5712,-0.2715 0.1736,-0.0155 0.3197,0.0179 0.4062,0.0958 l 0.005,0.004 0.005,0.002 c 0.2029,0.145 0.3042,0.3259 0.3814,0.555 -0.195,-0.0362 -0.441,-0.0648 -0.5871,0.005 -0.3969,0.2236 -0.503,1.1042 -0.6049,1.9579 -0.0441,0.3762 -0.0868,0.7331 -0.1516,0.998 -0.2377,0.9326 -0.2713,0.9933 -0.8288,1.9916 l -0.0814,0.1475 c -0.2896,0.5119 -0.622,0.9632 -0.9867,1.3525 -0.0841,-0.6001 -0.2534,-1.1768 -0.5145,-1.7211 0.0918,-0.1254 0.1759,-0.2484 0.2482,-0.3738 0.5871,-0.9337 0.9505,-2.0185 1.2427,-2.8915 0,0.001 0.1216,-0.3466 0.1216,-0.3466 l 0,0 z m 1.871,-1.8155 c 0,0 0,0 0.001,0 l -0.009,-0.005 c 0.002,0.001 0.005,0.003 0.008,0.005 z" />
      <path
         id="_21307128"
         style="fill:#fff500"
         d="m 112.475,144.802 c -0.2756,-0.2418 -0.8912,-0.0944 -1.1059,0.1785 -0.4823,0.5006 -0.618,1.0487 -0.9129,1.8855 -0.322,0.9622 -0.6737,1.9809 -1.2389,2.8759 -0.0813,0.1448 -0.1731,0.2805 -0.2689,0.411 0.0853,0.1799 0.1668,0.3673 0.2367,0.5561 0.1733,-0.2119 0.3297,-0.4382 0.4617,-0.6825 0.587,-0.9763 0.9115,-2.0498 1.1987,-3.0365 0.1331,-0.4499 0.1681,-0.8003 0.3597,-1.2516 0.1047,-0.2188 0.2067,-0.4992 0.5932,-0.75 0.5381,-0.2691 0.9391,0.195 1.1369,0.5585 -0.0817,-0.3001 -0.1874,-0.5509 -0.4603,-0.7449 l 0,0 z" />
      <path
         id="_21304728"
         style="fill:#1f1a17"
         d="m 111.99,144.594 c -0.2805,0.0259 -0.5575,0.1602 -0.6918,0.3325 -0.4217,0.433 -0.5821,0.9078 -0.8084,1.5644 l -0.1177,0.3466 c -0.2921,0.864 -0.6516,1.9385 -1.2283,2.858 -0.0789,0.1358 -0.1669,0.2677 -0.2703,0.4021 l -0.0324,0.0451 0.0259,0.0493 c 0.088,0.1822 0.1667,0.3658 0.2341,0.5471 l 0.0556,0.1484 0.0982,-0.1212 c 0.1888,-0.2315 0.3428,-0.4592 0.4708,-0.6973 0.6142,-1.0253 0.9555,-2.197 1.205,-3.0555 l 0.1229,-0.4682 c 0.0596,-0.2546 0.1152,-0.4926 0.2328,-0.7734 l 0.0311,-0.0644 c 0.0971,-0.2033 0.2029,-0.4334 0.5312,-0.6442 0.5123,-0.2546 0.8771,0.2831 1.0073,0.5277 l 0.1658,-0.0661 c -0.0893,-0.3283 -0.2071,-0.5881 -0.4889,-0.7913 -0.1282,-0.1113 -0.3204,-0.1602 -0.5429,-0.1396 l 0,0 z m -1.3281,1.9551 c 0.2146,-0.6349 0.3736,-1.0927 0.7734,-1.5051 0.1085,-0.1409 0.3411,-0.2484 0.5712,-0.2715 0.1736,-0.0155 0.3197,0.0179 0.4062,0.0958 l 0.005,0.004 0.005,0.002 c 0.0244,0.0168 0.0427,0.0375 0.0634,0.0572 -0.2302,-0.1282 -0.4799,-0.1475 -0.728,-0.0235 -0.3762,0.2443 -0.5016,0.5082 -0.6039,0.7228 l -0.0324,0.0662 c -0.1228,0.2972 -0.1836,0.5456 -0.2456,0.8054 l -0.1177,0.4603 c -0.2456,0.8485 -0.5844,2.0085 -1.1897,3.0182 -0.1022,0.1888 -0.225,0.37 -0.3633,0.5485 -0.0491,-0.1216 -0.0996,-0.2457 -0.1564,-0.3686 0.0918,-0.1241 0.1759,-0.2484 0.2482,-0.3738 0.5871,-0.9337 0.9505,-2.0185 1.2427,-2.8915 0,0.001 0.1216,-0.3466 0.1216,-0.3466 l 0,0 z m 1.871,-1.8155 c 0,0 0,0 0.001,0 l -0.009,-0.005 c 0.002,0.001 0.005,0.003 0.008,0.005 z" />
      <path
         id="_21304344"
         style="fill:#fff500"
         d="m 109.542,152.73 c 0,3.2432 -2.6276,5.8708 -5.8695,5.8708 -3.243,0 -5.8719,-2.6276 -5.8719,-5.8708 0,-3.2408 2.6289,-5.8698 5.8719,-5.8698 3.2419,0 5.8695,2.629 5.8695,5.8698 z" />
      <path
         id="_21303568"
         style="fill:#1f1a17"
         d="m 97.7124,152.73 c 0,3.287 2.6729,5.9614 5.9605,5.9614 3.2872,0 5.9587,-2.6744 5.9587,-5.9614 0,-3.286 -2.6715,-5.9604 -5.9587,-5.9604 -3.2876,0 -5.9605,2.6744 -5.9605,5.9604 z m 0.1785,0 c 0,-3.1864 2.5933,-5.7806 5.782,-5.7806 3.1876,0 5.7815,2.5942 5.7815,5.7806 0,3.1888 -2.5939,5.7815 -5.7815,5.7815 -3.1887,0 -5.782,-2.5927 -5.782,-5.7815 z" />
      <path
         id="_21302184"
         style="fill:#fff500"
         d="m 86.68,171.475 c 0.196,0.6325 0.6448,0.6091 0.6448,0.6091 0,0 -0.1961,-0.2288 -0.1618,-0.4692 0.035,-0.2419 0.1836,-0.3452 0.0796,-0.4593 -0.104,-0.1164 -0.3097,-0.1733 -0.4241,-0.1371 -0.1158,0.0324 -0.1385,0.4565 -0.1385,0.4565 l 0,0 z" />
      <path
         id="_21301208"
         style="fill:#1f1a17"
         d="m 86.792,170.932 c -0.1442,0.0427 -0.1888,0.3166 -0.2005,0.5378 l 0,0.0169 0.0045,0.0169 c 0.2134,0.6904 0.7107,0.6711 0.7313,0.6697 l 0.1804,-0.009 -0.1164,-0.1385 c 0,-0.002 -0.1687,-0.2016 -0.1391,-0.3997 0.0125,-0.0851 0.0395,-0.1522 0.0674,-0.2105 0.042,-0.0971 0.0911,-0.2094 -0.0103,-0.3207 -0.119,-0.1347 -0.3616,-0.2108 -0.5173,-0.163 z m 0.3839,0.2832 c 0.0073,0.009 0.0117,0.0141 0.0117,0.0272 0,0.0156 -0.0091,0.0428 -0.0342,0.1006 -0.0272,0.0662 -0.0646,0.1489 -0.0796,0.2588 -0.0052,0.022 -0.0052,0.0465 -0.0052,0.0699 0,0.102 0.0331,0.1953 0.07,0.2753 -0.1216,-0.0582 -0.2729,-0.1874 -0.3668,-0.4823 0.0099,-0.1616 0.0467,-0.3284 0.0789,-0.3621 0.0848,-0.0207 0.2458,0.0248 0.3252,0.1126 l 0,0 z" />
      <path
         id="_21300824"
         style="fill:#fff500"
         d="m 86.1531,170.8 c 0.0913,0.6997 0.4579,1.0097 0.4579,1.0097 l 0.0122,-0.5622 c 0,0 0.104,-0.3789 -0.0122,-0.5395 -0.1139,-0.1616 -0.2283,-0.2635 -0.3447,-0.2301 -0.1132,0.0351 -0.1132,0.3221 -0.1132,0.3221 l 0,0 z" />
      <path
         id="_21299904"
         style="fill:#1f1a17"
         d="m 86.2418,170.393 c -0.1656,0.0503 -0.1785,0.3245 -0.1785,0.4072 l 0,0.005 0,0.005 c 0.0963,0.7266 0.4758,1.0525 0.4906,1.067 l 0.1437,0.1216 c 0,0 0.0148,-0.7217 0.0148,-0.741 0.0096,-0.039 0.0446,-0.1733 0.0446,-0.3184 0,-0.1033 -0.0167,-0.2081 -0.0718,-0.2842 -0.0989,-0.1399 -0.2553,-0.3197 -0.4434,-0.2625 z m 0.2973,0.3672 c 0.0272,0.0386 0.0369,0.1034 0.0369,0.1757 0,0.0982 -0.0193,0.2123 -0.0395,0.2884 l -0.0026,0.0103 c 0,0 -0.0051,0.1747 -0.0077,0.3311 -0.1035,-0.1499 -0.232,-0.401 -0.2818,-0.772 0,-0.0996 0.0244,-0.2109 0.0523,-0.2288 0.0569,-0.0169 0.1384,0.0517 0.2424,0.1953 z" />
      <path
         id="_21299536"
         style="fill:#fff500"
         d="m 85.6126,170.122 c 0.0944,0.6997 0.4611,1.0088 0.4611,1.0088 l 0.0096,-0.5599 c 0,0 0.1041,-0.3789 -0.0096,-0.5405 -0.1165,-0.1605 -0.2308,-0.2639 -0.3447,-0.2291 -0.1164,0.0352 -0.1164,0.3207 -0.1164,0.3207 z" />
      <path
         id="_133561024"
         style="fill:#1f1a17"
         d="m 85.7018,169.714 c -0.1661,0.0516 -0.1778,0.3259 -0.1778,0.4085 l 0,0.007 0.0019,0.007 c 0.0944,0.7252 0.4734,1.0511 0.4877,1.0656 l 0.1441,0.1203 c 0,0 0.0149,-0.7204 0.0174,-0.7387 0.0097,-0.0413 0.0421,-0.1757 0.0421,-0.3194 0,-0.1047 -0.0174,-0.2094 -0.0719,-0.2845 -0.0995,-0.1395 -0.2552,-0.3194 -0.4435,-0.2649 l 0,0 z m 0.2975,0.3686 c 0.0272,0.0386 0.0368,0.1047 0.0368,0.1757 0,0.0995 -0.0174,0.2122 -0.0394,0.2883 l -0.0026,0.0104 c 0,0 -0.0026,0.1774 -0.0077,0.3324 -0.1036,-0.1512 -0.2328,-0.401 -0.2821,-0.772 0,-0.101 0.0273,-0.2109 0.0519,-0.2302 0.0575,-0.0155 0.1409,0.0517 0.2431,0.1954 l 0,0 z" />
      <path
         id="_133560360"
         style="fill:#fff500"
         d="m 116.78,170.042 c 0.0479,0.997 0.4409,1.0115 0.4409,1.0115 0,0 0.0892,-0.3508 0.1706,-0.6636 0.084,-0.3128 0.1075,-0.4681 -0.1874,-0.7086 -0.2922,-0.2405 -0.4241,0.3607 -0.4241,0.3607 l 0,0 z" />
      <path
         id="_133559496"
         style="fill:#1f1a17"
         d="m 116.993,169.548 c -0.2043,0.0712 -0.287,0.4075 -0.3025,0.4733 l -0.003,0.0131 0,0.0127 c 0.0517,1.0491 0.4799,1.0942 0.5316,1.0956 l 0.0713,0.002 0.1874,-0.7331 c 0.0864,-0.3273 0.1188,-0.5251 -0.2174,-0.7993 -0.1113,-0.093 -0.2057,-0.0864 -0.2677,-0.0647 l 0,0 z m 0.0596,0.1681 c 0.0103,-0.004 0.0362,-0.0114 0.0944,0.0351 0.155,0.1254 0.2105,0.2147 0.2105,0.3349 0,0.0751 -0.0231,0.1629 -0.0531,0.2808 0,0 -0.0954,0.3762 -0.146,0.5636 -0.093,-0.0648 -0.257,-0.2649 -0.2894,-0.8792 0.0296,-0.123 0.1047,-0.3066 0.1836,-0.3352 l 0,0 z" />
      <path
         id="_133559112"
         style="fill:#fff500"
         d="m 117.937,171.273 c 0.0944,0.7604 0.4279,0.7886 0.4279,0.7886 0,0 0.0571,-0.2597 0.1116,-0.4936 0.0554,-0.2343 0.0668,-0.3494 -0.1957,-0.5457 -0.2625,-0.1992 -0.3438,0.2507 -0.3438,0.2507 l 0,0 z" />
      <path
         id="_133558264"
         style="fill:#1f1a17"
         d="m 118.076,170.896 c -0.1668,0.0658 -0.2185,0.3128 -0.2253,0.3607 l -0.002,0.0141 0,0.0131 c 0.0995,0.8096 0.4681,0.8664 0.5095,0.8688 l 0.0802,0.007 0.1278,-0.5702 c 0.0572,-0.247 0.0765,-0.41 -0.2301,-0.6391 -0.1109,-0.084 -0.2029,-0.0747 -0.2597,-0.054 l 0,0 z m 0.0671,0.1681 c 0.0245,-0.0103 0.0583,0.0114 0.0841,0.0296 0.1485,0.1113 0.1926,0.1812 0.1926,0.2756 0,0.0503 -0.0131,0.1048 -0.0283,0.1785 0,0 -0.0582,0.2546 -0.0882,0.3879 -0.084,-0.0634 -0.217,-0.2277 -0.2742,-0.6597 0.0172,-0.08 0.0648,-0.1926 0.114,-0.2119 l 0,0 z" />
      <path
         id="_21294336"
         style="fill:#fff500"
         d="m 117.228,170.659 c 0.0709,0.9219 0.4513,0.9453 0.4513,0.9453 0,0 0.0761,-0.3235 0.1485,-0.6105 0.0751,-0.2869 0.092,-0.4306 -0.1953,-0.6583 -0.2895,-0.2301 -0.4045,0.3235 -0.4045,0.3235 z" />
      <path
         id="_21293472"
         style="fill:#1f1a17"
         d="m 117.419,170.204 c -0.1926,0.0696 -0.2636,0.3776 -0.2767,0.4369 l -0.003,0.013 0,0.0118 c 0.0751,0.9735 0.4878,1.0238 0.534,1.0266 l 0.0751,0.004 0.1653,-0.6801 c 0.0752,-0.2949 0.1048,-0.4888 -0.2273,-0.7514 -0.1137,-0.0906 -0.2081,-0.0826 -0.2677,-0.0606 l 0,0 z m 0.0596,0.1681 c 0.0103,-0.003 0.0372,-0.0131 0.0968,0.0321 0.1568,0.1243 0.2084,0.2084 0.2084,0.3248 0,0.0645 -0.0182,0.142 -0.0413,0.2429 0,0 -0.0896,0.3635 -0.1254,0.5057 -0.0944,-0.0634 -0.2522,-0.2521 -0.2977,-0.8133 0.0259,-0.1061 0.0906,-0.2663 0.1592,-0.2922 l 0,0 z" />
      <path
         id="_21292528"
         style="fill:#fff500"
         d="m 107.148,165.331 c 0,0 0.0167,-0.0479 0.0542,-0.1034 0.0505,-0.2405 0.1733,-0.3452 -0.1319,-0.5767 -0.3142,-0.2395 -0.3762,0.2573 -0.3762,0.2573 0.0944,0.5134 0.318,0.7242 0.4835,0.8107 -0.0244,-0.1085 -0.0374,-0.2367 -0.0296,-0.3879 z" />
      <path
         id="_21290800"
         style="fill:#1f1a17"
         d="m 106.826,164.512 c -0.1784,0.0737 -0.2172,0.3531 -0.2197,0.3841 l -0.003,0.0142 0.003,0.0141 c 0.0983,0.5433 0.344,0.7762 0.529,0.8757 l 0.1719,0.0893 -0.0428,-0.1888 c -0.0193,-0.0934 -0.0296,-0.1902 -0.0296,-0.2977 0,-0.0155 0,-0.0324 0.003,-0.0489 0.008,-0.0183 0.0439,-0.0868 0.0439,-0.0868 l 0.008,-0.0221 0.0323,-0.1202 c 0.0219,-0.0672 0.0374,-0.1278 0.0374,-0.1888 0,-0.1123 -0.0542,-0.2198 -0.2339,-0.3555 -0.1333,-0.1034 -0.2367,-0.0931 -0.2989,-0.0686 l 0,0 z m 0.07,0.1667 c 0.0362,-0.0155 0.0904,0.0207 0.1202,0.0441 0.1242,0.0944 0.1642,0.1513 0.1642,0.2174 0,0.0372 -0.0155,0.0813 -0.0296,0.133 0,0 -0.0285,0.0996 -0.0324,0.123 -0.0143,0.0231 -0.0646,0.1202 -0.0646,0.1202 l 0.003,0.0117 c 0,0.0259 0,0.0517 0,0.0762 0,0.0399 0.008,0.0751 0.009,0.1137 -0.1099,-0.1137 -0.2198,-0.2987 -0.2792,-0.6143 0.0129,-0.0813 0.0517,-0.2015 0.1099,-0.225 l 0,0 z" />
      <path
         id="_21290136"
         style="fill:#fff500"
         d="m 107.648,166.097 c 0.1357,0.6855 0.5883,0.6997 0.5883,0.6997 0,0 -0.1927,-0.2199 -0.15,-0.4255 0.0427,-0.2057 0.1629,-0.2884 -0.1086,-0.4799 -0.2755,-0.1926 -0.3297,0.2057 -0.3297,0.2057 l 0,0 z" />
      <path
         id="_21289224"
         style="fill:#1f1a17"
         d="m 107.752,165.765 c -0.1552,0.0671 -0.1915,0.2925 -0.1927,0.3183 l -0.003,0.0155 0.003,0.0141 c 0.1486,0.7476 0.6542,0.7721 0.6761,0.7721 l 0.2043,0.007 -0.1357,-0.1554 c -0.0439,-0.0516 -0.1564,-0.216 -0.128,-0.3476 l 0.0296,-0.1112 c 0.0545,-0.1592 0.0725,-0.2874 -0.1784,-0.4617 -0.1239,-0.0868 -0.2183,-0.0751 -0.2752,-0.0506 l 0,0 z m 0.0723,0.1657 c 0.0285,-0.0145 0.0763,0.0155 0.1008,0.0324 0.1021,0.0723 0.1344,0.1099 0.1344,0.1588 0,0.0258 -0.0103,0.0582 -0.0244,0.0985 l -0.0375,0.1316 c -0.005,0.0272 -0.007,0.052 -0.007,0.0779 0,0.0672 0.0181,0.1319 0.0414,0.1912 -0.1086,-0.0789 -0.2314,-0.2315 -0.2922,-0.525 0.0117,-0.0634 0.0413,-0.1475 0.084,-0.1654 l 0,0 z" />
      <path
         id="_21288560"
         style="fill:#fff500"
         d="m 107.148,165.331 c -0.0324,0.8471 0.4926,0.9894 0.4926,0.9894 0,0 -0.1629,-0.3132 -0.0568,-0.5433 0.1073,-0.2301 0.2714,-0.2921 0.008,-0.595 -0.2676,-0.3038 -0.4435,0.1489 -0.4435,0.1489 z" />
      <path
         id="_21288176"
         style="fill:#1f1a17"
         d="m 107.365,164.992 c -0.1902,0.0324 -0.2923,0.278 -0.3013,0.3077 l -0.005,0.0141 -0.002,0.0144 c -0.035,0.9065 0.5353,1.0718 0.5598,1.0784 l 0.1979,0.0544 -0.0944,-0.1826 c -0.003,-0.004 -0.1409,-0.278 -0.0543,-0.464 l 0.0698,-0.1231 c 0.1048,-0.1705 0.1564,-0.3038 -0.0775,-0.5687 -0.1152,-0.1306 -0.2226,-0.1437 -0.2923,-0.1306 l 0,0 z m 0.031,0.1771 c 0.0439,-0.008 0.0932,0.0348 0.1254,0.0737 0.0892,0.0982 0.1216,0.1564 0.1216,0.2095 0,0.0451 -0.0246,0.0854 -0.062,0.1461 l -0.0789,0.1422 c -0.0324,0.0686 -0.0453,0.1437 -0.0453,0.2147 0,0.053 0.008,0.1033 0.0181,0.1526 -0.1165,-0.1127 -0.2405,-0.3208 -0.2405,-0.7021 0,-0.0183 0,-0.0352 0.003,-0.0531 0.0245,-0.062 0.0918,-0.1733 0.159,-0.1836 l 0,0 z" />
      <path
         id="_21286992"
         style="fill:#1f1a17"
         d="m 82.7076,138.837 -0.0051,0.0155 0.0026,0.0131 c 0.0244,0.2922 0.2527,0.4589 0.2618,0.4668 l 0.1862,0.1344 -0.0472,-0.225 c -0.02,-0.1023 -0.0343,-0.2367 -0.0225,-0.2742 0.0296,-0.0968 0.0549,-0.2081 0.0025,-0.2897 -0.0194,-0.0272 -0.0563,-0.0645 -0.1261,-0.0738 -0.1533,-0.0206 -0.2303,0.1372 -0.2522,0.2329 z m 0.2276,-0.053 c 0,0.004 0.0019,0.005 0.0019,0.0117 0,0.0179 -0.0045,0.0555 -0.0245,0.1188 -0.002,0.009 -0.002,0.0221 -0.0046,0.0311 -0.0078,-0.0272 -0.0174,-0.0517 -0.02,-0.0814 0.0122,-0.0402 0.0324,-0.0764 0.0472,-0.0802 l 0,0 z" />
      <path
         id="_21286608"
         style="fill:#1f1a17"
         d="m 83.2125,139.724 0.057,0.194 -0.0025,-0.008 c 0.0394,0.0765 0.139,0.1178 0.2327,0.092 0.0524,-0.0155 0.0873,-0.0503 0.0944,-0.0972 0.0044,-0.032 0,-0.0968 -0.0918,-0.1588 l -0.364,-0.278 0.0742,0.2559 0,0 z" />
      <path
         id="_21285616"
         style="fill:#1f1a17"
         d="m 83.5074,138.536 c -0.1357,0.0403 -0.2599,0.1643 -0.2179,0.3145 0.0395,0.1447 0.163,0.2288 0.2872,0.195 0.1336,-0.0362 0.208,-0.1371 0.208,-0.2832 l 0,-0.0141 c 0,-0.0658 0,-0.1461 -0.0645,-0.1967 -0.0641,-0.0475 -0.1533,-0.0334 -0.2128,-0.0155 z m -0.0446,0.2652 c -0.0026,-0.003 -0.0026,-0.005 -0.0026,-0.008 0,-0.0347 0.055,-0.0709 0.0963,-0.0826 0,0 0.0279,-0.005 0.0472,-0.008 0,0.0179 0,0.0451 0,0.0451 l 0,0.0141 c 0,0.0751 -0.027,0.0972 -0.0742,0.1099 -0.0272,0.007 -0.0564,-0.0296 -0.0667,-0.071 z" />
      <path
         id="_21284256"
         style="fill:#1f1a17"
         d="m 84.0672,138.333 c -0.2282,0.0713 -0.2552,0.1915 -0.2404,0.2807 0.0298,0.1578 0.1313,0.2598 0.2599,0.2598 0.1461,0 0.258,-0.115 0.258,-0.2701 l 0,-0.0145 c 0,-0.0799 0,-0.1822 -0.0795,-0.2391 -0.0498,-0.0375 -0.1165,-0.0426 -0.198,-0.0168 l 0,0 z m -0.062,0.2484 c 0,0 0,-0.001 0,-0.003 0,-0.0324 0.0719,-0.0606 0.1165,-0.0737 0,0 0.0245,-0.004 0.0348,-0.006 0.0046,0.0165 0.0072,0.0527 0.0072,0.0799 0,0.003 0,0.0248 0,0.0248 0,0.0527 -0.0324,0.0903 -0.077,0.0903 -0.0446,0 -0.0744,-0.0607 -0.0815,-0.1123 z" />
      <path
         id="_21283560"
         style="fill:#1f1a17"
         d="m 82.6475,137.014 c 0.0026,0.0117 0.0026,0.0221 0.0026,0.0338 0,0.1461 -0.1016,0.379 -0.1514,0.4799 -0.027,0.0141 -0.1409,0.0658 -0.3064,-0.0403 l -0.0691,0.1061 c 0.2592,0.1681 0.4499,0.0376 0.4603,0.0324 l 0.0122,-0.009 0.0072,-0.0144 c 0.02,-0.04 0.1984,-0.3903 0.1712,-0.604 l -0.1266,0.0155 0,0 z" />
      <path
         id="_21282896"
         style="fill:#ffffff"
         d="m 108.062,152.73 c 0,2.4257 -1.9655,4.3901 -4.3888,4.3901 -2.4265,0 -4.3926,-1.9644 -4.3926,-4.3901 0,-2.4247 1.9661,-4.3904 4.3926,-4.3904 2.4233,0 4.3888,1.9657 4.3888,4.3904 z" />
      <path
         id="_21282120"
         style="fill:#1f1a17"
         d="m 99.1918,152.73 c 0,2.4722 2.0081,4.4817 4.4811,4.4817 2.4686,0 4.4794,-2.0095 4.4794,-4.4817 0,-2.4702 -2.0108,-4.4797 -4.4794,-4.4797 -2.473,0 -4.4811,2.0095 -4.4811,4.4797 z m 0.1803,0 c 0,-2.3706 1.9267,-4.2998 4.3008,-4.2998 2.3691,0 4.2997,1.9292 4.2997,4.2998 0,2.3726 -1.9306,4.3022 -4.2997,4.3022 -2.3741,0 -4.3008,-1.9296 -4.3008,-4.3022 z" />
      <path
         id="_21281456"
         style="fill:#fff500"
         d="m 107.492,152.73 c 0,2.1115 -1.7083,3.8209 -3.8188,3.8209 -2.1116,0 -3.823,-1.7094 -3.823,-3.8209 0,-2.1094 1.7114,-3.82 3.823,-3.82 2.1105,0 3.8188,1.7106 3.8188,3.82 z" />
      <path
         id="_21280680"
         style="fill:#1f1a17"
         d="m 99.7607,152.73 c 0,2.1569 1.7534,3.9116 3.9122,3.9116 2.1545,0 3.9106,-1.7547 3.9106,-3.9116 0,-2.1546 -1.7561,-3.9092 -3.9106,-3.9092 -2.1588,0 -3.9122,1.7546 -3.9122,3.9092 z m 0.1811,0 c 0,-2.0574 1.6713,-3.7297 3.7311,-3.7297 2.0561,0 3.7307,1.6723 3.7307,3.7297 0,2.057 -1.6746,3.7317 -3.7307,3.7317 -2.0598,0 -3.7311,-1.6747 -3.7311,-3.7317 z" />
      <path
         id="_21280016"
         style="fill:#ffffff"
         d="m 104.38,152.73 c 0,0.3917 -0.3169,0.7111 -0.7075,0.7111 -0.3916,0 -0.7091,-0.3194 -0.7091,-0.7111 0,-0.3907 0.3175,-0.7076 0.7091,-0.7076 0.3906,0 0.7075,0.3169 0.7075,0.7076 z" />
      <path
         id="_21279240"
         style="fill:#1f1a17"
         d="m 102.872,152.73 c 0,0.441 0.36,0.7989 0.8009,0.7989 0.441,0 0.7979,-0.3579 0.7979,-0.7989 0,-0.44 -0.3569,-0.7979 -0.7979,-0.7979 -0.4409,0 -0.8009,0.3579 -0.8009,0.7979 z m 0.1815,0 c 0,-0.3404 0.2768,-0.6184 0.6194,-0.6184 0.3415,0 0.6183,0.278 0.6183,0.6184 0,0.3424 -0.2768,0.6205 -0.6183,0.6205 -0.3426,0 -0.6194,-0.2781 -0.6194,-0.6205 z" />
      <path
         id="_21278576"
         style="fill:#ffffff"
         d="m 104.62,149.856 c 0,0.5226 -0.4253,2.157 -0.9466,2.157 -0.5224,0 -0.9472,-1.6344 -0.9472,-2.157 0,-0.5222 0.4248,-0.9464 0.9472,-0.9464 0.5213,0 0.9466,0.4242 0.9466,0.9464 z" />
      <path
         id="_21277664"
         style="fill:#1f1a17"
         d="m 102.637,149.856 c 0,0.4489 0.4015,2.2462 1.0364,2.2462 0.6338,0 1.0346,-1.7973 1.0346,-2.2462 0,-0.5715 -0.4656,-1.0356 -1.0346,-1.0356 -0.5727,0 -1.0364,0.4641 -1.0364,1.0356 z m 0.1785,0 c 0,-0.4719 0.3848,-0.8561 0.8579,-0.8561 0.4695,0 0.8536,0.3842 0.8536,0.8561 0,0.5316 -0.4333,2.0664 -0.8536,2.0664 -0.4215,0 -0.8579,-1.5348 -0.8579,-2.0664 z" />
      <path
         id="_21277000"
         style="fill:#ffffff"
         d="m 104.62,155.605 c 0,-0.5226 -0.4253,-2.1559 -0.9466,-2.1559 -0.5224,0 -0.9472,1.6333 -0.9472,2.1559 0,0.5223 0.4248,0.945 0.9472,0.945 0.5213,0 0.9466,-0.4227 0.9466,-0.945 z" />
      <path
         id="_21276224"
         style="fill:#1f1a17"
         d="m 102.637,155.605 c 0,0.5716 0.4637,1.0357 1.0364,1.0357 0.569,0 1.0346,-0.4641 1.0346,-1.0357 0,-0.4502 -0.4008,-2.2475 -1.0346,-2.2475 -0.6349,0 -1.0364,1.7973 -1.0364,2.2475 z m 0.1785,0 c 0,-0.5329 0.4364,-2.0677 0.8579,-2.0677 0.4203,0 0.8536,1.5348 0.8536,2.0677 0,0.473 -0.3841,0.8558 -0.8536,0.8558 -0.4731,0 -0.8579,-0.3828 -0.8579,-0.8558 z" />
      <path
         id="_21275560"
         style="fill:#ffffff"
         d="m 100.797,151.785 c 0.5217,0 2.157,0.4217 2.157,0.9443 0,0.5236 -1.6353,0.9464 -2.157,0.9464 -0.5232,0 -0.9466,-0.4228 -0.9466,-0.9464 0,-0.5226 0.4234,-0.9443 0.9466,-0.9443 z" />
      <path
         id="_21274784"
         style="fill:#1f1a17"
         d="m 99.7607,152.73 c 0,0.5726 0.4654,1.0356 1.0358,1.0356 0.4499,0 2.2467,-0.4007 2.2467,-1.0356 0,-0.6339 -1.7968,-1.0346 -2.2467,-1.0346 -0.5704,0 -1.0358,0.4641 -1.0358,1.0346 z m 0.1811,0 c 0,-0.471 0.3839,-0.8551 0.8547,-0.8551 0.5321,0 2.0677,0.4348 2.0677,0.8551 0,0.4227 -1.5356,0.8571 -2.0677,0.8571 -0.4708,0 -0.8547,-0.3841 -0.8547,-0.8571 z" />
      <path
         id="_21274120"
         style="fill:#ffffff"
         d="m 106.548,151.785 c -0.5223,0 -2.1569,0.4217 -2.1569,0.9443 0,0.5236 1.6346,0.9464 2.1569,0.9464 0.5198,0 0.9441,-0.4228 0.9441,-0.9464 0,-0.5226 -0.4243,-0.9443 -0.9441,-0.9443 z" />
      <path
         id="_21273344"
         style="fill:#1f1a17"
         d="m 104.299,152.73 c 0,0.6349 1.7973,1.0356 2.2487,1.0356 0.5703,0 1.0359,-0.463 1.0359,-1.0356 0,-0.5705 -0.4656,-1.0346 -1.0359,-1.0346 -0.4514,0 -2.2487,0.4007 -2.2487,1.0346 z m 0.1811,0 c 0,-0.4203 1.5361,-0.8551 2.0676,-0.8551 0.4707,0 0.856,0.3841 0.856,0.8551 0,0.473 -0.3853,0.8571 -0.856,0.8571 -0.5315,0 -2.0676,-0.4344 -2.0676,-0.8571 z" />
      <path
         id="_21272680"
         style="fill:#ffffff"
         d="m 100.97,154.095 c 0.3692,-0.3697 1.826,-1.2272 2.1939,-0.8572 0.3698,0.3683 -0.487,1.8246 -0.8568,2.1946 -0.3685,0.3682 -0.9679,0.3682 -1.3371,0 -0.3691,-0.37 -0.3691,-0.9674 0,-1.3374 l 0,0 z" />
      <path
         id="_21104376"
         style="fill:#1f1a17"
         d="m 102.889,153.058 c -0.5819,0 -1.6487,0.6401 -1.9835,0.9736 -0.1935,0.1953 -0.302,0.454 -0.302,0.7321 l 0,0.001 c 0,0.2753 0.1085,0.5354 0.302,0.7318 0.4065,0.4024 1.0628,0.4024 1.4662,0 0.3169,-0.3194 1.3067,-1.8738 0.858,-2.3224 -0.0789,-0.0775 -0.194,-0.1164 -0.3407,-0.1164 z m -1.855,2.3096 c -0.1602,-0.1592 -0.2501,-0.3762 -0.2501,-0.6039 0,-0.2288 0.0899,-0.4438 0.2501,-0.6053 0.3097,-0.3115 1.343,-0.9219 1.855,-0.9219 0.0976,0 0.1688,0.0234 0.2115,0.0658 0.2973,0.2963 -0.4818,1.6891 -0.858,2.0653 -0.3318,0.3348 -0.8742,0.3348 -1.2085,0 l -0.1285,-1.336" />
      <path
         id="_21104184"
         style="fill:#ffffff"
         d="m 105.037,150.029 c -0.3684,0.3686 -1.2258,1.8235 -0.8559,2.1932 0.3684,0.37 1.8219,-0.4862 2.1943,-0.8561 0.3687,-0.3697 0.3687,-0.9685 0,-1.3371 -0.3724,-0.371 -0.9698,-0.371 -1.3384,0 z" />
      <path
         id="_21103664"
         style="fill:#1f1a17"
         d="m 104.973,149.965 c -0.3167,0.3183 -1.3048,1.8737 -0.8561,2.3213 0.4475,0.4488 2.0032,-0.5378 2.3199,-0.8562 0.1952,-0.1953 0.3051,-0.4564 0.3051,-0.7317 0,-0.277 -0.1099,-0.5381 -0.3051,-0.7334 -0.4034,-0.4035 -1.0603,-0.4035 -1.4638,0 l 0,0 z m 1.3384,0.1267 c 0.1604,0.163 0.2496,0.3776 0.2496,0.6067 0,0.2274 -0.0892,0.4434 -0.2496,0.605 -0.3763,0.3765 -1.7716,1.1537 -2.0691,0.8561 -0.2973,-0.2973 0.4799,-1.6902 0.8575,-2.0678 0.3349,-0.3321 0.8766,-0.3321 1.2116,0 l 0,0 z" />
      <path
         id="_21103000"
         style="fill:#ffffff"
         d="m 105.037,155.431 c -0.3684,-0.3686 -1.2258,-1.8249 -0.8559,-2.1932 0.3684,-0.37 1.8219,0.4875 2.1943,0.8562 0.3687,0.371 0.3687,0.9684 0,1.337 -0.3724,0.3696 -0.9698,0.3696 -1.3384,0 z" />
      <path
         id="_21102224"
         style="fill:#1f1a17"
         d="m 104.117,153.173 c -0.4487,0.4499 0.5394,2.0043 0.8561,2.3237 0.4035,0.4024 1.0604,0.4024 1.4638,0 0.4035,-0.4048 0.4035,-1.0628 0,-1.4652 -0.3167,-0.3194 -1.8724,-1.3071 -2.3199,-0.8585 z m 0.9829,2.1945 c -0.3776,-0.3762 -1.1548,-1.769 -0.8575,-2.0653 0.3001,-0.2974 1.6928,0.4799 2.0691,0.8561 0.3335,0.3324 0.3335,0.8767 0,1.2092 -0.335,0.3335 -0.8767,0.3335 -1.2116,0 z" />
      <path
         id="_21101584"
         style="fill:#ffffff"
         d="m 100.97,151.366 c 0.3692,0.3699 1.826,1.2247 2.1939,0.8561 0.3698,-0.3697 -0.487,-1.8246 -0.8568,-2.1932 -0.3685,-0.371 -0.9679,-0.371 -1.3371,0 -0.3691,0.3686 -0.3691,0.9674 0,1.3371 l 0,0 z" />
      <path
         id="_21099592"
         style="fill:#1f1a17"
         d="m 100.908,149.965 c -0.196,0.1953 -0.3045,0.4564 -0.3045,0.732 0,0.2767 0.1085,0.5378 0.3045,0.7331 0.3168,0.3184 1.8725,1.305 2.3217,0.8562 0.4487,-0.4476 -0.5411,-2.003 -0.858,-2.3213 -0.4034,-0.4035 -1.0597,-0.4035 -1.4637,0 z m 0.126,1.3384 c -0.1602,-0.1616 -0.2501,-0.3776 -0.2501,-0.6064 0,-0.2277 0.0899,-0.4437 0.2501,-0.6053 0.3343,-0.3335 0.8767,-0.3335 1.2085,0 0.3762,0.3776 1.1553,1.7705 0.858,2.0678 -0.2982,0.2976 -1.6895,-0.4796 -2.0665,-0.8561 z" />
      <path
         id="_21098880"
         style="fill:#fff500"
         d="m 78.4791,157.598 c 0,0 0.0918,0.2095 0.2999,0.3039 0.205,0.0944 0.7456,-0.0259 0.7456,-0.0259 0,0 -0.2482,-0.1306 -0.4216,-0.2611 -0.1725,-0.1296 -0.3214,-0.255 -0.3214,-0.255 0,0 -0.181,-0.0441 -0.2578,0.062 -0.077,0.1089 -0.0447,0.1761 -0.0447,0.1761 l 0,0 z" />
      <path
         id="_21096880"
         style="fill:#1f1a17"
         d="m 78.4493,157.37 c -0.0523,0.0789 -0.0665,0.1423 -0.0665,0.1888 0,0.0413 0.0097,0.0671 0.0142,0.0751 0.0051,0.0117 0.1092,0.2432 0.3446,0.3503 0.2283,0.1034 0.7435,-0.007 0.8024,-0.0206 l 0.236,-0.0531 -0.2134,-0.1137 c -0.0026,-10e-4 -0.245,-0.1305 -0.4112,-0.2535 l -0.3317,-0.2639 -0.0226,-0.006 c -0.0886,-0.0207 -0.2625,-0.0259 -0.3518,0.0968 l 0,0 z m 0.1146,0.1888 c 0,-0.0104 0.0019,-0.04 0.0341,-0.0841 0.0298,-0.0427 0.112,-0.0348 0.1463,-0.0283 0.0373,0.0297 0.3045,0.2405 0.3045,0.2405 0.0698,0.0503 0.1442,0.0982 0.2158,0.1433 -0.1738,0.0207 -0.3621,0.0286 -0.4487,-0.0103 -0.166,-0.0748 -0.2475,-0.2418 -0.252,-0.256 0,-10e-4 0,-10e-4 0,-0.005 z m -0.1669,0.0751 -0.0019,-0.001 0.0019,0.001 z" />
      <path
         id="_21096168"
         style="fill:#fff500"
         d="m 79.3714,157.252 c 0.2153,0.1588 0.3781,0.1926 0.6982,0.1588 0.3169,-0.031 0.401,-0.1512 0.401,-0.1512 0,0 -0.2625,0 -0.4804,-0.0954 -0.2154,-0.0972 -0.2625,-0.2357 -0.2625,-0.2357 0,0 -0.218,-0.1536 -0.3344,-0.0634 -0.3097,0.2419 -0.0219,0.3869 -0.0219,0.3869 l 0,0 z" />
      <path
         id="_21114080"
         style="fill:#1f1a17"
         d="m 79.339,156.794 c -0.119,0.093 -0.1791,0.1874 -0.1791,0.2859 0,0.009 0,0.0165 0,0.0245 0.0129,0.1357 0.1345,0.2067 0.1617,0.2225 0.2276,0.1654 0.4112,0.2095 0.7552,0.1744 0.3491,-0.0349 0.4584,-0.1744 0.468,-0.1902 l 0.0991,-0.142 -0.1733,0 c 0,0 -0.2477,-10e-4 -0.443,-0.0892 -0.1732,-0.0765 -0.2133,-0.1774 -0.2152,-0.1826 L 79.8019,156.8729 79.78,156.856 c -0.0277,-0.0207 -0.2754,-0.1902 -0.441,-0.062 l 0,0 z m 0.0834,0.3855 -0.0045,-0.005 -0.007,-0.004 c -0.0176,-0.008 -0.0674,-0.0451 -0.0719,-0.0841 -0.0025,-0.0386 0.0369,-0.0944 0.1087,-0.1499 0.04,-0.0296 0.1416,0.0128 0.2107,0.0569 0.0298,0.0555 0.1087,0.1681 0.2975,0.2522 0.0613,0.0258 0.1254,0.0465 0.1907,0.062 -0.0304,0.004 -0.0524,0.0117 -0.0874,0.0155 -0.3045,0.03 -0.4409,0 -0.6368,-0.1433 l 0,0 z" />
      <path
         id="_21113368"
         style="fill:#fff500"
         d="m 80.0276,156.653 c 0.0563,0.0981 0.4332,0.2742 0.7107,0.2353 0.285,-0.0414 0.468,-0.1964 0.468,-0.1964 0,0 -0.3097,-0.008 -0.5573,-0.154 -0.2451,-0.1461 -0.1662,-0.1216 -0.2775,-0.2921 -0.1117,-0.1696 -0.2947,-0.0145 -0.3341,0.0244 -0.0395,0.04 -0.0648,0.2818 -0.0098,0.3828 z" />
      <path
         id="_133427136"
         style="fill:#1f1a17"
         d="m 79.9726,156.208 c -0.0794,0.0789 -0.0911,0.3672 -0.0219,0.4875 0.0769,0.1371 0.4927,0.3245 0.7998,0.2804 0.3071,-0.0437 0.5049,-0.2067 0.5152,-0.2146 l 0.1785,-0.1526 -0.2353,-0.006 c -0.0026,0 -0.2903,-0.009 -0.5127,-0.1423 -0.1558,-0.0906 -0.161,-0.0996 -0.1857,-0.1502 l -0.0645,-0.1137 c -0.0569,-0.0879 -0.1313,-0.1113 -0.1811,-0.1165 -0.1435,-0.0155 -0.2696,0.1034 -0.2923,0.1282 l 0,0 z m 0.2728,0.0489 c 0.0073,0.001 0.0273,0.003 0.0498,0.0376 l 0.0538,0.0957 c 0.0453,0.0893 0.0697,0.1165 0.2554,0.225 0.1092,0.0648 0.2257,0.1023 0.3297,0.1254 -0.0594,0.0245 -0.1287,0.0465 -0.2083,0.0582 -0.25,0.0338 -0.5818,-0.1292 -0.6194,-0.1912 -0.0148,-0.0272 -0.0225,-0.0778 -0.0225,-0.1295 0,-0.062 0.0103,-0.1254 0.0225,-0.1485 0.035,-0.0338 0.0965,-0.0765 0.139,-0.0727 l 0,0 z" />
      <path
         id="_133426752"
         style="fill:#1f1a17"
         d="m 78.8755,157.182 0.1292,-0.1268 c -0.7085,-0.7073 -0.7583,-1.7081 -0.627,-2.065 l -0.1688,-0.062 c -0.1759,0.4757 -0.0369,1.5503 0.6666,2.2538 z" />
      <path
         id="_133426128"
         style="fill:#1f1a17"
         d="m 79.579,156.598 0.1338,-0.1202 c -0.4928,-0.556 -0.7035,-1.5413 -0.2451,-2.0237 l -0.1287,-0.1229 c -0.5405,0.5677 -0.3078,1.6501 0.24,2.2668 z" />
      <path
         id="_133425744"
         style="fill:none;stroke:#ffffff;stroke-width:0.35280001"
         d="m 86.1577,170.098 c 0.0472,-1.1317 0.9633,-1.4408 1.721,-1.3811 0.8601,0.0671 1.1769,0.3386 1.1769,0.3386" />
      <path
         id="_133425008"
         style="fill:#1f1a17"
         d="m 86.5339,169.013 c -0.2895,0.257 -0.4461,0.6219 -0.4654,1.0811 l 0.1811,0.008 c 0.0147,-0.4086 0.1512,-0.7318 0.4034,-0.9543 0.287,-0.255 0.7305,-0.3804 1.2187,-0.3414 0.8121,0.0648 1.1217,0.3179 1.127,0.3194 l 0.1163,-0.1385 c -0.0148,-0.0104 -0.3491,-0.2908 -1.2285,-0.3594 -0.5373,-0.0427 -1.0306,0.0982 -1.3526,0.3855 l 0,0 z" />
      <path
         id="_133424424"
         style="fill:none;stroke:#ffffff;stroke-width:0.35280001"
         d="m 86.7246,170.912 c 0,-1.2224 0.882,-1.4718 1.7193,-1.3812 0.7552,0.0827 1.1767,0.3387 1.1767,0.3387" />
      <path
         id="_21389296"
         style="fill:#1f1a17"
         d="m 87.0616,169.776 c -0.2851,0.2535 -0.4262,0.6363 -0.4262,1.1369 l 0.1785,0 c 0,-0.4476 0.1241,-0.7852 0.3667,-1.0036 0.3492,-0.3132 0.8747,-0.3297 1.253,-0.2883 0.7235,0.0788 1.1372,0.3245 1.1419,0.3269 l 0.0923,-0.1537 c -0.0181,-0.0103 -0.4488,-0.269 -1.2143,-0.3517 -0.4163,-0.0441 -0.9956,-0.0248 -1.3919,0.3335 z" />
      <path
         id="_21389016"
         style="fill:#1f1a17"
         d="m 107.662,165.537 -0.008,0.0169 0.154,0.0916 0.0103,-0.0154 c 0.3413,-0.5716 0.6386,-1.0656 1.6149,-0.9337 0.7411,0.101 1.4289,0.2419 1.4367,0.2446 l 0.0375,-0.1774 c -0.008,-0.001 -0.7047,-0.1433 -1.4495,-0.2456 -1.094,-0.1489 -1.4496,0.4447 -1.796,1.019 l 0,0 z" />
      <path
         id="_21388312"
         style="fill:#1f1a17"
         d="m 107.175,164.851 0.1618,0.0775 c 0.3982,-0.8303 1.2075,-1.2609 2.0676,-1.0966 l 0.0322,-0.1774 c -0.9388,-0.1785 -1.8284,0.2911 -2.2616,1.1965 l 0,0 z" />
      <path
         id="_21387648"
         style="fill:#1f1a17"
         d="m 118.135,170.339 c -0.0668,0.1475 -0.1343,0.2987 -0.2287,0.4524 l 0.1564,0.092 c 0.0971,-0.1616 0.1722,-0.3273 0.2356,-0.4706 0.2363,-0.5265 0.3645,-0.8176 1.3202,-0.4193 0.3917,0.1605 0.9205,0.3235 1.5554,0.1309 l -0.0516,-0.1722 c -0.5805,0.176 -1.0708,0.0248 -1.4342,-0.1254 -1.1197,-0.4641 -1.3099,-0.0335 -1.5531,0.5122 l 0,0 z" />
      <path
         id="_21386688"
         style="fill:#1f1a17"
         d="m 118.728,168.614 c -0.5626,0.07 -1.2079,0.7852 -1.3801,1.5338 l 0.175,0.0403 c 0.1564,-0.6725 0.7379,-1.336 1.2244,-1.3956 0.0592,-0.006 0.2053,0.0272 0.3621,0.0623 0.3362,0.0748 0.7989,0.1795 1.2336,0.1161 l -0.0286,-0.1795 c -0.3982,0.0593 -0.8416,-0.0389 -1.1661,-0.1112 -0.1929,-0.0441 -0.3339,-0.0765 -0.4203,-0.0662 z" />
    </g>
  </g>
</svg>
