<?xml version="1.0" encoding="UTF-8" standalone="no"?>
<!-- Created with Sodipodi ("http://www.sodipodi.com/") -->
<svg
   xmlns:dc="http://purl.org/dc/elements/1.1/"
   xmlns:cc="http://creativecommons.org/ns#"
   xmlns:rdf="http://www.w3.org/1999/02/22-rdf-syntax-ns#"
   xmlns:svg="http://www.w3.org/2000/svg"
   xmlns="http://www.w3.org/2000/svg"
   xmlns:sodipodi="http://sodipodi.sourceforge.net/DTD/sodipodi-0.dtd"
   xmlns:inkscape="http://www.inkscape.org/namespaces/inkscape"
   height="140mm"
   id="svg378"
   sodipodi:docbase="/home/delaunoi/tmp/"
   sodipodi:docname="Flag_of_Wallonia.svg"
   sodipodi:version="0.32"
   version="1"
   width="210mm"
   x="0"
   y="0"
   inkscape:version="0.46"
   inkscape:output_extension="org.inkscape.output.svg.inkscape">
  <metadata
     id="metadata2649">
    <rdf:RDF>
      <cc:Work
         rdf:about="">
        <dc:title>Clipart by Cedric de Launois - Belgium - Walloon</dc:title>
        <dc:description />
        <dc:subject>
          <rdf:Bag>
            <rdf:li />
            <rdf:li>europe</rdf:li>
            <rdf:li>0x8f3e6a0</rdf:li>
            <rdf:li>belgium</rdf:li>
            <rdf:li>flag</rdf:li>
            <rdf:li>sign</rdf:li>
          </rdf:Bag>
        </dc:subject>
        <dc:publisher>
          <cc:Agent
             rdf:about="http://www.openclipart.org">
            <dc:title>Cedric de Launois</dc:title>
          </cc:Agent>
        </dc:publisher>
        <dc:creator>
          <cc:Agent>
            <dc:title>Cedric de Launois</dc:title>
          </cc:Agent>
        </dc:creator>
        <dc:rights>
          <cc:Agent>
            <dc:title>Cedric de Launois</dc:title>
          </cc:Agent>
        </dc:rights>
        <dc:date />
        <dc:format>image/svg+xml</dc:format>
        <dc:type
           rdf:resource="http://purl.org/dc/dcmitype/StillImage" />
        <cc:license
           rdf:resource="http://web.resource.org/cc/PublicDomain" />
        <dc:language>en</dc:language>
      </cc:Work>
      <cc:License
         rdf:about="http://web.resource.org/cc/PublicDomain">
        <cc:permits
           rdf:resource="http://web.resource.org/cc/Reproduction" />
        <cc:permits
           rdf:resource="http://web.resource.org/cc/Distribution" />
        <cc:permits
           rdf:resource="http://web.resource.org/cc/DerivativeWorks" />
      </cc:License>
    </rdf:RDF>
  </metadata>
  <sodipodi:namedview
     id="base"
     showgrid="false"
     snaptogrid="false"
     inkscape:zoom="0.51695866"
     inkscape:cx="212.72866"
     inkscape:cy="173.92787"
     inkscape:window-width="1024"
     inkscape:window-height="712"
     inkscape:window-x="-4"
     inkscape:window-y="-4"
     inkscape:current-layer="svg378" />
  <defs
     id="defs380">
    <inkscape:perspective
       sodipodi:type="inkscape:persp3d"
       inkscape:vp_x="0 : 248.03149 : 1"
       inkscape:vp_y="0 : 1000 : 0"
       inkscape:vp_z="744.09448 : 248.03149 : 1"
       inkscape:persp3d-origin="372.04724 : 165.35433 : 1"
       id="perspective2683" />
  </defs>
  <rect
     height="496.062561"
     id="rect135"
     style="font-size:12;fill:#fff600;fill-rule:evenodd;stroke-width:1pt;fill-opacity:1;stroke:none"
     width="744.094360"
     x="0.000076"
     y="-0.000008" />
  <g
     id="g3456"
     style="fill:#ff0000;fill-opacity:1">
    <path
       transform="translate(35.63732,-1.525879e-5)"
       style="font-size:12;fill:#ff0000;fill-rule:evenodd;stroke:none;stroke-width:1.19849000000000010pt;fill-opacity:1"
       sodipodi:nodetypes="csccccccccsc"
       id="path21141"
       d="M 247.333 273.899 C 215.763 267.564 182.957 239.564 183.752 203.822 C 184.475 189.106 188.991 193.152 190.193 182 C 187.133 155.302 216.026 139.305 232.064 131.452 C 241.084 130.504 245.776 134.23 260.763 133.304 C 250.558 137.933 243.224 141.638 243.543 145.341 L 252.036 144.416 C 252.036 144.416 257.088 150.861 230.15 155.526 C 238.608 163.896 243.544 163.86 253.109 162.008 C 265.546 158.304 219.091 178.157 251.16 201.044 C 252.137 219.302 222.187 198.038 216.278 229.342 C 213.556 242.685 234.271 261.294 247.333 273.899 z " />
    <path
       transform="translate(35.63732,-1.525879e-5)"
       style="font-size:12;fill:#ff0000;fill-rule:evenodd;stroke:none;stroke-width:1.19849000000000010pt;fill-opacity:1"
       sodipodi:nodetypes="ccccscccs"
       id="path21142"
       d="M 220.583 234.694 C 221.568 243.384 247.37 272.658 266.503 281.918 C 286.592 288.399 312.423 272.658 316.25 263.399 C 321.43 252.175 322.27 234.134 317.206 226.746 C 315.523 223.921 297.159 202.512 286.592 200.898 C 260.803 196.956 265.546 203.212 255.023 201.824 C 255.023 207.379 253.109 211.546 249.282 213.398 C 245.457 215.25 240.673 213.397 231.585 216.175 C 228.715 217.102 219.237 222.822 220.583 234.694 z " />
    <path
       transform="translate(35.63732,-1.525879e-5)"
       style="font-size:12;fill:#ff0000;fill-rule:evenodd;stroke:none;stroke-width:1.19849000000000010pt;fill-opacity:1"
       sodipodi:nodetypes="cccc"
       id="path21143"
       d="M 207.051 258.985 C 220.295 293.945 272.504 314.808 302.433 311.039 C 286.874 295.979 274.697 299.579 250.346 278.629 C 240.874 277.319 217.589 269.065 207.051 258.985 z " />
    <path
       transform="translate(35.63732,-1.525879e-5)"
       style="font-size:12;fill:#ff0000;fill-rule:evenodd;stroke:none;stroke-width:1.19849000000000010pt;fill-opacity:1"
       sodipodi:nodetypes="ccccccccccccccscsscc"
       id="path21144"
       d="M 232.757 126.074 C 229.375 122.801 233.432 117.562 241.551 113.633 C 249.669 109.705 254.404 111.015 257.785 111.015 C 275.374 106.105 264.89 106.432 282.477 95.6287 C 286.197 98.0287 301.08 107.96 306.491 113.633 C 306.942 158.592 294.766 158.592 292.962 189.583 C 289.129 183.908 289.353 169.724 285.521 155.537 C 277.854 166.233 271.541 166.449 264.551 175.179 C 264.551 169.942 261.845 169.941 260.491 167.322 C 259.59 171.469 250.571 176.926 245.609 185.001 C 242.679 172.67 263.424 163.613 261.169 156.191 C 255.081 155.973 247.64 159.684 239.521 157.501 C 261.168 150.736 253.728 148.553 259.816 142.442 C 256.434 141.788 255.756 141.284 251.22 141.788 C 260.02 136.55 268.849 134.13 268.61 130.657 C 268.61 125.991 266.805 121.49 265.904 116.907 C 264.551 121.053 262.342 124.487 259.692 127.495 C 257.408 130.398 245.994 130.588 244.496 129.347 C 240.878 125.799 243.58 122.363 248.992 116.253 C 240.198 118.872 236.816 129.348 232.757 126.074 z " />
    <path
       transform="translate(35.63732,-1.525879e-5)"
       style="font-size:12;fill:#ff0000;fill-rule:evenodd;stroke:none;stroke-width:1.19849000000000010pt;fill-opacity:1"
       sodipodi:nodetypes="ccccccc"
       id="path21146"
       d="M 247.976 190.238 C 249.33 193.512 254.066 196.131 258.124 197.441 C 260.831 193.512 285.861 194.822 285.183 194.822 C 282.477 187.292 281.124 179.107 283.154 165.031 C 279.095 168.304 269.287 174.524 261.846 187.619 C 259.816 183.691 261.845 181.073 259.816 175.834 C 256.998 180.854 248.766 185.219 247.976 190.238 z " />
    <path
       transform="translate(35.63732,-1.525879e-5)"
       style="font-size:12;fill:#ff0000;fill-rule:evenodd;stroke:none;stroke-width:1.19849000000000010pt;fill-opacity:1"
       sodipodi:nodetypes="ccccc"
       id="path25162"
       d="M 248.993 304.818 C 250.347 335.154 267.933 351.086 270.639 349.996 C 277.517 350.322 279.659 343.447 301.419 343.12 C 291.497 335.481 276.841 318.676 274.36 313.002 C 269.286 312.238 262.184 312.129 248.993 304.818 z " />
    <path
       transform="translate(35.63732,-1.525879e-5)"
       style="font-size:12;fill:#ff0000;fill-rule:evenodd;stroke:none;stroke-width:1.19849000000000010pt;fill-opacity:1"
       sodipodi:nodetypes="ccsccccccccccccc"
       id="path25163"
       d="M 134.284 323.419 C 132.807 314.406 136.602 310.39 155.865 308.251 C 172.167 303.352 168.732 301.933 178.879 301.391 C 190.851 300.71 195.982 313.005 247.083 319.815 C 247.325 325.533 250.139 331.971 257.133 340.832 C 240.129 337.296 231.469 330.422 222.128 327.802 C 217.731 327.475 219.542 335.462 215.144 337.754 C 213.116 333.389 215.822 323.722 212.44 322.957 L 193.609 317.197 C 192.022 325.732 195.992 330.794 200.251 340.046 C 189.802 339.086 186.952 330.406 188.074 316.673 C 179.055 317.503 173.696 316.858 173.979 317.786 C 171.16 319.64 159.661 336.663 161.803 340.373 C 156.504 339.02 154.695 336.489 154.47 331.143 C 154.019 328.851 160.574 324.397 165.534 316.867 C 154.647 315.679 144.981 319.207 134.284 323.419 z " />
    <path
       transform="translate(35.63732,-1.525879e-5)"
       style="font-size:12;fill:#ff0000;fill-rule:evenodd;stroke:none;stroke-width:1.19849000000000010pt;fill-opacity:1"
       sodipodi:nodetypes="csccccccccc"
       id="path25165"
       d="M 279.896 313.863 C 308.119 350.128 326.736 353.141 334.606 364.934 C 337.576 369.673 341.363 373.316 343.516 374.048 C 349.734 374.357 358.343 374.202 362.17 373.586 C 366.954 367.413 361.692 363.092 360.735 358.308 C 360.575 350.592 364.244 347.042 362.648 340.715 C 358.184 343.647 353.72 347.505 346.864 346.733 C 347.82 339.325 354.038 339.789 352.604 332.381 C 358.184 325.9 356.787 322.387 357.105 319.609 C 324.74 323.451 312.649 314.394 306.61 315.059 C 302.107 315.513 291.013 316.619 279.896 313.863 z " />
    <path
       transform="translate(35.63732,-1.525879e-5)"
       style="font-size:12;fill:#ff0000;fill-rule:evenodd;stroke:none;stroke-width:1.19849000000000010pt;fill-opacity:1"
       sodipodi:nodetypes="ccccccccccccccccccccc"
       id="path25166"
       d="M 332.122 370.239 C 316.587 407.538 301.613 421.573 293.154 429.904 C 288.93 434.031 274.141 430.275 266.533 430.704 C 252.458 431.395 253.04 438.16 251.901 443.304 C 259.894 442.381 262.073 437.913 267.519 438.064 C 275.021 439.101 278.846 438.734 284.508 439.068 C 288.678 437.889 290.715 438.305 293.818 437.923 C 293.576 441.704 281.477 447.705 275.307 452.594 C 272.093 457.629 274.747 462.014 276.331 463.46 C 279.727 460.783 280.34 461.017 284.033 459.778 C 284.19 451.007 292.421 450.735 298.214 443.153 C 305.395 447.338 311.101 444.177 315.406 440.683 C 319.016 442.62 322.52 452.949 332.243 459.87 C 334.867 455.692 333.758 454.306 333.775 451.663 C 328.126 448.063 322.297 442.107 319.132 434.157 C 316.379 422.37 322.113 415.868 325.122 411.818 C 330.981 417.546 333.592 419.747 342.681 417.795 C 335.007 413.704 330.894 411.933 329.089 407.191 C 332.462 402.798 341.46 392.124 354.49 380.097 C 348.272 379.071 342.352 379.481 339.573 377.96 C 336.598 376.723 334.447 372.793 332.122 370.239 z " />
    <path
       transform="translate(35.63732,-1.525879e-5)"
       style="font-size:12;fill:#ff0000;fill-rule:evenodd;stroke:none;stroke-width:1.19849000000000010pt;fill-opacity:1"
       sodipodi:nodetypes="cccc"
       id="path25167"
       d="M 236.708 102.012 C 237.809 98.5987 243.307 95.5117 249.82 91.7707 C 252.073 93.9687 252.293 95.5117 254.207 97.0547 C 248.147 98.5987 242.766 100.469 236.708 102.012 z " />
    <path
       transform="translate(35.63732,-1.525879e-5)"
       style="font-size:12;fill:#ff0000;fill-rule:evenodd;stroke:none;stroke-width:1.19849000000000010pt;fill-opacity:1"
       sodipodi:nodetypes="cccccc"
       id="path25170"
       d="M 237.831 104.138 C 244.144 102.392 250.458 101.303 256.096 99.2287 C 258.577 101.847 260.042 104.793 263.198 106.757 C 260.944 107.411 259.366 108.067 256.772 108.721 C 256.096 108.721 254.067 108.068 253.728 105.448 C 246.795 105.94 238.507 104.794 237.831 104.138 z " />
    <path
       id="path25171"
       d="M 311.0625 78.5625 C 309.19801 78.539337 306.71125 79.132813 302.90625 80.90625 C 298.95925 83.19825 293.32675 88.098501 289.71875 90.0625 C 292.31175 94.2095 298.94975 102.726 302.21875 105.125 C 306.05175 99.4517 311.89974 96.055002 314.71875 93 C 318.43875 90.38 322.86325 95.285998 325.90625 97.25 C 334.25025 102.5973 337.18376 105.6605 341.46875 108.0625 C 340.90375 95.1852 334.58474 81.671502 321.84375 81.5625 C 316.26331 81.638125 315.16438 78.613458 311.0625 78.5625 z M 303.21875 86.28125 C 307.16475 85.95425 305.38875 89.240252 306.96875 91.53125 C 308.32175 93.38725 305.05525 95.11625 302.90625 93.15625 C 301.10925 91.51525 301.07676 87.64625 303.21875 86.28125 z "
       style="font-size:12;fill:#ff0000;fill-rule:evenodd;stroke:none;stroke-width:1.19849000000000010pt;fill-opacity:1" />
    <path
       transform="translate(35.63732,-1.525879e-5)"
       style="font-size:12;fill:#ff0000;fill-rule:evenodd;stroke:none;stroke-width:1.19849000000000010pt;fill-opacity:1"
       sodipodi:nodetypes="cccccccccccccccccc"
       id="path25173"
       d="M 250.853 88.2617 C 246.795 89.8977 243.75 90.2257 242.058 88.9157 C 240.029 86.6237 238.676 84.9877 238 78.7667 C 240.142 70.8007 245.667 65.4535 252.205 56.1788 C 253.559 55.0882 256.603 59.2338 260.323 61.4163 C 259.309 54.488 259.985 52.4682 261.676 49.7952 C 264.043 45.7569 269.117 38.1199 270.132 39.319 C 272.387 43.1935 269.907 51.6499 272.501 51.2679 C 277.631 51.4318 277.011 35.2276 287.89 32.1172 C 290.483 31.3531 285.297 46.304 288.566 46.5221 C 296.007 47.8309 297.699 31.4628 304.801 33.7538 C 310.664 34.1358 318.217 48.5949 318.33 52.5779 C 318.443 61.8538 313.483 71.1296 309.197 72.8759 C 301.474 77.0217 294.767 79.8597 283.999 78.1137 C 284.902 71.5659 271.937 74.6207 269.795 76.1487 C 266.299 77.7857 265.172 78.7677 262.014 80.7317 C 260.662 79.3137 259.308 74.6207 257.957 76.4757 C 257.618 82.3687 255.59 85.3147 250.853 88.2617 z " />
    <path
       transform="translate(35.63732,-1.525879e-5)"
       style="font-size:12;fill:#ff0000;fill-rule:evenodd;stroke:none;stroke-width:1.19849000000000010pt;fill-opacity:1"
       sodipodi:nodetypes="ccccccccccccccc"
       id="path25176"
       d="M 269.422 287.879 C 275.482 290.657 290.439 299.487 305.727 297.195 C 303.176 299.355 301.302 300.534 298.751 302.694 C 306.689 311.402 313.392 310.619 323.235 314.456 C 335.654 317.558 355.681 315.953 358.883 316.313 C 357.867 307.801 360.624 310.145 358.823 286.083 C 354.483 294.922 354.165 303.836 343.342 308.419 C 342.385 305.95 342.782 303.808 343.516 299.047 C 339.37 301.825 337.592 309.186 322.622 309.345 C 324.653 304.369 326.682 300.375 331.417 295.727 C 327.087 291.545 316.332 295.876 304.901 289.077 C 317.608 289.807 326.934 288.245 334.906 287.01 C 334.586 282.689 334.946 280.004 333.273 276.01 C 326.445 281.191 320.634 278.845 311.945 276.824 C 287.005 289.839 279.313 287.467 269.422 287.879 z " />
    <path
       transform="translate(35.63732,-1.525879e-5)"
       style="font-size:12;fill:#ff0000;fill-rule:evenodd;stroke:none;stroke-width:1.19849000000000010pt;fill-opacity:1"
       sodipodi:nodetypes="cccc"
       id="path25177"
       d="M 315.288 273.389 C 320.698 267.278 322.052 261.168 324.08 254.402 C 327.125 259.094 331.522 268.37 331.86 272.407 C 328.815 273.825 323.742 277.209 315.288 273.389 z " />
    <path
       transform="translate(35.63732,-1.525879e-5)"
       style="font-size:12;fill:#ff0000;fill-rule:evenodd;stroke:none;stroke-width:1.19849000000000010pt;fill-opacity:1"
       sodipodi:nodetypes="ccccccccccccccccccccsc"
       id="path25178"
       d="M 297.36 201.04 C 316.413 215.336 321.262 224.392 322.727 228.867 C 325.207 236.506 324.983 242.835 324.758 247.855 C 330.958 254.73 337.159 267.497 338.624 275.681 C 340.879 295.978 330.282 301.871 329.154 305.144 C 333.889 304.271 340.654 296.852 346.743 292.705 C 347.193 295.978 346.29 299.252 346.065 302.526 C 349.335 300.453 356.663 282.665 357.904 278.628 C 364.443 276.118 364.443 309.291 362.639 320.859 C 363.091 323.479 356.1 335.263 353.169 341.156 C 357.001 340.61 363.542 334.171 368.728 325.769 C 368.728 331.444 369.404 337.118 370.757 338.864 C 373.463 334.499 371.626 319.833 377.521 320.53 C 374.715 343.059 378.423 351.086 381.242 371.929 C 384.061 365.709 382.143 340.502 385.639 329.698 C 388.119 329.48 396.012 341.046 401.197 342.793 C 396.237 332.643 387.217 327.079 386.314 314.311 C 387.668 312.238 396.462 323.913 402.551 327.733 C 406.158 330.134 409.089 328.607 411.344 327.079 C 401.987 325.115 387.217 306.127 385.301 299.579 C 378.086 278.363 377.56 258.995 345.201 228.956 C 325.248 210.435 319.12 204.205 297.36 201.04 z " />
    <path
       transform="translate(35.63732,-1.525879e-5)"
       style="font-size:12;fill:#ff0000;fill-rule:evenodd;stroke:none;stroke-width:1.19849000000000010pt;fill-opacity:1"
       sodipodi:nodetypes="csscccsscccc"
       id="path25181"
       d="M 351.647 228.676 C 340.293 215.418 349.804 179.138 360.258 155.525 C 367.287 140.269 391.415 110.907 439.66 106.449 C 474.142 103.925 503.892 119.343 520.021 137.932 C 516.766 137.001 513.693 135.646 510.454 137.932 C 513.625 138.886 548.603 168.291 526.717 201.822 C 531.383 178.477 513.568 153.876 494.19 146.266 C 468.622 135.126 437.821 137.585 410.004 149.044 C 390.462 158.156 361.687 183.151 359.301 209.23 C 368.382 189.634 382.262 174.599 388 170.34 C 375.947 192.954 377.059 196.404 376.521 199.971 C 369.087 209.675 358.149 216.962 351.647 228.676 z " />
    <path
       transform="translate(35.63732,-1.525879e-5)"
       style="font-size:12;fill:#ff0000;fill-rule:evenodd;stroke:none;stroke-width:1.19849000000000010pt;fill-opacity:1"
       sodipodi:nodetypes="cccccc"
       id="path25184"
       d="M 400.915 112.005 C 416.062 97.4987 489.566 61.6958 502.801 34.2266 C 498.974 67.2516 469.317 80.8317 465.491 86.0787 C 476.173 88.3937 498.336 77.7457 514.758 73.5787 C 502.322 86.8497 478.406 101.049 470.754 105.061 C 438.226 97.8077 417.179 105.369 400.915 112.005 z " />
    <path
       transform="translate(35.63732,-1.525879e-5)"
       style="font-size:12;fill:#ff0000;fill-rule:evenodd;stroke:none;stroke-width:1.19849000000000010pt;fill-opacity:1"
       sodipodi:nodetypes="cccccc"
       id="path25185"
       d="M 381.304 197.655 C 389.638 149.619 439.803 144.884 447.512 143.68 C 445.276 151.534 438.623 158.879 434.398 162.47 C 466.286 163.044 473.753 172.08 491.321 188.396 C 463.099 172.346 445.377 171.495 428.262 171.457 C 418.696 186.427 402.829 183.149 381.304 197.655 z " />
    <path
       transform="translate(35.63732,-1.525879e-5)"
       style="font-size:12;fill:#ff0000;fill-rule:evenodd;stroke:none;stroke-width:1.19849000000000010pt;fill-opacity:1"
       sodipodi:nodetypes="ccccc"
       id="path25187"
       d="M 452.947 143.423 C 451.593 144.733 445.506 157.172 442.123 159.791 C 447.537 159.791 450.58 160.446 453.286 161.101 C 456.781 155.1 460.275 149.098 465.8 143.751 C 462.192 142.987 457.231 142.877 452.947 143.423 z " />
    <path
       transform="translate(35.63732,-1.525879e-5)"
       style="font-size:12;fill:#ff0000;fill-rule:evenodd;stroke:none;stroke-width:1.19849000000000010pt;fill-opacity:1"
       sodipodi:nodetypes="ccccc"
       id="path25188"
       d="M 430.624 174.196 C 428.933 176.815 427.241 178.453 425.55 180.417 C 429.948 180.417 438.769 180.706 442.8 179.761 C 443.75 176.64 444.379 176.815 445.506 175.178 C 442.575 174.741 437.277 174.306 430.624 174.196 z " />
    <path
       transform="translate(35.63732,-1.525879e-5)"
       style="font-size:12;fill:#ff0000;fill-rule:evenodd;stroke:none;stroke-width:1.19849000000000010pt;fill-opacity:1"
       sodipodi:nodetypes="cscccc"
       id="path25189"
       d="M 354.996 231.916 C 363.128 217.41 393.878 187.364 427.225 184.694 C 440.968 183.669 483.189 180.525 500.409 204.6 C 476.971 188.397 437.268 192.101 419.093 203.212 C 391.348 206.607 372.217 228.52 362.649 240.249 C 360.099 237.162 359.459 235.928 354.996 231.916 z " />
    <path
       transform="translate(35.63732,-1.525879e-5)"
       style="font-size:12;fill:#ff0000;fill-rule:evenodd;stroke:none;stroke-width:1.19849000000000010pt;fill-opacity:1"
       sodipodi:nodetypes="cccccc"
       id="path25191"
       d="M 364.563 242.101 C 366.476 244.879 368.39 247.657 370.302 250.435 C 372.853 248.273 404.105 211.854 448.27 225.897 C 440.935 218.49 436.472 215.712 431.051 215.712 C 431.689 213.861 438.066 212.008 451.14 212.008 C 407.931 196.113 379.073 226.515 364.563 242.101 z " />
    <path
       transform="translate(35.63732,-1.525879e-5)"
       style="font-size:12;fill:#ff0000;fill-rule:evenodd;stroke:none;stroke-width:1.19849000000000010pt;fill-opacity:1"
       sodipodi:nodetypes="ccscccssc"
       id="path25192"
       d="M 433.921 202.285 C 437.907 198.119 472.508 195.804 482.232 199.971 C 506.786 206.607 532.311 229.862 536.762 261.546 C 547.13 333.192 514.758 361.856 519.542 435.623 C 506.788 411.241 506.467 394.265 509.019 372.66 C 496.264 382.691 487.334 391.797 483.189 411.087 C 475.376 377.907 502.103 363.591 512.367 334.232 C 523.47 302.477 518.513 272.074 513.323 255.991 C 503.525 225.622 481.436 201.977 433.921 202.285 z " />
    <path
       transform="translate(35.63732,-1.525879e-5)"
       style="font-size:12;fill:#ff0000;fill-rule:evenodd;stroke:none;stroke-width:1.19849000000000010pt;fill-opacity:1"
       sodipodi:nodetypes="ccsscsccsccc"
       id="path25193"
       d="M 441.574 215.712 C 448.191 218.49 451.586 223.862 457.159 231.48 C 468.328 242.371 480.771 254.02 482.233 268.491 C 484.399 291.292 478.23 306.351 468.361 314.325 C 457.677 322.186 445.402 325.745 421.005 318.955 C 434.718 330.221 440.213 330.247 450.662 330.529 C 461.175 330.838 478.406 326.825 497.061 305.991 C 499.931 328.216 478.885 338.399 479.841 338.399 C 480.797 339.325 512.368 336.548 512.368 285.621 C 512.368 240.865 481.436 210.928 451.142 206.915 C 464.375 211.699 465.172 218.335 465.013 223.12 C 457.838 214.785 449.705 215.712 441.574 215.712 z " />
    <path
       transform="translate(35.63732,-1.525879e-5)"
       style="font-size:12;fill:#ff0000;fill-rule:evenodd;stroke:none;stroke-width:1.19849000000000010pt;fill-opacity:1"
       sodipodi:nodetypes="cscccccccccccscc"
       id="path25194"
       d="M 372.694 252.749 C 385.45 240.094 406.037 229.401 422.44 227.749 C 458.532 224.211 483.986 266.33 478.406 286.083 C 475.536 279.293 472.666 275.28 468.839 274.973 C 485.262 303.831 458.795 317.103 451.142 318.028 C 456.244 311.547 457.519 293.954 454.01 288.398 C 447.314 294.571 444.445 300.745 435.834 300.436 C 444.763 294.263 442.212 291.794 445.402 287.472 C 440.617 288.398 432.964 295.806 419.57 295.806 C 429.776 291.177 427.543 275.435 427.225 270.806 C 421.804 272.657 422.123 279.138 416.702 284.694 C 418.296 277.904 417.019 276.669 416.7 272.657 C 411.598 281.609 404.583 283.152 401.393 280.991 C 406.496 277.287 404.826 268.11 402.35 266.176 C 396.534 261.629 387.045 263.398 381.304 269.879 C 379.39 264.478 375.564 257.225 372.694 252.749 z " />
    <path
       transform="translate(35.63732,-1.525879e-5)"
       style="font-size:12;fill:#ff0000;fill-rule:evenodd;stroke:none;stroke-width:1.19849000000000010pt;fill-opacity:1"
       sodipodi:nodetypes="cccccccccccccc"
       id="path25195"
       d="M 405.699 349.974 C 419.889 348.893 428.341 345.962 438.704 334.696 C 459.751 335.93 472.187 333.461 490.364 319.881 C 489.726 326.053 476.652 337.783 471.231 339.325 C 474.737 341.486 478.246 343.646 481.754 342.103 C 476.97 351.671 474.101 361.241 473.144 384.697 C 469.318 378.216 467.882 367.566 469.796 353.677 C 462.142 356.456 462.62 381.919 462.62 381.919 C 460.069 373.895 459.431 376.056 460.708 360.623 C 450.823 372.042 446.676 389.019 445.402 420.808 C 433.762 404.76 441.255 372.042 443.966 360.623 C 438.226 367.104 413.832 380.529 402.351 368.492 C 411.917 367.566 426.267 361.085 432.964 349.973 C 420.367 352.751 411.598 354.604 405.699 349.974 z " />
    <path
       transform="translate(35.63732,-1.525879e-5)"
       style="font-size:12;fill:#ff0000;fill-rule:evenodd;stroke:none;stroke-width:1.19849000000000010pt;fill-opacity:1"
       sodipodi:nodetypes="cccccc"
       id="path25196"
       d="M 382.262 273.584 C 387.364 303.831 400.597 308.251 418.135 311.184 C 400.574 300.508 392.235 287.038 388.48 277.751 C 393.582 278.831 394.857 276.207 400.438 274.973 C 400.756 271.578 399.64 268.181 396.611 268.028 C 388.957 267.719 386.566 270.188 382.262 273.584 z " />
  </g>
</svg>
