<?xml version="1.0" encoding="UTF-8" standalone="no"?>
<!-- Created with Inkscape (http://www.inkscape.org/) -->
<svg xmlns:dc="http://purl.org/dc/elements/1.1/" xmlns:cc="http://creativecommons.org/ns#" xmlns:rdf="http://www.w3.org/1999/02/22-rdf-syntax-ns#" xmlns:svg="http://www.w3.org/2000/svg" xmlns="http://www.w3.org/2000/svg" xmlns:sodipodi="http://sodipodi.sourceforge.net/DTD/sodipodi-0.dtd" xmlns:inkscape="http://www.inkscape.org/namespaces/inkscape" version="1.0" width="465" height="310">
  <rect fill="#00247d" width="465" height="310"/>
  <path fill="#ffffff" d="M 465,73.224419 C 454.68305,81.220531 448.05071,92.215186 427.4168,92.215186 C 393.51823,92.215186 397.93978,63.229278 363.30428,63.229278 C 328.66878,63.229278 333.09033,92.215186 299.19175,92.215186 C 264.55626,92.215186 268.97781,63.229278 232.13154,63.229278 C 195.28527,63.229278 200.44374,92.215186 165.80824,92.215186 C 131.17274,92.215186 136.33122,63.229278 101.69572,63.229278 C 66.323297,63.229278 71.481775,92.215186 36.846276,92.215186 C 16.212361,92.215186 9.5800315,81.220531 0,73.224419 L 0,50.235594 C 9.5800315,58.231707 16.212361,68.226848 36.846276,68.226848 C 71.481775,68.226848 66.323297,39.240939 101.69572,40.240454 C 136.33122,39.240939 131.17274,68.226848 165.80824,68.226848 C 200.44374,68.226848 195.28527,39.240939 232.13154,40.240454 C 268.97781,39.240939 264.55626,68.226848 299.19175,68.226848 C 333.09033,68.226848 328.66878,39.240939 363.30428,40.240454 C 397.93978,39.240939 393.51823,68.226848 427.4168,68.226848 C 448.05071,68.226848 454.68305,58.231707 465,50.235594 L 465,73.224419 z"/>
  <path fill="#ffffff" d="M 465,119.33201 C 454.68305,127.32812 448.05071,138.32278 427.4168,138.32278 C 393.51823,138.32278 397.93978,109.33687 363.30428,109.33687 C 328.66878,109.33687 333.09033,138.32278 299.19176,138.32278 C 264.55626,138.32278 268.97781,109.33687 232.13154,109.33687 C 195.28527,109.33687 200.44374,138.32278 165.80824,138.32278 C 131.17274,138.32278 136.33122,109.33687 101.69572,109.33687 C 66.323297,109.33687 71.481775,138.32278 36.846276,138.32278 C 16.212361,138.32278 9.5800318,127.32812 0,119.33201 L 0,96.343189 C 9.5800318,104.3393 16.212361,114.33444 36.846276,114.33444 C 71.481775,114.33444 66.323297,85.348533 101.69572,86.348048 C 136.33122,85.348533 131.17274,114.33444 165.80824,114.33444 C 200.44374,114.33444 195.28527,85.348533 232.13154,86.348048 C 268.97781,85.348533 264.55626,114.33444 299.19176,114.33444 C 333.09033,114.33444 328.66878,85.348533 363.30428,86.348048 C 397.93978,85.348533 393.51823,114.33444 427.4168,114.33444 C 448.05071,114.33444 454.68305,104.3393 465,96.343189 L 465,119.33201 z"/>
  <path fill="#ffffff" d="M 465,235.43897 C 454.68305,227.58991 448.05071,216.79746 427.4168,216.79746 C 393.51823,216.79746 397.93978,245.25029 363.30428,245.25029 C 328.66878,245.25029 333.09033,216.79746 299.19176,216.79746 C 264.55626,216.79746 268.97782,245.25029 232.13154,245.25029 C 195.28527,245.25029 200.44374,216.79746 165.80824,216.79746 C 131.17274,216.79746 136.33122,245.25029 101.69572,245.25029 C 66.323296,245.25029 71.481775,216.79746 36.846276,216.79746 C 16.212361,216.79746 9.5800317,227.58991 0,235.43897 L 0,258.98615 C 9.5800317,250.15595 16.212361,240.34464 36.846276,240.34464 C 71.481775,240.34464 66.323296,268.79746 101.69572,268.79746 C 136.33122,268.79746 131.17274,240.34464 165.80824,240.34464 C 200.44374,240.34464 195.28527,268.79746 232.13154,268.79746 C 268.97782,268.79746 264.55626,240.34464 299.19176,240.34464 C 333.09033,240.34464 328.66878,268.79746 363.30428,268.79746 C 397.93978,268.79746 393.51823,240.34464 427.4168,240.34464 C 448.05071,240.34464 454.68305,250.15595 465,258.00501 L 465,235.43897 z"/>
  <path fill="#ffffff" d="M 465,189.33137 C 454.68305,181.48232 448.05071,170.68987 427.4168,170.68987 C 393.51823,170.68987 397.93978,199.1427 363.30428,199.1427 C 328.66878,199.1427 333.09033,170.68987 299.19176,170.68987 C 264.55626,170.68987 268.97782,199.1427 232.13154,199.1427 C 195.28527,199.1427 200.44374,170.68987 165.80824,170.68987 C 131.17274,170.68987 136.33122,199.1427 101.69572,199.1427 C 66.323296,199.1427 71.481775,170.68987 36.846276,170.68987 C 16.212361,170.68987 9.5800317,181.48232 0,189.33137 L 0,212.87855 C 9.5800317,204.04835 16.212361,194.23704 36.846276,194.23704 C 71.481775,194.23704 66.323296,222.68987 101.69572,222.68987 C 136.33122,222.68987 131.17274,194.23704 165.80824,194.23704 C 200.44374,194.23704 195.28527,222.68987 232.13154,222.68987 C 268.97782,222.68987 264.55626,194.23704 299.19176,194.23704 C 333.09033,194.23704 328.66878,222.68987 363.30428,222.68987 C 397.93978,222.68987 393.51823,194.23704 427.4168,194.23704 C 448.05071,194.23704 454.68305,204.04835 465,211.89742 L 465,189.33137 z"/>
  <circle fill="#ffcc00" r="80" cy="156" cx="316" transform="matrix(0.9375, 0, 0, 0.9375, -63.75, 8.75)"/>
</svg>