<?xml version="1.0" encoding="UTF-8" standalone="no"?>
<svg
   xmlns:dc="http://purl.org/dc/elements/1.1/"
   xmlns:cc="http://creativecommons.org/ns#"
   xmlns:rdf="http://www.w3.org/1999/02/22-rdf-syntax-ns#"
   xmlns:svg="http://www.w3.org/2000/svg"
   xmlns="http://www.w3.org/2000/svg"
   xmlns:sodipodi="http://sodipodi.sourceforge.net/DTD/sodipodi-0.dtd"
   xmlns:inkscape="http://www.inkscape.org/namespaces/inkscape"
   width="900"
   height="600">
  <rect
     fill="#87aade"
     width="900"
     height="600" />
  <path
     sodipodi:nodetypes="cccccc"
     d="M 650,0 0,450 0,600 250,600 900,150 900,0"
     fill="#ffffff" />
  <g
     transform="matrix(2.4529268,0,0,2.4509577,-459.8477,-1004.7972)">
    <path
       d="m 346.61234,450.9042 c -0.38562,2.60024 -0.67906,4.0963 -2.40486,5.6188 -1.87564,2.078 -36.05494,29.65788 -32.12152,62.62906 0.26756,4.20154 4.16224,3.6005 4.82184,2.41148 0.2358,4.49458 -0.0586,12.28416 6.42294,10.43478 1.91456,5.14342 6.41048,6.94518 14.447,6.42332 0.0586,3.52758 3.05124,3.52758 6.42974,2.40374 2.62026,4.1167 11.31732,12.8077 18.46618,13.65606 2.74384,4.84942 9.3357,13.84048 11.23722,16.06056 1.09776,1.97522 1.69974,6.18298 0.80434,11.2395 -0.89542,4.53464 -6.59942,27.62654 -8.83424,32.12188 -1.96672,4.49646 -3.44992,6.28462 -9.63064,6.415 -3.72482,-0.13038 -7.01224,4.06492 -8.03008,6.4169 -0.7915,1.39856 0.56078,2.60098 1.60676,0.8117 1.65912,-2.11768 2.8489,-3.6077 4.81542,-4.01278 -0.16362,1.8951 0.28038,4.14238 0,5.61992 -0.76466,1.08492 -1.96652,2.73062 -0.80358,3.20032 1.54196,0.13038 2.5804,-1.3702 2.41148,-3.20032 0.47632,-1.47754 0.62692,-5.21484 4.81504,-5.61992 1.49642,-0.0385 3.30612,-1.54178 7.2267,0 3.28006,0.8491 8.06372,1.75226 8.03766,5.61992 0.0261,1.97296 0.0261,3.17426 0.79696,3.20032 1.03124,-0.32686 1.1892,-1.5157 0.79734,-3.20032 0.39186,-1.02028 -0.2101,-3.86766 -2.4045,-4.82258 -2.00696,-1.15028 -4.25518,-1.89548 -4.81616,-2.4045 -0.6341,-0.67982 -1.37928,-2.03982 0,-3.21544 0.70608,-0.91372 2.5156,-3.76412 1.60072,-5.61766 -1.18902,-2.03984 -1.18902,-4.44394 0,-8.02594 0.91488,-3.61826 4.80974,-17.40696 5.61994,-20.07032 0.39186,-3.3458 1.43786,-5.72612 3.21354,-6.432 1.82974,-0.50902 3.46486,-5.14834 1.6064,-7.22482 -1.13478,-2.7068 -4.42808,-5.5674 -4.0105,-14.45304 1.37322,1.99902 4.36572,4.69034 5.61992,5.63052 0.56078,1.1499 0.56078,2.65314 -1.60942,3.99992 -1.42236,1.046 -20.32596,11.9949 -28.10154,15.26324 -5.56704,3.0314 -9.00354,7.68318 -15.2568,11.2391 -5.73746,3.3307 -4.0895,7.2267 -5.61956,8.83348 -1.7772,1.9858 -1.03182,3.34618 0,4.01088 0.17648,1.89512 1.8233,2.78504 2.41148,0 0.0127,-2.02508 0.75748,-6.2064 3.20808,-8.0365 1.1499,1.07206 2.34554,1.07206 2.4113,5.63276 -0.50978,1.73904 1.73714,2.02662 1.60676,0 0.13038,-1.86864 0.73236,-5.46196 -1.60676,-6.42936 1.4303,-1.58108 3.53436,-3.37188 4.8154,-2.40448 1.71184,1.72392 2.01924,1.72392 2.4113,3.20108 -0.39206,1.22812 1.71088,1.37286 1.60678,0 0.1041,-1.93366 0.39848,-4.76856 -1.60678,-5.61994 2.3,-1.555 4.4039,-5.30552 8.0301,-7.21084 2.96698,-2.27412 21.40538,-12.62594 24.08384,-13.65682 3.32012,-1.67404 6.32582,-2.5753 8.83576,-2.40562 2.87344,-0.45726 4.5214,-4.1953 2.40336,-7.22672 -2.06592,-2.37766 -5.82966,-6.27178 -5.61994,-7.22708 -0.20972,-1.45032 -0.93942,-5.50014 -3.21354,-5.61918 -1.49002,0.43268 -4.46966,0.57552 -6.41652,0 -0.61482,1.4768 -1.05884,3.12476 -0.79696,4.8226 -1.3211,-0.95492 -3.86238,-2.74384 -4.02564,-4.02562 -2.39126,0.8253 -7.85362,0 -11.23872,-3.21394 -2.6917,-2.85002 -8.72294,-10.41644 -10.43496,-13.6436 3.8484,1.18922 7.5993,-0.15682 8.82704,-1.60678 2.0661,1.29956 6.56068,0.69854 8.03124,-0.79676 1.6729,0.59988 5.73028,0.9075 8.03084,-0.80434 1.43636,1.40422 3.55402,2.29964 4.80786,1.6011 3.53022,2.50162 10.27172,8.79456 12.85948,16.06058 2.50992,7.72172 3.71236,29.01036 3.21392,42.54928 0.18404,2.1959 2.00092,2.1959 3.20298,0 0.58686,-1.69784 1.34414,-2.29982 2.4162,-3.21354 0.73236,-1.17636 2.666,-1.93402 3.20298,1.62 0.36616,3.94552 4.71716,17.13186 11.25232,22.4767 -1.72542,-5.2001 -6.39232,-16.88322 -5.62144,-23.28652 -0.0261,-2.88932 0.8903,-2.7442 2.406,-0.81018 1.49002,2.27412 13.0148,20.2551 22.4767,25.69024 2.97964,1.01992 2.97964,-0.9398 1.60678,-2.40374 -1.01764,-1.8301 -17.49804,-18.32108 -23.28652,-31.31206 -5.01756,-13.69538 -15.21144,-56.41434 -25.69024,-61.02058 -2.2609,0.2545 -3.90886,-0.0387 -4.82334,-0.80302 -2.37956,1.36532 -7.18742,1.22114 -10.43572,-1.60166 -2.28698,0.71874 -5.59272,2.5154 -8.03028,-3.21488 -1.16296,-1.31354 -2.20894,-0.56192 -1.60016,0.80338 0.60102,1.03296 1.78986,3.73806 0,4.01316 -2.41168,0.6203 -5.41096,-3.43706 -7.22672,-5.61992 -0.86952,-1.40556 -2.37256,-1.25496 -1.6079,0 1.33922,2.0387 3.73124,5.48862 1.6079,6.42294 -1.47716,0.5623 -2.37256,-1.07812 -3.2162,-2.40468 -0.95926,-0.77732 -2.14808,-0.48408 -1.60676,0.80358 0.9553,1.11078 1.24854,2.3138 0,2.40486 -0.85534,0.50976 -3.84802,-0.98648 -4.81504,-3.20844 -0.67906,-0.63354 -2.18192,-0.17666 -0.80452,1.60166 0.72554,1.22114 0.72554,4.22044 -1.60034,3.21374 -3.06448,-1.0972 -1.56786,-6.34434 -0.80378,-8.03028 0.73236,-1.01254 2.67242,-1.76398 3.20864,-0.80338 0.96702,1.43804 3.9597,0.53584 2.4113,-4.01184 -2.05192,-3.84292 -3.38474,-8.04408 -2.4113,-10.44158 1.12384,-2.39184 2.01924,-1.64022 2.4113,0 -0.39206,1.64608 0.35956,3.89394 2.40374,2.41036 1.84976,3.1306 3.64056,2.693 4.82296,2.41166 5.12188,4.17528 18.00706,11.97674 21.6737,12.84626 2.92786,1.52214 2.78238,-1.47054 1.60602,-3.21486 2.82432,0.68642 8.821,3.8416 12.03682,7.2267 1.43786,1.40518 2.48196,1.1108 1.62,-1.60678 -0.93942,-2.08574 -5.4359,-15.86538 -12.0493,-18.466 -6.27178,-2.8092 -6.12894,-1.90172 -9.63706,-2.40412 -2.4829,-0.99402 -7.12902,-3.0979 -10.43514,-3.21468 2.70604,-1.0851 7.50728,-2.73212 11.23872,-2.40486 -3.43706,-3.92738 -10.3299,-8.71672 -23.28046,-8.03028 -1.73904,0.65298 -2.1959,-0.84326 -2.4113,-3.21468 0.523,-2.12354 2.77086,-7.37068 6.4218,-12.04194 4.44396,-4.614 13.29066,-14.51916 13.65004,-24.08574 -0.35938,-10.212 -12.8064,-10.81304 -16.85716,-10.44064 -4.04528,-0.3724 -12.89198,2.3259 -17.6679,7.2269 l -4.81522,3.21374 c -2.85002,2.20894 -5.3913,4.48288 -6.42294,5.61956 -1.21622,0.80338 0.12962,2.00658 1.60678,1.60696 2.86136,-0.6853 7.21348,-1.41084 8.82668,-2.41036 0.48406,2.20894 3.78982,3.70538 6.42332,3.20826 3.05124,0.20274 8.8346,0 8.8346,0"
       id="path13"
       fill="none;stroke:#ffffff;stroke-width:4" />
    <path
       d="m 346.61234,450.9042 c -0.38562,2.60024 -0.67906,4.0963 -2.40486,5.6188 -1.87564,2.078 -36.05494,29.65788 -32.12152,62.62906 0.26756,4.20154 4.16224,3.6005 4.82184,2.41148 0.2358,4.49458 -0.0586,12.28416 6.42294,10.43478 1.91456,5.14342 6.41048,6.94518 14.447,6.42332 0.0586,3.52758 3.05124,3.52758 6.42974,2.40374 2.62026,4.1167 11.31732,12.8077 18.46618,13.65606 2.74384,4.84942 9.3357,13.84048 11.23722,16.06056 1.09776,1.97522 1.69974,6.18298 0.80434,11.2395 -0.89542,4.53464 -6.59942,27.62654 -8.83424,32.12188 -1.96672,4.49646 -3.44992,6.28462 -9.63064,6.415 -3.72482,-0.13038 -7.01224,4.06492 -8.03008,6.4169 -0.7915,1.39856 0.56078,2.60098 1.60676,0.8117 1.65912,-2.11768 2.8489,-3.6077 4.81542,-4.01278 -0.16362,1.8951 0.28038,4.14238 0,5.61992 -0.76466,1.08492 -1.96652,2.73062 -0.80358,3.20032 1.54196,0.13038 2.5804,-1.3702 2.41148,-3.20032 0.47632,-1.47754 0.62692,-5.21484 4.81504,-5.61992 1.49642,-0.0385 3.30612,-1.54178 7.2267,0 3.28006,0.8491 8.06372,1.75226 8.03766,5.61992 0.0261,1.97296 0.0261,3.17426 0.79696,3.20032 1.03124,-0.32686 1.1892,-1.5157 0.79734,-3.20032 0.39186,-1.02028 -0.2101,-3.86766 -2.4045,-4.82258 -2.00696,-1.15028 -4.25518,-1.89548 -4.81616,-2.4045 -0.6341,-0.67982 -1.37928,-2.03982 0,-3.21544 0.70608,-0.91372 2.5156,-3.76412 1.60072,-5.61766 -1.18902,-2.03984 -1.18902,-4.44394 0,-8.02594 0.91488,-3.61826 4.80974,-17.40696 5.61994,-20.07032 0.39186,-3.3458 1.43786,-5.72612 3.21354,-6.432 1.82974,-0.50902 3.46486,-5.14834 1.6064,-7.22482 -1.13478,-2.7068 -4.42808,-5.5674 -4.0105,-14.45304 1.37322,1.99902 4.36572,4.69034 5.61992,5.63052 0.56078,1.1499 0.56078,2.65314 -1.60942,3.99992 -1.42236,1.046 -20.32596,11.9949 -28.10154,15.26324 -5.56704,3.0314 -9.00354,7.68318 -15.2568,11.2391 -5.73746,3.3307 -4.0895,7.2267 -5.61956,8.83348 -1.7772,1.9858 -1.03182,3.34618 0,4.01088 0.17648,1.89512 1.8233,2.78504 2.41148,0 0.0127,-2.02508 0.75748,-6.2064 3.20808,-8.0365 1.1499,1.07206 2.34554,1.07206 2.4113,5.63276 -0.50978,1.73904 1.73714,2.02662 1.60676,0 0.13038,-1.86864 0.73236,-5.46196 -1.60676,-6.42936 1.4303,-1.58108 3.53436,-3.37188 4.8154,-2.40448 1.71184,1.72392 2.01924,1.72392 2.4113,3.20108 -0.39206,1.22812 1.71088,1.37286 1.60678,0 0.1041,-1.93366 0.39848,-4.76856 -1.60678,-5.61994 2.3,-1.555 4.4039,-5.30552 8.0301,-7.21084 2.96698,-2.27412 21.40538,-12.62594 24.08384,-13.65682 3.32012,-1.67404 6.32582,-2.5753 8.83576,-2.40562 2.87344,-0.45726 4.5214,-4.1953 2.40336,-7.22672 -2.06592,-2.37766 -5.82966,-6.27178 -5.61994,-7.22708 -0.20972,-1.45032 -0.93942,-5.50014 -3.21354,-5.61918 -1.49002,0.43268 -4.46966,0.57552 -6.41652,0 -0.61482,1.4768 -1.05884,3.12476 -0.79696,4.8226 -1.3211,-0.95492 -3.86238,-2.74384 -4.02564,-4.02562 -2.39126,0.8253 -7.85362,0 -11.23872,-3.21394 -2.6917,-2.85002 -8.72294,-10.41644 -10.43496,-13.6436 3.8484,1.18922 7.5993,-0.15682 8.82704,-1.60678 2.0661,1.29956 6.56068,0.69854 8.03124,-0.79676 1.6729,0.59988 5.73028,0.9075 8.03084,-0.80434 1.43636,1.40422 3.55402,2.29964 4.80786,1.6011 3.53022,2.50162 10.27172,8.79456 12.85948,16.06058 2.50992,7.72172 3.71236,29.01036 3.21392,42.54928 0.18404,2.1959 2.00092,2.1959 3.20298,0 0.58686,-1.69784 1.34414,-2.29982 2.4162,-3.21354 0.73236,-1.17636 2.666,-1.93402 3.20298,1.62 0.36616,3.94552 4.71716,17.13186 11.25232,22.4767 -1.72542,-5.2001 -6.39232,-16.88322 -5.62144,-23.28652 -0.0261,-2.88932 0.8903,-2.7442 2.406,-0.81018 1.49002,2.27412 13.0148,20.2551 22.4767,25.69024 2.97964,1.01992 2.97964,-0.9398 1.60678,-2.40374 -1.01764,-1.8301 -17.49804,-18.32108 -23.28652,-31.31206 -5.01756,-13.69538 -15.21144,-56.41434 -25.69024,-61.02058 -2.2609,0.2545 -3.90886,-0.0387 -4.82334,-0.80302 -2.37956,1.36532 -7.18742,1.22114 -10.43572,-1.60166 -2.28698,0.71874 -5.59272,2.5154 -8.03028,-3.21488 -1.16296,-1.31354 -2.20894,-0.56192 -1.60016,0.80338 0.60102,1.03296 1.78986,3.73806 0,4.01316 -2.41168,0.6203 -5.41096,-3.43706 -7.22672,-5.61992 -0.86952,-1.40556 -2.37256,-1.25496 -1.6079,0 1.33922,2.0387 3.73124,5.48862 1.6079,6.42294 -1.47716,0.5623 -2.37256,-1.07812 -3.2162,-2.40468 -0.95926,-0.77732 -2.14808,-0.48408 -1.60676,0.80358 0.9553,1.11078 1.24854,2.3138 0,2.40486 -0.85534,0.50976 -3.84802,-0.98648 -4.81504,-3.20844 -0.67906,-0.63354 -2.18192,-0.17666 -0.80452,1.60166 0.72554,1.22114 0.72554,4.22044 -1.60034,3.21374 -3.06448,-1.0972 -1.56786,-6.34434 -0.80378,-8.03028 0.73236,-1.01254 2.67242,-1.76398 3.20864,-0.80338 0.96702,1.43804 3.9597,0.53584 2.4113,-4.01184 -2.05192,-3.84292 -3.38474,-8.04408 -2.4113,-10.44158 1.12384,-2.39184 2.01924,-1.64022 2.4113,0 -0.39206,1.64608 0.35956,3.89394 2.40374,2.41036 1.84976,3.1306 3.64056,2.693 4.82296,2.41166 5.12188,4.17528 18.00706,11.97674 21.6737,12.84626 2.92786,1.52214 2.78238,-1.47054 1.60602,-3.21486 2.82432,0.68642 8.821,3.8416 12.03682,7.2267 1.43786,1.40518 2.48196,1.1108 1.62,-1.60678 -0.93942,-2.08574 -5.4359,-15.86538 -12.0493,-18.466 -6.27178,-2.8092 -6.12894,-1.90172 -9.63706,-2.40412 -2.4829,-0.99402 -7.12902,-3.0979 -10.43514,-3.21468 2.70604,-1.0851 7.50728,-2.73212 11.23872,-2.40486 -3.43706,-3.92738 -10.3299,-8.71672 -23.28046,-8.03028 -1.73904,0.65298 -2.1959,-0.84326 -2.4113,-3.21468 0.523,-2.12354 2.77086,-7.37068 6.4218,-12.04194 4.44396,-4.614 13.29066,-14.51916 13.65004,-24.08574 -0.35938,-10.212 -12.8064,-10.81304 -16.85716,-10.44064 -4.04528,-0.3724 -12.89198,2.3259 -17.6679,7.2269 l -4.81522,3.21374 c -2.85002,2.20894 -5.3913,4.48288 -6.42294,5.61956 -1.21622,0.80338 0.12962,2.00658 1.60678,1.60696 2.86136,-0.6853 7.21348,-1.41084 8.82668,-2.41036 0.48406,2.20894 3.78982,3.70538 6.42332,3.20826 3.05124,0.20274 8.8346,0 8.8346,0"
       fill="#000000" />
    <path
       d="m 349.82702,434.04612 c 3.1497,0 2.99286,1.3071 3.20712,2.40486 0.69986,0.71138 2.6403,1.75736 4.81656,1.60696 2.92126,-0.45024 5.62636,0.458 5.62636,4.82184 -0.3078,4.31906 -1.2085,7.31854 -3.2147,11.2391 -1.88868,3.28026 -19.43338,23.81632 -22.48462,30.50718 -1.44334,2.60062 -0.98648,4.99264 2.41166,3.21468 3.20164,-1.5157 11.59112,-4.50744 15.25718,-1.60678 1.12422,0.84232 0.67944,1.44334 -1.60772,2.4115 -2.51522,1.4301 -6.55426,2.78256 -8.83462,4.81502 -2.82148,1.26158 -2.82148,2.15604 -2.40354,4.8156 0.79034,3.03822 4.6839,9.93106 -3.21506,8.02972 -0.0533,3.10434 -0.49712,8.9527 -8.03122,1.6079 -1.6132,1.20188 -1.90796,2.09728 -1.60036,3.20846 -0.3076,0.39206 -0.9141,1.74432 -2.41016,0 -1.7908,-1.56144 -5.09788,-2.31304 -6.42294,-2.40506 -0.61538,-11.00332 4.77498,-24.63898 8.8331,-30.51436 5.08372,-7.12788 26.2276,-25.90678 22.47708,-30.5068 -1.6591,1.4577 -17.0869,3.56158 -15.25038,-1.60676 -1.83652,-0.67982 -3.63942,-1.13706 -5.62634,-0.80452 -1.6132,1.32638 -6.75794,3.61844 -6.75794,3.0501 0,-5.78846 22.08086,-14.28864 25.23054,-14.28864 z"
       fill="#ffffff" />
    <path
       d="m 341.79694,438.05794 c -1.1108,0.22862 -2.23482,2.33346 0,2.4115 2.5545,0.0648 5.0308,-1.65988 0,-2.4115"
       fill="#000000" />
    <path
       d="m 356.25034,534.40886 c 3.4758,0.48482 5.72386,0.48482 7.22672,0 2.3905,2.43812 4.03772,5.13662 4.01164,11.23986 -6.5673,-0.2751 -10.16628,-4.7712 -11.23836,-7.22708 0.32046,-1.2799 0.62692,-3.37188 0,-4.01278"
       fill="#000000" />
    <path
       d="m 369.0966,534.40886 c 1.56144,0.48482 3.66438,0.48482 5.61862,0 2.68432,3.7834 3.14344,4.6926 3.20882,10.44252 -3.66664,-0.3658 -10.70288,-2.90216 -8.82744,-10.44252"
       fill="#000000" />
    <path
       d="m 381.94702,533.60548 c -1.09512,1.13706 -1.09512,1.59392 -3.21354,2.41016 0.0264,3.97384 2.27412,6.97956 6.4165,7.22858 1.26744,-2.19552 1.39706,-7.14848 -3.20296,-9.63874"
       fill="#000000" />
  </g>
</svg>
