<?xml version="1.0" encoding="UTF-8" standalone="no"?>
<!DOCTYPE svg PUBLIC "-//W3C//DTD SVG 20010904//EN"
"http://www.w3.org/TR/2001/REC-SVG-20010904/DTD/svg10.dtd">
<!-- Created with Sodipodi ("http://www.sodipodi.com/") -->
<svg
   xmlns="http://www.w3.org/2000/svg"
   xmlns:sodipodi="http://sodipodi.sourceforge.net/DTD/sodipodi-0.dtd"
   xmlns:xlink="http://www.w3.org/1999/xlink"
   id="svg602"
   sodipodi:version="0.34"
   width="210mm"
   height="297mm"
   xml:space="preserve"
   sodipodi:docname="hoover"><defs
   id="defs604"><linearGradient
   id="linearGradient624"><stop
   style="stop-color:#6f5709;stop-opacity:1;"
   offset="0"
   id="stop625" /><stop
   style="stop-color:#4f3703;stop-opacity:1;"
   offset="1"
   id="stop626" /></linearGradient><linearGradient
   xlink:href="#linearGradient624"
   id="linearGradient627"
   x1="0.30232552"
   y1="0.12500255"
   x2="0.55813938"
   y2="0.71093786" /><radialGradient
   xlink:href="#linearGradient624"
   id="radialGradient628"
   cx="0.90710419"
   cy="0.49999958"
   r="0.77075046"
   fx="0.90710419"
   fy="0.49999958" /><linearGradient
   xlink:href="#linearGradient624"
   id="linearGradient653"
   x1="0.72781229"
   y1="0.2265625"
   x2="0.4437871"
   y2="0.5234375" /></defs><sodipodi:namedview
   id="base" /><rect
   style="font-size:12;fill:#6f5709;fill-rule:evenodd;stroke-width:1;fill-opacity:1;"
   id="rect639"
   width="554.510498"
   height="415.135223"
   x="110.826773"
   y="320.589935" /><path
   style="fill:#5555d0;fill-rule:evenodd;stroke:black;stroke-opacity:1;stroke-width:1pt;stroke-linejoin:miter;stroke-linecap:butt;fill-opacity:1;"
   d="M 278.7407 513.9145 C 275.193 512.1407 274.5859 507.4384 272.8623 504.3235 C 270.4456 499.956 271.5307 501.5204 271.5506 496.8626 C 271.5631 493.9258 269.9645 488.6113 267.551 487.044 C 262.095 483.5011 252.1827 481.8298 245.87 480.3501 C 242.8346 479.6386 240.1368 478.1621 237.2241 477.0789 C 237.1429 477.0487 240.3358 470.2379 240.4485 469.6562 C 240.9354 467.144 241.9335 462.4525 242.9849 460.3618 C 243.2067 459.9209 246.0855 458.9359 246.5936 458.486 C 254.0051 451.924 264.4725 450.9888 273.7839 448.8264 C 284.0043 446.4529 293.7816 443.5949 303.7635 440.3859 C 308.6184 438.825 320.6971 437.1069 323.7203 433.3992 C 324.9479 431.8937 316.2519 424.0139 314.9298 422.307 C 308.0273 413.3952 299.7094 405.9636 289.1309 401.713 C 287.4807 401.0499 283.5956 398.5965 286.6454 397.5677 C 292.5764 395.5671 297.7685 391.5329 303.9151 389.772 C 312.1897 387.4016 319.9079 389.3445 328.8007 386.4579 C 339.5016 382.9843 351.3419 380.8794 361.4068 375.7988 C 364.3224 374.3271 366.478 369.4406 363.5485 367.231 C 358.2749 363.2533 355.2166 356.8721 349.4215 352.9651 C 342.6441 348.3959 335.6097 344.7876 329.364 339.4324 C 322.3664 333.4327 316.3743 329.5988 308.2167 325.5293 C 300.0532 321.4568 320.3252 316.6327 322.0183 316.2056 C 326.7628 315.0085 340.8554 317.3765 346.4574 317.569 C 368.216 318.3169 389.5967 317.5133 411.2231 314.6429 C 433.0747 311.7426 459.043 308.2004 480.8304 309.4152 C 485.5483 309.6782 499.616 312.5915 497.8149 319.0835 C 495.2527 328.3188 489.8985 332.423 502.6374 335.0683 C 520.8246 338.845 535.6039 342.1599 554.4099 342.1838 C 558.7654 342.1893 552.7093 348.8958 551.5185 350.5902 C 545.9324 358.5387 539.8447 363.221 533.2208 370.0345 C 523.9462 379.5746 507.0003 403.4231 509.2087 417.9244 C 509.8061 421.8477 524.7938 420.9396 527.6894 420.9187 C 530.8322 420.896 541.2458 419.0961 542.5903 421.1892 C 549.1012 431.3258 528.6901 435.1398 530.3677 444.0286 C 531.97 452.5182 527.9172 457.9417 533.4907 465.8479 C 537.843 472.0218 532.6643 480.1221 526.1825 482.0163 C 512.6781 485.9626 496.7116 484.5488 482.4965 486.8824 C 475.9858 487.9513 466.9417 489.8613 468.0091 498.0457 C 469.496 509.4477 461.7857 507.8297 453.4059 510.7543 C 435.8208 516.8917 411.882 513.9238 393.8487 513.4319 C 366.3344 512.6815 338.8987 511.9752 311.418 510.406 C 299.9466 509.7509 287.4309 511.1736 276.4161 514.4008 C 276.3562 514.4183 276.2913 514.3995 276.2289 514.3989 "
   id="path634" /><path
   style="fill:url(#linearGradient627);fill-rule:evenodd;stroke:none;stroke-opacity:1;stroke-width:1pt;stroke-linejoin:miter;stroke-linecap:butt;fill-opacity:1;"
   d="M 256.323 516.8755 L 110.8195 558.3271 L 110.6628 735.3281 L 340.0639 735.3281 L 337.0731 505.927 L 256.323 516.8755 z "
   id="path644" /><path
   style="fill:url(#linearGradient653);fill-rule:evenodd;stroke:none;stroke-opacity:1;stroke-width:1pt;stroke-linejoin:miter;stroke-linecap:butt;fill-opacity:1;"
   d="M 444.4459 508.9179 L 665.1735 541.2195 L 664.8743 735.029 L 355.6166 735.9263 L 361.5984 499.9452 L 444.4459 508.9179 z "
   id="path652" /><path
   style="fill:#dddddd;fill-rule:evenodd;stroke:black;stroke-opacity:1;stroke-width:1pt;stroke-linejoin:miter;stroke-linecap:butt;fill-opacity:1;"
   d="M 313.1646 628.5574 C 306.2896 553.5574 256.9146 516.3699 256.9146 516.3699 L 257.5396 516.6825 C 301.2896 474.1825 404.7271 477.3075 459.7271 512.3075 L 460.0396 512.3075 C 392.5396 563.5575 420.0396 582.3075 406.6021 628.87 M 313.4771 628.87 L 313.4771 628.87 C 345.9771 619.495 380.3521 618.245 409.1021 628.87 "
   id="path623"
   sodipodi:nodetypes="ccccccccc" /><path
   style="fill:#f2f2f2;fill-rule:evenodd;stroke:black;stroke-opacity:1;stroke-width:1pt;stroke-linejoin:miter;stroke-linecap:butt;fill-opacity:1;"
   d="M 314.2584 629.3384 C 408.4773 629.3384 407.8523 628.8697 407.8523 628.8697 L 407.8523 628.5572 L 400.0398 625.5884 L 380.0398 621.6822 L 358.1647 620.9009 L 335.3522 623.4009 L 314.2584 629.3384 z "
   id="path633"
   sodipodi:nodetypes="cccccccc" /><rect
   style="font-size:12;fill:#808080;fill-rule:evenodd;stroke-width:1;"
   id="rect635"
   width="45.6250305"
   height="27.107069"
   x="338.34774"
   y="634.456833" /><rect
   style="font-size:12;fill:#b0b0b0;fill-rule:evenodd;stroke-width:1;stroke:#000000;stroke-opacity:1;fill-opacity:1;"
   id="rect634"
   width="96.875061"
   height="6.71875"
   x="311.289642"
   y="629.117462" /><path
   style="fill:#f1f1f1;fill-rule:evenodd;stroke:black;stroke-opacity:1;stroke-width:1pt;stroke-linejoin:miter;stroke-linecap:butt;fill-opacity:1;"
   d="M 311.4459 636.5259 L 277.6959 673.2447 L 283.6334 680.4322 L 308.4772 679.9635 L 337.696 636.2134 L 311.4459 636.5259 z "
   id="path637" /><path
   style="fill:#5555d0;fill-rule:evenodd;stroke:none;stroke-opacity:1;stroke-width:1pt;stroke-linejoin:miter;stroke-linecap:butt;fill-opacity:1;"
   d="M 351.6826 661.0929 L 314.7805 718.1034 L 313.8966 736.0021 L 399.1914 735.7811 L 396.7607 710.3694 L 377.3153 709.7065 L 376.8733 661.0929 L 351.6826 661.0929 z "
   id="path638" /><path
   style="font-size:12;fill:none;fill-rule:evenodd;stroke:#0000ff;stroke-width:4.275;stroke-dasharray:none;"
   d="M 358.3961 709.8983 C 359.5969 708.8433 360.2899 707.7245 363.6061 707.8523 C 369.2666 707.8523 367.0081 710.9852 372.6114 710.9853 C 379.3011 710.9214 376.1564 707.8203 382.4744 707.8523 M 339.8493 709.8663 C 341.05 708.8114 341.6218 707.6925 344.938 707.8203 C 350.5985 707.8203 348.34 710.9533 353.9433 710.9533 C 360.633 710.8894 357.4883 707.7884 363.8062 707.8203 "
   id="path714" /><path
   style="font-size:12;fill:none;fill-rule:evenodd;stroke:#0000ff;stroke-width:4.275;stroke-dasharray:none;"
   d="M 339.1862 709.6696 C 340.387 708.6146 341.08 707.4958 344.3962 707.6236 C 350.0567 707.6236 347.7982 710.7565 353.4015 710.7566 C 360.0912 710.6927 356.9465 707.5916 363.2645 707.6236 M 320.6394 709.6376 C 321.8401 708.5827 322.4119 707.4638 325.7281 707.5916 C 331.3886 707.5916 329.1301 710.7246 334.7334 710.7246 C 341.4231 710.6607 338.2784 707.5597 344.5963 707.5916 "
   id="path711" /><path
   style="font-size:12;fill:none;fill-rule:evenodd;stroke:#0000ff;stroke-width:4.275;stroke-dasharray:none;"
   d="M 359.3108 669.8776 C 360.5116 668.8226 361.2046 667.7038 364.5208 667.8316 C 370.1813 667.8316 367.9228 670.9645 373.5261 670.9646 C 380.2158 670.9007 377.0711 667.7996 383.3891 667.8316 M 340.764 669.8456 C 341.9647 668.7907 342.5365 667.6718 345.8527 667.7996 C 351.5132 667.7996 349.2547 670.9326 354.858 670.9326 C 361.5477 670.8687 358.403 667.7677 364.7209 667.7996 "
   id="path713" /><path
   style="font-size:12;fill:none;fill-rule:evenodd;stroke:#0000ff;stroke-width:4.275;stroke-dasharray:none;"
   d="M 353.8223 683.5989 C 355.0231 682.5439 355.7161 681.4251 359.0323 681.5529 C 364.6928 681.5529 362.4343 684.6858 368.0376 684.6859 C 374.7273 684.622 371.5826 681.5209 377.9006 681.5529 M 335.2755 683.5669 C 336.4762 682.512 337.048 681.3931 340.3642 681.5209 C 346.0247 681.5209 343.7662 684.6539 349.3695 684.6539 C 356.0592 684.59 352.9145 681.489 359.2324 681.5209 "
   id="path712" /><path
   style="fill:#555555;fill-rule:evenodd;stroke:black;stroke-opacity:1;stroke-width:1pt;stroke-linejoin:round;stroke-linecap:butt;fill-opacity:1;"
   d="M 337.3195 636.3442 L 308.3723 680.0964 L 308.5933 701.0886 L 314.5595 717.4405 L 351.6826 661.0929 L 338.4244 661.3139 L 337.3195 636.3442 z "
   id="path639"
   sodipodi:nodetypes="ccccccc" /><path
   style="fill:#f1f1f1;fill-rule:evenodd;stroke:black;stroke-opacity:1;stroke-width:1pt;stroke-linejoin:miter;stroke-linecap:butt;fill-opacity:1;"
   d="M 384.3864 636.3442 L 385.4912 678.9916 L 420.8465 679.4335 L 424.824 657.9993 L 410.6819 658.4412 L 408.2512 636.3442 L 384.3864 636.3442 z "
   id="path640" /><path
   style="fill:#555555;fill-rule:evenodd;stroke:black;stroke-opacity:1;stroke-width:1pt;stroke-linejoin:miter;stroke-linecap:butt;fill-opacity:1;"
   d="M 377.0943 660.651 L 384.3864 660.8721 L 385.7122 678.1077 L 419.7417 679.2125 L 396.9817 710.8114 L 376.6524 709.9275 L 377.0943 660.651 z "
   id="path641"
   sodipodi:nodetypes="ccccccc" /><path
   style="fill:#555555;fill-rule:evenodd;stroke:black;stroke-opacity:1;stroke-width:1pt;stroke-linejoin:miter;stroke-linecap:butt;fill-opacity:1;"
   d="M 314.5595 718.3244 L 304.1739 714.5679 L 295.777 696.2273 L 285.6123 680.9803 L 308.1514 680.3174 L 308.3723 701.3096 L 314.5595 718.3244 z "
   id="path642" /><path
   style="fill:none;fill-rule:evenodd;stroke:black;stroke-opacity:1;stroke-width:1pt;stroke-linejoin:miter;stroke-linecap:butt;fill-opacity:1;"
   d="M 386.3751 678.1077 L 377.0943 709.9275 "
   id="path643" /><g
   id="g657"
   transform="translate(-406.6312,25.67136)"><path
   sodipodi:type="arc"
   style="fill-rule:evenodd;stroke:none;fill:gray;fill-opacity:1;stroke-opacity:1;stroke-width:1pt;stroke-linejoin:miter;stroke-linecap:butt;"
   id="path646"
   d="M 851.4497 453.7461 A 5.710175 2.220612 0 1 0 840.0293 453.7461 A 5.710175 2.220612 0 1 0  851.4497 453.7461 z"
   sodipodi:cx="845.739502"
   sodipodi:cy="453.746124"
   sodipodi:rx="5.71017456"
   sodipodi:ry="2.22061157" /><path
   sodipodi:type="arc"
   style="fill-rule:evenodd;stroke:none;fill:gray;fill-opacity:1;stroke-opacity:1;stroke-width:1pt;stroke-linejoin:miter;stroke-linecap:butt;"
   id="path647"
   d="M 851.4497 453.7461 A 5.710175 2.220612 0 1 0 840.0293 453.7461 A 5.710175 2.220612 0 1 0  851.4497 453.7461 z"
   sodipodi:cx="845.739502"
   sodipodi:cy="453.746124"
   sodipodi:rx="5.71017456"
   sodipodi:ry="2.22061157" /><path
   sodipodi:type="arc"
   style="fill-rule:evenodd;stroke:none;fill:gray;fill-opacity:1;stroke-opacity:1;stroke-width:1pt;stroke-linejoin:miter;stroke-linecap:butt;"
   id="path648"
   d="M 851.4497 453.7461 A 5.710175 2.220612 0 1 0 840.0293 453.7461 A 5.710175 2.220612 0 1 0  851.4497 453.7461 z"
   sodipodi:cx="845.739502"
   sodipodi:cy="453.746124"
   sodipodi:rx="5.71017456"
   sodipodi:ry="2.22061157" /><path
   style="fill:#dddddd;fill-rule:evenodd;stroke:black;stroke-opacity:1;stroke-width:1pt;stroke-linejoin:miter;stroke-linecap:butt;fill-opacity:1;"
   d="M 836.6459 472.0395 L 842.4618 469.7132 L 853.1419 471.7223 L 853.1419 463.6858 L 853.1419 463.1571 L 858.3234 462.7341 L 858.4291 454.0631 L 855.997 453.9573 L 855.7855 444.8634 L 844.5767 445.0749 L 844.5767 451.7367 L 840.1354 453.5344 L 840.2412 462.7341 L 826.3887 468.55 L 836.4344 472.4625 L 836.6459 472.0395 z "
   id="path651" /><path
   sodipodi:type="arc"
   style="fill-rule:evenodd;stroke:#000000;fill:#ffffff;fill-opacity:1;stroke-opacity:1;stroke-width:1pt;stroke-linejoin:miter;stroke-linecap:butt;"
   id="path649"
   d="M 851.4497 453.7461 A 5.710175 2.220612 0 1 0 840.0293 453.7461 A 5.710175 2.220612 0 1 0  851.4497 453.7461 z"
   sodipodi:cx="845.739502"
   sodipodi:cy="453.746124"
   sodipodi:rx="5.71017456"
   sodipodi:ry="2.22061157"
   transform="translate(4.441223,-8.67099)" /><path
   style="fill:none;fill-rule:evenodd;stroke:black;stroke-opacity:1;stroke-width:1pt;stroke-linejoin:miter;stroke-linecap:butt;fill-opacity:1;"
   d="M 851.403 453.6953 L 851.403 459.8825 "
   id="path656" /><path
   sodipodi:type="arc"
   style="fill-rule:evenodd;stroke:#000000;fill:#ffffff;fill-opacity:1;stroke-opacity:1;stroke-width:1pt;stroke-linejoin:miter;stroke-linecap:butt;"
   id="path653"
   d="M 851.4497 453.7461 A 5.710175 2.220612 0 1 0 840.0293 453.7461 A 5.710175 2.220612 0 1 0  851.4497 453.7461 z"
   sodipodi:cx="845.739502"
   sodipodi:cy="453.746124"
   sodipodi:rx="5.71017456"
   sodipodi:ry="2.22061157" /></g><g
   id="g665"
   transform="matrix(-1,0,0,1,1131.711,22.44824)"><path
   sodipodi:type="arc"
   style="fill-rule:evenodd;stroke:none;fill:gray;fill-opacity:1;stroke-opacity:1;stroke-width:1pt;stroke-linejoin:miter;stroke-linecap:butt;"
   id="path666"
   d="M 851.4497 453.7461 A 5.710175 2.220612 0 1 0 840.0293 453.7461 A 5.710175 2.220612 0 1 0  851.4497 453.7461 z"
   sodipodi:cx="845.739502"
   sodipodi:cy="453.746124"
   sodipodi:rx="5.71017456"
   sodipodi:ry="2.22061157" /><path
   sodipodi:type="arc"
   style="fill-rule:evenodd;stroke:none;fill:gray;fill-opacity:1;stroke-opacity:1;stroke-width:1pt;stroke-linejoin:miter;stroke-linecap:butt;"
   id="path667"
   d="M 851.4497 453.7461 A 5.710175 2.220612 0 1 0 840.0293 453.7461 A 5.710175 2.220612 0 1 0  851.4497 453.7461 z"
   sodipodi:cx="845.739502"
   sodipodi:cy="453.746124"
   sodipodi:rx="5.71017456"
   sodipodi:ry="2.22061157" /><path
   sodipodi:type="arc"
   style="fill-rule:evenodd;stroke:none;fill:gray;fill-opacity:1;stroke-opacity:1;stroke-width:1pt;stroke-linejoin:miter;stroke-linecap:butt;"
   id="path668"
   d="M 851.4497 453.7461 A 5.710175 2.220612 0 1 0 840.0293 453.7461 A 5.710175 2.220612 0 1 0  851.4497 453.7461 z"
   sodipodi:cx="845.739502"
   sodipodi:cy="453.746124"
   sodipodi:rx="5.71017456"
   sodipodi:ry="2.22061157" /><path
   style="fill:#dddddd;fill-rule:evenodd;stroke:black;stroke-opacity:1;stroke-width:1pt;stroke-linejoin:miter;stroke-linecap:butt;fill-opacity:1;"
   d="M 836.6459 472.0395 L 842.4618 469.7132 L 853.1419 471.7223 L 853.1419 463.6858 L 853.1419 463.1571 L 858.3234 462.7341 L 858.4291 454.0631 L 855.997 453.9573 L 855.7855 444.8634 L 844.5767 445.0749 L 844.5767 451.7367 L 840.1354 453.5344 L 840.2412 462.7341 L 826.3887 468.55 L 836.4344 472.4625 L 836.6459 472.0395 z "
   id="path669" /><path
   sodipodi:type="arc"
   style="fill-rule:evenodd;stroke:#000000;fill:#ffffff;fill-opacity:1;stroke-opacity:1;stroke-width:1pt;stroke-linejoin:miter;stroke-linecap:butt;"
   id="path670"
   d="M 851.4497 453.7461 A 5.710175 2.220612 0 1 0 840.0293 453.7461 A 5.710175 2.220612 0 1 0  851.4497 453.7461 z"
   sodipodi:cx="845.739502"
   sodipodi:cy="453.746124"
   sodipodi:rx="5.71017456"
   sodipodi:ry="2.22061157"
   transform="translate(4.441223,-8.67099)" /><path
   style="fill:none;fill-rule:evenodd;stroke:black;stroke-opacity:1;stroke-width:1pt;stroke-linejoin:miter;stroke-linecap:butt;fill-opacity:1;"
   d="M 851.403 453.6953 L 851.403 459.8825 "
   id="path671" /><path
   sodipodi:type="arc"
   style="fill-rule:evenodd;stroke:#000000;fill:#ffffff;fill-opacity:1;stroke-opacity:1;stroke-width:1pt;stroke-linejoin:miter;stroke-linecap:butt;"
   id="path672"
   d="M 851.4497 453.7461 A 5.710175 2.220612 0 1 0 840.0293 453.7461 A 5.710175 2.220612 0 1 0  851.4497 453.7461 z"
   sodipodi:cx="845.739502"
   sodipodi:cy="453.746124"
   sodipodi:rx="5.71017456"
   sodipodi:ry="2.22061157" /></g><path
   style="font-size:12;fill:none;fill-rule:evenodd;stroke:#0000ff;stroke-opacity:1;stroke-width:4.375;stroke-dasharray:none;stroke-linejoin:bevel;"
   d="M 378.1819 342.6806 C 380.5831 340.7939 381.9691 338.793 388.6011 339.0216 C 399.9213 339.0216 395.4046 344.6244 406.6104 344.6245 C 419.9888 344.5102 413.6998 338.9645 426.3349 339.0216 M 341.0908 342.6234 C 343.4921 340.7367 344.6355 338.7358 351.2675 338.9644 C 362.5877 338.9644 358.071 344.5672 369.2768 344.5673 C 382.6552 344.453 376.3662 338.9073 389.0013 338.9644 "
   id="path686" /><path
   style="font-size:12;fill:none;fill-rule:evenodd;stroke:#0000ff;stroke-opacity:1;stroke-width:4.375;stroke-dasharray:none;stroke-linejoin:bevel;"
   d="M 452.5061 342.9093 C 454.9073 341.0226 456.2933 339.0217 462.9253 339.2503 C 474.2455 339.2503 469.7288 344.8531 480.9346 344.8532 C 494.313 344.7389 488.024 339.1932 500.6591 339.2503 M 415.415 342.8521 C 417.8163 340.9654 418.9597 338.9645 425.5917 339.1931 C 436.9119 339.1931 432.3952 344.7959 443.601 344.796 C 456.9794 344.6817 450.6904 339.136 463.3255 339.1931 "
   id="path687" /><path
   style="font-size:12;fill:none;fill-rule:evenodd;stroke:#0000ff;stroke-opacity:1;stroke-width:4.375;stroke-dasharray:none;stroke-linejoin:bevel;"
   d="M 407.2255 366.4643 C 409.6267 364.5776 411.0127 362.5767 417.6447 362.8053 C 428.9649 362.8053 424.4482 368.4081 435.654 368.4082 C 449.0324 368.2939 442.7434 362.7482 455.3785 362.8053 M 370.1344 366.4071 C 372.5357 364.5204 373.6791 362.5195 380.3111 362.7481 C 391.6313 362.7481 387.1146 368.3509 398.3204 368.351 C 411.6988 368.2367 405.4098 362.691 418.0449 362.7481 "
   id="path688" /><path
   style="font-size:12;fill:none;fill-rule:evenodd;stroke:#0000ff;stroke-opacity:1;stroke-width:4.375;stroke-dasharray:none;stroke-linejoin:bevel;"
   d="M 481.7784 366.693 C 484.1796 364.8063 485.5656 362.8054 492.1976 363.034 C 503.5178 363.034 499.0011 368.6368 510.2069 368.6369 C 523.5853 368.5226 517.2963 362.9769 529.9314 363.034 M 444.6873 366.6358 C 447.0886 364.7491 448.232 362.7482 454.864 362.9768 C 466.1842 362.9768 461.6675 368.5796 472.8733 368.5797 C 486.2517 368.4654 479.9627 362.9197 492.5978 362.9768 "
   id="path689" /><path
   style="font-size:12;fill:none;fill-rule:evenodd;stroke:#0000ff;stroke-opacity:1;stroke-width:4.375;stroke-dasharray:none;stroke-linejoin:bevel;"
   d="M 381.1548 391.8489 C 383.556 389.9622 384.942 387.9613 391.574 388.1899 C 402.8942 388.1899 398.3775 393.7927 409.5833 393.7928 C 422.9617 393.6785 416.6727 388.1328 429.3078 388.1899 M 344.0637 391.7917 C 346.465 389.905 347.6084 387.9041 354.2404 388.1327 C 365.5606 388.1327 361.0439 393.7355 372.2497 393.7356 C 385.6281 393.6213 379.3391 388.0756 391.9742 388.1327 "
   id="path690" /><path
   style="font-size:12;fill:none;fill-rule:evenodd;stroke:#0000ff;stroke-opacity:1;stroke-width:4.375;stroke-dasharray:none;stroke-linejoin:bevel;"
   d="M 455.2503 391.8489 C 457.6515 389.9622 459.0375 387.9613 465.6695 388.1899 C 476.9897 388.1899 472.473 393.7927 483.6788 393.7928 C 497.0572 393.6785 490.7682 388.1328 503.4033 388.1899 M 418.1592 391.7917 C 420.5605 389.905 421.7039 387.9041 428.3359 388.1327 C 439.6561 388.1327 435.1394 393.7355 446.3452 393.7356 C 459.7236 393.6213 453.4346 388.0756 466.0697 388.1327 "
   id="path691" /><path
   style="font-size:12;fill:none;fill-rule:evenodd;stroke:#0000ff;stroke-opacity:1;stroke-width:4.375;stroke-dasharray:none;stroke-linejoin:bevel;"
   d="M 366.5186 417.0048 C 368.9198 415.1181 370.3058 413.1172 376.9378 413.3458 C 388.258 413.3458 383.7413 418.9486 394.9471 418.9487 C 408.3255 418.8344 402.0365 413.2887 414.6716 413.3458 M 329.4275 416.9476 C 331.8288 415.0609 332.9722 413.06 339.6042 413.2886 C 350.9244 413.2886 346.4077 418.8914 357.6135 418.8915 C 370.9919 418.7772 364.7029 413.2315 377.338 413.2886 "
   id="path693" /><path
   style="font-size:12;fill:none;fill-rule:evenodd;stroke:#0000ff;stroke-opacity:1;stroke-width:4.375;stroke-dasharray:none;stroke-linejoin:bevel;"
   d="M 440.6141 417.0048 C 443.0153 415.1181 444.4013 413.1172 451.0333 413.3458 C 462.3535 413.3458 457.8368 418.9486 469.0426 418.9487 C 482.421 418.8344 476.132 413.2887 488.7671 413.3458 M 403.523 416.9476 C 405.9243 415.0609 407.0677 413.06 413.6997 413.2886 C 425.0199 413.2886 420.5032 418.8914 431.709 418.8915 C 445.0874 418.7772 438.7984 413.2315 451.4335 413.2886 "
   id="path694" /><path
   style="font-size:12;fill:none;fill-rule:evenodd;stroke:#0000ff;stroke-opacity:1;stroke-width:4.375;stroke-dasharray:none;stroke-linejoin:bevel;"
   d="M 353.9407 446.7344 C 356.3419 444.8477 357.7279 442.8468 364.3599 443.0754 C 375.6801 443.0754 371.1634 448.6782 382.3692 448.6783 C 395.7476 448.564 389.4586 443.0183 402.0937 443.0754 M 316.8496 446.6772 C 319.2509 444.7905 320.3943 442.7896 327.0263 443.0182 C 338.3465 443.0182 333.8298 448.621 345.0356 448.6211 C 358.414 448.5068 352.125 442.9611 364.7601 443.0182 "
   id="path695" /><path
   style="font-size:12;fill:none;fill-rule:evenodd;stroke:#0000ff;stroke-opacity:1;stroke-width:4.375;stroke-dasharray:none;stroke-linejoin:bevel;"
   d="M 428.0362 446.7344 C 430.4374 444.8477 431.8234 442.8468 438.4554 443.0754 C 449.7756 443.0754 445.2589 448.6782 456.4647 448.6783 C 469.8431 448.564 463.5541 443.0183 476.1892 443.0754 M 390.9451 446.6772 C 393.3464 444.7905 394.4898 442.7896 401.1218 443.0182 C 412.442 443.0182 407.9253 448.621 419.1311 448.6211 C 432.5095 448.5068 426.2205 442.9611 438.8556 443.0182 "
   id="path696" /><path
   style="font-size:12;fill:none;fill-rule:evenodd;stroke:#0000ff;stroke-opacity:1;stroke-width:4.375;stroke-dasharray:none;stroke-linejoin:bevel;"
   d="M 465.9987 446.5058 C 468.3999 444.6191 469.7859 442.6182 476.4179 442.8468 C 487.7381 442.8468 483.2214 448.4496 494.4272 448.4497 C 507.8056 448.3354 501.5166 442.7897 514.1517 442.8468 M 428.9076 446.4486 C 431.3089 444.5619 432.4523 442.561 439.0843 442.7896 C 450.4045 442.7896 445.8878 448.3924 457.0936 448.3925 C 470.472 448.2782 464.183 442.7325 476.8181 442.7896 "
   id="path699" /><path
   style="font-size:12;fill:none;fill-rule:evenodd;stroke:#0000ff;stroke-opacity:1;stroke-width:4.375;stroke-dasharray:none;stroke-linejoin:bevel;"
   d="M 340.448 474.1771 C 342.8492 472.2904 344.2352 470.2895 350.8672 470.5181 C 362.1874 470.5181 357.6707 476.1209 368.8765 476.121 C 382.2549 476.0067 375.9659 470.461 388.601 470.5181 M 303.3569 474.1199 C 305.7582 472.2332 306.9016 470.2323 313.5336 470.4609 C 324.8538 470.4609 320.3371 476.0637 331.5429 476.0638 C 344.9213 475.9495 338.6323 470.4038 351.2674 470.4609 "
   id="path702" /><path
   style="font-size:12;fill:none;fill-rule:evenodd;stroke:#0000ff;stroke-opacity:1;stroke-width:4.375;stroke-dasharray:none;stroke-linejoin:bevel;"
   d="M 377.4957 474.4058 C 379.8969 472.5191 381.2829 470.5182 387.9149 470.7468 C 399.2351 470.7468 394.7184 476.3496 405.9242 476.3497 C 419.3026 476.2354 413.0136 470.6897 425.6487 470.7468 M 340.4046 474.3486 C 342.8059 472.4619 343.9493 470.461 350.5813 470.6896 C 361.9015 470.6896 357.3848 476.2924 368.5906 476.2925 C 381.969 476.1782 375.68 470.6325 388.3151 470.6896 "
   id="path703" /><path
   style="font-size:12;fill:none;fill-rule:evenodd;stroke:#0000ff;stroke-opacity:1;stroke-width:4.375;stroke-dasharray:none;stroke-linejoin:bevel;"
   d="M 476.2898 464.1147 C 478.691 462.228 480.077 460.2271 486.709 460.4557 C 498.0292 460.4557 493.5125 466.0585 504.7183 466.0586 C 518.0967 465.9443 511.8077 460.3986 524.4428 460.4557 M 439.1987 464.0575 C 441.6 462.1708 442.7434 460.1699 449.3754 460.3985 C 460.6956 460.3985 456.1789 466.0013 467.3847 466.0014 C 480.7631 465.8871 474.4741 460.3414 487.1092 460.3985 "
   id="path704" /><path
   style="font-size:12;fill:none;fill-rule:evenodd;stroke:#0000ff;stroke-opacity:1;stroke-width:4.375;stroke-dasharray:none;stroke-linejoin:bevel;"
   d="M 353.9407 446.7344 C 356.3419 444.8477 357.7279 442.8468 364.3599 443.0754 C 375.6801 443.0754 371.1634 448.6782 382.3692 448.6783 C 395.7476 448.564 389.4586 443.0183 402.0937 443.0754 M 316.8496 446.6772 C 319.2509 444.7905 320.3943 442.7896 327.0263 443.0182 C 338.3465 443.0182 333.8298 448.621 345.0356 448.6211 C 358.414 448.5068 352.125 442.9611 364.7601 443.0182 "
   id="path705" /><path
   style="font-size:12;fill:none;fill-rule:evenodd;stroke:#0000ff;stroke-width:4.275;stroke-dasharray:none;"
   d="M 351.078 696.4056 C 352.2788 695.3506 352.9718 694.2318 356.288 694.3596 C 361.9485 694.3596 359.69 697.4925 365.2933 697.4926 C 371.983 697.4287 368.8383 694.3276 375.1563 694.3596 M 332.5312 696.3736 C 333.7319 695.3187 334.3037 694.1998 337.6199 694.3276 C 343.2804 694.3276 341.0219 697.4606 346.6252 697.4606 C 353.3149 697.3967 350.1702 694.2957 356.4881 694.3276 "
   id="path706" /><path
   style="font-size:12;fill:none;fill-rule:evenodd;stroke:#0000ff;stroke-width:4.275;stroke-dasharray:none;"
   d="M 334.841 724.077 C 336.0418 723.022 336.7348 721.9032 340.051 722.031 C 345.7115 722.031 343.453 725.1639 349.0563 725.164 C 355.746 725.1001 352.6013 721.999 358.9193 722.031 M 316.2942 724.045 C 317.4949 722.9901 318.0667 721.8712 321.3829 721.999 C 327.0434 721.999 324.7849 725.132 330.3882 725.132 C 337.0779 725.0681 333.9332 721.9671 340.2511 721.999 "
   id="path708" /><path
   style="font-size:12;fill:none;fill-rule:evenodd;stroke:#0000ff;stroke-width:4.275;stroke-dasharray:none;"
   d="M 353.8223 724.077 C 355.0231 723.022 355.7161 721.9032 359.0323 722.031 C 364.6928 722.031 362.4343 725.1639 368.0376 725.164 C 374.7273 725.1001 371.5826 721.999 377.9006 722.031 M 335.2755 724.045 C 336.4762 722.9901 337.048 721.8712 340.3642 721.999 C 346.0247 721.999 343.7662 725.132 349.3695 725.132 C 356.0592 725.0681 352.9145 721.9671 359.2324 721.999 "
   id="path709" /><path
   style="font-size:12;fill:none;fill-rule:evenodd;stroke:#0000ff;stroke-width:4.275;stroke-dasharray:none;"
   d="M 371.6601 724.077 C 372.8609 723.022 373.5539 721.9032 376.8701 722.031 C 382.5306 722.031 380.2721 725.1639 385.8754 725.164 C 392.5651 725.1001 389.4204 721.999 395.7384 722.031 M 353.1133 724.045 C 354.314 722.9901 354.8858 721.8712 358.202 721.999 C 363.8625 721.999 361.604 725.132 367.2073 725.132 C 373.897 725.0681 370.7523 721.9671 377.0702 721.999 "
   id="path710" /></svg>
