<?xml version="1.0" encoding="UTF-8" standalone="no"?>
<!DOCTYPE svg PUBLIC "-//W3C//DTD SVG 20010904//EN"
"http://www.w3.org/TR/2001/REC-SVG-20010904/DTD/svg10.dtd">
<!-- Created with Inkscape ("http://www.inkscape.org/") -->
<svg
   id="svg1"
   sodipodi:version="0.32"
   inkscape:version="0.36pre1"
   width="360mm"
   height="200mm"
   sodipodi:docbase="/home/fred"
   sodipodi:docname="/home/fred/amb.svg"
   xmlns="http://www.w3.org/2000/svg"
   xmlns:inkscape="http://www.inkscape.org/namespaces/inkscape"
   xmlns:sodipodi="http://sodipodi.sourceforge.net/DTD/sodipodi-0.dtd"
   xmlns:xlink="http://www.w3.org/1999/xlink">
  <defs
     id="defs3">
    <linearGradient
       id="linearGradient636">
      <stop
         style="stop-color:#14bde7;stop-opacity:1;"
         offset="0.000000"
         id="stop637" />
      <stop
         style="stop-color:#2f62e2;stop-opacity:1;"
         offset="1.000000"
         id="stop638" />
    </linearGradient>
    <linearGradient
       id="linearGradient631">
      <stop
         style="stop-color:#14bd00;stop-opacity:1;"
         offset="0.000000"
         id="stop632" />
      <stop
         style="stop-color:#2f9d00;stop-opacity:1;"
         offset="1.000000"
         id="stop633" />
    </linearGradient>
    <linearGradient
       id="linearGradient602">
      <stop
         style="stop-color:#ff6700;stop-opacity:1;"
         offset="0.000000"
         id="stop603" />
      <stop
         style="stop-color:#ad4d00;stop-opacity:1;"
         offset="1.000000"
         id="stop604" />
    </linearGradient>
    <linearGradient
       id="linearGradient598">
      <stop
         style="stop-color:#000;stop-opacity:1;"
         offset="0"
         id="stop599" />
      <stop
         style="stop-color:#fff;stop-opacity:1;"
         offset="1"
         id="stop600" />
    </linearGradient>
    <linearGradient
       xlink:href="#linearGradient602"
       id="linearGradient601"
       x1="0.451713"
       y1="-0.085365"
       x2="0.451713"
       y2="0.987805" />
    <linearGradient
       xlink:href="#linearGradient631"
       id="linearGradient630"
       x1="0.482866"
       y1="-0.045455"
       x2="0.482866"
       y2="0.977273" />
    <linearGradient
       xlink:href="#linearGradient636"
       id="linearGradient635"
       x1="0.441281"
       y1="0.945312"
       x2="0.437722"
       y2="0.015625" />
  </defs>
  <sodipodi:namedview
     id="base"
     snaptogrid="true"
     showgrid="true" />
  <rect
     style="font-size:12;fill:url(#linearGradient635);fill-rule:evenodd;stroke-width:1pt;"
     id="rect634"
     width="1275.590576"
     height="620.078729"
     x="0.000000"
     y="-0.000018" />
  <path
     style="font-size:12;fill:url(#linearGradient630);fill-rule:evenodd;stroke:#000000;stroke-width:1pt;fill-opacity:1;"
     d="M 1275.59 638.991 C 1275.59 690.946 1275.59 566.929 1275.59 566.929 C 1187.01 583.451 1125.38 593.68 1036.35 602.362 C 948.169 610.96 824.067 604.384 744.094 566.929 C 632.571 514.697 290.798 458.283 177.165 450.355 C 56.1254 441.911 116.573 442.913 0 442.913 L 0.00106812 708.661 L 1275.59 708.661 L 1275.59 594.632 "
     id="path629"
     sodipodi:nodetypes="ccccccccc" />
  <path
     style="font-size:12;fill:url(#linearGradient601);fill-rule:evenodd;stroke:#000000;stroke-width:1pt;fill-opacity:1;"
     d="M 398.45 549.214 L 646.482 549.214 L 681.915 513.781 L 664.198 496.064 C 666.302 515.009 653.13 516.744 646.482 513.781 C 613.329 496.064 577.721 478.523 557.9 407.481 L 398.451 407.481 L 239.002 407.481 C 219.181 478.523 183.571 496.064 150.418 513.781 C 143.77 516.744 130.598 515.009 132.702 496.064 L 114.985 513.781 L 150.418 549.214 L 398.45 549.214 z "
     id="path595"
     sodipodi:nodetypes="ccccccccccccc" />
  <rect
     style="font-size:12;fill:#aea36b;fill-rule:evenodd;stroke-width:1pt;fill-opacity:1;"
     id="rect596"
     width="283.464508"
     height="70.866158"
     x="258.205536"
     y="336.615540" />
  <rect
     style="font-size:12;fill:#aea36b;fill-rule:evenodd;stroke-width:1pt;fill-opacity:1;"
     id="rect597"
     width="460.629883"
     height="159.448853"
     x="160.692291"
     y="549.213928" />
  <path
     style="font-size:12;fill:url(#linearGradient601);fill-rule:evenodd;stroke:#000000;stroke-width:0.648077pt;"
     d="M 404.331 336.615 L 571.009 336.615 L 594.82 314.469 L 582.914 303.396 C 584.328 315.236 575.476 316.321 571.009 314.469 C 548.73 303.396 524.801 292.432 511.482 248.031 L 404.331 248.031 L 297.181 248.031 C 283.862 292.432 259.932 303.396 237.653 314.469 C 233.185 316.321 224.334 315.236 225.747 303.396 L 213.842 314.469 L 237.653 336.615 L 404.331 336.615 z "
     id="path605"
     sodipodi:nodetypes="ccccccccccccc" />
  <rect
     style="font-size:12;fill:#a56e19;fill-rule:evenodd;stroke-width:1pt;fill-opacity:1;"
     id="rect606"
     width="17.716591"
     height="265.748077"
     x="868.110306"
     y="442.913315" />
  <rect
     style="font-size:12;fill:#a56e19;fill-rule:evenodd;stroke-width:1pt;fill-opacity:1;"
     id="rect613"
     width="17.716591"
     height="265.747986"
     x="1098.425308"
     y="442.913284" />
  <path
     style="font-size:12;fill:#a56e19;fill-rule:evenodd;stroke:none;stroke-width:1pt;fill-opacity:1;"
     d="M 992.131 478.346 L 1179.64 478.346 L 1222.44 442.913 L 1196.01 442.913 L 1169.29 460.63 L 992.121 460.63 L 814.961 460.63 L 788.239 442.913 L 761.811 442.913 L 804.611 478.346 L 992.131 478.346 z "
     id="path612"
     sodipodi:nodetypes="ccccccccccc" />
  <path
     style="font-size:12;fill:#a56e19;fill-rule:evenodd;stroke:none;stroke-width:1pt;fill-opacity:1;"
     d="M 992.131 442.913 L 1126.49 442.913 L 1169.29 407.48 L 1142.86 407.48 L 1116.14 425.197 L 992.121 425.197 L 868.111 425.197 L 841.389 407.48 L 814.961 407.48 L 857.761 442.913 L 992.131 442.913 z "
     id="path614"
     sodipodi:nodetypes="ccccccccccc" />
  <g
     id="g619"
     style="fill:#ffff00;fill-opacity:1;"
     sodipodi:fill-cmyk="(0 0 1 0)">
    <rect
       style="font-size:12;fill:#ffff00;fill-rule:evenodd;stroke-width:1pt;fill-opacity:1;"
       id="rect615"
       width="17.7165375"
       height="17.7165222"
       x="212.598419"
       y="283.464539" />
    <rect
       style="font-size:12;fill:#ffff00;fill-rule:evenodd;stroke-width:1pt;fill-opacity:1;"
       id="rect616"
       width="17.716537"
       height="17.716522"
       x="584.645660"
       y="283.464569" />
    <rect
       style="font-size:12;fill:#ffff00;fill-rule:evenodd;stroke-width:1pt;fill-opacity:1;"
       id="rect617"
       width="17.716537"
       height="17.716522"
       x="655.511757"
       y="478.346420" />
    <rect
       style="font-size:12;fill:#ffff00;fill-rule:evenodd;stroke-width:1pt;fill-opacity:1;"
       id="rect618"
       width="17.716537"
       height="17.716522"
       x="124.015747"
       y="478.346436" />
  </g>
  <rect
     style="font-size:12;fill:#ffff00;fill-rule:evenodd;stroke-width:1pt;fill-opacity:1;"
     id="rect624"
     width="106.299204"
     height="17.716522"
     x="938.976300"
     y="496.063019"
     sodipodi:fill-cmyk="(0 0 1 0)" />
  <rect
     style="font-size:12;fill:#808080;fill-rule:evenodd;stroke-width:1pt;"
     id="rect639"
     width="17.7165375"
     height="159.448792"
     x="230.314957"
     y="549.212585" />
  <rect
     style="font-size:12;fill:#808080;fill-rule:evenodd;stroke-width:1pt;"
     id="rect640"
     width="17.7165222"
     height="159.448792"
     x="336.614197"
     y="549.212585" />
  <rect
     style="font-size:12;fill:#808080;fill-rule:evenodd;stroke-width:1pt;"
     id="rect641"
     width="17.7165222"
     height="159.448792"
     x="442.913391"
     y="549.212585" />
  <rect
     style="font-size:12;fill:#808080;fill-rule:evenodd;stroke-width:1pt;"
     id="rect642"
     width="17.7165527"
     height="159.448792"
     x="549.212585"
     y="549.212585" />
  <rect
     style="font-size:12;fill:#808080;fill-rule:evenodd;stroke-width:1pt;"
     id="rect643"
     width="17.7165527"
     height="70.8661499"
     x="301.181091"
     y="336.614136" />
  <rect
     style="font-size:12;fill:#808080;fill-rule:evenodd;stroke-width:1pt;"
     id="rect644"
     width="17.7165222"
     height="70.8661499"
     x="407.480316"
     y="336.614136" />
  <rect
     style="font-size:12;fill:#808080;fill-rule:evenodd;stroke-width:1pt;"
     id="rect645"
     width="17.7164917"
     height="70.8661499"
     x="513.779541"
     y="336.614136" />
</svg>
