<?xml version="1.0" encoding="UTF-8" standalone="no"?>
<svg
   xmlns:dc="http://purl.org/dc/elements/1.1/"
   xmlns:cc="http://web.resource.org/cc/"
   xmlns:rdf="http://www.w3.org/1999/02/22-rdf-syntax-ns#"
   xmlns:svg="http://www.w3.org/2000/svg"
   xmlns="http://www.w3.org/2000/svg"
   xmlns:sodipodi="http://sodipodi.sourceforge.net/DTD/sodipodi-0.dtd"
   xmlns:inkscape="http://www.inkscape.org/namespaces/inkscape"
   version="1.0"
   width="468pt"
   height="260pt"
   viewBox="0 0 468 260"
   preserveAspectRatio="xMidYMid meet"
   id="svg2"
   sodipodi:version="0.32"
   inkscape:version="0.44"
   sodipodi:docname="oracle.svg"
   sodipodi:docbase="C:\freeciv\wonders-sources"
   inkscape:export-filename="C:\freeciv\wonders-sources\oracle.png"
   inkscape:export-xdpi="12.184615"
   inkscape:export-ydpi="12.184615">
  <defs
     id="defs291" />
  <sodipodi:namedview
     inkscape:window-height="579"
     inkscape:window-width="847"
     inkscape:pageshadow="2"
     inkscape:pageopacity="0.0"
     guidetolerance="10.0"
     gridtolerance="10.0"
     objecttolerance="10.0"
     borderopacity="1.0"
     bordercolor="#666666"
     pagecolor="#ffffff"
     id="base"
     inkscape:zoom="1.16"
     inkscape:cx="292.5"
     inkscape:cy="162.5"
     inkscape:window-x="127"
     inkscape:window-y="228"
     inkscape:current-layer="svg2" />
  <metadata
     id="metadata4">
Created by potrace 1.5, written by Peter Selinger 2001-2004
<rdf:RDF>
  <cc:Work
     rdf:about="">
    <dc:format>image/svg+xml</dc:format>
    <dc:type
       rdf:resource="http://purl.org/dc/dcmitype/StillImage" />
  </cc:Work>
</rdf:RDF>
</metadata>
  <rect
     style="opacity:1;fill:#f5df6a;fill-opacity:1;stroke:none;stroke-width:5;stroke-linecap:round;stroke-linejoin:round;stroke-miterlimit:4;stroke-dasharray:none;stroke-opacity:1"
     id="rect3353"
     width="468"
     height="260"
     x="0"
     y="-1.4210855e-014" />
  <g
     transform="translate(0,260) scale(0.130000,-0.130000)"
     id="g6"
     stroke="none"
     fill="#000000">
    <path
       d="M0 1000 l0 -1000 377 0 376 0 -7 248 c-3 136 -9 278 -13 316 -5 51 -3 67 5 62 9 -6 9 -1 0 18 -14 33 -6 41 29 28 38 -14 106 -26 78 -13 -20 10 -20 10 0 11 12 1 5 6 -17 12 -21 6 -38 14 -38 20 0 5 -4 6 -10 3 -5 -3 -18 -1 -27 4 -10 6 -13 11 -8 11 6 0 -5 9 -23 20 -20 12 -40 37 -52 64 -10 24 -23 46 -28 50 -5 3 -7 16 -5 29 4 18 -2 26 -22 35 -15 7 -25 18 -22 25 2 6 -2 25 -10 41 -12 23 -13 33 -2 52 9 18 9 27 0 37 -29 36 -71 251 -52 270 8 8 10 2 6 -23 l-5 -35 14 38 c16 41 51 94 76 116 10 9 7 9 -10 -2 -14 -8 -34 -31 -44 -51 -12 -22 -22 -32 -27 -25 -4 8 -8 7 -11 -2 -3 -8 -8 -11 -12 -8 -11 11 15 107 37 135 12 15 22 34 23 42 5 31 52 84 94 104 46 23 82 27 135 15 l30 -6 -30 14 c-16 8 -40 14 -52 15 -26 0 -30 15 -7 24 27 11 61 6 74 -9 7 -8 17 -15 23 -15 5 0 2 9 -9 21 -14 16 -16 24 -7 37 6 9 16 16 23 14 6 -1 18 15 26 35 8 21 19 47 24 58 5 11 10 29 12 40 2 11 12 21 23 23 11 2 28 13 38 23 19 20 35 25 106 33 34 3 50 0 69 -15 l25 -19 -35 0 c-65 0 -130 -84 -127 -164 1 -22 3 -25 6 -9 5 24 32 39 37 20 14 -47 15 -47 66 -47 27 0 50 -4 50 -10 0 -5 6 -10 13 -10 6 0 26 -7 42 -16 17 -9 41 -20 55 -25 24 -8 23 -8 -6 -6 -17 1 -39 -5 -49 -13 -15 -12 -19 -12 -29 1 -16 22 -56 19 -56 -4 0 -18 29 -21 41 -3 4 4 9 4 12 -1 4 -5 -10 -27 -29 -47 -26 -28 -39 -35 -47 -27 -6 6 -28 11 -49 11 -47 0 -53 -18 -45 -129 3 -44 2 -68 -3 -56 -19 46 -8 -3 15 -67 28 -76 24 -91 -22 -109 -20 -7 -23 -15 -21 -56 1 -39 2 -41 5 -14 4 30 7 33 32 28 15 -3 73 -9 128 -13 81 -5 105 -4 129 9 20 11 23 16 12 17 -28 0 -21 20 7 20 14 0 25 -4 25 -10 0 -13 37 -13 45 -1 3 5 1 12 -4 15 -5 3 -7 15 -4 26 3 11 0 20 -6 20 -6 0 -11 -4 -11 -10 0 -11 -49 -14 -74 -4 -9 3 -13 10 -10 15 3 5 1 9 -4 9 -15 0 -22 -28 -9 -33 7 -2 9 -8 5 -12 -13 -14 -85 14 -102 40 l-16 24 68 -6 c37 -3 71 -9 75 -13 5 -4 29 -5 54 -2 32 3 48 1 55 -9 6 -9 11 -10 14 -3 3 8 26 9 67 6 34 -3 86 -6 115 -6 54 0 65 -8 34 -25 -13 -7 -23 -6 -31 2 -10 9 -12 8 -11 -8 4 -35 0 -45 -16 -45 -8 0 -12 5 -9 10 3 6 1 10 -4 10 -6 0 -11 9 -11 19 0 25 -17 36 -33 23 -7 -6 -31 -9 -55 -6 -39 3 -42 2 -42 -22 0 -22 2 -23 20 -14 11 6 20 7 19 3 -4 -21 2 -32 15 -27 8 3 12 12 9 20 -3 8 1 14 11 14 9 0 16 -4 16 -10 0 -5 7 -10 15 -10 8 0 15 -4 15 -8 0 -13 -371 -82 -441 -82 -83 0 -61 -17 81 -63 55 -18 87 -22 120 -14 14 3 47 9 74 12 45 6 49 5 37 -9 -16 -19 -11 -26 18 -29 23 -1 25 -5 13 -25 -5 -7 -17 -10 -28 -6 -15 5 -16 4 -5 -4 12 -9 10 -13 -13 -23 -24 -11 -35 -10 -75 5 -25 9 -66 23 -91 30 -25 7 -57 19 -70 27 -18 9 -61 13 -150 12 -103 -1 -133 -5 -170 -22 -25 -11 -39 -21 -32 -21 7 0 21 4 31 10 28 14 230 21 276 9 22 -6 52 -13 68 -16 15 -3 30 -10 34 -16 4 -7 0 -8 -13 -3 -10 4 -15 3 -10 -1 10 -10 56 -11 50 -1 -12 19 19 5 95 -42 44 -27 85 -50 90 -50 11 0 73 -32 81 -41 3 -4 16 -10 30 -14 13 -4 55 -26 92 -48 50 -30 68 -47 72 -66 2 -14 5 -115 5 -223 0 -109 5 -228 11 -264 6 -37 11 -86 12 -110 0 -24 4 -44 9 -44 5 0 9 -6 9 -14 0 -23 24 -26 190 -26 l158 0 7 65 c4 38 11 65 18 66 25 2 53 6 85 13 24 6 32 13 31 29 0 15 -2 17 -6 7 -9 -23 -24 -30 -70 -30 -40 0 -42 2 -49 35 -7 37 -1 71 17 95 8 11 12 12 16 3 7 -18 38 -16 53 2 7 8 9 15 4 15 -5 0 -3 4 4 8 17 11 5 39 -19 45 -32 9 -21 51 14 55 36 4 57 -18 57 -62 0 -36 -14 -56 -23 -34 -3 7 -6 -2 -6 -20 -1 -20 3 -31 9 -27 6 3 10 3 11 -2 6 -66 6 -114 -2 -118 -5 -4 -9 -18 -9 -32 0 -21 2 -23 15 -13 12 10 15 7 20 -17 17 -83 23 -89 22 -23 0 36 -5 74 -11 85 -7 12 -11 87 -11 195 -1 221 -13 370 -31 370 -16 0 -31 -70 -16 -79 14 -8 18 -66 8 -128 -7 -46 -11 -53 -31 -53 -41 0 -48 21 -35 107 6 43 17 107 25 143 13 61 13 119 2 165 -7 31 10 44 51 39 l37 -4 -33 9 c-46 12 -56 24 -43 49 6 11 11 29 11 40 0 20 47 58 58 47 4 -3 0 -10 -8 -15 -12 -8 -11 -10 7 -10 12 0 28 -3 36 -6 9 -3 -3 14 -24 38 -39 41 -40 44 -34 93 8 56 27 103 55 133 10 11 27 36 38 55 10 20 37 53 61 75 l41 39 -30 -5 c-16 -2 -30 0 -30 4 0 5 13 10 30 11 60 4 164 69 193 119 4 7 0 25 -8 40 -8 16 -15 35 -15 42 0 23 16 12 28 -20 10 -28 27 -40 103 -78 101 -50 176 -109 185 -146 3 -13 11 -21 16 -18 5 4 8 15 5 25 -3 10 0 20 7 23 6 2 2 5 -10 5 -22 1 -67 45 -56 56 4 3 -2 3 -13 0 -20 -7 -20 -6 -1 9 28 22 49 20 80 -9 19 -17 27 -34 26 -57 0 -18 3 -49 6 -69 7 -42 -18 -91 -45 -87 -9 2 -15 -2 -14 -8 5 -28 3 -114 -3 -154 -4 -25 -7 -99 -8 -165 -1 -93 -5 -127 -18 -150 l-17 -30 -1 38 c0 23 -4 36 -10 32 -7 -4 -8 -26 -4 -57 7 -47 6 -51 -12 -45 -16 6 -15 4 4 -12 l23 -20 -22 -43 c-12 -24 -26 -46 -32 -49 -6 -4 -9 -82 -8 -198 2 -174 0 -195 -17 -224 -13 -22 -22 -61 -27 -119 l-7 -88 431 0 431 0 0 1000 0 1000 -1800 0 -1800 0 0 -1000z m1256 908 c53 -36 94 -185 63 -228 -8 -11 -9 -5 -5 25 3 23 -1 57 -9 80 -8 22 -15 47 -15 55 0 20 -47 70 -65 70 -8 0 -15 5 -15 10 0 15 10 12 46 -12z m1374 15 c0 -5 -30 -8 -68 -8 -71 0 -115 -20 -125 -57 -6 -22 -17 -23 -43 -4 -25 19 -9 34 17 17 18 -11 20 -10 15 6 -5 15 3 22 47 35 54 17 157 24 157 11z m106 -157 c12 -106 5 -170 -20 -179 -13 -5 -13 -1 0 28 16 39 19 111 4 120 -5 3 -7 12 -4 19 7 18 -11 23 -106 31 -41 4 -97 11 -124 16 -72 13 -86 12 -62 -6 11 -8 28 -12 39 -9 23 7 65 -38 69 -75 5 -47 -3 -81 -21 -81 -9 0 -24 -9 -34 -20 -19 -22 -37 -26 -37 -8 0 6 -3 8 -6 5 -4 -4 -1 -13 6 -22 7 -9 10 -18 7 -21 -3 -3 -15 8 -28 25 -12 17 -27 27 -32 24 -6 -4 -7 8 -2 33 6 33 13 106 15 164 0 12 10 15 43 12 39 -4 41 -3 22 11 -11 9 -17 19 -12 23 4 4 20 -4 35 -19 23 -22 42 -28 121 -37 56 -7 97 -8 102 -3 6 6 3 25 -6 49 l-16 39 19 -24 c13 -16 23 -50 28 -95z m-198 76 c12 -19 12 -22 1 -17 -19 7 -46 49 -28 43 7 -2 19 -14 27 -26z m-154 3 c3 -9 0 -15 -9 -15 -17 0 -20 -16 -5 -25 6 -3 10 -11 10 -17 0 -6 -8 -4 -19 6 -12 11 -16 25 -13 41 5 28 27 33 36 10z m296 -27 c0 -13 -23 -5 -28 10 -2 7 2 10 12 6 9 -3 16 -11 16 -16z m-70 2 c0 -5 -4 -10 -9 -10 -6 0 -13 5 -16 10 -3 6 1 10 9 10 9 0 16 -4 16 -10z m-35 -49 c3 -5 1 -12 -4 -15 -13 -8 -42 4 -35 15 7 12 31 12 39 0z m85 -11 c0 -5 -12 -10 -27 -10 -22 0 -25 2 -13 10 20 13 40 13 40 0z m44 -15 c-6 -16 -24 -21 -24 -7 0 11 11 22 21 22 5 0 6 -7 3 -15z m-284 -183 c0 -4 -9 -13 -21 -20 -12 -7 -18 -16 -15 -19 3 -3 -1 -18 -9 -34 -8 -15 -12 -35 -9 -43 3 -9 1 -16 -5 -16 -31 0 20 138 52 140 4 0 7 -3 7 -8z m540 -289 c0 -29 -24 -83 -36 -83 -7 0 -13 19 -16 49 -3 44 -1 48 15 40 13 -7 17 -6 17 6 0 9 5 13 10 10 6 -3 10 -13 10 -22z m-1280 -121 c0 -13 -23 -32 -39 -32 -11 0 -10 4 4 20 19 21 35 26 35 12z m-80 -21 c0 -10 -7 -24 -15 -31 -12 -10 -15 -10 -15 3 0 23 11 47 21 47 5 0 9 -8 9 -19z m-79 -74 c-13 -13 -15 11 -4 40 7 16 8 15 11 -6 2 -13 -1 -28 -7 -34z m1405 5 c4 -21 3 -32 -5 -32 -8 0 -8 -5 0 -18 13 -20 4 -92 -10 -92 -14 0 -20 37 -8 49 7 7 7 18 0 33 -11 27 -5 114 8 101 5 -5 12 -23 15 -41z m-1286 19 c0 -10 -25 -21 -48 -21 -12 1 -10 5 8 15 29 17 40 18 40 6z m-165 -33 c-4 -13 -14 -30 -22 -38 -13 -13 -13 -11 -7 15 9 38 13 45 25 45 6 0 7 -10 4 -22z m108 -25 c-6 -15 -63 -18 -63 -4 0 11 15 17 45 17 15 0 21 -5 18 -13z m-58 -43 c-3 -5 -17 -10 -31 -10 -13 0 -24 5 -24 10 0 6 14 10 31 10 17 0 28 -4 24 -10z m627 -652 c6 -13 5 -18 -7 -18 -10 0 -15 10 -14 33 0 17 3 25 6 17 3 -8 10 -23 15 -32z"
       id="path8" />
    <path
       d="M2443 1703 c-13 -2 -23 -11 -23 -19 0 -19 7 -18 32 6 12 11 20 19 17 19 -2 -1 -14 -4 -26 -6z"
       id="path10" />
    <path
       d="M901 1814 c0 -11 3 -14 6 -6 3 7 2 16 -1 19 -3 4 -6 -2 -5 -13z"
       id="path12" />
    <path
       d="M891 1764 c0 -11 3 -14 6 -6 3 7 2 16 -1 19 -3 4 -6 -2 -5 -13z"
       id="path14" />
    <path
       d="M870 1686 c0 -9 5 -16 10 -16 6 0 10 4 10 9 0 6 -4 13 -10 16 -5 3 -10 -1 -10 -9z"
       id="path16" />
    <path
       d="M1140 1670 c20 -13 33 -13 25 0 -3 6 -14 10 -23 10 -15 0 -15 -2 -2 -10z"
       id="path18" />
    <path
       d="M943 1605 c0 -22 2 -30 4 -17 2 12 2 30 0 40 -3 9 -5 -1 -4 -23z"
       id="path20" />
    <path
       d="M753 1616 c5 -12 -1 -19 -17 -26 -24 -9 -41 -35 -37 -59 1 -7 -1 -11 -6 -8 -4 3 -8 -5 -9 -16 0 -12 -4 -31 -8 -42 -3 -11 5 3 18 30 14 28 25 58 25 69 1 15 4 16 16 6 12 -10 15 -10 15 2 0 17 71 44 93 35 8 -3 13 -17 12 -34 -1 -17 -1 -19 2 -5 5 26 20 29 26 5 2 -10 3 -5 1 11 -3 16 -6 31 -7 33 -2 1 -32 5 -67 9 -56 5 -62 4 -57 -10z"
       id="path22" />
    <path
       d="M620 1575 c-7 -8 -9 -15 -6 -15 4 0 14 7 22 15 9 8 11 15 6 15 -5 0 -15 -7 -22 -15z"
       id="path24" />
    <path
       d="M971 1564 c0 -11 3 -14 6 -6 3 7 2 16 -1 19 -3 4 -6 -2 -5 -13z"
       id="path26" />
    <path
       d="M664 1548 l-19 -23 23 19 c21 18 27 26 19 26 -2 0 -12 -10 -23 -22z"
       id="path28" />
    <path
       d="M731 1538 c0 -9 -4 -25 -7 -35 -5 -17 -5 -17 6 0 6 10 9 25 7 35 -4 15 -5 15 -6 0z"
       id="path30" />
    <path
       d="M761 1534 c0 -11 3 -14 6 -6 3 7 2 16 -1 19 -3 4 -6 -2 -5 -13z"
       id="path32" />
    <path
       d="M940 1520 c0 -19 3 -21 12 -12 9 9 9 15 0 24 -9 9 -12 7 -12 -12z"
       id="path34" />
    <path
       d="M646 1474 c-9 -24 -2 -26 12 -4 7 11 8 20 3 20 -5 0 -12 -7 -15 -16z"
       id="path36" />
    <path
       d="M851 1410 c1 -47 5 -94 10 -105 4 -11 5 25 2 80 -7 124 -15 139 -12 25z"
       id="path38" />
    <path
       d="M912 1470 c0 -14 2 -19 5 -12 2 6 2 18 0 25 -3 6 -5 1 -5 -13z"
       id="path40" />
    <path
       d="M962 1470 c0 -14 2 -19 5 -12 2 6 2 18 0 25 -3 6 -5 1 -5 -13z"
       id="path42" />
    <path
       d="M981 1468 c0 -14 -4 -35 -7 -45 -5 -17 -5 -17 6 0 6 10 9 30 7 45 l-4 27 -2 -27z"
       id="path44" />
    <path
       d="M872 1455 c0 -11 4 -33 8 -50 7 -27 8 -27 8 -5 0 14 -4 36 -8 50 -6 20 -8 21 -8 5z"
       id="path46" />
    <path
       d="M560 1440 c-6 -11 -8 -20 -6 -20 3 0 10 9 16 20 6 11 8 20 6 20 -3 0 -10 -9 -16 -20z"
       id="path48" />
    <path
       d="M696 1426 c-3 -13 -9 -32 -12 -43 -5 -12 -4 -15 3 -8 11 10 28 75 20 75 -3 0 -8 -11 -11 -24z"
       id="path50" />
    <path
       d="M1002 1430 c0 -14 2 -19 5 -12 2 6 2 18 0 25 -3 6 -5 1 -5 -13z"
       id="path52" />
    <path
       d="M920 1415 c0 -8 2 -15 4 -15 2 0 6 7 10 15 3 8 1 15 -4 15 -6 0 -10 -7 -10 -15z"
       id="path54" />
    <path
       d="M541 1394 c0 -11 3 -14 6 -6 3 7 2 16 -1 19 -3 4 -6 -2 -5 -13z"
       id="path56" />
    <path
       d="M636 1395 c-9 -26 -7 -32 5 -12 6 10 9 21 6 23 -2 3 -7 -2 -11 -11z"
       id="path58" />
    <path
       d="M731 1394 c0 -11 3 -14 6 -6 3 7 2 16 -1 19 -3 4 -6 -2 -5 -13z"
       id="path60" />
    <path
       d="M751 1384 c0 -11 3 -14 6 -6 3 7 2 16 -1 19 -3 4 -6 -2 -5 -13z"
       id="path62" />
    <path
       d="M2411 1357 c-7 -13 -11 -39 -8 -58 4 -33 4 -33 5 7 1 22 7 45 14 52 6 6 9 14 7 17 -3 3 -11 -5 -18 -18z"
       id="path64" />
    <path
       d="M2911 1364 c0 -11 3 -14 6 -6 3 7 2 16 -1 19 -3 4 -6 -2 -5 -13z"
       id="path66" />
    <path
       d="M720 1365 c0 -13 21 -35 33 -35 5 0 7 6 5 13 -3 6 -9 11 -14 10 -5 0 -12 4 -16 10 -5 8 -8 8 -8 2z"
       id="path68" />
    <path
       d="M2361 1295 c-7 -20 -13 -62 -14 -93 -1 -31 -3 -47 -5 -34 -2 12 -8 20 -13 17 -12 -8 -12 11 0 52 5 18 6 35 1 38 -4 3 -11 -13 -15 -35 -7 -42 12 -130 28 -130 5 0 5 -9 2 -20 -4 -13 -2 -20 7 -20 7 0 24 -3 38 -6 23 -5 24 -4 8 9 -10 8 -18 19 -18 26 0 6 -5 11 -11 11 -12 0 -7 154 7 198 10 35 -1 25 -15 -13z"
       id="path70" />
    <path
       d="M688 1309 c-21 -13 -5 -17 37 -9 22 4 38 9 35 10 -13 6 -62 5 -72 -1z"
       id="path72" />
    <path
       d="M2737 1313 c-2 -5 -1 -39 4 -78 9 -75 10 -149 2 -107 -2 12 -9 20 -14 17 -5 -4 -10 6 -10 22 -1 23 -3 20 -9 -12 -9 -45 -9 -45 16 -49 23 -3 31 -26 10 -26 -9 0 -16 -4 -16 -9 0 -6 9 -9 20 -8 22 1 23 5 19 127 -1 41 -2 87 -2 103 -1 26 -11 36 -20 20z"
       id="path74" />
    <path
       d="M891 1284 c0 -11 3 -14 6 -6 3 7 2 16 -1 19 -3 4 -6 -2 -5 -13z"
       id="path76" />
    <path
       d="M2704 1292 c4 -7 1 -12 -7 -12 -15 0 -68 -39 -54 -40 5 0 15 7 24 15 22 23 30 9 8 -15 -10 -11 -16 -22 -14 -24 2 -2 16 13 32 34 19 27 24 41 16 46 -8 4 -9 3 -5 -4z"
       id="path78" />
    <path
       d="M920 1272 c0 -14 -5 -20 -13 -16 -11 4 -13 -13 -13 -76 1 -73 3 -80 21 -80 12 0 16 3 8 8 -6 4 -13 27 -14 50 -3 33 1 46 14 53 11 7 15 19 13 40 -4 36 -16 51 -16 21z"
       id="path80" />
    <path
       d="M743 1230 c0 -25 2 -35 4 -22 2 12 2 32 0 45 -2 12 -4 2 -4 -23z"
       id="path82" />
    <path
       d="M2400 1240 c0 -5 5 -10 10 -10 6 0 10 5 10 10 0 6 -4 10 -10 10 -5 0 -10 -4 -10 -10z"
       id="path84" />
    <path
       d="M2722 1230 c0 -14 2 -19 5 -12 2 6 2 18 0 25 -3 6 -5 1 -5 -13z"
       id="path86" />
    <path
       d="M2435 1220 c4 -6 29 -10 57 -10 64 0 60 5 -10 13 -32 4 -50 2 -47 -3z"
       id="path88" />
    <path
       d="M2282 1190 c0 -19 2 -27 5 -17 2 9 2 25 0 35 -3 9 -5 1 -5 -18z"
       id="path90" />
    <path
       d="M2670 1165 c0 -5 5 -17 10 -25 5 -8 10 -10 10 -5 0 6 -5 17 -10 25 -5 8 -10 11 -10 5z"
       id="path92" />
    <path
       d="M2648 1127 c-3 -19 -2 -25 4 -19 6 6 8 18 6 28 -3 14 -5 12 -10 -9z"
       id="path94" />
    <path
       d="M2662 1098 c-7 -7 -12 -19 -12 -28 0 -23 -20 -39 -38 -32 -14 5 -15 4 -2 -10 11 -11 17 -12 22 -4 5 7 8 6 9 -4 0 -8 7 5 14 30 13 44 13 44 9 -40 -5 -103 2 -95 11 14 9 100 24 87 26 -22 1 -71 3 -80 15 -65 7 10 8 20 3 21 -5 2 -9 32 -9 66 0 55 -11 86 -30 86 -3 0 -11 -5 -18 -12z"
       id="path96" />
    <path
       d="M761 1044 c0 -11 3 -14 6 -6 3 7 2 16 -1 19 -3 4 -6 -2 -5 -13z"
       id="path98" />
    <path
       d="M595 1020 c3 -5 8 -10 11 -10 2 0 4 5 4 10 0 6 -5 10 -11 10 -5 0 -7 -4 -4 -10z"
       id="path100" />
    <path
       d="M750 1014 c-19 -7 -46 -13 -59 -13 -17 -1 -22 -4 -15 -11 6 -6 28 -3 63 10 30 11 58 17 64 13 15 -9 -113 -53 -158 -53 -32 -1 -37 -3 -22 -11 9 -6 25 -8 35 -5 150 43 194 59 181 66 -29 16 -55 17 -89 4z"
       id="path102" />
    <path
       d="M2378 1023 c12 -2 32 -2 45 0 12 2 2 4 -23 4 -25 0 -35 -2 -22 -4z"
       id="path104" />
    <path
       d="M2730 994 c0 -14 4 -23 10 -19 6 3 10 15 10 26 0 10 -4 19 -10 19 -5 0 -10 -12 -10 -26z"
       id="path106" />
    <path
       d="M620 999 c0 -5 5 -7 10 -4 6 3 10 8 10 11 0 2 -4 4 -10 4 -5 0 -10 -5 -10 -11z"
       id="path108" />
    <path
       d="M2325 989 c40 -9 106 -9 127 -1 10 4 -22 7 -70 7 -51 1 -75 -2 -57 -6z"
       id="path110" />
    <path
       d="M2857 983 c-4 -3 -7 -16 -6 -27 0 -19 1 -19 10 3 10 24 8 36 -4 24z"
       id="path112" />
    <path
       d="M2315 970 c27 -12 43 -12 25 0 -8 5 -22 9 -30 9 -10 0 -8 -3 5 -9z"
       id="path114" />
    <path
       d="M852 963 c-6 -3 -9 -9 -6 -15 4 -6 10 -5 16 3 7 10 8 8 3 -6 -3 -11 -9 -32 -12 -47 -5 -26 -23 -40 -23 -18 0 6 -3 10 -7 10 -5 0 -8 -27 -9 -60 -1 -33 2 -60 6 -60 9 0 100 -86 100 -94 0 -3 -7 -6 -15 -6 -21 0 -19 -13 6 -28 14 -9 38 -11 77 -6 32 3 85 1 122 -6 36 -7 115 -14 175 -15 61 -2 112 -4 115 -5 3 -1 9 -2 13 -1 5 1 6 -4 3 -11 -3 -7 -9 -21 -12 -30 -4 -10 -9 -18 -13 -18 -4 0 -16 -8 -27 -18 -29 -27 -93 -51 -158 -62 -33 -5 -63 -14 -66 -20 -4 -6 -8 -37 -9 -68 -1 -31 -4 -70 -5 -87 -6 -47 -26 -269 -26 -282 0 -10 29 -13 110 -13 l110 0 0 25 c0 24 -12 30 -47 26 -7 -1 -13 3 -13 9 0 5 -6 10 -13 10 -20 0 -67 43 -67 60 0 8 14 40 30 70 16 30 43 83 61 117 l31 62 -28 25 c-18 15 -48 27 -77 31 -27 4 -46 9 -43 12 11 11 105 -10 125 -28 27 -26 35 -20 67 48 24 50 28 54 42 39 10 -9 16 -31 15 -53 -1 -36 -1 -37 6 -8 5 19 2 40 -6 57 -16 34 -16 41 0 32 6 -4 9 -4 5 1 -5 5 1 15 13 23 13 9 19 23 17 40 -3 26 -6 27 -67 30 -62 3 -63 3 -46 23 24 26 1 25 -32 -1 -31 -24 -62 -28 -43 -5 11 13 8 13 -19 4 -19 -7 -36 -8 -44 -2 -6 5 -46 10 -87 11 -41 2 -88 9 -104 17 -16 8 -33 15 -39 15 -25 0 -91 103 -84 130 3 11 1 20 -4 20 -28 0 5 100 38 119 15 8 13 10 -12 9 -16 -1 -36 -3 -43 -5z m-2 -119 c0 -8 -4 -12 -10 -9 -5 3 -10 10 -10 16 0 5 5 9 10 9 6 0 10 -7 10 -16z m344 -605 c-28 -11 -46 -11 -39 1 4 6 11 8 16 5 5 -4 9 -2 9 4 0 6 8 7 17 4 15 -6 15 -7 -3 -14z"
       id="path116" />
    <path
       d="M2224 951 c4 -5 25 -12 47 -16 54 -9 214 4 202 16 -6 6 -40 5 -87 -2 -58 -9 -87 -9 -115 0 -46 13 -54 14 -47 2z"
       id="path118" />
    <path
       d="M2583 954 c3 -6 -1 -30 -9 -53 -8 -24 -13 -45 -11 -48 3 -2 12 17 21 43 12 36 13 51 5 58 -9 8 -10 8 -6 0z"
       id="path120" />
    <path
       d="M738 943 c7 -3 16 -2 19 1 4 3 -2 6 -13 5 -11 0 -14 -3 -6 -6z"
       id="path122" />
    <path
       d="M787 924 c-15 -15 -24 -31 -20 -37 4 -7 8 -6 11 3 3 7 17 24 31 36 14 13 21 24 15 24 -6 0 -23 -12 -37 -26z"
       id="path124" />
    <path
       d="M980 932 c-19 -9 -35 -23 -35 -30 0 -7 -5 -16 -12 -20 -7 -5 -12 -28 -11 -55 0 -39 6 -53 34 -82 21 -22 42 -35 58 -35 36 0 33 16 -6 29 -30 11 -31 12 -13 31 16 18 16 20 2 20 -10 0 -17 -7 -17 -15 0 -21 -17 -19 -30 4 -14 27 -13 41 5 41 8 0 15 5 15 10 0 6 -7 10 -15 10 -8 0 -15 9 -15 20 0 25 66 60 102 53 14 -3 29 0 32 6 5 7 -6 11 -31 12 -30 0 -34 2 -18 9 13 6 15 9 5 9 -8 0 -31 -8 -50 -17z m-5 -22 c-3 -5 -12 -10 -18 -10 -7 0 -6 4 3 10 19 12 23 12 15 0z"
       id="path126" />
    <path
       d="M1095 929 c-7 -10 0 -12 30 -10 17 2 17 0 5 -8 -18 -13 -1 -14 18 -2 10 6 6 11 -17 19 -19 7 -33 7 -36 1z"
       id="path128" />
    <path
       d="M2615 885 c-4 -31 -5 -58 -3 -61 3 -2 8 21 12 52 4 31 5 59 2 61 -2 3 -8 -21 -11 -52z"
       id="path130" />
    <path
       d="M2438 923 c7 -3 16 -2 19 1 4 3 -2 6 -13 5 -11 0 -14 -3 -6 -6z"
       id="path132" />
    <path
       d="M1240 905 c-8 -10 -9 -15 -1 -15 6 0 14 -12 17 -27 7 -24 8 -25 14 -8 6 15 9 9 15 -26 4 -26 5 -55 2 -65 -3 -11 -6 -5 -7 16 l-2 35 -8 -35 c-4 -19 -11 -43 -15 -52 -4 -11 -3 -18 3 -18 6 0 13 10 15 23 4 22 4 22 6 0 0 -12 -6 -29 -15 -37 -18 -18 -11 -21 16 -6 11 6 24 20 30 33 11 21 11 22 -5 2 -15 -19 -15 -16 -10 35 7 61 -6 117 -25 112 -7 -2 -10 3 -7 11 9 24 -8 40 -23 22z"
       id="path134" />
    <path
       d="M2653 890 c1 -33 -35 -140 -47 -140 -1 0 -1 15 1 33 2 17 -5 1 -16 -38 -20 -70 -20 -98 -1 -54 6 13 21 42 35 64 13 22 29 57 35 78 6 20 15 37 20 37 6 0 10 5 10 11 0 8 -4 8 -14 0 -12 -10 -15 -8 -19 11 -4 22 -4 22 -4 -2z"
       id="path136" />
    <path
       d="M2827 913 c-10 -16 -2 -30 26 -43 19 -10 20 -9 6 2 -9 8 -18 22 -21 33 -2 14 -6 16 -11 8z"
       id="path138" />
    <path
       d="M985 880 c3 -5 14 -10 23 -10 15 0 15 2 2 10 -20 13 -33 13 -25 0z"
       id="path140" />
    <path
       d="M1034 868 c1 -14 -4 -22 -12 -20 -8 1 -11 -2 -7 -8 4 -6 -1 -18 -11 -25 -18 -14 -18 -14 4 -15 13 0 21 -4 18 -9 -3 -5 1 -11 9 -15 8 -3 15 -1 15 4 0 6 5 10 10 10 6 0 10 -7 10 -15 0 -8 -4 -15 -10 -15 -21 0 -10 -47 13 -57 27 -13 84 7 93 32 3 8 10 12 15 9 5 -3 9 2 9 10 0 24 -15 19 -29 -8 -13 -24 -60 -39 -80 -26 -14 8 -8 80 7 80 6 0 12 11 12 25 0 14 -5 25 -11 25 -5 0 -8 4 -4 10 3 5 12 7 20 3 8 -3 15 -1 15 5 0 16 -28 22 -34 6 -3 -8 -14 -14 -25 -14 -14 0 -19 5 -15 15 4 8 2 15 -4 15 -5 0 -9 -10 -8 -22z m29 -44 c-5 -17 -23 -16 -23 1 0 9 6 15 13 13 6 -3 11 -9 10 -14z"
       id="path142" />
    <path
       d="M1160 875 c-11 -13 -10 -14 3 -9 11 4 18 -1 21 -18 3 -12 7 -32 9 -43 3 -11 5 -1 6 21 1 48 -19 73 -39 49z"
       id="path144" />
    <path
       d="M2388 883 c7 -3 16 -2 19 1 4 3 -2 6 -13 5 -11 0 -14 -3 -6 -6z"
       id="path146" />
    <path
       d="M780 856 c0 -9 5 -16 10 -16 6 0 10 4 10 9 0 6 -4 13 -10 16 -5 3 -10 -1 -10 -9z"
       id="path148" />
    <path
       d="M2430 860 c0 -5 5 -10 10 -10 6 0 10 5 10 10 0 6 -4 10 -10 10 -5 0 -10 -4 -10 -10z"
       id="path150" />
    <path
       d="M1212 820 c0 -19 2 -27 5 -17 2 9 2 25 0 35 -3 9 -5 1 -5 -18z"
       id="path152" />
    <path
       d="M1141 830 c-18 -11 0 -19 23 -10 16 5 17 8 4 12 -8 4 -21 3 -27 -2z"
       id="path154" />
    <path
       d="M2210 831 c0 -5 9 -7 20 -4 11 3 20 7 20 9 0 2 -9 4 -20 4 -11 0 -20 -4 -20 -9z"
       id="path156" />
    <path
       d="M2365 830 c-3 -5 -1 -10 4 -10 6 0 11 5 11 10 0 6 -2 10 -4 10 -3 0 -8 -4 -11 -10z"
       id="path158" />
    <path
       d="M2551 824 c0 -11 3 -14 6 -6 3 7 2 16 -1 19 -3 4 -6 -2 -5 -13z"
       id="path160" />
    <path
       d="M2780 827 c0 -8 -7 -23 -16 -31 -8 -9 -11 -16 -5 -16 6 0 11 -8 12 -17 1 -10 5 2 10 26 5 25 6 47 4 50 -3 2 -5 -3 -5 -12z"
       id="path162" />
    <path
       d="M767 823 c-4 -3 -7 -11 -7 -17 0 -6 5 -5 12 2 6 6 9 14 7 17 -3 3 -9 2 -12 -2z"
       id="path164" />
    <path
       d="M2285 810 c3 -5 8 -10 11 -10 2 0 4 5 4 10 0 6 -5 10 -11 10 -5 0 -7 -4 -4 -10z"
       id="path166" />
    <path
       d="M2565 778 c-8 -30 -34 -98 -47 -122 -10 -19 7 -40 23 -30 4 2 10 -2 12 -8 3 -7 6 -2 6 11 1 20 -1 21 -14 11 -20 -17 -19 -13 11 75 14 42 24 78 21 81 -3 3 -8 -5 -12 -18z"
       id="path168" />
    <path
       d="M1120 775 c7 -9 15 -13 17 -11 7 7 -7 26 -19 26 -6 0 -6 -6 2 -15z"
       id="path170" />
    <path
       d="M2791 774 c0 -11 3 -14 6 -6 3 7 2 16 -1 19 -3 4 -6 -2 -5 -13z"
       id="path172" />
    <path
       d="M800 745 c0 -8 5 -15 10 -15 6 0 10 7 10 15 0 8 -4 15 -10 15 -5 0 -10 -7 -10 -15z"
       id="path174" />
    <path
       d="M2701 720 c-16 -23 -19 -35 -12 -48 9 -15 10 -14 11 7 0 14 7 33 17 43 9 10 14 20 11 23 -2 3 -14 -9 -27 -25z"
       id="path176" />
    <path
       d="M2511 724 c0 -11 3 -14 6 -6 3 7 2 16 -1 19 -3 4 -6 -2 -5 -13z"
       id="path178" />
    <path
       d="M2783 695 c0 -27 2 -38 4 -22 2 15 2 37 0 50 -2 12 -4 0 -4 -28z"
       id="path180" />
    <path
       d="M1334 709 c-8 -13 13 -36 23 -24 5 4 2 10 -5 12 -6 3 -10 9 -6 14 3 5 3 9 0 9 -3 0 -8 -5 -12 -11z"
       id="path182" />
    <path
       d="M1201 689 c-13 -5 -21 -12 -18 -15 3 -3 18 1 34 10 31 17 21 20 -16 5z"
       id="path184" />
    <path
       d="M2649 673 c-9 -59 -4 -86 6 -34 2 11 7 26 10 31 3 6 1 10 -4 10 -6 0 -12 -3 -12 -7z"
       id="path186" />
    <path
       d="M2457 629 c-12 -14 -24 -18 -39 -13 -14 4 -18 2 -14 -5 12 -18 50 -12 64 10 18 28 10 33 -11 8z"
       id="path188" />
    <path
       d="M2691 604 c0 -11 3 -14 6 -6 3 7 2 16 -1 19 -3 4 -6 -2 -5 -13z"
       id="path190" />
    <path
       d="M768 337 c1 -150 4 -288 6 -307 1 -19 3 92 4 247 0 156 4 288 8 294 3 6 0 17 -7 25 -12 11 -14 -29 -11 -259z"
       id="path192" />
    <path
       d="M2505 578 c-9 -33 -9 -39 -1 -93 2 -18 -2 -37 -11 -47 -10 -11 -13 -24 -8 -35 5 -12 9 -14 12 -5 7 19 25 14 19 -5 -3 -10 -1 -25 4 -33 5 -8 10 -10 10 -5 5 111 28 233 29 158 1 -17 6 -35 11 -38 6 -4 10 -96 10 -242 0 -130 3 -234 6 -231 3 4 6 121 7 262 1 140 -1 246 -5 235 -10 -27 -21 -24 -14 5 3 14 3 31 0 39 -7 19 -39 15 -40 -4 0 -8 -2 -27 -3 -44 -1 -26 -3 -28 -12 -12 -11 19 -8 79 5 110 5 10 4 17 -2 17 -5 0 -13 -15 -17 -32z"
       id="path194" />
    <path
       d="M2282 570 c0 -14 2 -19 5 -12 2 6 2 18 0 25 -3 6 -5 1 -5 -13z"
       id="path196" />
    <path
       d="M2614 560 c5 -24 4 -24 -9 -6 -15 19 -15 19 -15 -2 0 -12 5 -22 10 -22 6 0 10 -96 10 -267 0 -146 3 -264 6 -260 3 3 7 115 8 249 1 188 4 242 14 241 6 -2 12 7 12 19 0 12 -3 18 -7 14 -4 -4 -13 8 -20 26 -9 23 -12 25 -9 8z"
       id="path198" />
    <path
       d="M800 458 c0 -62 -3 -191 -7 -285 l-6 -173 117 0 117 0 -1 224 c-1 237 -7 266 -50 266 -23 0 -100 29 -117 44 -32 28 -43 36 -48 36 -3 0 -5 -51 -5 -112z m90 5 c-30 -6 -60 -31 -60 -50 0 -7 -4 -13 -10 -13 -17 0 -11 20 15 45 15 16 34 24 52 24 27 -2 27 -2 3 -6z m93 0 c-7 -2 -19 -2 -25 0 -7 3 -2 5 12 5 14 0 19 -2 13 -5z m-45 -192 c17 -5 39 -17 48 -25 20 -21 6 -21 -17 0 -19 17 -71 22 -109 11 -24 -8 -24 -7 -6 7 23 18 39 20 84 7z"
       id="path200" />
    <path
       d="M2691 554 c0 -11 3 -14 6 -6 3 7 2 16 -1 19 -3 4 -6 -2 -5 -13z"
       id="path202" />
    <path
       d="M2310 540 c0 -5 6 -10 14 -10 8 0 18 5 21 10 3 6 -3 10 -14 10 -12 0 -21 -4 -21 -10z"
       id="path204" />
    <path
       d="M2170 505 c0 -19 4 -35 8 -35 4 0 6 16 4 35 -2 19 -6 35 -8 35 -2 0 -4 -16 -4 -35z"
       id="path206" />
    <path
       d="M2296 505 c-3 -9 -6 -22 -5 -28 0 -7 5 -1 10 12 5 13 8 26 5 28 -2 2 -6 -3 -10 -12z"
       id="path208" />
    <path
       d="M2692 500 c0 -14 2 -19 5 -12 2 6 2 18 0 25 -3 6 -5 1 -5 -13z"
       id="path210" />
    <path
       d="M2201 484 c0 -11 3 -14 6 -6 3 7 2 16 -1 19 -3 4 -6 -2 -5 -13z"
       id="path212" />
    <path
       d="M2463 485 c4 -8 2 -17 -3 -20 -6 -4 -10 -14 -10 -23 0 -11 6 -6 15 12 18 34 19 46 4 46 -6 0 -9 -7 -6 -15z"
       id="path214" />
    <path
       d="M1062 290 c-1 -102 -4 -210 -7 -240 -4 -48 -4 -51 5 -23 6 19 9 118 7 240 l-2 208 -3 -185z"
       id="path216" />
    <path
       d="M2690 455 c0 -8 2 -15 4 -15 2 0 6 7 10 15 3 8 1 15 -4 15 -6 0 -10 -7 -10 -15z"
       id="path218" />
    <path
       d="M1437 439 c10 -12 10 -18 1 -27 -8 -8 -9 -12 -1 -12 19 0 22 28 5 42 -15 11 -15 11 -5 -3z"
       id="path220" />
    <path
       d="M2425 421 c-3 -5 -1 -12 5 -16 5 -3 10 1 10 9 0 18 -6 21 -15 7z"
       id="path222" />
    <path
       d="M1481 383 c6 -16 7 -49 3 -78 -9 -70 3 -53 15 20 6 40 6 64 -1 73 -18 21 -28 13 -17 -15z"
       id="path224" />
    <path
       d="M2359 392 c12 -8 8 -12 -19 -19 -18 -5 -35 -14 -38 -21 -6 -19 46 -14 67 7 10 10 25 21 32 24 10 4 10 6 -3 6 -9 1 -25 4 -35 7 -14 5 -15 4 -4 -4z"
       id="path226" />
    <path
       d="M1393 350 c0 -25 2 -35 4 -22 2 12 2 32 0 45 -2 12 -4 2 -4 -23z"
       id="path228" />
    <path
       d="M1431 363 c0 -25 1 -26 9 -8 12 27 12 35 0 35 -5 0 -10 -12 -9 -27z"
       id="path230" />
    <path
       d="M2690 348 c0 -49 5 -47 13 5 3 20 2 37 -4 37 -5 0 -9 -19 -9 -42z"
       id="path232" />
    <path
       d="M1524 280 c0 -58 1 -81 3 -52 2 28 2 76 0 105 -2 28 -3 5 -3 -53z"
       id="path234" />
    <path
       d="M1572 288 c2 -61 2 -61 5 -13 3 27 9 55 15 62 8 10 6 13 -6 13 -13 0 -16 -11 -14 -62z"
       id="path236" />
    <path
       d="M2472 325 c0 -16 2 -22 5 -12 2 9 2 23 0 30 -3 6 -5 -1 -5 -18z"
       id="path238" />
    <path
       d="M1421 314 c0 -11 3 -14 6 -6 3 7 2 16 -1 19 -3 4 -6 -2 -5 -13z"
       id="path240" />
    <path
       d="M2290 314 c0 -8 5 -12 10 -9 6 3 10 10 10 16 0 5 -4 9 -10 9 -5 0 -10 -7 -10 -16z"
       id="path242" />
    <path
       d="M2507 324 c-11 -11 -8 -26 3 -19 18 11 10 -125 -15 -272 -3 -18 -2 -33 3 -33 11 0 21 70 29 201 5 89 -3 140 -20 123z"
       id="path244" />
    <path
       d="M1668 278 c5 -71 10 -77 11 -15 0 31 -2 57 -7 57 -4 0 -6 -19 -4 -42z"
       id="path246" />
    <path
       d="M1607 185 c3 -66 9 -127 14 -135 5 -9 6 5 3 35 -3 28 -9 88 -14 135 -8 75 -8 71 -3 -35z"
       id="path248" />
    <path
       d="M2492 235 c0 -16 2 -22 5 -12 2 9 2 23 0 30 -3 6 -5 -1 -5 -18z"
       id="path250" />
    <path
       d="M1251 219 c-13 -39 -14 -46 -2 -33 9 10 24 64 17 64 -2 0 -9 -14 -15 -31z"
       id="path252" />
    <path
       d="M1372 230 c0 -14 2 -19 5 -12 2 6 2 18 0 25 -3 6 -5 1 -5 -13z"
       id="path254" />
    <path
       d="M1472 225 c0 -16 2 -22 5 -12 2 9 2 23 0 30 -3 6 -5 -1 -5 -18z"
       id="path256" />
    <path
       d="M2131 208 c1 -17 2 -19 6 -5 5 21 31 23 39 2 4 -8 10 -13 15 -10 17 11 -4 35 -32 35 -24 0 -29 -4 -28 -22z"
       id="path258" />
    <path
       d="M1392 200 c0 -14 2 -19 5 -12 2 6 2 18 0 25 -3 6 -5 1 -5 -13z"
       id="path260" />
    <path
       d="M1362 180 c0 -14 2 -19 5 -12 2 6 2 18 0 25 -3 6 -5 1 -5 -13z"
       id="path262" />
    <path
       d="M1420 119 c-7 -39 -10 -73 -7 -75 6 -6 12 24 22 99 10 73 -2 56 -15 -24z"
       id="path264" />
    <path
       d="M1462 164 c-1 -17 -4 -47 -7 -65 -5 -31 -5 -32 5 -9 6 13 9 42 7 65 -3 32 -4 34 -5 9z"
       id="path266" />
    <path
       d="M1226 155 c-9 -26 -7 -32 5 -12 6 10 9 21 6 23 -2 3 -7 -2 -11 -11z"
       id="path268" />
    <path
       d="M1376 153 c-6 -14 -5 -15 5 -6 7 7 10 15 7 18 -3 3 -9 -2 -12 -12z"
       id="path270" />
    <path
       d="M1563 110 c0 -25 2 -35 4 -22 2 12 2 32 0 45 -2 12 -4 2 -4 -23z"
       id="path272" />
    <path
       d="M1665 120 c4 -19 11 -39 15 -44 5 -5 5 8 0 29 -11 47 -25 61 -15 15z"
       id="path274" />
    <path
       d="M2310 130 c-12 -8 -11 -10 8 -10 12 0 22 5 22 10 0 13 -11 13 -30 0z"
       id="path276" />
    <path
       d="M1350 130 c0 -3 -4 -20 -9 -38 -6 -20 -6 -30 0 -27 5 4 9 14 10 23 0 14 2 13 9 -3 9 -20 9 -20 9 0 0 11 -4 27 -9 35 -5 8 -10 13 -10 10z"
       id="path278" />
    <path
       d="M1522 110 c0 -14 3 -45 7 -70 l8 -45 1 45 c0 25 -4 56 -8 70 l-8 25 0 -25z"
       id="path280" />
    <path
       d="M1342 20 c0 -14 2 -19 5 -12 2 6 2 18 0 25 -3 6 -5 1 -5 -13z"
       id="path282" />
    <path
       d="M2461 24 c0 -11 3 -14 6 -6 3 7 2 16 -1 19 -3 4 -6 -2 -5 -13z"
       id="path284" />
    <path
       d="M1370 14 c0 -10 14 -14 53 -13 56 1 55 3 -10 18 -35 7 -43 6 -43 -5z"
       id="path286" />
    <path
       d="M1550 10 c0 -5 7 -10 15 -10 8 0 15 5 15 10 0 6 -7 10 -15 10 -8 0 -15 -4 -15 -10z"
       id="path288" />
  </g>
</svg>
