<?xml version="1.0" encoding="UTF-8" standalone="no"?>
<!-- Creator: CorelDRAW -->
<svg
   xmlns:dc="http://purl.org/dc/elements/1.1/"
   xmlns:cc="http://web.resource.org/cc/"
   xmlns:rdf="http://www.w3.org/1999/02/22-rdf-syntax-ns#"
   xmlns:svg="http://www.w3.org/2000/svg"
   xmlns="http://www.w3.org/2000/svg"
   xmlns:xlink="http://www.w3.org/1999/xlink"
   xmlns:sodipodi="http://sodipodi.sourceforge.net/DTD/sodipodi-0.dtd"
   xmlns:inkscape="http://www.inkscape.org/namespaces/inkscape"
   xml:space="preserve"
   width="6000"
   height="4000"
   style="shape-rendering:geometricPrecision; text-rendering:geometricPrecision; image-rendering:optimizeQuality; fill-rule:evenodd; clip-rule:evenodd"
   viewBox="0 0 2550 3300"
   sodipodi:version="0.32"
   inkscape:version="0.44"
   sodipodi:docname="womens_suffrage.svg"
   sodipodi:docbase="C:\freeciv\wonders-sources"
   id="svg2"
   version="1.0"
   inkscape:export-filename="C:\freeciv\wonders-sources\womens_suffrage.png"
   inkscape:export-xdpi="0.99000001"
   inkscape:export-ydpi="0.99000001"><metadata
   id="metadata22"><rdf:RDF><cc:Work
       rdf:about=""><dc:format>image/svg+xml</dc:format><dc:type
         rdf:resource="http://purl.org/dc/dcmitype/StillImage" /></cc:Work></rdf:RDF></metadata><sodipodi:namedview
   inkscape:window-height="579"
   inkscape:window-width="847"
   inkscape:pageshadow="2"
   inkscape:pageopacity="0.0"
   guidetolerance="10.0"
   gridtolerance="10.0"
   objecttolerance="10.0"
   borderopacity="1.0"
   bordercolor="#666666"
   pagecolor="#ffffff"
   id="namedview20"
   showguides="true"
   inkscape:guide-bbox="true"
   inkscape:zoom="0.09425"
   inkscape:cx="3000"
   inkscape:cy="2036.5836"
   inkscape:window-x="-4"
   inkscape:window-y="-4"
   inkscape:current-layer="svg2"
   width="1200px"
   height="1200px"><sodipodi:guide
     orientation="horizontal"
     position="3351.1628"
     id="guide1912" /><sodipodi:guide
     orientation="vertical"
     position="81.860465"
     id="guide1914" /></sodipodi:namedview>
 <defs
   id="defs4"><linearGradient
   id="linearGradient1888"><stop
     style="stop-color:#a0a0a0;stop-opacity:1;"
     offset="0"
     id="stop1890" /><stop
     id="stop1906"
     offset="0.5"
     style="stop-color:white;stop-opacity:1;" /><stop
     id="stop1904"
     offset="1"
     style="stop-color:#a0a0a0;stop-opacity:1;" /></linearGradient>
  <style
   type="text/css"
   id="style6">
   
    .fil0 {fill:#5B197B}
    .fil1 {fill:#DDC6EA}
    .fil3 {fill:#DDCAED}
    .fil2 {fill:#DEC5ED}
   
  </style>
 
  <metadata
   id="CorelCorpID_0Corel-Layer" />
  <sodipodi:namedview
   inkscape:current-layer="svg2"
   inkscape:window-y="-4"
   inkscape:window-x="-4"
   inkscape:cy="881.8508"
   inkscape:cx="460.22237"
   inkscape:zoom="0.42437178"
   id="base"
   pagecolor="#ffffff"
   bordercolor="#666666"
   borderopacity="1.0"
   objecttolerance="10.0"
   gridtolerance="10.0"
   guidetolerance="10.0"
   inkscape:pageopacity="0.0"
   inkscape:pageshadow="2"
   inkscape:window-width="1024"
   inkscape:window-height="719" />
  
 
   
   
  
    
    
    
    
    
    
   <linearGradient
   inkscape:collect="always"
   xlink:href="#linearGradient1888"
   id="linearGradient1894"
   x1="1163.3953"
   y1="0"
   x2="1163.3953"
   y2="3475.0662"
   gradientUnits="userSpaceOnUse" /></defs>
 <rect
   id="_39056688"
   class="fil0"
   x="-1200"
   y="-2.2737368e-013"
   width="4950"
   height="3300"
   style="fill:url(#linearGradient1894);fill-opacity:1.0"
   inkscape:export-xdpi="0.99000001"
   inkscape:export-ydpi="0.99000001" />
<g
   id="g3808"
   transform="matrix(0.828105,0,0,0.828105,235.0523,245.0315)"><path
     id="path3790"
     class="fil1"
     d="M 1329.8362,631.18373 L 1379.1425,1027.5887 C 1389.2315,1033.858 1397.0953,1041.4974 1417.7575,1041.4974 C 1495.0642,1041.4974 1554.5305,965.68603 1554.5305,914.49843 L 1554.5305,875.41933 C 1554.5305,772.97833 1569.8872,582.33833 1466.6045,582.33833 L 1456.8344,582.33833 C 1351.8494,582.33833 1329.1184,618.29933 1329.8364,631.18523 L 1329.8364,631.18405 L 1329.8362,631.18373 z "
     sodipodi:nodetypes="ccscccccc"
     style="fill:black;fill-opacity:1;fill-rule:evenodd" /><path
     id="path3792"
     class="fil2"
     d="M 1056.2952,709.34073 C 1056.2952,839.90173 1042.3192,1100.1147 1173.5282,1100.1147 L 1183.2983,1100.1147 C 1224.6558,1100.1147 1231.2617,1081.5596 1232.144,1070.808 C 1232.144,959.08503 1255.505,640.95603 1144.2216,640.95603 C 1126.8192,640.95603 1056.2956,679.79893 1056.2956,709.34183 L 1056.2956,709.34065 L 1056.2952,709.34073 z "
     sodipodi:nodetypes="ccccscc"
     style="fill:black;fill-opacity:1;fill-rule:evenodd" /><path
     id="path3794"
     class="fil2"
     d="M 1701.0762,1080.5777 L 1769.462,1080.5777 C 1830.5522,1080.5777 1867.1545,965.29473 1867.1545,894.95873 C 1867.1545,801.23233 1791.2179,680.03473 1701.0765,680.03473 C 1644.4946,680.03473 1620.5466,1080.5787 1701.0765,1080.5787 L 1701.0765,1080.5776 L 1701.0762,1080.5777 z "
     style="fill:black;fill-opacity:1;fill-rule:evenodd" /><path
     id="path3796"
     class="fil2"
     d="M 841.3712,943.80573 L 841.3712,1041.4982 C 841.3712,1087.8447 899.6173,1197.8102 939.0637,1197.8102 C 982.1019,1197.8102 987.9094,1135.037 987.9094,1090.3492 L 987.9094,934.03623 C 987.9094,864.22483 971.5039,825.53323 929.2937,797.26823 C 883.3051,828.06193 841.3713,867.44103 841.3713,943.80623 L 841.3713,943.80623 L 841.3712,943.80573 z "
     style="fill:black;fill-opacity:1;fill-rule:evenodd" /><path
     id="path3798"
     class="fil3"
     d="M 1837.8462,1168.4957 L 1828.0761,1168.4957 L 1456.8391,1158.7256 L 1437.3025,1158.7256 C 1414.4316,1158.7256 1398.2234,1174.935 1398.2234,1197.8059 L 1398.2234,1207.576 C 1398.2234,1369.969 1596.1664,1315.039 1740.1524,1315.039 C 1746.606,1342.7571 1749.9178,1331.7386 1749.9178,1354.1146 C 1749.9178,1468.1316 1698.7572,1410.9552 1619.4708,1438.5918 C 1591.2802,1448.4174 1487.0478,1490.8863 1466.6078,1490.8863 C 1438.0735,1490.8863 1335.7438,1394.493 1307.0778,1378.7173 C 1297.4246,1373.6551 1181.0558,1334.5748 1114.9108,1334.5748 L 968.37177,1334.5748 C 934.06667,1334.5748 929.29267,1377.9272 929.29267,1412.7307 C 929.29267,1604.7157 1202.8367,1766.3267 1202.8367,1803.5047 L 1202.8367,2547.6418 L 746.94094,2544.3997 L 752.98213,2975.3652 L 1196.6437,2974.5856 L 1195.998,3407.9606 L 1584.0315,3405.6801 L 1582.1779,2970.0613 L 2023.4627,2970.5238 L 2022.8978,2552.5852 L 1583.8393,2545.9779 L 1578.2499,1813.283 C 1628.9108,1705.4674 1669.3404,1710.8109 1754.3527,1661.3959 C 1846.898,1607.6061 1947.9807,1578.5876 1955.0797,1442.0439 C 1961.1423,1325.4549 1972.8553,1168.4959 1837.8437,1168.4959 L 1837.8449,1168.4959 L 1837.8462,1168.4957 z "
     sodipodi:nodetypes="cccccccscscccscccccccccccccsccc"
     style="fill:black;fill-opacity:1;fill-rule:evenodd" /><path
     transform="matrix(-0.244256,0.806623,-0.806623,-0.244256,2616.922,478.1773)"
     sodipodi:open="true"
     sodipodi:end="5.6981736"
     sodipodi:start="0"
     d="M 2435.3489,1143.4884 A 1174.186,1174.186 0 1 1 2240.0883,495.09214"
     sodipodi:ry="1174.186"
     sodipodi:rx="1174.186"
     sodipodi:cy="1143.4884"
     sodipodi:cx="1261.1628"
     id="path3800"
     style="fill:none;fill-opacity:1;fill-rule:evenodd;stroke:black;stroke-width:441.24307251;stroke-linecap:butt;stroke-linejoin:round;stroke-miterlimit:4;stroke-dasharray:none;stroke-opacity:1"
     sodipodi:type="arc" /><g
     id="g3780"><path
       style="fill:#d23e2f;fill-opacity:1"
       sodipodi:nodetypes="ccscccccc"
       d="M 1200.93,540.308 L 1250.2363,936.713 C 1260.3253,942.98229 1268.1891,950.6217 1288.8513,950.6217 C 1366.158,950.6217 1425.6243,874.8103 1425.6243,823.6227 L 1425.6243,784.5436 C 1425.6243,682.1026 1440.981,491.4626 1337.6983,491.4626 L 1327.9282,491.4626 C 1222.9432,491.4626 1200.2122,527.4236 1200.9302,540.3095 L 1200.9302,540.30832 L 1200.93,540.308 z "
       class="fil1"
       id="_38730648" /><path
       style="fill:#d23e2f;fill-opacity:1"
       sodipodi:nodetypes="ccccscc"
       d="M 927.389,618.465 C 927.389,749.026 913.413,1009.239 1044.622,1009.239 L 1054.3921,1009.239 C 1095.7496,1009.239 1102.3555,990.6839 1103.2378,979.9323 C 1103.2378,868.2093 1126.5988,550.0803 1015.3154,550.0803 C 997.91298,550.0803 927.38938,588.9232 927.38938,618.4661 L 927.38938,618.46492 L 927.389,618.465 z "
       class="fil2"
       id="_24307896" /><path
       style="fill:#d23e2f;fill-opacity:1"
       d="M 1572.17,989.702 L 1640.5558,989.702 C 1701.646,989.702 1738.2483,874.419 1738.2483,804.083 C 1738.2483,710.3566 1662.3117,589.159 1572.1703,589.159 C 1515.5884,589.159 1491.6404,989.703 1572.1703,989.703 L 1572.1703,989.70182 L 1572.17,989.702 z "
       class="fil2"
       id="_38383120" /><path
       style="fill:#d23e2f;fill-opacity:1"
       d="M 712.465,852.93 L 712.465,950.6225 C 712.465,996.969 770.7111,1106.9345 810.1575,1106.9345 C 853.1957,1106.9345 859.0032,1044.1613 859.0032,999.4735 L 859.0032,843.1605 C 859.0032,773.3491 842.5977,734.6575 800.3875,706.3925 C 754.3989,737.1862 712.4651,776.5653 712.4651,852.9305 L 712.4651,852.9305 L 712.465,852.93 z "
       class="fil2"
       id="_24261800" /><path
       style="fill:#d23e2f;fill-opacity:1"
       sodipodi:nodetypes="cccccccscscccscccccccccccccsccc"
       d="M 1708.94,1077.62 L 1699.1699,1077.62 L 1327.9329,1067.8499 L 1308.3963,1067.8499 C 1285.5254,1067.8499 1269.3172,1084.0593 1269.3172,1106.9302 L 1269.3172,1116.7003 C 1269.3172,1279.0933 1467.2602,1224.1633 1611.2462,1224.1633 C 1617.6998,1251.8814 1621.0116,1240.8629 1621.0116,1263.2389 C 1621.0116,1377.2559 1569.851,1320.0795 1490.5646,1347.7161 C 1462.374,1357.5417 1358.1416,1400.0106 1337.7016,1400.0106 C 1309.1673,1400.0106 1206.8376,1303.6173 1178.1716,1287.8416 C 1168.5184,1282.7794 1052.1496,1243.6991 986.00457,1243.6991 L 839.46557,1243.6991 C 805.16047,1243.6991 800.38647,1287.0515 800.38647,1321.855 C 800.38647,1513.84 1073.9305,1675.451 1073.9305,1712.629 L 1073.9305,2456.7661 L 618.03474,2453.524 L 624.07593,2884.4895 L 1067.7375,2883.7099 L 1067.0918,3317.0849 L 1455.1253,3314.8044 L 1453.2717,2879.1856 L 1894.5565,2879.6481 L 1893.9916,2461.7095 L 1454.9331,2455.1022 L 1449.3437,1722.4073 C 1500.0046,1614.5917 1540.4342,1619.9352 1625.4465,1570.5202 C 1717.9918,1516.7304 1819.0745,1487.7119 1826.1735,1351.1682 C 1832.2361,1234.5792 1843.9491,1077.6202 1708.9375,1077.6202 L 1708.9387,1077.6202 L 1708.94,1077.62 z "
       class="fil3"
       id="_39078984" /><path
       sodipodi:type="arc"
       style="opacity:1;fill:none;fill-opacity:1;stroke:#d23e2f;stroke-width:441.24307251;stroke-linecap:butt;stroke-linejoin:round;stroke-miterlimit:4;stroke-dasharray:none;stroke-opacity:1"
       id="path1916"
       sodipodi:cx="1261.1628"
       sodipodi:cy="1143.4884"
       sodipodi:rx="1174.186"
       sodipodi:ry="1174.186"
       d="M 2435.3489,1143.4884 A 1174.186,1174.186 0 1 1 2240.0883,495.09214"
       sodipodi:start="0"
       sodipodi:end="5.6981736"
       sodipodi:open="true"
       transform="matrix(-0.244256,0.806623,-0.806623,-0.244256,2488.016,387.3016)" /></g></g></svg>