<?xml version="1.0" encoding="UTF-8" standalone="no"?>
<!-- Creator: CorelDRAW -->
<svg
   xmlns:dc="http://purl.org/dc/elements/1.1/"
   xmlns:cc="http://web.resource.org/cc/"
   xmlns:rdf="http://www.w3.org/1999/02/22-rdf-syntax-ns#"
   xmlns:svg="http://www.w3.org/2000/svg"
   xmlns="http://www.w3.org/2000/svg"
   xmlns:sodipodi="http://sodipodi.sourceforge.net/DTD/sodipodi-0.dtd"
   xmlns:inkscape="http://www.inkscape.org/namespaces/inkscape"
   xml:space="preserve"
   width="990"
   height="990"
   style="shape-rendering:geometricPrecision; text-rendering:geometricPrecision; image-rendering:optimizeQuality; fill-rule:evenodd"
   viewBox="0 0 8500 11000"
   id="svg1890"
   sodipodi:version="0.32"
   inkscape:version="0.44"
   sodipodi:docname="Symbol_thumbs_down.svg"
   sodipodi:docbase="C:\Documents and Settings\다니엘\바탕 화면"
   version="1.0"
   inkscape:export-filename="C:\Documents and Settings\다니엘\바탕 화면\Symbol_thumbs_down.png"
   inkscape:export-xdpi="30.309999"
   inkscape:export-ydpi="30.309999"><metadata
   id="metadata1900"><rdf:RDF><cc:Work
       rdf:about=""><dc:format>image/svg+xml</dc:format><dc:type
         rdf:resource="http://purl.org/dc/dcmitype/StillImage" /></cc:Work></rdf:RDF></metadata><sodipodi:namedview
   inkscape:window-height="622"
   inkscape:window-width="968"
   inkscape:pageshadow="2"
   inkscape:pageopacity="0.0"
   guidetolerance="10.0"
   gridtolerance="10.0"
   objecttolerance="10.0"
   borderopacity="1.0"
   bordercolor="#666666"
   pagecolor="#ffffff"
   id="base"
   width="990px"
   inkscape:zoom="0.38080808"
   inkscape:cx="382.5"
   inkscape:cy="495"
   inkscape:window-x="44"
   inkscape:window-y="58"
   inkscape:current-layer="svg1890" />
 <defs
   id="defs1892">
  <style
   type="text/css"
   id="style1894">
   
    .str0 {stroke:#000000;stroke-width:3}
    .fil0 {fill:#000000}
   
  </style>
 </defs>
 <rect
   style="opacity:1;fill:red;fill-opacity:1;stroke:black;stroke-width:0.79567838;stroke-linecap:round;stroke-linejoin:round;stroke-miterlimit:4;stroke-dasharray:none;stroke-opacity:1"
   id="rect1902"
   width="10998.618"
   height="10998.616"
   x="-1249.3093"
   y="0.69264036"
   inkscape:export-filename="C:\Documents and Settings\다니엘\바탕 화면\rect1904.png"
   inkscape:export-xdpi="2.73"
   inkscape:export-ydpi="2.73" /><path
   style="fill:#f95;fill-rule:evenodd;stroke:black;stroke-width:1px;stroke-linecap:butt;stroke-linejoin:miter;stroke-opacity:1"
   d="M 1842.8382,2246.6844 L 2484.748,2217.5066 L 4118.7003,875.33156 L 6569.6286,992.04244 L 8320.2918,3238.7268 L 8261.9363,4055.7029 L 8524.5358,5047.7454 L 7824.2706,5864.7215 L 5840.1857,6098.1432 L 6861.4058,9015.9151 L 6307.0292,10037.135 L 5694.2971,10095.491 L 5373.3422,8578.2493 L 2630.6366,5485.4111 L 1959.5491,5427.0557 L 1842.8382,2246.6844 z "
   id="path2799"
   inkscape:export-filename="C:\Documents and Settings\다니엘\바탕 화면\rect1904.png"
   inkscape:export-xdpi="2.73"
   inkscape:export-ydpi="2.73" /><g
   id="Layer 1"
   transform="translate(422.2219,0)"
   inkscape:export-filename="C:\Documents and Settings\다니엘\바탕 화면\rect1904.png"
   inkscape:export-xdpi="2.73"
   inkscape:export-ydpi="2.73">
  <path
   class="fil0 str0"
   d="M 824,2025 L 1957,2025 C 2477,1427 3042,989 3649,711 C 3840,696 3983,688 4074,688 C 4333,688 4626,735 4955,825 L 5227,688 L 5553,688 C 6297,688 6670,955 6670,1486 C 6670,1517 6665,1561 6655,1624 C 7201,1668 7476,1929 7476,2404 C 7476,2455 7471,2525 7460,2616 C 7663,2673 7815,2764 7919,2891 C 8023,3015 8075,3176 8075,3368 C 8075,3523 8020,3691 7909,3868 C 8181,4160 8318,4487 8318,4847 C 8318,5262 8093,5596 7642,5850 C 7191,6101 6595,6228 5851,6228 L 5662,6228 C 5722,6684 5862,7125 6079,7550 L 6201,7762 C 6463,8263 6595,8651 6595,8923 C 6595,9677 6199,10149 5403,10336 L 5183,10390 L 4802,8703 L 3397,7208 C 3301,7096 3136,6881 2897,6563 L 2685,6283 C 2457,5974 2296,5785 2203,5718 C 2109,5648 1959,5614 1752,5614 L 863,5614 C 591,5034 454,4435 454,3824 C 454,3228 578,2626 824,2025 z M 1076,2419 C 917,2880 840,3321 840,3741 C 840,4236 925,4723 1099,5205 C 1736,5205 2135,5244 2296,5319 C 2459,5394 2703,5661 3027,6114 C 3156,6293 3353,6545 3610,6866 L 5136,8491 L 5439,9895 C 5947,9724 6201,9400 6201,8923 C 6201,8677 6116,8408 5942,8120 L 5844,7952 C 5447,7293 5250,6666 5250,6068 L 5242,5855 L 5517,5855 C 6320,5855 6927,5775 7331,5617 C 7738,5456 7940,5215 7940,4891 C 7940,4598 7834,4350 7624,4148 C 7414,3945 7157,3844 6854,3844 L 6390,3839 L 5014,4459 C 5222,4772 5501,4930 5851,4930 C 5942,4930 6059,4909 6199,4871 C 6341,4829 6507,4767 6701,4687 L 7059,4671 L 7416,5052 L 6800,5060 C 6621,5135 6460,5192 6313,5226 C 6167,5262 6033,5280 5911,5280 C 5263,5280 4789,4951 4491,4293 L 4750,4171 C 4431,4015 4185,3741 4014,3352 L 4309,3225 C 4076,3077 3861,2826 3664,2471 L 4133,2253 C 3877,2064 3669,1800 3511,1455 L 4444,1038 C 4294,1007 4164,991 4058,991 L 3763,999 C 3089,1388 2542,1862 2122,2419 L 1076,2419 z M 4537,3520 C 4714,3756 4926,3907 5175,3974 L 6307,3466 L 6709,3466 C 7090,3466 7378,3520 7574,3627 C 7639,3536 7673,3448 7673,3368 C 7673,3212 7595,3095 7442,3015 C 7287,2937 7056,2899 6748,2899 L 5942,2899 L 4537,3520 z M 4219,2632 C 4242,2663 4263,2689 4278,2707 C 4400,2849 4545,2961 4711,3041 L 5875,2525 L 7103,2533 L 7126,2435 C 7126,2137 6831,1986 6237,1986 L 5667,1986 L 4219,2632 z M 4058,1608 C 4094,1652 4120,1688 4141,1714 C 4237,1852 4359,1973 4506,2085 L 5592,1600 L 6292,1600 L 6292,1554 C 6292,1214 6046,1046 5553,1046 L 5305,1046 L 4058,1608 z "
   id="path1897"
   style="fill:black;stroke:black;stroke-width:3" />
 </g>
<rect
   style="opacity:1;fill:white;fill-opacity:1;stroke:black;stroke-width:361.91110229;stroke-linecap:butt;stroke-linejoin:miter;stroke-miterlimit:4;stroke-dasharray:none;stroke-opacity:1"
   id="rect1904"
   width="2159.1511"
   height="4493.3687"
   x="-215.04553"
   y="1750.6631"
   inkscape:export-xdpi="2.73"
   inkscape:export-ydpi="2.73" /></svg>