<?xml version="1.0" encoding="UTF-8" standalone="no"?>
<!-- Creator: CorelDRAW -->
<svg
   xmlns:dc="http://purl.org/dc/elements/1.1/"
   xmlns:cc="http://web.resource.org/cc/"
   xmlns:rdf="http://www.w3.org/1999/02/22-rdf-syntax-ns#"
   xmlns:svg="http://www.w3.org/2000/svg"
   xmlns="http://www.w3.org/2000/svg"
   xmlns:sodipodi="http://sodipodi.sourceforge.net/DTD/sodipodi-0.dtd"
   xmlns:inkscape="http://www.inkscape.org/namespaces/inkscape"
   xml:space="preserve"
   width="990"
   height="990"
   style="shape-rendering:geometricPrecision; text-rendering:geometricPrecision; image-rendering:optimizeQuality; fill-rule:evenodd"
   viewBox="0 0 8500 11000"
   id="svg2801"
   sodipodi:version="0.32"
   inkscape:version="0.44"
   sodipodi:docname="Symbol_thumbs_up.svg"
   sodipodi:docbase="C:\Documents and Settings\다니엘\바탕 화면"
   version="1.0"><metadata
   id="metadata2811"><rdf:RDF><cc:Work
       rdf:about=""><dc:format>image/svg+xml</dc:format><dc:type
         rdf:resource="http://purl.org/dc/dcmitype/StillImage" /></cc:Work></rdf:RDF></metadata><sodipodi:namedview
   inkscape:window-height="579"
   inkscape:window-width="847"
   inkscape:pageshadow="2"
   inkscape:pageopacity="0.0"
   guidetolerance="10.0"
   gridtolerance="10.0"
   objecttolerance="10.0"
   borderopacity="1.0"
   bordercolor="#666666"
   pagecolor="#ffffff"
   id="base"
   width="990px"
   inkscape:zoom="0.38080808"
   inkscape:cx="382.5"
   inkscape:cy="495"
   inkscape:window-x="164"
   inkscape:window-y="281"
   inkscape:current-layer="svg2801" />
 <defs
   id="defs2803">
  <style
   type="text/css"
   id="style2805">
   
    .str0 {stroke:#000000;stroke-width:3}
    .fil0 {fill:#000000}
   
  </style>
 </defs>
 <rect
   style="opacity:1;fill:green;fill-opacity:1;fill-rule:evenodd;stroke:black;stroke-width:0.79567838;stroke-linecap:round;stroke-linejoin:round;stroke-miterlimit:4;stroke-dasharray:none;stroke-opacity:1"
   id="rect1902"
   width="10998.618"
   height="10998.616"
   x="-1249.3055"
   y="0.68934464"
   inkscape:export-xdpi="2.73"
   inkscape:export-ydpi="2.73" /><path
   style="fill:#f95;fill-rule:evenodd;stroke:black;stroke-width:1px;stroke-linecap:butt;stroke-linejoin:miter;stroke-opacity:1"
   d="M 6496.6844,8432.3609 L 5854.7745,8461.5389 L 4220.8222,9803.7139 L 1769.8939,9687.0029 L 19.230742,7440.3189 L 77.586242,6623.3426 L -185.01326,5631.3001 L 515.25189,4814.324 L 2499.3368,4580.9023 L 1478.1167,1663.1302 L 2032.4933,641.91023 L 2645.2254,583.55423 L 2966.1803,2100.7962 L 5708.8859,5193.6344 L 6379.9735,5251.9898 L 6496.6844,8432.3609 z "
   id="path2799"
   inkscape:export-filename="C:\Documents and Settings\다니엘\바탕 화면\rect1902.png"
   inkscape:export-xdpi="2.73"
   inkscape:export-ydpi="2.73" /><g
   id="Layer 1"
   transform="translate(-644.4439,0)"
   inkscape:export-filename="C:\Documents and Settings\다니엘\바탕 화면\rect1902.png"
   inkscape:export-xdpi="2.73"
   inkscape:export-ydpi="2.73">
  <path
   class="fil0 str0"
   d="M 7727,8644 L 6594,8644 C 6074,9242 5509,9680 4902,9957 C 4711,9973 4568,9981 4477,9981 C 4218,9981 3925,9934 3596,9843 L 3324,9981 L 2998,9981 C 2254,9981 1881,9714 1881,9183 C 1881,9152 1886,9108 1896,9045 C 1350,9001 1075,8740 1075,8265 C 1075,8214 1080,8144 1090,8053 C 888,7996 735,7905 632,7778 C 528,7654 476,7493 476,7301 C 476,7146 531,6977 642,6801 C 370,6508 233,6182 233,5822 C 233,5407 458,5073 909,4819 C 1360,4568 1956,4441 2700,4441 L 2889,4441 C 2829,3985 2689,3544 2472,3119 L 2350,2907 C 2088,2406 1956,2018 1956,1746 C 1956,992 2352,520 3148,333 L 3368,279 L 3749,1966 L 5154,3461 C 5250,3573 5415,3788 5654,4106 L 5866,4386 C 6094,4695 6255,4884 6348,4951 C 6442,5021 6592,5055 6799,5055 L 7688,5055 C 7960,5635 8097,6234 8097,6845 C 8097,7441 7973,8043 7727,8644 z M 7475,8250 C 7634,7789 7711,7348 7711,6928 C 7711,6433 7626,5946 7452,5464 C 6815,5464 6416,5425 6255,5350 C 6092,5275 5848,5008 5524,4552 C 5395,4376 5198,4124 4941,3803 L 3415,2178 L 3112,771 C 2604,945 2350,1269 2350,1746 C 2350,1992 2435,2261 2609,2549 L 2707,2717 C 3104,3376 3301,4003 3301,4601 L 3309,4814 L 3034,4814 C 2231,4814 1624,4894 1220,5052 C 813,5213 611,5454 611,5778 C 611,6071 717,6319 927,6521 C 1137,6724 1394,6825 1697,6825 L 2161,6830 L 3537,6210 C 3329,5897 3050,5739 2700,5739 C 2609,5739 2492,5760 2352,5798 C 2210,5840 2044,5902 1850,5982 L 1492,5998 L 1135,5617 L 1751,5609 C 1930,5534 2091,5477 2238,5443 C 2384,5407 2518,5389 2640,5389 C 3288,5389 3762,5718 4060,6376 L 3801,6498 C 4120,6654 4366,6928 4539,7317 L 4241,7444 C 4475,7592 4690,7843 4887,8195 L 4418,8416 C 4674,8605 4882,8869 5040,9214 L 4107,9631 C 4257,9662 4387,9678 4493,9678 L 4788,9670 C 5462,9281 6009,8807 6429,8250 L 7475,8250 z M 4013,7149 C 3837,6913 3625,6760 3376,6695 L 2244,7203 L 1842,7203 C 1461,7203 1173,7149 976,7042 C 912,7133 878,7221 878,7301 C 878,7457 956,7573 1109,7654 C 1264,7732 1495,7770 1803,7770 L 2609,7770 L 4013,7149 z M 4332,8037 C 4309,8006 4288,7980 4273,7960 C 4151,7820 4006,7708 3840,7628 L 2676,8144 L 1448,8136 L 1425,8234 C 1425,8532 1720,8683 2314,8683 L 2884,8683 L 4332,8037 z M 4493,9061 C 4457,9017 4431,8981 4410,8955 C 4314,8817 4192,8696 4045,8584 L 2959,9069 L 2259,9069 L 2259,9115 C 2259,9455 2505,9623 2998,9623 L 3246,9623 L 4493,9061 z "
   id="path2808"
   style="fill:black;stroke:black;stroke-width:3" />
 </g>
<rect
   style="opacity:1;fill:white;fill-opacity:1;fill-rule:evenodd;stroke:black;stroke-width:361.91110229;stroke-linecap:butt;stroke-linejoin:miter;stroke-miterlimit:4;stroke-dasharray:none;stroke-opacity:1"
   id="rect1904"
   width="2159.1511"
   height="4493.3687"
   x="6537.918"
   y="4843.5015"
   inkscape:export-filename="C:\Documents and Settings\다니엘\바탕 화면\rect1902.png"
   inkscape:export-xdpi="2.73"
   inkscape:export-ydpi="2.73" /></svg>