<?xml version="1.0" encoding="UTF-8" standalone="no"?>
<!-- Created with Inkscape (http://www.inkscape.org/) -->
<svg
   xmlns:dc="http://purl.org/dc/elements/1.1/"
   xmlns:cc="http://web.resource.org/cc/"
   xmlns:rdf="http://www.w3.org/1999/02/22-rdf-syntax-ns#"
   xmlns:svg="http://www.w3.org/2000/svg"
   xmlns="http://www.w3.org/2000/svg"
   xmlns:sodipodi="http://sodipodi.sourceforge.net/DTD/sodipodi-0.dtd"
   xmlns:inkscape="http://www.inkscape.org/namespaces/inkscape"
   width="550pt"
   height="550pt"
   id="svg2229"
   sodipodi:version="0.32"
   inkscape:version="0.44"
   version="1.0"
   sodipodi:docbase="C:\freeciv\sources"
   sodipodi:docname="advanced_flight.svg"
   inkscape:export-filename="C:\freeciv\sources\advanced_flight.png"
   inkscape:export-xdpi="6.2800002"
   inkscape:export-ydpi="6.2800002">
  <defs
     id="defs2231" />
  <sodipodi:namedview
     id="base"
     pagecolor="#ffffff"
     bordercolor="#666666"
     borderopacity="1.0"
     inkscape:pageopacity="0.0"
     inkscape:pageshadow="2"
     inkscape:zoom="0.35"
     inkscape:cx="375"
     inkscape:cy="520"
     inkscape:document-units="px"
     inkscape:current-layer="layer1"
     inkscape:window-width="847"
     inkscape:window-height="579"
     inkscape:window-x="40"
     inkscape:window-y="62" />
  <metadata
     id="metadata2234">
    <rdf:RDF>
      <cc:Work
         rdf:about="">
        <dc:format>image/svg+xml</dc:format>
        <dc:type
           rdf:resource="http://purl.org/dc/dcmitype/StillImage" />
        <cc:license
           rdf:resource="http://web.resource.org/cc/PublicDomain" />
        <dc:title>Advanced Flight</dc:title>
        <dc:creator>
          <cc:Agent>
            <dc:title>Daniel Markstedt</dc:title>
          </cc:Agent>
        </dc:creator>
        <dc:description></dc:description>
        <dc:contributor>
          <cc:Agent>
            <dc:title>Derived from work of the US Army using potrace: http://commons.wikimedia.org/wiki/Image:GENERAL_DYNAMICS_EF-111A_RAVEN.png</dc:title>
          </cc:Agent>
        </dc:contributor>
      </cc:Work>
      <cc:License
         rdf:about="http://web.resource.org/cc/PublicDomain">
        <cc:permits
           rdf:resource="http://web.resource.org/cc/Reproduction" />
        <cc:permits
           rdf:resource="http://web.resource.org/cc/Distribution" />
        <cc:permits
           rdf:resource="http://web.resource.org/cc/DerivativeWorks" />
      </cc:License>
    </rdf:RDF>
  </metadata>
  <g
     inkscape:label="Layer 1"
     inkscape:groupmode="layer"
     id="layer1">
    <rect
       style="opacity:1;fill:#091ad0;fill-opacity:1;fill-rule:nonzero;stroke:none;stroke-width:7.48800039;stroke-linecap:round;stroke-linejoin:round;stroke-miterlimit:4;stroke-dasharray:none;stroke-opacity:1"
       id="rect1330"
       width="687.5"
       height="687.5"
       x="0"
       y="0" />
    <g
       id="g2216"
       transform="matrix(1.204028,0,0,1.204028,62.00748,-2.065694)">
      <path
         d="M 233.62043,39.654575 C 233.02425,43.3807 232.8752,46.808735 233.32234,47.55396 C 233.62043,48.15014 231.83189,57.09284 229.00003,67.376945 C 224.37964,85.262345 220.50447,108.36432 218.41784,130.57202 C 217.97071,136.23573 217.37453,143.38989 217.07644,146.22175 C 216.77835,149.0536 216.03312,162.76574 215.58598,176.77597 C 214.69172,200.32509 214.24458,203.15694 209.62419,216.2729 C 190.99356,270.07815 181.45468,296.31006 179.96423,297.94956 C 178.17569,299.7381 158.05462,306.14703 81.445485,328.80187 C 60.13205,335.06176 40.607155,341.17261 37.924345,342.21592 C 30.91923,345.19682 28.385465,350.26436 27.491195,362.93318 C 26.74597,372.6211 27.04406,374.40964 29.13069,375.15487 C 30.472095,375.75105 66.09385,375.15487 108.27359,373.81346 C 183.09418,371.57779 185.03176,371.57779 189.50311,368.2988 C 192.03688,366.51026 194.57064,365.46695 195.16682,366.06313 C 195.763,366.51026 196.50823,375.75105 196.95536,386.33324 C 197.55154,400.79061 197.25345,406.75241 195.763,409.43522 C 194.57064,411.52185 194.1235,414.20466 194.57064,415.39702 C 195.01778,416.58938 194.42159,417.48365 193.22923,417.48365 C 190.24833,417.48365 183.39227,428.66202 184.43558,431.64292 C 185.1808,433.28242 184.43558,434.32574 182.34895,434.92192 C 178.77187,435.81619 170.87249,448.03787 171.17058,452.21114 C 171.31962,453.55254 170.5744,454.7449 169.38204,454.7449 C 166.84827,454.7449 160.58838,464.87996 160.73743,468.60609 C 160.88647,470.24558 159.84315,471.73603 158.50175,472.18316 C 157.0113,472.48125 154.77562,474.86597 153.28518,477.2507 C 151.0495,481.27491 150.15523,481.72204 146.28006,480.82777 C 140.46731,479.48637 140.46731,482.31822 146.28006,485.29913 L 150.60236,487.5348 L 143.7463,498.86222 C 140.02017,505.12211 137.48641,510.63678 138.23163,511.23296 C 138.97686,511.82914 143.7463,515.55526 148.81383,519.43043 C 153.88136,523.3056 158.79984,527.47886 159.54506,528.96931 C 160.88647,531.35403 161.18456,531.35403 162.9731,528.96931 C 165.80496,525.09414 193.82541,517.93998 197.25345,520.17566 C 201.87385,523.00751 204.25857,522.11324 205.15284,516.89666 L 206.04711,511.97818 L 215.28789,512.27627 C 221.99492,512.42531 224.52868,513.02149 224.82677,514.51194 C 226.46627,529.56549 228.85099,538.35915 231.38476,539.8496 C 237.79369,543.27763 239.28414,541.191 241.66886,526.43555 L 243.90454,512.42531 L 253.14533,511.97818 L 262.23707,511.53105 L 263.28039,516.74762 C 264.3237,522.70942 268.04982,524.9451 270.73264,521.36802 C 272.37213,519.13234 273.71354,519.28139 286.53141,522.56038 C 294.28175,524.64701 301.73399,527.03173 303.22445,527.77695 C 305.46012,529.11835 306.50344,528.67122 308.73911,525.98841 C 310.22956,524.05083 315.59518,519.57948 320.51367,515.85335 C 325.43215,512.12722 329.60541,508.55014 329.60541,507.65587 C 329.60541,506.91065 327.22069,502.29026 324.09075,497.37177 L 318.72512,488.57812 L 323.79266,484.40485 C 329.45637,479.78446 328.86019,476.80356 323.04743,480.67873 C 320.9608,482.02013 319.02321,483.06345 318.87417,483.06345 C 318.57608,483.06345 317.08563,480.82777 315.59518,477.99592 C 314.10473,475.16406 311.57097,472.48125 309.93147,472.03412 C 307.84484,471.58699 307.09962,470.54367 307.84484,468.90418 C 308.88815,465.92327 298.60405,449.23023 295.02697,448.33596 C 293.53652,447.88883 292.34416,446.24933 292.34416,444.31175 C 292.34416,440.13849 285.33904,428.21489 281.76197,426.2773 C 280.27152,425.53208 278.93011,423.44545 278.93011,421.80595 C 278.93011,420.31551 277.14157,416.29129 275.05494,413.16134 C 271.925,408.3919 271.47786,406.15623 272.07404,400.19443 C 272.52118,396.17021 272.96831,386.92942 273.2664,379.77526 C 273.41545,372.47206 274.01162,366.36122 274.6078,365.91408 C 275.35303,365.61599 278.03584,366.65931 280.71865,368.2988 C 284.44477,370.53447 288.1709,371.2797 296.96456,371.2797 L 308.14293,371.2797 L 311.57097,381.71285 C 313.35951,387.5256 315.44614,392.146 316.34041,392.146 C 318.42703,392.146 317.9799,389.01605 314.70091,379.47717 L 311.72001,370.98161 L 333.77867,371.87588 C 345.85131,372.32301 374.46796,372.91919 397.42088,373.06824 L 439.15349,373.51537 L 439.45158,364.57268 C 439.74966,352.94716 437.66304,345.04778 433.34073,342.21592 C 431.40314,340.87452 425.59039,338.63884 420.37382,337.14839 C 402.04128,331.93182 312.31619,305.40181 301.28686,301.97377 C 295.17602,300.18523 289.66135,297.65147 289.06517,296.60815 C 288.31995,295.4158 280.56961,273.65522 271.62691,248.31757 L 255.53005,202.11362 L 254.48673,172.75176 C 254.0396,156.6549 253.29437,142.49562 252.99628,141.45231 C 252.54915,140.40899 251.95297,132.8077 251.50583,124.61022 C 250.31347,105.9796 246.88544,85.262345 242.11599,67.973125 C 238.09178,53.366715 237.64464,50.53486 237.34655,39.952665 C 237.19751,31.009965 234.81279,30.86092 233.62043,39.654575 z M 240.62555,75.723465 C 242.71218,84.666165 244.94785,95.54645 245.39499,100.0178 C 245.99116,104.48915 246.73639,109.40763 247.03448,110.89808 C 247.33257,112.68662 246.14021,114.02803 243.60645,115.07134 C 239.28414,116.71084 227.06245,115.81657 225.12486,113.87898 C 223.03824,111.64331 233.17329,59.77565 235.85611,59.77565 C 236.45229,59.77565 238.68796,66.92981 240.62555,75.723465 z M 244.05358,119.98983 C 244.20263,119.98983 244.64976,124.16309 244.79881,129.08157 L 245.39499,138.02427 L 235.70706,138.02427 L 226.01914,138.02427 L 226.01914,130.57202 C 226.16818,118.94651 226.76436,118.20129 236.00515,119.09556 C 240.32746,119.39365 244.05358,119.84078 244.05358,119.98983 z M 246.14021,144.28416 C 246.14021,146.51984 244.64976,146.96697 235.85611,146.96697 C 227.65863,146.96697 225.12486,146.37079 223.9325,144.28416 C 222.44206,141.89944 223.18728,141.7504 234.21661,141.7504 C 244.64976,141.7504 246.14021,142.04849 246.14021,144.28416 z M 250.31347,204.64739 C 249.86634,207.92638 249.27016,208.07542 235.11088,208.07542 C 220.80256,208.07542 220.35542,207.92638 220.05733,204.64739 C 219.75924,201.51744 220.20638,201.3684 235.25993,201.3684 C 250.61156,201.3684 250.7606,201.3684 250.31347,204.64739 z M 239.58223,228.64363 C 239.28414,243.69718 239.28414,243.84623 235.55802,243.84623 C 231.98094,243.84623 231.98094,243.69718 231.5338,228.49459 C 231.23571,218.80666 231.68285,213.292 232.72616,213.292 C 233.47138,213.292 234.06757,214.03722 233.91852,214.93149 C 233.62043,215.82576 234.36566,217.01812 235.40897,217.31621 C 236.45229,217.76335 237.19751,216.72003 237.19751,214.78245 C 237.19751,212.99391 237.79369,211.95059 238.53892,212.39773 C 239.28414,212.99391 239.73128,220.14807 239.58223,228.64363 z M 249.71729,218.50857 C 249.56825,221.78756 249.12111,227.74936 248.67398,231.92262 C 248.37589,235.94684 247.92875,240.56723 247.77971,241.90864 C 247.77971,243.39909 246.58734,244.59145 245.39499,244.59145 C 243.60645,244.59145 243.15931,241.90864 243.15931,229.23981 C 243.15931,213.292 243.60645,211.35441 247.63066,212.09964 C 249.27016,212.54677 249.86634,214.33531 249.71729,218.50857 z M 228.25481,228.04745 C 228.25481,242.05768 226.91341,246.97617 223.78346,243.69718 C 223.18728,242.95195 222.29301,235.79779 221.84588,227.74936 L 220.95161,213.292 L 224.52868,213.292 C 228.25481,213.292 228.25481,213.292 228.25481,228.04745 z M 217.97071,235.64875 L 218.41784,243.84623 L 212.75413,244.29336 C 206.34519,244.88954 206.34519,244.74049 212.15795,231.32644 C 215.58598,223.27801 217.52357,224.61942 217.97071,235.64875 z M 258.95808,232.96594 C 260.29949,237.28824 261.78994,241.75959 262.23707,242.65386 C 262.68421,243.99527 261.19376,244.59145 257.46763,244.59145 C 252.54915,244.59145 252.10201,244.14431 252.10201,240.41819 C 252.10201,233.86021 253.89055,225.2156 255.23195,225.2156 C 255.82814,225.2156 257.46763,228.79268 258.95808,232.96594 z M 239.28414,254.27937 C 239.43319,259.64499 239.1351,260.24117 235.40897,260.68831 C 231.5338,261.13545 231.23571,260.83736 231.23571,255.32269 C 231.23571,248.76471 232.12998,247.27426 236.30324,247.87044 C 238.53892,248.16853 239.1351,249.50993 239.28414,254.27937 z M 207.38851,253.68319 C 207.38851,257.70741 207.83564,258.15454 210.81654,257.11123 C 215.43694,255.62078 216.6293,253.08701 213.6484,250.85134 C 211.41272,249.0628 211.56177,248.91375 215.58598,249.36089 C 219.6102,249.80802 220.05733,250.4042 220.50447,255.32269 C 220.80256,259.19786 220.35542,260.9864 219.01402,261.13545 C 209.92228,261.73162 200.97958,261.58258 200.3834,260.53927 C 200.08531,259.94308 200.53244,257.11123 201.42671,254.27937 C 203.66239,247.72139 207.38851,247.27426 207.38851,253.68319 z M 228.25481,255.0246 C 228.25481,261.43353 226.16818,263.07303 224.67773,257.55836 C 223.18728,252.0437 223.63442,249.0628 226.01914,249.0628 C 227.65863,249.0628 228.25481,250.70229 228.25481,255.0246 z M 247.03448,252.34179 C 246.58734,254.27937 246.28925,256.96218 246.28925,258.45263 C 246.14021,259.94308 245.39499,260.9864 244.35167,260.68831 C 242.71218,260.09213 242.41409,258.60168 243.01027,251.29847 C 243.15931,250.10611 244.20263,249.0628 245.39499,249.0628 C 246.88544,249.0628 247.48162,250.10611 247.03448,252.34179 z M 256.57336,251.29847 C 255.08291,253.08701 255.08291,253.98128 256.57336,255.76982 C 257.61668,256.96218 259.25617,258.0055 260.44853,258.0055 C 262.68421,258.0055 264.62179,252.78892 263.13134,250.4042 C 262.53516,249.36089 263.13134,248.91375 264.77084,249.36089 C 266.26129,249.50993 268.34792,252.19275 269.39123,255.32269 L 271.32882,260.9864 L 260.0014,260.9864 C 249.12111,260.9864 248.82302,260.83736 249.71729,257.55836 C 250.16442,255.76982 250.61156,253.08701 250.61156,251.59656 C 250.61156,249.80802 251.80392,249.0628 254.48673,249.0628 C 257.76572,249.0628 258.21286,249.36089 256.57336,251.29847 z M 222.44206,267.09724 C 224.97582,272.31382 228.5529,286.02596 227.95672,288.70877 C 227.50959,291.24253 226.01914,291.54062 213.35031,291.54062 L 199.19103,291.54062 L 198.7439,278.57371 L 198.29676,265.60679 L 208.43183,265.15966 C 221.10065,264.41443 221.10065,264.41443 222.44206,267.09724 z M 238.83701,266.50106 C 239.58223,279.91511 237.34655,286.4731 233.17329,283.04506 C 231.23571,281.40556 230.49049,266.79915 232.27903,265.01061 C 234.21661,262.92398 238.68796,263.9673 238.83701,266.50106 z M 244.05358,267.84247 C 243.4574,269.18388 242.71218,270.07815 242.41409,269.63101 C 241.96695,269.18388 241.96695,267.69342 242.56313,266.35202 C 243.15931,265.01061 243.90454,264.11634 244.20263,264.56348 C 244.64976,265.01061 244.64976,266.50106 244.05358,267.84247 z M 269.09314,264.86157 C 271.03073,265.60679 271.47786,268.2896 271.47786,278.27562 L 271.47786,290.7954 L 262.23707,290.94444 C 257.0205,291.09349 250.90965,291.24253 248.67398,291.39158 C 242.56313,291.98776 241.51981,287.8145 245.0969,276.78517 C 246.58734,271.71764 248.22684,266.79915 248.52493,265.75584 C 249.12111,263.81825 264.62179,263.22207 269.09314,264.86157 z M 227.80768,268.73674 C 227.36054,269.9291 226.91341,269.48197 226.91341,267.84247 C 226.76436,266.20297 227.2115,265.3087 227.65863,265.90488 C 228.10576,266.35202 228.25481,267.69342 227.80768,268.73674 z M 195.46491,282.59792 C 195.46491,290.94444 195.16682,292.28585 192.7821,292.28585 C 191.29165,292.28585 189.65215,291.98776 189.20502,291.54062 C 188.60884,290.7954 194.1235,272.91 195.01778,272.91 C 195.31587,272.91 195.46491,277.2323 195.46491,282.59792 z M 279.82438,286.92023 C 280.56961,290.19922 280.27152,290.7954 277.58871,290.7954 C 274.75685,290.7954 274.45876,290.05017 274.6078,282.15079 C 274.75685,273.65522 274.75685,273.65522 276.69443,278.27562 C 277.8868,280.80938 279.2282,284.68455 279.82438,286.92023 z M 238.68796,289.30495 C 238.68796,290.05017 238.09178,290.7954 237.34655,290.7954 C 236.60133,290.7954 234.96184,291.24253 233.62043,291.68967 C 231.98094,292.28585 231.23571,291.83871 231.23571,290.19922 C 231.23571,288.70877 232.57711,287.8145 234.96184,287.8145 C 237.04846,287.8145 238.68796,288.41068 238.68796,289.30495 z M 268.19887,294.67057 C 270.43455,295.26675 271.47786,296.7572 271.47786,299.14192 C 271.47786,302.27186 270.73264,302.719 265.51606,302.719 C 257.61668,302.719 257.76572,305.84894 265.9632,310.76743 C 269.39123,312.85406 271.47786,314.49355 270.58359,314.6426 C 269.68932,314.6426 265.21797,311.95979 260.59758,308.6808 C 256.12623,305.40181 250.90965,302.719 249.27016,302.719 C 247.48162,302.719 246.14021,301.82473 246.14021,300.48332 C 246.14021,299.29096 245.99116,297.80051 245.84212,297.05529 C 245.39499,296.16102 251.35679,295.11771 262.53516,294.07439 C 263.72752,293.92534 266.26129,294.22343 268.19887,294.67057 z M 195.46491,306.44512 C 195.46491,312.55597 195.01778,317.6235 194.42159,317.6235 C 193.67637,317.6235 191.29165,313.74833 189.05597,308.97889 C 184.13749,298.99287 184.73367,295.26675 191.14261,295.26675 L 195.46491,295.26675 L 195.46491,306.44512 z M 224.37964,297.65147 C 225.572,300.78141 224.23059,302.719 221.10065,302.719 C 219.6102,302.719 217.07644,303.76232 215.28789,304.95468 C 212.90318,306.59417 212.0089,306.74321 211.41272,305.25276 C 211.11463,304.3585 209.47514,303.31518 207.6866,303.31518 C 205.89806,303.16613 203.0662,303.01709 201.42671,302.86804 C 199.34008,302.719 198.44581,301.67568 198.44581,298.99287 C 198.44581,295.26675 198.59485,295.26675 210.96559,295.26675 C 220.95161,295.26675 223.63442,295.71389 224.37964,297.65147 z M 233.17329,298.24765 C 233.62043,299.88714 234.66375,301.22855 235.40897,301.22855 C 236.30324,301.22855 237.4956,299.88714 237.94273,298.24765 C 239.28414,294.07439 241.66886,294.52152 241.66886,298.99287 C 241.66886,302.42091 241.07268,302.719 234.96184,302.719 C 228.85099,302.719 228.25481,302.42091 228.25481,298.99287 C 228.25481,294.52152 231.98094,293.92534 233.17329,298.24765 z M 283.99764,297.65147 C 284.74286,299.58905 276.99253,317.6235 275.35303,317.6235 C 275.05494,317.6235 274.75685,312.55597 274.6078,306.44512 L 274.45876,295.26675 L 278.78107,295.26675 C 281.31483,295.26675 283.40146,296.16102 283.99764,297.65147 z M 309.93147,309.57507 C 319.02321,312.10883 325.13406,314.6426 325.13406,315.83496 C 325.13406,317.92159 323.19648,317.6235 304.41681,311.81074 C 297.41169,309.57507 291.44989,306.89226 291.1518,305.84894 C 290.70467,304.50754 291.30085,304.06041 292.4932,304.50754 C 293.68556,304.80563 301.4359,307.19035 309.93147,309.57507 z M 177.57951,306.89226 C 177.57951,308.53175 144.78961,318.07063 143.59725,317.02732 C 142.25584,315.68592 143.29916,315.08974 158.94888,310.46934 C 175.19479,305.55085 177.57951,305.10372 177.57951,306.89226 z M 223.9325,308.6808 C 224.82677,318.07063 224.08155,324.33052 222.14397,324.33052 C 220.95161,324.33052 220.05733,323.43625 220.05733,322.24389 C 220.05733,318.81586 216.6293,318.66681 214.84076,321.9458 C 213.49936,324.62861 211.85986,325.07575 204.25857,325.07575 C 192.7821,325.07575 193.22923,323.5853 206.79233,314.34451 C 216.48025,307.78653 223.63442,305.40181 223.9325,308.6808 z M 241.66886,326.86429 C 241.66886,346.68727 240.77459,349.37009 237.94273,338.04266 C 236.00515,330.73946 233.91852,330.44137 232.27903,337.29744 C 229.00003,350.86053 227.2115,344.4516 227.95672,321.79676 L 228.40385,307.19035 L 235.11088,307.19035 L 241.66886,307.19035 L 241.66886,326.86429 z M 263.28039,314.6426 C 269.39123,318.81586 274.45876,322.84007 274.45876,323.5853 C 274.45876,324.47957 270.58359,325.07575 265.66511,325.07575 C 258.21286,325.07575 256.87145,324.62861 256.12623,322.09485 C 255.08291,318.21968 251.0587,318.21968 249.86634,322.24389 C 248.0778,327.9076 245.54403,324.18148 245.39499,315.68592 C 245.39499,307.78653 245.69307,307.19035 248.82302,307.19035 C 250.7606,307.19035 257.16954,310.61838 263.28039,314.6426 z M 187.11839,313.45024 C 189.95024,317.92159 194.42159,335.21081 193.37828,337.89362 C 192.93115,339.08598 191.4407,339.98025 189.95024,339.98025 C 188.4598,339.98025 185.32985,341.02356 182.94513,342.21592 C 180.70945,343.40828 176.83428,344.4516 174.59861,344.4516 L 170.42535,344.4516 L 172.51198,337.44648 C 173.70434,333.72036 174.30052,330.29233 174.00243,329.84519 C 172.51198,328.35474 170.42535,331.33564 168.63681,337.74457 C 166.40114,345.64396 166.10305,345.94205 157.75653,346.68727 C 154.32849,346.98537 146.4291,348.02868 140.31826,348.92295 C 134.20741,349.81722 121.09146,351.45671 111.25449,352.64907 C 80.40217,356.3752 69.819975,357.7166 69.223795,358.46183 C 68.77666,358.75992 68.329525,360.25037 68.18048,361.88986 C 67.88239,364.12554 65.49767,364.87077 53.57407,366.06313 C 43.7371,367.10644 38.66957,368.2988 36.88103,370.08734 C 33.154905,373.96251 30.62114,372.02492 31.068275,365.61599 C 32.11159,355.18284 33.154905,350.4134 34.49631,350.4134 C 35.39058,350.4134 35.98676,352.64907 36.135805,355.18284 C 36.28485,359.65419 36.433895,359.80323 37.328165,356.52424 C 38.37148,352.50003 31.962545,354.58666 114.23539,330.44137 C 135.54882,324.18148 157.30939,317.6235 162.52597,316.13305 C 175.04575,312.25788 176.53619,312.25788 175.19479,316.43114 C 173.70434,321.34962 173.70434,322.84007 175.34384,323.28721 C 176.2381,323.5853 177.72856,320.75344 178.92092,317.02732 C 181.30563,309.42602 183.8394,308.38271 187.11839,313.45024 z M 205.89806,310.91647 C 205.89806,311.21456 204.40761,312.25788 202.61907,313.15215 C 199.34008,314.79164 199.34008,314.6426 202.02289,312.55597 C 205.15284,310.0222 205.89806,309.72411 205.89806,310.91647 z M 290.55562,314.94069 C 291.1518,317.47445 292.64225,320.00822 293.68556,320.30631 C 295.17602,320.75344 295.47411,320.00822 294.72888,317.02732 C 293.23843,311.21456 286.23332,309.57507 367.61189,333.27323 C 426.03753,350.26436 428.42225,350.86053 431.2541,349.072 C 433.48978,347.73059 434.08596,348.02868 434.83118,351.00958 C 435.27832,352.94716 435.72545,357.86565 435.8745,361.74082 C 436.17259,367.70262 435.72545,369.04402 433.48978,369.49116 C 431.99932,369.78925 429.9127,368.89498 428.86938,367.55358 C 427.08084,365.01981 422.3114,364.12554 408.89735,363.97649 C 402.04128,363.82745 400.84892,363.38031 399.65656,360.10132 C 398.91134,358.01469 397.71898,356.3752 397.12279,356.3752 C 396.37757,356.3752 390.86291,355.62997 384.75206,354.7357 C 378.64121,353.84143 371.6361,352.79812 369.10234,352.50003 C 366.71762,352.35098 358.96728,351.30767 351.96216,350.56245 C 344.95704,349.66818 333.33154,348.32677 325.87929,347.4325 C 302.47922,344.74969 303.0754,344.89873 302.03208,339.53311 C 300.39259,331.78278 296.96456,324.77766 295.47411,325.82097 C 294.57984,326.26811 294.87793,329.24901 296.07029,333.72036 C 297.26265,337.59553 298.30596,341.17261 298.30596,341.76879 C 298.30596,343.55733 289.66135,343.25924 288.61804,341.4707 C 288.1709,340.57643 285.93523,339.98025 283.69955,339.98025 C 278.03584,339.98025 275.94921,338.19171 276.69443,334.01845 C 280.71865,312.55597 281.76197,310.17125 286.53141,310.17125 C 288.31995,310.17125 289.66135,311.81074 290.55562,314.94069 z M 348.23604,320.6044 C 361.79913,324.77766 367.01571,327.16238 365.22717,328.50378 C 364.18385,329.5471 328.11496,318.66681 328.11496,317.32541 C 328.11496,315.23878 332.73536,315.984 348.23604,320.6044 z M 138.82781,318.9649 C 135.10169,321.20058 104.24937,329.84519 103.3551,328.95092 C 102.16274,327.60951 102.46083,327.46047 118.70674,322.54198 C 133.1641,317.92159 143.7463,316.13305 138.82781,318.9649 z M 385.64633,331.93182 C 392.5024,334.01845 398.16611,336.40317 398.16611,337.14839 C 398.16611,338.04266 396.97375,338.34075 395.63235,337.89362 C 394.1419,337.59553 387.882,335.80699 381.77116,334.01845 C 370.44374,330.73946 365.37621,328.05665 370.44374,328.05665 C 371.93419,328.05665 378.79026,329.84519 385.64633,331.93182 z M 97.840435,330.88851 C 96.946165,331.63373 90.984365,333.72036 84.426385,335.5089 C 78.01745,337.29744 71.75756,339.08598 70.714245,339.53311 C 69.67093,339.98025 68.77666,339.68216 68.77666,338.78789 C 68.77666,338.04266 74.589415,335.65794 81.89262,333.57131 C 96.051895,329.39805 100.07611,328.80187 97.840435,330.88851 z M 224.23059,332.82609 C 224.67773,334.61463 224.82677,336.55221 224.37964,337.14839 C 223.78346,338.19171 203.21525,331.78278 201.57576,330.14328 C 201.27767,329.84519 206.04711,329.5471 212.15795,329.5471 C 222.44206,329.5471 223.48537,329.84519 224.23059,332.82609 z M 265.36702,330.14328 C 263.72752,331.78278 246.28925,338.04266 245.54403,337.29744 C 245.0969,336.8503 244.64976,334.91272 244.64976,332.97514 C 244.64976,329.69615 245.0969,329.5471 255.381,329.5471 C 261.19376,329.5471 265.66511,329.84519 265.36702,330.14328 z M 272.96831,338.78789 C 271.62691,345.94205 270.13646,363.08222 268.79505,389.91033 L 267.75173,407.79572 L 264.3237,403.02629 C 259.55426,396.31926 257.91477,383.50139 258.3619,357.86565 L 258.80903,336.40317 L 265.51606,333.8694 C 269.24219,332.528 272.67022,331.63373 273.11736,331.93182 C 273.71354,332.22991 273.56449,335.35985 272.96831,338.78789 z M 205.74902,335.21081 L 210.81654,337.74457 L 211.41272,355.62997 C 211.71081,365.46695 211.26368,377.83768 210.36941,383.2033 C 208.43183,394.67976 204.7057,405.56005 202.76811,405.56005 C 202.02289,405.56005 201.42671,399.30016 201.27767,391.69886 C 201.12862,372.02492 200.08531,355.33188 198.44581,346.09109 C 195.763,331.33564 196.35918,330.44137 205.74902,335.21081 z M 419.47955,341.61974 C 424.99421,343.25924 429.46556,345.19682 429.46556,345.94205 C 429.46556,348.02868 428.72034,347.87964 414.26297,343.55733 C 406.95977,341.32165 401.14701,338.93693 401.14701,338.04266 C 401.14701,336.55221 404.12791,337.14839 419.47955,341.61974 z M 223.9325,344.15351 C 224.52868,351.60576 223.33633,373.66442 222.29301,374.70773 C 221.69683,375.45296 219.75924,375.15487 217.97071,373.96251 C 214.69172,372.02492 214.69172,371.42874 214.54267,351.90385 C 214.54267,337.74457 214.24458,338.4898 219.31211,340.12929 C 221.84588,341.02356 223.9325,342.8121 223.9325,344.15351 z M 254.0396,355.92806 C 254.93386,371.42874 254.78482,372.77015 252.4001,372.77015 C 250.90965,372.77015 248.97207,373.51537 248.0778,374.40964 C 245.54403,376.94341 244.64976,371.42874 245.0969,355.92806 C 245.39499,343.55733 245.69307,342.66306 249.12111,340.72547 C 251.20774,339.68216 252.99628,338.78789 252.99628,338.93693 C 253.14533,339.08598 253.59246,346.83632 254.0396,355.92806 z M 62.069635,341.32165 C 59.983005,343.25924 38.96766,348.92295 38.96766,347.58155 C 38.96766,346.98537 43.43901,345.04778 49.10272,343.40828 C 60.43014,339.98025 64.156265,339.38407 62.069635,341.32165 z M 194.57064,347.73059 C 195.01778,350.26436 195.01778,352.94716 194.42159,353.54334 C 192.63306,355.18284 179.06996,356.82233 179.06996,355.48093 C 179.06996,352.20194 185.1808,344.60064 188.31075,344.00446 C 190.24833,343.70637 192.18592,343.25924 192.63306,343.11019 C 193.22923,343.11019 193.97446,345.04778 194.57064,347.73059 z M 287.27663,348.17773 C 290.25753,355.33188 290.10849,355.33188 283.25241,354.43761 C 275.65112,353.3943 274.01162,351.90385 275.35303,346.83632 C 276.09825,343.70637 277.14157,342.96115 280.71865,342.96115 C 284.29573,342.96115 285.48809,343.85542 287.27663,348.17773 z M 177.57951,349.37009 C 177.57951,355.48093 168.18967,359.50514 167.44445,353.69239 C 166.84827,349.37009 164.46355,349.51913 163.27119,353.99048 C 162.67501,356.67329 161.18456,357.7166 157.75653,358.16374 C 150.75141,358.90896 147.77051,358.01469 147.77051,354.88475 C 147.77051,351.90385 147.91956,351.90385 166.40114,349.072 C 171.31962,348.32677 175.79097,347.73059 176.53619,347.58155 C 177.13237,347.58155 177.57951,348.32677 177.57951,349.37009 z M 301.28686,351.30767 C 303.22445,356.3752 303.22445,356.3752 299.05119,356.3752 C 296.51742,356.3752 294.72888,355.03379 293.08938,351.90385 L 290.70467,347.4325 L 295.32506,347.4325 C 298.90214,347.4325 300.24354,348.32677 301.28686,351.30767 z M 230.49049,353.09621 C 230.1924,354.43761 229.89431,356.97138 229.89431,358.61087 C 229.74526,360.54846 229.29812,360.99559 228.5529,359.80323 C 227.65863,358.31278 227.36054,352.05289 228.10576,349.22104 C 228.5529,347.28346 230.78858,351.00958 230.49049,353.09621 z M 241.66886,355.03379 C 241.66886,357.41851 241.07268,359.3561 240.17841,359.3561 C 239.43319,359.3561 238.68796,356.97138 238.68796,353.99048 C 238.68796,350.86053 239.28414,349.072 240.17841,349.66818 C 241.07268,350.11531 241.66886,352.50003 241.66886,355.03379 z M 315.14805,349.81722 C 319.17226,350.56245 320.66271,351.60576 320.66271,353.54334 C 320.66271,357.26947 318.57608,358.16374 312.61428,357.12042 C 309.33529,356.3752 307.09962,354.88475 305.90726,352.50003 C 304.11872,348.47582 305.01299,348.17773 315.14805,349.81722 z M 144.49152,355.18284 C 145.0877,358.31278 142.40489,359.05801 128.69275,360.10132 C 122.43286,360.6975 115.42775,361.29368 113.34112,361.59177 C 108.86977,362.03891 104.84555,360.10132 106.48505,358.31278 C 107.67741,357.12042 139.72208,352.05289 142.55393,352.64907 C 143.44821,352.79812 144.19343,353.99048 144.49152,355.18284 z M 348.23604,353.84143 C 358.3711,355.18284 361.65008,356.22615 361.65008,357.86565 C 361.65008,359.65419 359.56346,359.95228 349.13031,359.50514 C 342.27424,359.20705 335.56721,358.75992 334.22581,358.61087 C 332.8844,358.31278 330.05255,358.01469 327.81687,358.01469 C 324.68693,357.86565 323.64361,357.12042 323.64361,354.88475 C 323.64361,351.30767 327.36973,351.15862 348.23604,353.84143 z M 279.52629,357.26947 C 280.8677,357.7166 281.91101,359.50514 281.91101,360.99559 C 281.91101,364.42363 280.71865,364.57268 277.14157,361.29368 C 272.67022,357.26947 274.01162,355.18284 279.52629,357.26947 z M 386.68965,358.75992 C 391.31004,359.20705 395.63235,360.39941 396.22852,361.29368 C 397.12279,362.93318 367.90998,361.74082 365.22717,359.95228 C 362.09722,358.01469 366.12144,356.07711 371.93419,356.97138 C 375.21318,357.41851 381.92021,358.16374 386.68965,358.75992 z M 103.80224,359.20705 C 105.14364,361.59177 102.75892,362.18795 86.513015,363.08222 C 68.329525,364.27459 67.435255,361.88986 85.17161,359.65419 C 100.67229,357.7166 102.75892,357.7166 103.80224,359.20705 z M 195.46491,359.05801 C 195.46491,360.54846 189.35406,364.27459 188.4598,363.23127 C 186.8203,361.59177 189.50311,357.86565 192.48401,357.86565 C 194.1235,357.86565 195.46491,358.31278 195.46491,359.05801 z M 183.98845,361.29368 C 183.69036,361.88986 183.54131,363.6784 183.54131,365.3179 C 183.54131,368.00071 182.498,368.2988 173.10816,368.2988 C 162.9731,368.2988 162.82405,368.14976 164.01641,364.87077 C 164.91069,362.337 166.69923,361.44273 172.51198,360.6975 C 181.30563,359.65419 184.43558,359.80323 183.98845,361.29368 z M 304.26776,361.59177 C 307.54675,365.61599 305.16203,367.70262 297.41169,367.25549 C 293.38747,367.10644 288.91613,366.9574 287.57472,366.9574 C 285.78618,366.80835 284.89191,365.61599 284.89191,363.08222 C 284.89191,359.50514 285.33904,359.3561 293.68556,359.3561 C 299.64737,359.3561 303.0754,360.10132 304.26776,361.59177 z M 322.15316,364.27459 C 322.15316,367.25549 321.40794,367.85167 316.93659,368.00071 C 313.21046,368.14976 311.27287,367.40453 310.22956,365.3179 C 307.99389,361.14464 308.29198,360.84655 315.44614,360.84655 C 321.55698,360.84655 322.15316,361.14464 322.15316,364.27459 z M 160.14124,365.3179 C 159.69411,366.9574 158.65079,368.2988 157.60748,368.44784 C 156.71321,368.44784 153.88136,368.74593 151.19854,369.04402 C 147.62147,369.49116 146.4291,368.89498 145.83292,366.80835 C 144.78961,362.93318 145.83292,362.337 153.88136,362.337 C 160.14124,362.337 160.88647,362.63509 160.14124,365.3179 z M 351.66407,363.38031 C 360.60677,363.97649 363.88576,364.87077 363.88576,366.36122 C 363.88576,368.00071 360.30868,368.2988 344.95704,368.00071 C 328.264,367.55358 325.87929,367.25549 325.43215,364.87077 C 324.83597,361.88986 330.05255,361.59177 351.66407,363.38031 z M 141.80871,366.80835 C 141.80871,369.6402 140.7654,369.78925 123.17809,369.78925 C 107.82645,369.78925 104.54746,369.34211 104.54746,367.55358 C 104.54746,365.46695 109.3169,364.87077 132.56792,364.12554 C 140.91444,363.82745 141.80871,364.12554 141.80871,366.80835 z M 229.29812,368.59689 C 228.85099,369.6402 228.5529,368.89498 228.5529,366.80835 C 228.5529,364.72172 228.85099,363.97649 229.29812,364.87077 C 229.59622,365.91408 229.59622,367.70262 229.29812,368.59689 z M 241.66886,366.80835 C 241.66886,368.44784 241.07268,369.78925 240.17841,369.78925 C 239.43319,369.78925 238.68796,368.44784 238.68796,366.80835 C 238.68796,365.16886 239.43319,363.82745 240.17841,363.82745 C 241.07268,363.82745 241.66886,365.16886 241.66886,366.80835 z M 392.05527,366.21217 C 394.58903,366.80835 396.67566,367.85167 396.67566,368.59689 C 396.67566,369.34211 390.71386,369.6402 382.2183,369.19307 C 365.07812,368.44784 366.86666,368.59689 366.86666,366.80835 C 366.86666,365.16886 384.60302,364.72172 392.05527,366.21217 z M 100.07611,368.14976 C 100.07611,369.6402 89.04678,371.2797 78.31554,371.2797 C 68.031435,371.2797 67.88239,368.59689 78.166495,367.85167 C 94.11431,366.80835 100.07611,366.80835 100.07611,368.14976 z M 424.84517,369.04402 C 425.14326,369.49116 420.07573,369.78925 413.3687,369.78925 C 405.32027,369.78925 401.14701,369.19307 401.14701,368.14976 C 401.14701,366.9574 404.57505,366.65931 412.62348,367.40453 C 419.03241,368.00071 424.39803,368.74593 424.84517,369.04402 z M 65.050535,369.78925 C 65.646715,370.68352 62.51677,371.13065 56.55497,370.98161 L 47.165135,370.83256 L 55.36261,369.78925 C 59.83396,369.19307 63.70913,368.74593 63.858175,368.59689 C 64.00722,368.44784 64.6034,368.89498 65.050535,369.78925 z M 229.74526,424.9359 C 229.74526,458.32198 229.29812,475.6112 228.25481,475.6112 C 227.2115,475.6112 226.91341,458.91816 227.36054,425.23399 C 227.65863,397.66066 227.95672,374.85678 228.10576,374.55869 C 229.44717,371.57779 229.74526,382.30903 229.74526,424.9359 z M 241.66886,425.83017 C 241.66886,457.27866 241.07268,476.95261 240.32746,476.35643 C 238.24083,475.16406 238.09178,374.2606 240.17841,374.2606 C 241.22172,374.2606 241.66886,391.54982 241.66886,425.83017 z M 217.82166,380.07335 C 217.82166,381.71285 217.22548,383.50139 216.33121,383.94853 C 215.43694,384.54471 214.84076,383.2033 214.84076,381.11667 C 214.84076,379.03004 215.58598,377.2415 216.33121,377.2415 C 217.22548,377.2415 217.82166,378.5829 217.82166,380.07335 z M 253.89055,381.71285 C 254.48673,385.28993 254.18864,385.73706 252.54915,384.54471 C 250.31347,382.60712 249.86634,377.2415 251.95297,377.2415 C 252.69819,377.2415 253.59246,379.17908 253.89055,381.71285 z M 222.14397,402.57915 C 223.03824,410.92567 223.78346,421.65691 223.78346,426.42635 C 223.78346,433.8786 223.33633,435.36905 221.2497,435.5181 C 219.75924,435.5181 216.92739,435.81619 214.98981,436.26332 C 212.90318,436.56141 210.81654,436.11428 210.22037,435.22001 C 209.77323,434.32574 209.62419,426.42635 209.92228,417.6327 C 210.51846,404.0696 211.26368,400.79061 214.54267,394.82881 C 216.77835,390.80459 219.01402,387.67465 219.46115,387.67465 C 219.90829,387.67465 221.10065,394.38167 222.14397,402.57915 z M 253.59246,392.89122 C 256.87145,398.1078 259.25617,413.16134 258.95808,427.17157 L 258.80903,434.62383 L 251.50583,435.07096 L 244.20263,435.5181 L 245.39499,417.6327 C 245.84212,407.79572 246.58734,398.55494 246.88544,397.06448 C 247.18353,395.57403 247.48162,392.89122 247.48162,390.95364 C 247.63066,386.1842 249.86634,386.92942 253.59246,392.89122 z M 267.00651,423.74354 C 267.00651,429.2582 266.26129,434.17669 265.51606,434.62383 C 263.42943,435.96523 262.83325,433.43147 262.08803,419.12315 C 261.49185,406.90145 261.49185,406.75241 264.17466,410.18044 C 266.26129,412.86325 267.00651,416.44034 267.00651,423.74354 z M 206.19615,422.25309 C 205.59997,434.17669 205.15284,436.56141 203.81143,435.22001 C 202.61907,434.02765 202.47002,415.39702 203.66239,412.56516 C 205.89806,407.34859 206.64328,410.32949 206.19615,422.25309 z M 181.75277,455.93726 C 174.15148,467.11563 164.01641,482.16918 159.09793,489.32334 C 151.64568,500.50171 147.77051,504.67498 147.77051,501.69407 C 147.77051,501.24694 158.3527,484.10676 171.31962,463.38951 C 192.48401,429.2582 194.71968,426.2773 195.16682,430.59961 C 195.61396,434.77287 193.37828,438.94613 181.75277,455.93726 z M 284.44477,442.37416 C 289.36326,450.4226 300.54163,468.308 309.33529,482.02013 C 317.9799,495.88132 325.13406,507.35778 325.13406,507.80492 C 325.13406,508.69919 310.08051,520.3247 308.88815,520.3247 C 308.29198,520.3247 307.84484,518.98329 307.6958,517.19475 C 307.54675,515.10812 309.33529,513.02149 314.10473,510.18964 C 319.91748,506.61256 322.89839,502.4393 319.47035,502.4393 C 318.72512,502.4393 308.29198,487.68385 296.21933,469.6494 C 281.61292,447.88883 274.01162,435.36905 273.86258,432.38815 C 273.71354,430.00343 274.01162,427.9168 274.6078,427.9168 C 275.05494,427.9168 279.52629,434.47478 284.44477,442.37416 z M 223.78346,443.71557 C 223.78346,446.99456 223.18728,447.29265 216.33121,447.29265 C 209.47514,447.29265 208.87896,446.99456 208.87896,443.71557 C 208.87896,440.43658 209.62419,439.98944 215.28789,439.54231 C 223.18728,438.94613 223.78346,439.24422 223.78346,443.71557 z M 259.25617,442.37416 C 258.80903,446.24933 258.21286,446.54742 251.80392,446.99456 C 244.79881,447.44169 244.64976,447.44169 244.64976,442.97034 C 244.64976,438.49899 244.79881,438.34995 252.25106,438.34995 C 259.55426,438.34995 259.70331,438.49899 259.25617,442.37416 z M 267.00651,448.93214 C 267.00651,454.59585 266.55938,459.06721 265.9632,458.76911 C 264.77084,458.02389 265.21797,438.34995 266.41033,438.34995 C 266.70842,438.34995 267.00651,443.11939 267.00651,448.93214 z M 195.46491,469.6494 L 195.46491,494.98705 L 179.06996,503.18453 L 162.82405,511.382 L 157.60748,508.25205 L 152.39091,505.12211 L 163.71832,488.57812 C 188.4598,452.50923 194.1235,444.31175 194.71968,444.31175 C 195.16682,444.31175 195.46491,455.63917 195.46491,469.6494 z M 290.85371,467.41372 C 299.49832,480.08255 308.44102,493.4966 310.97478,497.37177 L 315.29709,504.22784 L 311.72001,507.05969 C 309.63338,508.55014 307.09962,509.89155 306.20535,509.89155 C 305.16203,509.89155 297.26265,506.46352 288.61804,502.29026 L 272.96831,494.53992 L 273.11736,469.50036 C 273.11736,455.63917 273.56449,444.31175 274.16067,444.31175 C 274.75685,444.31175 282.2091,454.7449 290.85371,467.41372 z M 223.03824,455.49012 C 223.03824,459.66339 222.5911,459.96148 216.77835,460.40861 C 213.20127,460.7067 210.36941,460.25957 210.36941,459.3653 C 210.36941,458.62007 209.92228,456.98057 209.47514,455.63917 C 208.43183,452.80732 213.6484,450.27355 219.31211,450.72069 C 222.44206,451.01878 223.03824,451.764 223.03824,455.49012 z M 259.25617,454.29777 C 258.80903,458.17293 258.21286,458.47102 251.80392,458.91816 C 244.79881,459.3653 244.64976,459.3653 244.64976,454.89394 C 244.64976,450.4226 244.79881,450.27355 252.25106,450.27355 C 259.55426,450.27355 259.70331,450.4226 259.25617,454.29777 z M 265.21797,466.96659 C 263.28039,476.05833 260.44853,478.29401 261.64089,469.79845 C 262.68421,462.64428 263.57848,460.7067 265.51606,460.7067 C 266.11224,460.7067 266.11224,463.53855 265.21797,466.96659 z M 206.49424,469.94749 C 207.09042,473.22648 206.94137,475.6112 206.19615,475.6112 C 204.55666,475.6112 202.91716,470.54367 202.91716,465.17805 C 202.91716,460.11052 205.30188,463.24046 206.49424,469.94749 z M 258.06381,469.79845 L 258.06381,477.2507 L 251.80392,476.80356 C 245.69307,476.35643 245.39499,476.05833 244.94785,471.43794 C 244.20263,463.6876 245.39499,462.19715 252.10201,462.19715 L 258.06381,462.19715 L 258.06381,469.79845 z M 223.48537,469.94749 C 223.03824,476.20738 223.03824,476.35643 217.07644,476.35643 C 211.11463,476.35643 211.11463,476.35643 210.6675,469.94749 L 210.22037,463.6876 L 217.07644,463.6876 L 223.9325,463.6876 L 223.48537,469.94749 z M 203.0662,493.4966 C 202.91716,505.86734 202.47002,511.68009 201.42671,514.3629 C 200.23435,517.04571 198.59485,499.01126 198.59485,484.5539 C 198.59485,467.71182 198.7439,467.56277 200.83053,473.37552 C 202.32098,477.2507 203.0662,484.25581 203.0662,493.4966 z M 269.09314,485.59722 C 268.9441,493.64565 268.64601,503.48262 268.64601,507.65587 C 268.34792,520.77184 265.81415,512.87245 264.91988,496.32845 C 264.17466,483.65963 264.47275,479.48637 266.41033,475.76024 C 267.60269,473.22648 268.79505,471.13985 269.09314,471.13985 C 269.24219,471.13985 269.24219,477.69783 269.09314,485.59722 z M 236.75038,478.89019 C 237.64464,479.9335 238.68796,482.76536 239.28414,485.15008 C 240.4765,489.77047 240.62555,515.85335 239.58223,521.06993 C 239.28414,522.70942 238.53892,526.88268 237.94273,530.31071 C 237.19751,535.2292 236.30324,536.71965 234.21661,536.71965 C 231.98094,536.71965 231.23571,535.08015 230.1924,528.07504 C 228.70194,517.3438 228.70194,486.64053 230.1924,481.12586 C 231.38476,476.80356 234.36566,475.90929 236.75038,478.89019 z M 223.78346,486.04435 C 223.78346,489.1743 221.54779,490.06856 220.05733,487.5348 C 219.01402,485.74626 220.35542,483.06345 222.44206,483.06345 C 223.18728,483.06345 223.78346,484.40485 223.78346,486.04435 z M 213.05222,486.34244 C 212.0089,489.1743 207.38851,489.62143 207.38851,486.93862 C 207.38851,485.44817 208.72992,484.5539 210.51846,484.5539 C 212.307,484.5539 213.35031,485.29913 213.05222,486.34244 z M 249.12111,486.93862 C 249.12111,488.28003 248.0778,489.02525 246.58734,488.72716 C 242.86122,487.98194 242.41409,484.5539 245.99116,484.5539 C 247.77971,484.5539 249.12111,485.44817 249.12111,486.93862 z M 260.15044,486.78958 C 260.0014,489.47238 255.08291,489.47238 255.08291,486.78958 C 255.08291,485.29913 256.12623,484.5539 257.76572,484.85199 C 259.10712,485.15008 260.29949,486.04435 260.15044,486.78958 z M 195.46491,506.7616 L 195.46491,514.21385 L 187.11839,516.59857 C 178.17569,519.13234 174.30052,518.83425 169.38204,515.40621 C 166.69923,513.31958 167.44445,512.7234 179.81519,506.46352 C 187.26744,502.73739 193.67637,499.60744 194.42159,499.60744 C 195.01778,499.4584 195.46491,502.73739 195.46491,506.7616 z M 287.87281,505.56925 C 293.98365,508.84823 299.49832,512.12722 300.24354,512.7234 C 300.83972,513.31958 299.05119,515.10812 296.21933,516.59857 C 291.74798,518.98329 290.40658,519.13234 282.2091,517.3438 C 276.09825,516.15144 272.96831,514.66099 272.67022,513.17054 C 271.77595,508.55014 273.2664,499.4584 275.05494,499.4584 C 275.94921,499.4584 281.76197,502.29026 287.87281,505.56925 z M 157.90557,516.59857 C 158.50175,520.62279 157.16035,521.21897 153.58327,518.38711 C 144.04439,510.93487 143.00107,509.7425 143.89534,507.65587 C 145.23675,503.92975 157.30939,511.53105 157.90557,516.59857 z M 168.04063,519.57948 C 170.72344,521.66611 170.72344,521.66611 166.84827,521.81515 C 164.16546,521.81515 162.67501,521.06993 162.67501,519.57948 C 162.67501,516.74762 164.3145,516.74762 168.04063,519.57948 z M 302.77731,519.57948 C 302.77731,520.77184 301.4359,521.81515 299.79641,521.81515 C 296.51742,521.81515 295.7722,519.57948 298.7531,518.38711 C 301.88304,517.04571 302.77731,517.3438 302.77731,519.57948 z "
         id="path8"
         style="fill:#ffffff;fill-opacity:1;stroke:none" />
      <path
         d="M 234.21661,312.40693 C 234.21661,313.59929 234.96184,314.6426 235.70706,314.6426 C 236.60133,314.6426 237.19751,313.59929 237.19751,312.40693 C 237.19751,311.21456 236.60133,310.17125 235.70706,310.17125 C 234.96184,310.17125 234.21661,311.21456 234.21661,312.40693 z "
         id="path10"
         style="fill:#ffffff;fill-opacity:1;stroke:none" />
      <path
         d="M 155.07371,381.26572 C 154.32849,383.65044 152.83804,387.37656 151.94377,389.61223 C 150.30427,393.78549 151.34759,396.76639 153.58327,394.23263 C 154.62658,393.18931 159.69411,379.32813 159.69411,377.68863 C 159.69411,377.39054 158.94888,377.2415 158.20366,377.2415 C 157.30939,377.2415 155.96798,379.03004 155.07371,381.26572 z "
         id="path12"
         style="fill:#ffffff;fill-opacity:1;stroke:none" />
      <path
         d="M 316.48945,396.76639 C 316.93659,397.95875 318.42703,402.43011 319.76844,406.60336 C 321.25889,410.92567 323.04743,414.50275 323.79266,414.50275 C 326.47546,414.50275 320.66271,396.31926 317.68181,395.42499 C 316.48945,394.97785 316.04232,395.57403 316.48945,396.76639 z "
         id="path14"
         style="fill:#ffffff;fill-opacity:1;stroke:none" />
      <path
         d="M 147.17433,405.11291 C 144.49152,412.71421 144.19343,415.9932 145.98197,415.9932 C 147.02528,415.9932 152.24186,402.7282 152.24186,399.7473 C 152.24186,395.72308 149.26096,398.70398 147.17433,405.11291 z "
         id="path16"
         style="fill:#ffffff;fill-opacity:1;stroke:none" />
      <path
         d="M 323.64361,418.82506 C 323.64361,419.71933 324.53788,422.99831 325.73024,425.97921 C 326.9226,429.10916 328.264,432.98433 328.71114,434.47478 C 329.30732,436.26332 330.20159,436.8595 331.09586,435.96523 C 332.73536,434.32574 327.81687,418.67601 325.43215,417.78174 C 324.38884,417.48365 323.64361,417.93079 323.64361,418.82506 z "
         id="path18"
         style="fill:#ffffff;fill-opacity:1;stroke:none" />
      <path
         d="M 139.87113,428.36393 C 137.03927,437.30664 136.74118,439.8404 138.52972,439.8404 C 139.72208,439.8404 144.78961,425.53208 144.78961,422.25309 C 144.78961,417.78174 142.1068,421.20977 139.87113,428.36393 z "
         id="path20"
         style="fill:#ffffff;fill-opacity:1;stroke:none" />
      <path
         d="M 331.39395,442.97034 C 331.84109,444.1627 333.33154,448.63405 334.67294,452.80732 C 337.05766,459.96148 340.18761,463.53855 339.88952,458.76911 C 339.59143,454.44681 334.5239,442.22512 332.58631,441.62894 C 331.39395,441.1818 330.94682,441.77799 331.39395,442.97034 z "
         id="path22"
         style="fill:#ffffff;fill-opacity:1;stroke:none" />
      <path
         d="M 135.25073,444.31175 C 133.1641,449.67737 129.88511,459.66339 129.88511,460.85575 C 129.88511,461.60097 130.48129,462.19715 131.37556,462.19715 C 133.01506,462.19715 137.78449,446.54742 136.89023,443.86461 C 136.44309,442.67225 135.99596,442.67225 135.25073,444.31175 z "
         id="path24"
         style="fill:#ffffff;fill-opacity:1;stroke:none" />
      <path
         d="M 128.39466,468.00991 C 128.39466,470.99081 129.73606,473.52457 133.01506,476.20738 C 139.1259,481.42395 141.21253,479.78446 135.69787,474.26979 C 133.31314,471.88507 131.37556,468.45704 131.37556,466.81754 C 131.37556,465.029 130.77938,463.6876 129.88511,463.6876 C 129.13988,463.6876 128.39466,465.62518 128.39466,468.00991 z "
         id="path26"
         style="fill:#ffffff;fill-opacity:1;stroke:none" />
      <path
         d="M 338.54811,465.77423 C 338.54811,466.96659 336.75957,469.94749 334.67294,472.48125 C 331.84109,475.90929 331.39395,477.10165 333.03345,477.10165 C 334.37485,477.10165 336.75957,475.31311 338.39907,473.22648 C 341.67806,469.05322 342.57233,463.6876 340.03856,463.6876 C 339.29334,463.6876 338.54811,464.58187 338.54811,465.77423 z "
         id="path28"
         style="fill:#ffffff;fill-opacity:1;stroke:none" />
    </g>
  </g>
</svg>
