<?xml version="1.0" encoding="UTF-8" standalone="no"?>
<svg
   xmlns:dc="http://purl.org/dc/elements/1.1/"
   xmlns:cc="http://web.resource.org/cc/"
   xmlns:rdf="http://www.w3.org/1999/02/22-rdf-syntax-ns#"
   xmlns:svg="http://www.w3.org/2000/svg"
   xmlns="http://www.w3.org/2000/svg"
   xmlns:sodipodi="http://inkscape.sourceforge.net/DTD/sodipodi-0.dtd"
   xmlns:inkscape="http://www.inkscape.org/namespaces/inkscape"
   id="svg1"
   width="480"
   height="480"
   sodipodi:version="0.32"
   inkscape:version="0.43"
   sodipodi:docname="a.atomic_theory.svg"
   sodipodi:docbase="/home/fred/work/freeciv/r-hires!.5/src/tech"
   version="1.0">
  <metadata
     id="metadata1351">
    <rdf:RDF>
      <cc:Work
         rdf:about="">
        <dc:format>image/svg+xml</dc:format>
        <dc:type
           rdf:resource="http://purl.org/dc/dcmitype/StillImage" />
      </cc:Work>
    </rdf:RDF>
  </metadata>
  <defs
     id="defs1349" />
  <sodipodi:namedview
     inkscape:window-height="748"
     inkscape:window-width="992"
     inkscape:pageshadow="2"
     inkscape:pageopacity="1"
     borderopacity="1.0"
     bordercolor="#666666"
     pagecolor="#beae00"
     id="base"
     showgrid="true"
     inkscape:grid-bbox="true"
     inkscape:grid-points="true"
     gridspacingx="16px"
     gridspacingy="16px"
     gridtolerance="4px"
     gridempspacing="4"
     inkscape:zoom="0.77745738"
     inkscape:cx="339.88554"
     inkscape:cy="161.21379"
     inkscape:window-x="0"
     inkscape:window-y="0"
     inkscape:current-layer="svg1" />
  <rect
     style="opacity:1;color:#000000;fill:#ffc033;fill-opacity:1;fill-rule:nonzero;stroke:none;stroke-width:35;stroke-linecap:butt;stroke-linejoin:miter;marker:none;marker-start:none;marker-mid:none;marker-end:none;stroke-miterlimit:4;stroke-dasharray:none;stroke-dashoffset:0;stroke-opacity:1;visibility:visible;display:inline;overflow:visible"
     id="rect4946"
     width="480"
     height="480"
     x="0"
     y="0" />
  <g
     id="g4042"
     style="stroke:#ffffff;stroke-width:35;stroke-miterlimit:4;stroke-dasharray:none;stroke-opacity:1"
     transform="translate(4.000098,4.000068)">
    <path
       sodipodi:type="arc"
       style="color:#000000;fill:none;fill-opacity:1;fill-rule:nonzero;stroke:#ffffff;stroke-width:40.41089801;stroke-linecap:butt;stroke-linejoin:miter;marker:none;marker-start:none;marker-mid:none;marker-end:none;stroke-miterlimit:4;stroke-dasharray:none;stroke-dashoffset:0;stroke-opacity:1;visibility:visible;display:inline;overflow:visible"
       id="path4044"
       sodipodi:cx="240"
       sodipodi:cy="256"
       sodipodi:rx="240"
       sodipodi:ry="96"
       d="M 480 256 A 240 96 0 1 1  0,256 A 240 96 0 1 1  480 256 z"
       transform="matrix(0.866103,0,0,0.866103,32.13533,18.27763)" />
    <path
       transform="matrix(0.612427,-0.612427,0.612427,0.612427,-63.76389,230.2011)"
       d="M 480 256 A 240 96 0 1 1  0,256 A 240 96 0 1 1  480 256 z"
       sodipodi:ry="96"
       sodipodi:rx="240"
       sodipodi:cy="256"
       sodipodi:cx="240"
       id="path4046"
       style="color:#000000;fill:none;fill-opacity:1;fill-rule:nonzero;stroke:#ffffff;stroke-width:40.4109181;stroke-linecap:butt;stroke-linejoin:miter;marker:none;marker-start:none;marker-mid:none;marker-end:none;stroke-miterlimit:4;stroke-dasharray:none;stroke-dashoffset:0;stroke-opacity:1;visibility:visible;display:inline;overflow:visible"
       sodipodi:type="arc" />
    <path
       transform="matrix(0,-0.866103,0.866103,0,18.27771,447.8648)"
       d="M 480 256 A 240 96 0 1 1  0,256 A 240 96 0 1 1  480 256 z"
       sodipodi:ry="96"
       sodipodi:rx="240"
       sodipodi:cy="256"
       sodipodi:cx="240"
       id="path4048"
       style="color:#000000;fill:none;fill-opacity:1;fill-rule:nonzero;stroke:#ffffff;stroke-width:40.41089801;stroke-linecap:butt;stroke-linejoin:miter;marker:none;marker-start:none;marker-mid:none;marker-end:none;stroke-miterlimit:4;stroke-dasharray:none;stroke-dashoffset:0;stroke-opacity:1;visibility:visible;display:inline;overflow:visible"
       sodipodi:type="arc" />
    <path
       transform="matrix(-0.612427,-0.612427,0.612427,-0.612427,230.2012,543.7639)"
       d="M 480 256 A 240 96 0 1 1  0,256 A 240 96 0 1 1  480 256 z"
       sodipodi:ry="96"
       sodipodi:rx="240"
       sodipodi:cy="256"
       sodipodi:cx="240"
       id="path4050"
       style="color:#000000;fill:none;fill-opacity:1;fill-rule:nonzero;stroke:#ffffff;stroke-width:40.4109181;stroke-linecap:butt;stroke-linejoin:miter;marker:none;marker-start:none;marker-mid:none;marker-end:none;stroke-miterlimit:4;stroke-dasharray:none;stroke-dashoffset:0;stroke-opacity:1;visibility:visible;display:inline;overflow:visible"
       sodipodi:type="arc" />
    <path
       sodipodi:type="arc"
       style="color:#000000;fill:#fff3f3;fill-opacity:1;fill-rule:nonzero;stroke:#ffffff;stroke-width:35;stroke-linecap:butt;stroke-linejoin:miter;marker:none;marker-start:none;marker-mid:none;marker-end:none;stroke-miterlimit:4;stroke-dasharray:none;stroke-dashoffset:0;stroke-opacity:1;visibility:visible;display:inline;overflow:visible"
       id="path4052"
       sodipodi:cx="240"
       sodipodi:cy="256"
       sodipodi:rx="32"
       sodipodi:ry="32"
       d="M 272 256 A 32 32 0 1 1  208,256 A 32 32 0 1 1  272 256 z"
       transform="translate(0,-16.00005)" />
  </g>
  <g
     id="g4932">
    <path
       transform="matrix(0.866103,0,0,0.866103,32.13533,18.27763)"
       d="M 480 256 A 240 96 0 1 1  0,256 A 240 96 0 1 1  480 256 z"
       sodipodi:ry="96"
       sodipodi:rx="240"
       sodipodi:cy="256"
       sodipodi:cx="240"
       id="path1353"
       style="color:#000000;fill:none;fill-opacity:1;fill-rule:nonzero;stroke:#000000;stroke-width:23.09194172;stroke-linecap:butt;stroke-linejoin:miter;marker:none;marker-start:none;marker-mid:none;marker-end:none;stroke-miterlimit:4;stroke-dasharray:none;stroke-dashoffset:0;stroke-opacity:1;visibility:visible;display:inline;overflow:visible"
       sodipodi:type="arc" />
    <path
       sodipodi:type="arc"
       style="color:#000000;fill:none;fill-opacity:1;fill-rule:nonzero;stroke:#000000;stroke-width:23.0919532;stroke-linecap:butt;stroke-linejoin:miter;marker:none;marker-start:none;marker-mid:none;marker-end:none;stroke-miterlimit:4;stroke-dasharray:none;stroke-dashoffset:0;stroke-opacity:1;visibility:visible;display:inline;overflow:visible"
       id="use2228"
       sodipodi:cx="240"
       sodipodi:cy="256"
       sodipodi:rx="240"
       sodipodi:ry="96"
       d="M 480 256 A 240 96 0 1 1  0,256 A 240 96 0 1 1  480 256 z"
       transform="matrix(0.612427,-0.612427,0.612427,0.612427,-63.76389,230.2011)" />
    <path
       sodipodi:type="arc"
       style="color:#000000;fill:none;fill-opacity:1;fill-rule:nonzero;stroke:#000000;stroke-width:23.09194172;stroke-linecap:butt;stroke-linejoin:miter;marker:none;marker-start:none;marker-mid:none;marker-end:none;stroke-miterlimit:4;stroke-dasharray:none;stroke-dashoffset:0;stroke-opacity:1;visibility:visible;display:inline;overflow:visible"
       id="use2232"
       sodipodi:cx="240"
       sodipodi:cy="256"
       sodipodi:rx="240"
       sodipodi:ry="96"
       d="M 480 256 A 240 96 0 1 1  0,256 A 240 96 0 1 1  480 256 z"
       transform="matrix(0,-0.866103,0.866103,0,18.27771,447.8648)" />
    <path
       sodipodi:type="arc"
       style="color:#000000;fill:none;fill-opacity:1;fill-rule:nonzero;stroke:#000000;stroke-width:23.0919532;stroke-linecap:butt;stroke-linejoin:miter;marker:none;marker-start:none;marker-mid:none;marker-end:none;stroke-miterlimit:4;stroke-dasharray:none;stroke-dashoffset:0;stroke-opacity:1;visibility:visible;display:inline;overflow:visible"
       id="use2234"
       sodipodi:cx="240"
       sodipodi:cy="256"
       sodipodi:rx="240"
       sodipodi:ry="96"
       d="M 480 256 A 240 96 0 1 1  0,256 A 240 96 0 1 1  480 256 z"
       transform="matrix(-0.612427,-0.612427,0.612427,-0.612427,230.2012,543.7639)" />
    <path
       transform="translate(0,-16.00005)"
       d="M 272 256 A 32 32 0 1 1  208,256 A 32 32 0 1 1  272 256 z"
       sodipodi:ry="32"
       sodipodi:rx="32"
       sodipodi:cy="256"
       sodipodi:cx="240"
       id="path2242"
       style="color:#000000;fill:#000000;fill-opacity:1;fill-rule:nonzero;stroke:#000000;stroke-width:20;stroke-linecap:butt;stroke-linejoin:miter;marker:none;marker-start:none;marker-mid:none;marker-end:none;stroke-miterlimit:4;stroke-dasharray:none;stroke-dashoffset:0;stroke-opacity:1;visibility:visible;display:inline;overflow:visible"
       sodipodi:type="arc" />
  </g>
</svg>
