<?xml version="1.0" encoding="UTF-8" standalone="no"?>
<!-- Created with Inkscape (http://www.inkscape.org/) -->
<svg
   xmlns:dc="http://purl.org/dc/elements/1.1/"
   xmlns:cc="http://web.resource.org/cc/"
   xmlns:rdf="http://www.w3.org/1999/02/22-rdf-syntax-ns#"
   xmlns:svg="http://www.w3.org/2000/svg"
   xmlns="http://www.w3.org/2000/svg"
   xmlns:sodipodi="http://inkscape.sourceforge.net/DTD/sodipodi-0.dtd"
   xmlns:inkscape="http://www.inkscape.org/namespaces/inkscape"
   sodipodi:docname="citroen-trefle.svg"
   sodipodi:docbase="/home/fred"
   inkscape:version="0.42"
   sodipodi:version="0.32"
   id="svg2"
   height="400.00000pt"
   width="500.00000pt">
  <defs
     id="defs4" />
  <sodipodi:namedview
     inkscape:window-y="0"
     inkscape:window-x="0"
     inkscape:window-height="748"
     inkscape:window-width="992"
     inkscape:current-layer="layer1"
     inkscape:document-units="px"
     inkscape:cy="206.91145"
     inkscape:cx="281.39794"
     inkscape:zoom="2.0319420"
     inkscape:pageshadow="2"
     inkscape:pageopacity="0.0"
     borderopacity="1.0"
     bordercolor="#666666"
     pagecolor="#ffffff"
     id="base" />
  <metadata
     id="metadata7">
    <rdf:RDF>
      <cc:Work
         rdf:about="">
        <dc:format>image/svg+xml</dc:format>
        <dc:type
           rdf:resource="http://purl.org/dc/dcmitype/StillImage" />
      </cc:Work>
    </rdf:RDF>
  </metadata>
  <g
     id="layer1"
     inkscape:groupmode="layer"
     inkscape:label="Calque 1">
    <path
       style="fill:#ffffff;fill-opacity:1.0000000;fill-rule:evenodd;stroke:none;stroke-width:1.0000000px;stroke-linecap:butt;stroke-linejoin:miter;stroke-opacity:1.0000000"
       d="M 304.46663,207.42275 L 295.28402,218.74197 L 298.52494,239.90399 L 310.40833,253.68391 L 323.37201,254.66819 L 335.79555,245.31753 L 339.57662,224.15551 L 329.85386,206.93061 L 319.05078,204.96205 L 304.46663,207.42275 z "
       id="path2186" />
    <path
       style="fill:#ffffff;fill-opacity:1.0000000;fill-rule:evenodd;stroke:none;stroke-width:1.0000000px;stroke-linecap:butt;stroke-linejoin:miter;stroke-opacity:1.0000000"
       d="M 153.05555,200.28672 L 144.68917,211.60594 L 147.64201,232.76796 L 158.46909,246.54788 L 170.28045,247.53216 L 181.59967,238.18150 L 185.04465,217.01948 L 176.18613,199.79458 L 166.34333,197.82602 L 153.05555,200.28672 z "
       id="path1457" />
    <path
       id="path4641"
       d="M 340.34375 142.96875 L 334.06250 153.40625 L 321.56250 154.09375 L 281.87500 163.84375 L 249.87500 167.31250 L 226.18750 178.43750 L 211.59375 207.00000 L 206.00000 245.96875 L 190.68750 244.56250 L 177.46875 242.46875 L 155.21875 246.65625 L 144.78125 225.09375 L 132.25000 218.81250 L 85.593750 222.31250 L 71.000000 228.56250 L 62.625000 239.68750 L 71.000000 252.93750 L 80.750000 257.78125 L 99.531250 248.75000 L 119.71875 243.87500 L 137.12500 256.40625 L 146.84375 270.31250 L 83.531250 293.28125 L 64.718750 374.03125 C 66.806722 377.51122 109.28125 423.43750 109.28125 423.43750 C 109.28125 423.43750 157.30401 378.19022 158.00000 375.40625 C 158.69600 372.62228 160.06250 361.50000 160.06250 361.50000 L 308.31250 375.40625 C 308.31251 375.40624 350.07677 433.17630 351.46875 436.65625 C 352.86074 440.13623 364.70518 458.23573 378.62500 456.84375 C 392.54484 455.45178 426.65625 394.89164 426.65625 385.84375 C 426.65624 376.79588 426.65625 320.43750 426.65625 320.43750 C 426.65624 320.43750 448.90082 339.92052 454.46875 341.31250 C 460.03668 342.70448 479.53125 341.31250 479.53125 341.31250 L 501.81250 333.65625 L 526.87500 320.43750 C 526.87503 320.43750 544.27853 348.97724 547.06250 348.28125 C 549.84645 347.58527 567.21875 316.25000 567.21875 316.25000 L 563.75000 260.59375 L 565.15625 239.00000 L 580.46875 218.12500 L 563.06250 206.28125 L 542.18750 172.87500 L 528.25000 161.75000 L 446.12500 164.53125 L 340.34375 142.96875 z M 322.93750 204.90625 L 339.65625 227.15625 L 332.68750 247.34375 L 319.46875 255.00000 C 319.46875 255.00000 304.13892 248.75543 297.87500 243.18750 C 291.61108 237.61957 296.49150 220.19870 297.18750 216.71875 L 305.53125 207.00000 L 322.93750 204.90625 z "
       style="fill:#b3b1b1;fill-opacity:1.0000000;fill-rule:evenodd;stroke:none;stroke-width:1.0000000px;stroke-linecap:butt;stroke-linejoin:miter;stroke-opacity:1.0000000" />
    <path
       id="path6098"
       d="M 205.71453,291.33263 C 206.20667,292.80905 219.98659,301.66757 219.98659,301.66757 L 257.88137,309.04967 L 276.09055,309.04967 C 276.09055,309.04967 281.01195,299.69901 280.02767,290.34835 C 279.04339,280.99769 281.50409,234.73653 281.50409,234.73653 C 281.50409,234.73653 274.12199,213.57451 271.16915,210.12953 C 268.21631,206.68455 240.16433,202.25529 240.16433,202.25529 L 227.36869,204.71599 L 218.51017,210.62167 C 218.51017,210.62167 213.09663,206.68455 212.11235,215.05093 C 211.12807,223.41731 205.71453,291.82477 205.71453,291.33263 z "
       style="stroke-opacity:1.0000000;stroke-linejoin:miter;stroke-linecap:butt;stroke-width:1.0000000px;stroke:none;fill-rule:evenodd;fill-opacity:1.0000000;fill:#d5d5d5" />
    <path
       id="path4626"
       d="M 389.78125 271.65625 L 370.09375 277.56250 C 355.98574 284.12438 346.78056 288.70480 339.56250 306.09375 L 331.68750 342.50000 L 326.78125 412.40625 L 339.56250 462.59375 C 339.56251 462.59376 338.59603 482.28106 362.21875 480.31250 C 385.84147 478.34395 392.71875 473.43750 392.71875 473.43750 C 392.71874 473.43750 417.32822 453.73371 418.31250 446.84375 C 419.29677 439.95379 431.12500 411.40625 431.12500 411.40625 L 435.06250 370.06250 L 428.15625 326.78125 L 418.31250 294.28125 L 400.59375 272.62500 L 389.78125 271.65625 z M 403.56250 311.03125 L 418.31250 354.31250 L 413.40625 400.59375 L 401.59375 427.15625 C 401.59375 427.15625 390.76516 435.04698 385.84375 436.03125 C 380.92235 437.01553 374.03124 431.09375 374.03125 431.09375 L 364.18750 405.50000 L 370.09375 346.43750 L 380.90625 316.93750 C 387.79621 311.03182 403.56251 311.03126 403.56250 311.03125 z "
       style="fill:#080808;fill-opacity:1.0000000;fill-rule:evenodd;stroke:none;stroke-width:1.0000000px;stroke-linecap:butt;stroke-linejoin:miter;stroke-opacity:1.0000000" />
    <path
       sodipodi:nodetypes="cccccccsccccccccccccccccccc"
       id="path4624"
       d="M 140.75205,266.72563 C 136.81493,266.72563 112.20792,263.77279 112.20792,263.77279 L 83.832680,265.74135 L 63.521037,282.23528 L 50.198282,326.76671 L 48.229722,384.83924 L 68.899603,421.25760 C 68.899603,421.25760 85.632364,433.06896 90.553764,433.06896 C 95.475164,433.06896 117.82531,432.90008 117.82531,432.90008 L 140.75205,421.25760 L 162.40621,401.57200 L 167.32761,374.01215 L 164.37477,361.21651 L 146.65773,359.24795 L 145.67345,375.98071 L 127.95641,403.54056 L 107.28652,409.44624 L 81.695243,390.74492 L 77.758123,365.15363 L 85.632364,332.67239 L 95.475164,306.09683 L 118.11360,296.25403 L 137.79921,307.08111 L 145.67345,327.75099 L 167.32761,329.71955 L 161.42193,304.12827 L 140.75205,266.72563 z "
       style="fill:#080808;fill-opacity:1.0000000;fill-rule:evenodd;stroke:none;stroke-width:1.0000000px;stroke-linecap:butt;stroke-linejoin:miter;stroke-opacity:1.0000000" />
    <path
       id="path4631"
       d="M 554.15625 234.25000 L 546.28125 256.87500 L 544.31250 287.40625 L 541.21875 305.21875 L 547.25000 285.43750 L 558.09375 270.65625 L 562.03125 285.43750 L 563.00000 317.90625 L 552.18750 335.62500 L 536.43750 320.87500 L 539.62500 310.43750 L 519.68750 320.87500 C 519.68747 320.87501 520.68788 346.45341 524.62500 349.40625 C 528.56210 352.35909 534.45360 363.17178 539.37500 362.18750 C 544.29642 361.20323 550.21913 360.23409 554.15625 357.28125 C 558.09337 354.32841 564.96875 343.50000 564.96875 343.50000 L 572.84375 310.03125 L 574.81250 280.50000 L 566.93750 251.96875 L 561.03125 240.15625 L 554.15625 234.25000 z "
       style="stroke-opacity:1.0000000;stroke-linejoin:miter;stroke-linecap:butt;stroke-width:1.0000000px;stroke:none;fill-rule:evenodd;fill-opacity:1.0000000;fill:#080808" />
    <path
       id="path3167"
       d="M 346.59375,47.593750 L 331.28125,49.000000 L 288.12500,62.906250 L 257.53125,75.437500 L 289.53125,89.375000 L 315.96875,104.68750 L 331.28125,132.53125 L 332.68750,150.62500 L 395.31250,154.78125 L 435.68750,167.31250 L 445.43750,185.40625 C 445.43750,185.40625 459.36957,186.81250 464.93750,186.81250 C 470.50542,186.81249 490.56231,187.62519 490.56231,187.62519 L 498.71184,171.89934 L 526.15625,179.84375 C 526.15626,179.84375 534.51698,182.62973 533.12500,161.75000 C 531.73304,140.87026 531.75000,124.15625 531.75000,124.15625 L 540.09375,99.093750 L 544.25000,78.218750 L 533.12500,58.750000 C 533.12503,58.749998 540.07809,54.565215 508.06250,51.781250 C 476.04692,48.997285 430.12500,47.593750 430.12500,47.593750 L 346.59375,47.593750 z M 406.50000,83.656250 L 467.53125,87.593750 L 466.56250,106.28125 L 458.68750,119.09375 L 440.96875,121.06250 L 421.28125,114.15625 L 411.43750,103.34375 L 406.50000,83.656250 z "
       style="fill:#797979;fill-opacity:1.0000000;fill-rule:evenodd;stroke:none;stroke-width:1.0000000px;stroke-linecap:butt;stroke-linejoin:miter;stroke-opacity:1.0000000"
       sodipodi:nodetypes="cccccccccccscccsccccscccccccccc" />
    <path
       sodipodi:nodetypes="ccccccccccccccccccccccc"
       id="path4636"
       d="M 521.16316,176.66449 L 499.50691,172.71260 L 479.34375,221.43750 L 467.53125,262.78125 L 475.40625,306.09375 L 493.10966,317.90587 L 511.82822,308.06231 L 526.59375,287.40625 L 533.46875,259.84375 L 536.43750,212.59375 L 533.46875,187.00000 L 521.16316,176.66449 z M 517.71875,201.75000 L 527.56250,218.50000 L 523.62500,240.15625 L 517.71875,268.68750 L 503.93750,284.43750 L 492.12500,273.62500 L 488.18750,250.96875 L 495.09375,237.18750 L 501.00000,223.40625 L 507.87500,208.65625 L 517.71875,201.75000 z "
       style="stroke-opacity:1.0000000;stroke-linejoin:miter;stroke-linecap:butt;stroke-width:1.0000000px;stroke:none;fill-rule:evenodd;fill-opacity:1.0000000;fill:#080808" />
    <path
       transform="translate(9.922344,-545.7291)"
       id="path1424"
       d="M 377.28568,859.32721 C 357.90336,880.22057 359.25324,910.70750 358.70606,937.26951 C 359.01648,951.00299 356.04145,968.96624 369.47903,977.62285 C 383.79000,983.80714 395.19718,967.46675 395.38955,954.57874 C 399.25213,930.34046 405.40613,905.57700 401.71626,880.96500 C 398.49122,873.51813 380.42164,857.43355 395.39906,854.37945 C 411.25005,860.02254 412.28820,879.95045 412.30474,894.24375 C 411.97513,919.56168 408.08872,945.53531 397.07252,968.50802 C 390.49427,981.08551 373.88316,992.09987 360.36791,983.03842 C 345.47342,971.31681 348.72411,950.36987 348.52945,933.61039 C 349.81166,910.25077 349.68466,883.75805 366.43878,865.42070 C 369.50426,863.08725 373.00442,858.55821 377.28568,859.32721 z "
       style="opacity:1.0000000;color:#000000;fill:#000000;fill-opacity:1.0000000;fill-rule:nonzero;stroke:none;stroke-width:1.0000000px;stroke-linecap:butt;stroke-linejoin:miter;marker:none;marker-start:none;marker-mid:none;marker-end:none;stroke-miterlimit:4.0000000;stroke-dasharray:none;stroke-dashoffset:0.0000000;stroke-opacity:1.0000000;visibility:visible;display:inline;overflow:visible" />
    <path
       transform="translate(9.922344,-545.7291)"
       id="path1426"
       d="M 378.94290,821.21106 C 353.83135,819.47582 333.15405,842.14493 330.06023,865.81889 C 318.30406,907.18053 317.45423,951.73063 327.88524,993.43991 C 334.26187,1011.7654 354.26821,1027.0078 374.13482,1020.7924 C 392.11152,1016.4368 402.95621,999.26817 407.91899,982.57835 C 423.99109,940.43914 419.55507,893.34215 406.20485,851.11598 C 410.07581,834.30832 383.05740,829.23684 384.29412,817.53157 C 398.25964,811.82419 410.73435,827.30253 413.89749,839.72279 C 422.53141,864.12635 427.09015,890.04745 428.13170,915.88932 C 428.79747,948.40174 421.92826,983.13761 400.12216,1008.3074 C 384.28904,1024.9064 356.77749,1035.1450 335.80959,1022.1440 C 313.96383,1005.9037 311.31481,976.25806 311.23398,951.13249 C 310.78451,914.76738 312.26917,875.94222 331.71477,844.02434 C 342.90001,827.90655 361.50671,815.80430 381.58971,816.22906 C 385.54854,817.56721 380.51657,820.53995 378.94290,821.21106 z "
       style="opacity:1.0000000;color:#000000;fill:#000000;fill-opacity:1.0000000;fill-rule:nonzero;stroke:none;stroke-width:1.0000000px;stroke-linecap:butt;stroke-linejoin:miter;marker:none;marker-start:none;marker-mid:none;marker-end:none;stroke-miterlimit:4.0000000;stroke-dasharray:none;stroke-dashoffset:0.0000000;stroke-opacity:1.0000000;visibility:visible;display:inline;overflow:visible" />
    <path
       transform="translate(9.922344,-545.7291)"
       id="path1428"
       d="M 386.69553,904.83722 C 406.42872,909.75916 373.26498,934.37893 379.20060,911.97539 C 380.23080,908.55654 382.86146,905.10116 386.69553,904.83722 z "
       style="opacity:1.0000000;color:#000000;fill:#000000;fill-opacity:1.0000000;fill-rule:nonzero;stroke:none;stroke-width:1.0000000px;stroke-linecap:butt;stroke-linejoin:miter;marker:none;marker-start:none;marker-mid:none;marker-end:none;stroke-miterlimit:4.0000000;stroke-dasharray:none;stroke-dashoffset:0.0000000;stroke-opacity:1.0000000;visibility:visible;display:inline;overflow:visible" />
    <path
       transform="translate(9.922344,-545.7291)"
       id="path1430"
       d="M 122.36798,898.20831 C 179.82144,906.75874 237.97173,909.32562 295.44138,917.74681 C 307.45103,909.33834 309.90755,934.96611 294.93625,924.88578 C 261.96416,921.48856 229.24395,915.72515 196.10405,914.00630 C 169.19357,911.52535 142.26180,908.96134 115.57956,904.59101 C 114.51709,899.99066 121.22957,901.55173 122.36798,898.20831 z "
       style="opacity:1.0000000;color:#000000;fill:#000000;fill-opacity:1.0000000;fill-rule:nonzero;stroke:none;stroke-width:1.0000000px;stroke-linecap:butt;stroke-linejoin:miter;marker:none;marker-start:none;marker-mid:none;marker-end:none;stroke-miterlimit:4.0000000;stroke-dasharray:none;stroke-dashoffset:0.0000000;stroke-opacity:1.0000000;visibility:visible;display:inline;overflow:visible" />
    <path
       transform="translate(9.922344,-545.7291)"
       id="path1434"
       d="M 156.04599,914.84430 C 167.12620,921.55800 162.97927,936.60501 156.51261,945.16153 C 141.01856,966.31030 115.78065,978.72289 90.531964,983.74350 C 74.063706,985.83225 56.147625,978.54985 48.164548,963.49572 C 32.290428,942.86631 25.336187,915.34107 31.916941,889.89973 C 35.359582,870.74512 36.882897,850.28905 47.031009,833.24894 C 58.797903,814.93999 80.814386,804.34734 102.40214,805.96252 C 109.76242,802.79862 135.38195,808.23210 122.37245,816.46274 C 107.34934,817.67051 92.346801,806.76349 77.662728,813.87456 C 59.700779,817.58211 51.527773,836.46392 47.942092,852.59271 C 42.764402,872.95645 40.190675,894.06860 39.981734,915.03629 C 42.940786,938.91133 56.114044,962.96153 77.702336,974.53908 C 100.91114,982.32312 127.02161,971.71812 143.39594,954.87057 C 151.80674,943.06224 149.93201,927.57699 156.04599,914.84430 z "
       style="opacity:1.0000000;color:#000000;fill:#000000;fill-opacity:1.0000000;fill-rule:nonzero;stroke:none;stroke-width:1.0000000px;stroke-linecap:butt;stroke-linejoin:miter;marker:none;marker-start:none;marker-mid:none;marker-end:none;stroke-miterlimit:4.0000000;stroke-dasharray:none;stroke-dashoffset:0.0000000;stroke-opacity:1.0000000;visibility:visible;display:inline;overflow:visible" />
    <path
       transform="translate(9.922344,-545.7291)"
       id="path1436"
       d="M 140.96513,907.35522 C 137.30089,927.21936 127.13799,946.90400 109.71784,957.97310 C 82.920296,966.39132 55.960811,936.58614 62.664665,910.50142 C 65.521218,887.30238 72.967505,863.53355 88.457452,845.67417 C 100.70206,836.68521 118.34628,836.30266 131.21763,844.21579 C 146.85775,845.67117 126.14125,867.81171 123.08778,851.65968 C 112.50150,842.62754 91.653916,842.66145 86.325544,857.54252 C 78.733869,878.16043 69.095699,900.16939 73.387139,922.56749 C 76.955697,937.29965 88.716937,952.76136 105.06920,952.83810 C 123.48211,949.80293 124.79167,928.36008 131.54008,914.85233 C 133.75340,911.43137 136.97138,908.48239 140.96513,907.35522 z "
       style="opacity:1.0000000;color:#000000;fill:#000000;fill-opacity:1.0000000;fill-rule:nonzero;stroke:none;stroke-width:1.0000000px;stroke-linecap:butt;stroke-linejoin:miter;marker:none;marker-start:none;marker-mid:none;marker-end:none;stroke-miterlimit:4.0000000;stroke-dasharray:none;stroke-dashoffset:0.0000000;stroke-opacity:1.0000000;visibility:visible;display:inline;overflow:visible" />
    <path
       transform="translate(9.922344,-545.7291)"
       id="path1438"
       d="M 123.19660,871.69269 C 132.09129,877.51172 150.27291,865.21848 153.67732,878.10699 C 145.46986,881.38171 123.54718,883.79558 123.19660,871.69269 z "
       style="opacity:1.0000000;color:#000000;fill:#000000;fill-opacity:1.0000000;fill-rule:nonzero;stroke:none;stroke-width:1.0000000px;stroke-linecap:butt;stroke-linejoin:miter;marker:none;marker-start:none;marker-mid:none;marker-end:none;stroke-miterlimit:4.0000000;stroke-dasharray:none;stroke-dashoffset:0.0000000;stroke-opacity:1.0000000;visibility:visible;display:inline;overflow:visible" />
    <path
       transform="translate(9.922344,-545.7291)"
       id="path1440"
       d="M 297.20532,887.43634 C 312.41333,880.65620 302.06572,908.40716 293.79002,894.12242 C 290.84306,891.52761 292.96890,886.15513 297.20532,887.43634 z "
       style="opacity:1.0000000;color:#000000;fill:#000000;fill-opacity:1.0000000;fill-rule:nonzero;stroke:none;stroke-width:1.0000000px;stroke-linecap:butt;stroke-linejoin:miter;marker:none;marker-start:none;marker-mid:none;marker-end:none;stroke-miterlimit:4.0000000;stroke-dasharray:none;stroke-dashoffset:0.0000000;stroke-opacity:1.0000000;visibility:visible;display:inline;overflow:visible" />
    <path
       transform="translate(9.922344,-545.7291)"
       id="path1442"
       d="M 163.33768,858.46710 C 158.41876,872.50940 161.49523,890.36803 174.00644,899.48222 C 206.90145,906.89485 241.06760,903.02210 274.09479,909.48421 C 292.71710,910.67504 282.50812,877.93791 296.64245,879.81262 C 305.56150,891.03763 294.32756,907.75787 282.41195,911.88854 C 264.73132,918.55651 245.73269,912.61371 227.55880,911.88955 C 209.16764,909.89997 190.53417,910.22139 172.19355,908.36049 C 153.62882,902.93198 142.65259,875.85287 157.70663,861.35008 C 159.33338,859.98308 161.25908,858.94450 163.33768,858.46710 z "
       style="opacity:1.0000000;color:#000000;fill:#000000;fill-opacity:1.0000000;fill-rule:nonzero;stroke:none;stroke-width:1.0000000px;stroke-linecap:butt;stroke-linejoin:miter;marker:none;marker-start:none;marker-mid:none;marker-end:none;stroke-miterlimit:4.0000000;stroke-dasharray:none;stroke-dashoffset:0.0000000;stroke-opacity:1.0000000;visibility:visible;display:inline;overflow:visible" />
    <path
       transform="translate(9.922344,-545.7291)"
       id="path1444"
       d="M 526.43597,856.01276 C 516.35528,869.42277 498.95403,873.95456 485.95412,883.78791 C 469.22376,892.07720 447.14387,896.39666 431.09811,884.28551 C 421.98205,879.41366 407.92087,867.07575 414.95138,856.12917 C 429.49001,851.64263 430.22421,881.02975 446.16258,882.20699 C 469.37462,891.46024 494.23059,879.26016 512.46067,864.96399 C 516.97196,861.76161 521.52970,858.58965 526.43597,856.01276 z "
       style="opacity:1.0000000;color:#000000;fill:#000000;fill-opacity:1.0000000;fill-rule:nonzero;stroke:none;stroke-width:1.0000000px;stroke-linecap:butt;stroke-linejoin:miter;marker:none;marker-start:none;marker-mid:none;marker-end:none;stroke-miterlimit:4.0000000;stroke-dasharray:none;stroke-dashoffset:0.0000000;stroke-opacity:1.0000000;visibility:visible;display:inline;overflow:visible" />
    <path
       transform="translate(9.922344,-545.7291)"
       id="path1446"
       d="M 465.57959,885.81061 C 450.49931,853.72920 436.29108,820.18291 412.06238,793.74825 C 399.75364,783.43904 379.87788,789.57992 372.48620,802.92996 C 359.15019,815.85728 341.70185,829.76049 321.96048,826.42316 C 307.44333,820.28195 310.83062,796.66843 324.73682,791.86007 C 340.88087,782.31895 359.94834,775.88840 378.86410,778.85619 C 392.83499,769.61770 390.38240,798.95278 377.25984,786.98459 C 360.98730,783.89123 342.02704,782.67668 327.87370,792.80940 C 314.25338,802.20075 325.92504,823.80920 340.96663,821.44990 C 363.73349,815.81908 371.58577,787.40780 394.65268,782.16470 C 413.79524,777.63876 430.19697,793.31210 438.85888,808.69818 C 451.18634,828.23466 458.99524,850.25708 471.75754,869.54255 C 474.31118,875.07339 474.10088,886.31718 465.57959,885.81061 z "
       style="opacity:1.0000000;color:#000000;fill:#000000;fill-opacity:1.0000000;fill-rule:nonzero;stroke:none;stroke-width:1.0000000px;stroke-linecap:butt;stroke-linejoin:miter;marker:none;marker-start:none;marker-mid:none;marker-end:none;stroke-miterlimit:4.0000000;stroke-dasharray:none;stroke-dashoffset:0.0000000;stroke-opacity:1.0000000;visibility:visible;display:inline;overflow:visible" />
    <path
       transform="translate(9.922344,-545.7291)"
       id="path1450"
       d="M 546.61786,773.91632 C 550.50279,793.15228 576.03739,767.25022 556.64256,762.73349 C 553.30883,745.67894 581.46397,753.39225 575.23926,767.85002 C 577.69082,783.60636 557.09086,798.90574 544.53571,786.35193 C 540.02525,782.69620 539.44590,774.58301 546.61786,773.91632 z "
       style="opacity:1.0000000;color:#000000;fill:#000000;fill-opacity:1.0000000;fill-rule:nonzero;stroke:none;stroke-width:1.0000000px;stroke-linecap:butt;stroke-linejoin:miter;marker:none;marker-start:none;marker-mid:none;marker-end:none;stroke-miterlimit:4.0000000;stroke-dasharray:none;stroke-dashoffset:0.0000000;stroke-opacity:1.0000000;visibility:visible;display:inline;overflow:visible" />
    <path
       transform="translate(9.922344,-545.7291)"
       id="path1452"
       d="M 559.49817,747.01215 C 542.72188,766.87577 547.65151,795.03097 536.96544,817.50756 C 543.12089,824.50966 535.13481,850.84236 526.02205,837.28449 C 528.07748,814.66451 537.18860,793.30861 539.09251,770.68224 C 542.06820,760.49385 548.33500,749.52900 559.49817,747.01215 z "
       style="opacity:1.0000000;color:#000000;fill:#000000;fill-opacity:1.0000000;fill-rule:nonzero;stroke:none;stroke-width:1.0000000px;stroke-linecap:butt;stroke-linejoin:miter;marker:none;marker-start:none;marker-mid:none;marker-end:none;stroke-miterlimit:4.0000000;stroke-dasharray:none;stroke-dashoffset:0.0000000;stroke-opacity:1.0000000;visibility:visible;display:inline;overflow:visible" />
    <path
       transform="translate(9.922344,-545.7291)"
       id="path1456"
       d="M 552.12299,749.95032 C 544.64365,755.99941 526.71998,741.17528 542.78932,740.64308 C 547.72442,739.85523 558.84435,743.78148 552.12299,749.95032 z "
       style="opacity:1.0000000;color:#000000;fill:#000000;fill-opacity:1.0000000;fill-rule:nonzero;stroke:none;stroke-width:1.0000000px;stroke-linecap:butt;stroke-linejoin:miter;marker:none;marker-start:none;marker-mid:none;marker-end:none;stroke-miterlimit:4.0000000;stroke-dasharray:none;stroke-dashoffset:0.0000000;stroke-opacity:1.0000000;visibility:visible;display:inline;overflow:visible" />
    <path
       transform="translate(9.922344,-545.7291)"
       id="path1462"
       d="M 556.56122,785.51691 C 571.66702,810.79516 571.56365,842.39274 562.86892,869.79752 C 561.33765,887.27516 551.64738,907.12843 532.63488,910.21177 C 515.16711,913.34384 504.94846,895.88257 506.18847,880.63191 C 503.13428,870.06622 519.95656,864.30001 517.11219,877.81458 C 515.20085,891.57052 528.35535,911.46175 542.95956,900.30130 C 554.90377,890.15855 551.54987,873.04783 555.97212,859.51341 C 559.97339,842.58063 562.83131,823.48996 553.31612,807.77671 C 550.04626,800.73355 547.53343,789.51268 556.56122,785.51691 z "
       style="opacity:1.0000000;color:#000000;fill:#000000;fill-opacity:1.0000000;fill-rule:nonzero;stroke:none;stroke-width:1.0000000px;stroke-linecap:butt;stroke-linejoin:miter;marker:none;marker-start:none;marker-mid:none;marker-end:none;stroke-miterlimit:4.0000000;stroke-dasharray:none;stroke-dashoffset:0.0000000;stroke-opacity:1.0000000;visibility:visible;display:inline;overflow:visible" />
    <path
       transform="translate(9.922344,-545.7291)"
       id="path1464"
       d="M 535.38495,851.00958 C 526.50439,860.25405 543.11275,885.33796 546.99508,865.49977 C 548.76758,850.84641 551.27461,833.99368 541.76079,821.33680 C 542.16941,803.73832 565.94611,813.28133 557.67319,827.20402 C 557.83194,843.94557 557.89628,861.01760 554.13527,877.37887 C 548.67094,891.69617 522.99581,888.56277 524.10813,872.19522 C 522.54960,863.84129 526.17083,852.98224 535.38495,851.00958 z "
       style="opacity:1.0000000;color:#000000;fill:#000000;fill-opacity:1.0000000;fill-rule:nonzero;stroke:none;stroke-width:1.0000000px;stroke-linecap:butt;stroke-linejoin:miter;marker:none;marker-start:none;marker-mid:none;marker-end:none;stroke-miterlimit:4.0000000;stroke-dasharray:none;stroke-dashoffset:0.0000000;stroke-opacity:1.0000000;visibility:visible;display:inline;overflow:visible" />
    <path
       transform="translate(9.922344,-545.7291)"
       id="path1466"
       d="M 546.98547,840.23761 C 561.38247,847.84139 529.41212,856.58340 540.10349,843.20689 C 542.27835,841.92848 544.94433,841.78567 546.98547,840.23761 z "
       style="opacity:1.0000000;color:#000000;fill:#000000;fill-opacity:1.0000000;fill-rule:nonzero;stroke:none;stroke-width:1.0000000px;stroke-linecap:butt;stroke-linejoin:miter;marker:none;marker-start:none;marker-mid:none;marker-end:none;stroke-miterlimit:4.0000000;stroke-dasharray:none;stroke-dashoffset:0.0000000;stroke-opacity:1.0000000;visibility:visible;display:inline;overflow:visible" />
    <path
       transform="translate(9.922344,-545.7291)"
       id="path1468"
       d="M 103.84337,870.09918 C 106.57180,884.41011 94.731173,904.23517 111.08764,913.63572 C 116.56016,926.92408 91.679761,927.55386 94.311535,913.05293 C 90.519121,898.53618 90.724115,879.86334 103.84337,870.09918 z "
       style="opacity:1.0000000;color:#000000;fill:#000000;fill-opacity:1.0000000;fill-rule:nonzero;stroke:none;stroke-width:1.0000000px;stroke-linecap:butt;stroke-linejoin:miter;marker:none;marker-start:none;marker-mid:none;marker-end:none;stroke-miterlimit:4.0000000;stroke-dasharray:none;stroke-dashoffset:0.0000000;stroke-opacity:1.0000000;visibility:visible;display:inline;overflow:visible" />
    <path
       transform="translate(9.922344,-545.7291)"
       id="path1470"
       d="M 125.01965,768.97620 C 103.95142,771.95350 81.579700,767.20043 61.554077,776.14003 C 48.249012,787.87179 70.722898,809.99223 82.764118,797.25280 C 93.838528,789.17216 109.99539,781.08200 122.77265,790.28857 C 137.38921,800.76689 143.96923,818.47804 148.55465,835.16947 C 161.87541,837.69383 162.63338,868.60243 147.51447,853.93926 C 134.53068,837.46618 134.61631,813.48931 117.94862,799.40029 C 107.00748,789.62953 90.147265,792.24979 79.425718,800.88971 C 69.904522,807.63381 49.141521,809.98144 48.135466,794.11648 C 47.866063,778.92858 63.553863,769.56939 76.831558,767.03523 C 93.707667,762.51603 111.32176,763.42435 128.61229,762.85682 C 133.95562,764.47660 126.75194,768.16422 125.01965,768.97620 z "
       style="opacity:1.0000000;color:#000000;fill:#000000;fill-opacity:1.0000000;fill-rule:nonzero;stroke:none;stroke-width:1.0000000px;stroke-linecap:butt;stroke-linejoin:miter;marker:none;marker-start:none;marker-mid:none;marker-end:none;stroke-miterlimit:4.0000000;stroke-dasharray:none;stroke-dashoffset:0.0000000;stroke-opacity:1.0000000;visibility:visible;display:inline;overflow:visible" />
    <path
       transform="translate(9.922344,-545.7291)"
       id="path1472"
       d="M 336.51779,822.83673 C 330.10288,839.91211 324.84026,860.38459 307.34514,869.50553 C 286.29309,884.94653 258.99201,877.92502 235.27776,874.77876 C 212.13944,871.40440 188.76355,868.94774 165.34940,869.66485 C 163.43501,851.87895 187.23957,864.31528 197.14245,863.40423 C 228.45177,864.93942 259.31446,871.82810 290.64903,872.60317 C 308.03225,871.92320 318.12202,856.28572 320.88183,840.77295 C 323.71966,833.25769 328.34163,825.33265 336.51779,822.83673 z "
       style="opacity:1.0000000;color:#000000;fill:#000000;fill-opacity:1.0000000;fill-rule:nonzero;stroke:none;stroke-width:1.0000000px;stroke-linecap:butt;stroke-linejoin:miter;marker:none;marker-start:none;marker-mid:none;marker-end:none;stroke-miterlimit:4.0000000;stroke-dasharray:none;stroke-dashoffset:0.0000000;stroke-opacity:1.0000000;visibility:visible;display:inline;overflow:visible" />
    <path
       transform="translate(9.922344,-545.7291)"
       id="path1474"
       d="M 147.59402,744.11847 C 132.18127,756.44703 137.30952,785.69234 156.74227,790.88910 C 172.35834,786.42831 173.98161,764.38683 164.30776,753.48607 C 152.16458,755.34622 147.62524,731.21115 163.26701,739.87417 C 185.74527,749.34096 185.16950,786.47750 162.60990,795.57907 C 148.94472,801.64625 131.73916,792.43733 129.40166,777.66992 C 125.93283,764.19296 132.70097,746.79295 147.59402,744.11847 z "
       style="opacity:1.0000000;color:#000000;fill:#000000;fill-opacity:1.0000000;fill-rule:nonzero;stroke:none;stroke-width:1.0000000px;stroke-linecap:butt;stroke-linejoin:miter;marker:none;marker-start:none;marker-mid:none;marker-end:none;stroke-miterlimit:4.0000000;stroke-dasharray:none;stroke-dashoffset:0.0000000;stroke-opacity:1.0000000;visibility:visible;display:inline;overflow:visible" />
    <path
       transform="translate(9.922344,-545.7291)"
       id="path1476"
       d="M 295.25296,754.92200 C 281.98175,768.03249 289.32574,795.99974 308.82405,797.95002 C 325.13216,796.44548 331.31069,773.17071 320.48891,762.07835 C 308.37499,763.20392 299.73748,742.03964 317.14532,747.33815 C 332.62729,751.52334 340.39057,771.82537 331.71792,785.32023 C 325.96676,799.88125 306.96661,811.60091 292.39606,801.89101 C 278.82602,793.32040 274.24724,771.58733 286.21807,759.80917 C 285.81375,755.28824 305.71602,747.44976 295.25296,754.92200 z "
       style="opacity:1.0000000;color:#000000;fill:#000000;fill-opacity:1.0000000;fill-rule:nonzero;stroke:none;stroke-width:1.0000000px;stroke-linecap:butt;stroke-linejoin:miter;marker:none;marker-start:none;marker-mid:none;marker-end:none;stroke-miterlimit:4.0000000;stroke-dasharray:none;stroke-dashoffset:0.0000000;stroke-opacity:1.0000000;visibility:visible;display:inline;overflow:visible" />
    <path
       transform="translate(9.922344,-545.7291)"
       id="path1478"
       d="M 200.25761,849.32013 C 226.81654,870.00829 263.74055,869.40976 294.50724,859.72630 C 307.32312,862.23027 289.85213,871.98075 284.20952,867.83764 C 256.23678,872.00251 224.79020,877.97099 199.40321,861.66751 C 193.96270,858.56839 192.47574,850.21037 200.25761,849.32013 z "
       style="opacity:1.0000000;color:#000000;fill:#000000;fill-opacity:1.0000000;fill-rule:nonzero;stroke:none;stroke-width:1.0000000px;stroke-linecap:butt;stroke-linejoin:miter;marker:none;marker-start:none;marker-mid:none;marker-end:none;stroke-miterlimit:4.0000000;stroke-dasharray:none;stroke-dashoffset:0.0000000;stroke-opacity:1.0000000;visibility:visible;display:inline;overflow:visible" />
    <path
       transform="translate(9.922344,-545.7291)"
       id="path1480"
       d="M 300.05884,801.29279 C 302.06084,820.75861 307.92203,840.00561 306.08185,859.73141 C 288.21794,856.86596 298.63999,834.73212 291.98690,823.43670 C 289.45630,815.62187 290.24356,803.40290 300.05884,801.29279 z "
       style="opacity:1.0000000;color:#000000;fill:#000000;fill-opacity:1.0000000;fill-rule:nonzero;stroke:none;stroke-width:1.0000000px;stroke-linecap:butt;stroke-linejoin:miter;marker:none;marker-start:none;marker-mid:none;marker-end:none;stroke-miterlimit:4.0000000;stroke-dasharray:none;stroke-dashoffset:0.0000000;stroke-opacity:1.0000000;visibility:visible;display:inline;overflow:visible" />
    <path
       transform="translate(9.922344,-545.7291)"
       id="path1482"
       d="M 287.42780,753.23254 C 289.73305,734.11214 270.71900,718.36929 252.64087,718.47868 C 236.00552,713.76631 214.14294,721.71874 210.57901,740.19273 C 202.86337,764.09553 202.88437,789.57533 201.08050,814.34862 C 203.51404,823.18680 209.69972,847.18006 195.18147,843.95630 C 185.99257,830.03988 194.91898,812.53503 192.35854,797.01548 C 193.46578,775.09023 195.76562,752.16810 206.26042,732.54791 C 225.65054,704.98048 272.55219,702.41076 293.41855,729.48628 C 298.86649,737.09072 299.82688,752.16346 287.42780,753.23254 z "
       style="opacity:1.0000000;color:#000000;fill:#000000;fill-opacity:1.0000000;fill-rule:nonzero;stroke:none;stroke-width:1.0000000px;stroke-linecap:butt;stroke-linejoin:miter;marker:none;marker-start:none;marker-mid:none;marker-end:none;stroke-miterlimit:4.0000000;stroke-dasharray:none;stroke-dashoffset:0.0000000;stroke-opacity:1.0000000;visibility:visible;display:inline;overflow:visible" />
    <path
       transform="translate(9.922344,-545.7291)"
       id="path1484"
       d="M 241.22729,726.71759 C 251.81624,736.10656 222.55956,737.70074 236.11906,729.14451 C 237.78384,728.25750 239.51449,727.50474 241.22729,726.71759 z "
       style="opacity:1.0000000;color:#000000;fill:#000000;fill-opacity:1.0000000;fill-rule:nonzero;stroke:none;stroke-width:1.0000000px;stroke-linecap:butt;stroke-linejoin:miter;marker:none;marker-start:none;marker-mid:none;marker-end:none;stroke-miterlimit:4.0000000;stroke-dasharray:none;stroke-dashoffset:0.0000000;stroke-opacity:1.0000000;visibility:visible;display:inline;overflow:visible" />
    <path
       transform="translate(9.922344,-545.7291)"
       id="path1488"
       d="M 200.33995,762.76807 C 217.80471,739.53103 256.78189,738.75295 275.65774,760.62503 C 281.84749,775.37932 273.80679,790.83948 274.76216,805.97008 C 269.41824,817.15911 283.16925,840.53263 267.10747,843.78564 C 256.40209,833.94436 267.65098,817.60046 265.26665,804.89572 C 266.76849,790.93056 272.00572,774.08881 261.63283,762.27700 C 250.68624,751.95869 234.14420,750.03064 219.89073,751.99743 C 212.90214,754.70691 207.40846,760.22491 200.33995,762.76807 z "
       style="opacity:1.0000000;color:#000000;fill:#000000;fill-opacity:1.0000000;fill-rule:nonzero;stroke:none;stroke-width:1.0000000px;stroke-linecap:butt;stroke-linejoin:miter;marker:none;marker-start:none;marker-mid:none;marker-end:none;stroke-miterlimit:4.0000000;stroke-dasharray:none;stroke-dashoffset:0.0000000;stroke-opacity:1.0000000;visibility:visible;display:inline;overflow:visible" />
    <path
       transform="translate(9.922344,-545.7291)"
       id="path1490"
       d="M 266.25153,856.84137 C 246.28867,855.64917 225.00751,861.01950 206.30309,851.66221 C 201.45894,841.46409 222.10723,836.87486 223.19494,848.11412 C 238.38634,853.73211 254.78631,848.56921 270.34924,851.70869 C 272.71731,854.17423 268.14860,856.38828 266.25153,856.84137 z "
       style="opacity:1.0000000;color:#000000;fill:#000000;fill-opacity:1.0000000;fill-rule:nonzero;stroke:none;stroke-width:1.0000000px;stroke-linecap:butt;stroke-linejoin:miter;marker:none;marker-start:none;marker-mid:none;marker-end:none;stroke-miterlimit:4.0000000;stroke-dasharray:none;stroke-dashoffset:0.0000000;stroke-opacity:1.0000000;visibility:visible;display:inline;overflow:visible" />
    <path
       transform="translate(9.922344,-545.7291)"
       id="path1492"
       d="M 187.99425,799.63489 C 168.71010,802.53929 188.34674,769.75187 193.85504,790.08585 C 195.43963,794.12928 194.15913,802.14104 187.99425,799.63489 z "
       style="opacity:1.0000000;color:#000000;fill:#000000;fill-opacity:1.0000000;fill-rule:nonzero;stroke:none;stroke-width:1.0000000px;stroke-linecap:butt;stroke-linejoin:miter;marker:none;marker-start:none;marker-mid:none;marker-end:none;stroke-miterlimit:4.0000000;stroke-dasharray:none;stroke-dashoffset:0.0000000;stroke-opacity:1.0000000;visibility:visible;display:inline;overflow:visible" />
    <path
       transform="translate(9.922344,-545.7291)"
       id="path1494"
       d="M 154.30643,796.72894 C 146.92438,802.03018 147.70939,825.88935 135.43521,818.31963 C 138.18358,808.89434 144.82367,800.08461 154.30643,796.72894 z "
       style="opacity:1.0000000;color:#000000;fill:#000000;fill-opacity:1.0000000;fill-rule:nonzero;stroke:none;stroke-width:1.0000000px;stroke-linecap:butt;stroke-linejoin:miter;marker:none;marker-start:none;marker-mid:none;marker-end:none;stroke-miterlimit:4.0000000;stroke-dasharray:none;stroke-dashoffset:0.0000000;stroke-opacity:1.0000000;visibility:visible;display:inline;overflow:visible" />
    <path
       transform="translate(9.922344,-545.7291)"
       id="path1498"
       d="M 478.83740,787.20569 C 485.06993,772.55013 488.92392,754.12363 504.59719,746.48815 C 521.17161,744.09423 528.66649,766.28422 521.50096,778.71251 C 515.62140,797.45230 515.10515,820.41109 498.04706,833.27201 C 481.27739,841.71614 470.10088,818.82178 474.28375,804.78470 C 472.01437,794.62652 488.72582,784.81685 486.54343,800.14979 C 482.00479,809.92785 488.27717,835.32135 500.79921,820.95339 C 507.69924,807.93247 507.36352,792.50880 511.90342,778.63612 C 518.25737,768.07652 508.24277,747.98806 496.85722,761.29663 C 489.26234,769.08472 492.12836,785.29375 478.83740,787.20569 z "
       style="opacity:1.0000000;color:#000000;fill:#000000;fill-opacity:1.0000000;fill-rule:nonzero;stroke:none;stroke-width:1.0000000px;stroke-linecap:butt;stroke-linejoin:miter;marker:none;marker-start:none;marker-mid:none;marker-end:none;stroke-miterlimit:4.0000000;stroke-dasharray:none;stroke-dashoffset:0.0000000;stroke-opacity:1.0000000;visibility:visible;display:inline;overflow:visible" />
    <path
       transform="translate(9.922344,-545.7291)"
       id="path1500"
       d="M 505.18719,778.88800 C 520.12869,783.15039 492.11791,798.51019 498.75471,783.82273 C 500.39882,781.61580 502.79021,780.14415 505.18719,778.88800 z "
       style="opacity:1.0000000;color:#000000;fill:#000000;fill-opacity:1.0000000;fill-rule:nonzero;stroke:none;stroke-width:1.0000000px;stroke-linecap:butt;stroke-linejoin:miter;marker:none;marker-start:none;marker-mid:none;marker-end:none;stroke-miterlimit:4.0000000;stroke-dasharray:none;stroke-dashoffset:0.0000000;stroke-opacity:1.0000000;visibility:visible;display:inline;overflow:visible" />
    <path
       transform="translate(9.922344,-545.7291)"
       id="path1502"
       d="M 485.46631,739.14612 C 490.26369,725.19653 509.66620,714.33370 522.28364,725.25552 C 536.23632,741.14102 530.16903,763.47263 531.28630,782.59533 C 531.36453,811.12314 522.30812,843.07602 496.85056,859.08231 C 484.75268,868.23081 462.67756,866.80711 458.48918,849.84100 C 449.65354,826.47931 454.79878,800.76871 460.26275,777.24874 C 466.26426,756.05222 474.73897,735.46055 485.50216,716.26642 C 492.72646,709.31098 499.83760,720.10169 489.79859,722.72927 C 479.75623,738.07901 476.06399,756.43762 469.76890,773.41810 C 463.00844,798.79688 460.00835,826.87597 470.61840,851.66346 C 481.15994,864.42660 503.93642,857.83115 507.74765,842.27401 C 524.95695,811.82253 521.45958,775.63035 520.42958,742.06371 C 518.28968,724.55794 492.86446,727.04789 485.46631,739.14612 z "
       style="opacity:1.0000000;color:#000000;fill:#000000;fill-opacity:1.0000000;fill-rule:nonzero;stroke:none;stroke-width:1.0000000px;stroke-linecap:butt;stroke-linejoin:miter;marker:none;marker-start:none;marker-mid:none;marker-end:none;stroke-miterlimit:4.0000000;stroke-dasharray:none;stroke-dashoffset:0.0000000;stroke-opacity:1.0000000;visibility:visible;display:inline;overflow:visible" />
    <path
       transform="translate(9.922344,-545.7291)"
       id="path1504"
       d="M 433.26370,808.74963 C 432.87222,781.82504 442.29539,753.66600 431.21425,727.73423 C 416.53696,706.38138 388.17948,701.34703 363.97727,703.34295 C 327.52541,699.65957 289.57232,702.33061 255.64914,717.05927 C 243.38525,717.00473 254.97085,707.18956 261.70001,709.48414 C 286.34467,704.72736 310.17076,694.95009 335.60260,695.23676 C 358.60071,694.73957 381.62345,696.53557 404.47823,698.78671 C 423.97971,702.10783 443.71197,716.30787 445.48395,737.34169 C 448.42277,757.30450 444.57914,777.46745 443.13329,797.34986 C 441.75201,802.30835 438.53508,807.36829 433.26370,808.74963 z "
       style="opacity:1.0000000;color:#000000;fill:#000000;fill-opacity:1.0000000;fill-rule:nonzero;stroke:none;stroke-width:1.0000000px;stroke-linecap:butt;stroke-linejoin:miter;marker:none;marker-start:none;marker-mid:none;marker-end:none;stroke-miterlimit:4.0000000;stroke-dasharray:none;stroke-dashoffset:0.0000000;stroke-opacity:1.0000000;visibility:visible;display:inline;overflow:visible" />
    <path
       transform="translate(9.922344,-545.7291)"
       id="path1506"
       d="M 386.77789,781.82617 C 383.07243,765.63572 388.46762,748.82976 384.33897,732.68908 C 372.87938,716.27538 351.33620,715.10932 333.97369,709.04161 C 320.89065,718.22483 323.61299,687.23549 335.35952,700.85509 C 353.31509,706.17460 372.84333,709.07815 388.56139,719.70418 C 400.41914,733.41047 394.70937,752.63620 396.75386,769.01754 C 396.61324,774.73853 393.62412,782.11314 386.77789,781.82617 z "
       style="opacity:1.0000000;color:#000000;fill:#000000;fill-opacity:1.0000000;fill-rule:nonzero;stroke:none;stroke-width:1.0000000px;stroke-linecap:butt;stroke-linejoin:miter;marker:none;marker-start:none;marker-mid:none;marker-end:none;stroke-miterlimit:4.0000000;stroke-dasharray:none;stroke-dashoffset:0.0000000;stroke-opacity:1.0000000;visibility:visible;display:inline;overflow:visible" />
    <path
       transform="translate(9.922344,-545.7291)"
       id="path1508"
       d="M 259.62262,628.97284 C 272.82744,639.03446 259.90648,655.14701 257.88142,667.24567 C 255.29078,679.49971 281.87115,694.04748 266.24330,701.66453 C 253.71764,700.10471 250.25881,686.20827 250.03547,675.57618 C 249.97483,659.66766 253.55943,643.63357 259.62262,628.97284 z "
       style="opacity:1.0000000;color:#000000;fill:#000000;fill-opacity:1.0000000;fill-rule:nonzero;stroke:none;stroke-width:1.0000000px;stroke-linecap:butt;stroke-linejoin:miter;marker:none;marker-start:none;marker-mid:none;marker-end:none;stroke-miterlimit:4.0000000;stroke-dasharray:none;stroke-dashoffset:0.0000000;stroke-opacity:1.0000000;visibility:visible;display:inline;overflow:visible" />
    <path
       transform="translate(9.922344,-545.7291)"
       id="path1510"
       d="M 445.06610,627.28406 C 441.28014,648.72813 448.49474,672.52616 436.26672,692.08119 C 441.34561,703.06438 415.50782,702.95291 427.96819,693.59090 C 438.80596,674.79484 430.01323,652.19771 436.90063,632.40362 C 438.72821,629.67949 441.65222,627.37122 445.06610,627.28406 z "
       style="opacity:1.0000000;color:#000000;fill:#000000;fill-opacity:1.0000000;fill-rule:nonzero;stroke:none;stroke-width:1.0000000px;stroke-linecap:butt;stroke-linejoin:miter;marker:none;marker-start:none;marker-mid:none;marker-end:none;stroke-miterlimit:4.0000000;stroke-dasharray:none;stroke-dashoffset:0.0000000;stroke-opacity:1.0000000;visibility:visible;display:inline;overflow:visible" />
    <path
       transform="translate(9.922344,-545.7291)"
       id="path1512"
       d="M 384.20969,689.39783 C 377.13751,678.02895 389.90930,667.65941 400.01404,664.78249 C 421.30596,656.25330 450.93555,663.53967 459.64034,686.41922 C 463.62861,697.34677 456.11217,713.88898 443.72014,714.89144 C 454.40707,702.37702 450.97605,679.66548 434.64154,673.71926 C 422.31278,668.43344 403.52370,664.03251 393.13389,674.60915 C 389.89281,679.37436 388.69939,685.50302 384.20969,689.39783 z "
       style="opacity:1.0000000;color:#000000;fill:#000000;fill-opacity:1.0000000;fill-rule:nonzero;stroke:none;stroke-width:1.0000000px;stroke-linecap:butt;stroke-linejoin:miter;marker:none;marker-start:none;marker-mid:none;marker-end:none;stroke-miterlimit:4.0000000;stroke-dasharray:none;stroke-dashoffset:0.0000000;stroke-opacity:1.0000000;visibility:visible;display:inline;overflow:visible" />
    <path
       transform="translate(9.922344,-545.7291)"
       id="path1514"
       d="M 414.03976,691.05505 C 432.05953,683.74553 418.17274,718.66616 410.24350,698.46716 C 408.33521,695.36518 409.19039,689.73539 414.03976,691.05505 z "
       style="opacity:1.0000000;color:#000000;fill:#000000;fill-opacity:1.0000000;fill-rule:nonzero;stroke:none;stroke-width:1.0000000px;stroke-linecap:butt;stroke-linejoin:miter;marker:none;marker-start:none;marker-mid:none;marker-end:none;stroke-miterlimit:4.0000000;stroke-dasharray:none;stroke-dashoffset:0.0000000;stroke-opacity:1.0000000;visibility:visible;display:inline;overflow:visible" />
    <path
       transform="translate(9.922344,-545.7291)"
       id="path1516"
       d="M 400.94778,693.57239 C 380.50400,692.74382 405.24363,662.37230 407.67602,684.04699 C 409.07767,688.24327 406.64782,695.80282 400.94778,693.57239 z "
       style="opacity:1.0000000;color:#000000;fill:#000000;fill-opacity:1.0000000;fill-rule:nonzero;stroke:none;stroke-width:1.0000000px;stroke-linecap:butt;stroke-linejoin:miter;marker:none;marker-start:none;marker-mid:none;marker-end:none;stroke-miterlimit:4.0000000;stroke-dasharray:none;stroke-dashoffset:0.0000000;stroke-opacity:1.0000000;visibility:visible;display:inline;overflow:visible" />
    <path
       transform="translate(9.922344,-545.7291)"
       id="path1518"
       d="M 433.92648,691.05505 C 448.80307,691.52957 422.52329,705.46216 431.04337,691.77372 L 431.87824,691.34635 L 433.92648,691.05505 L 433.92648,691.05505 z "
       style="opacity:1.0000000;color:#000000;fill:#000000;fill-opacity:1.0000000;fill-rule:nonzero;stroke:none;stroke-width:1.0000000px;stroke-linecap:butt;stroke-linejoin:miter;marker:none;marker-start:none;marker-mid:none;marker-end:none;stroke-miterlimit:4.0000000;stroke-dasharray:none;stroke-dashoffset:0.0000000;stroke-opacity:1.0000000;visibility:visible;display:inline;overflow:visible" />
    <path
       transform="translate(9.922344,-545.7291)"
       id="path1520"
       d="M 261.57498,627.25183 C 287.76085,629.46355 315.48739,642.86883 326.25361,668.12847 C 343.93884,671.88578 318.33906,698.97978 317.68223,677.44194 C 313.24726,664.27115 304.46857,651.95279 291.71624,645.80855 C 284.87595,634.56782 260.93953,644.91854 261.57498,627.25183 z "
       style="opacity:1.0000000;color:#000000;fill:#000000;fill-opacity:1.0000000;fill-rule:nonzero;stroke:none;stroke-width:1.0000000px;stroke-linecap:butt;stroke-linejoin:miter;marker:none;marker-start:none;marker-mid:none;marker-end:none;stroke-miterlimit:4.0000000;stroke-dasharray:none;stroke-dashoffset:0.0000000;stroke-opacity:1.0000000;visibility:visible;display:inline;overflow:visible" />
    <path
       transform="translate(9.922344,-545.7291)"
       id="path1522"
       d="M 251.63161,621.45154 C 319.11040,621.53473 387.16464,618.26873 453.94670,630.14703 C 474.49544,632.77878 495.38665,631.46824 515.91836,632.63786 C 531.59256,638.14734 535.88986,658.15114 530.47532,672.37575 C 528.16919,687.85618 528.59481,703.94999 522.95637,718.77307 C 510.38642,708.84805 520.22166,692.45648 520.93493,679.73775 C 522.84525,666.14523 523.68467,646.87908 508.51140,640.55807 C 490.58279,634.46803 471.46127,640.99644 453.09237,637.53908 C 408.22941,631.61461 363.06630,626.16072 317.72461,627.78599 C 294.54908,627.56240 271.36975,627.63984 248.19777,628.11894 C 242.07382,627.05314 249.20400,621.69171 251.63161,621.45154 z "
       style="opacity:1.0000000;color:#000000;fill:#000000;fill-opacity:1.0000000;fill-rule:nonzero;stroke:none;stroke-width:1.0000000px;stroke-linecap:butt;stroke-linejoin:miter;marker:none;marker-start:none;marker-mid:none;marker-end:none;stroke-miterlimit:4.0000000;stroke-dasharray:none;stroke-dashoffset:0.0000000;stroke-opacity:1.0000000;visibility:visible;display:inline;overflow:visible" />
    <path
       transform="translate(9.922344,-545.7291)"
       id="path1526"
       d="M 249.97440,616.47986 C 274.95020,608.46873 300.58668,602.24128 324.96667,592.58485 C 356.93434,587.64424 389.24197,593.76666 421.34372,591.48862 C 448.38562,591.72540 475.64136,590.74866 502.41306,595.32415 C 514.33795,600.22656 525.95386,625.09752 511.18280,630.84704 C 500.77527,623.24523 507.82757,601.91399 490.42767,600.82891 C 468.10435,596.66080 445.20590,599.80231 422.64238,598.25053 C 387.07886,597.79894 351.40629,596.29850 315.89781,598.91567 C 292.81513,605.12746 271.52330,618.24104 247.22334,619.56607 C 245.23513,618.02366 249.41517,617.43104 249.97440,616.47986 z "
       style="opacity:1.0000000;color:#000000;fill:#000000;fill-opacity:1.0000000;fill-rule:nonzero;stroke:none;stroke-width:1.0000000px;stroke-linecap:butt;stroke-linejoin:miter;marker:none;marker-start:none;marker-mid:none;marker-end:none;stroke-miterlimit:4.0000000;stroke-dasharray:none;stroke-dashoffset:0.0000000;stroke-opacity:1.0000000;visibility:visible;display:inline;overflow:visible" />
    <path
       transform="translate(9.922344,-545.7291)"
       id="path1530"
       d="M 517.98407,599.93982 C 533.19554,604.75697 542.47205,622.64188 538.15220,637.90537 C 548.12768,651.45962 516.14337,650.87082 529.94600,637.02782 C 532.22618,622.86630 515.24696,615.73927 514.11517,602.65957 C 513.35927,599.83363 516.39211,600.08826 517.98407,599.93982 z "
       style="opacity:1.0000000;color:#000000;fill:#000000;fill-opacity:1.0000000;fill-rule:nonzero;stroke:none;stroke-width:1.0000000px;stroke-linecap:butt;stroke-linejoin:miter;marker:none;marker-start:none;marker-mid:none;marker-end:none;stroke-miterlimit:4.0000000;stroke-dasharray:none;stroke-dashoffset:0.0000000;stroke-opacity:1.0000000;visibility:visible;display:inline;overflow:visible" />
    <path
       transform="translate(9.922344,-545.7291)"
       id="path1532"
       d="M 398.82959,633.94446 C 407.39546,643.99770 408.01563,662.10030 423.12986,665.29699 C 435.16255,668.08182 455.56408,662.91708 452.17801,647.00618 C 454.85089,629.98152 474.13126,652.88238 461.01619,659.10913 C 448.01438,674.15125 424.77221,674.17019 407.68960,666.87261 C 396.95390,662.36236 387.89051,648.31087 396.21289,637.60902 L 397.49401,635.71396 L 398.82959,633.94446 L 398.82959,633.94446 z "
       style="opacity:1.0000000;color:#000000;fill:#000000;fill-opacity:1.0000000;fill-rule:nonzero;stroke:none;stroke-width:1.0000000px;stroke-linecap:butt;stroke-linejoin:miter;marker:none;marker-start:none;marker-mid:none;marker-end:none;stroke-miterlimit:4.0000000;stroke-dasharray:none;stroke-dashoffset:0.0000000;stroke-opacity:1.0000000;visibility:visible;display:inline;overflow:visible" />
    <path
       transform="translate(9.922344,-545.7291)"
       id="path1534"
       d="M 467.07101,647.96716 C 475.35195,636.64958 482.37337,663.01566 468.85658,655.09375 C 463.12746,656.28928 458.73469,647.75127 467.07101,647.96716 z "
       style="opacity:1.0000000;color:#000000;fill:#000000;fill-opacity:1.0000000;fill-rule:nonzero;stroke:none;stroke-width:1.0000000px;stroke-linecap:butt;stroke-linejoin:miter;marker:none;marker-start:none;marker-mid:none;marker-end:none;stroke-miterlimit:4.0000000;stroke-dasharray:none;stroke-dashoffset:0.0000000;stroke-opacity:1.0000000;visibility:visible;display:inline;overflow:visible" />
    <path
       transform="translate(9.922344,-545.7291)"
       id="path1538"
       d="M 500.21552,634.70935 C 524.64457,645.69627 535.30196,677.38946 525.68320,701.74339 C 512.28147,695.74375 520.47626,679.87106 518.26467,668.94484 C 515.53910,656.20932 494.93963,651.69153 499.13659,636.86378 L 500.21552,634.70935 L 500.21552,634.70935 z "
       style="opacity:1.0000000;color:#000000;fill:#000000;fill-opacity:1.0000000;fill-rule:nonzero;stroke:none;stroke-width:1.0000000px;stroke-linecap:butt;stroke-linejoin:miter;marker:none;marker-start:none;marker-mid:none;marker-end:none;stroke-miterlimit:4.0000000;stroke-dasharray:none;stroke-dashoffset:0.0000000;stroke-opacity:1.0000000;visibility:visible;display:inline;overflow:visible" />
    <path
       transform="translate(9.922344,-545.7291)"
       id="path1540"
       d="M 448.84152,729.99988 C 454.85375,732.76342 468.84476,725.12116 468.37713,735.98613 C 462.22450,737.26369 446.41794,741.83252 448.84152,729.99988 z "
       style="opacity:1.0000000;color:#000000;fill:#000000;fill-opacity:1.0000000;fill-rule:nonzero;stroke:none;stroke-width:1.0000000px;stroke-linecap:butt;stroke-linejoin:miter;marker:none;marker-start:none;marker-mid:none;marker-end:none;stroke-miterlimit:4.0000000;stroke-dasharray:none;stroke-dashoffset:0.0000000;stroke-opacity:1.0000000;visibility:visible;display:inline;overflow:visible" />
    <path
       transform="translate(9.922344,-545.7291)"
       id="path1544"
       d="M 333.66431,745.74353 C 350.31155,745.62261 366.77732,742.25270 383.44318,742.62776 C 372.25611,755.56237 354.07088,746.58310 340.00028,751.77115 C 335.24498,753.84962 322.16099,749.49393 333.66431,745.74353 z "
       style="opacity:1.0000000;color:#000000;fill:#000000;fill-opacity:1.0000000;fill-rule:nonzero;stroke:none;stroke-width:1.0000000px;stroke-linecap:butt;stroke-linejoin:miter;marker:none;marker-start:none;marker-mid:none;marker-end:none;stroke-miterlimit:4.0000000;stroke-dasharray:none;stroke-dashoffset:0.0000000;stroke-opacity:1.0000000;visibility:visible;display:inline;overflow:visible" />
    <path
       transform="translate(9.922344,-545.7291)"
       id="path1556"
       d="M 315.80246,768.14825 C 324.81292,784.60176 294.67961,770.34779 314.50491,767.67560 L 315.80246,768.14825 L 315.80246,768.14825 z "
       style="opacity:1.0000000;color:#000000;fill:#000000;fill-opacity:1.0000000;fill-rule:nonzero;stroke:none;stroke-width:1.0000000px;stroke-linecap:butt;stroke-linejoin:miter;marker:none;marker-start:none;marker-mid:none;marker-end:none;stroke-miterlimit:4.0000000;stroke-dasharray:none;stroke-dashoffset:0.0000000;stroke-opacity:1.0000000;visibility:visible;display:inline;overflow:visible" />
    <path
       transform="translate(9.922344,-545.7291)"
       id="path1558"
       d="M 164.99490,759.03351 C 176.50181,766.86606 149.01839,767.65703 161.82768,760.61505 L 163.44080,759.88698 L 164.99490,759.03351 L 164.99490,759.03351 z "
       style="opacity:1.0000000;color:#000000;fill:#000000;fill-opacity:1.0000000;fill-rule:nonzero;stroke:none;stroke-width:1.0000000px;stroke-linecap:butt;stroke-linejoin:miter;marker:none;marker-start:none;marker-mid:none;marker-end:none;stroke-miterlimit:4.0000000;stroke-dasharray:none;stroke-dashoffset:0.0000000;stroke-opacity:1.0000000;visibility:visible;display:inline;overflow:visible" />
    <path
       transform="translate(1.968560,2.952840)"
       id="path2866"
       d="M 541.25702,163.80952 C 546.67029,170.30992 551.01108,177.59464 555.81539,184.53513 C 556.67069,184.86623 556.65489,186.30275 555.79261,186.61509 C 553.92025,187.73809 552.02289,188.81938 550.16620,189.96847 C 549.58481,190.67668 548.27451,190.46456 547.94633,189.60904 C 543.61539,183.63391 540.09282,177.09486 535.43246,171.35496 C 534.83324,170.92554 534.31505,170.32967 534.12820,169.60269 C 534.69575,168.13442 536.21839,167.45992 537.43858,166.63355 C 538.73867,165.72899 539.89776,164.63032 541.25702,163.80952 z "
       style="opacity:1.0000000;color:#000000;fill:#000000;fill-opacity:1.0000000;fill-rule:nonzero;stroke:none;stroke-width:1.0000000px;stroke-linecap:butt;stroke-linejoin:miter;marker:none;marker-start:none;marker-mid:none;marker-end:none;stroke-miterlimit:4.0000000;stroke-dasharray:none;stroke-dashoffset:0.0000000;stroke-opacity:1.0000000;visibility:visible;display:inline;overflow:visible" />
    <path
       id="path3097"
       d="M 178.82211,250.93929 C 185.74829,258.90090 193.33873,266.24490 200.52197,273.96827 C 202.37650,276.59172 204.65204,278.87742 206.95018,281.10872 C 203.15497,283.42820 199.36059,285.74903 195.56580,288.06918 C 189.51842,281.36342 184.18370,273.98648 177.44675,267.92492 C 174.48550,264.96799 171.44994,262.08487 168.32712,259.29887 C 169.12658,257.28505 171.41332,256.66374 172.86758,255.25649 C 174.84325,253.80477 176.85391,252.40123 178.82211,250.93929 z "
       style="opacity:1.0000000;color:#000000;fill:#000000;fill-opacity:1.0000000;fill-rule:nonzero;stroke:none;stroke-width:1.0000000px;stroke-linecap:butt;stroke-linejoin:miter;marker:none;marker-start:none;marker-mid:none;marker-end:none;stroke-miterlimit:4.0000000;stroke-dasharray:none;stroke-dashoffset:0.0000000;stroke-opacity:1.0000000;visibility:visible;display:inline;overflow:visible" />
  </g>
</svg>
