<?xml version="1.0" encoding="UTF-8" standalone="no"?>
<svg
   xmlns:dc="http://purl.org/dc/elements/1.1/"
   xmlns:cc="http://web.resource.org/cc/"
   xmlns:rdf="http://www.w3.org/1999/02/22-rdf-syntax-ns#"
   xmlns:svg="http://www.w3.org/2000/svg"
   xmlns="http://www.w3.org/2000/svg"
   xmlns:xlink="http://www.w3.org/1999/xlink"
   xmlns:sodipodi="http://inkscape.sourceforge.net/DTD/sodipodi-0.dtd"
   xmlns:inkscape="http://www.inkscape.org/namespaces/inkscape"
   id="svg1"
   width="48mm"
   height="48mm"
   sodipodi:version="0.32"
   inkscape:version="0.43"
   sodipodi:docname="a.bronze_working.svg"
   sodipodi:docbase="/home/fred/work/freeciv/r-hires!.5/src/tech"
   version="1.0">
  <metadata
     id="metadata3235">
    <rdf:RDF>
      <cc:Work
         rdf:about="">
        <dc:format>image/svg+xml</dc:format>
        <dc:type
           rdf:resource="http://purl.org/dc/dcmitype/StillImage" />
      </cc:Work>
    </rdf:RDF>
  </metadata>
  <defs
     id="defs3233">
    <linearGradient
       id="linearGradient4147">
      <stop
         style="stop-color:#849885;stop-opacity:1;"
         offset="0"
         id="stop4149" />
      <stop
         style="stop-color:#536652;stop-opacity:1;"
         offset="1"
         id="stop4151" />
    </linearGradient>
    <radialGradient
       inkscape:collect="always"
       xlink:href="#linearGradient2233"
       id="radialGradient3179"
       gradientUnits="userSpaceOnUse"
       gradientTransform="matrix(0.513962,-0.206519,0.959643,2.388249,-195.9129,-496.5339)"
       cx="399.93399"
       cy="404.92865"
       fx="399.93399"
       fy="404.92865"
       r="33.116692" />
    <radialGradient
       inkscape:collect="always"
       xlink:href="#linearGradient2233"
       id="radialGradient3177"
       gradientUnits="userSpaceOnUse"
       gradientTransform="matrix(1.154521,-0.633559,1.238238,2.256416,-564.9054,-272.3634)"
       cx="386.31268"
       cy="398.86566"
       fx="386.31268"
       fy="398.86566"
       r="33.116692" />
    <linearGradient
       id="linearGradient3139">
      <stop
         id="stop3141"
         offset="0"
         style="stop-color:#ff375c;stop-opacity:1;" />
      <stop
         id="stop3143"
         offset="1"
         style="stop-color:#961724;stop-opacity:1;" />
    </linearGradient>
    <linearGradient
       inkscape:collect="always"
       xlink:href="#linearGradient3139"
       id="linearGradient3150"
       gradientUnits="userSpaceOnUse"
       x1="535.7746"
       y1="441.42978"
       x2="563.6759"
       y2="544.49811" />
    <radialGradient
       inkscape:collect="always"
       xlink:href="#linearGradient2233"
       id="radialGradient2245"
       cx="461.51312"
       cy="501.13928"
       fx="461.51312"
       fy="501.13928"
       r="61.114227"
       gradientTransform="matrix(0.997885,0.31731,-0.435764,1.370402,219.3543,-339.4472)"
       gradientUnits="userSpaceOnUse" />
    <linearGradient
       inkscape:collect="always"
       xlink:href="#linearGradient2233"
       id="linearGradient3124"
       x1="406.11185"
       y1="452.53867"
       x2="420.23422"
       y2="648.54382"
       gradientUnits="userSpaceOnUse" />
    <radialGradient
       inkscape:collect="always"
       xlink:href="#linearGradient2233"
       id="radialGradient2247"
       cx="276.16162"
       cy="488.70529"
       fx="276.16162"
       fy="488.70529"
       r="160.10918"
       gradientTransform="matrix(1,0,0,0.694006,3.373602e-14,163.1386)"
       gradientUnits="userSpaceOnUse" />
    <linearGradient
       inkscape:collect="always"
       xlink:href="#linearGradient2233"
       id="linearGradient3189"
       x1="-283.63086"
       y1="475.07587"
       x2="-283.33261"
       y2="503.49942"
       gradientUnits="userSpaceOnUse"
       gradientTransform="translate(98.07745,51.69997)" />
    <radialGradient
       inkscape:collect="always"
       xlink:href="#linearGradient2233"
       id="radialGradient3183"
       gradientUnits="userSpaceOnUse"
       gradientTransform="matrix(0.443426,0.17596,-0.170531,0.429745,164.2494,243.9769)"
       cx="200.36627"
       cy="583.7868"
       fx="200.36627"
       fy="583.7868"
       r="61.114227" />
    <linearGradient
       inkscape:collect="always"
       xlink:href="#linearGradient2233"
       id="linearGradient3126"
       x1="328.80466"
       y1="653.35193"
       x2="418.70825"
       y2="653.35193"
       gradientUnits="userSpaceOnUse"
       gradientTransform="translate(-747.5129,2.450817e-14)" />
    <linearGradient
       id="linearGradient2233">
      <stop
         style="stop-color:#ffc6ae;stop-opacity:1;"
         offset="0"
         id="stop2235" />
      <stop
         style="stop-color:#ff837a;stop-opacity:1;"
         offset="1"
         id="stop2237" />
    </linearGradient>
    <linearGradient
       inkscape:collect="always"
       xlink:href="#linearGradient2233"
       id="linearGradient3128"
       x1="216.17264"
       y1="647.79608"
       x2="306.07623"
       y2="647.79608"
       gradientUnits="userSpaceOnUse"
       gradientTransform="translate(-522.2489,2.450817e-14)" />
    <linearGradient
       inkscape:collect="always"
       xlink:href="#linearGradient4147"
       id="linearGradient4153"
       x1="188.4375"
       y1="72.643121"
       x2="338.94007"
       y2="72.643121"
       gradientUnits="userSpaceOnUse" />
    <linearGradient
       inkscape:collect="always"
       xlink:href="#linearGradient4147"
       id="linearGradient4161"
       gradientUnits="userSpaceOnUse"
       x1="253.39284"
       y1="50.77697"
       x2="247.61673"
       y2="100.94049" />
    <linearGradient
       inkscape:collect="always"
       xlink:href="#linearGradient4147"
       id="linearGradient4179"
       gradientUnits="userSpaceOnUse"
       x1="241.17351"
       y1="53.99258"
       x2="297.78024"
       y2="95.15239" />
    <linearGradient
       inkscape:collect="always"
       xlink:href="#linearGradient4147"
       id="linearGradient4183"
       gradientUnits="userSpaceOnUse"
       x1="241.17351"
       y1="53.99258"
       x2="297.78024"
       y2="95.15239" />
    <linearGradient
       inkscape:collect="always"
       xlink:href="#linearGradient4147"
       id="linearGradient4194"
       gradientUnits="userSpaceOnUse"
       x1="188.4375"
       y1="72.643121"
       x2="338.94007"
       y2="72.643121" />
    <linearGradient
       inkscape:collect="always"
       xlink:href="#linearGradient4147"
       id="linearGradient4196"
       gradientUnits="userSpaceOnUse"
       x1="241.17351"
       y1="53.99258"
       x2="297.78024"
       y2="95.15239" />
    <linearGradient
       inkscape:collect="always"
       xlink:href="#linearGradient4147"
       id="linearGradient4206"
       gradientUnits="userSpaceOnUse"
       x1="188.4375"
       y1="72.643121"
       x2="338.94007"
       y2="72.643121" />
    <linearGradient
       inkscape:collect="always"
       xlink:href="#linearGradient4147"
       id="linearGradient4208"
       gradientUnits="userSpaceOnUse"
       x1="241.17351"
       y1="53.99258"
       x2="297.78024"
       y2="95.15239" />
    <linearGradient
       inkscape:collect="always"
       xlink:href="#linearGradient4147"
       id="linearGradient4211"
       gradientUnits="userSpaceOnUse"
       x1="241.17351"
       y1="53.99258"
       x2="297.78024"
       y2="95.15239"
       gradientTransform="matrix(0.964455,-0.264246,0.264246,0.964455,-191.505,89.57238)" />
    <linearGradient
       inkscape:collect="always"
       xlink:href="#linearGradient4147"
       id="linearGradient4214"
       gradientUnits="userSpaceOnUse"
       x1="188.4375"
       y1="72.643121"
       x2="338.94007"
       y2="72.643121"
       gradientTransform="matrix(0.964455,-0.264246,0.264246,0.964455,-191.505,89.57238)" />
  </defs>
  <sodipodi:namedview
     inkscape:window-height="539"
     inkscape:window-width="774"
     inkscape:pageshadow="2"
     inkscape:pageopacity="0.0"
     borderopacity="1.0"
     bordercolor="#666666"
     pagecolor="#ffffff"
     id="base"
     inkscape:zoom="0.27487269"
     inkscape:cx="166.07275"
     inkscape:cy="67.675072"
     inkscape:window-x="218"
     inkscape:window-y="24"
     inkscape:current-layer="svg1" />
  <rect
     style="opacity:1;color:#000000;fill:#d8d8d8;fill-opacity:1;fill-rule:nonzero;stroke:none;stroke-width:35.81899261;stroke-linecap:butt;stroke-linejoin:miter;marker:none;marker-start:none;marker-mid:none;marker-end:none;stroke-miterlimit:4;stroke-dasharray:none;stroke-dashoffset:0;stroke-opacity:1;visibility:visible;display:inline;overflow:visible"
     id="rect3266"
     width="170.07874"
     height="170.07874"
     x="0"
     y="2.8234767e-06" />
  <path
     style="opacity:0.22033898;color:#000000;fill:#828780;fill-opacity:1;fill-rule:nonzero;stroke:none;stroke-width:35.81899261;stroke-linecap:butt;stroke-linejoin:miter;marker:none;marker-start:none;marker-mid:none;marker-end:none;stroke-miterlimit:4;stroke-dasharray:none;stroke-dashoffset:0;stroke-opacity:1;visibility:visible;display:inline;overflow:visible"
     d="M 126.59375,9.5625 C 118.6096,31.930615 101.97718,52.331497 78.8125,59.875 C 55.956912,68.817889 32.362421,76.793261 10.15625,87.375 C 0.83500142,94.341304 1.7824301,107.66142 5.5,117.40625 C 7.2868359,128.67839 17.851761,139.34935 29.90625,136.46875 C 43.909868,134.08649 57.567707,130.1888 71.552991,127.65915 C 89.773638,123.83987 108.07107,117.58166 126.875,119.0625 C 139.71548,120.78833 151.46604,128.22311 159.6875,138.28125 C 175.88158,105.16379 168.80164,64.716677 149.1575,34.683252 C 143.00435,24.65756 135.6096,15.519057 127.875,6.6875 C 127.44792,7.6458333 127.02083,8.6041667 126.59375,9.5625 z "
     id="path4220" />
  <path
     style="opacity:0.35254237;color:#000000;fill:#828780;fill-opacity:1;fill-rule:nonzero;stroke:none;stroke-width:35.81899261;stroke-linecap:butt;stroke-linejoin:miter;marker:none;marker-start:none;marker-mid:none;marker-end:none;stroke-miterlimit:4;stroke-dasharray:none;stroke-dashoffset:0;stroke-opacity:1;visibility:visible;display:inline;overflow:visible"
     d="M 127.09375,13.28125 C 118.60232,36.371433 100.22666,56.130567 76.134528,62.81015 C 54.710915,71.719245 32.361561,78.937921 11.4375,88.90625 C 3.3651077,94.988751 3.5511915,106.61792 7.125,115.125 C 8.4564563,124.81535 15.49168,135.51429 26.4375,134.78125 C 38.038545,134.05681 49.037415,129.53931 60.571889,128.0108 C 80.890784,123.96714 100.97101,117.35754 121.81151,116.6069 C 136.0523,117.02899 149.69797,123.94331 159.09375,134.65625 C 173.42583,102.83879 166.1994,65.152917 147.9855,36.580007 C 142.32139,27.240663 135.58224,18.628876 128.40625,10.375 C 127.96875,11.34375 127.53125,12.3125 127.09375,13.28125 z M 56.15625,101.21875 C 55.984572,102.20423 50.016805,102.97767 54.375,101.65625 C 54.954525,101.46291 55.547643,101.28192 56.15625,101.21875 z "
     id="path4200" />
  <g
     id="g4189"
     transform="matrix(0.964455,-0.264246,0.264246,0.964455,-191.505,89.57238)">
    <path
       id="path4181"
       d="M 325.16439,11.25 C 310.78172,30.19447 288.66149,43.310356 264.61873,43.629917 C 241.93611,46.241328 219.05213,48.117479 196.47689,51.09375 C 187.4157,53.637646 183.68097,63.856024 185.16439,72.53125 C 184.21558,80.720304 185.35484,90.863717 193.63314,94.90625 C 202.4178,98.874039 212.80674,96.501158 222.19761,97.952215 C 243.72556,99.579205 265.55226,99.256587 286.89274,102.11321 C 302.89276,104.78428 317.05159,115.04298 324.69564,129.34375 C 344.32373,103.89012 347.06763,69.142461 338.50814,38.875 C 335.73564,28.515185 331.82844,18.424893 327.19564,8.71875 C 326.51856,9.5625 325.84147,10.40625 325.16439,11.25 z M 204.00814,71.75 C 207.55339,72.663649 213.24684,70.23356 215.97689,72.34375 C 215.92133,75.461899 209.31674,72.518083 207.13314,73.53125 C 205.79028,74.327041 201.53975,73.331375 204.00814,71.75 z M 225.50814,71.75 C 228.66163,72.916566 235.3088,69.342779 236.60189,73.625 C 235.15584,77.808887 227.99343,74.881731 224.72689,75.15625 C 223.26829,74.32043 223.85881,71.902 225.50814,71.75 z M 247.10189,71.75 C 248.8206,71.525349 258.50349,70.835803 255.00814,73.53125 C 253.07628,72.550733 245.96819,75.522012 246.53939,72.125 C 246.71706,71.955144 246.90922,71.790253 247.10189,71.75 z "
       style="opacity:1;color:#000000;fill:#828780;fill-opacity:1;fill-rule:nonzero;stroke:none;stroke-width:35.81899261;stroke-linecap:butt;stroke-linejoin:miter;marker:none;marker-start:none;marker-mid:none;marker-end:none;stroke-miterlimit:4;stroke-dasharray:none;stroke-dashoffset:0;stroke-opacity:1;visibility:visible;display:inline;overflow:visible" />
    <path
       id="rect4141"
       d="M 328.65625,12.5 C 314.5966,30.721412 293.45648,44.455383 269.75,45.3125 L 203.25,52.375 C 195.41162,52.374998 189.09375,58.692878 189.09375,66.53125 L 189.09375,80.6875 C 189.09374,88.525874 195.41163,94.84375 203.25,94.84375 L 275.96875,98.6875 C 294.3867,99.330242 314.0889,105.10797 326.71875,125.6875 C 353.08675,88.388556 342.80493,42.724601 328.65625,12.5 z M 205.78125,69.75 C 205.82744,69.744238 205.85943,69.75354 205.90625,69.75 C 205.93388,69.747911 205.97295,69.749837 206,69.75 C 206.03608,69.750696 206.08742,69.75 206.125,69.75 L 217.0625,69.75 C 218.66581,69.75 219.9375,71.052947 219.9375,72.65625 C 219.9375,74.259552 218.6658,75.53125 217.0625,75.53125 L 206.125,75.53125 C 204.5217,75.531248 203.21875,74.259553 203.21875,72.65625 C 203.21875,71.175855 204.34943,69.928628 205.78125,69.75 z M 227.25,69.75 C 227.29633,69.744788 227.32818,69.75354 227.375,69.75 C 227.47324,69.742571 227.55604,69.75 227.65625,69.75 L 236.65625,69.75 C 238.79399,69.75 240.53125,71.487262 240.53125,73.625 C 240.53125,75.762736 238.79399,77.46875 236.65625,77.46875 L 227.65625,77.46875 C 225.51851,77.468747 223.8125,75.762738 223.8125,73.625 C 223.8125,71.635222 225.31967,69.967157 227.25,69.75 z M 248.875,69.75 C 248.92119,69.744238 248.95318,69.75354 249,69.75 C 249.02763,69.747911 249.0667,69.749837 249.09375,69.75 C 249.12983,69.750696 249.18117,69.75 249.21875,69.75 L 256.9375,69.75 C 258.54081,69.75 259.8125,71.052947 259.8125,72.65625 C 259.81251,74.259552 258.5408,75.53125 256.9375,75.53125 L 249.21875,75.53125 C 247.61545,75.531248 246.3125,74.259553 246.3125,72.65625 C 246.3125,71.175855 247.44318,69.928628 248.875,69.75 z "
       style="opacity:1;color:#000000;fill:url(#linearGradient4194);fill-opacity:1;fill-rule:nonzero;stroke:none;stroke-width:35.81899261;stroke-linecap:butt;stroke-linejoin:miter;marker:none;marker-start:none;marker-mid:none;marker-end:none;stroke-miterlimit:4;stroke-dasharray:none;stroke-dashoffset:0;stroke-opacity:1;visibility:visible;display:inline;overflow:visible" />
    <path
       style="opacity:0.54237288;color:#000000;fill:url(#linearGradient4196);fill-opacity:1;fill-rule:nonzero;stroke:none;stroke-width:35.81899261;stroke-linecap:butt;stroke-linejoin:miter;marker:none;marker-start:none;marker-mid:none;marker-end:none;stroke-miterlimit:4;stroke-dasharray:none;stroke-dashoffset:0;stroke-opacity:1;visibility:visible;display:inline;overflow:visible"
       d="M 328.65625,12.5 C 314.5966,30.721412 293.45648,44.455383 269.75,45.3125 L 203.25,52.375 C 195.41162,52.374998 189.09375,58.692878 189.09375,66.53125 L 189.09375,80.6875 C 189.09374,88.525874 195.41163,94.84375 203.25,94.84375 L 275.96875,98.6875 C 294.3867,99.330242 314.0889,105.10797 326.71875,125.6875 C 353.08675,88.388556 342.80493,42.724601 328.65625,12.5 z M 205.78125,69.75 C 205.82744,69.744238 205.85943,69.75354 205.90625,69.75 C 205.93388,69.747911 205.97295,69.749837 206,69.75 C 206.03608,69.750696 206.08742,69.75 206.125,69.75 L 217.0625,69.75 C 218.66581,69.75 219.9375,71.052947 219.9375,72.65625 C 219.9375,74.259552 218.6658,75.53125 217.0625,75.53125 L 206.125,75.53125 C 204.5217,75.531248 203.21875,74.259553 203.21875,72.65625 C 203.21875,71.175855 204.34943,69.928628 205.78125,69.75 z M 227.25,69.75 C 227.29633,69.744788 227.32818,69.75354 227.375,69.75 C 227.47324,69.742571 227.55604,69.75 227.65625,69.75 L 236.65625,69.75 C 238.79399,69.75 240.53125,71.487262 240.53125,73.625 C 240.53125,75.762736 238.79399,77.46875 236.65625,77.46875 L 227.65625,77.46875 C 225.51851,77.468747 223.8125,75.762738 223.8125,73.625 C 223.8125,71.635222 225.31967,69.967157 227.25,69.75 z M 248.875,69.75 C 248.92119,69.744238 248.95318,69.75354 249,69.75 C 249.02763,69.747911 249.0667,69.749837 249.09375,69.75 C 249.12983,69.750696 249.18117,69.75 249.21875,69.75 L 256.9375,69.75 C 258.54081,69.75 259.8125,71.052947 259.8125,72.65625 C 259.81251,74.259552 258.5408,75.53125 256.9375,75.53125 L 249.21875,75.53125 C 247.61545,75.531248 246.3125,74.259553 246.3125,72.65625 C 246.3125,71.175855 247.44318,69.928628 248.875,69.75 z "
       id="path4177" />
  </g>
</svg>
