<?xml version="1.0" encoding="UTF-8" standalone="no"?>
<!-- Created with Inkscape (http://www.inkscape.org/) -->
<svg
   xmlns:dc="http://purl.org/dc/elements/1.1/"
   xmlns:cc="http://web.resource.org/cc/"
   xmlns:rdf="http://www.w3.org/1999/02/22-rdf-syntax-ns#"
   xmlns:svg="http://www.w3.org/2000/svg"
   xmlns="http://www.w3.org/2000/svg"
   xmlns:sodipodi="http://sodipodi.sourceforge.net/DTD/sodipodi-0.dtd"
   xmlns:inkscape="http://www.inkscape.org/namespaces/inkscape"
   width="600"
   height="600"
   id="svg1870"
   sodipodi:version="0.32"
   inkscape:version="0.44"
   version="1.0"
   sodipodi:docbase="C:\freeciv"
   sodipodi:docname="combustion.svg">
  <defs
     id="defs1872" />
  <sodipodi:namedview
     id="base"
     pagecolor="#ffffff"
     bordercolor="#666666"
     borderopacity="1.0"
     gridtolerance="10000"
     guidetolerance="10"
     objecttolerance="10"
     inkscape:pageopacity="0.0"
     inkscape:pageshadow="2"
     inkscape:zoom="0.35"
     inkscape:cx="375"
     inkscape:cy="341.49425"
     inkscape:document-units="px"
     inkscape:current-layer="layer1"
     width="600px"
     height="600px"
     inkscape:window-width="847"
     inkscape:window-height="579"
     inkscape:window-x="110"
     inkscape:window-y="145" />
  <metadata
     id="metadata1875">
    <rdf:RDF>
      <cc:Work
         rdf:about="">
        <dc:format>image/svg+xml</dc:format>
        <dc:type
           rdf:resource="http://purl.org/dc/dcmitype/StillImage" />
      </cc:Work>
    </rdf:RDF>
  </metadata>
  <g
     inkscape:label="Layer 1"
     inkscape:groupmode="layer"
     id="layer1">
    <rect
       y="0"
       x="0"
       height="600"
       width="600"
       id="rect2766"
       style="fill:#585858;fill-opacity:1;stroke:none;stroke-width:5.36600018;stroke-miterlimit:4;stroke-dasharray:none;stroke-opacity:1"
       inkscape:export-filename="C:\freeciv\path1343.png"
       inkscape:export-xdpi="7.1999998"
       inkscape:export-ydpi="7.1999998" />
    <path
       style="fill:#ffac00;fill-opacity:1;stroke:none"
       sodipodi:nodetypes="cscccscccsccsscccscccscccscccsccccsscccccscsscccscccccccsccccscc"
       id="path1343"
       d="M 278.54275,70.502514 C 277.8115,75.621264 277.08025,94.633764 276.349,112.91501 C 275.61775,131.19626 274.15525,153.86501 274.15525,163.37126 L 272.69275,181.65251 L 258.06775,165.56501 C 249.29275,156.79001 240.51775,149.47751 236.8615,149.47751 C 233.9365,149.47751 231.0115,168.49001 231.74275,191.15876 C 231.74275,214.55876 229.549,240.15251 226.624,247.46501 C 221.50525,261.35876 220.04275,260.62751 202.49275,242.34626 C 184.2115,222.60251 170.31775,216.75251 170.31775,229.18376 C 170.31775,233.57126 173.24275,237.95876 176.16775,240.15251 C 181.2865,243.07751 182.01775,270.86501 178.3615,318.39626 C 177.63025,330.09626 155.69275,335.21501 155.69275,323.51501 C 155.69275,320.59001 150.574,317.66501 143.99275,317.66501 C 136.68025,317.66501 135.21775,320.59001 138.874,327.17126 C 141.799,331.55876 145.45525,359.34626 145.45525,387.13376 C 146.91775,455.87126 159.349,478.54001 208.34275,502.67126 C 266.1115,530.45876 272.69275,531.19001 272.69275,515.10251 C 272.69275,507.79001 266.84275,499.74626 260.2615,497.55251 C 252.949,495.35876 240.51775,483.65876 232.474,471.22751 C 219.3115,451.48376 217.11775,440.51501 220.774,401.02751 C 221.50525,385.67126 238.324,391.52126 240.51775,408.34001 C 242.7115,425.15876 265.38025,450.02126 273.424,444.90251 C 277.08025,442.70876 277.8115,437.59001 275.61775,433.20251 C 272.69275,428.81501 269.0365,412.72751 267.574,397.37126 C 264.649,374.70251 266.1115,368.85251 276.349,368.85251 C 282.93025,368.85251 286.5865,371.77751 284.39275,374.70251 C 282.93025,377.62751 288.049,388.59626 296.09275,398.10251 C 304.1365,408.34001 308.524,412.72751 306.33025,407.60876 C 309.53816,403.22126 319.49275,376.89626 319.49275,351.30251 C 319.49275,308.89001 319.49275,308.89001 332.65525,324.97751 C 347.28025,343.25876 349.474,370.31501 338.50525,390.79001 C 327.5365,411.99626 341.43025,414.19001 356.05525,393.71501 C 373.60525,371.04626 383.84275,371.04626 377.99275,394.44626 C 375.06775,405.41501 376.53025,412.72751 381.649,412.72751 C 386.0365,412.72751 389.69275,417.11501 389.69275,422.23376 C 389.69275,436.12751 338.50525,493.89626 330.4615,489.50876 C 326.80525,486.58376 324.6115,493.16501 325.34275,503.40251 C 326.074,514.37126 331.924,522.41501 338.50525,523.14626 C 344.35525,523.87751 354.59275,524.60876 360.44275,525.34001 C 366.29275,525.34001 378.724,518.75876 388.9615,509.25251 C 398.46775,500.47751 410.899,493.16501 415.2865,493.16501 C 432.10525,493.16501 469.399,442.70876 473.7865,414.92126 C 482.5615,360.07751 482.5615,356.42126 472.324,356.42126 C 467.20525,356.42126 462.81775,361.54001 462.81775,366.65876 C 462.81775,372.50876 459.89275,374.70251 455.50525,372.50876 C 451.11775,369.58376 451.849,360.07751 457.699,344.72126 C 467.20525,319.12751 467.9365,311.81501 459.89275,273.05876 C 456.96775,258.43376 449.65525,246.73376 444.5365,246.73376 C 438.6865,246.73376 426.90567,287.11417 420.32442,295.15792 C 414.47442,303.20167 407.974,273.05876 407.974,253.31501 C 408.70525,213.82751 400.6615,189.69626 379.45525,165.56501 C 369.21775,153.86501 363.36775,151.67126 359.7115,158.25251 C 356.7865,163.37126 356.05525,169.95251 358.249,174.34001 C 360.44275,177.99626 363.36775,189.69626 364.83025,199.93376 C 367.024,218.21501 366.29275,218.21501 356.05525,205.05251 C 350.20525,197.00876 345.81775,186.04001 345.81775,180.19001 C 345.81775,175.07126 334.11775,150.20876 320.95525,125.34626 C 307.0615,100.48376 294.63025,77.815014 293.899,74.158764 C 291.70525,63.921264 280.00525,60.996264 278.54275,70.502514 z M 308.524,165.56501 C 314.374,180.92126 307.79275,226.25876 299.01775,235.03376 C 294.63025,239.42126 293.899,235.03376 291.70525,180.92126 C 290.974,147.28376 299.01775,139.97126 308.524,165.56501 z "
       inkscape:export-xdpi="7.1999998"
       inkscape:export-ydpi="7.1999998" />
  </g>
</svg>
