<?xml version="1.0" encoding="UTF-8" standalone="no"?>
<!-- Created with Inkscape (http://www.inkscape.org/) -->
<svg
   xmlns:dc="http://purl.org/dc/elements/1.1/"
   xmlns:cc="http://web.resource.org/cc/"
   xmlns:rdf="http://www.w3.org/1999/02/22-rdf-syntax-ns#"
   xmlns:svg="http://www.w3.org/2000/svg"
   xmlns="http://www.w3.org/2000/svg"
   xmlns:sodipodi="http://sodipodi.sourceforge.net/DTD/sodipodi-0.dtd"
   xmlns:inkscape="http://www.inkscape.org/namespaces/inkscape"
   width="500"
   height="500"
   id="svg1908"
   sodipodi:version="0.32"
   inkscape:version="0.44"
   version="1.0"
   sodipodi:docbase="C:\freeciv"
   sodipodi:docname="fundamentalism.svg">
  <defs
     id="defs1910" />
  <sodipodi:namedview
     id="base"
     pagecolor="#ffffff"
     bordercolor="#666666"
     borderopacity="1.0"
     gridtolerance="10000"
     guidetolerance="10"
     objecttolerance="10"
     inkscape:pageopacity="0.0"
     inkscape:pageshadow="2"
     inkscape:zoom="0.754"
     inkscape:cx="250"
     inkscape:cy="250"
     inkscape:document-units="px"
     inkscape:current-layer="layer1"
     width="500px"
     height="500px"
     inkscape:window-width="847"
     inkscape:window-height="579"
     inkscape:window-x="22"
     inkscape:window-y="29" />
  <metadata
     id="metadata1913">
    <rdf:RDF>
      <cc:Work
         rdf:about="">
        <dc:format>image/svg+xml</dc:format>
        <dc:type
           rdf:resource="http://purl.org/dc/dcmitype/StillImage" />
      </cc:Work>
    </rdf:RDF>
  </metadata>
  <g
     inkscape:label="Layer 1"
     inkscape:groupmode="layer"
     id="layer1">
    <rect
       style="fill:black;fill-opacity:1;stroke:none;stroke-width:1;stroke-linecap:round;stroke-linejoin:miter;stroke-miterlimit:4;stroke-dasharray:none;stroke-dashoffset:0;stroke-opacity:1"
       id="rect6717"
       width="500"
       height="500"
       x="0"
       y="0" />
    <g
       id="g1883"
       transform="matrix(1.245986,0.482592,-0.482592,1.245986,54.30682,-268.6058)">
      <path
         id="path1355"
         d="M 239.87842,245.43987 C 238.82524,245.92782 217.1947,221.13664 213.49801,216.94395 C 214.29337,216.42711 219.57032,213.03761 221.29491,212.26484 C 219.43675,210.21289 207.03359,193.40807 205.40726,191.49353 C 198.42605,195.19161 186.56556,201.17611 181.14909,204.11029 C 185.2187,208.007 221.2804,250.78917 224.93169,254.41385 C 227.64613,252.42868 237.14123,246.71642 239.87842,245.43987 z "
         style="fill:yellow;fill-opacity:1;stroke:none;stroke-width:1" />
      <path
         sodipodi:nodetypes="cccccccccccccc"
         id="path1351"
         d="M 383.08855,361.01928 C 373.43498,353.34838 302.64248,298.83466 324.72427,276.69926 C 333.79523,260.52128 350.08437,245.90832 331.15162,229.39882 C 318.4414,213.22627 309.45646,193.89427 294.19867,179.85734 C 271.30844,191.7961 249.17696,205.47363 226.19228,217.49123 C 237.48621,240.08697 262.14628,230.24192 279.18428,220.83646 C 297.31423,239.11055 261.06808,256.06566 262.45868,276.93447 C 253.71649,276.72905 257.91774,249.52371 265.93628,240.90786 C 240.14497,249.57049 219.61222,268.58119 194.39708,278.54175 C 177.90282,270.82546 163.6579,240.99807 154.92736,234.98837 C 162.94218,255.24161 175.30476,273.49542 187.35908,292.05336 C 203.06756,307.76845 214.07214,335.60745 236.79068,339.59228 C 246.33499,357.40924 276.19783,440.42716 283.76997,458.54621 L 383.08855,361.01928 z "
         style="fill:yellow;fill-opacity:1;stroke:none;stroke-width:1" />
      <path
         id="rect1341"
         d="M 155.87233,219.29116 L 171.75108,208.14486 L 213.26027,261.16552 L 197.38152,272.31181 L 155.87233,219.29116 z "
         style="fill:yellow;fill-opacity:1;stroke:none;stroke-width:1.00000024;stroke-linecap:round;stroke-linejoin:miter;stroke-miterlimit:4;stroke-dashoffset:0;stroke-opacity:1" />
      <path
         id="rect1343"
         d="M 214.35982,185.65069 L 237.72696,173.35803 L 251.52265,194.32726 L 228.1555,206.61991 L 214.35982,185.65069 z "
         style="fill:yellow;fill-opacity:1;stroke:none;stroke-width:1.17997813;stroke-linecap:round;stroke-linejoin:miter;stroke-miterlimit:4;stroke-dashoffset:0;stroke-opacity:1" />
      <path
         id="rect1345"
         d="M 244.52908,169.88935 L 267.89623,157.5967 L 281.69193,178.56592 L 258.32477,190.85857 L 244.52908,169.88935 z "
         style="fill:yellow;fill-opacity:1;stroke:none;stroke-width:1.17997825;stroke-linecap:round;stroke-linejoin:miter;stroke-miterlimit:4;stroke-dashoffset:0;stroke-opacity:1" />
    </g>
  </g>
</svg>
