<?xml version="1.0" encoding="UTF-8" standalone="no"?>
<!-- Created with Sodipodi ("http://www.sodipodi.com/") -->
<svg
   xmlns:dc="http://purl.org/dc/elements/1.1/"
   xmlns:cc="http://web.resource.org/cc/"
   xmlns:rdf="http://www.w3.org/1999/02/22-rdf-syntax-ns#"
   xmlns:svg="http://www.w3.org/2000/svg"
   xmlns="http://www.w3.org/2000/svg"
   xmlns:sodipodi="http://inkscape.sourceforge.net/DTD/sodipodi-0.dtd"
   xmlns:inkscape="http://www.inkscape.org/namespaces/inkscape"
   height="400.00000px"
   id="svg378"
   sodipodi:docbase="/home/daniel/Desktop/svg sources"
   sodipodi:docname="horseback_riding.svg"
   sodipodi:version="0.32"
   version="1.0"
   width="400.00000px"
   x="0"
   y="0"
   inkscape:version="0.42"
   inkscape:export-filename="/home/daniel/Desktop/germany_lower_saxony.png"
   inkscape:export-xdpi="10.800000"
   inkscape:export-ydpi="10.800000">
  <metadata
     id="metadata3">
    <rdf:RDF>
      <cc:Work
         rdf:about="">
        <dc:title>Germany - Lower Saxony</dc:title>
        <dc:description />
        <dc:subject>
          <rdf:Bag>
            <rdf:li />
            <rdf:li>europe</rdf:li>
            <rdf:li>germany</rdf:li>
            <rdf:li>flag</rdf:li>
            <rdf:li>sign</rdf:li>
          </rdf:Bag>
        </dc:subject>
        <dc:publisher>
          <cc:Agent
             rdf:about="http://www.openclipart.org">
            <dc:title>Tobias Jakobs</dc:title>
          </cc:Agent>
        </dc:publisher>
        <dc:creator>
          <cc:Agent>
            <dc:title>Tobias Jakobs</dc:title>
          </cc:Agent>
        </dc:creator>
        <dc:rights>
          <cc:Agent>
            <dc:title>Tobias Jakobs</dc:title>
          </cc:Agent>
        </dc:rights>
        <dc:date />
        <dc:format>image/svg+xml</dc:format>
        <dc:type
           rdf:resource="http://purl.org/dc/dcmitype/StillImage" />
        <cc:license
           rdf:resource="http://web.resource.org/cc/PublicDomain" />
        <dc:language>en</dc:language>
      </cc:Work>
      <cc:License
         rdf:about="http://web.resource.org/cc/PublicDomain">
        <cc:permits
           rdf:resource="http://web.resource.org/cc/Reproduction" />
        <cc:permits
           rdf:resource="http://web.resource.org/cc/Distribution" />
        <cc:permits
           rdf:resource="http://web.resource.org/cc/DerivativeWorks" />
      </cc:License>
    </rdf:RDF>
  </metadata>
  <sodipodi:namedview
     id="base"
     inkscape:zoom="0.69547620"
     inkscape:cx="372.04724"
     inkscape:cy="214.52798"
     inkscape:window-width="753"
     inkscape:window-height="513"
     inkscape:window-x="0"
     inkscape:window-y="26"
     inkscape:current-layer="svg378" />
  <defs
     id="defs380" />
  <rect
     y="0.0000000"
     x="0.0000000"
     width="400.00000"
     style="font-size:12.000000px;fill:#ffffff;fill-rule:evenodd;stroke-width:1.0000000pt;fill-opacity:1.0000000"
     id="rect255"
     height="400.00000" />
  <rect
     style="fill:#ff5980;fill-opacity:1.0000000;stroke:none;stroke-width:0.62500000;stroke-miterlimit:4.0000000;stroke-dasharray:none;stroke-opacity:1.0000000"
     id="rect1410"
     width="400.00000"
     height="400.00000"
     x="0.0000000"
     y="0.0000000" />
  <g
     id="g986"
     transform="matrix(1.350412,0.000000,0.000000,1.350412,-281.0277,-106.5891)">
    <path
       d="M 75.671000,124.60700 C 75.671000,124.60700 105.93900,134.60100 117.93300,129.74700 C 118.36000,134.69500 120.78800,136.31400 120.78800,136.31400 L 127.35600,136.60000 C 127.35600,136.60000 130.49700,139.45500 133.35200,141.16900 C 136.20800,142.88200 140.85300,142.85300 141.06200,142.88200 C 143.34700,146.02300 142.20400,147.45100 145.63100,148.87900 C 150.56200,151.03200 154.45500,148.92900 155.91100,150.87800 C 158.76600,154.01900 165.90500,162.87100 166.19100,171.43700 C 166.47600,180.00400 158.19500,185.42900 157.62400,187.99900 C 157.05300,190.56900 157.33900,190.85500 157.33900,190.85500 L 154.19800,195.42300 C 154.19800,195.42300 153.44300,196.79900 154.19800,197.70800 C 156.76800,199.13600 164.19200,198.56500 168.76100,194.56700 C 170.26900,190.93200 168.47500,186.85700 168.47500,186.85700 L 172.47300,178.00500 C 173.93500,178.08300 176.64200,178.67900 176.86000,178.23800 C 177.49800,175.94300 174.50500,173.23400 171.61600,165.44100 C 170.95000,160.68200 170.28300,155.92200 169.61700,151.16300 C 169.36500,149.96900 164.85800,147.73600 162.47900,146.02300 C 161.81200,145.70600 161.43000,142.17300 159.78400,140.50700 C 158.13700,138.84200 155.79800,137.02000 154.27500,135.35500 C 154.94900,134.00600 157.05300,128.31900 155.91100,120.89500 C 154.76900,113.47000 149.62900,106.90300 149.62900,106.90300 C 149.62900,106.90300 154.19800,109.18700 156.48200,106.61700 C 158.76600,104.04700 160.01300,101.26900 160.48000,100.90600 C 161.05100,100.54300 163.90600,100.33500 165.04900,101.19200 C 166.19100,102.04800 162.47700,110.32900 162.47900,114.04100 C 162.99900,119.46600 167.90400,125.74900 167.04700,128.60500 C 166.19100,131.46000 161.62200,132.03100 161.62200,132.03100 C 161.62200,132.03100 169.92900,134.49500 171.04500,127.46200 C 171.90200,122.60800 166.39800,117.72600 166.34700,115.54700 C 166.26100,113.74200 168.19000,110.61500 168.19000,110.61500 C 168.19000,110.61500 166.45000,112.86400 166.39800,115.49700 C 166.39800,118.11900 173.61500,124.32100 172.47300,129.17600 C 171.33100,134.03000 170.47400,135.17200 170.47400,135.17200 C 170.47400,135.17200 175.30400,132.42100 175.51100,129.51300 C 175.61400,126.60300 170.52600,117.08600 170.44700,114.64000 C 170.42100,112.20400 172.18700,110.90000 172.18700,110.90000 C 172.18700,110.90000 170.39500,111.62700 170.42200,114.61300 C 170.39500,117.76700 177.61300,129.17600 177.32700,129.74700 C 177.04200,130.31800 178.60000,128.13700 178.62600,126.32000 C 178.65400,124.40500 175.70500,119.86400 175.32800,115.88400 C 174.96500,112.10200 176.68500,112.06400 176.75600,110.32900 C 176.73100,108.30900 175.32800,108.04500 175.32800,108.04500 C 175.32800,108.04500 176.80800,109.18700 176.80800,110.32900 C 176.80800,111.47100 175.24900,112.01700 175.32800,115.75500 C 175.44200,118.62200 180.90800,125.87900 180.62300,129.07000 C 180.47000,130.51800 180.46800,135.74300 172.75800,138.59900 C 165.04900,141.45400 183.27200,139.35200 184.70000,131.07100 C 185.14200,125.27900 179.00400,119.47000 179.63700,115.26300 C 180.28400,111.31000 180.18300,106.61700 177.89800,105.18900 C 180.12600,106.66600 180.52000,108.92800 179.66400,115.21000 C 178.80700,121.49200 184.15000,123.21400 185.60800,123.17900 C 188.69900,123.15200 189.89100,116.89700 189.89100,116.89700 C 189.89100,116.89700 186.28700,121.30000 185.03700,120.60900 C 182.10500,118.84600 183.32400,105.76000 182.18200,104.61800 C 181.03900,103.47600 185.03700,108.33000 184.75200,108.04500 C 184.46600,107.75900 185.32300,96.908400 181.61000,97.194000 C 183.96600,92.707700 187.06100,84.086000 171.35600,79.517200 C 157.51800,73.029300 151.34200,78.652900 151.05600,82.630800 C 150.20000,92.625100 158.45400,99.324300 154.48300,102.33400 C 151.34200,104.04700 144.48900,99.192800 144.48900,99.192800 C 144.48900,99.192800 143.06100,95.195100 135.06600,94.052900 C 127.07000,92.910700 116.79000,94.338400 111.93600,93.196200 C 107.08200,92.054000 100.22800,87.485200 100.22800,87.485200 C 100.99000,86.628600 101.75100,85.771900 102.51300,84.915200 C 104.07800,85.017800 103.98400,83.097500 103.94100,81.488600 C 106.11100,81.132400 104.90900,78.130900 104.22600,76.063100 C 108.47900,73.587200 105.98900,68.673600 104.22600,65.212200 C 105.96300,62.556200 105.57400,60.678200 103.36900,58.644500 C 104.58700,56.066500 103.73100,53.799800 100.80000,52.933500 C 102.97000,52.076900 101.87200,51.116600 101.08500,50.363600 C 102.12200,49.195700 100.98000,48.131600 99.371800,47.793600 C 99.389900,46.603500 99.348600,45.620000 98.676000,45.057000 C 97.777100,44.186000 93.179500,43.808900 91.405300,40.457700 C 91.572000,41.071500 94.528200,44.324800 94.566700,39.935800 C 94.372200,37.442200 88.406400,38.568500 87.664200,37.513800 C 90.632900,37.123200 91.661900,36.657200 91.376300,36.657200 C 91.142700,35.256700 85.793000,33.776500 83.380900,34.372700 C 84.184600,31.805100 81.382000,27.519500 81.382000,27.519500 C 81.382000,25.711000 81.382000,23.902500 81.382000,22.094000 C 79.297500,24.473800 77.679800,26.231200 77.773600,29.700200 C 76.061700,28.773800 76.320600,27.173200 76.527700,25.520600 C 75.671000,25.711000 74.814400,25.901300 73.957700,26.091700 C 73.862500,24.949500 73.767400,23.807300 73.672200,22.665100 C 70.456500,23.909900 71.673300,28.376200 71.387800,27.805100 C 71.102200,27.233900 64.535100,25.343400 65.105600,29.803900 C 65.728000,30.893100 67.390100,31.231700 67.104500,31.231700 C 66.818900,31.231700 66.247800,33.230500 66.247800,33.230500 C 65.296000,34.087100 64.344100,34.943800 63.392300,35.800400 C 63.392300,35.800400 61.679000,35.514900 60.536800,36.086000 C 59.394600,36.657200 59.109100,39.227000 59.109100,39.227000 L 52.255800,44.081500 C 52.255800,44.081500 51.113600,43.510300 47.972600,46.080300 C 44.831500,48.650300 47.115900,51.791400 47.115900,51.791400 C 47.115900,51.791400 45.117100,55.503500 46.544800,57.502300 C 47.972600,59.501200 50.757000,58.613100 51.613600,60.040900 C 52.470300,61.468700 53.840900,60.721000 54.930100,60.254200 C 59.125600,62.101700 61.142700,55.754500 64.249000,53.504600 C 64.249000,53.504600 64.249000,57.787900 67.675600,56.645700 C 71.102200,55.503500 72.815500,55.789000 72.815500,55.789000 C 72.815500,55.789000 70.816700,68.353300 63.106800,75.492100 C 62.035700,76.458700 61.679000,82.059800 61.679000,82.059800 C 61.679000,82.059800 59.109100,82.059800 58.252400,84.344100 C 57.395800,86.628500 57.110200,92.054000 57.110200,92.054000 L 55.682500,105.18900 C 55.682500,105.18900 45.402600,104.61800 45.117100,104.33300 C 44.831500,104.04700 41.119400,101.76300 36.836100,104.33300 C 32.552800,106.90300 33.980600,110.32900 33.980600,110.32900 C 33.980600,110.32900 35.122800,119.75200 34.551700,121.75100 C 33.980600,123.75000 32.784800,124.97000 31.981700,128.60500 C 32.838400,132.60200 33.980600,132.88800 33.980600,132.88800 C 33.980600,132.88800 32.552800,134.03000 33.123900,136.60000 C 33.695000,139.17000 36.265000,140.59800 36.265000,140.59800 C 36.265000,140.59800 38.551100,147.60700 45.609500,147.37400 C 47.118200,144.75400 46.259300,138.59900 46.259300,138.59900 L 44.546000,137.74200 C 44.546000,137.74200 45.117100,134.31600 43.974900,134.03000 C 42.832700,133.74400 39.120500,134.31600 38.549400,132.88800 C 37.978300,131.46000 38.705000,129.51300 38.705000,129.51300 C 38.705000,129.51300 42.261600,127.46200 41.404900,125.74900 C 40.548200,124.03600 39.717200,123.28300 39.717200,122.99700 C 39.717200,122.71200 39.691600,113.75600 39.691600,113.75600 C 39.691600,113.75600 39.691600,110.90000 41.690500,109.75800 C 43.689300,108.61600 49.114800,111.18600 49.685900,112.89900 C 50.257000,114.61300 56.539100,121.46600 59.394600,122.03700 C 69.563200,124.21600 68.739100,126.65900 70.816700,126.89100 C 73.101700,126.91700 75.956600,124.32100 75.671000,124.60700 z "
       id="path552"
       sodipodi:nodetypes="ccccccccccccccccccccsccccccccccscsccsscscsssssssccsccscsccccccccccccccccccccccccccccccccccccccccccccccccccccccccccccccccccccccccc"
       style="font-size:12.000000px;fill:#ffffff;fill-rule:evenodd;stroke:#000000;stroke-width:1.2500000;stroke-linecap:round;stroke-linejoin:round"
       transform="matrix(1.502011,0.000000,0.000000,1.502011,200.8710,62.10596)" />
    <path
       d="M 161.28100,83.670900 C 161.28100,83.559000 162.28700,81.881200 167.43200,84.565600"
       id="path553"
       style="font-size:12.000000px;fill:none;fill-rule:evenodd;stroke:#000000;stroke-width:1.2500000;stroke-linecap:round;stroke-linejoin:round"
       transform="matrix(1.502011,0.000000,0.000000,1.502011,200.8710,62.10596)" />
    <path
       d="M 163.29400,80.539100 C 163.29400,80.539100 166.09000,79.868100 167.54400,81.545800"
       id="path554"
       style="font-size:12.000000px;fill:none;fill-rule:evenodd;stroke:#000000;stroke-width:1.2500000;stroke-linecap:round;stroke-linejoin:round"
       transform="matrix(1.502011,0.000000,0.000000,1.502011,200.8710,62.10596)" />
    <path
       d="M 172.46500,83.335300 C 172.46500,83.335300 177.16300,84.677400 177.72200,86.802500"
       id="path555"
       style="font-size:12.000000px;fill:none;fill-rule:evenodd;stroke:#000000;stroke-width:1.2500000;stroke-linecap:round;stroke-linejoin:round"
       transform="matrix(1.502011,0.000000,0.000000,1.502011,200.8710,62.10596)" />
    <path
       d="M 171.45900,85.572200 C 171.45900,85.572200 175.26100,85.795900 176.38000,88.480200"
       id="path556"
       style="font-size:12.000000px;fill:none;fill-rule:evenodd;stroke:#000000;stroke-width:1.2500000;stroke-linecap:round;stroke-linejoin:round"
       transform="matrix(1.502011,0.000000,0.000000,1.502011,200.8710,62.10596)" />
    <path
       d="M 170.22800,87.361700 C 170.22800,87.361700 174.14300,87.697200 175.48500,89.822300"
       id="path557"
       style="font-size:12.000000px;fill:none;fill-rule:evenodd;stroke:#000000;stroke-width:1.2500000;stroke-linecap:round;stroke-linejoin:round"
       transform="matrix(1.502011,0.000000,0.000000,1.502011,200.8710,62.10596)" />
    <path
       d="M 158.93200,102.01300 C 158.93200,102.01300 157.25400,98.658100 166.64900,98.210700"
       id="path558"
       style="font-size:12.000000px;fill:none;fill-rule:evenodd;stroke:#000000;stroke-width:1.2500000;stroke-linecap:round;stroke-linejoin:round"
       transform="matrix(1.502011,0.000000,0.000000,1.502011,200.8710,62.10596)" />
    <path
       d="M 146.51700,108.38900 C 146.51700,108.38900 150.76700,112.86200 150.43200,119.34900"
       id="path559"
       style="font-size:12.000000px;fill:none;fill-rule:evenodd;stroke:#000000;stroke-width:1.2500000;stroke-linecap:round;stroke-linejoin:round"
       transform="matrix(1.502011,0.000000,0.000000,1.502011,200.8710,62.10596)" />
    <path
       d="M 154.12300,138.58700 C 154.12300,138.58700 157.81400,141.38300 157.47800,142.39000"
       id="path560"
       style="font-size:12.000000px;fill:none;fill-rule:evenodd;stroke:#000000;stroke-width:1.2500000;stroke-linecap:round;stroke-linejoin:round"
       transform="matrix(1.502011,0.000000,0.000000,1.502011,200.8710,62.10596)" />
    <path
       d="M 115.31200,126.73100 C 115.31200,126.73100 120.45700,124.27100 127.83900,136.57400"
       id="path561"
       style="font-size:12.000000px;fill:none;fill-rule:evenodd;stroke:#000000;stroke-width:1.2500000;stroke-linecap:round;stroke-linejoin:round"
       transform="matrix(1.502011,0.000000,0.000000,1.502011,200.8710,62.10596)" />
    <path
       d="M 118.55600,132.54700 L 125.04300,132.77100"
       id="path562"
       style="font-size:12.000000px;fill:none;fill-rule:evenodd;stroke:#000000;stroke-width:1.2500000;stroke-linecap:round;stroke-linejoin:round"
       transform="matrix(1.502011,0.000000,0.000000,1.502011,200.8710,62.10596)" />
    <path
       d="M 150.32000,122.36900 C 150.32000,122.36900 153.45200,130.31000 148.41900,134.22500"
       id="path563"
       style="font-size:12.000000px;fill:none;fill-rule:evenodd;stroke:#000000;stroke-width:1.2500000;stroke-linecap:round;stroke-linejoin:round"
       transform="matrix(1.502011,0.000000,0.000000,1.502011,200.8710,62.10596)" />
    <path
       d="M 152.78100,131.42900 C 152.78100,131.42900 151.88600,135.90300 150.54400,136.57400"
       id="path564"
       style="font-size:12.000000px;fill:none;fill-rule:evenodd;stroke:#000000;stroke-width:1.2500000;stroke-linecap:round;stroke-linejoin:round"
       transform="matrix(1.502011,0.000000,0.000000,1.502011,200.8710,62.10596)" />
    <path
       d="M 145.51100,115.21100 C 145.51100,115.21100 145.51100,122.03400 144.16800,122.59300"
       id="path565"
       style="font-size:12.000000px;fill:none;fill-rule:evenodd;stroke:#000000;stroke-width:1.2500000;stroke-linecap:round;stroke-linejoin:round"
       transform="matrix(1.502011,0.000000,0.000000,1.502011,200.8710,62.10596)" />
    <path
       d="M 147.52400,118.45500 C 147.52400,118.45500 146.07000,125.27700 144.28000,126.06000"
       id="path566"
       style="font-size:12.000000px;fill:none;fill-rule:evenodd;stroke:#000000;stroke-width:1.2500000;stroke-linecap:round;stroke-linejoin:round"
       transform="matrix(1.502011,0.000000,0.000000,1.502011,200.8710,62.10596)" />
    <path
       d="M 148.41900,122.48100 C 148.41900,122.48100 146.29400,129.19200 144.50400,129.52700"
       id="path567"
       style="font-size:12.000000px;fill:none;fill-rule:evenodd;stroke:#000000;stroke-width:1.2500000;stroke-linecap:round;stroke-linejoin:round"
       transform="matrix(1.502011,0.000000,0.000000,1.502011,200.8710,62.10596)" />
    <path
       d="M 149.53700,126.28400 C 149.53700,126.28400 148.41900,130.08700 145.84600,132.32400"
       id="path568"
       style="font-size:12.000000px;fill:none;fill-rule:evenodd;stroke:#000000;stroke-width:1.2500000;stroke-linecap:round;stroke-linejoin:round"
       transform="matrix(1.502011,0.000000,0.000000,1.502011,200.8710,62.10596)" />
    <path
       d="M 130.52300,132.99500 C 130.52300,132.99500 137.34600,138.58700 143.72100,133.55400"
       id="path569"
       style="font-size:12.000000px;fill:none;fill-rule:evenodd;stroke:#000000;stroke-width:1.2500000;stroke-linecap:round;stroke-linejoin:round"
       transform="matrix(1.502011,0.000000,0.000000,1.502011,200.8710,62.10596)" />
    <path
       d="M 138.68800,137.69200 C 138.68800,137.69200 142.26700,138.36300 144.72800,136.46200"
       id="path570"
       style="font-size:12.000000px;fill:none;fill-rule:evenodd;stroke:#000000;stroke-width:1.2500000;stroke-linecap:round;stroke-linejoin:round"
       transform="matrix(1.502011,0.000000,0.000000,1.502011,200.8710,62.10596)" />
    <path
       d="M 168.77400,189.47600 L 160.38600,189.70000 C 160.38600,189.70000 160.38600,188.13400 157.47800,188.58200"
       id="path571"
       style="font-size:12.000000px;fill:none;fill-rule:evenodd;stroke:#000000;stroke-width:1.2500000;stroke-linecap:round;stroke-linejoin:round"
       transform="matrix(1.502011,0.000000,0.000000,1.502011,200.8710,62.10596)" />
    <path
       d="M 165.86600,175.38400 C 165.86600,175.38400 165.64300,177.06200 167.65600,177.50900"
       id="path572"
       style="font-size:12.000000px;fill:none;fill-rule:evenodd;stroke:#000000;stroke-width:1.2500000;stroke-linecap:round;stroke-linejoin:round"
       transform="matrix(1.502011,0.000000,0.000000,1.502011,200.8710,62.10596)" />
    <path
       d="M 164.97200,150.89000 C 164.97200,150.89000 166.64900,157.71200 167.43200,157.82400"
       id="path573"
       style="font-size:12.000000px;fill:none;fill-rule:evenodd;stroke:#000000;stroke-width:1.2500000;stroke-linecap:round;stroke-linejoin:round"
       transform="matrix(1.502011,0.000000,0.000000,1.502011,200.8710,62.10596)" />
    <path
       d="M 163.40600,153.57400 C 163.40600,153.57400 164.86000,154.69200 166.20200,154.02100 C 167.54400,153.35000 169.66900,153.68600 169.66900,153.68600"
       id="path574"
       style="font-size:12.000000px;fill:none;fill-rule:evenodd;stroke:#000000;stroke-width:1.2500000;stroke-linecap:round;stroke-linejoin:round"
       transform="matrix(1.502011,0.000000,0.000000,1.502011,200.8710,62.10596)" />
    <path
       d="M 82.429900,112.41500 C 82.429900,112.41500 87.910300,108.83600 88.805100,104.36200"
       id="path575"
       style="font-size:12.000000px;fill:none;fill-rule:evenodd;stroke:#000000;stroke-width:1.2500000;stroke-linecap:round;stroke-linejoin:round"
       transform="matrix(1.502011,0.000000,0.000000,1.502011,200.8710,62.10596)" />
    <path
       d="M 80.528600,109.50700 C 80.528600,109.50700 87.574800,105.36900 88.693200,100.33600"
       id="path576"
       style="font-size:12.000000px;fill:none;fill-rule:evenodd;stroke:#000000;stroke-width:1.2500000;stroke-linecap:round;stroke-linejoin:round"
       transform="matrix(1.502011,0.000000,0.000000,1.502011,200.8710,62.10596)" />
    <path
       d="M 81.423300,106.48700 C 81.423300,106.37500 88.693200,99.105400 88.916900,95.302700"
       id="path577"
       style="font-size:12.000000px;fill:none;fill-rule:evenodd;stroke:#000000;stroke-width:1.2500000;stroke-linecap:round;stroke-linejoin:round"
       transform="matrix(1.502011,0.000000,0.000000,1.502011,200.8710,62.10596)" />
    <path
       d="M 103.56900,92.730300 L 103.45700,96.868600"
       id="path578"
       style="font-size:12.000000px;fill:none;fill-rule:evenodd;stroke:#000000;stroke-width:1.2500000;stroke-linecap:round;stroke-linejoin:round"
       transform="matrix(1.502011,0.000000,0.000000,1.502011,200.8710,62.10596)" />
    <path
       d="M 101.77900,91.500000 L 101.66700,96.085600"
       id="path579"
       style="font-size:12.000000px;fill:none;fill-rule:evenodd;stroke:#000000;stroke-width:1.2500000;stroke-linecap:round;stroke-linejoin:round"
       transform="matrix(1.502011,0.000000,0.000000,1.502011,200.8710,62.10596)" />
    <path
       d="M 98.535600,90.605200 C 98.535600,90.605200 99.765900,90.717100 99.542200,92.059200 C 99.318500,93.401400 99.430400,96.644900 99.430400,96.644900"
       id="path580"
       style="font-size:12.000000px;fill:none;fill-rule:evenodd;stroke:#000000;stroke-width:1.2500000;stroke-linecap:round;stroke-linejoin:round"
       transform="matrix(1.502011,0.000000,0.000000,1.502011,200.8710,62.10596)" />
    <path
       d="M 95.404000,89.486700 C 95.404000,89.486700 96.746100,90.717100 96.522400,92.618500 C 96.298700,94.519800 97.081600,94.855300 97.081600,94.855300"
       id="path581"
       style="font-size:12.000000px;fill:none;fill-rule:evenodd;stroke:#000000;stroke-width:1.2500000;stroke-linecap:round;stroke-linejoin:round"
       transform="matrix(1.502011,0.000000,0.000000,1.502011,200.8710,62.10596)" />
    <path
       d="M 142.71400,146.86300 C 142.71400,146.86300 147.74800,163.19300 147.52400,165.20600 C 147.30000,167.21900 144.05700,176.39100 139.91800,176.39100 C 138.68800,178.51600 139.47100,180.41700 139.47100,180.41700 C 139.47100,180.41700 134.55000,185.45000 136.33900,187.46300 C 138.12900,189.47600 145.62200,186.12100 150.43200,183.21300 C 150.99100,178.85100 150.09600,176.27900 150.09600,176.27900 C 150.09600,176.27900 154.23500,172.70000 152.66900,167.77800 C 155.01800,169.56800 157.70200,168.33800 157.70200,168.33800 C 157.70200,168.33800 153.67500,163.86400 153.34000,161.40300 C 153.00400,158.94300 153.67500,150.33100 153.67500,150.33100 C 153.67500,150.33100 146.40500,150.44200 142.71400,146.86300 z "
       id="path582"
       sodipodi:nodetypes="cccccccccccc"
       style="font-size:12.000000px;fill:#ffffff;fill-rule:evenodd;stroke:#000000;stroke-width:1.2500000;stroke-linecap:round;stroke-linejoin:round"
       transform="matrix(1.502011,0.000000,0.000000,1.502011,200.8710,62.10596)" />
    <path
       d="M 143.38600,178.51600 C 143.38600,178.51600 149.20200,177.62100 150.43200,179.85800"
       id="path583"
       style="font-size:12.000000px;fill:none;fill-rule:evenodd;stroke:#000000;stroke-width:1.2500000;stroke-linecap:round;stroke-linejoin:round"
       transform="matrix(1.502011,0.000000,0.000000,1.502011,200.8710,62.10596)" />
    <path
       d="M 147.74800,165.87700 C 147.85900,165.98900 149.98400,167.77900 149.53700,168.67300"
       id="path584"
       style="font-size:12.000000px;fill:none;fill-rule:evenodd;stroke:#000000;stroke-width:1.2500000;stroke-linecap:round;stroke-linejoin:round"
       transform="matrix(1.502011,0.000000,0.000000,1.502011,200.8710,62.10596)" />
    <path
       d="M 148.41900,149.65900 C 148.41900,149.65900 150.87900,151.89600 150.65500,153.68600"
       id="path585"
       style="font-size:12.000000px;fill:none;fill-rule:evenodd;stroke:#000000;stroke-width:1.2500000;stroke-linecap:round;stroke-linejoin:round"
       transform="matrix(1.502011,0.000000,0.000000,1.502011,200.8710,62.10596)" />
    <path
       d="M 41.942000,134.00100 C 41.942000,134.00100 40.264300,135.79100 40.376100,137.02100 C 40.488000,138.25100 40.711700,142.72500 40.711700,142.72500"
       id="path586"
       style="font-size:12.000000px;fill:none;fill-rule:evenodd;stroke:#000000;stroke-width:1.2500000;stroke-linecap:round;stroke-linejoin:round"
       transform="matrix(1.502011,0.000000,0.000000,1.502011,200.8710,62.10596)" />
    <path
       d="M 33.218000,131.76400 L 39.705000,127.96200"
       id="path587"
       style="font-size:12.000000px;fill:none;fill-rule:evenodd;stroke:#000000;stroke-width:1.2500000;stroke-linecap:round;stroke-linejoin:round"
       transform="matrix(1.502011,0.000000,0.000000,1.502011,200.8710,62.10596)" />
    <path
       d="M 39.593200,105.36900 C 39.593200,105.36900 36.797100,107.82900 37.244500,108.72400 C 37.691800,109.61900 39.145800,107.27000 40.488000,107.27000"
       id="path588"
       style="font-size:12.000000px;fill:none;fill-rule:evenodd;stroke:#000000;stroke-width:1.2500000;stroke-linecap:round;stroke-linejoin:round"
       transform="matrix(1.502011,0.000000,0.000000,1.502011,200.8710,62.10596)" />
    <path
       d="M 57.376600,115.65900 C 57.376600,115.65900 61.403000,119.12600 64.199200,119.46100 C 66.995300,119.79700 68.225600,123.04000 70.574300,122.70500 C 72.923100,122.36900 76.614000,116.77700 76.614000,116.77700"
       id="path589"
       style="font-size:12.000000px;fill:none;fill-rule:evenodd;stroke:#000000;stroke-width:1.2500000;stroke-linecap:round;stroke-linejoin:round"
       transform="matrix(1.502011,0.000000,0.000000,1.502011,200.8710,62.10596)" />
    <path
       d="M 75.383700,124.15900 L 80.752200,116.66500"
       id="path590"
       style="font-size:12.000000px;fill:none;fill-rule:evenodd;stroke:#000000;stroke-width:1.2500000;stroke-linecap:round;stroke-linejoin:round"
       transform="matrix(1.502011,0.000000,0.000000,1.502011,200.8710,62.10596)" />
    <path
       d="M 82.541800,117.00100 C 82.541800,117.00100 80.975900,122.48100 82.206200,123.60000"
       id="path591"
       style="font-size:12.000000px;fill:none;fill-rule:evenodd;stroke:#000000;stroke-width:1.2500000;stroke-linecap:round;stroke-linejoin:round"
       transform="matrix(1.502011,0.000000,0.000000,1.502011,200.8710,62.10596)" />
    <path
       d="M 84.666800,118.34300 L 84.666800,124.60600"
       id="path592"
       style="font-size:12.000000px;fill:none;fill-rule:evenodd;stroke:#000000;stroke-width:1.2500000;stroke-linecap:round;stroke-linejoin:round"
       transform="matrix(1.502011,0.000000,0.000000,1.502011,200.8710,62.10596)" />
    <path
       d="M 87.910300,118.45500 C 87.910300,118.45500 85.897100,121.81000 87.239300,124.60600"
       id="path593"
       style="font-size:12.000000px;fill:none;fill-rule:evenodd;stroke:#000000;stroke-width:1.2500000;stroke-linecap:round;stroke-linejoin:round"
       transform="matrix(1.502011,0.000000,0.000000,1.502011,200.8710,62.10596)" />
    <path
       d="M 89.476200,119.12600 C 89.476200,119.12600 89.476200,124.71800 90.370900,124.60600"
       id="path594"
       style="font-size:12.000000px;fill:none;fill-rule:evenodd;stroke:#000000;stroke-width:1.2500000;stroke-linecap:round;stroke-linejoin:round"
       transform="matrix(1.502011,0.000000,0.000000,1.502011,200.8710,62.10596)" />
    <path
       d="M 91.601200,121.02700 C 91.601200,121.02700 92.831500,122.48100 92.607800,123.60000 C 92.384100,124.71800 92.496000,125.72500 92.496000,125.72500"
       id="path595"
       style="font-size:12.000000px;fill:none;fill-rule:evenodd;stroke:#000000;stroke-width:1.2500000;stroke-linecap:round;stroke-linejoin:round"
       transform="matrix(1.502011,0.000000,0.000000,1.502011,200.8710,62.10596)" />
    <path
       d="M 71.692800,81.433900 L 71.692800,81.433900 C 71.692800,81.433900 69.903300,81.769500 68.337400,83.782700 C 66.771600,85.795900 68.225600,86.131400 66.771600,87.361700 C 65.317600,88.592000 64.199200,87.809000 62.968900,90.269700 C 61.738600,92.730300 61.626700,99.664700 61.626700,99.664700 C 61.626700,99.664700 59.613500,103.57900 60.060900,104.69800 C 60.508300,105.81600 55.587100,105.14500 55.587100,105.14500"
       id="path596"
       style="font-size:12.000000px;fill:none;fill-rule:evenodd;stroke:#000000;stroke-width:1.2500000;stroke-linecap:round;stroke-linejoin:round"
       transform="matrix(1.502011,0.000000,0.000000,1.502011,200.8710,62.10596)" />
    <path
       d="M 59.949000,105.25700 C 59.949000,105.25700 64.199100,106.93500 64.311000,108.94800"
       id="path597"
       style="font-size:12.000000px;fill:none;fill-rule:evenodd;stroke:#000000;stroke-width:1.2500000;stroke-linecap:round;stroke-linejoin:round"
       transform="matrix(1.502011,0.000000,0.000000,1.502011,200.8710,62.10596)" />
    <path
       d="M 56.258100,105.36900 C 56.258100,105.36900 60.284600,106.82300 61.067500,109.61900"
       id="path598"
       style="font-size:12.000000px;fill:none;fill-rule:evenodd;stroke:#000000;stroke-width:1.2500000;stroke-linecap:round;stroke-linejoin:round"
       transform="matrix(1.502011,0.000000,0.000000,1.502011,200.8710,62.10596)" />
    <path
       d="M 64.199200,96.756700 C 64.199200,96.756700 67.330800,92.171100 69.120300,91.611800"
       id="path599"
       style="font-size:12.000000px;fill:none;fill-rule:evenodd;stroke:#000000;stroke-width:1.2500000;stroke-linecap:round;stroke-linejoin:round"
       transform="matrix(1.502011,0.000000,0.000000,1.502011,200.8710,62.10596)" />
    <path
       d="M 65.765000,92.282900 C 65.765000,92.282900 67.107100,88.703900 70.574300,87.361700"
       id="path600"
       style="font-size:12.000000px;fill:none;fill-rule:evenodd;stroke:#000000;stroke-width:1.2500000;stroke-linecap:round;stroke-linejoin:round"
       transform="matrix(1.502011,0.000000,0.000000,1.502011,200.8710,62.10596)" />
    <path
       d="M 71.804600,76.400900 C 71.804600,76.400900 66.659700,77.743000 65.429400,82.776100"
       id="path601"
       style="font-size:12.000000px;fill:none;fill-rule:evenodd;stroke:#000000;stroke-width:1.2500000;stroke-linecap:round;stroke-linejoin:round"
       transform="matrix(1.502011,0.000000,0.000000,1.502011,200.8710,62.10596)" />
    <path
       d="M 70.686200,74.387600 C 70.686200,74.387600 66.771600,75.618000 66.212400,77.407500"
       id="path602"
       style="font-size:12.000000px;fill:none;fill-rule:evenodd;stroke:#000000;stroke-width:1.2500000;stroke-linecap:round;stroke-linejoin:round"
       transform="matrix(1.502011,0.000000,0.000000,1.502011,200.8710,62.10596)" />
    <path
       d="M 61.514900,81.993100 C 61.514900,81.993100 57.712100,87.138000 60.731900,91.276300"
       id="path603"
       style="font-size:12.000000px;fill:none;fill-rule:evenodd;stroke:#000000;stroke-width:1.2500000;stroke-linecap:round;stroke-linejoin:round"
       transform="matrix(1.502011,0.000000,0.000000,1.502011,200.8710,62.10596)" />
    <path
       d="M 56.705500,92.730300 C 56.593700,92.618500 52.679100,91.164400 51.448800,90.493400 C 50.218500,89.822300 45.968400,84.341900 45.297300,84.453700 C 44.626200,84.565600 38.251100,82.999700 37.132600,84.453700 C 36.014200,85.907700 28.744200,94.855300 28.744200,94.855300 C 28.744200,94.855300 27.961300,96.533000 26.395500,97.315900 C 24.829600,98.098900 19.572900,100.55900 19.237400,102.34900 C 18.901800,104.13900 19.237400,113.98100 20.467700,115.65900 C 21.698000,117.33600 27.178400,120.80300 27.178400,120.80300 C 27.178400,120.80300 29.862700,114.54000 29.639000,107.94100 C 29.527100,107.15800 27.290200,107.94100 27.178400,107.82900 C 27.066500,107.71800 26.059900,102.68500 26.731000,102.23700 C 27.402100,101.79000 31.204800,103.24400 32.211400,101.90200 C 33.218000,100.55900 36.685200,91.611800 40.823500,91.723700 C 44.961800,91.835500 52.119900,105.14500 52.119900,105.14500 L 55.587100,105.03300 L 56.705500,92.730300 z "
       id="path604"
       sodipodi:nodetypes="ccccccccccccccccc"
       style="font-size:12.000000px;fill:#ffffff;fill-rule:evenodd;stroke:#000000;stroke-width:1.2500000;stroke-linecap:round;stroke-linejoin:round"
       transform="matrix(1.502011,0.000000,0.000000,1.502011,200.8710,62.10596)" />
    <path
       d="M 20.579500,115.99400 C 20.579500,115.99400 24.941500,114.09300 27.290200,107.71800"
       id="path605"
       style="font-size:12.000000px;fill:none;fill-rule:evenodd;stroke:#000000;stroke-width:1.2500000;stroke-linecap:round;stroke-linejoin:round"
       transform="matrix(1.502011,0.000000,0.000000,1.502011,200.8710,62.10596)" />
    <path
       d="M 20.244000,101.00700 C 20.244000,101.00700 20.579500,105.03300 23.263800,104.47400"
       id="path606"
       style="font-size:12.000000px;fill:none;fill-rule:evenodd;stroke:#000000;stroke-width:1.2500000;stroke-linecap:round;stroke-linejoin:round"
       transform="matrix(1.502011,0.000000,0.000000,1.502011,200.8710,62.10596)" />
    <path
       d="M 37.915500,92.171100 C 37.915500,92.171100 32.882500,94.855300 32.099600,96.533000"
       id="path607"
       style="font-size:12.000000px;fill:none;fill-rule:evenodd;stroke:#000000;stroke-width:1.2500000;stroke-linecap:round;stroke-linejoin:round"
       transform="matrix(1.502011,0.000000,0.000000,1.502011,200.8710,62.10596)" />
    <path
       d="M 36.349700,89.822300 C 36.461500,89.710400 37.915500,85.236700 43.507800,88.592000"
       id="path608"
       style="font-size:12.000000px;fill:none;fill-rule:evenodd;stroke:#000000;stroke-width:1.2500000;stroke-linecap:round;stroke-linejoin:round"
       transform="matrix(1.502011,0.000000,0.000000,1.502011,200.8710,62.10596)" />
    <path
       d="M 53.573900,91.723700 C 52.902800,92.506600 51.225100,94.743500 49.547400,94.743500"
       id="path609"
       style="font-size:12.000000px;fill:none;fill-rule:evenodd;stroke:#000000;stroke-width:1.2500000;stroke-linecap:round;stroke-linejoin:round"
       transform="matrix(1.502011,0.000000,0.000000,1.502011,200.8710,62.10596)" />
    <path
       d="M 55.810800,94.184300 C 55.587100,94.184300 50.554000,95.414600 50.442200,96.533000"
       id="path610"
       style="font-size:12.000000px;fill:none;fill-rule:evenodd;stroke:#000000;stroke-width:1.2500000;stroke-linecap:round;stroke-linejoin:round"
       transform="matrix(1.502011,0.000000,0.000000,1.502011,200.8710,62.10596)" />
    <path
       d="M 55.922600,95.750100 C 55.810800,95.750100 51.896200,96.980400 51.784300,98.098900"
       id="path611"
       style="font-size:12.000000px;fill:none;fill-rule:evenodd;stroke:#000000;stroke-width:1.2500000;stroke-linecap:round;stroke-linejoin:round"
       transform="matrix(1.502011,0.000000,0.000000,1.502011,200.8710,62.10596)" />
    <path
       d="M 55.587100,95.973800 L 54.916000,100.78300"
       id="path612"
       style="font-size:12.000000px;fill:none;fill-rule:evenodd;stroke:#000000;stroke-width:1.2500000;stroke-linecap:round;stroke-linejoin:round"
       transform="matrix(1.502011,0.000000,0.000000,1.502011,200.8710,62.10596)" />
    <path
       d="M 58.383200,54.702900 C 59.054300,56.156900 55.027800,60.183300 55.027800,60.183300 C 55.027800,60.183300 52.567200,61.301800 52.008100,60.183300 C 47.869700,59.064900 57.712100,53.248900 58.383200,54.702900 z "
       id="path613"
       sodipodi:nodetypes="cccc"
       style="font-size:12.000000px;fill:none;fill-rule:evenodd;stroke:#000000;stroke-width:1.2500000;stroke-linecap:round;stroke-linejoin:round"
       transform="matrix(1.502011,0.000000,0.000000,1.502011,200.8710,62.10596)" />
    <path
       d="M 58.830600,43.294700 L 54.580500,47.656700 C 54.580500,47.656700 54.244900,50.900200 52.455400,51.683100"
       id="path614"
       style="font-size:12.000000px;fill:none;fill-rule:evenodd;stroke:#000000;stroke-width:1.2500000;stroke-linecap:round;stroke-linejoin:round"
       transform="matrix(1.502011,0.000000,0.000000,1.502011,200.8710,62.10596)" />
    <path
       d="M 51.800400,49.110600 C 49.534700,48.993400 51.535600,47.131000 52.297500,48.333100 C 52.744900,49.451600 51.225100,51.794900 49.435600,51.571200"
       id="path615"
       sodipodi:nodetypes="ccc"
       style="font-size:12.000000px;fill:none;fill-rule:evenodd;stroke:#000000;stroke-width:1.2500000;stroke-linecap:round;stroke-linejoin:round"
       transform="matrix(1.502011,0.000000,0.000000,1.502011,200.8710,62.10596)" />
    <path
       d="M 83.456100,33.905300 C 83.364800,33.996600 83.090900,38.105500 80.351600,38.653400"
       id="path616"
       style="font-size:12.000000px;fill:none;fill-rule:evenodd;stroke:#000000;stroke-width:1.2500000;stroke-linecap:round;stroke-linejoin:round"
       transform="matrix(1.502011,0.000000,0.000000,1.502011,200.8710,62.10596)" />
    <path
       d="M 82.360400,36.918500 C 82.360400,36.918500 101.07900,51.984400 95.326300,76.546400"
       id="path617"
       style="font-size:12.000000px;fill:none;fill-rule:evenodd;stroke:#000000;stroke-width:1.2500000;stroke-linecap:round;stroke-linejoin:round"
       transform="matrix(1.502011,0.000000,0.000000,1.502011,200.8710,62.10596)" />
    <path
       d="M 84.734400,39.201200 C 84.734400,39.201200 85.008400,45.501500 84.460500,45.866700"
       id="path618"
       style="font-size:12.000000px;fill:none;fill-rule:evenodd;stroke:#000000;stroke-width:1.2500000;stroke-linecap:round;stroke-linejoin:round"
       transform="matrix(1.502011,0.000000,0.000000,1.502011,200.8710,62.10596)" />
    <path
       d="M 86.925800,41.484000 C 86.925800,41.484000 86.286700,48.149500 85.373600,48.788700"
       id="path619"
       style="font-size:12.000000px;fill:none;fill-rule:evenodd;stroke:#000000;stroke-width:1.2500000;stroke-linecap:round;stroke-linejoin:round"
       transform="matrix(1.502011,0.000000,0.000000,1.502011,200.8710,62.10596)" />
    <path
       d="M 88.478100,43.492700 C 88.478100,43.492700 90.213000,48.788700 86.469300,52.441000"
       id="path620"
       style="font-size:12.000000px;fill:none;fill-rule:evenodd;stroke:#000000;stroke-width:1.2500000;stroke-linecap:round;stroke-linejoin:round"
       transform="matrix(1.502011,0.000000,0.000000,1.502011,200.8710,62.10596)" />
    <path
       d="M 91.034700,47.145100 C 91.034700,47.145100 89.482500,53.901900 88.295500,54.084500"
       id="path621"
       style="font-size:12.000000px;fill:none;fill-rule:evenodd;stroke:#000000;stroke-width:1.2500000;stroke-linecap:round;stroke-linejoin:round"
       transform="matrix(1.502011,0.000000,0.000000,1.502011,200.8710,62.10596)" />
    <path
       d="M 92.769600,50.797400 C 92.769600,50.797400 89.482500,58.832600 88.569400,58.741300"
       id="path622"
       style="font-size:12.000000px;fill:none;fill-rule:evenodd;stroke:#000000;stroke-width:1.2500000;stroke-linecap:round;stroke-linejoin:round"
       transform="matrix(1.502011,0.000000,0.000000,1.502011,200.8710,62.10596)" />
    <path
       d="M 94.139200,53.628000 C 94.139200,53.628000 91.308700,60.932700 89.299900,62.576300"
       id="path623"
       style="font-size:12.000000px;fill:none;fill-rule:evenodd;stroke:#000000;stroke-width:1.2500000;stroke-linecap:round;stroke-linejoin:round"
       transform="matrix(1.502011,0.000000,0.000000,1.502011,200.8710,62.10596)" />
    <path
       d="M 95.143600,57.097700 C 95.143600,57.097700 91.765200,65.041600 90.578200,65.772100"
       id="path624"
       style="font-size:12.000000px;fill:none;fill-rule:evenodd;stroke:#000000;stroke-width:1.2500000;stroke-linecap:round;stroke-linejoin:round"
       transform="matrix(1.502011,0.000000,0.000000,1.502011,200.8710,62.10596)" />
    <path
       d="M 93.956600,64.676300 C 93.956600,64.676300 93.134900,69.880900 89.939000,70.885300"
       id="path625"
       style="font-size:12.000000px;fill:none;fill-rule:evenodd;stroke:#000000;stroke-width:1.2500000;stroke-linecap:round;stroke-linejoin:round"
       transform="matrix(1.502011,0.000000,0.000000,1.502011,200.8710,62.10596)" />
    <path
       d="M 73.138200,55.728100 C 73.138200,55.728100 77.612400,56.915200 79.986400,53.901900 C 82.360400,50.888700 81.082100,48.240700 82.634300,46.232000"
       id="path626"
       style="font-size:12.000000px;fill:none;fill-rule:evenodd;stroke:#000000;stroke-width:1.2500000;stroke-linecap:round;stroke-linejoin:round"
       transform="matrix(1.502011,0.000000,0.000000,1.502011,200.8710,62.10596)" />
    <path
       d="M 68.298900,47.145100 C 68.298900,47.145100 69.942400,48.605900 69.668500,51.162600 C 69.394600,53.719300 65.559600,55.454100 64.737800,55.545500"
       id="path627"
       style="font-size:12.000000px;fill:none;fill-rule:evenodd;stroke:#000000;stroke-width:1.2500000;stroke-linecap:round;stroke-linejoin:round"
       transform="matrix(1.502011,0.000000,0.000000,1.502011,200.8710,62.10596)" />
    <path
       d="M 74.781800,36.096700 C 74.781800,36.188000 74.507900,39.292500 73.320900,39.840400"
       id="path628"
       style="font-size:12.000000px;fill:none;fill-rule:evenodd;stroke:#000000;stroke-width:1.2500000;stroke-linecap:round;stroke-linejoin:round"
       transform="matrix(1.502011,0.000000,0.000000,1.502011,200.8710,62.10596)" />
    <path
       d="M 74.873100,37.740300 C 74.873100,37.740300 76.608000,41.027400 73.503500,42.397000"
       id="path629"
       style="font-size:12.000000px;fill:none;fill-rule:evenodd;stroke:#000000;stroke-width:1.2500000;stroke-linecap:round;stroke-linejoin:round"
       transform="matrix(1.502011,0.000000,0.000000,1.502011,200.8710,62.10596)" />
    <path
       d="M 64.555200,37.649000 C 64.555200,37.649000 68.572800,33.905300 70.581600,37.557600"
       id="path630"
       style="font-size:12.000000px;fill:none;fill-rule:evenodd;stroke:#000000;stroke-width:1.2500000;stroke-linecap:round;stroke-linejoin:round"
       transform="matrix(1.502011,0.000000,0.000000,1.502011,200.8710,62.10596)" />
    <path
       d="M 67.457100,37.980400 C 67.457100,37.980400 63.266300,38.434900 64.225700,40.858400 C 65.185000,43.282000 69.123400,41.918700 69.375800,41.514800 C 69.628300,41.110900 71.446000,41.464300 71.446000,41.464300 C 71.446000,41.464300 69.274900,38.232800 67.457100,37.980400 z "
       id="path631"
       style="font-size:12.000000px;fill:#ffffff;fill-rule:evenodd;stroke:#000000;stroke-width:1.2500000;stroke-linecap:round;stroke-linejoin:round"
       transform="matrix(1.502011,0.000000,0.000000,1.502011,200.8710,62.10596)" />
    <path
       d="M 68.063000,38.384300 C 68.063000,38.384300 65.891900,39.848600 66.447300,40.606000 C 67.002700,41.363300 69.022400,39.747600 69.072900,39.192200 C 69.123400,38.636700 68.265000,38.384300 68.063000,38.384300 z "
       id="path632"
       style="font-size:12.000000px;fill-rule:evenodd;stroke:#000000;stroke-width:1.2500000;stroke-linecap:round;stroke-linejoin:round"
       transform="matrix(1.502011,0.000000,0.000000,1.502011,200.8710,62.10596)" />
    <path
       d="M 77.505000,47.169800 C 77.505000,47.169800 77.454500,52.471500 75.687300,52.522000"
       id="path633"
       style="font-size:12.000000px;fill:none;fill-rule:evenodd;stroke:#000000;stroke-width:1.2500000;stroke-linecap:round;stroke-linejoin:round"
       transform="matrix(1.502011,0.000000,0.000000,1.502011,200.8710,62.10596)" />
    <path
       d="M 79.625700,47.371900 C 79.625700,47.472800 79.827700,51.815200 77.404100,52.875500"
       id="path634"
       style="font-size:12.000000px;fill:none;fill-rule:evenodd;stroke:#000000;stroke-width:1.2500000;stroke-linecap:round;stroke-linejoin:round"
       transform="matrix(1.502011,0.000000,0.000000,1.502011,200.8710,62.10596)" />
    <path
       d="M 66.952200,31.012500 C 66.901700,30.962000 66.699800,29.649200 68.113500,29.346300 C 69.527300,29.043300 69.274900,31.214500 70.739100,31.618400 C 72.203400,32.022300 74.172600,32.779700 74.576500,32.577700"
       id="path635"
       style="font-size:12.000000px;fill:none;fill-rule:evenodd;stroke:#000000;stroke-width:1.2500000;stroke-linecap:round;stroke-linejoin:round"
       transform="matrix(1.502011,0.000000,0.000000,1.502011,200.8710,62.10596)" />
    <path
       d="M 71.446000,28.033500 C 71.446000,28.033500 72.910300,29.952200 73.364700,29.800700"
       id="path636"
       style="font-size:12.000000px;fill:none;fill-rule:evenodd;stroke:#000000;stroke-width:1.2500000;stroke-linecap:round;stroke-linejoin:round"
       transform="matrix(1.502011,0.000000,0.000000,1.502011,200.8710,62.10596)" />
    <path
       d="M 66.750300,32.375800 C 66.750300,32.375800 68.113500,33.133100 70.082700,31.517400"
       id="path637"
       style="font-size:12.000000px;fill:none;fill-rule:evenodd;stroke:#000000;stroke-width:1.2500000;stroke-linecap:round;stroke-linejoin:round"
       transform="matrix(1.502011,0.000000,0.000000,1.502011,200.8710,62.10596)" />
    <path
       d="M 75.384400,31.264900 C 75.384400,31.264900 76.848600,32.325300 76.596200,34.647900"
       id="path638"
       style="font-size:12.000000px;fill:none;fill-rule:evenodd;stroke:#000000;stroke-width:1.2500000;stroke-linecap:round;stroke-linejoin:round"
       transform="matrix(1.502011,0.000000,0.000000,1.502011,200.8710,62.10596)" />
    <path
       d="M 79.676200,28.134400 C 79.373200,30.406500 79.221800,32.224300 78.262400,33.183600 C 77.606000,34.799400 78.817800,35.960800 79.676200,35.960800 C 80.534500,35.960800 81.241400,34.950900 81.090000,33.486600 C 80.534600,32.224300 80.029600,30.103600 79.676200,28.134400 z "
       id="path639"
       sodipodi:nodetypes="ccccc"
       style="font-size:12.000000px;fill:none;fill-rule:evenodd;stroke:#000000;stroke-width:1.2500000;stroke-linecap:round;stroke-linejoin:round"
       transform="matrix(1.502011,0.000000,0.000000,1.502011,200.8710,62.10596)" />
    <path
       d="M 77.000100,55.854500 C 77.000100,55.854500 75.283400,57.924700 74.172600,57.621700"
       id="path640"
       style="font-size:12.000000px;fill:none;fill-rule:evenodd;stroke:#000000;stroke-width:1.2500000;stroke-linecap:round;stroke-linejoin:round"
       transform="matrix(1.502011,0.000000,0.000000,1.502011,200.8710,62.10596)" />
    <path
       d="M 78.918800,55.400100 C 78.918800,55.400100 76.495200,59.540400 74.172600,59.792800"
       id="path641"
       style="font-size:12.000000px;fill:none;fill-rule:evenodd;stroke:#000000;stroke-width:1.2500000;stroke-linecap:round;stroke-linejoin:round"
       transform="matrix(1.502011,0.000000,0.000000,1.502011,200.8710,62.10596)" />
    <path
       d="M 78.666300,58.480000 C 78.666300,58.480000 74.324000,62.216500 74.273600,62.267000"
       id="path642"
       style="font-size:12.000000px;fill:none;fill-rule:evenodd;stroke:#000000;stroke-width:1.2500000;stroke-linecap:round;stroke-linejoin:round"
       transform="matrix(1.502011,0.000000,0.000000,1.502011,200.8710,62.10596)" />
    <path
       d="M 77.505000,61.509600 L 74.475500,64.640100"
       id="path643"
       style="font-size:12.000000px;fill:none;fill-rule:evenodd;stroke:#000000;stroke-width:1.2500000;stroke-linecap:round;stroke-linejoin:round"
       transform="matrix(1.502011,0.000000,0.000000,1.502011,200.8710,62.10596)" />
    <path
       d="M 96.237500,78.676800 C 96.237500,78.676800 99.267000,83.019100 98.964100,84.685300 C 98.661100,86.351600 97.247400,87.714900 97.247400,87.714900"
       id="path644"
       style="font-size:12.000000px;fill:none;fill-rule:evenodd;stroke:#000000;stroke-width:1.2500000;stroke-linecap:round;stroke-linejoin:round"
       transform="matrix(1.502011,0.000000,0.000000,1.502011,200.8710,62.10596)" />
    <path
       d="M 98.307700,76.202700 C 98.307700,76.202700 98.812600,80.544900 100.07500,81.504300 C 101.33700,82.463700 101.89300,85.089300 101.64000,85.543700"
       id="path645"
       style="font-size:12.000000px;fill:none;fill-rule:evenodd;stroke:#000000;stroke-width:1.2500000;stroke-linecap:round;stroke-linejoin:round"
       transform="matrix(1.502011,0.000000,0.000000,1.502011,200.8710,62.10596)" />
    <path
       d="M 99.418500,73.930600 C 99.418500,73.930600 100.88300,78.323300 101.69100,78.878800 C 102.49900,79.434200 103.60900,81.706400 103.60900,81.706400"
       id="path646"
       style="font-size:12.000000px;fill:none;fill-rule:evenodd;stroke:#000000;stroke-width:1.2500000;stroke-linecap:round;stroke-linejoin:round"
       transform="matrix(1.502011,0.000000,0.000000,1.502011,200.8710,62.10596)" />
    <path
       d="M 99.570000,70.244600 C 99.570000,70.244600 99.620500,73.274200 101.59000,74.284000 C 103.55900,75.293900 104.41700,76.303700 104.41700,76.303700"
       id="path647"
       style="font-size:12.000000px;fill:none;fill-rule:evenodd;stroke:#000000;stroke-width:1.2500000;stroke-linecap:round;stroke-linejoin:round"
       transform="matrix(1.502011,0.000000,0.000000,1.502011,200.8710,62.10596)" />
    <path
       d="M 99.620500,65.094500 C 99.620500,65.094500 99.216500,68.124100 101.33700,69.335800 C 103.45800,70.547600 103.76100,75.142400 103.76100,75.142400"
       id="path648"
       style="font-size:12.000000px;fill:none;fill-rule:evenodd;stroke:#000000;stroke-width:1.2500000;stroke-linecap:round;stroke-linejoin:round"
       transform="matrix(1.502011,0.000000,0.000000,1.502011,200.8710,62.10596)" />
    <path
       d="M 101.38800,67.164700 C 101.38800,67.164700 103.76100,67.770500 103.40700,71.254500"
       id="path649"
       style="font-size:12.000000px;fill:none;fill-rule:evenodd;stroke:#000000;stroke-width:1.2500000;stroke-linecap:round;stroke-linejoin:round"
       transform="matrix(1.502011,0.000000,0.000000,1.502011,200.8710,62.10596)" />
    <path
       d="M 98.711600,61.408600 C 98.711600,61.408600 101.43800,65.144900 104.01300,65.296400"
       id="path650"
       style="font-size:12.000000px;fill:none;fill-rule:evenodd;stroke:#000000;stroke-width:1.2500000;stroke-linecap:round;stroke-linejoin:round"
       transform="matrix(1.502011,0.000000,0.000000,1.502011,200.8710,62.10596)" />
    <path
       d="M 98.408700,57.419700 C 98.408700,57.419700 103.15500,60.701800 102.54900,64.438100"
       id="path651"
       style="font-size:12.000000px;fill:none;fill-rule:evenodd;stroke:#000000;stroke-width:1.2500000;stroke-linecap:round;stroke-linejoin:round"
       transform="matrix(1.502011,0.000000,0.000000,1.502011,200.8710,62.10596)" />
    <path
       d="M 98.661100,54.541700 C 98.661100,54.592200 100.07500,57.116800 101.23600,57.318800 C 102.39800,57.520700 103.35700,57.369300 103.35700,57.369300"
       id="path652"
       style="font-size:12.000000px;fill:none;fill-rule:evenodd;stroke:#000000;stroke-width:1.2500000;stroke-linecap:round;stroke-linejoin:round"
       transform="matrix(1.502011,0.000000,0.000000,1.502011,200.8710,62.10596)" />
    <path
       d="M 96.591000,51.613200 L 100.93300,53.127900"
       id="path653"
       style="font-size:12.000000px;fill:none;fill-rule:evenodd;stroke:#000000;stroke-width:1.2500000;stroke-linecap:round;stroke-linejoin:round"
       transform="matrix(1.502011,0.000000,0.000000,1.502011,200.8710,62.10596)" />
    <path
       d="M 95.126700,48.280700 C 95.126700,48.280700 99.166000,50.502300 100.88300,50.653800"
       id="path654"
       style="font-size:12.000000px;fill:none;fill-rule:evenodd;stroke:#000000;stroke-width:1.2500000;stroke-linecap:round;stroke-linejoin:round"
       transform="matrix(1.502011,0.000000,0.000000,1.502011,200.8710,62.10596)" />
    <path
       d="M 94.419800,45.352100 C 94.419800,45.402600 96.389000,46.765900 97.398800,46.715400 C 98.408700,46.664900 99.115600,47.725300 99.115600,47.725300"
       id="path655"
       style="font-size:12.000000px;fill:none;fill-rule:evenodd;stroke:#000000;stroke-width:1.2500000;stroke-linecap:round;stroke-linejoin:round"
       transform="matrix(1.502011,0.000000,0.000000,1.502011,200.8710,62.10596)" />
  </g>
</svg>
