<?xml version="1.0" encoding="UTF-8" standalone="no"?>
<svg
   xmlns:dc="http://purl.org/dc/elements/1.1/"
   xmlns:cc="http://web.resource.org/cc/"
   xmlns:rdf="http://www.w3.org/1999/02/22-rdf-syntax-ns#"
   xmlns:svg="http://www.w3.org/2000/svg"
   xmlns="http://www.w3.org/2000/svg"
   xmlns:sodipodi="http://sodipodi.sourceforge.net/DTD/sodipodi-0.dtd"
   xmlns:inkscape="http://www.inkscape.org/namespaces/inkscape"
   id="svg1"
   width="480"
   height="480"
   sodipodi:version="0.32"
   inkscape:version="0.44"
   sodipodi:docname="a.medicine.svg"
   sodipodi:docbase="C:\Documents and Settings\다니엘\바탕 화면\tech"
   version="1.0">
  <metadata
     id="metadata1337">
    <rdf:RDF>
      <cc:Work
         rdf:about="">
        <dc:format>image/svg+xml</dc:format>
        <dc:type
           rdf:resource="http://purl.org/dc/dcmitype/StillImage" />
      </cc:Work>
    </rdf:RDF>
  </metadata>
  <defs
     id="defs1335" />
  <sodipodi:namedview
     inkscape:window-height="748"
     inkscape:window-width="992"
     inkscape:pageshadow="2"
     inkscape:pageopacity="0.0"
     borderopacity="1.0"
     bordercolor="#666666"
     pagecolor="#ffffff"
     id="base"
     borderlayer="top"
     inkscape:zoom="0.77916667"
     inkscape:cx="406.84492"
     inkscape:cy="125.44381"
     inkscape:window-x="0"
     inkscape:window-y="0"
     inkscape:current-layer="svg1" />
  <rect
     style="opacity:1;color:#000000;fill:#003b00;fill-opacity:1;fill-rule:nonzero;stroke:none;stroke-width:35;stroke-linecap:butt;stroke-linejoin:miter;marker:none;marker-start:none;marker-mid:none;marker-end:none;stroke-miterlimit:4;stroke-dasharray:none;stroke-dashoffset:0;stroke-opacity:1;visibility:visible;display:inline;overflow:visible"
     id="rect1317"
     width="480"
     height="480"
     x="0"
     y="0" />
  <g
     id="g2886"
     transform="matrix(2.298913,0,0,2.298913,16.99743,19.31236)">
    <g
       id="cross">
      <path
         d="M 74,133 L 74,185 L 118,185 L 118,133 L 162,159 L 184,121 L 140,96 L 184,70 L 162,32 L 117,58 L 117,7 L 74,7 L 74,58 L 30,32 L 8,70 L 52,96 L 8,121 L 30,159 L 74,133 z "
         style="fill:none;stroke:#33b;stroke-width:6"
         id="outline" />
      <path
         d="M 74,133 L 74,185 L 118,185 L 118,133 L 162,159 L 184,121 L 140,96 L 184,70 L 162,32 L 117,58 L 117,7 L 74,7 L 74,58 L 30,32 L 8,70 L 52,96 L 8,121 L 30,159 L 74,133 z "
         style="fill:#00b;fill-rule:evenodd;stroke:white;stroke-width:2"
         id="inner" />
    </g>
    <g
       style="fill:white;fill-rule:evenodd;stroke:#33b;stroke-width:2"
       id="symbols">
      <path
         d="M 93,166 C 93,173 99,173 99,166 L 102,28 C 102,20 90,20 90,28 L 93,169 L 93,166 z "
         id="rod" />
      <g
         id="snake">
        <path
           d="M 100,153 C 107,157 103,168 97,168 C 99,163 100,159 100,153 z M 101,113 C 111,122 105,135 98,139 C 92,142 92,146 92,154 C 83,144 88,135 96,130 C 101,126 101,120 101,113 z M 102,83 C 102,94 85,97 85,105 C 85,108 86,114 91,117 C 91,106 100,105 106,99 C 113,92 113,80 102,71 C 102,75 102,79 102,83 z M 90,77 C 80,69 76,55 80,46 C 83,36 100,35 100,43 C 100,51 80,46 87,59 L 90,64 L 90,77 z "
           id="body" />
        <path
           d="M 95,43 C 102,40 88,40 95,43 z "
           style="fill:#33b;fill-rule:evenodd;stroke:none"
           id="eye" />
      </g>
    </g>
  </g>
</svg>
