<?xml version="1.0" encoding="UTF-8" standalone="no"?>
<svg
   xmlns:dc="http://purl.org/dc/elements/1.1/"
   xmlns:cc="http://web.resource.org/cc/"
   xmlns:rdf="http://www.w3.org/1999/02/22-rdf-syntax-ns#"
   xmlns:svg="http://www.w3.org/2000/svg"
   xmlns="http://www.w3.org/2000/svg"
   xmlns:sodipodi="http://sodipodi.sourceforge.net/DTD/sodipodi-0.dtd"
   xmlns:inkscape="http://www.inkscape.org/namespaces/inkscape"
   id="svg1"
   width="48mm"
   height="48mm"
   sodipodi:version="0.32"
   inkscape:version="0.44"
   sodipodi:docname="a.recycling.svg"
   sodipodi:docbase="/home/fred/work/freeciv/r-hires!.5/src/tech">
  <metadata
     id="metadata5481">
    <rdf:RDF>
      <cc:Work
         rdf:about="">
        <dc:format>image/svg+xml</dc:format>
        <dc:type
           rdf:resource="http://purl.org/dc/dcmitype/StillImage" />
      </cc:Work>
    </rdf:RDF>
  </metadata>
  <defs
     id="defs5479" />
  <sodipodi:namedview
     inkscape:window-height="748"
     inkscape:window-width="992"
     inkscape:pageshadow="2"
     inkscape:pageopacity="0.0"
     guidetolerance="10.0"
     gridtolerance="10.0"
     objecttolerance="10.0"
     borderopacity="1.0"
     bordercolor="#666666"
     pagecolor="#ffffff"
     id="base"
     inkscape:zoom="1.5715449"
     inkscape:cx="111.76466"
     inkscape:cy="51.314591"
     inkscape:window-x="0"
     inkscape:window-y="0"
     inkscape:current-layer="svg1" />
  <rect
     style="opacity:1;color:black;fill:#aef;fill-opacity:1;fill-rule:nonzero;stroke:none;stroke-width:10;stroke-linecap:butt;stroke-linejoin:miter;marker:none;marker-start:none;marker-mid:none;marker-end:none;stroke-miterlimit:4;stroke-dasharray:none;stroke-dashoffset:0;stroke-opacity:1;visibility:visible;display:inline;overflow:visible"
     id="rect7295"
     width="170.07874"
     height="170.07874"
     x="0"
     y="-4.8059178e-06" />
  <g
     id="g7285"
     transform="matrix(0.174761,0,0,0.174761,8.086673,78.89134)">
    <path
       style="fill:green;fill-opacity:1;stroke:black;stroke-width:10;stroke-miterlimit:4;stroke-dasharray:none;stroke-opacity:1"
       id="path5377"
       d="M 337.23671,-64.320372 C 191.23671,-149.32037 191.23671,-149.32037 191.23671,-149.32037 C 267.23671,-282.32037 267.23671,-282.32037 267.23671,-282.32037 C 287.73671,-319.82037 365.73671,-320.82037 392.73671,-288.32037 C 430.23671,-226.32037 430.23671,-226.32037 430.23671,-226.32037 L 337.23671,-64.320372 z " />
    <path
       style="fill:green;fill-opacity:1;stroke:black;stroke-width:10;stroke-miterlimit:4;stroke-dasharray:none;stroke-opacity:1"
       id="path5379"
       d="M 219.23671,138.67963 C 141.23671,138.67963 141.23671,138.67963 141.23671,138.67963 C 110.98671,134.92963 60.736712,73.179628 91.236712,17.679628 C 125.23671,-39.320372 125.23671,-39.320372 125.23671,-39.320372 C 72.236712,-70.320372 72.236712,-70.320372 72.236712,-70.320372 C 240.23671,-70.320372 240.23671,-70.320372 240.23671,-70.320372 C 325.23671,75.679628 325.23671,75.679628 325.23671,75.679628 C 272.23671,46.679628 272.23671,46.679628 272.23671,46.679628 L 219.23671,138.67963 z " />
    <path
       style="fill:green;fill-opacity:1;stroke:black;stroke-width:10;stroke-miterlimit:4;stroke-dasharray:none;stroke-opacity:1"
       id="path5381"
       d="M 420.23671,159.67963 C 420.23671,330.67963 420.23671,330.67963 420.23671,330.67963 C 233.23671,330.67963 233.23671,330.67963 233.23671,330.67963 C 221.73671,331.17963 214.23671,320.67963 208.23671,311.67963 C 120.23671,155.42963 120.98671,156.67963 116.98671,151.17963 C 121.48671,155.42963 126.98671,159.42963 142.23671,159.67963 L 420.23671,159.67963 z " />
    <path
       style="fill:green;fill-opacity:1;stroke:black;stroke-width:10;stroke-miterlimit:4;stroke-dasharray:none;stroke-opacity:1"
       id="path5383"
       d="M 744.23671,159.67963 C 762.73671,157.17963 766.23671,152.67963 770.73671,149.67963 C 677.23671,315.67963 677.23671,315.67963 677.23671,315.67963 C 673.23671,323.67963 665.23671,330.67963 653.23671,330.67963 C 549.23671,330.67963 549.23671,330.67963 549.23671,330.67963 C 549.23671,391.67963 549.23671,391.67963 549.23671,391.67963 C 464.23671,246.67963 464.23671,246.67963 464.23671,246.67963 C 549.23671,100.67963 549.23671,100.67963 549.23671,100.67963 C 549.23671,159.67963 549.23671,159.67963 549.23671,159.67963 L 744.23671,159.67963 z " />
    <path
       style="fill:green;fill-opacity:1;stroke:black;stroke-width:10;stroke-miterlimit:4;stroke-dasharray:none;stroke-opacity:1"
       id="path5385"
       d="M 576.23671,-21.320372 C 723.23671,-105.32037 723.23671,-105.32037 723.23671,-105.32037 C 800.23671,25.679628 800.23671,25.679628 800.23671,25.679628 C 827.73671,79.179628 779.73671,131.17963 748.23671,137.67963 C 669.23671,137.67963 669.23671,137.67963 669.23671,137.67963 L 576.23671,-21.320372 z " />
    <path
       style="fill:green;fill-opacity:1;stroke:black;stroke-width:10;stroke-miterlimit:4;stroke-dasharray:none;stroke-opacity:1"
       id="path5387"
       d="M 414.23671,-301.32037 C 408.23671,-309.32037 395.73671,-319.32037 385.23671,-321.32037 C 582.23671,-321.32037 582.23671,-321.32037 582.23671,-321.32037 C 592.73671,-321.32037 602.73671,-317.82037 608.23671,-308.32037 C 659.23671,-218.32037 659.23671,-218.32037 659.23671,-218.32037 C 710.23671,-247.32037 710.23671,-247.32037 710.23671,-247.32037 C 627.23671,-103.32037 627.23671,-103.32037 627.23671,-103.32037 C 461.23671,-103.32037 461.23671,-103.32037 461.23671,-103.32037 C 511.23671,-133.32037 511.23671,-133.32037 511.23671,-133.32037 L 414.23671,-301.32037 z " />
  </g>
</svg>
