<?xml version="1.0" encoding="UTF-8" standalone="no"?>
<!-- Created with Inkscape (http://www.inkscape.org/) -->
<svg
   xmlns:dc="http://purl.org/dc/elements/1.1/"
   xmlns:cc="http://web.resource.org/cc/"
   xmlns:rdf="http://www.w3.org/1999/02/22-rdf-syntax-ns#"
   xmlns:svg="http://www.w3.org/2000/svg"
   xmlns="http://www.w3.org/2000/svg"
   xmlns:sodipodi="http://sodipodi.sourceforge.net/DTD/sodipodi-0.dtd"
   xmlns:inkscape="http://www.inkscape.org/namespaces/inkscape"
   height="1000"
   id="svg1"
   inkscape:version="0.44"
   sodipodi:docbase="C:\freeciv\sources"
   sodipodi:docname="trade.svg"
   sodipodi:version="0.32"
   width="1000"
   version="1.0"
   inkscape:export-filename="C:\freeciv\trade.png"
   inkscape:export-xdpi="4.3200002"
   inkscape:export-ydpi="4.3200002">
  <metadata
     id="metadata5074">
    <rdf:RDF>
      <cc:Work
         rdf:about="">
        <dc:title>Handshake</dc:title>
        <dc:description />
        <dc:subject>
          <rdf:Bag>
            <rdf:li />
            <rdf:li>people</rdf:li>
            <rdf:li>friends</rdf:li>
            <rdf:li>business</rdf:li>
            <rdf:li>handshake</rdf:li>
          </rdf:Bag>
        </dc:subject>
        <dc:publisher>
          <cc:Agent
             rdf:about="http://www.openclipart.org">
            <dc:title>Nathan Eady</dc:title>
          </cc:Agent>
        </dc:publisher>
        <dc:creator>
          <cc:Agent>
            <dc:title>Nathan Eady</dc:title>
          </cc:Agent>
        </dc:creator>
        <dc:rights>
          <cc:Agent>
            <dc:title>Nathan Eady</dc:title>
          </cc:Agent>
        </dc:rights>
        <dc:date />
        <dc:format>image/svg+xml</dc:format>
        <dc:type
           rdf:resource="http://purl.org/dc/dcmitype/StillImage" />
        <cc:license
           rdf:resource="http://web.resource.org/cc/PublicDomain" />
        <dc:language>en</dc:language>
      </cc:Work>
      <cc:License
         rdf:about="http://web.resource.org/cc/PublicDomain">
        <cc:permits
           rdf:resource="http://web.resource.org/cc/Reproduction" />
        <cc:permits
           rdf:resource="http://web.resource.org/cc/Distribution" />
        <cc:permits
           rdf:resource="http://web.resource.org/cc/DerivativeWorks" />
      </cc:License>
    </rdf:RDF>
  </metadata>
  <defs
     id="defs3">
    <linearGradient
       id="linearGradient1549">
      <stop
         id="stop1550"
         offset="0.0000000"
         style="stop-color:#e1a547;stop-opacity:1.0000000;" />
      <stop
         id="stop1552"
         offset="0.50000000"
         style="stop-color:#cdb250;stop-opacity:1.0000000;" />
      <stop
         id="stop1551"
         offset="1.0000000"
         style="stop-color:#ffaaaa;stop-opacity:1.0000000;" />
    </linearGradient>
    <linearGradient
       id="linearGradient1546">
      <stop
         id="stop1547"
         offset="0"
         style="stop-color:#000;stop-opacity:1;" />
      <stop
         id="stop1548"
         offset="1"
         style="stop-color:#fff;stop-opacity:1;" />
    </linearGradient>
    <linearGradient
       id="linearGradient1541">
      <stop
         id="stop1542"
         offset="0"
         style="stop-color:#000;stop-opacity:1;" />
      <stop
         id="stop1543"
         offset="1"
         style="stop-color:#fff;stop-opacity:1;" />
    </linearGradient>
  </defs>
  <sodipodi:namedview
     bordercolor="#666666"
     borderopacity="1.0"
     id="base"
     inkscape:cx="572.04789"
     inkscape:cy="540.75985"
     inkscape:pageopacity="0.0000000"
     inkscape:pageshadow="2"
     inkscape:window-height="883"
     inkscape:window-width="1182"
     inkscape:window-x="75"
     inkscape:window-y="26"
     inkscape:zoom="0.61399264"
     pagecolor="#ffffff"
     width="750px"
     height="1000px"
     inkscape:current-layer="svg1" />
  <rect
     style="fill:#d4aa00;fill-opacity:1;stroke:none;stroke-width:5.36600018;stroke-miterlimit:4;stroke-dasharray:none;stroke-opacity:1"
     id="rect5095"
     width="1000"
     height="1000"
     x="0"
     y="0" />
  <g
     id="g14251"
     transform="translate(54.70354,149.5365)">
    <path
       d="M 50.896376,186.06816 C 104.16791,180.63921 157.43945,175.21027 210.71099,169.78132 C 218.85441,164.69168 226.99783,159.60205 235.14125,154.51241 C 253.80326,147.04761 272.46526,137.54695 291.12727,130.08214 C 307.75342,119.90287 321.06537,107.93698 337.95193,104.63396 C 357.31478,100.84658 385.45522,102.25879 406.15308,111.75945 C 449.92396,174.87096 493.69485,237.98246 537.46573,301.09397 C 573.77181,337.06074 610.07789,373.02751 646.38397,408.99428 C 661.99219,430.03145 660.13314,463.42328 650.45568,478.21335 C 642.14975,490.90732 611.77443,499.25052 592.43381,491.44641 C 593.79105,508.75118 590.05865,529.10973 581.23661,540.30693 C 569.36079,548.11104 548.32362,554.89723 533.39402,551.50414 C 537.46573,566.09443 530.69417,586.42748 521.17889,595.27502 C 511.35355,604.41086 497.76656,610.20462 475.37215,605.45429 C 474.01491,612.91909 474.12096,622.50475 469.14109,627.12892 C 459.86997,635.73781 445.51294,639.38521 432.61919,645.15347 C 249.39224,549.12898 183.22695,547.77173 91.613476,530.12766 C 78.380419,429.35284 64.129433,286.84298 50.896376,186.06816 z "
       id="path4929"
       sodipodi:nodetypes="ccccscccscccscsccc"
       style="fill:#66320a;fill-opacity:0.99899298;fill-rule:evenodd;stroke:black;stroke-width:1pt;stroke-linecap:butt;stroke-linejoin:miter;stroke-opacity:0" />
    <path
       d="M 211.61633,507.43298 C 204.11805,515.64539 196.02686,537.91205 192.90196,550.61999 C 192.42795,552.54765 198.33522,549.19852 200.0998,550.61999 C 206.25284,559.03556 209.15248,563.70451 218.81417,571.49371 C 223.60672,575.35744 228.77967,578.85716 233.92962,582.29046 C 241.01599,587.0147 248.02045,591.96492 255.52312,595.96634 C 266.01504,601.56203 275.33343,610.47133 287.91338,611.08179 C 306.74029,627.45029 317.69358,634.01083 339.73778,639.87314 C 344.32557,651.52556 351.11923,663.87432 362.77085,667.22491 C 373.38642,670.27756 391.21026,666.24445 403.07873,662.90621 C 413.89182,659.86481 427.69191,647.68381 433.30963,642.03248 C 439.83416,635.46892 437.49561,624.19104 433.30963,614.68072 C 430.48748,608.26891 419.09926,603.8179 410.99635,600.28504 C 415.4792,594.70038 421.61238,590.69825 421.7931,585.16959 C 422.20057,572.70408 418.89805,562.87701 409.55678,552.77934 C 399.48567,541.89272 380.0884,537.15227 367.80934,545.5815 C 368.57186,536.91234 370.17853,524.4476 362.05107,515.3506 C 349.69985,501.52599 335.62125,495.92831 317.4245,496.63623 C 287.83066,497.78755 281.49212,512.14946 266.31987,523.26821 C 255.65652,531.08268 237.45567,539.62158 229.61092,538.38367 C 227.3787,532.66367 228.14392,524.27378 223.13287,517.50995 C 220.0125,513.29813 217.07415,510.36698 211.61633,507.43298 z "
       id="path3686"
       sodipodi:nodetypes="cscsssccsssscsscssscsc"
       style="fill:#ffd8b4;fill-opacity:1;fill-rule:evenodd;stroke:black;stroke-width:1pt;stroke-linecap:butt;stroke-linejoin:miter;stroke-opacity:0" />
    <path
       d="M -15.268913,149.42277 C 59.718415,156.20895 134.98794,160.7301 209.69307,169.78132 C 244.50173,173.99871 240.13383,343.28347 231.06954,427.31698 C 223.84699,494.27605 190.01361,561.3782 160.83255,622.75906 C 150.65375,644.16964 127.91964,676.70922 112.98995,676.70922 C 97.721124,676.70922 27.484041,657.02929 -15.268913,647.18932 L -15.268913,149.42277 z "
       id="path8038"
       sodipodi:nodetypes="csssscc"
       style="fill:#bcbcbc;fill-opacity:1;fill-rule:evenodd;stroke:black;stroke-width:1pt;stroke-linecap:butt;stroke-linejoin:miter;stroke-opacity:0" />
    <path
       d="M 599.5593,121.93873 L 587.34417,126.01044 L 582.25454,140.26142 L 660.63495,421.20941 L 672.85008,429.35283 L 679.97558,431.38869 L 688.119,427.31698 L 695.24449,387.61781 L 685.06521,292.95055 L 657.58117,185.05023 L 619.91785,126.01044 L 599.5593,121.93873 z "
       id="path13008"
       style="fill:#404f60;fill-opacity:1;fill-rule:evenodd;stroke:black;stroke-width:1pt;stroke-linecap:butt;stroke-linejoin:miter;stroke-opacity:0" />
    <path
       d="M 613.51214,130.2568 C 601.29701,133.31058 578.33473,143.90985 566.07,142.29728 C 552.66529,140.53482 527.31892,132.99179 496.74416,127.85329 C 465.59796,122.61875 449.52754,111.76055 421.42199,110.61803 C 388.87295,109.29488 379.68696,130.08215 363.40012,146.36899 C 333.2016,167.06685 287.9958,187.33532 278.91214,202.355 C 269.06427,218.63829 253.80326,256.64447 253.46395,271.57407 C 244.98122,287.86091 232.02182,303.02567 230.89489,321.15437 C 229.24767,347.65312 263.02872,350.88611 277.89421,344.86485 C 288.77884,340.45604 295.53829,331.9711 304.36033,325.52423 C 329.41805,316.04476 346.55816,286.41136 364.41805,260.37687 C 382.98773,254.3928 393.6398,247.68895 407.171,235.94661 C 414.51231,243.48375 425.45253,241.66371 435.67297,236.96453 C 434.29333,254.36162 519.28771,291.19286 539.50158,302.1119 C 575.00555,339.47707 609.78973,371.80376 647.45305,408.44915 C 648.81028,412.52086 653.04665,420.19149 654.40389,424.2632 C 659.83284,421.20942 668.75062,419.49413 672.85008,415.10185 C 678.25127,409.31485 680.9935,400.85086 685.06521,393.72537 C 705.42376,388.29642 725.78232,382.86748 746.14087,377.43853 C 718.99613,286.50367 691.8514,195.56882 664.70666,104.63396 C 647.40189,114.13462 630.81691,120.75614 613.51214,130.2568 z "
       id="path919"
       sodipodi:nodetypes="cszscscsscccccccscccc"
       style="fill:#ffd8b4;fill-opacity:1;fill-rule:nonzero;stroke:black;stroke-width:1pt;stroke-linecap:butt;stroke-linejoin:miter;stroke-opacity:0" />
    <path
       d="M 578.18283,140.26142 C 577.13373,134.23619 583.28245,122.45269 594.46967,117.86702 C 701.59905,75.13404 800.09102,55.43413 902.9017,24.217685 L 916.13476,380.49231 C 803.18415,399.53479 755.37395,413.53878 682.01143,435.4604 C 677.76507,435.36808 666.32087,428.43782 660.63495,422.22734 C 667.08183,424.2632 677.1683,429.30103 679.97558,428.33491 C 686.01092,426.25785 686.98867,405.99779 686.08314,394.7433 C 682.23834,346.958 678.70432,297.26689 665.72459,251.21552 C 653.93475,209.38582 642.83995,152.38495 611.77443,131.10007 C 607.27878,128.01983 599.58767,125.68657 594.46967,127.20302 C 590.42633,128.40104 586.24391,133.31058 584.29039,139.24349 L 578.18283,140.26142 z "
       id="path9902"
       sodipodi:nodetypes="ccccccssssscc"
       style="fill:#6e88a4;fill-opacity:1;fill-rule:evenodd;stroke:black;stroke-width:1pt;stroke-linecap:butt;stroke-linejoin:miter;stroke-opacity:0" />
  </g>
</svg>
